<?xml version="1.0" encoding="UTF-8"?>
<svg id="_レイヤー_2" data-name="レイヤー 2" xmlns="http://www.w3.org/2000/svg" xmlns:xlink="http://www.w3.org/1999/xlink" viewBox="0 0 426.45 442.32">
  <defs>
    <style>
      .cls-1 {
        fill: none;
      }

      .cls-2 {
        fill: #221815;
      }

      .cls-3 {
        fill: #ffe100;
      }

      .cls-4 {
        fill: #aaa64c;
      }

      .cls-5 {
        fill: #003894;
      }

      .cls-6 {
        fill: #fff;
      }

      .cls-7 {
        fill: #005bac;
      }

      .cls-8 {
        clip-path: url(#clippath);
      }
    </style>
    <clipPath id="clippath">
      <path class="cls-1" d="M390.94,217.34c.07-12.49-5.34-22.53-15.6-29.03-.69-.44-1.39-.87-2.1-1.27-.77-.43-1.55-.85-2.34-1.22-11.64-5.67-23.69-4.48-34.15-2.53-5.83,1.33-9.45,2.5-11.74,3.46-1.46-1.46-3.03-2.84-4.74-4.07-.97-.67-6.37-4.22-14.15-5.76-.48-2.23-.98-3.96-1.26-4.88-.01-.05-.23-.79-.25-.84-1.29-3.88-4.26-11.63-9.68-19.9-6.8-10.34-15.02-17.72-24.49-21.96-15.15-6.65-29.01-3.93-42.64,8.55-6.19,6.4-11.53,14.18-15.87,23.1-.54,1.11-4.52,10.56-4.96,11.86-1.56,4.27-6.56,19.27-5.14,33.03.89,10.47,5.87,20.97,13,27.42.12.11.54.44.67.53,7.94,6.03,16.67,9.07,25.99,9.07,1.13,0,2.27-.05,3.42-.13,12.05-.93,21.23-4.61,21.51-4.72,1.18-.45,2.22-.93,3.33-1.4,3.32,4.59,7.6,8.48,12.65,11.05,6.29,3.17,11.23,4.29,15.81,4.29.67,0,1.31-.14,1.97-.18.25.54.51,1.09.92,1.73,9.83,18.52,24.19,24.87,33.25,24.47.58.03,1.17.05,1.76.05,15.78,0,33.72-11.18,44.46-28.18l.53-.88c3.53-5.77,8.87-14.5,9.85-31.66Z"/>
    </clipPath>
  </defs>
  <g id="_レイヤー_1-2" data-name="レイヤー 1">
    <g>
      <path class="cls-7" d="M426.45,224.81c0,117.76-84.41,196.43-213.22,196.43S0,342.57,0,224.81,95.46,11.58,213.22,11.58s213.22,95.46,213.22,213.22Z"/>
      <g>
        <g>
          <g>
            <path class="cls-2" d="M419.51,293.36c-1.3-.72-2.84-1.24-3.8-1.44-6.81-1.4-13.64-2.18-20.31-2.33-3.7-.09-7.16,0-10.49.16-1.79-20.11-8.09-39.31-19.27-58.27,1.62-9.72,2.12-22.36,2.53-32.66l.21-5.17c.84-18.75-5.88-43.26-14.38-52.46-2.12-2.29-5.31-4.04-8.13-4.45-21.54-3.21-49.87,5.35-81.73,24.67l-4-.59c-26.18-3.9-58.77-8.75-103.06,1.53-1.4.32-2.95.78-4.54,1.26-2.37.71-6.76,1.98-7.92,1.68-8.49-4.64-30.28-15.71-49.14-18.49-17.53-2.61-29.09.83-34.52,10.31-15.37,28.86-7.65,69.07-4.44,79.47-16,31.01-15.69,63.87-15.6,67.47-.01.84.03,1.72.04,2.58-.84.06-1.6.09-2.48.16-8.93.71-17.8,1.58-28.07,4.44-3.34.92-6.41,3.14-5.81,5.59.47,1.92,2.84,2.35,4.83,2.35,1.54,0,2.85-.25,2.89-.26,10.63-2.16,16.02-2.75,23.47-3.55l3.14-.34c.81-.09,1.61-.13,2.42-.2.81,9.68,2.85,19.99,6.48,30.18-4.44,1.67-9.56,3.89-15.71,7.07-.04.02-3.98,2.08-4.74,4.62-.23.78-.15,1.56.23,2.24.62,1.11,1.92,1.46,3.31,1.46,2.3,0,4.82-.95,4.86-.96,1.84-.81,3.57-1.58,5.21-2.31,3.72-1.66,6.96-3.05,10-4.23,3.93,8.9,9.09,17.53,15.73,25.34-6.84,3.95-15.09,9.33-24.43,16.6-1.94,1.52-3.19,3.45-3.41,5.32-.12,1.04.11,1.99.65,2.67.41.51,1.18.73,2.1.73,1.62,0,3.71-.68,5.14-1.7,10.26-7.27,19.16-12.89,26.15-17.04,7.51,7.31,16.5,13.67,27.22,18.49,35.27,15.84,67.77,19.4,108.95,20l4.04-.06,4.36.06c47.38-.69,84.81-7.46,111.26-20.11,15.35-7.34,27.56-17.24,36.7-29.54,7.64,2.61,16.9,6.62,25.83,12.66,1.14.79,3.45,2.16,5.5,2.16.92,0,1.79-.27,2.47-1.01.29-.3.61-.85.53-1.73-.17-1.86-2.23-4.46-3.56-5.43-9.12-6.66-18.29-10.95-26.01-13.74,5.25-8.67,9.17-18.37,11.72-29.12,5.64.9,12.22,2.35,19.44,4.77.04,0,2.17.71,4.26.71,1.57,0,3.11-.39,3.7-1.78.27-.63.26-1.33-.03-2.02-1.04-2.48-5.39-4.32-5.43-4.33-7.12-2.82-14.12-4.47-20.31-5.49,1.35-8.14,2.01-16.8,1.93-26,.02-1.57-.07-3.12-.1-4.67,2.94-.16,5.97-.26,9.16-.22,4.96.05,10.48.42,15.35.74,1.52.1,2.99.19,4.4.28,3.19.18,7.1-.41,7.57-2.73.17-.81-.11-2.03-2.36-3.29Z"/>
            <path class="cls-6" d="M354.53,231.5c1.76-9.13,2.29-22.42,2.71-33.11l.22-5.23c.76-16.97-5.67-38.25-11.49-44.55-.51-.56-1.4-.99-1.72-1.06-18.78-2.76-45.27,5.51-74.57,23.31-2.08,1.26-3.22,1.95-5.23,1.65l-5.91-.87c-25.25-3.76-56.69-8.45-98.98,1.36-1.2.27-2.52.68-3.88,1.08-5.38,1.6-11.46,3.43-16.3.79-7.98-4.35-28.38-14.75-45.5-17.28-12.59-1.85-20.45-.25-23.34,4.78-10.47,19.65-8.42,46.45-5.73,61.45.72-.85,1.42-1.62,2.07-2.27,2.63-2.63,5.32-3.6,7.16-2.33,1.91,1.32,1.15,4.66-.08,7.33-1.22,2.65-3.69,7.76-5.63,11.18,0,0,0,.01,0,.02-16.85,29.6-16.54,62.53-16.45,66.2,0,.74.03,1.51.04,2.26,9.31.02,14.99,1,17.89,1.74l.21.05c.06.01,7.62,1.41,7.18,5.05-.39,3.23-4.98,2.99-7.2,2.87l-.82-.06c-2.44-.37-8.96-1.24-16.85-1.4.79,8.79,2.71,18.09,6.01,27.25,4.52-1.04,7.71-1.28,9.83-1.4l.29-.02c2.79-.15,9.39-.25,9.73,3.07.3,2.87-4.87,4.24-7.11,4.7-1.04.21-2.16.36-3.41.53-1.75.24-3.74.52-6.09,1.02,3.77,8.24,8.76,16.15,15.14,23.24,6.63-3.22,10.45-4.4,10.53-4.42.06-.03,6.57-1.68,7.84,1.28,1.09,2.56-1.67,3.92-4.33,5.24-.85.42-1.74.86-2.55,1.35,0,0-.09.05-.26.13-1.03.51-2.75,1.4-5.02,2.62,6.17,5.56,13.32,10.43,21.71,14.2,33.54,15.07,64.84,18.46,104.45,19.04l4.04-.06,4.36.06c44.98-.67,81.88-7.25,106.54-19.04,12.36-5.91,22.38-13.54,30.17-22.9-3.71-.86-5.98-1.18-6.04-1.19-1.42-.14-5.85-1.17-7.34-3.19-.44-.61-.61-1.28-.47-1.94.75-3.62,7.32-2.9,10.09-2.43.35.03,3.75.38,9.03,1.65,5.2-7.94,9.03-16.98,11.53-27.1-2.33-.14-4.2-.17-5.48-.17-2.44.01-5.28-.05-5.28-.05-.74-.07-6.59-.76-6.82-3.68-.03-.39.05-1,.6-1.64,1.31-1.53,4.62-2.39,6.03-2.5l.31-.03c.84-.08,3.07-.3,5.31-.32h.61c1.62,0,3.81.05,6.42.22,1.29-7.68,1.93-15.9,1.86-24.74.01-1.24-.06-2.46-.09-3.69-6.85.85-12.47,1.97-16.3,2.74-1.96.39-3.38.68-4.24.78-1.38.2-2.56.3-3.55.3-2.31,0-3.58-.56-4-1.72-.29-.84-.23-1.74.18-2.59.74-1.52,2.53-2.81,5.19-3.72,2.09-.71,10.2-3.2,22.24-4.68-1.72-19.09-7.86-37.28-18.78-55.31-.7-1.15-.95-2.54-.69-3.87Z"/>
          </g>
          <g>
            <path class="cls-2" d="M115.31,313.17c-3.5,7.1-3.52,18.45,1.21,24.48,2.92,3.45,7.8,5.41,14.09,4.33,5.43-.94,8.52-5.9,9.55-9.85,2.23-8.84-.14-19.68-5.23-23.79-5.36-3.91-15.39-3.82-19.61,4.83Z"/>
            <path class="cls-2" d="M285.41,314.21c-3.5,7.1-3.52,18.45,1.21,24.48,2.92,3.45,7.8,5.41,14.09,4.33,5.43-.94,8.52-5.9,9.55-9.85,2.23-8.84-.14-19.68-5.23-23.79-5.36-3.91-15.39-3.82-19.61,4.83Z"/>
            <g>
              <path class="cls-2" d="M230.45,344.93c-1.17-4.16-4.32-7.43-8.44-8.76-7.86-2.55-15.82-1.48-20.77,2.79-5.16,4.56-5.41,12.65-2.19,16.84,2.99,3.88,7.72,5.9,14.48,6.2.31.01.63.02.94.02,5.41,0,10.44-1.98,13.31-5.27v-.02c2.83-3.28,3.82-7.69,2.67-11.81Z"/>
              <path class="cls-3" d="M219.91,342.67c-2.1-.68-4.24-1.01-6.25-1.01-3.19,0-6.05.84-7.91,2.45-2.45,2.17-2.29,6.18-1.26,7.52,1.68,2.18,4.74,3.34,9.35,3.54,4.27.17,7.46-1.38,8.79-2.9,1.34-1.56,1.79-3.55,1.24-5.49-.54-1.94-2.02-3.48-3.96-4.11Z"/>
            </g>
          </g>
        </g>
        <g>
          <g>
            <path class="cls-2" d="M174.31,403.01c-1.48-4.63-4.48-8.3-7.74-11.99-11.57-11.1-31.77-15.56-47.81-10.64-11.58,3.03-24.94,13.2-26.89,28.3-1.79,11.76,2.42,22.06,11.65,27.76,9.31,4.78,19.42,4.67,29.7-.17.87-.33,1.3-.24,3.57.72,1.42.61,3.17,1.34,5.28,1.7,3.57,1.03,6.76,1.46,9.57,1.46,7.46,0,12.38-3.02,15.44-6.04,7.97-7.84,10.94-20.61,7.23-31.1Z"/>
            <path class="cls-6" d="M163.98,406.59c-.03-.07-.05-.13-.07-.2-.84-2.65-3.05-5.31-5.25-7.82-8.41-8.05-24.41-11.47-36.92-7.67-8.41,2.21-17.79,9.67-19.04,19.29-.55,3.62-1.01,12.25,6.19,16.72,5.93,3.02,12.4,2.87,20-.7,1.9-.75,3.63-1.02,5.19-1.02,2.92,0,5.24.98,6.98,1.72,1.12.47,2.08.88,2.97,1.01.27.04.53.09.78.17,6.51,1.94,11.44,1.34,14.59-1.78,4.91-4.82,6.87-13.3,4.58-19.71Z"/>
          </g>
          <g>
            <path class="cls-2" d="M338.19,410.96c-1.98-15.21-15.33-25.39-26.69-28.34-16.27-4.97-36.47-.53-48.34,10.91-2.82,3.2-5.95,7-7.44,11.65-3.71,10.49-.74,23.27,7.22,31.1,3.07,3.03,8,6.05,15.45,6.05,2.81,0,5.99-.43,9.57-1.46,2.11-.36,3.86-1.1,5.28-1.7,2.29-.98,2.71-1.06,3.23-.88,10.61,5,20.73,5.1,30.44.1,8.83-5.48,13.04-15.78,11.27-27.43Z"/>
            <path class="cls-6" d="M327.35,412.49c-1.27-9.74-10.64-17.21-18.84-19.34-3.53-1.08-7.32-1.6-11.13-1.6-9.92,0-20.02,3.48-26.32,9.53-1.88,2.17-4.1,4.83-4.94,7.48-.02.07-.04.13-.07.2-2.29,6.41-.33,14.89,4.56,19.7,3.17,3.11,8.06,3.72,14.6,1.78.25-.07.51-.13.78-.17.89-.13,1.85-.53,2.97-1.01,2.67-1.14,6.69-2.83,11.82-.85,7.93,3.73,14.41,3.88,20.73.63,6.81-4.24,6.35-12.88,5.82-16.38Z"/>
          </g>
        </g>
        <g>
          <g class="cls-8">
            <g>
              <g>
                <rect class="cls-7" x="235.24" y="114.92" width="125.52" height="174.83" transform="translate(-11.32 386.9) rotate(-65)"/>
                <g>
                  <rect class="cls-5" x="271.93" y="148.09" width="21.19" height="174.83" transform="translate(-50.31 392.03) rotate(-65)"/>
                  <rect class="cls-5" x="291.34" y="106.46" width="21.19" height="174.83" transform="translate(-1.38 385.59) rotate(-65)"/>
                  <rect class="cls-5" x="311.65" y="66.25" width="18.07" height="174.83" transform="translate(45.89 379.37) rotate(-65)"/>
                </g>
              </g>
              <g>
                <rect class="cls-4" x="271.12" y="231.94" width="165.81" height="3.93" transform="translate(-70.14 245.23) rotate(-34.98)"/>
                <rect class="cls-4" x="227.16" y="211.44" width="165.81" height="3.93" transform="translate(-66.33 216.29) rotate(-34.98)"/>
                <rect class="cls-4" x="183.19" y="190.94" width="165.81" height="3.93" transform="translate(-62.52 187.39) rotate(-34.98)"/>
                <rect class="cls-4" x="315.08" y="252.44" width="165.81" height="3.94" transform="translate(-73.95 274.16) rotate(-34.99)"/>
                <rect class="cls-4" x="139.23" y="170.44" width="165.81" height="3.93" transform="translate(-58.71 158.54) rotate(-34.99)"/>
              </g>
            </g>
          </g>
          <path class="cls-2" d="M390.94,217.34c.07-12.49-5.34-22.53-15.6-29.03-.69-.44-1.39-.87-2.1-1.27-.77-.43-1.55-.85-2.34-1.22-11.64-5.67-23.69-4.48-34.15-2.53-5.83,1.33-9.45,2.5-11.74,3.46-1.46-1.46-3.03-2.84-4.74-4.07-.97-.67-6.37-4.22-14.15-5.76-.48-2.23-.98-3.96-1.26-4.88-.01-.05-.23-.79-.25-.84-1.29-3.88-4.26-11.63-9.68-19.9-6.8-10.34-15.02-17.72-24.49-21.96-15.15-6.65-29.01-3.93-42.64,8.55-6.19,6.4-11.53,14.18-15.87,23.1-.54,1.11-4.52,10.56-4.96,11.86-1.56,4.27-6.56,19.27-5.14,33.03.89,10.47,5.87,20.97,13,27.42.12.11.54.44.67.53,7.94,6.03,16.67,9.07,25.99,9.07,1.13,0,2.27-.05,3.42-.13,12.05-.93,21.23-4.61,21.51-4.72,1.18-.45,2.22-.93,3.33-1.4,3.32,4.59,7.6,8.48,12.65,11.05,6.29,3.17,11.23,4.29,15.81,4.29.67,0,1.31-.14,1.97-.18.25.54.51,1.09.92,1.73,9.83,18.52,24.19,24.87,33.25,24.47.58.03,1.17.05,1.76.05,15.78,0,33.72-11.18,44.46-28.18l.53-.88c3.53-5.77,8.87-14.5,9.85-31.66ZM262.41,227.86c-.08.03-8.08,3.2-18.37,4-11.87.91-19.44-4.85-21.88-6.66-5-4.53-8.79-12.66-9.45-20.34-1.18-11.51,3.16-24.52,4.61-28.48.39-1.06,3.95-9.57,4.44-10.59,3.84-7.9,8.52-14.72,13.66-20.06,10.24-9.38,19.41-11.29,30.57-6.38,7.49,3.35,14.15,9.4,19.77,17.96,4.92,7.49,7.54,14.61,8.32,16.9l.28.99c.1.33.23.76.37,1.26-3.12.38-6.39,1.21-9.76,2.67-.86.37-1.62.86-2.44,1.29-1.82-1.99-4.05-3.77-6.3-5.03-6.73-3.79-14.11-3.84-20.25-.13-6.59,4-10.46,11.71-9.86,19.44.23,6.03,2.69,11.16,7.12,14.82,2.87,2.37,6.27,3.78,9.4,4.6,0,.53-.07,1.05-.06,1.58.03,3.82.78,7.6,2.04,11.21-.76.31-1.43.63-2.24.94ZM264.12,203.18c-1.43-.51-2.96-1.24-4.22-2.39-1.79-1.63-2.7-3.75-2.82-6.7-.29-3.87,1.51-7.58,4.61-9.47,2.17-1.32,4.47-1.53,7.04-.66,2.02.68,3.67,1.86,4.9,2.98-4.48,4.46-7.75,9.99-9.5,16.23ZM306.89,239.56c-7.63,2.01-11.53,2.43-19.54-1.62-8.18-4.17-13.72-13.13-13.78-22.46-.43-11.82,5.62-21.89,15.78-26.29,3.44-1.49,6.75-2.05,9.77-2.05,8.05,0,14.03,3.93,14.85,4.49,9.03,6.49,13.34,17.88,10.69,28.51-2.49,11.49-10.8,17.57-17.75,19.43ZM371.63,243.5l-.6,1.01c-8.69,13.74-23.71,23.26-36.56,22.57-6.52.09-15.93-5.16-23.02-17.53,4.14-1.36,8.46-3.71,12.35-7.14,1.96,1.41,4.3,2.61,7,3.2,1.02.22,2.2.38,3.49.38,3.21,0,7.18-.98,11.47-4.38,4.81-4.81,6.44-10.35,4.85-17.49-2.82-8.54-9.53-11.12-14.31-12.03-.27-5.63-1.81-11.14-4.48-16.14,2.05-.65,4.64-1.36,7.15-1.94,8.49-1.57,18.35-2.62,27.19,1.67.59.28,1.14.58,1.7.89.53.3,1.04.61,1.59.96,7.15,4.53,10.61,10.99,10.57,19.46-.82,14.14-4.94,20.88-8.38,26.5ZM335.17,223.07c2.53.62,4.13,1.7,4.89,3.94.65,2.96.13,4.69-1.56,6.43-1.71,1.35-3.44,1.83-5.18,1.51-.94-.17-1.76-.57-2.49-1,1.88-3.16,3.39-6.77,4.33-10.89Z"/>
        </g>
      </g>
    </g>
    <g>
      <path class="cls-4" d="M70.84,131.51h0c-2.65-1.62-6.1-3.23-9.9-5.01-7.6-3.58-16.62-7.89-23.67-15.24-11.64-12.11-19.43-23.76-20.76-39.77-.09-1.02-.13-2.04-.13-3.05.06-11.9,5.24-23.1,5.18-33.4,0-4.2-.8-8.22-3.05-12.25-.4-.71-.29-1.59.24-2.18L36.86.6c.55-.61,1.44-.78,2.17-.41,10.04,5.09,23.64,8.26,38.61,8.26,14.97,0,28.57-3.17,38.61-8.26.73-.37,1.61-.2,2.17.41l18.1,20c.54.6.64,1.48.24,2.18-2.25,4.03-3.04,8.05-3.05,12.25-.06,10.3,5.13,21.5,5.18,33.4,0,1.01-.04,2.03-.12,3.04-1.33,16.01-9.12,27.66-20.76,39.78-5.29,5.51-11.69,9.31-17.76,12.38-6.07,3.06-11.84,5.43-15.82,7.87-2.66,1.62-5.13,4.86-5.13,4.86-.3.67-.95,1.09-1.67,1.09s-1.37-.42-1.67-1.09c0,0-2.47-3.24-5.13-4.86"/>
      <g>
        <path class="cls-7" d="M135.23,68.45c0-1.7-.11-3.4-.33-5.12H20.38c-.21,1.72-.34,3.42-.33,5.12,0,.72.03,1.43.08,2.14h115.03c.05-.71.07-1.42.07-2.14"/>
        <path class="cls-7" d="M131.69,47.61H23.59c-.53,2.43-1.11,4.85-1.65,7.26h111.4c-.54-2.4-1.13-4.82-1.65-7.26"/>
        <path class="cls-7" d="M133.83,79.05H21.45c.63,2.52,1.45,4.92,2.45,7.26h107.49c1-2.33,1.82-4.74,2.45-7.26"/>
        <path class="cls-7" d="M41.77,110.5c4.47,4.11,9.72,7.2,14.89,9.81,5.91,3,11.69,5.33,16.08,8.02,1.92,1.18,3.61,2.44,4.91,3.94h0c1.29-1.5,2.99-2.75,4.91-3.94,2.93-1.8,6.47-3.42,10.26-5.2,6.86-3.22,14.53-6.95,20.7-12.62H41.77Z"/>
        <path class="cls-7" d="M126.79,94.77H28.5c1.6,2.44,3.42,4.85,5.43,7.26h87.43c2.01-2.41,3.82-4.82,5.43-7.26"/>
      </g>
      <g>
        <path class="cls-6" d="M130.28,39.18H25c-.28,2.83-.81,5.64-1.41,8.43h108.1c-.6-2.79-1.13-5.59-1.41-8.43"/>
        <path class="cls-6" d="M133.34,54.86H21.94c-.64,2.84-1.22,5.67-1.57,8.46h114.53c-.34-2.8-.92-5.62-1.56-8.46"/>
        <path class="cls-6" d="M135.12,71.17c.02-.19.03-.39.04-.59H20.13c.01.2.02.39.04.59.23,2.76.67,5.37,1.29,7.88h112.38c.62-2.51,1.06-5.12,1.29-7.88"/>
        <path class="cls-6" d="M131.39,86.31H23.9c1.25,2.92,2.79,5.71,4.6,8.46h98.29c1.81-2.75,3.35-5.55,4.6-8.46"/>
      </g>
      <g>
        <path class="cls-6" d="M59.52,118.15s.06.02.06.07c.02.29.09.64.35,1.05.27.44.75.66,1.21.66.49,0,1.19-.31,1.19-1.07,0-.84-.38-1.12-1.35-1.48-.29-.11-.9-.37-1.33-.77-.31-.29-.46-.75-.46-1.31,0-.51.2-.93.64-1.28.37-.31.77-.44,1.3-.44.6,0,.97.15,1.15.22.09.04.15.02.19-.03l.12-.12s.07-.06.13-.06.07.06.07.15c0,.15.15,1.43.15,1.52,0,.04-.02.06-.05.06l-.15.05s-.07,0-.09-.05c-.09-.25-.24-.62-.57-.97-.24-.26-.53-.38-.95-.38-.73,0-1.02.58-1.02.92,0,.31.04.58.26.82.24.24.75.46,1.12.57.53.16.97.35,1.32.71.29.31.46.7.46,1.31,0,1.12-.73,2.03-1.94,2.03-.75,0-1.19-.17-1.56-.44-.11-.07-.16-.11-.22-.11s-.09.07-.15.16c-.06.09-.09.11-.16.11s-.11-.05-.11-.15c.02-.11.15-1.59.17-1.7,0-.06.02-.07.05-.07l.2.02Z"/>
        <path class="cls-6" d="M64.47,117.59c0-.28-.05-.46-.48-.57-.08-.02-.09-.05-.09-.08v-.1s.02-.06.06-.07c.13-.06,1.03-.38,1.19-.44.09-.04.16-.05.22-.05s.08.04.07.11c-.02.14-.02.73-.02,1.49v.99c0,.35,0,.68.02.79.02.16.06.24.15.24h.37c.07,0,.09.02.09.06v.18c0,.05-.02.09-.07.09-.07,0-.49-.03-1.11-.03-.53,0-.88.03-.99.03-.05,0-.07-.02-.07-.09v-.17c0-.05.04-.07.09-.07h.4c.09,0,.14-.04.15-.18,0-.27.02-.57.02-.82v-1.29ZM64.78,115.33c-.28,0-.56-.2-.56-.51,0-.27.25-.51.61-.51s.54.26.54.47c0,.27-.18.55-.59.55"/>
        <path class="cls-6" d="M67.53,116.34c.07-.04.13-.07.18-.07s.09.04.11.11l.07.47h.05c.11-.13.27-.27.46-.37.22-.13.46-.22.73-.22.31,0,.6.05.81.22.4.29.5.57.5.94v1.32c0,.29-.01.7-.01.88,0,.2.11.26.22.26h.25c.08,0,.11.02.11.06v.21s-.02.06-.07.06c-.07,0-.35-.03-.99-.03-.55,0-.84.03-.9.03s-.07-.04-.07-.11v-.16c0-.05.02-.07.11-.07h.18c.07,0,.15-.05.16-.22.03-.24.04-.49.04-.86v-1.05c0-.36-.02-.6-.24-.79-.18-.17-.35-.17-.55-.17-.15,0-.37.04-.59.24-.15.15-.19.4-.19.65v1.88c0,.2.05.31.17.31h.16c.07,0,.09.02.09.08v.16c0,.05-.02.09-.07.09s-.31-.03-.86-.03-.86.03-.92.03c-.04,0-.05-.04-.05-.09v-.17c0-.05.02-.07.09-.07h.18c.11,0,.24-.04.24-.18v-2.06c0-.27-.16-.42-.38-.53l-.07-.04c-.05-.02-.07-.05-.07-.09v-.07s.04-.07.09-.09l1.01-.48Z"/>
        <path class="cls-6" d="M74.9,119.49s.04.06,0,.11c-.23.28-.87.7-1.55.7-.62,0-1.12-.16-1.46-.6-.35-.44-.44-.81-.44-1.26,0-.58.22-1.22.68-1.64.38-.35.82-.53,1.34-.53,1.06,0,1.3.55,1.3.82,0,.22-.15.4-.4.4-.31,0-.46-.22-.55-.46-.13-.31-.33-.38-.57-.38-.37,0-.82.41-.82,1.06,0,.55.02.92.36,1.48.25.4.65.5.94.5.46,0,.74-.16.99-.35.02-.02.05-.02.08,0l.11.13Z"/>
        <path class="cls-6" d="M76.22,118.16c0,.93.67,1.48,1.19,1.48.57,0,.92-.24,1.11-.53.04-.06.07-.06.11-.04l.14.08s.06.06,0,.18c-.19.35-.66.97-1.67.97-.58,0-1-.13-1.32-.49-.42-.48-.51-.94-.51-1.51,0-.5.05-.84.45-1.36.38-.49.8-.67,1.59-.67,1.04,0,1.38,1.09,1.38,1.46,0,.14-.09.15-.26.15h-2.21v.28ZM77.36,117.55c.19,0,.3-.05.3-.13,0-.28-.09-.81-.57-.81-.45,0-.72.33-.84.94h1.11Z"/>
        <path class="cls-6" d="M79.8,120.19c-.12,0-.25,0-.37,0-.12.01-.24.02-.37.02-.05,0-.07,0-.11-.04-.02-.07,0-.13.06-.18.37-.35,1.15-1.06,1.87-1.88.62-.75.99-1.46.97-2.24-.04-.71-.46-1.19-1.1-1.17-.64.02-.95.46-1.13.77-.04.07-.07.07-.11.05l-.15-.07s-.04-.04,0-.13c.15-.35.62-1.37,1.9-1.37.9,0,1.68.71,1.68,1.66,0,.79-.35,1.5-1.26,2.43-.58.58-1.14,1.02-1.44,1.32h1.68c.6,0,.84-.37,1.04-.69.05-.09.07-.11.16-.06.09.04.12.07.09.15l-.62,1.57c-.04.07-.02.09-.13.09-.09,0-.09-.02-.13-.09-.06-.11-.22-.13-.55-.13h-1.99Z"/>
        <path class="cls-6" d="M87.84,117.07c0,2.09-.71,3.26-1.97,3.26-1.57,0-2.09-1.79-2.09-2.91,0-2.07.79-3.48,2.07-3.48,1.55,0,1.99,1.76,1.99,3.13M85.17,114.9c-.22.64-.29,1.65-.29,2.38,0,.88.05,1.54.22,1.96.2.55.46.73.77.73.29,0,.55-.15.69-.62.15-.44.2-1.13.2-2.45,0-1.45-.31-2.58-.91-2.58-.33,0-.53.2-.68.59"/>
        <path class="cls-6" d="M90.02,115.65c0-.28-.05-.48-.22-.48-.09,0-.22.02-.38.08l-.55.16s-.07.02-.09-.02l-.07-.18s0-.07.06-.11l2.1-1.1c.05-.03.11-.05.16-.05s.07.04.07.15c0,.07-.04,1.5-.04,2.68v.38c0,.31.02,2.05.02,2.17,0,.47.04.53.55.53h.33c.07,0,.09.03.09.06v.23c0,.05-.02.07-.09.07s-1.32-.03-1.46-.03c-.18,0-1.46.03-1.52.03-.04,0-.07-.02-.07-.06v-.24c0-.06.04-.06.1-.06h.36c.55,0,.62-.02.64-.5.02-.26.02-1.65.02-1.9v-1.8Z"/>
        <path class="cls-6" d="M96.26,117.07c0,2.09-.71,3.26-1.97,3.26-1.57,0-2.09-1.79-2.09-2.91,0-2.07.79-3.48,2.07-3.48,1.55,0,1.99,1.76,1.99,3.13M93.59,114.9c-.22.64-.29,1.65-.29,2.38,0,.88.06,1.54.22,1.96.2.55.46.73.77.73.29,0,.55-.15.69-.62.15-.44.2-1.13.2-2.45,0-1.45-.31-2.58-.91-2.58-.33,0-.53.2-.68.59"/>
      </g>
      <g>
        <path class="cls-6" d="M104.34,73.51c-.16-.35-.29-.69-.3-1.6,0-.45.04-1.03.16-1.76l-.71-.12s0,0,0,0l.71.11c.03-.2.06-.4.08-.6.14-.13.26-.28.36-.45.69-1.16,1.03-2.42,1.02-3.59-.02-2.31-1.11-4.05-1.98-5.42-.91-1.36-1.62-2.51-1.64-2.92-1.01-5.63-4.44-9.69-8.34-12.35-.11-.07-.22-.14-.33-.19l.34-5.76c.06-.93-.49-1.8-1.36-2.15-.87-.35-1.87-.1-2.47.61l-3.37,3.96c-.11-.06-.22-.11-.34-.15-1-.33-1.99-.43-2.94-.43-2.25.01-4.3.59-5.37.94-1.13-.34-3.37-.93-5.74-.94-.98,0-2,.1-3.02.44h0s-3.83-4.97-3.83-4.97c-.59-.76-1.6-1.05-2.5-.7-.9.34-1.47,1.23-1.4,2.19l.48,7c-.09.05-.17.1-.26.15-3.9,2.67-7.33,6.72-8.34,12.35-.02.41-.73,1.56-1.64,2.92-.87,1.37-1.96,3.1-1.98,5.42,0,1.17.33,2.43,1.03,3.59.1.17.22.32.36.45.02.2.05.4.08.6.12.73.16,1.31.16,1.76-.03,1.22-.19,1.4-.51,1.99-.17.29-.43.69-.68,1.26-.25.58-.43,1.33-.42,2.14.03,1.91.74,4.01,2.55,7.78.35.72,1.05,1.17,1.81,1.22.58,1.15,1.27,2.16,2.18,2.96.07.07.04.04.05.06.02.02.08.37.08,1.07,0,.99.06,2.81,1.3,4.49,1.23,1.67,3.28,3.01,6.69,4.26.72.26,1.5.12,2.07-.32.15.06.3.12.45.17.68.26.9.5,1.1.81.18.31.32.8.32,1.54,0,.15,0,.31-.02.48-.07,1.08.66,2.03,1.7,2.27.12.3.26.61.44.9.6,1,1.51,1.89,2.74,2.73.93.63,2.18.45,2.9-.41.72-.86.66-2.13-.13-2.93-.47-.47-.71-.81-.8-.97-.02-.03-.03-.06-.04-.08.01-.04.04-.13.1-.27.29-.68,1.27-2.36,1.25-4.8,0-.34-.02-.69-.05-1.05-.13-1.27-.38-2.23-.47-3.12.66.04,1.2.07,1.54.09.08,0,.16.01.24,0h0c.07,0,.13,0,.2,0,.34-.02.89-.05,1.55-.09-.09.88-.34,1.85-.47,3.11-.04.36-.05.72-.05,1.06,0,1.73.47,3.09.87,3.97.2.44.36.76.43.95.03.07.04.12.05.15-.02.04-.06.12-.14.24-.13.19-.35.46-.7.82-.79.8-.85,2.06-.13,2.92.43.52,1.05.79,1.67.79.42,0,.85-.12,1.22-.38,1.23-.84,2.14-1.72,2.74-2.73.18-.29.33-.59.44-.9,1.05-.23,1.78-1.2,1.7-2.28-.01-.17-.02-.32-.02-.47,0-.74.14-1.24.33-1.54.19-.3.42-.55,1.09-.81.15-.05.3-.11.45-.17.57.44,1.35.58,2.07.32,2.61-.95,4.39-1.94,5.66-3.11.95-.87,1.58-1.87,1.91-2.84.5-1.45.38-2.67.42-3.31.01-.33.05-.5.07-.54.02-.04-.02,0,.06-.07.91-.8,1.6-1.81,2.18-2.96.76-.05,1.45-.5,1.8-1.22,1.81-3.76,2.52-5.87,2.55-7.78,0-.8-.17-1.56-.42-2.14-.39-.88-.74-1.31-.89-1.66"/>
        <path d="M102.05,69.81c.93-5.85-4.12-6.3-5.11-12.92.27.56.59,1.26.94,2.12,1.26,3.04,5.67,6.25,4.88,8.98,2.52-4.26-2.32-7.45-2.86-10.43-.9-4.95-3.87-8.49-7.43-10.95l-1.73,5.73.8-13.6-8.67,10.19,2.62-5.72c-3.12-1.03-7.59.74-7.59.74,0,0-4.98-1.77-8.11-.73l2.56,5.71-8.81-11.42,1.01,14.83-1.73-5.73c-3.56,2.46-6.53,5.99-7.43,10.95-.54,2.97-5.38,6.17-2.86,10.43-.79-2.73,3.62-5.94,4.88-8.98.36-.86.67-1.56.94-2.12-.99,6.62-6.04,7.07-5.11,12.92,1.26,7.91-4.43,3.33.91,14.32-1.66-7.69,1.82-6.08,1.75-9.7-.09-4.75,1.32-4.97,2.63-6.75-3.89,6-.06,6.79-3.27,10.48-1.79,2.06.38,7.78,2.34,9.45,2.55,2.18-2.32,5.94,7.45,9.48-6.24-4.42-1.89-6.99-4.44-10.26-1.93-2.47-1.58-5.43-.03-8.9-2.19,9.92,2.41,6.28,1.95,12.62-.28,3.9,2.88,5.6,5.05,6.39,2.34.85,2.99,2.74,2.83,5.02,1.73-5.78-2.99-5.17-2.99-8.06-.03-1.29.25-2,.49-2.38-.09,1.07.6,2.75,2.52,4.2,4.53,3.42-1.9,6.23,3.93,10.19-3.47-3.5.31-3.5-.16-8.51-.16-1.71-.82-3.39-.33-5.64,1.68.13,3.21.22,3.79.25h-.01.03-.02c.58-.03,2.12-.12,3.79-.25.5,2.24-.16,3.93-.33,5.64-.47,5.02,3.31,5.02-.16,8.51,5.83-3.95-.6-6.77,3.93-10.19,1.92-1.45,2.6-3.14,2.52-4.2.23.38.51,1.09.48,2.38,0,2.89-4.73,2.28-2.99,8.06-.16-2.28.5-4.17,2.83-5.02,2.17-.79,5.33-2.49,5.04-6.39-.46-6.34,4.39-3.99,1.96-12.62,1.54,3.47,1.89,6.44-.03,8.9-2.55,3.26,1.8,5.84-4.44,10.26,9.77-3.53,4.9-7.29,7.45-9.48,1.95-1.67,4.13-7.39,2.33-9.45-3.22-3.69.61-4.48-3.27-10.48,1.31,1.78,2.72,2,2.63,6.75-.07,3.62,3.41,2,1.75,9.7,5.34-10.99-.35-6.42.91-14.32"/>
        <path class="cls-6" d="M89.83,78.02c-.17-.38-.55-.59-1.19-.61l-.95,7.27-1.77-6.37c-.42.27-.87.59-1.59.87-1.16.45-3,.8-6.59.8-3.59,0-5.48-.29-6.77-.71-.6-.2-1.06-.42-1.49-.64l-1.94,6.33-.76-7.49c-.12-.02-.23-.04-.31-.04-.35.01-.45.13-.68.61-.02.04-.07.34-.06.73,0,1.79.55,5.96,1.5,7.85.31.64.66.95.91.93.02,0,.04,0,.07,0,.46-.06.94-.44,1.51-.97l.45-6.94,2.86,4.23c1.2-.67,2.72-1.15,4.71-1.15h.01c2.07,0,3.61.53,4.8,1.24l2.92-4.32.47,7.24c.42.38.79.64,1.16.68.02,0,.04,0,.06,0,.25.02.64-.32.98-.99.34-.66.65-1.59.91-2.58.51-2,.81-4.3.81-5.4,0-.29-.03-.51-.05-.54M71.87,87.26s1.69-1.52,5.63-1.52,5.69,1.52,5.69,1.52c0,0-2.53-2.44-5.66-2.44s-5.66,2.44-5.66,2.44M68.88,73.52c.59-1.61,3.17-.93,3.76-.79-.53-.18-3.02-1.23-4.01-1.65-1.95-.82-4.33-1.34-4.41-.09-.13,1.93,4.5,2.97,4.66,2.53M86.56,71.08c-.99.41-3.47,1.47-4.01,1.65.59-.14,3.33-.82,3.76.79.12.45,4.79-.61,4.66-2.53-.09-1.25-2.46-.72-4.41.09M70.5,76.15c1.2,2.06,2.06.4,5.44,1.9-.89-.35-.32-1.37-1.78-3.39-1.46-2.01-4.87-.61-3.65,1.48M77.72,72.15c-.65,0-1.61-1.41-1.61-1.41,0,0-.08,4.77-.08,5.53,0,2.21,3.41,2.52,3.41,0,0-.93-.06-5.58-.06-5.58,0,0-1.02,1.46-1.67,1.46M79.49,78.05c3.37-1.5,4.24.16,5.44-1.9,1.22-2.09-2.2-3.49-3.66-1.48-1.46,2.01-.89,3.04-1.78,3.39M67.37,68.64c1.2.95,2.67,1.74,3.65,2.27.58.32,1.13.43,1.64.43.53,0,1-.13,1.35-.3.19-.09.35-.2.44-.29-.02-.02-.05-.05-.08-.08-.16-.15-.38-.35-.64-.58-.66,1.19-2.93-.02-3.71-1.13-.86-1.23-1.14-2.45-1.02-3.4-.8-.91-1.51-1.87-1.98-2.84-.29.39-.69.91-1.2,1.55-.34.5-.47.93-.47,1.35-.02.97.82,2.06,2.03,3.01M80.71,70.76c.07.06.18.14.3.21.36.2.89.37,1.49.37.5,0,1.06-.11,1.64-.43.99-.53,2.46-1.32,3.65-2.27,1.21-.95,2.05-2.04,2.03-3.01,0-.41-.12-.85-.47-1.35-.51-.64-.91-1.16-1.2-1.55-.48.97-1.19,1.93-1.99,2.84.12.95-.16,2.18-1.02,3.4-.78,1.11-3.06,2.32-3.72,1.13-.19.17-.36.32-.51.45-.08.07-.16.15-.22.21M69.08,57.61c-.2.37-.32.85-.32,1.46,0,.85,1.1,2.83,2.55,4.92-.92-2.28-1.69-4.77-2.23-6.38M76.36,63.5s.32,4.82-.73,5.74c.93.9,1.73,1.47,2.22,1.47.46,0,1.16-.51,1.97-1.33-1.39-.25-1.01-5.89-1.01-5.89,0,0,.68,1.61,1.09.65.53-1.24,1.02-4.43,1.46-6.8-1.41.31-2.62.89-2.85,1.54-.38-1.37-1.44-1.52-1.85,0-.52-.62-1.64-1.34-2.89-1.82.45,2.39.96,5.8,1.51,7.09.41.96,1.09-.65,1.09-.65M86.01,57.85c-.59,1.76-1.42,4.43-2.41,6.76,1.59-2.37,2.86-4.75,2.86-5.7,0-.45-.17-.8-.46-1.06"/>
      </g>
      <g>
        <g>
          <path class="cls-4" d="M141.61,114.62c-.13-.9-.46-1.85-1.11-2.63-.64-.77-1.67-1.35-2.91-1.33-.29,0-.6.03-.91.09-.25.05-.46.2-.59.42l-2.13,3.69c-.87-.78-1.98-1.75-3.47-2.63l2.36-4.08.02-.04c.27-.51.41-1.11.41-1.74,0-1.27-.58-2.69-1.89-3.85-9.36-7.83-29.85-13.07-53.73-13.09-23.88.02-44.37,5.26-53.71,13.07-1.33,1.18-1.91,2.6-1.91,3.86,0,.63.14,1.23.41,1.74l.02.03,2.36,4.08c-1.5.89-2.6,1.85-3.47,2.63l-2.13-3.69c-.13-.22-.34-.37-.59-.42-.32-.06-.62-.09-.91-.09-1.25-.01-2.27.56-2.91,1.33-.65.78-.99,1.72-1.11,2.62-.03.22-.04.44-.04.65,0,1.56.7,2.65.74,2.72h0s8.62,13.62,8.62,13.62c.53,1.2,1.71,2.1,3.23,2.1,0,0,.01,0,.02,0,.55,0,1.13-.12,1.72-.36,1.03-.44,1.79-1.23,2.76-2.08.97-.86,2.11-1.82,3.72-2.65,2.43-1.28,6.5-1.33,9.2-1.47,1.19-.07,2.15-.51,2.78-1.18.63-.67.92-1.51.92-2.31,0-.5-.11-.99-.33-1.43h0s0,0,0,0h0s-.02-.03-.03-.05c-.07-.13-.14-.26-.22-.37l-3.43-5.85c8.19-2.96,20.55-4.9,34.32-4.89,11.98,0,22.87,1.44,30.91,3.78,1.21.35,2.34.72,3.41,1.11l-3.43,5.85c-.09.13-.17.27-.24.42-.22.44-.33.93-.33,1.43,0,.8.29,1.65.92,2.31.63.67,1.59,1.11,2.78,1.17,2.69.14,6.76.19,9.19,1.47,1.61.83,2.76,1.79,3.73,2.65.97.85,1.74,1.64,2.76,2.08.59.24,1.17.36,1.72.36h.02c1.51,0,2.69-.9,3.22-2.1l8.62-13.62h0c.04-.08.73-1.16.74-2.72,0-.21-.01-.43-.04-.65"/>
          <g>
            <path class="cls-7" d="M33.16,123.18c.05.06.1.1.13.13.08.05.15.08.35.09.53.02,1.82-.44,3.88-1.62,1.89-1.07,3.8-1.64,5.48-1.64.26,0,.52.01.77.04l-2.1-3.58c-4.87,1.97-7.86,4.39-8.52,6.59"/>
            <path class="cls-7" d="M43,121.87c-1.28,0-2.95.47-4.62,1.42-2.15,1.2-3.5,1.82-4.74,1.85-.48,0-.96-.12-1.34-.39-.38-.26-.64-.61-.84-.98l-5.79-10.03c-1.48.88-2.53,1.84-3.45,2.67l6,10.39c.17.3.15.66-.04.94-.2.28-.54.41-.87.35-.22-.04-.42-.06-.6-.06-1.47,0-2.28,1.09-2.29,2.09,0,.05,0,.1,0,.16.11.95.76,1.68,1.81,1.69.3,0,.66-.06,1.06-.22.53-.2,1.27-.88,2.26-1.77,1-.89,2.29-1.96,4.08-2.89,3.05-1.56,7.27-1.49,9.89-1.66.84-.05,1.32-.32,1.62-.63.3-.32.44-.72.44-1.11,0-.24-.06-.48-.15-.66-.34-.7-1.11-1.12-2.43-1.14"/>
            <path class="cls-7" d="M15.84,117.06h0l7.22,11.41c.52-1.05,1.54-1.89,2.89-2.13l-8.05-13.94c-.07,0-.14,0-.21,0-.75.01-1.2.28-1.58.72-.38.44-.63,1.1-.72,1.73-.02.14-.03.28-.03.41,0,.88.39,1.65.47,1.78h0Z"/>
            <path class="cls-7" d="M113.61,116.59l-2.1,3.58c.24-.03.47-.04.72-.04h.05c1.68,0,3.59.57,5.48,1.64,2.06,1.18,3.35,1.65,3.88,1.62.21,0,.28-.04.35-.09.04-.03.08-.07.13-.13-.65-2.19-3.65-4.62-8.52-6.59"/>
            <path class="cls-7" d="M109.7,123.67c0,.39.14.8.43,1.11.3.31.78.58,1.62.63,2.63.17,6.84.1,9.89,1.66,1.79.93,3.08,2,4.08,2.89.99.9,1.74,1.57,2.26,1.77.4.16.76.23,1.06.23,1.05,0,1.7-.74,1.81-1.68,0-.06,0-.11,0-.17,0-1-.82-2.09-2.29-2.09-.19,0-.39.02-.6.06-.33.06-.67-.08-.87-.36-.2-.28-.21-.64-.04-.94l6-10.39c-.93-.83-1.98-1.79-3.45-2.67l-5.79,10.02c-.2.37-.46.73-.84.99-.38.27-.86.4-1.34.39-1.23-.02-2.58-.65-4.73-1.85-1.68-.95-3.35-1.42-4.63-1.42-1.32.02-2.09.44-2.43,1.13h0c-.09.18-.15.42-.15.67"/>
            <path class="cls-7" d="M139.17,113.12c-.38-.44-.84-.71-1.58-.72-.07,0-.13,0-.21,0l-8.05,13.94c1.34.23,2.36,1.08,2.88,2.13l7.23-11.41s0,0,0,0c0-.02.03-.05.05-.09.04-.09.11-.22.17-.38.13-.33.25-.8.25-1.3,0-.14,0-.28-.03-.42-.08-.63-.33-1.29-.71-1.73"/>
            <path class="cls-7" d="M123.2,121.34l8.12-14.07c.12-.24.2-.55.2-.91,0-.74-.33-1.67-1.29-2.53-8.67-7.34-28.99-12.68-52.59-12.66-23.6-.02-43.92,5.32-52.57,12.64-.98.87-1.3,1.8-1.3,2.55,0,.37.08.68.2.93l8.12,14.06c.83-1.43,2.23-2.72,4.05-3.89,2.56-1.64,5.99-3.07,10.12-4.27,8.25-2.39,19.27-3.85,31.39-3.85,18.19.02,33.86,3.23,41.51,8.12,1.82,1.17,3.22,2.46,4.05,3.89"/>
          </g>
        </g>
        <g>
          <path class="cls-6" d="M36.14,103.15c-.23-.69-.47-1.39-.73-2.08.18-.03.38-.07.59-.11.21-.05.45-.1.7-.18.44-.13.9-.28,1.38-.45.48-.17.94-.32,1.38-.45.46-.13.9-.21,1.31-.23.41-.02.78.04,1.12.16.34.12.63.32.87.59.24.28.43.64.56,1.08.13.45.16.85.07,1.23-.08.37-.22.7-.41.99-.19.29-.42.53-.68.74-.26.21-.5.37-.73.48v.03c.25-.06.54-.08.89-.08.35.01.7.08,1.05.21.35.13.68.34.98.62.3.28.53.67.67,1.16.17.59.22,1.12.14,1.59-.08.47-.25.89-.51,1.25-.26.36-.59.65-.99.88-.4.23-.83.41-1.3.55-.41.12-.8.23-1.15.32-.36.09-.73.2-1.12.31-.28.08-.56.17-.86.25-.29.09-.52.17-.69.24-.15-.69-.32-1.39-.5-2.09-.18-.71-.41-1.51-.67-2.41l-.65-2.22c-.26-.9-.51-1.7-.74-2.39M40.84,101.75c-.13-.22-.28-.39-.46-.52-.18-.13-.39-.21-.63-.26-.24-.04-.51-.02-.82.07-.23.07-.38.12-.47.15-.09.03-.18.07-.28.13.1.41.2.82.31,1.24.11.42.21.77.29,1.05.09.29.17.57.26.84.08.26.17.54.25.82l.7-.21c.22-.06.42-.17.6-.32.18-.15.34-.33.45-.55.12-.22.19-.47.21-.76.03-.29-.01-.61-.11-.96-.08-.26-.18-.5-.3-.72M41.81,106.14c-.43-.28-.96-.33-1.58-.15-.14.04-.27.08-.37.12-.1.04-.2.07-.29.09.07.23.13.46.2.71.07.25.15.54.25.87.08.26.16.53.24.8.09.27.17.53.24.8.08.26.15.5.22.72.07.21.13.39.17.53.15-.03.28-.06.41-.09.13-.03.27-.07.45-.12.23-.07.43-.18.61-.34.18-.16.32-.36.41-.59.1-.24.15-.5.17-.8.01-.3-.03-.63-.14-.99-.22-.76-.55-1.28-.99-1.56"/>
          <path class="cls-6" d="M46.16,100.4c-.17-.71-.34-1.42-.53-2.14.18-.01.38-.03.6-.06.21-.02.45-.06.72-.12.26-.05.5-.11.71-.17.21-.06.4-.12.57-.18.11.73.22,1.46.34,2.18.12.72.28,1.54.46,2.46l.46,2.27c.13.63.25,1.24.38,1.83.12.59.24,1.1.33,1.53.6-.12,1.2-.26,1.79-.41.6-.16,1.19-.33,1.78-.53,0,.13.01.24.02.34,0,.1.03.24.07.42.04.18.07.31.1.41.03.1.06.18.1.24-.29.04-.64.11-1.06.19-.42.08-.99.19-1.72.34-.64.13-1.17.23-1.57.32-.39.08-.7.14-.94.19-.24.05-.42.09-.54.12-.12.03-.22.06-.3.09-.1-.7-.21-1.4-.33-2.13-.12-.72-.28-1.54-.47-2.46l-.46-2.26c-.19-.92-.36-1.74-.53-2.45"/>
          <path class="cls-6" d="M65.09,107.01c-.26,0-.5.03-.73.06-.23.03-.46.05-.68.08-.22.03-.45.06-.68.09-.23.03-.45.07-.68.12-.24-.53-.49-1.07-.74-1.62-.25-.55-.52-1.1-.79-1.65-.34.03-.69.07-1.03.1-.34.04-.68.08-1.03.12-.28.03-.55.07-.83.11-.28.04-.55.08-.83.13-.14.6-.27,1.2-.38,1.79-.11.6-.21,1.18-.29,1.75-.13,0-.26,0-.38.01-.12.02-.25.03-.37.05-.13.02-.26.03-.38.05-.13.02-.27.04-.41.09.09-.31.21-.74.36-1.28.15-.54.31-1.16.49-1.84.18-.68.36-1.42.56-2.2.2-.78.4-1.58.6-2.38.2-.8.39-1.59.58-2.36.19-.78.36-1.5.52-2.17.11,0,.21.02.31.02.1,0,.2,0,.31-.01.1-.01.21-.03.3-.06.09-.03.19-.06.3-.1.46.91.95,1.89,1.48,2.93.52,1.04,1.05,2.06,1.57,3.07.53,1,1.03,1.95,1.52,2.85.49.9.93,1.65,1.32,2.27M58.38,99.31c-.19.71-.37,1.41-.54,2.1-.16.69-.32,1.39-.47,2.1l2.93-.36c-.32-.66-.64-1.3-.95-1.93-.31-.63-.64-1.26-.98-1.91"/>
          <path class="cls-6" d="M68.8,106.82c-.6-.12-1.13-.35-1.59-.69-.46-.34-.82-.78-1.1-1.33-.28-.55-.44-1.22-.48-2.03-.02-.45-.04-.86-.05-1.21-.01-.36-.03-.69-.04-.99-.01-.31-.03-.6-.03-.88,0-.28-.02-.58-.03-.88-.04-.92-.08-1.66-.12-2.22-.04-.56-.07-.99-.11-1.27.22.01.44.02.66.03.23,0,.45,0,.66,0,.21-.01.43-.03.66-.06.22-.03.44-.06.66-.09-.05,1.1-.07,2.13-.05,3.07.02.95.06,1.9.11,2.88.05,1.03.16,1.86.33,2.49.17.63.4,1.11.69,1.44.29.33.64.54,1.04.64.4.09.87.13,1.39.1.64-.03,1.14-.22,1.49-.58.35-.36.6-.82.77-1.4.16-.57.25-1.23.25-1.96,0-.73,0-1.49-.04-2.29-.04-.78-.08-1.56-.14-2.33-.06-.77-.13-1.55-.21-2.33.15.02.3.03.44.04.14.01.27.01.39,0,.14,0,.27-.02.4-.04.13-.02.26-.05.4-.08-.01.25-.02.58-.02,1.01,0,.42,0,.9,0,1.45,0,.55.01,1.15.03,1.82.02.66.04,1.36.08,2.1.09,1.97-.24,3.4-1.01,4.29-.77.89-1.93,1.38-3.48,1.45-.69.03-1.33-.01-1.94-.14"/>
          <path class="cls-6" d="M79.51,97.08c0-.73-.01-1.47-.03-2.2.18.03.38.06.6.08.21.03.46.04.72.05.46.02.94.02,1.45,0,.51,0,.99,0,1.45,0,.48.02.92.08,1.32.2.39.12.73.28,1.02.5.28.22.5.5.64.84.14.34.21.74.19,1.2-.02.47-.12.86-.32,1.19-.19.33-.43.6-.7.81-.27.21-.56.37-.87.49-.31.11-.59.19-.84.23v.03c.25.02.53.09.86.21.33.12.64.3.93.53.29.24.54.54.73.9.2.36.29.8.27,1.31-.02.61-.14,1.13-.37,1.55-.22.42-.52.77-.87,1.02-.36.26-.76.44-1.22.53-.45.09-.92.13-1.4.11-.43-.02-.83-.03-1.2-.06-.37-.02-.76-.04-1.16-.06-.29,0-.59-.02-.89-.03-.31,0-.55,0-.73,0,.07-.7.13-1.42.18-2.14.05-.73.09-1.56.12-2.5l.08-2.31c.03-.94.05-1.77.05-2.5M83.94,101.7c-.33-.4-.81-.62-1.45-.64-.15,0-.28,0-.39,0-.11,0-.21,0-.31,0,0,.24-.02.49-.03.74-.01.25-.03.56-.04.91-.01.27-.02.55-.02.83,0,.28-.01.56-.02.83-.01.27-.01.52-.02.75,0,.23,0,.41-.01.56.15.02.29.03.42.04.13.01.28.02.47.02.24,0,.46-.04.68-.13.22-.1.41-.24.58-.43.17-.19.31-.43.41-.71.11-.28.17-.6.18-.98.03-.79-.12-1.39-.45-1.79M84.4,97.22c-.05-.24-.14-.46-.28-.64-.13-.18-.31-.33-.52-.44-.21-.12-.48-.18-.8-.19-.23,0-.4-.01-.49,0-.09,0-.19.01-.3.03-.04.42-.07.84-.09,1.27-.03.43-.04.79-.05,1.08-.01.31-.02.6-.02.88,0,.28-.01.56-.02.86l.73.02c.23,0,.45-.03.67-.11.22-.08.42-.21.6-.38.18-.17.32-.39.44-.66.12-.27.18-.58.19-.95.01-.27-.01-.53-.06-.78"/>
          <path class="cls-6" d="M89.63,97.54c.05-.73.08-1.46.11-2.2.18.04.38.08.59.12.21.04.45.07.72.09.27.02.51.04.73.04.21,0,.41,0,.6,0-.11.73-.22,1.46-.3,2.18-.09.73-.18,1.56-.27,2.49l-.22,2.3c-.06.64-.12,1.27-.17,1.86-.05.6-.09,1.12-.12,1.56.61.06,1.22.1,1.83.12.61.02,1.24.03,1.86,0-.03.12-.06.23-.08.33-.02.1-.04.24-.06.42-.02.18-.02.32-.02.43,0,.1,0,.19.02.26-.29-.04-.64-.08-1.07-.13-.42-.05-1-.1-1.74-.17-.65-.06-1.18-.11-1.59-.15-.4-.04-.72-.07-.96-.09-.24-.02-.42-.04-.55-.04-.12,0-.23,0-.31,0,.11-.7.21-1.41.3-2.13.09-.72.18-1.56.27-2.49l.22-2.3c.09-.93.16-1.77.2-2.5"/>
          <path class="cls-6" d="M97.63,98.39c.08-.73.15-1.46.21-2.19.18.05.37.1.58.14.21.05.45.09.72.13.27.04.51.06.72.08.21.01.41.02.6.02-.14.72-.28,1.45-.4,2.17-.12.72-.25,1.54-.38,2.47l-.32,2.29c-.13.93-.24,1.76-.32,2.49-.08.73-.15,1.44-.2,2.14-.18-.05-.37-.09-.59-.12-.21-.03-.45-.07-.72-.1-.26-.04-.5-.07-.72-.1-.21-.03-.41-.05-.6-.05.14-.69.27-1.4.4-2.12.12-.72.25-1.55.38-2.48l.32-2.29c.13-.93.24-1.76.32-2.49"/>
          <path class="cls-6" d="M104.94,99.22c.05-.27.07-.46.08-.59-.16-.03-.36-.06-.59-.1-.24-.04-.49-.07-.75-.11-.27-.04-.54-.07-.82-.09-.28-.02-.54-.04-.78-.06.04-.12.09-.24.13-.36.04-.12.07-.24.1-.36.02-.12.04-.25.05-.37,0-.12.01-.25.02-.38.36.08.68.16.97.23.29.07.58.14.88.2.3.06.63.13.98.21.35.08.78.16,1.27.26.49.1.92.18,1.28.25.35.06.68.12.98.17.3.05.58.1.87.15.28.04.59.09.91.15-.05.12-.09.24-.13.36-.04.12-.07.24-.1.36-.02.12-.04.25-.05.37,0,.13-.01.25-.02.38-.21-.08-.44-.15-.69-.23-.26-.08-.51-.15-.77-.22-.25-.07-.5-.13-.73-.19-.23-.06-.43-.1-.58-.13-.02.05-.04.13-.07.23-.02.1-.05.22-.08.35l-.18.88-.83,4.17c-.18.92-.33,1.74-.45,2.46-.12.72-.23,1.43-.32,2.13-.18-.06-.37-.11-.58-.15-.21-.04-.45-.09-.71-.14-.26-.05-.5-.1-.71-.14-.21-.04-.41-.07-.59-.08.18-.68.35-1.38.51-2.09.16-.71.34-1.53.52-2.45l.82-4.17c.07-.32.12-.62.17-.89"/>
          <path class="cls-6" d="M110.56,107.96c.7-.65,1.41-1.33,2.15-2.04.74-.72,1.48-1.44,2.22-2.18.74-.74,1.44-1.45,2.1-2.14v-.04c-.81-.24-1.62-.47-2.45-.7-.83-.23-1.64-.42-2.44-.58.06-.11.11-.22.15-.33.05-.1.09-.21.12-.33.04-.12.06-.24.08-.35.02-.12.03-.24.05-.36.47.14.89.27,1.25.39.36.12.71.23,1.03.33.32.1.64.21.95.31.31.1.65.21,1.01.32.32.09.62.18.89.25.27.08.56.15.85.23.29.08.6.17.94.25.33.09.72.19,1.15.31l-.09.29c-1.45,1.34-2.86,2.68-4.21,4.02-1.36,1.33-2.72,2.69-4.08,4.07v.03c.79.24,1.47.44,2.03.59.56.16,1.05.3,1.46.41.41.11.77.2,1.07.27.3.07.59.14.87.2-.05.12-.09.23-.15.33-.05.1-.1.21-.13.33-.04.12-.06.23-.07.34-.01.11-.02.21-.04.3-.64-.22-1.27-.41-1.87-.59-.6-.18-1.27-.37-1.99-.59-1.25-.37-2.29-.67-3.13-.91-.84-.24-1.41-.4-1.71-.48l.07-.23c.56-.5,1.19-1.08,1.89-1.73"/>
        </g>
      </g>
      <path class="cls-7" d="M132.36,23.41c.18-.42.38-.84.58-1.26l-5.42-6-7.66-8.47-3.21-3.55c-2.78,1.33-5.79,2.52-8.98,3.55-8.84,2.86-19.08,4.49-30.03,4.49-10.94,0-21.19-1.63-30.03-4.49-3.18-1.03-6.19-2.21-8.98-3.55l-3.21,3.55-7.66,8.47-5.43,6c.21.42.4.84.58,1.26,1.22,2.81,1.89,5.64,2.16,8.47.1,1.06.15,2.11.15,3.16,0,1.37-.09,2.74-.22,4.1h105.27c-.14-1.36-.22-2.73-.23-4.1,0-1.05.05-2.1.15-3.16.27-2.82.94-5.66,2.16-8.47"/>
      <g>
        <polygon class="cls-4" points="43.87 36.79 29.73 10.23 38 32.78 30.88 31.49 50.64 67.15 39.14 35.8 43.87 36.79"/>
        <polygon class="cls-4" points="38.32 67.98 22.55 50.89 33.04 66.32 27.29 67.08 49.06 89.83 34.47 68.38 38.32 67.98"/>
        <polygon class="cls-4" points="111.42 36.79 125.55 10.23 117.28 32.78 124.41 31.49 104.65 67.15 116.14 35.8 111.42 36.79"/>
        <polygon class="cls-4" points="116.97 67.98 132.74 50.89 122.25 66.32 128 67.08 106.23 89.83 120.82 68.38 116.97 67.98"/>
      </g>
      <g>
        <path class="cls-6" d="M53.62,30.44h-4.87l-.68,2.29h-4.38l5.22-13.88h4.68l5.22,13.88h-4.49l-.69-2.29ZM52.73,27.44l-1.53-4.99-1.52,4.99h3.05Z"/>
        <polygon class="cls-6" points="60.83 18.85 65.11 18.85 65.11 24.1 69.61 18.85 75.31 18.85 70.25 24.09 75.54 32.73 70.26 32.73 67.33 27.03 65.11 29.35 65.11 32.73 60.83 32.73 60.83 18.85"/>
        <rect class="cls-6" x="77.13" y="18.85" width="4.3" height="13.88"/>
        <polygon class="cls-6" points="83.53 18.85 96.56 18.85 96.56 22.28 92.19 22.28 92.19 32.73 87.9 32.73 87.9 22.28 83.53 22.28 83.53 18.85"/>
        <path class="cls-6" d="M106.4,30.44h-4.87l-.68,2.29h-4.38l5.22-13.88h4.68l5.21,13.88h-4.49l-.69-2.29ZM105.51,27.44l-1.53-4.99-1.52,4.99h3.05Z"/>
      </g>
    </g>
  </g>
</svg>