<?xml version="1.0" encoding="UTF-8"?>
<svg id="_レイヤー_2" data-name="レイヤー 2" xmlns="http://www.w3.org/2000/svg" xmlns:xlink="http://www.w3.org/1999/xlink" viewBox="0 0 426.45 444.34">
  <defs>
    <style>
      .cls-1 {
        fill: none;
      }

      .cls-2 {
        fill: #221815;
      }

      .cls-3 {
        fill: #ffe100;
      }

      .cls-4 {
        fill: #fff;
      }

      .cls-5 {
        fill: #009360;
      }

      .cls-6 {
        clip-path: url(#clippath);
      }

      .cls-7 {
        fill: #d7063b;
      }
    </style>
    <clipPath id="clippath">
      <path class="cls-1" d="M390.94,219.36c.07-12.48-5.34-22.53-15.6-29.03-.69-.44-1.39-.87-2.1-1.27-.77-.43-1.55-.84-2.34-1.22-11.64-5.67-23.69-4.48-34.15-2.53-5.83,1.33-9.45,2.5-11.74,3.46-1.46-1.46-3.03-2.84-4.74-4.07-.97-.67-6.37-4.22-14.15-5.76-.48-2.22-.98-3.96-1.26-4.88-.01-.05-.23-.79-.25-.84-1.29-3.88-4.26-11.63-9.68-19.89-6.8-10.34-15.02-17.72-24.49-21.96-15.15-6.65-29.01-3.93-42.64,8.55-6.19,6.4-11.53,14.18-15.87,23.1-.54,1.12-4.52,10.56-4.96,11.86-1.56,4.27-6.56,19.27-5.14,33.03.89,10.47,5.87,20.97,13,27.42.12.11.54.44.67.53,7.94,6.03,16.67,9.07,25.99,9.07,1.13,0,2.27-.05,3.42-.13,12.05-.93,21.23-4.61,21.51-4.72,1.18-.45,2.22-.93,3.33-1.4,3.32,4.59,7.6,8.48,12.65,11.05,6.29,3.17,11.23,4.29,15.81,4.29.67,0,1.31-.14,1.97-.18.25.54.51,1.09.92,1.73,9.83,18.52,24.19,24.87,33.25,24.47.58.03,1.17.05,1.76.05,15.78,0,33.72-11.18,44.46-28.18l.53-.88c3.53-5.77,8.87-14.5,9.85-31.67Z"/>
    </clipPath>
  </defs>
  <g id="_レイヤー_1-2" data-name="レイヤー 1">
    <g>
      <path class="cls-3" d="M426.45,226.83c0,117.76-84.41,196.43-213.22,196.43S0,344.59,0,226.83,95.46,13.6,213.22,13.6s213.22,95.46,213.22,213.23Z"/>
      <g>
        <g>
          <g>
            <path class="cls-2" d="M419.52,295.38c-1.3-.72-2.84-1.24-3.8-1.44-6.81-1.4-13.64-2.18-20.31-2.33-3.7-.09-7.16,0-10.49.16-1.79-20.11-8.09-39.31-19.27-58.27,1.62-9.72,2.12-22.36,2.53-32.66l.21-5.17c.84-18.75-5.88-43.26-14.38-52.46-2.12-2.29-5.31-4.04-8.12-4.45-21.54-3.21-49.87,5.34-81.73,24.67l-4-.59c-26.18-3.9-58.77-8.75-103.06,1.53-1.4.32-2.95.78-4.54,1.26-2.37.71-6.76,1.98-7.92,1.68-8.49-4.64-30.28-15.71-49.14-18.5-17.53-2.61-29.09.83-34.52,10.31-15.37,28.86-7.65,69.07-4.44,79.47-16,31.01-15.7,63.87-15.6,67.47-.01.84.03,1.72.04,2.58-.84.06-1.6.09-2.48.16-8.93.71-17.8,1.58-28.07,4.44-3.34.92-6.41,3.14-5.81,5.59.47,1.92,2.84,2.34,4.83,2.34,1.54,0,2.85-.25,2.89-.26,10.63-2.17,16.02-2.75,23.47-3.55l3.14-.34c.81-.09,1.61-.13,2.42-.2.81,9.68,2.85,19.99,6.48,30.18-4.44,1.67-9.56,3.89-15.71,7.07-.04.02-3.98,2.08-4.74,4.62-.23.78-.15,1.56.23,2.24.62,1.11,1.92,1.46,3.31,1.46,2.3,0,4.82-.95,4.86-.96,1.84-.81,3.57-1.58,5.21-2.31,3.72-1.66,6.96-3.05,10-4.23,3.93,8.9,9.09,17.53,15.73,25.34-6.84,3.96-15.09,9.33-24.43,16.6-1.94,1.52-3.19,3.45-3.41,5.32-.12,1.04.11,1.99.65,2.67.41.51,1.18.73,2.1.73,1.62,0,3.71-.68,5.14-1.7,10.26-7.27,19.16-12.89,26.15-17.04,7.51,7.31,16.5,13.67,27.22,18.49,35.27,15.84,67.77,19.4,108.95,20l4.04-.06,4.36.06c47.38-.7,84.81-7.46,111.26-20.11,15.35-7.34,27.56-17.24,36.7-29.54,7.64,2.61,16.9,6.62,25.83,12.66,1.14.79,3.45,2.17,5.5,2.17.92,0,1.79-.27,2.47-1.01.29-.3.61-.85.53-1.73-.17-1.86-2.23-4.46-3.56-5.43-9.12-6.66-18.29-10.95-26.01-13.74,5.25-8.67,9.17-18.37,11.72-29.12,5.64.9,12.22,2.35,19.44,4.77.04,0,2.17.71,4.26.71,1.57,0,3.11-.39,3.7-1.78.27-.63.26-1.33-.03-2.02-1.04-2.48-5.39-4.32-5.43-4.33-7.12-2.82-14.12-4.47-20.31-5.49,1.35-8.14,2.01-16.8,1.93-26,.02-1.57-.07-3.12-.1-4.67,2.94-.16,5.97-.26,9.16-.22,4.96.05,10.48.42,15.35.74,1.52.1,2.99.19,4.4.28,3.19.18,7.1-.41,7.57-2.73.17-.81-.11-2.03-2.36-3.29Z"/>
            <path class="cls-4" d="M354.53,233.51c1.76-9.13,2.29-22.42,2.71-33.11l.22-5.23c.76-16.97-5.67-38.25-11.49-44.55-.51-.56-1.4-.99-1.72-1.06-18.78-2.76-45.27,5.51-74.57,23.31-2.08,1.26-3.22,1.95-5.23,1.65l-5.91-.87c-25.25-3.76-56.69-8.45-98.98,1.36-1.2.27-2.52.68-3.88,1.08-5.38,1.6-11.46,3.43-16.3.79-7.98-4.35-28.38-14.75-45.5-17.28-12.59-1.85-20.45-.25-23.34,4.78-10.47,19.65-8.42,46.45-5.73,61.45.72-.85,1.42-1.62,2.07-2.27,2.63-2.63,5.32-3.6,7.16-2.33,1.91,1.32,1.15,4.66-.08,7.33-1.22,2.65-3.69,7.76-5.63,11.18,0,0,0,.01,0,.02-16.85,29.6-16.54,62.53-16.45,66.2,0,.74.03,1.51.04,2.26,9.31.02,14.99,1,17.89,1.74l.21.05c.06.01,7.62,1.41,7.18,5.04-.39,3.23-4.98,2.99-7.2,2.87l-.82-.06c-2.44-.37-8.96-1.24-16.86-1.4.79,8.79,2.71,18.09,6.01,27.25,4.52-1.04,7.71-1.28,9.83-1.4l.29-.02c2.79-.15,9.39-.25,9.73,3.07.3,2.87-4.87,4.24-7.11,4.7-1.04.21-2.16.36-3.41.53-1.75.24-3.74.52-6.09,1.02,3.77,8.24,8.76,16.15,15.14,23.24,6.63-3.22,10.45-4.39,10.53-4.42.06-.03,6.57-1.68,7.84,1.28,1.09,2.56-1.67,3.92-4.33,5.24-.85.42-1.74.86-2.55,1.35,0,0-.09.05-.26.13-1.03.51-2.75,1.4-5.02,2.62,6.17,5.56,13.32,10.43,21.71,14.2,33.54,15.07,64.84,18.45,104.45,19.04l4.04-.06,4.36.06c44.98-.67,81.88-7.25,106.54-19.04,12.36-5.91,22.38-13.54,30.16-22.9-3.71-.86-5.98-1.18-6.04-1.19-1.42-.14-5.85-1.17-7.34-3.19-.44-.61-.61-1.28-.47-1.94.75-3.62,7.32-2.9,10.09-2.42.35.03,3.75.38,9.03,1.65,5.2-7.94,9.03-16.98,11.53-27.1-2.33-.14-4.2-.17-5.48-.17-2.44.01-5.28-.05-5.28-.05-.74-.07-6.59-.76-6.82-3.68-.03-.39.05-1,.6-1.64,1.31-1.53,4.62-2.39,6.03-2.5l.31-.03c.84-.08,3.07-.3,5.31-.32h.61c1.62,0,3.81.05,6.42.22,1.29-7.68,1.93-15.9,1.86-24.75.01-1.24-.06-2.46-.09-3.69-6.85.85-12.47,1.97-16.3,2.74-1.96.39-3.38.68-4.24.78-1.38.2-2.56.3-3.55.3-2.31,0-3.58-.56-4-1.72-.29-.84-.23-1.74.18-2.59.74-1.52,2.53-2.81,5.19-3.72,2.09-.71,10.2-3.2,22.24-4.68-1.72-19.09-7.86-37.28-18.78-55.31-.7-1.16-.95-2.54-.69-3.87Z"/>
          </g>
          <g>
            <path class="cls-2" d="M115.31,315.19c-3.5,7.1-3.52,18.45,1.21,24.48,2.92,3.45,7.8,5.41,14.09,4.33,5.43-.94,8.52-5.9,9.55-9.85,2.23-8.84-.14-19.68-5.23-23.79-5.36-3.91-15.39-3.82-19.61,4.83Z"/>
            <path class="cls-2" d="M285.41,316.23c-3.5,7.1-3.52,18.45,1.21,24.48,2.92,3.45,7.8,5.41,14.09,4.33,5.43-.94,8.52-5.9,9.55-9.85,2.23-8.84-.14-19.68-5.23-23.79-5.36-3.91-15.39-3.82-19.61,4.83Z"/>
            <g>
              <path class="cls-2" d="M230.45,346.94c-1.17-4.16-4.32-7.43-8.44-8.76-7.86-2.55-15.82-1.48-20.77,2.79-5.16,4.56-5.41,12.65-2.19,16.84,2.99,3.88,7.72,5.9,14.48,6.2.31.01.63.02.94.02,5.41,0,10.44-1.98,13.31-5.27v-.02c2.83-3.28,3.82-7.69,2.67-11.81Z"/>
              <path class="cls-3" d="M219.91,344.69c-2.1-.68-4.24-1.01-6.25-1.01-3.19,0-6.05.84-7.91,2.45-2.45,2.17-2.29,6.18-1.26,7.52,1.68,2.18,4.74,3.34,9.35,3.54,4.27.17,7.46-1.38,8.79-2.9,1.34-1.56,1.79-3.55,1.24-5.49-.54-1.94-2.02-3.48-3.96-4.11Z"/>
            </g>
          </g>
        </g>
        <g>
          <g>
            <path class="cls-2" d="M174.31,405.02c-1.48-4.63-4.48-8.3-7.74-11.99-11.57-11.1-31.76-15.56-47.81-10.64-11.58,3.03-24.94,13.2-26.89,28.3-1.79,11.76,2.42,22.06,11.65,27.76,9.31,4.78,19.42,4.67,29.7-.17.87-.33,1.3-.24,3.57.72,1.42.61,3.17,1.34,5.28,1.7,3.57,1.03,6.76,1.46,9.57,1.46,7.46,0,12.38-3.02,15.44-6.04,7.97-7.84,10.94-20.61,7.23-31.1Z"/>
            <path class="cls-4" d="M163.98,408.61c-.03-.07-.05-.13-.07-.2-.84-2.65-3.05-5.31-5.25-7.82-8.41-8.05-24.41-11.47-36.92-7.67-8.41,2.21-17.79,9.67-19.04,19.29-.55,3.62-1.01,12.25,6.19,16.72,5.93,3.02,12.4,2.87,20-.7,1.9-.75,3.63-1.02,5.19-1.02,2.92,0,5.24.98,6.98,1.72,1.12.47,2.08.88,2.97,1.01.27.04.53.09.78.17,6.51,1.94,11.44,1.34,14.59-1.78,4.91-4.82,6.87-13.3,4.58-19.71Z"/>
          </g>
          <g>
            <path class="cls-2" d="M338.19,412.98c-1.98-15.21-15.33-25.39-26.69-28.34-16.27-4.97-36.47-.53-48.34,10.91-2.82,3.2-5.95,7-7.44,11.65-3.71,10.49-.74,23.26,7.22,31.1,3.07,3.03,8,6.05,15.45,6.05,2.81,0,5.99-.43,9.57-1.46,2.11-.36,3.86-1.1,5.28-1.7,2.29-.98,2.71-1.06,3.23-.88,10.61,5,20.73,5.1,30.44.1,8.83-5.48,13.04-15.78,11.27-27.43Z"/>
            <path class="cls-4" d="M327.35,414.51c-1.27-9.74-10.64-17.21-18.84-19.34-3.53-1.08-7.32-1.6-11.13-1.6-9.92,0-20.02,3.48-26.32,9.54-1.88,2.17-4.1,4.83-4.94,7.48-.02.07-.04.13-.07.2-2.29,6.41-.33,14.89,4.56,19.7,3.17,3.11,8.06,3.72,14.6,1.78.25-.07.51-.13.78-.17.89-.13,1.85-.53,2.97-1.01,2.67-1.14,6.69-2.83,11.82-.85,7.93,3.73,14.41,3.88,20.73.64,6.81-4.24,6.35-12.88,5.82-16.38Z"/>
          </g>
        </g>
        <g>
          <g class="cls-6">
            <g>
              <rect class="cls-3" x="156.48" y="182.53" width="290.26" height="53.01" transform="translate(-17.07 27.09) rotate(-5)"/>
              <rect class="cls-7" x="152.09" y="129.71" width="290.26" height="58.34" transform="translate(-12.72 26.51) rotate(-5)"/>
              <rect class="cls-5" x="160.87" y="230.02" width="290.26" height="58.34" transform="translate(-21.43 27.66) rotate(-5)"/>
            </g>
          </g>
          <path class="cls-2" d="M390.94,219.36c.07-12.48-5.34-22.53-15.6-29.03-.69-.44-1.39-.87-2.1-1.27-.77-.43-1.55-.84-2.34-1.22-11.64-5.67-23.69-4.48-34.15-2.53-5.83,1.33-9.45,2.5-11.74,3.46-1.46-1.46-3.03-2.84-4.74-4.07-.97-.67-6.37-4.22-14.15-5.76-.48-2.22-.98-3.96-1.26-4.88-.01-.05-.23-.79-.25-.84-1.29-3.88-4.26-11.63-9.68-19.89-6.8-10.34-15.02-17.72-24.49-21.96-15.15-6.65-29.01-3.93-42.64,8.55-6.19,6.4-11.53,14.18-15.87,23.1-.54,1.12-4.52,10.56-4.96,11.86-1.56,4.27-6.56,19.27-5.14,33.03.89,10.47,5.87,20.97,13,27.42.12.11.54.44.67.53,7.94,6.03,16.67,9.07,25.99,9.07,1.13,0,2.27-.05,3.42-.13,12.05-.93,21.23-4.61,21.51-4.72,1.18-.45,2.22-.93,3.33-1.4,3.32,4.59,7.6,8.48,12.65,11.05,6.29,3.17,11.23,4.29,15.81,4.29.67,0,1.31-.14,1.97-.18.25.54.51,1.09.92,1.73,9.83,18.52,24.19,24.87,33.25,24.47.58.03,1.17.05,1.76.05,15.78,0,33.72-11.18,44.46-28.18l.53-.88c3.53-5.77,8.87-14.5,9.85-31.67ZM262.41,229.88c-.08.03-8.08,3.2-18.37,4-11.87.91-19.44-4.84-21.88-6.66-5-4.53-8.79-12.66-9.45-20.34-1.18-11.51,3.16-24.52,4.61-28.48.39-1.06,3.95-9.57,4.44-10.59,3.84-7.9,8.52-14.72,13.66-20.06,10.24-9.37,19.41-11.29,30.57-6.38,7.49,3.35,14.15,9.4,19.77,17.96,4.92,7.49,7.54,14.61,8.32,16.9l.28.99c.1.33.23.76.37,1.26-3.12.38-6.39,1.21-9.76,2.67-.86.37-1.62.86-2.44,1.29-1.82-1.99-4.05-3.77-6.3-5.03-6.73-3.79-14.11-3.84-20.25-.13-6.59,4-10.46,11.71-9.86,19.44.23,6.03,2.69,11.16,7.12,14.82,2.87,2.37,6.27,3.78,9.4,4.6,0,.53-.07,1.05-.05,1.58.03,3.82.78,7.6,2.04,11.21-.76.31-1.43.63-2.24.94ZM264.12,205.19c-1.43-.51-2.96-1.24-4.22-2.39-1.79-1.63-2.7-3.75-2.82-6.7-.29-3.87,1.51-7.59,4.61-9.47,2.17-1.32,4.47-1.53,7.04-.66,2.02.68,3.67,1.86,4.9,2.98-4.48,4.46-7.75,9.99-9.5,16.23ZM306.89,241.58c-7.63,2.01-11.53,2.43-19.54-1.62-8.18-4.17-13.72-13.13-13.78-22.47-.43-11.82,5.62-21.89,15.78-26.29,3.44-1.49,6.75-2.04,9.77-2.05,8.05,0,14.03,3.93,14.85,4.49,9.03,6.49,13.34,17.88,10.69,28.51-2.49,11.49-10.8,17.57-17.75,19.43ZM371.63,245.52l-.6,1.01c-8.69,13.74-23.71,23.26-36.56,22.57-6.52.09-15.93-5.16-23.02-17.53,4.14-1.36,8.46-3.71,12.35-7.14,1.96,1.41,4.3,2.61,7,3.2,1.02.22,2.2.38,3.49.38,3.21,0,7.18-.98,11.47-4.38,4.81-4.81,6.44-10.35,4.85-17.49-2.82-8.54-9.53-11.12-14.31-12.03-.27-5.63-1.81-11.14-4.48-16.14,2.05-.65,4.64-1.36,7.15-1.93,8.49-1.57,18.35-2.62,27.19,1.67.59.28,1.14.58,1.7.89.53.3,1.04.61,1.59.96,7.15,4.53,10.61,10.99,10.57,19.46-.82,14.14-4.94,20.88-8.38,26.5ZM335.17,225.09c2.53.61,4.13,1.69,4.89,3.94.65,2.96.13,4.69-1.56,6.43-1.71,1.35-3.44,1.83-5.18,1.51-.94-.17-1.76-.57-2.49-1,1.88-3.16,3.39-6.77,4.33-10.89Z"/>
        </g>
      </g>
    </g>
    <g>
      <path class="cls-1" d="M141.12,99.11c-.07-.06-6.71-5.55-9.44-7.93,1.28-7.03,1.69-14.93,1.19-23.51-1.04-17.99,4.34-35.24,4.39-35.41,0,0,1.29-4.06,1.29-4.06.2-.65.63-1.77.63-1.77,0,0-2.16-.71-3.9-1.32l-4.59-1.61-4.89-1.72,2.61-7.47.57-1.62-1.55-.73-3.59-1.68C104,1,84.92,0,77.65,0s-26.35,1-46.19,10.28l-3.59,1.68-1.55.73.57,1.62,2.61,7.47-11.58,4.06-1.74.61.56,1.76.07.21c1.27,3.99,2.38,7.43,3.13,11.5l.04.22.09.21,1.64,3.65c-.76.24-1.38.59-1.91.93l.02.02c-.09.05-.17.08-.26.15l-.04.03s-.04.03-.04.03l-1.36,1.07c-.86-.13-3.2-.5-4.73-.74h-.07s-.07-.02-.07-.02c-2.28-.19-4.32.75-5.45,2.52-1.12,1.77-1.12,3.99.01,5.96,0,0,3.78,6.61,3.78,6.61,1.41,2.32,3.77,2.98,5.04,3.33.14.04,2.71.83,5.84,1.84-1.98.51-3.44,1.9-3.84,3.78-.39,1.82.27,4.34,3.29,5.96.09.05.2.11.33.18.21,25.2,9.06,42.8,25.64,50.93.01,0,10.99,5.3,10.99,5.3,6.42,3.07,12.48,5.98,15.73,7.78,0,0,2.13,1.18,2.13,1.18l.92.51.92-.51,2.13-1.18c3.25-1.81,9.31-4.71,15.73-7.78,0,0,10.99-5.3,10.99-5.3,9.84-4.83,16.96-12.94,21.18-24.1h16.58l-4.06-3.36Z"/>
      <g>
        <path class="cls-4" d="M129.63,91.89c1.41-7.13,1.87-15.19,1.35-24.11-1.07-18.41,4.42-35.92,4.48-36.1l1.29-4.06s-13.36-4.69-13.36-4.69l3.24-9.26-3.59-1.68C103.54,2.88,84.8,1.9,77.65,1.9s-25.89.98-45.39,10.1l-3.59,1.68,3.24,9.26-13.37,4.69c1.3,4.07,2.47,7.68,3.26,11.94l2.74,6.11c-.29-.04-.56-.06-.81-.07-.27,0-.52,0-.75.04-.85.11-1.48.45-2.17.89,0,0-.16.12-.16.12,0,0-1.55,1.22-1.92,1.51-.13.02-.36.03-.53,0-.27-.03-5.11-.8-5.11-.8-1.57-.13-2.95.48-3.69,1.65-.74,1.16-.72,2.65.05,3.99l3.78,6.62c.99,1.63,2.74,2.12,3.9,2.44.1.03,3.52,1.08,7.31,2.32-.02,1-.05,2-.1,3.01-.22,0-.4.01-.54.02-1.75.12-3.02,1.08-3.33,2.5-.12.56-.3,2.48,2.33,3.89.3.16.76.42,1.32.75-.04,25.05,8.39,42.39,24.59,50.33l10.98,5.3c6.44,3.08,12.53,6,15.83,7.83l2.13,1.18,2.13-1.18c3.3-1.83,9.39-4.75,15.83-7.83l10.98-5.3c9.78-4.8,16.73-13.02,20.69-24.29h12.63s-8.34-6.9-10.28-8.68Z"/>
        <g>
          <path class="cls-5" d="M129.63,91.89c1.41-7.13,1.87-15.19,1.35-24.11-1.07-18.41,4.42-35.92,4.48-36.1l1.29-4.06s-13.36-4.69-13.36-4.69l3.24-9.26-3.59-1.68C103.54,2.88,84.8,1.9,77.65,1.9s-25.89.98-45.39,10.1l-3.59,1.68,3.24,9.26-13.37,4.69c1.3,4.07,2.47,7.68,3.26,11.94l2.74,6.11c-.29-.04-.56-.06-.81-.07-.27,0-.52,0-.75.04-.85.11-1.48.45-2.17.89,0,0-.16.12-.16.12,0,0-1.55,1.22-1.92,1.51-.13.02-.36.03-.53,0-.27-.03-5.11-.8-5.11-.8-1.57-.13-2.95.48-3.69,1.65-.74,1.16-.72,2.65.05,3.99l3.78,6.62c.99,1.63,2.74,2.12,3.9,2.44.1.03,3.52,1.08,7.31,2.32-.02,1-.05,2-.1,3.01-.22,0-.4.01-.54.02-1.75.12-3.02,1.08-3.33,2.5-.12.56-.3,2.48,2.33,3.89.3.16.76.42,1.32.75-.04,25.05,8.39,42.39,24.59,50.33l10.98,5.3c6.44,3.08,12.53,6,15.83,7.83l2.13,1.18,2.13-1.18c3.3-1.83,9.39-4.75,15.83-7.83l10.98-5.3c9.78-4.8,16.73-13.02,20.69-24.29h12.63s-8.34-6.9-10.28-8.68ZM126.75,99.84c-.08.25-.18.49-.26.73-3.92,10.96-10.7,18.95-20.22,23.62l-10.97,5.3c-6.45,3.09-12.55,6.01-15.87,7.85l-1.77.98-1.77-.98c-3.32-1.85-9.42-4.76-15.87-7.85l-10.98-5.3c-15.83-7.76-24.12-24.71-24.17-49.22,0-.28,0-.56,0-.85-.27-.16-1.48-.85-1.72-.98-2.18-1.17-2.05-2.66-1.96-3.09.23-1.08,1.25-1.82,2.66-1.92.13,0,.92-.05,1.2-.07,0-.08.14-3.96.14-4.21-.25-.08-7.68-2.45-7.87-2.5-1.11-.31-2.62-.73-3.46-2.1,0,0-3.78-6.62-3.78-6.62-.63-1.1-.66-2.31-.07-3.24.59-.93,1.72-1.43,3.01-1.32h.04s.04.01.04.01c1.84.29,4.69.75,5,.79.3.04.76,0,.94-.05l.05-.04,2-1.57.05-.04.05-.03c.64-.4,1.17-.7,1.9-.79.23-.03.48-.04.75-.02.25.01.53.05.84.1.26.05,1.08.23,1.18.25l-3.26-7.12c-.62-3.58-2.29-8.88-3.13-11.48l13.39-4.69-3.26-9.32,2.98-1.39C51.93,3.62,70.54,2.64,77.65,2.64s25.71.98,45.07,10.03l2.98,1.39-1.09,3.11-2.17,6.22s13.38,4.69,13.38,4.69l-1.07,3.37c-.05.15-3.94,12.55-4.57,27.49l-.07,2.15c-.04,2.21-.01,4.46.12,6.72.5,8.68.07,16.52-1.26,23.47-.05.28-.11.56-.17.84l9.04,7.7h-11.11Z"/>
          <g>
            <path class="cls-5" d="M120.31,24.41l3.31-9.47-1.62-.76c-19.05-8.91-37.37-9.88-44.36-9.88s-25.31.96-44.36,9.88l-1.62.76.59,1.68,2.72,7.79-11.62,4.07-1.81.64.59,1.83c.02.07,1.04,3.3,2.12,8.42.07.31.13.63.2.95,0,0,1.8,1,2.27,1.26-.06-.32-.12-.63-.18-.93-1.24-6.28-2.53-10.3-2.53-10.3l13.48-4.73-3.37-9.65c20.6-9.64,40.49-9.69,43.53-9.69s22.92.05,43.53,9.69l-3.37,9.65,13.48,4.73s-3.45,10.78-4.51,24.64c-.02.27-.04.54-.06.81.77.53,1.41,1.08,1.88,1.64.02-.33.04-.66.06-.98.92-14.09,4.47-25.37,4.51-25.51l.58-1.83s-13.43-4.71-13.43-4.71Z"/>
            <path class="cls-5" d="M128.57,67.91c-.08-1.44-.13-2.88-.14-4.3,0-.33,0-.66,0-.98-.5.53-1.16.98-1.97,1.37,0,.26,0,.53.01.79.02,1.07.06,2.15.13,3.24.36,6.17.31,13.24-.78,20.25-.05.29-.09.59-.14.88.56.54,1.12,1.09,1.7,1.63.05-.28.1-.57.15-.86,1.15-6.56,1.51-13.91,1.04-22.02Z"/>
            <path class="cls-5" d="M122.9,99.84c-.09.24-.18.49-.28.73-3.25,8.42-8.8,15.85-17.97,20.35-10.29,5.05-21.74,10.31-27.01,13.24-5.27-2.93-16.72-8.19-27.01-13.24-17.3-8.48-21.73-27.42-22.11-43.75,0-.29-.01-.58-.02-.86-.69-.42-1.36-.82-1.98-1.19,0,.29,0,.57,0,.86.28,23.29,8.23,39.37,23.23,46.72l10.96,5.29c6.48,3.1,12.59,6.03,15.96,7.9l.96.53.96-.53c3.37-1.87,9.48-4.8,15.96-7.9l10.96-5.29c8.94-4.38,15.38-11.86,19.18-22.12.09-.24.17-.49.26-.73h-2.06Z"/>
            <path class="cls-5" d="M26.85,64.42c0,.25,0,.5-.02.74-.02.73-.05,1.46-.08,2.19,0,.19-.02.37-.03.56,0,.03,0,.05,0,.08.6-.02,1.27-.04,1.98-.05.01-.19.02-.39.03-.58.03-.51.05-1.02.06-1.53,0-.24.01-.48.02-.71-.65-.24-1.3-.47-1.96-.7Z"/>
          </g>
          <g>
            <path class="cls-5" d="M114.5,99.84l-.3-.21c-9.8-6.76-24.41-13.04-34.08-16.42-.59.09-1.15.18-1.67.28,3.55,4.52,9.53,12.7,10.65,14.58l1.03,1.76h-13.25s-.35-.43-.35-.43c-5.11-6.47-11.89-12.92-20.13-19.18l-7.65-1.07,7.18,5.69-4.02-.43s-9.7-1.04-9.68-1.04c-1.8-.17-3.48-.77-5.27-1.89-1.17-.73-3.61-2.24-6.14-3.78-.28-.17-.56-.34-.85-.52,0,.29.01.58.02.87.23,7.02,1.21,13.33,2.92,18.83,3.35,10.76,9.53,18.41,18.37,22.74l10.93,5.28c6.11,2.92,11.9,5.7,15.45,7.61,3.55-1.92,9.34-4.69,15.45-7.61l10.93-5.28c7.8-3.82,13.52-10.22,17.06-19.06.1-.24.19-.49.29-.73h-6.88ZM103.66,118.88l-10.93,5.27c-5.9,2.82-11.49,5.5-15.09,7.42-3.59-1.92-9.19-4.6-15.09-7.42l-10.93-5.27c-.48-.23-.95-.48-1.41-.74-1.65-.91-3.2-1.95-4.65-3.11-5.45-4.38-9.43-10.54-11.88-18.4-1.65-5.29-2.6-11.34-2.86-18.06,2.38,1.45,4.62,2.84,5.72,3.53,1.89,1.18,3.66,1.82,5.58,1.99l16.21,1.74-7.06-5.59,4.8.67c7.46,5.68,13.69,11.51,18.56,17.35.44.53.87,1.06,1.29,1.59l.57.72h4.17s10.72,0,10.72,0l-1.68-2.87c-.22-.37-.61-.96-1.11-1.69-.76-1.1-1.79-2.54-2.92-4.11-1.92-2.64-4.15-5.62-5.91-7.9.09-.01.18-.03.28-.05,3.38,1.18,7.37,2.73,11.55,4.53,1.86.8,3.75,1.65,5.64,2.54,5.91,2.77,11.8,5.94,16.54,9.21,0,0,.48.34.48.34h5.92c-3.47,8.48-9.02,14.63-16.53,18.31Z"/>
            <path class="cls-5" d="M125.17,68.11c-.05-.93-.09-1.86-.11-2.78,0-.26-.01-.51-.02-.77-.27.09-.54.17-.83.26-2.63.74-6.15,1.16-10.36,1.45-.8.05-4.78.07-7.42.06,3.14,4.61,8.96,12.45,17.26,20.86.24.24.48.49.73.73.05-.3.09-.6.14-.9.8-5.72,1.01-12.04.61-18.91ZM123.81,86.27c-2.32-2.37-4.45-4.69-6.37-6.9-1.17-1.34-2.26-2.65-3.28-3.9-2.62-3.23-4.74-6.11-6.34-8.4,2.43,0,5.37-.01,6.07-.06,3.72-.26,7.4-.61,10.33-1.42.02.85.06,1.71.11,2.57.03.47.05.94.07,1.41.09,1.95.13,3.86.12,5.72-.02,3.87-.26,7.54-.71,10.98Z"/>
            <path class="cls-5" d="M115.97,26.5l3.42-9.77c-18.54-8.35-36.58-9.02-41.74-9.02s-23.2.66-41.74,9.02l3.42,9.77-13.54,4.75c.53,1.85,1.5,5.5,2.41,10.3.06.3.11.61.17.92.31.17.62.33.93.5,20.56,10.76,40.55,15.12,58.74,17.01-2.88-.77-5.21-1.77-6.38-3.04-.8-.88-.94-1.74-.91-2.3.31-6.04,19.26-5.38,20.07-5.35,8.54.33,18.06,2.4,23.71,5.25.28.14.54.28.8.42.02-.26.04-.52.06-.78.89-10.85,3.19-19.67,4.13-22.93l-13.54-4.75ZM124.58,53.77c-6.09-2.98-15.94-4.92-23.74-5.22-.54-.02-5.43-.19-10.34.4-6.81.82-10.34,2.72-10.49,5.64-.04.71.12,1.77,1.1,2.83.37.41.86.8,1.45,1.17-12.75-1.67-24.36-4.45-35.33-8.47-6.22-2.28-12.22-4.96-18.1-8.07-.83-4.55-1.74-8.15-2.33-10.27l13.58-4.76-3.44-9.83c18.14-7.99,35.64-8.63,40.7-8.63,4.27,0,17.4.46,32.3,5.4,2.76.91,5.57,1.98,8.4,3.23l-3.44,9.83,13.58,4.76c-1.03,3.73-3.06,11.98-3.92,21.99Z"/>
            <path class="cls-5" d="M31.05,65.97c-.27-.11-.55-.22-.82-.32,0,.23-.01.45-.02.68-.01.35-.03.69-.05,1.04,0,.18-.02.37-.03.55.27,0,.55,0,.84,0,1.47-.01,3.05,0,4.67.03-1.52-.72-3.05-1.37-4.58-1.98ZM31,67.37c.01-.25.03-.5.04-.75.73.27,1.39.52,1.94.75-.66,0-1.32,0-1.98,0Z"/>
          </g>
        </g>
        <g>
          <path class="cls-5" d="M22.72,50.16c.72-.58,1.39-.33,2.3-.11.98.24,5.18,1.33,7.36,2.01l-2.31-4.86c15.68,7.49,39.46,15.88,69.89,17.54,6.94,11.03,19.08,24.01,31.13,33.94h3.47c-13.14-10.7-23.87-23.61-30.35-33.55,1.07.06,8.48.06,9.55-.02,11.14-.77,14.72-2.38,14.6-5.45-.15-3.87-13.83-8.68-27.6-9.21-6.56-.25-18.67.62-18.85,4.24-.18,3.59,11.3,5.72,21.1,6.09,7.19.27,12.82-.97,13.18-2.57.38-1.73-3.86-3.81-8.46-3.34,1.8.39,2.95,1.21,2.93,1.96-.07,1.86-5.55,1.54-8.57,1.43-7.42-.27-13.75-2.11-13.65-3.43.11-1.46,4.87-2.38,11.87-2.14,14.06.46,21.68,3.83,21.53,6.32-.16,2.56-8.32,3.65-15.58,3.38-20.91-.8-50.92-3.36-81.53-20.57l3.34,6.66s-2.34-.66-3.59-.88c-1.39-.25-1.84.03-2.66.55l-2,1.57c-.38.41-1.48.38-1.85.34-.45-.05-5.05-.79-5.05-.79-1.8-.15-2.71,1.27-1.82,2.8l3.78,6.62c.69,1.14,2.28,1.39,3.3,1.71,8.26,2.6,15.29,4.72,22.66,8.97-6.79-.47-14.77-.2-16.92-.05-1.82.13-2.38,1.66-.23,2.81,2.13,1.14,11.15,6.68,13.87,8.38,1.54.97,3.02,1.55,4.75,1.71l9.7,1.04-3.48-2.76c-.61-.08-5.17-.59-5.78-.66-1.36-.15-2.33-.56-2.86-.95-.54-.39-9.03-5.66-10.87-6.72-.71-.41-.48-.79.75-.78,4.46.03,13.18.62,17.06,1.13,1.87,1.13,3.33,1.88,5.18,3.34-2.65-.4-9.99-1.09-12.49-1.05l3.51,2.55c3.06.27,10.25,1.06,13.84,1.79,6.91,5.23,14.43,11.8,20.56,19.56h3.63c-6.93-8.41-15.16-16.26-24.77-22.77-13.54-9.17-19.41-11.8-37.85-17.59-.8-.25-1.72-.51-2.14-1.32l-2.46-4.37c-.63-1.11-.33-1.27.65-1.08.62.12,2.68.43,3.62.69,1.65.45,2.17-.12,2.55-.44l2.06-1.63Z"/>
          <path class="cls-5" d="M122.85,98.65h3.53c-7-6.48-22.98-16.32-32.34-20.34-6.47-.07-17.52,1.28-22.55,2.76,2.68,2.86,9.06,10.73,13.16,17.61h3.43c-1.22-2.09-8.64-12.15-11.74-15.95,1.16-.27,2.49-.51,3.89-.72,10.22,3.55,24.96,9.98,34.63,16.66h3.58c-5.5-4.34-18.26-11.69-32.34-17.33,2.49-.2,4.9-.55,6.41-.49,9.15,3.63,24.44,12.96,30.35,17.81Z"/>
        </g>
        <g>
          <g>
            <path class="cls-7" d="M76.52,100.57l-.57-.72c-.42-.53-.85-1.06-1.29-1.59l-29.08,16.77c1.45,1.16,3,2.2,4.65,3.11l30.47-17.57h-4.17Z"/>
            <path class="cls-7" d="M85.68,91.9c1.14,1.56,2.17,3,2.92,4.11l8.64-4.98c-1.89-.89-3.79-1.74-5.64-2.54l-5.92,3.41Z"/>
            <path class="cls-7" d="M117.45,79.37l7.08-4.08c.01-1.86-.03-3.77-.12-5.72l-10.24,5.9c1.02,1.25,2.11,2.56,3.28,3.9Z"/>
          </g>
          <path class="cls-7" d="M77.65,8.55c-5.06,0-22.56.64-40.7,8.63l3.44,9.83-13.58,4.76c.59,2.12,1.5,5.72,2.33,10.27,5.88,3.11,11.89,5.79,18.1,8.07L109.95,13.95c-14.9-4.95-28.03-5.4-32.3-5.4Z"/>
          <g>
            <path class="cls-5" d="M89.72,97.7l1.68,2.87h-10.72s-30.47,17.57-30.47,17.57c.46.25.93.5,1.41.74l10.93,5.27c5.9,2.82,11.49,5.5,15.09,7.42,3.59-1.92,9.19-4.6,15.09-7.42l10.93-5.27c7.51-3.68,13.06-9.83,16.53-18.31h-5.92s-.49-.34-.48-.34c-4.74-3.27-10.63-6.43-16.54-9.21l-8.64,4.98c.51.74.9,1.33,1.11,1.69Z"/>
            <path class="cls-5" d="M123.81,86.27c.45-3.45.69-7.11.71-10.98l-7.08,4.08c1.92,2.21,4.04,4.53,6.37,6.9Z"/>
          </g>
          <g>
            <g>
              <path class="cls-3" d="M56.09,80.91l-4.8-.67,7.06,5.59-16.21-1.74c-1.92-.18-3.69-.81-5.58-1.99-1.1-.69-3.34-2.07-5.72-3.53.26,6.72,1.21,12.78,2.86,18.06,2.44,7.86,6.43,14.02,11.88,18.4l29.08-16.77c-4.87-5.85-11.1-11.68-18.56-17.35Z"/>
              <path class="cls-3" d="M80.05,83.96c-.09.01-.19.03-.28.05,1.76,2.28,3.99,5.26,5.91,7.9l5.92-3.41c-4.18-1.8-8.17-3.34-11.55-4.53Z"/>
              <path class="cls-3" d="M124.22,65.59c-2.93.81-6.6,1.16-10.33,1.42-.71.05-3.64.07-6.07.06,1.6,2.3,3.72,5.17,6.34,8.4l10.24-5.9c-.02-.47-.05-.93-.07-1.41-.05-.86-.08-1.72-.11-2.57Z"/>
              <path class="cls-3" d="M81.11,57.42c-.97-1.06-1.13-2.13-1.1-2.83.15-2.92,3.68-4.82,10.49-5.64,4.9-.59,9.79-.42,10.34-.4,7.8.3,17.65,2.24,23.74,5.22.86-10.01,2.88-18.26,3.92-21.99l-13.58-4.76,3.44-9.83c-2.83-1.25-5.65-2.32-8.4-3.23l-62.71,36.17c10.96,4.02,22.58,6.8,35.33,8.47-.59-.37-1.07-.76-1.45-1.17Z"/>
            </g>
            <path class="cls-3" d="M31,67.37c.01-.25.03-.5.04-.75.73.27,1.39.52,1.94.75-.66,0-1.32,0-1.98,0Z"/>
          </g>
        </g>
      </g>
    </g>
  </g>
</svg>