<?xml version="1.0" encoding="UTF-8"?>
<svg id="_レイヤー_2" data-name="レイヤー 2" xmlns="http://www.w3.org/2000/svg" xmlns:xlink="http://www.w3.org/1999/xlink" viewBox="0 0 426.45 442.51">
  <defs>
    <style>
      .cls-1 {
        fill: none;
      }

      .cls-2 {
        fill: #221815;
      }

      .cls-3 {
        fill: #ffe100;
      }

      .cls-4 {
        fill: #1e2380;
      }

      .cls-5 {
        fill: #fff;
      }

      .cls-6 {
        fill: #bf9c46;
      }

      .cls-7 {
        clip-path: url(#clippath);
      }

      .cls-8 {
        fill: #da005c;
      }
    </style>
    <clipPath id="clippath">
      <path class="cls-1" d="M390.94,217.53c.07-12.49-5.34-22.53-15.6-29.03-.69-.44-1.39-.87-2.1-1.27-.77-.43-1.55-.85-2.34-1.22-11.64-5.67-23.69-4.48-34.15-2.53-5.83,1.33-9.45,2.5-11.74,3.46-1.46-1.46-3.03-2.84-4.74-4.07-.97-.67-6.37-4.22-14.15-5.76-.48-2.23-.98-3.96-1.26-4.88-.01-.05-.23-.79-.25-.84-1.29-3.88-4.26-11.63-9.68-19.89-6.8-10.34-15.02-17.72-24.49-21.96-15.15-6.65-29.01-3.93-42.64,8.55-6.19,6.4-11.53,14.18-15.87,23.1-.54,1.12-4.52,10.56-4.96,11.86-1.56,4.27-6.56,19.27-5.14,33.03.89,10.47,5.87,20.97,13,27.42.12.11.54.44.67.53,7.94,6.03,16.67,9.07,25.99,9.07,1.13,0,2.27-.05,3.42-.13,12.05-.93,21.23-4.61,21.51-4.72,1.18-.45,2.22-.93,3.33-1.4,3.32,4.59,7.6,8.48,12.65,11.05,6.29,3.17,11.23,4.29,15.81,4.29.67,0,1.31-.14,1.97-.18.25.54.51,1.09.92,1.73,9.83,18.52,24.19,24.87,33.25,24.47.58.03,1.17.05,1.76.05,15.78,0,33.72-11.18,44.46-28.18l.53-.88c3.53-5.77,8.87-14.5,9.85-31.66Z"/>
    </clipPath>
  </defs>
  <g id="_レイヤー_1-2" data-name="レイヤー 1">
    <g>
      <path class="cls-8" d="M426.45,225c0,117.76-84.41,196.43-213.22,196.43S0,342.76,0,225,95.46,11.77,213.22,11.77s213.22,95.46,213.22,213.23Z"/>
      <g>
        <g>
          <path class="cls-2" d="M419.51,293.55c-1.3-.72-2.84-1.24-3.8-1.44-6.81-1.4-13.64-2.18-20.31-2.33-3.7-.09-7.16,0-10.49.16-1.79-20.11-8.09-39.31-19.27-58.27,1.62-9.72,2.12-22.36,2.53-32.66l.21-5.17c.84-18.75-5.88-43.26-14.38-52.46-2.12-2.29-5.31-4.04-8.12-4.45-21.54-3.21-49.87,5.35-81.73,24.67l-4-.59c-26.18-3.9-58.77-8.75-103.06,1.53-1.4.32-2.95.78-4.54,1.26-2.37.71-6.76,1.98-7.92,1.68-8.49-4.64-30.28-15.71-49.14-18.49-17.53-2.61-29.09.83-34.52,10.31-15.37,28.86-7.65,69.07-4.44,79.46-16,31.01-15.7,63.87-15.6,67.47-.01.84.03,1.72.04,2.58-.84.05-1.6.09-2.48.16-8.93.71-17.8,1.58-28.07,4.44-3.34.92-6.41,3.14-5.81,5.59.47,1.92,2.84,2.35,4.83,2.35,1.54,0,2.85-.25,2.89-.26,10.63-2.16,16.02-2.75,23.47-3.55l3.14-.34c.81-.09,1.61-.13,2.42-.2.81,9.68,2.85,19.99,6.48,30.18-4.44,1.67-9.56,3.89-15.71,7.07-.04.02-3.98,2.08-4.74,4.62-.23.78-.15,1.56.23,2.24.62,1.11,1.92,1.46,3.31,1.46,2.3,0,4.82-.95,4.86-.96,1.84-.81,3.57-1.58,5.21-2.31,3.72-1.66,6.96-3.05,10-4.23,3.93,8.9,9.09,17.53,15.73,25.34-6.84,3.96-15.09,9.33-24.43,16.6-1.94,1.52-3.19,3.45-3.41,5.32-.12,1.04.11,1.99.65,2.67.41.51,1.18.73,2.1.73,1.62,0,3.71-.68,5.14-1.7,10.26-7.27,19.16-12.9,26.15-17.04,7.51,7.31,16.5,13.67,27.22,18.49,35.27,15.84,67.77,19.4,108.95,20l4.04-.06,4.36.06c47.38-.7,84.81-7.46,111.26-20.11,15.35-7.34,27.56-17.24,36.7-29.54,7.64,2.61,16.9,6.62,25.83,12.66,1.14.79,3.45,2.16,5.5,2.16.92,0,1.79-.27,2.47-1.01.29-.3.61-.85.53-1.73-.17-1.87-2.23-4.46-3.56-5.43-9.12-6.66-18.28-10.95-26.01-13.74,5.25-8.67,9.17-18.37,11.72-29.12,5.64.9,12.22,2.35,19.44,4.77.04,0,2.17.71,4.26.71,1.57,0,3.11-.39,3.7-1.78.27-.63.26-1.33-.03-2.02-1.04-2.48-5.39-4.32-5.43-4.33-7.12-2.82-14.12-4.47-20.3-5.49,1.35-8.14,2-16.8,1.93-26,.02-1.57-.07-3.12-.1-4.67,2.94-.16,5.97-.26,9.16-.22,4.96.05,10.48.42,15.35.74,1.52.1,2.99.19,4.4.28,3.19.18,7.1-.41,7.57-2.73.17-.81-.11-2.03-2.36-3.29Z"/>
          <path class="cls-5" d="M354.53,231.69c1.76-9.13,2.29-22.42,2.71-33.11l.22-5.23c.76-16.97-5.67-38.25-11.49-44.55-.51-.56-1.4-.99-1.72-1.06-18.78-2.76-45.27,5.51-74.57,23.31-2.08,1.26-3.22,1.95-5.23,1.65l-5.91-.87c-25.25-3.76-56.69-8.45-98.98,1.36-1.2.27-2.52.67-3.88,1.08-5.38,1.6-11.46,3.43-16.3.8-7.98-4.35-28.38-14.75-45.5-17.28-12.59-1.85-20.45-.25-23.34,4.78-10.47,19.65-8.42,46.45-5.73,61.45.72-.85,1.42-1.62,2.07-2.27,2.63-2.63,5.32-3.6,7.16-2.33,1.91,1.32,1.15,4.66-.08,7.33-1.22,2.65-3.69,7.76-5.63,11.18,0,0,0,.01,0,.02-16.85,29.6-16.54,62.53-16.45,66.2,0,.74.03,1.51.04,2.26,9.31.02,14.99,1,17.89,1.74l.21.05c.06.01,7.62,1.41,7.18,5.04-.39,3.23-4.98,2.99-7.2,2.87l-.82-.06c-2.44-.37-8.96-1.24-16.86-1.4.79,8.79,2.71,18.09,6.01,27.25,4.52-1.04,7.71-1.28,9.83-1.4l.29-.02c2.79-.15,9.39-.25,9.73,3.07.3,2.87-4.87,4.24-7.11,4.7-1.04.21-2.16.36-3.41.53-1.75.24-3.74.52-6.09,1.02,3.77,8.24,8.76,16.15,15.14,23.24,6.63-3.21,10.45-4.39,10.53-4.42.06-.03,6.57-1.68,7.84,1.28,1.09,2.56-1.67,3.92-4.33,5.24-.85.42-1.74.86-2.55,1.35,0,0-.09.05-.26.13-1.03.52-2.75,1.4-5.02,2.62,6.17,5.56,13.32,10.43,21.71,14.2,33.54,15.07,64.84,18.46,104.45,19.04l4.04-.06,4.36.06c44.98-.67,81.88-7.25,106.54-19.04,12.36-5.91,22.38-13.54,30.16-22.9-3.71-.86-5.97-1.18-6.04-1.19-1.42-.14-5.85-1.17-7.34-3.19-.44-.61-.61-1.28-.47-1.94.75-3.62,7.32-2.9,10.09-2.43.35.03,3.75.38,9.03,1.65,5.2-7.94,9.03-16.98,11.53-27.11-2.33-.14-4.2-.17-5.48-.17-2.44.01-5.28-.05-5.28-.05-.74-.07-6.59-.76-6.82-3.68-.03-.39.05-1,.6-1.64,1.31-1.53,4.62-2.39,6.03-2.5l.31-.03c.84-.08,3.07-.3,5.31-.32h.61c1.62,0,3.81.05,6.42.22,1.29-7.68,1.93-15.9,1.86-24.75.01-1.24-.07-2.46-.09-3.69-6.85.85-12.47,1.97-16.3,2.74-1.96.39-3.38.68-4.24.78-1.38.2-2.56.3-3.55.3-2.31,0-3.58-.56-4-1.72-.29-.84-.23-1.74.18-2.59.74-1.52,2.53-2.81,5.19-3.72,2.09-.71,10.2-3.2,22.24-4.68-1.72-19.09-7.86-37.28-18.78-55.31-.7-1.16-.95-2.54-.69-3.87Z"/>
        </g>
        <g>
          <path class="cls-2" d="M115.31,313.37c-3.5,7.1-3.52,18.45,1.21,24.48,2.92,3.45,7.8,5.41,14.09,4.33,5.43-.94,8.52-5.9,9.55-9.85,2.23-8.84-.15-19.68-5.23-23.79-5.36-3.91-15.39-3.82-19.61,4.83Z"/>
          <path class="cls-2" d="M285.41,314.4c-3.5,7.1-3.52,18.45,1.21,24.48,2.92,3.45,7.8,5.41,14.09,4.33,5.43-.94,8.52-5.9,9.55-9.85,2.23-8.84-.14-19.68-5.23-23.79-5.36-3.91-15.39-3.82-19.61,4.83Z"/>
          <g>
            <path class="cls-2" d="M230.45,345.12c-1.17-4.16-4.32-7.43-8.44-8.76-7.86-2.55-15.82-1.48-20.77,2.79-5.16,4.56-5.41,12.65-2.18,16.84,2.99,3.88,7.72,5.9,14.48,6.2.31.01.63.02.94.02,5.41,0,10.44-1.98,13.31-5.27v-.02c2.83-3.28,3.82-7.69,2.67-11.81Z"/>
            <path class="cls-3" d="M219.9,342.86c-2.1-.68-4.24-1.01-6.25-1.01-3.19,0-6.05.84-7.91,2.44-2.45,2.17-2.29,6.18-1.26,7.52,1.68,2.18,4.74,3.34,9.35,3.54,4.27.17,7.46-1.38,8.79-2.9,1.34-1.56,1.79-3.55,1.24-5.49-.54-1.94-2.02-3.48-3.96-4.11Z"/>
          </g>
        </g>
      </g>
      <g>
        <g>
          <path class="cls-2" d="M174.31,403.19c-1.48-4.63-4.48-8.3-7.74-11.99-11.57-11.1-31.76-15.56-47.81-10.64-11.58,3.03-24.94,13.2-26.89,28.3-1.79,11.76,2.42,22.06,11.65,27.76,9.31,4.78,19.42,4.67,29.7-.17.87-.33,1.3-.24,3.57.72,1.42.61,3.17,1.34,5.28,1.7,3.57,1.03,6.76,1.46,9.57,1.46,7.46,0,12.38-3.02,15.44-6.04,7.97-7.84,10.94-20.61,7.23-31.1Z"/>
          <path class="cls-5" d="M163.97,406.78c-.03-.07-.05-.13-.07-.2-.84-2.65-3.05-5.31-5.25-7.82-8.41-8.05-24.41-11.47-36.92-7.67-8.41,2.2-17.79,9.67-19.04,19.29-.55,3.62-1.01,12.25,6.19,16.72,5.93,3.02,12.4,2.87,20-.7,1.9-.75,3.63-1.02,5.18-1.02,2.92,0,5.24.98,6.98,1.72,1.12.47,2.08.88,2.97,1.01.27.04.53.09.78.17,6.51,1.94,11.44,1.34,14.59-1.78,4.91-4.82,6.87-13.3,4.58-19.71Z"/>
        </g>
        <g>
          <path class="cls-2" d="M338.19,411.15c-1.98-15.21-15.33-25.39-26.69-28.34-16.27-4.97-36.47-.53-48.34,10.91-2.82,3.2-5.95,7-7.44,11.65-3.71,10.49-.74,23.27,7.22,31.1,3.07,3.03,8,6.05,15.45,6.05,2.81,0,5.99-.43,9.57-1.46,2.11-.36,3.86-1.1,5.28-1.7,2.29-.98,2.71-1.06,3.23-.87,10.61,5,20.73,5.1,30.44.1,8.83-5.48,13.04-15.78,11.27-27.43Z"/>
          <path class="cls-5" d="M327.35,412.68c-1.27-9.74-10.64-17.21-18.84-19.34-3.53-1.08-7.32-1.6-11.13-1.6-9.92,0-20.02,3.48-26.32,9.53-1.88,2.17-4.1,4.83-4.94,7.48-.02.07-.04.13-.07.2-2.29,6.41-.33,14.89,4.56,19.7,3.17,3.11,8.06,3.72,14.6,1.78.25-.07.51-.13.78-.17.89-.13,1.85-.53,2.97-1.01,2.67-1.14,6.69-2.83,11.82-.85,7.93,3.73,14.41,3.88,20.73.63,6.81-4.24,6.35-12.88,5.82-16.38Z"/>
        </g>
      </g>
      <g>
        <g class="cls-7">
          <g>
            <rect class="cls-4" x="221.2" y="109.7" width="132.75" height="190.62" transform="translate(-19.76 379) rotate(-65)"/>
            <g>
              <rect class="cls-8" x="206.72" y="105.63" width="20.14" height="132.75" transform="translate(93.01 -75.51) rotate(25)"/>
              <rect class="cls-8" x="243.73" y="122.89" width="20.14" height="132.75" transform="translate(103.76 -89.53) rotate(25)"/>
              <rect class="cls-8" x="280.74" y="140.14" width="20.14" height="132.75" transform="translate(114.52 -103.55) rotate(25)"/>
              <rect class="cls-8" x="317.75" y="157.4" width="20.14" height="132.75" transform="translate(125.27 -117.57) rotate(25)"/>
              <rect class="cls-8" x="354.76" y="174.66" width="20.14" height="132.75" transform="translate(136.04 -131.6) rotate(25)"/>
            </g>
          </g>
        </g>
        <path class="cls-2" d="M390.94,217.53c.07-12.49-5.34-22.53-15.6-29.03-.69-.44-1.39-.87-2.1-1.27-.77-.43-1.55-.85-2.34-1.22-11.64-5.67-23.69-4.48-34.15-2.53-5.83,1.33-9.45,2.5-11.74,3.46-1.46-1.46-3.03-2.84-4.74-4.07-.97-.67-6.37-4.22-14.15-5.76-.48-2.23-.98-3.96-1.26-4.88-.01-.05-.23-.79-.25-.84-1.29-3.88-4.26-11.63-9.68-19.89-6.8-10.34-15.02-17.72-24.49-21.96-15.15-6.65-29.01-3.93-42.64,8.55-6.19,6.4-11.53,14.18-15.87,23.1-.54,1.12-4.52,10.56-4.96,11.86-1.56,4.27-6.56,19.27-5.14,33.03.89,10.47,5.87,20.97,13,27.42.12.11.54.44.67.53,7.94,6.03,16.67,9.07,25.99,9.07,1.13,0,2.27-.05,3.42-.13,12.05-.93,21.23-4.61,21.51-4.72,1.18-.45,2.22-.93,3.33-1.4,3.32,4.59,7.6,8.48,12.65,11.05,6.29,3.17,11.23,4.29,15.81,4.29.67,0,1.31-.14,1.97-.18.25.54.51,1.09.92,1.73,9.83,18.52,24.19,24.87,33.25,24.47.58.03,1.17.05,1.76.05,15.78,0,33.72-11.18,44.46-28.18l.53-.88c3.53-5.77,8.87-14.5,9.85-31.66ZM262.41,228.05c-.08.03-8.08,3.2-18.37,4-11.87.92-19.45-4.84-21.88-6.66-5-4.53-8.79-12.66-9.45-20.34-1.18-11.51,3.16-24.52,4.61-28.48.39-1.06,3.95-9.57,4.44-10.59,3.84-7.89,8.52-14.72,13.66-20.06,10.24-9.37,19.41-11.29,30.57-6.38,7.49,3.36,14.15,9.4,19.77,17.96,4.92,7.49,7.54,14.61,8.32,16.9l.28.99c.1.33.23.76.37,1.26-3.12.38-6.39,1.21-9.76,2.67-.86.37-1.62.86-2.44,1.29-1.82-1.99-4.05-3.77-6.3-5.03-6.73-3.79-14.11-3.84-20.25-.13-6.59,4-10.46,11.71-9.86,19.44.23,6.03,2.69,11.16,7.12,14.82,2.87,2.37,6.27,3.78,9.4,4.6,0,.53-.07,1.05-.05,1.58.03,3.82.78,7.6,2.04,11.21-.76.31-1.43.63-2.24.94ZM264.12,203.36c-1.43-.51-2.96-1.24-4.22-2.39-1.79-1.63-2.71-3.75-2.82-6.7-.29-3.87,1.51-7.59,4.61-9.47,2.17-1.32,4.47-1.53,7.04-.66,2.02.68,3.67,1.86,4.9,2.98-4.48,4.46-7.75,9.99-9.5,16.23ZM306.89,239.75c-7.63,2.01-11.53,2.43-19.54-1.62-8.18-4.17-13.72-13.13-13.78-22.47-.43-11.82,5.62-21.89,15.78-26.29,3.44-1.49,6.75-2.05,9.77-2.05,8.05,0,14.03,3.92,14.85,4.49,9.03,6.49,13.34,17.88,10.69,28.51-2.49,11.49-10.8,17.57-17.75,19.43ZM371.63,243.69l-.6,1.01c-8.69,13.74-23.71,23.26-36.56,22.57-6.52.09-15.93-5.16-23.02-17.53,4.14-1.36,8.46-3.71,12.35-7.14,1.96,1.41,4.3,2.61,7,3.2,1.02.22,2.2.38,3.49.38,3.21,0,7.18-.98,11.47-4.38,4.8-4.81,6.43-10.35,4.84-17.49-2.82-8.54-9.53-11.12-14.31-12.03-.27-5.63-1.81-11.14-4.48-16.14,2.05-.65,4.64-1.36,7.15-1.93,8.49-1.57,18.35-2.62,27.19,1.67.59.28,1.14.58,1.7.89.53.3,1.04.61,1.59.96,7.15,4.53,10.61,10.99,10.57,19.46-.82,14.14-4.94,20.88-8.38,26.5ZM335.17,223.26c2.53.62,4.13,1.7,4.89,3.94.65,2.96.13,4.69-1.56,6.43-1.71,1.35-3.44,1.83-5.18,1.51-.94-.17-1.76-.57-2.49-1,1.88-3.16,3.39-6.77,4.33-10.89Z"/>
      </g>
    </g>
    <g>
      <path class="cls-4" d="M142.24,35.1c0-1.47.18-2.8-.71-5.45-1.12-3.33-3.22-6.44-6.52-8.31-1.65-.94-4.16-1.83-6.35-1.83-1.25,0-3.13.31-4.65,1.07,1.3-3.66-.02-7.04-1.3-8.63-.74-.92-2.5-2.64-5.5-2.86-.04-3.8-2.03-7.62-4.16-9.09.13.68.09,1.41,0,1.9-.33,1.8-2.06,3.84-3.53,4.51-.67-2.15-1.92-3.53-3.4-4.65-1.47-1.12-4.11-2.04-7.02-1.07,1.43,1.34,2.37,3.58,1.43,6.44-.29.87-.6,1.75-.98,2.59-.18.39-.36,1.55-.35,2.45-1.84-.41-3.61-.35-5.64.54-1.21-3.53-5.7-7.2-11.26-4.83,1.21-3.58-1.5-7.28-5.1-7.28s-6.3,3.71-5.09,7.28c-5.56-2.37-10.06,1.3-11.26,4.83-2.02-.89-3.79-.95-5.64-.54,0-.91-.17-2.06-.35-2.45-.38-.84-.7-1.72-.98-2.59-.94-2.86,0-5.09,1.43-6.44-2.9-.97-5.55-.05-7.02,1.07-1.47,1.12-2.73,2.5-3.4,4.65-1.47-.68-3.2-2.71-3.53-4.51-.09-.49-.13-1.22,0-1.9-2.12,1.47-4.11,5.3-4.16,9.09-2.99.22-4.76,1.94-5.5,2.86-1.27,1.58-2.59,4.96-1.3,8.63-1.52-.76-3.4-1.07-4.65-1.07-2.19,0-4.69.89-6.35,1.83-3.31,1.88-5.41,4.99-6.52,8.31-.89,2.65-.72,3.98-.72,5.45,0,2.48,1.47,8.4,7.06,11.84-2.32,2.46-3.22,6.39-3.08,9.43.12,2.77,1.56,8.09,5.77,11.75-1.43,1.07-1.97,3.4-1.74,4.6.21,1.11.15,1.24.45,3.44.1.71.31,1.5.22,2.37-.16,1.51-1.03,2.51-2.01,3.22-.8.58-1.21.67-2.32.67s-1.88-.13-2.86-.89c.4,2.41,2.03,4.14,3.04,4.83,1.12.76,2.68,1.34,4.11,1.39,1.3.04,2.73-.13,3.44-.4-.85,2.95-3.62,5.23-7.24,6.52,1.67.82,4.2,1.1,6.77.63-1.76,2.33-5.21,6.88-6.1,8.09-1.47,2.01-1.65,3.85-1.39,5.09.36,1.7,2.1,4.56,3.98,6.3l4.07-4.16c2.01,2.68,2.67,7.12,5.76,10.55,1.8,2,4.2,1.03,5.32,0,.75-.69,2.06-2.15,2.95-3.13,2.71,2.63,10.35,8.57,14.93,11.17,6.88,3.91,19.14,7.96,23.91,8.54,4.77-.58,17.03-4.62,23.91-8.54,4.58-2.6,12.21-8.54,14.93-11.17.89.98,2.2,2.44,2.95,3.13,1.12,1.03,3.52,2,5.32,0,3.09-3.42,3.75-7.87,5.76-10.55l4.07,4.16c1.88-1.74,3.62-4.6,3.98-6.3.26-1.24.09-3.08-1.39-5.09-.89-1.21-4.34-5.76-6.1-8.09,2.57.47,5.1.19,6.77-.63-3.62-1.3-6.39-3.57-7.24-6.52.72.27,2.15.44,3.44.4,1.43-.04,2.99-.63,4.11-1.39,1.01-.69,2.64-2.41,3.04-4.83-.98.76-1.74.89-2.86.89s-1.52-.09-2.32-.67c-.98-.71-1.85-1.71-2.01-3.22-.09-.87.13-1.66.22-2.37.29-2.2.24-2.33.45-3.44.22-1.21-.31-3.53-1.74-4.6,4.2-3.66,5.64-8.99,5.76-11.75.13-3.04-.76-6.97-3.08-9.43,5.59-3.44,7.06-9.36,7.06-11.84ZM35.98,18.16c1.91,0,3.45,1.55,3.45,3.45s-1.55,3.45-3.45,3.45-3.45-1.55-3.45-3.45,1.54-3.45,3.45-3.45ZM32.73,34.5v5.68c-1.48.98-3.51,1.46-5,1.46s-3.08-.4-4.45-1.31c3.74.39,8.11-1.71,9.45-5.82ZM20.45,35.42c-.07-1.25.85-3.04,2.5-3.04,1.39,0,2.1,1.16,2.1,2.59,0,1.31-1.88,3.33-3.06,4.25-.73-.79-1.44-1.99-1.55-3.81ZM23.35,67.86c-.4-1.07-.81-3.2-.4-5.59.73-4.29,3.05-6.54,4.83-7.37.95-.45,1.87-.77,3.15-.68-2.28,1.31-3.29,3.34-3.73,5.01-.49,1.88-.63,4.74.36,7.46-1.56-.38-3.52.58-4.2,1.16ZM36.31,100.89c-2.64-4.18-5.71-6.71-9.17-7.5,2.38-1.21,5.24-3.69,6.71-7.23,1.06,4.2,2.79,8.2,5.06,11.93-.7.78-1.92,2.13-2.6,2.8ZM36.36,32.4c1.09-.43,2.44-1.55,2.91-2.57.24.96,1.49,2.96,2.35,3.88-1.76-.33-3.53-.78-5.26-1.31ZM53.47,34.2c-1.28-.78-2.76-1.9-3.57-3.01-.7-.96-1.79-2.39-1.79-5.03,0-1.9.96-3.43,2.25-4.51.44,1.08,1.17,2.18,2.04,3.26,1.22,1.51,3.96,4.3,6.38,8.08-1.7.58-3.48.97-5.32,1.21ZM104.52,31.19c-.81,1.11-2.29,2.23-3.57,3.01-1.83-.23-3.62-.63-5.32-1.21,2.43-3.78,5.16-6.57,6.38-8.08.87-1.08,1.6-2.18,2.04-3.26,1.29,1.08,2.25,2.61,2.25,4.51,0,2.64-1.09,4.06-1.79,5.03ZM131.14,40.32c-1.37.91-3.03,1.31-4.45,1.31s-3.52-.48-4.99-1.46v-5.68c1.33,4.11,5.7,6.21,9.44,5.82ZM118.45,18.16c1.91,0,3.45,1.55,3.45,3.45s-1.54,3.45-3.45,3.45-3.45-1.55-3.45-3.45,1.55-3.45,3.45-3.45ZM115.16,29.83c.47,1.02,1.82,2.14,2.91,2.57-1.74.53-3.5.98-5.26,1.31.87-.92,2.11-2.92,2.35-3.88ZM118.11,100.89c-.67-.67-1.9-2.02-2.6-2.8,2.26-3.72,3.99-7.72,5.05-11.93,1.47,3.54,4.33,6.01,6.71,7.23-3.46.79-6.53,3.32-9.17,7.5ZM131.07,67.86c-.68-.59-2.64-1.54-4.2-1.16.98-2.73.85-5.59.36-7.46-.44-1.67-1.45-3.7-3.73-5.01,1.28-.09,2.2.23,3.15.68,1.78.83,4.1,3.08,4.83,7.37.41,2.38,0,4.51-.4,5.59ZM133.97,35.42c-.1,1.82-.82,3.01-1.55,3.81-1.18-.92-3.06-2.95-3.06-4.25,0-1.43.71-2.59,2.1-2.59,1.65,0,2.57,1.79,2.5,3.04Z"/>
      <g>
        <path class="cls-6" d="M77.2,34.12c4.11.09,10.95,1.25,13.63,2.77.72-1.61,4.07-7.37,7.46-11.13,1.53-1.69,2.77-2.99,3.57-4.92.66-1.57.45-2.91-.4-4.47-.8-1.47-2.9-2.28-4.16-2.28s-3.62.13-5.32,1.7c0-2.1-1.47-5.81-6.26-6.3-2.26-.23-4.6,1.03-6.3,2.55-.15-1.02-.39-2.03-.54-3.08,1.25-.67,1.52-2.28,1.52-3.08,0-1.12-1.12-3.08-3.22-3.08s-3.22,1.97-3.22,3.08c0,.8.27,2.41,1.52,3.08-.14,1.05-.39,2.06-.54,3.08-1.7-1.52-4.04-2.78-6.3-2.55-4.78.49-6.26,4.2-6.26,6.3-1.7-1.56-4.07-1.7-5.32-1.7s-3.35.8-4.16,2.28c-.85,1.56-1.06,2.9-.4,4.47.8,1.92,2.05,3.23,3.58,4.92,3.4,3.75,6.75,9.52,7.46,11.13,2.68-1.52,9.52-2.68,13.63-2.77Z"/>
        <g>
          <path class="cls-4" d="M74.31,15.95c-.72-.62-1.93-1.53-2.78-1.84-.85-.31-2.26-.28-3.13.35-.83.6-1.69,1.91-1.58,3.13.21,2.17,1.65,5.18,3.02,7.21.83-.25,2.57-.63,3.13-.7.26-1.52,1.16-7.15,1.33-8.14Z"/>
          <path class="cls-4" d="M80.09,15.95c.72-.62,1.93-1.53,2.78-1.84.85-.31,2.26-.28,3.13.35.83.6,1.69,1.91,1.57,3.13-.21,2.17-1.65,5.18-3.02,7.21-.83-.25-2.57-.63-3.13-.7-.26-1.52-1.16-7.15-1.33-8.14Z"/>
          <path class="cls-4" d="M63.11,19.33c.07.6.47,1.74.83,2.44.36.69,1.72,3.6,2.26,4.29-1.14.54-3.02,1.65-3.53,2.06-.89-1.27-2.76-3.7-3.44-4.42-.69-.74-1-1.16-1.09-1.92-.25-1.92,1.14-3.08,2.57-3.13.65-.02,1.81.13,2.41.69Z"/>
          <path class="cls-4" d="M91.29,19.33c-.07.6-.47,1.74-.83,2.44-.36.69-1.72,3.6-2.26,4.29,1.14.54,3.02,1.65,3.53,2.06.89-1.27,2.76-3.7,3.44-4.42.69-.74,1-1.16,1.09-1.92.25-1.92-1.14-3.08-2.57-3.13-.65-.02-1.81.13-2.41.69Z"/>
        </g>
      </g>
      <g>
        <g>
          <path class="cls-6" d="M37.42,115.34c-1.57-1.66-3.61-4.19-4.37-5.26-.65-.91-1.54-.92-2.01-.47-.6.57-.63,1.66-.07,2.08.91.67,2.97,2.44,3.6,3.11.63.67,1.3,1.48,1.25,2.19.54-.54,1.15-1.15,1.6-1.64Z"/>
          <path class="cls-6" d="M34.97,103.12c-2.45-4.11-5.54-6.82-8.94-7.77-1.07,1.43-6.08,8.08-6.08,8.08,2.41.45,3.87,1.89,4.25,2.28,1.07,1.1,2.45,2.6,3.53,5.59,1.1,3.03,2.9,6.03,3.44,6.84.55.82,1.21,1.16,1.74,1.16s1.64-.53,1.39-1.92c-.18-1.01-.98-1.79-1.61-2.41-.63-.63-2.09-1.81-2.68-2.23-.8-.58-1.79-2.64-.27-4.2,1.52-1.56,5.23-5.41,5.23-5.41Z"/>
          <path class="cls-6" d="M20.18,110.32s.13.02.18.04l2.95-2.95s.02-.13.04-.18c-.41-.5-.84-.88-1.39-1.25-.46-.31-1.3-.89-2.15-.76-.49.07-.8.41-.98.8-.16.33-.38.75-.27,1.3.24,1.15.83,2.17,1.61,2.99Z"/>
          <path class="cls-6" d="M116.98,115.31c1.58-1.63,3.63-4.17,4.39-5.24.65-.91,1.54-.92,2.01-.47.6.57.63,1.66.07,2.08-.91.67-2.97,2.44-3.6,3.11-.63.67-1.3,1.48-1.25,2.19-.54-.54-1.17-1.17-1.62-1.66Z"/>
          <path class="cls-6" d="M119.45,103.12c2.45-4.11,5.54-6.82,8.94-7.77,1.07,1.43,6.07,8.08,6.07,8.08-2.41.45-3.87,1.89-4.25,2.28-1.07,1.1-2.45,2.6-3.53,5.59-1.1,3.03-2.9,6.03-3.44,6.84-.55.82-1.21,1.16-1.74,1.16s-1.64-.53-1.39-1.92c.18-1.01.98-1.79,1.61-2.41.63-.63,2.09-1.81,2.68-2.23.8-.58,1.79-2.64.27-4.2-1.52-1.56-5.23-5.41-5.23-5.41Z"/>
          <path class="cls-6" d="M134.24,110.32s-.13.02-.18.04l-2.95-2.95s-.02-.13-.04-.18c.41-.5.84-.88,1.39-1.25.46-.31,1.3-.89,2.14-.76.49.07.8.41.98.8.15.33.36.74.27,1.3-.13.73-.72,2.28-1.61,2.99Z"/>
          <path class="cls-6" d="M77.21,134.69c7.63-1.39,17.48-4.93,25.39-9.85,5.06-3.15,13.32-9.39,17.88-16.09.38-.55.8-.85,1.39-.89l-6.98-7.09c-.36-.27-.75-.36-1.11.05h0c-3.13,4.45-7.04,8.43-11.46,11.77-7.11,5.4-15.76,9.4-25.1,11.81-9.34-2.4-17.98-6.41-25.1-11.81-4.42-3.35-8.32-7.33-11.46-11.78h0c-.36-.4-.75-.32-1.11-.05l-6.98,7.09c.58.04,1.01.34,1.39.89,4.56,6.7,12.82,12.94,17.88,16.09,7.91,4.92,17.75,8.45,25.39,9.85Z"/>
        </g>
        <g>
          <path class="cls-4" d="M38.59,111.57c.34.07,1,.36,1.43.27.04-.01.75-.47.76-.49.01-.03-.02-.1,0-.13-.47-.12-1.15-.12-1.56-.31-.24-.11-.43-.36-.58-.58-.79-1.16.53-2.6,1.21-3.17.3-.25.98-.71,1.43-.76.82-.09,1.65,1.02,1.52,1.74-.03.2-.21.43-.31.58-.06.08-.14.19-.22.27-.08.07.09.18.09.18.12,0,.38.04.46-.04.25-.28.6-.63.79-.84.28-.3.71-.41.76-.55.01-.03-.02-.1,0-.13-.18-.14-.45-.27-.58-.45-.17-.23-.24-.49-.4-.72-.47-.66-1.38-1.23-2.55-1.12-1.63.16-2.68.96-3.44,1.88-.63.74-1.12,2.15-.45,3.22.25.38.54.92,1.65,1.16Z"/>
          <path class="cls-4" d="M59.23,119.92c.43.23,1.06.69,1.13,1.13.05.33-.05.57-.09.85.04,0,.09.06.18.04.05-.01.32-.17.36-.22.11-.16.07-.33.13-.54.06-.19.22-.55.31-.76.03-.08.16-.19.18-.27.01-.05-.02-.13,0-.18-1.18-.44-2.12-1.03-3.17-1.61-.29-.16-1-.76-1.39-.72-.06,0-.3.13-.31.18-.02.05.02.13,0,.18.22.21.45.44.31.85-.13.34-2.55,4.58-2.77,4.65-.23.07-.63.05-.71.27-.02.05.03.09,0,.13.89.54,1.81,1.07,2.73,1.56.38.2.77.38,1.12.63.08.05.35.38.4.4.07.02.41.02.42-.06.08-.31.65-1.04.99-1.37,0,0,.37-.36.37-.36.03-.11.01-.19-.04-.22-.29-.1-.6.23-.98.45-.76.41-1.53-.08-2.01-.45-.23-.18-.48-.45-.27-.85.31-.58.89-1.54,1.07-1.79.39.11,1.17.48,1.25.85.07.31-.07.56-.13.8.22-.01.43.02.58-.18.11-.15.14-.36.22-.54.09-.18.2-.4.31-.58.05-.08.2-.17.22-.27.01-.05-.02-.13,0-.18-.23-.06-.59-.06-.85-.13-.33-.09-.8-.44-1.07-.63.17-.54.51-1.07.8-1.49.16.08.54.31.7.4Z"/>
          <path class="cls-4" d="M47.11,111.59c.37.32.89.9.86,1.35-.02.34-.17.54-.27.81.04,0,.07.08.17.08.06,0,.35-.1.4-.14.14-.13.14-.31.25-.49.1-.17.33-.49.47-.67.05-.07.19-.15.23-.22.02-.05.01-.13.04-.17-1.06-.68-1.85-1.46-2.75-2.26-.24-.22-.81-.95-1.2-1-.06,0-.32.06-.34.11-.03.04,0,.13-.04.17.17.25.34.53.12.9-.2.3-3.48,3.92-3.71,3.94-.24.01-.63-.08-.76.11-.03.04,0,.1-.03.13.75.72,1.54,1.44,2.32,2.12.33.28.67.54.95.85.06.07.25.45.31.48.06.04.39.1.43.04.14-.29.86-.87,1.27-1.13,0,0,.44-.27.44-.27.06-.1.05-.19,0-.23-.26-.16-.63.1-1.06.22-.83.24-1.47-.41-1.87-.87-.19-.22-.37-.54-.08-.89.43-.5,1.21-1.31,1.43-1.51.35.19,1.04.72,1.04,1.1,0,.32-.19.53-.31.76.22.03.42.12.61-.05.14-.13.21-.33.33-.48.13-.16.28-.35.43-.5.07-.07.23-.12.28-.21.02-.05,0-.13.04-.17-.21-.11-.56-.19-.8-.31-.3-.16-.69-.61-.91-.84.28-.49.73-.93,1.11-1.28.14.11.46.42.6.54Z"/>
          <path class="cls-4" d="M65.41,129.62c.14-.13.38-.78.49-.98.13-.23.31-.48.46-.69.02-.03.38-.55.38-.55.03-.06-.32-.1-.47-.02-.21.14-.17.29-.55.59-.76.61-2.21-.02-2.75-.45.6-.58,3.78-3.33,5.16-4.29.03-.08-.02-.18,0-.27-.06-.04-.04-.1-.09-.13-.16-.11-.34-.07-.54-.13-.22-.08-.48-.21-.71-.31-.74-.31-1.48-.57-2.23-.89-.19-.08-.63-.45-.8-.45-.09,0-.27.12-.31.18-.02.03,0,.1,0,.13-.02.07-.21.48-.27.58-.17.31-.38.63-.58.94-.03.04-.16.13-.18.18-.02.05.02.13,0,.18.12,0,.23.06.4,0,.16-.06.21-.23.31-.36.23-.27.59-.58,1.16-.49.43.06,1.12.38,1.5.56-1.5,1.41-3.69,3.2-5.39,4.45.06.16.01.27.13.36.12.08.24.04.4.09.29.09.57.2.89.31.23.08.53.27.76.36.51.19.97.32,1.47.54.24.1.52.26.76.4.05.03.13.14.18.18.06.04.3.09.4,0Z"/>
          <path class="cls-4" d="M91.64,128.89c.4-.05.99-.23,1.34-.38.94-.42,1.84-1.66,1.47-3.08-.17-.69-.74-1.3-1.43-1.47-1.03-.26-2.49.55-2.95-.31-.06-.12-.17-.35-.13-.58.08-.48,1.16-.9,1.83-.67.35.12.57.48.76.76,0,0,.12,0,.13,0,.15-.31.18-.48,0-.8-.12-.21-.31-.44-.4-.67-.05-.12-.22-.76-.27-.8-.03-.03-.15-.01-.18-.04-.16.11-.35.28-.54.36-.56.21-1.09.25-1.56.54-.41.25-.85.83-1.01,1.32-.2.62-.09,1.28.16,1.77.2.4.51.78.94.94,1.02.39,2.91-.45,3.26.67.08.27,0,.49-.09.67-.17.32-.37.43-.76.54-1.16.32-1.66-.32-2.14-.94,0,0-.13.04-.13.04-.01,0-.15.45-.13.49l.09.09c.12.33.29.61.45.94.16.34.33.75.49,1.12.09-.05.13,0,.22-.05.13-.06.23-.38.58-.42Z"/>
          <path class="cls-4" d="M106.88,114.47c.37-.08.74.03.98.13.5.2,2.27,1.6,2.82,1.21.12-.09.17-.34.22-.49.02.01.11,0,.13,0,.07.14.25.37.27.54.03.28-.19.93-.27,1.16-.66,1.87-3.22-.8-4.02-1.03-.23-.07-.54-.05-.63.13-.03.07-.09.2-.04.27.32.49,1.44,1.75,1.63,1.9.19.15.39.19.5.12.11-.07.34-.23.37-.15.04.16.24.43.04.54-.49.25-1.25.8-1.47,1.07-.14.16-.27.38-.45.49-.11.07-.17.03-.31.09-.03-.12-.09-.28-.09-.4,0-.17.12-.32.04-.54-.04-.13-.19-.25-.27-.36-.63-.89-2.82-3.64-3.26-3.93-.24-.18-.51.07-.72.13l-.05-.13s-.07-.25-.04-.36c.01-.05.1-.1.13-.13.25-.23.58-.37.85-.58.25-.2.47-.46.72-.67.15-.12.3-.24.45-.36,0,.02.16.06.18.09.15.29-.09.5-.04.8.02.17.33.56.45.72.03.04.4.49.4.49.05.02.13-.02.18,0,.1-.54.14-1.73.1-2.09-.02-.19-.27-.04-.46-.1,0-.1-.1-.33-.04-.49.03-.09,1.05-.8,1.21-.94.17-.15.33-.29.49-.45,0,0,.13,0,.13,0,.02.14.08.27.04.45-.03.18-.34.56-.4.8-.17.64-.23,1.57-.23,2.33.03-.09.3-.25.46-.28Z"/>
          <path class="cls-4" d="M113.94,114.25c-.11.14-.19.28-.31.4-.12-.11-.06.07-.18-.13-.14-.25-.01-.77-.13-1.07-.22-.56-2.09-4.39-2.38-4.95-.12-.22-.35-.41-.47-.47-.06-.03-.09-.36-.01-.39.03-.01.36-.41.4-.49.11-.23.04-.46.13-.72,0-.01.13-.08.13-.09.33.11.46.3.71.45.25.15.56.29.8.4,1.32.59,2.63,1.16,3.93,1.74.66.29,1.15.43,1.97.22.1.47.09.59-.27.8-.4.22-1.43,1.3-1.74,1.74-.04-.04-.14-.01-.18-.04-.18-.16.02-.78-.18-1.03-.12-.15-.52-.31-.72-.4-.18-.09-.52-.32-.8-.42-.22.2-1.25,1.18-1.39,1.32-.13.13-.09.2,0,.36.09.16.38.83.72,1.16.36.36.76.12,1.07-.09.12.27.23.54-.04.72-.3.18-.82.66-1.07.98ZM111.78,108.44l.94,1.97c.35-.22.93-.78,1.1-.98,0,0-1.77-.88-2.03-.98Z"/>
          <path class="cls-4" d="M81.29,124.89c.36-.32.97-.5,1.59-.54,2.09-.11,3.63,2.61,3.08,4.87-.22.91-.74,1.65-1.39,2.15-.31.24-.74.55-1.21.63-2.42.36-3.79-2.27-3.58-4.51.09-.96.69-1.9,1.5-2.59ZM83.77,130.47c1.77-.46.55-4.99-1.65-4.6-.13.02-.33.1-.42.17-.13.08-.26.2-.33.32-.23.36-.17.95-.09,1.39.19,1.04.47,1.84,1.16,2.38.2.16.74.5,1.34.35Z"/>
          <path class="cls-4" d="M71.92,124.33c.48-.08,1.09.08,1.63.38,1.83,1,1.72,4.12.07,5.76-.66.66-1.5,1.01-2.31,1.1-.39.04-.92.08-1.36-.1-2.25-.96-2.03-3.92-.67-5.72.58-.77,1.59-1.25,2.64-1.42ZM71.1,130.39c1.74.54,3.09-3.96,1.01-4.79-.12-.05-.34-.08-.45-.08-.15,0-.33.04-.46.1-.38.18-.64.72-.8,1.13-.38.99-.57,1.81-.26,2.64.09.24.36.82.96,1Z"/>
          <path class="cls-4" d="M98.54,125.53c-.14.1-.25.22-.41.3-.09-.14-.08.05-.14-.18-.07-.28.19-.74.16-1.07-.07-.6-.84-4.79-.97-5.41-.05-.25-.23-.49-.33-.58-.05-.04,0-.37.09-.38.04,0,.46-.3.52-.37.16-.19.17-.43.32-.65,0-.01.14-.04.15-.05.29.19.36.41.57.62.2.21.46.43.67.6,1.11.92,2.22,1.82,3.32,2.73.55.46.99.72,1.84.74-.03.48-.07.6-.47.7-.45.11-1.72.87-2.14,1.21-.03-.05-.13-.05-.16-.09-.13-.2.22-.74.1-1.04-.07-.18-.42-.43-.58-.58-.15-.14-.42-.44-.66-.62-.27.13-1.52.81-1.69.9-.17.09-.14.17-.1.34.04.17.15.9.38,1.31.25.44.7.32,1.06.2.04.29.08.59-.23.68-.34.09-.96.42-1.3.66ZM98.01,119.35l.38,2.15c.39-.12,1.1-.51,1.32-.65,0,0-1.47-1.32-1.7-1.49Z"/>
          <path class="cls-4" d="M48.98,119.59c-.11.16-.11.28-.13.45-.05.4.23.34.29.56.01.05-.02.13,0,.18-.17.07-.34.16-.5.08-.03-.01-.14-.1-.17-.12-.21-.16-.39-.34-.58-.49-.47-.37-1.06-.6-1.43-1.07.09-.07.24-.2.36-.22.2-.04.38.02.54-.04.27-.11,2.93-3.89,3.08-4.11.16-.22.27-.42.22-.63-.03-.13-.2-.26-.27-.36.02-.03,0-.14,0-.18.08-.03.22-.13.31-.13.31-.02,1.12.84,1.39,1.03.31.22,1.32.83,1.56.96.25.13.56.47.67.6.75.9.09,2.2-.76,2.55-.44.17-.98.09-1.43.09.05.24.12.42.09.72-.04.48-.72,1.97-.31,2.37.13.12.46.15.67.18,0,.02-.01.17,0,.18-.09.06-.38.34-.45.36-.22.06-1.26.1-1.52.04-.21-.04-.35-.24-.45-.4-.65-1.12,1.27-3.58.36-4.16-.15-.09-.16-.02-.31-.04-.16.21-1.12,1.47-1.23,1.63ZM52.02,115.59c-.24.3-.49.57-.71.89-.05.07-.23.3-.25.4-.06.33.11.39.26.51.16.14.35.33.64.34.54.01,1.13-.61,1.03-1.25-.03-.16-.18-.3-.27-.4-.24-.26-.48-.36-.69-.49Z"/>
        </g>
      </g>
      <g>
        <g>
          <path class="cls-5" d="M39.62,11.51c-.54-1.88-.09-4.74.72-6.44.8,1.7,3.22,3.93,6.26,4.38,0-3.75,2.32-5.81,5.01-6.88-1.45,5.04,1.87,5.31,1.23,10.56-1.86,1.23-3.09,3.49-2.93,6.6,0,.07.01.14.02.21-1.61,1.13-3.28,3.21-3.33,6-.04,2.64.76,3.99,1.34,5.03.53.95,1.82,2.47,3.06,3.45-1.58.08-3.18.05-4.8-.08-3.82-.97-5.65-4.55-5.81-6.47-.23-2.76.63-3.75.67-6.44.06-3.89-3.62-5.01-4.6-5.05-.89-.04-2.73-.04-4.33,1.65-.36-5.99,4.56-7.24,7.51-6.52Z"/>
          <path class="cls-5" d="M23.09,46.37c-4.07,3.04-4.65,6.93-4.65,9.61s1.3,5.99,2.95,8c-.13-5.54,3.1-9.31,5.72-10.55,2.33-1.11,4.4-.9,5.69-.34v-11.21c-1.13.71-2.61,1.27-5.25,1.27-5.45,0-8.54-4.07-8.54-7.91,0-1.83,1.03-4.38,3.89-4.38s3.71,2.68,3.71,3.53-.13,3.04-2.06,4.33c4.16-.04,7.02-3.53,7.33-8.04.55.2,1.18.46,1.88.49,2.39.1,4.18-1.69,4.69-3.53.12-.44.09-1.38.13-1.83-1.88,1.25-4.65.98-5.99-.45-1.34-1.43-2.86-3.74-7.2-3.66-2.68.04-6.75,2.28-8.67,5.23-1.92,2.95-2.23,5.54-2.23,7.55,0,3.98,3.04,9.79,8.58,11.89Z"/>
          <path class="cls-5" d="M21.74,82.21c-.85,1.16-1.92,1.97-4.25,1.97,1.47,1.12,2.86,1.39,3.71,1.39,1.21,0,3.31-.31,4.78-2.19,1.61,2.28.76,5.99-1.47,8.4,5-1.13,7.67-5.37,8.44-11.23-.13-1.3-.2-2.62-.2-3.95l.04-21.78c-2.4,1.12-4.19,3.6-4.35,6.39-.17,2.85.45,5.45,1.83,7.55-.58-.31-1.25-.58-2.82-.58-1.88,0-3.4,1.12-4.16,1.97-.76.85-1.27,2.47-1.07,3.49.31,1.61.63,2.59.63,4.02s-.1,3.16-1.12,4.56Z"/>
        </g>
        <g>
          <path class="cls-5" d="M114.8,11.51c.54-1.88.09-4.74-.71-6.44-.8,1.7-3.22,3.93-6.26,4.38,0-3.75-2.32-5.81-5.01-6.88,1.45,5.04-1.87,5.31-1.23,10.56,1.86,1.23,3.09,3.49,2.93,6.6,0,.07-.01.14-.02.21,1.61,1.13,3.28,3.21,3.33,6,.04,2.64-.76,3.99-1.34,5.03-.53.95-1.82,2.47-3.06,3.45,1.58.08,3.18.05,4.8-.08,3.82-.97,5.65-4.55,5.81-6.47.23-2.76-.63-3.75-.67-6.44-.06-3.89,3.62-5.01,4.6-5.05.89-.04,2.73-.04,4.34,1.65.36-5.99-4.56-7.24-7.51-6.52Z"/>
          <path class="cls-5" d="M132.68,82.21c.85,1.16,1.92,1.97,4.25,1.97-1.47,1.12-2.86,1.39-3.71,1.39-1.21,0-3.31-.31-4.78-2.19-1.61,2.28-.76,5.99,1.47,8.4-5-1.13-7.67-5.37-8.44-11.23.13-1.3.2-2.62.2-3.95l-.04-21.78c2.4,1.12,4.19,3.6,4.35,6.39.17,2.85-.45,5.45-1.83,7.55.58-.31,1.25-.58,2.82-.58,1.88,0,3.4,1.12,4.16,1.97.76.85,1.27,2.47,1.07,3.49-.31,1.61-.63,2.59-.63,4.02s.1,3.16,1.12,4.56Z"/>
          <path class="cls-5" d="M131.34,46.37c4.07,3.04,4.65,6.93,4.65,9.61s-1.3,5.99-2.95,8c.13-5.54-3.1-9.31-5.72-10.55-2.33-1.11-4.4-.9-5.69-.34v-11.21c1.13.71,2.61,1.27,5.25,1.27,5.45,0,8.54-4.07,8.54-7.91,0-1.83-1.03-4.38-3.89-4.38s-3.71,2.68-3.71,3.53.13,3.04,2.06,4.33c-4.16-.04-7.02-3.53-7.33-8.04-.55.2-1.18.46-1.88.49-2.39.1-4.18-1.69-4.69-3.53-.12-.44-.09-1.38-.13-1.83,1.88,1.25,4.65.98,5.99-.45,1.34-1.43,2.86-3.74,7.2-3.66,2.68.04,6.75,2.28,8.67,5.23,1.92,2.95,2.23,5.54,2.23,7.55,0,3.98-3.04,9.79-8.58,11.89Z"/>
        </g>
      </g>
      <g>
        <path class="cls-5" d="M62.14,39.89c4.11-2.32,10.23-3.44,15.06-3.44.02,0,.03,0,.05,0v85.31c-5.75-.82-20.27-6.51-28.6-14.97-4.67-4.75-13.68-15.26-13.68-29.94v-42.37c6.87,2.31,17.16,3.2,24.98.46.85,1.52,1.61,3.18,2.19,4.95Z"/>
        <g>
          <path class="cls-4" d="M37.21,72.29h37.83v46.64c-1.6-.36-6.52-2.13-7.6-2.76v-41.52s-7.56,0-7.56,0v37.85c-2.15-.8-6.76-4.47-7.56-5.27v-32.58h-7.56v23.89c-3.35-4.38-5.92-10.64-6.76-14.5-.52-2.39-.8-4.51-.8-5.5v-6.26Z"/>
          <g>
            <path class="cls-8" d="M97.94,99.12c0-.21.27-.6-.16-1.27-.42-.67-4.42-8.18-4.42-8.18l2.41-.02c-.85-1.77-.05-4,1.7-5.63l-6.12.02c-1.92,0-2.88.89-3.24,1.43s-1.07,2.1-.31,3.49c.76,1.39,2.95,5.5,2.95,5.5l-4.51.09-.5-.95c.25-.14.47-.26.62-.34.98-.56,1.05-1.68.76-2.21l-.92-1.59c.02.6-.34,1.3-.89,1.54,0,0-.29.17-.72.41l-.4-.75c-.29-.67-.85-.94-1.41-.98-.25-.02-.63.09-.85.2-.22.11-1.32.78-1.32.78.58.09.96.27,1.21.69.09.16.36.68.65,1.26-.75.42-1.41.8-1.65.93-.67.36-.92,1.43-.63,2.01l.85,1.45c.11-.76.51-1.12.94-1.34,0,0,.01,0,.02-.01l1.08,1.91c.38.74,1.05,1.36,1.77,1.36h3.62c.27,0,.53.06.58.27.18.78.56,1.25,1.23,1.25l1.45.02c-.63-.54-.6-1.1-.65-1.56h.87c.22,0,.4.13.49.45.09.31.38,1.07,1.12,1.07h1.56c-.58-.51-.58-1.07-.54-1.5l.87-.02c.27,0,.42.13.49.38.07.25.29,1.09,1.12,1.09s1.54-.02,1.54-.02c-.45-.34-.65-.76-.65-1.23Z"/>
            <polygon class="cls-8" points="82.93 79.79 82.17 80.69 84.69 82.45 87.22 80.73 86.34 79.77 82.93 79.79"/>
            <path class="cls-8" d="M81.63,67.86c1.79-1.34,3.9-1.27,5.27-.4l-.85.94.89,1.07-.98.94.89,1.12h-5.18l-.04-3.66Z"/>
            <path class="cls-8" d="M84.62,65.18c.98,0,2.37.4,3.08,1.07l1.74-1.88-1.79-2.01c-.63.63-2.06.98-3.04.98s-2.41-.36-3.04-.98l-1.79,2.01,1.74,1.88c.71-.67,2.1-1.07,3.08-1.07Z"/>
            <polygon class="cls-8" points="84.58 41.67 87.35 45.96 87.35 60.67 85.43 61.65 85.38 48.47 84.58 47.31 83.77 48.47 83.73 61.65 81.81 60.67 81.81 45.96 84.58 41.67"/>
            <path class="cls-8" d="M107.57,58.92c.09-.71.87-1.65.49-2.28-.1-.16-.47-.41-.67-.45-.45-.09-1.01,0-1.47,0-.84,0-1.71-.04-2.55,0-1.53.07-3.19.75-4.42,1.43-2.77,1.52-4.42,3.8-5.23,7.33-.27,1.17-.28,2.67-.13,3.98,1.97-.8,4.92-4.29,5.32-5.85h1.7c-.76,2.64-3.65,5.65-5.63,7.11-2.68,1.97-5.27,2.86-8.22,3.04-1.34.08-2.92-.05-4.13.09.22.27.87,1.03,1.05,1.18-.31.34-.76.85-1.05,1.23.29.38.87.98,1.05,1.16-.2.31-.78.89-1.05,1.32,1.99,0,3.42-.02,5.3-.02,3.56,0,6.97-1.76,8.84-2.94.36.1.35.21.55.44.23.26.2.63.19.85-.01.22.01.3.17.19.16-.11,1.02-.89,1.21-1.17.19-.28.16-.78.1-.93-.06-.15-.18-.37-.25-.5-.04-.08-.06-.15-.08-.26.33-.27.69-.58,1.07-.93.05.04.12.12.28.3.32.38.26.63.25.84-.01.21.08.29.25.15.17-.15.83-.79,1.05-1.06.22-.27.18-.72.13-.92-.04-.17-.17-.49-.39-.79.34-.33.67-.67.99-1.01.68.38.75.92.77,1.15.02.25.09.17.21.04,0,0,.68-.77.91-1.28.08-.19.1-.37.07-.61-.03-.21-.28-.58-.59-.88.3-.38.56-.75.75-1.09.54.58.83,1.1.94,1.52.11.42.3,1.03-.07,1.7-.75,1.34-5.34,6.12-8.2,7.46.76,1.34,2.46,4.45,3.49,6.23-1.94,0-3.24,2.07-3.31,3.31-.04.69.22,1.74.71,2.57.31.52,3.49,6.39,3.49,6.39.49,1.12.27,1.61-.18,2.15-.71.85-3.89,3.89-4.69,4.65l-.69-.65c-.4-.36-1.41-.29-1.68-.07-.27.22-1.36,1.27-1.36,1.27-.22.2-.07.22.18.2.25-.02.72-.07.98.16.4.34.89.89.89.89,0,0-.85.8-1.01,1.09-.34.57-.11,1.44.22,1.83.13.16.94.96,1.21,1.21-.13-.65,0-1.12.25-1.34.25-.22,1.1-1.1,1.1-1.1,0,0,1.08,1.2,1.34,1.45.48.48,1.6.58,2.23.04.29-.25.83-.95.98-1.08.16-.13.12-.25-.03-.23-.71.09-1.06-.1-1.42-.42.08-.09,1.22-1.22,2.64-2.63.22-.22.54.06.87.21.34.16.89.02,1.18-.25,0,0,.58-.58.74-.74.16-.16.25-.22.18-.29-.07-.07-.2-.07-.51-.07-.24,0-.51-.23-.82-.49.22-.22.44-.43.65-.64h0c.35-.35.83-.02,1.1.12.25.13.84-.03,1.13-.3,0,0,.58-.58.74-.74.16-.16.25-.22.18-.29-.07-.07-.2-.07-.51-.07-.24,0-.51-.23-.82-.49.29-.28.55-.54.79-.77.25-.15.65.01.84.12.41.24.96.07,1.25-.2,0,0,.94-.89,1.05-.98.11-.09.11-.27-.04-.25-.16.02-.18.02-.49.02s-.78-.25-.89-.45c-.72-1.32-3.26-5.85-3.62-6.66-.09-.2-.06-.45,0-.67.08-.28.41-.67.67-.76.18-.06.35-.03.58-.04,1.19-.09,2.75-.07,3.84-.18.88-.09,2.85-1.56,3.13-2.73.42-1.77.29-10.82.26-12.42,0-.44.3-.68.56-.87.31-.22.76-.22,1.34-.61.45-.3.88-.87.88-1.63v-1.72c0-.32-.23-.25-.32-.1-.09.14-.21.22-.26.28-.22.28-.88.42-1.28.49-.29.05-.68.28-.93.61,0-.52,0-1.04,0-1.53.05-.53.29-.81.58-1.01.31-.22.76-.22,1.34-.61.45-.3.88-.87.88-1.63v-1.72c0-.32-.21-.21-.3-.07-.09.14-.19.23-.23.29-.28.35-.97.33-1.37.4-.31.05-.67.27-.9.61,0-.55,0-.95,0-1.14,0-.72.21-1,.4-1.23.29-.34.64-.52,1.03-.54.56-.02.96-.65,1.12-.89.16-.25.27-.56.25-1.16v-1.39c0-.29-.17-.22-.28-.07-.11.16-.59.49-.9.54-.93.13-1.93-.12-2.86,0-1.12.14-2.08.99-2.41,1.92-.15.4-.2.98-.18,1.3.08,1.21,0,2.45,0,3.66l.04,12.87c0,.41.04.86-.09,1.16,0,.01-.23.44-.24.45-.29.44-.8.36-1.46.04-.27-.13-.57-.55-.63-.89l-.04-21.27Z"/>
            <path class="cls-8" d="M92.6,52.27c-1.1.07-2.5-.2-3.13-.63-.55-.37-1.14-1.08-.87-1.97.07-.16.2-.2.29-.07.25.38.69.58.94.6.71.06,1.48,0,2.23,0,.24,0,.64-.1.76.05.11.13.4.65.47.76.07.11.07.22-.04.38-.11.16-.36.56-.65.87Z"/>
            <path class="cls-8" d="M115.71,44c-.29.22-.56.51-.94.63-.45.14-.91.09-1.42.19-.67.13-1.21.65-1.51,1.23-.18-.16-.6-.55-.84-.68.31-.72,1.14-1.32,1.64-1.65.47-.31,1.03-.22,1.54-.25.79-.04,1.51-.61,1.7-1.3.09-.34.14-1-.22-.72-.05.04-.21.15-.27.18-.25.1-.54.23-.8.27-.49.06-.94-.09-1.3-.13-.47-.06-1.02-.03-1.43.04-.45.08-.96.25-1.34.45-.19.1-.44.31-.58.45l-5.59.04c-.56-.96-1.49-1.12-2.18-1.09-.69.02-1.54.59-1.71,1.2-.05.17.02.23.2.23.44,0,.95.37.95.99v1.79c-1.57,0-3.2.01-4.82.01-.98,0-1.97.08-2.59-.27-.51-.29-.83-.6-.89-1.12,0-.05-.14,0-.18-.04-.87.4-1.94,1.43-1.88,2.66.07,1.39,1.34,2.37,2.77,2.44.1.06.87,1.44.96,1.63.36-.42.74-1.05,1.05-1.45.45-.02,1.88-.04,1.88-.04.12.19.73,1.23.85,1.43.4-.49.74-.94,1.12-1.43.81-.06,2.63.02,3.44-.04.29-.02.5.02.76-.04.39-.1.83-.35,1.12-.58.25-.2.37-.65.76-.63.47.02.81-.09,1.16.49.27.45.4.72.25,1.39-.16.67-.36,1.25-1.05,1.52-.87.34-3.06.07-4.07.13-.99.07-3.41.02-4.47.02-.13-.31-.38-.6-.63-.92-.2.18-.6.88-.8.94-.38.1-.87-.04-1.21.04-1.33.35-2.76,1.92-2.01,3.62.23.53.73.95,1.3,1.16.56.2.58-.08.58-.31,0-.76.76-1.39,1.43-1.65.55-.22,1.36-.16,2.15-.18,1.61-.04,7.78-.1,9.56-.09.21,0,.58-.09.99-.23.66.27.94.64,1.08.92.18.34.34.8.2,1.27-.14.47.14.34.29.25.54-.31.89-.89.85-1.83-.02-.42-.3-.98-.72-1.44.14-.1.28-.2.39-.3.1-.1.2-.19.29-.29.45.25.83.66.98.87.16.22.46,1.03.45,1.32,0,.29.18.27.36.02.22-.29.4-.78.36-1.61-.02-.4-.52-1.54-1.21-2.03.12-.26.2-.52.27-.76.98.27,1.59,1.27,1.68,1.7.05.25.11.36.18.18.09-.21.14-.37.18-.67.19-1.42-.43-3.16-1.45-4.2.29-.02.87-.18,1.14-.36.61-.41,1.32-1.21,1.43-2.1.05-.38,0-.78,0-1.16,0-.1-.07-.17-.18-.09ZM104.96,46.72c-.18-.45-1.01-1.81-1.34-2.46.45.18,3.13.65,4.42.8-.74.34-2.48,1.32-3.08,1.65Z"/>
            <path class="cls-8" d="M88.38,67.59l.04,3.58c1.34-.13,2.95-.8,3.4-1.25-.09-.63-.13-1.92-.04-2.32h-3.4Z"/>
          </g>
          <g>
            <g>
              <path class="cls-4" d="M58.52,40.24l-2.99,2.56-2.99-2.56-2.9,5.25,5.9,8.54,5.9-8.54-2.9-5.25ZM55.53,48.56l-1.01,1.43-3.28-4.69,1.65-2.89,2.64,2.27,2.64-2.27,1.65,2.89-3.28,4.69-1.01-1.43Z"/>
              <path class="cls-4" d="M42.34,47.68l1.51,3.64-3.36,2.06,4.1,4.39,9.94-2.97-6.3-8.25-5.89,1.14ZM49.32,53.1l1.05,1.4-5.48,1.67-2.24-2.47,2.97-1.81-1.34-3.21,3.26-.68,3.45,4.57-1.67.51Z"/>
              <path class="cls-4" d="M62.83,46.54l-6.29,8.25,9.94,2.97,4.1-4.39-3.36-2.06,1.51-3.64-5.89-1.14ZM60.07,52.59l3.45-4.57,3.26.68-1.34,3.21,2.97,1.81-2.24,2.47-5.48-1.67,1.05-1.4-1.67-.51Z"/>
              <path class="cls-4" d="M44.36,65.39l3.93-.31.92,3.83,5.44-2.54.24-10.37-9.79,3.44-.74,5.96ZM51.67,60.43l1.65-.57-.1,5.73-3.04,1.37-.8-3.38-3.47.29.36-3.31,5.42-1.87-.03,1.75Z"/>
              <path class="cls-4" d="M61.83,68.89l.92-3.83,3.93.31-.74-5.96-9.79-3.44.24,10.37,5.44,2.54ZM59.37,60.4l-.03-1.75,5.42,1.87.36,3.31-3.47-.28-.8,3.38-3.04-1.37-.1-5.73,1.65.57Z"/>
            </g>
            <g>
              <polygon class="cls-8" points="55.53 48.56 54.52 49.99 51.24 45.29 52.89 42.4 55.53 44.67 58.17 42.4 59.82 45.29 56.54 49.99 55.53 48.56"/>
              <polygon class="cls-8" points="49.32 53.1 50.37 54.5 44.89 56.17 42.65 53.71 45.62 51.9 44.28 48.69 47.54 48.01 50.99 52.59 49.32 53.1"/>
              <polygon class="cls-8" points="61.74 53.1 60.69 54.5 66.17 56.17 68.41 53.71 65.44 51.9 66.78 48.69 63.52 48.01 60.07 52.59 61.74 53.1"/>
              <polygon class="cls-8" points="51.67 60.43 53.32 59.86 53.22 65.59 50.18 66.96 49.38 63.57 45.92 63.86 46.28 60.54 51.7 58.68 51.67 60.43"/>
              <polygon class="cls-8" points="59.37 60.4 59.34 58.65 64.76 60.52 65.12 63.83 61.65 63.55 60.85 66.93 57.81 65.56 57.71 59.84 59.37 60.4"/>
            </g>
          </g>
        </g>
      </g>
    </g>
  </g>
</svg>