<?xml version="1.0" encoding="UTF-8"?>
<svg id="_レイヤー_2" data-name="レイヤー 2" xmlns="http://www.w3.org/2000/svg" xmlns:xlink="http://www.w3.org/1999/xlink" viewBox="0 0 426.45 446.94">
  <defs>
    <style>
      .cls-1 {
        fill: none;
      }

      .cls-2 {
        fill: #221815;
      }

      .cls-3 {
        fill: #ffe100;
      }

      .cls-4 {
        fill: #002c59;
      }

      .cls-5 {
        fill: #c9b48c;
      }

      .cls-6 {
        fill: #fff;
      }

      .cls-7 {
        fill: #3b1e87;
      }

      .cls-8 {
        fill: #f39800;
      }

      .cls-9 {
        fill: #004630;
      }

      .cls-10 {
        clip-path: url(#clippath);
      }
    </style>
    <clipPath id="clippath">
      <path class="cls-1" d="M390.94,221.96c.07-12.49-5.34-22.53-15.6-29.03-.69-.44-1.39-.87-2.1-1.27-.77-.43-1.55-.85-2.34-1.22-11.64-5.67-23.69-4.48-34.15-2.53-5.83,1.33-9.45,2.5-11.74,3.46-1.46-1.46-3.03-2.84-4.74-4.07-.97-.67-6.37-4.22-14.15-5.76-.48-2.22-.98-3.96-1.26-4.88-.01-.05-.23-.79-.25-.84-1.29-3.88-4.26-11.63-9.68-19.89-6.8-10.34-15.02-17.72-24.49-21.96-15.15-6.65-29.01-3.93-42.64,8.55-6.19,6.4-11.53,14.18-15.87,23.1-.54,1.12-4.52,10.56-4.96,11.86-1.56,4.27-6.56,19.27-5.14,33.03.89,10.47,5.87,20.98,13,27.42.12.11.54.44.67.53,7.94,6.03,16.67,9.07,25.99,9.07,1.13,0,2.27-.05,3.42-.13,12.05-.93,21.23-4.61,21.51-4.72,1.18-.45,2.22-.93,3.33-1.4,3.32,4.59,7.6,8.48,12.65,11.05,6.29,3.17,11.23,4.29,15.81,4.29.67,0,1.31-.14,1.97-.18.25.54.51,1.09.92,1.73,9.83,18.52,24.19,24.87,33.26,24.47.58.03,1.17.05,1.76.05,15.78,0,33.72-11.18,44.46-28.18l.53-.88c3.53-5.77,8.87-14.5,9.85-31.66Z"/>
    </clipPath>
  </defs>
  <g id="_レイヤー_1-2" data-name="レイヤー 1">
    <g>
      <path class="cls-8" d="M426.45,229.42c0,117.76-84.41,196.43-213.22,196.43S0,347.19,0,229.42,95.46,16.2,213.22,16.2s213.22,95.46,213.22,213.23Z"/>
      <g>
        <g>
          <g>
            <path class="cls-2" d="M419.52,297.98c-1.3-.72-2.84-1.24-3.8-1.44-6.81-1.4-13.64-2.18-20.31-2.33-3.7-.09-7.16,0-10.49.16-1.79-20.11-8.09-39.31-19.27-58.27,1.62-9.72,2.12-22.36,2.53-32.66l.21-5.17c.84-18.75-5.88-43.26-14.38-52.46-2.12-2.29-5.31-4.04-8.12-4.45-21.54-3.21-49.87,5.35-81.73,24.67l-4-.59c-26.18-3.9-58.77-8.75-103.06,1.53-1.4.32-2.95.78-4.54,1.26-2.36.71-6.76,1.98-7.92,1.68-8.49-4.64-30.28-15.71-49.14-18.49-17.53-2.61-29.09.83-34.52,10.31-15.37,28.86-7.65,69.07-4.44,79.47-16,31.01-15.7,63.87-15.6,67.47-.01.84.03,1.72.04,2.58-.84.06-1.6.09-2.48.16-8.93.71-17.8,1.58-28.07,4.44-3.34.92-6.41,3.14-5.81,5.59.47,1.92,2.84,2.35,4.83,2.35,1.54,0,2.85-.25,2.89-.26,10.63-2.16,16.02-2.75,23.47-3.55l3.14-.34c.81-.09,1.61-.13,2.42-.2.81,9.68,2.85,19.99,6.48,30.18-4.44,1.67-9.56,3.89-15.71,7.07-.04.02-3.98,2.08-4.74,4.62-.23.78-.15,1.56.23,2.24.62,1.11,1.92,1.46,3.31,1.46,2.3,0,4.82-.95,4.86-.96,1.84-.81,3.57-1.58,5.21-2.31,3.72-1.66,6.96-3.05,10-4.23,3.93,8.9,9.09,17.53,15.73,25.34-6.84,3.95-15.09,9.33-24.43,16.6-1.94,1.52-3.19,3.45-3.41,5.32-.12,1.04.11,1.99.65,2.67.41.51,1.18.73,2.1.73,1.62,0,3.71-.68,5.14-1.7,10.26-7.27,19.16-12.89,26.15-17.04,7.51,7.31,16.5,13.67,27.22,18.49,35.27,15.84,67.77,19.4,108.95,20l4.04-.06,4.36.06c47.38-.69,84.81-7.46,111.26-20.11,15.35-7.34,27.56-17.24,36.7-29.54,7.64,2.61,16.9,6.62,25.83,12.66,1.14.79,3.45,2.16,5.5,2.16.92,0,1.79-.27,2.47-1.01.29-.3.62-.85.53-1.73-.17-1.86-2.23-4.46-3.56-5.43-9.12-6.66-18.29-10.95-26.01-13.74,5.25-8.67,9.17-18.37,11.72-29.12,5.64.9,12.22,2.35,19.44,4.77.04,0,2.17.71,4.26.71,1.57,0,3.11-.39,3.7-1.78.27-.63.26-1.33-.03-2.02-1.04-2.48-5.39-4.32-5.43-4.33-7.12-2.82-14.12-4.47-20.3-5.49,1.35-8.14,2-16.8,1.93-26,.02-1.57-.07-3.12-.1-4.67,2.94-.16,5.97-.26,9.16-.22,4.96.05,10.48.42,15.35.74,1.52.1,2.99.19,4.4.28,3.19.18,7.1-.41,7.57-2.73.17-.81-.11-2.03-2.36-3.29Z"/>
            <path class="cls-6" d="M354.53,236.11c1.76-9.13,2.29-22.42,2.71-33.11l.22-5.23c.76-16.97-5.67-38.25-11.49-44.55-.51-.56-1.4-.99-1.72-1.06-18.78-2.76-45.27,5.51-74.57,23.31-2.08,1.26-3.22,1.95-5.23,1.65l-5.91-.87c-25.25-3.76-56.69-8.45-98.98,1.36-1.2.27-2.52.67-3.88,1.08-5.38,1.6-11.46,3.43-16.3.79-7.98-4.35-28.38-14.75-45.5-17.28-12.59-1.85-20.45-.25-23.34,4.78-10.47,19.65-8.42,46.45-5.73,61.45.72-.85,1.42-1.62,2.07-2.27,2.63-2.63,5.32-3.6,7.16-2.33,1.91,1.32,1.15,4.66-.08,7.33-1.22,2.65-3.69,7.76-5.63,11.18,0,0,0,.01,0,.02-16.85,29.6-16.54,62.53-16.45,66.2,0,.74.03,1.51.04,2.26,9.31.02,14.99,1,17.89,1.74l.21.05c.06.01,7.62,1.41,7.18,5.04-.39,3.23-4.98,2.99-7.2,2.87l-.82-.06c-2.44-.37-8.96-1.24-16.86-1.4.79,8.79,2.71,18.09,6.01,27.25,4.52-1.04,7.71-1.28,9.83-1.4l.29-.02c2.79-.15,9.39-.25,9.73,3.07.3,2.87-4.87,4.24-7.11,4.7-1.04.21-2.16.36-3.41.53-1.75.24-3.74.52-6.09,1.02,3.77,8.24,8.76,16.15,15.14,23.24,6.63-3.22,10.45-4.4,10.53-4.42.06-.03,6.57-1.68,7.84,1.28,1.09,2.56-1.67,3.92-4.33,5.24-.85.42-1.74.86-2.55,1.35,0,0-.09.05-.26.13-1.03.51-2.75,1.4-5.02,2.62,6.17,5.56,13.32,10.43,21.71,14.2,33.54,15.07,64.84,18.46,104.46,19.04l4.04-.06,4.36.06c44.98-.67,81.88-7.25,106.54-19.04,12.36-5.91,22.38-13.54,30.17-22.9-3.71-.86-5.98-1.18-6.04-1.19-1.42-.14-5.85-1.17-7.34-3.19-.44-.61-.61-1.28-.47-1.94.75-3.62,7.32-2.9,10.09-2.43.35.03,3.75.38,9.03,1.65,5.2-7.94,9.03-16.98,11.53-27.1-2.33-.14-4.2-.17-5.48-.17-2.44.01-5.28-.05-5.28-.05-.74-.07-6.59-.76-6.82-3.68-.03-.39.05-1,.6-1.64,1.31-1.53,4.62-2.39,6.03-2.5l.31-.03c.84-.08,3.07-.3,5.31-.32h.61c1.62,0,3.81.05,6.42.22,1.29-7.68,1.93-15.9,1.86-24.74.01-1.24-.07-2.46-.09-3.69-6.85.85-12.47,1.97-16.3,2.74-1.96.39-3.38.68-4.24.78-1.38.2-2.56.3-3.55.3-2.31,0-3.58-.56-4-1.72-.29-.84-.23-1.74.18-2.59.74-1.52,2.53-2.81,5.19-3.72,2.09-.71,10.21-3.2,22.24-4.68-1.72-19.09-7.86-37.28-18.78-55.31-.7-1.16-.95-2.54-.69-3.87Z"/>
          </g>
          <g>
            <path class="cls-2" d="M115.31,317.79c-3.5,7.1-3.52,18.45,1.21,24.48,2.92,3.45,7.8,5.41,14.09,4.33,5.43-.94,8.52-5.9,9.55-9.85,2.23-8.84-.15-19.68-5.23-23.79-5.36-3.91-15.39-3.82-19.61,4.83Z"/>
            <path class="cls-2" d="M285.41,318.83c-3.5,7.1-3.52,18.45,1.21,24.48,2.92,3.45,7.8,5.41,14.09,4.33,5.43-.94,8.52-5.9,9.55-9.85,2.23-8.84-.14-19.68-5.23-23.79-5.36-3.91-15.39-3.82-19.61,4.83Z"/>
            <g>
              <path class="cls-2" d="M230.45,349.54c-1.17-4.16-4.32-7.43-8.44-8.76-7.86-2.55-15.82-1.48-20.77,2.79-5.16,4.56-5.41,12.65-2.18,16.84,2.99,3.88,7.72,5.9,14.48,6.2.31.01.63.02.94.02,5.41,0,10.44-1.98,13.31-5.27v-.02c2.83-3.28,3.82-7.69,2.67-11.81Z"/>
              <path class="cls-3" d="M219.91,347.29c-2.1-.68-4.24-1.01-6.25-1.01-3.19,0-6.05.84-7.91,2.45-2.45,2.17-2.29,6.18-1.26,7.52,1.68,2.18,4.74,3.34,9.35,3.54,4.27.17,7.46-1.38,8.79-2.9,1.34-1.56,1.79-3.55,1.24-5.49-.54-1.94-2.02-3.48-3.96-4.11Z"/>
            </g>
          </g>
        </g>
        <g>
          <g>
            <path class="cls-2" d="M174.31,407.62c-1.48-4.63-4.48-8.3-7.74-11.99-11.57-11.1-31.76-15.56-47.81-10.64-11.58,3.03-24.94,13.2-26.89,28.3-1.79,11.76,2.42,22.06,11.65,27.76,9.31,4.78,19.42,4.67,29.7-.17.87-.33,1.3-.24,3.57.72,1.42.61,3.17,1.34,5.28,1.7,3.57,1.03,6.76,1.46,9.57,1.46,7.46,0,12.38-3.02,15.44-6.04,7.97-7.84,10.94-20.61,7.23-31.1Z"/>
            <path class="cls-6" d="M163.98,411.21c-.03-.07-.05-.13-.07-.2-.83-2.65-3.05-5.31-5.25-7.82-8.41-8.05-24.41-11.47-36.92-7.67-8.41,2.21-17.79,9.67-19.04,19.29-.55,3.62-1.01,12.25,6.19,16.72,5.93,3.02,12.4,2.87,20-.7,1.9-.75,3.63-1.02,5.18-1.02,2.92,0,5.24.98,6.98,1.72,1.12.47,2.08.88,2.97,1.01.27.04.53.09.78.17,6.51,1.94,11.44,1.34,14.59-1.78,4.91-4.82,6.87-13.3,4.58-19.71Z"/>
          </g>
          <g>
            <path class="cls-2" d="M338.19,415.58c-1.98-15.21-15.33-25.39-26.69-28.34-16.27-4.97-36.47-.53-48.34,10.91-2.82,3.2-5.95,7-7.44,11.65-3.71,10.49-.74,23.27,7.22,31.1,3.07,3.03,8,6.05,15.45,6.05,2.81,0,5.99-.43,9.57-1.46,2.11-.36,3.86-1.1,5.28-1.7,2.29-.98,2.71-1.06,3.23-.88,10.61,5,20.73,5.1,30.44.1,8.83-5.48,13.04-15.78,11.27-27.43Z"/>
            <path class="cls-6" d="M327.35,417.11c-1.27-9.74-10.64-17.21-18.84-19.34-3.53-1.08-7.32-1.6-11.13-1.6-9.92,0-20.02,3.48-26.32,9.53-1.88,2.17-4.1,4.83-4.94,7.48-.02.07-.04.13-.07.2-2.29,6.41-.33,14.89,4.56,19.7,3.17,3.11,8.06,3.72,14.6,1.78.25-.07.51-.13.78-.17.89-.13,1.85-.53,2.97-1.01,2.67-1.14,6.69-2.83,11.82-.85,7.93,3.73,14.41,3.88,20.73.63,6.81-4.24,6.35-12.88,5.82-16.38Z"/>
          </g>
        </g>
        <g>
          <g class="cls-10">
            <rect class="cls-8" x="223.44" y="65.67" width="174.05" height="242.65" transform="translate(9.77 389.34) rotate(-65)"/>
            <rect class="cls-4" x="193.47" y="205.8" width="199.06" height="19.11" transform="translate(118.46 -103.65) rotate(25)"/>
          </g>
          <path class="cls-2" d="M390.94,221.96c.07-12.49-5.34-22.53-15.6-29.03-.69-.44-1.39-.87-2.1-1.27-.77-.43-1.55-.85-2.34-1.22-11.64-5.67-23.69-4.48-34.15-2.53-5.83,1.33-9.45,2.5-11.74,3.46-1.46-1.46-3.03-2.84-4.74-4.07-.97-.67-6.37-4.22-14.15-5.76-.48-2.22-.98-3.96-1.26-4.88-.01-.05-.23-.79-.25-.84-1.29-3.88-4.26-11.63-9.68-19.89-6.8-10.34-15.02-17.72-24.49-21.96-15.15-6.65-29.01-3.93-42.64,8.55-6.19,6.4-11.53,14.18-15.87,23.1-.54,1.12-4.52,10.56-4.96,11.86-1.56,4.27-6.56,19.27-5.14,33.03.89,10.47,5.87,20.98,13,27.42.12.11.54.44.67.53,7.94,6.03,16.67,9.07,25.99,9.07,1.13,0,2.27-.05,3.42-.13,12.05-.93,21.23-4.61,21.51-4.72,1.18-.45,2.22-.93,3.33-1.4,3.32,4.59,7.6,8.48,12.65,11.05,6.29,3.17,11.23,4.29,15.81,4.29.67,0,1.31-.14,1.97-.18.25.54.51,1.09.92,1.73,9.83,18.52,24.19,24.87,33.26,24.47.58.03,1.17.05,1.76.05,15.78,0,33.72-11.18,44.46-28.18l.53-.88c3.53-5.77,8.87-14.5,9.85-31.66ZM262.41,232.48c-.08.03-8.08,3.2-18.37,4-11.87.91-19.45-4.85-21.88-6.66-5-4.53-8.79-12.66-9.45-20.34-1.18-11.51,3.16-24.52,4.61-28.48.39-1.06,3.95-9.57,4.44-10.59,3.84-7.9,8.52-14.72,13.66-20.06,10.24-9.38,19.41-11.29,30.57-6.38,7.49,3.35,14.15,9.4,19.77,17.96,4.92,7.49,7.54,14.61,8.32,16.9l.28.99c.1.33.23.76.37,1.26-3.12.38-6.39,1.21-9.76,2.67-.86.37-1.62.86-2.44,1.29-1.82-1.99-4.05-3.77-6.3-5.03-6.73-3.79-14.11-3.84-20.25-.13-6.59,4-10.46,11.71-9.86,19.44.23,6.03,2.69,11.16,7.12,14.82,2.87,2.37,6.27,3.78,9.4,4.6,0,.53-.07,1.05-.05,1.58.03,3.82.78,7.6,2.04,11.21-.76.31-1.43.63-2.24.94ZM264.12,207.79c-1.43-.51-2.96-1.24-4.22-2.39-1.79-1.63-2.7-3.75-2.82-6.7-.29-3.87,1.51-7.58,4.61-9.47,2.17-1.32,4.47-1.53,7.04-.66,2.02.68,3.67,1.86,4.9,2.98-4.48,4.46-7.75,9.99-9.5,16.23ZM306.89,244.18c-7.63,2.01-11.53,2.43-19.54-1.62-8.18-4.17-13.72-13.13-13.78-22.46-.43-11.82,5.62-21.89,15.78-26.29,3.44-1.49,6.75-2.05,9.77-2.05,8.05,0,14.03,3.93,14.85,4.49,9.03,6.49,13.34,17.88,10.69,28.51-2.49,11.49-10.8,17.57-17.75,19.43ZM371.63,248.12l-.6,1.01c-8.69,13.74-23.71,23.26-36.56,22.57-6.52.09-15.93-5.16-23.02-17.53,4.14-1.36,8.46-3.71,12.35-7.14,1.96,1.41,4.3,2.61,7,3.2,1.02.22,2.2.38,3.49.38,3.21,0,7.18-.98,11.47-4.38,4.8-4.81,6.43-10.35,4.84-17.49-2.82-8.54-9.53-11.12-14.31-12.03-.27-5.63-1.81-11.14-4.48-16.14,2.05-.65,4.64-1.36,7.15-1.94,8.49-1.57,18.35-2.62,27.19,1.67.59.28,1.14.58,1.7.89.53.3,1.04.61,1.59.96,7.15,4.53,10.61,10.99,10.57,19.46-.82,14.14-4.94,20.88-8.38,26.5ZM335.17,227.69c2.53.61,4.13,1.69,4.89,3.93.65,2.96.13,4.69-1.56,6.43-1.71,1.35-3.44,1.83-5.18,1.51-.94-.17-1.76-.57-2.49-1,1.88-3.16,3.39-6.77,4.33-10.89Z"/>
        </g>
      </g>
    </g>
    <g>
      <path class="cls-6" d="M137.98,26.03c-.05-.31-.11-.59-.19-.84-.01-.04-.03-.07-.04-.11-.26-.83-.65-1.57-1.18-2.22-.05-.06-.1-.12-.15-.18,0,0-.02-.02-.02-.02-.06-.07-.12-.13-.16-.18l-.02-.02c-2.41-2.54-8.77-3.84-14.44,0-3.61-2.77-17.73-13.6-17.73-13.6-.45-.35-1.07-.39-1.57-.1l-11.8,6.79L78.73.53c-.27-.34-.68-.53-1.11-.53s-.84.2-1.11.53l-11.95,15.02-11.8-6.79c-.5-.29-1.11-.24-1.57.1l-17.73,13.6c-5.68-3.84-12.04-2.54-14.44,0,0,0-.02.02-.02.02-.05.05-.1.11-.16.18,0,0-.02.02-.02.02-.03.04-.07.08-.1.12-.02.02-.03.04-.05.06-.52.64-.92,1.39-1.18,2.22-.01.04-.03.07-.04.11-.08.25-.14.54-.19.84-1.77,1.95-1.97,5.18-.4,7.39.65.91,3.16,3.67,8.37.97.55-.28.85-.89.74-1.5-.1-.61-.59-1.08-1.2-1.16-1.85-.26-3.91-.92-4.25-1.38,0,0,0-.01-.01-.02-.17-.31-.59-1.56-.54-2.97.04-.03.06-.06.09-.07.19-.14,2.25-1.61,5.08-1.63,1.62-.01,2.97.51,4.01,1.54,1.64,1.63,2.47,4.46,2.47,8.41,0,10.65-7.09,14.81-7.39,14.98-.58.33-.86,1.03-.65,1.66l1.75,5.47s0,0,0,.01l.37,1.14s0,0,0,0l.05.15s.43,1.34.7,2.16c-.34.54-.61.97-.84,1.36,0,0,0,.01,0,.02-.48.77-.88,1.45-1.2,2,0,0,0,0,0,0,0,0,0,0,0,0,0,0,0,0,0,0t0,0c-.24.41-.41.71-.52.95-2.5,4.81-2.75,9.24,3.34,17.6,0,0,2.84,3.92,2.84,3.92l3.14,4.34c.96,10.17,4.42,19.59,10.28,28.09h-8.17c-.78,0-1.41.63-1.41,1.41v14.47c0,.78.63,1.41,1.41,1.41h25.84c1.98,1.34,3.85,2.48,5.5,3.4,5.97,3.36,10.37,4.83,10.55,4.89.29.1.6.1.89,0,.18-.06,4.58-1.53,10.55-4.89,1.65-.93,3.52-2.06,5.5-3.4h25.85c.78,0,1.41-.63,1.41-1.41v-14.47c0-.78-.63-1.41-1.41-1.41h-8.17c5.86-8.49,9.31-17.92,10.28-28.09.75-1.04,3.14-4.34,3.14-4.34l2.85-3.92c6.08-8.36,5.83-12.79,3.33-17.6-.12-.23-.29-.54-.52-.95t0,0s0,0,0,0c0,0,0,0,0,0,0,0,0,0,0,0-.32-.56-.72-1.23-1.2-2,0,0,0-.01,0-.02-.23-.39-.5-.82-.84-1.36.27-.83.7-2.16.7-2.16l.05-.15s0,0,0,0l.37-1.14s0,0,0-.01l1.75-5.47c.21-.64-.07-1.34-.66-1.67-.3-.17-7.38-4.33-7.38-14.98,0-3.95.83-6.78,2.47-8.41,1.04-1.03,2.39-1.55,4.01-1.54,2.81.02,4.87,1.48,5.08,1.63.02.02.05.04.08.07.05,1.41-.37,2.66-.54,2.97,0,0,0,.01-.01.02-.34.45-2.4,1.12-4.25,1.38-.61.08-1.1.55-1.2,1.16-.1.61.2,1.21.74,1.5,5.21,2.7,7.73-.06,8.37-.97,1.57-2.21,1.37-5.44-.4-7.39ZM32.9,72.1l-3.37-10.5c.96-1.52,2.09-3.26,3.37-5.19v15.69ZM122.34,72.1v-15.69c1.28,1.93,2.41,3.67,3.37,5.19l-3.37,10.5ZM33.13,90.54s0,0,0,0c0,0,0,0,0,0ZM138.05,26.53h0s0,.02,0,.04c0-.01,0-.02,0-.04ZM135.15,27.25s0,0,.02.01c0,0-.01,0-.02-.01Z"/>
      <g>
        <g>
          <path class="cls-6" d="M135.35,23.6c.07.08.14.17.2.25-1.57-.85-3.38-1.44-5.43-1.44-3.26,0-5.9.99-7.82,2.89-1.81,1.81-2.91,4.41-3.28,7.74-.07.72-.1,1.46-.1,2.24,0,3.22.7,6.64,2,10.13v.51c1.57,4.13,4.03,8.37,7.28,12.53l.37-1.16c-5.63-7.36-8.68-14.92-8.68-21.6,0-4.35,1.05-7.63,3.12-9.7,1.73-1.71,4.11-2.58,7.12-2.58,2.45,0,4.59.97,6.3,2.18-.21-.71-.55-1.39-1.08-2Z"/>
          <path class="cls-6" d="M119.56,90.63s-2.76,11.2-6.15,18.22c-2.91,6.08-4.54,8.91-15.23,18.13-10.44,8.97-19.37,12.03-20.57,12.42-1.2-.39-10.13-3.45-20.57-12.42-10.69-9.22-12.32-12.05-15.23-18.13-3.39-7.02-6.15-18.22-6.15-18.22-.95-3.42-7.71-23.88-8.87-27.35-.52.84-.91,1.51-1.2,2.01.15-.25.32-.54.52-.87,1.56,4.69,6.96,21.06,8.36,25.71,0,0,0,0,0,0,0,0,.64,2.35.64,2.35,1.2,4.42,3.18,11.76,5.8,17.21,2.99,6.23,4.64,9.12,15.49,18.46,11.35,9.8,21.13,12.65,21.21,12.67.08-.02,9.86-2.87,21.21-12.67,10.85-9.34,12.5-12.23,15.49-18.46,2.62-5.45,4.6-12.79,5.8-17.21,0,0,.64-2.35.64-2.35,0,0,0,0,0,0,1.39-4.65,6.79-21.01,8.36-25.71.2.33.38.62.52.87-.29-.5-.68-1.16-1.2-2.01-1.16,3.47-7.92,23.93-8.87,27.35Z"/>
          <path class="cls-6" d="M35.35,35.7c0,6.68-3.05,14.23-8.68,21.6l.37,1.16c3.25-4.16,5.71-8.4,7.28-12.53v-.51c1.3-3.49,2-6.91,2-10.13,0-.78-.03-1.53-.1-2.24-.37-3.34-1.47-5.93-3.28-7.74-1.92-1.9-4.56-2.89-7.82-2.89-2.04,0-3.86.6-5.43,1.44.06-.08.13-.17.2-.25-.53.6-.87,1.29-1.08,2,1.71-1.21,3.85-2.18,6.3-2.18,3.01,0,5.38.87,7.12,2.58,2.06,2.06,3.11,5.34,3.11,9.7Z"/>
          <path class="cls-6" d="M52.16,15.4l13.08,7.51,12.38-15.58,12.38,15.58,13.08-7.51,15.63,11.95c.34-.45.69-.88,1.07-1.28-3.02-2.32-15.66-12.01-16.8-12.89-1.36.79-13.3,7.66-13.3,7.66,0,0-10.3-12.94-12.05-15.14-1.75,2.2-12.05,15.14-12.05,15.14,0,0-11.94-6.87-13.3-7.66-1.15.88-13.78,10.57-16.8,12.89.37.41.73.83,1.07,1.28l15.63-11.95Z"/>
        </g>
        <g>
          <path class="cls-9" d="M136.43,25.6c-1.71-1.21-3.85-2.18-6.3-2.18-3.01,0-5.38.87-7.12,2.58-2.06,2.06-3.12,5.34-3.12,9.7,0,6.68,3.05,14.23,8.68,21.6,0,0,0,0,0,0l1.75-5.47s-8.11-4.54-8.11-16.22,6.5-11.38,7.9-11.37c3.52.03,5.96,1.94,5.96,1.94,0,0,.48.41.48.42.03.02.05.05.08.07,0,0,0,0,0,0-.04-.37-.1-.74-.21-1.07,0,0,0,0-.01,0Z"/>
          <path class="cls-9" d="M136.73,26.77s-.05-.06-.08-.09c0,0,0,0,0,0,.23,1.9-.33,3.73-.68,4.35-.78,1.49-5.3,2.1-5.3,2.1,6.98,3.62,8.98-3.62,6.06-6.37Z"/>
          <path class="cls-9" d="M129.64,65.29c-.15-.25-.32-.54-.52-.87-1.56,4.69-6.96,21.06-8.36,25.71,0,0,0,0,0,0-.09.31-.64,2.34-.64,2.34-1.2,4.42-3.18,11.76-5.8,17.21-2.99,6.23-4.64,9.12-15.49,18.46-11.35,9.8-21.13,12.65-21.21,12.67-.08-.02-9.86-2.87-21.21-12.67-10.85-9.34-12.5-12.23-15.49-18.46-2.62-5.45-4.6-12.79-5.8-17.21,0,0-.54-2.03-.64-2.34,0,0,0,0,0,0-1.39-4.65-6.79-21.01-8.36-25.71-.2.33-.38.62-.52.87-.23.39-.39.68-.49.88-2.21,4.25-2.62,8.11,3.22,16.13,2.47,3.41,4.55,6.27,6.2,8.56,0,0,0,0,0,.01.97,10.99,4.99,21.92,13.21,31.98,12.34,15.09,29.86,20.89,29.86,20.89,0,0,17.52-5.79,29.86-20.89,8.22-10.06,12.24-20.99,13.21-31.98,0,0,0,0,0-.01,1.65-2.29,3.73-5.15,6.2-8.56,5.84-8.02,5.43-11.88,3.22-16.13-.1-.2-.26-.49-.49-.88Z"/>
          <path class="cls-9" d="M18.67,26.61s.48-.41.48-.42c0,0,2.44-1.92,5.96-1.94,1.4,0,7.9.14,7.9,11.37s-8.11,16.22-8.11,16.22l1.75,5.47s0,0,0,0c5.63-7.36,8.68-14.92,8.68-21.6,0-4.35-1.05-7.63-3.11-9.7-1.73-1.71-4.11-2.58-7.12-2.58-2.45,0-4.59.97-6.3,2.18,0,0,0,0-.01,0-.1.33-.16.7-.21,1.07,0,0,0,0,0,0,.02-.02.05-.05.08-.07Z"/>
          <path class="cls-9" d="M19.28,31.03c-.35-.62-.91-2.45-.68-4.35,0,0,0,0,0,0-.03.03-.05.06-.08.09-2.91,2.74-.91,9.98,6.06,6.37,0,0-4.52-.62-5.3-2.1Z"/>
          <path class="cls-9" d="M32.94,25.3c1.81,1.81,2.91,4.41,3.28,7.74.07.72.1,1.46.1,2.24,0,3.22-.7,6.64-2,10.13v.51c-1.57,4.13-4.03,8.37-7.28,12.53,0,0,0,0,0,0l.05.15.9,2.79h0c.06-.1.12-.2.19-.3,1.44-2.29,3.44-5.36,6.14-9.34h0v29.37l-6.33-19.73s0,0,0,0c-.04.07-.08.13-.12.19-.4.62-.75,1.18-1.05,1.68,0,0,0,0,0,0,1.16,3.47,7.92,23.93,8.87,27.35,0,0,2.76,11.2,6.15,18.22,2.91,6.08,4.54,8.91,15.23,18.13,10.44,8.97,19.37,12.03,20.57,12.42,1.2-.39,10.13-3.45,20.57-12.42,10.69-9.22,12.32-12.05,15.23-18.13,3.39-7.02,6.15-18.22,6.15-18.22.95-3.42,7.71-23.88,8.87-27.35,0,0,0,0,0,0-.3-.5-.65-1.06-1.05-1.68-.04-.07-.08-.13-.12-.19,0,0,0,0,0,0l-6.33,19.73v-29.36h0c2.7,3.97,4.7,7.03,6.14,9.33.06.1.13.2.19.3h0s.9-2.8.9-2.8l.05-.15s0,0,0,0c-3.25-4.16-5.71-8.4-7.28-12.53v-.51c-1.3-3.49-2-6.91-2-10.13,0-.78.03-1.53.1-2.24.37-3.34,1.47-5.93,3.28-7.74,1.92-1.9,4.56-2.89,7.82-2.89,2.04,0,3.86.6,5.43,1.44-.06-.08-.13-.17-.2-.25,0,0,0-.01-.01-.02-.05-.05-.1-.1-.14-.16-1.92-2.02-8-3.49-13.44.79h0s-18.56-14.24-18.56-14.24c0,0-11.16,6.43-12.86,7.4-1.27-1.59-12.71-15.97-12.71-15.97,0,0-11.44,14.38-12.71,15.97-1.7-.98-12.86-7.4-12.86-7.4l-18.56,14.24h0c-5.44-4.27-11.52-2.81-13.44-.79-.05.05-.1.1-.14.16,0,0,0,.01-.01.02-.07.08-.14.17-.2.25,1.57-.85,3.38-1.44,5.43-1.44,3.26,0,5.9.99,7.82,2.89ZM52.27,13.18c1.36.79,13.3,7.66,13.3,7.66,0,0,10.3-12.94,12.05-15.14,1.75,2.2,12.05,15.14,12.05,15.14,0,0,11.94-6.87,13.3-7.66,1.15.88,13.78,10.57,16.8,12.89-.37.41-.73.83-1.07,1.28l-15.63-11.95-13.08,7.51-12.38-15.58-12.38,15.58-13.08-7.51-15.63,11.95c-.34-.45-.69-.88-1.07-1.28,3.02-2.32,15.66-12.01,16.8-12.89Z"/>
        </g>
        <g>
          <g>
            <g>
              <path class="cls-7" d="M89,110.93c3.15,0,5.08-.54,6.2-1.04v-5.56c-1.88,1.06-5.17,2.56-8.82,2.56-5.03,0-15.68-3.1-19.76-3.1-2.48,0-4.99.87-6.57,1.55v5.33c1.83-1.26,5.08-2.98,9.13-2.98,6.37,0,12.21,3.24,19.82,3.24Z"/>
              <path class="cls-7" d="M89,104.15c3.15,0,5.08-.54,6.2-1.04V22.83l-5.32,3.77-12.25-12.13-12.26,12.13-5.32-3.77v81.08c1.83-1.26,5.08-3,9.13-3,6.37,0,12.21,3.24,19.82,3.24Z"/>
              <path class="cls-7" d="M66.62,117.39c-2.48,0-4.99.86-6.57,1.53v7.77c4.33,3.23,10,6.79,17.58,10.74,7.57-3.96,13.25-7.51,17.58-10.74v-8.78c-1.88,1.05-5.17,2.54-8.82,2.54-5.03,0-15.68-3.07-19.76-3.07Z"/>
              <path class="cls-7" d="M86.38,113.68c-5.03,0-15.68-3.09-19.76-3.09-2.48,0-4.99.87-6.57,1.55v5.35c1.83-1.26,5.08-3,9.13-3,6.37,0,12.21,3.24,19.82,3.24,3.15,0,5.08-.54,6.2-1.04v-5.55c-1.88,1.06-5.17,2.56-8.82,2.56Z"/>
            </g>
            <path class="cls-6" d="M100.19,19.34l-5,3.49v80.28c-1.12.5-3.05,1.04-6.2,1.04-7.61,0-13.45-3.24-19.82-3.24-4.05,0-7.3,1.73-9.13,3V22.83l-5-3.49-16.01,8.19v49.16c0,11.26.97,22.34,4.73,29.65,2.75,5.33,4.61,11.65,16.28,20.37v-7.77c1.58-.67,4.09-1.53,6.57-1.53,4.08,0,14.73,3.07,19.76,3.07,3.65,0,6.94-1.49,8.82-2.54v8.78c11.67-8.71,13.52-15.04,16.28-20.37,3.76-7.3,4.73-18.38,4.73-29.65V27.53l-16.01-8.19ZM95.2,116.68c-1.12.5-3.05,1.04-6.2,1.04-7.61,0-13.45-3.24-19.82-3.24-4.05,0-7.3,1.73-9.13,3v-5.35c1.58-.68,4.09-1.55,6.57-1.55,4.08,0,14.73,3.09,19.76,3.09,3.65,0,6.94-1.49,8.82-2.56v5.55ZM95.2,109.89c-1.12.5-3.05,1.04-6.2,1.04-7.61,0-13.45-3.24-19.82-3.24-4.05,0-7.3,1.72-9.13,2.98v-5.33c1.58-.68,4.09-1.55,6.57-1.55,4.08,0,14.73,3.1,19.76,3.1,3.65,0,6.94-1.5,8.82-2.56v5.56Z"/>
          </g>
          <g>
            <g>
              <polygon class="cls-6" points="76.16 94.24 75.27 91.44 77.62 89.71 79.97 91.44 79.09 94.24 76.16 94.24"/>
              <path class="cls-6" d="M75.87,85.7l-.7.76,2.46,1.59,2.45-1.59-.7-.76c-.58-.14-1.16-.25-1.75-.25s-1.2.1-1.75.25Z"/>
              <path class="cls-6" d="M84.46,91.91c-.06-1.22-.43-2.35-1.07-3.3l-.95-.45-.74,2.83,2.27,1.86.5-.93Z"/>
              <path class="cls-6" d="M82.94,96.6l.12-1.05-2.93.14-1.03,2.74,1.01.21c1.11-.43,2.08-1.16,2.83-2.04Z"/>
              <path class="cls-6" d="M70.77,91.91c.06-1.22.43-2.35,1.07-3.3l.95-.45.74,2.83-2.27,1.86-.5-.93Z"/>
              <path class="cls-6" d="M72.3,96.6l-.12-1.05,2.93.14,1.03,2.74-1.01.21c-1.11-.43-2.08-1.16-2.83-2.04Z"/>
            </g>
            <g>
              <path class="cls-8" d="M106.73,85.48c-4.46,0-4.58-2.64-4.58-2.64,5.47.54,8.91-1.32,10.09-4.77,1.18-3.45-1.09-7.47-1.09-7.47,0,0,.48,3.24-1.96,6.91-3.2,4.89-8.23,1.96-8.23,1.96,4.7-1.26,5.12-3.92,4.62-6.11-1.09,3.3-8.46,5.86-11.66,2.27-3.22-3.61.68-7.65-2.29-12.58-2.99-4.93-9.78-7.16-9.78-7.16,1.96,1.57,3.3,5.71,1.75,9.8-1.44,3.75.14,8.77,1.22,10.89.24.45.52.89.85,1.31-.6,2.41-2.37,5.5-2.77,5.68-.83.39-1.05-.68-1.84-.8-.66-.14-1.08.43-1.2.62.21-.27,1.03-.4,1.2-.29.56.33.8.99,1.65.99.98,0,2.7-3.59,3.56-5.52,1.18,1.19,2.8,2,4.82,1.84,3.07-.25,3.92,1.65,4.54,2.48.62.89,3.78,5.59,10.67,5.59s8.69-7.7,8.69-7.7c0,0-3.78,4.68-8.25,4.68Z"/>
              <path class="cls-8" d="M48.51,85.48c4.46,0,4.58-2.64,4.58-2.64-5.47.54-8.91-1.32-10.09-4.77-1.18-3.45,1.09-7.47,1.09-7.47,0,0-.48,3.24,1.96,6.91,3.2,4.89,8.23,1.96,8.23,1.96-4.7-1.26-5.12-3.92-4.62-6.11,1.09,3.3,8.46,5.86,11.66,2.27,3.22-3.61-.68-7.65,2.29-12.58,2.99-4.93,9.78-7.16,9.78-7.16-1.96,1.57-3.3,5.71-1.75,9.8,1.44,3.75-.14,8.77-1.22,10.89-.24.45-.52.89-.85,1.31.6,2.41,2.37,5.5,2.77,5.68.83.39,1.05-.68,1.84-.8.66-.14,1.08.43,1.2.62-.21-.27-1.03-.4-1.2-.29-.56.33-.8.99-1.65.99-.98,0-2.7-3.59-3.56-5.52-1.18,1.19-2.8,2-4.82,1.84-3.07-.25-3.92,1.65-4.54,2.48-.62.89-3.78,5.59-10.67,5.59s-8.69-7.7-8.69-7.7c0,0,3.78,4.68,8.25,4.68Z"/>
            </g>
            <g>
              <path class="cls-5" d="M70.55,53.5h-9.53v-.83h.93v-22.2h-.93v-.8h9.49v7.72h-.7c-.06-.47-.12-.8-.14-.91l-.12-.7-.1-.74-.14-.76c-.27-1.65-.6-2.89-.87-3.32-.21-.35-.45-.47-1.07-.47h-2.15v10.25h.74c.87,0,1.11-.78,1.57-4.85h.52v10.36h-.52c-.47-4.11-.66-4.66-1.59-4.66h-.72v11.1h2.15c1.01,0,1.26-.37,1.65-2.29.16-.83.37-2.04.52-3.18.08-.58.14-.87.23-1.77l.06-.37.04-.39h.7v8.83Z"/>
              <path class="cls-5" d="M80.76,46.24h-.5c-.31-2.41-.41-3.18-.66-3.96-.25-.68-.39-.78-1.03-.78h-.64v11.18h1.4v.83h-5.57v-.83h.95v-22.2h-.95v-.8h9.28v7.72h-.78c-.06-.43-.1-.76-.15-.91l-.12-.72-.08-.8-.12-.76c-.1-.62-.35-1.82-.5-2.35-.31-1.18-.52-1.36-1.38-1.36h-1.98v10.19h.62c.6,0,.78-.1.99-.62.12-.29.29-.95.37-1.57l.06-.66.1-.64.08-.66c.02-.1.06-.33.1-.64h.5v10.36Z"/>
              <path class="cls-5" d="M93.84,52.24c-1.26,1.18-2.41,1.73-3.76,1.73-3.84,0-5.12-4.66-5.12-11.99s1.44-12.79,5.26-12.79c1.05,0,2.17.43,3.32,1.28v6.85h-.74c-.47-2.41-.41-2.19-.62-3.14l-.14-.56c-.7-2.97-.95-3.47-1.86-3.47s-1.07.83-1.49,2.72c-.37,1.86-.35,5.05-.35,9.45,0,7.96,0,10.65,1.94,10.65.99,0,1.38-.58,1.88-2.7.17-.74.29-1.51.66-3.47.29-1.75.19-1.22.31-1.86h.7v7.28Z"/>
            </g>
          </g>
          <g>
            <polygon class="cls-9" points="119.29 120.89 35.28 120.89 35.28 135.37 119.96 135.37 119.96 120.89 119.29 120.89"/>
            <path class="cls-5" d="M118.63,122.22v11.81H36.62v-11.81h82.01Z"/>
            <g>
              <path class="cls-9" d="M41.33,132.84h-3.84v-.35h.39v-8.91h-.39v-.35h3.82v3.11h-.29c-.02-.21-.06-.33-.06-.37l-.04-.27-.04-.31-.04-.31c-.1-.66-.25-1.18-.35-1.34-.08-.12-.18-.17-.43-.17h-.87v4.13h.29c.35,0,.45-.33.64-1.98h.21v4.19h-.21c-.19-1.67-.27-1.9-.64-1.9h-.29v4.48h.87c.41,0,.52-.15.66-.91.08-.33.14-.83.19-1.28.04-.25.06-.35.1-.7l.02-.17.02-.14h.29v3.55Z"/>
              <polygon class="cls-9" points="43.69 132.49 44.08 132.49 44.08 132.84 42.01 132.84 42.01 132.49 42.41 132.49 42.41 123.58 42.01 123.58 42.01 123.23 44.08 123.23 44.08 123.58 43.69 123.58 43.69 127.69 44.9 127.69 44.9 123.58 44.51 123.58 44.51 123.23 46.57 123.23 46.57 123.58 46.18 123.58 46.18 132.49 46.57 132.49 46.57 132.84 44.51 132.84 44.51 132.49 44.9 132.49 44.9 128.02 43.69 128.02 43.69 132.49"/>
              <polygon class="cls-9" points="48.86 132.49 49.24 132.49 49.24 132.84 47.17 132.84 47.17 132.49 47.54 132.49 47.54 123.58 47.17 123.58 47.17 123.23 49.24 123.23 49.24 123.58 48.86 123.58 48.86 132.49"/>
              <polygon class="cls-9" points="51.94 132.84 50.43 123.89 50.43 132.49 51.07 132.49 51.07 132.84 49.83 132.84 49.83 132.49 50.2 132.49 50.2 123.58 49.83 123.58 49.83 123.23 51.65 123.23 52.64 129.69 53.71 123.23 55.49 123.23 55.49 123.58 55.14 123.58 55.14 132.49 55.49 132.49 55.49 132.84 53.2 132.84 53.2 132.49 53.81 132.49 53.81 123.79 52.35 132.84 51.94 132.84"/>
              <path class="cls-9" d="M59.92,132.84h-3.82v-.35h.39v-8.91h-.39v-.35h3.8v3.11h-.27c-.04-.21-.06-.33-.08-.37l-.04-.27-.04-.31-.06-.31c-.1-.66-.21-1.18-.33-1.34-.08-.12-.16-.17-.43-.17h-.87v4.13h.31c.35,0,.43-.33.64-1.98h.21v4.19h-.21c-.21-1.67-.29-1.9-.64-1.9h-.31v4.48h.87c.41,0,.52-.15.66-.91.06-.33.14-.83.21-1.28.02-.25.04-.35.1-.7l.02-.17.02-.14h.27v3.55Z"/>
              <path class="cls-9" d="M65.33,129.91h-.21c-.1-.97-.17-1.28-.27-1.61-.08-.27-.14-.31-.41-.31h-.25v4.5h.56v.35h-2.23v-.35h.39v-8.91h-.39v-.35h3.71v3.11h-.31c-.02-.19-.04-.31-.06-.37l-.04-.29-.06-.31-.04-.31c-.04-.27-.12-.74-.19-.97-.12-.45-.19-.52-.56-.52h-.78v4.11h.25c.25,0,.31-.06.39-.25.06-.15.12-.41.14-.64l.04-.29.04-.27.04-.25s.02-.12.02-.27h.21v4.19Z"/>
              <path class="cls-9" d="M68.23,124.67c-.04.33-.08,1.03-.1,1.71-.02.64-.02,1.3-.02,2.37,0,1.3.04,2.39.1,2.93.1.68.29,1.03.58,1.03s.49-.35.58-.99c.06-.37.1-1.18.1-1.94.02-.58.02-1.24.02-1.9,0-1.26-.02-2.06-.02-2.7-.08-1.32-.27-1.82-.66-1.82-.31,0-.49.39-.58,1.3ZM70.98,128.08c0,1.18-.19,2.33-.5,3.24-.37,1.11-.97,1.73-1.67,1.73-1.3,0-2.16-2.04-2.16-5.03,0-2.83.91-4.97,2.16-4.97s2.17,2.1,2.17,5.03Z"/>
              <path class="cls-9" d="M73.04,124.67c-.02.33-.06,1.03-.08,1.71-.02.64-.02,1.3-.02,2.37,0,1.3.04,2.39.1,2.93.1.68.29,1.03.56,1.03.29,0,.49-.35.58-.99.06-.37.1-1.18.12-1.94.02-.58.02-1.24.02-1.9,0-1.26,0-2.06-.04-2.7-.08-1.32-.27-1.82-.64-1.82-.31,0-.49.39-.6,1.3ZM75.79,128.08c0,1.18-.19,2.33-.47,3.24-.37,1.11-.99,1.73-1.69,1.73-1.28,0-2.15-2.04-2.15-5.03,0-2.83.93-4.97,2.15-4.97,1.28,0,2.17,2.1,2.17,5.03Z"/>
              <path class="cls-9" d="M80.04,126.32h-.29c-.08-.8-.1-1.01-.14-1.26-.16-1.28-.27-1.49-.64-1.49h-.21v8.91h.43v.35h-2.17v-.35h.43v-8.91h-.19c-.33,0-.43.12-.56.83-.06.25-.08.52-.16,1.14l-.06.47-.02.1v.1l-.02.1h-.29v-3.09h3.88v3.09Z"/>
              <path class="cls-9" d="M82.55,132.49c.8,0,1.05-.51,1.05-2.21s-.31-2.27-1.24-2.27h-.23v4.48h.41ZM82.39,127.69c.7,0,.97-.56.97-2.11s-.21-2-.83-2h-.39v4.11h.25ZM82.59,123.23c1.38,0,2.06.76,2.06,2.31,0,1.3-.52,2.06-1.53,2.27.64.1.91.25,1.2.54.41.41.64,1.05.64,1.86,0,1.09-.33,1.82-.95,2.27-.43.29-.78.37-1.88.37h-1.67v-.35h.39v-8.91h-.39v-.35h2.13Z"/>
              <path class="cls-9" d="M87.57,128.82l-.6-3.71-.62,3.71h1.22ZM85.77,132.49h.68v.35h-1.32v-.35h.43l1.51-9.26h.87l1.61,9.26h.37v.35h-2.35v-.35h.56l-.52-3.34h-1.3l-.54,3.34Z"/>
              <path class="cls-9" d="M93.75,132.84h-3.61v-.35h.39v-8.91h-.39v-.35h2.25v.35h-.54v8.91h.64c.33,0,.45-.1.56-.51.06-.27.12-.6.23-1.3.02-.12.04-.25.04-.35l.12-.95c0-.08.02-.2.04-.33h.27v3.8Z"/>
              <path class="cls-9" d="M97.84,132.84h-3.61v-.35h.39v-8.91h-.39v-.35h2.23v.35h-.54v8.91h.66c.31,0,.43-.1.54-.51.06-.27.12-.6.23-1.3.02-.12.04-.25.04-.35l.12-.95c.02-.08.02-.2.04-.33h.29v3.8Z"/>
              <path class="cls-9" d="M104.05,132.33c-.47.48-.93.7-1.46.7-1.49,0-2.43-1.88-2.43-4.83s1.01-5.16,2.5-5.16c.41,0,.85.19,1.3.54v2.72h-.29c-.18-.95-.16-.87-.25-1.24l-.06-.23c-.27-1.19-.37-1.4-.72-1.4-.37,0-.58.31-.72,1.09-.14.76-.23,2.04-.23,3.82,0,3.22.25,4.29.99,4.29.39,0,.54-.23.72-1.09.08-.29.14-.6.27-1.4.12-.7.08-.47.12-.74h.27v2.93Z"/>
              <path class="cls-9" d="M108.26,132.84h-3.61v-.35h.37v-8.91h-.37v-.35h2.25v.35h-.58v8.91h.68c.31,0,.45-.1.54-.51.06-.27.12-.6.23-1.3.02-.12.04-.25.06-.35l.12-.95c0-.08,0-.2.02-.33h.29v3.8Z"/>
              <path class="cls-9" d="M112.32,129.69c0,2.43-.45,3.34-1.63,3.34-.58,0-.99-.23-1.28-.74-.31-.5-.41-1.2-.41-2.45v-6.25h-.37v-.35h2.23v.35h-.54v6.62c0,.79.02,1.32.1,1.67.1.41.37.68.64.68.31,0,.6-.25.76-.7.19-.47.27-1.05.27-2.29v-5.98h-.58v-.35h1.13v.35h-.33v6.11Z"/>
              <path class="cls-9" d="M115.27,132.49c.8,0,1.05-.51,1.05-2.21s-.31-2.27-1.24-2.27h-.23v4.48h.41ZM115.11,127.69c.7,0,.97-.56.97-2.11s-.21-2-.82-2h-.39v4.11h.25ZM115.31,123.23c1.36,0,2.06.76,2.06,2.31,0,1.3-.52,2.06-1.53,2.27.62.1.91.25,1.2.54.41.41.62,1.05.62,1.86,0,1.09-.31,1.82-.93,2.27-.43.29-.8.37-1.88.37h-1.67v-.35h.39v-8.91h-.39v-.35h2.13Z"/>
            </g>
          </g>
        </g>
      </g>
    </g>
  </g>
</svg>