<?xml version="1.0" encoding="UTF-8"?>
<svg id="_レイヤー_2" data-name="レイヤー 2" xmlns="http://www.w3.org/2000/svg" xmlns:xlink="http://www.w3.org/1999/xlink" viewBox="0 0 426.45 440.66">
  <defs>
    <style>
      .cls-1 {
        fill: none;
      }

      .cls-2 {
        fill: #221815;
      }

      .cls-3 {
        fill: #ffe100;
      }

      .cls-4 {
        fill: #231815;
      }

      .cls-5 {
        fill: #fff;
      }

      .cls-6 {
        fill: #7fcaf1;
      }

      .cls-7 {
        clip-path: url(#clippath);
      }
    </style>
    <clipPath id="clippath">
      <path class="cls-1" d="M390.94,215.68c.07-12.49-5.34-22.53-15.6-29.03-.69-.44-1.39-.87-2.1-1.27-.77-.43-1.55-.85-2.34-1.22-11.64-5.67-23.69-4.48-34.15-2.53-5.83,1.33-9.45,2.5-11.74,3.46-1.46-1.46-3.03-2.84-4.74-4.07-.97-.67-6.37-4.22-14.15-5.76-.48-2.23-.98-3.96-1.26-4.88-.01-.05-.23-.79-.25-.84-1.29-3.88-4.26-11.63-9.68-19.89-6.8-10.34-15.02-17.72-24.49-21.96-15.15-6.65-29.01-3.93-42.64,8.55-6.19,6.4-11.53,14.18-15.87,23.1-.54,1.12-4.52,10.56-4.96,11.86-1.56,4.27-6.56,19.27-5.14,33.03.89,10.47,5.87,20.97,13,27.42.12.11.54.44.67.53,7.94,6.03,16.67,9.07,25.99,9.07,1.13,0,2.27-.05,3.42-.13,12.05-.93,21.23-4.61,21.51-4.72,1.18-.45,2.22-.93,3.33-1.4,3.32,4.59,7.6,8.48,12.65,11.05,6.29,3.17,11.23,4.29,15.81,4.29.67,0,1.31-.14,1.97-.18.25.54.51,1.09.92,1.73,9.83,18.52,24.19,24.87,33.25,24.47.58.03,1.17.05,1.76.05,15.78,0,33.72-11.18,44.46-28.18l.53-.88c3.53-5.77,8.87-14.5,9.85-31.66Z"/>
    </clipPath>
  </defs>
  <g id="_レイヤー_1-2" data-name="レイヤー 1">
    <g>
      <path class="cls-6" d="M426.45,223.15c0,117.76-84.41,196.43-213.22,196.43S0,340.91,0,223.15,95.46,9.92,213.22,9.92s213.22,95.46,213.22,213.23Z"/>
      <g>
        <g>
          <g>
            <path class="cls-2" d="M419.51,291.7c-1.3-.72-2.84-1.24-3.8-1.44-6.81-1.4-13.64-2.18-20.31-2.33-3.7-.09-7.16,0-10.49.16-1.79-20.11-8.09-39.31-19.27-58.27,1.62-9.72,2.12-22.36,2.53-32.66l.21-5.17c.84-18.75-5.88-43.26-14.38-52.46-2.12-2.29-5.31-4.04-8.13-4.45-21.54-3.21-49.87,5.35-81.73,24.67l-4-.59c-26.18-3.9-58.77-8.75-103.06,1.53-1.4.32-2.95.78-4.54,1.26-2.37.71-6.76,1.98-7.92,1.68-8.49-4.64-30.28-15.71-49.14-18.49-17.53-2.61-29.09.83-34.52,10.31-15.37,28.86-7.65,69.07-4.44,79.46-16,31.01-15.69,63.87-15.6,67.47-.01.84.03,1.72.04,2.58-.84.05-1.6.09-2.48.16-8.93.71-17.8,1.58-28.07,4.44-3.34.92-6.41,3.14-5.81,5.59.47,1.92,2.84,2.35,4.83,2.35,1.54,0,2.85-.25,2.89-.26,10.63-2.16,16.02-2.75,23.47-3.55l3.14-.34c.81-.09,1.61-.13,2.42-.2.81,9.68,2.85,19.99,6.48,30.18-4.44,1.67-9.56,3.89-15.71,7.07-.04.02-3.98,2.08-4.74,4.62-.23.78-.15,1.56.23,2.24.62,1.11,1.92,1.46,3.31,1.46,2.3,0,4.82-.95,4.86-.96,1.84-.81,3.57-1.58,5.21-2.31,3.72-1.66,6.96-3.05,10-4.23,3.93,8.9,9.09,17.53,15.73,25.34-6.84,3.96-15.09,9.33-24.43,16.6-1.94,1.52-3.19,3.45-3.41,5.32-.12,1.04.11,1.99.65,2.67.41.51,1.18.73,2.1.73,1.62,0,3.71-.68,5.14-1.7,10.26-7.27,19.16-12.9,26.15-17.04,7.51,7.31,16.5,13.67,27.22,18.49,35.27,15.84,67.77,19.4,108.95,20l4.04-.06,4.36.06c47.38-.7,84.81-7.46,111.26-20.11,15.35-7.34,27.56-17.24,36.7-29.54,7.64,2.61,16.9,6.62,25.83,12.66,1.14.79,3.45,2.16,5.5,2.16.92,0,1.79-.27,2.47-1.01.29-.3.61-.85.53-1.73-.17-1.87-2.23-4.46-3.56-5.43-9.12-6.66-18.29-10.95-26.01-13.74,5.25-8.67,9.17-18.37,11.72-29.12,5.64.9,12.22,2.35,19.44,4.77.04,0,2.17.71,4.26.71,1.57,0,3.11-.39,3.7-1.78.27-.63.26-1.33-.03-2.02-1.04-2.48-5.39-4.32-5.43-4.33-7.12-2.82-14.12-4.47-20.31-5.49,1.35-8.14,2.01-16.8,1.93-26,.02-1.57-.07-3.12-.1-4.67,2.94-.16,5.97-.26,9.16-.22,4.96.05,10.48.42,15.35.74,1.52.1,2.99.19,4.4.28,3.19.18,7.1-.41,7.57-2.73.17-.81-.11-2.03-2.36-3.29Z"/>
            <path class="cls-5" d="M354.53,229.84c1.76-9.13,2.29-22.42,2.71-33.11l.22-5.23c.76-16.97-5.67-38.25-11.49-44.55-.51-.56-1.4-.99-1.72-1.06-18.78-2.76-45.27,5.51-74.57,23.31-2.08,1.26-3.22,1.95-5.23,1.65l-5.91-.87c-25.25-3.76-56.69-8.45-98.98,1.36-1.2.27-2.52.67-3.88,1.08-5.38,1.6-11.46,3.43-16.3.8-7.98-4.35-28.38-14.75-45.5-17.28-12.59-1.85-20.45-.25-23.34,4.78-10.47,19.65-8.42,46.45-5.73,61.45.72-.85,1.42-1.62,2.07-2.27,2.63-2.63,5.32-3.6,7.16-2.33,1.91,1.32,1.15,4.66-.08,7.33-1.22,2.65-3.69,7.76-5.63,11.18,0,0,0,.01,0,.02-16.85,29.6-16.54,62.53-16.45,66.2,0,.74.03,1.51.04,2.26,9.31.02,14.99,1,17.89,1.74l.21.05c.06.01,7.62,1.41,7.18,5.04-.39,3.23-4.98,2.99-7.2,2.87l-.82-.06c-2.44-.37-8.96-1.24-16.85-1.4.79,8.79,2.71,18.09,6.01,27.25,4.52-1.04,7.71-1.28,9.83-1.4l.29-.02c2.79-.15,9.39-.25,9.73,3.07.3,2.87-4.87,4.24-7.11,4.7-1.04.21-2.16.36-3.41.53-1.75.24-3.74.52-6.09,1.02,3.77,8.24,8.76,16.15,15.14,23.24,6.63-3.21,10.45-4.39,10.53-4.42.06-.03,6.57-1.68,7.84,1.28,1.09,2.56-1.67,3.92-4.33,5.24-.85.42-1.74.86-2.55,1.35,0,0-.09.05-.26.13-1.03.52-2.75,1.4-5.02,2.62,6.17,5.56,13.32,10.43,21.71,14.2,33.54,15.07,64.84,18.46,104.45,19.04l4.04-.06,4.36.06c44.98-.67,81.88-7.25,106.54-19.04,12.36-5.91,22.38-13.54,30.17-22.9-3.71-.86-5.98-1.18-6.04-1.19-1.42-.14-5.85-1.17-7.34-3.19-.44-.61-.61-1.28-.47-1.94.75-3.62,7.32-2.9,10.09-2.43.35.03,3.75.38,9.03,1.65,5.2-7.94,9.03-16.98,11.53-27.11-2.33-.14-4.2-.17-5.48-.17-2.44.01-5.28-.05-5.28-.05-.74-.07-6.59-.76-6.82-3.68-.03-.39.05-1,.6-1.64,1.31-1.53,4.62-2.39,6.03-2.5l.31-.03c.84-.08,3.07-.3,5.31-.32h.61c1.62,0,3.81.05,6.42.22,1.29-7.68,1.93-15.9,1.86-24.75.01-1.24-.06-2.46-.09-3.69-6.85.85-12.47,1.97-16.3,2.74-1.96.39-3.38.68-4.24.78-1.38.2-2.56.3-3.55.3-2.31,0-3.58-.56-4-1.72-.29-.84-.23-1.74.18-2.59.74-1.52,2.53-2.81,5.19-3.72,2.09-.71,10.2-3.2,22.24-4.68-1.72-19.09-7.86-37.28-18.78-55.31-.7-1.16-.95-2.54-.69-3.87Z"/>
          </g>
          <g>
            <path class="cls-2" d="M115.31,311.51c-3.5,7.1-3.52,18.45,1.21,24.48,2.92,3.45,7.8,5.41,14.09,4.33,5.43-.94,8.52-5.9,9.55-9.85,2.23-8.84-.14-19.68-5.23-23.79-5.36-3.91-15.39-3.82-19.61,4.83Z"/>
            <path class="cls-2" d="M285.41,312.55c-3.5,7.1-3.52,18.45,1.21,24.48,2.92,3.45,7.8,5.41,14.09,4.33,5.43-.94,8.52-5.9,9.55-9.85,2.23-8.84-.14-19.68-5.23-23.79-5.36-3.91-15.39-3.82-19.61,4.83Z"/>
            <g>
              <path class="cls-2" d="M230.45,343.26c-1.17-4.16-4.32-7.43-8.44-8.76-7.86-2.55-15.82-1.48-20.77,2.79-5.16,4.56-5.41,12.65-2.19,16.84,2.99,3.88,7.72,5.9,14.48,6.2.31.01.63.02.94.02,5.41,0,10.44-1.98,13.31-5.27v-.02c2.83-3.28,3.82-7.69,2.67-11.81Z"/>
              <path class="cls-3" d="M219.91,341.01c-2.1-.68-4.24-1.01-6.25-1.01-3.19,0-6.05.84-7.91,2.44-2.45,2.17-2.29,6.18-1.26,7.52,1.68,2.18,4.74,3.34,9.35,3.54,4.27.17,7.46-1.38,8.79-2.9,1.34-1.56,1.79-3.55,1.24-5.49-.54-1.94-2.02-3.48-3.96-4.11Z"/>
            </g>
          </g>
        </g>
        <g>
          <g>
            <path class="cls-2" d="M174.31,401.34c-1.48-4.63-4.48-8.3-7.74-11.99-11.57-11.1-31.77-15.56-47.81-10.64-11.58,3.03-24.94,13.2-26.89,28.3-1.79,11.76,2.42,22.06,11.65,27.76,9.31,4.78,19.42,4.67,29.7-.17.87-.33,1.3-.24,3.57.72,1.42.61,3.17,1.34,5.28,1.7,3.57,1.03,6.76,1.46,9.57,1.46,7.46,0,12.38-3.02,15.44-6.04,7.97-7.84,10.94-20.61,7.23-31.1Z"/>
            <path class="cls-5" d="M163.98,404.93c-.03-.07-.05-.13-.07-.2-.84-2.65-3.05-5.31-5.25-7.82-8.41-8.05-24.41-11.47-36.92-7.67-8.41,2.2-17.79,9.67-19.04,19.29-.55,3.62-1.01,12.25,6.19,16.72,5.93,3.02,12.4,2.87,20-.7,1.9-.75,3.63-1.02,5.19-1.02,2.92,0,5.24.98,6.98,1.72,1.12.47,2.08.88,2.97,1.01.27.04.53.09.78.17,6.51,1.94,11.44,1.34,14.59-1.78,4.91-4.82,6.87-13.3,4.58-19.71Z"/>
          </g>
          <g>
            <path class="cls-2" d="M338.19,409.3c-1.98-15.21-15.33-25.39-26.69-28.34-16.27-4.97-36.47-.53-48.34,10.91-2.82,3.2-5.95,7-7.44,11.65-3.71,10.49-.74,23.27,7.22,31.1,3.07,3.03,8,6.05,15.45,6.05,2.81,0,5.99-.43,9.57-1.46,2.11-.36,3.86-1.1,5.28-1.7,2.29-.98,2.71-1.06,3.23-.87,10.61,5,20.73,5.1,30.44.1,8.83-5.48,13.04-15.78,11.27-27.43Z"/>
            <path class="cls-5" d="M327.35,410.83c-1.27-9.74-10.64-17.21-18.84-19.34-3.53-1.08-7.32-1.6-11.13-1.6-9.92,0-20.02,3.48-26.32,9.53-1.88,2.17-4.1,4.83-4.94,7.48-.02.07-.04.13-.07.2-2.29,6.41-.33,14.89,4.56,19.7,3.17,3.11,8.06,3.72,14.6,1.78.25-.07.51-.13.78-.17.89-.13,1.85-.53,2.97-1.01,2.67-1.14,6.69-2.83,11.82-.85,7.93,3.73,14.41,3.88,20.73.63,6.81-4.24,6.35-12.88,5.82-16.38Z"/>
          </g>
        </g>
        <g>
          <g class="cls-7">
            <rect class="cls-6" x="234.12" y="114.05" width="132.75" height="190.62" transform="translate(-16.24 393.22) rotate(-65)"/>
            <g>
              <g>
                <path class="cls-5" d="M185.27,23.47c-7.59,16.27-26.93,23.31-43.2,15.72-16.27-7.59-23.31-26.93-15.72-43.19,7.59-16.27,26.93-23.31,43.2-15.72,16.27,7.59,23.31,26.93,15.72,43.2Z"/>
                <path class="cls-5" d="M294.58,74.45c-7.59,16.27-26.93,23.31-43.2,15.72-16.27-7.59-23.31-26.93-15.72-43.2,7.59-16.27,26.93-23.31,43.2-15.72,16.27,7.59,23.31,26.93,15.72,43.2Z"/>
                <path class="cls-5" d="M403.89,125.42c-7.59,16.27-26.93,23.31-43.2,15.72-16.27-7.59-23.31-26.93-15.72-43.2,7.59-16.27,26.93-23.31,43.2-15.72,16.27,7.59,23.31,26.93,15.72,43.19Z"/>
              </g>
              <g>
                <path class="cls-5" d="M104.28,54.5c-7.59,16.27-26.93,23.31-43.19,15.72-16.27-7.59-23.31-26.93-15.72-43.2,7.59-16.27,26.93-23.31,43.2-15.72,16.27,7.59,23.31,26.93,15.72,43.2Z"/>
                <path class="cls-5" d="M213.59,105.47c-7.59,16.27-26.93,23.31-43.2,15.72-16.27-7.59-23.31-26.93-15.72-43.2,7.59-16.27,26.93-23.31,43.2-15.72,16.27,7.59,23.31,26.93,15.72,43.2Z"/>
                <path class="cls-5" d="M322.89,156.44c-7.59,16.27-26.93,23.31-43.2,15.72-16.27-7.59-23.31-26.93-15.72-43.19,7.59-16.27,26.93-23.31,43.19-15.72,16.27,7.59,23.31,26.93,15.72,43.19Z"/>
                <path class="cls-5" d="M432.2,207.41c-7.59,16.27-26.93,23.31-43.2,15.72-16.27-7.59-23.31-26.93-15.72-43.2,7.59-16.27,26.93-23.31,43.2-15.72,16.27,7.59,23.31,26.93,15.72,43.2Z"/>
              </g>
              <g>
                <path class="cls-5" d="M132.58,136.49c-7.59,16.27-26.93,23.31-43.2,15.72-16.27-7.59-23.31-26.93-15.72-43.2,7.59-16.27,26.93-23.31,43.2-15.72,16.27,7.59,23.31,26.93,15.72,43.2Z"/>
                <path class="cls-5" d="M241.88,187.46c-7.59,16.27-26.93,23.31-43.2,15.72-16.27-7.59-23.31-26.93-15.72-43.2,7.59-16.27,26.93-23.31,43.19-15.72,16.27,7.59,23.31,26.93,15.72,43.2Z"/>
                <path class="cls-5" d="M351.19,238.43c-7.59,16.27-26.93,23.31-43.2,15.72-16.27-7.59-23.31-26.93-15.72-43.2,7.59-16.27,26.93-23.31,43.2-15.72,16.27,7.59,23.31,26.93,15.72,43.2Z"/>
                <path class="cls-5" d="M460.5,289.4c-7.59,16.27-26.93,23.31-43.2,15.72-16.27-7.59-23.31-26.93-15.72-43.2,7.59-16.27,26.93-23.31,43.2-15.72,16.27,7.59,23.31,26.93,15.72,43.2Z"/>
              </g>
              <g>
                <path class="cls-5" d="M51.58,167.51c-7.59,16.27-26.93,23.31-43.19,15.72-16.27-7.59-23.31-26.93-15.72-43.2,7.59-16.27,26.93-23.31,43.2-15.72,16.27,7.59,23.31,26.93,15.72,43.2Z"/>
                <path class="cls-5" d="M160.89,218.48c-7.59,16.27-26.93,23.31-43.2,15.72-16.27-7.59-23.31-26.93-15.72-43.2,7.59-16.27,26.93-23.31,43.2-15.72,16.27,7.59,23.31,26.92,15.72,43.19Z"/>
                <path class="cls-5" d="M270.2,269.46c-7.59,16.27-26.93,23.31-43.2,15.72-16.27-7.59-23.31-26.93-15.72-43.2,7.59-16.27,26.93-23.31,43.19-15.72,16.27,7.59,23.31,26.93,15.72,43.2Z"/>
                <path class="cls-5" d="M379.5,320.43c-7.59,16.27-26.93,23.31-43.2,15.72-16.27-7.59-23.31-26.93-15.72-43.2,7.59-16.27,26.93-23.31,43.2-15.72,16.27,7.59,23.31,26.93,15.72,43.2Z"/>
              </g>
              <g>
                <path class="cls-5" d="M79.88,249.5c-7.59,16.27-26.93,23.31-43.2,15.72-16.27-7.59-23.31-26.93-15.72-43.19,7.59-16.27,26.93-23.31,43.2-15.72,16.27,7.59,23.31,26.93,15.72,43.2Z"/>
                <path class="cls-5" d="M189.18,300.47c-7.59,16.27-26.93,23.31-43.2,15.72-16.27-7.59-23.31-26.93-15.72-43.19,7.59-16.27,26.93-23.31,43.19-15.72,16.27,7.59,23.31,26.93,15.72,43.19Z"/>
                <path class="cls-5" d="M298.49,351.44c-7.59,16.27-26.93,23.31-43.2,15.72-16.27-7.59-23.31-26.93-15.72-43.2,7.59-16.27,26.93-23.31,43.2-15.72,16.27,7.59,23.31,26.93,15.72,43.2Z"/>
                <path class="cls-5" d="M407.8,402.41c-7.59,16.27-26.93,23.31-43.2,15.72-16.27-7.59-23.31-26.93-15.72-43.19,7.59-16.27,26.93-23.31,43.2-15.72,16.27,7.59,23.31,26.93,15.72,43.2Z"/>
              </g>
              <g>
                <path class="cls-5" d="M-1.12,280.53c-7.59,16.27-26.93,23.31-43.19,15.72-16.27-7.59-23.31-26.93-15.72-43.2,7.59-16.27,26.93-23.31,43.2-15.72,16.27,7.59,23.31,26.93,15.72,43.19Z"/>
                <path class="cls-5" d="M108.19,331.5c-7.59,16.27-26.93,23.31-43.2,15.72-16.27-7.59-23.31-26.93-15.72-43.2,7.59-16.27,26.93-23.31,43.2-15.72,16.27,7.59,23.31,26.93,15.72,43.2Z"/>
                <path class="cls-5" d="M217.5,382.47c-7.59,16.27-26.93,23.31-43.19,15.72-16.27-7.59-23.31-26.93-15.72-43.2,7.59-16.27,26.93-23.31,43.19-15.72,16.27,7.59,23.31,26.93,15.72,43.19Z"/>
                <path class="cls-5" d="M326.8,433.44c-7.59,16.27-26.93,23.31-43.2,15.72-16.27-7.59-23.31-26.93-15.72-43.19,7.59-16.27,26.93-23.31,43.2-15.72,16.27,7.59,23.31,26.93,15.72,43.19Z"/>
                <path class="cls-5" d="M436.11,455.8c-7.59,16.27-26.93,23.31-43.2,15.72-16.27-7.59-23.31,1.69-15.72-14.58,7.59-16.27,26.93-23.31,43.19-15.72,16.27,7.59,23.31-1.69,15.72,14.58Z"/>
              </g>
            </g>
          </g>
          <path class="cls-1" d="M390.94,215.68c.07-12.49-5.34-22.53-15.6-29.03-.69-.44-1.39-.87-2.1-1.27-.77-.43-1.55-.85-2.34-1.22-11.64-5.67-23.69-4.48-34.15-2.53-5.83,1.33-9.45,2.5-11.74,3.46-1.46-1.46-3.03-2.84-4.74-4.07-.97-.67-6.37-4.22-14.15-5.76-.48-2.23-.98-3.96-1.26-4.88-.01-.05-.23-.79-.25-.84-1.29-3.88-4.26-11.63-9.68-19.89-6.8-10.34-15.02-17.72-24.49-21.96-15.15-6.65-29.01-3.93-42.64,8.55-6.19,6.4-11.53,14.18-15.87,23.1-.54,1.12-4.52,10.56-4.96,11.86-1.56,4.27-6.56,19.27-5.14,33.03.89,10.47,5.87,20.97,13,27.42.12.11.54.44.67.53,7.94,6.03,16.67,9.07,25.99,9.07,1.13,0,2.27-.05,3.42-.13,12.05-.93,21.23-4.61,21.51-4.72,1.18-.45,2.22-.93,3.33-1.4,3.32,4.59,7.6,8.48,12.65,11.05,6.29,3.17,11.23,4.29,15.81,4.29.67,0,1.31-.14,1.97-.18.25.54.51,1.09.92,1.73,9.83,18.52,24.19,24.87,33.25,24.47.58.03,1.17.05,1.76.05,15.78,0,33.72-11.18,44.46-28.18l.53-.88c3.53-5.77,8.87-14.5,9.85-31.66Z"/>
          <path class="cls-2" d="M390.94,215.68c.07-12.49-5.34-22.53-15.6-29.03-.69-.44-1.39-.87-2.1-1.27-.77-.43-1.55-.85-2.34-1.22-11.64-5.67-23.69-4.48-34.15-2.53-5.83,1.33-9.45,2.5-11.74,3.46-1.46-1.46-3.03-2.84-4.74-4.07-.97-.67-6.37-4.22-14.15-5.76-.48-2.23-.98-3.96-1.26-4.88-.01-.05-.23-.79-.25-.84-1.29-3.88-4.26-11.63-9.68-19.89-6.8-10.34-15.02-17.72-24.49-21.96-15.15-6.65-29.01-3.93-42.64,8.55-6.19,6.4-11.53,14.18-15.87,23.1-.54,1.12-4.52,10.56-4.96,11.86-1.56,4.27-6.56,19.27-5.14,33.03.89,10.47,5.87,20.97,13,27.42.12.11.54.44.67.53,7.94,6.03,16.67,9.07,25.99,9.07,1.13,0,2.27-.05,3.42-.13,12.05-.93,21.23-4.61,21.51-4.72,1.18-.45,2.22-.93,3.33-1.4,3.32,4.59,7.6,8.48,12.65,11.05,6.29,3.17,11.23,4.29,15.81,4.29.67,0,1.31-.14,1.97-.18.25.54.51,1.09.92,1.73,9.83,18.52,24.19,24.87,33.25,24.47.58.03,1.17.05,1.76.05,15.78,0,33.72-11.18,44.46-28.18l.53-.88c3.53-5.77,8.87-14.5,9.85-31.66ZM262.41,226.2c-.08.03-8.08,3.2-18.37,4-11.87.92-19.44-4.84-21.88-6.66-5-4.53-8.79-12.66-9.45-20.34-1.18-11.51,3.16-24.52,4.61-28.48.39-1.06,3.95-9.57,4.44-10.59,3.84-7.89,8.52-14.72,13.66-20.06,10.24-9.37,19.41-11.29,30.57-6.38,7.49,3.36,14.15,9.4,19.77,17.96,4.92,7.49,7.54,14.61,8.32,16.9l.28.99c.1.33.23.76.37,1.26-3.12.38-6.39,1.21-9.76,2.67-.86.37-1.62.86-2.44,1.29-1.82-1.99-4.05-3.77-6.3-5.03-6.73-3.79-14.11-3.84-20.25-.13-6.59,4-10.46,11.71-9.86,19.44.23,6.03,2.69,11.16,7.12,14.82,2.87,2.37,6.27,3.78,9.4,4.6,0,.53-.07,1.05-.06,1.58.03,3.82.78,7.6,2.04,11.21-.76.31-1.43.63-2.24.94ZM264.12,201.51c-1.43-.51-2.96-1.24-4.22-2.39-1.79-1.63-2.7-3.75-2.82-6.7-.29-3.87,1.51-7.59,4.61-9.47,2.17-1.32,4.47-1.53,7.04-.66,2.02.68,3.67,1.86,4.9,2.98-4.48,4.46-7.75,9.99-9.5,16.23ZM306.89,237.9c-7.63,2.01-11.53,2.43-19.54-1.62-8.18-4.17-13.72-13.13-13.78-22.47-.43-11.82,5.62-21.89,15.78-26.29,3.44-1.49,6.75-2.05,9.77-2.05,8.05,0,14.03,3.92,14.85,4.49,9.03,6.49,13.34,17.88,10.69,28.51-2.49,11.49-10.8,17.57-17.75,19.43ZM371.63,241.84l-.6,1.01c-8.69,13.74-23.71,23.26-36.56,22.57-6.52.09-15.93-5.16-23.02-17.53,4.14-1.36,8.46-3.71,12.35-7.14,1.96,1.41,4.3,2.61,7,3.2,1.02.22,2.2.38,3.49.38,3.21,0,7.18-.98,11.47-4.38,4.81-4.81,6.44-10.35,4.85-17.49-2.82-8.54-9.53-11.12-14.31-12.03-.27-5.63-1.81-11.14-4.48-16.14,2.05-.65,4.64-1.36,7.15-1.93,8.49-1.57,18.35-2.62,27.19,1.67.59.28,1.14.58,1.7.89.53.3,1.04.61,1.59.96,7.15,4.53,10.61,10.99,10.57,19.46-.82,14.14-4.94,20.88-8.38,26.5ZM335.17,221.41c2.53.62,4.13,1.7,4.89,3.94.65,2.96.13,4.69-1.56,6.43-1.71,1.35-3.44,1.83-5.18,1.51-.94-.17-1.76-.57-2.49-1,1.88-3.16,3.39-6.77,4.33-10.89Z"/>
        </g>
      </g>
    </g>
    <g>
      <g>
        <path class="cls-4" d="M10.24,67.3c0,37.12,30.21,67.3,67.33,67.3s67.32-30.19,67.32-67.3S114.69,0,77.57,0,10.24,30.19,10.24,67.3"/>
        <path class="cls-5" d="M11.69,67.3c0,36.31,29.55,65.86,65.88,65.86s65.87-29.55,65.87-65.86S113.9,1.45,77.57,1.45,11.69,30.99,11.69,67.3"/>
        <path class="cls-6" d="M140.56,67.3c0,34.78-28.2,62.98-62.99,62.98S14.58,102.08,14.58,67.3,42.77,4.32,77.57,4.32s62.99,28.2,62.99,62.97"/>
        <path class="cls-4" d="M128.09,67.3c0,27.9-22.62,50.51-50.52,50.51s-50.53-22.61-50.53-50.51,22.62-50.51,50.53-50.51,50.52,22.61,50.52,50.51"/>
        <path class="cls-5" d="M77.57,115.58c-26.67,0-48.38-21.69-48.38-48.36s21.71-48.35,48.38-48.35,48.38,21.69,48.38,48.35-21.7,48.36-48.38,48.36ZM77.57,19.59c-26.28,0-47.66,21.37-47.66,47.63s21.38,47.65,47.66,47.65,47.65-21.37,47.65-47.65-21.38-47.63-47.65-47.63ZM77.57,111.34c-24.34,0-44.14-19.79-44.14-44.13s19.8-44.11,44.14-44.11,44.13,19.79,44.13,44.11-19.8,44.13-44.13,44.13ZM77.57,23.83c-23.94,0-43.42,19.46-43.42,43.39s19.47,43.41,43.42,43.41,43.41-19.47,43.41-43.41-19.47-43.39-43.41-43.39Z"/>
      </g>
      <g>
        <polygon class="cls-5" points="46.83 110.68 50.01 112.44 49.21 113.88 47.91 113.16 47.14 114.53 48.3 115.18 47.54 116.55 46.38 115.91 44.7 118.95 42.81 117.91 46.83 110.68"/>
        <path class="cls-5" d="M52.74,119.47c-.4.73-.7,1.24-.9,1.52-.2.28-.46.5-.78.65-.32.15-.67.21-1.05.18-.38-.03-.78-.16-1.19-.39-.38-.21-.71-.46-.94-.76-.23-.29-.38-.62-.42-.98-.06-.36-.01-.69.11-1.02.12-.32.4-.84.81-1.59l.68-1.24c.4-.73.7-1.24.9-1.52.2-.28.46-.51.77-.66.32-.14.67-.2,1.06-.17.38.03.77.16,1.19.39.38.21.7.47.93.76.24.31.38.63.44.99.05.35.01.69-.12,1.01-.13.32-.4.85-.81,1.59l-.67,1.24ZM52.16,116.05c.19-.34.29-.57.3-.68.01-.11-.04-.2-.16-.27-.1-.06-.19-.06-.28,0-.09.05-.24.26-.45.63l-1.86,3.37c-.24.42-.36.7-.38.81-.02.11.03.21.16.28.13.07.24.06.34-.04.1-.09.27-.34.5-.77l1.83-3.34"/>
        <path class="cls-5" d="M58.01,122.16c-.34.75-.6,1.28-.78,1.58-.18.31-.42.54-.73.72-.31.17-.65.25-1.03.25-.39,0-.79-.11-1.22-.29-.4-.19-.73-.42-.99-.71-.26-.27-.42-.58-.51-.94-.07-.35-.06-.69.05-1.02.1-.33.33-.88.68-1.65l.59-1.29c.35-.75.61-1.28.78-1.58.19-.29.43-.53.73-.71.31-.18.65-.25,1.03-.25.38,0,.79.1,1.21.3.4.19.73.42.99.69.26.28.43.6.5.94.08.36.06.7-.04,1.02-.11.33-.34.88-.69,1.66l-.59,1.28ZM57.19,118.79c.16-.34.24-.58.24-.7,0-.11-.05-.19-.17-.25-.1-.06-.2-.05-.29.01-.09.06-.22.27-.4.66l-1.61,3.5c-.2.44-.31.72-.32.84-.01.12.06.21.18.27.14.06.25.03.33-.06.09-.1.24-.37.45-.82l1.58-3.46"/>
        <polygon class="cls-5" points="65.1 118.94 64.63 120.52 63.41 120.16 61.53 126.5 59.47 125.89 61.34 119.56 60.12 119.18 60.6 117.61 65.1 118.94"/>
        <path class="cls-5" d="M67.22,119.38l2.11.37c.67.12,1.16.26,1.49.43.32.18.57.43.72.79.15.35.17.88.05,1.58-.09.48-.22.8-.4.96-.19.16-.51.24-.96.27.46.2.77.44.9.73.12.29.14.7.05,1.23l-.14.75c-.1.55-.24.95-.41,1.2-.18.24-.41.38-.7.44-.29.05-.86,0-1.72-.16l-2.45-.44,1.46-8.15ZM69.09,121.15l-.33,1.81c.1.01.17.02.22.03.2.03.35,0,.42-.08.07-.1.15-.38.24-.86.04-.26.05-.44.02-.55-.03-.11-.08-.19-.15-.23-.07-.03-.21-.08-.43-.12M68.53,124.23l-.41,2.28c.31.03.5.02.6-.04.1-.07.18-.27.23-.6l.14-.76c.06-.35.06-.57,0-.65-.06-.09-.25-.16-.57-.23"/>
        <path class="cls-5" d="M76.32,120.2l.91,8.32-2.2-.08-.05-1.5-.77-.02-.19,1.48-2.23-.09,1.41-8.22,3.11.12ZM74.97,125.48c-.07-.93-.14-2.1-.19-3.48-.28,1.57-.46,2.72-.54,3.44l.73.03"/>
        <polygon class="cls-5" points="84.42 119.86 84.85 126.46 86.15 126.37 86.25 128.03 82.8 128.25 82.27 120 84.42 119.86"/>
        <polygon class="cls-5" points="80.39 120.13 80.57 126.75 81.87 126.71 81.91 128.36 78.46 128.45 78.24 120.19 80.39 120.13"/>
        <path class="cls-5" d="M93.44,122.01l-2.13.31-.21-1.42c-.06-.41-.12-.67-.19-.76-.06-.1-.16-.14-.32-.11-.18.03-.28.11-.3.24-.03.14-.02.41.05.82l.58,3.8c.05.4.12.66.18.77.07.11.18.15.34.13.16-.02.25-.1.28-.23.03-.13.02-.42-.05-.86l-.15-1.02,2.13-.33.05.33c.12.85.15,1.45.09,1.82-.07.38-.29.73-.66,1.05-.37.33-.85.54-1.46.63-.62.09-1.15.06-1.59-.11-.44-.16-.75-.44-.94-.81-.2-.38-.35-.98-.47-1.77l-.36-2.39c-.09-.59-.13-1.04-.14-1.34,0-.3.08-.6.24-.9.16-.31.41-.57.73-.78.33-.2.73-.34,1.19-.42.63-.09,1.16-.05,1.61.14.44.18.76.44.94.78.19.35.33.9.45,1.66l.12.79"/>
        <polygon class="cls-5" points="96.3 117.25 98.34 123.55 99.58 123.15 100.09 124.72 96.8 125.79 94.26 117.92 96.3 117.25"/>
        <path class="cls-5" d="M103.25,114.28l2.2,5.07c.25.58.41.99.47,1.24.06.25.06.53-.02.85-.08.33-.25.62-.49.88-.25.26-.58.47-.99.65-.45.2-.89.29-1.3.29s-.76-.08-1.03-.25c-.28-.16-.49-.37-.64-.63-.15-.25-.41-.81-.77-1.67l-1.95-4.49,1.98-.85,2.46,5.69c.14.33.25.53.33.61.07.08.17.09.28.05.13-.06.19-.14.18-.27-.02-.12-.1-.36-.26-.75l-2.43-5.59,1.97-.85"/>
        <path class="cls-5" d="M104.99,112.64l1.88-1.05c.59-.33,1.06-.54,1.42-.62s.71-.02,1.05.15c.34.16.69.58,1.05,1.2.23.41.33.75.29.99-.04.25-.23.52-.57.83.49-.15.87-.15,1.15,0,.28.14.55.45.81.91l.37.67c.28.49.42.88.44,1.17.02.31-.07.56-.27.79-.19.23-.67.54-1.42.97l-2.18,1.22-4.04-7.21ZM107.56,112.81l.9,1.62c.08-.06.14-.09.18-.11.19-.11.28-.22.28-.33,0-.12-.12-.4-.36-.84-.13-.21-.24-.36-.33-.44-.1-.06-.18-.08-.26-.06-.08,0-.21.06-.41.16M109.08,115.54l1.13,2.02c.26-.16.4-.29.44-.41.03-.11-.03-.32-.2-.62l-.38-.67c-.17-.3-.31-.47-.41-.5-.1-.02-.29.03-.58.18"/>
        <path class="cls-5" d="M42.98,112.92s-5.04,1.64-5.27-1.12c0,0-.36-1.99,2.63-1.13l2.63,2.26"/>
        <path class="cls-5" d="M40.45,110.47l2.67,2.3s.34-6.03-2.75-5.96c0,0-1.25.43.08,3.67"/>
        <path class="cls-5" d="M39.08,109.56s-5.04,1.65-5.27-1.11c0,0-.35-2,2.63-1.14l2.64,2.26"/>
        <path class="cls-5" d="M36.6,107.13l2.67,2.3s.34-6.03-2.76-5.96c0,0-1.25.42.08,3.66"/>
        <path class="cls-5" d="M34.9,106.02s-5.19,1.08-5.12-1.7c0,0-.13-2.02,2.74-.84l2.37,2.54"/>
        <path class="cls-5" d="M32.69,103.33l2.4,2.57s1.01-5.95-2.08-6.23c0,0-1.29.28-.32,3.66"/>
        <path class="cls-5" d="M31.47,102.2s-5.29.4-4.86-2.35c0,0,.14-2.01,2.83-.47l2.02,2.83"/>
        <path class="cls-5" d="M29.62,99.24l2.05,2.86s1.76-5.77-1.27-6.45c0,0-1.31.12-.79,3.59"/>
        <path class="cls-5" d="M28.55,97.89s-5.3.12-4.73-2.6c0,0,.24-2.01,2.85-.33l1.88,2.93"/>
        <path class="cls-5" d="M26.87,94.81l1.9,2.96s2.06-5.66-.92-6.49c0,0-1.32.04-.98,3.54"/>
        <path class="cls-5" d="M25.88,93.17s-5.28-.6-4.33-3.22c0,0,.5-1.96,2.87.06l1.46,3.15"/>
        <path class="cls-5" d="M24.6,89.94l1.48,3.19s2.82-5.34-.02-6.57c0,0-1.32-.14-1.45,3.37"/>
        <path class="cls-5" d="M23.67,88.28s-5.21-1.01-4.06-3.55c0,0,.66-1.9,2.85.29l1.22,3.26"/>
        <path class="cls-5" d="M22.67,84.9l1.22,3.31s3.22-5.1.49-6.55c0,0-1.3-.23-1.71,3.24"/>
        <path class="cls-5" d="M21.92,82.99s-4.92-1.98-3.31-4.25c0,0,1.01-1.75,2.75.82l.57,3.43"/>
        <path class="cls-5" d="M21.54,79.51l.58,3.48s4.13-4.4,1.71-6.34c0,0-1.23-.48-2.29,2.87"/>
        <path class="cls-5" d="M20.86,77.52s-4.32-2.54-2.5-4.44c0,0,1.18-1.49,2.45,1.16l.06,3.28"/>
        <path class="cls-5" d="M21.04,74.22l.05,3.32s4.47-3.53,2.49-5.68c0,0-1.09-.62-2.54,2.35"/>
        <path class="cls-5" d="M20.6,72.14s-4-2.35-2.32-4.1c0,0,1.1-1.4,2.27,1.06l.05,3.04"/>
        <path class="cls-5" d="M20.79,69.08l.05,3.08s4.14-3.27,2.31-5.26c0,0-1.01-.58-2.35,2.17"/>
        <path class="cls-5" d="M20.41,66.73s-3.76-2.71-1.93-4.3c0,0,1.23-1.27,2.16,1.27l-.23,3.02"/>
        <path class="cls-5" d="M20.87,63.72l-.24,3.07s4.43-2.87,2.78-5.02c0,0-.94-.66-2.54,1.95"/>
        <path class="cls-5" d="M20.86,61.89s-3.31-2.95-1.4-4.28c0,0,1.29-1.09,1.93,1.42l-.53,2.86"/>
        <path class="cls-5" d="M21.59,59.03l-.54,2.89s4.49-2.28,3.15-4.49c0,0-.84-.73-2.62,1.59"/>
        <path class="cls-5" d="M21.63,57.22s-3.06-2.74-1.29-3.97c0,0,1.19-1.01,1.78,1.33l-.49,2.65"/>
        <path class="cls-5" d="M22.32,54.6l-.5,2.69s4.17-2.11,2.92-4.16c0,0-.77-.68-2.43,1.48"/>
        <path class="cls-5" d="M22.57,52.7s-2.45-3.3-.46-4.15c0,0,1.38-.73,1.48,1.66l-1.02,2.49"/>
        <path class="cls-5" d="M23.75,50.25l-1.03,2.53s4.51-1.23,3.71-3.48c0,0-.62-.81-2.68.96"/>
        <path class="cls-5" d="M23.79,48.64s-2.15-3.5-.1-4.17c0,0,1.43-.63,1.32,1.77l-1.22,2.4"/>
        <path class="cls-5" d="M25.19,46.29l-1.24,2.43s4.6-.83,3.99-3.15c0,0-.55-.86-2.75.72"/>
        <path class="cls-5" d="M25.49,45.09s-1.63-2.64-.08-3.14c0,0,1.08-.47,1,1.34l-.92,1.8"/>
        <path class="cls-5" d="M26.59,43.35l-.94,1.83s3.46-.62,3.01-2.37c0,0-.41-.66-2.07.55"/>
        <path class="cls-5" d="M27.37,41.74s-1.44-2.33-.07-2.77c0,0,.95-.42.88,1.18l-.81,1.59"/>
        <path class="cls-5" d="M28.33,40.24l-.83,1.61s3.06-.55,2.65-2.09c0,0-.36-.58-1.83.48"/>
        <path class="cls-5" d="M113.87,111.89s5.08,1.51,5.25-1.27c0,0,.29-2-2.67-1.06l-2.58,2.33"/>
        <path class="cls-5" d="M116.35,109.38l-2.62,2.36s-.5-6,2.6-6.03c0,0,1.27.39.02,3.67"/>
        <path class="cls-5" d="M117.68,108.43s5.09,1.51,5.25-1.26c0,0,.3-2-2.66-1.06l-2.58,2.32"/>
        <path class="cls-5" d="M120.11,105.92l-2.61,2.36s-.5-6.01,2.6-6.03c0,0,1.25.4,0,3.67"/>
        <path class="cls-5" d="M121.78,104.78s5.22.94,5.06-1.84c0,0,.08-2.02-2.76-.76l-2.31,2.6"/>
        <path class="cls-5" d="M123.91,102.03l-2.33,2.63s-1.16-5.91,1.91-6.27c0,0,1.29.24.42,3.64"/>
        <path class="cls-5" d="M125.09,100.86s5.3.25,4.79-2.48c0,0-.19-2.02-2.84-.4l-1.96,2.88"/>
        <path class="cls-5" d="M126.87,97.85l-1.98,2.91s-1.92-5.71,1.09-6.47c0,0,1.32.08.89,3.56"/>
        <path class="cls-5" d="M127.91,96.49s5.31-.03,4.66-2.72c0,0-.29-2.01-2.86-.25l-1.8,2.98"/>
        <path class="cls-5" d="M129.51,93.35l-1.82,3.01s-2.22-5.6.75-6.52c0,0,1.32.01,1.07,3.51"/>
        <path class="cls-5" d="M130.45,91.69s5.25-.73,4.23-3.33c0,0-.55-1.94-2.86.14l-1.37,3.19"/>
        <path class="cls-5" d="M131.64,88.43l-1.39,3.23s-2.96-5.26-.15-6.56c0,0,1.31-.17,1.54,3.33"/>
        <path class="cls-5" d="M132.53,86.74s5.18-1.15,3.97-3.65c0,0-.71-1.89-2.85.36l-1.12,3.29"/>
        <path class="cls-5" d="M133.45,83.34l-1.14,3.33s-3.35-5.01-.65-6.54c0,0,1.28-.27,1.79,3.21"/>
        <path class="cls-5" d="M134.13,81.41s4.87-2.11,3.21-4.34c0,0-1.06-1.72-2.72.9l-.49,3.44"/>
        <path class="cls-5" d="M134.42,77.91l-.47,3.49s-4.25-4.29-1.89-6.29c0,0,1.22-.51,2.36,2.8"/>
        <path class="cls-5" d="M135.05,75.91s4.25-2.65,2.39-4.5c0,0-1.23-1.47-2.41,1.21l.03,3.28"/>
        <path class="cls-5" d="M134.79,72.62l.04,3.32s-4.57-3.41-2.65-5.61c0,0,1.07-.64,2.61,2.29"/>
        <path class="cls-5" d="M135.16,70.53s3.94-2.45,2.21-4.17c0,0-1.13-1.35-2.24,1.14l.03,3.03"/>
        <path class="cls-5" d="M134.9,67.48l.03,3.07s-4.23-3.15-2.45-5.19c0,0,.99-.6,2.41,2.12"/>
        <path class="cls-5" d="M135.22,65.12s3.69-2.81,1.81-4.35c0,0-1.25-1.24-2.13,1.33l.32,3.02"/>
        <path class="cls-5" d="M134.67,62.12l.32,3.06s-4.5-2.74-2.92-4.95c0,0,.92-.69,2.59,1.88"/>
        <path class="cls-5" d="M134.64,60.29s3.23-3.05,1.28-4.32c0,0-1.32-1.06-1.88,1.48l.6,2.84"/>
        <path class="cls-5" d="M133.84,57.45l.6,2.87s-4.55-2.15-3.26-4.4c0,0,.81-.74,2.66,1.53"/>
        <path class="cls-5" d="M133.74,55.65s2.98-2.82,1.19-4.01c0,0-1.22-.97-1.75,1.38l.56,2.63"/>
        <path class="cls-5" d="M132.98,53.04l.57,2.67s-4.22-2-3.04-4.08c0,0,.76-.7,2.46,1.41"/>
        <path class="cls-5" d="M132.69,51.15s2.35-3.37.35-4.17c0,0-1.4-.7-1.44,1.7l1.09,2.47"/>
        <path class="cls-5" d="M131.44,48.74l1.1,2.49s-4.54-1.1-3.8-3.38c0,0,.6-.83,2.7.89"/>
        <path class="cls-5" d="M131.35,47.12s2.06-3.56,0-4.18c0,0-1.45-.58-1.28,1.81l1.29,2.36"/>
        <path class="cls-5" d="M129.9,44.81l1.31,2.39s-4.62-.71-4.07-3.04c0,0,.52-.88,2.76.66"/>
        <path class="cls-5" d="M129.56,43.62s1.55-2.69,0-3.15c0,0-1.09-.44-.96,1.36l.97,1.79"/>
        <path class="cls-5" d="M128.42,41.91l.98,1.8s-3.48-.53-3.06-2.29c0,0,.39-.66,2.08.49"/>
        <path class="cls-5" d="M127.6,40.32s1.36-2.37,0-2.77c0,0-.97-.4-.85,1.2l.86,1.57"/>
        <path class="cls-5" d="M126.6,38.84l.87,1.59s-3.07-.47-2.71-2.02c0,0,.34-.58,1.84.44"/>
        <path class="cls-5" d="M30.75,31.37l-1.55,1.75-.54-.48c-.24-.22-.42-.34-.53-.36s-.2.03-.3.14c-.1.11-.13.23-.09.37.05.14.16.29.34.46.23.21.44.34.63.38.18.05.47,0,.9-.14,1.24-.38,2.12-.55,2.63-.48.51.07,1.12.42,1.83,1.05.51.46.84.85.97,1.19.14.34.13.75-.01,1.25-.14.48-.42.96-.83,1.41-.45.5-.92.85-1.43,1.03-.5.19-.96.2-1.35.05-.39-.16-.85-.47-1.4-.95l-.47-.43,1.56-1.73.87.77c.27.24.46.37.58.39.12.02.24-.03.35-.16.11-.12.14-.25.1-.4-.04-.15-.16-.31-.35-.48-.42-.38-.75-.57-.98-.57-.24,0-.72.11-1.44.29-.72.19-1.22.3-1.49.33-.27.02-.58-.02-.92-.14-.33-.12-.69-.35-1.07-.7-.55-.49-.89-.92-1.02-1.29-.13-.37-.12-.77.01-1.22.14-.44.4-.89.8-1.33.43-.49.88-.83,1.35-1.03.46-.2.86-.25,1.2-.15.33.11.79.41,1.36.92l.28.25"/>
        <rect class="cls-5" x="32.67" y="25.16" width="2.51" height="9.65" transform="translate(-11.01 35.61) rotate(-48.61)"/>
        <polygon class="cls-5" points="37.12 20.31 43.65 27.42 42.03 28.91 38.09 26.56 41.07 29.79 39.52 31.21 32.99 24.1 34.54 22.68 38.51 24.93 35.57 21.73 37.12 20.31"/>
        <path class="cls-5" d="M46.12,19.11l-1.99,1.53-1.02-1.32c-.29-.39-.5-.61-.62-.67-.11-.07-.25-.05-.4.06-.16.13-.22.27-.18.42.05.15.21.42.51.81l2.73,3.55c.29.37.5.6.63.67.13.08.27.06.43-.06.15-.12.2-.24.16-.39-.05-.16-.23-.43-.55-.86l-.74-.96,2-1.53.23.3c.6.8.98,1.4,1.12,1.81.14.42.12.9-.07,1.45-.19.54-.57,1.03-1.14,1.46-.58.45-1.14.72-1.68.8-.54.08-1.02-.02-1.42-.3-.41-.28-.91-.79-1.48-1.55l-1.72-2.23c-.43-.55-.72-.98-.9-1.28s-.26-.66-.27-1.06c-.01-.4.1-.8.32-1.2.22-.4.55-.76.98-1.11.59-.45,1.15-.71,1.71-.77.56-.07,1.02.02,1.41.27.38.25.85.72,1.39,1.44l.56.73"/>
        <polygon class="cls-5" points="46.14 14.23 49.89 12.39 50.74 14.13 49.24 14.86 50.05 16.5 51.46 15.81 52.26 17.46 50.85 18.15 51.79 20.06 53.44 19.25 54.29 20.99 50.38 22.9 46.14 14.23"/>
        <path class="cls-5" d="M110.08,14.87l-4.7,8.43-2.1-1.18,2.52-4.51c.36-.66.57-1.05.6-1.2.05-.15.02-.3-.09-.44-.1-.15-.39-.36-.88-.63l-.21-.11.55-.98c1.14.35,2.16.33,3.07-.06l1.24.69"/>
        <path class="cls-5" d="M107.85,21.95l1.93,1.44c-.27.36-.43.59-.49.69-.06.1-.08.2-.06.32.02.12.1.22.21.31.1.07.2.1.32.09.11,0,.2-.06.28-.14.08-.1.23-.29.45-.57l.92-1.24c-.25.13-.51.18-.79.14-.27-.03-.54-.16-.83-.37-.36-.26-.6-.59-.72-.99-.13-.39-.13-.75,0-1.07.13-.32.36-.72.7-1.17l.46-.61c.41-.54.73-.93.97-1.16.24-.23.53-.39.88-.49.35-.08.72-.08,1.13.03.41.11.83.32,1.24.63.51.38.89.78,1.11,1.15.22.4.33.8.31,1.2-.02.4-.12.76-.32,1.08-.19.32-.6.91-1.24,1.76l-.8,1.07c-.69.92-1.16,1.53-1.42,1.82-.25.29-.59.5-.99.64-.4.13-.82.14-1.27.03-.44-.11-.88-.33-1.32-.66-.54-.4-.92-.83-1.14-1.26-.21-.43-.28-.86-.19-1.3.08-.43.31-.89.67-1.37M111.58,20.97c-.25.32-.35.56-.32.69.03.14.08.25.17.31.14.1.27.13.41.08.14-.05.31-.22.51-.5l1.05-1.39c.26-.34.4-.59.41-.74.02-.14-.04-.27-.18-.37-.08-.06-.2-.08-.36-.07-.15.01-.36.2-.62.55l-1.07,1.45"/>
        <path class="cls-5" d="M113.38,26.53l1.74,1.66c-.31.33-.5.54-.57.62-.07.1-.11.2-.1.32,0,.12.06.23.16.33.1.1.2.14.31.14.11,0,.21-.04.29-.12.1-.08.27-.25.51-.51l1.06-1.11c-.26.11-.53.12-.79.05-.27-.07-.53-.22-.78-.47-.32-.31-.52-.66-.6-1.07-.08-.4-.04-.76.12-1.07.16-.3.45-.66.84-1.07l.53-.56c.46-.49.84-.83,1.1-1.03.26-.2.58-.33.93-.37.35-.06.73,0,1.12.16.4.16.77.42,1.15.78.46.45.79.88.97,1.29.17.41.23.82.16,1.22-.07.4-.22.74-.45,1.04-.23.3-.71.82-1.44,1.59l-.93.97c-.8.84-1.34,1.38-1.62,1.64-.29.27-.65.43-1.07.51-.41.08-.83.05-1.25-.12-.42-.16-.83-.44-1.23-.81-.5-.47-.82-.94-.98-1.4-.16-.45-.17-.89-.03-1.31.14-.42.42-.85.83-1.29M117.21,26.02c-.28.29-.42.5-.41.65.02.14.06.26.14.33.12.12.25.16.4.12.14-.03.33-.18.58-.44l1.2-1.26c.29-.3.46-.53.49-.68.04-.15,0-.29-.13-.4-.07-.07-.19-.11-.33-.11-.15,0-.38.15-.69.48l-1.24,1.3"/>
        <path class="cls-5" d="M125.69,32.99l-1.61-1.79c.33-.3.54-.49.62-.58.08-.08.12-.18.12-.3,0-.12-.05-.23-.15-.34-.08-.09-.17-.14-.28-.15-.11,0-.21.02-.31.09-.1.07-.28.23-.55.47l-1.15,1.02c.28-.08.54-.07.8.02.25.09.5.26.73.53.29.33.47.7.51,1.11.05.41-.02.76-.21,1.05-.18.29-.49.63-.92,1.01l-.57.51c-.5.45-.9.76-1.18.94-.28.19-.6.28-.96.31-.36.01-.73-.07-1.11-.26-.37-.19-.73-.47-1.08-.86-.43-.49-.72-.94-.86-1.37-.14-.43-.16-.84-.06-1.23.1-.39.28-.72.53-.99.25-.27.77-.76,1.57-1.47l.99-.89c.86-.77,1.44-1.27,1.75-1.5.32-.24.68-.38,1.1-.43.41-.05.83.03,1.24.23.41.2.8.5,1.16.91.46.5.74.99.87,1.46.12.47.1.9-.07,1.31-.16.4-.48.8-.93,1.2M121.83,33.2c.25-.23.41-.41.45-.55.04-.14,0-.27-.11-.4-.11-.12-.24-.17-.38-.15-.14.02-.34.14-.6.39l-1.3,1.16c-.32.27-.5.49-.55.63-.05.14-.02.28.1.41.07.07.18.12.33.14.15.02.39-.12.72-.42l1.35-1.2"/>
        <polygon class="cls-5" points="54.86 13.99 53.98 15.31 53.47 13.8 51.94 13.37 53.21 12.42 53.16 10.83 54.46 11.74 55.96 11.2 55.48 12.72 56.46 13.97 54.86 13.99"/>
        <polygon class="cls-5" points="62.29 11.13 61.13 12.24 60.96 10.66 59.56 9.91 61 9.25 61.29 7.68 62.35 8.85 63.93 8.64 63.15 10.02 63.85 11.46 62.29 11.13"/>
        <polygon class="cls-5" points="67.11 16.17 65.82 17.11 65.85 15.52 64.56 14.59 66.09 14.12 66.58 12.61 67.48 13.92 69.08 13.92 68.11 15.18 68.61 16.7 67.11 16.17"/>
        <polygon class="cls-5" points="75.03 15.29 73.67 16.12 73.85 14.54 72.64 13.5 74.19 13.17 74.81 11.71 75.6 13.08 77.19 13.22 76.12 14.4 76.49 15.95 75.03 15.29"/>
        <polygon class="cls-5" points="83.13 15.35 81.67 15.99 82.05 14.45 80.99 13.26 82.58 13.14 83.39 11.77 83.99 13.24 85.55 13.58 84.33 14.61 84.48 16.19 83.13 15.35"/>
        <polygon class="cls-5" points="91.06 16.42 89.53 16.9 90.07 15.41 89.15 14.11 90.75 14.16 91.69 12.88 92.13 14.41 93.65 14.92 92.32 15.81 92.32 17.4 91.06 16.42"/>
        <polygon class="cls-5" points="70.01 9.73 68.7 10.64 68.79 9.05 67.52 8.08 69.06 7.66 69.59 6.16 70.45 7.49 72.05 7.53 71.05 8.77 71.51 10.3 70.01 9.73"/>
        <polygon class="cls-5" points="78.11 9.29 76.71 10.04 76.97 8.47 75.82 7.37 77.4 7.13 78.1 5.69 78.81 7.11 80.39 7.35 79.25 8.45 79.53 10.03 78.11 9.29"/>
        <polygon class="cls-5" points="86.27 9.72 84.79 10.32 85.21 8.79 84.18 7.56 85.78 7.49 86.63 6.14 87.19 7.63 88.74 8.03 87.49 9.01 87.6 10.6 86.27 9.72"/>
        <polygon class="cls-5" points="93.88 11.23 92.34 11.59 93 10.14 92.18 8.78 93.76 8.95 94.81 7.75 95.12 9.31 96.59 9.93 95.2 10.72 95.06 12.31 93.88 11.23"/>
        <polygon class="cls-5" points="101.51 14.13 99.92 14.14 100.87 12.87 100.36 11.36 101.87 11.88 103.16 10.93 103.13 12.52 104.43 13.45 102.91 13.92 102.43 15.43 101.51 14.13"/>
      </g>
      <g>
        <polygon class="cls-5" points="55.09 40.11 58.27 40.11 59.29 36.36 56.09 36.36 57.1 32.61 60.68 32.61 61.73 28.68 53.04 28.68 47.75 48.38 52.87 48.38 55.09 40.11"/>
        <path class="cls-5" d="M59.39,41.39c-.51,1.93-.75,3.37-.68,4.34.06.96.5,1.71,1.33,2.25.83.54,2,.82,3.5.82s2.75-.32,3.91-.96c1.16-.65,2-1.4,2.52-2.25.51-.85,1.05-2.3,1.59-4.33l.21-.77h-5.12l-.66,2.48c-.29,1.08-.54,1.77-.73,2.06-.2.29-.49.44-.88.44s-.62-.14-.66-.44c-.03-.29.07-.93.33-1.88l2.45-9.15c.27-1,.5-1.65.7-1.95.19-.31.51-.46.93-.46.37,0,.59.12.63.38.05.25-.07.87-.33,1.86l-.92,3.42h5.12l.5-1.87c.49-1.83.7-3.19.63-4.06-.07-.87-.53-1.59-1.36-2.18-.83-.58-2-.87-3.5-.87-1.11,0-2.15.19-3.11.56-.96.38-1.76.9-2.42,1.55-.66.66-1.14,1.33-1.42,2.05-.29.71-.62,1.77-1.01,3.19l-1.54,5.76Z"/>
        <path class="cls-5" d="M66.97,85.11c-1.08-.7-1.68-1.29-1.81-1.78-.15-.49-.08-1.21.2-2.18.21-.75.51-1.31.86-1.68.37-.36.8-.55,1.27-.55s.74.14.85.42c.11.27.03.91-.27,1.91l-.63,2.15h7.66l.33-1.15c.68-2.31.91-3.94.7-4.91-.21-.96-.97-1.75-2.29-2.39-1.32-.63-3.05-.95-5.18-.95-1.4,0-2.68.16-3.88.45l1.77-6.61c1.22-4.54,1.96-7.72,2.23-9.53.27-1.81.04-3.5-.7-5.04-.73-1.54-1.93-2.7-3.61-3.47-1.67-.77-3.69-1.16-6.05-1.16-2.49,0-4.79.41-6.87,1.23-2.09.82-3.89,1.99-5.4,3.52-1.51,1.52-2.62,3.21-3.32,5.05-.7,1.85-1.65,4.98-2.83,9.41l-2.02,7.54c-1.22,4.54-1.96,7.73-2.23,9.54-.27,1.81-.03,3.49.7,5.03.73,1.55,1.93,2.71,3.61,3.48,1.67.77,3.69,1.16,6.05,1.16,2.49,0,4.79-.41,6.88-1.23,2.09-.83,3.89-2,5.4-3.52.19-.19.35-.39.52-.58.57.48,1.3,1.05,2.23,1.74,1.69,1.23,2.71,2.1,3.08,2.63.35.53.28,1.65-.22,3.36-.23.77-.54,1.37-.91,1.76-.39.39-.85.59-1.39.59s-.87-.16-1-.47c-.12-.32-.02-1.02.29-2.11l1.03-3.54h-7.66l-.55,1.9c-.64,2.17-.89,3.86-.75,5.04.14,1.19.87,2.16,2.21,2.93,1.33.76,3.1,1.15,5.31,1.15,2.01,0,3.87-.33,5.57-.99,1.71-.66,2.96-1.49,3.78-2.47.81-.98,1.53-2.5,2.13-4.57.83-2.85.96-4.91.37-6.2-.58-1.28-2.4-2.92-5.47-4.93ZM51.54,81.18c-.7,2.6-1.25,4.25-1.66,4.94-.41.69-1.01,1.03-1.79,1.03s-1.19-.3-1.24-.9c-.05-.6.27-2.18.96-4.75l5.52-20.6c.61-2.27,1.14-3.63,1.59-4.1.44-.46.97-.7,1.58-.7.72,0,1.11.28,1.19.86.07.58-.16,1.88-.71,3.93l-5.43,20.28Z"/>
        <path class="cls-5" d="M71.35,73.62l1.32-3.1h1.94l-.71,3.1h5.54l2.48-17.24h-7.83l-8.34,17.24h5.6ZM76.98,60.21c-.66,2.88-1.16,5.3-1.53,7.25h-1.85c.63-1.53,1.76-3.95,3.38-7.25Z"/>
        <path class="cls-5" d="M106.06,66.9l-7,17.46-.28-9.56,10.94-18.27h-9.85l-8.96,15.73,4.22-15.73h-10.52l-10.85,40.49h10.52l4.65-17.36-.36,17.36h10.88v-.28s2.69,0,2.69,0l1.9-5.36h2.79l-1.02,5.36h7.94l3.56-29.84h-11.22ZM108.01,86.08h-2.65c.9-2.64,2.52-6.82,4.84-12.54-.94,4.99-1.66,9.17-2.19,12.54Z"/>
      </g>
    </g>
  </g>
</svg>