<?xml version="1.0" encoding="UTF-8"?>
<svg id="_レイヤー_2" data-name="レイヤー 2" xmlns="http://www.w3.org/2000/svg" xmlns:xlink="http://www.w3.org/1999/xlink" viewBox="0 0 426.45 446.54">
  <defs>
    <style>
      .cls-1 {
        fill: none;
      }

      .cls-2 {
        fill: #221815;
      }

      .cls-3 {
        fill: #ffe100;
      }

      .cls-4 {
        fill: #89357c;
      }

      .cls-5 {
        fill: #fff;
      }

      .cls-6 {
        fill: #af79a3;
      }

      .cls-7 {
        clip-path: url(#clippath);
      }

      .cls-8 {
        fill: #8aba29;
      }
    </style>
    <clipPath id="clippath">
      <path class="cls-1" d="M390.94,221.57c.07-12.49-5.34-22.53-15.6-29.03-.69-.44-1.39-.87-2.1-1.27-.77-.43-1.55-.85-2.34-1.22-11.64-5.67-23.69-4.48-34.15-2.53-5.83,1.33-9.45,2.5-11.74,3.46-1.46-1.46-3.03-2.84-4.74-4.07-.97-.68-6.37-4.22-14.15-5.76-.48-2.22-.98-3.96-1.26-4.88-.01-.05-.23-.79-.25-.84-1.29-3.88-4.26-11.63-9.68-19.89-6.8-10.34-15.02-17.72-24.49-21.96-15.15-6.65-29.01-3.93-42.64,8.55-6.19,6.4-11.53,14.18-15.87,23.1-.54,1.12-4.52,10.56-4.96,11.86-1.56,4.27-6.56,19.27-5.14,33.03.89,10.47,5.87,20.97,13,27.42.12.11.54.44.67.53,7.94,6.03,16.67,9.07,25.99,9.07,1.13,0,2.27-.05,3.42-.13,12.05-.93,21.23-4.61,21.51-4.72,1.18-.45,2.22-.93,3.33-1.4,3.32,4.59,7.6,8.48,12.65,11.05,6.29,3.17,11.23,4.29,15.81,4.29.67,0,1.31-.14,1.97-.18.25.54.51,1.09.92,1.73,9.83,18.52,24.19,24.87,33.25,24.47.58.03,1.17.05,1.76.05,15.78,0,33.72-11.18,44.46-28.18l.53-.88c3.53-5.77,8.87-14.5,9.85-31.66Z"/>
    </clipPath>
  </defs>
  <g id="_レイヤー_1-2" data-name="レイヤー 1">
    <g>
      <path class="cls-4" d="M426.45,229.03c0,117.76-84.41,196.43-213.22,196.43S0,346.79,0,229.03,95.46,15.81,213.22,15.81s213.22,95.46,213.22,213.23Z"/>
      <g>
        <g>
          <g>
            <path class="cls-2" d="M419.52,297.59c-1.3-.72-2.84-1.24-3.8-1.44-6.81-1.4-13.64-2.18-20.31-2.33-3.7-.09-7.16,0-10.49.16-1.79-20.11-8.09-39.31-19.27-58.27,1.62-9.72,2.12-22.36,2.53-32.66l.21-5.17c.84-18.75-5.88-43.26-14.38-52.47-2.12-2.29-5.31-4.04-8.12-4.45-21.54-3.21-49.87,5.34-81.73,24.67l-4-.6c-26.18-3.9-58.77-8.75-103.06,1.53-1.4.32-2.95.78-4.54,1.26-2.37.71-6.76,1.98-7.92,1.68-8.49-4.64-30.28-15.71-49.14-18.5-17.53-2.61-29.09.83-34.52,10.31-15.37,28.86-7.65,69.07-4.44,79.47-16,31.01-15.7,63.87-15.6,67.47-.01.84.03,1.72.04,2.58-.84.06-1.6.09-2.48.16-8.93.71-17.8,1.58-28.07,4.44-3.34.92-6.41,3.14-5.81,5.59.47,1.92,2.84,2.35,4.83,2.35,1.54,0,2.85-.25,2.89-.26,10.63-2.16,16.02-2.75,23.47-3.55l3.14-.34c.81-.09,1.61-.13,2.42-.2.81,9.68,2.85,19.99,6.48,30.18-4.44,1.67-9.56,3.89-15.71,7.07-.04.02-3.98,2.08-4.74,4.62-.23.78-.15,1.56.23,2.24.62,1.11,1.92,1.46,3.31,1.46,2.3,0,4.82-.95,4.86-.96,1.84-.81,3.57-1.58,5.21-2.31,3.72-1.66,6.96-3.05,10-4.23,3.93,8.9,9.09,17.53,15.73,25.34-6.84,3.95-15.09,9.33-24.43,16.6-1.94,1.52-3.19,3.45-3.41,5.32-.12,1.04.11,1.99.65,2.67.41.51,1.18.73,2.1.73,1.62,0,3.71-.68,5.14-1.7,10.26-7.27,19.16-12.9,26.15-17.04,7.51,7.31,16.5,13.67,27.22,18.49,35.27,15.84,67.77,19.4,108.95,20l4.04-.06,4.36.06c47.38-.69,84.81-7.46,111.26-20.11,15.35-7.34,27.56-17.24,36.7-29.54,7.64,2.61,16.9,6.62,25.83,12.66,1.14.79,3.45,2.16,5.5,2.16.92,0,1.79-.27,2.47-1.01.29-.3.61-.85.53-1.73-.17-1.86-2.23-4.46-3.56-5.43-9.12-6.66-18.29-10.95-26.01-13.74,5.25-8.67,9.17-18.37,11.72-29.12,5.64.9,12.22,2.35,19.44,4.77.04,0,2.17.71,4.26.71,1.57,0,3.11-.39,3.7-1.78.27-.63.26-1.33-.03-2.02-1.04-2.48-5.39-4.32-5.43-4.33-7.12-2.82-14.12-4.47-20.31-5.49,1.35-8.14,2.01-16.8,1.93-26,.02-1.57-.07-3.12-.1-4.67,2.94-.16,5.97-.26,9.16-.22,4.96.05,10.48.42,15.35.74,1.52.1,2.99.19,4.4.28,3.19.18,7.1-.41,7.57-2.73.17-.81-.11-2.03-2.36-3.29Z"/>
            <path class="cls-5" d="M354.53,235.72c1.76-9.13,2.29-22.42,2.71-33.11l.22-5.23c.76-16.97-5.67-38.25-11.49-44.55-.51-.56-1.4-.99-1.72-1.06-18.78-2.76-45.27,5.51-74.57,23.31-2.08,1.26-3.22,1.95-5.23,1.65l-5.91-.87c-25.25-3.76-56.69-8.45-98.98,1.36-1.2.27-2.52.68-3.88,1.08-5.38,1.6-11.46,3.43-16.3.79-7.98-4.35-28.38-14.75-45.5-17.28-12.59-1.85-20.45-.25-23.34,4.78-10.47,19.65-8.42,46.45-5.73,61.45.72-.85,1.42-1.62,2.07-2.27,2.63-2.63,5.32-3.6,7.16-2.33,1.91,1.32,1.15,4.66-.08,7.33-1.22,2.65-3.69,7.76-5.63,11.18,0,0,0,.01,0,.02-16.85,29.6-16.54,62.53-16.45,66.2,0,.74.03,1.51.04,2.26,9.31.02,14.99,1,17.89,1.74l.21.05c.06.01,7.62,1.41,7.18,5.04-.39,3.23-4.98,2.99-7.2,2.87l-.82-.06c-2.44-.37-8.96-1.24-16.86-1.4.79,8.79,2.71,18.09,6.01,27.25,4.52-1.04,7.71-1.28,9.83-1.4l.29-.02c2.79-.15,9.39-.25,9.73,3.07.3,2.87-4.87,4.24-7.11,4.7-1.04.21-2.16.36-3.41.53-1.75.24-3.74.52-6.09,1.02,3.77,8.24,8.76,16.15,15.14,23.24,6.63-3.22,10.45-4.4,10.53-4.42.06-.03,6.57-1.68,7.84,1.28,1.09,2.56-1.67,3.92-4.33,5.24-.85.42-1.74.86-2.55,1.35,0,0-.09.05-.26.13-1.03.51-2.75,1.4-5.02,2.62,6.17,5.56,13.32,10.43,21.71,14.2,33.54,15.07,64.84,18.46,104.45,19.04l4.04-.06,4.36.06c44.98-.67,81.88-7.25,106.54-19.04,12.36-5.91,22.38-13.54,30.16-22.9-3.71-.86-5.98-1.18-6.04-1.19-1.42-.14-5.85-1.17-7.34-3.19-.44-.61-.61-1.28-.47-1.94.75-3.62,7.32-2.9,10.09-2.43.35.03,3.75.38,9.03,1.65,5.2-7.94,9.03-16.98,11.53-27.1-2.33-.14-4.2-.17-5.48-.17-2.44.01-5.28-.05-5.28-.05-.74-.07-6.59-.76-6.82-3.68-.03-.39.05-1,.6-1.64,1.31-1.53,4.62-2.39,6.03-2.5l.31-.03c.84-.08,3.07-.3,5.31-.32h.61c1.62,0,3.81.05,6.42.22,1.29-7.68,1.93-15.9,1.86-24.74.01-1.24-.06-2.46-.09-3.69-6.85.85-12.47,1.97-16.3,2.74-1.96.39-3.38.68-4.24.78-1.38.2-2.56.3-3.55.3-2.31,0-3.58-.56-4-1.72-.29-.84-.23-1.74.18-2.59.74-1.52,2.53-2.81,5.19-3.72,2.09-.71,10.2-3.2,22.24-4.68-1.72-19.09-7.86-37.28-18.78-55.31-.7-1.16-.95-2.54-.69-3.87Z"/>
          </g>
          <g>
            <path class="cls-2" d="M115.31,317.4c-3.5,7.1-3.52,18.45,1.21,24.48,2.92,3.45,7.8,5.41,14.09,4.33,5.43-.94,8.52-5.9,9.55-9.85,2.23-8.84-.14-19.67-5.23-23.79-5.36-3.91-15.39-3.82-19.61,4.83Z"/>
            <path class="cls-2" d="M285.41,318.44c-3.5,7.1-3.52,18.45,1.21,24.48,2.92,3.45,7.8,5.41,14.09,4.33,5.43-.94,8.52-5.9,9.55-9.85,2.23-8.84-.14-19.68-5.23-23.79-5.36-3.91-15.39-3.82-19.61,4.83Z"/>
            <g>
              <path class="cls-2" d="M230.45,349.15c-1.17-4.16-4.32-7.43-8.44-8.76-7.86-2.55-15.82-1.48-20.77,2.79-5.16,4.56-5.41,12.65-2.19,16.84,2.99,3.88,7.72,5.9,14.48,6.2.31.01.63.02.94.02,5.41,0,10.44-1.98,13.31-5.27v-.02c2.83-3.28,3.82-7.69,2.67-11.81Z"/>
              <path class="cls-3" d="M219.91,346.89c-2.1-.68-4.24-1.01-6.25-1.01-3.19,0-6.05.84-7.91,2.45-2.45,2.17-2.29,6.18-1.26,7.52,1.68,2.18,4.74,3.34,9.35,3.54,4.27.17,7.46-1.38,8.79-2.9,1.34-1.56,1.79-3.55,1.24-5.49-.54-1.94-2.02-3.48-3.96-4.11Z"/>
            </g>
          </g>
        </g>
        <g>
          <g>
            <path class="cls-2" d="M174.31,407.23c-1.48-4.63-4.48-8.3-7.74-11.99-11.57-11.1-31.76-15.56-47.81-10.64-11.58,3.03-24.94,13.2-26.89,28.3-1.79,11.76,2.42,22.06,11.65,27.76,9.31,4.78,19.42,4.67,29.7-.17.87-.33,1.3-.24,3.57.72,1.42.61,3.17,1.34,5.28,1.7,3.57,1.03,6.76,1.46,9.57,1.46,7.46,0,12.38-3.02,15.44-6.04,7.97-7.84,10.94-20.61,7.23-31.1Z"/>
            <path class="cls-5" d="M163.98,410.82c-.03-.07-.05-.13-.07-.2-.84-2.65-3.05-5.31-5.25-7.82-8.41-8.05-24.41-11.47-36.92-7.67-8.41,2.21-17.79,9.67-19.04,19.29-.55,3.62-1.01,12.25,6.19,16.72,5.93,3.02,12.4,2.87,20-.7,1.9-.75,3.63-1.02,5.19-1.02,2.92,0,5.24.98,6.98,1.72,1.12.47,2.08.88,2.97,1.01.27.04.53.09.78.17,6.51,1.94,11.44,1.34,14.59-1.78,4.91-4.82,6.87-13.3,4.58-19.71Z"/>
          </g>
          <g>
            <path class="cls-2" d="M338.19,415.19c-1.98-15.21-15.33-25.39-26.69-28.34-16.27-4.97-36.47-.53-48.34,10.91-2.82,3.2-5.95,7-7.44,11.65-3.71,10.49-.74,23.27,7.22,31.1,3.07,3.03,8,6.05,15.45,6.05,2.81,0,5.99-.43,9.57-1.46,2.11-.36,3.86-1.1,5.28-1.7,2.29-.98,2.71-1.06,3.23-.88,10.61,5,20.73,5.1,30.44.1,8.83-5.48,13.04-15.78,11.27-27.43Z"/>
            <path class="cls-5" d="M327.35,416.72c-1.27-9.74-10.64-17.21-18.84-19.34-3.53-1.08-7.32-1.6-11.13-1.6-9.92,0-20.02,3.48-26.32,9.53-1.88,2.17-4.1,4.83-4.94,7.48-.02.07-.04.13-.07.2-2.29,6.41-.33,14.89,4.56,19.7,3.17,3.11,8.06,3.72,14.6,1.78.25-.07.51-.13.78-.17.89-.13,1.85-.54,2.97-1.01,2.67-1.14,6.69-2.83,11.82-.85,7.93,3.73,14.41,3.88,20.73.64,6.81-4.24,6.35-12.88,5.82-16.38Z"/>
          </g>
        </g>
        <g>
          <g class="cls-7">
            <g>
              <rect class="cls-4" x="221.2" y="113.73" width="132.75" height="190.62" transform="translate(-23.42 381.33) rotate(-65)"/>
              <g>
                <rect class="cls-8" x="206.73" y="109.66" width="20.14" height="132.75" transform="translate(94.71 -75.13) rotate(25)"/>
                <rect class="cls-8" x="243.73" y="126.92" width="20.14" height="132.75" transform="translate(105.47 -89.15) rotate(25)"/>
                <rect class="cls-8" x="280.74" y="144.18" width="20.14" height="132.75" transform="translate(116.23 -103.17) rotate(25)"/>
                <rect class="cls-8" x="317.75" y="161.44" width="20.14" height="132.75" transform="translate(126.99 -117.2) rotate(25)"/>
                <rect class="cls-8" x="354.76" y="178.69" width="20.14" height="132.75" transform="translate(137.74 -131.21) rotate(25)"/>
              </g>
            </g>
          </g>
          <path class="cls-2" d="M390.94,221.57c.07-12.49-5.34-22.53-15.6-29.03-.69-.44-1.39-.87-2.1-1.27-.77-.43-1.55-.85-2.34-1.22-11.64-5.67-23.69-4.48-34.15-2.53-5.83,1.33-9.45,2.5-11.74,3.46-1.46-1.46-3.03-2.84-4.74-4.07-.97-.68-6.37-4.22-14.15-5.76-.48-2.22-.98-3.96-1.26-4.88-.01-.05-.23-.79-.25-.84-1.29-3.88-4.26-11.63-9.68-19.89-6.8-10.34-15.02-17.72-24.49-21.96-15.15-6.65-29.01-3.93-42.64,8.55-6.19,6.4-11.53,14.18-15.87,23.1-.54,1.12-4.52,10.56-4.96,11.86-1.56,4.27-6.56,19.27-5.14,33.03.89,10.47,5.87,20.97,13,27.42.12.11.54.44.67.53,7.94,6.03,16.67,9.07,25.99,9.07,1.13,0,2.27-.05,3.42-.13,12.05-.93,21.23-4.61,21.51-4.72,1.18-.45,2.22-.93,3.33-1.4,3.32,4.59,7.6,8.48,12.65,11.05,6.29,3.17,11.23,4.29,15.81,4.29.67,0,1.31-.14,1.97-.18.25.54.51,1.09.92,1.73,9.83,18.52,24.19,24.87,33.25,24.47.58.03,1.17.05,1.76.05,15.78,0,33.72-11.18,44.46-28.18l.53-.88c3.53-5.77,8.87-14.5,9.85-31.66ZM262.41,232.09c-.08.03-8.08,3.2-18.37,4-11.87.91-19.44-4.84-21.88-6.66-5-4.53-8.79-12.66-9.45-20.34-1.18-11.51,3.16-24.52,4.61-28.48.39-1.06,3.95-9.57,4.44-10.59,3.84-7.89,8.52-14.72,13.66-20.06,10.24-9.37,19.41-11.29,30.57-6.38,7.49,3.36,14.15,9.4,19.77,17.96,4.92,7.49,7.54,14.61,8.32,16.9l.28.99c.1.33.23.76.37,1.26-3.12.38-6.39,1.21-9.76,2.67-.86.37-1.62.86-2.44,1.29-1.82-1.99-4.05-3.77-6.3-5.03-6.73-3.79-14.11-3.85-20.25-.13-6.59,4-10.46,11.71-9.86,19.44.23,6.03,2.69,11.16,7.12,14.82,2.87,2.37,6.27,3.78,9.4,4.6,0,.53-.07,1.05-.05,1.58.03,3.82.78,7.6,2.04,11.21-.76.31-1.43.63-2.24.94ZM264.12,207.4c-1.43-.51-2.96-1.24-4.22-2.39-1.79-1.63-2.7-3.75-2.82-6.7-.29-3.87,1.51-7.59,4.61-9.47,2.17-1.32,4.47-1.53,7.04-.66,2.02.68,3.67,1.86,4.9,2.98-4.48,4.46-7.75,9.99-9.5,16.23ZM306.89,243.79c-7.63,2.01-11.53,2.43-19.54-1.62-8.18-4.17-13.72-13.13-13.78-22.46-.43-11.82,5.62-21.89,15.78-26.29,3.44-1.49,6.75-2.04,9.77-2.04,8.05,0,14.03,3.93,14.85,4.49,9.03,6.49,13.34,17.88,10.69,28.51-2.49,11.49-10.8,17.57-17.75,19.43ZM371.63,247.73l-.6,1.01c-8.69,13.74-23.71,23.26-36.56,22.58-6.52.09-15.93-5.16-23.02-17.53,4.14-1.36,8.46-3.71,12.35-7.14,1.96,1.41,4.3,2.61,7,3.2,1.02.22,2.2.38,3.49.38,3.21,0,7.18-.98,11.47-4.38,4.81-4.81,6.44-10.35,4.85-17.49-2.82-8.54-9.53-11.12-14.31-12.03-.27-5.63-1.81-11.14-4.48-16.14,2.05-.65,4.64-1.36,7.15-1.94,8.49-1.57,18.35-2.62,27.19,1.67.59.28,1.14.58,1.7.89.53.3,1.04.61,1.59.96,7.15,4.53,10.61,10.99,10.57,19.46-.82,14.14-4.94,20.88-8.38,26.5ZM335.17,227.3c2.53.61,4.13,1.69,4.89,3.93.65,2.96.13,4.69-1.56,6.43-1.71,1.35-3.44,1.83-5.18,1.51-.94-.17-1.76-.56-2.49-1,1.88-3.16,3.39-6.77,4.33-10.89Z"/>
        </g>
      </g>
    </g>
    <g>
      <g>
        <g>
          <path class="cls-5" d="M43.52,0h-.18c-.42,0-.81.13-1.15.34h-6.01c-1.21,0-2.18.98-2.18,2.18v.17c0,.44.13.84.36,1.19v4.44c-.23.35-.36.75-.36,1.19v.17c0,1.21.98,2.18,2.18,2.18h2.39c1.21,0,2.18-.98,2.18-2.18v-.17c0-.26-.05-.51-.13-.74.32.18.69.29,1.08.29h.18c1.21,0,2.18-.98,2.18-2.18v-.73c.94-.24,1.64-1.09,1.64-2.11v-1.85c0-1.21-.98-2.18-2.18-2.18Z"/>
          <path class="cls-5" d="M57.49.34h-2.26c-.76,0-1.43.39-1.82.98-.39-.59-1.06-.98-1.82-.98h-2.39c-1.21,0-2.18.98-2.18,2.18v.17c0,.44.13.84.36,1.19v3.2c0,.78.12,1.48.37,2.1.33.83.93,1.52,1.74,1.97.99.56,2.25.83,3.87.83,2.41,0,4.06-.6,5.05-1.84.61-.77.92-1.8.92-3.06v-3.2c.23-.35.36-.75.36-1.19v-.17c0-1.21-.98-2.18-2.18-2.18Z"/>
          <path class="cls-5" d="M69.23.34h-2.39c-1.21,0-2.18.98-2.18,2.18v.17c0,.44.13.84.36,1.19v1.99c-.17-.12-.36-.23-.57-.3l-.17-.06c-1.1-.36-2.29.19-2.71,1.26l-.72,1.81c-.22.55-.21,1.16.04,1.7.24.54.69.96,1.24,1.16l.17.06c.42.16.87.17,1.29.06.58.16,1.01.26,1.32.32.37.06.77.09,1.22.09.85,0,1.64-.15,2.33-.43.83-.35,1.48-.87,1.94-1.56.45-.67.67-1.56.67-2.71v-3.4c.23-.35.36-.75.36-1.19v-.17c0-1.21-.98-2.18-2.18-2.18Z"/>
          <path class="cls-5" d="M78.12.34h-2.39c-1.21,0-2.18.98-2.18,2.18v.17c0,.44.13.84.36,1.19v4.44c-.23.35-.36.75-.36,1.19v.17c0,1.21.98,2.18,2.18,2.18h2.39c1.21,0,2.18-.98,2.18-2.18v-.17c0-.44-.14-.84-.36-1.19V3.88c.23-.35.36-.75.36-1.19v-.17c0-1.21-.98-2.18-2.18-2.18Z"/>
          <path class="cls-5" d="M92.69,6.08c.82-.31,1.41-1.11,1.41-2.04v-1.85c0-1.21-.98-2.18-2.18-2.18h-.18c-.42,0-.81.13-1.15.34h-6.06c-1.21,0-2.18.98-2.18,2.18v.17c0,.44.13.84.36,1.19v4.44c-.23.35-.36.75-.36,1.19v.17c0,1.21.98,2.18,2.18,2.18h6.19c.34.21.73.34,1.15.34h.18c1.21,0,2.18-.98,2.18-2.18v-1.85c0-.98-.65-1.81-1.54-2.09Z"/>
          <path class="cls-5" d="M105.3.8c-.77-.31-1.74-.46-2.97-.46h-4.27c-1.21,0-2.18.98-2.18,2.18v.17c0,.44.13.84.36,1.19v4.44c-.23.35-.36.75-.36,1.19v.17c0,1.21.98,2.18,2.18,2.18h4.27c.9,0,1.64-.08,2.28-.24.76-.19,1.44-.53,2.02-.99.93-.74,2.04-2.13,2.04-4.53,0-1.05-.22-2.01-.66-2.85-.58-1.12-1.52-1.97-2.72-2.45ZM102.28,5.88c.14,0,.24,0,.32.02,0,.05.01.11.01.2s0,.15-.01.2c-.08,0-.18.01-.32.02v-.43Z"/>
          <path class="cls-5" d="M121.56,7.64c-.38-.72-1.69-3.21-2.38-4.51.03-.14.05-.29.05-.44v-.17c0-1.21-.98-2.18-2.18-2.18h-2.71c-1.21,0-2.18.98-2.18,2.18v.17c0,.17.03.33.06.49-.63,1.23-1.89,3.7-2.31,4.51-.6.39-.99,1.07-.99,1.82v.17c0,1.21.98,2.18,2.18,2.18h2.52c.89,0,1.65-.53,1.99-1.3.34.76,1.1,1.3,1.99,1.3h2.82c1.21,0,2.18-.98,2.18-2.18v-.17c0-.78-.42-1.48-1.05-1.87Z"/>
        </g>
        <path class="cls-5" d="M149.38,44.43s-2.39-3.28-2.39-3.28c-1.59-2.19-6.2-6.98-11.44-9.64,2.41-3.89,2.85-8.65,2.92-12.58,0,0,.08-4.32.08-4.32.01-.75-.36-1.46-.99-1.87-.63-.41-1.43-.47-2.11-.15l-3.92,1.83c-1.92.9-3.8,1.91-5.56,3-.18-.75-.46-1.86-.88-3.52-.15-.62-.57-1.14-1.14-1.42-.57-.28-1.24-.31-1.82-.06l-4.48,1.89c-6.44,2.72-12.63,4.09-18.41,4.09-6.98,0-12.87-2-17.5-5.91,0,0-.14-.12-.14-.12-.05-.04-.11-.09-.16-.13l-2.57-1.79c-.75-.52-1.75-.52-2.5,0l-1.25.87s-1.33.93-1.33.93c-.07.05-.13.09-.19.15l-.14.12c-4.61,3.9-10.48,5.88-17.47,5.88-5.77,0-11.96-1.38-18.41-4.09,0,0-4.48-1.89-4.48-1.89-.59-.25-1.25-.23-1.82.06-.57.28-.99.81-1.14,1.42l-.88,3.52c-1.76-1.09-3.64-2.1-5.56-3,0,0-3.92-1.83-3.92-1.83-.68-.32-1.48-.26-2.11.15s-1.01,1.12-.99,1.87l.08,4.32c.08,3.92.52,8.68,2.92,12.58-5.24,2.67-9.84,7.45-11.44,9.64,0,0-2.39,3.28-2.39,3.28-.43.59-.54,1.36-.28,2.04.25.69.83,1.2,1.54,1.37l3.95.93c2.83.67,8.49,1.05,13.44.2-.21,3.11-.32,5.98-.32,8.41v.06c0,15.21,4.03,30.8,11.04,42.75,1.61,2.75,3.43,5.56,5.42,8.37-1.06.47-1.96,1.06-2.68,1.77-.67.66-1.19,1.4-1.55,2.21-.33-.42-.6-.83-.77-1.2-.87-1.84-2.94-2.79-4.9-2.25-1.97.54-3.26,2.4-3.08,4.43.55,6.2,4.6,16.68,9.22,23.85.33.52.77.95,1.29,1.28,4.72,2.98,11.38,3.24,15.25,1.96,3.04-1,4.29-2.79,4.8-4.12.47-1.21.71-2.4.71-3.52,0-.73-.1-1.39-.26-1.98.53.11,1.05.24,1.56.39,4.07,4.04,8.52,8.14,13.23,12.19,0,0,.55.47.55.47-.02-.01-.03-.03-.04-.04.14.12.57.51,2.26,2.01.84.75,2.12.73,2.94-.04l2.12-1.98.49-.42c4.71-4.05,9.16-8.15,13.23-12.19.52-.14,1.04-.27,1.56-.39-.16.59-.26,1.25-.26,1.98,0,1.12.24,2.31.71,3.52.52,1.33,1.77,3.12,4.8,4.12,3.87,1.28,10.53,1.02,15.25-1.96.51-.32.96-.77,1.29-1.28,4.62-7.18,8.67-17.65,9.22-23.85.18-2.03-1.12-3.89-3.08-4.43-1.97-.54-4.03.41-4.9,2.25-.18.37-.44.78-.77,1.2-.36-.81-.87-1.55-1.55-2.21-.72-.71-1.62-1.3-2.68-1.77,1.98-2.81,3.8-5.62,5.42-8.38,7.02-11.95,11.04-27.54,11.04-42.76v-.06c0-2.43-.11-5.29-.32-8.4,4.95.85,10.61.46,13.43-.21,0,0,3.95-.93,3.95-.93.71-.17,1.29-.68,1.54-1.37.25-.69.15-1.45-.28-2.04Z"/>
      </g>
      <g>
        <g>
          <path d="M38.21,6.54v2.59c0,.11.03.19.08.25.05.06.15.1.28.14v.17h-2.39v-.17c.14-.04.23-.08.28-.14.05-.06.08-.14.08-.25V3.07c0-.11-.03-.2-.08-.25-.05-.05-.15-.1-.28-.14v-.17h6.76c.11,0,.2-.02.26-.07.06-.05.11-.14.15-.26h.18v1.85h-.18c-.04-.13-.09-.22-.15-.27-.06-.05-.14-.07-.26-.07h-4.72v1.71h3.08c.12,0,.2-.02.26-.07.06-.05.11-.14.15-.26h.18v1.8h-.18c-.04-.12-.09-.21-.15-.26-.06-.05-.15-.08-.26-.08h-3.08Z"/>
          <path d="M57.12,3.07v4.01c0,.76-.15,1.32-.45,1.7-.54.68-1.65,1.02-3.34,1.02-1.22,0-2.15-.18-2.8-.55-.38-.21-.64-.5-.78-.87-.14-.36-.21-.79-.21-1.3V3.07c0-.11-.03-.2-.08-.25-.05-.05-.15-.1-.28-.14v-.17h2.39v.17c-.13.03-.23.08-.28.13-.05.06-.08.14-.08.25v3.56c0,.41.02.72.07.92s.14.36.27.49c.36.36.97.54,1.84.54s1.48-.18,1.84-.54c.13-.13.22-.29.27-.49.05-.2.07-.5.07-.92v-3.56c0-.11-.03-.19-.08-.25-.05-.05-.15-.1-.28-.14v-.17h2.26v.17c-.14.04-.23.08-.28.14-.05.05-.08.14-.08.25Z"/>
          <path d="M62.87,9.4l.72-1.81.17.06s0,.08,0,.11c0,.14.09.27.29.4.2.12.47.23.81.31.34.08.66.13.97.13.5,0,.86-.11,1.09-.32.12-.11.19-.24.23-.39.04-.15.06-.38.06-.68V3.07c0-.11-.03-.19-.08-.25-.05-.05-.15-.1-.28-.14v-.17h2.39v.17c-.14.04-.23.08-.28.14-.05.05-.08.14-.08.25v4.21c0,.69-.1,1.19-.31,1.5-.22.32-.54.58-.96.75-.43.18-.92.27-1.49.27-.32,0-.61-.02-.85-.06-.24-.04-.63-.14-1.17-.29-.34-.09-.58-.13-.72-.13-.12,0-.24.05-.34.15l-.17-.06Z"/>
          <path d="M76.09,9.12V3.07c0-.11-.03-.19-.08-.24-.05-.05-.15-.1-.28-.14v-.17h2.39v.17c-.14.03-.23.08-.28.13-.05.06-.08.14-.08.25v6.06c0,.11.03.19.08.25.05.06.15.1.28.14v.17h-2.39v-.17c.14-.04.23-.08.28-.14.05-.06.08-.14.08-.25Z"/>
          <path d="M86.57,6.54v1.96h4.9c.11,0,.2-.02.26-.07.06-.05.11-.14.15-.26h.18v1.85h-.18c-.04-.12-.09-.21-.15-.26-.06-.05-.15-.08-.26-.08h-6.94v-.17c.14-.04.23-.08.28-.14.05-.06.08-.14.08-.25V3.07c0-.11-.03-.2-.08-.25-.05-.05-.15-.1-.28-.14v-.17h6.81c.11,0,.2-.02.26-.07.06-.05.11-.14.15-.26h.18v1.85h-.18c-.04-.13-.09-.21-.15-.26-.06-.05-.15-.07-.26-.07h-4.77v1.7h3.1c.11,0,.2-.02.26-.07.06-.05.11-.14.15-.26h.18v1.82h-.18c-.04-.12-.09-.21-.15-.26-.06-.05-.15-.08-.26-.08h-3.1Z"/>
          <path d="M100.1,3.7h2.1c.51,0,.92.05,1.22.14.31.1.57.26.79.48.39.41.58,1,.58,1.77,0,1.06-.36,1.78-1.08,2.15-.34.17-.84.26-1.51.26h-2.1V3.7ZM98.35,9.37c-.05.06-.15.1-.28.14v.17h4.27c.71,0,1.29-.06,1.74-.17.46-.12.85-.31,1.2-.58.81-.65,1.22-1.59,1.22-2.82,0-.7-.14-1.32-.41-1.84-.34-.67-.87-1.15-1.59-1.43-.5-.2-1.22-.3-2.15-.3h-4.27v.17c.14.04.23.08.28.14.05.05.08.14.08.25v6.05c0,.11-.03.19-.08.25Z"/>
          <path d="M114.37,6.86l1.25-2.53,1.24,2.53h-2.49ZM117.87,8.85c.07.15.11.25.11.33,0,.18-.12.29-.37.33v.17h2.82v-.17c-.16-.03-.28-.09-.37-.17-.09-.09-.2-.25-.32-.48l-2.91-5.51c-.07-.13-.11-.24-.11-.35,0-.15.11-.25.33-.31v-.17h-2.71v.17c.22.07.32.19.32.35,0,.1-.05.24-.13.42l-2.81,5.5c-.1.21-.19.34-.27.41-.08.07-.19.12-.34.15v.17h2.52v-.17c-.25-.06-.38-.17-.38-.33,0-.08.03-.19.11-.33l.52-1h3.46l.53,1Z"/>
        </g>
        <g>
          <path d="M18.94,18.89c.11,5.69,1.05,10.31,4.21,13.54-.17.06-.32.09-.48.15-5.6,2.06-11.04,7.64-12.66,9.86l-2.39,3.28,3.95.93c2.99.71,10.77,1.23,16.02-.71.15-.06.29-.12.44-.18-.02.27-.07.54-.07.8,0,4.2,2.28,8.08,5.67,12.22l2.77,3.38,1.78-4c2.71-6.09,4.07-11.66,4.07-16.21,0-3.31-.77-6.05-2.22-8.1-.52-7.14-9.11-13.65-17.26-17.45l-3.92-1.83.08,4.32Z"/>
          <path d="M132.46,16.4c-8.15,3.8-16.74,10.31-17.26,17.45-1.45,2.05-2.22,4.79-2.22,8.1,0,4.56,1.37,10.13,4.07,16.21l1.78,4,2.77-3.38c3.39-4.14,5.67-8.02,5.67-12.22,0-.26-.05-.53-.07-.8.15.06.29.12.44.18,5.25,1.94,13.03,1.42,16.02.71l3.95-.93-2.39-3.28c-1.62-2.22-7.06-7.8-12.66-9.86h0c-.17-.06-.32-.09-.49-.15,3.16-3.23,4.1-7.84,4.21-13.54l.08-4.32-3.92,1.83Z"/>
          <path d="M39.49,111.9c-.97.95-1.47,2.12-1.47,3.43,0,.21.01.42.04.63.04.36.11.77.2,1.21-1.95-1.33-3.79-3.2-4.59-4.87-.42-.88-1.41-1.34-2.36-1.08-.94.26-1.57,1.15-1.48,2.13.51,5.8,4.5,16.06,8.88,22.86.16.25.37.46.62.61,4,2.53,9.96,2.87,13.4,1.74,2.23-.73,3.1-1.95,3.45-2.83.4-1.03.56-1.93.56-2.73,0-1.47-.55-2.6-1.18-3.54-.02-.03-.39-.7-.67-1.19,2.53.17,5.25.71,7.82,1.62,6.87,2.42,10.61,2.61,14.79,2.61-.04,0,.12,0,.12,0h.12c4.18,0,7.92-.2,14.79-2.61,2.57-.9,5.28-1.44,7.82-1.62-.27.49-.65,1.15-.67,1.19-.63.94-1.18,2.07-1.18,3.54,0,.8.16,1.7.56,2.73.34.89,1.22,2.1,3.45,2.83,3.44,1.13,9.4.8,13.4-1.73.25-.16.46-.37.62-.61,4.38-6.81,8.36-17.06,8.88-22.86.09-.97-.54-1.87-1.48-2.13-.94-.26-1.94.2-2.36,1.08-.79,1.67-2.63,3.55-4.58,4.87.09-.44.16-.85.2-1.21.02-.21.04-.42.04-.63,0-1.3-.5-2.48-1.47-3.43-3.34-3.26-11.25-2.71-15.67-2.09-3.55.5-7.07,1.56-10.47,2.58-4.27,1.29-8.29,2.5-11.97,2.51-3.66-.02-7.71-1.23-12-2.52-3.41-1.02-6.94-2.08-10.48-2.58-4.42-.62-12.33-1.18-15.67,2.09Z"/>
          <g>
            <g>
              <path d="M124.16,19.15s-1.18-4.72-1.18-4.72l-4.48,1.89c-6.71,2.83-13.19,4.27-19.26,4.27-7.51,0-13.87-2.17-18.91-6.43l-.15-.12-2.57-1.79-1.25.87-1.33.93-.16.14c-5,4.23-11.36,6.4-18.88,6.41-6.06,0-12.54-1.43-19.26-4.27l-4.48-1.89-1.18,4.72c-3.06,12.24-4.71,28.83-4.71,38.24v.06c0,14.84,3.91,30.01,10.74,41.65,8.13,13.86,20.84,28.27,37.77,42.83,0,0,.55.48.56.48,0,0,2.24,1.99,2.24,1.99,0,0,2.09-1.96,2.15-2.02.07-.06.52-.45.52-.45,16.94-14.56,29.65-28.97,37.78-42.83,6.83-11.63,10.74-26.81,10.74-41.65v-.06c0-9.4-1.65-26-4.71-38.23Z"/>
              <path class="cls-5" d="M115.68,97.66c6.58-11.21,10.35-25.87,10.35-40.22v-.05c0-9.36-1.73-25.97-4.63-37.55,0,0-.21-.84-.38-1.51-.62.26-1.43.6-1.43.6-7.06,2.98-13.91,4.49-20.37,4.49-8.2,0-15.18-2.4-20.74-7.1,0,0-.03-.03-.04-.03-.02-.02-.5-.35-.84-.59-.35.24-.8.56-.8.56,0,0-.07.06-.07.06-5.56,4.7-12.54,7.09-20.74,7.1-6.45,0-13.3-1.51-20.36-4.49,0,0-.8-.34-1.43-.6-.17.67-.38,1.51-.38,1.51-2.89,11.58-4.62,28.19-4.63,37.55,0,.02,0,.04,0,.06,0,14.35,3.77,29,10.35,40.21,7.97,13.59,20.48,27.76,37.18,42.11,0,0,.54.47.54.47,0,0,.18.14.36.29.16-.14.31-.27.31-.28l.56-.48c16.7-14.36,29.2-28.52,37.18-42.12Z"/>
              <path d="M77.19,136.65l.43.37.43-.37c15.8-13.72,27.69-27.29,35.34-40.34,8.68-14.82,9.98-30.75,9.99-38.93,0-8.87-1.5-24.27-4-34.69l-.17-.73-.7.27c-6.64,2.55-13.12,3.84-19.27,3.84-8.1,0-15.44-2.32-21.22-6.73l-.4-.3-.4.3c-5.78,4.41-13.12,6.74-21.22,6.73-6.14,0-12.62-1.29-19.26-3.84l-.7-.27-.17.73c-2.51,10.42-4.01,25.82-4,34.69h0c0,8.18,1.31,24.11,9.99,38.93,7.65,13.05,19.54,26.63,35.34,40.34Z"/>
            </g>
            <g>
              <g>
                <path class="cls-8" d="M108.96,100.91c1.17-1.76,2.28-3.51,3.3-5.26,8.52-14.56,9.8-30.22,9.81-38.27h0c0-8.62-1.43-23.38-3.81-33.68-3.14,1.16-6.24,2.05-9.29,2.67v74.53Z"/>
                <path class="cls-8" d="M65.89,124.36c3.62,3.62,7.53,7.27,11.73,10.92,4.18-3.64,8.08-7.28,11.69-10.89V26.16c-4.3-1.11-8.25-2.96-11.69-5.5-3.45,2.55-7.41,4.4-11.73,5.51v98.18Z"/>
                <path class="cls-8" d="M46.24,100.86V26.37c-3.04-.62-6.13-1.5-9.26-2.66-2.39,10.3-3.81,25.06-3.81,33.66h0c0,8.06,1.29,23.73,9.81,38.28,1.01,1.73,2.1,3.46,3.26,5.21Z"/>
              </g>
              <g>
                <path class="cls-5" d="M89.31,124.39c7.95-7.94,14.52-15.8,19.65-23.48V26.38c-3.31.67-6.56,1.01-9.72,1.01-3.46,0-6.79-.42-9.93-1.22v98.23Z"/>
                <path class="cls-5" d="M46.24,100.86c5.12,7.69,11.7,15.55,19.65,23.5V26.17c-3.13.8-6.44,1.22-9.89,1.22-3.17,0-6.43-.35-9.75-1.02v74.49Z"/>
              </g>
            </g>
          </g>
          <path class="cls-5" d="M102.69,51.52c-.3-.95-1.62-1.2-3.93-.74-.85.17-4.56,1.44-9.33,3.09,0,0-3.72,1.27-3.85,1.31-1.18.02-9.56-.58-10.37-.69-.09-.04-1.13-.44-1.13-.44-4.17-1.65-7.2-2.77-8.43-2.88-3.57-.32-6.04.62-7.45,2.7-3.52.47-3.66,1.28-3.72,1.77,0,.07-.01.14-.01.21,0,1.12,1.34,1.42,3.72,1.75.64.9,1.51,1.85,1.96,2.29.8,2.03,1.45,3.45,2.05,4.42,1.02,1.66,2.74,3.78,7,5.37,1.11.68,2.82,1.24,4.78,1.37-.28.46-.53.87-.68,1.12-.61-.06-1.38-.04-1.86.35,0,0-2.65,3.03-2.65,3.03l2.66-.09h.74s1.39-.02,1.39-.02l1.54.03.43-.42c.47-.56,2.39-3.32,3.31-4.66,1.62-.58,3.21-1.56,4.6-3.11,1.37-1.22,1.9-3.02,1.95-3.22,0,0,0-.03,0-.03,1.12,0,2.02,0,2.49.04l2.73.21-1.75-2.1c-.28-.33-1.01-.84-1.97-1.43.43-.56.77-1.06.95-1.36.8-.45,3.65-1.83,13.3-6.01l.7-.3c.74-.33.89-.85.89-1.21,0-.19-.04-.33-.05-.36Z"/>
          <g>
            <path class="cls-5" d="M62.95,95.45c.48-.29,1.17-.69,1.7-.93l-.67-2.19c-1.45.25-3.2-.19-4.94-1.19.03-.44.3-.72.74-1.17.94-.94,1.44-1.94,1.44-2.79,0-.28-.05-.54-.16-.79-.2-.45-.6-.71-1.07-.88-.23-.51-.6-1.09-1.26-1.33-.15-.05-.3-.07-.45-.08-.28-.45-.67-.73-1.06-.82-.02-.19-.07-.38-.13-.56-.16-.4-.45-.69-.8-.9-.18-.8-.36-1.54-1.12-1.88,0,0,0,0-.01,0-.29-.83-.87-1.28-1.47-1.35-.06,0-.12,0-.18,0,.43-.64.67-1.32.67-1.95,0-.12,0-.24-.03-.36-.07-.47-.32-.84-.64-1.15,0-.02,0-.08,0-.08-.05-.94-.09-1.75-.79-2.24,0,0,0,0,0,0-.09-.77-.42-1.32-.85-1.62-.07-.27-.21-.51-.38-.73,0,0,0-.01,0-.01,0-.19.02-.39.02-.57,0-.54-.11-1.03-.47-1.42,0-.86-.38-1.46-.87-1.74.07-.13.14-.26.19-.41.09-.26.13-.52.13-.78,0-.36-.11-.71-.28-1.04,0-.04.02-.11.02-.11.05-.29.11-.65.11-1.01,0-.4-.09-.8-.32-1.14.01-.12.08-.26.08-.38,0-.64-.21-1.2-.6-1.55.06-.21.09-.42.09-.63,0-.33-.1-.65-.25-.96,0-.02.01-.07.01-.07.04-.25.09-.56.09-.9,0-.37-.08-.74-.28-1.07.01-.1.06-.22.06-.32,0-.69-.26-1.28-.74-1.61.21-.44.32-.87.32-1.27,0-.48-.15-.9-.47-1.22-.12-.12-.45-.34-.9-.4-.3-.8-.85-1.05-1.23-1.11-1-.14-1.78.71-2.25,1.79-.26.09-.51.22-.71.43-.38.4-.57.98-.57,1.62,0,.42.09.86.26,1.3-.28,0-.56.07-.82.21-.64.36-.94,1.07-1.02,1.78-.14.13-.3.24-.4.42-.2.36-.29.78-.29,1.23,0,.48.14.95.35,1.41-.14.27-.25.56-.25.88,0,.06,0,.13,0,.19.04.46.22.88.5,1.23-.06.04-.1.08-.14.12-.5.45-.76,1.16-.76,1.92,0,.07.03.14.04.2-.26.25-.46.58-.56.98-.05.2-.07.41-.07.64,0,.7.27,1.49.8,2.15-.09.24-.19.48-.19.73,0,.22.03.44.1.66.13.4.37.75.68,1.02-.04.05-.08.09-.12.14-.3.42-.45.96-.45,1.51,0,.26.05.53.12.79-.28.36-.44.82-.45,1.33,0,.01,0,.02,0,.04,0,.87.45,1.86,1.31,2.54-.03.15-.1.3-.1.45,0,.36.09.71.27,1.04.19.34.47.62.79.82-.04.07-.08.14-.11.21-.13.32-.19.66-.19,1s.07.69.2,1.02c-.23.35-.36.77-.36,1.2,0,.17.02.34.05.51.18.85.78,1.52,1.57,1.93,0,.01,0,.03,0,.04,0,.45.15.79.26.97.28.48.73.79,1.24.98-.23.4-.29.78-.3,1,0,.04,0,.07,0,.11,0,.56.23,1.09.61,1.53-.04.16-.11.31-.11.47,0,.3.07.61.22.9.4.79,1.27,1.28,2.27,1.39.1.25.23.45.34.56.41.42.98.61,1.59.63,0,.03,0,.06,0,.09,0,.17.02.32.05.43.11.5.42.92.84,1.23,0,.01,0,.02,0,.03,0,.39.13.78.39,1.11.56.7,1.58.94,2.68.76.11.13.22.24.29.29,1.11.79,2.82,0,3.65-.6,0,0,1.04-.85,1.04-.85.6-.51,1.35-1.13,2.08-1.54.35.09.7.17,1.06.24l.12.02c.78.62,1.86,1.48,1.86,1.48l-.59-2.01Z"/>
            <path class="cls-5" d="M114.94,73.3c0-.56-.15-1.09-.45-1.51-.04-.05-.08-.09-.12-.14.31-.27.55-.61.68-1.02.07-.22.1-.44.1-.66,0-.25-.1-.49-.19-.73.53-.66.8-1.44.8-2.15,0-.22-.02-.44-.07-.64-.1-.4-.3-.72-.56-.98,0-.07.04-.14.04-.2,0-.76-.26-1.47-.76-1.92-.04-.04-.09-.08-.14-.12.28-.34.46-.77.5-1.23,0-.06,0-.13,0-.19,0-.32-.12-.61-.25-.88.21-.45.35-.93.35-1.41,0-.44-.1-.87-.29-1.23-.1-.18-.26-.29-.4-.42-.08-.71-.37-1.42-1.02-1.78-.26-.14-.54-.21-.82-.21.17-.43.26-.88.26-1.3,0-.64-.19-1.22-.57-1.62-.2-.21-.45-.35-.71-.43-.47-1.07-1.26-1.93-2.25-1.79-.39.05-.94.31-1.23,1.11-.46.06-.78.28-.9.4-.31.32-.47.75-.47,1.22,0,.4.11.83.32,1.27-.48.33-.74.92-.74,1.61,0,.1.05.21.06.32-.21.32-.28.7-.28,1.06,0,.33.05.65.09.89,0,0,0,.05.01.07-.15.31-.25.63-.25.96,0,.21.03.42.09.63-.39.36-.6.91-.6,1.55,0,.12.06.25.08.38-.23.34-.32.74-.32,1.14,0,.36.06.72.11,1.01,0,0,.01.07.02.11-.16.33-.28.68-.28,1.04,0,.26.04.52.13.78.05.14.12.28.19.41-.49.28-.86.87-.87,1.74-.36.39-.47.87-.47,1.42,0,.19,0,.38.02.57v.02c-.17.22-.3.46-.37.73-.43.29-.76.84-.85,1.62,0,0,0,0,0,0-.7.49-.74,1.3-.79,2.24,0,0,0,.06,0,.08-.32.31-.57.68-.64,1.15-.02.12-.03.24-.03.36,0,.63.24,1.31.67,1.95-.06,0-.12,0-.18,0-.6.07-1.19.52-1.47,1.35,0,0,0,0-.01,0-.75.33-.93,1.08-1.12,1.88-.35.21-.64.5-.8.9-.07.18-.11.36-.13.56-.39.09-.78.36-1.06.82-.15.02-.31.03-.46.08-.65.24-1.02.82-1.26,1.33-.47.17-.87.43-1.07.88-.11.24-.16.51-.16.79,0,.86.5,1.85,1.45,2.8.44.45.72.73.74,1.17-1.73,1-3.49,1.43-4.94,1.19l-.67,2.19c.53.24,1.21.64,1.69.93l-.6,2.02s1.09-.87,1.87-1.49l.12-.02c.36-.07.71-.15,1.06-.24.73.41,1.48,1.03,2.08,1.54l1.04.85c.84.6,2.55,1.4,3.65.6.07-.05.18-.15.29-.29,1.1.19,2.12-.06,2.68-.76.26-.33.39-.71.39-1.11,0-.01,0-.02,0-.03.42-.31.73-.73.84-1.23.02-.11.05-.25.05-.42,0-.03,0-.06,0-.1.61-.02,1.18-.21,1.59-.63.1-.11.23-.31.34-.56,1.01-.12,1.87-.6,2.27-1.4.15-.29.22-.59.22-.9,0-.16-.07-.31-.11-.47.37-.44.61-.97.61-1.53,0-.04,0-.08,0-.11-.01-.23-.07-.6-.3-1,.51-.19.96-.5,1.24-.98.11-.18.26-.52.26-.97,0-.01,0-.03,0-.04.79-.41,1.39-1.08,1.57-1.93.04-.17.05-.34.05-.51,0-.44-.13-.85-.36-1.2.12-.33.2-.67.2-1.02s-.06-.68-.19-1c-.03-.08-.07-.14-.11-.21.33-.2.6-.48.79-.82.18-.33.27-.68.27-1.04,0-.15-.06-.3-.1-.45.86-.68,1.31-1.68,1.31-2.54v-.04c0-.52-.17-.97-.45-1.33.07-.26.11-.53.11-.79Z"/>
            <path class="cls-4" d="M64.16,93.47c-1.62.28-3.85-.13-6.2-1.62-.3-1.36.32-2,1-2.69,1.35-1.35,1.53-2.76.18-2.69-.39-1.06-.75-1.56-1.65-1.06-.01-1.37-1.1-1.34-1.43-.05-.33,1.28.29,3.39.71,4.67.14.43.24.84.31,1.2-.98-.73-1.96-1.65-2.93-2.78-.2-1.52.34-2.13.93-2.8,1.19-1.34,1.38-2.9.21-3-.31-1.25-.32-1.99-1.11-1.55.02-1.54-1.03-1.88-1.34-.48-.31,1.39-.25,3.27.08,4.78.13.6.26,1.32.36,1.96-1.03-1.39-2.03-3.04-2.94-5.01-.13-2.28.58-2.87,1.34-3.49,1.37-1.11,1.81-2.73.68-3.17-.1-1.42,0-2.22-.83-1.96.26-1.64-.7-2.29-1.22-.88-.52,1.41-.77,3.43-.69,5.14.04.88.04,1.95.03,2.78-.58-1.43-1.13-3-1.61-4.73.15-1.69.75-2.09,1.4-2.51,1.25-.81,1.74-2.15.84-2.64.03-1.22.19-1.89-.53-1.76.36-1.37-.39-2.01-.94-.87-.56,1.14-.94,2.84-1.02,4.3-.03.6-.1,1.3-.16,1.92-.45-1.82-.85-3.81-1.17-5.96.34-1.32.88-1.45,1.46-1.57,1.19-.25,1.79-1.38,1.05-2.27.18-1.21.39-1.81-.25-1.99.47-1.2-.1-2.18-.72-1.29-.62.89-1.16,2.41-1.41,3.85-.09.54-.22,1.16-.34,1.72-.18-1.39-.33-2.84-.44-4.37.29-1.5.81-1.6,1.37-1.7,1.06-.19,1.58-1.18.93-2,.15-1.08.34-1.6-.23-1.79.42-1.06-.1-1.95-.65-1.17-.55.77-1.02,2.12-1.24,3.4-.08.48-.19,1.03-.3,1.52-.02-.4-.04-.81-.06-1.22.05-1.62.21-2.09.33-2.52.36-1.38.83-1.94,1.2-2.45.74-1.05.61-2.29-.7-1.4.05-2.29-1.25-1.4-1.73.37-.87-.31-1.21.85-.72,1.96.19.45.44.87.63,1.54.17.59.32,1.44.42,2.7.04,1.35.11,2.66.2,3.93-.27-.48-.63-1.31-.71-2.45-.06-.81-.19-3.19-1.09-3.99-.91-.8-1.43.31-1.26,1.27-.82-.17-.98,1.52-.1,2.45-.84.39-.55,1.57.28,1.8.87.24,2.28,1.64,3.03,2.82.18,1.9.41,3.72.7,5.45-.3-.37-.72-1.14-1.07-2.53-.24-.95-.9-3.75-2.26-4.42-1.38-.68-1.85.83-1.42,1.93-1.12.06-.99,2.14.38,2.96-1.03.74-.4,2.04.74,2.04,1.34,0,2.91.48,3.91,1.62.39,2.05.86,3.95,1.4,5.73-.39-.37-.91-1.05-1.45-2.25-.43-.94-1.66-3.75-3.3-4.12-1.67-.38-1.92,1.36-1.24,2.41-1.24.35-.72,2.52.96,3.04-1.02,1.04-.08,2.25,1.19,1.96,1.4-.32,3.09-.24,4.35.55.63,1.85,1.35,3.54,2.14,5.06-.54-.33-1.42-1.09-2.5-2.56-.58-.79-1.46-2.49-3.25-2.43-1.83.05-1.93,1.8-1.11,2.65-1.3.65-.54,2.62,1.29,2.7-.99,1.25.43,1.96,1.73,1.75,1.03-.17,3.32-.63,4.87-.28.78,1.26,1.62,2.38,2.52,3.36-.47,0-1.17-.14-2.14-.78-.77-.51-3.05-2.07-4.85-1.5-1.83.58-1.44,2.07-.37,2.54-1.13.92.2,2.32,2.07,1.86-.65,1.33.98,1.48,2.23.94,1.01-.45,2.7-1.68,4.25-1.85,1,.9,2.05,1.63,3.15,2.19-.35.03-.8-.01-1.41-.18-.88-.24-3.49-1-5.22.03-1.76,1.04-1.08,2.26.1,2.38-.97,1.14.63,2.01,2.45,1.08-.41,1.36,1.27,1.04,2.44.21.88-.63,2.22-2.03,3.65-2.71.47.15.94.27,1.42.36,0,0,1.43-.91,2.4-1.35Z"/>
            <path class="cls-4" d="M113.43,74.48c.68-1.06.43-2.79-1.24-2.41-1.64.37-2.87,3.18-3.3,4.12-.54,1.2-1.07,1.88-1.45,2.25.54-1.77,1.01-3.68,1.4-5.73.99-1.13,2.56-1.62,3.91-1.62,1.14,0,1.77-1.3.74-2.04,1.37-.83,1.5-2.9.38-2.96.43-1.1-.04-2.61-1.42-1.93-1.36.67-2.02,3.47-2.26,4.42-.35,1.4-.77,2.16-1.07,2.53.29-1.73.52-3.55.7-5.45.75-1.18,2.16-2.58,3.03-2.82.83-.23,1.12-1.4.28-1.8.88-.93.72-2.62-.1-2.45.17-.96-.35-2.08-1.26-1.27-.9.79-1.03,3.18-1.09,3.99-.08,1.14-.44,1.97-.71,2.45.09-1.27.16-2.59.2-3.93.1-1.26.25-2.1.42-2.69.19-.66.44-1.09.63-1.54.49-1.11.14-2.28-.72-1.96-.47-1.77-1.78-2.66-1.73-.37-1.3-.89-1.44.35-.7,1.4.37.51.83,1.07,1.2,2.45.12.43.28.9.33,2.52-.02.41-.04.82-.06,1.22-.11-.5-.22-1.05-.3-1.52-.22-1.28-.69-2.62-1.24-3.4-.55-.77-1.06.12-.65,1.17-.57.19-.38.71-.23,1.79-.65.82-.13,1.81.93,2,.56.1,1.08.2,1.37,1.7-.12,1.52-.26,2.98-.44,4.37-.12-.56-.25-1.18-.34-1.72-.25-1.44-.79-2.96-1.41-3.85-.62-.89-1.2.09-.72,1.29-.64.19-.43.78-.25,1.99-.74.89-.14,2.01,1.05,2.27.58.13,1.12.25,1.46,1.57-.32,2.15-.72,4.13-1.17,5.96-.07-.62-.13-1.32-.16-1.92-.08-1.47-.46-3.16-1.02-4.3-.55-1.14-1.3-.49-.95.87-.72-.14-.56.53-.53,1.76-.9.48-.41,1.83.84,2.64.65.42,1.25.83,1.4,2.51-.49,1.73-1.03,3.3-1.61,4.73,0-.83,0-1.9.03-2.78.08-1.71-.17-3.73-.69-5.14-.52-1.41-1.49-.76-1.23.88-.83-.26-.73.54-.83,1.96-1.12.43-.69,2.05.68,3.17.77.62,1.47,1.2,1.34,3.49-.91,1.97-1.91,3.62-2.94,5.01.1-.64.23-1.35.36-1.96.34-1.51.39-3.38.08-4.78-.31-1.41-1.36-1.06-1.34.48-.79-.44-.8.3-1.11,1.55-1.17.11-.98,1.67.21,3,.59.66,1.13,1.28.93,2.8-.96,1.14-1.95,2.06-2.93,2.79.07-.36.17-.77.31-1.2.42-1.28,1.04-3.39.71-4.67-.33-1.29-1.41-1.32-1.43.05-.91-.51-1.27,0-1.65,1.06-1.36-.07-1.17,1.33.18,2.69.68.68,1.3,1.32,1,2.69-2.35,1.49-4.58,1.9-6.2,1.62.97.44,2.4,1.35,2.4,1.35.48-.09.95-.21,1.42-.36,1.42.67,2.77,2.07,3.65,2.71,1.17.83,2.85,1.15,2.44-.21,1.82.94,3.42.06,2.45-1.08,1.18-.12,1.86-1.34.1-2.38-1.73-1.03-4.34-.27-5.22-.03-.61.17-1.06.2-1.41.18,1.1-.56,2.15-1.29,3.15-2.19,1.55.17,3.23,1.41,4.25,1.85,1.24.55,2.87.39,2.23-.94,1.87.46,3.2-.93,2.07-1.86,1.07-.47,1.47-1.96-.36-2.54-1.8-.57-4.07.99-4.85,1.5-.97.64-1.67.79-2.14.78.9-.97,1.74-2.09,2.52-3.36,1.55-.35,3.84.12,4.87.28,1.29.21,2.72-.49,1.73-1.75,1.83-.09,2.59-2.05,1.29-2.7.82-.86.72-2.6-1.11-2.65-1.78-.05-2.67,1.64-3.25,2.43-1.08,1.47-1.96,2.23-2.5,2.56.79-1.52,1.51-3.21,2.14-5.06,1.27-.78,2.96-.87,4.35-.55,1.26.29,2.2-.92,1.19-1.96,1.67-.52,2.2-2.69.96-3.04Z"/>
          </g>
          <g>
            <path class="cls-5" d="M56.28,93.46c0,11.76,9.57,21.33,21.33,21.33s21.33-9.57,21.33-21.33-9.57-21.33-21.33-21.33-21.33,9.57-21.33,21.33Z"/>
            <path class="cls-4" d="M57.46,93.46c0,11.11,9.04,20.15,20.15,20.15s20.15-9.04,20.15-20.15-9.04-20.15-20.15-20.15-20.15,9.04-20.15,20.15ZM59.72,93.46c0-9.87,8.03-17.89,17.89-17.89s17.89,8.03,17.89,17.89-8.03,17.89-17.89,17.89-17.89-8.03-17.89-17.89Z"/>
            <g>
              <polygon class="cls-4" points="73.91 98.22 71.62 91.16 77.62 86.81 83.61 91.16 81.32 98.22 73.91 98.22"/>
              <path class="cls-4" d="M74.27,76.56c-1.47.78-2.51,3.08-2.51,3.08,1.46.18,4.16.53,5.73,1.9,1.66-1.28,5.09-1.81,5.97-1.81-.59-1.54-1.96-2.82-2.5-3.15-1.47-.49-5.32-.41-6.7-.02Z"/>
              <g>
                <path class="cls-4" d="M60.53,91.17c.26,1.65,2.08,3.38,2.08,3.38.65-1.32,1.87-3.75,3.68-4.79-.66-1.99-.04-5.4.25-6.23-1.65.05-3.31.92-3.79,1.32-.95,1.23-2.14,4.9-2.22,6.32Z"/>
                <path class="cls-4" d="M94.7,91.17c-.26,1.65-2.08,3.38-2.08,3.38-.65-1.32-1.87-3.75-3.68-4.79.66-1.99.04-5.4-.25-6.23,1.65.05,3.31.92,3.79,1.32.95,1.23,2.14,4.9,2.22,6.32Z"/>
              </g>
              <g>
                <path class="cls-4" d="M84.82,108.82c-1.65.2-3.82-1.09-3.82-1.09,1.09-.98,3.1-2.82,3.61-4.84,2.1.1,5.21-1.42,5.93-1.93.39,1.61,0,3.44-.25,4.01-.93,1.24-4.14,3.38-5.48,3.85Z"/>
                <path class="cls-4" d="M70.41,108.82c1.65.2,3.82-1.09,3.82-1.09-1.09-.98-3.1-2.82-3.61-4.84-2.09.1-5.21-1.42-5.93-1.93-.39,1.61,0,3.44.25,4.01.93,1.24,4.13,3.38,5.48,3.85Z"/>
              </g>
            </g>
          </g>
          <path class="cls-4" d="M98.99,51.92c-1.33.26-12.73,4.32-13.2,4.41-.48.1-10.43-.6-10.85-.72-.42-.12-7.66-3.14-9.38-3.29-1.72-.15-5.21-.25-6.72,2.62-1.16.13-3.17.53-3.21.84-.04.31,3.22.75,3.22.75.59.97,1.92,2.39,2.28,2.71.61,1.56,1.34,3.31,2.05,4.47.99,1.62,2.57,3.47,6.47,4.91,1.15.76,3.66,1.52,6.41,1.23l-2.17,3.57c-.47-.11-1.47-.21-1.73,0-.26.21-.76.89-.76.89.33-.01,1.53,0,2.12-.02.6-.02,1.13.02,1.13.02.47-.57,2.7-3.79,3.46-4.89,1.59-.5,3.16-1.42,4.53-2.96,1.18-1.03,1.64-2.71,1.64-2.71-8.64.42-15.11-1.45-15.11-1.45,3.76.93,16.29.42,18.81.61-.78-.94-7.85-4.65-9.91-5.53,4.28.41,7.55,3.12,7.55,3.12.8-.95,1.39-1.96,1.39-1.96,1.49-.99,13.55-6.17,14.37-6.53.82-.36-1.07-.38-2.4-.12ZM62.17,55.92c-.56.11-1.1-.2-1.2-.69-.1-.49.28-.98.84-1.1.56-.11,1.1.2,1.2.69.1.49-.28.98-.84,1.1Z"/>
          <g>
            <g>
              <path class="cls-6" d="M48.39,131.45c-1.76,1.31-2.87.66-3.58-1.06.02.18-2.28-5.62-3.52-9.61-3.4-.73-7.89-4.33-9.45-7.62.46,5.24,4.17,15.12,8.56,21.95,4.63,2.93,12.85,2.56,13.89-.12.81-2.09.36-3.29-.48-4.53.05.09.09.17.14.26-1.97-2.07-3.59-.73-5.56.73Z"/>
              <path class="cls-6" d="M113.94,120.78c-1.24,3.99-3.54,9.8-3.52,9.61-.71,1.72-1.82,2.36-3.58,1.05-1.97-1.46-3.59-2.81-5.55-.73.05-.09.09-.17.14-.26-.84,1.24-1.3,2.44-.48,4.53,1.04,2.68,9.26,3.05,13.89.12,4.4-6.83,8.1-16.71,8.56-21.95-1.56,3.29-6.05,6.89-9.45,7.62Z"/>
            </g>
            <g>
              <path class="cls-5" d="M44.81,130.39c.71,1.72,1.82,2.36,3.58,1.06,1.97-1.46,3.59-2.81,5.56-.73-.04-.08-.09-.17-.14-.26-.75-1.42-1.61-2.93-2.38-4.23-4.11.34-6.87,1.85-6.62,4.16Z"/>
              <path class="cls-5" d="M106.84,131.45c1.76,1.31,2.87.66,3.58-1.05.24-2.31-2.51-3.82-6.62-4.16-.76,1.3-1.62,2.81-2.37,4.22-.05.09-.09.17-.14.26,1.97-2.07,3.59-.73,5.55.73Z"/>
            </g>
            <path class="cls-4" d="M110.42,130.39c-.02.18,2.28-5.62,3.52-9.61.61-1.96,1.08-3.78,1.24-5.06.46-3.9-6.14-5.12-14.81-3.9-7.78,1.09-15.67,5.09-22.71,5.12-7.04-.03-14.99-4.03-22.77-5.12-8.68-1.22-15.28,0-14.81,3.9.15,1.28.63,3.11,1.23,5.06,1.24,3.99,3.54,9.8,3.52,9.61-.24-2.31,2.51-3.82,6.62-4.16,3.37-.28,7.66.23,11.94,1.74,6.8,2.39,10.38,2.5,14.12,2.5h0s.08,0,.12,0,.08,0,.12,0h0c3.73,0,7.32-.11,14.12-2.5,4.29-1.51,8.57-2.02,11.94-1.74,4.11.34,6.87,1.85,6.62,4.16Z"/>
          </g>
          <g>
            <path class="cls-5" d="M54.72,117.88c-.17-.41-.56-.79-1.09-.85-.78-.09-.86.45-.87.52-.05.45.37.69.77.88l.82.4c.39.19.84.51,1.07.89.07.11.32.57.24,1.17-.03.29-.14,1.14-1.16,1.58-.42.18-1,.21-1.34.17-1.19-.14-1.86-.49-2.35-1.6l1.24-.59c.19.57.6.96,1.18,1.02.32.04.92-.03.99-.62.06-.48-.21-.62-1.18-1.11-.98-.5-1.82-1.03-1.67-2.29.13-1.06,1.03-1.72,2.43-1.55,1,.12,1.65.59,2.12,1.42l-1.2.57Z"/>
            <path class="cls-5" d="M56.13,122.87l.1-.56.79.15.96-5.22-.79-.15.1-.55,3.07.57-.1.55-.8-.15-.96,5.2.8.15-.11.58-3.07-.56Z"/>
            <path class="cls-5" d="M61.65,117.35l1.4.29,1.1,3.31c.05.14.1.34.14.48.02.06.06.31.08.36h.05s.1-.63.1-.63c.06-.44.07-.49.13-.73l.5-2.34,1.35.28-1.34,6.3-1.2-.25-1.13-3.43c-.09-.28-.1-.31-.28-1.14h-.05c-.03.17-.16.98-.2,1.14l-.63,2.95-1.35-.28,1.34-6.3Z"/>
            <path class="cls-5" d="M67.62,120.85c.29-1.45,1.28-2.1,2.84-1.78.4.08.99.28,1.38.72.51.57.43,1.36.35,1.87l-1.47-.3c.05-.31.17-1-.56-1.15-.18-.04-.42-.01-.6.09-.28.16-.35.47-.38.64l-.48,2.4c-.07.34-.2,1.01.61,1.17.6.12.88-.31,1.01-.99l1.48.3c-.1.45-.12.5-.22.76-.1.24-.29.68-.93.99-.55.26-1.25.19-1.54.13-.78-.16-1.28-.44-1.62-.91-.22-.3-.51-.74-.25-2.03l.38-1.9Z"/>
            <path class="cls-5" d="M73.52,119.87l4.57.44-.11,1.17-3.09-.3-.13,1.36,2.12.2-.11,1.17-2.1-.2-.15,1.51,3.28.32-.11,1.2-4.78-.46.61-6.42Z"/>
            <path class="cls-5" d="M82.42,120.78c.25-.78.53-1.68,1.9-1.97,1.41-.3,2.35.44,2.55,1.39.21.99-.33,1.71-.97,2.49-.18.22-.54.65-.72.87-.23.29-.26.37-.28.63l2.75-.59.24,1.13-4.34.93c-.14-1.25-.04-1.78,1.04-3.19.74-.96,1.05-1.37.92-1.97-.1-.45-.45-.8-1.01-.68-.83.18-.82,1.04-.83,1.38l-1.25-.42Z"/>
            <path class="cls-5" d="M87.99,119.13c.15-.47.49-1.23,1.55-1.46.53-.12,1.31-.08,1.92.62.44.49.77,1.38.95,2.2.08.37.29,1.54.05,2.39-.13.46-.46,1.17-1.43,1.38-2.23.48-2.76-1.96-2.95-2.84-.14-.66-.33-1.53-.09-2.29ZM90.86,120.07c-.27-1.24-.67-1.48-1.12-1.38-.41.09-.73.37-.44,1.7l.3,1.37c.33,1.5.76,1.59,1.17,1.5.62-.13.6-.82.36-1.96l-.27-1.23Z"/>
            <path class="cls-5" d="M93.17,118.03c.17-.47.52-1.21,1.58-1.42.53-.1,1.31-.04,1.91.66.43.5.73,1.4.89,2.23.07.37.26,1.54,0,2.39-.14.45-.49,1.16-1.47,1.34-2.24.43-2.71-2.03-2.88-2.91-.13-.66-.29-1.53-.03-2.29ZM96.02,119.04c-.24-1.24-.64-1.5-1.09-1.41-.41.08-.74.35-.48,1.68l.26,1.38c.29,1.51.72,1.6,1.14,1.53.62-.12.62-.81.4-1.94l-.24-1.23Z"/>
            <path class="cls-5" d="M99.94,122.47c1.21-1.42,1.56-2.82,1.59-3.06-.19.18-.55.39-1.1.45-.08,0-.83.08-1.45-.42-.39-.31-.67-.86-.73-1.35-.17-1.44.64-2.3,1.92-2.45,1.04-.13,1.66.35,1.86.54.41.37.68.92.79,1.83.01.11.05.7-.03,1.27-.12.8-.5,1.94-1.09,2.98l-1.77.21ZM99.66,117.89c.03.29.12,1.04.97.94.65-.08.8-.55.71-1.23-.05-.43-.23-1.08-.96-.99-.86.1-.75.98-.72,1.28Z"/>
          </g>
          <path class="cls-5" d="M112.18,40.08c-.22-.21-.53-.27-.81-.16l-1.7.65c-.42.15-1,.25-1.57.25h-4.44c.03-.58.05-1.39.06-2.62,0,0,.03-2.32.04-2.85h4.68c.55,0,1.11.09,1.5.24l.7.26c.23.09.49.06.7-.08.21-.14.33-.37.34-.61l.13-3.49c0-.21-.07-.41-.22-.56-.15-.15-.35-.24-.55-.24h-10.4c-1.41,0-2.52.41-3.29,1.16,0-.24.01-.39.01-.39,0-.2-.08-.39-.22-.54-.15-.15-.34-.23-.55-.23h-13.82s-7.77,0-7.77,0c-.41,0-.75.32-.77.73l-.02.33c-.03.49-.07.75-.26,1.03,0,0-.8,1.16-1.4,2.03-.6-.88-1.41-2.07-1.41-2.07-.02-.02-.13-.22-.17-.31.07-.16.3-.64.3-.64.05-.1.07-.22.07-.33,0-.14-.04-.29-.12-.41-.14-.22-.39-.36-.65-.36,0,0-7.52,0-8.15,0h-6.61c-.3,0-.58.19-.7.46,0,0-1.18,2.57-2,4.33-.62-1.78-1.5-4.27-1.5-4.27-.11-.31-.4-.52-.73-.52h-7.37c-.27,0-.52.14-.66.38-.14.23-.14.52-.02.76l.31.57c.17.32.24.73.23,1.44l-.12,8.22c-.01.86-.12,1.21-.29,1.49,0,0-.43.73-.43.73-.14.24-.14.53,0,.77.14.24.39.39.67.39h5.95c.27,0,.52-.14.66-.38.14-.23.15-.52.02-.76l-.31-.57s-.16-.4-.16-.4c-.07-.27-.1-.6-.09-1.03,0,0,.01-.34.03-.84.63,1.74,1.26,3.48,1.26,3.48.11.3.4.51.72.51h3.33c.32,0,.6-.19.72-.49,0,0,.69-1.75,1.38-3.49,0,.13,0,.6,0,.6-.01.86-.12,1.22-.29,1.49l-.43.73c-.07.12-.11.26-.11.39s.03.26.1.38c.14.24.39.39.67.39h6.46c.27,0,.52-.14.66-.38.07-.12.11-.26.11-.39,0-.13-.03-.25-.09-.37l-.3-.57c-.17-.32-.25-.72-.25-1.33,0-.04.12-8.34.12-8.34.01-.7.17-1.32.34-1.33.14-.03.39.27.85.91-.09-.13.53,1.13,4.16,6.4,0,.39-.03,2.01-.03,2.01-.01.86-.12,1.22-.29,1.49,0,0-.43.73-.43.73-.07.12-.11.25-.11.39s.03.26.1.38c.14.24.39.39.67.39h7.58c.27,0,.52-.14.66-.38.07-.12.11-.26.11-.39,0-.13-.03-.25-.09-.37l-.31-.57s-.16-.4-.16-.4c-.06-.25-.09-.54-.09-.93,0-.03.03-1.9.04-2.28.25-.36,3.77-5.43,3.77-5.43,1.13-1.64,1.89-2.02,2.28-2.11.11.18.24.64.24,1.2,0,.02-.12,8.28-.12,8.28-.01.86-.12,1.21-.29,1.49,0,0-.43.73-.43.73-.07.12-.11.25-.11.39s.03.26.1.38c.14.24.39.39.67.39h7.58c.27,0,.52-.14.66-.38.07-.12.11-.26.11-.39,0-.13-.03-.25-.09-.37l-.3-.57-.16-.4c-.06-.24-.09-.54-.09-.92,0-.04.02-1.44.03-2.32h3.11c.7,0,1.28.14,1.71.27l.55.16c.16.05.33.04.49-.02,0,.06,0,.12,0,.19,0,.04,0,.08,0,.13,0,1.5.46,2.68,1.36,3.5.82.74,1.92,1.12,3.29,1.12h9.54c.33,0,.62-.21.73-.52l1.41-4.2c.1-.28.02-.59-.2-.8ZM94.86,35.5c-.4.12-1.02.28-1.73.28h-2.85c0-.17,0-.22,0-.44h3.48c.51,0,.91.05,1.24.12-.05.01-.15.04-.15.04h0Z"/>
          <g>
            <path class="cls-4" d="M82.72,31.82c.68.22.88,1.41.88,2.13,0,.02-.12,8.28-.12,8.28-.01.93-.13,1.48-.42,1.96,0,0-.13.23-.26.44h6.92c-.08-.14-.15-.28-.15-.28l-.24-.62c-.08-.32-.12-.69-.12-1.16,0-.04.04-3.09.04-3.09,0-.11.09-.19.19-.19h3.87c.82,0,1.49.17,1.98.31,0,0,.16.05.31.09,0-.41.04-3,.05-3.43-.23.07-.52.15-.52.15-.46.14-1.16.32-2.01.32h-3.63c-.05,0-.1-.02-.14-.06-.04-.04-.06-.09-.06-.14l.02-1.98c0-.11.09-.19.19-.19h4.25c1.05,0,1.84.21,2.14.31,0,0,.22.07.42.13.01-.41.08-2.67.09-2.99-.16,0-13.61,0-13.62,0h-.07Z"/>
            <path class="cls-4" d="M82.24,31.82h-7.05c0,.07,0,.15,0,.15-.02.4-.06.77-.22,1.14-.05.13-.58.92-2.26,3.33-.04.05-.1.08-.16.08h0c-.06,0-.12-.03-.16-.08,0,0-2.04-2.99-2.04-2.99l-.35-.69s-.02-.14-.02-.14c0,0,.09-.37.09-.37,0,0,.11-.22.2-.43-5.66,0-7.85,0-7.85,0h-6.49c-.1.22-2.75,5.96-2.75,5.96-.03.07-.1.11-.18.11-.08,0-.15-.06-.17-.13,0,0-1.99-5.69-2.08-5.94h-6.91c.08.14.15.28.15.28.24.45.34.97.34,1.77,0,.05-.12,8.36-.12,8.36-.01.93-.13,1.48-.42,1.96,0,0-.13.23-.26.44h5.29c-.08-.14-.15-.28-.15-.28l-.24-.62c-.08-.33-.12-.7-.12-1.17,0-.04,0-.08,0-.13l.15-4.87c0-.09.07-.17.16-.18.09-.02.18.04.21.12,0,0,2.49,6.88,2.58,7.12h3.06c.09-.24,2.89-7.29,2.89-7.29.03-.09.13-.14.22-.12.09.02.15.1.15.19,0,0-.08,4.81-.08,4.81-.01.93-.13,1.48-.42,1.96,0,0-.13.23-.26.44h5.8c-.08-.14-.15-.28-.15-.28-.25-.47-.36-1.01-.36-1.78,0-.04.12-8.35.12-8.35.01-.76.27-2.21,1.19-2.3.65,0,1.31.73,1.74,1.34l4.3,6.6s.03.07.03.11c0,0-.04,2.26-.04,2.26-.01.93-.13,1.48-.42,1.96,0,0-.13.23-.26.44h6.92c-.08-.14-.15-.28-.15-.28l-.24-.62c-.08-.33-.12-.7-.12-1.17,0-.04.04-2.53.04-2.53,0-.04.01-.08.03-.11l3.91-5.63c1.03-1.49,2-2.3,2.91-2.48Z"/>
            <path class="cls-4" d="M110.02,41.47c-.53.2-1.23.31-1.91.31h-4.82l-.42-.05c-.09-.01-.11-.06-.12-.14,0,0-.03-.21-.03-.22,0,0,.09-6.37.09-6.37.01-.45.23-.61.82-.61h4.82c.67,0,1.34.11,1.84.3,0,0,.24.09.45.17.02-.43.1-2.7.11-3.02h-10.2c-2.32,0-3.52,1.2-3.56,3.56,0,0-.07,5.57-.07,5.6,0,1.22.35,2.16,1.05,2.79.64.58,1.53.87,2.64.87h9.4c.07-.22,1.03-3.06,1.23-3.68-.5.19-1.31.51-1.32.51Z"/>
          </g>
          <g>
            <path class="cls-5" d="M37.72,34.65s0-.01,0-.02c.04-.02.04-.03,0-.02,0-.02,0-.05,0-.07,0-5.91-7.96-12.27-15.95-15.99l-.48-.22v.53c.15,7.37,1.55,12.17,7.72,14.55-1.72.24-3.52.66-5.54,1.4-4.81,1.77-9.91,6.76-11.56,9.03l-.29.4.48.12c2.32.55,9.84,1.15,14.66-.63,2.02-.74,3.66-1.62,5.13-2.58-1.06,1.93-1.57,3.72-1.57,5.46,0,3.53,1.99,6.85,5.13,10.69l.34.42.22-.49c2.18-4.9,3.88-10.63,3.88-15.38,0-2.89-.64-5.41-2.18-7.17Z"/>
            <path class="cls-4" d="M37.14,34.97l-.05-.06c-2.09.94-4.96,2.15-10.61,4.23-4.36,1.61-10.32,3.54-12.25,4.13,1.94-.84,7.49-3.14,12-4.81,5.64-2.08,8.67-3.05,10.83-3.67v-.06c0-.07,0-.14,0-.21,0-5.49-7.45-11.47-15.07-15.13.21,7.36,1.68,11.78,8.38,13.82l-.07.65c-2,.15-4.15.66-6.59,1.56-4.42,1.63-9.05,6.03-10.92,8.38,2.68.5,9.35.92,13.75-.7,2.47-.91,4.47-1.97,6.12-3.22l.48.44c-1.48,2.28-2.15,4.32-2.15,6.29,0,3.19,1.78,6.23,4.65,9.79,2.38-5.5,3.62-10.53,3.62-14.49,0-3-.7-5.4-2.11-6.94ZM36.66,34.89c-4.26-3.01-7.44-6.36-13.26-13.23,4.87,4.37,10.22,9.59,13.26,13.23ZM35.24,53.78c-.03-9,.21-13.61,1.5-18.67.05,4.74-.63,12.19-1.5,18.67Z"/>
          </g>
          <g>
            <path class="cls-5" d="M115.3,41.82c0,4.75,1.7,10.48,3.88,15.38l.22.49.34-.42c3.14-3.84,5.13-7.15,5.13-10.69,0-1.74-.51-3.53-1.57-5.46,1.47.97,3.12,1.84,5.13,2.58,4.82,1.78,12.34,1.18,14.66.63l.48-.12-.29-.4c-1.66-2.28-6.75-7.26-11.56-9.03-2.02-.74-3.82-1.16-5.54-1.4,6.17-2.38,7.57-7.18,7.71-14.55v-.53s-.47.22-.47.22c-7.98,3.72-15.95,10.09-15.95,15.99,0,.02,0,.05,0,.07-.04-.01-.04,0,0,.02,0,0,0,.01,0,.02-1.54,1.76-2.18,4.28-2.18,7.17Z"/>
            <path class="cls-4" d="M115.95,41.91c0,3.96,1.24,8.99,3.62,14.49,2.87-3.56,4.65-6.6,4.65-9.79,0-1.98-.67-4.02-2.15-6.29l.48-.44c1.65,1.26,3.65,2.31,6.12,3.22,4.4,1.62,11.07,1.2,13.75.7-1.87-2.36-6.5-6.75-10.92-8.38-2.43-.9-4.59-1.4-6.59-1.56l-.07-.65c6.69-2.04,8.17-6.46,8.38-13.82-7.62,3.66-15.07,9.64-15.07,15.13,0,.07,0,.14,0,.21v.06c2.16.62,5.19,1.59,10.83,3.67,4.52,1.66,10.07,3.96,12,4.81-1.93-.59-7.89-2.52-12.25-4.13-5.66-2.08-8.52-3.29-10.61-4.23l-.05.06c-1.41,1.54-2.11,3.94-2.11,6.94ZM131.79,21.66c-5.82,6.87-9,10.22-13.26,13.23,3.04-3.64,8.39-8.86,13.26-13.23ZM118.45,35.11c1.29,5.06,1.54,9.67,1.5,18.67-.87-6.48-1.55-13.93-1.5-18.67Z"/>
          </g>
        </g>
      </g>
    </g>
  </g>
</svg>