<?xml version="1.0" encoding="UTF-8"?>
<svg id="_レイヤー_2" data-name="レイヤー 2" xmlns="http://www.w3.org/2000/svg" xmlns:xlink="http://www.w3.org/1999/xlink" viewBox="0 0 426.45 446.91">
  <defs>
    <style>
      .cls-1 {
        fill: none;
      }

      .cls-2 {
        fill: #0096b2;
      }

      .cls-3 {
        fill: #221815;
      }

      .cls-4 {
        fill: #ffe100;
      }

      .cls-5 {
        fill: #001b5b;
      }

      .cls-6 {
        fill: #9fa0a0;
      }

      .cls-7 {
        fill: #fff;
      }

      .cls-8 {
        clip-path: url(#clippath);
      }
    </style>
    <clipPath id="clippath">
      <path class="cls-1" d="M390.94,221.93c.07-12.49-5.34-22.53-15.6-29.03-.69-.44-1.39-.87-2.1-1.27-.77-.43-1.55-.85-2.34-1.22-11.64-5.67-23.69-4.48-34.15-2.53-5.83,1.33-9.45,2.5-11.74,3.46-1.46-1.46-3.03-2.84-4.74-4.07-.97-.67-6.37-4.22-14.15-5.76-.48-2.23-.98-3.97-1.26-4.88-.01-.05-.23-.79-.25-.84-1.29-3.88-4.26-11.63-9.68-19.89-6.8-10.34-15.02-17.72-24.49-21.96-15.15-6.65-29.01-3.93-42.64,8.55-6.19,6.4-11.53,14.18-15.87,23.1-.54,1.12-4.52,10.56-4.96,11.86-1.56,4.27-6.56,19.27-5.14,33.03.89,10.47,5.87,20.97,13,27.42.12.11.54.44.67.53,7.94,6.03,16.67,9.07,25.99,9.07,1.13,0,2.27-.05,3.42-.13,12.05-.93,21.23-4.61,21.51-4.72,1.18-.45,2.22-.93,3.33-1.4,3.32,4.59,7.6,8.48,12.65,11.05,6.29,3.17,11.23,4.29,15.81,4.29.67,0,1.31-.14,1.97-.18.25.54.51,1.09.92,1.73,9.83,18.52,24.19,24.87,33.25,24.47.58.03,1.17.05,1.76.05,15.78,0,33.72-11.18,44.46-28.18l.53-.88c3.53-5.77,8.87-14.5,9.85-31.66Z"/>
    </clipPath>
  </defs>
  <g id="_レイヤー_1-2" data-name="レイヤー 1">
    <g>
      <path class="cls-5" d="M426.45,229.4c0,117.76-84.41,196.43-213.22,196.43S0,347.16,0,229.4,95.46,16.18,213.22,16.18s213.22,95.46,213.22,213.22Z"/>
      <g>
        <g>
          <path class="cls-3" d="M419.51,297.96c-1.3-.72-2.84-1.24-3.8-1.44-6.81-1.4-13.64-2.18-20.31-2.33-3.7-.09-7.16,0-10.49.16-1.79-20.11-8.09-39.31-19.27-58.27,1.62-9.72,2.12-22.36,2.53-32.66l.21-5.17c.84-18.75-5.88-43.26-14.38-52.46-2.12-2.29-5.31-4.04-8.12-4.45-21.54-3.21-49.87,5.35-81.73,24.67l-4-.59c-26.18-3.9-58.77-8.75-103.06,1.53-1.4.32-2.95.78-4.54,1.26-2.37.71-6.76,1.98-7.92,1.68-8.49-4.64-30.28-15.71-49.14-18.49-17.53-2.61-29.09.83-34.52,10.31-15.37,28.86-7.65,69.07-4.44,79.47-16,31.01-15.7,63.87-15.6,67.47-.01.84.03,1.72.04,2.58-.84.06-1.6.09-2.48.16-8.93.71-17.8,1.58-28.07,4.44-3.34.92-6.41,3.14-5.81,5.59.47,1.92,2.84,2.35,4.83,2.35,1.54,0,2.85-.25,2.89-.26,10.63-2.16,16.02-2.75,23.47-3.55l3.14-.34c.81-.09,1.61-.13,2.42-.2.81,9.68,2.85,19.99,6.48,30.18-4.44,1.67-9.56,3.89-15.71,7.07-.04.02-3.98,2.08-4.74,4.62-.23.78-.15,1.56.23,2.24.62,1.11,1.92,1.46,3.31,1.46,2.3,0,4.82-.95,4.86-.96,1.84-.81,3.57-1.58,5.21-2.31,3.72-1.66,6.96-3.05,10-4.23,3.93,8.9,9.09,17.53,15.73,25.34-6.84,3.95-15.09,9.33-24.43,16.6-1.94,1.52-3.19,3.45-3.41,5.32-.12,1.04.11,1.99.65,2.67.41.51,1.18.73,2.1.73,1.62,0,3.71-.68,5.14-1.7,10.26-7.27,19.16-12.89,26.15-17.04,7.51,7.31,16.5,13.67,27.22,18.49,35.27,15.84,67.77,19.4,108.95,20l4.04-.06,4.36.06c47.38-.69,84.81-7.46,111.26-20.11,15.35-7.34,27.56-17.24,36.7-29.54,7.64,2.61,16.9,6.62,25.83,12.66,1.14.79,3.45,2.16,5.5,2.16.92,0,1.79-.27,2.47-1.01.29-.3.61-.85.53-1.73-.17-1.86-2.23-4.46-3.56-5.43-9.12-6.66-18.29-10.95-26.01-13.74,5.25-8.67,9.17-18.37,11.72-29.12,5.64.9,12.22,2.35,19.44,4.77.04,0,2.17.71,4.26.71,1.57,0,3.11-.39,3.7-1.78.27-.63.26-1.33-.03-2.02-1.04-2.48-5.38-4.32-5.43-4.33-7.12-2.82-14.12-4.47-20.3-5.49,1.35-8.14,2-16.8,1.93-26,.02-1.57-.07-3.12-.1-4.67,2.94-.16,5.97-.26,9.16-.22,4.96.05,10.48.42,15.35.74,1.52.1,2.99.19,4.4.28,3.19.18,7.1-.41,7.57-2.73.17-.81-.11-2.03-2.36-3.29Z"/>
          <path class="cls-7" d="M354.53,236.09c1.76-9.13,2.29-22.42,2.71-33.11l.22-5.23c.76-16.97-5.67-38.25-11.49-44.55-.51-.56-1.4-.99-1.72-1.06-18.78-2.76-45.27,5.51-74.57,23.31-2.08,1.26-3.22,1.95-5.23,1.65l-5.91-.87c-25.25-3.76-56.69-8.45-98.98,1.36-1.2.27-2.52.67-3.88,1.08-5.38,1.6-11.46,3.43-16.3.79-7.98-4.35-28.38-14.75-45.5-17.28-12.59-1.85-20.45-.25-23.34,4.78-10.47,19.65-8.42,46.45-5.73,61.45.72-.85,1.42-1.62,2.07-2.27,2.63-2.63,5.32-3.6,7.16-2.33,1.91,1.32,1.15,4.66-.08,7.33-1.22,2.65-3.69,7.76-5.63,11.18,0,0,0,.01,0,.02-16.85,29.6-16.54,62.53-16.45,66.2,0,.74.03,1.51.04,2.26,9.31.02,14.99,1,17.89,1.74l.21.05c.06.01,7.62,1.41,7.18,5.04-.39,3.23-4.98,2.99-7.2,2.87l-.82-.06c-2.44-.37-8.96-1.24-16.86-1.4.79,8.79,2.71,18.09,6.01,27.25,4.52-1.04,7.71-1.28,9.83-1.4l.29-.02c2.79-.15,9.39-.25,9.73,3.07.3,2.87-4.87,4.24-7.11,4.7-1.04.21-2.16.36-3.41.53-1.75.24-3.74.52-6.09,1.02,3.77,8.24,8.76,16.15,15.14,23.24,6.63-3.22,10.45-4.4,10.53-4.42.06-.03,6.57-1.68,7.84,1.28,1.09,2.56-1.67,3.92-4.33,5.24-.85.42-1.74.86-2.55,1.35,0,0-.09.05-.26.13-1.03.51-2.75,1.4-5.02,2.62,6.17,5.56,13.32,10.43,21.71,14.2,33.54,15.07,64.84,18.46,104.45,19.04l4.04-.06,4.36.06c44.98-.67,81.88-7.25,106.54-19.04,12.36-5.91,22.38-13.54,30.16-22.9-3.71-.86-5.98-1.18-6.04-1.19-1.42-.14-5.85-1.17-7.34-3.19-.44-.61-.61-1.28-.47-1.94.75-3.62,7.32-2.9,10.09-2.43.35.03,3.75.38,9.03,1.65,5.2-7.94,9.03-16.98,11.53-27.1-2.33-.14-4.2-.17-5.48-.17-2.44.01-5.28-.05-5.28-.05-.74-.07-6.59-.76-6.82-3.68-.03-.39.05-1,.6-1.64,1.31-1.53,4.62-2.39,6.03-2.5l.31-.03c.84-.08,3.07-.3,5.31-.32h.61c1.62,0,3.81.05,6.42.22,1.29-7.68,1.93-15.9,1.86-24.74.01-1.24-.06-2.46-.09-3.69-6.85.85-12.47,1.97-16.3,2.74-1.96.39-3.38.68-4.24.78-1.38.2-2.56.3-3.55.3-2.31,0-3.58-.56-4-1.72-.29-.84-.23-1.74.18-2.59.74-1.52,2.53-2.81,5.19-3.72,2.09-.71,10.2-3.2,22.24-4.68-1.72-19.09-7.86-37.28-18.78-55.31-.7-1.16-.95-2.54-.69-3.87Z"/>
        </g>
        <g>
          <path class="cls-3" d="M115.31,317.77c-3.5,7.1-3.52,18.45,1.21,24.48,2.92,3.45,7.8,5.41,14.09,4.33,5.43-.94,8.52-5.9,9.55-9.85,2.23-8.84-.14-19.68-5.23-23.79-5.36-3.91-15.39-3.82-19.61,4.83Z"/>
          <path class="cls-3" d="M285.41,318.81c-3.5,7.1-3.52,18.45,1.21,24.48,2.92,3.45,7.8,5.41,14.09,4.33,5.43-.94,8.52-5.9,9.55-9.85,2.23-8.84-.14-19.68-5.23-23.79-5.36-3.91-15.39-3.82-19.61,4.83Z"/>
          <g>
            <path class="cls-3" d="M230.45,349.52c-1.17-4.16-4.32-7.43-8.44-8.76-7.86-2.55-15.82-1.48-20.77,2.79-5.16,4.56-5.41,12.65-2.19,16.84,2.99,3.88,7.72,5.9,14.48,6.2.31.01.63.02.94.02,5.41,0,10.44-1.98,13.31-5.27v-.02c2.83-3.28,3.82-7.69,2.67-11.81Z"/>
            <path class="cls-4" d="M219.9,347.26c-2.1-.68-4.24-1.01-6.25-1.01-3.19,0-6.05.84-7.91,2.45-2.45,2.17-2.29,6.18-1.26,7.52,1.68,2.18,4.74,3.34,9.35,3.54,4.27.17,7.46-1.38,8.79-2.9,1.34-1.56,1.79-3.55,1.24-5.49-.54-1.94-2.02-3.48-3.96-4.11Z"/>
          </g>
        </g>
      </g>
      <g>
        <g>
          <path class="cls-3" d="M174.31,407.6c-1.48-4.63-4.48-8.3-7.74-11.99-11.57-11.1-31.76-15.56-47.81-10.64-11.58,3.03-24.94,13.2-26.89,28.3-1.79,11.76,2.42,22.06,11.65,27.76,9.31,4.78,19.42,4.67,29.7-.17.87-.33,1.3-.24,3.57.72,1.42.61,3.17,1.34,5.28,1.7,3.57,1.03,6.76,1.46,9.57,1.46,7.46,0,12.38-3.02,15.44-6.04,7.97-7.84,10.94-20.61,7.23-31.1Z"/>
          <path class="cls-7" d="M163.97,411.19c-.03-.07-.05-.13-.07-.2-.84-2.65-3.05-5.31-5.25-7.82-8.41-8.05-24.41-11.47-36.92-7.67-8.41,2.21-17.79,9.67-19.04,19.29-.55,3.62-1.01,12.25,6.19,16.72,5.93,3.02,12.4,2.87,20-.7,1.9-.75,3.63-1.02,5.18-1.02,2.92,0,5.24.98,6.98,1.72,1.12.47,2.08.88,2.97,1.01.27.04.53.09.78.17,6.51,1.94,11.44,1.34,14.59-1.78,4.91-4.82,6.87-13.3,4.58-19.71Z"/>
        </g>
        <g>
          <path class="cls-3" d="M338.19,415.56c-1.98-15.21-15.33-25.39-26.69-28.34-16.27-4.97-36.47-.53-48.34,10.91-2.82,3.2-5.95,7-7.44,11.65-3.71,10.49-.74,23.27,7.22,31.1,3.07,3.03,8,6.05,15.45,6.05,2.81,0,5.99-.43,9.57-1.46,2.11-.36,3.86-1.1,5.28-1.7,2.29-.98,2.71-1.06,3.23-.88,10.61,5,20.73,5.1,30.44.1,8.83-5.48,13.04-15.78,11.27-27.43Z"/>
          <path class="cls-7" d="M327.35,417.09c-1.27-9.74-10.64-17.21-18.84-19.34-3.53-1.08-7.32-1.6-11.13-1.6-9.92,0-20.02,3.48-26.32,9.53-1.88,2.17-4.1,4.83-4.94,7.48-.02.07-.04.13-.07.2-2.29,6.41-.33,14.89,4.56,19.7,3.17,3.11,8.06,3.72,14.6,1.78.25-.07.51-.13.78-.17.89-.13,1.85-.53,2.97-1.01,2.67-1.14,6.69-2.83,11.82-.85,7.93,3.73,14.41,3.88,20.73.63,6.81-4.24,6.35-12.88,5.82-16.38Z"/>
        </g>
      </g>
      <g>
        <g class="cls-8">
          <rect class="cls-5" x="244.78" y="123.51" width="102.63" height="175.93" transform="translate(-20.71 390.45) rotate(-65)"/>
          <rect class="cls-2" x="260.02" y="147.44" width="49.84" height="175.93" transform="translate(-48.83 394.15) rotate(-65)"/>
          <polygon class="cls-6" points="378.57 251.24 223.93 153.01 203.92 195.92 378.57 251.24"/>
        </g>
        <path class="cls-3" d="M390.94,221.93c.07-12.49-5.34-22.53-15.6-29.03-.69-.44-1.39-.87-2.1-1.27-.77-.43-1.55-.85-2.34-1.22-11.64-5.67-23.69-4.48-34.15-2.53-5.83,1.33-9.45,2.5-11.74,3.46-1.46-1.46-3.03-2.84-4.74-4.07-.97-.67-6.37-4.22-14.15-5.76-.48-2.23-.98-3.97-1.26-4.88-.01-.05-.23-.79-.25-.84-1.29-3.88-4.26-11.63-9.68-19.89-6.8-10.34-15.02-17.72-24.49-21.96-15.15-6.65-29.01-3.93-42.64,8.55-6.19,6.4-11.53,14.18-15.87,23.1-.54,1.12-4.52,10.56-4.96,11.86-1.56,4.27-6.56,19.27-5.14,33.03.89,10.47,5.87,20.97,13,27.42.12.11.54.44.67.53,7.94,6.03,16.67,9.07,25.99,9.07,1.13,0,2.27-.05,3.42-.13,12.05-.93,21.23-4.61,21.51-4.72,1.18-.45,2.22-.93,3.33-1.4,3.32,4.59,7.6,8.48,12.65,11.05,6.29,3.17,11.23,4.29,15.81,4.29.67,0,1.31-.14,1.97-.18.25.54.51,1.09.92,1.73,9.83,18.52,24.19,24.87,33.25,24.47.58.03,1.17.05,1.76.05,15.78,0,33.72-11.18,44.46-28.18l.53-.88c3.53-5.77,8.87-14.5,9.85-31.66ZM262.41,232.45c-.08.03-8.08,3.2-18.37,4-11.87.91-19.45-4.85-21.88-6.66-5-4.53-8.79-12.66-9.45-20.34-1.18-11.51,3.16-24.52,4.61-28.48.39-1.06,3.95-9.57,4.44-10.59,3.84-7.89,8.52-14.72,13.66-20.06,10.24-9.37,19.41-11.29,30.57-6.38,7.49,3.35,14.15,9.4,19.77,17.96,4.92,7.49,7.54,14.61,8.32,16.9l.28.99c.1.33.23.76.37,1.26-3.12.38-6.39,1.21-9.76,2.67-.86.37-1.62.86-2.44,1.29-1.82-1.99-4.05-3.77-6.3-5.03-6.73-3.79-14.11-3.84-20.25-.13-6.59,4-10.46,11.71-9.86,19.44.23,6.03,2.69,11.16,7.12,14.82,2.87,2.37,6.27,3.78,9.4,4.6,0,.53-.07,1.05-.05,1.58.03,3.82.78,7.6,2.04,11.21-.76.31-1.43.63-2.24.94ZM264.12,207.77c-1.43-.51-2.96-1.24-4.22-2.39-1.79-1.63-2.7-3.75-2.82-6.7-.29-3.87,1.51-7.58,4.61-9.47,2.17-1.32,4.47-1.53,7.04-.66,2.02.68,3.67,1.86,4.9,2.98-4.48,4.46-7.75,9.99-9.5,16.23ZM306.89,244.15c-7.63,2.01-11.53,2.43-19.54-1.62-8.18-4.17-13.72-13.13-13.78-22.46-.43-11.82,5.62-21.89,15.78-26.29,3.44-1.49,6.75-2.05,9.77-2.05,8.05,0,14.03,3.93,14.85,4.49,9.03,6.49,13.34,17.88,10.69,28.51-2.49,11.49-10.8,17.57-17.75,19.43ZM371.63,248.09l-.6,1.01c-8.69,13.74-23.71,23.26-36.56,22.57-6.52.09-15.93-5.15-23.02-17.53,4.14-1.36,8.46-3.71,12.35-7.14,1.96,1.41,4.3,2.61,7,3.2,1.02.22,2.2.38,3.49.38,3.21,0,7.18-.98,11.47-4.38,4.81-4.81,6.44-10.35,4.85-17.49-2.82-8.54-9.53-11.12-14.31-12.03-.27-5.63-1.81-11.14-4.48-16.14,2.05-.65,4.64-1.36,7.15-1.93,8.49-1.57,18.35-2.62,27.19,1.67.59.28,1.14.58,1.7.89.53.3,1.04.61,1.59.96,7.15,4.53,10.61,10.99,10.57,19.46-.82,14.14-4.94,20.88-8.38,26.5ZM335.17,227.66c2.53.61,4.13,1.69,4.89,3.93.65,2.96.13,4.69-1.56,6.43-1.71,1.35-3.44,1.83-5.18,1.51-.94-.17-1.76-.57-2.49-1,1.88-3.16,3.39-6.77,4.33-10.89Z"/>
        <path class="cls-1" d="M390.94,221.93c.07-12.49-5.34-22.53-15.6-29.03-.69-.44-1.39-.87-2.1-1.27-.77-.43-1.55-.85-2.34-1.22-11.64-5.67-23.69-4.48-34.15-2.53-5.83,1.33-9.45,2.5-11.74,3.46-1.46-1.46-3.03-2.84-4.74-4.07-.97-.67-6.37-4.22-14.15-5.76-.48-2.23-.98-3.97-1.26-4.88-.01-.05-.23-.79-.25-.84-1.29-3.88-4.26-11.63-9.68-19.89-6.8-10.34-15.02-17.72-24.49-21.96-15.15-6.65-29.01-3.93-42.64,8.55-6.19,6.4-11.53,14.18-15.87,23.1-.54,1.12-4.52,10.56-4.96,11.86-1.56,4.27-6.56,19.27-5.14,33.03.89,10.47,5.87,20.97,13,27.42.12.11.54.44.67.53,7.94,6.03,16.67,9.07,25.99,9.07,1.13,0,2.27-.05,3.42-.13,12.05-.93,21.23-4.61,21.51-4.72,1.18-.45,2.22-.93,3.33-1.4,3.32,4.59,7.6,8.48,12.65,11.05,6.29,3.17,11.23,4.29,15.81,4.29.67,0,1.31-.14,1.97-.18.25.54.51,1.09.92,1.73,9.83,18.52,24.19,24.87,33.25,24.47.58.03,1.17.05,1.76.05,15.78,0,33.72-11.18,44.46-28.18l.53-.88c3.53-5.77,8.87-14.5,9.85-31.66Z"/>
        <path class="cls-1" d="M390.94,221.93c.07-12.49-5.34-22.53-15.6-29.03-.69-.44-1.39-.87-2.1-1.27-.77-.43-1.55-.85-2.34-1.22-11.64-5.67-23.69-4.48-34.15-2.53-5.83,1.33-9.45,2.5-11.74,3.46-1.46-1.46-3.03-2.84-4.74-4.07-.97-.67-6.37-4.22-14.15-5.76-.48-2.23-.98-3.97-1.26-4.88-.01-.05-.23-.79-.25-.84-1.29-3.88-4.26-11.63-9.68-19.89-6.8-10.34-15.02-17.72-24.49-21.96-15.15-6.65-29.01-3.93-42.64,8.55-6.19,6.4-11.53,14.18-15.87,23.1-.54,1.12-4.52,10.56-4.96,11.86-1.56,4.27-6.56,19.27-5.14,33.03.89,10.47,5.87,20.97,13,27.42.12.11.54.44.67.53,7.94,6.03,16.67,9.07,25.99,9.07,1.13,0,2.27-.05,3.42-.13,12.05-.93,21.23-4.61,21.51-4.72,1.18-.45,2.22-.93,3.33-1.4,3.32,4.59,7.6,8.48,12.65,11.05,6.29,3.17,11.23,4.29,15.81,4.29.67,0,1.31-.14,1.97-.18.25.54.51,1.09.92,1.73,9.83,18.52,24.19,24.87,33.25,24.47.58.03,1.17.05,1.76.05,15.78,0,33.72-11.18,44.46-28.18l.53-.88c3.53-5.77,8.87-14.5,9.85-31.66Z"/>
      </g>
    </g>
    <g>
      <path class="cls-7" d="M133.96,37.02c-.45-.73-1.21-1.21-2.07-1.29l-1.02-.1c-1.76-.18-5.05-4.56-6.71-8.22-2.84-6.21-6.79-8.25-7.56-8.6.03.01.06.03.09.04-.32-.16-.64-.3-.95-.43.06-.62-.08-1.25-.44-1.8-3.31-5.01-7.71-5.87-9.92-5.58-2.41.15-4.46,1.18-5.99,2.27-2.14-1.38-4.69-1.42-6.59-.69-2.23.75-3.59,2.41-4.2,4.33-.14-.1-.28-.18-.43-.25.18-.59.16-1.24-.08-1.84-.46-1.13-1.6-1.82-2.81-1.7-.44.04-.68-.13-.75-.19,0,0,.03.03.09.09-.08-.09-.18-.18-.27-.26-1.37-1.16-2.92-5.11-3.47-7.4,0,0-.79-3.28-.79-3.28-.3-1.24-1.4-2.11-2.67-2.11s-2.38.87-2.67,2.11l-.79,3.27c-.55,2.3-2.09,6.25-3.47,7.41-.1.08-.19.17-.27.26.06-.07.09-.09.09-.09-.06.06-.3.23-.74.19-1.21-.12-2.35.57-2.81,1.7-.24.6-.26,1.25-.08,1.84-.15.07-.3.16-.43.25-.6-1.92-1.96-3.58-4.2-4.33-1.91-.73-4.46-.69-6.59.69-1.53-1.09-3.58-2.12-5.99-2.27-2.21-.29-6.61.57-9.92,5.58-.36.55-.5,1.18-.44,1.8-.32.13-.63.27-.95.43.03-.01.06-.03.09-.04-.76.35-4.72,2.39-7.55,8.59-1.66,3.66-4.96,8.05-6.72,8.23l-1.02.1c-.85.09-1.62.56-2.07,1.29-.45.73-.53,1.63-.23,2.43l.37.96c.13.35,1.41,3.43,4.93,4.38,1.23.33,2.54.34,3.9.05-.59,1.45-1.59,2.7-3.24,3.21,0,0-1.35.42-1.35.42-.95.3-1.67,1.08-1.88,2.06-.21.98.14,1.99.89,2.64l1.07.92c.32.28,3.22,2.68,7.15,2.22.55-.06,1.09-.18,1.61-.35.55,5.36-.01,9.19-1.09,10.09-.29.24-1.22.28-2.88-.43,0,0-1.49-.63-1.49-.63-.97-.41-2.09-.23-2.89.46-.79.69-1.12,1.78-.84,2.8l.43,1.56c.19.69,1.99,6.78,6.93,8.61.67.25,1.35.4,2.05.46-.11.93-.2,1.92-.23,2.96-.23,8.8,3.69,13.09,7.03,15.14.33.21.66.4.99.57-.2.2-.37.44-.5.71-1.13,2.31-2.07,7.74,2.44,11.8,2.2,1.97,5.08,2.93,8.59,2.86-.12,1.45-.05,3.09.27,4.92l.44,2.56c.21,1.2,1.17,2.11,2.37,2.26.91.11,1.8-.24,2.39-.9.65,1.26,1.72,2.44,3.17,3.21-.03.15-.06.31-.07.46-.06,1.12.57,2.16,1.59,2.64l1.76.82c.27.13,2.19.96,4.65.67,1.06,2.8,4.88,12.91,4.88,12.91,0,0,.73,1.94.73,1.94.4,1.07,1.43,1.78,2.57,1.78s2.17-.71,2.57-1.78l.73-1.94s3.82-10.1,4.88-12.91c2.46.3,4.38-.54,4.65-.67,0,0,1.76-.82,1.76-.82,1.02-.47,1.64-1.52,1.59-2.64,0-.16-.03-.31-.07-.46,1.45-.77,2.53-1.95,3.17-3.21.59.66,1.48,1.01,2.39.9,1.2-.15,2.17-1.07,2.37-2.26l.44-2.56c.32-1.84.39-3.47.27-4.92,3.51.07,6.39-.89,8.59-2.86,4.52-4.06,3.57-9.49,2.44-11.8-.13-.27-.3-.5-.5-.71.33-.16.67-.35.99-.57,3.33-2.05,7.26-6.33,7.03-15.14-.03-1.04-.11-2.03-.23-2.96.7-.06,1.39-.22,2.05-.46,4.94-1.83,6.74-7.93,6.93-8.62,0,0,.43-1.56.43-1.56.28-1.02-.05-2.11-.84-2.8-.79-.69-1.92-.87-2.89-.46l-1.49.63c-1.66.71-2.59.67-2.88.43-1.07-.9-1.64-4.73-1.09-10.09.52.17,1.06.28,1.61.35,3.93.46,6.83-1.95,7.15-2.22,0,0,1.06-.92,1.06-.92.76-.65,1.1-1.67.89-2.64-.21-.98-.92-1.77-1.88-2.06l-1.35-.42c-1.65-.51-2.64-1.77-3.24-3.21,1.36.3,2.67.29,3.9-.05,3.52-.95,4.79-4.03,4.93-4.38,0,0,.37-.96.37-.96.31-.8.22-1.7-.23-2.43Z"/>
      <g>
        <g>
          <g>
            <path d="M130.59,38.36c-3.85-.38-7.76-7.22-8.94-9.82-2.5-5.46-5.91-7.1-6.19-7.23-6.74-3.36-11.34.95-11.69,1.29h0c-5.59,5.34-3.25,10.51-3.14,10.72.98,2.06,2.34,3.34,4.07,3.82,2.11.58,4.19-.26,5.02-.81,1.91-1.12,2.68-3.36,1.79-5.23-.76-1.59-2.46-2.44-4.12-2.21.2-.32.46-.59.79-.81,1.28-.84,3.24-.68,4.19-.39,2.04.63,5.16,2.68,3.13,9.23-.73,2.35-1.88,3.88-3.44,4.56-2.27.99-4.67-.13-4.69-.14l-1.03-.49-.09,1.14c-.22,2.81.43,4.71,1.96,5.81,2.27,1.63,5.03,1.06,6.71.44-.84,2.72-2.39,4.12-3.9,5.47l-.4.36c-.88.79-8.47,7.89-5.78,12.68.63,1.11,1.5,1.79,2.6,2.02,1.09.23,2.21-.05,3.11-.41-.22,1.43-.31,3.75-.05,7.51.21,2.91-.02,5.03-.44,6.55-.03-.04-.04-.06-.04-.06-.72-1.02-2.11-1.62-3.8-1.64-2.61-.04-5.16,1.26-6.82,3.46-2.93,3.89-1.36,7.39-.12,9.17-4.65.7-6.86,4.12-6.98,7.47-.07,1.98.55,4.03,1.85,5.7-2.32-.18-4.56,1.27-5.45,3.66-.36.98-.92,1.61-1.7,1.93-1.67.69-3.82-.27-3.84-.28l-.05-.02-.05-.02c-1.76-.52-3.2-.44-4.29.25-.61.39-1.04.91-1.34,1.48-.3-.56-.73-1.09-1.34-1.48-1.09-.69-2.53-.77-4.29-.25l-.05.02-.05.02s-2.17.98-3.84.28c-.78-.32-1.33-.96-1.7-1.93-.89-2.39-3.13-3.84-5.46-3.66,1.29-1.68,1.92-3.72,1.85-5.7-.12-3.35-2.34-6.77-6.98-7.47,1.23-1.78,2.81-5.28-.12-9.17-1.66-2.2-4.21-3.49-6.82-3.46-1.69.02-3.07.62-3.8,1.64,0,0-.02.02-.04.06-.42-1.52-.64-3.65-.44-6.55.27-3.76.17-6.08-.05-7.51.89.37,2.01.64,3.11.41,1.1-.23,1.98-.91,2.6-2.02,2.7-4.78-4.9-11.88-5.78-12.68l-.4-.36c-1.51-1.35-3.06-2.75-3.9-5.47,1.68.61,4.43,1.18,6.71-.44,1.54-1.1,2.18-3,1.97-5.81l-.09-1.14-1.03.49s-2.42,1.13-4.69.14c-1.56-.68-2.71-2.22-3.44-4.56-2.03-6.55,1.09-8.6,3.13-9.23.94-.29,2.91-.45,4.19.39.33.21.59.48.79.81-1.66-.24-3.36.61-4.12,2.21-.89,1.86-.12,4.11,1.79,5.23.83.54,2.91,1.39,5.02.81,1.72-.48,3.09-1.76,4.07-3.82.1-.22,2.45-5.38-3.14-10.72h0c-.34-.34-4.94-4.64-11.69-1.28-.28.13-3.69,1.77-6.19,7.23-1.18,2.6-5.09,9.44-8.94,9.82l-1.02.1.37.96c.03.09.83,2.11,3.07,2.71,1.9.51,4.17-.16,6.77-1.98-.04,2.82-.74,8.89-6.01,10.52l-1.35.42,1.07.92c.09.08,2.22,1.89,5.03,1.57,1.47-.17,2.83-.89,4.05-2.15.9,4.84,1.81,14.01-1.44,16.73-1.28,1.07-3.2,1.07-5.72,0l-1.49-.63.43,1.56c.06.22,1.52,5.39,5.24,6.76,1.4.52,2.91.43,4.49-.25-.37,1.51-.8,3.79-.87,6.33-.16,5.93,1.82,10.33,5.72,12.72,1.23.83,2.64,1.13,4.12,1.45.73.16,1.49.32,2.23.55h.03s.03.02.03.02c1.85.44,3.58,2.09,3.13,4.28-.21,1.02-.81,1.9-1.68,2.48-.87.57-1.91.78-2.94.57-1.54-.32-2.79-1.08-3.17-2.37,0,0-.3-.99-.23-2.15,0,0-2.35,4.8,1.81,8.54,1.93,1.73,4.62,2.4,7.92,2.09.91-.08,1.75-.27,2.52-.53-.91,1.74-1.31,4.29-.7,7.81l.44,2.56,1.05-2.37c.37-.83,1.7-3.09,3.37-3.48.82-.2,1.66.07,2.55.8,1.07.88,1,2.22.49,3.1-.4.69-1.19,1.29-2.2.9l-1.49-.58.46,1.53c.35,1.18,1.83,3.39,4.88,3.28,1.12-.04,2.08-.41,3.17-1.25-.04,1.03-.52,2.4-2.53,3.09l-1.83.63,1.76.82c.1.04,2.38,1.08,4.87-.05,1.73-.78,3.1-2.39,4.08-4.77.32.84.56,1.91.24,2.89-.35,1.06-1.33,1.86-2.91,2.39l-.77.26.29.76,5.15,13.62.73,1.94.73-1.94,5.15-13.62.29-.76-.77-.26c-1.58-.53-2.57-1.33-2.91-2.39-.32-.98-.09-2.05.24-2.89.98,2.39,2.35,3.99,4.08,4.77,2.49,1.13,4.77.09,4.87.05l1.76-.82-1.83-.63c-2.01-.69-2.49-2.06-2.53-3.09,1.09.84,2.05,1.21,3.17,1.25,3.05.11,4.53-2.1,4.88-3.28l.46-1.53-1.49.58c-1.01.39-1.8-.21-2.2-.9-.51-.88-.58-2.22.49-3.1.9-.73,1.73-1,2.55-.8,1.67.4,3,2.65,3.37,3.48l1.05,2.37.44-2.56c.61-3.52.21-6.06-.7-7.8.77.26,1.6.45,2.51.53,3.3.3,5.99-.36,7.92-2.09,4.16-3.74,1.81-8.54,1.81-8.54.07,1.16-.23,2.15-.23,2.15-.38,1.29-1.63,2.05-3.17,2.37-1.02.21-2.07,0-2.94-.57-.87-.57-1.47-1.45-1.68-2.48-.45-2.19,1.28-3.84,3.13-4.28h.03s.03-.02.03-.02c.74-.23,1.5-.4,2.23-.55,1.49-.32,2.89-.62,4.12-1.45,3.9-2.39,5.88-6.79,5.72-12.72-.07-2.54-.5-4.82-.87-6.33,1.59.69,3.09.77,4.49.25,3.72-1.38,5.18-6.54,5.24-6.76l.43-1.56-1.49.63c-2.52,1.07-4.45,1.07-5.72,0-3.25-2.72-2.34-11.89-1.44-16.73,1.22,1.25,2.58,1.98,4.05,2.15,2.8.33,4.94-1.49,5.03-1.57l1.07-.92-1.35-.42c-5.26-1.63-5.97-7.7-6.01-10.52,2.6,1.82,4.88,2.49,6.77,1.98,2.24-.6,3.04-2.62,3.07-2.71l.37-.96-1.02-.1ZM47.89,85.58c-.1.2-.42.27-.77.17-.6-.17-1.36-.8-1.95-2.17l.16.03c.9.15,2.31.64,2.63,1.26.07.13.12.34-.07.71ZM107.73,85.75c-.35.1-.67.03-.77-.17-.19-.38-.14-.58-.07-.71.32-.63,1.73-1.12,2.63-1.26l.16-.03c-.59,1.36-1.35,2-1.95,2.17Z"/>
            <path d="M109.75,36.31s-.02.01-.03.02c0,0,0,0-.01,0l.04-.02Z"/>
            <path d="M45.13,36.34s0,0-.01,0c0,0-.02-.01-.03-.02l.04.02Z"/>
          </g>
          <g>
            <path class="cls-2" d="M119.79,33.38s1.35,1.45,2.61,2.75c1.96,2.38,4.29,2.9,5.65,2.99-4.39-2.45-7.66-9.58-7.82-9.93-2.28-4.99-5.38-6.44-5.41-6.45h-.02s-.02-.02-.02-.02c-5.94-2.96-9.74.82-9.9.98h-.01s-.01.02-.01.02c-4.75,4.53-2.89,8.75-2.81,8.92.77,1.63,1.8,2.63,3.07,2.98,1.65.46,3.28-.29,3.77-.62h.02s.02-.02.02-.02c1.03-.6,1.76-1.91,1.18-3.21-.11-.25-.26-.46-.45-.64.14.38.18.78.12,1.19-.18,1.3-1.27,2.24-2.68,2.28-.07,0-1.78.21-2.96-1.02-.94-.98-1.25-2.54-.9-4.65,0,0-.09,2.45,1.4,4.01.84.88,2.37.69,2.38.69.94-.03,1.67-.61,1.79-1.44.06-.4-.05-.8-.29-1.12-.23-.3-.55-.49-.91-.57-.13,0-.26,0-.39,0-1.47.06-1.24,1.57-1.24,1.57,0,0-.61-.4-.6-1.89.01-1.27.84-2.67,1.96-3.4,1.88-1.23,4.42-.91,5.51-.58,2.09.65,6.69,3.04,4.16,11.19-.87,2.8-2.32,4.66-4.31,5.54-1.56.68-3.13.61-4.27.38.71.63,2.21,1.72,3.89,1.51,3.68-.46,5.14-2.35,5.48-2.88.03-.05.06-.09.09-.14,0,0-.03.06-.09.14-1.5,2.53-3.56,3.62-5.49,3.81-1.97.2-3.6-.89-4.44-1.61.16,1.1.58,1.9,1.27,2.39,2.63,1.89,6.49-.31,6.53-.33l1.46-.85-.3,1.66c-.76,4.29-2.98,6.28-4.76,7.87l-.39.35c-2.64,2.39-7.17,7.71-5.46,10.75.4.71.91,1.12,1.56,1.26,1.63.35,3.65-.98,3.66-.99,0,0,1.01-.67,1.8-1.45,0,0-.7,1.74-.9,2.36,0,0-.65,1.81-.26,8.61.43,7.52-1.68,10.85-3.92,11.48-1.1.31-2.14-.08-2.59-.96-.48-.94-.3-1.68-.07-2.13.08-.16.19-.31.3-.45-1.13.67-2.4,1.69-2.74,3.03-.61,2.4.91,4.68.91,4.68-1.59-1.69-2.2-3.34-1.81-4.92.53-2.15,2.79-3.53,4.16-4.19-.03,0-.07,0-.1,0-2.11-.03-4.18,1.03-5.55,2.83-3.34,4.43.54,8.16.71,8.31l1.43,1.32-1.94.04c-5,.09-6.88,3.34-6.98,6.09-.13,3.46,2.34,7.2,7.28,7.65,2.85.26,5.11-.31,6.74-1.71.16-.14.31-.28.45-.43-1.62.58-3.88.98-6.21.09-2.3-.88-3.9-3.01-4.75-6.34,0,0,1.12,3.97,5.03,5.5,1.64.64,3.48.39,5.06-.1-1.38.24-2.77-.05-3.94-.82-1.22-.81-2.05-2.04-2.35-3.47-.57-2.76,1.27-5.38,4.27-6.11.8-.25,1.59-.42,2.35-.58,1.34-.29,2.61-.56,3.59-1.23h.02s.02-.02.02-.02c8.29-5.07,3.72-18.92,3.67-19.06l-.75-2.2,1.92,1.3c1.77,1.19,3.37,1.54,4.76,1.03,1.35-.5,2.35-1.72,3.04-2.9-1.63,1.16-3.22,1.61-4.75,1.33-2.95-.54-4.5-3.59-4.56-3.72,0,0,1.82,2.3,4.72,2.81,1.37.24,2.86-.3,4.4-1.53-1.96.38-3.59.04-4.86-1.02-5.13-4.29-1.79-19.22-1.64-19.86l.39-1.69,1.01,1.41c1.21,1.68,2.56,2.62,4.02,2.8.59.07,1.15,0,1.65-.12-6.1-1.59-5.75-6.7-5.75-6.75,0,0,.37,1.71,2.02,3.63.68.79,1.85,1.53,3.48,2.02-1.92-1.41-3.26-3.6-3.93-6.48-.7-3-.43-5.67-.42-5.78l.15-1.43,1.12.9c2.66,2.14,4.94,3.04,6.59,2.61.43-.11.78-.3,1.06-.52-1.6.02-6.38-.49-9.01-6.73Z"/>
            <path class="cls-2" d="M53.99,94.81l-1.94-.04,1.43-1.32c.17-.15,4.05-3.88.71-8.31-1.36-1.8-3.43-2.86-5.55-2.83-.03,0-.07,0-.1,0,1.37.66,3.64,2.05,4.16,4.19.39,1.57-.22,3.23-1.81,4.92,0,0,1.52-2.28.91-4.68-.34-1.34-1.61-2.36-2.74-3.03.12.14.22.29.3.45.23.46.41,1.2-.07,2.13-.45.88-1.49,1.27-2.59.96-2.25-.63-4.35-3.96-3.92-11.48.38-6.8-.26-8.61-.26-8.61-.2-.62-.9-2.36-.9-2.36.79.79,1.8,1.45,1.8,1.45.02.01,2.03,1.34,3.66.99.65-.14,1.16-.55,1.56-1.26,1.71-3.03-2.83-8.35-5.46-10.75l-.39-.35c-1.78-1.59-3.99-3.58-4.76-7.87l-.3-1.66,1.46.85s3.9,2.21,6.53.33c.69-.49,1.11-1.29,1.27-2.39-.85.72-2.48,1.81-4.44,1.61-1.93-.2-3.99-1.29-5.49-3.81-.06-.09-.09-.14-.09-.14.03.05.06.1.09.14.34.53,1.81,2.42,5.48,2.88,1.68.21,3.18-.88,3.89-1.51-1.14.23-2.71.31-4.27-.38-1.99-.87-3.44-2.73-4.31-5.54-2.52-8.15,2.07-10.54,4.16-11.19,1.09-.34,3.63-.65,5.51.58,1.12.73,1.95,2.13,1.96,3.4.01,1.49-.6,1.89-.6,1.89,0,0,.23-1.51-1.24-1.57-.14,0-.27,0-.39,0-.36.07-.69.27-.91.57-.24.32-.35.72-.29,1.12.12.83.85,1.41,1.79,1.44.01,0,1.54.19,2.38-.69,1.49-1.56,1.4-4.01,1.4-4.01.35,2.11.05,3.67-.9,4.65-1.18,1.23-2.89,1.03-2.96,1.02-1.41-.04-2.5-.98-2.68-2.28-.06-.41-.01-.82.12-1.19-.19.18-.33.39-.45.64-.58,1.29.15,2.61,1.18,3.21h.02s.02.02.02.02c.49.33,2.12,1.07,3.77.62,1.26-.35,2.29-1.35,3.07-2.98.08-.17,1.94-4.39-2.81-8.92h-.01s-.01-.02-.01-.02c-.16-.16-3.96-3.95-9.9-.98h-.02s-.02.02-.02.02c-.03.01-3.13,1.46-5.41,6.45-.16.35-3.44,7.47-7.82,9.93,1.36-.08,3.68-.61,5.65-2.99,1.25-1.3,2.61-2.75,2.61-2.75-2.63,6.24-7.41,6.74-9.01,6.73.28.22.63.41,1.06.52,1.65.43,3.93-.47,6.59-2.61l1.12-.9.15,1.43c.01.11.28,2.78-.42,5.78-.67,2.88-2.01,5.07-3.93,6.48,1.63-.49,2.8-1.22,3.48-2.02,1.65-1.92,2.02-3.63,2.02-3.63,0,.05.36,5.16-5.75,6.75.5.13,1.06.19,1.65.12,1.46-.18,2.81-1.12,4.02-2.8l1.01-1.41.39,1.69c.15.63,3.49,15.56-1.64,19.86-1.26,1.06-2.89,1.4-4.86,1.02,1.54,1.23,3.03,1.77,4.4,1.53,2.89-.51,4.72-2.81,4.72-2.81-.06.13-1.62,3.18-4.56,3.72-1.53.28-3.12-.17-4.75-1.33.69,1.18,1.7,2.4,3.04,2.9,1.39.51,2.99.17,4.76-1.03l1.92-1.3-.75,2.2c-.05.14-4.61,13.98,3.67,19.06h.02s.02.02.02.02c.99.67,2.25.94,3.59,1.23.76.16,1.55.33,2.35.58,3,.73,4.84,3.35,4.27,6.11-.29,1.43-1.13,2.67-2.35,3.47-1.17.77-2.56,1.06-3.94.82,1.58.5,3.43.74,5.06.1,3.92-1.53,5.03-5.5,5.03-5.5-.85,3.33-2.45,5.46-4.75,6.34-2.33.89-4.59.49-6.21-.09.14.15.29.29.45.43,1.62,1.4,3.89,1.97,6.74,1.71,4.95-.46,7.41-4.2,7.28-7.65-.1-2.75-1.99-5.99-6.98-6.09Z"/>
            <path class="cls-2" d="M94.67,108.21c-1.85-.5-3.79.59-4.51,2.53-.52,1.39-1.38,2.35-2.57,2.84-2.14.88-4.59-.09-5.03-.28-1.29-.38-2.29-.35-2.97.08-1.04.66-2.2,3.06-2.2,3.06,0,0-1.12-2.4-2.16-3.06-.68-.43-1.68-.46-2.97-.08-.44.19-2.88,1.16-5.03.28-1.19-.49-2.06-1.45-2.57-2.84-.72-1.94-2.66-3.03-4.51-2.53-1.79.48-3.43,2.5-3.23,6.68.75-.98,1.83-2.01,3.2-2.34,1.31-.31,2.63.06,3.91,1.11,1.78,1.46,1.69,3.67.85,5.1-.41.71-.98,1.22-1.63,1.51.54,0,1.16-.07,1.75-.36,2.52-1.22,3.14-3.32,3.14-3.32-.46,2-1.38,3.38-2.71,4.09-.67.36-1.36.5-1.98.53.44.21.99.34,1.66.32,1.08-.04,1.93-.51,3.26-1.8l.9-.88.39,1.2c.36,1.1.46,3.01-.69,4.55.51-.35,1.1-.89,1.44-1.65,1.15-2.56.27-4.56.27-4.56.93,1.83,1.12,3.47.56,4.88-.24.61-.6,1.11-.99,1.5,1.55-.84,2.73-2.65,3.53-5.39l.45-1.55.94,1.32c.09.12,2.13,3.05,1.23,5.8-.44,1.36-1.5,2.4-3.15,3.1l3.67,9.72v-5.62h.94v5.6l3.67-9.7c-1.64-.7-2.7-1.74-3.15-3.1-.9-2.74,1.14-5.67,1.23-5.8l.94-1.32.45,1.55c.8,2.72,1.98,4.53,3.52,5.38-.38-.39-.74-.89-.98-1.5-.56-1.41-.37-3.05.56-4.88,0,0-.88,2,.27,4.56.35.77.94,1.31,1.46,1.66-1.16-1.54-1.06-3.46-.7-4.56l.39-1.2.9.88c1.32,1.29,2.18,1.77,3.26,1.8.68.02,1.22-.11,1.66-.32-.62-.03-1.31-.17-1.99-.54-1.34-.72-2.25-2.1-2.71-4.09,0,0,.62,2.09,3.14,3.32.6.29,1.22.37,1.76.36-.65-.29-1.21-.8-1.63-1.51-.84-1.44-.93-3.64.85-5.1,1.28-1.05,2.6-1.43,3.91-1.11,1.36.33,2.44,1.36,3.2,2.34.2-4.18-1.44-6.2-3.23-6.68Z"/>
          </g>
        </g>
        <g>
          <path d="M105.66,13.77c-2.9.14-5.22,2.06-6.37,3.22-1.68-2.46-4.27-2.29-5.55-1.79-2.83.89-2.95,3.92-2.62,5.41.24,1.07.43,3.5-.58,3.75-.44.11-.83.08-1.13-.19-1.06-.97-1.29-1.75-1.75-3.04l-.64-1.94s-.83,1.84-.83,1.84c-.46.97-1.15,2.17-2.59,3.31-.34.2-.73.3-1.12.3-.6,0-1.16-.23-1.58-.65-.42-.42-.65-.98-.65-1.58,0-.23.04-.46.11-.68.75-2.36,3.91-4.82,3.95-4.84l1.24-1c-1.9.18-2.96-.99-2.96-.99-2.24-1.89-3.9-6.91-4.37-8.87l-.79-3.27-.79,3.27c-.46,1.96-2.13,6.98-4.37,8.87,0,0-1.06,1.18-2.96.99l1.24,1s3.2,2.48,3.95,4.84c.07.22.11.45.11.68,0,.6-.23,1.16-.65,1.58-.42.42-.98.65-1.58.65-.39,0-.77-.1-1.12-.3-1.44-1.14-2.13-2.34-2.59-3.31,0,0-.83-1.84-.83-1.84l-.65,1.94c-.46,1.29-.69,2.07-1.75,3.04-.3.28-.69.3-1.13.19-1.01-.25-.82-2.68-.58-3.75.33-1.49.2-4.52-2.62-5.41-1.28-.51-3.87-.67-5.55,1.79-1.15-1.16-3.48-3.08-6.37-3.22,0,0-4.02-.66-7.34,4.36,0,0,.74-.41,1.75-.28,1.34.18,7.74.37,18.38,17.39,0,0,.32.52.32.52l.59-.17c.06-.02,6.06-1.77,14.54-1.85,8.48.08,14.48,1.84,14.54,1.85l.59.17s.32-.52.32-.52c10.64-17.02,17.04-17.2,18.38-17.39,1.01-.14,1.75.28,1.75.28-3.32-5.02-7.34-4.36-7.34-4.36Z"/>
          <g>
            <path class="cls-5" d="M77.42,27.22c4.23-.06,10.62.32,17.2,2.46,6.92-9.73,12.2-12.36,14.88-13.05-1.21-.9-2.47-1.33-3.77-1.27-3.34.15-5.96,3.44-5.98,3.47l-.81,1.04-.54-1.21c-1.34-2.96-3.81-2.09-4.09-1.98h-.03s-.03.02-.03.02c-2.17.66-1.6,3.43-1.57,3.54.12.51,1.05,4.96-1.75,5.65-.89.22-1.74.06-2.45-.45-.78-.56-1.3-1.48-1.66-2.42-.59,1.08-1.44,2.07-2.38,2.66h-.01s-.01.02-.01.02c-.59.34-1.26.52-1.93.52-1.02,0-1.98-.4-2.71-1.12-.72-.72-1.12-1.69-1.12-2.71,0-.4.06-.79.18-1.17.59-1.86,2.32-3.59,3.52-4.62-1.99-1.1-3.45-3.78-4.39-6.14v6.08h-1.03v-6.08c-.94,2.36-2.4,5.04-4.39,6.14,1.2,1.03,2.93,2.76,3.52,4.62.12.37.18.77.18,1.17,0,1.02-.4,1.98-1.12,2.71-.72.72-1.69,1.12-2.71,1.12-.67,0-1.34-.18-1.93-.52h-.01s-.01-.02-.01-.02c-.94-.6-1.79-1.58-2.38-2.66-.36.94-.89,1.86-1.66,2.42-.71.51-1.56.67-2.45.45-2.8-.69-1.87-5.15-1.75-5.65.02-.11.59-2.88-1.57-3.54h-.03s-.03-.02-.03-.02c-.27-.11-2.75-.97-4.09,1.98l-.54,1.21-.81-1.04s-2.64-3.32-5.98-3.47c-1.3-.06-2.56.37-3.77,1.27,2.68.68,7.97,3.32,14.88,13.05,6.58-2.14,12.96-2.53,17.2-2.46Z"/>
            <g>
              <path class="cls-7" d="M91.83,33.89c-1.73-.45-7.11-1.69-14.39-1.76h-.02c-7.28.07-12.66,1.31-14.39,1.76-.63-1-1.25-1.94-1.85-2.83,6.21-1.95,12.23-2.3,16.24-2.24h.01s.01,0,.01,0c4.01-.06,10.02.29,16.24,2.24-.61.89-1.22,1.83-1.85,2.83Z"/>
              <g>
                <path d="M71.56,31.59c-.49,0-.88-.39-.88-.88s.39-.88.88-.88.88.39.88.88-.39.88-.88.88Z"/>
                <path d="M66.28,32.3c-.49,0-.88-.39-.88-.88s.39-.88.88-.88.88.39.88.88-.39.88-.88.88Z"/>
                <path d="M77.44,31.41c-.49,0-.88-.39-.88-.88s.39-.88.88-.88.88.39.88.88-.39.88-.88.88Z"/>
                <path d="M83.32,31.59c.49,0,.88-.39.88-.88s-.39-.88-.88-.88-.88.39-.88.88.39.88.88.88Z"/>
                <path d="M88.6,32.3c.49,0,.88-.39.88-.88s-.39-.88-.88-.88-.88.39-.88.88.39.88.88.88Z"/>
              </g>
            </g>
          </g>
        </g>
        <g>
          <g>
            <path d="M77.42,36.76h-29.22s.1,2.13.1,2.13c.24,5.34,1.81,32.69,8.74,46.76h0c.21.48,5.39,11.84,18.96,24.96l1.42,1.37,1.42-1.37c13.57-13.12,18.75-24.48,18.96-24.96,0,0,0,0,0,0h0c6.92-14.07,8.49-41.42,8.74-46.76l.1-2.13h-29.22Z"/>
            <path class="cls-5" d="M77.42,38.78h27.08c-.17,3.69-1.67,32.01-8.53,45.95l-.02.03-.02.03c-.21.47-5.26,11.51-18.52,24.33-13.26-12.82-18.31-23.86-18.52-24.33l-.02-.03-.02-.03c-6.86-13.94-8.36-42.27-8.53-45.95h27.08Z"/>
            <path class="cls-6" d="M101.1,65.47c0-6.3-2.46-12.02-6.47-16.27v-10.42h-11.47v3.71c-1.84-.46-3.76-.7-5.74-.7s-3.9.24-5.74.7v-3.71h-11.47s0,10.42,0,10.42c-4.01,4.24-6.47,9.97-6.47,16.27s2.46,12.02,6.47,16.27v5.61c1.76,3.16,5.37,8.97,11.47,15.82v-14.71c1.84.46,3.76.7,5.74.7s3.9-.24,5.74-.7v14.71c6.1-6.84,9.72-12.65,11.47-15.82v-5.61c4.01-4.24,6.47-9.97,6.47-16.27Z"/>
          </g>
          <g>
            <circle cx="77.42" cy="65.47" r="22.4" transform="translate(-12.42 112.47) rotate(-67.84)"/>
            <g>
              <path class="cls-7" d="M59.24,54.69l.66-1.05,4.28.94-.7,1.11-.59-.17-.7,1.11.4.47-.68,1.08-2.67-3.49ZM62.01,55.26l-1.27-.37h0s.86,1.03.86,1.03l.42-.66Z"/>
              <path class="cls-7" d="M68.6,50.91l-1.18.79-3.3-2.75,1.07-.71,1.94,1.71h0s-.83-2.46-.83-2.46l1.09-.72,1.21,4.15Z"/>
              <path class="cls-7" d="M72.52,44.9l1.24-.26.83,4.04-1.24.26-.83-4.04Z"/>
              <path class="cls-7" d="M80.29,47.28c-.02.1-.02.2,0,.28.04.26.31.36.54.41.2.04.53.03.59-.27.04-.21-.13-.3-.79-.63-.61-.3-1.31-.62-1.15-1.43.18-.94,1.05-1.19,1.89-1.03.88.17,1.59.65,1.44,1.64l-1.18-.22c.05-.15,0-.26-.09-.35-.09-.09-.22-.15-.35-.17-.17-.03-.46-.04-.5.19-.03.29.53.47,1.08.73.54.27,1.06.64.92,1.38-.2,1.06-1.23,1.21-2.14,1.04-.46-.09-1.74-.5-1.51-1.79l1.25.24Z"/>
              <path class="cls-7" d="M88.35,47.3l1.73,1.24c.91.65.75,1.55.41,2.03-.58.81-1.4.8-2.17.25l-.61-.44-.73,1.01-1.03-.74,2.4-3.35ZM88.28,49.57l.4.29c.27.19.56.37.8.04.22-.3,0-.49-.26-.67l-.46-.33-.49.68Z"/>
              <path class="cls-7" d="M94.96,53.65l.66,1.05-2.68,3.47-.7-1.11.4-.46-.7-1.11-.6.16-.68-1.08,4.29-.92ZM93.26,55.91l.87-.99h0s-1.29.33-1.29.33l.42.66Z"/>
              <path class="cls-7" d="M60.55,68.98l.91,3.05-1.01.3-.55-1.84-.49.15.47,1.58-.94.28-.47-1.58-1.5.45-.36-1.22,3.95-1.18Z"/>
              <path class="cls-7" d="M63.67,79.7c-.87.74-1.69.63-2.5-.33-.82-.96-.81-1.79.06-2.53l1.92-1.64.83.97-1.71,1.46c-.32.27-.72.62-.32,1.08.39.46.79.11,1.11-.16l1.71-1.46.83.97-1.92,1.64Z"/>
              <path class="cls-7" d="M68.6,80.32l1.16.53-.59,1.29h.01s1.62-.82,1.62-.82l1.42.65-2.03.85.54,3.01-1.44-.66-.26-1.88-.48.21-.51,1.11-1.16-.53,1.71-3.75Z"/>
              <path class="cls-7" d="M79.27,85.17c0,1.14-.62,1.69-1.88,1.69-1.26,0-1.88-.55-1.88-1.7v-2.53s1.28,0,1.28,0v2.25c0,.42,0,.95.61.95.6,0,.6-.52.6-.95v-2.25s1.28,0,1.28,0v2.53Z"/>
              <path class="cls-7" d="M84.82,80.86c1.13-.54,2.27-.1,2.82,1.04.55,1.13.18,2.31-.95,2.85-1.13.54-2.27.1-2.82-1.04-.55-1.13-.18-2.31.95-2.85ZM86.25,83.83c.29-.14.65-.55.25-1.38-.4-.83-.94-.8-1.23-.66-.29.14-.65.55-.25,1.37.4.83.94.8,1.23.66Z"/>
              <path class="cls-7" d="M89.58,77.75l.8-.99,1.1.9h0s-.39-1.78-.39-1.78l.99-1.21.31,2.18,3.04.23-1,1.23-1.89-.22.08.52.95.77-.8.99-3.2-2.6Z"/>
              <path class="cls-7" d="M93.91,70.33l.31-1.2,4.37-.43-.33,1.28-.61.02-.32,1.27.52.32-.32,1.24-3.62-2.49ZM96.73,70.02l-1.32.04h0s1.13.71,1.13.71l.19-.76Z"/>
            </g>
            <g>
              <circle class="cls-2" cx="77.42" cy="65.47" r="16.03" transform="translate(-12.89 19.39) rotate(-13.19)"/>
              <path class="cls-7" d="M89.04,73.95l-.03-.22c-.14-.77-.43-2.04-.43-2.04,0,0-2,1.67-5.03,2.18-1.42,2.73-3.62,4.11-3.62,4.11,0,0,1.11.66,1.81,1.04l.23.11c-1.43.48-2.95.74-4.54.74s-3.11-.26-4.54-.74l.23-.11c.69-.38,1.81-1.04,1.81-1.04,0,0-2.21-1.38-3.63-4.11-3.03-.51-5.03-2.18-5.03-2.18,0,0-.28,1.26-.43,2.04l-.03.22c-1.74-2.38-2.77-5.31-2.77-8.48,0-.03,0-.06,0-.09l.13.13c.57.54,1.54,1.4,1.54,1.4,0,0,.63-2.52,2.79-4.72-.45-3.04.52-5.45.52-5.45,0,0-1.29.12-2.07.22l-.14.03c1.77-2.42,4.27-4.26,7.18-5.21l-.06.11c-.34.71-.85,1.9-.85,1.9,0,0,2.6-.18,5.35,1.19,2.75-1.37,5.35-1.19,5.35-1.19,0,0-.51-1.19-.85-1.9l-.06-.11c2.91.94,5.42,2.79,7.18,5.21l-.14-.03c-.78-.1-2.07-.22-2.07-.22,0,0,.97,2.41.52,5.45,2.15,2.19,2.79,4.72,2.79,4.72,0,0,.97-.86,1.54-1.4l.13-.13s0,.06,0,.09c0,3.17-1.03,6.1-2.77,8.48Z"/>
              <path class="cls-2" d="M82.5,63.81h0c-1.32-1.61-3.11-2.92-5.09-3.7h0s0,0,0,0c-1.97.77-3.76,2.09-5.09,3.69.13,2.08.8,4.19,1.94,5.98h0s0,0,0,0c2.02.52,4.24.53,6.29,0h0s0,0,0,0h0c1.14-1.79,1.81-3.9,1.94-5.98h0s0,0,0,0Z"/>
            </g>
          </g>
        </g>
      </g>
    </g>
  </g>
</svg>