<?xml version="1.0" encoding="UTF-8"?>
<svg id="_レイヤー_2" data-name="レイヤー 2" xmlns="http://www.w3.org/2000/svg" xmlns:xlink="http://www.w3.org/1999/xlink" viewBox="0 0 426.45 444.39">
  <defs>
    <style>
      .cls-1 {
        fill: none;
      }

      .cls-2 {
        fill: #221815;
      }

      .cls-3 {
        fill: #ffe100;
      }

      .cls-4 {
        fill: #fdd000;
      }

      .cls-5 {
        fill: #fff;
      }

      .cls-6 {
        fill: #e60012;
      }

      .cls-7 {
        clip-path: url(#clippath);
      }
    </style>
    <clipPath id="clippath">
      <path class="cls-1" d="M390.94,219.42c.07-12.49-5.34-22.53-15.6-29.03-.69-.44-1.39-.87-2.1-1.27-.77-.43-1.55-.85-2.34-1.22-11.64-5.67-23.69-4.48-34.15-2.53-5.83,1.33-9.45,2.5-11.74,3.46-1.46-1.46-3.03-2.84-4.74-4.07-.97-.67-6.37-4.22-14.15-5.76-.48-2.23-.98-3.97-1.26-4.88-.01-.05-.23-.79-.25-.84-1.29-3.88-4.26-11.63-9.68-19.89-6.8-10.34-15.02-17.72-24.49-21.96-15.15-6.65-29.01-3.93-42.64,8.55-6.19,6.4-11.53,14.18-15.87,23.1-.54,1.12-4.52,10.56-4.96,11.86-1.56,4.27-6.56,19.27-5.14,33.03.89,10.47,5.87,20.97,13,27.42.12.11.54.44.67.53,7.94,6.03,16.67,9.07,25.99,9.07,1.13,0,2.27-.05,3.42-.13,12.05-.93,21.23-4.61,21.51-4.72,1.18-.45,2.22-.93,3.33-1.4,3.32,4.59,7.6,8.48,12.65,11.05,6.29,3.17,11.23,4.29,15.81,4.29.67,0,1.31-.14,1.97-.18.25.54.51,1.09.92,1.73,9.83,18.52,24.19,24.87,33.25,24.47.58.03,1.17.05,1.76.05,15.78,0,33.72-11.18,44.46-28.18l.53-.88c3.53-5.77,8.87-14.5,9.85-31.66Z"/>
    </clipPath>
  </defs>
  <g id="_レイヤー_1-2" data-name="レイヤー 1">
    <g>
      <path class="cls-6" d="M426.45,226.88c0,117.76-84.41,196.43-213.22,196.43S0,344.64,0,226.88,95.46,13.66,213.22,13.66s213.22,95.46,213.22,213.22Z"/>
      <g>
        <g>
          <g>
            <path class="cls-2" d="M419.51,295.44c-1.3-.72-2.84-1.24-3.8-1.44-6.81-1.4-13.64-2.18-20.31-2.33-3.7-.09-7.16,0-10.5.16-1.79-20.11-8.09-39.31-19.27-58.27,1.62-9.72,2.12-22.36,2.53-32.66l.21-5.17c.84-18.75-5.88-43.26-14.38-52.46-2.12-2.29-5.31-4.04-8.12-4.45-21.54-3.21-49.87,5.35-81.73,24.67l-4-.59c-26.18-3.9-58.77-8.75-103.06,1.53-1.4.32-2.95.78-4.54,1.26-2.37.71-6.76,1.98-7.92,1.68-8.49-4.64-30.28-15.71-49.14-18.49-17.53-2.61-29.09.83-34.52,10.31-15.37,28.86-7.65,69.07-4.44,79.47-16,31.01-15.7,63.87-15.6,67.47,0,.84.03,1.72.04,2.58-.84.06-1.6.09-2.48.16-8.93.71-17.8,1.58-28.07,4.44-3.34.92-6.41,3.14-5.81,5.59.47,1.92,2.84,2.35,4.83,2.35,1.54,0,2.85-.25,2.89-.26,10.63-2.16,16.02-2.75,23.47-3.55l3.14-.34c.81-.09,1.61-.13,2.42-.2.81,9.68,2.85,19.99,6.48,30.18-4.44,1.67-9.56,3.89-15.71,7.07-.04.02-3.98,2.08-4.74,4.62-.23.78-.15,1.56.23,2.24.62,1.11,1.92,1.46,3.31,1.46,2.3,0,4.82-.95,4.86-.96,1.84-.81,3.57-1.58,5.21-2.31,3.72-1.66,6.96-3.05,10-4.23,3.93,8.9,9.09,17.53,15.73,25.34-6.84,3.95-15.09,9.33-24.43,16.6-1.94,1.52-3.19,3.45-3.41,5.32-.12,1.04.11,1.99.65,2.67.41.51,1.18.73,2.1.73,1.62,0,3.71-.68,5.14-1.7,10.26-7.27,19.16-12.89,26.15-17.04,7.51,7.31,16.5,13.67,27.22,18.49,35.27,15.84,67.77,19.4,108.95,20l4.04-.06,4.36.06c47.38-.69,84.81-7.46,111.26-20.11,15.35-7.34,27.56-17.24,36.7-29.54,7.64,2.61,16.9,6.62,25.83,12.66,1.14.79,3.45,2.16,5.5,2.16.92,0,1.79-.27,2.47-1.01.29-.3.61-.85.53-1.73-.17-1.86-2.22-4.46-3.56-5.43-9.12-6.66-18.29-10.95-26.01-13.74,5.25-8.67,9.17-18.37,11.72-29.12,5.64.9,12.22,2.35,19.44,4.77.04,0,2.17.71,4.26.71,1.57,0,3.11-.39,3.7-1.78.27-.63.26-1.33-.03-2.02-1.04-2.48-5.39-4.32-5.43-4.33-7.12-2.82-14.12-4.47-20.31-5.49,1.35-8.14,2-16.8,1.93-26,.02-1.57-.07-3.12-.1-4.67,2.93-.16,5.97-.26,9.16-.22,4.96.05,10.48.42,15.35.74,1.52.1,2.99.19,4.4.28,3.19.18,7.1-.41,7.57-2.73.17-.81-.11-2.03-2.36-3.29Z"/>
            <path class="cls-5" d="M354.53,233.57c1.76-9.13,2.29-22.42,2.71-33.11l.22-5.23c.76-16.97-5.67-38.25-11.49-44.55-.51-.56-1.4-.99-1.72-1.06-18.78-2.76-45.27,5.51-74.57,23.31-2.08,1.26-3.22,1.95-5.23,1.65l-5.91-.87c-25.25-3.76-56.69-8.45-98.98,1.36-1.2.27-2.52.68-3.88,1.08-5.38,1.6-11.46,3.43-16.3.79-7.98-4.35-28.38-14.75-45.5-17.28-12.59-1.85-20.45-.25-23.34,4.78-10.47,19.65-8.42,46.45-5.73,61.45.72-.85,1.42-1.62,2.07-2.27,2.63-2.63,5.32-3.6,7.16-2.33,1.91,1.32,1.15,4.66-.08,7.33-1.22,2.65-3.69,7.76-5.63,11.18,0,0,0,.01,0,.02-16.85,29.6-16.54,62.53-16.45,66.2,0,.74.03,1.51.04,2.26,9.31.02,14.99,1,17.89,1.74l.21.05c.06.01,7.62,1.41,7.18,5.05-.39,3.23-4.98,2.99-7.2,2.87l-.82-.06c-2.44-.37-8.96-1.24-16.86-1.4.79,8.79,2.71,18.09,6.01,27.25,4.52-1.04,7.71-1.28,9.83-1.4l.29-.02c2.79-.15,9.39-.25,9.73,3.07.3,2.87-4.87,4.24-7.11,4.7-1.04.21-2.16.36-3.41.53-1.75.24-3.74.52-6.09,1.02,3.77,8.24,8.76,16.15,15.14,23.24,6.63-3.22,10.45-4.4,10.53-4.42.06-.03,6.57-1.68,7.84,1.28,1.09,2.56-1.67,3.92-4.33,5.24-.85.42-1.74.86-2.55,1.35,0,0-.09.05-.26.13-1.03.51-2.75,1.4-5.02,2.62,6.17,5.56,13.32,10.43,21.71,14.2,33.54,15.07,64.84,18.46,104.46,19.04l4.04-.06,4.36.06c44.98-.67,81.88-7.25,106.54-19.04,12.36-5.91,22.38-13.54,30.17-22.9-3.71-.86-5.98-1.18-6.04-1.19-1.42-.14-5.85-1.17-7.34-3.19-.44-.61-.61-1.28-.47-1.94.75-3.62,7.32-2.9,10.09-2.43.35.03,3.75.38,9.03,1.65,5.2-7.94,9.03-16.98,11.53-27.1-2.33-.14-4.2-.17-5.48-.17-2.44.01-5.28-.05-5.28-.05-.73-.07-6.59-.76-6.82-3.68-.03-.39.05-1,.6-1.64,1.31-1.53,4.62-2.39,6.03-2.5l.31-.03c.84-.08,3.07-.3,5.31-.32h.61c1.62,0,3.81.05,6.42.22,1.29-7.68,1.93-15.9,1.86-24.74.01-1.24-.06-2.46-.09-3.69-6.85.85-12.47,1.97-16.3,2.74-1.96.39-3.38.68-4.24.78-1.38.2-2.56.3-3.55.3-2.31,0-3.58-.56-4-1.72-.29-.84-.23-1.74.18-2.59.74-1.52,2.53-2.81,5.19-3.72,2.09-.71,10.2-3.2,22.24-4.68-1.72-19.09-7.86-37.28-18.78-55.31-.7-1.15-.95-2.54-.69-3.87Z"/>
          </g>
          <g>
            <path class="cls-2" d="M115.31,315.25c-3.5,7.1-3.52,18.45,1.21,24.48,2.92,3.45,7.8,5.41,14.09,4.33,5.43-.94,8.52-5.9,9.55-9.85,2.23-8.84-.14-19.68-5.23-23.79-5.36-3.91-15.39-3.82-19.61,4.83Z"/>
            <path class="cls-2" d="M285.41,316.29c-3.5,7.1-3.52,18.45,1.21,24.48,2.92,3.45,7.8,5.41,14.09,4.33,5.43-.94,8.52-5.9,9.55-9.85,2.23-8.84-.15-19.68-5.23-23.79-5.36-3.91-15.39-3.82-19.61,4.83Z"/>
            <g>
              <path class="cls-2" d="M230.45,347c-1.17-4.16-4.32-7.43-8.44-8.76-7.86-2.55-15.82-1.48-20.77,2.79-5.16,4.56-5.41,12.65-2.19,16.84,2.99,3.88,7.72,5.9,14.48,6.2.31.01.63.02.94.02,5.41,0,10.44-1.98,13.31-5.27v-.02c2.83-3.28,3.82-7.69,2.67-11.81Z"/>
              <path class="cls-3" d="M219.91,344.75c-2.1-.68-4.24-1.01-6.25-1.01-3.19,0-6.05.84-7.91,2.45-2.45,2.17-2.29,6.18-1.26,7.52,1.68,2.18,4.74,3.34,9.35,3.54,4.27.17,7.46-1.38,8.79-2.9,1.34-1.56,1.79-3.55,1.24-5.49-.54-1.94-2.02-3.48-3.96-4.11Z"/>
            </g>
          </g>
        </g>
        <g>
          <g>
            <path class="cls-2" d="M174.31,405.08c-1.48-4.63-4.48-8.3-7.74-11.99-11.57-11.1-31.76-15.56-47.81-10.64-11.58,3.03-24.94,13.2-26.89,28.3-1.79,11.76,2.42,22.06,11.65,27.76,9.31,4.78,19.42,4.67,29.7-.17.87-.33,1.3-.24,3.57.72,1.42.61,3.17,1.34,5.28,1.7,3.57,1.03,6.76,1.46,9.57,1.46,7.46,0,12.38-3.02,15.44-6.04,7.97-7.84,10.94-20.61,7.23-31.1Z"/>
            <path class="cls-5" d="M163.98,408.67c-.03-.07-.05-.13-.07-.2-.83-2.65-3.05-5.31-5.25-7.82-8.41-8.05-24.41-11.47-36.92-7.67-8.41,2.21-17.79,9.67-19.04,19.29-.55,3.62-1.01,12.25,6.19,16.72,5.93,3.02,12.4,2.87,20-.7,1.9-.75,3.63-1.02,5.19-1.02,2.92,0,5.24.98,6.98,1.72,1.12.47,2.08.88,2.97,1.01.27.04.53.09.78.17,6.51,1.94,11.44,1.34,14.59-1.78,4.91-4.82,6.87-13.3,4.58-19.71Z"/>
          </g>
          <g>
            <path class="cls-2" d="M338.19,413.04c-1.98-15.21-15.33-25.39-26.69-28.34-16.27-4.97-36.47-.53-48.34,10.91-2.82,3.2-5.95,7-7.44,11.65-3.71,10.49-.74,23.27,7.22,31.1,3.07,3.03,8,6.05,15.45,6.05,2.81,0,5.99-.43,9.57-1.46,2.11-.36,3.85-1.1,5.28-1.7,2.29-.98,2.71-1.06,3.23-.88,10.61,5,20.73,5.1,30.44.1,8.83-5.48,13.04-15.78,11.27-27.43Z"/>
            <path class="cls-5" d="M327.35,414.57c-1.27-9.74-10.64-17.21-18.84-19.34-3.53-1.08-7.32-1.6-11.13-1.6-9.92,0-20.02,3.48-26.32,9.53-1.88,2.17-4.1,4.83-4.94,7.48-.02.07-.04.13-.07.2-2.29,6.41-.33,14.89,4.56,19.7,3.17,3.11,8.06,3.72,14.6,1.78.25-.07.51-.13.78-.17.89-.13,1.85-.53,2.97-1.01,2.67-1.14,6.69-2.83,11.82-.85,7.93,3.73,14.41,3.88,20.73.63,6.81-4.24,6.35-12.88,5.82-16.38Z"/>
          </g>
        </g>
        <g>
          <g class="cls-7">
            <rect class="cls-4" x="240.92" y="116.82" width="108.55" height="184.44" transform="translate(-19.01 388.24) rotate(-65)"/>
            <rect class="cls-6" x="201.42" y="141.99" width="108.55" height="97.26" transform="translate(-25.13 341.8) rotate(-65)"/>
          </g>
          <path class="cls-2" d="M390.94,219.42c.07-12.49-5.34-22.53-15.6-29.03-.69-.44-1.39-.87-2.1-1.27-.77-.43-1.55-.85-2.34-1.22-11.64-5.67-23.69-4.48-34.15-2.53-5.83,1.33-9.45,2.5-11.74,3.46-1.46-1.46-3.03-2.84-4.74-4.07-.97-.67-6.37-4.22-14.15-5.76-.48-2.23-.98-3.97-1.26-4.88-.01-.05-.23-.79-.25-.84-1.29-3.88-4.26-11.63-9.68-19.89-6.8-10.34-15.02-17.72-24.49-21.96-15.15-6.65-29.01-3.93-42.64,8.55-6.19,6.4-11.53,14.18-15.87,23.1-.54,1.12-4.52,10.56-4.96,11.86-1.56,4.27-6.56,19.27-5.14,33.03.89,10.47,5.87,20.97,13,27.42.12.11.54.44.67.53,7.94,6.03,16.67,9.07,25.99,9.07,1.13,0,2.27-.05,3.42-.13,12.05-.93,21.23-4.61,21.51-4.72,1.18-.45,2.22-.93,3.33-1.4,3.32,4.59,7.6,8.48,12.65,11.05,6.29,3.17,11.23,4.29,15.81,4.29.67,0,1.31-.14,1.97-.18.25.54.51,1.09.92,1.73,9.83,18.52,24.19,24.87,33.25,24.47.58.03,1.17.05,1.76.05,15.78,0,33.72-11.18,44.46-28.18l.53-.88c3.53-5.77,8.87-14.5,9.85-31.66ZM262.41,229.94c-.08.03-8.08,3.2-18.37,4-11.87.91-19.45-4.85-21.88-6.66-5-4.53-8.79-12.66-9.45-20.34-1.18-11.51,3.16-24.52,4.61-28.48.39-1.06,3.95-9.57,4.44-10.59,3.84-7.89,8.52-14.72,13.66-20.06,10.24-9.37,19.41-11.29,30.57-6.38,7.49,3.35,14.15,9.4,19.77,17.96,4.92,7.49,7.54,14.61,8.32,16.9l.28.99c.1.33.23.76.37,1.26-3.12.38-6.39,1.21-9.76,2.67-.86.37-1.62.86-2.44,1.29-1.82-1.99-4.05-3.77-6.3-5.03-6.73-3.79-14.11-3.84-20.25-.13-6.59,4-10.46,11.71-9.86,19.44.23,6.03,2.69,11.16,7.12,14.82,2.87,2.37,6.27,3.78,9.4,4.6,0,.53-.07,1.05-.06,1.58.03,3.82.78,7.6,2.04,11.21-.76.31-1.43.63-2.24.94ZM264.12,205.25c-1.43-.51-2.96-1.24-4.22-2.39-1.79-1.63-2.7-3.75-2.82-6.7-.29-3.87,1.51-7.58,4.61-9.47,2.17-1.32,4.47-1.53,7.04-.66,2.02.68,3.67,1.86,4.9,2.98-4.48,4.46-7.75,9.99-9.5,16.23ZM306.89,241.64c-7.63,2.01-11.53,2.43-19.54-1.62-8.18-4.17-13.72-13.13-13.78-22.46-.43-11.82,5.62-21.89,15.78-26.29,3.44-1.49,6.75-2.05,9.77-2.05,8.05,0,14.03,3.93,14.85,4.49,9.03,6.49,13.34,17.88,10.69,28.51-2.49,11.49-10.8,17.57-17.75,19.43ZM371.63,245.58l-.6,1.01c-8.69,13.74-23.71,23.26-36.56,22.57-6.52.09-15.93-5.15-23.02-17.53,4.14-1.36,8.46-3.71,12.35-7.14,1.96,1.41,4.3,2.61,7,3.2,1.02.22,2.2.38,3.49.38,3.21,0,7.18-.98,11.47-4.38,4.81-4.81,6.43-10.35,4.84-17.49-2.82-8.54-9.53-11.12-14.31-12.03-.27-5.63-1.81-11.14-4.48-16.14,2.05-.65,4.64-1.36,7.15-1.93,8.49-1.57,18.35-2.62,27.19,1.67.59.28,1.14.58,1.7.89.53.3,1.04.61,1.59.96,7.15,4.53,10.61,10.99,10.57,19.46-.82,14.14-4.94,20.88-8.38,26.5ZM335.17,225.15c2.53.61,4.13,1.69,4.89,3.93.65,2.96.13,4.69-1.56,6.43-1.71,1.35-3.44,1.83-5.18,1.51-.94-.17-1.76-.57-2.49-1,1.88-3.16,3.39-6.77,4.33-10.89Z"/>
        </g>
      </g>
    </g>
    <g>
      <g>
        <path class="cls-5" d="M135.64,126.16h-.38l-.4-.17c-9.82-4.51-19.63-9.44-29.18-14.65-.15.11-.3.21-.45.29-1.27,1.7-2.14,2.35-3.12,2.35-.33,0-.65-.08-.94-.24l-.38-.21c-1.38-.76-1.09-2.41-.7-3.61-.13-.44-.17-1.01-.06-1.72-29.65-16.75-57.33-36.77-82.27-59.5-2.14-2.07-3.04-5.1-2.38-7.95l.67-2.9,2.21,1.99c24.81,22.34,52.33,41.94,81.8,58.28.69.38,1.48.82,2.29,1.28.64.36,1.29.72,1.95,1.09.52-.45,1.01-.74,1.5-.87.85-.97,1.6-1.54,2.5-1.54.33,0,.66.08.94.24l.37.2c1.65.92.97,3.06.37,4.57,0,.16,0,.33-.01.51,9.36,5.12,18.97,9.94,28.58,14.35.45.21.8.59.98,1.07.11.31.47,1.25-.75,3.9-1.48,3.24-2.65,3.24-3.14,3.24h0Z"/>
        <path class="cls-5" d="M19.59,126.16c-.5,0-1.66,0-3.14-3.24-.34-.75-.61-1.5-.76-2.11-.45-1.89.43-2.61.99-2.87,9.6-4.41,19.21-9.23,28.58-14.35-.02-.18-.02-.35-.01-.51-.6-1.51-1.29-3.64.36-4.56l.38-.21c.28-.16.61-.24.94-.24.89,0,1.65.58,2.5,1.54.49.13.98.42,1.5.87.62-.35,1.26-.7,1.87-1.05.84-.47,1.66-.93,2.37-1.32,29.47-16.33,56.99-35.94,81.8-58.28l2.21-1.99.67,2.9c.66,2.85-.24,5.88-2.34,7.92-24.98,22.77-52.65,42.79-82.31,59.54.11.71.07,1.27-.06,1.72.39,1.2.68,2.85-.71,3.62l-.37.2c-.29.16-.62.24-.94.24-.98,0-1.85-.64-3.12-2.35-.15-.08-.29-.18-.45-.29-9.54,5.21-19.35,10.14-29.18,14.65l-.35.16h-.43Z"/>
        <path class="cls-5" d="M77.61,142.83c-30.28,0-58.11-16.53-72.62-43.13l-.82-1.5,1.48-.85,5.85-3.38c-1.75-5.66-2.76-11.53-3.01-17.49l-.13-3.19,2.76,1.59,10.65,6.15,5.13-6.11c-.17-1.32-.26-2.65-.26-3.98v-9.21c-1.29-1.38-2.02-3.2-2.02-5.12,0-1.28.33-2.55.96-3.66.04-.07.08-.14.12-.21-.04-.07-.08-.15-.12-.22-.62-1.11-.96-2.38-.96-3.66,0-1.91.73-3.74,2.02-5.12V9.35l1.18-.41C40.86,4.41,55.43,0,77.32,0c24.12,0,44.47,6.85,50.13,8.95l1.14.42v34.36c1.3,1.38,2.02,3.2,2.02,5.12,0,1.28-.33,2.54-.96,3.66-.04.07-.08.14-.12.22.04.07.08.14.12.22.63,1.12.96,2.38.96,3.66,0,1.91-.73,3.74-2.02,5.12v9.21c0,1.33-.09,2.67-.26,3.98l5.13,6.11,10.65-6.15,2.76-1.59-.13,3.19c-.25,5.96-1.27,11.83-3.01,17.49l5.85,3.38,1.48.85-.82,1.5c-14.52,26.6-42.34,43.13-72.62,43.13h0ZM34.87,97.74c10.41,11.84,25.09,18.78,40.85,19.3l-33.71-19.46c-.98-.57-1.92-1.18-2.83-1.85l-.83.39-3.48,1.62h0ZM116.05,95.73c-.9.66-1.85,1.28-2.82,1.85l-33.71,19.47c15.75-.52,30.44-7.46,40.85-19.3l-3.48-1.62-.83-.39h0Z"/>
      </g>
      <g>
        <path d="M107.98,104.51c9.84,5.41,19.79,10.42,29.83,15.03.27.12-.01,1.31-.63,2.65-.61,1.34-1.33,2.33-1.6,2.21-10.17-4.67-20.24-9.74-30.2-15.22-.51.6-.97.98-1.28,1.03-.98,1.37-1.78,2.17-2.08,2l-.37-.21c-.27-.15-.11-1,.36-2.24-.42-.24-.37-1.18.04-2.43-30.53-17.13-58.29-37.3-83.11-59.92-1.67-1.61-2.38-4.01-1.86-6.26,24.56,22.11,51.99,41.8,82.12,58.51,1.56.87,3.59,2.01,5.42,3.03.84-1.02,1.61-1.57,2.02-1.34.83-1.04,1.47-1.63,1.74-1.48l.37.21c.3.17.05,1.27-.59,2.82.12.3.05.88-.19,1.63Z"/>
        <path d="M103.15,104.89c.34-.62.71-1.18,1.06-1.68-.59-.33-1.21-.67-1.82-1.01-.67.88-1.53,2.43-1.92,3.47.6.34,1.21.68,1.81,1.02.23-.57.52-1.18.86-1.8ZM100.72,103.53c-.98-.55-1.95-1.1-2.85-1.61-28.81-16.33-55.12-35.39-78.78-56.68-.69-.62-1.18-1.58-1.5-2.42.05,1.52.68,3,1.8,4.09,24.1,21.97,50.98,41.62,80.48,58.42.2-.56.5-1.19.84-1.8ZM108.27,105.88l-1.34,1.09-.22,1.71,1.34-1.09.22-1.71ZM110.36,107.02l-1.34,1.09-.21,1.71,1.33-1.09.21-1.72ZM112.46,108.14l-1.33,1.1-.21,1.72,1.33-1.1.21-1.71ZM114.57,109.26l-1.32,1.11-.2,1.72,1.32-1.11.2-1.72ZM116.68,110.37l-1.32,1.11-.19,1.72,1.32-1.11.19-1.72ZM118.8,111.46l-1.31,1.12-.18,1.72,1.31-1.12.18-1.72ZM120.92,112.54l-1.31,1.13-.17,1.72,1.31-1.13.17-1.72ZM123.05,113.62l-1.3,1.13-.16,1.72,1.3-1.14.16-1.72ZM125.18,114.68l-1.3,1.14-.15,1.72,1.3-1.14.15-1.72ZM127.32,115.73l-1.29,1.15-.14,1.72,1.29-1.15.14-1.72ZM129.47,116.76l-1.28,1.16-.13,1.72,1.28-1.16.13-1.72ZM131.61,117.79l-1.28,1.16-.12,1.72,1.28-1.16.12-1.72ZM133.77,118.81l-1.27,1.17-.12,1.72,1.27-1.17.11-1.72Z"/>
        <path d="M47.25,104.51c-9.84,5.41-19.79,10.42-29.84,15.03-.27.12.01,1.31.63,2.65.61,1.34,1.33,2.33,1.6,2.21,10.17-4.67,20.24-9.74,30.2-15.22.51.6.97.98,1.28,1.03.98,1.37,1.78,2.17,2.08,2l.37-.21c.27-.15.11-1-.36-2.24.42-.24.37-1.18-.04-2.43,30.53-17.13,58.29-37.3,83.11-59.92,1.67-1.61,2.38-4.01,1.85-6.26-24.56,22.11-51.98,41.8-82.12,58.51-1.56.87-3.59,2.01-5.42,3.03-.84-1.02-1.61-1.57-2.02-1.34-.83-1.04-1.47-1.63-1.74-1.48l-.37.21c-.3.17-.05,1.27.59,2.82-.12.3-.05.88.19,1.63Z"/>
        <path d="M52.08,104.89c-.34-.62-.7-1.18-1.06-1.68.59-.33,1.21-.67,1.81-1.01.67.88,1.53,2.43,1.92,3.47-.6.34-1.21.68-1.81,1.02-.23-.57-.52-1.18-.86-1.8ZM54.5,103.53c.98-.55,1.95-1.1,2.85-1.61,28.81-16.33,55.12-35.39,78.78-56.68.69-.62,1.18-1.58,1.5-2.42-.05,1.52-.68,3-1.8,4.09-24.1,21.97-50.98,41.62-80.48,58.42-.2-.56-.5-1.19-.84-1.8ZM46.96,105.88l1.34,1.09.22,1.71-1.34-1.09-.22-1.71ZM44.86,107.02l1.34,1.09.21,1.71-1.34-1.09-.21-1.72ZM42.76,108.14l1.33,1.1.2,1.72-1.33-1.1-.2-1.71ZM40.66,109.26l1.33,1.11.2,1.72-1.32-1.11-.2-1.72ZM38.54,110.37l1.32,1.11.19,1.72-1.32-1.11-.19-1.72ZM36.43,111.46l1.31,1.12.18,1.72-1.31-1.12-.18-1.72ZM34.3,112.54l1.31,1.13.17,1.72-1.31-1.13-.17-1.72ZM32.18,113.62l1.3,1.13.16,1.72-1.3-1.14-.16-1.72ZM30.04,114.68l1.29,1.14.15,1.72-1.29-1.14-.15-1.72ZM27.9,115.73l1.29,1.15.14,1.72-1.29-1.15-.14-1.72ZM25.76,116.76l1.28,1.16.13,1.72-1.28-1.16-.13-1.72ZM23.61,117.79l1.28,1.16.12,1.72-1.28-1.16-.12-1.72ZM21.45,118.81l1.27,1.17.11,1.72-1.27-1.17-.11-1.72Z"/>
        <path d="M119.68,90.02c-2.09,2.39-4.57,4.44-7.34,6.04l-34.73,20.05-34.73-20.05c-2.77-1.6-5.24-3.65-7.34-6.04.61,1.55,1.3,3.05,2.06,4.51l-5.56,2.59c10.76,13.24,27.17,21.7,45.56,21.7s34.8-8.46,45.56-21.7l-5.56-2.59c.77-1.46,1.46-2.96,2.06-4.51ZM28.38,60.98c-1.24-1.05-2.02-2.62-2.02-4.37,0-1.02.26-1.97.73-2.8.19-.34.37-.7.52-1.07-.15-.37-.33-.73-.52-1.07-.47-.83-.73-1.79-.73-2.8,0-1.75.79-3.32,2.02-4.37V10.59C40.51,6.39,55.02,1.75,77.32,1.75c20.76,0,39.79,5.23,49.52,8.84v33.89c1.24,1.05,2.02,2.62,2.02,4.37,0,1.02-.26,1.97-.73,2.8-.19.35-.37.7-.52,1.07.15.37.33.73.52,1.07.47.83.73,1.79.73,2.8,0,1.75-.79,3.32-2.02,4.37v9.96c0,1.53-.12,3.04-.35,4.51l6.57,7.83,11.92-6.88c-.27,6.4-1.43,12.56-3.36,18.37l7.07,4.08c-13.73,25.15-40.41,42.22-71.09,42.22S20.25,124.01,6.53,98.86l7.07-4.08c-1.93-5.81-3.09-11.98-3.36-18.37l11.92,6.88,6.57-7.83c-.23-1.47-.35-2.97-.35-4.51v-9.96Z"/>
        <path class="cls-6" d="M119.42,15.8v28.69c-1.24,1.05-2.02,2.62-2.02,4.37,0,1.02.27,1.97.73,2.8.19.35.37.7.52,1.07-.15.37-.33.73-.52,1.07-.46.83-.73,1.79-.73,2.8,0,1.75.79,3.32,2.02,4.37v9.96c0,7.98-4.34,14.96-10.79,18.69l-31.02,17.91V8.9c14.63,0,28.7,2.43,41.81,6.9Z"/>
        <path class="cls-6" d="M30.41,70.94v-10.29c.42.18.87.29,1.35.32v9.96c0,9.49,5.15,17.76,12.81,22.2l33.05,19.08,33.05-19.08c7.66-4.43,12.81-12.71,12.81-22.2v-9.96c.47-.04.93-.15,1.35-.32v10.29c0,9.98-5.42,18.7-13.49,23.36l-33.72,19.47-33.72-19.47c-8.06-4.66-13.48-13.38-13.48-23.36ZM32.43,70.94v-9.96c.47-.04.93-.15,1.35-.32v10.29c0,8.73,4.75,16.36,11.8,20.44l32.03,18.49,32.03-18.49c7.05-4.08,11.8-11.71,11.8-20.44v-10.29c.42.18.87.29,1.35.32v9.96c0,9.23-5.02,17.3-12.47,21.61l-32.71,18.89-32.71-18.89c-7.46-4.31-12.47-12.38-12.47-21.61ZM33.78,14.36v34.5c0,.3-.08.58-.21.83-.33.59-.62,1.21-.87,1.85-.17-.86-.26-1.76-.26-2.67V13.41c14.1-5.1,29.32-7.88,45.18-7.88s31.08,2.78,45.18,7.88v35.45c0,.92-.09,1.81-.26,2.67-.25-.64-.54-1.26-.87-1.85-.14-.24-.21-.53-.21-.83V14.36c-13.71-4.85-28.46-7.48-43.84-7.48s-30.12,2.64-43.83,7.48ZM31.75,12.93v35.92c0,.92-.09,1.81-.26,2.67-.25-.64-.54-1.26-.87-1.85-.14-.24-.22-.53-.22-.83V11.99c14.69-5.49,30.6-8.49,47.21-8.49s32.51,3,47.21,8.49v36.86c0,.3-.08.58-.21.83-.33.59-.62,1.21-.87,1.85-.17-.86-.27-1.76-.27-2.67V12.93c-14.3-5.23-29.75-8.08-45.86-8.08s-31.56,2.85-45.86,8.08ZM120.77,45.99v2.86c0,.42.11.81.3,1.15,1.1,1.95,1.72,4.2,1.72,6.6v1.65c-.77-.16-1.35-.84-1.35-1.65,0-2.16-.56-4.18-1.55-5.94-.3-.54-.47-1.16-.47-1.81,0-1.15.52-2.18,1.35-2.86ZM125.49,45.99c.83.68,1.35,1.71,1.35,2.86,0,.66-.17,1.28-.47,1.81-.99,1.76-1.55,3.78-1.55,5.94,0,.82-.58,1.5-1.35,1.65v-1.65c0-2.4.63-4.65,1.72-6.6.19-.34.3-.73.3-1.15v-2.86ZM125.49,56.61c0-.98.13-1.94.36-2.85.16.36.33.7.52,1.04.3.54.47,1.16.47,1.81,0,2.05-1.66,3.71-3.71,3.71s-3.71-1.66-3.71-3.71c0-.66.17-1.28.47-1.81.19-.34.36-.68.52-1.04.23.91.36,1.87.36,2.85,0,1.3,1.06,2.36,2.36,2.36s2.36-1.06,2.36-2.36ZM34.45,45.99v2.86c0,.42-.11.81-.3,1.15-1.1,1.95-1.72,4.2-1.72,6.6v1.65c.77-.16,1.35-.84,1.35-1.65,0-2.16.56-4.18,1.55-5.94.3-.54.47-1.16.47-1.81,0-1.15-.52-2.18-1.35-2.86ZM29.73,45.99c-.82.68-1.35,1.71-1.35,2.86,0,.66.17,1.28.47,1.81.99,1.76,1.55,3.78,1.55,5.94,0,.82.58,1.5,1.35,1.65v-1.65c0-2.4-.62-4.65-1.72-6.6-.19-.34-.3-.73-.3-1.15v-2.86ZM29.73,56.61c0-.98-.12-1.94-.36-2.85-.16.36-.33.7-.52,1.04-.3.54-.47,1.16-.47,1.81,0,2.05,1.66,3.71,3.71,3.71s3.71-1.66,3.71-3.71c0-.66-.17-1.28-.47-1.81-.19-.34-.36-.68-.52-1.04-.23.91-.36,1.87-.36,2.85,0,1.3-1.06,2.36-2.36,2.36s-2.36-1.06-2.36-2.36ZM32.09,51.94c-.06.27-.13.53-.2.79.07.26.14.53.2.79.06-.27.13-.53.2-.79-.07-.26-.14-.52-.2-.79ZM123.13,51.94c-.06.27-.13.53-.2.79.07.26.14.53.2.79.06-.27.12-.53.2-.79-.08-.26-.14-.52-.2-.79Z"/>
        <path class="cls-6" d="M16.06,95.69c-1.79-4.96-2.99-10.2-3.53-15.64l10.09,5.83,7.88-9.39c.38,6.08,1.91,11.84,4.37,17.08l-9.83-3.07c10.5,18.14,30.11,30.34,52.57,30.34s42.08-12.2,52.57-30.34l-9.83,3.07c2.46-5.24,3.99-11,4.37-17.08l7.88,9.39,10.09-5.83c-.54,5.43-1.75,10.68-3.53,15.64l6.79,3.92c-13.64,23.58-39.14,39.44-68.34,39.44s-54.7-15.86-68.34-39.44l6.79-3.92Z"/>
        <polygon class="cls-5" points="24.42 95.67 14.84 102.63 16.22 104.52 20.19 101.63 21.46 103.37 23.24 102.08 21.97 100.34 24.02 98.86 25.42 100.79 27.2 99.5 24.42 95.67"/>
        <path class="cls-5" d="M27.91,100.41l-6.53,5.88c-1.64,1.48-1.53,3.13-.07,4.75,2.26,2.51,3.94,1.18,4.87.35l6.42-5.78-1.57-1.74-6.07,5.46c-.66.58-1.31,1.15-2.07.3-.85-.94.23-1.77.89-2.37l5.69-5.13-1.57-1.74Z"/>
        <polygon class="cls-5" points="33.58 106.6 25.98 115.67 27.77 117.18 31.64 112.56 31.67 112.58 29.44 118.58 31.33 120.16 33.54 113.69 38.72 110.91 36.89 109.38 32 112.18 31.98 112.16 35.38 108.11 33.58 106.6"/>
        <path class="cls-5" d="M39.54,111.59l-4.79,7.38c-1.21,1.86-.67,3.42,1.16,4.61,2.83,1.84,4.11.13,4.8-.93l4.7-7.24-1.96-1.27-4.45,6.85c-.49.73-.96,1.45-1.92.83-1.07-.69-.24-1.77.25-2.52l4.17-6.43-1.96-1.27Z"/>
        <path class="cls-5" d="M50.81,118.59c-.41-.62-.93-1.1-1.61-1.43-1.81-.88-3.49.1-4.31,1.78-.76,1.55-.4,2.71.42,4.12.39.71.88,1.34.49,2.16-.34.71-1.1.89-1.78.57-.62-.3-.99-.76-1.32-1.34l-.98,2c.31.59.95,1.13,1.54,1.42,1.97.96,3.76.07,4.68-1.82,1.4-2.88-1.75-4.54-.9-6.29.32-.65.92-.84,1.57-.53.58.28.95.85,1.19,1.42l1-2.05Z"/>
        <polygon class="cls-5" points="52.3 118.91 48.06 129.96 50.24 130.8 52.04 126.13 54.25 126.97 52.45 131.65 54.64 132.49 58.88 121.44 56.7 120.6 55.04 124.92 52.82 124.07 54.48 119.75 52.3 118.91"/>
        <rect class="cls-5" x="54.14" y="126.57" width="11.84" height="2.34" transform="translate(-78.88 152.7) rotate(-75)"/>
        <polygon class="cls-5" points="64.5 122.85 61.83 134.43 64.31 134.77 65.84 126.38 65.87 126.39 65.84 126.6 65.86 129.27 66.21 135.04 68 135.29 69.77 129.88 70.55 127.04 70.58 127.05 69.96 135.57 72.34 135.9 72.76 124.01 69.65 123.57 67.74 130.36 67.71 130.35 67.55 123.28 64.5 122.85"/>
        <path class="cls-5" d="M76.41,124.06l-2.54,11.88,2.32-.04.39-2,2.37-.04.48,1.99,2.49-.04-3.05-11.79-2.47.04ZM78.58,132.01l-1.65.03.45-3.16.22-1.79h.03s.3,1.78.3,1.78l.65,3.14Z"/>
        <path class="cls-5" d="M84.35,123.82l1.38,8.68c.35,2.19,1.79,2.99,3.95,2.65,3.33-.53,3.14-2.66,2.94-3.9l-1.35-8.53-2.31.37,1.28,8.06c.12.87.26,1.72-.88,1.9-1.26.2-1.36-1.15-1.5-2.04l-1.2-7.57-2.31.37Z"/>
        <path class="cls-5" d="M92.77,122.32l3.46,11.32,2.24-.68-1.59-5.19-.16-.46-.45-1.11.02-.04,4.85,5.99,2.12-.65-3.46-11.32-2.24.68,1.56,5.09c.18.59.4,1.16.7,1.66l-.02.04-4.88-5.98-2.15.66Z"/>
        <rect class="cls-5" x="103.36" y="118.68" width="2.34" height="11.84" transform="translate(-39.06 48.22) rotate(-22)"/>
        <polygon class="cls-5" points="104.46 118.25 105.5 120.19 107.12 119.32 111.64 127.84 113.71 126.74 109.18 118.23 110.82 117.36 109.79 115.42 104.46 118.25"/>
        <polygon class="cls-5" points="110.76 114.85 117.21 124.77 121.19 122.19 119.99 120.35 117.98 121.66 116.52 119.42 118.27 118.28 117.08 116.44 115.33 117.57 113.92 115.41 115.91 114.12 114.71 112.28 110.76 114.85"/>
        <path class="cls-5" d="M125.19,119.12c2.83-2.37,2.25-5.08.08-7.67-4.25-5.06-7.62-1.46-7.93-1.2l-1.36,1.14,7.61,9.07,1.6-1.34ZM124.03,117.35l-4.9-5.84c1.48-1.24,3.37.28,4.34,1.44.95,1.13,2.07,3.27.56,4.41Z"/>
        <polygon class="cls-5" points="123.72 104.48 132.51 112.4 134.08 110.66 130.43 107.38 131.87 105.78 130.23 104.31 128.79 105.9 126.91 104.21 128.51 102.44 126.88 100.97 123.72 104.48"/>
        <path class="cls-5" d="M131.17,95.28c-.34.24-.64.51-.88.84-1.87,2.58-.58,5.92,1.8,7.65,2.51,1.83,6.08,2.11,8.06-.63.22-.3.38-.63.47-1l-1.79-1.3c-.1.3-.21.58-.39.82-1.2,1.65-3.48,1.1-4.9.07-1.47-1.07-2.46-2.89-1.25-4.56.18-.24.38-.44.62-.64l-1.74-1.26Z"/>
        <path class="cls-6" d="M57.26,73.02c0-11.24,9.11-20.35,20.35-20.35s20.35,9.11,20.35,20.35-9.11,20.35-20.35,20.35-20.35-9.11-20.35-20.35Z"/>
        <path class="cls-4" d="M76.64,71.05s.02.18.04.23c0,.07.15.25.19.27.05.03.19-.06.24-.01.03.03.02.15.05.14.06-.03.1-.09.15-.09.07,0,.09.15.14.12.25-.15.57-.64.64-.77.04-.07,0-.14,0-.22,0-.06.05-.13.06-.19-.03-.07-.1-.2-.09-.28,0-.08.08-.17.09-.25,0-.03-.1-.07-.12-.11-.03-.06-.08-.18-.13-.21-.13-.08-.37.06-.46-.07-.09-.11.04-.32,0-.41,0-.02-.15-.12-.17-.12-.2-.02-.36-.04-.49-.02-.08.01-.18-.03-.25.01-.12.07-.36.36-.46.45-.06.06-.12-.11-.21-.1-.06.06-.04.28-.03.34.02.09.07.15.11.21.04.05.01.25.06.27.09.04.09-.16.16-.13.04.02.09.16.09.27,0,.07,0,.14,0,.2.04.18.39.35.38.46ZM64.92,82.65c-.05,0-.12.01-.17,0-.09-.04-.15-.12-.22-.13-.08-.02-.29.04-.37.05-.05-.07-.1-.28-.17-.25-.07.03-.18.08-.25.07-.08-.02-.3-.03-.35-.03l-.19-.16s-.17.02-.23.02c-.07,0-.11-.09-.29-.14-.09,0-.29.19-.4.2-.07.02-.15-.13-.19-.2-.01-.02.07-.13.06-.14.01,0,.13-.02.15-.06.01-.03,0-.09.02-.15.02-.07.09-.16.1-.23.04-.17-.04-.29-.04-.35,0-.06.09-.11.1-.21,0-.17-.2-.42-.18-.59.01-.14.28-.54.28-.68,0-.15-.23-.42-.21-.57,0-.05.05-.12.02-.18-.03-.07-.2-.15-.21-.26-.01-.13-.06-.31-.03-.5.01-.09.09-.13.12-.22.04-.13.04-.31.07-.42.04-.12.1-.24.11-.35,0-.05-.14-.15-.15-.2-.01-.09-.05-.29-.13-.38-.13-.15-.24-.45-.32-.49,0,0-.13.29-.18.32-.05.03-.16.03-.19.03,0,0-.01-.2-.07-.27-.17-.2-.48-.53-.48-.65s.08-.3.21-.47c.2-.27.49-.52.61-.66.1-.12.04-.31.05-.46,0-.06.13-.16.14-.22,0-.04-.09-.31-.08-.35.02-.09.15-.07.24-.22.05-.09.02-.24.03-.32,0-.08.06-.17.06-.27,0-.14-.07-.29-.13-.36-.09-.11-.24-.05-.3-.11-.07-.08-.11-.34-.2-.4.01-.03.1-.12.11-.15.01-.04,0-.22.01-.26.03-.1.09-.15.11-.21.02-.06.14-.19.16-.19.03-.01.22.08.32.02.11-.06.18-.08.23-.09,0,0,.14.07.19.05.08-.02.6-.16.73-.2.13-.04.26-.06.33-.06.03,0,.16.04.24.03.08,0,.21-.18.36-.21.04,0,.15.08.29.11.03,0,.1-.02.12-.01.03,0,.11.09.18.09.03,0,.06,0,.09-.03.05-.03.1-.08.12-.12.02-.04,0-.13,0-.2.03-.18.11-.37.12-.48,0-.09-.01-.18.04-.22.05-.04.25-.09.35-.1.13-.01.25-.11.33-.08.07.03.34.32.39.3.06-.02.24-.17.29-.18.12-.02.2.11.32.08.07-.01.19-.09.25-.1.12,0,.59.26.71.25.05,0,.25-.15.29-.22.04-.07.11-.25.09-.28-.05-.08-.24-.14-.32-.27-.03-.05-.04-.29-.05-.35-.02-.1.05-.27.05-.34,0-.07-.05-.24-.06-.3-.02-.07-.02-.26-.07-.34-.06-.09-.26-.17-.28-.27,0-.04.08-.08.07-.16,0-.07-.11-.18-.1-.26.02-.09.12-.21.12-.25,0-.05-.07-.13-.06-.18.02-.05.29-.05.32-.08.09-.1.28-.2.39-.29.03-.01.11,0,.15-.03.11-.07.15-.27.24-.4.01-.02.27-.07.27-.07.03-.04-.18-.25-.1-.37.04-.05.53-.61.56-.67.06-.09.06-.32.09-.38.01-.02.14-.12.18-.19.1-.16.41-.49.5-.55.03-.02.04-.1.07-.13.06-.06.14-.09.16-.13.03-.04.24-.27.28-.3.03-.02.16-.02.18-.05l.02-.12c.07,0,.15.05.22,0,.06-.04.14-.06.22-.13.13-.04.23-.08.32-.1.04.02.12.15.21.29.02.04.11.05.13.08.07.11.08.23.12.24.05-.02.11-.12.26-.2.05-.03.19-.02.24-.05.15-.09.29-.23.35-.23.12-.02.34.34.36.34.2.02.31-.07.5-.1.09-.02.18.03.27.02.02,0,.05-.3.14-.34.03-.01.22.24.24.26.06.05.23.06.25.11.04.12-.05.28.02.4.05.09.08.25.14.35.04.06.11.07.14.13.02.05-.01.16.01.22.05.02.18.1.23.11.17-.01.73-.2.76-.21.03,0,.23-.2.28-.22.06-.03.23.32.33.39.07.05.22.04.3.07.11.05.17.35.33.43.09.05.42.04.57-.05.07-.04.06-.24.12-.27.14-.07.37-.08.45-.09.24,0,.53.14.81.2.06.01.28.02.33,0,.06-.12.2-.34.27-.45.08-.13.33-.28.38-.35.02-.03.04-.23.1-.34.06-.1.25-.11.27-.24.01-.09-.1-.12-.23-.2-.17-.1-.36-.23-.37-.33-.01-.16.08-.43.1-.68.03-.35-.13-.77-.04-1.09.05-.17.23-.25.24-.38,0-.17-.14-.46-.15-.71,0-.1.08-.23.11-.29.1-.03.23.14.32.14.06.04.25.19.36.25.11.06.5.21.61.2.07,0,.01-.13.13-.18.07-.03.35.16.42.14.08-.03.05-.42.17-.45.05,0,.21-.05.24-.02l.04.23c.09.04.29.15.4.19.11.05.61.1.68.16.04.04-.1.25-.07.47.02.18.19.48.28.54.03,0,.05.01.08.01.05,0,.15.02.19,0,.08-.04.07-.08.16-.09.11-.01.29-.02.46-.04.17-.02.33-.04.44-.07.04-.01.03-.2.15-.23.06-.02.27.27.47.3.13-.06.28-.18.37-.16.09.03.06.27.16.32.04.02.16.05.27.04.13-.01.26-.06.3-.06.08.01.22.14.28.16.04.01.23.08.24.11.02.1-.13.19-.13.29,0,.06.17.34.16.4,0,.14-.13.22-.14.46,0,.11,0,.32.03.41.03.07.17.28.17.28.06,0,.2.04.33.09.1.05.22.35.23.41,0,0,.2-.15.32-.15.15,0,.61.18.79.32.06-.02.15-.09.15-.09-.07-.13-.45-.41-.57-.47,0,0,.12-.2.16-.19.13.01.33.17.49.21.06.01.17-.02.28,0,.22.02.49.04.56.02.07-.02,0-.53,0-.62-.01-.13-.03-.19-.02-.32,0-.03-.03-.11,0-.17.03-.08.14-.2.14-.27,0-.08-.08-.19-.08-.24,0-.11,0-.41.08-.46.08-.05.5-.21.6-.22.09,0,.11.11.2.13.09.02.19.1.24.1l.16-.07c.04.11.03.18.05.25.02.1.04.37.1.46.06.12.2.3.21.49.05.04.25.17.31.23.04.04.04.14.04.14-.11,0-.24,0-.31,0,0,0-.02.12.05.15,0,0,.17-.07.23-.02.06.08.03.11.03.2,0,.09-.14.37-.13.47,0,.04.04-.02.09,0,.04.07.13.16.15.19.03-.08,0-.36.01-.42.02-.21,0-.23.01-.42,0-.02.05-.13.06-.15.06.16.04.72.06,1.05,0,.09.19.3.24.39.05.1.1.22.13.34.03.12.01.31,0,.44v.1c.05.2,0,.66.02.74.02.08.05.19.06.31.02.13.03.26.04.36,0,.06.06.1.07.17.03.2.01.41.01.6,0,.11.06.26.07.38,0,.12-.05.23-.05.32,0,.08,0,.15.02.23,0,.06.01.12.02.19.02.33.04.74.09,1.01,0,.05.02.11.03.17.05.2.1.43.11.62,0,.13-.04.27-.04.38,0,.14.01.15,0,.26,0,.17.04.45.04.59,0,.18,0,.24,0,.42,0,.19,0,.38.02.58.01.05.01.11.01.18,0,.05,0,.11,0,.15,0,.18-.17.54-.17.81,0,.05.02.14.02.2,0,.03-.02.11-.03.14-.05.32-.1.78-.15,1.11-.03.2-.02.36-.03.49,0,.04.15.08.18.11.03.09-.04.16-.05.2h-.15c-.05.19-.14.75-.17.97,0,.12-.03.37,0,.52.02.08.07.11.05.26,0,.05-.08.11-.09.18-.03.17.01.52-.02.63-.02.08-.19.18-.24.39-.03.11-.13.45-.14.56-.01.09-.05.38-.04.7,0,.13.01.26.04.39.01.09.07.09.1.18.02.06,0,.21-.05.29-.04.06-.09.01-.12.06-.05.09-.05.28-.03.32.02.05-.36.36-.48.47-.04.04-.13.13-.15.17-.03.04-.09.24-.16.25-.09.01-.1-.14-.16-.17-.16-.09-.33.01-.41.06-.07.04-.1.13-.14.16,0,0-.14-.06-.19-.02-.02.02.07.13.04.15-.05.04-.12.09-.18.13-.06.03-.12,0-.17.04-.11.08-.16.2-.17.2-.04.01-.22-.06-.27-.06s-.15.07-.15.07c-.14.12-.48.5-.46.71,0,.09-.02.19,0,.26,0,.04.05.08.06.11-.04,0-.09.07-.13.04-.02-.01-.13-.14-.15-.15-.07-.04-.11.07-.18.03-.04-.02-.06-.13-.11-.16-.05-.03-.07.05-.12.03-.11-.04-.16-.08-.29-.11-.06-.01-.3.02-.36.03-.12.03-.31-.26-.48-.31-.12-.04-.33-.05-.45-.09-.1-.03-.13-.09-.24-.11-.06-.01-.17.05-.23.05-.09,0-.34-.1-.36-.12-.02-.02-.02-.1-.04-.13-.05-.09-.19-.16-.22-.24-.04-.1-.12-.16-.11-.24.01-.07-.06-.23-.15-.28-.08.02-.27.12-.31.2-.02.05.05.14.04.18-.02.13-.13.18-.11.25.02.1.25.15.27.22.02.07-.01.18.04.26.05.07.21.33.19.38-.08,0-.15.08-.21.11-.07,0-.15.13-.21.13-.12.02-.45.09-.52.13-.13.08-.2.21-.24.35-.03.1-.13.33-.2.39-.13.12-.3.06-.42.14-.04.03,0,.14-.03.18-.08.05-.32.4-.42.42-.06-.04-.08-.18-.13-.22-.05-.04-.24-.34-.32-.41-.06-.04-.19.04-.24,0-.08-.08-.11-.2-.2-.24-.08-.03-.41-.04-.56-.1-.09-.03-.1-.2-.14-.32-.03-.09-.07-.06-.11-.16-.03-.08.07-.28.05-.31-.02-.04-.1-.34-.14-.33-.25.06-.61-.05-.66-.14-.05-.08-.02-.31-.11-.39-.05-.04-.29-.34-.32-.36-.09-.09-.19-.19-.29-.19-.06,0-.11.12-.18.13-.03,0-.17-.09-.19-.08-.02-.09-.27-.19-.35-.24-.04-.11-.03-.17,0-.21.04-.05.1-.09.13-.15.06-.13-.11-.19-.1-.3,0-.04.06-.13.05-.17-.03-.16-.23-.19-.14-.34.04-.08.07-.14.11-.22.05-.12.06-.3,0-.34-.18.04-.45.11-.58.08-.05-.01-.31-.13-.28-.19.06-.17.06-.39-.03-.54-.05-.08-.02-.18-.11-.26-.05-.04-.3-.08-.42-.19-.12-.1-.18-.29-.26-.44-.05-.08-.1-.14-.18-.18-.06-.03-.16.03-.2,0-.11-.12-.36-.35-.5-.4-.1-.04-.49-.05-.75-.11-.07-.02-.19-.19-.29-.23-.16-.05-.28-.09-.48-.08-.27.02-.3-.06-.6-.1-.03,0-.23-.03-.24-.04-.05-.11-.19-.17-.34-.14-.18.03-.54.16-.62.14-.04,0-.06-.1-.16-.11-.11,0-.41.11-.52.14-.07.02-.15.2-.23.21-.13.02-.17-.03-.27.02-.19.09-.34.24-.43.43-.02.04.03.15.04.23.02.17.06.32.03.43-.26.02-.63-.14-.76-.06-.06.03-.1.12-.15.17-.1.1-.26.24-.36.24-.15,0-.32-.03-.47.01-.08.02-.14.08-.2.14-.08.09-.24,0-.34.04-.05.02-.24.09-.28.15-.04.06-.04.18-.09.23-.06.07-.24.09-.42.14-.03,0-.07.09-.11.1-.07.03-.16-.03-.2,0-.08.07-.03.24-.09.31-.03.04-.15.09-.24.11-.12.04-.35-.05-.41,0-.05.03-.06.16-.11.24-.05.08-.36.14-.39.16-.14.08-.18.16-.29.29-.09.1-.23.03-.37.1-.1.05-.15.16-.2.21-.05.03-.21,0-.25-.05-.04-.04-.04-.1-.1-.1-.09,0-.37.1-.41.12-.07.03-.04.16-.07.29-.02.08-.2.19-.32.26-.08.05-.09.34-.15.38-.09.07-.28-.09-.43.03-.05.04-.15.21-.18.27Z"/>
        <path class="cls-4" d="M68.1,52.74c-.38-1.05.16-2.21,1.21-2.59,1.05-.38,2.21.16,2.59,1.21.78,2.14.79,4.37.18,6.4-1.77-1.15-3.2-2.87-3.98-5.01Z"/>
        <path class="cls-4" d="M83.47,51.4c-.39,2.24-1.5,4.18-3.05,5.63-.96-1.89-1.33-4.09-.94-6.33.19-1.1,1.24-1.83,2.34-1.64,1.1.19,1.83,1.24,1.64,2.34Z"/>
        <path class="cls-4" d="M87.28,55.53c-.85,1.1-1.9,1.99-3.08,2.65-.47-2.06-.3-4.29.62-6.37.45-1.02,1.65-1.48,2.67-1.02.89.4,1.36,1.36,1.15,2.28.67-.66,1.74-.78,2.55-.23.93.63,1.17,1.88.55,2.81-1.27,1.89-3.07,3.21-5.07,3.9-.07-1.35.13-2.71.62-4.02Z"/>
        <path class="cls-4" d="M63.3,55.29c-.36-.87-.07-1.9.74-2.45.93-.62,2.18-.38,2.81.55,1.27,1.89,1.82,4.05,1.72,6.16-1.27-.44-2.47-1.14-3.49-2.07.7,1.2,1.14,2.51,1.3,3.85-2.09-.33-4.09-1.32-5.67-2.96-.78-.8-.75-2.08.05-2.86.7-.68,1.77-.75,2.55-.21Z"/>
        <g>
          <polygon class="cls-4" points="72.35 86.22 72.35 87.05 72.81 87.05 72.81 91.03 73.73 91.03 73.73 86.22 72.35 86.22"/>
          <path class="cls-4" d="M76.15,91.03l.4-.83c.36-.77.68-1.51.68-2.37s-.35-1.69-1.32-1.69-1.35.9-1.35,1.76c0,.58.24,1.5.97,1.5.26,0,.42-.11.6-.27h.01s-.92,1.9-.92,1.9h.92ZM75.9,86.96c.33,0,.4.53.4.76,0,.24-.06.84-.43.84-.33,0-.38-.52-.38-.75,0-.24.04-.84.41-.84Z"/>
          <polygon class="cls-4" points="77.92 86.22 77.92 87.05 79.22 87.05 77.72 91.03 78.71 91.03 80.52 86.22 77.92 86.22"/>
          <polygon class="cls-4" points="81.05 86.22 81.05 87.05 82.35 87.05 80.85 91.03 81.84 91.03 83.65 86.22 81.05 86.22"/>
        </g>
        <path class="cls-4" d="M86.13,6.92c.3-.7,1.14-.55,1.9-.8-1.39,2.21-2.47,4.63-3.18,7.22-2.28-.75-4.72-1.16-7.26-1.16s-4.97.41-7.26,1.16c-.7-2.58-1.78-5.01-3.18-7.22.76.25,1.6.1,1.9.8.13.3.06.6-.13.87.97-.14,1.82.16,2.1.81.15.35.11.75-.09,1.14-.03.06-.05.11-.08.17-.31.76-.21,1.53.21,1.7.14.06.28.04.44,0,.34-.11.69-.21,1.04-.3l.07-.04c-.31-.11-.53-.33-.59-.64-.15-.75.62-1.1,1.11-1.74.7.4,1.55.42,1.7,1.16.06.32-.06.6-.3.82h.09c.28-.03.57-.07.86-.1h.06c.25-.03.42-.07.54-.2.33-.33.12-1.06-.47-1.65-.05-.05-.09-.09-.14-.13-.33-.28-.53-.63-.53-1.02,0-.71.67-1.31,1.62-1.56-.28-.17-.45-.43-.45-.75,0-.76.83-.95,1.44-1.48.61.53,1.44.72,1.44,1.48,0,.32-.17.58-.45.75.95.25,1.62.86,1.62,1.56,0,.38-.2.74-.53,1.02-.05.04-.1.09-.14.13-.58.58-.79,1.32-.47,1.65.13.13.3.16.53.19h.07c.29.04.58.07.86.11h.09c-.24-.23-.36-.51-.3-.83.15-.75,1-.77,1.7-1.16.49.64,1.27.99,1.11,1.74-.06.32-.29.53-.6.64l.08.04c.35.09.69.19,1.04.3.17.04.31.05.44,0,.43-.17.52-.93.21-1.7-.02-.06-.05-.12-.08-.17-.19-.39-.24-.79-.09-1.14.28-.65,1.13-.94,2.1-.81-.19-.27-.25-.57-.13-.87ZM97.32,67.95c2.4-10.74,10.29-15.01,10.29-24.26,1.04,1.66,1.73,4.33,1.73,7.49,0,10.97-6.87,16-6.87,25.04,0,6,4.09,10.86,9.13,10.86.2,0,.41,0,.61-.02-1.1.98-2.29,1.84-3.57,2.58l-2.67,1.54c-4.38-2.4-7.67-6.89-8.85-12.32.55-1.85.85-3.8.85-5.83,0-1.75-.22-3.45-.64-5.07ZM53.01,68.04c0-1.32.94-2.38,2.1-2.38.55,0,1.05.24,1.43.63,1-.94,1.65-2.44,1.65-4.12,0-2.19-1.84-3.97-4.12-3.97-3.89,0-7.05,4.05-7.05,9.04,0,2.48.54,5.67,1.52,8.2.69,1.77,1.82,3.61,2.61,5.66-.81-.54-1.72-.95-2.7-1.22-1.73-5.8-4.42-8.83-4.42-14.83s3.5-10.44,7.81-10.44,8.02,3.64,8.02,8.12c0,.11,0,.22,0,.34-1.07,1.9-1.84,4-2.25,6.22-.72.72-1.58,1.14-2.49,1.14-1.16,0-2.1-1.07-2.1-2.38ZM118.69,74.91c0-.8.24-1.55.66-2.17-.14,1.67-.47,3.29-.96,4.83-.68-.25-1.41-.39-2.19-.39-1.03,0-1.99.27-2.83.74-1.51-1.82-2.43-4.24-2.43-6.91,0-6.9,5.05-12.85,1.89-20.38,1.86,2.43,2.5,5.51,2.5,9.18,0,3.16-.64,6.75-.64,8.07,0,3.67,1.71,6.76,4.04,7.66-.03-.21-.05-.42-.05-.63ZM87.14,102.04c-.11-.7-.16-1.44-.16-2.21,0-8.31,5.58-9.34,8.49-17.06.07-.12.13-.25.2-.37.79,9.92-5.42,12.41-5.42,17.29,0,.18,0,.36.02.54l-3.13,1.8ZM93.89,98.15c.89-1.59,2.65-2.68,4.7-2.71l-4.7,2.71ZM99.88,91.17c1.57,0,3.03.39,4.27,1.05l-2.79,1.61c-.86-.27-1.76-.42-2.7-.42-1.75,0-3.4.59-4.7,1.61,1-2.27,3.27-3.85,5.91-3.85ZM77.49,103.94c0-1.28,1.04-2.32,2.32-2.32,1.58,0,2.86,1.16,2.86,2.58,0,.15,0,.29-.02.44l-5.03,2.9-7.1-4.1c.16-3.4,2.82-5.68,8.7-7.3,1.62-.45,4.7-1.26,6.23-2.58-1.23,3.46-11.1,4.82-11.1,9.12,0,1.86,1.52,3.38,3.39,3.38.32,0,.62-.04.91-.12-.69-.4-1.15-1.15-1.15-2ZM61.05,97.98c2.47-1.73,6.06-2.81,10.05-2.81h.34c-2.31,1.3-4.28,3.2-5.36,5.69h-.06s-4.97-2.88-4.97-2.88ZM51.53,92.48c1.79-.81,3.17-2.39,4.3-5.25,1.95,1.83,4.33,3.57,7.24,5.11-3.37.3-5.69,1.28-7.81,2.29l-3.73-2.15ZM39.79,83.45c1.57-1.39,3.7-2.24,6.05-2.24,3.86,0,6.98,2.61,6.98,5.84,0,2.08-1.61,3.77-3.59,3.78-.26,0-.5-.03-.74-.1l-1.22-.7c-.28-.28-.5-.62-.64-1,.14.03.29.05.44.05,1.02,0,1.85-.83,1.85-1.85s-.83-1.85-1.85-1.85c-1.46,0-2.73.95-3.29,2.31-1.51-1.23-2.85-2.66-3.99-4.25ZM91.65,19.24c0-1.81,1.69-3.28,3.77-3.28,3.83,0,6.93,3.15,6.93,7.03,0,.2,0,.4-.02.6.97-.88,2.16-1.72,3.4-1.97-1.32,3.3-2.44,5.47-5.3,6.81-2.86,1.34-4.95.95-7.88,3.03-3.48,2.47-7.11,9.68-11.76,9.68-3.47,0-5.76-2.33-6.67-5.31,1.69,1.31,2.96,1.83,5.06,1.83,5.28,0,7.18-4.09,11.55-8.16,3.09-2.89,9.03-2.8,9.03-7.88,0-1.39-1.07-2.52-2.39-2.52s-2.39,1.13-2.39,2.52c0,.32.05.62.16.89-1.94-.13-3.48-1.55-3.48-3.27ZM84.43,26.04c1.35,0,2.44,1.14,2.44,2.55,0,3.41-3.48,7.05-7.74,7.05-2.88,0-4.79-1.63-4.79-4.64,0-2.21.48-3.86,1.85-5.72-.44,1.55-.62,2.26-.62,3.74,0,2.31,1.18,4.73,3.38,4.73,2.42,0,4.76-1.85,4.76-3.96,0-.59-.69-1.08-1.54-1.08-.62,0-1.16.26-1.4.64.49-1.92,1.95-3.3,3.67-3.3ZM56.83,29.63c-1.17,0-2.11-.95-2.11-2.12,0-1.75.95-3.17,2.11-3.17-.29-.1-.6-.15-.91-.15-2.92,0-5.29,4.62-5.29,10.32,0,2.68.68,7.47,2.47,11.54-3.75-4.41-5.89-9.61-5.89-15.29,0-7,3.9-12.67,8.71-12.67,3.04,0,5.51,2.73,5.51,6.09,0,3-2.06,5.43-4.61,5.43ZM58.09,34.54c1.07,0,1.94.86,1.94,1.93s-.86,1.93-1.93,1.93c-.56,0-1.07-.24-1.42-.62-1.05.85-1.77,2.62-1.77,4.67,0,3.01,1.78,5.54,4.48,7.82-3.97-2.09-5.81-5.77-5.81-9.12,0-3.64,2.02-6.6,4.51-6.61ZM35.8,34.55c.82-.58,1.79-.92,2.84-.92,8.6,0,8.52,12.96,17.6,16.62-4.58-1.42-7.35-3.94-9.34-6.49.5,4.26,6.17,8.32,11.43,8.57-5.14,1.58-10.98,1.72-11.39-3.72-5.45-.62-3.9-6.83-2.76-8.86-1.47-2.3-2.7-4.03-4.78-4.03-1.57,0-2.84,1.19-2.84,2.66,0,1.31,1.27,2.37,2.84,2.37.77,0,1.44-.4,1.85-1.01.29.47.45,1.01.45,1.59,0,1.83-1.66,3.3-3.7,3.3-.8,0-1.55-.22-2.2-.62v-9.47ZM37.46,46.84c2.18,1.69,3.13,4.99,3.24,7.7.39,9.19,1.81,15.38,4.8,22.32-6.66-9.55-4.76-20.82-8.81-23.84-.04-.09-.08-.19-.12-.29.15-.37.33-.73.52-1.07.47-.83.73-1.79.73-2.8,0-.71-.13-1.39-.36-2.01ZM57.53,95.95c3.09-2.34,7.55-3.06,11.39-2.4-3.72.3-7.31,1.38-9.84,3.29l-1.56-.9ZM67.55,101.73c1.52-3.74,5.4-6.08,9.48-6.75-3.82.86-7.7,3.19-8.43,7.36l-1.05-.61ZM84.63,103.49c-.34-2.16-2.23-3.65-4.3-3.88,1.37-.68,2.77-1.35,3.92-2.06.3-.19.62-.4.94-.64-.15.88-.23,1.85-.23,2.91,0,1.14.11,2.24.33,3.28l-.66.38ZM110.79,84.99c-3.31-.49-6.3-3.94-6.3-8.77,0-1.99.38-3.78.97-5.54.62-1.85,1.45-3.6,2.29-5.42,1.61-3.53,3.36-7.53,3.59-12.86.88,2.77.52,5.34-.22,8.14-.43,1.65-.97,3.28-1.39,4.93-.44,1.72-.81,3.57-.81,5.54,0,3.09,1.08,5.99,2.89,8.19-.86,1.01-1.39,2.32-1.39,3.75,0,.72.13,1.4.37,2.03ZM119.42,69.91c-.74.46-1.36,1.09-1.83,1.82-.51-.97-.87-2.27-.87-3.84,0-1.31.64-4.91.64-8.07,0-1.59-.11-3.13-.4-4.6.17.23.33.47.48.71-.03.23-.04.45-.04.69,0,1.58.64,3.01,1.68,4.05.27,1.84.22,3.54.35,4.76v4.49ZM43.73,77.85c-5.88-5.47-5.4-14.46-7.62-17.16.7-.69,1.23-1.57,1.5-2.54,1.02,4.43,1.47,12.03,6.12,19.7ZM35.8,67.75c2.3,3.25,3.54,7.08,6.7,11.03-2.82-2.34-4.6-4.8-6.67-6.73-.02-.37-.03-.74-.03-1.11v-3.19ZM36.21,75.16c1.23,1.65,2.6,3.29,4.61,4.89-1.23-.31-2.43-.73-3.56-1.29-.45-1.16-.8-2.36-1.05-3.6ZM38.83,81.58c-.05.04-.11.08-.16.11l-.12-.21.28.1ZM85.48,16.73c-2.64-1.83-5.47-2.46-9.78-2.01-3.42.36-5.73,2.14-7.26,2.3-.52.05-1.2-.01-1.26-.64-.12-1.16.65-1.93,1.36-2.8.01.61.3,1.29.94,1.22,2.63-.28,3.89-.93,6.74-1.23,3-.31,7.72.66,9.26,3.15ZM61.46,35.07c.71-1.78,1.11-2.79,2.02-4.44.36,1.76.97,3.13,1.89,4.9l.26.5c-.64,2.73-1.2,4.08-2.74,5.77-1.43-2.18-1.77-3.89-1.43-6.73ZM72.14,33.11c.27,3.61-.17,6.04-1.74,8.32-1.52-1.65-2.39-2.49-2.92-4.61l.81-.55c1.64-1.11,2.73-2.01,3.84-3.15ZM64.31,42.73c-.03,2.31-.65,5.89-1.9,8.19-1.89-3.11-2.29-6.62-2.29-10.94.3.9.74,1.79,1.36,2.74l1.19,1.82,1.47-1.61.18-.2ZM76.7,42.19c0,1.6-.02,2.7-.62,4.17-1.93-.63-3.64-1.6-4.77-3.28l.48-.69c.74-1.07,1.25-2.16,1.59-3.33.82,1.29,1.93,2.39,3.32,3.13ZM69.74,43.21c.25,2.37-.03,3.93-.31,5.34-2.81-1.86-3.52-3.89-4.14-7.07.51-.75.89-1.51,1.21-2.38.2.41.42.8.68,1.16.27.39.58.77.93,1.16.31.35.66.72,1.04,1.14l.58.64ZM94.31,45.07c0-2.02,1.33-3.66,2.97-3.69h.05c1.28,0,2.32,1.04,2.32,2.31,0,.74-.35,1.4-.88,1.82,1.63-.23,2.89-1.79,2.89-3.68s-1.49-3.28-3.32-3.28c-2,0-3.75,1.08-4.7,2.7-.06-.63-.17-1.25-.33-1.84,1.27-1.86,3.7-3.13,6.51-3.13,3.22,0,5.83,2.7,5.83,6.04,0,4.22-2.47,7.63-5.51,7.63-1.99,0-3.75-.84-4.8-2.12-.62-.67-1.01-1.65-1.02-2.74v-.02ZM108.88,23.07c2.29,0,4.15,2.1,4.15,4.69,0,2.31-2.64,4.18-5.89,4.18-1.72,0-2.73-.18-4.43-.18-3.98,0-8.13,1.96-10.91,4.62-.16-.2-.34-.4-.53-.6l-.17-.17c2.54-3.14,6.31-4.55,11.36-4.55,2.28,0,3.01.22,4.23.22,2.45,0,4.44-1.4,4.44-3.13,0-1.22-.72-2.21-1.6-2.21-1.32,0-2.39,1.36-2.39,3.04,0,.09,0,.18,0,.27-.74-.54-1.23-1.42-1.23-2.41,0-2.09,1.33-3.77,2.96-3.77ZM114.97,34.18c1.55.18,3.2.95,4.45,2.24v8.07c-.27.23-.52.48-.74.76-2.53-4.8-4.78-9.76-12.35-9.76,5.48,0,6.95,6.56,11.12,12.59-.04.26-.05.52-.05.79,0,1.02.27,1.97.73,2.8.19.35.37.7.52,1.07-.06.13-.11.26-.17.39-1.3-.91-2.56-1.98-3.85-3.13-7.17-6.37-6.42-15.41-14.05-15.41-2.72,0-5.91,1.34-7.76,3.49-.06-.14-.13-.28-.2-.42,2.86-2.95,5.66-4.21,9.84-4.21,2.32,0,3.73,1.07,5.68,1.07,4.07,0,7.17-3.99,7.17-6.49.88,1.81.44,4.07-.35,6.16ZM56.73,41.36c.03-.43.39-.78.83-.78s.83.37.83.83c0,.04,0,.09,0,.13-.35,3.16-.28,4.75.99,7.49-2.46-1.77-2.96-3.89-2.65-7.67ZM66.11,91.58c-16.72-7.57-17.06-21.72-17.06-24.34,0-4.37,2.69-7.02,5.02-7.02,1.23,0,2.09.94,2.09,1.95,0,.58-.11,1.1-.28,1.54-.25-.05-.5-.08-.77-.08-2.51,0-4.13,2.22-4.13,4.41,0,1.27.33,14.15,15.12,23.54ZM45.5,34.61c-5.83-3.34-3.66-8.65,1.52-12.05-1.18,2.44-1.82,5.32-1.82,8.21,0,1.31.1,2.58.3,3.84ZM77.61,17.63c-4.91.42-7.72,2.95-12.55,2.95-3.01,0-3.32-1.94-3.32-2.59,0-2.4,2.11-4.54,4.43-5.07-.74.59-1.68,1.7-1.68,2.8,0,1.56,1.48,2.33,3.26,2.33,3.42,0,5.76-2.09,10.04-2.09,3.03,0,7.65.22,8.65,3.98,2.11.96,3.94,3.02,3.94,5.62-1.56-3.24-4.47-5.42-7.8-5.42-4.77,0-9.35,5.55-10.31,9.78-1.78,2.11-2.87,3.15-5.12,4.67-1.26-2.41-1.83-3.87-2.01-6.83,4.54-5.45,7.82-7.55,12.45-10.12ZM79.2,18.23c.71.26,1.5.4,2.34.4s1.64-.14,2.34-.4c-.59-.44-1.42-.72-2.34-.72s-1.75.28-2.34.72ZM41.41,46.83c3.6,3.44,3.93,6.13,1.61,13.48,0-7.74-1.61-11.23-1.61-13.48ZM64.3,50.91c.52-1.18.92-2.53,1.2-3.86.52.78,1.18,1.52,2.06,2.22-.54.47-.92,1.09-1.12,1.77-.68-.25-1.42-.29-2.14-.12ZM90.39,49.29c-.17.49-.37.95-.58,1.38-.38-.61-.94-1.11-1.64-1.43-1.12-.5-2.37-.4-3.36.18-.5-1.03-1.47-1.81-2.69-2.03-2.02-.36-3.94.99-4.3,3.01-.02.1-.03.2-.05.31h-.16c-1.37,0-2.72.12-4.03.36-.03-.1-.07-.19-.1-.29-.4-1.11-1.29-1.91-2.33-2.26.15-.8.3-1.68.35-2.73,1.21,1.03,2.62,1.7,4.05,2.16l1.49.49.59-1.46c.36-.88.55-1.68.64-2.48.06-.53.08-1.07.09-1.67.74.2,1.54.32,2.4.32,3.32,0,5.94-2.52,7.81-4.58.41-.46.82-.92,1.22-1.39,2.76,2.82,2,7.79.58,12.09ZM92.67,56.57c.5-.51,1.07-1.01,1.71-1.53,2.97-2.38,5.59-2.23,9.22-4.11-1.69,2.5-2.58,4.92-4.76,7.91-.73,1.01-1.47,1.83-2.23,2.53-1.09-1.78-2.42-3.4-3.95-4.8ZM112.44,82.95c0-2.07,1.68-3.75,3.75-3.75.51,0,1.01.1,1.48.27-.99,2.3-2.37,4.4-4.06,6.2-.72-.68-1.17-1.65-1.17-2.72Z"/>
      </g>
    </g>
  </g>
</svg>