<?xml version="1.0" encoding="UTF-8"?>
<svg id="_レイヤー_2" data-name="レイヤー 2" xmlns="http://www.w3.org/2000/svg" xmlns:xlink="http://www.w3.org/1999/xlink" viewBox="0 0 426.45 449.19">
  <defs>
    <style>
      .cls-1 {
        fill: none;
      }

      .cls-2 {
        fill: #221815;
      }

      .cls-3 {
        fill: #f3d4a1;
      }

      .cls-4 {
        fill: #ffe100;
      }

      .cls-5 {
        fill: #f9d3e3;
      }

      .cls-6 {
        fill: #005083;
      }

      .cls-7 {
        fill: #00633d;
      }

      .cls-8 {
        fill: #ffe67a;
      }

      .cls-9 {
        fill: #a72126;
      }

      .cls-10 {
        fill: #fff;
      }

      .cls-11 {
        clip-path: url(#clippath);
      }
    </style>
    <clipPath id="clippath">
      <path class="cls-1" d="M390.94,224.21c.07-12.49-5.34-22.53-15.6-29.03-.69-.44-1.39-.87-2.1-1.27-.77-.43-1.55-.85-2.34-1.22-11.64-5.67-23.69-4.48-34.15-2.53-5.83,1.33-9.45,2.5-11.74,3.46-1.46-1.46-3.03-2.84-4.74-4.07-.97-.67-6.37-4.22-14.15-5.76-.48-2.23-.98-3.97-1.26-4.88-.01-.05-.23-.79-.25-.84-1.29-3.88-4.26-11.63-9.68-19.9-6.8-10.34-15.02-17.72-24.49-21.96-15.15-6.65-29.01-3.93-42.64,8.55-6.19,6.4-11.53,14.18-15.87,23.1-.54,1.11-4.52,10.56-4.96,11.86-1.56,4.27-6.56,19.27-5.14,33.03.89,10.47,5.87,20.97,13,27.42.12.11.54.44.67.53,7.94,6.03,16.67,9.07,25.99,9.07,1.13,0,2.27-.05,3.42-.13,12.05-.93,21.23-4.61,21.51-4.72,1.18-.45,2.22-.93,3.33-1.4,3.32,4.59,7.6,8.48,12.65,11.05,6.29,3.17,11.23,4.29,15.81,4.29.67,0,1.31-.14,1.97-.18.25.54.51,1.09.92,1.73,9.83,18.53,24.19,24.87,33.25,24.48.58.03,1.17.05,1.76.05,15.78,0,33.72-11.18,44.46-28.18l.53-.88c3.53-5.77,8.87-14.5,9.85-31.66Z"/>
    </clipPath>
  </defs>
  <g id="_レイヤー_1-2" data-name="レイヤー 1">
    <g>
      <path class="cls-7" d="M426.45,231.68c0,117.76-84.41,196.43-213.22,196.43S0,349.44,0,231.68,95.46,18.45,213.22,18.45s213.22,95.46,213.22,213.23Z"/>
      <g>
        <g>
          <g>
            <path class="cls-2" d="M419.51,300.23c-1.3-.72-2.84-1.24-3.8-1.44-6.81-1.4-13.64-2.18-20.31-2.33-3.7-.09-7.16,0-10.5.16-1.79-20.11-8.09-39.31-19.27-58.27,1.62-9.72,2.12-22.36,2.53-32.66l.21-5.17c.84-18.75-5.88-43.26-14.38-52.47-2.12-2.29-5.31-4.04-8.12-4.45-21.54-3.21-49.87,5.34-81.73,24.67l-4-.6c-26.18-3.9-58.77-8.75-103.06,1.53-1.4.32-2.95.78-4.54,1.26-2.37.71-6.76,1.98-7.92,1.68-8.49-4.64-30.28-15.71-49.14-18.5-17.53-2.61-29.09.83-34.52,10.31-15.37,28.86-7.65,69.07-4.44,79.47-16,31.01-15.7,63.87-15.6,67.47,0,.84.03,1.72.04,2.58-.84.06-1.6.09-2.48.16-8.93.71-17.8,1.58-28.07,4.44-3.34.92-6.41,3.14-5.81,5.59.47,1.92,2.84,2.35,4.83,2.35,1.54,0,2.85-.25,2.89-.26,10.63-2.16,16.02-2.75,23.47-3.55l3.14-.34c.81-.09,1.61-.13,2.42-.2.81,9.68,2.85,19.99,6.48,30.18-4.44,1.67-9.56,3.89-15.71,7.07-.04.02-3.98,2.08-4.74,4.62-.23.78-.15,1.56.23,2.24.62,1.11,1.92,1.46,3.31,1.46,2.3,0,4.82-.95,4.86-.96,1.84-.81,3.57-1.58,5.21-2.31,3.72-1.66,6.96-3.05,10-4.23,3.93,8.9,9.09,17.53,15.73,25.34-6.84,3.95-15.09,9.33-24.43,16.6-1.94,1.52-3.19,3.45-3.41,5.32-.12,1.04.11,1.99.65,2.67.41.51,1.18.73,2.1.73,1.62,0,3.71-.68,5.14-1.7,10.26-7.27,19.16-12.9,26.15-17.04,7.51,7.31,16.5,13.67,27.22,18.49,35.27,15.84,67.77,19.4,108.95,20l4.04-.06,4.36.06c47.38-.69,84.81-7.46,111.26-20.11,15.35-7.34,27.56-17.24,36.7-29.54,7.64,2.61,16.9,6.62,25.83,12.66,1.14.79,3.45,2.16,5.5,2.16.92,0,1.79-.27,2.47-1.01.29-.3.61-.85.53-1.73-.17-1.86-2.22-4.46-3.56-5.43-9.12-6.66-18.29-10.95-26.01-13.74,5.25-8.67,9.17-18.37,11.72-29.12,5.64.9,12.22,2.35,19.44,4.77.04,0,2.17.71,4.26.71,1.57,0,3.11-.39,3.7-1.78.27-.63.26-1.33-.03-2.02-1.04-2.48-5.39-4.32-5.43-4.33-7.12-2.82-14.12-4.47-20.31-5.49,1.35-8.14,2-16.8,1.93-26,.02-1.57-.07-3.12-.1-4.67,2.93-.16,5.97-.26,9.16-.22,4.96.05,10.48.42,15.35.74,1.52.1,2.99.19,4.4.28,3.19.18,7.1-.41,7.57-2.73.17-.81-.11-2.03-2.36-3.29Z"/>
            <path class="cls-10" d="M354.53,238.37c1.76-9.13,2.29-22.42,2.71-33.11l.22-5.23c.76-16.97-5.67-38.25-11.49-44.55-.51-.56-1.4-.99-1.72-1.06-18.78-2.76-45.27,5.51-74.57,23.31-2.08,1.26-3.22,1.95-5.23,1.65l-5.91-.87c-25.25-3.76-56.69-8.45-98.98,1.36-1.2.27-2.52.68-3.88,1.08-5.38,1.6-11.46,3.43-16.3.79-7.98-4.35-28.38-14.75-45.5-17.28-12.59-1.85-20.45-.25-23.34,4.78-10.47,19.65-8.42,46.45-5.73,61.45.72-.85,1.42-1.62,2.07-2.27,2.63-2.63,5.32-3.6,7.16-2.33,1.91,1.32,1.15,4.66-.08,7.33-1.22,2.65-3.69,7.76-5.63,11.18,0,0,0,.01,0,.02-16.85,29.6-16.54,62.53-16.45,66.2,0,.74.03,1.51.04,2.26,9.31.02,14.99,1,17.89,1.74l.21.05c.06.01,7.62,1.41,7.18,5.04-.39,3.23-4.98,2.99-7.2,2.87l-.82-.06c-2.44-.37-8.96-1.24-16.86-1.4.79,8.79,2.71,18.09,6.01,27.25,4.52-1.04,7.71-1.28,9.83-1.4l.29-.02c2.79-.15,9.39-.25,9.73,3.07.3,2.87-4.87,4.24-7.11,4.7-1.04.21-2.16.36-3.41.53-1.75.24-3.74.52-6.09,1.02,3.77,8.24,8.76,16.15,15.14,23.24,6.63-3.22,10.45-4.4,10.53-4.42.06-.03,6.57-1.68,7.84,1.28,1.09,2.56-1.67,3.92-4.33,5.24-.85.42-1.74.86-2.55,1.35,0,0-.09.05-.26.13-1.03.51-2.75,1.4-5.02,2.62,6.17,5.56,13.32,10.43,21.71,14.2,33.54,15.07,64.84,18.46,104.46,19.04l4.04-.06,4.36.06c44.98-.67,81.88-7.25,106.54-19.04,12.36-5.91,22.38-13.54,30.17-22.9-3.71-.86-5.98-1.18-6.04-1.19-1.42-.14-5.85-1.17-7.34-3.19-.44-.61-.61-1.28-.47-1.94.75-3.62,7.32-2.9,10.09-2.43.35.03,3.75.38,9.03,1.65,5.2-7.94,9.03-16.98,11.53-27.1-2.33-.14-4.2-.17-5.48-.17-2.44.01-5.28-.05-5.28-.05-.73-.07-6.59-.76-6.82-3.68-.03-.39.05-1,.6-1.64,1.31-1.53,4.62-2.39,6.03-2.5l.31-.03c.84-.08,3.07-.3,5.31-.32h.61c1.62,0,3.81.05,6.42.22,1.29-7.68,1.93-15.9,1.86-24.74.01-1.24-.06-2.46-.09-3.69-6.85.85-12.47,1.97-16.3,2.74-1.96.39-3.38.68-4.24.78-1.38.2-2.56.3-3.55.3-2.31,0-3.58-.56-4-1.72-.29-.84-.23-1.74.18-2.59.74-1.52,2.53-2.81,5.19-3.72,2.09-.71,10.2-3.2,22.24-4.68-1.72-19.09-7.86-37.28-18.78-55.31-.7-1.16-.95-2.54-.69-3.87Z"/>
          </g>
          <g>
            <path class="cls-2" d="M115.31,320.05c-3.5,7.1-3.52,18.45,1.21,24.48,2.92,3.45,7.8,5.41,14.09,4.33,5.43-.94,8.52-5.9,9.55-9.85,2.23-8.84-.14-19.67-5.23-23.79-5.36-3.91-15.39-3.82-19.61,4.83Z"/>
            <path class="cls-2" d="M285.41,321.08c-3.5,7.1-3.52,18.45,1.21,24.48,2.92,3.45,7.8,5.41,14.09,4.33,5.43-.94,8.52-5.9,9.55-9.85,2.23-8.84-.15-19.68-5.23-23.79-5.36-3.91-15.39-3.82-19.61,4.83Z"/>
            <g>
              <path class="cls-2" d="M230.45,351.8c-1.17-4.16-4.32-7.43-8.44-8.76-7.86-2.55-15.82-1.48-20.77,2.79-5.16,4.56-5.41,12.65-2.19,16.84,2.99,3.88,7.72,5.9,14.48,6.2.31.01.63.02.94.02,5.41,0,10.44-1.98,13.31-5.27v-.02c2.83-3.28,3.82-7.69,2.67-11.81Z"/>
              <path class="cls-4" d="M219.91,349.54c-2.1-.68-4.24-1.01-6.25-1.01-3.19,0-6.05.84-7.91,2.45-2.45,2.17-2.29,6.18-1.26,7.52,1.68,2.18,4.74,3.34,9.35,3.54,4.27.17,7.46-1.38,8.79-2.9,1.34-1.56,1.79-3.55,1.24-5.49-.54-1.94-2.02-3.48-3.96-4.11Z"/>
            </g>
          </g>
        </g>
        <g>
          <g>
            <path class="cls-2" d="M174.31,409.88c-1.48-4.63-4.48-8.3-7.74-11.99-11.57-11.1-31.76-15.56-47.81-10.64-11.58,3.03-24.94,13.2-26.89,28.3-1.79,11.76,2.42,22.06,11.65,27.76,9.31,4.78,19.42,4.67,29.7-.17.87-.33,1.3-.24,3.57.72,1.42.61,3.17,1.34,5.28,1.7,3.57,1.03,6.76,1.46,9.57,1.46,7.46,0,12.38-3.02,15.44-6.04,7.97-7.84,10.94-20.61,7.23-31.1Z"/>
            <path class="cls-10" d="M163.98,413.46c-.03-.07-.05-.13-.07-.2-.83-2.65-3.05-5.31-5.25-7.82-8.41-8.05-24.41-11.47-36.92-7.67-8.41,2.21-17.79,9.67-19.04,19.29-.55,3.62-1.01,12.25,6.19,16.72,5.93,3.02,12.4,2.87,20-.7,1.9-.75,3.63-1.02,5.19-1.02,2.92,0,5.24.98,6.98,1.72,1.12.47,2.08.88,2.97,1.01.27.04.53.09.78.17,6.51,1.94,11.44,1.34,14.59-1.78,4.91-4.82,6.87-13.3,4.58-19.71Z"/>
          </g>
          <g>
            <path class="cls-2" d="M338.19,417.83c-1.98-15.21-15.33-25.39-26.69-28.34-16.27-4.97-36.47-.53-48.34,10.91-2.82,3.2-5.95,7-7.44,11.65-3.71,10.49-.74,23.27,7.22,31.1,3.07,3.03,8,6.05,15.45,6.05,2.81,0,5.99-.43,9.57-1.46,2.11-.36,3.85-1.1,5.28-1.7,2.29-.98,2.71-1.06,3.23-.88,10.61,5,20.73,5.1,30.44.1,8.83-5.48,13.04-15.78,11.27-27.43Z"/>
            <path class="cls-10" d="M327.35,419.36c-1.27-9.74-10.64-17.21-18.84-19.34-3.53-1.08-7.32-1.6-11.13-1.6-9.92,0-20.02,3.48-26.32,9.53-1.88,2.17-4.1,4.83-4.94,7.48-.02.07-.04.13-.07.2-2.29,6.41-.33,14.89,4.56,19.7,3.17,3.11,8.06,3.72,14.6,1.78.25-.07.51-.13.78-.17.89-.13,1.85-.54,2.97-1.01,2.67-1.14,6.69-2.83,11.82-.85,7.93,3.73,14.41,3.88,20.73.64,6.81-4.24,6.35-12.88,5.82-16.38Z"/>
          </g>
        </g>
        <g>
          <g class="cls-11">
            <rect class="cls-7" x="238.29" y="127.32" width="112.23" height="181.97" transform="translate(-27.87 392.86) rotate(-65)"/>
            <rect class="cls-7" x="288.61" y="95.27" width="41.48" height="181.97" transform="translate(9.81 387.9) rotate(-65)"/>
            <rect class="cls-10" x="279.23" y="126.6" width="31.02" height="181.97" transform="translate(-27.02 392.75) rotate(-65)"/>
          </g>
          <path class="cls-1" d="M390.94,224.21c.07-12.49-5.34-22.53-15.6-29.03-.69-.44-1.39-.87-2.1-1.27-.77-.43-1.55-.85-2.34-1.22-11.64-5.67-23.69-4.48-34.15-2.53-5.83,1.33-9.45,2.5-11.74,3.46-1.46-1.46-3.03-2.84-4.74-4.07-.97-.67-6.37-4.22-14.15-5.76-.48-2.23-.98-3.97-1.26-4.88-.01-.05-.23-.79-.25-.84-1.29-3.88-4.26-11.63-9.68-19.9-6.8-10.34-15.02-17.72-24.49-21.96-15.15-6.65-29.01-3.93-42.64,8.55-6.19,6.4-11.53,14.18-15.87,23.1-.54,1.11-4.52,10.56-4.96,11.86-1.56,4.27-6.56,19.27-5.14,33.03.89,10.47,5.87,20.97,13,27.42.12.11.54.44.67.53,7.94,6.03,16.67,9.07,25.99,9.07,1.13,0,2.27-.05,3.42-.13,12.05-.93,21.23-4.61,21.51-4.72,1.18-.45,2.22-.93,3.33-1.4,3.32,4.59,7.6,8.48,12.65,11.05,6.29,3.17,11.23,4.29,15.81,4.29.67,0,1.31-.14,1.97-.18.25.54.51,1.09.92,1.73,9.83,18.53,24.19,24.87,33.25,24.48.58.03,1.17.05,1.76.05,15.78,0,33.72-11.18,44.46-28.18l.53-.88c3.53-5.77,8.87-14.5,9.85-31.66Z"/>
          <path class="cls-2" d="M390.94,224.21c.07-12.49-5.34-22.53-15.6-29.03-.69-.44-1.39-.87-2.1-1.27-.77-.43-1.55-.85-2.34-1.22-11.64-5.67-23.69-4.48-34.15-2.53-5.83,1.33-9.45,2.5-11.74,3.46-1.46-1.46-3.03-2.84-4.74-4.07-.97-.67-6.37-4.22-14.15-5.76-.48-2.23-.98-3.97-1.26-4.88-.01-.05-.23-.79-.25-.84-1.29-3.88-4.26-11.63-9.68-19.9-6.8-10.34-15.02-17.72-24.49-21.96-15.15-6.65-29.01-3.93-42.64,8.55-6.19,6.4-11.53,14.18-15.87,23.1-.54,1.11-4.52,10.56-4.96,11.86-1.56,4.27-6.56,19.27-5.14,33.03.89,10.47,5.87,20.97,13,27.42.12.11.54.44.67.53,7.94,6.03,16.67,9.07,25.99,9.07,1.13,0,2.27-.05,3.42-.13,12.05-.93,21.23-4.61,21.51-4.72,1.18-.45,2.22-.93,3.33-1.4,3.32,4.59,7.6,8.48,12.65,11.05,6.29,3.17,11.23,4.29,15.81,4.29.67,0,1.31-.14,1.97-.18.25.54.51,1.09.92,1.73,9.83,18.53,24.19,24.87,33.25,24.48.58.03,1.17.05,1.76.05,15.78,0,33.72-11.18,44.46-28.18l.53-.88c3.53-5.77,8.87-14.5,9.85-31.66ZM262.41,234.73c-.08.03-8.08,3.2-18.37,4-11.87.91-19.45-4.85-21.88-6.66-5-4.53-8.79-12.66-9.45-20.34-1.18-11.51,3.16-24.52,4.61-28.48.39-1.06,3.95-9.57,4.44-10.59,3.84-7.9,8.52-14.72,13.66-20.06,10.24-9.38,19.41-11.29,30.57-6.38,7.49,3.35,14.15,9.4,19.77,17.96,4.92,7.49,7.54,14.61,8.32,16.91l.28.99c.1.33.23.76.37,1.26-3.12.38-6.39,1.21-9.76,2.67-.86.37-1.62.86-2.44,1.29-1.82-1.99-4.05-3.77-6.3-5.03-6.73-3.79-14.11-3.84-20.25-.13-6.59,4-10.46,11.71-9.86,19.44.23,6.03,2.69,11.16,7.12,14.82,2.87,2.37,6.27,3.78,9.4,4.6,0,.53-.07,1.05-.06,1.58.03,3.82.78,7.6,2.04,11.21-.76.31-1.43.63-2.24.94ZM264.12,210.05c-1.43-.51-2.96-1.24-4.22-2.39-1.79-1.63-2.7-3.75-2.82-6.7-.29-3.87,1.51-7.58,4.61-9.47,2.17-1.32,4.47-1.53,7.04-.66,2.02.68,3.67,1.86,4.9,2.98-4.48,4.46-7.75,9.99-9.5,16.23ZM306.89,246.43c-7.63,2.01-11.53,2.43-19.54-1.62-8.18-4.17-13.72-13.13-13.78-22.46-.43-11.82,5.62-21.89,15.78-26.29,3.44-1.49,6.75-2.05,9.77-2.05,8.05,0,14.03,3.93,14.85,4.49,9.03,6.49,13.34,17.88,10.69,28.51-2.49,11.49-10.8,17.57-17.75,19.43ZM371.63,250.37l-.6,1.01c-8.69,13.74-23.71,23.26-36.56,22.57-6.52.09-15.93-5.15-23.02-17.53,4.14-1.36,8.46-3.71,12.35-7.14,1.96,1.41,4.3,2.61,7,3.2,1.02.22,2.2.38,3.49.38,3.21,0,7.18-.98,11.47-4.38,4.81-4.81,6.43-10.35,4.84-17.49-2.82-8.54-9.53-11.12-14.31-12.03-.27-5.63-1.81-11.14-4.48-16.14,2.05-.65,4.64-1.36,7.15-1.93,8.49-1.57,18.35-2.62,27.19,1.67.59.28,1.14.58,1.7.89.53.3,1.04.61,1.59.96,7.15,4.53,10.61,10.99,10.57,19.46-.82,14.14-4.94,20.88-8.38,26.5ZM335.17,229.94c2.53.61,4.13,1.69,4.89,3.94.65,2.96.13,4.69-1.56,6.43-1.71,1.35-3.44,1.83-5.18,1.51-.94-.17-1.76-.57-2.49-1,1.88-3.16,3.39-6.77,4.33-10.89Z"/>
        </g>
      </g>
    </g>
    <g>
      <path class="cls-10" d="M66.91,9.87c-.77-1.02-5.05-6.7-5.05-6.7L28.9,20.78v54.75l.18.2c.08.09,8.14,9.17,8.26,15.62.05,2.72,1.42,5.62,3.33,8.36-2.56-1.54-9.62-5.13-15.44-2.29-6.24-2.98-11.07-1.85-14.04-.34-3.14,1.59-4.79,3.78-5.33,4.5l-.09.12c-.8,1.02-1.18,1.87-1.19,1.9l-.55,1.25,1.33-.28c1.28-.27,2.07-.17,2.07-.17h.05s.06,0,.06,0c.2,0,4.92.04,14.04,6.76,3.93,2.9,7.55,5.31,10.83,7.22-.1.07-.68.47-.68.47l.14.47s1.24,4.65,1.41,5.29c-1.75,1.76-3.14,4.21-3.93,6.98l-.06.2.06.2c.2.65,4.95,15.88,5.17,16.49,1.03,2.9,3.04,3.5,4.53,3.5,3.4,0,5.35-4.3,6.21-6.87l.1-.3s-.3-.5-.42-.71c1.56-1.07,2.39-2.35,2.39-3.84,0-.32-.04-.65-.11-.99,0,0-.21-.84-.33-1.31,8.39-3.26,19.23-5.07,30.65-5.07s22.27,1.8,30.65,5.07c-.12.46-.33,1.31-.33,1.31-.07.34-.11.67-.11.99,0,1.49.83,2.77,2.39,3.84-.13.22-.42.71-.42.71l.1.3c.86,2.56,2.82,6.87,6.21,6.87,1.5,0,3.5-.61,4.53-3.49.22-.62,4.98-15.85,5.18-16.5l.06-.2-.06-.2c-.79-2.78-2.18-5.22-3.93-6.98.17-.64,1.54-5.77,1.54-5.77,0,0-.57-.39-.67-.46,3.28-1.92,6.9-4.33,10.83-7.22,9.12-6.73,13.84-6.77,14.04-6.76h.11s.79-.11,2.07.16l1.33.28-.55-1.24s-.39-.88-1.19-1.9l-.09-.12c-.54-.72-2.2-2.91-5.33-4.5-2.97-1.51-7.8-2.64-14.04.34-5.82-2.84-12.88.75-15.44,2.29,1.91-2.74,3.28-5.63,3.33-8.36.12-6.44,8.18-15.53,8.26-15.62l.18-.2V20.78L93.23,3.17s-4.28,5.67-5.05,6.7c-1.02-.94-10.63-9.87-10.63-9.87,0,0-9.62,8.93-10.63,9.87ZM38.31,105.27h0c.13-.6,2.39-1.7,4.86-2.39,2.91,3.36,6.23,6.22,8.23,7.83-2.08.51-4.12,1.08-6.06,1.71-6.87-4.83-7.03-7.04-7.03-7.16ZM111.93,102.89c2.47.68,4.72,1.78,4.86,2.38h0c0,.12-.16,2.33-7.03,7.16-1.94-.63-3.98-1.2-6.06-1.71,2.01-1.62,5.32-4.47,8.23-7.83Z"/>
      <path d="M147.74,102.48s-6.37-9.22-17.91-3.12c-6.32-3.92-15.39,2.4-15.39,2.4,0,0,4.67,1.28,4.42,3.34-.11.95-.94,3.89-8.81,9.26-2.89-.98-6.34-1.96-10.36-2.77.68-.5,1.38-1.03,2.09-1.58,3.3-2.57,14.09-11.56,14.22-18.69.13-7.26,8.44-16.45,8.44-16.45V21.83l-30.72-16.41-5.31,7.05-10.86-10.08-10.86,10.08-5.31-7.05-30.72,16.41v53.03s8.31,9.19,8.44,16.45c.13,7.13,10.92,16.13,14.22,18.69.71.55,1.41,1.08,2.09,1.58-4.02.82-7.47,1.79-10.36,2.77-7.86-5.37-8.69-8.31-8.81-9.26-.25-2.06,4.42-3.34,4.42-3.34,0,0-9.07-6.32-15.39-2.4-11.54-6.1-17.91,3.12-17.91,3.12,0,0,5.34-.03,15.26,7.28,5.23,3.86,9.62,6.65,13.22,8.56-1.4.77-2.09,1.26-2.09,1.26,0,0,.63,2.36,1.48,5.57-1.58,1.34-3.2,3.42-4.11,6.63,0,0,4.84,15.52,5.06,16.12.21.6.82,2.34,2.89,2.34s3.59-3.04,4.39-5.23l-.86-1.44c.39-.26.79-.51,1.2-.75,1.94-1.14,1.88-2.5,1.73-3.17-.13-.56-.57-2.22-.71-2.76,8.97-3.79,20.49-5.75,32.74-5.75s23.77,1.96,32.74,5.75c-.14.54-.58,2.2-.71,2.76-.15.67-.21,2.03,1.73,3.17.41.24.81.48,1.19.75l-.86,1.44c.8,2.19,2.33,5.23,4.39,5.23s2.67-1.74,2.89-2.34c.22-.6,5.06-16.12,5.06-16.12-.91-3.21-2.53-5.29-4.11-6.63.85-3.21,1.48-5.57,1.48-5.57,0,0-.69-.49-2.09-1.26,3.6-1.91,7.99-4.71,13.22-8.56,9.92-7.31,15.26-7.28,15.26-7.28Z"/>
      <path class="cls-6" d="M113.98,91.26c.21-7.59,8.44-17.15,8.44-17.15V23.05l-28.09-15.01-5.73,7.37c-2.31-2.14-11.06-10.26-11.06-10.26,0,0-8.75,8.12-11.06,10.26l-5.73-7.37-28.09,15.01v51.06s8.23,9.56,8.44,17.15c.14,4.97,7.04,12.12,13.45,17.16,1.12.88,2.33,1.77,3.6,2.65,5.51-.95,11.96-1.59,19.39-1.59s13.88.64,19.39,1.59c1.27-.88,2.48-1.78,3.6-2.65,6.41-5.04,13.31-12.19,13.45-17.16Z"/>
      <path class="cls-10" d="M94.67,9.5s-2.15,3-4.59,5.88l1.26,4.11s-13.79-12.8-13.79-12.8c0,0-13.82,12.83-13.79,12.8l1.26-4.11c-2.44-2.88-4.59-5.88-4.59-5.88l-26.62,14.22v49.96l10.36-5.54c1.3-1.56,3.22-2.23,3.9-2.3.16-.01.27,0,.35.03h.02c.21-.63.35-.71.47-.74.11-.02.2-.02.28-.02.06-.24.18-.49.39-.74.04-.05.17-.21.91-.3,0-.08.04-.17.08-.28.27-.64,1.49-2.31,3.4-3.1.65-.27,3.83-1.54,4.28-.93,0,.01.02.03.02.05.06.15-.03.5-.21.91l4.58-2.45c3.01,5.16,8.6,8.63,15,8.63s11.95-3.44,14.97-8.57l5.08,2.71c-.29-.55-.45-1.04-.37-1.23,0-.02.01-.04.02-.05.45-.61,3.63.67,4.28.93,1.91.79,3.13,2.46,3.4,3.1.04.11.07.2.08.28.74.08.87.24.91.3.21.25.33.5.39.74.08,0,.18,0,.28.02.12.02.26.11.47.74.08-.04.2-.05.36-.03.69.07,2.65.76,3.95,2.36.1.12.19.24.29.36l9.57,5.11V23.72l-26.62-14.22ZM53.5,60.33c-1.3,1.6-3.25,2.29-3.95,2.36-.16.02-.28,0-.36-.03-.22.63-.35.71-.48.74-.1.02-.19.02-.28.01-.05.24-.18.49-.38.74-.05.05-.17.22-.91.3,0,.08-.03.17-.08.28-.26.64-1.49,2.31-3.39,3.1-.65.27-3.83,1.55-4.28.93,0-.02-.02-.03-.03-.05-.11-.26.23-1.08.75-1.85-.24.01-.47.01-.68,0-.66-.05-3.7-.32-4.17-.97-.04-.06-.07-.12-.06-.19.03-.39,1.29-1.4,2.8-1.87-.05-.05-.09-.09-.12-.13-.05-.07-.08-.13-.08-.19-.02-.26.19-.46.42-.61-.57-.41-1.5-1.15-1.91-1.7-.14-.19-.21-.35-.2-.48.02-.14.11-.27.25-.37.47-.35,1.65-.48,2.73-.32.5.08,1.33.5,2.15.98-.09-.11-.18-.22-.26-.33-.41-.56-.64-1.11-.49-1.37.16-.34.95-.43,1.75-.38-.86-1.56-1.12-3.3-.8-3.64.5-.54,2.99,1.32,3.58,1.87.26.25.63.69,1.02,1.22.02.03.05.07.07.1-.78-1.45-1.51-3.91-1.15-4.31.1-.1.23-.16.41-.17.59-.03,1.64.5,2.45,1.24.02.02.05.05.07.06-.28-1.49-.37-3.56.04-3.84.53-.36,1.45.55,2.51,1.7.05.05.09.1.13.16.06.08.1.16.16.25.62-1.65.92-1.59,1.06-1.55.11.03.25.16.4.37.58.79,1.33,2.71.99,4.42,1.09-.41,2.17-.52,2.41-.32.02.01.03.03.05.05.03.04.05.1.07.17.06.58-1.1,2.3-2.2,3.64ZM120.29,65.89c-.48.64-3.52.92-4.17.97-.21.02-.44.02-.68,0,.52.77.86,1.59.75,1.85,0,.02-.02.04-.03.05-.45.61-3.63-.66-4.28-.93-1.9-.79-3.13-2.46-3.39-3.1-.05-.11-.07-.2-.08-.28-.74-.08-.87-.25-.91-.3-.2-.25-.33-.5-.38-.74-.09,0-.18,0-.28-.01-.13-.03-.26-.11-.48-.74-.09.04-.2.05-.36.03-.7-.07-2.65-.76-3.95-2.36-1.1-1.34-2.26-3.06-2.2-3.64.01-.07.04-.13.07-.17.01-.02.03-.04.05-.05.24-.2,1.33-.09,2.41.32-.34-1.71.41-3.63.99-4.42.15-.21.29-.34.4-.37.14-.03.44-.1,1.06,1.55.05-.08.1-.17.16-.25.04-.05.08-.1.13-.16,1.06-1.14,1.98-2.05,2.52-1.7.41.28.32,2.35.04,3.84.02-.02.05-.05.07-.06.81-.74,1.86-1.27,2.45-1.24.18,0,.32.07.41.17.37.4-.37,2.86-1.15,4.31.02-.03.05-.07.07-.1.39-.53.76-.98,1.02-1.22.59-.54,3.08-2.41,3.58-1.87.32.34.06,2.08-.8,3.64.8-.05,1.59.05,1.75.38.14.27-.08.81-.49,1.37-.08.11-.17.22-.26.33.81-.48,1.65-.9,2.15-.98,1.09-.16,2.26-.03,2.73.32.14.1.22.23.25.37.02.12-.06.29-.2.48-.41.55-1.34,1.29-1.91,1.7.23.16.43.36.42.61,0,.06-.03.12-.08.19-.03.04-.07.08-.12.13,1.51.47,2.77,1.49,2.8,1.87.01.07-.01.13-.06.19Z"/>
      <path class="cls-7" d="M33.8,73.69s8.22,9.45,8.44,17.54c0,.14.01.27.03.42l24.74-28.36c-1.76-1.37-3.26-3.06-4.39-5l-28.82,15.4Z"/>
      <path class="cls-9" d="M92.58,58.34c-1.15,1.94-2.66,3.65-4.44,5.01l24.68,28.29c.02-.14.03-.28.03-.42.23-8.1,8.44-17.54,8.44-17.54l-28.71-15.34Z"/>
      <path d="M48.78,31.64l.39,1.24-4,1.25-.33-1.04c.58-2.31.91-3.73.99-4.26.08-.53.08-.93,0-1.18-.06-.2-.14-.34-.24-.41-.1-.08-.22-.09-.35-.05-.14.04-.22.13-.26.26-.03.13,0,.35.1.68l.22.69-1.63.51-.08-.27c-.13-.41-.21-.74-.24-.99-.03-.25,0-.51.09-.79.09-.28.25-.52.48-.72.23-.2.53-.36.89-.47.72-.23,1.33-.22,1.81.02.48.24.81.64.98,1.19.13.42.16.89.1,1.42-.06.53-.37,1.71-.92,3.54l1.99-.62ZM68.98,24.45l.22,2.54c.05.58.06,1,.02,1.27-.04.27-.15.53-.33.77-.18.25-.4.43-.67.56s-.58.2-.92.23c-.45.04-.84.02-1.15-.06-.31-.08-.56-.22-.76-.43-.2-.21-.35-.43-.44-.67-.1-.24-.17-.63-.22-1.16l-.23-2.66c-.06-.7-.05-1.23.04-1.59.09-.36.31-.66.65-.9.34-.24.77-.38,1.28-.43.42-.04.8,0,1.14.12.34.12.6.27.78.47.18.2.31.42.4.68.08.26.15.68.2,1.25ZM67.02,23.97c-.04-.4-.08-.66-.13-.75-.05-.1-.15-.14-.29-.13-.14.01-.23.07-.26.19-.04.11-.04.36,0,.76l.33,3.71c.04.44.08.71.13.79.05.09.15.12.29.11.14-.01.23-.07.26-.18.03-.11.04-.35,0-.72l-.33-3.77ZM90.33,24.75l-.21,2.54c-.05.58-.11,1-.2,1.25-.08.26-.23.49-.45.71-.22.21-.47.36-.76.44-.29.08-.6.1-.95.07-.46-.04-.83-.12-1.12-.25-.29-.13-.52-.31-.68-.55-.16-.24-.27-.48-.32-.74-.05-.25-.06-.65-.02-1.18l.22-2.66c.06-.7.16-1.22.31-1.56.15-.34.41-.6.79-.78.38-.18.82-.25,1.33-.21.42.03.79.14,1.1.31.32.17.55.37.7.59.15.22.24.47.27.74.04.27.03.69-.02,1.27ZM88.48,23.96c.03-.4.03-.66,0-.76-.03-.11-.12-.16-.26-.18-.14-.01-.24.03-.29.14-.05.1-.1.35-.13.74l-.3,3.72c-.04.44-.04.71,0,.81.04.09.12.15.26.16.14.01.24-.03.29-.14.05-.1.09-.34.13-.71l.31-3.78ZM109.97,32.59l-.38,1.25-4.02-1.21.31-1.04c1.78-1.59,2.85-2.58,3.21-2.97.36-.4.58-.72.66-.98.06-.2.07-.36.03-.48-.04-.12-.13-.2-.27-.24-.14-.04-.26-.02-.36.07-.1.09-.2.29-.3.62l-.21.7-1.64-.49.08-.27c.12-.41.24-.73.36-.95.11-.22.29-.43.52-.6.23-.18.5-.29.8-.33.3-.04.64,0,1.01.11.73.22,1.22.56,1.48,1.04.26.47.31.98.15,1.54-.13.42-.36.83-.71,1.23-.35.4-1.27,1.21-2.75,2.42l2,.6Z"/>
      <g>
        <path class="cls-6" d="M75.15,90.89s.01-.06.01-.09c0-.08-.03-.15-.08-.22.58-.05,1.27-.15,1.47-.39,0,0,0,0,0,0,.33-.41.51-.81.56-1.19.05.03.1.04.16.04l.32-.02c.09,0,.13-.04.2-.11.14-.16.3-.54.49-1.12.04.09.12.15.23.18.7.18,4.02-.91,6.03-3.39,1.91-2.34,3.25-4.52,3.18-5.18-.01-.13-.1-.25-.23-.29-.39-.13-1.88-.02-3.53.66.01-.06.03-.15.03-.15.11-.51.17-1.01.17-1.5,0-2.3-1.08-4.34-1.6-5.04,0,0-.32-.34-.32-.34-.12-.13-.27-.1-.41.01-.31.24-.75,1.14-1.21,2.45-.11-.24-.23-.48-.4-.7,0,0-.17-.21-.17-.21,0,0-.05-.05-.05-.05-1.98-2.11-2.87-2.74-3.4-2.41-.03.02-.06.04-.08.07-.18.21-.27.9-.27,1.78,0,1.33.2,3.08.53,4.39-.21-.32-.41-.57-.56-.71-.98-.89-2.53-1.82-3.46-1.77,0,0-.48.19-.48.19-.07.03,0,0-.05.07-.37.69.98,5.17,2.21,6.85,0,0,.41.47.41.47,0,0,.13.12.13.12.09.08.22.11.34.08.01,0,.02-.01.03-.02,0,.04-.01.08-.02.11,0,.02,0,.12,0,.14v-.05s-.02.57-.03.92c-.56-.88-1.16-1.77-1.7-2.51-.64-.87-1.14-1.48-1.49-1.8-1.39-1.29-4.12-2.97-4.82-2.82-.11.02-.2.09-.24.19-.23.48-.02,2.86,1.42,5.3,0,0,0,0,0,0-1.35-.13-2.48.03-2.72.41,0,.02-.02.03-.03.05-.02.06-.03.12-.03.19,0,.55.64,1.46.79,1.65.31.42.82,1.02,1.54,1.54.03.02.09.04.13.05.03.04.04.09.09.11l.21.12s-.06.04-.08.06c-.01.01-.02.03-.03.04,0-.02-.02-.05-.03-.07-.02-.08-.07-.14-.14-.19-1.97-1.32-3.8-2.26-4.65-2.39-1.34-.2-3.16-.1-3.88.44,0,0-.29.41-.29.41-.04.05-.05.06-.05.06,0,0,.02.01.05.07,0,0,.22.42.22.42.41.55,1.47,1.57,2.95,2.61.02.01.05.01.07.02-.51.29-.77.57-.77.85,0,.1,0,.15.07.21l.4.36c-2.25.61-4.01,2.08-4.24,2.56-.06.13-.04.27.05.38.44.5,2.94,1.04,5.95,1.27.39.03.82.02,1.33-.01-.84,1.18-1.3,2.3-1.3,2.69,0,.14.08.27.21.32.62.25,3.09-.4,5.88-1.55,2.91-1.2,4.75-3.83,4.95-4.63Z"/>
        <path class="cls-6" d="M97.47,88.11c-.45-.5-2.95-1.03-5.94-1.27-.41-.03-.84-.02-1.33.02.84-1.17,1.3-2.3,1.3-2.69,0-.14-.08-.26-.21-.32-.61-.26-3.09.39-5.89,1.55-2.87,1.18-4.72,3.82-4.95,4.63,0,.03-.01.06-.01.09,0,.08.03.15.08.22,0,0,0,0,0,0-.84.07-1.34.21-1.49.41-.33.41-.51.8-.55,1.17-.05-.03-.1-.05-.17-.05h-.3c-.1.02-.17.07-.23.15-.14.19-.3.57-.47,1.11-.03-.11-.11-.16-.24-.19-.7-.18-4.02.92-6.03,3.39-1.84,2.24-3.19,4.42-3.19,5.13,0,.02,0,.03,0,.04.01.14.11.25.24.3.4.13,1.89.01,3.52-.66l-.02.07c-.7,2.9.79,5.76,1.42,6.62,0,0,.32.35.32.35.12.13.27.1.41-.01.31-.24.75-1.14,1.22-2.46.14.26.39.69.39.7,0,0,.16.2.16.2,2.51,2.71,3.1,2.7,3.46,2.48.03-.02.06-.04.08-.07.18-.21.26-.89.26-1.76,0-1.33-.2-3.09-.53-4.4.19.28.38.54.56.7.99.91,2.56,1.82,3.47,1.78,0,0,.47-.17.47-.17.08-.03.02-.01.06-.09.37-.69-.98-5.18-2.21-6.86,0-.01-.4-.45-.4-.45-.02-.02-.17-.14-.17-.14-.09-.08-.22-.1-.33-.06,0,0,0,0,0,0,0-.03.01-.07.02-.11,0,0,0-.06,0-.06l.03-.92c.55.86,1.14,1.71,1.7,2.48.44.6,1.06,1.4,1.48,1.79,1.4,1.29,4.13,2.97,4.83,2.83.11-.02.2-.09.24-.19.05-.11.08-.3.08-.57,0-.96-.37-2.83-1.51-4.73,0,0,0,0,0-.01,1.37.13,2.5-.04,2.72-.41,0,0,.02-.02.02-.03.03-.06.04-.13.04-.21,0-.5-.53-1.29-.79-1.65-.31-.42-.82-1.02-1.54-1.55-.02-.02-.06-.02-.1-.03,0,0,0,0,0,0-.03-.05-.09-.11-.14-.14l-.19-.11s.06-.04.08-.06c.01-.01.02-.03.03-.04l.04.09c.03.05.08.13.13.17,1.97,1.33,3.8,2.27,4.65,2.4,1.33.2,3.15.1,3.87-.43.01-.01.29-.39.29-.39.04-.05.05-.06.05-.07,0-.01-.02-.02-.05-.08,0,0-.21-.41-.21-.42-.4-.54-1.46-1.55-2.95-2.61-.02-.01-.05-.01-.07-.02.6-.36.72-.62.76-.78,0-.04.01-.07.01-.11,0-.07-.02-.14-.09-.19l-.4-.36c2.25-.61,4.01-2.08,4.24-2.55.06-.13.04-.28-.05-.38Z"/>
      </g>
      <path class="cls-10" d="M67.01,63.29l-24.74,28.36c.25,2.18,1.95,5,4.54,7.99l22.08-35.08s0,0,0,0c-.66-.38-1.28-.8-1.88-1.27Z"/>
      <path class="cls-10" d="M88.14,63.35c-.6.46-1.24.88-1.9,1.26l22.04,35.02c2.59-2.99,4.29-5.81,4.54-7.99l-24.68-28.29Z"/>
      <g>
        <path class="cls-7" d="M47.1,64.59s.01-.09,0-.14c.75-.08.89-.24.94-.3.2-.25.33-.5.38-.74,0,0,0,0,0,0h.25c.09-.02.14-.05.2-.13.04-.04.13-.16.3-.64.03.01.05.02.08.03.55.14,2.84-.64,4.23-2.35,1.1-1.35,2.26-3.06,2.19-3.62-.02-.13-.1-.24-.23-.29-.3-.1-1.25-.02-2.3.38.07-.32.11-.64.11-.95,0-1.6-.75-3.02-1.11-3.51,0,0-.25-.26-.25-.26-.12-.13-.27-.1-.41.02-.27.21-.58.95-.78,1.5-.08-.15-.16-.29-.16-.29,0,0-.12-.15-.12-.15-1.47-1.57-2.07-1.97-2.5-1.7-.03.02-.06.04-.08.07-.15.17-.21.67-.21,1.3,0,.76.1,1.71.25,2.52-.03-.03-.06-.08-.09-.1-.69-.63-1.78-1.27-2.45-1.24,0,0-.4.17-.4.17-.03.01-.04.01-.04.02,0,0,0,0,0,.01s0,.02-.01.04c-.04.07-.05.17-.05.31,0,.85.64,2.87,1.28,4.02-.07-.1-.12-.17-.12-.17-.45-.61-.79-1.02-1.03-1.24-.88-.82-2.83-2.07-3.39-1.95-.1.02-.19.09-.24.19-.04.09-.06.24-.06.43,0,.68.27,1.92.94,3.12-.77-.05-1.55.03-1.75.35-.03.07-.04.14-.04.21,0,.41.36.96.54,1.2,0,0,0,0,0,0,.07.1.17.22.28.34-.94-.56-1.75-.93-2.19-1-.92-.14-2.19-.08-2.73.32,0,0-.24.35-.24.35-.07.1-.06.02,0,.13l.16.33c.28.37.98,1.05,1.94,1.73-.28.19-.43.38-.43.58,0,.1,0,.14.07.2l.16.14c-1.49.46-2.62,1.41-2.78,1.74-.06.13-.04.28.05.38.38.43,2.41.77,4.13.91,0,0,.41,0,.71,0-.49.72-.79,1.43-.79,1.72,0,.14.08.27.21.32.53.22,2.5-.4,4.1-1.06,2.02-.83,3.3-2.68,3.45-3.24Z"/>
        <path class="cls-7" d="M58.19,61.69s-.41,0-.71.01c.49-.72.8-1.43.8-1.73,0-.14-.08-.26-.21-.32-.53-.23-2.5.39-4.11,1.06-1.99.82-3.29,2.67-3.44,3.23-.01.05-.01.1,0,.15-.77.09-.9.25-.95.31-.19.24-.32.49-.37.73,0,0,0,0-.01,0h-.23c-.11.01-.18.07-.25.16-.04.05-.13.19-.27.6-.03-.01-.06-.02-.09-.03-.47-.12-2.77.56-4.22,2.35-1.13,1.38-2.25,3.06-2.2,3.61.01.14.11.25.24.3.31.1,1.26.01,2.29-.38-.41,1.97.59,3.88,1.02,4.46,0,0,.24.26.24.26.12.13.27.1.41-.01.27-.21.58-.95.79-1.5.08.14.15.27.16.28,0,0,.12.16.12.16,1.59,1.73,2.12,1.93,2.49,1.71.03-.02.06-.04.08-.07.15-.17.21-.66.21-1.29,0-.76-.1-1.72-.25-2.53.03.03.06.08.09.1.68.62,1.77,1.27,2.44,1.24,0,0,.39-.15.39-.15.08-.03.03-.01.07-.09.25-.48-.48-2.94-1.21-4.29l.09.13c.31.41.73.96,1.02,1.24.89.82,2.84,2.07,3.4,1.96.11-.02.19-.09.24-.19.04-.09.07-.24.07-.43,0-.68-.28-1.92-.95-3.12.79.05,1.57-.04,1.76-.36.03-.07.05-.14.05-.22,0-.35-.28-.82-.55-1.19,0,0,0,0,0,0-.08-.1-.18-.22-.29-.35.83.49,1.69.93,2.2,1.01.92.14,2.19.08,2.72-.32.01,0,.24-.33.24-.33.07-.1.06-.03,0-.15l-.16-.33c-.27-.37-.97-1.04-1.94-1.74.25-.18.38-.34.42-.51,0-.04.01-.07.01-.1,0-.07-.02-.12-.08-.18,0,0-.07-.06-.15-.13,1.42-.44,2.59-1.36,2.78-1.74.06-.13.04-.28-.05-.38-.38-.43-2.41-.77-4.13-.9Z"/>
      </g>
      <g>
        <path class="cls-9" d="M120.24,65.94c.09-.1.11-.25.05-.38-.16-.33-1.29-1.29-2.78-1.74.08-.08.16-.14.16-.14.07-.07.07-.11.07-.2,0-.2-.14-.38-.43-.58.96-.69,1.67-1.36,1.94-1.73,0,0,.17-.34.17-.34.03-.06.05-.06.05-.07,0,0-.01-.01-.05-.06l-.24-.35c-.54-.4-1.81-.46-2.73-.32-.44.07-1.25.44-2.19,1,.11-.12.2-.24.27-.34.18-.25.56-.81.56-1.2,0-.06,0-.12-.03-.17,0-.02-.02-.03-.03-.05-.2-.31-.97-.4-1.75-.35.86-1.55,1.06-3.16.88-3.55-.05-.1-.14-.17-.24-.19-.56-.12-2.51,1.14-3.39,1.95-.24.22-.58.64-1.03,1.24l-.11.17c.74-1.34,1.49-3.85,1.23-4.33-.04-.07.03-.03-.05-.06l-.4-.17c-.66-.04-1.75.61-2.44,1.24-.03.02-.06.07-.09.1.16-.8.25-1.75.25-2.51,0-.63-.06-1.12-.21-1.3-.02-.03-.05-.05-.08-.07-.43-.27-1.03.14-2.47,1.68-.02.03-.15.19-.15.19h0s-.07.13-.15.27c-.2-.55-.52-1.29-.78-1.5-.14-.11-.28-.14-.41-.02l-.25.26c-.36.49-1.11,1.9-1.11,3.51,0,.31.04.63.11.95-1.04-.39-2-.48-2.3-.38-.13.04-.22.15-.23.29-.06.56,1.09,2.27,2.19,3.62,1.39,1.71,3.68,2.49,4.23,2.35.03,0,.06-.02.08-.03.17.48.26.6.3.64.06.07.1.11.2.11h.25s.01,0,.02,0c.05.25.17.5.37.75h0c.05.06.18.22.94.3,0,.05-.01.09,0,.14.15.56,1.43,2.4,3.45,3.24h0c1.6.66,3.57,1.28,4.1,1.06.13-.05.21-.18.21-.32,0-.29-.31-1-.79-1.73.31,0,.71.01.71.01,1.73-.14,3.76-.48,4.14-.91Z"/>
        <path class="cls-9" d="M111.43,68.22s0,0,0,0c-1.45-1.8-3.76-2.47-4.22-2.35-.03,0-.06.02-.09.03-.14-.41-.23-.55-.27-.6-.06-.09-.14-.15-.25-.15h-.23s0,0-.01,0c-.05-.24-.18-.48-.38-.73-.05-.07-.19-.23-.94-.31,0-.02,0-.04,0-.06,0-.03,0-.06-.01-.09-.16-.56-1.45-2.41-3.44-3.23h0,0,0c-1.61-.67-3.58-1.28-4.11-1.06-.13.05-.21.18-.21.32,0,.29.31,1,.79,1.73-.31,0-.71-.01-.71-.01-1.72.13-3.74.47-4.13.9-.09.1-.11.25-.05.38.16.33,1.28,1.28,2.78,1.74-.08.07-.15.13-.15.13-.06.06-.08.11-.08.18,0,.03,0,.07.01.1.04.18.17.34.42.51-.97.7-1.68,1.37-1.94,1.73,0,0,0,0,0,0l-.16.33c-.03.06-.05.07-.05.08s.01.02.05.07l.23.33c.55.4,1.81.46,2.73.32.5-.08,1.37-.51,2.2-1.01-.11.13-.21.25-.29.35-.27.37-.56.85-.56,1.19,0,.07.01.13.04.19,0,0,.01.02.02.03.19.32.97.41,1.76.36-.87,1.55-1.07,3.16-.88,3.55.05.1.14.17.24.19.55.11,2.51-1.14,3.39-1.96.3-.28.72-.83,1.03-1.24,0,0,.04-.06.1-.15-.74,1.36-1.47,3.83-1.22,4.31.04.07-.01.06.07.09l.4.15c.66.03,1.75-.62,2.44-1.24.03-.02.06-.07.09-.1-.16.81-.25,1.77-.25,2.53,0,.62.06,1.12.21,1.29.02.03.05.05.08.07.37.23.9.02,2.49-1.71,0,0,.14-.18.14-.18,0,0,.07-.12.14-.25.2.55.52,1.29.79,1.5.14.11.29.14.41.01l.25-.26c.43-.58,1.42-2.49,1.01-4.46,1.03.39,1.98.48,2.29.38.13-.04.22-.16.24-.3,0-.01,0-.02,0-.04,0-.58-1.09-2.22-2.2-3.57h0Z"/>
      </g>
      <path class="cls-5" d="M51.71,52.36s.1.08.17.18c.45.61,1.37,2.49.93,4.33,0,0-.02.08-.02.08-.54.24-1.02.55-1.42.89.08-1.09.1-2.71-.41-3.88.39-1.09.65-1.51.76-1.59ZM46.72,58.82c.08.11.17.21.25.28l.09.08c.31-1.38,1.82-3.79,2.41-3.74.6.06.8,1.39.67,2.68-.04.39-.12.97-.24,1.6.26-.44.57-.9.93-1.34.04-.06.1-.11.14-.17.11-1,.21-2.82-.33-4.07-.02,0-.02-.02-.04-.04,0,0,0-.02-.02-.03-.09-.19-.18-.39-.3-.55-.03-.05-.07-.09-.1-.12-.43-.46-1.72-1.85-2.06-1.64-.21.25-.18,2.73.3,4.31.03.08-.02.18-.09.21-.08.04-.18.01-.23-.06-.14-.24-.36-.56-.53-.72-.73-.66-1.71-1.17-2.2-1.15-.05,0-.13.01-.16.05-.17.32.63,3.26,1.49,4.43ZM42.64,58.93s.03,0,.04,0c.78.1,1.57.33,2.37.69.66.29,1.47.79,1.61,1.51.02.12.02.23.01.34,0,0,.02,0,.02,0,.14.05.28.1.4.15-.05-.3-.09-.63-.1-.99,0-.06.03-.11.07-.14-.01,0-.03-.02-.04-.03,0,0,0,0,0,0-.43-.68-.86-1.32-1.26-1.85-.41-.55-.75-.98-.99-1.19-1.05-.97-2.78-1.93-3.09-1.87-.11.24.01,1.8.96,3.4ZM41.28,60.49c.25.34.59.7,1,1,.01,0,.03,0,.04.01.04.01.08.05.1.1.1.06.19.12.3.17,1.23.63,3.01.58,3.2.39.33-.33.46-.66.4-.97-.09-.45-.59-.9-1.4-1.26-.77-.34-1.55-.57-2.28-.66-.03.02-.06.03-.1.02-1.09-.12-1.68.06-1.74.16h0c-.05.11.13.54.49,1.03ZM38.52,62.68s0,0,0,0c.54-.27,1.29-.47,2.01-.52.46-.04,1.24.15,1.84.31-.12-.18-.21-.35-.26-.5-1.3-.87-2.54-1.51-3.08-1.6-.97-.15-2.08-.03-2.47.25-.04.03-.1.08-.11.14,0,.04.04.11.1.19.26.35.98,1.04,1.96,1.73ZM38.16,63.49s.1.12.31.27c.01.01.03.02.04.04,0,0,0,.01,0,.02.01,0,.02.01.03.02.97.67,3.31,1.68,4.23,1.6,1.4-.11,3.13-.64,3.36-.93-.56-.03-1.18-.12-1.7-.33-.63-.25-1.26-.74-1.71-1.25-.02,0-.05,0-.07,0-.95-.29-1.72-.44-2.1-.41-.66.05-1.38.23-1.87.49,0,0-.01,0-.01,0-.02.02-.04.04-.06.06-.43.24-.47.38-.47.42,0,0,0,0,.01.01ZM46.77,64.5c-.08,0-.17,0-.26,0-.14.81-3.23,1.24-3.71,1.28-1.05.08-3.43-.96-4.46-1.67-.01,0-.02-.02-.04-.03-1.5.4-2.64,1.38-2.76,1.62.19.22,1.64.61,3.9.79.29.02.61.02.99-.02.06,0,.12.02.15.07,0,0,0,.01.01.02.03.06.03.14-.01.19-.63.84-.91,1.6-.91,1.79.27.11,1.73-.19,3.84-1.06,1.92-.79,3.12-2.55,3.24-3.01ZM48.11,63.2s0-.03.01-.04c0,0,0-.02,0-.03,0-.51-.57-.99-1.54-1.32h0c-.09.2-.23.4-.42.6-.38.39-2.42.28-3.6-.32h0c.3.51,1.09,1.4,2.02,1.76.69.27,1.57.33,2.22.3.02-.01.05-.02.07-.02.65-.05.88-.15.91-.19.21-.26.32-.5.34-.73ZM48.99,62.1c.02-.26.11-.63.27-1.05.25-1.08.46-2.3.52-2.96.11-1.2-.07-1.98-.25-2.22-.04-.04-.07-.07-.1-.08-.33.1-1.94,2.4-2.07,3.7,0,0-.01.01-.01.02,0,0,0,.01,0,.02-.02.23-.03.51-.02.81,0,.06-.03.11-.07.14.04.03.07.08.07.13.01.45.06.85.14,1.2.61.33.95.76.98,1.24.05,0,.1,0,.16,0,.04-.04.16-.22.37-.95ZM55.35,56.74c-.2-.07-1.21,0-2.35.49h0c-.79.34-1.44.82-1.9,1.37-.73.9-1.22,1.84-1.49,2.55-.08.36-.17.71-.26,1.01,0,.09,0,.15,0,.17.33.08,2.5-.54,3.88-2.23,1.43-1.76,2.15-3.08,2.12-3.36ZM46.67,74.59c-.51-1.17-.51-2.79-.42-3.88-.4.35-.88.65-1.42.89,0,0-.02.08-.02.08-.44,1.84.48,3.71.93,4.32.07.1.12.15.16.18.11-.09.38-.5.76-1.6ZM50.9,69.72c-.09-.11-.17-.21-.25-.28l-.1-.08c-.3,1.38-1.81,3.79-2.4,3.74-.61-.06-.8-1.39-.67-2.68.03-.39.12-.97.24-1.6-.26.44-.57.9-.93,1.34-.04.06-.09.11-.15.17-.11,1.01-.2,2.82.33,4.07.01,0,.03.02.04.04,0,.01.01.02.02.03.09.19.19.39.31.56.03.05.06.09.1.12.43.46,1.72,1.85,2.06,1.65.22-.25.18-2.73-.31-4.31-.03-.08.01-.18.09-.21.08-.04.17-.01.22.07.15.23.36.56.53.71.72.66,1.71,1.17,2.2,1.15.06,0,.13-.01.17-.05.17-.32-.64-3.26-1.49-4.43ZM54.96,69.61s-.02,0-.03,0c-.77-.1-1.57-.33-2.37-.69-.65-.29-1.46-.79-1.61-1.51-.02-.11-.03-.23,0-.34,0,0-.02,0-.02,0-.14-.05-.27-.1-.4-.15.05.3.08.64.1,1,0,.06-.02.11-.07.15.01,0,.02.02.03.03,0,0,0,0,0,.01.43.68.87,1.32,1.26,1.85.41.55.76.98.98,1.19,1.05.97,2.78,1.94,3.09,1.87.11-.24-.01-1.8-.96-3.4ZM56.33,68.05c-.25-.34-.59-.71-1-1.01-.01,0-.03,0-.04,0-.05-.02-.08-.05-.1-.1-.1-.06-.19-.12-.29-.17-1.23-.63-3.01-.58-3.19-.39-.33.33-.47.66-.41.97.09.45.59.9,1.41,1.26.76.34,1.54.56,2.27.66.03-.02.07-.03.1-.02,1.09.12,1.68-.06,1.74-.16h0c.05-.11-.13-.54-.49-1.03ZM59.09,65.85s0,0,0,0c-.54.27-1.29.47-2.01.52-.46.03-1.24-.15-1.83-.32.12.18.2.35.25.5,1.3.87,2.54,1.52,3.08,1.6.97.15,2.08.03,2.47-.25.04-.03.1-.08.11-.14,0-.04-.04-.1-.1-.19-.26-.35-.98-1.03-1.96-1.73ZM59.46,65.05s-.1-.12-.3-.27c-.02-.01-.03-.02-.04-.04,0,0,0,0-.01-.01,0,0-.02-.01-.03-.02-.98-.67-3.31-1.68-4.24-1.61-1.4.11-3.14.64-3.36.93.56.03,1.18.12,1.71.33.63.25,1.25.74,1.7,1.25.02,0,.05,0,.07,0,.97.29,1.73.44,2.1.41.67-.05,1.38-.24,1.88-.49,0,0,0,0,0,0,.02-.02.04-.04.06-.06.42-.24.46-.38.47-.42,0,0,0,0-.01-.02ZM50.84,64.04c.08,0,.17,0,.26,0,.14-.81,3.22-1.24,3.71-1.28,1.05-.08,3.43.95,4.47,1.66.01,0,.02.02.03.03,1.5-.41,2.64-1.38,2.76-1.63-.2-.22-1.64-.61-3.9-.79-.3-.02-.61-.02-1,.02-.06,0-.12-.02-.15-.07,0,0-.01-.01-.01-.02-.04-.06-.03-.14.01-.19.63-.84.91-1.6.91-1.79-.27-.11-1.74.19-3.84,1.06-1.92.79-3.12,2.55-3.24,3ZM49.5,65.34s0,.03,0,.04v.03c0,.51.57.99,1.55,1.32h0c.09-.2.22-.4.42-.6.38-.39,2.42-.28,3.61.33h0c-.3-.52-1.09-1.4-2.01-1.76-.69-.27-1.58-.33-2.22-.3-.02.01-.05.02-.07.02-.66.05-.89.16-.91.2-.21.26-.32.5-.34.73ZM48.62,66.43c-.02.26-.12.63-.27,1.05-.25,1.08-.46,2.3-.52,2.96-.11,1.2.08,1.97.25,2.21.03.05.07.07.1.08.33-.1,1.95-2.4,2.07-3.7,0,0,0-.01,0-.01v-.02c.02-.23.03-.51.03-.81,0-.06.02-.11.07-.14-.04-.03-.07-.08-.07-.13-.02-.45-.07-.85-.15-1.21-.6-.34-.94-.76-.98-1.24-.05,0-.1,0-.16,0-.03.04-.15.22-.36.95ZM42.26,71.79c.2.07,1.21,0,2.35-.49h0c.79-.34,1.45-.81,1.9-1.37.74-.9,1.22-1.83,1.49-2.55.09-.36.17-.71.26-1.01,0-.09,0-.15,0-.18-.33-.08-2.5.54-3.87,2.23-1.44,1.76-2.15,3.07-2.12,3.36Z"/>
      <path class="cls-5" d="M104.59,53.95c-.51,1.17-.5,2.79-.41,3.88-.4-.35-.88-.65-1.42-.89,0,0-.02-.08-.02-.08-.44-1.84.48-3.72.93-4.33.07-.1.13-.15.17-.18.11.08.38.5.76,1.59ZM110.32,54.39s-.11-.05-.16-.05c-.49-.03-1.47.49-2.2,1.15-.17.15-.38.48-.53.72-.05.08-.14.1-.23.06-.08-.03-.12-.12-.09-.21.49-1.58.52-4.06.3-4.31-.33-.21-1.63,1.19-2.06,1.64-.03.04-.07.08-.1.12-.13.17-.22.36-.3.55,0,.01-.01.02-.02.03-.02.01-.03.03-.04.04-.53,1.26-.44,3.07-.33,4.07.05.06.1.11.14.17.36.44.67.9.93,1.34-.12-.63-.21-1.21-.24-1.6-.13-1.29.07-2.62.67-2.68.59-.05,2.1,2.36,2.41,3.74l.09-.08c.08-.07.17-.17.25-.28.86-1.17,1.67-4.11,1.49-4.43ZM113.86,55.53c-.31-.06-2.04.9-3.09,1.87-.23.21-.58.64-.99,1.19-.39.53-.83,1.17-1.26,1.85,0,0,0,0,0,0,0,.01-.02.03-.04.03.04.03.07.09.07.14-.02.36-.05.69-.1.99.13-.05.26-.1.4-.15,0,0,0,0,.01,0,0-.11,0-.23.01-.34.14-.72.95-1.22,1.61-1.51.8-.36,1.6-.58,2.37-.69,0,0,.02,0,.04,0,.94-1.6,1.07-3.16.96-3.4ZM114.75,59.46h0c-.06-.1-.65-.28-1.74-.16-.04,0-.07,0-.1-.02-.73.09-1.51.32-2.28.66-.81.36-1.31.81-1.4,1.26-.06.31.07.64.4.97.18.18,1.97.23,3.2-.39.1-.05.2-.11.3-.17.02-.05.05-.08.1-.1.01,0,.03,0,.04-.01.41-.3.75-.66,1-1,.36-.49.53-.92.49-1.03ZM118.98,60.96c.06-.08.1-.15.1-.19-.01-.05-.07-.1-.11-.14-.39-.29-1.5-.4-2.47-.25-.54.08-1.78.72-3.08,1.6-.04.15-.13.32-.26.5.6-.17,1.38-.35,1.84-.31.71.05,1.47.25,2,.52,0,0,0,0,0,0,.98-.69,1.7-1.38,1.96-1.73ZM117.39,63.47s-.04-.17-.47-.42c-.02-.02-.05-.03-.06-.06,0,0,0,0-.01,0-.49-.25-1.21-.43-1.87-.49-.37-.03-1.14.12-2.1.41-.02,0-.05,0-.07,0-.45.51-1.08,1-1.71,1.25-.52.21-1.14.3-1.7.33.23.29,1.96.82,3.36.93.93.07,3.26-.93,4.23-1.6,0,0,.02-.01.03-.02,0,0,0,0,0-.02.01-.01.03-.02.04-.04.21-.15.28-.23.31-.27,0,0,.01-.01.01-.01ZM112.01,67.51c2.11.87,3.57,1.17,3.84,1.06,0-.19-.28-.95-.91-1.79-.04-.06-.05-.13-.01-.19,0,0,.01,0,.01-.02.04-.05.09-.08.15-.07.38.03.7.04.99.02,2.26-.18,3.71-.57,3.9-.79-.12-.24-1.25-1.22-2.76-1.62-.01.01-.02.02-.04.03-1.03.71-3.41,1.75-4.46,1.67-.48-.04-3.56-.47-3.71-1.28-.09,0-.17,0-.26,0,.12.46,1.33,2.21,3.24,3.01ZM107.77,63.93s.26.14.91.19c.03,0,.05,0,.07.02.65.03,1.53-.03,2.22-.3.93-.37,1.72-1.25,2.02-1.76h0c-1.18.6-3.22.71-3.6.32-.2-.2-.33-.4-.42-.6h0c-.97.32-1.53.8-1.54,1.32,0,.01,0,.02,0,.03,0,.02.01.03.01.04.02.23.13.47.34.73ZM106.92,63.05c.06.01.11.01.16,0,.03-.48.37-.91.98-1.24.08-.35.13-.76.14-1.2,0-.05.03-.1.07-.13-.04-.03-.07-.08-.07-.14,0-.3,0-.58-.02-.81,0,0,0-.01,0-.02,0,0,0,0,0-.02-.13-1.3-1.74-3.6-2.07-3.7-.03,0-.06.03-.1.08-.18.24-.37,1.02-.25,2.22.06.66.28,1.89.52,2.96.16.42.25.79.27,1.05.21.73.34.91.37.95ZM102.31,60.11c1.38,1.69,3.55,2.31,3.88,2.23,0-.03,0-.08,0-.17-.08-.3-.17-.65-.26-1.01-.27-.71-.76-1.65-1.49-2.55-.45-.56-1.11-1.03-1.9-1.37h0c-1.15-.49-2.15-.55-2.35-.49-.03.29.68,1.6,2.12,3.36ZM109.64,76.18s.09-.09.16-.18c.45-.61,1.38-2.49.93-4.32,0,0-.02-.08-.02-.08-.54-.24-1.02-.54-1.42-.89.09,1.09.1,2.71-.42,3.88.39,1.1.66,1.51.76,1.6ZM103.15,74.15s.11.05.17.05c.49.02,1.47-.49,2.2-1.15.17-.15.38-.48.53-.71.05-.08.14-.1.22-.07.08.04.12.13.09.21-.48,1.58-.52,4.06-.31,4.31.33.21,1.63-1.19,2.06-1.65.03-.04.07-.08.1-.12.13-.17.22-.36.31-.56,0-.01,0-.02.02-.03.01-.01.03-.03.04-.04.53-1.25.44-3.06.33-4.07-.06-.06-.1-.11-.15-.17-.36-.44-.67-.9-.93-1.34.12.63.21,1.21.24,1.6.12,1.28-.07,2.62-.67,2.68-.59.05-2.1-2.36-2.4-3.74l-.1.08c-.08.07-.16.17-.25.28-.86,1.17-1.66,4.11-1.49,4.43ZM99.61,73.01c.31.06,2.04-.9,3.09-1.87.23-.21.58-.64.98-1.19.39-.53.83-1.17,1.26-1.85,0,0,0,0,0-.01.01-.01.02-.02.03-.03-.04-.03-.07-.09-.07-.15.01-.36.04-.69.1-1-.12.05-.26.1-.4.15,0,0-.01,0-.02,0,.02.11.01.23,0,.34-.14.73-.95,1.23-1.61,1.51-.8.36-1.6.59-2.37.69-.01,0-.03,0-.03,0-.95,1.6-1.08,3.16-.96,3.4ZM98.72,69.08h0c.06.1.65.28,1.74.16.03,0,.07,0,.1.02.72-.09,1.51-.32,2.27-.66.82-.36,1.32-.81,1.41-1.26.06-.31-.08-.63-.41-.97-.18-.19-1.97-.24-3.19.39-.1.05-.2.11-.29.17-.02.04-.06.08-.1.1-.01,0-.03,0-.04,0-.41.3-.75.67-1,1.01-.35.49-.54.92-.49,1.03ZM94.49,67.58c-.06.09-.09.15-.1.19.01.05.07.1.11.14.39.29,1.5.4,2.47.25.54-.08,1.77-.72,3.08-1.6.05-.15.14-.32.26-.5-.59.17-1.37.35-1.83.32-.72-.06-1.46-.25-2.01-.52,0,0,0,0,0,0-.98.69-1.7,1.38-1.96,1.73ZM96.07,65.06s.04.18.47.42c.03.01.05.04.07.06,0,0,0,0,0,0,.5.25,1.21.43,1.88.49.37.03,1.13-.12,2.1-.41.02,0,.05,0,.07,0,.45-.51,1.08-1,1.7-1.25.53-.21,1.14-.3,1.71-.33-.23-.29-1.96-.82-3.36-.93-.93-.07-3.26.94-4.24,1.61,0,0-.02.01-.03.02,0,0,0,0-.01.01-.01.01-.02.03-.04.04-.2.15-.28.23-.3.27,0,0,0,.01-.01.02ZM101.46,61.03c-2.1-.87-3.57-1.17-3.84-1.06,0,.19.28.95.91,1.79.04.06.05.13.01.19,0,0,0,.01-.01.02-.03.05-.09.08-.15.07-.39-.04-.7-.04-1-.02-2.25.18-3.7.57-3.9.79.12.24,1.26,1.22,2.76,1.63,0-.01.02-.02.03-.03,1.04-.71,3.42-1.75,4.47-1.66.48.04,3.57.47,3.7,1.28.09,0,.18,0,.26,0-.13-.46-1.32-2.21-3.24-3ZM105.71,64.61s-.26-.14-.91-.2c-.03,0-.05,0-.07-.02-.65-.03-1.53.03-2.22.3-.92.36-1.71,1.25-2.01,1.76h0c1.19-.61,3.22-.71,3.61-.33.19.2.33.4.42.6h0c.97-.33,1.54-.81,1.54-1.32v-.03s0-.03,0-.04c-.01-.23-.13-.47-.34-.73ZM106.56,65.48c-.06,0-.11-.01-.16,0-.04.48-.37.91-.98,1.24-.08.35-.13.76-.15,1.21,0,.05-.03.1-.07.13.04.03.07.08.07.14,0,.3.01.58.03.81v.02s0,0,0,.01c.12,1.3,1.74,3.6,2.07,3.7.03,0,.06-.03.1-.08.18-.24.36-1.01.25-2.21-.06-.66-.28-1.89-.52-2.96-.16-.42-.25-.79-.27-1.05-.21-.73-.33-.91-.36-.95ZM111.16,68.43c-1.37-1.69-3.54-2.32-3.87-2.23,0,.03-.01.08,0,.18.09.3.17.65.26,1.01.28.72.76,1.65,1.49,2.55.46.56,1.12,1.03,1.9,1.37h0c1.14.49,2.15.55,2.35.49.03-.28-.68-1.6-2.12-3.36Z"/>
      <path class="cls-8" d="M77.55,129.46c-17.39,0-28.82,3.75-34.08,5.98,0,0-2.79,1.38-3.42,1.73-.13-.5-4.21-16.18-4.38-16.84,2.63-1.62,16.2-9.16,41.88-9.16s39.25,7.53,41.88,9.16c-.17.66-4.25,16.34-4.38,16.84-.63-.35-3.42-1.73-3.42-1.73-5.26-2.23-16.68-5.98-34.08-5.98ZM119.37,127.09l-3.47,12.89c-2.42-1.89-4.58-1.46-4.68-.2-.13,1.63,1.67,1.55,3.84,3.52,1.45,1.33,2.44,3.14,2.3,4.25l4.98-15.6c-.97-3.44-2.97-4.87-2.97-4.87ZM115.49,147.51c-.3-1.25-.93-2.17-1.72-2.93l-.3.51s.47,1.71,1.36,2.7c.89.99.66-.28.66-.28ZM32.75,131.95l4.98,15.6c-.14-1.1.85-2.92,2.3-4.25,2.16-1.97,3.97-1.89,3.84-3.52-.1-1.25-2.26-1.69-4.68.2l-3.47-12.89s-2.01,1.43-2.97,4.87ZM40.26,147.79c.89-.99,1.36-2.7,1.36-2.7l-.3-.51c-.79.75-1.42,1.68-1.72,2.93,0,0-.23,1.27.66.28ZM144.34,101.55c-6.39-5.11-13.11-1.4-14.44-.56.08.03.16.07.23.12.71.51.76,1.65.12,2.54-.64.89-1.74,1.2-2.45.69-.71-.51-.76-1.65-.12-2.54.43-.59,1.05-.92,1.63-.93-1.04-.7-4.46-2.33-10.97.72,0,0,3.35,1.26,2.5,3.87,0,0-.95,3.82-8.95,9.54,2.27.84,4.13,1.67,5.58,2.38,4.08-2.06,9.2-5.31,14.45-9.37,7.63-5.9,12.42-6.46,12.42-6.46ZM34.26,105.46c-.85-2.61,2.5-3.87,2.5-3.87-6.51-3.05-9.93-1.42-10.97-.72.58.01,1.2.34,1.63.93.64.89.59,2.03-.12,2.54-.71.51-1.81.2-2.45-.69-.64-.89-.59-2.03.12-2.54.07-.05.15-.09.23-.12-1.33-.83-8.05-4.55-14.44.56,0,0,4.8.56,12.42,6.46,5.25,4.06,10.37,7.31,14.45,9.37,1.45-.71,3.31-1.54,5.58-2.38-8-5.72-8.95-9.54-8.95-9.54Z"/>
      <g>
        <path d="M40.68,120.76c.61-.2,1.23-.38,1.86-.54,1.89-.49,2.94-.78,3.14-.84.82-.27,1.6-.55,2.34-.84.73-.3,1.51-.61,2.32-.95.26-.09.43-.02.5.19l1.1,3.61-.63.2c-.51-1.04-1.36-2.25-2.14-2.37-.51-.07-1.36.09-2.56.48l-1.34.44,1.45,4.46,1.09-.35c.62-.2.99-.53,1.11-.98.09-.36-.18-1.5-.4-2.19l.69-.23c.08.26.42,1.32.59,1.92.17.6.27.92.28.97.09.26.24.7.46,1.31.22.61.54,1.57.56,1.62l-.76.25c-.22-.66-.65-1.73-.9-1.96-.34-.3-.82-.36-1.44-.16l-1.09.35,1.11,3.43c.23.71.46,1.11.68,1.2.23.1.8,0,1.71-.3l.18.57c-.35.11-.88.27-1.6.46-.71.19-1.24.35-1.59.46-.35.11-.87.3-1.57.56-.69.26-1.21.45-1.56.56l-.18-.57c.76-.25,1.21-.45,1.35-.6.14-.16.15-.42.03-.78l-2.84-8.75c-.05-.16-.17-.24-.37-.25-.2,0-.65.06-1.36.2l-.2-.61Z"/>
        <path d="M63.52,120.05c-.28-1.02-.95-2.44-1.77-2.97-.77-.5-1.56-.67-2.36-.52-1.36.25-2.28.96-2.76,2.13-.44,1.07-.5,2.48-.18,4.22.24,1.31.73,2.38,1.48,3.21.88.98,1.93,1.36,3.13,1.14.97-.18,1.72-.67,2.24-1.49.43-.69.6-2.25.74-3.37h.51c0,.73.14,1.97.16,2.42.03.46.09.95.19,1.49-.05,0-.93.38-2.65,1.1-.64.27-1.23.46-1.78.56-1.8.33-3.39.05-4.75-.84-1.36-.89-2.21-2.22-2.53-3.99-.32-1.78,0-3.33,1-4.65.99-1.32,2.38-2.14,4.16-2.46.66-.12,1.32-.15,1.98-.08.66.06,1.33.13,2,.21.27-.05.43-.21.46-.47h.51c.03.18.08.48.12.88.05.4.09.71.13.93.04.19.1.49.2.88.1.4.28,1.35.32,1.56l-.58.1Z"/>
        <path d="M82.51,125.84c.72.05,1.19.04,1.4-.04.21-.08.32-.25.34-.52l.66-9.2c.02-.24-.08-.43-.29-.56-.21-.13-.63-.25-1.24-.35l.04-.59c.53.11,1.05.2,1.59.28.53.08,1.02.13,1.46.17.54.04,1.05.06,1.52.06.7-.02,1.21-.04,1.55-.05l-.04.61c-.65.01-1.08.06-1.31.16-.23.09-.35.27-.37.52l-.66,9.17c-.02.27.07.45.25.56.19.11.67.19,1.43.24l-.04.59c-.35-.02-.87-.08-1.57-.16-.7-.08-1.23-.14-1.59-.16-.35-.03-.87-.05-1.58-.06-.7-.02-1.24-.04-1.59-.06l.04-.59Z"/>
        <path d="M91.31,115.21c.64.1,1.27.22,1.9.35,1.91.41,2.97.63,3.19.66.85.13,1.68.23,2.46.3.79.07,1.62.13,2.5.2.27.04.39.17.36.39l-.65,3.72-.65-.1c.02-1.16-.2-2.62-.85-3.08-.42-.29-1.25-.53-2.5-.73l-1.4-.22-.72,4.63,1.13.18c.64.1,1.12-.03,1.43-.38.24-.28.52-1.42.63-2.13l.72.11c-.04.28-.22,1.37-.34,1.98-.12.61-.18.94-.19.99-.04.28-.1.73-.18,1.38-.08.64-.22,1.64-.23,1.7l-.79-.12c.11-.69.2-1.84.07-2.15-.16-.43-.57-.69-1.21-.79l-1.13-.18-.55,3.56c-.11.73-.09,1.19.06,1.38.16.19.71.36,1.66.5l-.09.59c-.37-.06-.91-.16-1.63-.3-.72-.15-1.27-.25-1.63-.31-.36-.06-.91-.13-1.65-.2-.74-.08-1.28-.15-1.65-.2l.09-.59c.79.12,1.28.15,1.48.07.19-.08.32-.3.38-.68l1.41-9.09c.03-.16-.05-.29-.22-.39-.17-.1-.61-.24-1.31-.43l.1-.63Z"/>
        <path d="M102.66,117.06c.49.21.99.42,1.49.6.51.19.97.34,1.39.46.52.15,1.01.27,1.48.37.68.12,1.19.21,1.52.27l-.16.55c-.64-.12-1.07-.16-1.31-.11-.24.05-.4.19-.47.44l-1.7,5.94c-.29,1.03-.29,1.91,0,2.63.29.73.84,1.2,1.64,1.43.89.26,1.71.08,2.43-.54.65-.55,1.12-1.34,1.41-2.37l1.42-4.96c.13-.45.12-.78-.04-1.01-.15-.22-.58-.48-1.29-.77l.19-.65c.31.15.64.3.98.45.34.15.66.26.94.34.35.1.69.18,1.01.23.46.06.81.1,1.04.13l-.19.65c-.67-.11-1.13-.1-1.37.01-.24.12-.43.4-.55.83l-1.19,4.17c-.51,1.79-1.29,3.04-2.32,3.75-1.04.72-2.33.85-3.88.41-1.2-.34-2.07-1.08-2.64-2.22-.57-1.14-.65-2.4-.25-3.8l1.56-5.47c.07-.23.01-.44-.17-.61-.18-.17-.56-.37-1.15-.6l.17-.59Z"/>
        <path d="M80.45,119.29c-.09-1.04-.48-2.54-1.18-3.2-.66-.62-1.39-.93-2.2-.93-1.36,0-2.38.52-3.06,1.57-.62.96-.93,2.31-.93,4.06,0,1.31.29,2.45.88,3.41.67,1.09,1.57,1.63,2.7,1.64.61,0,1.09-.12,1.42-.37.34-.25.5-.58.5-1v-3.21c0-.33-.09-.55-.29-.66-.2-.11-.64-.17-1.32-.17v-.59c.31,0,.77.02,1.38.06.61.04,1.07.05,1.38.05.31,0,.77-.02,1.38-.05.61-.03,1.07-.05,1.38-.05v.59c-.47,0-.78.05-.93.15-.15.1-.22.32-.22.64v3.79c-.43.12-1.07.33-1.92.65-1.36.5-2.43.75-3.2.75-1.88,0-3.4-.56-4.58-1.66-1.18-1.1-1.77-2.54-1.76-4.33,0-1.79.61-3.23,1.8-4.33,1.2-1.1,2.69-1.65,4.48-1.64.66,0,1.31.09,1.94.28.63.18,1.27.37,1.9.57.27,0,.45-.13.53-.38l.51.08c0,.19-.02.49-.04.89-.03.4-.04.71-.04.92,0,.19.01.49.04.89.02.4.03,1.36.03,1.57h-.58Z"/>
      </g>
      <g>
        <g>
          <path class="cls-5" d="M82.06,73.02c.05.04.14.13.24.26.65.89,2.01,3.65,1.36,6.34,0,0-.03.11-.03.11-.79.36-1.49.8-2.08,1.31.12-1.6.15-3.97-.61-5.69.56-1.6.96-2.21,1.12-2.33Z"/>
          <path class="cls-5" d="M72.55,76c.05-.06.16-.08.24-.08.72-.04,2.15.72,3.22,1.68.25.22.56.7.77,1.05.07.11.21.15.33.09.11-.05.18-.18.14-.31-.72-2.32-.76-5.95-.45-6.31.49-.31,2.38,1.74,3.01,2.41.05.06.1.12.15.18.19.24.32.53.45.81.01.02.02.03.02.05.03.02.04.04.06.05.78,1.84.64,4.49.48,5.97-.07.08-.15.16-.21.25-.53.65-.98,1.32-1.36,1.97.18-.92.3-1.78.35-2.34.18-1.89-.1-3.84-.99-3.92-.86-.08-3.07,3.46-3.52,5.48l-.13-.13c-.12-.11-.25-.25-.37-.41-1.26-1.71-2.44-6.02-2.19-6.48Z"/>
          <path class="cls-5" d="M67.37,77.66c.45-.09,2.99,1.32,4.52,2.74.34.31.85.94,1.45,1.75.57.77,1.22,1.72,1.84,2.71,0,0,0,0,0,.01.01.02.03.04.05.05-.06.05-.1.13-.1.21.02.53.07,1.02.15,1.46-.18-.08-.38-.15-.59-.22,0,0,0,0-.02,0,.02-.17.02-.33-.01-.5-.21-1.06-1.39-1.79-2.35-2.22-1.18-.52-2.34-.86-3.48-1-.01,0-.03,0-.05,0-1.38-2.34-1.57-4.63-1.4-4.98Z"/>
          <path class="cls-5" d="M66.06,83.42h0c.09-.14.96-.41,2.55-.23.06,0,.1,0,.15-.03,1.06.13,2.22.47,3.34.97,1.19.53,1.92,1.18,2.05,1.84.08.46-.11.93-.59,1.42-.27.27-2.88.34-4.68-.58-.15-.07-.29-.16-.43-.25-.02-.07-.08-.12-.14-.14-.02,0-.04-.01-.06-.02-.6-.44-1.1-.97-1.46-1.47-.52-.72-.78-1.35-.71-1.51Z"/>
          <path class="cls-5" d="M59.87,85.61c-.09-.12-.14-.22-.15-.28.02-.08.1-.15.16-.2.57-.42,2.2-.59,3.62-.37.79.12,2.6,1.06,4.51,2.34.07.22.2.47.38.73-.87-.24-2.02-.51-2.69-.46-1.05.08-2.15.37-2.94.76,0,0-.01,0-.01,0-1.44-1.01-2.5-2.02-2.87-2.53Z"/>
          <path class="cls-5" d="M62.19,89.3c0-.06.05-.26.69-.61.03-.02.07-.05.09-.08,0,0,0,0,.02,0,.72-.37,1.78-.64,2.74-.71.55-.05,1.68.18,3.07.61.03.01.07.01.1,0,.67.74,1.58,1.46,2.51,1.83.76.3,1.67.44,2.49.48-.33.43-2.87,1.2-4.92,1.37-1.36.11-4.78-1.37-6.2-2.35-.01-.01-.03-.02-.05-.03,0,0-.01-.01-.01-.02-.02-.02-.04-.03-.06-.05-.31-.22-.41-.34-.45-.39-.01,0-.02-.02-.02-.02Z"/>
          <path class="cls-5" d="M70.07,95.2c-3.08,1.27-5.22,1.71-5.62,1.55,0-.28.41-1.39,1.33-2.63.06-.08.07-.19.02-.28,0,0-.02-.02-.02-.03-.05-.07-.14-.11-.23-.1-.56.04-1.02.05-1.45.02-3.31-.26-5.43-.84-5.71-1.16.17-.36,1.83-1.79,4.04-2.38.02.02.03.03.05.04,1.51,1.04,5,2.56,6.53,2.44.7-.06,5.22-.69,5.43-1.87.13,0,.25,0,.38-.01-.18.67-1.94,3.24-4.75,4.4Z"/>
          <path class="cls-5" d="M76.29,89.97c-.05.05-.38.21-1.34.28-.04,0-.07.01-.11.03-.95.05-2.25-.04-3.26-.44-1.36-.53-2.52-1.83-2.96-2.58h0c1.73.89,4.72,1.05,5.28.47.29-.29.49-.58.62-.88h0c1.42.47,2.24,1.18,2.25,1.93,0,.02,0,.04.01.05-.01.02-.02.04-.02.06-.02.33-.19.69-.49,1.07Z"/>
          <path class="cls-5" d="M77.53,88.69c-.08.02-.16.02-.23.01-.05-.7-.55-1.33-1.44-1.82-.12-.51-.19-1.11-.21-1.76,0-.08-.05-.15-.1-.19.06-.05.1-.12.1-.2,0-.44,0-.84.03-1.18,0-.01,0-.02,0-.03,0,0,.01-.01.01-.02.19-1.91,2.55-5.27,3.03-5.42.04.01.09.05.14.11.26.35.54,1.49.37,3.25-.09.97-.41,2.76-.76,4.34-.23.62-.37,1.15-.4,1.54-.31,1.07-.49,1.33-.54,1.39Z"/>
          <path class="cls-5" d="M84.28,84.37c-2.02,2.47-5.19,3.39-5.68,3.27,0-.04-.01-.12,0-.26.12-.45.25-.95.37-1.48.4-1.05,1.12-2.42,2.19-3.73.67-.82,1.63-1.51,2.78-2.01h0c1.68-.72,3.15-.81,3.44-.71.05.42-1,2.35-3.1,4.93Z"/>
        </g>
        <g>
          <path class="cls-5" d="M73.55,107.91c-.06-.04-.14-.13-.24-.27-.66-.9-2.02-3.64-1.36-6.33,0,0,.03-.11.03-.12.79-.35,1.5-.8,2.08-1.3-.13,1.6-.14,3.97.61,5.68-.56,1.61-.96,2.21-1.12,2.34Z"/>
          <path class="cls-5" d="M83.05,104.93c-.06.06-.16.07-.24.08-.71.03-2.16-.72-3.22-1.69-.24-.22-.55-.7-.77-1.04-.07-.11-.21-.15-.33-.1-.12.05-.18.19-.14.31.71,2.31.77,5.95.45,6.32-.49.3-2.39-1.74-3.01-2.41-.05-.06-.1-.12-.14-.18-.18-.24-.32-.53-.46-.81,0-.02-.01-.03-.02-.05-.02-.02-.04-.04-.06-.05-.78-1.84-.65-4.49-.49-5.97.08-.08.15-.16.22-.24.53-.65.98-1.32,1.36-1.97-.17.92-.31,1.78-.35,2.34-.18,1.88.1,3.84.99,3.92.86.08,3.08-3.46,3.52-5.48l.15.12c.11.11.23.25.36.41,1.26,1.72,2.44,6.02,2.19,6.49Z"/>
          <path class="cls-5" d="M88.23,103.27c-.45.09-2.99-1.32-4.53-2.74-.33-.31-.85-.94-1.44-1.74-.57-.78-1.22-1.72-1.84-2.71,0,0,0-.01,0-.02-.02-.02-.03-.03-.05-.05.06-.05.1-.13.1-.21-.02-.52-.06-1.01-.14-1.46.18.08.37.15.58.22,0,0,.02,0,.03,0-.03.17-.01.33.01.5.21,1.07,1.39,1.8,2.35,2.22,1.18.53,2.35.86,3.47,1.01.02,0,.04,0,.05,0,1.39,2.34,1.58,4.63,1.41,4.98Z"/>
          <path class="cls-5" d="M89.54,97.51h0c-.09.15-.95.42-2.55.24-.05,0-.11,0-.15.03-1.06-.14-2.21-.47-3.32-.96-1.2-.53-1.93-1.19-2.06-1.85-.09-.45.12-.93.6-1.42.27-.27,2.88-.35,4.67.57.15.07.29.16.43.25.03.06.08.12.15.14.02,0,.04.01.06.01.6.44,1.1.98,1.47,1.47.52.71.79,1.35.71,1.5Z"/>
          <path class="cls-5" d="M95.74,95.32c.09.13.14.22.15.28-.02.08-.1.15-.16.2-.57.42-2.19.59-3.61.37-.79-.12-2.6-1.06-4.5-2.34-.08-.22-.2-.47-.38-.73.86.25,2.01.51,2.68.46,1.05-.08,2.15-.37,2.94-.77,0,0,0,0,.01,0,1.43,1.01,2.49,2.02,2.87,2.53Z"/>
          <path class="cls-5" d="M93.42,91.63c-.01.06-.06.26-.69.61-.04.02-.07.05-.1.08,0,0-.01,0-.01,0-.73.37-1.78.64-2.76.71-.55.04-1.66-.18-3.07-.61-.03-.01-.07-.01-.1,0-.66-.74-1.58-1.46-2.5-1.83-.77-.3-1.68-.44-2.5-.48.33-.43,2.87-1.2,4.93-1.37,1.36-.1,4.77,1.37,6.21,2.35.01.01.03.02.04.03.01,0,.01.01.02.02.02.02.03.04.06.06.29.22.41.34.44.39,0,.01,0,.02.02.02Z"/>
          <path class="cls-5" d="M85.53,85.72c3.08-1.28,5.24-1.72,5.63-1.55,0,.28-.41,1.39-1.33,2.62-.06.08-.07.19-.02.28,0,0,0,.02.02.02.05.07.14.12.22.11.57-.05,1.02-.06,1.46-.02,3.3.26,5.42.83,5.71,1.16-.17.36-1.84,1.79-4.05,2.38,0-.02-.02-.03-.04-.04-1.52-1.04-5.01-2.56-6.54-2.44-.71.06-5.22.69-5.43,1.87-.13,0-.26,0-.38,0,.18-.67,1.94-3.24,4.75-4.4Z"/>
          <path class="cls-5" d="M79.31,90.96c.04-.06.37-.21,1.34-.29.04,0,.07-.02.11-.03.95-.05,2.24.04,3.26.44,1.35.53,2.51,1.82,2.95,2.58h0c-1.73-.89-4.72-1.04-5.28-.48-.28.3-.49.59-.61.88h0c-1.42-.48-2.25-1.18-2.26-1.93v-.05s0-.04.01-.06c.02-.33.19-.69.49-1.06Z"/>
          <path class="cls-5" d="M78.06,92.24c.09-.01.16-.02.23-.01.05.7.55,1.33,1.43,1.82.12.52.19,1.11.22,1.77,0,.08.04.15.1.19-.06.05-.1.12-.1.2,0,.44-.02.85-.04,1.19v.03s0,.01,0,.02c-.18,1.91-2.55,5.27-3.04,5.42-.04-.01-.09-.05-.14-.11-.26-.36-.53-1.48-.37-3.24.09-.97.41-2.77.77-4.34.23-.62.37-1.16.4-1.54.31-1.07.49-1.33.53-1.39Z"/>
          <path class="cls-5" d="M71.32,96.56c2.01-2.48,5.19-3.39,5.67-3.27.01.04.02.12.01.26-.13.44-.25.95-.38,1.48-.41,1.05-1.11,2.42-2.19,3.73-.67.81-1.63,1.51-2.79,2.01h0c-1.67.72-3.15.81-3.44.71-.04-.42,1-2.35,3.11-4.92Z"/>
        </g>
      </g>
      <path class="cls-6" d="M94.98,49.56c0,9.59-7.77,17.36-17.36,17.36s-17.36-7.77-17.36-17.36,7.77-17.36,17.36-17.36,17.36,7.77,17.36,17.36Z"/>
      <path class="cls-3" d="M91.32,41.57l-2.08,1.6c-.18-.4-.33-.68-.42-.85,0-.11.02-.22.02-.32,0-1.76-1-3.77-2.03-5.36,1.83,1.31,3.37,2.99,4.5,4.93ZM71.56,34.88c1.87-.77,3.92-1.21,6.06-1.21s4.19.43,6.06,1.21c.54.62,1.38,1.71,2.13,2.93-.33-.1-.71-.2-1.14-.31v-.79c0-.15-.12-.27-.27-.27s-.27.12-.27.27v.67c-.26-.06-.54-.11-.83-.17v-.91c0-.15-.12-.27-.27-.27s-.27.12-.27.27v.82c-.27-.04-.55-.08-.83-.12v-.94c0-.15-.12-.26-.27-.26s-.27.12-.27.26v.87c-.27-.03-.55-.05-.83-.08v-1.02c0-.15-.12-.27-.27-.27s-.27.12-.27.27v.98c-.27-.02-.55-.04-.83-.05v-1.07c0-.15-.12-.27-.27-.27s-.27.12-.27.27v1.05c-.27,0-.54-.01-.83-.02v-1.12c0-.15-.12-.27-.27-.27s-.27.12-.27.27v1.12c-.29,0-.58,0-.86.02v-1.05c0-.15-.12-.27-.27-.27s-.27.12-.27.27v1.08c-.28.01-.56.03-.83.05v-.99c0-.15-.12-.27-.27-.27s-.27.12-.27.27v1.03c-.28.03-.57.05-.83.08v-.88c0-.15-.12-.26-.27-.26s-.27.12-.27.26v.95c-.29.04-.57.08-.83.12v-.84c0-.15-.12-.27-.27-.27s-.27.12-.27.27v.93c-.3.05-.57.11-.83.17v-.69c0-.15-.12-.27-.27-.27s-.27.12-.27.27v.82c-.38.09-.74.19-1.04.28.75-1.23,1.6-2.32,2.14-2.93ZM68.48,39.75s.67-.34,1.98-.69v.94c0,.15.12.27.27.27s.27-.12.27-.27v-1.08c.26-.06.53-.12.83-.18v.85c0,.15.12.27.27.27s.27-.12.27-.27v-.95c.26-.05.54-.09.83-.13v.85c0,.15.12.27.27.27s.27-.12.27-.27v-.92c.27-.03.55-.06.83-.09v.78c0,.15.12.27.27.27s.27-.12.27-.27v-.82c.27-.02.55-.04.83-.05v.73c0,.15.12.27.27.27s.27-.12.27-.27v-.76c.28,0,.57-.01.86-.01v.69c0,.15.12.27.27.27s.27-.12.27-.27v-.69c.28,0,.56,0,.83.02v.76c0,.15.12.27.27.27s.27-.12.27-.27v-.74c.29.01.56.03.83.05v.83c0,.15.12.27.27.27s.27-.12.27-.27v-.78c.29.03.56.06.83.09v.93c0,.15.12.27.27.27s.27-.12.27-.27v-.86c.29.04.57.08.83.13v.97c0,.15.12.27.27.27s.27-.12.27-.27v-.88c.3.06.58.12.83.18v1.1c0,.15.12.27.27.27s.27-.12.27-.27v-.97c1.37.36,2.07.71,2.08.71l.04-.07c.35.81.57,1.61.57,2.31-1.16.45-4.79,1.7-9.75,1.7s-8.59-1.25-9.75-1.7c0-.7.22-1.49.57-2.31l.04.07ZM68.42,36.64c-1.02,1.59-2.02,3.6-2.02,5.36,0,.11.01.21.02.32-.1.17-.24.46-.42.85l-2.08-1.6c1.14-1.94,2.67-3.63,4.5-4.93ZM61.8,50.9l2.16,1.57c-.05.79-.08,1.62-.08,2.5s.03,1.74.08,2.67c-1.19-2.01-1.96-4.29-2.16-6.74ZM64.11,50.75l-2.35-1.71c.07-2.19.58-4.27,1.46-6.15l2.21,1.7c-.49,1.42-1.03,3.47-1.32,6.15ZM72.45,64.56c-2.66-.92-4.99-2.52-6.8-4.59-1.03-9.4,1.07-14.88,1.86-16.54.87.33,2.59.9,4.94,1.3v19.83ZM81.31,64.99c-1.19.29-2.42.45-3.69.45s-2.51-.17-3.69-.45v-20.05c1.13.14,2.36.22,3.69.22s2.57-.09,3.69-.22v20.05ZM89.59,59.97c-1.81,2.07-4.14,3.67-6.8,4.59v-19.83c2.35-.4,4.06-.97,4.94-1.3.79,1.66,2.89,7.14,1.86,16.54ZM89.8,44.6l2.22-1.7c.87,1.88,1.39,3.96,1.46,6.15l-2.35,1.71c-.29-2.69-.83-4.73-1.32-6.15ZM91.27,57.64c.06-.93.08-1.82.08-2.67s-.03-1.71-.08-2.5l2.16-1.57c-.21,2.45-.97,4.73-2.16,6.74Z"/>
    </g>
  </g>
</svg>