<?xml version="1.0" encoding="UTF-8"?>
<svg id="_レイヤー_2" data-name="レイヤー 2" xmlns="http://www.w3.org/2000/svg" xmlns:xlink="http://www.w3.org/1999/xlink" viewBox="0 0 426.45 444.61">
  <defs>
    <style>
      .cls-1 {
        fill: none;
      }

      .cls-2 {
        fill: #00aceb;
      }

      .cls-3 {
        fill: #221815;
      }

      .cls-4 {
        fill: #00802b;
      }

      .cls-5 {
        fill: #ffe100;
      }

      .cls-6 {
        fill: #00a73c;
      }

      .cls-7 {
        fill: #231815;
      }

      .cls-8 {
        fill: #fff;
      }

      .cls-9 {
        fill: #f39800;
      }

      .cls-10 {
        fill: #00671e;
      }

      .cls-11 {
        clip-path: url(#clippath);
      }
    </style>
    <clipPath id="clippath">
      <path class="cls-1" d="M390.94,219.63c.07-12.49-5.34-22.53-15.6-29.03-.69-.44-1.39-.87-2.1-1.27-.77-.43-1.55-.85-2.34-1.22-11.64-5.67-23.69-4.48-34.15-2.53-5.83,1.33-9.45,2.5-11.74,3.46-1.46-1.46-3.03-2.84-4.74-4.07-.97-.67-6.37-4.22-14.15-5.76-.48-2.23-.98-3.97-1.26-4.88-.01-.05-.23-.79-.25-.84-1.29-3.88-4.26-11.63-9.68-19.89-6.8-10.34-15.02-17.72-24.49-21.96-15.15-6.65-29.01-3.93-42.64,8.55-6.19,6.4-11.53,14.18-15.87,23.1-.54,1.12-4.52,10.56-4.96,11.86-1.56,4.27-6.56,19.27-5.14,33.03.89,10.47,5.87,20.97,13,27.42.12.11.54.44.67.53,7.94,6.03,16.67,9.07,25.99,9.07,1.13,0,2.27-.05,3.42-.13,12.05-.93,21.23-4.61,21.51-4.72,1.18-.45,2.22-.93,3.33-1.4,3.32,4.59,7.6,8.48,12.65,11.05,6.29,3.17,11.23,4.29,15.81,4.29.67,0,1.31-.14,1.97-.18.25.54.51,1.09.92,1.73,9.83,18.52,24.19,24.87,33.25,24.47.58.03,1.17.05,1.76.05,15.78,0,33.72-11.18,44.46-28.18l.53-.88c3.53-5.77,8.87-14.5,9.85-31.66Z"/>
    </clipPath>
  </defs>
  <g id="_レイヤー_1-2" data-name="レイヤー 1">
    <g>
      <path class="cls-6" d="M426.45,227.1c0,117.76-84.41,196.43-213.22,196.43S0,344.86,0,227.1,95.46,13.88,213.22,13.88s213.22,95.46,213.22,213.22Z"/>
      <g>
        <g>
          <g>
            <path class="cls-3" d="M419.52,295.66c-1.3-.72-2.84-1.24-3.8-1.44-6.81-1.4-13.64-2.18-20.31-2.33-3.7-.09-7.16,0-10.49.16-1.79-20.11-8.09-39.31-19.27-58.27,1.62-9.72,2.12-22.36,2.53-32.66l.21-5.17c.84-18.75-5.88-43.26-14.38-52.46-2.12-2.29-5.31-4.04-8.12-4.45-21.54-3.21-49.87,5.35-81.73,24.67l-4-.59c-26.18-3.9-58.77-8.75-103.06,1.53-1.4.32-2.95.78-4.54,1.26-2.37.71-6.76,1.98-7.92,1.68-8.49-4.64-30.28-15.71-49.14-18.49-17.53-2.61-29.09.83-34.52,10.31-15.37,28.86-7.65,69.07-4.44,79.47-16,31.01-15.7,63.87-15.6,67.47-.01.84.03,1.72.04,2.58-.84.06-1.6.09-2.48.16-8.93.71-17.8,1.58-28.07,4.44-3.34.92-6.41,3.14-5.81,5.59.47,1.92,2.84,2.35,4.83,2.35,1.54,0,2.85-.25,2.89-.26,10.63-2.16,16.02-2.75,23.47-3.55l3.14-.34c.81-.09,1.61-.13,2.42-.2.81,9.68,2.85,19.99,6.48,30.18-4.44,1.67-9.56,3.89-15.71,7.07-.04.02-3.98,2.08-4.74,4.62-.23.78-.15,1.56.23,2.24.62,1.11,1.92,1.46,3.31,1.46,2.3,0,4.82-.95,4.86-.96,1.84-.81,3.57-1.58,5.21-2.31,3.72-1.66,6.96-3.05,10-4.23,3.93,8.9,9.09,17.53,15.73,25.34-6.84,3.95-15.09,9.33-24.43,16.6-1.94,1.52-3.19,3.45-3.41,5.32-.12,1.04.11,1.99.65,2.67.41.51,1.18.73,2.1.73,1.62,0,3.71-.68,5.14-1.7,10.26-7.27,19.16-12.89,26.15-17.04,7.51,7.31,16.5,13.67,27.22,18.49,35.27,15.84,67.77,19.4,108.95,20l4.04-.06,4.36.06c47.38-.69,84.81-7.46,111.26-20.11,15.35-7.34,27.56-17.24,36.7-29.54,7.64,2.61,16.9,6.62,25.83,12.66,1.14.79,3.45,2.16,5.5,2.16.92,0,1.79-.27,2.47-1.01.29-.3.61-.85.53-1.73-.17-1.86-2.23-4.46-3.56-5.43-9.12-6.66-18.28-10.95-26.01-13.74,5.25-8.67,9.17-18.37,11.72-29.12,5.64.9,12.22,2.35,19.44,4.77.04,0,2.17.71,4.26.71,1.57,0,3.11-.39,3.7-1.78.27-.63.26-1.33-.03-2.02-1.04-2.48-5.38-4.32-5.43-4.33-7.12-2.82-14.12-4.47-20.3-5.49,1.35-8.14,2-16.8,1.93-26,.02-1.57-.07-3.12-.1-4.67,2.94-.16,5.97-.26,9.16-.22,4.96.05,10.48.42,15.35.74,1.52.1,2.99.19,4.4.28,3.19.18,7.1-.41,7.57-2.73.17-.81-.11-2.03-2.36-3.29Z"/>
            <path class="cls-8" d="M354.53,233.79c1.76-9.13,2.29-22.42,2.71-33.11l.22-5.23c.76-16.97-5.67-38.25-11.49-44.55-.51-.56-1.4-.99-1.72-1.06-18.78-2.76-45.27,5.51-74.57,23.31-2.08,1.26-3.22,1.95-5.23,1.65l-5.91-.87c-25.25-3.76-56.69-8.45-98.98,1.36-1.2.27-2.52.68-3.88,1.08-5.38,1.6-11.46,3.43-16.3.79-7.98-4.35-28.38-14.75-45.5-17.28-12.6-1.85-20.45-.25-23.34,4.78-10.47,19.65-8.42,46.45-5.73,61.45.72-.85,1.42-1.62,2.07-2.27,2.63-2.63,5.32-3.6,7.16-2.33,1.91,1.32,1.15,4.66-.08,7.33-1.22,2.65-3.69,7.76-5.63,11.18,0,0,0,.01,0,.02-16.85,29.6-16.54,62.53-16.45,66.2,0,.74.03,1.51.04,2.26,9.31.02,14.99,1,17.89,1.74l.21.05c.06.01,7.62,1.41,7.18,5.05-.39,3.23-4.98,2.99-7.2,2.87l-.82-.06c-2.44-.37-8.96-1.24-16.86-1.4.79,8.79,2.71,18.09,6.01,27.25,4.52-1.04,7.71-1.28,9.83-1.4l.29-.02c2.79-.15,9.39-.25,9.73,3.07.3,2.87-4.87,4.24-7.11,4.7-1.04.21-2.16.36-3.41.53-1.75.24-3.74.52-6.09,1.02,3.77,8.24,8.76,16.15,15.14,23.24,6.63-3.22,10.45-4.4,10.53-4.42.06-.03,6.57-1.68,7.84,1.28,1.09,2.56-1.67,3.92-4.33,5.24-.85.42-1.74.86-2.55,1.35,0,0-.09.05-.26.13-1.03.51-2.75,1.4-5.02,2.62,6.17,5.56,13.32,10.43,21.71,14.2,33.54,15.07,64.84,18.46,104.45,19.04l4.04-.06,4.36.06c44.98-.67,81.88-7.25,106.54-19.04,12.36-5.91,22.38-13.54,30.16-22.9-3.71-.86-5.97-1.18-6.04-1.19-1.42-.14-5.85-1.17-7.34-3.19-.44-.61-.61-1.28-.47-1.94.75-3.62,7.32-2.9,10.09-2.43.35.03,3.75.38,9.03,1.65,5.2-7.94,9.03-16.98,11.53-27.1-2.33-.14-4.2-.17-5.48-.17-2.44.01-5.28-.05-5.28-.05-.74-.07-6.59-.76-6.82-3.68-.03-.39.05-1,.6-1.64,1.31-1.53,4.62-2.39,6.03-2.5l.31-.03c.84-.08,3.07-.3,5.31-.32h.61c1.62,0,3.81.05,6.42.22,1.29-7.68,1.93-15.9,1.86-24.74.01-1.24-.07-2.46-.09-3.69-6.85.85-12.47,1.97-16.3,2.74-1.96.39-3.38.68-4.24.78-1.38.2-2.56.3-3.55.3-2.31,0-3.58-.56-4-1.72-.29-.84-.23-1.74.18-2.59.74-1.52,2.53-2.81,5.19-3.72,2.09-.71,10.2-3.2,22.24-4.68-1.72-19.09-7.86-37.28-18.78-55.31-.7-1.15-.95-2.54-.69-3.87Z"/>
          </g>
          <g>
            <path class="cls-3" d="M115.31,315.47c-3.5,7.1-3.52,18.45,1.21,24.48,2.92,3.45,7.8,5.41,14.09,4.33,5.43-.94,8.52-5.9,9.55-9.85,2.23-8.84-.15-19.68-5.23-23.79-5.36-3.91-15.39-3.82-19.61,4.83Z"/>
            <path class="cls-3" d="M285.41,316.51c-3.5,7.1-3.52,18.45,1.21,24.48,2.92,3.45,7.8,5.41,14.09,4.33,5.43-.94,8.52-5.9,9.55-9.85,2.23-8.84-.14-19.68-5.23-23.79-5.36-3.91-15.39-3.82-19.61,4.83Z"/>
            <g>
              <path class="cls-3" d="M230.45,347.22c-1.17-4.16-4.32-7.43-8.44-8.76-7.86-2.55-15.82-1.48-20.77,2.79-5.16,4.56-5.41,12.65-2.18,16.84,2.99,3.88,7.72,5.9,14.48,6.2.31.01.63.02.94.02,5.41,0,10.44-1.98,13.31-5.27v-.02c2.83-3.28,3.82-7.69,2.67-11.81Z"/>
              <path class="cls-5" d="M219.91,344.96c-2.1-.68-4.24-1.01-6.25-1.01-3.19,0-6.05.84-7.91,2.45-2.45,2.17-2.29,6.18-1.26,7.52,1.68,2.18,4.74,3.34,9.35,3.54,4.27.17,7.46-1.38,8.79-2.9,1.34-1.56,1.79-3.55,1.24-5.49-.54-1.94-2.02-3.48-3.96-4.11Z"/>
            </g>
          </g>
        </g>
        <g>
          <g>
            <path class="cls-3" d="M174.31,405.3c-1.48-4.63-4.48-8.3-7.74-11.99-11.57-11.1-31.76-15.56-47.81-10.64-11.58,3.03-24.94,13.2-26.89,28.3-1.79,11.76,2.42,22.06,11.65,27.76,9.31,4.78,19.42,4.67,29.7-.17.87-.33,1.3-.24,3.57.72,1.42.61,3.17,1.34,5.28,1.7,3.57,1.03,6.76,1.46,9.57,1.46,7.46,0,12.38-3.02,15.44-6.04,7.97-7.84,10.94-20.61,7.23-31.1Z"/>
            <path class="cls-8" d="M163.98,408.89c-.03-.07-.05-.13-.07-.2-.84-2.65-3.05-5.31-5.25-7.82-8.41-8.05-24.41-11.47-36.92-7.67-8.41,2.21-17.79,9.67-19.04,19.29-.55,3.62-1.01,12.25,6.19,16.72,5.93,3.02,12.4,2.87,20-.7,1.9-.75,3.63-1.02,5.18-1.02,2.92,0,5.24.98,6.98,1.72,1.12.47,2.08.88,2.97,1.01.27.04.53.09.78.17,6.51,1.94,11.44,1.34,14.59-1.78,4.91-4.82,6.87-13.3,4.58-19.71Z"/>
          </g>
          <g>
            <path class="cls-3" d="M338.19,413.26c-1.98-15.21-15.33-25.39-26.69-28.34-16.27-4.97-36.47-.53-48.34,10.91-2.82,3.2-5.95,7-7.44,11.65-3.71,10.49-.74,23.27,7.22,31.1,3.07,3.03,8,6.05,15.45,6.05,2.81,0,5.99-.43,9.57-1.46,2.11-.36,3.86-1.1,5.28-1.7,2.29-.98,2.71-1.06,3.23-.88,10.61,5,20.73,5.1,30.44.1,8.83-5.48,13.04-15.78,11.27-27.43Z"/>
            <path class="cls-8" d="M327.35,414.79c-1.27-9.74-10.64-17.21-18.84-19.34-3.53-1.08-7.32-1.6-11.13-1.6-9.92,0-20.02,3.48-26.32,9.53-1.88,2.17-4.1,4.83-4.94,7.48-.02.07-.04.13-.07.2-2.29,6.41-.33,14.89,4.56,19.7,3.17,3.11,8.06,3.72,14.6,1.78.25-.07.51-.13.78-.17.89-.13,1.85-.53,2.97-1.01,2.67-1.14,6.69-2.83,11.82-.85,7.93,3.73,14.41,3.88,20.73.63,6.81-4.24,6.35-12.88,5.82-16.38Z"/>
          </g>
        </g>
        <g>
          <g class="cls-11">
            <rect class="cls-2" x="239.53" y="118.29" width="112.63" height="182.75" transform="translate(-19.21 389.19) rotate(-65)"/>
            <rect class="cls-6" x="201.03" y="142.82" width="112.63" height="97.78" transform="translate(-25.17 343.92) rotate(-65)"/>
            <rect class="cls-9" x="291.22" y="172.85" width="13.7" height="94.18" transform="translate(120.88 -105.37) rotate(25)"/>
          </g>
          <path class="cls-3" d="M390.94,219.63c.07-12.49-5.34-22.53-15.6-29.03-.69-.44-1.39-.87-2.1-1.27-.77-.43-1.55-.85-2.34-1.22-11.64-5.67-23.69-4.48-34.15-2.53-5.83,1.33-9.45,2.5-11.74,3.46-1.46-1.46-3.03-2.84-4.74-4.07-.97-.67-6.37-4.22-14.15-5.76-.48-2.23-.98-3.97-1.26-4.88-.01-.05-.23-.79-.25-.84-1.29-3.88-4.26-11.63-9.68-19.89-6.8-10.34-15.02-17.72-24.49-21.96-15.15-6.65-29.01-3.93-42.64,8.55-6.19,6.4-11.53,14.18-15.87,23.1-.54,1.12-4.52,10.56-4.96,11.86-1.56,4.27-6.56,19.27-5.14,33.03.89,10.47,5.87,20.97,13,27.42.12.11.54.44.67.53,7.94,6.03,16.67,9.07,25.99,9.07,1.13,0,2.27-.05,3.42-.13,12.05-.93,21.23-4.61,21.51-4.72,1.18-.45,2.22-.93,3.33-1.4,3.32,4.59,7.6,8.48,12.65,11.05,6.29,3.17,11.23,4.29,15.81,4.29.67,0,1.31-.14,1.97-.18.25.54.51,1.09.92,1.73,9.83,18.52,24.19,24.87,33.25,24.47.58.03,1.17.05,1.76.05,15.78,0,33.72-11.18,44.46-28.18l.53-.88c3.53-5.77,8.87-14.5,9.85-31.66ZM262.41,230.15c-.08.03-8.08,3.2-18.37,4-11.87.91-19.45-4.85-21.88-6.66-5-4.53-8.79-12.66-9.45-20.34-1.18-11.51,3.16-24.52,4.61-28.48.39-1.06,3.95-9.57,4.44-10.59,3.84-7.89,8.52-14.72,13.66-20.06,10.24-9.37,19.41-11.29,30.57-6.38,7.49,3.35,14.15,9.4,19.77,17.96,4.92,7.49,7.54,14.61,8.32,16.9l.28.99c.1.33.23.76.37,1.26-3.12.38-6.39,1.21-9.76,2.67-.86.37-1.62.86-2.44,1.29-1.82-1.99-4.05-3.77-6.3-5.03-6.73-3.79-14.11-3.84-20.25-.13-6.59,4-10.46,11.71-9.86,19.44.23,6.03,2.69,11.16,7.12,14.82,2.87,2.37,6.27,3.78,9.4,4.6,0,.53-.07,1.05-.05,1.58.03,3.82.78,7.6,2.04,11.21-.76.31-1.43.63-2.24.94ZM264.12,205.47c-1.43-.51-2.96-1.24-4.22-2.39-1.79-1.63-2.71-3.75-2.82-6.7-.29-3.87,1.51-7.58,4.61-9.47,2.17-1.32,4.47-1.53,7.04-.66,2.02.68,3.67,1.86,4.9,2.98-4.48,4.46-7.75,9.99-9.5,16.23ZM306.89,241.85c-7.63,2.01-11.53,2.43-19.54-1.62-8.18-4.17-13.72-13.13-13.78-22.46-.43-11.82,5.62-21.89,15.78-26.29,3.44-1.49,6.75-2.05,9.77-2.05,8.05,0,14.03,3.93,14.85,4.49,9.03,6.49,13.34,17.88,10.69,28.51-2.49,11.49-10.8,17.57-17.75,19.43ZM371.63,245.79l-.6,1.01c-8.69,13.74-23.71,23.26-36.56,22.57-6.52.09-15.93-5.15-23.02-17.53,4.14-1.36,8.46-3.71,12.35-7.14,1.96,1.41,4.3,2.61,7,3.2,1.02.22,2.2.38,3.49.38,3.21,0,7.18-.98,11.47-4.38,4.8-4.81,6.43-10.35,4.84-17.49-2.82-8.54-9.53-11.12-14.31-12.03-.27-5.63-1.81-11.14-4.48-16.14,2.05-.65,4.64-1.36,7.15-1.93,8.49-1.57,18.35-2.62,27.19,1.67.59.28,1.14.58,1.7.89.53.3,1.04.61,1.59.96,7.15,4.53,10.61,10.99,10.57,19.46-.82,14.14-4.94,20.88-8.38,26.5ZM335.17,225.36c2.53.61,4.13,1.69,4.89,3.93.65,2.96.13,4.69-1.56,6.43-1.71,1.35-3.44,1.83-5.18,1.51-.94-.17-1.76-.57-2.49-1,1.88-3.16,3.39-6.77,4.33-10.89Z"/>
        </g>
      </g>
    </g>
    <g>
      <g>
        <path class="cls-4" d="M139.46,85c-3.12-4.11-6.49-9.22-7.87-15.92-.8-3.9-1.78-15.85-1.78-21.67,0-8.83,1.05-14.68,3.4-19,.75-1.37,2.49-4.94,3.44-6.99.36-.78.41-1.59.18-2.7-.72-3.42-2.16-6.66-4.54-10.18-.8-1.18-2.1-1.67-3.49-1.32-6.93,1.77-11.35,2.37-17.52,2.37-6.5,0-17.36-2.6-24.72-5.02-2.1-.69-5.51-2.68-7.15-3.62l-.27-.16c-1.03-.6-1.51-.78-2.5-.78s-1.47.18-2.5.78l-.28.16c-1.64.95-5.05,2.93-7.15,3.62-7.35,2.41-18.22,5.02-24.72,5.02-6.16,0-10.59-.6-17.51-2.37-1.38-.35-2.69.14-3.48,1.32-2.39,3.53-3.83,6.76-4.54,10.18-.23,1.12-.18,1.92.18,2.7.95,2.04,2.69,5.62,3.44,6.99,2.35,4.32,3.4,10.18,3.4,19,0,5.82-.98,17.76-1.78,21.67-1.37,6.7-4.75,11.81-7.87,15.92-.85,1.12-.73,2.02-.6,2.97,1.09,7.85,3.81,15.38,7.86,21.75,4.5,7.09,10.36,12.4,17.39,15.8,2.89,1.4,30.47,14.33,33.24,15.27,1.03.35,3.4.84,4.91.84s3.88-.49,4.92-.84c2.76-.94,30.35-13.87,33.24-15.27,7.04-3.39,12.89-8.71,17.39-15.8,4.05-6.37,6.77-13.9,7.86-21.75.13-.95.26-1.85-.59-2.97Z"/>
        <path class="cls-9" d="M130.71,69.26c-.87-4.24-1.8-16.45-1.8-21.85,0-8.98,1.08-14.97,3.52-19.43.74-1.36,2.48-4.91,3.41-6.94.28-.6.31-1.22.12-2.14-.69-3.3-2.1-6.44-4.41-9.86-.28-.41-1.08-1.32-2.52-.95-7.01,1.79-11.49,2.39-17.74,2.39-6.63,0-17.33-2.54-25-5.07-2.19-.72-5.65-2.73-7.32-3.7l-.27-.16c-.97-.56-1.28-.66-2.05-.66s-1.08.09-2.05.66l-.27.16c-1.67.96-5.13,2.97-7.33,3.69-7.66,2.52-18.36,5.07-25,5.07-6.25,0-10.72-.61-17.74-2.39-1.44-.37-2.24.54-2.52.95-2.31,3.42-3.72,6.56-4.41,9.86-.19.92-.16,1.54.12,2.14.94,2.03,2.67,5.58,3.41,6.94,2.43,4.46,3.51,10.45,3.51,19.43,0,5.39-.93,17.61-1.8,21.85-1.41,6.88-4.85,12.1-8.03,16.29-.6.78-.55,1.36-.42,2.3,1.07,7.73,3.74,15.14,7.73,21.39,4.41,6.94,10.14,12.15,17.02,15.47,2.88,1.39,30.4,14.3,33.13,15.23.95.33,3.23.8,4.63.8s3.68-.47,4.63-.8c2.73-.93,30.24-13.84,33.14-15.23,6.88-3.32,12.61-8.53,17.02-15.47,3.98-6.26,6.65-13.66,7.73-21.39.14-.94.18-1.52-.42-2.3-3.18-4.19-6.63-9.41-8.03-16.29Z"/>
        <path class="cls-4" d="M134.61,87.77c-1.03,6.92-3.45,13.51-6.98,19.06-3.96,6.23-9.07,10.88-15.18,13.83-3.81,1.84-30.03,14.1-32.63,15.02-.61.21-2.37.56-3.18.56s-2.55-.35-3.17-.55c-2.6-.93-28.82-13.19-32.63-15.03-6.12-2.95-11.23-7.6-15.19-13.83-3.53-5.55-5.94-12.14-6.98-19.06-.02-.12,0-.24.08-.33,2.79-3.76,6.67-9.65,8.23-17.28.94-4.58,1.89-17.1,1.89-22.75,0-9.78-1.26-16.43-4.07-21.59-.62-1.13-2.04-4.03-2.97-6.01-.04-.09-.05-.19-.03-.3.48-2.11,1.36-4.2,2.68-6.41.1-.16.3-.25.49-.2,6.32,1.52,10.93,2.08,17.01,2.08,7.13,0,18.4-2.66,26.4-5.29,2.3-.76,5.21-2.36,8.01-3.99.15-.08.31-.08.46,0,2.8,1.62,5.72,3.23,8.01,3.99,8.01,2.63,19.28,5.29,26.41,5.29,6.08,0,10.69-.56,17.02-2.08.19-.05.39.04.49.2,1.32,2.2,2.2,4.3,2.68,6.41.02.1,0,.2-.04.3-.93,1.99-2.35,4.88-2.97,6.01-2.81,5.16-4.07,11.81-4.07,21.59,0,5.65.95,18.17,1.89,22.75,1.56,7.63,5.44,13.51,8.23,17.28.07.09.1.21.08.33Z"/>
        <g>
          <path class="cls-6" d="M68.69,10.55c-8.07,2.66-19.45,5.34-26.69,5.34-6.05,0-10.67-.56-16.89-2.03-1.15,1.97-1.93,3.84-2.37,5.72.93,1.97,2.28,4.73,2.88,5.82,2.88,5.3,4.17,12.08,4.17,22.02,0,5.69-.96,18.31-1.91,22.93-1.58,7.7-5.45,13.64-8.28,17.47,1.03,6.73,3.39,13.14,6.82,18.53,3.87,6.08,8.85,10.63,14.82,13.5,3.8,1.83,29.96,14.07,32.54,14.98.48.16,1.87.44,2.54.49V6.75c-2.61,1.55-5.38,3.06-7.63,3.8Z"/>
          <path class="cls-2" d="M126.87,106.34c3.43-5.4,5.79-11.8,6.82-18.53-2.83-3.83-6.7-9.76-8.28-17.47-.95-4.62-1.91-17.24-1.91-22.93,0-9.94,1.29-16.72,4.17-22.02.6-1.09,1.95-3.85,2.88-5.82-.44-1.87-1.22-3.75-2.37-5.72-6.23,1.48-10.84,2.03-16.9,2.03-7.23,0-18.61-2.68-26.69-5.34-2.25-.74-5.02-2.25-7.63-3.8v128.57c.68-.05,2.07-.33,2.55-.49,2.57-.91,28.73-13.15,32.53-14.98,5.96-2.88,10.95-7.42,14.81-13.5Z"/>
        </g>
      </g>
      <g>
        <path class="cls-8" d="M101.34,102.37s0,.02.02.02c0,0,0,0,0,0,0,0,0-.02,0-.02Z"/>
        <g>
          <path class="cls-10" d="M127.17,105.89c-.03-.08-.14-.13-.3-.17-.09-.1-.29-.23-.74-.42-.94-.41-2.25-.55-3.3-.65l-.45-.05c-1.16-.12-3.86.96-4.6,1.44-.45.3-.95.5-1.61.69-.11-.03-.21-.09-.33-.09-1.68-.03-3.73.8-6.17,2.45.07-.25.17-.49.37-.75.28-.39.8-1.59.8-2.41,0-.25-.05-.46-.16-.61l-.17-.22c-.41-.53-.9-1.19-1.68-1.57-.34-.15-.54-.22-.7-.24-.08-.07-.19-.1-.28-.1-.21,0-.48.09-.77.79l-.16.34c-.28.56-.69,1.39-.69,2.09,0,.3.07.58.27.81.36.42.83.75,1.24,1.04.36.25.67.47.75.65.08.16.17.49.2.86-1.81,1.33-3.61,2.91-5.43,4.57.07-.26.18-.51.38-.78.29-.39.8-1.59.8-2.41,0-.24-.05-.46-.16-.6l-.17-.22c-.4-.53-.9-1.2-1.67-1.56-.33-.17-.53-.22-.69-.24-.08-.08-.19-.11-.28-.11-.21,0-.47.1-.77.79l-.16.35c-.29.56-.69,1.38-.69,2.08,0,.3.07.58.27.81.37.41.82.74,1.24,1.03.35.26.67.48.75.65.1.22.2.68.21,1.08,0,0-.06.06-.06.06-1.79,1.63-3.34,3.05-4.37,3.7-.73.46-1.84.99-3.3,1.57.02-.05.05-.11.05-.16.05-.73.16-1.27.62-1.89.36-.48.99-1.95.99-2.96,0-.29-.06-.56-.19-.74l-.22-.27c-.49-.65-1.1-1.47-2.04-1.92-.44-.21-.68-.28-.86-.3-.09-.09-.21-.13-.31-.13-.23,0-.53.12-.89.95l-.21.43c-.34.69-.85,1.71-.85,2.57,0,.37.09.7.33.98.45.51,1.02.91,1.53,1.28.45.31.84.6.94.82.14.29.28.89.28,1.43,0,.09,0,.18-.01.26-2.18.83-4.96,1.74-7.91,2.59.33-.65.67-1.14,1.35-1.62.67-.48,2.34-2.28,2.34-3.21,0-.07,0-.13-.02-.18l-.08-.3c-.19-.73-.44-1.63-1.15-2.25-.33-.28-.54-.42-.71-.47-.05-.09-.14-.16-.24-.18-.22-.03-.56,0-1.25.73l-.38.37c-.78.75-2.05,1.96-2.05,2.94,0,.12.02.24.05.34.21.58.59,1.09.93,1.54.29.39.55.74.56.98v.03c0,.35-.15,1.06-.44,1.6-2.3.64-4.5,1.19-6.19,1.53-5.75,1.18-8.93,5.7-9.06,5.89l-.09.23v.13c0,.64.34,1.07.95,1.19,1.04.19,1.86-.59,2.92-2.03l.07-.1.41-1.13s.26-.58.29-.67c1.59-1.19,3.28-1.98,5.02-2.34,1.99-.41,4.52-1.04,7.13-1.79.02.02.07.03.07.03l.54.27c.38.17.39.35.4.65l.02.22c.05.44,1.03,1.33,1.23,1.49.29.26.95.45,1.74.52.85.07,1.62-.03,2.04-.27l.22-.12c.71-.4,1.45-.8,2.28-1.89.46-.59.84-.93,1.04-1.09l-.39-.3c-.55.26-3.72.49-5.1.23-.67-.13-1.61-.19-2.45-.22,3.18-.95,6.04-1.94,8.16-2.82.15.03.52.11.52.11.44.08.53.25.68.53l.12.2c.26.41,1.6,1.03,1.86,1.15.39.18,1.1.22,1.88.11.84-.12,1.52-.39,1.82-.71l.15-.16c.49-.53,1.01-1.07,1.3-2.29.16-.65.37-1.06.48-1.25l-.51-.2c-.4.37-3.3,1.28-4.74,1.33-.34.01-.77.05-1.27.13.29-.16.58-.32.82-.47,1.15-.73,2.74-2.18,4.58-3.86,0,0,.45-.42.61-.56.2.04.45.09.45.09.48.08.58.26.75.56l.12.22c.27.42,1.71,1.07,1.99,1.2.88.38,3.26.09,3.95-.63l.16-.16c.53-.55,1.08-1.13,1.4-2.39.17-.69.4-1.12.51-1.32l-.5-.2c-.44.38-3.57,1.34-5.12,1.39-.77.02-1.81.18-2.74.36,1.53-1.39,3.27-2.89,4.94-4.11.17.03.38.07.38.07.55.1.64.23.8.44l.12.17c.26.33,1.69.85,2.12,1.01.91.33,3.52.28,4.34-.18l.2-.11c.66-.36,1.34-.74,1.83-1.65.24-.47.53-.76.68-.88l-.4-.3c-.53.26-4.17.72-5.94.65-.88-.03-2.05.01-3.11.08.65-.43,1.27-.81,1.86-1.1.02-.01.08-.04.08-.04l.43-.25c.27-.19,1.38-.56,2.91-.95h.03s.11-.03.11-.03l.09-.03s.22,0,.22,0l.53-.02c.35,0,.87.16,1.47.32.67.19,1.42.41,2.27.52,1.49.22,3.36-.69,4.5-1.23l.49-.24c.8-.35.98-.57.98-.71,0-.03,0-.05,0-.08Z"/>
          <path class="cls-10" d="M26.14,105.89c.03-.08.13-.13.3-.17.1-.1.29-.23.73-.42.95-.41,2.26-.55,3.31-.65l.44-.05c1.17-.12,3.87.96,4.61,1.44.45.3.95.5,1.62.69.11-.03.21-.09.32-.09,1.7-.03,3.74.8,6.18,2.45-.07-.25-.17-.49-.37-.75-.28-.39-.8-1.59-.8-2.41,0-.25.05-.46.16-.61l.17-.22c.38-.53.89-1.19,1.67-1.57.35-.15.54-.22.69-.24.09-.07.2-.1.29-.1.21,0,.47.09.77.79l.17.34c.28.56.69,1.39.69,2.09,0,.3-.08.58-.27.81-.37.42-.83.75-1.24,1.04-.37.25-.67.47-.75.65-.08.16-.17.49-.21.86,1.82,1.33,3.62,2.91,5.44,4.57-.07-.26-.18-.51-.38-.78-.29-.39-.81-1.59-.81-2.41,0-.24.05-.46.16-.6l.17-.22c.39-.53.9-1.2,1.67-1.56.34-.17.54-.22.69-.24.09-.08.19-.11.29-.11.21,0,.47.1.77.79l.17.35c.28.56.69,1.38.69,2.08,0,.3-.07.58-.27.81-.37.41-.83.74-1.23,1.03-.36.26-.68.48-.76.65-.1.22-.2.68-.21,1.08,0,0,.06.06.06.06,1.79,1.63,3.34,3.05,4.37,3.7.73.46,1.84.99,3.3,1.57,0-.05-.05-.11-.05-.16-.05-.73-.15-1.27-.62-1.89-.35-.48-.99-1.95-.99-2.96,0-.29.05-.56.19-.74l.21-.27c.49-.65,1.1-1.47,2.04-1.92.44-.21.69-.28.87-.3.08-.09.21-.13.31-.13.23,0,.53.12.9.95l.21.43c.35.69.84,1.71.84,2.57,0,.37-.09.7-.32.98-.45.51-1.02.91-1.53,1.28-.45.31-.85.6-.95.82-.14.29-.28.89-.28,1.43,0,.09,0,.18.02.26,2.18.83,4.96,1.74,7.92,2.59-.34-.65-.67-1.14-1.36-1.62-.66-.48-2.35-2.28-2.35-3.21,0-.07,0-.13.02-.18l.07-.3c.2-.73.45-1.63,1.15-2.25.33-.28.54-.42.71-.47.04-.09.14-.16.23-.18.22-.03.56,0,1.27.73l.37.37c.8.75,2.05,1.96,2.05,2.94,0,.12-.01.24-.05.34-.22.58-.59,1.09-.93,1.54-.29.39-.55.74-.56.98,0,.01,0,.03,0,.03,0,.35.15,1.06.45,1.6,2.3.64,4.5,1.19,6.2,1.53,5.75,1.18,8.94,5.7,9.07,5.89l.09.23s0,.09,0,.13c0,.64-.35,1.07-.96,1.19-1.03.19-1.86-.59-2.92-2.03l-.07-.1-.41-1.13s-.24-.58-.29-.67c-1.59-1.19-3.28-1.98-5.02-2.34-1.99-.41-4.52-1.04-7.13-1.79-.03.02-.07.03-.07.03l-.54.27c-.37.17-.39.35-.4.65l-.02.22c-.06.44-1.04,1.33-1.24,1.49-.29.26-.94.45-1.74.52-.85.07-1.61-.03-2.04-.27l-.22-.12c-.72-.4-1.44-.8-2.28-1.89-.45-.59-.85-.93-1.03-1.09l.39-.3c.54.26,3.72.49,5.12.23.67-.13,1.6-.19,2.44-.22-3.18-.95-6.05-1.94-8.17-2.82-.15.03-.51.11-.51.11-.44.08-.52.25-.68.53l-.12.2c-.26.41-1.59,1.03-1.86,1.15-.39.18-1.11.22-1.89.11-.84-.12-1.52-.39-1.82-.71l-.14-.16c-.5-.53-1.01-1.07-1.31-2.29-.16-.65-.36-1.06-.48-1.25l.51-.2c.4.37,3.3,1.28,4.75,1.33.35.01.78.05,1.27.13-.3-.16-.59-.32-.82-.47-1.15-.73-2.75-2.18-4.59-3.86,0,0-.45-.42-.6-.56-.2.04-.46.09-.46.09-.47.08-.58.26-.74.56l-.13.22c-.27.42-1.71,1.07-1.99,1.2-.88.38-3.26.09-3.95-.63l-.16-.16c-.54-.55-1.08-1.13-1.4-2.39-.17-.69-.4-1.12-.52-1.32l.5-.2c.43.38,3.58,1.34,5.13,1.39.77.02,1.81.18,2.74.36-1.54-1.39-3.27-2.89-4.95-4.11-.16.03-.37.07-.37.07-.55.1-.65.23-.8.44l-.12.17c-.27.33-1.69.85-2.12,1.01-.91.33-3.52.28-4.35-.18l-.2-.11c-.66-.36-1.34-.74-1.83-1.65-.24-.47-.53-.76-.68-.88l.4-.3c.52.26,4.16.72,5.93.65.88-.03,2.06.01,3.11.08-.65-.43-1.28-.81-1.85-1.1-.02-.01-.08-.04-.08-.04l-.43-.25c-.27-.19-1.38-.56-2.9-.95h-.04s-.1-.03-.1-.03l-.11-.03s-.22,0-.22,0c0,0-.53-.02-.53-.02-.35,0-.87.16-1.48.32-.66.19-1.42.41-2.26.52-1.49.22-3.38-.69-4.5-1.23l-.49-.24c-.81-.35-.99-.57-.99-.71,0-.03,0-.05.02-.08Z"/>
        </g>
        <g>
          <path class="cls-8" d="M83.97,114.02c.03-.22.04-.42.04-.61,0-.43-.08-.78-.23-1.06-.24-.47-.68-.73-1.24-.73-.5,0-.97.21-1.36.61-.02-.04-.06-.09-.09-.13-.26-.32-.65-.48-1.16-.48-.58,0-1.09.24-1.52.7-.04-.13-.11-.25-.19-.35-.14-.16-.4-.36-.86-.36-.13,0-.25.02-.37.04.04-.25.09-.52.09-.52l-.77.34s-.41.18-.44.19c-.15.06-.29.09-.44.09h-.28c.02-.12.03-.2.04-.22.09-.13.16-.27.2-.42v-.03s0-.03,0-.03c0-.06,0-.11,0-.16,0-.18-.04-.35-.11-.5v-.03s-.03-.03-.03-.03c-.17-.24-.43-.38-.72-.38-.27,0-.51.1-.7.28-.2.17-.33.41-.37.69-.01.07-.02.12-.02.18,0,.25.1.43.19.54.05.07.11.13.18.18-.15.03-.28.05-.4.05h-.36l-.14.63.09-1.01-.65.21s-.1.03-.15.05c-.05-.01-.16-.05-.16-.05-.23-.08-.4-.12-.55-.12-.41,0-.76.12-1.06.36-.33.25-.54.58-.62.97-.01.07-.02.14-.02.21,0,.3.11.58.32.8-.05.01-.63.12-.63.12l-.26,2.9s.96-.73,1.01-.78c.05.03.12.05.12.05.21.11.42.17.63.2h.04s.04,0,.04,0c.39-.03.74-.17,1.08-.46l.02-.02h0c.07-.08.13-.15.19-.23l-.1.64h2.55v-.02h3.38l.04-.24c.23.17.54.3.97.32h.07c.43-.04.83-.21,1.18-.52l.02-.03.02-.03s.06-.07.09-.11c.27.43.69.67,1.22.68.85,0,1.5-.51,1.94-1.53l.23-.53s-.06-.01-.07-.01c0-.06.05-.35.05-.35ZM71.32,115c0,.06-.05.13-.12.2-.09.08-.14.1-.15.12-.05,0-.16-.03-.33-.24-.13-.17-.19-.38-.19-.63,0,0,0-.11,0-.18.19.12.57.35.62.38.15.11.18.21.18.29,0,.02,0,.04,0,.06ZM71.38,112.92s-.08-.06-.1-.07c0-.01.02-.02.03-.03h0s.06-.06.14-.06c.09,0,.15.03.2.09.02.06.06.15.1.3-.11-.07-.23-.15-.38-.24ZM72.96,115.21s-.01.05-.02.06c0,0-.02,0-.05,0h-.24c.05-.13.09-.27.11-.41.02-.1.03-.19.03-.29,0-.29-.09-.56-.25-.78h.3l.07-.82h.44c-.08.46-.39,2.23-.39,2.23ZM74.76,115.27s-.04,0-.08,0h-.13c.05-.29.26-1.49.43-2.45.06,0,.14.01.22.01-.11.6-.41,2.28-.43,2.43ZM76.48,115.27s-.06,0-.11.01h0c.08-.45.3-1.76.38-2.19.05-.05.1-.08.14-.11-.02.11-.38,2.13-.41,2.29ZM80.32,113.98s0,.03,0,.04h-.08s-.13.34-.13.34c-.1.26-.22.49-.37.66-.14.14-.24.19-.3.21-.14-.01-.17-.08-.19-.13-.03-.06-.06-.18-.06-.39,0-.16.02-.38.07-.67.07-.38.21-.71.39-1,0,.03,0,.06,0,.09,0,.19.04.35.14.48.14.19.33.29.54.31,0,.02,0,.04-.01.06ZM82.41,112.94h0s0,.05,0,.09c0,.09,0,.19-.02.31h-.2c.06-.15.13-.29.21-.4ZM82.78,114.5c-.13.24-.25.43-.39.57-.12.09-.24.14-.35.15h0s-.08-.09-.08-.44c0-.1.01-.23.03-.38h.85s-.05.09-.05.09ZM82.46,116.76c-.66,0-1.25.3-1.72.9h0c-.18.23-.33.46-.44.69-.02-.24-.06-.46-.13-.66-.22-.61-.68-.93-1.29-.93-.56,0-1.05.27-1.45.81h0c-.18.26-.34.56-.47.89-.01-.28-.06-.53-.14-.76-.21-.61-.67-.93-1.29-.93-.57,0-1.06.27-1.45.81-.12.16-.23.34-.33.54-.02-.42-.19-.7-.34-.86-.28-.32-.71-.49-1.27-.49-.43,0-.82.12-1.18.37-.39.27-.65.65-.74,1.09-.02.12-.03.24-.03.34,0,.24.06.45.19.61.11.13.3.29.64.3.09,0,.17-.02.26-.04h0c-.19.19-.39.4-.62.67,0,0-.04.04-.04.04l-.47.53c-.16.19-.29.38-.39.57l-.03.06-.26,1.29h3.32l.41-1.34c.02.16.06.31.11.45.21.59.66.93,1.25.96h.04c.54-.02,1.02-.3,1.44-.82v-.02s.02-.01.02-.01c.18-.27.33-.56.46-.87.01.28.06.54.13.76.21.59.65.93,1.25.96h.04c.54-.02,1.03-.3,1.44-.82h0s.01-.02.01-.02c.15-.23.28-.47.4-.73.02.27.08.51.17.72.24.54.67.83,1.26.86h.04c.5-.02.95-.21,1.35-.56h.01s.01-.02.01-.02c.38-.39.62-.86.73-1.39.03-.18.05-.35.05-.51,0-.34-.07-.63-.21-.89v-.02s-.02-.02-.02-.02c-.07-.09-.13-.17-.21-.24.14-.04.29-.1.42-.22.19-.17.3-.39.34-.63.01-.09.02-.18.02-.26,0-.38-.18-.63-.34-.78-.25-.23-.57-.34-.95-.34ZM71.9,117.92c.08,0,.1,0,.11.02,0,.01,0,.03,0,.08s0,.11-.02.2c0,0,0,.01,0,.02-.03-.12-.09-.21-.14-.27,0,0,0,0,0,0,0,0-.01-.03-.02-.03.02,0,.04-.02.06-.02ZM73.26,119.63c-.03.16-.06.32-.08.48h-.7l-.13.22c-.16.27-.27.42-.33.48-.05.05-.11.08-.14.09h-.41c.1-.1.23-.2.37-.32-.01,0,1.08-.81,1.08-.81l.02-.02.03-.03c.13-.12.25-.25.35-.39-.02.09-.04.18-.06.28ZM75.19,119.63c-.13.68-.29,1.25-.47,1.7,0,0,0,.01-.01.02v-.03c0-.25.04-.71.2-1.52.2-1.02.36-1.5.46-1.73,0-.01.01-.02.01-.03,0,.41-.06.94-.19,1.59ZM78.54,119.62c-.12.66-.28,1.24-.47,1.71,0,0,0,.01-.01.02,0-.01,0-.02,0-.03,0-.24.04-.69.2-1.52.16-.85.32-1.43.47-1.74,0,0,0,0,.01-.01h0c0,.4-.07.92-.2,1.58ZM81.61,120.5c-.06.35-.14.58-.2.74,0-.29.07-.7.18-1.24.03-.02.05-.04.07-.06,0,.01,0,.02,0,.04,0,.11-.01.27-.06.52ZM81.9,118.7c.02-.08.05-.15.08-.21.01.07.05.13.09.19-.06,0-.11,0-.17.02Z"/>
          <g>
            <path class="cls-8" d="M63.44,41.19l-.27-.04c-.26-.04-.39-.06-.48-.19-.09-.11-.22-.45-.29-.65l-.09-.23s-1.62-4.32-1.62-4.32l-.07-.2h-.72l-1.31,3.56-.39.93-.28.68c-.12.31-.2.38-.51.41h-.05c-.24,0-.37-.02-.39-.08-.04-.12-.06-.46-.06-1.03v-2.41c0-.56.02-.91.06-1.03.02-.07.16-.08.39-.08h.32v-.84l-.53.02s-.98.03-1,.03c0,0-.98-.03-.98-.03l-.51-.02v.84h.31c.25,0,.37,0,.4.08.04.11.06.46.06,1.02v.68h-2.26v-.68c0-.56.02-.9.06-1.02.03-.07.16-.08.4-.08h.32v-.84l-.52.02-1.02.03-1.03-.03h-.44s0,.83,0,.83h.32c.24,0,.37,0,.4.08.04.12.06.46.06,1.02v2.41c0,.57-.02.91-.06,1.03-.03.07-.16.09-.4.09h-.32v.84l1.53-.04.57.02.91.03v-.84h-.32c-.24,0-.37-.02-.4-.09-.04-.12-.06-.46-.06-1.03v-.82h2.26v.82c0,.57-.02.92-.06,1.03-.02.06-.11.08-.39.08h-.31v.84l1.53-.04.58.02h.35v.03s.12,0,.28,0h.27s0-.02,0-.02c.29-.01.6-.02.6-.02l.43.02.77.03v-.33s0-.49,0-.49l-.39-.03c-.07-.01-.22-.02-.26-.04h0c0-.21.17-.67.28-.94l.1-.25h1.55c.09.25.24.67.24.67.05.14.14.38.14.54-.06.02-.19.02-.25.03l-.37.02v.3s0,.52,0,.52l1.5-.04.56.02.9.03v-.33s0-.47,0-.47ZM59.51,39.01c.13-.35.25-.67.45-1.19.2.52.31.85.44,1.19h-.88ZM84.25,36.2v-.53l-.59.03s-.56.02-.58.02c-.02,0-.66-.02-.66-.02l-.55-.03v.8l.41.06q.28.04.32.24c.06.33.06.9.06,1.26v1.46c-.78-1-2.96-3.81-2.96-3.81l-.24.02s-.53.03-.55.03c-.02,0-.61-.03-.61-.03h-.27v-.02h-.04s-.14,0-.14,0h0s-.32.02-.32.02c0,0-1.01.03-1.02.03-.01,0-.94-.03-.94-.03h-.44v-.02h-.05s-.06,0-.06,0h0s-.47.02-.47.02c0,0-.92.03-.94.03s-.97-.03-.97-.03l-.52-.02v.84h.31c.24,0,.37,0,.4.09.04.11.06.46.06,1.02v.68h-2.26v-.68c0-.56.02-.9.07-1.02.02-.07.15-.08.39-.08h.31v-.84l-.56.02-.99.03-1.01-.03-.46-.02v.84h.32c.19,0,.37,0,.4.08.04.11.06.46.06,1.02v2.41c0,.57-.02.92-.06,1.03-.02.07-.16.08-.4.08h-.23v-1.79h-.71l-.06.24c-.29,1.18-.71,1.64-1.49,1.64-1.43,0-1.59-1.64-1.59-2.35,0-.58.11-2.48,1.57-2.48.76,0,1.27.5,1.4,1.34l.04.27h.78l-.09-2.32h-.64s-.08.24-.08.24c-.43-.23-.86-.38-1.47-.38-1.82,0-3.14,1.4-3.14,3.31s1.23,3.17,3.07,3.17c.63,0,1.16-.15,1.65-.47.01.02.12.27.12.27h.54v.12l1.53-.04.58.02.9.03v-.32s0-.51,0-.51h-.31c-.24,0-.37-.02-.39-.08-.03-.09-.07-.32-.07-1.03v-.82h2.26v.82c0,.57-.02.91-.06,1.03-.02.07-.15.08-.4.08h-.31v.84l1.53-.04.57.02.8.03h.12c.36-.02,1.43-.04,1.43-.04l.59.02.82.03h0s1.21-.04,1.21-.04c-.02,0,.45.02.45.02l.8.03v-.33s0-.48,0-.48l-.4-.05c-.25-.03-.29-.04-.34-.15-.09-.23-.09-.88-.09-1.12v-1.98c.75.96,2.61,3.35,2.61,3.35,0,0,.24.32.24.32l.38.51h.15s.56,0,.56,0v-3.99c0-.55.03-1.22.08-1.41.03-.09.05-.11.05-.11.02-.02.13-.03.2-.03l.38-.04v-.28ZM75.79,40.03c0,.57-.02.91-.06,1.03-.03.07-.15.09-.41.09h-.51c-.25,0-.38-.02-.4-.08-.04-.12-.06-.46-.06-1.03v-2.41c0-.56.02-.91.06-1.03.02-.07.16-.08.4-.08h.51c.25,0,.38,0,.41.08.04.12.06.46.06,1.02v2.41ZM78.71,39.87c0,.32,0,.84-.05,1.11-.03.1-.04.13-.37.17l-.27.03v-.03h-.32c-.23,0-.36-.01-.39-.08-.04-.12-.06-.47-.06-1.04v-2.41c0-.56.02-.91.06-1.03.02-.07.2-.07.39-.07h.32s.12,0,.12,0c.28,0,.4.07.57.3v3.05ZM87.46,35.58c-1.81,0-3.27,1.47-3.27,3.27s1.42,3.22,3.25,3.22,3.25-1.4,3.25-3.28-1.41-3.21-3.22-3.21ZM87.48,41.21c-1.5,0-1.66-1.65-1.66-2.36,0-1.1.42-2.4,1.62-2.4,1.53,0,1.6,1.98,1.6,2.37,0,.72-.15,2.39-1.55,2.39ZM102.38,39.95h-.81l-.03.28c-.07.73-.33.84-1.18.86-.53.02-.71-.09-.77-.17-.09-.13-.09-.52-.09-.69v-1.08c.5.03.63.14.69.66l.03.27h.79l-.02-.51s-.03-.84-.03-.87c0-.03.03-.95.03-.95l.02-.52h-.8l-.02.29c-.04.43-.1.71-.69.75v-1.73h.48c.81,0,1.01.02,1.13.79l.04.27h.76v-1.93h-4.48s-.51,0-.51,0c0,0-1,.03-1.01.03-.01,0-.95-.03-.95-.03l-.55-.02v.84h.31c.24,0,.38,0,.4.08.04.11.06.46.06,1.02v.68h-2.25v-.68c0-.56.02-.91.06-1.03.02-.07.21-.07.4-.07h.31v-.84l-.55.02-.99.03-1.07-.03h-.4s0,.83,0,.83h.32c.24,0,.37,0,.39.08.04.12.07.46.07,1.02v2.41c0,.71-.03.95-.06,1.03-.03.07-.16.09-.4.09h-.32v.84l1.53-.04.57.02.91.03v-.32s0-.51,0-.51h-.31c-.2,0-.38,0-.4-.08-.04-.11-.06-.46-.06-1.03v-.82h2.25v.82c0,.57-.02.91-.06,1.03-.02.07-.15.08-.4.08h-.31v.84s1.52-.04,1.53-.04l.58.02.91.03v-.03h4.85l.1-2.01ZM98.04,40.02c0,.57-.02.91-.07,1.03-.02.07-.2.08-.39.08h-.31v.02h-.16c-.24,0-.37-.02-.4-.09-.04-.12-.06-.46-.06-1.03v-2.41c0-.56.02-.9.07-1.02.02-.07.16-.08.39-.08h.16v.03h.31c.19,0,.37,0,.4.08.04.12.06.47.06,1.03v2.36Z"/>
            <g>
              <g>
                <path class="cls-8" d="M115.16,44.27c0,2.12-1.72,3.85-3.84,3.85s-3.85-1.73-3.85-3.85,1.72-3.85,3.85-3.85,3.84,1.73,3.84,3.85Z"/>
                <path class="cls-8" d="M119.59,52.11c0,1.2-.97,2.17-2.17,2.17s-2.19-.97-2.19-2.17.99-2.18,2.19-2.18,2.17.98,2.17,2.18Z"/>
                <path class="cls-8" d="M117.38,59.54c0,1.4-1.14,2.54-2.54,2.54s-2.55-1.14-2.55-2.54,1.14-2.54,2.55-2.54,2.54,1.14,2.54,2.54Z"/>
              </g>
              <g>
                <path class="cls-8" d="M77.12,109.65c.89-1.27,7.13-9.58,16.46-9.5,2.37.03,4.78.62,7.18,1.74.23.21.47.45.51.53l-.02-.06c.07.24.33.4.56.34h0s.06,0,.09-.01c.2-.06.33-.22.33-.41,0-.03,0-.07,0-.11v-.06c-.31-1.2-1.03-3.57-2.53-5.82-2.23-3.36-5.34-5.16-9.01-5.2-1.93-.04-4.04.4-6.29,1.31.28-.76.85-1.8,1.92-2.24.83-.35,1.68-.54,2.5-.72,1.12-.25,2.27-.52,3.4-1.18.75-.45,1.48-.98,2.15-1.6,1.37-.27,3.81-.51,5.54.62l.61.38c2.22,1.42,3.24,2.06,3.49,4.83,0,0,.04.48.04.48.15,1.76.39,4.42,1.11,6.52.71,2.07,4.66,3.5,5.4,3.39,2.05-.27,7.04-1.3,9.15-5.05,1.98-3.54,2.27-5.8,2.27-6.83,0-1.12-.08-3.56-.08-3.58,0-.02,0-.04,0-.06-.03-.17-.2-1.02-.74-1.37-.23-.15-.5-.19-.78-.12-.9.24-1.3.77-1.3,1.69l.02.49c.07,1.1.23,3.7-.74,4.92-1.26,1.59-3.55,3.26-4.95,3.2-1.36-.05-3.46-1.61-4.03-3.45-.63-2.03-2.64-4.23-3.61-5.1-.16-.14-3.86-3.42-5.77-3.74-1.31-.23-2.49-.31-3.56-.26.31-.57.65-1.17.97-1.73,2.47.08,4.23.27,4.95.53,1.53.56,3.46,1.65,4.01,3.66.64,2.39,3.07,3.57,4.17,3.64,1.11.08,4.52-.41,5.75-2.6,1.09-1.95,2.02-4.42,2.28-5.69.16-.83-.11-1.9-.77-2.11-.21-.06-.76-.12-1.12.78l-.28.7c-.41,1.05-.88,2.24-1.51,2.76-.85.69-2.16.99-3.41.76-1.32-.24-2.35-.81-3.06-1.69-.77-.97-3.11-3.01-5.43-3.15l-.81-.05c-.58-.03-1.19-.07-1.8-.11.07-.02.13-.04.2-.05.51-.09.99-.16,1.49-.17.55,0,1.08.07,1.67.23.31.08.58.11.85.1,1.2-.01,1.83-.93,1.83-1.24,0-.45-.45-.48-.7-.49-.18-.01-.63-.04-.78-.13-.02-.03-.22-.28-.22-.28-.75-.97-2.68-3.47-5.77-4.82.74-.85,1.25-1.1,1.57-1.14,2.18-.37,3.85-.21,5.11.47,1.82.99,6.8,2.76,9.78,1.55,3.4-1.37,5.3-2.9,5.67-4.55.4-1.77.63-5.38-1.04-7.66-1.56-2.14-2.97-3.33-3.03-3.38-.02-.02-.05-.04-.08-.05-.43-.23-1.49-.72-2.03-.23-.47.43-.17,1.16-.07,1.39l.4.92c.72,1.58,1.69,3.76.89,4.95-1.1,1.65-2.33,2.72-4.11,3.56l-1.06.53c-.84.43-.92.47-2,.47-.75,0-2.18-.27-3.55-.53-1.38-.26-2.68-.51-3.4-.51-1.5,0-4.16.88-5,1.86-.21.24-.47.43-.74.64-.32.24-.65.5-.91.83-.02,0-.07,0-.07,0,0,0-.02,0-.03,0h-.17s.04,0,.04,0h-.23c-.59-.03-1.16,0-1.74.08-1.38.19-2.61.41-3.7.66.02-.02.03-.02.05-.03.54-.33,1.14-.7,1.85-1.27,1.52-1.22,2.5-1.68,3.44-2.14l.93-.46c.7-.38,2.72-.81,4.66-1.23,1.38-.29,2.81-.6,3.97-.92,3.24-.88,5.5-3.59,5.5-6.58,0-2.71-3.82-6.08-5.87-7.89l-.78-.7c-1.48-1.39-3.49-1.89-4.83-2.23h-.02c-.86-.22-1.52-.04-1.69.46-.02.07-.04.15-.04.22,0,.57.71,1.16,2.11,1.75h0c1.94.82,3.07,3.45,3.07,7.1,0,.26,0,.53-.02.8-.12,2.96-4.46,5.61-7.05,7.19l-.72.44c-1.25.77-2.45,1.39-3.73,2.04-1.42.73-3.03,1.55-4.93,2.72-1.83,1.13-2.57,2.47-2.87,3.49-.34.13-.72.26-1.09.38,0-.03,0-.06,0-.09,0-1.73,1.44-3.25,4.39-4.63.76-.36,1.16-.49,1.62-.64.54-.18,1.15-.38,2.45-.99,2.58-1.21,4.38-3.53,4.83-5.2.05-.16.07-.32.07-.49,0-1.31-1.2-2.88-2.28-4.29-.44-.57-.85-1.11-1.09-1.52-1-1.72-5.09-2.71-6.3-2.32-.58.19-.87.45-.87.8,0,.02,0,.06,0,.08.06.47.62.73,1.64.78.71.04,2.14,2.5,2.77,4.77.09.29.13.59.13.88,0,1.39-.9,2.76-2.5,3.69-.58.34-1.17.65-1.74.95-1.52.79-3.07,1.61-4.57,3.09-1.1,1.09-1.4,3.07-1.4,4.89,0,.37.02.72.04,1.07-1.2.31-1.45.33-1.47.33-.05,0-.1,0-.15.01,0,0-.18.05-.3.08-.12-.03-.3-.08-.3-.08-.05-.01-.12-.02-.17-.01h.01c-.09,0-.5-.07-1.45-.33.02-.36.03-.72.03-1.1,0-1.82-.3-3.77-1.4-4.86-1.48-1.47-3.03-2.3-4.53-3.09-.57-.3-1.15-.61-1.73-.95-1.6-.94-2.5-2.3-2.5-3.69,0-.29.04-.59.12-.88.63-2.27,2.05-4.73,2.76-4.77,1.02-.05,1.58-.32,1.64-.78,0-.03,0-.06,0-.09,0-.34-.29-.61-.87-.79-1.2-.39-5.28.61-6.27,2.32-.24.41-.64.94-1.07,1.51-1.08,1.41-2.27,2.99-2.27,4.3,0,.17.02.33.06.49.44,1.67,2.24,3.99,4.81,5.2,1.29.61,1.9.81,2.44.99.46.15.85.29,1.61.64,2.94,1.37,4.38,2.89,4.38,4.63,0,.04,0,.08,0,.12-.43-.14-.78-.26-1.08-.37-.41-1.4-1.37-2.59-2.87-3.51-1.88-1.17-3.49-1.99-4.9-2.72-1.27-.65-2.47-1.27-3.71-2.04l-.71-.43c-2.58-1.58-6.91-4.23-7.04-7.2,0-.26-.01-.52-.01-.77,0-3.67,1.12-6.31,3.06-7.14,1.39-.59,2.1-1.18,2.1-1.75,0-.07-.01-.15-.04-.23-.17-.49-.83-.68-1.68-.46h-.02c-1.33.34-3.34.84-4.83,2.23l-.8.73c-2.03,1.81-5.81,5.17-5.81,7.86,0,2.99,2.25,5.7,5.48,6.58,1.16.32,2.58.63,3.96.92,1.94.42,3.95.85,4.64,1.23,0,0,.93.47.93.47.93.45,1.91.91,3.42,2.13.7.56,1.3.93,1.83,1.26.04.02.07.04.11.06-1.13-.26-2.4-.48-3.81-.68-.4-.06-.82-.09-1.32-.09-.25,0-.51,0-.8.02-.25-.34-.58-.59-.9-.83-.27-.21-.54-.41-.74-.64-.85-.99-3.5-1.87-4.99-1.87-.72,0-2.01.25-3.38.51-1.37.26-2.78.53-3.54.53-1.07,0-1.16-.04-1.99-.47l-1.06-.53c-1.76-.84-2.99-1.9-4.09-3.56-.8-1.19.18-3.36.89-4.95l.4-.92c.1-.23.39-.95-.06-1.38-.35-.33-.94-.3-1.8.1-.12.06-.24.11-.33.18,0,0,0,0,0-.01-.06.05-1.46,1.25-3.03,3.38-1.64,2.26-1.42,5.87-1.03,7.66.37,1.65,2.27,3.18,5.65,4.55,2.97,1.21,7.92-.56,9.73-1.56,1.25-.68,2.91-.83,5.09-.47.31.05.81.29,1.53,1.11-3.15,1.34-5.11,3.86-5.87,4.85,0,0-.2.25-.22.28-.15.09-.6.12-.78.13-.24.01-.7.04-.7.49,0,.26.26.55.38.66.4.39.94.59,1.52.58,0,0-.01,0-.02,0,0,0,.01,0,.02,0h0,0c.26.01.54-.03.84-.11.58-.15,1.1-.23,1.64-.23.51.01,1,.09,1.49.17.08.02.14.04.21.06-.57.03-1.14.07-1.68.1l-.83.05c-2.31.14-4.64,2.18-5.4,3.15-.71.88-1.73,1.45-3.04,1.69-1.25.22-2.54-.07-3.39-.76-.63-.53-1.1-1.72-1.51-2.77l-.27-.69c-.37-.9-.9-.85-1.12-.78-.66.2-.93,1.26-.77,2.1.23,1.21,1.16,3.73,2.26,5.69,1.21,2.17,4.67,2.68,5.73,2.61,1.1-.07,3.52-1.25,4.16-3.64.54-2,2.47-3.1,3.99-3.66.7-.26,2.34-.44,4.84-.53.33.58.68,1.21.96,1.73-1.03-.04-2.17.03-3.45.26-1.87.31-5.36,3.39-5.74,3.74-.97.87-2.97,3.04-3.6,5.09-.55,1.8-2.66,3.4-4,3.46-1.39.06-3.68-1.61-4.94-3.2-.96-1.22-.8-3.82-.73-4.93l.02-.48c0-.91-.41-1.45-1.29-1.69-.28-.07-.54-.03-.78.12-.54.35-.72,1.2-.75,1.37,0,.02,0,.04,0,.07,0,.03-.07,2.46-.07,3.58,0,1.03.29,3.28,2.27,6.83,2.09,3.75,7.07,4.78,9.11,5.05.74.1,4.68-1.32,5.39-3.39.74-2.18.97-4.91,1.12-6.72l.02-.28c.25-2.77,1.26-3.42,3.48-4.84l.58-.37c1.7-1.1,4.08-.88,5.43-.64.5.46,1.24,1.08,2.18,1.62,1.13.66,2.28.92,3.41,1.18.82.18,1.66.38,2.5.72.49.2.93.56,1.3,1.05.3.41.51.85.64,1.23,0,0-.06-.02-.06-.02l-.12-.05c-2.2-.88-4.28-1.31-6.17-1.27-8.45.13-11.09,9.22-11.53,11.05v.05c-.07.23.08.45.31.51.07.02.14,0,.2,0,.21.02.42-.11.48-.32v.06c.03-.09.26-.33.5-.53,2.39-1.12,4.79-1.71,7.15-1.74,2.93-.03,5.83.76,8.63,2.36,4.53,2.58,7.37,6.46,7.84,7.14.13.19.32.3.47.3s.33-.1.46-.3Z"/>
                <path class="cls-8" d="M87.21,52.75c0,5.84-4.73,10.56-10.57,10.56s-10.56-4.73-10.56-10.56,4.73-10.57,10.56-10.57,10.57,4.73,10.57,10.57Z"/>
              </g>
            </g>
            <path class="cls-8" d="M113.56,24.3s0-.1,0-.15c0-.71-.2-1.33-.6-1.83-.67-.88-1.68-1.32-3.01-1.32h-9.94l-2.92,8.54c-.18.54-.6,1.09-1.23,1.65-.61.39-1.21.6-1.77.64-.6-.04-.99-.21-1.2-.54-.14-.23-.21-.48-.21-.76,0-.23.04-.48.14-.75l3-8.77h-3.88l-2.74,8.03c-.18.51-.3.99-.37,1.46l-.45-9.48h-3.51l-9.49,12.86c-.39-1.51-1.06-4.12-1.15-4.5.88-.34,1.69-.8,2.41-1.4h0s0-.02,0-.02c.74-.71,1.3-1.51,1.65-2.36v-.02s.02-.02.02-.02c.14-.5.22-.96.22-1.39,0-.71-.2-1.33-.6-1.83-.67-.88-1.69-1.32-3.01-1.32h-9.87s-1.8,5.26-2.38,6.95c-.42-1.71-1.73-6.95-1.73-6.95h-4.11l-4.28,12.51-.6-12.51h-3.51l-10.29,13.95h4.25s1.51-2.14,1.7-2.41h4.4c0,.52.03,2.41.03,2.41h7.4s1.85-5.39,2.42-7.07c.43,1.71,1.78,7.07,1.78,7.07h7.54s1.62-4.72,1.76-5.16h.9c.1.53.93,5.16.93,5.16h7.55s1.51-2.14,1.7-2.41h4.39c0,.52.04,2.41.04,2.41h4.09l-.12-2.36c.12.39.29.74.52,1.07.75,1.05,2,1.59,3.72,1.59s3.3-.51,4.7-1.51c.9-.64,1.65-1.42,2.23-2.34l-1.21,3.55h3.82s1.62-4.72,1.77-5.16h.9c.09.53.93,5.16.93,5.16h14.39l1.21-3.54h-6.98c.2-.58.56-1.65.67-1.98h5.31l1.21-3.55h-5.3c.16-.49.38-1.11.48-1.39h6.98l1.19-3.49h-10.78l-1.13,3.3ZM46.65,29.03c.43-.6,1.09-1.53,1.67-2.37.04.95.08,1.94.1,2.37h-1.77ZM74.09,25.26c-.1.29-.32.57-.64.84-.35.2-.69.3-1.03.3h-2.03c.2-.59.61-1.77.72-2.1h2.28c.29,0,.52.09.69.29.03.04.08.13.08.29,0,.1-.02.22-.07.39ZM83.07,29.03c.42-.6,1.08-1.53,1.67-2.37.04.95.09,1.94.1,2.37h-1.77ZM109.12,25.26c-.1.29-.31.57-.63.84-.35.2-.69.3-1.03.3h-2.03c.2-.59.61-1.77.72-2.1h2.27c.29,0,.52.09.69.29.03.04.08.13.08.29,0,.1-.02.22-.08.39ZM110.36,33.68c-.39-1.53-1.01-3.94-1.1-4.31.88-.34,1.69-.8,2.42-1.4h.01s0-.02,0-.02c.41-.4.77-.82,1.06-1.27l-2.39,7ZM43.99,17.57s-5.9,9.22-7.08,11.06c.08-2.1.42-11.06.42-11.06h-4.87l.25,17.38h4.13s10.74-15.38,10.96-15.67h78.27l.59-1.71H43.99Z"/>
          </g>
        </g>
        <g>
          <path class="cls-7" d="M72.31,114.81c-.04.31-.19.59-.44.84-.26.22-.52.34-.82.36-.17-.02-.34-.08-.5-.15-.16-.08-.26-.11-.31-.11-.08,0-.16.03-.23.08l-.24.18.14-1.54.16-.03c0,.36.09.66.29.93.2.26.43.4.67.41.14,0,.29-.08.47-.24.15-.14.25-.3.26-.47.04-.31-.08-.57-.37-.77-.17-.1-.44-.27-.79-.49-.28-.2-.39-.46-.35-.76.05-.28.2-.52.45-.7.23-.18.49-.27.79-.27.1,0,.23.04.4.1.16.06.27.08.32.08.04,0,.13-.03.29-.08l-.1,1.18h-.16c-.06-.36-.13-.6-.22-.76-.14-.19-.33-.29-.58-.29-.17,0-.31.05-.43.15-.12.1-.2.22-.22.36-.02.17.08.33.33.48.45.28.73.48.84.56.29.24.4.55.33.96Z"/>
          <path class="cls-7" d="M74.45,115.93h-1.64l.03-.21h.05c.29,0,.46-.14.51-.43l.4-2.35c.03-.18.02-.29-.05-.35-.05-.04-.17-.06-.36-.06l.04-.17c.32,0,.72-.09,1.21-.27l-.57,3.2c-.02.16-.02.28.01.35.07.06.17.09.31.09h.08l-.03.21ZM74.95,111.02c-.03.15-.1.28-.21.41-.1.1-.24.16-.4.17-.14-.01-.26-.07-.34-.18-.08-.1-.11-.23-.08-.4.02-.17.1-.31.22-.42.11-.11.25-.16.4-.16.15,0,.26.06.35.18.05.1.07.24.05.39Z"/>
          <path class="cls-7" d="M77.84,115.92h-1.35l.04-.21c.22-.01.36-.13.39-.35l.41-2.32c.07-.41-.01-.62-.23-.62-.23,0-.49.15-.77.44l-.44,2.5c-.03.23.05.34.25.35l-.04.21h-1.34l.03-.21c.23-.01.36-.13.4-.35l.48-2.68c.02-.11,0-.19-.02-.22-.05-.04-.14-.07-.25-.07l.04-.17c.19,0,.39-.04.61-.12l.45-.2-.12.67c.29-.33.62-.5.99-.5.55,0,.76.37.63,1.11l-.38,2.18c-.04.23.05.34.26.35l-.03.21Z"/>
          <path class="cls-7" d="M80.73,114.54c-.13.42-.33.77-.56,1.05-.28.25-.59.38-.92.41-.49-.03-.82-.22-1.02-.56-.22-.37-.27-.84-.17-1.42.09-.53.31-.99.66-1.37.35-.38.75-.58,1.21-.58.37,0,.65.11.81.32.13.16.19.36.17.59-.04.17-.11.29-.18.37-.08.08-.19.12-.32.12-.11,0-.2-.04-.26-.12-.05-.08-.07-.19-.05-.31.02-.12.06-.22.11-.29.05-.1.08-.16.08-.18,0-.18-.12-.26-.38-.26-.22,0-.43.16-.64.47-.22.35-.37.74-.46,1.18-.11.59-.1,1.02.01,1.3.1.26.32.4.63.41.19-.01.4-.13.62-.35.2-.24.35-.51.46-.81l.19.03Z"/>
          <path class="cls-7" d="M83.52,113.96h-1.94c-.19,1.13-.05,1.7.47,1.72.2-.01.42-.1.63-.26.17-.17.34-.41.49-.7l.17.03c-.36.85-.86,1.26-1.51,1.26-.41,0-.71-.2-.91-.57-.2-.37-.25-.83-.15-1.38.09-.54.3-1,.65-1.4.32-.38.7-.58,1.13-.58.38,0,.67.17.84.5.18.33.22.78.14,1.39ZM82.8,113.8c.15-.99.05-1.49-.3-1.49-.15,0-.31.13-.46.38-.2.28-.34.65-.44,1.11h1.2Z"/>
          <path class="cls-7" d="M72.92,120.55l-.49,1.58h-2.43l.14-.69c.08-.15.19-.31.34-.49.17-.18.34-.37.5-.56.2-.23.4-.45.61-.65.2-.21.29-.32.31-.33.29-.42.48-.79.53-1.1.11-.56-.07-.84-.54-.84-.16,0-.31.05-.44.14-.14.09-.22.2-.24.34-.02.08.02.13.09.17.12.07.2.12.2.13.06.08.09.19.07.34-.03.1-.1.19-.18.29-.11.09-.23.13-.36.13-.33-.01-.46-.26-.37-.71.06-.33.25-.6.55-.81.28-.19.58-.29.92-.29.43,0,.74.11.93.35.2.21.26.51.22.88-.08.32-.29.64-.63.97-.25.18-.63.45-1.11.82-.56.47-.93.84-1.1,1.12h1.47c.14-.01.29-.08.43-.21.09-.11.23-.3.39-.58h.18Z"/>
          <path class="cls-7" d="M76.39,119.71c-.13.72-.38,1.33-.72,1.84-.33.42-.7.63-1.11.65-.41-.01-.69-.23-.84-.65-.16-.46-.16-1.08-.02-1.84.15-.78.39-1.41.73-1.87.31-.42.67-.63,1.09-.63s.72.21.86.63c.16.46.17,1.08.01,1.87ZM75.64,119.71c.14-.77.21-1.38.19-1.85-.03-.28-.14-.42-.33-.42-.21,0-.39.14-.53.42-.16.36-.33.97-.5,1.85-.17.86-.24,1.47-.2,1.81.03.3.15.44.37.46.18-.02.34-.16.5-.46.2-.48.37-1.08.51-1.81Z"/>
          <path class="cls-7" d="M79.74,119.71c-.13.72-.38,1.33-.72,1.84-.33.42-.7.63-1.11.65-.41-.01-.69-.23-.84-.65-.16-.46-.16-1.08-.02-1.84.15-.78.39-1.41.72-1.87.32-.42.67-.63,1.09-.63s.72.21.86.63c.16.46.16,1.08.01,1.87ZM78.98,119.71c.15-.77.22-1.38.2-1.85-.02-.28-.14-.42-.33-.42-.21,0-.39.14-.53.42-.17.36-.34.97-.5,1.85-.17.86-.24,1.47-.2,1.81.04.3.15.44.37.46.18-.02.35-.16.5-.46.2-.48.37-1.08.5-1.81Z"/>
          <path class="cls-7" d="M82.92,120.59c-.09.46-.29.84-.61,1.17-.32.28-.68.43-1.07.44-.42-.01-.7-.21-.86-.58-.19-.46-.2-1.11-.04-1.95.08-.39.18-.73.3-1,.11-.23.26-.48.45-.73.39-.49.84-.74,1.37-.74.27,0,.48.07.64.22.17.16.23.37.18.64-.02.15-.09.27-.2.37-.12.1-.24.15-.38.15-.11,0-.2-.03-.25-.11-.07-.09-.08-.18-.06-.3.02-.09.08-.19.19-.3.12-.1.2-.18.21-.25.01-.05-.02-.1-.08-.15-.06-.06-.14-.09-.24-.09-.28,0-.51.15-.69.46-.21.33-.39.88-.53,1.61.29-.23.57-.34.85-.34.3,0,.54.13.71.37.16.29.2.66.12,1.09ZM82.05,120.58c.15-.77.05-1.16-.27-1.16-.15,0-.36.11-.59.33-.17.77-.25,1.32-.23,1.68.01.35.13.53.32.55.34-.02.6-.48.77-1.39Z"/>
        </g>
        <g>
          <g>
            <g>
              <path class="cls-9" d="M52.85,40.03c0,.28,0,.91.08,1.14.1.29.44.29.69.29v.2c-.39,0-.78-.03-1.17-.04-.4,0-.82.03-1.21.04v-.2c.25,0,.59,0,.69-.29.08-.23.08-.86.08-1.14v-2.41c0-.27,0-.9-.08-1.13-.11-.29-.44-.29-.69-.29v-.2c.37.02.76.03,1.15.03.42,0,.82-.02,1.23-.03v.2c-.26,0-.59,0-.69.29-.08.23-.08.86-.08,1.13v1h2.88v-1c0-.27,0-.9-.08-1.13-.11-.29-.43-.29-.69-.29v-.2c.39.02.78.03,1.17.03.41,0,.8-.02,1.21-.03v.2c-.26,0-.59,0-.69.29-.08.23-.08.86-.08,1.13v2.41c0,.28,0,.91.08,1.14.11.29.44.29.69.29v.2c-.38,0-.78-.03-1.17-.04-.4,0-.81.03-1.21.04v-.2c.26,0,.59,0,.69-.29.08-.23.08-.86.08-1.14v-1.14h-2.88v1.14Z"/>
              <path class="cls-9" d="M58.88,39.81c-.12.33-.39.96-.39,1.29,0,.37.42.35.66.37v.2c-.3,0-.59-.03-.89-.04-.29,0-.56.03-.84.04v-.2c.44-.05.62-.19.77-.61.23-.54.44-1.09.67-1.63l1.24-3.36h.28l1.62,4.34c.1.23.28.75.42.94.18.25.42.29.69.32v.2c-.37,0-.76-.03-1.14-.04-.39,0-.79.03-1.18.04v-.2c.24-.01.63,0,.63-.32,0-.22-.09-.47-.16-.67l-.32-.87h-1.99l-.07.21ZM60.85,39.32l-.89-2.41-.91,2.41h1.8Z"/>
              <path class="cls-9" d="M67.92,36.03h.11l.07,1.68h-.18c-.14-.95-.77-1.61-1.71-1.61-1.44,0-1.88,1.51-1.88,2.79s.47,2.67,1.9,2.67c1.12,0,1.54-.86,1.79-1.88h.14v1.87h-.11l-.19-.43c-.55.45-1.09.64-1.79.64-1.64,0-2.75-1.12-2.75-2.86s1.19-3,2.83-3c.67,0,1.09.17,1.64.54l.13-.4Z"/>
              <path class="cls-9" d="M70.31,40.03c0,.28,0,.91.08,1.14.1.29.43.29.69.29v.2c-.39,0-.78-.03-1.17-.04-.4,0-.81.03-1.21.04v-.2c.26,0,.59,0,.7-.29.08-.23.08-.86.08-1.14v-2.41c0-.27,0-.9-.08-1.13-.11-.29-.44-.29-.7-.29v-.2c.38.02.77.03,1.16.03.41,0,.81-.02,1.22-.03v.2c-.26,0-.59,0-.69.29-.08.23-.08.86-.08,1.13v1h2.89v-1c0-.27,0-.9-.08-1.13-.11-.29-.44-.29-.7-.29v-.2c.39.02.78.03,1.18.03.4,0,.79-.02,1.21-.03v.2c-.26,0-.6,0-.7.29-.08.23-.08.86-.08,1.13v2.41c0,.28,0,.91.08,1.14.11.29.44.29.7.29v.2c-.39,0-.79-.03-1.17-.04-.41,0-.81.03-1.22.04v-.2c.26,0,.59,0,.7-.29.08-.23.08-.86.08-1.14v-1.14h-2.89v1.14Z"/>
              <path class="cls-9" d="M76.11,37.62c0-.27,0-.9-.08-1.13-.11-.29-.44-.29-.71-.29v-.2c.4.02.79.03,1.18.03.41,0,.81-.02,1.21-.03v.2c-.26,0-.59,0-.69.29-.08.23-.08.86-.08,1.13v2.41c0,.28,0,.91.08,1.14.1.29.43.29.69.29v.2c-.38,0-.76-.03-1.16-.04-.4,0-.81.03-1.23.04v-.2c.27,0,.6,0,.71-.29.08-.23.08-.86.08-1.14v-2.41Z"/>
              <path class="cls-9" d="M79.03,36.71c-.25-.37-.44-.5-.88-.51v-.2c.26.02.51.03.76.03.22,0,.43-.02.64-.03l3.42,4.39h0v-2.37c0-.37,0-.96-.07-1.32-.09-.48-.31-.44-.72-.51v-.2c.31.02.6.03.89.03.28,0,.55-.02.85-.03v.2c-.3.03-.51,0-.6.37-.09.27-.11,1.16-.11,1.5v3.68h-.25c-.18-.23-.35-.47-.53-.71l-3.16-4.05h-.01v2.87c0,.32,0,.95.11,1.25.15.33.41.32.71.35v.2c-.3,0-.63-.03-.93-.04-.29,0-.6.03-.89.04v-.2c.31-.03.61-.05.69-.42.06-.31.06-.85.06-1.18v-3.15Z"/>
              <path class="cls-9" d="M84.5,38.85c0-1.69,1.4-2.95,2.96-2.95s2.91,1.21,2.91,2.89-1.3,2.97-2.94,2.97-2.93-1.19-2.93-2.91ZM85.5,38.85c0,1.35.51,2.68,1.98,2.68s1.87-1.43,1.87-2.7-.5-2.69-1.92-2.69-1.93,1.45-1.93,2.71Z"/>
              <path class="cls-9" d="M92.62,40.03c0,.28,0,.91.08,1.14.1.29.44.29.7.29v.2c-.38,0-.79-.03-1.17-.04-.4,0-.82.03-1.21.04v-.2c.25,0,.59,0,.69-.29.09-.23.09-.86.09-1.14v-2.41c0-.27,0-.9-.09-1.13-.11-.29-.44-.29-.69-.29v-.2c.37.02.77.03,1.15.03.41,0,.81-.02,1.23-.03v.2c-.26,0-.6,0-.7.29-.08.23-.08.86-.08,1.13v1h2.88v-1c0-.27,0-.9-.08-1.13-.1-.29-.43-.29-.7-.29v-.2c.4.02.79.03,1.18.03.4,0,.8-.02,1.2-.03v.2c-.25,0-.59,0-.69.29-.08.23-.08.86-.08,1.13v2.41c0,.28,0,.91.08,1.14.1.29.44.29.69.29v.2c-.38,0-.78-.03-1.18-.04-.4,0-.8.03-1.21.04v-.2c.26,0,.59,0,.7-.29.08-.23.08-.86.08-1.14v-1.14h-2.88v1.14Z"/>
              <path class="cls-9" d="M98.35,37.66c0-.27,0-.9-.08-1.14-.1-.29-.44-.29-.69-.29v-.23h4.01v1.29h-.18c-.16-1-.58-1.06-1.44-1.06h-.58c-.11,0-.18,0-.2.03-.02.04-.01.13-.01.32v2.02c1.11.05,1.27-.43,1.32-1.05h.19c-.01.39-.02.77-.04,1.16.02.35.02.71.04,1.06h-.19c-.12-.9-.55-.94-1.32-.94v1.4c0,.25,0,.66.15.86.21.3.72.32,1.04.31.84-.02,1.39-.13,1.49-1.15h.19l-.07,1.38h-4.4v-.2c.25,0,.59,0,.69-.29.08-.23.08-.86.08-1.13v-2.36Z"/>
            </g>
            <g>
              <path class="cls-9" d="M52.25,34.6h-3.36l-.03-2.4h-4.94l-1.7,2.4h-3.36l9.76-13.23h2.99l.64,13.23ZM48.8,29.39l-.16-3.79-2.68,3.79h2.84Z"/>
              <path class="cls-9" d="M63.91,34.6h-3.48l-2.01-7.98-2.73,7.98h-3.12l4.53-13.23h3.57l1.96,7.86,2.69-7.86h3.12l-4.53,13.23Z"/>
              <path class="cls-9" d="M75.19,34.6h-3.61l-.93-5.16h-1.46l-1.77,5.16h-3.06l4.53-13.23h6.03c1.22,0,2.13.4,2.73,1.19.57.72.67,1.68.32,2.9-.34.82-.86,1.56-1.57,2.25-.78.64-1.65,1.13-2.61,1.46l1.4,5.45ZM74.43,25.38c.15-.43.12-.77-.07-1.02-.24-.28-.57-.42-.97-.42h-2.53l-.97,2.83h2.54c.41,0,.82-.12,1.24-.36.39-.32.64-.66.77-1.02Z"/>
              <path class="cls-9" d="M88.67,34.6h-3.36l-.03-2.4h-4.94l-1.7,2.4h-3.35l9.76-13.23h2.99l.63,13.23ZM85.22,29.39l-.17-3.79-2.68,3.79h2.85Z"/>
              <path class="cls-9" d="M100.8,29.15c-.62,1.81-1.67,3.25-3.15,4.3-1.34.96-2.83,1.44-4.48,1.44s-2.74-.48-3.43-1.44c-.75-1.06-.82-2.5-.2-4.3l2.66-7.78h3.11l-2.84,8.29c-.24.7-.21,1.31.11,1.82.27.44.78.68,1.51.71.64-.03,1.31-.27,2-.71.69-.61,1.14-1.22,1.35-1.82l2.84-8.29h3.19l-2.66,7.78Z"/>
              <path class="cls-9" d="M110.22,34.6h-3.61l-.94-5.16h-1.46l-1.76,5.16h-3.06l4.53-13.23h6.04c1.22,0,2.12.4,2.73,1.19.57.72.68,1.68.32,2.9-.34.82-.86,1.56-1.57,2.25-.78.64-1.65,1.13-2.61,1.46l1.39,5.45ZM109.46,25.38c.15-.43.13-.77-.07-1.02-.24-.28-.57-.42-.97-.42h-2.53l-.97,2.83h2.53c.41,0,.83-.12,1.24-.36.39-.32.65-.66.77-1.02Z"/>
              <path class="cls-9" d="M120.45,34.6h-10.02l4.52-13.23h10.03l-.95,2.77h-6.98l-.72,2.11h5.31l-.97,2.83h-5.3l-.92,2.7h6.98l-.97,2.82Z"/>
              <polygon class="cls-9" points="44.19 17.94 36.5 29.94 36.96 17.94 32.83 17.94 33.07 34.6 36.65 34.6 47.61 18.92 125.81 18.92 126.15 17.94 44.19 17.94"/>
            </g>
          </g>
          <g>
            <g>
              <path class="cls-9" d="M76.65,42.63c-5.58,0-10.11,4.53-10.11,10.12s4.53,10.12,10.11,10.12,10.12-4.53,10.12-10.12-4.53-10.12-10.12-10.12ZM79.12,62.09l1.36-2.35h-2.77l-1.06-1.84-1.07,1.84h-2.77l1.36,2.35c-1.48-.39-2.82-1.13-3.93-2.11h2.39l-1.39-2.4,1.39-2.41h-2.77l-1.06-1.84-1.07,1.84h-.43c-.2-.77-.31-1.59-.31-2.42s.11-1.65.31-2.43h.43l1.07,1.85,1.06-1.85h2.77l-1.39-2.4,1.39-2.4h-2.39c1.11-.98,2.45-1.72,3.92-2.11l-1.36,2.35h2.77l1.07,1.85,1.06-1.85h2.77l-1.36-2.35c1.48.39,2.82,1.12,3.93,2.11h-2.39l1.39,2.4-1.39,2.4h2.77l1.07,1.85,1.06-1.85h.43c.2.78.31,1.59.31,2.43s-.11,1.65-.31,2.42h-.44l-1.06-1.84-1.07,1.84h-2.77l1.39,2.4-1.39,2.4h2.39c-1.11.99-2.45,1.72-3.93,2.11Z"/>
              <polygon class="cls-9" points="77.71 50.34 76.65 48.5 75.58 50.34 72.81 50.34 74.2 52.75 72.81 55.14 75.58 55.14 76.65 56.99 77.71 55.14 80.49 55.14 79.09 52.75 80.49 50.34 77.71 50.34"/>
            </g>
            <path class="cls-9" d="M55.28,49.76h-.02c-1.32.33-3.11.78-4.43,2.01,0,0-.82.75-.82.75-1.79,1.59-5.51,4.9-5.51,7.19,0,2.59,1.98,4.94,4.82,5.72,1.13.31,2.54.62,3.91.92,2.19.47,4.08.87,4.88,1.31,0,0,.89.44.89.44.94.45,2,.96,3.6,2.24.66.53,1.23.89,1.74,1.2.73.45,1.36.84,1.9,1.53.12.16.12.37.01.53-.11.16-.32.23-.51.17-1.5-.48-3.41-.88-5.71-1.2-.37-.05-.75-.08-1.2-.09-.3-.01-.61,0-.98.02-.17.01-.34-.07-.42-.22-.17-.3-.49-.54-.83-.79-.31-.23-.62-.47-.89-.79-.61-.7-2.93-1.54-4.3-1.54-.64,0-1.95.25-3.21.5-1.41.27-2.87.55-3.71.55-1.25,0-1.47-.09-2.4-.57l-1.03-.51c-1.92-.92-3.25-2.08-4.45-3.88-.33-.48-.46-1.04-.46-1.62,0-1.35.69-2.89,1.28-4.19l.39-.89c.07-.18.1-.29.11-.36-.19.01-.59.14-.92.32-.23.2-1.48,1.33-2.84,3.19-.87,1.19-1.13,2.89-1.13,4.38,0,1.01.12,1.93.26,2.55.29,1.33,2.06,2.68,5.11,3.91,2.52,1.02,7.08-.48,8.96-1.51,1.44-.78,3.29-.97,5.67-.57.76.12,1.58.75,2.48,1.91.06.08.1.18.1.28,0,.04,0,.08-.02.12-.04.14-.14.25-.28.3-3.25,1.17-5.28,3.8-6.05,4.79-.21.28-.3.39-.4.47-.13.09-.29.14-.47.19.11.02.22.04.35.04h.04c.17.01.37-.02.57-.07.67-.18,1.27-.26,1.89-.26.6.01,1.12.1,1.63.19.93.17,1.6.61,2.09.94h.02c.16.12.24.32.18.51-.05.19-.23.32-.42.33-1.06.02-2.31.1-3.42.18l-.83.05c-1.98.12-4.09,1.98-4.75,2.81-.84,1.05-2.08,1.75-3.59,2.02-1.52.27-3.06-.09-4.12-.96-.82-.67-1.33-1.98-1.78-3.14l-.27-.67c-.03-.07-.05-.12-.07-.16-.07.14-.13.36-.13.64,0,.1.01.21.03.33.22,1.14,1.11,3.54,2.16,5.42,1.01,1.81,4.1,2.2,4.89,2.14.76-.05,2.81-.97,3.35-2.97.64-2.37,2.83-3.64,4.55-4.27.83-.31,2.6-.5,5.39-.59.16,0,.32.08.4.22.57.97,1.18,2.11,1.5,2.71.08.15.07.33-.02.47-.1.14-.26.21-.42.19-1.16-.14-2.48-.08-4.03.18-1.22.21-3.84,2.22-5.29,3.53-1.05.95-2.8,2.97-3.34,4.69-.62,2.03-2.97,4.02-4.82,4.09-1.92.08-4.48-2.02-5.68-3.54-1.17-1.49-1-4.33-.93-5.54l.02-.43c0-.51-.14-.69-.63-.83-.03,0-.04,0-.05,0-.15.09-.29.49-.34.74-.01.32-.07,2.49-.07,3.52,0,.94.28,3.02,2.15,6.4,1.89,3.39,6.53,4.34,8.44,4.59.52,0,3.88-1.2,4.42-2.79.71-2.08.93-4.74,1.08-6.51l.02-.27c.29-3.22,1.57-4.04,3.89-5.52l.58-.37c2.01-1.3,4.76-1.02,6.21-.75.09.02.16.06.23.12.45.43,1.19,1.05,2.11,1.59,1.02.59,2.06.83,3.16,1.08.86.19,1.74.39,2.65.77.64.26,1.21.71,1.67,1.33.83,1.14,1.06,2.45,1.06,2.56,0,.16-.08.29-.21.38-.13.08-.29.09-.43.03l-.9-.39-.12-.05c-2.08-.83-4.04-1.24-5.82-1.2-6.5.1-9.29,6.06-10.28,9.02,2.45-1.13,4.93-1.73,7.37-1.76,3.09-.03,6.15.79,9.09,2.47,4.14,2.36,6.92,5.77,7.86,7.03,1.58-2.1,7.84-9.58,16.92-9.51,2.44.03,4.91.62,7.37,1.74-1.04-3.17-3.81-8.92-10.27-9.01-2.05-.04-4.34.5-6.79,1.61-.15.07-.33.05-.46-.05-.14-.1-.2-.27-.17-.43.02-.12.5-2.88,2.72-3.79.9-.38,1.79-.58,2.64-.77,1.1-.25,2.14-.49,3.14-1.08.74-.43,1.45-.96,2.1-1.57.06-.06.13-.09.22-.11,1.48-.3,4.27-.61,6.32.72l.6.38c2.25,1.44,3.61,2.3,3.9,5.5l.04.48c.16,1.72.39,4.31,1.07,6.31.54,1.59,3.91,2.79,4.45,2.79,1.9-.25,6.56-1.2,8.46-4.6,1.88-3.36,2.15-5.44,2.15-6.39,0-1.03-.06-3.2-.07-3.52-.06-.29-.21-.65-.34-.74,0-.02-.02-.02-.05,0-.55.15-.63.37-.63.83l.02.43c.08,1.21.25,4.05-.93,5.54-1.2,1.52-3.76,3.62-5.7,3.54-1.87-.07-4.23-2.06-4.85-4.09-.52-1.71-2.29-3.74-3.35-4.69-1.47-1.3-4.09-3.32-5.32-3.53-1.58-.27-2.93-.33-4.14-.17-.17.02-.33-.05-.43-.19-.1-.14-.11-.33-.03-.47.43-.82,1-1.87,1.51-2.73.08-.14.24-.22.4-.22,2.79.08,4.64.28,5.51.59,1.73.63,3.92,1.89,4.58,4.27.53,2,2.59,2.93,3.36,2.97.79.06,3.89-.33,4.9-2.14,1.14-2.04,1.98-4.44,2.18-5.43.02-.11.03-.22.03-.33,0-.28-.07-.5-.13-.64-.02.04-.05.09-.08.16l-.27.69c-.45,1.15-.96,2.46-1.78,3.13-1.06.88-2.61,1.23-4.13.96-1.52-.27-2.77-.97-3.61-2.02-.66-.82-2.78-2.68-4.78-2.81l-.82-.05c-1.16-.08-2.47-.16-3.56-.19-.2,0-.37-.14-.42-.33-.05-.19.02-.39.19-.5l.1-.07c.48-.3,1.13-.71,1.99-.87.54-.09,1.07-.17,1.64-.19.64,0,1.25.09,1.92.26.22.06.41.09.59.07h.01c.12,0,.21-.02.3-.04-.17-.04-.34-.1-.46-.19-.11-.07-.19-.19-.41-.47-.75-.98-2.76-3.57-5.95-4.76-.13-.05-.24-.16-.28-.29,0-.04-.02-.09-.02-.13,0-.1.03-.2.1-.28.92-1.19,1.74-1.82,2.52-1.94,2.38-.4,4.24-.21,5.68.57,1.45.79,6.27,2.62,9.01,1.51,3.06-1.24,4.83-2.59,5.12-3.91.14-.61.27-1.54.27-2.55,0-1.49-.27-3.18-1.15-4.38-1.35-1.86-2.62-2.99-2.85-3.19-.33-.17-.72-.3-.92-.32,0,.07.04.18.11.36l.39.89c.59,1.3,1.28,2.84,1.28,4.19,0,.59-.13,1.15-.46,1.63-1.2,1.8-2.54,2.95-4.48,3.88l-1.03.51c-.94.49-1.15.57-2.41.57-.84,0-2.31-.27-3.72-.54-1.28-.24-2.6-.5-3.24-.5-1.37,0-3.72.84-4.32,1.55-.27.31-.58.55-.88.77-.34.26-.66.5-.84.81-.09.15-.25.23-.41.22,0,0-.29-.02-.32-.02-.02,0-.16,0-.16,0h-.18c-.56-.02-1.09,0-1.62.08-2.25.31-4.14.7-5.63,1.16-.19.06-.39,0-.5-.17-.11-.16-.11-.38.02-.53.53-.66,1.15-1.05,1.87-1.5.52-.31,1.1-.67,1.76-1.2,1.6-1.28,2.67-1.79,3.61-2.24l.9-.45c.8-.43,2.7-.84,4.9-1.32,1.37-.29,2.78-.59,3.92-.91,2.85-.78,4.84-3.13,4.84-5.72,0-2.3-3.76-5.62-5.57-7.22l-.8-.71c-1.31-1.23-3.11-1.68-4.43-2h-.02c-.2-.06-.36-.07-.47-.07.19.17.61.46,1.41.8h0c3.53,1.49,3.69,6.63,3.6,8.76-.14,3.45-4.56,6.14-7.48,7.92l-.72.44c-1.27.79-2.5,1.42-3.79,2.08-1.48.75-3,1.54-4.87,2.69-1.38.84-2.23,1.91-2.54,3.18-.04.14-.14.26-.28.31-.56.21-1.29.46-1.87.64-.12.04-.25.02-.37-.04-.11-.06-.19-.17-.21-.3-.06-.26-.08-.52-.08-.78,0-2.09,1.65-3.92,4.92-5.44.8-.38,1.24-.52,1.71-.68.54-.18,1.11-.37,2.36-.96,2.33-1.09,3.95-3.15,4.35-4.62.02-.09.03-.18.03-.27,0-.99-1.2-2.56-2.09-3.73-.45-.59-.88-1.15-1.15-1.61-.62-1.06-2.96-1.79-4.36-1.94,1.62.57,2.96,4.31,3.26,5.36.1.37.15.74.15,1.11,0,1.72-1.08,3.4-2.95,4.49-.6.35-1.2.66-1.77.97-1.52.8-2.95,1.55-4.36,2.93-.74.73-1.13,2.22-1.13,4.24,0,.44.02.9.05,1.38v.04c0,.2-.13.38-.33.43-1.43.39-1.87.46-2.05.46-.09.03-.35.09-.35.09-.07.02-.15.02-.23,0,0,0-.25-.07-.34-.09-.19,0-.64-.07-2.04-.46-.19-.05-.33-.23-.33-.43v-.03c.03-.41.06-.88.06-1.4,0-1.52-.22-3.33-1.13-4.23-1.39-1.38-2.82-2.13-4.32-2.93-.58-.31-1.17-.62-1.77-.97-1.87-1.1-2.94-2.78-2.94-4.49,0-.37.05-.74.15-1.11.29-1.04,1.63-4.77,3.23-5.36-1.38.15-3.71.88-4.32,1.94-.27.45-.69,1.01-1.13,1.59-.89,1.18-2.09,2.75-2.09,3.74,0,.09,0,.18.03.27.39,1.47,2,3.52,4.32,4.62,1.25.59,1.8.78,2.34.96.47.16.9.31,1.7.68,3.26,1.52,4.9,3.35,4.9,5.44,0,.26-.03.52-.08.8-.02.12-.1.23-.21.3-.11.07-.24.08-.36.04-.81-.26-1.4-.46-1.86-.63-.14-.05-.25-.17-.28-.31-.31-1.28-1.17-2.36-2.54-3.2-1.85-1.15-3.37-1.93-4.84-2.69-1.29-.66-2.5-1.29-3.77-2.08l-.71-.43c-2.92-1.78-7.32-4.48-7.47-7.93,0-.22-.01-.47-.01-.75,0-2.41.46-6.68,3.61-8.01.8-.34,1.22-.63,1.41-.8-.11,0-.26.01-.46.06Z"/>
          </g>
        </g>
      </g>
    </g>
  </g>
</svg>