<?xml version="1.0" encoding="UTF-8"?>
<svg id="_レイヤー_2" data-name="レイヤー 2" xmlns="http://www.w3.org/2000/svg" xmlns:xlink="http://www.w3.org/1999/xlink" viewBox="0 0 426.45 448.42">
  <defs>
    <style>
      .cls-1 {
        fill: none;
      }

      .cls-2 {
        fill: #221815;
      }

      .cls-3 {
        fill: #ffe100;
      }

      .cls-4 {
        fill: #9fa0a0;
      }

      .cls-5 {
        fill: #51318f;
      }

      .cls-6 {
        fill: #fff;
      }

      .cls-7 {
        fill: #bf9c46;
      }

      .cls-8 {
        clip-path: url(#clippath);
      }
    </style>
    <clipPath id="clippath">
      <path class="cls-1" d="M390.94,223.44c.07-12.49-5.34-22.53-15.6-29.03-.69-.44-1.39-.87-2.1-1.27-.77-.43-1.55-.85-2.34-1.22-11.64-5.67-23.69-4.48-34.15-2.53-5.83,1.33-9.45,2.5-11.74,3.46-1.46-1.46-3.03-2.84-4.74-4.07-.97-.67-6.37-4.22-14.15-5.76-.48-2.22-.98-3.96-1.26-4.88-.01-.05-.23-.79-.25-.84-1.29-3.88-4.26-11.63-9.68-19.89-6.8-10.34-15.02-17.72-24.49-21.96-15.15-6.65-29.01-3.93-42.64,8.55-6.19,6.4-11.53,14.18-15.87,23.1-.54,1.12-4.52,10.56-4.96,11.86-1.56,4.27-6.56,19.27-5.14,33.03.89,10.47,5.87,20.97,13,27.42.12.11.54.44.67.53,7.94,6.03,16.67,9.07,25.99,9.07,1.13,0,2.27-.05,3.42-.13,12.05-.93,21.23-4.61,21.51-4.72,1.18-.45,2.22-.93,3.33-1.4,3.32,4.59,7.6,8.48,12.65,11.05,6.29,3.17,11.23,4.29,15.81,4.29.67,0,1.31-.14,1.97-.18.25.54.51,1.09.92,1.73,9.83,18.52,24.19,24.87,33.25,24.47.58.03,1.17.05,1.76.05,15.78,0,33.72-11.18,44.46-28.18l.53-.88c3.53-5.77,8.87-14.5,9.85-31.66Z"/>
    </clipPath>
  </defs>
  <g id="_レイヤー_1-2" data-name="レイヤー 1">
    <g>
      <path class="cls-5" d="M426.45,230.91c0,117.76-84.41,196.43-213.22,196.43S0,348.67,0,230.91,95.46,17.68,213.22,17.68s213.22,95.46,213.22,213.22Z"/>
      <g>
        <g>
          <path class="cls-2" d="M419.51,299.46c-1.3-.72-2.84-1.24-3.8-1.44-6.81-1.4-13.64-2.18-20.31-2.33-3.7-.09-7.16,0-10.49.16-1.79-20.11-8.09-39.31-19.27-58.27,1.62-9.72,2.12-22.36,2.53-32.66l.21-5.17c.84-18.75-5.88-43.26-14.38-52.46-2.12-2.29-5.31-4.04-8.12-4.45-21.54-3.21-49.87,5.34-81.73,24.67l-4-.59c-26.18-3.9-58.77-8.75-103.06,1.53-1.4.32-2.95.78-4.54,1.26-2.37.71-6.76,1.98-7.92,1.68-8.49-4.64-30.28-15.71-49.14-18.5-17.53-2.61-29.09.83-34.52,10.31-15.37,28.86-7.65,69.07-4.44,79.47-16,31.01-15.7,63.87-15.6,67.47-.01.84.03,1.72.04,2.58-.84.06-1.6.09-2.48.16-8.93.71-17.8,1.58-28.07,4.44-3.34.92-6.41,3.14-5.81,5.59.47,1.92,2.84,2.34,4.83,2.34,1.54,0,2.85-.25,2.89-.26,10.63-2.17,16.02-2.75,23.47-3.55l3.14-.34c.81-.09,1.61-.13,2.42-.2.81,9.68,2.85,19.99,6.48,30.18-4.44,1.67-9.56,3.89-15.71,7.07-.04.02-3.98,2.08-4.74,4.62-.23.78-.15,1.56.23,2.24.62,1.11,1.92,1.46,3.31,1.46,2.3,0,4.82-.95,4.86-.96,1.84-.81,3.57-1.58,5.21-2.31,3.72-1.66,6.96-3.05,10-4.23,3.93,8.9,9.09,17.53,15.73,25.34-6.84,3.96-15.09,9.33-24.43,16.6-1.94,1.52-3.19,3.45-3.41,5.32-.12,1.04.11,1.99.65,2.67.41.51,1.18.73,2.1.73,1.62,0,3.71-.68,5.14-1.7,10.26-7.27,19.16-12.89,26.15-17.04,7.51,7.31,16.5,13.67,27.22,18.49,35.27,15.84,67.77,19.4,108.95,20l4.04-.06,4.36.06c47.38-.7,84.81-7.46,111.26-20.11,15.35-7.34,27.56-17.24,36.7-29.54,7.64,2.61,16.9,6.62,25.83,12.66,1.14.79,3.45,2.17,5.5,2.17.92,0,1.79-.27,2.47-1.01.29-.3.61-.85.53-1.73-.17-1.86-2.23-4.46-3.56-5.43-9.12-6.66-18.28-10.95-26.01-13.74,5.25-8.67,9.17-18.37,11.72-29.12,5.64.9,12.22,2.35,19.44,4.77.04,0,2.17.71,4.26.71,1.57,0,3.11-.39,3.7-1.78.27-.63.26-1.33-.03-2.02-1.04-2.48-5.39-4.32-5.43-4.33-7.12-2.82-14.12-4.47-20.3-5.49,1.35-8.14,2-16.8,1.93-26,.02-1.57-.07-3.12-.1-4.67,2.94-.16,5.97-.26,9.16-.22,4.96.05,10.48.42,15.35.74,1.52.1,2.99.19,4.4.28,3.19.18,7.1-.41,7.57-2.73.17-.81-.11-2.03-2.36-3.29Z"/>
          <path class="cls-6" d="M354.53,237.6c1.76-9.13,2.29-22.42,2.71-33.11l.22-5.23c.76-16.97-5.67-38.25-11.49-44.55-.51-.56-1.4-.99-1.72-1.06-18.78-2.76-45.27,5.51-74.57,23.31-2.08,1.26-3.22,1.95-5.23,1.65l-5.91-.87c-25.25-3.76-56.69-8.45-98.98,1.36-1.2.27-2.52.68-3.88,1.08-5.38,1.6-11.46,3.43-16.3.79-7.98-4.35-28.38-14.75-45.5-17.28-12.59-1.85-20.45-.25-23.34,4.78-10.47,19.65-8.42,46.45-5.73,61.45.72-.85,1.42-1.62,2.07-2.27,2.63-2.63,5.32-3.6,7.16-2.33,1.91,1.32,1.15,4.66-.08,7.33-1.22,2.65-3.69,7.76-5.63,11.18,0,0,0,.01,0,.02-16.85,29.6-16.54,62.53-16.45,66.2,0,.74.03,1.51.04,2.26,9.31.02,14.99,1,17.89,1.74l.21.05c.06.01,7.62,1.41,7.18,5.04-.39,3.23-4.98,2.99-7.2,2.87l-.82-.06c-2.44-.37-8.96-1.24-16.86-1.4.79,8.79,2.71,18.09,6.01,27.25,4.52-1.04,7.71-1.28,9.83-1.4l.29-.02c2.79-.15,9.39-.25,9.73,3.07.3,2.87-4.87,4.24-7.11,4.7-1.04.21-2.16.36-3.41.53-1.75.24-3.74.52-6.09,1.02,3.77,8.24,8.76,16.15,15.14,23.24,6.63-3.22,10.45-4.39,10.53-4.42.06-.03,6.57-1.68,7.84,1.28,1.09,2.56-1.67,3.92-4.33,5.24-.85.42-1.74.86-2.55,1.35,0,0-.09.05-.26.13-1.03.51-2.75,1.4-5.02,2.62,6.17,5.56,13.32,10.43,21.71,14.2,33.54,15.07,64.84,18.45,104.45,19.04l4.04-.06,4.36.06c44.98-.67,81.88-7.25,106.54-19.04,12.36-5.91,22.38-13.54,30.16-22.9-3.71-.86-5.97-1.18-6.04-1.19-1.42-.14-5.85-1.17-7.34-3.19-.44-.61-.61-1.28-.47-1.94.75-3.62,7.32-2.9,10.09-2.43.35.03,3.75.38,9.03,1.65,5.2-7.94,9.03-16.98,11.53-27.1-2.33-.14-4.2-.17-5.48-.17-2.44.01-5.28-.05-5.28-.05-.74-.07-6.59-.76-6.82-3.68-.03-.39.05-1,.6-1.64,1.31-1.53,4.62-2.39,6.03-2.5l.31-.03c.84-.08,3.07-.3,5.31-.32h.61c1.62,0,3.81.05,6.42.22,1.29-7.68,1.93-15.9,1.86-24.75.01-1.24-.07-2.46-.09-3.69-6.85.85-12.47,1.97-16.3,2.74-1.96.39-3.38.68-4.24.78-1.38.2-2.56.3-3.55.3-2.31,0-3.58-.56-4-1.72-.29-.84-.23-1.74.18-2.59.74-1.52,2.53-2.81,5.19-3.71,2.09-.71,10.2-3.2,22.24-4.68-1.72-19.08-7.86-37.28-18.78-55.31-.7-1.16-.95-2.54-.69-3.87Z"/>
        </g>
        <g>
          <path class="cls-2" d="M115.31,319.28c-3.5,7.1-3.52,18.45,1.21,24.48,2.92,3.45,7.8,5.41,14.09,4.33,5.43-.94,8.52-5.9,9.55-9.85,2.23-8.84-.15-19.68-5.23-23.79-5.36-3.91-15.39-3.82-19.61,4.83Z"/>
          <path class="cls-2" d="M285.41,320.31c-3.5,7.1-3.52,18.45,1.21,24.48,2.92,3.45,7.8,5.41,14.09,4.33,5.43-.94,8.52-5.9,9.55-9.85,2.23-8.84-.14-19.68-5.23-23.79-5.36-3.91-15.39-3.82-19.61,4.83Z"/>
          <g>
            <path class="cls-2" d="M230.45,351.03c-1.17-4.16-4.32-7.43-8.44-8.76-7.86-2.55-15.82-1.48-20.77,2.79-5.16,4.56-5.41,12.65-2.18,16.84,2.99,3.87,7.72,5.9,14.48,6.2.31.01.63.02.94.02,5.41,0,10.44-1.98,13.31-5.27v-.02c2.83-3.28,3.82-7.69,2.67-11.81Z"/>
            <path class="cls-3" d="M219.9,348.77c-2.1-.68-4.24-1.01-6.25-1.01-3.19,0-6.05.84-7.91,2.45-2.45,2.17-2.29,6.18-1.26,7.52,1.68,2.18,4.74,3.34,9.35,3.54,4.27.17,7.46-1.38,8.79-2.9,1.34-1.56,1.79-3.55,1.24-5.49-.54-1.94-2.02-3.48-3.96-4.11Z"/>
          </g>
        </g>
      </g>
      <g>
        <g>
          <path class="cls-2" d="M174.31,409.11c-1.48-4.63-4.48-8.3-7.74-11.99-11.57-11.1-31.76-15.56-47.81-10.64-11.58,3.03-24.94,13.2-26.89,28.3-1.79,11.76,2.42,22.06,11.65,27.76,9.31,4.78,19.42,4.67,29.7-.17.87-.33,1.3-.24,3.57.72,1.42.61,3.17,1.34,5.28,1.7,3.57,1.03,6.76,1.46,9.57,1.46,7.46,0,12.38-3.02,15.44-6.04,7.97-7.84,10.94-20.61,7.23-31.1Z"/>
          <path class="cls-6" d="M163.97,412.69c-.03-.07-.05-.13-.07-.2-.84-2.65-3.05-5.31-5.25-7.82-8.41-8.05-24.41-11.47-36.92-7.67-8.41,2.21-17.79,9.67-19.04,19.29-.55,3.62-1.01,12.25,6.19,16.72,5.93,3.02,12.4,2.87,20-.7,1.9-.75,3.63-1.02,5.18-1.02,2.92,0,5.24.98,6.98,1.72,1.12.47,2.08.88,2.97,1.01.27.04.53.09.78.17,6.51,1.94,11.44,1.34,14.59-1.78,4.91-4.82,6.87-13.3,4.58-19.71Z"/>
        </g>
        <g>
          <path class="cls-2" d="M338.19,417.06c-1.98-15.21-15.33-25.39-26.69-28.34-16.27-4.97-36.47-.53-48.34,10.91-2.82,3.2-5.95,7-7.44,11.65-3.71,10.49-.74,23.27,7.22,31.1,3.07,3.03,8,6.05,15.45,6.05,2.81,0,5.99-.43,9.57-1.46,2.11-.36,3.86-1.1,5.28-1.7,2.29-.98,2.71-1.06,3.23-.88,10.61,5,20.73,5.1,30.44.1,8.83-5.48,13.04-15.78,11.27-27.43Z"/>
          <path class="cls-6" d="M327.35,418.59c-1.27-9.74-10.64-17.21-18.84-19.34-3.53-1.08-7.32-1.6-11.13-1.6-9.92,0-20.02,3.48-26.32,9.53-1.88,2.17-4.1,4.83-4.94,7.48-.02.07-.04.13-.07.2-2.29,6.41-.33,14.89,4.56,19.7,3.17,3.11,8.06,3.72,14.6,1.78.25-.07.51-.13.78-.17.89-.13,1.85-.53,2.97-1.01,2.67-1.14,6.69-2.83,11.82-.85,7.93,3.73,14.41,3.88,20.73.64,6.81-4.24,6.35-12.88,5.82-16.38Z"/>
        </g>
      </g>
      <g>
        <g class="cls-8">
          <rect class="cls-5" x="240.33" y="123.88" width="110.16" height="179.53" transform="translate(-23.06 391.08) rotate(-65)"/>
          <g>
            <rect class="cls-7" x="126.97" y="219.29" width="341.54" height="5.62" transform="translate(-29.49 397.88) rotate(-64.96)"/>
            <g>
              <rect class="cls-7" x="126.97" y="219.3" width="341.54" height="5.62"/>
              <rect class="cls-7" x="294.94" y="51.33" width="5.62" height="341.54" transform="translate(-73.11 243.35) rotate(-40)"/>
            </g>
          </g>
        </g>
        <path class="cls-2" d="M390.94,223.44c.07-12.49-5.34-22.53-15.6-29.03-.69-.44-1.39-.87-2.1-1.27-.77-.43-1.55-.85-2.34-1.22-11.64-5.67-23.69-4.48-34.15-2.53-5.83,1.33-9.45,2.5-11.74,3.46-1.46-1.46-3.03-2.84-4.74-4.07-.97-.67-6.37-4.22-14.15-5.76-.48-2.22-.98-3.96-1.26-4.88-.01-.05-.23-.79-.25-.84-1.29-3.88-4.26-11.63-9.68-19.89-6.8-10.34-15.02-17.72-24.49-21.96-15.15-6.65-29.01-3.93-42.64,8.55-6.19,6.4-11.53,14.18-15.87,23.1-.54,1.12-4.52,10.56-4.96,11.86-1.56,4.27-6.56,19.27-5.14,33.03.89,10.47,5.87,20.97,13,27.42.12.11.54.44.67.53,7.94,6.03,16.67,9.07,25.99,9.07,1.13,0,2.27-.05,3.42-.13,12.05-.93,21.23-4.61,21.51-4.72,1.18-.45,2.22-.93,3.33-1.4,3.32,4.59,7.6,8.48,12.65,11.05,6.29,3.17,11.23,4.29,15.81,4.29.67,0,1.31-.14,1.97-.18.25.54.51,1.09.92,1.73,9.83,18.52,24.19,24.87,33.25,24.47.58.03,1.17.05,1.76.05,15.78,0,33.72-11.18,44.46-28.18l.53-.88c3.53-5.77,8.87-14.5,9.85-31.66ZM262.41,233.96c-.08.03-8.08,3.2-18.37,4-11.87.91-19.45-4.85-21.88-6.66-5-4.53-8.79-12.66-9.45-20.34-1.18-11.51,3.16-24.52,4.61-28.48.39-1.06,3.95-9.57,4.44-10.59,3.84-7.9,8.52-14.72,13.66-20.06,10.24-9.37,19.41-11.29,30.57-6.38,7.49,3.35,14.15,9.4,19.77,17.96,4.92,7.49,7.54,14.61,8.32,16.9l.28.99c.1.33.23.76.37,1.26-3.12.38-6.39,1.21-9.76,2.67-.86.37-1.62.86-2.44,1.29-1.82-1.99-4.05-3.77-6.3-5.03-6.73-3.79-14.11-3.84-20.25-.13-6.59,4-10.46,11.71-9.86,19.44.23,6.03,2.69,11.16,7.12,14.82,2.87,2.37,6.27,3.78,9.4,4.6,0,.53-.07,1.05-.05,1.58.03,3.82.78,7.6,2.04,11.21-.76.31-1.43.63-2.24.94ZM264.12,209.27c-1.43-.51-2.96-1.24-4.22-2.39-1.79-1.63-2.71-3.75-2.82-6.7-.29-3.87,1.51-7.59,4.61-9.47,2.17-1.32,4.47-1.53,7.04-.66,2.02.68,3.67,1.86,4.9,2.98-4.48,4.46-7.75,9.99-9.5,16.23ZM306.89,245.66c-7.63,2.01-11.53,2.43-19.54-1.62-8.18-4.17-13.72-13.13-13.78-22.46-.43-11.82,5.62-21.89,15.78-26.29,3.44-1.49,6.75-2.05,9.77-2.05,8.05,0,14.03,3.93,14.85,4.49,9.03,6.49,13.34,17.88,10.69,28.51-2.49,11.49-10.8,17.57-17.75,19.43ZM371.63,249.6l-.6,1.01c-8.69,13.74-23.71,23.26-36.56,22.57-6.52.09-15.93-5.16-23.02-17.53,4.14-1.36,8.46-3.71,12.35-7.14,1.96,1.41,4.3,2.61,7,3.2,1.02.22,2.2.38,3.49.38,3.21,0,7.18-.98,11.47-4.38,4.8-4.81,6.43-10.35,4.84-17.49-2.82-8.54-9.53-11.12-14.31-12.03-.27-5.63-1.81-11.14-4.48-16.14,2.05-.65,4.64-1.36,7.15-1.94,8.49-1.57,18.35-2.62,27.19,1.67.59.28,1.14.58,1.7.89.53.3,1.04.61,1.59.96,7.15,4.53,10.61,10.99,10.57,19.46-.82,14.14-4.94,20.88-8.38,26.5ZM335.17,229.17c2.53.61,4.13,1.69,4.89,3.93.65,2.96.13,4.69-1.56,6.43-1.71,1.35-3.44,1.83-5.18,1.51-.94-.17-1.76-.57-2.49-1,1.88-3.16,3.39-6.77,4.33-10.89Z"/>
        <path class="cls-1" d="M390.94,223.44c.07-12.49-5.34-22.53-15.6-29.03-.69-.44-1.39-.87-2.1-1.27-.77-.43-1.55-.85-2.34-1.22-11.64-5.67-23.69-4.48-34.15-2.53-5.83,1.33-9.45,2.5-11.74,3.46-1.46-1.46-3.03-2.84-4.74-4.07-.97-.67-6.37-4.22-14.15-5.76-.48-2.22-.98-3.96-1.26-4.88-.01-.05-.23-.79-.25-.84-1.29-3.88-4.26-11.63-9.68-19.89-6.8-10.34-15.02-17.72-24.49-21.96-15.15-6.65-29.01-3.93-42.64,8.55-6.19,6.4-11.53,14.18-15.87,23.1-.54,1.12-4.52,10.56-4.96,11.86-1.56,4.27-6.56,19.27-5.14,33.03.89,10.47,5.87,20.97,13,27.42.12.11.54.44.67.53,7.94,6.03,16.67,9.07,25.99,9.07,1.13,0,2.27-.05,3.42-.13,12.05-.93,21.23-4.61,21.51-4.72,1.18-.45,2.22-.93,3.33-1.4,3.32,4.59,7.6,8.48,12.65,11.05,6.29,3.17,11.23,4.29,15.81,4.29.67,0,1.31-.14,1.97-.18.25.54.51,1.09.92,1.73,9.83,18.52,24.19,24.87,33.25,24.47.58.03,1.17.05,1.76.05,15.78,0,33.72-11.18,44.46-28.18l.53-.88c3.53-5.77,8.87-14.5,9.85-31.66Z"/>
      </g>
    </g>
    <g>
      <path class="cls-6" d="M77.38,0c.81,0,1.59,3.83,6.11,9.29,3.56,4.3,8.76,5.37,8.95,7.39,1.41-.34,3-1.04,5.75-3.16,4.24-3.27,5.68-7.16,6.5-6.78.82.44,1.38,6.78,4.62,10.55,1.92,2.23,3.98,3.51,5.75,4.62,1.32.85,2.5,1.23,2.07,1.7-.63.7-7.16,1.32-10.93,5.28-2.09,2.2-2.73,5.93-2.73,5.93,1.41.09,8.76.66,12.34,1.04,2.44.26,10.16.96,10.49,1.22.27.22.16.31.19,4.77,0,.05,2.32-2.07,6.59-1.13,8.54,2.51,9.95,11.18,9.58,11.81-.28.47-3.67-.47-4.05,1.13-.25,1.05,1.28,2.38,2.14,6.22.75,3.39,1.07,7.54-.63,13.38,2.51-.56,4.51,2.62,3.77,2.97-.8.38-2.31,1.13-3.49,3.66-1.22,2.64-.39,4.74-1.6,10.8-.38,1.88-1.46,5.6-3.58,8.1.94.47,1.54,2.26,1.6,3.67.09,2.26-.43,4.25-1.04,4.62-.56.35-2.19-.55-4.21,1.73-.75.85-1.68,1.88-1.98,2.21-.75.85-.19,1.13.22,1.05,6.05-1.16,10.44-3.04,11.02-2.65.46.31.24.7-5.57,13.05,8.92,7.82,9.82,8.45,9.7,9-.07.31-.4.52-2.26,1.04-12.37,3.39-35.59,6.06-39.33,3.44-.94-.66-.85-1.49-1.38-1.51-.5-.01-2.26,2.2-10.42,7.66-6.02,4.03-13.97,7.47-14.18,7.47s-8.16-3.44-14.18-7.47c-8.16-5.46-9.92-7.67-10.42-7.66-.53.02-.44.85-1.38,1.51-3.74,2.62-26.96-.05-39.33-3.44-1.87-.51-2.19-.72-2.26-1.04-.12-.54.79-1.18,9.7-9-5.81-12.35-6.03-12.74-5.57-13.05.58-.39,4.97,1.49,11.02,2.65.41.08.97-.2.22-1.05-.3-.34-1.22-1.37-1.98-2.21-2.02-2.27-3.64-1.38-4.21-1.73-.6-.37-1.13-2.35-1.04-4.62.06-1.41.66-3.2,1.6-3.67-2.12-2.5-3.2-6.22-3.58-8.1-1.21-6.06-.38-8.16-1.6-10.8-1.17-2.52-2.68-3.28-3.49-3.66-.74-.35,1.26-3.53,3.77-2.97-1.7-5.84-1.38-9.98-.63-13.38.85-3.84,2.38-5.17,2.14-6.22-.38-1.6-3.77-.66-4.05-1.13-.38-.63,1.04-9.29,9.58-11.81,4.27-.94,6.59,1.18,6.59,1.13.03-4.47-.08-4.55.19-4.77.32-.27,8.05-.97,10.49-1.22,3.58-.38,10.93-.94,12.34-1.04,0,0-.64-3.73-2.73-5.93-3.77-3.96-10.29-4.58-10.93-5.28-.43-.47.75-.85,2.07-1.7,1.76-1.1,3.83-2.38,5.75-4.62,3.23-3.77,3.8-10.11,4.62-10.55.82-.38,2.26,3.52,6.5,6.78,2.75,2.12,4.34,2.81,5.75,3.16.19-2.03,5.39-3.09,8.95-7.39,4.52-5.46,5.3-9.29,6.11-9.29Z"/>
      <g>
        <g>
          <path class="cls-5" d="M77.38,146.36s12.56-4.8,23.3-14.83c4.55-4.25,9.49-9.94,13.58-17.22.09.01.18.02.27.04,8.57,1.22,12.85-4.9,14.97-7.41,1.07-1.27,1.9-2.14,3.39-2.23.57-.03.55.02.76-.11.19-.12.16-1.18.16-1.56-.01-.97-.19-1.93-.6-2.75-.25-.49-.95-1.29-1.7-1.27,2.41-2.82,3.78-5.29,4.68-10.01.36-1.85.55-3.63.67-5.21.11-1.41.07-2.75.55-4.06.23-.62.44-1.07.89-1.73.39-.56,1.49-1.76,1.49-1.76.4-.44-.11-.85-1.7-.82-.38,0-.79.07-1.22.18.92-2.76,1.75-6.26,1.78-9.98.02-3.13-.53-6.41-2.07-9.53-.42-.86-1.17-2.83-.61-3.98.95-1.94,3.02-1.42,3.34-1.85.19-.26-.27-1.26-.94-2.32-.91-1.44-3.37-4.85-7.96-4.87-3.24-.01-5.89,2.71-6.93,6.63-.16.6-.26,1.2-.33,1.81v-12.26l-1.85-.2c-.15-.02-9.74-1.07-21.54-1.86.78-6.52,3.86-11.14,8.75-13.14,1.11-.46,1.98-.73,1.98-.73.8-.27,1.18-.34,1.14-.67-.02-.18-.3-.4-1.05-.88,0,0-.77-.45-1.89-1.38-1.48-1.24-2.45-2.53-3.41-4.45-.75-1.5-1.03-2.65-1.2-3.33-.14-.54-.22-.88-.44-.86-.26.02-1.01,1.4-2.95,3.08-1.31,1.16-3.54,2.72-5.82,3.51l-.08.03-.9.26c-.56.15-.87.23-.88.48,0,.19.14.38.38.69.26.34.61.8.99,1.52.65,1.23,1,2.98.9,4.47-1.95-2.55-5.45-4.6-9.81-5.77.48-.36.96-.66,1.37-.92,1.4-.86,2.67-1.34,2.77-1.65.02-.06.02-.16-.06-.27-.13-.16-.4-.3-.8-.52l-1.38-.8c-6.69-4.38-9.06-9.03-9.08-9.08-.52-.97-.7-1.4-.91-1.41-.21-.01-.38.44-.91,1.41-.02.05-2.39,4.7-9.08,9.08l-1.38.8c-.4.21-.67.35-.8.52-.08.1-.08.2-.06.27.09.3,1.37.79,2.77,1.65.42.25.89.56,1.37.92-4.36,1.16-7.85,3.22-9.81,5.77-.11-1.49.25-3.24.9-4.47.38-.72.74-1.18.99-1.52.24-.31.38-.5.38-.69,0-.25-.31-.33-.88-.48l-.9-.26-.08-.03c-2.29-.79-4.52-2.35-5.82-3.51-1.95-1.68-2.69-3.06-2.95-3.08-.22-.02-.3.32-.44.86-.17.69-.45,1.83-1.2,3.33-.96,1.92-1.94,3.21-3.41,4.45-1.12.92-1.89,1.38-1.89,1.38-.74.48-1.03.7-1.05.88-.04.34.34.4,1.14.67,0,0,.87.27,1.98.73,4.89,2.01,7.97,6.62,8.75,13.14-11.8.79-21.38,1.84-21.54,1.86l-1.85.2v12.26c-.06-.61-.17-1.21-.33-1.81-1.04-3.91-3.69-6.64-6.93-6.63-4.59.02-7.05,3.43-7.96,4.87-.67,1.06-1.14,2.06-.94,2.32.32.43,2.38-.09,3.34,1.85.57,1.15-.19,3.12-.61,3.98-1.54,3.12-2.09,6.4-2.07,9.53.03,3.72.85,7.22,1.78,9.98-.43-.11-.84-.17-1.22-.18-1.58-.04-2.1.38-1.7.82,0,0,1.11,1.2,1.49,1.76.45.65.67,1.1.89,1.73.48,1.31.44,2.65.55,4.06.12,1.58.32,3.35.67,5.21.9,4.71,2.27,7.18,4.68,10.01-.75-.02-1.45.77-1.7,1.27-.41.82-.59,1.78-.6,2.75,0,.38-.03,1.44.16,1.56.2.13.19.08.76.11,1.49.09,2.32.96,3.39,2.23,2.12,2.51,6.39,8.63,14.97,7.41.09-.01.18-.03.27-.04,4.09,7.28,9.02,12.97,13.58,17.22,10.75,10.03,23.29,14.84,23.3,14.83ZM31.61,53.92v7.78c-.6-.71-1.32-1.18-2.13-1.35-.02,0-.04,0-.06,0,1.26-2.2,1.99-4.34,2.2-6.42ZM28.57,74.39c.28-.27.73.17.94,1.32.09.51.42.46.86.05.47-.44.88-.95,1.23-1.51v4.88c0,.26,0,.51.01.76-1.81-1.79-3.52-4.88-3.05-5.5ZM125.35,60.34s-.04,0-.06,0c-.81.17-1.53.64-2.13,1.35v-7.78c.21,2.08.94,4.22,2.2,6.42ZM123.14,79.89c0-.25.01-.5.01-.76v-4.88c.36.56.77,1.07,1.23,1.51.44.41.77.46.86-.05.21-1.14.66-1.59.94-1.32.47.62-1.24,3.71-3.05,5.5Z"/>
          <g>
            <path class="cls-7" d="M77.38,10.3c1.06,1.49,3.65,4.74,7.55,7.02-2.13,1.34-4.65,3.4-5.16,5.87-.17.82-.25,1.58-.25,2.28,0,2.35.97,3.58,1.77,4.2,1,.76,2.35,1.03,3.62.72,1.54-.37,3.1-1.86,4.77-4.56,0,0,.09-.15.17-.29.02.13.03.24.04.24.82,4.87,2.49,5.89,3.74,5.88,1.18,0,2.2-.74,2.95-2.12.75-1.38,1.13-3.18,1.13-4.9,0-1.57-.32-3.07-.95-4.15,1.45-.59,3.58-1.72,5.93-3.82.48,1.18,1.69,3.59,4.11,5.34-3.44,1.25-8.86,6.25-9.77,15.03-6.42-.4-13.37-.69-19.64-.69s-13.22.29-19.64.69c-.91-8.78-6.33-13.78-9.77-15.03,2.42-1.75,3.63-4.16,4.11-5.34,2.35,2.1,4.49,3.23,5.93,3.82-.63,1.08-.95,2.58-.95,4.15,0,1.73.38,3.52,1.13,4.9.75,1.38,1.77,2.12,2.95,2.12,1.25,0,2.92-1.01,3.74-5.88,0,0,.02-.11.04-.24.08.14.17.29.17.29,1.67,2.7,3.23,4.19,4.77,4.56,1.27.31,2.62.04,3.62-.72.81-.62,1.77-1.84,1.77-4.2,0-.7-.09-1.47-.25-2.28-.51-2.46-3.03-4.52-5.16-5.87,3.9-2.27,6.49-5.52,7.55-7.02Z"/>
            <g>
              <path class="cls-5" d="M66.57,34.24c.02.15.04.22.09.3.08.12.22.19.39.18.26-.01.41-.16.41-.39,0-.13-.06-.24-.15-.28-.07-.04-.16-.06-.5-.15-.31-.07-.42-.12-.54-.22-.21-.17-.33-.44-.34-.78,0-.64.4-1.05,1.06-1.08.43-.02.75.13.94.43.09.13.13.25.17.49l-.71.12c-.04-.27-.17-.37-.42-.36-.2,0-.35.15-.35.34,0,.12.05.2.16.26q.07.03.46.12c.26.06.42.12.55.21.24.18.37.45.37.83,0,.31-.07.58-.22.77-.19.24-.48.37-.87.39-.28.01-.57-.05-.75-.17-.17-.11-.3-.28-.37-.51-.04-.1-.05-.19-.08-.38l.7-.11Z"/>
              <path class="cls-5" d="M69.22,31.82c-.02.17-.02.31-.02.61l.03,2.21c0,.29.01.44.04.61l-.74.03c.02-.16.02-.34.02-.61l-.03-2.21c0-.31-.01-.43-.04-.61l.74-.03Z"/>
              <path class="cls-5" d="M71.28,33.43c.1.17.17.3.25.48-.02-.19-.03-.38-.03-.61l-.02-.93c0-.27-.02-.43-.04-.62l.72-.04c-.02.19-.02.36-.01.62l.04,2.18c0,.25.02.44.04.61l-.74.04c-.06-.15-.14-.3-.26-.51l-.65-1.11c-.09-.16-.15-.28-.25-.49.02.18.03.41.04.61l.02.92c0,.28.02.46.04.64l-.72.04c.02-.16.02-.34.01-.64l-.04-2.16c0-.24-.02-.42-.04-.61l.73-.04c.04.11.11.27.25.5l.66,1.13Z"/>
              <path class="cls-5" d="M74.42,32.76c-.06-.38-.24-.57-.52-.57-.4,0-.64.4-.64,1.09s.24,1.1.65,1.1c.18,0,.34-.1.43-.26.06-.1.08-.18.1-.36l.69.13c-.06.36-.14.56-.27.77-.2.3-.52.46-.92.46s-.74-.16-.98-.46c-.24-.31-.38-.81-.38-1.37s.14-1.05.4-1.38c.23-.28.56-.44.95-.44.43,0,.76.18.97.55.11.17.16.33.2.57l-.68.17Z"/>
              <path class="cls-5" d="M77.48,35.07c-.14-.02-.26-.03-.54-.03h-1.04c-.25,0-.34,0-.48.01.02-.17.03-.32.03-.61v-2.29c0-.26,0-.41-.03-.61.14,0,.23.01.48.01h1.05c.22,0,.34,0,.49-.03v.78c-.15-.02-.27-.03-.49-.03h-.86v.62h.71c.22,0,.3,0,.49-.03v.78c-.15-.02-.27-.03-.49-.03h-.71v.7h.85c.25,0,.4,0,.54-.03v.78Z"/>
              <path class="cls-5" d="M79.53,31.52c.12.03.2.03.4.03h.42c.23,0,.28,0,.41-.02-.02.22-.02.4-.02.68v2.2c0,.25,0,.43.03.63h-.72c.02-.19.03-.39.03-.63v-2.14h-.13c-.13,0-.26,0-.4.03v-.78Z"/>
              <path class="cls-5" d="M82.07,34.16c.03.09.05.13.08.18.07.1.18.16.31.16.18,0,.33-.1.42-.29.06-.13.09-.29.11-.57-.18.21-.37.3-.66.3-.59,0-.98-.46-.98-1.16,0-.74.45-1.25,1.1-1.25.42,0,.75.22.95.62.14.27.21.67.21,1.13s-.07.86-.19,1.17c-.11.3-.33.54-.56.64-.13.05-.29.09-.44.09-.31,0-.57-.11-.76-.33-.11-.13-.17-.24-.25-.5l.66-.19ZM82.93,32.73c0-.31-.19-.53-.47-.53s-.46.22-.46.54.18.54.45.54.48-.22.48-.54Z"/>
              <path class="cls-5" d="M84.62,34.31c.03.09.04.14.08.18.07.1.18.16.31.16.18,0,.34-.1.43-.29.06-.13.1-.28.12-.57-.18.21-.37.3-.66.29-.59-.01-.97-.48-.96-1.18.01-.74.47-1.24,1.12-1.23.42,0,.75.23.94.64.13.28.2.67.19,1.14,0,.44-.08.85-.21,1.17-.12.3-.34.53-.57.63-.13.05-.3.08-.44.08-.31,0-.57-.12-.76-.34-.11-.13-.16-.25-.24-.5l.66-.18ZM85.5,32.9c0-.31-.18-.54-.46-.54-.27,0-.47.21-.47.53,0,.32.17.54.44.54.28,0,.48-.21.49-.53Z"/>
              <path class="cls-5" d="M86.91,35.29c-.3-.01-.37,0-.49,0,.01-.2.03-.33.07-.49.09-.35.24-.66.47-.92.13-.14.25-.26.59-.54.28-.23.35-.34.35-.53s-.14-.34-.35-.35c-.16,0-.27.06-.34.2-.05.09-.07.17-.08.35l-.69-.12c.05-.36.11-.55.24-.74.19-.27.49-.41.87-.4.45.02.78.22.95.56.07.15.11.31.11.49,0,.31-.1.56-.3.77-.11.12-.14.15-.48.43-.29.24-.41.38-.49.57l.77.03c.25,0,.4,0,.53-.01v.79c-.19-.03-.33-.04-.56-.05l-1.16-.04Z"/>
            </g>
          </g>
          <g>
            <g>
              <path class="cls-6" d="M18.38,65.59c.03,4.43,1.38,8.62,2.47,11.3,1.99,1.17,3.85,2.89,4.6,4.52.48,1.05.8,2.06,1.04,3.02.89-1.23,2.16-1.89,3.52-1.7.37.05.74.17,1.09.34-.19-.27-.39-.52-.59-.76-3.02-3.55-4.48-7.51-4.5-9.91,0-.29.02-.56.06-.81.15-.86.57-1.5,1.15-1.75.49-.21,1.01-.16,1.49.16.61.41,1.09,1.24,1.43,2.07.71-1.31,1.04-2.97,1.03-4.5,0-.57-.05-1.13-.15-1.63-.37-1.99-1.44-2.92-2.72-3.31-1.06-.32-2.45-.11-3.39,1.76v-.13c-.34-3.21,4.64-6.05,4.55-11.64-.01-.7-.09-1.37-.27-2.03-.75-2.82-2.58-4.58-4.9-4.71-2.06-.11-4.12,1.21-5.39,3.04.88.24,1.66,1.05,2.03,1.9.27.62.38,1.3.38,1.99.02,2.21-1.04,4.45-1.2,4.77-1.27,2.56-1.73,5.32-1.71,7.98Z"/>
              <path class="cls-6" d="M30.92,92.9c-.27-1.18-.41-2.12-.41-2.87,0-.87.17-1.49.53-1.95.27-.34.57-.5.87-.56-.59-1.15-1.34-1.88-2.17-1.99-.75-.11-1.35.28-1.86.99-1.36,1.9-.98,5.73.94,8.43-3.07.17-3.56-4.31-3.98-7.03-.26-1.71-.52-3.32-1.34-5.12-.98-2.14-2.59-3.51-4.16-4.09.5,1.43.65,3.14.78,4.83.12,1.54.31,3.11.6,4.73.53,2.92,1.38,5.52,3.51,8.13,1.59,1.96,3.34,2.57,4.61,5.42-1.76-1-4.04-2.64-4.84.7,1.03.31,1.92,1.35,2.78,2.38,1.95,2.3,4.23,7.32,12.46,7.09-1.53-3-2.91-6.25-4.07-9.76-1.86-3.47-3.85-7.52-4.27-9.33Z"/>
            </g>
            <g>
              <path class="cls-6" d="M136.38,65.59c-.03,4.43-1.38,8.62-2.47,11.3-1.99,1.17-3.85,2.89-4.6,4.52-.48,1.05-.8,2.06-1.04,3.02-.89-1.23-2.16-1.89-3.52-1.7-.37.05-.74.17-1.09.34.19-.27.39-.52.59-.76,3.02-3.55,4.48-7.51,4.5-9.91,0-.29-.02-.56-.06-.81-.15-.86-.57-1.5-1.15-1.75-.49-.21-1.01-.16-1.49.16-.61.41-1.09,1.24-1.43,2.07-.71-1.31-1.04-2.97-1.03-4.5,0-.57.06-1.13.15-1.63.37-1.99,1.44-2.92,2.72-3.31,1.06-.32,2.45-.11,3.39,1.76v-.13c.34-3.21-4.64-6.05-4.55-11.64.01-.7.09-1.37.27-2.03.75-2.82,2.58-4.58,4.9-4.71,2.06-.11,4.12,1.21,5.39,3.04-.88.24-1.66,1.05-2.03,1.9-.27.62-.38,1.3-.38,1.99-.02,2.21,1.04,4.45,1.2,4.77,1.27,2.56,1.73,5.32,1.71,7.98Z"/>
              <path class="cls-6" d="M123.84,92.9c.27-1.18.41-2.12.41-2.87,0-.87-.17-1.49-.53-1.95-.27-.34-.57-.5-.87-.56.59-1.15,1.34-1.88,2.17-1.99.75-.11,1.35.28,1.86.99,1.36,1.9.98,5.73-.94,8.43,3.07.17,3.56-4.31,3.98-7.03.26-1.71.52-3.32,1.34-5.12.98-2.14,2.59-3.51,4.16-4.09-.5,1.43-.65,3.14-.78,4.83-.12,1.54-.31,3.11-.6,4.73-.53,2.92-1.38,5.52-3.51,8.13-1.59,1.96-3.34,2.57-4.61,5.42,1.76-1,4.04-2.64,4.84.7-1.03.31-1.92,1.35-2.78,2.38-1.95,2.3-4.23,7.32-12.46,7.09,1.53-3,2.91-6.25,4.07-9.76,1.87-3.47,3.85-7.52,4.27-9.33Z"/>
            </g>
          </g>
        </g>
        <g>
          <path class="cls-7" d="M77.38,40.5c-15.91,0-35.85,1.89-41.93,2.51v36.12c0,10.79,2.23,20.81,6.62,29.78,3.52,7.19,8.43,13.74,14.6,19.47,8.98,8.35,18.12,12.57,20.72,13.67,2.59-1.11,11.73-5.33,20.72-13.67,6.17-5.73,11.08-12.28,14.6-19.47,4.39-8.98,6.62-19,6.62-29.78v-36.12c-6.08-.62-26.03-2.51-41.93-2.51Z"/>
          <path class="cls-5" d="M114.39,46.57c-.21-.02-21.05-2.09-37.01-2.11-15.96.01-36.81,2.08-37.01,2.11l-.99.11v33.43c.58,21.18,10.86,35.69,19.39,44.14,9.22,9.14,18.62,13.41,18.62,13.41,0,0,9.39-4.27,18.62-13.41,8.53-8.45,18.81-22.96,19.39-44.14v-33.43s-.99-.11-.99-.11Z"/>
          <g>
            <path class="cls-4" d="M107.97,86.07h4.74c.24-1.93.39-3.92.45-5.98v-31.4c-1.04-.11-2.85-.29-5.19-.51v37.89Z"/>
            <path class="cls-4" d="M97.51,47.32v38.75h5.99v-38.29c-1.85-.16-3.87-.31-5.99-.46Z"/>
            <path class="cls-4" d="M42.2,86.16c.78,6.73,2.48,12.52,4.68,17.64v-17.65h-4.68Z"/>
            <path class="cls-4" d="M67.08,86.11h-5.64v38.3c1.93,1.78,3.84,3.33,5.64,4.66v-42.96Z"/>
            <path class="cls-4" d="M87.19,86.07h5.85v-39.04c-1.92-.12-3.89-.22-5.85-.31v39.35Z"/>
            <path class="cls-4" d="M51.35,112.34c1.8,2.83,3.72,5.33,5.62,7.5v-33.7h-5.62v26.21Z"/>
            <path class="cls-4" d="M77.39,86.07h5.33v-39.51c-1.79-.05-3.62-.07-5.33-.07v39.58Z"/>
            <path class="cls-4" d="M77.39,86.1h-5.9v45.96c2.61,1.61,4.79,2.63,5.9,3.14v-49.09Z"/>
          </g>
        </g>
        <g>
          <polygon class="cls-6" points="110.09 103.29 94.02 91.65 88.85 92.51 80.59 85.93 97.22 72.71 99.22 79.07 109.9 60.07 89 66.21 94.74 69.59 79.38 81.81 79.39 62.52 85.61 64.92 77.39 44.74 69.18 64.92 75.41 62.52 75.41 81.81 60.05 69.59 65.8 66.21 44.89 60.08 55.57 79.07 57.57 72.71 74.21 85.93 65.94 92.51 60.78 91.65 44.71 103.29 53.17 105.21 53.13 113.88 68.09 100.84 68.41 95.61 75.41 90.05 75.41 99.33 71.52 102.84 70.63 122.66 77.4 117.23 84.16 122.66 83.27 102.84 79.38 99.33 79.38 90.05 86.38 95.61 86.71 100.84 101.66 113.88 101.63 105.21 110.09 103.29"/>
          <path class="cls-5" d="M93.58,92.81l-4.85.89-9.77-7.77,18.76-14.93c.58,1.81,1.75,5.46,1.75,5.46l7.98-14.46-15.87,4.54s3.29,1.96,4.93,2.93l-18.14,14.43v-22.84c1.78.67,5.36,2.03,5.36,2.03l-6.35-15.25-6.33,15.25s3.59-1.36,5.37-2.03v22.84s-18.14-14.43-18.14-14.43c1.63-.97,4.93-2.93,4.93-2.93l-15.88-4.53,7.99,14.45s1.17-3.65,1.75-5.46l18.76,14.93-9.77,7.77-4.85-.89-13.64,9.98s5.63,1.23,6.77,1.48c-.01,1.16-.08,6.93-.08,6.93l12.79-11.05.23-4.93,9.14-7.27v12.02s-3.71,3.24-3.71,3.24l-.69,16.89s4.47-3.64,5.37-4.38c.9.73,5.37,4.38,5.37,4.38l-.68-16.89-3.71-3.24v-12.02s9.14,7.27,9.14,7.27l.23,4.93,12.79,11.05s-.07-5.77-.08-6.93c1.14-.25,6.77-1.48,6.77-1.48l-13.64-9.98Z"/>
          <g>
            <g>
              <path class="cls-7" d="M77.4,52.24c-.92,2.18-2.6,6.08-3.44,8.06,1.4-.53,3.35-1.25,3.44-1.28v-6.78Z"/>
              <g>
                <path class="cls-7" d="M74.27,111.63c-.07,1.72-.13,3.33-.18,4.33.7-.57,1.63-1.33,2.33-1.89v-4.32l-2.15,1.88Z"/>
                <path class="cls-7" d="M74.36,109.44l2.06-1.8v-2.12l-1.97,1.66c-.03.7-.06,1.47-.09,2.26Z"/>
                <path class="cls-7" d="M78.34,102.47v2.53s2.03,1.66,2.03,1.66c-.06-1.36-.11-2.37-.12-2.58-.3-.25-1.15-.96-1.91-1.6Z"/>
                <path class="cls-7" d="M78.34,109.48l2.24,1.83c-.04-.84-.08-1.69-.11-2.51l-2.13-1.74v2.41Z"/>
                <path class="cls-7" d="M78.34,114.02c.72.57,1.72,1.37,2.46,1.96-.03-.64-.07-1.53-.12-2.53l-2.34-1.91v2.48Z"/>
              </g>
            </g>
            <g>
              <path class="cls-7" d="M104.04,64.75c-2.28.64-6.38,1.74-8.45,2.33,1.28.76,3.06,1.84,3.14,1.89l5.31-4.22Z"/>
              <g>
                <path class="cls-7" d="M57.38,97.98l2.69.49,1.66-1.32-2.52-.51c-.56.41-1.19.87-1.83,1.34Z"/>
                <path class="cls-7" d="M54.06,100.62l2.69.49,1.66-1.32-2.52-.51c-.56.41-1.19.87-1.83,1.34Z"/>
                <path class="cls-7" d="M65.3,96.76l-1.98,1.58-.03,2.62c1.03-.9,1.79-1.56,1.95-1.7.01-.39.04-1.5.07-2.49Z"/>
                <path class="cls-7" d="M59.82,101.12l-.04,2.89c.63-.55,1.28-1.11,1.89-1.65l.03-2.75-1.89,1.5Z"/>
                <path class="cls-7" d="M56.27,103.94c0,.92,0,2.19,0,3.14.48-.42,1.15-1,1.91-1.67l.04-3.02-1.94,1.54Z"/>
              </g>
            </g>
            <g>
              <path class="cls-7" d="M50.77,64.74c1.14,2.08,3.13,5.82,4.17,7.71.46-1.42,1.11-3.4,1.14-3.49l-5.31-4.22Z"/>
              <g>
                <path class="cls-7" d="M93.64,102.73l-.12-2.73-1.66-1.32.07,2.57c.53.46,1.11.96,1.71,1.48Z"/>
                <path class="cls-7" d="M97.01,105.42l-.13-2.73-1.66-1.32.07,2.57c.53.46,1.11.96,1.71,1.48Z"/>
                <path class="cls-7" d="M90.66,95.28l1.98,1.58,2.56-.56c-1.1-.8-1.92-1.39-2.09-1.52-.38.08-1.47.3-2.44.5Z"/>
                <path class="cls-7" d="M96.14,99.64l2.83-.62c-.68-.49-1.37-.99-2.03-1.47l-2.68.58,1.89,1.5Z"/>
                <path class="cls-7" d="M99.7,102.47c.9-.21,2.14-.49,3.06-.7-.52-.37-1.24-.89-2.05-1.48l-2.95.64,1.94,1.54Z"/>
              </g>
            </g>
          </g>
        </g>
        <g>
          <g>
            <path class="cls-5" d="M139.08,129.34c-1.53-1.33-5.53-5-6.79-6.17,4.21-9.11,4.71-9.81,4.44-10.01-.31-.24-.84.02-2.89.51-2.75.66-6.15,1.39-9.25,1.75.05-.62.03-1.08-.14-1.44-.19-.39-.44-.96-3.19-1.22-3.5-.34-7.42-.92-10.43-1.11-6.93-.43-14.06-.43-20.72.16-9.43.83-12.13,1.41-12.61,1.54-.47-.14-3.18-.72-12.61-1.54-6.66-.58-13.79-.59-20.72-.16-3.01.19-6.93.77-10.43,1.11-2.75.26-3,.83-3.19,1.22-.17.35-.2.82-.14,1.44-3.1-.35-6.5-1.09-9.25-1.75-2.05-.49-2.58-.75-2.89-.51-.27.21.23.9,4.44,10.01-1.26,1.16-5.27,4.84-6.79,6.17-.98.85-1.36.95.39,1.41,2.07.54,4.12.97,6.15,1.35,6.82,1.29,18.44,2.84,24.11,2.25.14-.01.29-.02.43-.03,2.87-.3,3.23-.65,3.11-2.61-.07-1.05-.01-2.12.09-3.1.72-.02,1.45-.03,2.2-.03,9.21-.07,20.23,2.11,25.11,3.01,4.89-.9,15.9-3.08,25.11-3.01.75,0,1.48.02,2.2.03.11.99.16,2.05.09,3.1-.12,1.96.24,2.31,3.11,2.61.14.01.29.02.43.03,5.67.59,17.29-.96,24.11-2.25,2.02-.38,4.08-.81,6.15-1.35,1.75-.46,1.37-.56.39-1.41Z"/>
            <g>
              <path class="cls-4" d="M47.4,131.4c-.02-.92,0-1.84.07-2.7-5,.21-9,.64-11.68,1.01,3.82,1.45,9.29,1.77,11.61,1.69Z"/>
              <path class="cls-4" d="M107.6,131.4c.02-.92,0-1.84-.07-2.7,5,.21,9,.64,11.68,1.01-3.82,1.45-9.29,1.77-11.61,1.69Z"/>
            </g>
            <g>
              <path class="cls-7" d="M22,116.3c.11.22,3.25,6.83,3.57,7.57-.63.53-5.87,5.23-5.87,5.23,0,0,5.42,1.32,13.35,2.11-.18-.09-.36-.19-.54-.29-.6-.36-.92-.78-1.07-1.23-3.25-.36-6.62-.97-8.8-1.4,3.96-3.39,1.84-1.6,4.66-4.05,0,0-2.23-4.53-2.92-6.12,1.37.26,3.84.73,6.49.98-.05-.49-.11-.94-.17-1.36-4.34-.47-8.72-1.46-8.72-1.46,0,0,0,0,0,.01Z"/>
              <g>
                <path class="cls-7" d="M99.39,125.09c-9.83.24-19.55,2-21.89,2.45-2.33-.45-12.05-2.22-21.89-2.45-11.69-.28-21.95,1.12-22.05,1.14l.06,1.34c.1-.01,10.38-1.44,21.96-1.16,10.21.24,20.27,2.15,21.92,2.48,1.65-.33,11.71-2.24,21.92-2.48,11.58-.28,21.86,1.15,21.96,1.16l.06-1.34c-.1-.01-10.36-1.42-22.05-1.14Z"/>
                <path class="cls-7" d="M99.39,113.79c-8.86.17-19.62,1.75-21.89,2.1-2.27-.35-13.03-1.94-21.89-2.1-11.6-.22-22.41,1.22-22.52,1.23l.18,1.31c.11-.01,10.82-1.44,22.32-1.22,9.18.17,20.39,1.89,21.91,2.13,1.52-.24,12.74-1.96,21.91-2.13,11.5-.22,22.21,1.2,22.32,1.22l.18-1.31c-.11-.01-10.92-1.45-22.52-1.23Z"/>
              </g>
              <path class="cls-7" d="M133,116.3c-.11.22-3.25,6.83-3.57,7.57.63.53,5.87,5.23,5.87,5.23,0,0-5.42,1.32-13.35,2.11.18-.09.36-.19.54-.29.6-.36.92-.78,1.07-1.23,3.25-.36,6.62-.97,8.8-1.4-3.96-3.39-1.84-1.6-4.66-4.05,0,0,2.23-4.53,2.92-6.12-1.37.26-3.84.73-6.49.98.05-.49.11-.94.17-1.36,4.34-.47,8.72-1.46,8.72-1.46,0,0,0,0,0,.01Z"/>
            </g>
          </g>
          <g>
            <g>
              <path class="cls-6" d="M75,124.82c-.23-.06-.42-.1-.88-.16l-1.68-.2c-.41-.05-.55-.06-.78-.07.03-.28.04-.55.05-1.04v-3.91c.01-.44,0-.7-.03-1.05.22.04.37.07.78.12l1.7.21c.36.04.54.05.79.05v1.34c-.25-.07-.44-.1-.8-.15l-1.39-.17v1.05s1.15.14,1.15.14c.35.04.48.05.8.05v1.32c-.25-.07-.44-.1-.8-.15l-1.15-.14v1.2s1.37.17,1.37.17c.41.05.64.06.87.06v1.34Z"/>
              <path class="cls-6" d="M62.01,123.46c-.22-.05-.4-.07-.83-.1l-1.58-.1c-.38-.02-.52-.03-.74-.03.03-.28.04-.55.03-1.04l-.02-3.91c0-.44-.01-.69-.05-1.05.21.03.35.04.74.07l1.6.1c.34.02.51.02.75,0v1.34c-.22-.05-.41-.08-.74-.1l-1.31-.08v1.05s1.09.07,1.09.07c.33.02.45.02.75,0v1.32c-.23-.05-.4-.08-.75-.1l-1.09-.07v1.2s1.3.08,1.3.08c.38.02.6.02.82,0v1.34Z"/>
              <path class="cls-6" d="M51.46,121.88c0,.67.01.93.06,1.24h-1.18c.04-.3.04-.59.04-1.21l-.04-3.71c0-.47-.02-.71-.05-1.05.23.01.38.02.8.01l1.59-.02c.48,0,.67-.01.92-.06v1.36c-.23-.03-.44-.05-.91-.04h-1.27s.01,1.19.01,1.19h1.03c.43-.01.64-.03.88-.07v1.32c-.23-.03-.45-.05-.87-.04h-1.03s.01,1.06.01,1.06Z"/>
              <path class="cls-6" d="M57.16,123.18c-.03-.23-.1-.53-.28-1.12-.18-.63-.25-.79-.4-.95-.12-.14-.27-.2-.46-.2h-.6s-.01,1.16-.01,1.16c0,.49,0,.75.04,1.08l-1.26-.03c.04-.33.05-.54.06-1.07l.04-3.85c0-.44,0-.71-.04-1.05.26.02.48.03.87.04l1.53.03c.95.02,1.5.63,1.49,1.66,0,.51-.13.91-.36,1.17-.15.16-.27.24-.56.35.3.12.43.29.62.8.09.23.17.48.42,1.25.06.2.13.38.27.77l-1.37-.03ZM56.36,119.68c.35,0,.56-.25.56-.65,0-.4-.18-.61-.55-.62l-.92-.02v1.27s.9.02.9.02Z"/>
              <path class="cls-6" d="M37.56,121.9c.03.26.08.39.16.54.14.21.36.33.63.32.41-.02.64-.28.62-.69,0-.23-.1-.42-.24-.5-.11-.07-.25-.11-.81-.27-.49-.13-.67-.21-.87-.39-.35-.31-.55-.79-.57-1.38-.05-1.13.58-1.87,1.62-1.91.67-.03,1.2.23,1.51.77.14.24.22.45.3.87l-1.12.22c-.08-.47-.28-.66-.69-.65-.32.01-.55.27-.54.6,0,.21.09.36.27.46q.11.06.74.21c.41.1.67.21.88.38.4.31.61.8.64,1.47.02.55-.08,1.02-.31,1.36-.29.42-.75.66-1.37.68-.45.02-.9-.09-1.2-.31-.27-.19-.48-.5-.61-.91-.06-.17-.09-.34-.15-.68l1.1-.19Z"/>
              <path class="cls-6" d="M43.83,123.43c-.07-.34-.12-.52-.2-.76l-.2-.59-1.58.13-.1.62c-.05.29-.07.51-.08.78l-1.3.11c.07-.22.1-.39.2-.89l.85-4.37c.07-.36.1-.57.11-.78l1.45-.12c.06.2.11.38.25.75l1.56,4.17c.14.37.25.65.34.84l-1.3.11ZM42.36,118.83l-.34,2.17,1.04-.09-.7-2.09Z"/>
              <path class="cls-6" d="M48.09,120.17c.17.3.29.53.43.84-.03-.33-.06-.66-.07-1.06l-.06-1.63c-.02-.47-.04-.76-.08-1.09l1.18-.04c-.02.32-.02.62,0,1.09l.14,3.8c.02.44.04.76.08,1.06l-1.21.04c-.11-.27-.25-.53-.45-.89l-1.1-1.96c-.16-.28-.26-.49-.43-.87.04.32.06.71.08,1.06l.06,1.6c.02.49.04.81.09,1.11l-1.18.04c.02-.28.02-.6,0-1.12l-.14-3.76c-.02-.42-.04-.74-.08-1.06l1.2-.04c.06.19.2.47.43.88l1.13,1.99Z"/>
              <path class="cls-6" d="M65.35,119.73c-.11-.65-.41-.97-.9-.97-.69,0-1.1.69-1.1,1.86s.42,1.87,1.13,1.87c.31,0,.58-.16.75-.45.1-.17.14-.31.17-.61l1.18.22c-.11.61-.23.96-.47,1.31-.35.51-.9.78-1.59.78s-1.28-.27-1.68-.79c-.42-.54-.66-1.37-.66-2.33s.24-1.79.69-2.35c.39-.48.97-.74,1.63-.74.73,0,1.31.31,1.68.94.18.29.28.56.35.98l-1.17.29Z"/>
              <path class="cls-6" d="M70.06,120.25c-.11-.65-.41-.97-.9-.97-.69,0-1.1.69-1.1,1.86s.42,1.87,1.13,1.87c.31,0,.58-.16.75-.45.1-.17.14-.31.17-.61l1.18.22c-.11.61-.23.96-.47,1.31-.35.51-.9.78-1.59.78s-1.28-.27-1.68-.79c-.42-.54-.66-1.37-.66-2.33s.24-1.79.69-2.35c.39-.48.97-.74,1.63-.74.73,0,1.31.31,1.68.94.18.29.28.56.35.98l-1.17.29Z"/>
            </g>
            <g>
              <path class="cls-6" d="M90.29,123.54c-.03-.23-.1-.51-.27-1.09-.18-.6-.24-.76-.38-.9-.12-.12-.25-.17-.43-.15l-.56.06v1.17c0,.49.01.75.05,1.08l-1.19.13c.03-.33.04-.55.04-1.08v-3.85c0-.44-.01-.71-.04-1.05.24-.01.45-.03.82-.07l1.44-.16c.9-.1,1.42.45,1.42,1.48,0,.51-.11.92-.33,1.21-.14.18-.25.27-.53.42.28.08.41.23.59.72.08.22.16.46.41,1.2.06.19.13.37.27.73l-1.29.14ZM89.51,120.15c.33-.04.53-.31.53-.72s-.18-.59-.52-.55l-.87.09v1.27l.86-.09Z"/>
              <path class="cls-6" d="M95.95,120.11c.05,1.89-.81,3.19-2.15,3.25-1.35.07-2.26-1.11-2.3-3.01-.05-1.89.79-3.14,2.15-3.21,1.36-.07,2.26,1.09,2.3,2.97ZM94.81,120.18c-.03-1.16-.46-1.84-1.12-1.81-.67.03-1.07.76-1.04,1.92.03,1.17.46,1.87,1.14,1.83.67-.03,1.06-.77,1.03-1.94Z"/>
              <path class="cls-6" d="M97.33,121.05c.02.26.06.39.14.53.13.21.36.34.65.34.43,0,.68-.24.68-.64,0-.22-.09-.42-.23-.5-.12-.07-.25-.12-.83-.29-.51-.14-.69-.23-.89-.42-.35-.31-.54-.79-.54-1.37,0-1.1.69-1.8,1.78-1.8.7,0,1.24.28,1.54.82.14.24.2.45.28.86l-1.17.16c-.07-.47-.27-.66-.69-.66-.34,0-.59.24-.59.57,0,.2.08.35.26.46q.11.06.76.24c.42.11.69.24.9.41.4.32.6.8.6,1.46,0,.54-.13,1-.39,1.32-.32.4-.81.61-1.45.61-.47,0-.94-.13-1.23-.35-.28-.2-.48-.51-.6-.92-.06-.17-.08-.34-.12-.67l1.15-.14Z"/>
              <path class="cls-6" d="M84.76,118.2c-.03.3-.05.57-.05,1.08v3.87c0,.47.01.71.05,1.06l-1.2.16c.03-.31.04-.58.04-1.08v-1.4l-1.89.26v1.4c0,.47.01.74.04,1.06l-1.2.16c.03-.3.04-.57.04-1.08v-3.87c0-.5-.01-.76-.04-1.06l1.2-.16c-.03.34-.04.63-.04,1.08v1.2l1.89-.26v-1.2c0-.5-.01-.79-.04-1.06l1.2-.16Z"/>
              <path class="cls-6" d="M86.73,117.97c-.03.3-.04.55-.04,1.07v3.86c0,.5.01.76.04,1.06l-1.24.14c.03-.28.05-.59.05-1.07v-3.86c0-.54-.01-.75-.05-1.06l1.24-.14Z"/>
              <path class="cls-6" d="M104.59,117.05c-.03.29-.04.55-.04,1.05v3.79c0,.46.01.7.04,1.05h-1.2c.03-.3.04-.56.04-1.05v-1.37h-1.89v1.37c0,.46.01.73.04,1.05h-1.2c.03-.29.04-.55.04-1.05v-3.79c0-.49-.01-.74-.04-1.05h1.2c-.03.33-.04.61-.04,1.05v1.18h1.89v-1.18c0-.49-.01-.77-.04-1.05h1.2Z"/>
              <path class="cls-6" d="M106.7,117.08c-.04.29-.05.53-.06,1.05l-.04,3.8c0,.49,0,.75.03,1.05h-1.24c.04-.29.05-.59.06-1.06l.04-3.8c0-.53,0-.74-.03-1.05h1.24Z"/>
              <path class="cls-6" d="M109.44,123.09c-.02-.25-.07-.52-.2-1.06l-.44-1.91s-.15-.7-.16-.76q-.05-.26-.08-.36c.02.45.01,1.03,0,1.41l-.07,1.54c-.02.49-.02.8,0,1.1l-1.12-.05c.05-.32.07-.62.09-1.1l.16-3.7c.02-.43.02-.8,0-1.11l1.49.06c.03.31.06.54.17,1.01l.72,3.1.97-3.03c.15-.47.21-.7.25-.99l1.5.06c-.05.34-.07.63-.09,1.11l-.16,3.7c-.02.54-.02.82,0,1.1l-1.12-.05c.05-.33.07-.6.09-1.1l.07-1.55c0-.17.05-.7.07-.92q.03-.38.04-.48c-.15.55-.22.8-.3,1.06l-.63,1.92c-.16.5-.25.81-.29,1.04l-.99-.04Z"/>
              <path class="cls-6" d="M116.33,123.57c-.02-.34-.03-.53-.07-.78l-.1-.62-1.58-.13-.2.59c-.1.28-.15.5-.2.76l-1.29-.11c.1-.21.16-.37.34-.85l1.55-4.18c.13-.34.2-.55.24-.75l1.44.12c.02.21.05.4.12.78l.84,4.38c.07.39.14.68.19.89l-1.29-.11ZM115.65,118.78l-.69,2.09,1.04.09-.35-2.18Z"/>
            </g>
          </g>
        </g>
      </g>
    </g>
  </g>
</svg>