<?xml version="1.0" encoding="UTF-8"?>
<svg id="_レイヤー_2" data-name="レイヤー 2" xmlns="http://www.w3.org/2000/svg" xmlns:xlink="http://www.w3.org/1999/xlink" viewBox="0 0 441.79 447.74">
  <defs>
    <style>
      .cls-1 {
        fill: none;
      }

      .cls-2 {
        fill: #221815;
      }

      .cls-3 {
        fill: #ffe100;
      }

      .cls-4 {
        fill: #ffea00;
      }

      .cls-5 {
        fill: #fff;
      }

      .cls-6 {
        clip-path: url(#clippath);
      }

      .cls-7 {
        fill: #003273;
      }
    </style>
    <clipPath id="clippath">
      <path class="cls-1" d="M406.29,222.76c.07-12.49-5.34-22.53-15.6-29.03-.69-.44-1.39-.87-2.1-1.27-.77-.43-1.55-.85-2.34-1.22-11.64-5.67-23.69-4.48-34.15-2.53-5.83,1.33-9.45,2.5-11.74,3.46-1.46-1.46-3.03-2.84-4.74-4.07-.97-.67-6.37-4.22-14.15-5.76-.48-2.22-.98-3.96-1.26-4.88-.01-.05-.23-.79-.25-.84-1.29-3.88-4.26-11.63-9.68-19.89-6.8-10.34-15.02-17.72-24.49-21.96-15.15-6.65-29.01-3.93-42.64,8.55-6.19,6.4-11.53,14.18-15.87,23.1-.54,1.12-4.52,10.56-4.96,11.86-1.56,4.27-6.56,19.27-5.14,33.03.89,10.47,5.87,20.97,13,27.42.12.11.54.44.67.53,7.94,6.03,16.67,9.07,25.99,9.07,1.13,0,2.27-.05,3.42-.13,12.05-.93,21.23-4.61,21.51-4.72,1.18-.45,2.22-.93,3.33-1.4,3.32,4.59,7.6,8.48,12.65,11.05,6.29,3.17,11.23,4.29,15.81,4.29.67,0,1.31-.14,1.97-.18.25.54.51,1.09.92,1.73,9.83,18.52,24.19,24.87,33.25,24.47.58.03,1.17.05,1.76.05,15.78,0,33.72-11.18,44.46-28.18l.53-.88c3.53-5.77,8.87-14.5,9.85-31.66Z"/>
    </clipPath>
  </defs>
  <g id="_レイヤー_1-2" data-name="レイヤー 1">
    <g>
      <path class="cls-7" d="M441.79,230.23c0,117.76-84.41,196.43-213.22,196.43S15.34,347.99,15.34,230.23,110.81,17.01,228.57,17.01s213.22,95.46,213.22,213.22Z"/>
      <g>
        <g>
          <g>
            <path class="cls-2" d="M434.86,298.79c-1.3-.72-2.84-1.24-3.8-1.44-6.81-1.4-13.64-2.18-20.31-2.33-3.7-.09-7.16,0-10.49.16-1.79-20.11-8.09-39.31-19.27-58.27,1.62-9.72,2.12-22.36,2.53-32.66l.21-5.17c.84-18.75-5.88-43.26-14.38-52.46-2.12-2.29-5.31-4.04-8.12-4.45-21.54-3.21-49.87,5.35-81.73,24.67l-4-.59c-26.18-3.9-58.77-8.75-103.06,1.53-1.4.32-2.95.78-4.54,1.26-2.37.71-6.76,1.98-7.92,1.68-8.49-4.64-30.28-15.71-49.14-18.49-17.53-2.61-29.09.83-34.52,10.31-15.37,28.86-7.65,69.07-4.44,79.47-16,31.01-15.7,63.87-15.6,67.47-.01.84.03,1.72.04,2.58-.84.06-1.6.09-2.48.16-8.93.71-17.8,1.58-28.07,4.44-3.34.92-6.41,3.14-5.81,5.59.47,1.92,2.84,2.35,4.83,2.35,1.54,0,2.85-.25,2.89-.26,10.63-2.16,16.02-2.75,23.47-3.55l3.14-.34c.81-.09,1.61-.13,2.42-.2.81,9.68,2.85,19.99,6.48,30.18-4.44,1.67-9.56,3.89-15.71,7.07-.04.02-3.98,2.08-4.74,4.62-.23.78-.15,1.56.23,2.24.62,1.11,1.92,1.46,3.31,1.46,2.3,0,4.82-.95,4.86-.96,1.84-.81,3.57-1.58,5.21-2.31,3.72-1.66,6.96-3.05,10-4.23,3.93,8.9,9.09,17.53,15.73,25.34-6.84,3.95-15.09,9.33-24.43,16.6-1.94,1.52-3.19,3.45-3.41,5.32-.12,1.04.11,1.99.65,2.67.41.51,1.18.73,2.1.73,1.62,0,3.71-.68,5.14-1.7,10.26-7.27,19.16-12.89,26.15-17.04,7.51,7.31,16.5,13.67,27.22,18.49,35.27,15.84,67.77,19.4,108.95,20l4.04-.06,4.36.06c47.38-.69,84.81-7.46,111.26-20.11,15.35-7.34,27.56-17.24,36.7-29.54,7.64,2.61,16.9,6.62,25.83,12.66,1.14.79,3.45,2.16,5.5,2.16.92,0,1.79-.27,2.47-1.01.29-.3.61-.85.53-1.73-.17-1.86-2.23-4.46-3.56-5.43-9.12-6.66-18.28-10.95-26.01-13.74,5.25-8.67,9.17-18.37,11.72-29.12,5.64.9,12.22,2.35,19.44,4.77.04,0,2.17.71,4.26.71,1.57,0,3.11-.39,3.7-1.78.27-.63.26-1.33-.03-2.02-1.04-2.48-5.38-4.32-5.43-4.33-7.12-2.82-14.12-4.47-20.3-5.49,1.35-8.14,2-16.8,1.93-26,.02-1.57-.07-3.12-.1-4.67,2.94-.16,5.97-.26,9.16-.22,4.96.05,10.48.42,15.35.74,1.52.1,2.99.19,4.4.28,3.19.18,7.1-.41,7.57-2.73.17-.81-.11-2.03-2.36-3.29Z"/>
            <path class="cls-5" d="M369.87,236.92c1.76-9.13,2.29-22.42,2.71-33.11l.22-5.23c.76-16.97-5.67-38.25-11.49-44.55-.51-.56-1.4-.99-1.72-1.06-18.78-2.76-45.27,5.51-74.57,23.31-2.08,1.26-3.22,1.95-5.23,1.65l-5.91-.87c-25.25-3.76-56.69-8.45-98.98,1.36-1.2.27-2.52.67-3.88,1.08-5.38,1.6-11.46,3.43-16.3.79-7.98-4.35-28.38-14.75-45.5-17.28-12.6-1.85-20.45-.25-23.34,4.78-10.47,19.65-8.42,46.45-5.73,61.45.72-.85,1.42-1.62,2.07-2.27,2.63-2.63,5.32-3.6,7.16-2.33,1.91,1.32,1.15,4.66-.08,7.33-1.22,2.65-3.69,7.76-5.63,11.18,0,0,0,.01,0,.02-16.85,29.6-16.54,62.53-16.45,66.2,0,.74.03,1.51.04,2.26,9.31.02,14.99,1,17.89,1.74l.21.05c.06.01,7.62,1.41,7.18,5.04-.39,3.23-4.98,2.99-7.2,2.87l-.82-.06c-2.44-.37-8.96-1.24-16.86-1.4.79,8.79,2.71,18.09,6.01,27.25,4.52-1.04,7.71-1.28,9.83-1.4l.29-.02c2.79-.15,9.39-.25,9.73,3.07.3,2.87-4.87,4.24-7.11,4.7-1.04.21-2.16.36-3.41.53-1.75.24-3.74.52-6.09,1.02,3.77,8.24,8.76,16.15,15.14,23.24,6.63-3.22,10.45-4.4,10.53-4.42.06-.03,6.57-1.68,7.84,1.28,1.09,2.56-1.67,3.92-4.33,5.24-.85.42-1.74.86-2.55,1.35,0,0-.09.05-.26.13-1.03.51-2.75,1.4-5.02,2.62,6.17,5.56,13.32,10.43,21.71,14.2,33.54,15.07,64.84,18.46,104.45,19.04l4.04-.06,4.36.06c44.98-.67,81.88-7.25,106.54-19.04,12.36-5.91,22.38-13.54,30.16-22.9-3.71-.86-5.97-1.18-6.04-1.19-1.42-.14-5.85-1.17-7.34-3.19-.44-.61-.61-1.28-.47-1.94.75-3.62,7.32-2.9,10.09-2.43.35.03,3.75.38,9.03,1.65,5.2-7.94,9.03-16.98,11.53-27.1-2.33-.14-4.2-.17-5.48-.17-2.44.01-5.28-.05-5.28-.05-.74-.07-6.59-.76-6.82-3.68-.03-.39.05-1,.6-1.64,1.31-1.53,4.62-2.39,6.03-2.5l.31-.03c.84-.08,3.07-.3,5.31-.32h.61c1.62,0,3.81.05,6.42.22,1.29-7.68,1.93-15.9,1.86-24.74.01-1.24-.07-2.46-.09-3.69-6.85.85-12.47,1.97-16.3,2.74-1.96.39-3.38.68-4.24.78-1.38.2-2.56.3-3.55.3-2.31,0-3.58-.56-4-1.72-.29-.84-.23-1.74.18-2.59.74-1.52,2.53-2.81,5.19-3.72,2.09-.71,10.2-3.2,22.24-4.68-1.72-19.09-7.86-37.28-18.78-55.31-.7-1.16-.95-2.54-.69-3.87Z"/>
          </g>
          <g>
            <path class="cls-2" d="M130.65,318.6c-3.5,7.1-3.52,18.45,1.21,24.48,2.92,3.45,7.8,5.41,14.09,4.33,5.43-.94,8.52-5.9,9.55-9.85,2.23-8.84-.15-19.68-5.23-23.79-5.36-3.91-15.39-3.82-19.61,4.83Z"/>
            <path class="cls-2" d="M300.75,319.63c-3.5,7.1-3.52,18.45,1.21,24.48,2.92,3.45,7.8,5.41,14.09,4.33,5.43-.94,8.52-5.9,9.55-9.85,2.23-8.84-.14-19.68-5.23-23.79-5.36-3.91-15.39-3.82-19.61,4.83Z"/>
            <g>
              <path class="cls-2" d="M245.79,350.35c-1.17-4.16-4.32-7.43-8.44-8.76-7.86-2.55-15.82-1.48-20.77,2.79-5.16,4.56-5.41,12.65-2.18,16.84,2.99,3.88,7.72,5.9,14.48,6.2.31.01.63.02.94.02,5.41,0,10.44-1.98,13.31-5.27v-.02c2.83-3.28,3.82-7.69,2.67-11.81Z"/>
              <path class="cls-3" d="M235.25,348.09c-2.1-.68-4.24-1.01-6.25-1.01-3.19,0-6.05.84-7.91,2.45-2.45,2.17-2.29,6.18-1.26,7.52,1.68,2.18,4.74,3.34,9.35,3.54,4.27.17,7.46-1.38,8.79-2.9,1.34-1.56,1.79-3.55,1.24-5.49-.54-1.94-2.02-3.48-3.96-4.11Z"/>
            </g>
          </g>
        </g>
        <g>
          <g>
            <path class="cls-2" d="M189.66,408.43c-1.48-4.63-4.48-8.3-7.74-11.99-11.57-11.1-31.76-15.56-47.81-10.64-11.58,3.03-24.94,13.2-26.89,28.3-1.79,11.76,2.42,22.06,11.65,27.76,9.31,4.78,19.42,4.67,29.7-.17.87-.33,1.3-.24,3.57.72,1.42.61,3.17,1.34,5.28,1.7,3.57,1.03,6.76,1.46,9.57,1.46,7.46,0,12.38-3.02,15.44-6.04,7.97-7.84,10.94-20.61,7.23-31.1Z"/>
            <path class="cls-5" d="M179.32,412.02c-.03-.07-.05-.13-.07-.2-.84-2.65-3.05-5.31-5.25-7.82-8.41-8.05-24.41-11.47-36.92-7.67-8.41,2.21-17.79,9.67-19.04,19.29-.55,3.62-1.01,12.25,6.19,16.72,5.93,3.02,12.4,2.87,20-.7,1.9-.75,3.63-1.02,5.18-1.02,2.92,0,5.24.98,6.98,1.72,1.12.47,2.08.88,2.97,1.01.27.04.53.09.78.17,6.51,1.94,11.44,1.34,14.59-1.78,4.91-4.82,6.87-13.3,4.58-19.71Z"/>
          </g>
          <g>
            <path class="cls-2" d="M353.53,416.38c-1.98-15.21-15.33-25.39-26.69-28.34-16.27-4.97-36.47-.53-48.34,10.91-2.82,3.2-5.95,7-7.44,11.65-3.71,10.49-.74,23.27,7.22,31.1,3.07,3.03,8,6.05,15.45,6.05,2.81,0,5.99-.43,9.57-1.46,2.11-.36,3.86-1.1,5.28-1.7,2.29-.98,2.71-1.06,3.23-.88,10.61,5,20.73,5.1,30.44.1,8.83-5.48,13.04-15.78,11.27-27.43Z"/>
            <path class="cls-5" d="M342.69,417.91c-1.27-9.74-10.64-17.21-18.84-19.34-3.53-1.08-7.32-1.6-11.13-1.6-9.92,0-20.02,3.48-26.32,9.53-1.88,2.17-4.1,4.83-4.94,7.48-.02.07-.04.13-.07.2-2.29,6.41-.33,14.89,4.56,19.7,3.17,3.11,8.06,3.72,14.6,1.78.25-.07.51-.13.78-.17.89-.13,1.85-.53,2.97-1.01,2.67-1.14,6.69-2.83,11.82-.85,7.93,3.73,14.41,3.88,20.73.63,6.81-4.24,6.35-12.88,5.82-16.38Z"/>
          </g>
        </g>
        <g>
          <g class="cls-6">
            <rect class="cls-4" x="258.59" y="122.72" width="105.25" height="181.97" transform="translate(-13.99 405.45) rotate(-65)"/>
            <g>
              <polygon class="cls-7" points="324.83 179.46 273.3 183.97 243.45 140.26 222.51 184.48 252.38 228.16 303.88 223.71 333.12 266.39 385.85 261.83 406.79 217.6 354.04 222.21 324.83 179.46"/>
              <polygon class="cls-7" points="295.65 242.05 244.12 246.56 214.26 202.84 193.33 247.07 223.2 290.74 274.7 286.29 303.94 328.97 356.66 324.41 377.6 280.18 324.86 284.79 295.65 242.05"/>
              <polygon class="cls-7" points="383.2 160.31 354.01 116.9 302 122.44 272.14 78.73 251.45 123.09 281.31 166.81 333.32 161.27 362.51 204.67 415.44 199.56 436.13 155.2 383.2 160.31"/>
            </g>
          </g>
          <path class="cls-2" d="M406.29,222.76c.07-12.49-5.34-22.53-15.6-29.03-.69-.44-1.39-.87-2.1-1.27-.77-.43-1.55-.85-2.34-1.22-11.64-5.67-23.69-4.48-34.15-2.53-5.83,1.33-9.45,2.5-11.74,3.46-1.46-1.46-3.03-2.84-4.74-4.07-.97-.67-6.37-4.22-14.15-5.76-.48-2.22-.98-3.96-1.26-4.88-.01-.05-.23-.79-.25-.84-1.29-3.88-4.26-11.63-9.68-19.89-6.8-10.34-15.02-17.72-24.49-21.96-15.15-6.65-29.01-3.93-42.64,8.55-6.19,6.4-11.53,14.18-15.87,23.1-.54,1.12-4.52,10.56-4.96,11.86-1.56,4.27-6.56,19.27-5.14,33.03.89,10.47,5.87,20.97,13,27.42.12.11.54.44.67.53,7.94,6.03,16.67,9.07,25.99,9.07,1.13,0,2.27-.05,3.42-.13,12.05-.93,21.23-4.61,21.51-4.72,1.18-.45,2.22-.93,3.33-1.4,3.32,4.59,7.6,8.48,12.65,11.05,6.29,3.17,11.23,4.29,15.81,4.29.67,0,1.31-.14,1.97-.18.25.54.51,1.09.92,1.73,9.83,18.52,24.19,24.87,33.25,24.47.58.03,1.17.05,1.76.05,15.78,0,33.72-11.18,44.46-28.18l.53-.88c3.53-5.77,8.87-14.5,9.85-31.66ZM277.76,233.28c-.08.03-8.08,3.2-18.37,4-11.87.91-19.45-4.85-21.88-6.66-5-4.53-8.79-12.66-9.45-20.34-1.18-11.51,3.16-24.52,4.61-28.48.39-1.06,3.95-9.57,4.44-10.59,3.84-7.9,8.52-14.72,13.66-20.06,10.24-9.38,19.41-11.29,30.57-6.38,7.49,3.35,14.15,9.4,19.77,17.96,4.92,7.49,7.54,14.61,8.32,16.9l.28.99c.1.33.23.76.37,1.26-3.12.38-6.39,1.21-9.76,2.67-.86.37-1.62.86-2.44,1.29-1.82-1.99-4.05-3.77-6.3-5.03-6.73-3.79-14.11-3.84-20.25-.13-6.59,4-10.46,11.71-9.86,19.44.23,6.03,2.69,11.16,7.12,14.82,2.87,2.37,6.27,3.78,9.4,4.6,0,.53-.07,1.05-.05,1.58.03,3.82.78,7.6,2.04,11.21-.76.31-1.43.63-2.24.94ZM279.46,208.6c-1.43-.51-2.96-1.24-4.22-2.39-1.79-1.63-2.71-3.75-2.82-6.7-.29-3.87,1.51-7.58,4.61-9.47,2.17-1.32,4.47-1.53,7.04-.66,2.02.68,3.67,1.86,4.9,2.98-4.48,4.46-7.75,9.99-9.5,16.23ZM322.23,244.99c-7.63,2.01-11.53,2.43-19.54-1.62-8.18-4.17-13.72-13.13-13.78-22.46-.43-11.82,5.62-21.89,15.78-26.29,3.44-1.49,6.75-2.05,9.77-2.05,8.05,0,14.03,3.93,14.85,4.49,9.03,6.49,13.34,17.88,10.69,28.51-2.49,11.49-10.8,17.57-17.75,19.43ZM386.97,248.92l-.6,1.01c-8.69,13.74-23.71,23.26-36.56,22.57-6.52.09-15.93-5.16-23.02-17.53,4.14-1.36,8.46-3.71,12.35-7.14,1.96,1.41,4.3,2.61,7,3.2,1.02.22,2.2.38,3.49.38,3.21,0,7.18-.98,11.47-4.38,4.8-4.81,6.43-10.35,4.84-17.49-2.82-8.54-9.53-11.12-14.31-12.03-.27-5.63-1.81-11.14-4.48-16.14,2.05-.65,4.64-1.36,7.15-1.94,8.49-1.57,18.35-2.62,27.19,1.67.59.28,1.14.58,1.7.89.53.3,1.04.61,1.59.96,7.15,4.53,10.61,10.99,10.57,19.46-.82,14.14-4.94,20.88-8.38,26.5ZM350.52,228.5c2.53.61,4.13,1.69,4.89,3.93.65,2.96.13,4.69-1.56,6.43-1.71,1.35-3.44,1.83-5.18,1.51-.94-.17-1.76-.57-2.49-1,1.88-3.16,3.39-6.77,4.33-10.89Z"/>
        </g>
      </g>
    </g>
    <g>
      <path class="cls-5" d="M182.72,40c-.54-.16-5.36-1.74-8.32-6.58-.11-.19-11.97-20.37-21.08-25.93-.04-.02-.09-.05-.14-.08-.04-.02-4.26-2.26-7.79-3.65,0-.06-.02-.12-.03-.18-.32-1.94-1.75-2.89-2.19-3.13h-.02s-.04-.03-.04-.03c-.15-.07-.26-.12-.4-.18-.49-.17-.94-.25-1.4-.25-1.59,0-3,.96-3.9,2.65l-26.77,33.78-5.51-5.64-.28-.28-.16-.16h-2.4c.58-1.32.87-2.72.88-4.19.02-2.86-1.08-5.55-3.09-7.59-2.01-2.04-4.69-3.17-7.55-3.18h-.06c-5.88,0-10.68,4.78-10.72,10.65,0,1.48.3,2.96.89,4.32h-2.41l-.16.16-.28.28-5.51,5.64L47.52,2.65c-.89-1.68-2.31-2.65-3.9-2.65-.45,0-.9.08-1.35.23-.19.07-.3.12-.43.18h-.02s-.04.03-.04.03c-.46.26-1.89,1.2-2.21,3.14,0,.06-.02.12-.03.18-3.55,1.39-7.74,3.62-7.77,3.64-.06.03-.12.07-.16.09-9.07,5.54-20.97,25.75-21.09,25.95-2.94,4.82-7.77,6.39-8.31,6.55C.93,40.37.02,41.55,0,42.89c-.03,1.34.86,2.55,2.16,2.95,2.52.75,4.38,4,4.79,4.77,1.64,5.55,6.43,7.8,7.46,8.23,1.45.81,1.52,3.06,1.52,3.44-.33,2.63.4,5.57,2.18,8.72,1.23,2.19,2.58,3.78,2.97,4.21.56.61,1.3.97,2.1,1.01.07,0,.16,0,.23,0,2.65,0,7.27-2.18,9.14-3.12.06-.03.11-.06.18-.1,11.04-6.2,18.08-17.28,18.38-17.75,1.39-2.35,5.15-6.86,8.2-10.31,2.6-2.62,5.95-3.86,7.91-4.4l1.38,1.72-13.2,13.51-.27.27-.15.16v24.03l.15.16.26.27,5.18,5.36c-7.34-3.85-10.69-10.18-10.73-10.24-.54-1.07-1.63-1.74-2.84-1.74-.05,0-.09,0-.14,0-1.25.05-2.35.84-2.82,1.99-5.49,13.59,1.65,24.43,1.72,24.53.58.89,1.58,1.42,2.65,1.42.24,0,.49-.03.73-.08.57-.14,1.09-.43,1.5-.83.31.52.64,1.04.97,1.55-.39-.05-.77-.08-1.13-.08h-.05c-1.51,0-2.86.41-4.03,1.21l-.04.02h-.02s-.02.03-.02.03l-.03.03-.8.67-.04.03-.02.02-.02.02-.03.04c-.4.41-.71.8-.97,1.21h0s-.02.05-.02.05l-7.97,14.34-.15.26-.08.15.02.17.03.3c.58,5.03,3.67,7.09,5.23,7.48l.77.22.53.15-.14.26-.21.4.36.28.62.49.73.57.36-.41-.33.43c.88.66,21.91,16.22,48.29,16.41,26.4-.19,47.43-15.75,48.31-16.41h0s.03-.03.03-.03l.73-.57.62-.49.36-.28-.21-.4-.14-.26.53-.15.82-.23c1.53-.38,4.61-2.44,5.18-7.47l.03-.3.02-.17-.09-.15-.15-.26-7.96-14.32h0s-.02-.05-.02-.05c-.27-.43-.58-.82-.98-1.23l-.04-.04-.02-.02-.02-.02-.04-.03-.8-.67-.03-.03-.02-.02h-.02s-.04-.04-.04-.04c-1.17-.81-2.52-1.21-4.03-1.21h-.05c-.37,0-.75.03-1.14.08.33-.51.66-1.03.97-1.55.41.4.93.7,1.5.83.24.06.49.09.73.09,1.08,0,2.07-.54,2.66-1.44.07-.1,7.21-10.92,1.71-24.52-.47-1.15-1.57-1.94-2.82-1.99-.05,0-.09,0-.14,0-1.2,0-2.29.67-2.84,1.75-.03.06-3.39,6.39-10.72,10.24l5.18-5.36.26-.27.15-.16v-24.03l-.15-.16-.27-.27-13.2-13.51,1.38-1.72c1.96.54,5.31,1.78,7.92,4.41,3.05,3.44,6.8,7.95,8.17,10.27.3.48,7.34,11.57,18.4,17.78.07.04.12.08.19.11,1.86.94,6.48,3.12,9.1,3.12.11,0,.2,0,.29-.01.76-.04,1.52-.4,2.06-.98,1-1.13,5.91-7.03,5.16-12.95,0-.38.08-2.63,1.52-3.44,1.03-.43,5.82-2.68,7.46-8.23.41-.77,2.27-4.02,4.78-4.76,1.31-.4,2.2-1.61,2.17-2.96-.02-1.32-.93-2.51-2.22-2.87M71.84,97.67l7.96,8.24.28.29.16.17h4.41c-1.57,1.71-2.81,1.77-2.96,1.77v.54s0-.54,0-.54h-.01c-5.34-.95-9.98-2.82-13.77-5.56l3.93-4.9ZM61.75,92.42c1.14-.51,1.89-1.64,1.9-2.9,0-.12,0-.23-.02-.35l2.87,2.97-4.06,5.12c-1.18-1.55-1.98-2.98-2.49-4.05l1.8-.79ZM61.3,117.72c.34-.68.69-1.39,1.04-2.13l.24-.49-.05-.02c.03-.11.07-.23.1-.37,8.87,7.04,17.53,9.1,18.61,9.33,1.44.42,2.87,1.32,4.27,2.69-12.2-1.61-21.16-6.97-24.21-9.01M92.47,27c-.51,0-.92-.42-.92-.93,0-.51.42-.92.93-.92.51,0,.92.42.92.93,0,.51-.42.92-.93.92M99.42,126.75c1.4-1.38,2.84-2.29,4.29-2.71,1.07-.23,9.74-2.29,18.61-9.33.03.13.07.26.1.37l-.05.02.23.49c.36.75.72,1.47,1.05,2.15-2.96,2.05-11.76,7.44-24.24,9.01M121.31,89.18c-.01.11-.02.23-.02.34.01,1.25.76,2.39,1.9,2.9l1.8.8c-.52,1.07-1.32,2.51-2.49,4.05l-4.06-5.12,2.87-2.97ZM117.04,102.57c-3.79,2.74-8.42,4.61-13.78,5.56h0c-.15,0-1.39-.06-2.96-1.77h4.41l.16-.17.28-.29,7.96-8.24,3.93,4.9Z"/>
      <path class="cls-4" d="M182.57,40.53h0c-.56-.17-5.57-1.81-8.63-6.82-.11-.19-11.94-20.28-20.9-25.75-.04-.02-.07-.05-.12-.07-.06-.03-4.49-2.38-8.05-3.74,0-.16-.02-.32-.05-.47-.28-1.7-1.54-2.53-1.92-2.74l-.03-.02h-.03c-.11-.07-.21-.11-.34-.16-.42-.15-.81-.21-1.2-.21-1.4,0-2.65.87-3.44,2.4l-27.18,34.31-5.95-6.09-.28-.28h-3.04c.79-1.45,1.2-3.06,1.21-4.74.02-2.71-1.03-5.27-2.94-7.2-1.91-1.93-4.46-3.01-7.17-3.02h-.06c-5.58,0-10.14,4.53-10.17,10.11,0,1.7.41,3.37,1.21,4.86h-3.05l-.28.28-5.94,6.09L47.06,2.94c-.8-1.53-2.05-2.4-3.44-2.4-.39,0-.78.07-1.17.2-.16.06-.26.1-.37.16h-.03s-.03.03-.03.03c-.38.21-1.63,1.04-1.92,2.74-.03.15-.04.31-.05.47-3.56,1.36-7.98,3.71-8.03,3.73-.05.03-.1.05-.13.08-8.96,5.47-20.79,25.57-20.91,25.77-3.05,5-8.06,6.63-8.62,6.8h0c-1.06.3-1.81,1.27-1.82,2.37-.02,1.1.71,2.09,1.77,2.42,2.78.83,4.77,4.38,5.14,5.08,1.56,5.37,6.14,7.52,7.19,7.94,1.78.97,1.83,3.58,1.83,3.97-.33,2.52.38,5.36,2.11,8.42,1.21,2.14,2.53,3.69,2.9,4.12.45.5,1.08.79,1.72.83.08,0,.15,0,.21,0,2.6,0,7.47-2.35,8.89-3.07.05-.02.09-.05.14-.08,10.93-6.13,17.91-17.11,18.2-17.57,1.4-2.37,5.18-6.91,8.26-10.38h.01c2.86-2.9,6.58-4.16,8.51-4.65l1.9,2.37-13.54,13.86-.27.27v23.59l.26.27,11.43,11.83-4.78,6.04c-1.63-2.02-2.63-3.91-3.21-5.21l2.3-1.02c.95-.42,1.57-1.36,1.58-2.4,0-1.03-.6-1.98-1.54-2.42-8.4-3.85-12.17-11.02-12.2-11.09-.45-.89-1.35-1.45-2.35-1.45-.04,0-.08,0-.12,0-1.03.05-1.95.69-2.34,1.65-5.39,13.33,1.6,23.92,1.67,24.03.48.74,1.31,1.18,2.2,1.18.2,0,.41-.02.6-.07.73-.17,1.33-.64,1.69-1.26.66,1.12,1.35,2.22,2.09,3.3-.73-.19-1.52-.32-2.32-.33h-.04c-1.39,0-2.64.38-3.72,1.12l-.04.02-.03.03-.8.67-.04.03-.04.04c-.37.39-.66.74-.9,1.12v.02s-.03.02-.03.02l-7.96,14.32-.15.26.03.3c.54,4.73,3.39,6.66,4.82,7.01l.79.22.59.17.39-.48.29-.35c.09-.02.25-.04.46-.04l-.63,1.19-.37.7.62.49.73.57h0s.02.02.02.02c.88.66,21.76,16.12,47.97,16.3,26.22-.19,47.11-15.65,47.98-16.3h0s.02-.02.02-.02l.73-.57.62-.49-.37-.7-.63-1.19c.2,0,.36.02.46.04l.29.35.39.48.59-.17.82-.23c1.4-.35,4.25-2.27,4.79-7.01l.04-.3-.15-.26-7.96-14.32v-.02s-.02-.02-.02-.02c-.24-.38-.52-.73-.9-1.12l-.03-.04-.04-.03-.8-.67-.03-.03-.04-.02c-1.08-.74-2.33-1.12-3.72-1.12h-.04c-.8,0-1.59.14-2.32.33.74-1.07,1.44-2.17,2.09-3.3.36.62.96,1.09,1.68,1.26.2.05.4.07.61.07.89,0,1.72-.45,2.21-1.19.06-.1,7.05-10.69,1.66-24.02-.39-.96-1.31-1.61-2.34-1.65-.04,0-.08,0-.11,0-1,0-1.9.56-2.35,1.45-.04.07-3.8,7.24-12.2,11.09-.94.44-1.55,1.38-1.54,2.41,0,1.04.63,1.98,1.57,2.4l2.31,1.02c-.58,1.3-1.59,3.18-3.21,5.21l-4.78-6.04,11.43-11.83.26-.27v-23.59l-.27-.27-13.54-13.86,1.9-2.37c1.93.49,5.64,1.76,8.51,4.64h.01c3.07,3.48,6.85,8.02,8.24,10.37.31.49,7.28,11.46,18.21,17.6.05.04.1.06.15.09,1.42.72,6.29,3.06,8.86,3.06.09,0,.16,0,.24,0,.65-.03,1.27-.32,1.71-.81.98-1.11,5.76-6.85,5.02-12.55,0-.39.05-3,1.83-3.97,1.04-.43,5.63-2.57,7.19-7.94.37-.7,2.36-4.25,5.13-5.08,1.07-.33,1.8-1.32,1.78-2.43-.01-1.09-.76-2.06-1.82-2.36M71.8,96.85l8.39,8.68.28.29h5.33c-1.99,2.68-3.72,2.85-4.1,2.85-.03,0-.07,0-.09,0-5.68-1.01-10.54-3.02-14.48-6l4.68-5.82ZM60.6,117.9c.4-.8.82-1.65,1.25-2.55h0c.11-.24.31-.83.4-1.65,9.02,7.44,17.93,9.56,19.12,9.81,2.22.64,4.12,2.28,5.55,3.93-13.75-1.43-23.78-7.79-26.32-9.54M92.47,27.44c-.75,0-1.36-.62-1.35-1.37,0-.75.62-1.35,1.37-1.35.75,0,1.36.61,1.35,1.37,0,.75-.62,1.36-1.37,1.35M122.7,113.7c.09.82.29,1.41.4,1.65h0c.44.91.86,1.76,1.26,2.56-2.46,1.76-12.26,8.14-26.33,9.54,1.43-1.66,3.33-3.3,5.56-3.94,1.19-.26,10.1-2.38,19.12-9.81M117.82,102.68c-3.94,2.97-8.8,4.99-14.47,5.99-.03,0-.16,0-.19,0-.51-.03-2.15-.33-4.02-2.85h5.33l.28-.29,8.39-8.68,4.68,5.82Z"/>
      <g>
        <path class="cls-7" d="M50.66,115.17c0,.3,0,1.21.69,1.88.39.39.91.61,1.46.61.83,0,1.42-.5,1.63-.7.06-.06.12-.12.17-.2l62.54-77.9c1.87.42,6.24,1.7,9.56,5.05.43.48,6.41,7.21,8.38,10.54.31.5,7.23,11.3,17.91,17.28.03.02.04.03.06.04.99.5,6.05,2.98,8.46,2.96h0s.09,0,.15,0c.41-.01.8-.19,1.08-.5.22-.25,5.55-6.22,4.78-11.85-.01-.44.02-3.65,2.37-4.89.76-.3,5.26-2.3,6.71-7.44.36-.71,2.53-4.68,5.75-5.63.66-.2,1.12-.82,1.1-1.51,0-.7-.48-1.29-1.15-1.47-.05-.02-5.76-1.63-9.18-7.23-.48-.82-12.08-20.26-20.6-25.45-.02-.02-.06-.03-.09-.05-.23-.13-5.1-2.68-8.55-3.91.05-.32.06-.64,0-.96-.22-1.34-1.25-1.96-1.45-2.08-.09-.04-.17-.08-.27-.12-1.43-.5-2.72.27-3.5,1.82L51.07,114.01c-.27.32-.41.73-.41,1.15"/>
        <g>
          <path class="cls-4" d="M138.86,6.88c-.54,1.32-1.91,4.47-3.89,7.81l-10.02,12.48c-2.89,3.13-5.79,6.04-7.51,7.29-.36-.25-.8-.47-1.31-.57l21.93-27.67s.03.05.05.08c.2.27.47.48.76.57"/>
          <path class="cls-4" d="M142.67,4.02c-.44-.48-1.05-.96-1.81-1.17.15-.07.31-.12.49-.12.13,0,.28.02.4.07.04,0,.07.02.1.04.07.04.68.4.82,1.18"/>
          <path class="cls-4" d="M51.9,115.17c0-.14.04-.28.13-.39l61.45-77.54c.28.39.73.64,1.24.65.01,0,.02,0,.03,0,.16.22.38.39.64.51l.42.17-62.19,77.45s-.04.04-.06.05c-.08.09-.38.35-.76.35-.22,0-.43-.09-.59-.24-.29-.29-.32-.71-.32-1.01"/>
        </g>
        <g>
          <path class="cls-5" d="M137.38,7.69l-20.59,26.06,17.76-21.05s3.45-3.56,2.83-5.01"/>
          <g>
            <path class="cls-5" d="M158.12,26.19l-.14-.21-.16-.19c-6.25-7.52-13.22-12.08-19.09-14.81-.01.02-.02.05-.04.07,1.22-2.5,1.89-4.28,1.89-4.28.21-1.54-1.17-1.38-1.17-1.38l.61-1.09c1.19-.08,2.08,1.55,2.08,1.55,3.22.84,9.63,4.22,9.63,4.22,8.28,5.06,20.09,24.93,20.09,24.93,3.8,6.24,10.09,7.92,10.09,7.92-1.65.49-3.04,1.6-4.12,2.76,0,0,0,0,.01-.01-11.01-6.85-19.58-19.32-19.69-19.47"/>
            <path class="cls-5" d="M147.38,40.48l-.14-.21-.16-.19c-6.05-7.29-12.78-11.79-18.54-14.55,2.1-2.36,3.63-4.16,3.63-4.16.39-.46.78-.93,1.15-1.42,0,0,0,.01-.01.02,4.81,2.09,10.88,5.8,16.33,12.31,1.35,1.94,10.26,14.38,22.41,22.07-1.44,1.23-2.78,1.72-2.78,1.72-1.6.8-2.42,2.18-2.84,3.47-10.7-6.93-18.94-18.9-19.03-19.06"/>
            <path class="cls-5" d="M115.59,35.39c.97.04,1.64,1.01,1.64,1.01,1.1-.5,4.04-3.21,3.64-2.83,5.02,1.93,11.9,5.71,18.01,13,1.45,2.07,11.51,16.13,24.94,23.57-1.11,1.82-2.22,3.05-2.22,3.05-2.1.1-7.85-2.8-7.85-2.8-10.46-5.86-17.33-16.72-17.33-16.72-2.14-3.62-8.59-10.81-8.59-10.81-4.77-4.86-11.4-5.7-11.4-5.7l-.43-.19c-.19-1.05-1.25-.63-1.25-.63l.85-.95Z"/>
          </g>
          <polygon class="cls-5" points="69.2 95.21 52.59 115.93 53.94 115.12 69.2 96.13 69.2 95.21"/>
        </g>
      </g>
      <g>
        <path class="cls-7" d="M133.87,114.01L46.27,3.46c-.78-1.56-2.08-2.32-3.5-1.82-.1.04-.18.07-.27.12-.2.11-1.23.74-1.45,2.08-.05.32-.05.64,0,.96-3.46,1.23-8.32,3.79-8.55,3.91-.03.02-.06.03-.09.05-8.51,5.19-20.12,24.63-20.6,25.45-3.42,5.59-9.12,7.21-9.18,7.23-.67.18-1.14.78-1.15,1.47-.01.69.44,1.3,1.1,1.51,3.22.96,5.38,4.93,5.74,5.63,1.44,5.13,5.95,7.13,6.71,7.44,2.35,1.24,2.38,4.46,2.37,4.89-.77,5.63,4.55,11.6,4.78,11.85.28.31.67.49,1.08.5.05,0,.1,0,.15,0h0c2.41.01,7.47-2.47,8.46-2.96.02-.01.04-.02.06-.04,10.68-5.97,17.59-16.78,17.91-17.28,1.97-3.33,7.95-10.06,8.38-10.54,3.32-3.35,7.68-4.63,9.56-5.05l62.54,77.9c.06.08.12.14.17.2.21.21.8.7,1.63.7.56,0,1.08-.21,1.46-.6.68-.67.69-1.58.69-1.88,0-.42-.14-.83-.41-1.15"/>
        <g>
          <g>
            <path class="cls-4" d="M46.84,6.31s.03-.05.05-.08l21.93,27.67c-.51.1-.96.32-1.31.57-1.73-1.25-4.62-4.17-7.51-7.29l-10.02-12.48c-1.98-3.35-3.34-6.49-3.89-7.81.3-.1.56-.3.76-.57"/>
            <path class="cls-4" d="M43.09,2.84s.06-.03.1-.04c.12-.05.26-.07.4-.07.18,0,.34.05.49.12-.76.2-1.37.69-1.81,1.17.13-.77.75-1.14.82-1.18"/>
            <path class="cls-4" d="M132.72,116.18c-.16.15-.36.24-.59.24-.38,0-.68-.27-.76-.35-.02-.01-.04-.03-.06-.05l-62.19-77.45.42-.17c.26-.11.48-.29.64-.51h.03c.51,0,.96-.26,1.24-.65l61.45,77.54c.09.11.13.25.13.39,0,.3-.03.72-.32,1.01"/>
          </g>
          <g>
            <g>
              <path class="cls-5" d="M26.83,26.19l.14-.21.16-.19c6.25-7.52,13.22-12.08,19.09-14.81.01.02.02.05.04.07-1.22-2.5-1.89-4.28-1.89-4.28-.21-1.54,1.17-1.38,1.17-1.38l-.61-1.09c-1.19-.08-2.08,1.55-2.08,1.55-3.22.84-9.63,4.22-9.63,4.22-8.28,5.06-20.09,24.93-20.09,24.93-3.8,6.24-10.09,7.92-10.09,7.92,1.65.49,3.04,1.6,4.12,2.76,0,0,0,0-.01-.01,11.01-6.85,19.58-19.32,19.69-19.47"/>
              <path class="cls-5" d="M37.56,40.48l.14-.21.16-.19c6.05-7.29,12.78-11.79,18.54-14.55-2.1-2.36-3.63-4.16-3.63-4.16-.39-.46-.78-.93-1.15-1.42,0,0,0,.01.01.02-4.81,2.09-10.88,5.8-16.33,12.31-1.35,1.94-10.26,14.38-22.41,22.07,1.44,1.23,2.78,1.72,2.78,1.72,1.6.8,2.42,2.18,2.84,3.47,10.7-6.93,18.94-18.9,19.03-19.06"/>
              <path class="cls-5" d="M69.35,35.39c-.97.04-1.64,1.01-1.64,1.01-1.1-.5-4.04-3.21-3.64-2.83-5.02,1.93-11.9,5.71-18.01,13-1.45,2.07-11.51,16.13-24.94,23.57,1.11,1.82,2.22,3.05,2.22,3.05,2.1.1,7.85-2.8,7.85-2.8,10.46-5.86,17.33-16.72,17.33-16.72,2.14-3.62,8.59-10.81,8.59-10.81,4.77-4.86,11.4-5.7,11.4-5.7l.43-.19c.19-1.05,1.25-.63,1.25-.63l-.85-.95Z"/>
            </g>
            <polygon class="cls-5" points="48.01 8.81 66.74 32.22 64.27 30.55 48.01 8.81"/>
            <path class="cls-5" d="M115.56,94.66l15.56,19.16s.82.93,1.23.62l-15.96-19.67-.83-.11Z"/>
          </g>
        </g>
      </g>
      <g>
        <g>
          <path class="cls-7" d="M139.51,76.58c-.25-.62-.84-1.03-1.51-1.06-.66-.03-1.29.34-1.59.93-.03.07-3.93,7.52-12.65,11.52-.6.28-.99.89-.99,1.55,0,.67.4,1.28,1.01,1.55l3.15,1.39c-1.47,3.77-6.98,14.22-23.43,17.14-.05.01-.14.02-.25.02-.9,0-4.06-.47-6.92-6.8-.25-.58-.81-.95-1.44-1l-2.17-.14s-.07-.01-.12-.01h-.15s-.15,0-.15,0c-.05,0-.09.01-.12.01l-2.17.14c-.63.04-1.19.42-1.44,1-2.86,6.33-6.02,6.81-6.92,6.8-.11,0-.2-.01-.25-.02-16.45-2.92-21.96-13.37-23.43-17.14l3.15-1.39c.61-.27,1.01-.88,1.01-1.55,0-.66-.39-1.27-.99-1.55-8.72-3.99-12.62-11.45-12.65-11.52-.3-.59-.92-.96-1.59-.93-.67.03-1.26.44-1.51,1.06-5.14,12.71,1.3,22.73,1.58,23.15.39.6,1.12.88,1.81.72.7-.17,1.22-.75,1.3-1.46.04-.37.21-.76.43-1.14,10.59,20,29.58,24.44,31.05,24.75,5.66,1.6,9.2,8.92,9.23,8.99.27.61.96,1.01,1.64,1.01.67,0,1.38-.4,1.65-1.01.03-.07,3.58-7.39,9.23-8.99,1.47-.31,20.46-4.75,31.05-24.75.22.38.38.77.43,1.14.09.71.61,1.29,1.3,1.46.69.16,1.42-.12,1.81-.72.28-.41,6.71-10.44,1.58-23.15"/>
          <g>
            <path class="cls-4" d="M92.46,103.38h.17s2.17.14,2.17.14c3.99,8.87,9.01,7.76,9.01,7.76,21.17-3.77,25.25-19.75,25.25-19.75l-4.58-2.02c9.41-4.31,13.45-12.29,13.45-12.29,4.86,12.03-1.42,21.58-1.42,21.58-.24-2.09-2.5-4.01-2.5-4.01-10.22,21.87-31.08,26.16-31.08,26.16-6.56,1.81-10.48,9.97-10.48,9.97,0,0-3.9-8.15-10.46-9.97,0,0-20.85-4.3-31.08-26.16,0,0-2.26,1.92-2.5,4.01,0,0-6.28-9.55-1.42-21.58,0,0,4.05,7.99,13.45,12.29l-4.58,2.02s4.08,15.98,25.25,19.75c0,0,5.02,1.11,9.01-7.76l2.17-.15h.15Z"/>
            <path class="cls-5" d="M82.45,118.57c7.83,2.69,9.25,7.85,9.25,7.85v-19.65c-.42-.1-1.45.61-1.45.61,0,0-2.2,7-3.24,8.03-1.03,1.02-3.45.5-3.45.5-24.22-5.47-30.48-22.35-30.48-22.35l-.94.59s4.98,15.72,30.32,24.42"/>
          </g>
        </g>
        <g>
          <g>
            <path class="cls-7" d="M92.53,16.86c-5.08-.03-9.25,4.08-9.28,9.17-.03,5.08,4.09,9.25,9.18,9.28,5.09.03,9.25-4.09,9.28-9.17.03-5.09-4.08-9.25-9.17-9.28M92.46,28.19c-1.16,0-2.11-.96-2.1-2.13,0-1.17.96-2.1,2.13-2.1,1.17,0,2.11.95,2.1,2.12,0,1.16-.96,2.11-2.13,2.1"/>
            <path class="cls-4" d="M92.43,33.6c-4.15-.02-7.51-3.42-7.48-7.56.02-4.15,3.42-7.51,7.57-7.48,4.15.02,7.51,3.42,7.48,7.57-.02,4.15-3.42,7.5-7.57,7.48M92.5,22.26c-2.1-.01-3.82,1.69-3.84,3.8-.01,2.1,1.69,3.82,3.79,3.84,2.1.01,3.82-1.69,3.84-3.79.01-2.11-1.69-3.83-3.79-3.84"/>
            <g>
              <path class="cls-5" d="M89.7,20.26s-3.79,1.45-3.9,5c0,0-.02,3.09,1.67,4.49,0,0-1.06-3.18-.51-4.64,0,0,.18-3.25,2.73-4.86"/>
              <path class="cls-5" d="M99.17,26.66s-.25,3.48-2.88,4.47l1.25-2.15s1.71-1.54,1.64-2.31"/>
            </g>
          </g>
          <g>
            <polygon class="cls-5" points="121.51 77.44 101.83 97.81 83.11 97.81 63.43 77.44 63.43 59.04 83.11 38.89 101.83 38.89 121.51 59.04 121.51 77.44"/>
            <g>
              <path class="cls-7" d="M104.08,31.82h-23.21l-24.4,24.98v22.82l24.4,25.26h23.21l24.4-25.26v-22.82l-24.4-24.98ZM123.43,78.04l-20.98,21.72h-19.95l-20.98-21.72v-19.62l20.98-21.48h19.95l20.98,21.48v19.62Z"/>
              <g>
                <polygon class="cls-7" points="92.47 62.84 84.2 67.62 75.78 62.63 75.73 71.67 84.14 76.65 92.42 71.88 100.65 76.75 109.12 71.87 109.17 62.83 100.7 67.72 92.47 62.84"/>
                <polygon class="cls-7" points="92.47 75.6 84.2 80.38 75.78 75.39 75.73 84.43 84.14 89.41 92.42 84.64 100.65 89.5 109.12 84.62 109.17 75.58 100.7 80.47 92.47 75.6"/>
                <polygon class="cls-7" points="100.75 55.08 92.47 50.09 84.2 55.08 75.78 50.09 75.78 59.13 84.2 64.12 92.47 59.13 100.75 64.12 109.21 59.13 109.21 50.09 100.75 55.08"/>
              </g>
            </g>
            <path class="cls-4" d="M102.45,36.94h-19.95l-20.98,21.48v19.62l20.98,21.72h19.95l20.98-21.72v-19.62l-20.98-21.48ZM121.51,77.44l-19.68,20.37h-18.72l-19.68-20.37v-18.41l19.68-20.15h18.72l19.68,20.15v18.41Z"/>
          </g>
        </g>
      </g>
      <g>
        <path class="cls-7" d="M139.26,106.59c-.23-.36-.5-.68-.77-.97l-.8-.67c-.91-.63-2-.96-3.22-.95-2.79.02-5.47,1.73-5.9,2.03-6.8,3.67-4.65,8.86-4.62,8.9.56,1.17,1.11,2.25,1.61,3.26,0,0-13.09,10.48-33.08,10.48s-33.07-10.48-33.07-10.48c.5-1,1.04-2.09,1.61-3.26.03-.05,2.18-5.23-4.62-8.9-.43-.3-3.11-2.01-5.9-2.03-1.22,0-2.31.32-3.22.95l-.8.67c-.28.29-.55.6-.77.97l-7.96,14.32c.6,5.18,3.97,6.17,4.11,6.21l.82.23.39-.48c.24-.37,2.25-.36,2.48.06l-1.19,2.25.73.57c.21.15,20.93,15.94,47.42,16.13,26.49-.19,47.22-15.97,47.42-16.13l.73-.57-1.19-2.25c.22-.41,2.24-.43,2.48-.06l.39.48.82-.23c.14-.04,3.51-1.03,4.11-6.21l-7.96-14.32Z"/>
        <g>
          <g>
            <path class="cls-5" d="M72.17,132.25c.8-.36,1.63-.43,2.49-.18.76.22,1.42.7,1.99,1.42.21-.49.42-.98.64-1.47-.03-.03-.06-.06-.09-.08-.63-.59-1.34-1-2.13-1.22-1.4-.41-2.73-.29-4.01.35-1.03.52-1.58,1.35-2,2.34-.48,1.12-.43,2.27.23,3.42.68,1.17,1.74,1.98,3.2,2.41.94.28,1.92.32,2.9.13.01,0,.03,0,.04,0,.18-.61.36-1.23.54-1.85-.11.04-.22.08-.32.12-.28.11-.54.19-.79.25-.25.06-.48.09-.69.12-.38.04-.83-.01-1.31-.16-.93-.27-1.6-.77-2.02-1.5-.42-.74-.47-1.49-.16-2.28.32-.8.68-1.45,1.49-1.82"/>
            <path class="cls-5" d="M135.08,129.03c-14,9.88-30.95,14.59-47.59,13.36-.18.36-.37.71-.56,1.07,16.99,1.37,34.35-3.41,48.65-13.47l-.51-.96Z"/>
            <path class="cls-5" d="M62.48,135.97c-.16.32-.32.64-.49.97,7.39,3.36,15.25,5.52,23.23,6.35-.12-.38-.23-.76-.34-1.14-7.69-.84-15.27-2.94-22.39-6.18"/>
            <path class="cls-5" d="M49.68,128.53l-.52.96c3.23,2.32,6.62,4.38,10.14,6.15.16-.31.33-.63.5-.95-3.5-1.77-6.89-3.82-10.11-6.16"/>
            <path class="cls-5" d="M130.03,119.56l-.5-.95c-6.41,4.77-13.53,8.13-20.97,10.1.26.3.52.59.78.89,7.34-2.01,14.35-5.36,20.69-10.05"/>
            <path class="cls-5" d="M107.19,130.15c.08-.38.16-.76.23-1.15-3.46.85-6.98,1.39-10.52,1.62.18.35.36.69.54,1.03,3.28-.24,6.54-.75,9.75-1.5"/>
            <path class="cls-5" d="M89.51,131.75c.18-.35.36-.7.52-1.05-2-.09-4.02-.28-6.02-.56.1.37.19.75.29,1.11,1.73.23,3.46.4,5.2.49"/>
            <path class="cls-5" d="M95.2,131.78c.06-.36.1-.72.16-1.08-1.45.06-2.91.07-4.35.03.09.36.18.72.27,1.07,1.31.03,2.62.02,3.93-.03"/>
            <path class="cls-5" d="M114.02,133.33c-.4.13-.79.25-1.18.38.36.35.73.7,1.12,1.04.09-.03.19-.06.3-.1,1.52.95,3.11,1.86,4.75,2.71.71-.28,1.43-.57,2.13-.87-1.78-.81-3.51-1.68-5.17-2.62.67-.39,1.13-.92,1.35-1.56.23-.65.4-1.38.11-2.03-.38-.83-1.01-1.36-1.87-1.63-.78-.24-1.81-.12-3.13.31-.59.19-1.18.38-1.77.55-.36.12-.72.22-1.09.33.33.36.66.72,1,1.07.85-.24,1.7-.5,2.55-.78,1.41-.48,2.4-.19,2.8.77.43,1.01-.33,1.9-1.88,2.42"/>
            <path class="cls-5" d="M124.21,135.11c-1.53-3.02-3.05-6.03-4.54-9.02-.48.22-.97.45-1.45.66,1.41,3.04,2.85,6.1,4.28,9.16.57-.26,1.14-.52,1.71-.79"/>
            <path class="cls-5" d="M90.89,142.29h0s0,0,0,0h0c.64.03,1.27.03,1.91.03v-.02s.06,0,.09,0c1.39-2.78,2.62-5.57,3.69-8.36,1.28,2.66,2.7,5.29,4.26,7.91.67-.08,1.34-.17,2-.26-2.53-3.73-4.74-7.54-6.61-11.4-1.12,3.14-2.45,6.29-3.98,9.42-.62-3.16-1.16-6.29-1.6-9.41-1.27,3.3-2.74,6.59-4.4,9.85-1.07-3.51-1.92-7-2.58-10.47-1.17,3.45-2.47,6.89-3.88,10.34.56-2.98,1.11-5.92,1.66-8.84-.52-.09-1.03-.2-1.55-.3-.71,3.28-1.43,6.59-2.16,9.93.53.12,1.06.22,1.59.32,0,0,0,0,0,0,.63.12,1.27.23,1.91.33.73-1.98,1.43-3.96,2.09-5.93.74,2.83,1.63,5.67,2.65,8.52,1.41-2.62,2.69-5.26,3.85-7.91.32,2.06.67,4.13,1.07,6.21"/>
            <path class="cls-5" d="M105.5,136.57c-.44-.39-.97-.62-1.59-.7.52-.6.92-1.31.78-2.01-.09-.39-.25-.76-.5-1.1-.25-.35-.54-.63-.88-.82-.34-.21-.72-.32-1.15-.36-.43-.05-.99-.02-1.68.06-.95.12-1.91.22-2.87.29.24.43.47.86.72,1.28.96-.08,1.93-.18,2.89-.3.55-.07.99.03,1.32.24.33.19.54.53.61,1,.09.49-.22.91-.47,1.2-.24.3-.66.52-1.29.6-.52.06-1.04.12-1.56.17.2.33.41.66.61,1,.43-.05.87-.09,1.31-.14.92-.13,1.7.08,2.11.31.24.13.44.3.57.51,1.32,1.68-.35,2.26-.65,2.35-.32.11-.7.18-1.13.24,0,0,.76,1.12.79,1.12.38-.05,1.32-.21,1.73-.28,0,0,0,0,0,0,.66-.12,1.32-.24,1.97-.38.78-2.97,1.39-5.92,1.86-8.84,1.83,2.34,3.79,4.62,5.89,6.82.64-.21,1.29-.42,1.93-.65-3.3-3.09-6.29-6.36-8.95-9.77-.41,2.99-.97,6-1.7,9.03-.16-.33-.38-.63-.66-.87"/>
            <path class="cls-5" d="M69.66,130.22c.16-.4.34-.79.51-1.2-1.89-.71-3.75-1.51-5.58-2.41-1.59,3.08-3.19,6.16-4.81,9.25.58.29,1.15.57,1.74.84,1.33-2.74,2.67-5.48,4-8.21,1.36.63,2.74,1.2,4.14,1.72"/>
            <path class="cls-5" d="M65.06,124.22c-3.38-1.7-6.63-3.72-9.71-6.06l-.51.95c3.09,2.34,6.36,4.36,9.74,6.06l.48-.94Z"/>
            <path class="cls-5" d="M83.15,130.02c-6.05-.95-11.96-2.8-17.53-5.53l-.48.95c5.6,2.74,11.55,4.61,17.63,5.59.13-.34.26-.67.39-1.01"/>
          </g>
          <g>
            <path class="cls-5" d="M57.55,116.91c-.32-.23-.64-.45-.96-.69.25.01.5.03.75.03.19,0,.37,0,.55-.01-.11.23-.22.44-.34.67"/>
            <path class="cls-5" d="M59.04,113.85c-.25.77-3.94.47-5.66-.37l-.61-.31-6.14,11.59c-.38-.39-.73-.62-.8-.66-.32-.23-.67-.38-1.04-.45l1.19-2.15,5.3-9.19-.78-.58c-2.49-1.83-2.96-3.05-3.07-3.41-.07-.33.09-.55.12-.63.7-1.05,1.65-1.55,2.92-1.54,2.29.01,4.69,1.65,4.72,1.67l.1.06c4.44,2.38,3.96,5.24,3.75,5.96"/>
            <path class="cls-5" d="M127.39,116.91c-.12-.23-.23-.44-.34-.67.18,0,.36.01.55.01.25,0,.5-.01.75-.03-.32.24-.64.46-.96.69"/>
            <path class="cls-5" d="M139.12,124.11c-.07.04-.42.27-.8.66l-6.14-11.59-.61.31c-1.72.83-5.41,1.14-5.66.37-.22-.73-.69-3.58,3.75-5.96l.1-.06s2.43-1.66,4.72-1.67c1.27,0,2.22.5,2.92,1.54.04.08.19.3.12.63-.11.36-.59,1.58-3.07,3.41l-.78.58,5.3,9.19,1.19,2.15c-.37.07-.72.22-1.04.45"/>
          </g>
        </g>
      </g>
    </g>
  </g>
</svg>