<?xml version="1.0" encoding="UTF-8"?>
<svg id="_レイヤー_2" data-name="レイヤー 2" xmlns="http://www.w3.org/2000/svg" xmlns:xlink="http://www.w3.org/1999/xlink" viewBox="0 0 426.45 443.33">
  <defs>
    <style>
      .cls-1 {
        fill: none;
      }

      .cls-2 {
        fill: #221815;
      }

      .cls-3 {
        fill: #ffe100;
      }

      .cls-4 {
        fill: #fdd000;
      }

      .cls-5 {
        fill: #fff;
      }

      .cls-6 {
        fill: #6c9bd2;
      }

      .cls-7 {
        clip-path: url(#clippath);
      }
    </style>
    <clipPath id="clippath">
      <path class="cls-1" d="M390.94,218.36c.07-12.49-5.34-22.53-15.6-29.03-.69-.44-1.39-.87-2.1-1.27-.77-.43-1.55-.85-2.34-1.22-11.64-5.67-23.69-4.48-34.15-2.53-5.83,1.33-9.45,2.5-11.74,3.46-1.46-1.46-3.03-2.84-4.74-4.07-.97-.68-6.37-4.22-14.15-5.76-.48-2.22-.98-3.96-1.26-4.88-.01-.05-.23-.79-.25-.84-1.29-3.88-4.26-11.63-9.68-19.89-6.8-10.34-15.02-17.72-24.49-21.96-15.15-6.65-29.01-3.93-42.64,8.55-6.19,6.4-11.53,14.18-15.87,23.1-.54,1.12-4.52,10.56-4.96,11.86-1.56,4.27-6.56,19.27-5.14,33.03.89,10.47,5.87,20.97,13,27.42.12.11.54.44.67.53,7.94,6.03,16.67,9.07,25.99,9.07,1.13,0,2.27-.05,3.42-.13,12.05-.93,21.23-4.61,21.51-4.72,1.18-.45,2.22-.93,3.33-1.4,3.32,4.59,7.6,8.48,12.65,11.05,6.29,3.17,11.23,4.29,15.81,4.29.67,0,1.31-.14,1.97-.18.25.54.51,1.09.92,1.73,9.83,18.52,24.19,24.87,33.25,24.47.58.03,1.17.05,1.76.05,15.78,0,33.72-11.18,44.46-28.18l.53-.88c3.53-5.77,8.87-14.5,9.85-31.66Z"/>
    </clipPath>
  </defs>
  <g id="_レイヤー_1-2" data-name="レイヤー 1">
    <g>
      <path class="cls-6" d="M426.45,225.82c0,117.76-84.41,196.43-213.22,196.43S0,343.58,0,225.82,95.46,12.6,213.22,12.6s213.22,95.46,213.22,213.23Z"/>
      <g>
        <g>
          <g>
            <path class="cls-2" d="M419.52,294.38c-1.3-.72-2.84-1.24-3.8-1.44-6.81-1.4-13.64-2.18-20.31-2.33-3.7-.09-7.16,0-10.49.16-1.79-20.11-8.09-39.31-19.27-58.27,1.62-9.72,2.12-22.36,2.53-32.66l.21-5.17c.84-18.75-5.88-43.26-14.38-52.47-2.12-2.29-5.31-4.04-8.12-4.45-21.54-3.21-49.87,5.34-81.73,24.67l-4-.6c-26.18-3.9-58.77-8.75-103.06,1.53-1.4.32-2.95.78-4.54,1.26-2.37.71-6.76,1.98-7.92,1.68-8.49-4.64-30.28-15.71-49.14-18.5-17.53-2.61-29.09.83-34.52,10.31-15.37,28.86-7.65,69.07-4.44,79.47-16,31.01-15.7,63.87-15.6,67.47-.01.84.03,1.72.04,2.58-.84.06-1.6.09-2.48.16-8.93.71-17.8,1.58-28.07,4.44-3.34.92-6.41,3.14-5.81,5.59.47,1.92,2.84,2.35,4.83,2.35,1.54,0,2.85-.25,2.89-.26,10.63-2.16,16.02-2.75,23.47-3.55l3.14-.34c.81-.09,1.61-.13,2.42-.2.81,9.68,2.85,19.99,6.48,30.18-4.44,1.67-9.56,3.89-15.71,7.07-.04.02-3.98,2.08-4.74,4.62-.23.78-.15,1.56.23,2.24.62,1.11,1.92,1.46,3.31,1.46,2.3,0,4.82-.95,4.86-.96,1.84-.81,3.57-1.58,5.21-2.31,3.72-1.66,6.96-3.05,10-4.23,3.93,8.9,9.09,17.53,15.73,25.34-6.84,3.95-15.09,9.33-24.43,16.6-1.94,1.52-3.19,3.45-3.41,5.32-.12,1.04.11,1.99.65,2.67.41.51,1.18.73,2.1.73,1.62,0,3.71-.68,5.14-1.7,10.26-7.27,19.16-12.9,26.15-17.04,7.51,7.31,16.5,13.67,27.22,18.49,35.27,15.84,67.77,19.4,108.95,20l4.04-.06,4.36.06c47.38-.69,84.81-7.46,111.26-20.11,15.35-7.34,27.56-17.24,36.7-29.54,7.64,2.61,16.9,6.62,25.83,12.66,1.14.79,3.45,2.16,5.5,2.16.92,0,1.79-.27,2.47-1.01.29-.3.61-.85.53-1.73-.17-1.86-2.23-4.46-3.56-5.43-9.12-6.66-18.28-10.95-26.01-13.74,5.25-8.67,9.17-18.37,11.72-29.12,5.64.9,12.22,2.35,19.44,4.77.04,0,2.17.71,4.26.71,1.57,0,3.11-.39,3.7-1.78.27-.63.26-1.33-.03-2.02-1.04-2.48-5.38-4.32-5.43-4.33-7.12-2.82-14.12-4.47-20.3-5.49,1.35-8.14,2-16.8,1.93-26,.02-1.57-.07-3.12-.1-4.67,2.94-.16,5.97-.26,9.16-.22,4.96.05,10.48.42,15.35.74,1.52.1,2.99.19,4.4.28,3.19.18,7.1-.41,7.57-2.73.17-.81-.11-2.03-2.36-3.29Z"/>
            <path class="cls-5" d="M354.53,232.51c1.76-9.13,2.29-22.42,2.71-33.11l.22-5.23c.76-16.97-5.67-38.25-11.49-44.55-.51-.56-1.4-.99-1.72-1.06-18.78-2.76-45.27,5.51-74.57,23.31-2.08,1.26-3.22,1.95-5.23,1.65l-5.91-.87c-25.25-3.76-56.69-8.45-98.98,1.36-1.2.27-2.52.68-3.88,1.08-5.38,1.6-11.46,3.43-16.3.79-7.98-4.35-28.38-14.75-45.5-17.28-12.6-1.85-20.45-.25-23.34,4.78-10.47,19.65-8.42,46.45-5.73,61.45.72-.85,1.42-1.62,2.07-2.27,2.63-2.63,5.32-3.6,7.16-2.33,1.91,1.32,1.15,4.66-.08,7.33-1.22,2.65-3.69,7.76-5.63,11.18,0,0,0,.01,0,.02-16.85,29.6-16.54,62.53-16.45,66.2,0,.74.03,1.51.04,2.26,9.31.02,14.99,1,17.89,1.74l.21.05c.06.01,7.62,1.41,7.18,5.04-.39,3.23-4.98,2.99-7.2,2.87l-.82-.06c-2.44-.37-8.96-1.24-16.86-1.4.79,8.79,2.71,18.09,6.01,27.25,4.52-1.04,7.71-1.28,9.83-1.4l.29-.02c2.79-.15,9.39-.25,9.73,3.07.3,2.87-4.87,4.24-7.11,4.7-1.04.21-2.16.36-3.41.53-1.75.24-3.74.52-6.09,1.02,3.77,8.24,8.76,16.15,15.14,23.24,6.63-3.22,10.45-4.4,10.53-4.42.06-.03,6.57-1.68,7.84,1.28,1.09,2.56-1.67,3.92-4.33,5.24-.85.42-1.74.86-2.55,1.35,0,0-.09.05-.26.13-1.03.51-2.75,1.4-5.02,2.62,6.17,5.56,13.32,10.43,21.71,14.2,33.54,15.07,64.84,18.46,104.45,19.04l4.04-.06,4.36.06c44.98-.67,81.88-7.25,106.54-19.04,12.36-5.91,22.38-13.54,30.16-22.9-3.71-.86-5.97-1.18-6.04-1.19-1.42-.14-5.85-1.17-7.34-3.19-.44-.61-.61-1.28-.47-1.94.75-3.62,7.32-2.9,10.09-2.43.35.03,3.75.38,9.03,1.65,5.2-7.94,9.03-16.98,11.53-27.1-2.33-.14-4.2-.17-5.48-.17-2.44.01-5.28-.05-5.28-.05-.74-.07-6.59-.76-6.82-3.68-.03-.39.05-1,.6-1.64,1.31-1.53,4.62-2.39,6.03-2.5l.31-.03c.84-.08,3.07-.3,5.31-.32h.61c1.62,0,3.81.05,6.42.22,1.29-7.68,1.93-15.9,1.86-24.74.01-1.24-.07-2.46-.09-3.69-6.85.85-12.47,1.97-16.3,2.74-1.96.39-3.38.68-4.24.78-1.38.2-2.56.3-3.55.3-2.31,0-3.58-.56-4-1.72-.29-.84-.23-1.74.18-2.59.74-1.52,2.53-2.81,5.19-3.72,2.09-.71,10.2-3.2,22.24-4.68-1.72-19.09-7.86-37.28-18.78-55.31-.7-1.16-.95-2.54-.69-3.87Z"/>
          </g>
          <g>
            <path class="cls-2" d="M115.31,314.19c-3.5,7.1-3.52,18.45,1.21,24.48,2.92,3.45,7.8,5.41,14.09,4.33,5.43-.94,8.52-5.9,9.55-9.85,2.23-8.84-.15-19.67-5.23-23.79-5.36-3.91-15.39-3.82-19.61,4.83Z"/>
            <path class="cls-2" d="M285.41,315.23c-3.5,7.1-3.52,18.45,1.21,24.48,2.92,3.45,7.8,5.41,14.09,4.33,5.43-.94,8.52-5.9,9.55-9.85,2.23-8.84-.14-19.68-5.23-23.79-5.36-3.91-15.39-3.82-19.61,4.83Z"/>
            <g>
              <path class="cls-2" d="M230.45,345.94c-1.17-4.16-4.32-7.43-8.44-8.76-7.86-2.55-15.82-1.48-20.77,2.79-5.16,4.56-5.41,12.65-2.18,16.84,2.99,3.88,7.72,5.9,14.48,6.2.31.01.63.02.94.02,5.41,0,10.44-1.98,13.31-5.27v-.02c2.83-3.28,3.82-7.69,2.67-11.81Z"/>
              <path class="cls-3" d="M219.91,343.69c-2.1-.68-4.24-1.01-6.25-1.01-3.19,0-6.05.84-7.91,2.45-2.45,2.17-2.29,6.18-1.26,7.52,1.68,2.18,4.74,3.34,9.35,3.54,4.27.17,7.46-1.38,8.79-2.9,1.34-1.56,1.79-3.55,1.24-5.49-.54-1.94-2.02-3.48-3.96-4.11Z"/>
            </g>
          </g>
        </g>
        <g>
          <g>
            <path class="cls-2" d="M174.31,404.02c-1.48-4.63-4.48-8.3-7.74-11.99-11.57-11.1-31.76-15.56-47.81-10.64-11.58,3.03-24.94,13.2-26.89,28.3-1.79,11.76,2.42,22.06,11.65,27.76,9.31,4.78,19.42,4.67,29.7-.17.87-.33,1.3-.24,3.57.72,1.42.61,3.17,1.34,5.28,1.7,3.57,1.03,6.76,1.46,9.57,1.46,7.46,0,12.38-3.02,15.44-6.04,7.97-7.84,10.94-20.61,7.23-31.1Z"/>
            <path class="cls-5" d="M163.98,407.61c-.03-.07-.05-.13-.07-.2-.84-2.65-3.05-5.31-5.25-7.82-8.41-8.05-24.41-11.47-36.92-7.67-8.41,2.21-17.79,9.67-19.04,19.29-.55,3.62-1.01,12.25,6.19,16.72,5.93,3.02,12.4,2.87,20-.7,1.9-.75,3.63-1.02,5.18-1.02,2.92,0,5.24.98,6.98,1.72,1.12.47,2.08.88,2.97,1.01.27.04.53.09.78.17,6.51,1.94,11.44,1.34,14.59-1.78,4.91-4.82,6.87-13.3,4.58-19.71Z"/>
          </g>
          <g>
            <path class="cls-2" d="M338.19,411.98c-1.98-15.21-15.33-25.39-26.69-28.34-16.27-4.97-36.47-.53-48.34,10.91-2.82,3.2-5.95,7-7.44,11.65-3.71,10.49-.74,23.27,7.22,31.1,3.07,3.03,8,6.05,15.45,6.05,2.81,0,5.99-.43,9.57-1.46,2.11-.36,3.86-1.1,5.28-1.7,2.29-.98,2.71-1.06,3.23-.88,10.61,5,20.73,5.1,30.44.1,8.83-5.48,13.04-15.78,11.27-27.43Z"/>
            <path class="cls-5" d="M327.35,413.51c-1.27-9.74-10.64-17.21-18.84-19.34-3.53-1.08-7.32-1.6-11.13-1.6-9.92,0-20.02,3.48-26.32,9.53-1.88,2.17-4.1,4.83-4.94,7.48-.02.07-.04.13-.07.2-2.29,6.41-.33,14.89,4.56,19.7,3.17,3.11,8.06,3.72,14.6,1.78.25-.07.51-.13.78-.17.89-.13,1.85-.54,2.97-1.01,2.67-1.14,6.69-2.83,11.82-.85,7.93,3.73,14.41,3.88,20.73.64,6.81-4.24,6.35-12.88,5.82-16.38Z"/>
          </g>
        </g>
        <g>
          <g class="cls-7">
            <g>
              <g>
                <rect class="cls-5" x="241.93" y="88.28" width="123.9" height="231.48" transform="translate(-9.46 393.2) rotate(-65)"/>
                <rect class="cls-6" x="321.31" y="212.89" width="43.14" height="107.75" transform="translate(-43.8 464.78) rotate(-65)"/>
                <path class="cls-5" d="M381.46,305.98l-93.42-43.56,16.25-34.87,93.42,43.56-16.25,34.87ZM290.82,261.41l89.63,41.8,14.49-31.08-89.63-41.8-14.49,31.08Z"/>
                <rect class="cls-6" x="209.93" y="160.11" width="43.14" height="109.44" transform="translate(-61.04 333.85) rotate(-65)"/>
                <path class="cls-5" d="M270.85,254.4l-94.95-44.27,16.26-34.87,94.95,44.28-16.26,34.86ZM178.67,209.11l91.16,42.51,14.49-31.08-91.16-42.51-14.49,31.08Z"/>
                <rect class="cls-6" x="334.47" y="153.06" width="72.63" height="107.75" transform="translate(26.53 455.52) rotate(-65)"/>
                <path class="cls-5" d="M403.13,259.51l-93.42-43.56,28.72-61.59,93.42,43.56-28.72,61.59ZM312.49,214.94l89.63,41.8,26.95-57.8-89.63-41.8-26.96,57.8Z"/>
                <rect class="cls-6" x="223.09" y="100.28" width="72.63" height="109.44" transform="translate(9.3 324.59) rotate(-65)"/>
                <path class="cls-5" d="M292.52,207.93l-94.95-44.27,28.72-61.59,94.95,44.28-28.72,61.59ZM200.34,162.65l91.17,42.51,26.95-57.8-91.16-42.51-26.96,57.81Z"/>
              </g>
              <rect class="cls-1" x="241.96" y="88.3" width="123.83" height="231.51" transform="translate(-9.49 393.22) rotate(-65)"/>
            </g>
          </g>
          <path class="cls-2" d="M390.94,218.36c.07-12.49-5.34-22.53-15.6-29.03-.69-.44-1.39-.87-2.1-1.27-.77-.43-1.55-.85-2.34-1.22-11.64-5.67-23.69-4.48-34.15-2.53-5.83,1.33-9.45,2.5-11.74,3.46-1.46-1.46-3.03-2.84-4.74-4.07-.97-.68-6.37-4.22-14.15-5.76-.48-2.22-.98-3.96-1.26-4.88-.01-.05-.23-.79-.25-.84-1.29-3.88-4.26-11.63-9.68-19.89-6.8-10.34-15.02-17.72-24.49-21.96-15.15-6.65-29.01-3.93-42.64,8.55-6.19,6.4-11.53,14.18-15.87,23.1-.54,1.12-4.52,10.56-4.96,11.86-1.56,4.27-6.56,19.27-5.14,33.03.89,10.47,5.87,20.97,13,27.42.12.11.54.44.67.53,7.94,6.03,16.67,9.07,25.99,9.07,1.13,0,2.27-.05,3.42-.13,12.05-.93,21.23-4.61,21.51-4.72,1.18-.45,2.22-.93,3.33-1.4,3.32,4.59,7.6,8.48,12.65,11.05,6.29,3.17,11.23,4.29,15.81,4.29.67,0,1.31-.14,1.97-.18.25.54.51,1.09.92,1.73,9.83,18.52,24.19,24.87,33.25,24.47.58.03,1.17.05,1.76.05,15.78,0,33.72-11.18,44.46-28.18l.53-.88c3.53-5.77,8.87-14.5,9.85-31.66ZM262.41,228.88c-.08.03-8.08,3.2-18.37,4-11.87.91-19.45-4.84-21.88-6.66-5-4.53-8.79-12.66-9.45-20.34-1.18-11.51,3.16-24.52,4.61-28.48.39-1.06,3.95-9.57,4.44-10.59,3.84-7.89,8.52-14.72,13.66-20.06,10.24-9.37,19.41-11.29,30.57-6.38,7.49,3.36,14.15,9.4,19.77,17.96,4.92,7.49,7.54,14.61,8.32,16.9l.28.99c.1.33.23.76.37,1.26-3.12.38-6.39,1.21-9.76,2.67-.86.37-1.62.86-2.44,1.29-1.82-1.99-4.05-3.77-6.3-5.03-6.73-3.79-14.11-3.85-20.25-.13-6.59,4-10.46,11.71-9.86,19.44.23,6.03,2.69,11.16,7.12,14.82,2.87,2.37,6.27,3.78,9.4,4.6,0,.53-.07,1.05-.05,1.58.03,3.82.78,7.6,2.04,11.21-.76.31-1.43.63-2.24.94ZM264.12,204.19c-1.43-.51-2.96-1.24-4.22-2.39-1.79-1.63-2.71-3.75-2.82-6.7-.29-3.87,1.51-7.59,4.61-9.47,2.17-1.32,4.47-1.53,7.04-.66,2.02.68,3.67,1.86,4.9,2.98-4.48,4.46-7.75,9.99-9.5,16.23ZM306.89,240.58c-7.63,2.01-11.53,2.43-19.54-1.62-8.18-4.17-13.72-13.13-13.78-22.46-.43-11.82,5.62-21.89,15.78-26.29,3.44-1.49,6.75-2.04,9.77-2.04,8.05,0,14.03,3.93,14.85,4.49,9.03,6.49,13.34,17.88,10.69,28.51-2.49,11.49-10.8,17.57-17.75,19.43ZM371.63,244.52l-.6,1.01c-8.69,13.74-23.71,23.26-36.56,22.58-6.52.09-15.93-5.16-23.02-17.53,4.14-1.36,8.46-3.71,12.35-7.14,1.96,1.41,4.3,2.61,7,3.2,1.02.22,2.2.38,3.49.38,3.21,0,7.18-.98,11.47-4.38,4.8-4.81,6.43-10.35,4.84-17.49-2.82-8.54-9.53-11.12-14.31-12.03-.27-5.63-1.81-11.14-4.48-16.14,2.05-.65,4.64-1.36,7.15-1.94,8.49-1.57,18.35-2.62,27.19,1.67.59.28,1.14.58,1.7.89.53.3,1.04.61,1.59.96,7.15,4.53,10.61,10.99,10.57,19.46-.82,14.14-4.94,20.88-8.38,26.5ZM335.17,224.09c2.53.61,4.13,1.69,4.89,3.93.65,2.96.13,4.69-1.56,6.43-1.71,1.35-3.44,1.83-5.18,1.51-.94-.17-1.76-.56-2.49-1,1.88-3.16,3.39-6.77,4.33-10.89Z"/>
        </g>
      </g>
    </g>
    <g>
      <path class="cls-5" d="M138.92,86.22l-2.07-.83-9.7-3.9c.43-6.63-1.55-13.15-1.77-13.88-.46-1.66-1.69-6.62-2.53-10.07h10.21v-18.82s0-2.93,0-2.93h-5.97c1.03-2.33,1.79-3.96,1.81-3.98l.78-1.66-1.14-1.42-10.87-13.58-1.93-2.41-2.31,2.05s-3.35,2.93-9.01,6c-3.17-12.1-14.13-20.79-27-20.79s-23.85,8.7-27,20.81c-5.2-2.84-9.02-6.03-9.06-6.07l-2.3-1.94-1.88,2.35-10.87,13.58-1.14,1.42.78,1.66s.78,1.65,1.8,3.99h-3.05s-2.93,0-2.93,0v2.93s0,15.89,0,15.89v2.93h10.35c-.94,3.9-1.95,7.54-2.64,9.98-.38,1.02-2.17,6.3-1.74,13.94l-9.77,3.93-2.03.82.2,2.18c.02.24.53,5.36,3.26,11.09l-.61.47-1.81,1.41.93,2.1c3,6.76,6.89,10.62,10.01,13.72l.16.16c7.06,7.01,15.38,10.44,22.59,12.87.35.13.71.27,1.06.42v10.19h51.36v-10.19c.37-.15.74-.3,1.13-.44,7.13-2.4,15.45-5.83,22.51-12.84l.76-.75c3.04-2.98,6.48-6.37,9.42-13.15l.91-2.09-1.8-1.4-.56-.44c2.52-5.2,3.18-10.81,3.21-11.08l.25-2.21Z"/>
      <g>
        <path d="M100.18,137.91v-9.2c.99-.45,2-.86,3.06-1.25,6.9-2.33,14.84-5.59,21.47-12.18,3.1-3.08,6.73-6.63,9.56-12.99l-2.54-1.97c3.5-6.11,4.07-12.18,4.07-12.18l-11.77-4.73c.54-4.45.22-8.97-.99-13.35l-.45-1.6c-.95-3.4-2.4-8.57-3.53-13.83h11.11v-15.89s-7.76,0-7.76,0c1.42-3.45,3.86-8.17,3.86-8.17l-10.87-13.59-2.05,1.57c-3.42,2.61-7.14,4.83-11.08,6.63h0c-1.37-12.51-11.97-22.25-24.84-22.25s-23.47,9.73-24.84,22.24h0c-3.94-1.8-7.66-4.01-11.08-6.62l-2.05-1.57-10.87,13.59s2.44,4.72,3.86,8.17h-7.76s0,15.89,0,15.89h11.11c-1.13,5.25-2.58,10.43-3.53,13.83l-.45,1.6c-1.22,4.38-1.54,8.9-.99,13.35l-11.77,4.73s.57,6.08,4.07,12.18l-2.54,1.97c2.83,6.37,6.46,9.91,9.56,12.99,6.63,6.59,14.57,9.85,21.47,12.18,1.05.39,2.07.81,3.06,1.25v9.2h45.52Z"/>
        <g>
          <path class="cls-6" d="M33.5,41.39h-6.19s0,10.6,0,10.6h8.93c.53-1.44-.96-6.02-2.75-10.6Z"/>
          <path class="cls-6" d="M121.34,41.39h6.18s0,10.6,0,10.6h-8.93c-.53-1.44.96-6.02,2.75-10.6Z"/>
        </g>
        <path class="cls-6" d="M77.42,33.3c-14.12,0-27.13-4.73-37.55-12.67l-7.5,9.35c12.05,10.5,27.8,16.86,45.04,16.86s32.98-6.35,45.03-16.84l-7.5-9.35c-10.42,7.95-23.42,12.67-37.53,12.67Z"/>
        <g>
          <g>
            <path class="cls-6" d="M95.42,15c.12,1.45.14,4.05.06,5.03.78.64,2.63,2.37,3.9,3.86-.29-2.17-1.67-6.16-3.96-8.89Z"/>
            <path class="cls-6" d="M59.4,15c-.12,1.45-.14,4.05-.06,5.03-.78.64-2.63,2.37-3.9,3.86.29-2.17,1.67-6.16,3.96-8.89Z"/>
            <path class="cls-4" d="M93.41,12.53c-1.63-1.97-5.3-4.12-7.66-5.12-2.44.66-4.96,1.69-7.26,2.84,0,.45-.09,3.05-.06,4.53,3.25,1.92,6.59,4.38,9.22,7.13,2.02-.55,4.31-1.19,6.1-2.32.17-2.24-.02-4.8-.34-7.06Z"/>
            <path class="cls-4" d="M61.42,12.53c1.63-1.97,5.3-4.12,7.66-5.12,2.44.66,4.96,1.69,7.26,2.84,0,.45.09,3.05.06,4.53-3.25,1.92-6.59,4.38-9.22,7.13-2.02-.55-4.31-1.19-6.1-2.32-.17-2.24.02-4.8.34-7.06Z"/>
            <path class="cls-6" d="M77.42,5.8c-1.84,0-3.74.22-5.13.79,1.68.59,3.47,1.3,5.13,2.1,1.66-.8,3.45-1.51,5.13-2.1-1.39-.57-3.29-.79-5.13-.79Z"/>
          </g>
          <g>
            <path class="cls-4" d="M94.67,21.79c-.4.17-5.2,2.18-6.8,2.62-.2,1.55-.8,4.04-1.34,5.56,4.33-.66,8.54-1.8,12.59-3.39-1.15-1.85-3.07-3.71-4.45-4.79Z"/>
            <path class="cls-4" d="M66.96,24.41c-1.6-.45-6.4-2.45-6.8-2.62-1.38,1.08-3.29,2.94-4.45,4.79,4.04,1.59,8.26,2.73,12.59,3.39-.54-1.52-1.14-4.01-1.34-5.56Z"/>
            <path class="cls-6" d="M84.17,30.28c1.24-2.47,1.66-5.65,1.98-6.95-1.52-1.98-6.27-5.4-8.73-6.86-2.46,1.46-7.21,4.88-8.73,6.86.33,1.34.86,4.48,1.86,6.94,2.26.26,4.56.39,6.87.39s4.52-.13,6.75-.38Z"/>
          </g>
        </g>
        <g>
          <path class="cls-5" d="M77.42,121.63c-8.04-6.55-16.53-10.1-22.51-11.89-14.73-4.41-25.3-21.88-20.55-38.98,1.96-7.06,6.75-23.2,5.55-31.55,18.97,10.34,34.07,9.83,37.51,9.9,3.44-.07,18.54.44,37.51-9.9-1.19,8.35,3.59,24.48,5.55,31.55,4.75,17.1-5.83,34.57-20.56,38.98-5.98,1.79-14.47,5.34-22.51,11.89Z"/>
          <g>
            <g>
              <path d="M77.42,81.04c3.03,4.31,13.6,19.58,18.73,27.76,1.18-1.52,1.81-3.58.97-6.08-.03-.16.1-.24.27-.1,1.81,1.52,4.89,2.76,7.33,1.78-8.17-8.98-16.07-18.16-24-27.81.6-.73,1.46-1.75,2.22-2.69,3.12.62,6.61,1,9.46-.78,4.83-3.01,6.15-6.99,7.31-11.17.06-.2.17-.56.38-.53l6.01,1.56c.26.08.21-.03.17-.17l-1.06-4.8c-.5-2.31-1.29-4.46-3.55-5.68-3.98-2.14-8.7-1.97-13.03-1.75-.05,0-.1.06-.08.1.61,1.33,1.8,2.39,3.09,2.82-2.22,3.5-14.21,18.98-14.21,18.98,0,0-11.99-15.48-14.21-18.98,1.28-.43,2.47-1.49,3.08-2.82.02-.05-.03-.11-.08-.1-4.33-.22-9.05-.39-13.03,1.75-2.26,1.22-3.04,3.37-3.54,5.68l-1.06,4.8c-.04.13-.09.25.17.17l6.01-1.56c.21-.03.32.32.38.53,1.16,4.18,2.48,8.16,7.31,11.17,2.85,1.77,6.34,1.4,9.46.78.76.94,1.62,1.95,2.22,2.69-7.93,9.65-15.83,18.83-24,27.81,2.44.98,5.51-.26,7.33-1.78.17-.15.3-.06.27.1-.84,2.5-.22,4.56.97,6.08,5.13-8.18,15.7-23.45,18.73-27.76Z"/>
              <path class="cls-6" d="M99.48,54.35c1.31,0,2.38,1.07,2.38,2.38,0,.34-.07.67-.2.96,0,.1.05.13.19.17l2.05.71.46,2.48-3.07-.8-.56-1.25c-.03-.1-.04-.17-.11-.17-.34.18-.72.29-1.13.29-1.31,0-2.38-1.07-2.38-2.38s1.07-2.38,2.38-2.38Z"/>
              <path class="cls-6" d="M55.36,54.35c-1.31,0-2.38,1.07-2.38,2.38,0,.34.07.67.2.96,0,.1-.05.13-.19.17l-2.05.71-.46,2.48,3.07-.8.56-1.25c.03-.1.04-.17.11-.17.34.18.72.29,1.13.29,1.31,0,2.38-1.07,2.38-2.38s-1.07-2.38-2.38-2.38Z"/>
            </g>
            <g>
              <path d="M74.05,97.97c.53-1.73.96-2.58,2.05-3.33.33-.23.87-.66,1.82-.83.67-.12,1.74,0,2.23.24-1.23.95-1.43,2.43-1.01,3.57.98-.61,2.14-1.08,3.32-.99,1.74.13,3.08,1.1,3.83,2.47-1.39-.12-2.92.49-3.25,1.9,1.42.28,2.85,1.07,3.54,2.32.61,1.1.9,2.43.46,3.77-.82-1.01-2.06-1.73-3.61-1.05.46.64.7,1.16.83,1.81.22,1.1.26,2.03-.22,3.09-.42.92-1.14,1.97-2.11,2.32.31-1.23-.45-3.08-1.81-3.4-.77,3.73-3.65,4.59-6.13,4.18,1.29-1.25,1.74-2.52,1-3.77-2.11,1.87-5.87,1.17-7.18-1.43,1.53.16,2.97-.7,3.2-1.85-1.47-.25-2.91-1.26-3.6-2.53-.51-.94-.82-2.35-.24-3.62.89,1.44,2.29,1.42,3.56,1-1.56-2.47-1.09-5.7,1.43-7.07-.06,1.32.47,2.47,1.9,3.2Z"/>
              <path class="cls-4" d="M77.24,96.06c-.44.25-1.07.71-1.27,1.18-.53,1.22-.47,2.19-.37,2.64-1.46.22-3.03-.45-4-1.5-.23,1.45.46,2.77,1.49,3.71-.95,1.15-1.8,1.68-4,1.8.74.87,1.7,1.73,3.86,1.64.03,1.77-.6,2.99-1.63,4.02,1.95.25,2.95-.55,3.9-1.65.44.37,1.32,1.42,1.53,1.92.3.72.26,1.63.25,2.17.89-.67,1.88-1.67,1.59-3.94,1.86.03,2.81.37,4.11,1.58.36-1.79-.65-2.85-1.62-3.71.71-1.31,2.37-1.83,3.97-1.84-.91-1.56-2.19-1.72-3.9-1.57-.16-1.5.41-3.12,1.57-4.15-1.7-.09-2.94.49-3.77,1.67-1.02-.87-1.84-2-1.74-3.94Z"/>
            </g>
            <g>
              <path d="M38.34,87.57c2.64,1.18,5.96,1.37,8.59-.42,2.91-1.97,3.81-5.4,2.68-8.63-1.11-3.19-4.4-4.85-7.64-5.07,1.4-1.41,3.89-2.04,5.99-2.01,6.5.09,9.74,3.8,10.9,8.56.75,3.08.15,6.2-1.69,8.81-1.47,2.09-3.19,3.51-5.66,4.3-2.17.46-4.42.67-7-.14-2.74-.86-4.96-2.76-6.17-5.41Z"/>
              <path class="cls-4" d="M43.46,90.21c2.13,1.68,4.92,1.71,7.37,1,3.49-1.01,5.98-4.14,6.32-7.78.17-1.81-.06-3.64-1.02-5.24-1.14-1.91-3.44-4.81-8.18-4.63,3.44,2.42,4.86,6.76,3.58,10.65-1.14,3.44-4.47,5.92-8.08,6Z"/>
            </g>
            <g>
              <path d="M106.29,88.78c2.23.92,4.72,1.87,6.96,2.69-.28-3.16-.42-4.99-.68-7.62,1.53-1.76,3.88-4.62,4.77-5.76-2.34-.35-4.78-.87-7.12-1.29-1.49-2.23-2.93-3.99-4.35-6.34-1.59,2.87-2.93,4.67-4.06,6.49-2.33.5-4.74,1.11-7.07,1.54.93,1.1,3.38,3.87,4.97,5.58-.17,2.63-.24,4.47-.41,7.64,2.21-.9,4.8-1.95,7-2.95Z"/>
              <path class="cls-4" d="M106.27,86.71l4.82,1.95-.61-5.19s2.53-3.05,3.25-4.07c-1.92-.34-3.39-.71-5.03-1.04-1.06-1.51-1.89-3-2.73-4.36-.8,1.39-1.6,2.91-2.6,4.46-1.62.4-3.08.81-4.99,1.23.76,1,3.39,3.95,3.39,3.95l-.43,5.21,4.93-2.12Z"/>
            </g>
          </g>
        </g>
        <path class="cls-6" d="M22.01,89.79c.62,3.6,1.73,6.2,3.15,8.78,2.45-1.72,6.06-4.24,8.16-5.78-.93-2.21-1.62-4.47-2.08-6.77l-9.23,3.77Z"/>
        <path class="cls-6" d="M35.01,96.29c-.17-.31-.33-.62-.49-.93-3.16,2.26-8.5,6.02-10.64,7.7,2.13,4.4,5.07,7.32,8.12,10.35,5.63,5.59,12.26,8.79,20.49,11.56,4.59,1.7,8.07,3.71,11.31,5.96,0,0,5.17-8.98,6.49-11.21-6.09-3.93-11.92-6.19-16.15-7.45-7.86-2.35-14.83-8.18-19.14-15.99Z"/>
        <path class="cls-6" d="M132.83,89.79c-.62,3.6-1.73,6.2-3.15,8.78-2.45-1.72-6.06-4.24-8.16-5.78.93-2.21,1.62-4.47,2.09-6.77l9.23,3.77Z"/>
        <path class="cls-6" d="M119.82,96.29c.17-.31.33-.62.49-.93,3.16,2.26,8.5,6.02,10.64,7.7-2.13,4.4-5.07,7.32-8.12,10.35-5.63,5.59-12.26,8.79-20.49,11.56-4.59,1.7-8.07,3.71-11.31,5.96,0,0-5.17-8.98-6.49-11.21,6.09-3.93,11.92-6.19,16.15-7.45,7.86-2.35,14.83-8.18,19.14-15.99Z"/>
        <path class="cls-6" d="M77.42,125.04l-1.67-1.36c-.87-.71-1.74-1.37-2.61-2.01l-.26.35c-2.39,3.62-4.25,7.43-6.39,11.19-1.42.71-3.09,1.44-3.83,1.94,0,0-.23.11.1.11h29.33c.33,0,.1-.11.1-.11-.74-.5-2.41-1.23-3.83-1.94-2.14-3.76-4.01-7.57-6.39-11.19l-.26-.35c-.87.63-1.74,1.3-2.61,2.01l-1.67,1.36Z"/>
        <g>
          <g>
            <polygon class="cls-5" points="82.56 44.5 81.88 35.42 81.87 35.36 81.94 35.35 83.85 35.19 83.92 35.18 83.92 35.25 84.6 44.34 84.61 44.4 84.54 44.41 82.64 44.57 82.57 44.57 82.56 44.5"/>
            <polygon class="cls-5" points="95.41 42.29 95.57 32.78 95.57 32.69 95.48 32.71 93.6 33.13 93.54 33.14 93.54 33.19 93.39 37.83 91.48 33.65 91.46 33.6 91.41 33.61 89.49 34.03 89.44 34.04 89.44 34.1 89.43 38.72 87.38 34.55 87.36 34.5 87.3 34.51 85.41 34.93 85.33 34.95 85.36 35.03 89.42 43.61 89.45 43.66 89.5 43.65 91.26 43.26 91.31 43.25 91.32 43.19 91.45 38.45 93.51 42.71 93.54 42.76 93.59 42.74 95.35 42.36 95.41 42.35 95.41 42.29"/>
            <path class="cls-5" d="M105.35,39.2l-.09.03-2.08.76-.05.02-.03-.04-.83-1.07-2.52.93.06,1.36v.05s-.05.02-.05.02l-2.08.76-.09.03v-.1s-.1-9.94-.1-9.94v-.05s.05-.02.05-.02l1.42-.52.05-.02.03.04,6.25,7.67.06.08ZM99.6,37.71l1.45-.53-1.55-2.03.1,2.57Z"/>
            <polygon class="cls-5" points="109.07 37.28 105.91 30.91 107.27 30.22 107.33 30.19 107.3 30.13 106.34 28.19 106.3 28.13 106.24 28.16 101.67 30.47 101.61 30.5 101.64 30.56 102.6 32.5 102.63 32.56 102.7 32.53 104.06 31.85 107.22 38.22 107.25 38.28 107.32 38.25 109.04 37.37 109.1 37.34 109.07 37.28"/>
            <path class="cls-5" d="M118.04,31.63l-.08.06-1.85,1.24-.04.03-.04-.03-1.05-.85-2.25,1.5.37,1.3.02.05-.04.03-1.84,1.23-.08.06-.03-.1-2.4-9.63v-.05s.03-.03.03-.03l1.26-.84.04-.03.04.03,7.87,5.97.08.06ZM112.1,31.55l1.28-.86-1.98-1.61.69,2.47Z"/>
          </g>
          <g>
            <polygon class="cls-5" points="60.59 33.15 62.37 33.63 62.43 33.64 62.42 33.71 60.21 42.56 60.19 42.63 60.12 42.61 58.36 42.17 58.29 42.15 58.3 42.08 60.51 33.21 60.52 33.14 60.59 33.15"/>
            <polygon class="cls-5" points="66.06 34.5 66 34.49 64.11 34.07 64.04 34.05 64.03 34.12 62.19 43.02 62.17 43.09 62.24 43.1 66.41 43.96 66.48 43.97 66.49 43.91 66.92 41.86 66.93 41.79 66.87 41.78 64.69 41.28 66.05 34.57 66.06 34.5"/>
            <path class="cls-5" d="M58.36,34.92c-.59,1.45-1.21,1.61-1.62,1.65.24.37.79,1.27.16,2.68-.71,1.57-2.23,1.96-4.3,1.1l-1.79-.74-.06-.03.03-.06,3.53-8.66.02-.07.07.03,1.79.74c2.01.84,2.74,1.97,2.18,3.36ZM54.9,34.93c.84.35,1.14.5,1.4-.13.26-.63-.3-.83-.91-1.09l-.5,1.22ZM55.16,38.13c.32-.79-.28-1.04-1.01-1.35l-.63,1.53c.65.27,1.31.64,1.64-.18Z"/>
            <path class="cls-5" d="M72.59,37.52c-.48-.09-.98.01-1.41.31-.54.37-.93.98-1.07,1.68-.25,1.32.46,2.57,1.57,2.79.48.09.98-.02,1.41-.31.54-.36.93-.98,1.06-1.68.25-1.32-.45-2.57-1.57-2.79ZM76.18,40.7c-.27,1.43-1.05,2.68-2.15,3.41-.87.59-1.87.81-2.82.62-2.23-.44-3.64-2.96-3.14-5.62.27-1.43,1.05-2.67,2.15-3.42.87-.59,1.87-.8,2.82-.62,2.24.44,3.64,2.96,3.14,5.62Z"/>
            <path class="cls-5" d="M40.24,30.92c-.16.24-.09.56.15.72.12.08.25.1.38.07.13-.03.25-.11.32-.22v-.02s.04,0,.04,0l-.04.03,3.69-5.66.04-.06.06.04,1.62,1.07.06.04-.04.06-3.79,5.82c-.38.58-.96.97-1.63,1.11-.67.14-1.36,0-1.94-.37-1.19-.79-1.53-2.4-.75-3.6l.02.1-.06-.04.04-.06.33-.5.04-.06.06.04,1.62,1.07.06.04-.04.06-.22.34"/>
            <g>
              <path class="cls-5" d="M48.3,35.07l2.05-4.04.03-.06.06.03,1.69.87.06.03-.03.06-2.18,4.31v-.07s.02.03.02.03l-.02.04c-.37.73-1,1.28-1.78,1.53-.76.25-1.56.18-2.27-.19-1.47-.76-2.05-2.6-1.29-4.1l2.19-4.31.03-.06.06.03,1.69.88.06.03-.03.06-2.05,4.04c-.24.48-.06,1.06.41,1.3.22.12.48.14.72.06.25-.08.45-.25.56-.48v-.03s.05,0,.05,0l-.05.03Z"/>
              <polygon class="cls-5" points="52.86 29.8 49.52 30.36 49.38 30.38 49.45 30.26 50.36 28.46 50.4 28.39 50.46 28.42 52.88 29.67 53.07 29.77 52.86 29.8"/>
            </g>
          </g>
        </g>
        <g>
          <polygon class="cls-5" points="42.9 119.39 42.96 119.42 45.22 120.68 45.29 120.72 45.33 120.64 49.86 112.44 49.9 112.36 49.82 112.32 48.31 111.49 48.24 111.45 48.2 111.53 45.26 116.84 46.45 110.46 46.39 110.43 44.14 109.17 44.06 109.13 44.02 109.21 39.5 117.41 39.46 117.49 39.53 117.53 41.04 118.37 41.12 118.41 41.16 118.34 44.1 113.01 42.9 119.39"/>
          <path class="cls-5" d="M56.43,120.51l-2.01-.63h-.06s-.04.03-.04.03c-.56.71-1.4,1.02-2.14.81-.45-.13-.84-.45-1.08-.9-.31-.56-.37-1.26-.15-1.92.37-1.26,1.54-2.03,2.6-1.72.68.2,1.18.81,1.32,1.6v.05s.06.02.06.02l2.06.62.1.03v-.1c.18-2.19-.99-4.14-2.8-4.67-2.22-.65-4.64.92-5.44,3.52-.42,1.39-.29,2.84.32,4.01.5.96,1.3,1.63,2.25,1.91,1.88.55,4-.5,5.04-2.54l.05-.09-.1-.03Z"/>
          <polygon class="cls-5" points="35.66 114.37 37.17 115.54 37.23 115.58 37.27 115.53 42.88 108.35 42.92 108.3 42.87 108.26 41.36 107.08 41.3 107.04 41.26 107.1 35.64 114.27 35.6 114.33 35.66 114.37"/>
          <polygon class="cls-5" points="58.88 123.5 59.45 122.32 61.64 123.38 62.66 121.28 60.48 120.22 61.01 119.13 63.86 120.53 64.88 118.42 60.15 116.11 55.97 124.69 60.7 127 61.73 124.9 58.88 123.5"/>
          <path class="cls-5" d="M36.37,108.92c.1-.6,0-1.24-.28-1.9-.33-.77.05-1.15.31-1.31h0c.09-.06.2-.1.32-.09.13.01.26.08.35.18.18.22.15.54-.07.73l-.08.07-.05.05.05.05,1.23,1.5.05.05.05-.04.23-.19.05-.05h0c1.03-.93,1.17-2.52.28-3.6-.44-.54-1.07-.87-1.75-.93-.62-.05-1.21.12-1.71.48-.53.3-1.26,1.02-1.45,2.06h0c-.09.6,0,1.24.28,1.9.33.77-.05,1.15-.31,1.31h0c-.09.06-.2.1-.32.09-.13-.01-.26-.08-.35-.18-.18-.22-.15-.54.07-.73l.08-.07.05-.05-.05-.05-1.23-1.5-.05-.05-.05.04-.23.19-.05.05h0c-1.04.94-1.18,2.54-.28,3.62.44.53,1.06.87,1.74.93.62.06,1.21-.12,1.71-.48.52-.3,1.26-1.02,1.44-2.07h0Z"/>
        </g>
        <g>
          <path class="cls-5" d="M91.01,118.13c.13.43.11.78-.05,1.06-.17.3-.49.57-.96.8l-.35.17.76,1.56,1.49-.73,2.82,5.77,1.95-.95-4.21-8.63-1.51.74.06.21Z"/>
          <path class="cls-5" d="M103.92,115.61c-.25-.49-.54-.89-.88-1.21-.34-.33-.75-.55-1.19-.66-.45-.1-.98-.05-1.56.18-.94.36-1.54.93-1.76,1.67-.22.73-.13,1.62.27,2.66.16.4.34.76.54,1.07.21.32.45.59.72.79.27.2.58.32.92.37.67.08,1.54-.26,1.98-.76.08-.09.14-.19.2-.28.09.24.17.48.23.69.07.25.11.47.11.66,0,.17-.02.32-.09.43-.06.11-.17.19-.33.25-.28.1-.39.01-.43-.01-.13-.11-.25-.3-.36-.57l-1.96.76c.18.44.4.79.65,1.04.26.26.54.44.84.54.29.1.6.13.92.08.3-.04.59-.12.89-.24.68-.26,1.17-.61,1.45-1.03.29-.43.43-.93.43-1.47,0-.52-.1-1.09-.29-1.7-.18-.57-.39-1.17-.63-1.79-.2-.52-.42-1.03-.67-1.5ZM102.29,117.93c-.02.13-.08.32-.39.44-.3.12-.47.02-.57-.07-.13-.11-.34-.39-.59-1.04-.09-.23-.16-.45-.22-.65-.05-.19-.08-.35-.08-.5,0-.12.03-.23.09-.32.05-.08.16-.15.3-.21.14-.05.26-.06.36-.04.1.03.2.09.28.17.1.1.2.24.28.42.1.19.19.4.28.63.25.66.28,1,.26,1.18Z"/>
          <path class="cls-5" d="M112.86,111.09c-.3-.45-.65-.82-1.02-1.1-.38-.28-.81-.45-1.27-.5-.46-.05-.97.07-1.52.36-.89.48-1.41,1.11-1.54,1.87-.13.74.07,1.62.59,2.61.2.38.43.72.67,1,.25.3.52.53.81.69.29.17.61.25.95.26.67,0,1.5-.44,1.87-.99.07-.1.12-.2.17-.3.12.23.23.45.31.66.1.24.17.45.19.65.02.17.01.31-.04.44-.04.11-.14.21-.3.29-.26.14-.39.06-.43.03-.15-.09-.29-.27-.43-.52l-1.86.99c.23.41.49.74.77.96.29.22.59.36.9.43.3.06.61.05.93-.03.29-.08.58-.2.85-.34.64-.34,1.09-.74,1.32-1.2.23-.46.32-.97.25-1.51-.06-.52-.23-1.08-.49-1.66-.25-.55-.54-1.12-.85-1.7-.26-.5-.54-.96-.84-1.4ZM111.53,113.59c0,.13-.03.33-.33.48-.29.15-.46.07-.57,0-.15-.09-.39-.34-.72-.96-.12-.22-.21-.42-.3-.62-.07-.18-.12-.34-.14-.48-.01-.12,0-.22.04-.32.04-.09.13-.17.27-.25.13-.07.25-.1.35-.08.1.02.2.06.3.14.11.09.22.22.33.38.12.17.24.37.35.58.33.63.4.96.4,1.14Z"/>
          <path class="cls-5" d="M121.41,109.52c-.03-.07-.05-.14-.07-.21-.07-.23-.12-.52-.13-.86l-.06-1.36c-.01-.34-.05-.66-.1-.94-.06-.29-.14-.57-.25-.81-.1-.25-.24-.49-.41-.7-.16-.2-.35-.43-.57-.63-.64-.59-1.31-.88-1.97-.86-.66.01-1.3.35-1.91,1.02-.65.71-.95,1.41-.89,2.08.06.67.43,1.34,1.1,1.95l.45.41,1.42-1.56-.19-.17c-.18-.18-.32-.32-.46-.46-.12-.13-.21-.26-.27-.4-.06-.11-.08-.22-.07-.33,0-.1.07-.21.18-.31.2-.23.47-.39,1.03.12.17.16.29.26.4.38.11.12.18.23.25.37.06.15.11.3.14.46.04.17.06.38.06.64l.05.98c.02.45.07.87.14,1.26.06.39.17.78.3,1.12.14.35.33.68.54,1,.22.3.48.57.78.84l.19.19,3.82-4.1-1.45-1.36-2.05,2.26Z"/>
        </g>
      </g>
    </g>
  </g>
</svg>