<?xml version="1.0" encoding="UTF-8"?>
<svg id="_レイヤー_2" data-name="レイヤー 2" xmlns="http://www.w3.org/2000/svg" xmlns:xlink="http://www.w3.org/1999/xlink" viewBox="0 0 426.45 445.45">
  <defs>
    <style>
      .cls-1 {
        fill: none;
      }

      .cls-2 {
        fill: #221815;
      }

      .cls-3 {
        fill: #ffe100;
      }

      .cls-4 {
        fill: #9fa0a0;
      }

      .cls-5 {
        fill: #004471;
      }

      .cls-6 {
        fill: #d5b200;
      }

      .cls-7 {
        fill: #fff;
      }

      .cls-8 {
        fill: #65aadd;
      }

      .cls-9 {
        fill: #f6ab00;
      }

      .cls-10 {
        clip-path: url(#clippath);
      }

      .cls-11 {
        fill: #fffbc7;
      }
    </style>
    <clipPath id="clippath">
      <path class="cls-1" d="M390.94,220.47c.07-12.49-5.34-22.53-15.6-29.03-.69-.44-1.39-.87-2.1-1.27-.77-.43-1.55-.85-2.34-1.22-11.64-5.67-23.69-4.48-34.15-2.53-5.83,1.33-9.45,2.5-11.74,3.46-1.46-1.46-3.03-2.84-4.74-4.07-.97-.67-6.37-4.22-14.15-5.76-.48-2.22-.98-3.96-1.26-4.88-.01-.05-.23-.79-.25-.84-1.29-3.88-4.26-11.63-9.68-19.89-6.8-10.34-15.02-17.72-24.49-21.96-15.15-6.65-29.01-3.93-42.64,8.55-6.19,6.4-11.53,14.18-15.87,23.1-.54,1.12-4.52,10.56-4.96,11.86-1.56,4.27-6.56,19.27-5.14,33.03.89,10.47,5.87,20.97,13,27.42.12.11.54.44.67.53,7.94,6.03,16.67,9.07,25.99,9.07,1.13,0,2.27-.05,3.42-.13,12.05-.93,21.23-4.61,21.51-4.72,1.18-.45,2.22-.93,3.33-1.4,3.32,4.59,7.6,8.48,12.65,11.05,6.29,3.17,11.23,4.29,15.81,4.29.67,0,1.31-.14,1.97-.18.25.54.51,1.09.92,1.73,9.83,18.52,24.19,24.87,33.25,24.47.58.03,1.17.05,1.76.05,15.78,0,33.72-11.18,44.46-28.18l.53-.88c3.53-5.77,8.87-14.5,9.85-31.66Z"/>
    </clipPath>
  </defs>
  <g id="_レイヤー_1-2" data-name="レイヤー 1">
    <g>
      <path class="cls-8" d="M426.45,227.93c0,117.76-84.41,196.43-213.22,196.43S0,345.69,0,227.93,95.46,14.71,213.22,14.71s213.22,95.46,213.22,213.22Z"/>
      <g>
        <g>
          <g>
            <path class="cls-2" d="M419.51,296.49c-1.3-.72-2.84-1.24-3.8-1.44-6.81-1.4-13.64-2.18-20.31-2.33-3.7-.09-7.16,0-10.49.16-1.79-20.11-8.09-39.31-19.27-58.27,1.62-9.72,2.12-22.36,2.53-32.66l.21-5.17c.84-18.75-5.88-43.26-14.38-52.46-2.12-2.29-5.31-4.04-8.13-4.45-21.54-3.21-49.87,5.34-81.73,24.67l-4-.59c-26.18-3.9-58.77-8.75-103.06,1.53-1.4.32-2.95.78-4.54,1.26-2.37.71-6.76,1.98-7.92,1.68-8.49-4.64-30.28-15.71-49.14-18.5-17.53-2.61-29.09.83-34.52,10.31-15.37,28.86-7.65,69.07-4.44,79.47-16,31.01-15.69,63.87-15.6,67.47,0,.84.03,1.72.04,2.58-.84.06-1.6.09-2.48.16-8.93.71-17.8,1.58-28.07,4.44-3.34.92-6.41,3.14-5.81,5.59.47,1.92,2.84,2.34,4.83,2.34,1.54,0,2.85-.25,2.89-.26,10.63-2.17,16.02-2.75,23.47-3.55l3.14-.34c.81-.09,1.61-.13,2.42-.2.81,9.68,2.85,19.99,6.48,30.18-4.44,1.67-9.56,3.89-15.71,7.07-.04.02-3.98,2.08-4.74,4.62-.23.78-.15,1.56.23,2.24.62,1.11,1.92,1.46,3.31,1.46,2.3,0,4.82-.95,4.86-.96,1.84-.81,3.57-1.58,5.21-2.31,3.72-1.66,6.96-3.05,10-4.23,3.93,8.9,9.09,17.53,15.73,25.34-6.84,3.96-15.09,9.33-24.44,16.6-1.94,1.52-3.19,3.45-3.41,5.32-.12,1.04.11,1.99.65,2.67.41.51,1.18.73,2.1.73,1.62,0,3.71-.68,5.14-1.7,10.26-7.27,19.16-12.89,26.15-17.04,7.51,7.31,16.5,13.67,27.22,18.49,35.27,15.84,67.77,19.4,108.95,20l4.04-.06,4.36.06c47.38-.7,84.81-7.46,111.26-20.11,15.35-7.34,27.56-17.24,36.7-29.54,7.64,2.61,16.9,6.62,25.83,12.66,1.14.79,3.45,2.17,5.5,2.17.92,0,1.79-.27,2.47-1.01.29-.3.61-.85.53-1.73-.17-1.86-2.23-4.46-3.56-5.43-9.12-6.66-18.29-10.95-26.01-13.74,5.25-8.67,9.17-18.37,11.72-29.12,5.64.9,12.22,2.35,19.44,4.77.04,0,2.17.71,4.26.71,1.57,0,3.11-.39,3.7-1.78.27-.63.26-1.33-.03-2.02-1.04-2.48-5.39-4.32-5.43-4.33-7.12-2.82-14.12-4.47-20.31-5.49,1.35-8.14,2-16.8,1.93-26,.02-1.57-.07-3.12-.1-4.67,2.94-.16,5.97-.26,9.16-.22,4.96.05,10.48.42,15.35.74,1.52.1,2.99.19,4.4.28,3.19.18,7.1-.41,7.57-2.73.17-.81-.11-2.03-2.36-3.29Z"/>
            <path class="cls-7" d="M354.53,234.62c1.76-9.13,2.29-22.42,2.71-33.11l.22-5.23c.76-16.97-5.67-38.25-11.49-44.55-.51-.56-1.4-.99-1.72-1.06-18.78-2.76-45.27,5.51-74.57,23.31-2.08,1.26-3.22,1.95-5.23,1.65l-5.91-.87c-25.25-3.76-56.69-8.45-98.98,1.36-1.2.27-2.52.68-3.88,1.08-5.38,1.6-11.46,3.43-16.3.79-7.98-4.35-28.38-14.75-45.5-17.28-12.59-1.85-20.45-.25-23.34,4.78-10.47,19.65-8.42,46.45-5.73,61.45.72-.85,1.42-1.62,2.07-2.27,2.63-2.63,5.32-3.6,7.16-2.33,1.91,1.32,1.15,4.66-.08,7.33-1.22,2.65-3.69,7.76-5.63,11.18,0,0,0,.01,0,.02-16.85,29.6-16.54,62.53-16.45,66.2,0,.74.03,1.51.04,2.26,9.31.02,14.99,1,17.89,1.74l.21.05c.06.01,7.62,1.41,7.18,5.04-.39,3.23-4.98,2.99-7.2,2.87l-.82-.06c-2.44-.37-8.96-1.24-16.86-1.4.79,8.79,2.71,18.09,6.01,27.25,4.52-1.04,7.72-1.28,9.83-1.4l.29-.02c2.79-.15,9.39-.25,9.73,3.07.3,2.87-4.87,4.24-7.11,4.7-1.04.21-2.16.36-3.41.53-1.75.24-3.74.52-6.09,1.02,3.77,8.24,8.76,16.15,15.14,23.24,6.63-3.22,10.45-4.39,10.53-4.42.06-.03,6.57-1.68,7.84,1.28,1.09,2.56-1.67,3.92-4.33,5.24-.85.42-1.74.86-2.55,1.35,0,0-.09.05-.26.13-1.03.51-2.75,1.4-5.02,2.62,6.17,5.56,13.32,10.43,21.71,14.2,33.54,15.07,64.84,18.45,104.46,19.04l4.04-.06,4.36.06c44.98-.67,81.88-7.25,106.54-19.04,12.36-5.91,22.38-13.54,30.17-22.9-3.71-.86-5.98-1.18-6.04-1.19-1.42-.14-5.85-1.17-7.34-3.19-.44-.61-.61-1.28-.47-1.94.75-3.62,7.32-2.9,10.09-2.43.35.03,3.75.38,9.03,1.65,5.2-7.94,9.03-16.98,11.53-27.1-2.33-.14-4.2-.17-5.48-.17-2.44.01-5.28-.05-5.28-.05-.74-.07-6.59-.76-6.82-3.68-.03-.39.05-1,.6-1.64,1.31-1.53,4.62-2.39,6.03-2.5l.31-.03c.84-.08,3.07-.3,5.31-.32h.62c1.62,0,3.81.05,6.42.22,1.29-7.68,1.93-15.9,1.86-24.75.01-1.24-.06-2.46-.09-3.69-6.85.85-12.47,1.97-16.3,2.74-1.96.39-3.38.68-4.24.78-1.38.2-2.56.3-3.55.3-2.31,0-3.58-.56-4-1.72-.29-.84-.23-1.74.18-2.59.73-1.52,2.53-2.81,5.19-3.71,2.09-.71,10.2-3.2,22.24-4.68-1.72-19.08-7.86-37.28-18.78-55.31-.7-1.16-.95-2.54-.69-3.87Z"/>
          </g>
          <g>
            <path class="cls-2" d="M115.31,316.3c-3.5,7.1-3.52,18.45,1.21,24.48,2.92,3.45,7.8,5.41,14.09,4.33,5.43-.94,8.52-5.9,9.55-9.85,2.23-8.84-.14-19.68-5.23-23.79-5.36-3.91-15.39-3.82-19.61,4.83Z"/>
            <path class="cls-2" d="M285.41,317.34c-3.5,7.1-3.52,18.45,1.21,24.48,2.92,3.45,7.8,5.41,14.09,4.33,5.43-.94,8.52-5.9,9.55-9.85,2.23-8.84-.15-19.68-5.23-23.79-5.36-3.91-15.39-3.82-19.61,4.83Z"/>
            <g>
              <path class="cls-2" d="M230.45,348.05c-1.17-4.16-4.32-7.43-8.44-8.76-7.86-2.55-15.82-1.48-20.77,2.79-5.16,4.56-5.41,12.65-2.19,16.84,2.99,3.87,7.72,5.9,14.48,6.2.31.01.63.02.94.02,5.41,0,10.44-1.98,13.31-5.27v-.02c2.83-3.28,3.82-7.69,2.67-11.81Z"/>
              <path class="cls-3" d="M219.91,345.8c-2.1-.68-4.24-1.01-6.25-1.01-3.19,0-6.05.84-7.91,2.45-2.45,2.17-2.29,6.18-1.26,7.52,1.68,2.18,4.74,3.34,9.35,3.54,4.27.17,7.46-1.38,8.79-2.9,1.34-1.56,1.79-3.55,1.24-5.49-.54-1.94-2.02-3.48-3.96-4.11Z"/>
            </g>
          </g>
        </g>
        <g>
          <g>
            <path class="cls-2" d="M174.31,406.13c-1.48-4.63-4.48-8.3-7.74-11.99-11.57-11.1-31.76-15.56-47.81-10.64-11.58,3.03-24.94,13.2-26.89,28.3-1.79,11.76,2.42,22.06,11.65,27.76,9.31,4.78,19.42,4.67,29.7-.17.87-.33,1.3-.24,3.57.72,1.42.61,3.17,1.34,5.28,1.7,3.57,1.03,6.76,1.46,9.57,1.46,7.46,0,12.38-3.02,15.44-6.04,7.97-7.84,10.94-20.61,7.23-31.1Z"/>
            <path class="cls-7" d="M163.98,409.72c-.03-.07-.05-.13-.07-.2-.84-2.65-3.05-5.31-5.25-7.82-8.41-8.05-24.41-11.47-36.92-7.67-8.41,2.21-17.79,9.67-19.04,19.29-.55,3.62-1.01,12.25,6.19,16.72,5.93,3.02,12.4,2.87,20-.7,1.9-.75,3.63-1.02,5.19-1.02,2.92,0,5.24.98,6.98,1.72,1.12.47,2.08.88,2.97,1.01.27.04.53.09.78.17,6.51,1.94,11.44,1.34,14.59-1.78,4.91-4.82,6.87-13.3,4.58-19.71Z"/>
          </g>
          <g>
            <path class="cls-2" d="M338.19,414.09c-1.98-15.21-15.33-25.39-26.69-28.34-16.27-4.97-36.47-.53-48.34,10.91-2.82,3.2-5.95,7-7.44,11.65-3.71,10.49-.74,23.27,7.22,31.1,3.07,3.03,8,6.05,15.46,6.05,2.81,0,5.99-.43,9.57-1.46,2.11-.36,3.85-1.1,5.28-1.7,2.29-.98,2.71-1.06,3.23-.88,10.61,5,20.73,5.1,30.44.1,8.83-5.48,13.04-15.78,11.27-27.43Z"/>
            <path class="cls-7" d="M327.35,415.62c-1.27-9.74-10.64-17.21-18.84-19.34-3.53-1.08-7.32-1.6-11.13-1.6-9.92,0-20.02,3.48-26.32,9.53-1.88,2.17-4.1,4.83-4.94,7.48-.02.07-.04.13-.07.2-2.29,6.41-.33,14.89,4.56,19.7,3.17,3.11,8.06,3.72,14.6,1.78.25-.07.51-.13.78-.17.89-.13,1.85-.53,2.97-1.01,2.67-1.14,6.69-2.83,11.82-.85,7.93,3.73,14.41,3.88,20.73.64,6.81-4.24,6.35-12.88,5.82-16.38Z"/>
          </g>
        </g>
        <g>
          <g class="cls-10">
            <g>
              <rect class="cls-8" x="221.2" y="112.63" width="132.75" height="190.62" transform="translate(-22.42 380.69) rotate(-65)"/>
              <g>
                <rect class="cls-11" x="206.73" y="108.56" width="20.14" height="132.75" transform="translate(94.24 -75.23) rotate(25)"/>
                <rect class="cls-11" x="243.73" y="125.82" width="20.14" height="132.75" transform="translate(105 -89.25) rotate(25)"/>
                <rect class="cls-11" x="280.74" y="143.08" width="20.14" height="132.75" transform="translate(115.76 -103.28) rotate(25)"/>
                <rect class="cls-11" x="317.75" y="160.34" width="20.14" height="132.75" transform="translate(126.52 -117.3) rotate(25)"/>
                <rect class="cls-11" x="354.76" y="177.59" width="20.14" height="132.75" transform="translate(137.3 -131.33) rotate(25)"/>
              </g>
            </g>
          </g>
          <path class="cls-1" d="M390.94,220.47c.07-12.49-5.34-22.53-15.6-29.03-.69-.44-1.39-.87-2.1-1.27-.77-.43-1.55-.85-2.34-1.22-11.64-5.67-23.69-4.48-34.15-2.53-5.83,1.33-9.45,2.5-11.74,3.46-1.46-1.46-3.03-2.84-4.74-4.07-.97-.67-6.37-4.22-14.15-5.76-.48-2.22-.98-3.96-1.26-4.88-.01-.05-.23-.79-.25-.84-1.29-3.88-4.26-11.63-9.68-19.89-6.8-10.34-15.02-17.72-24.49-21.96-15.15-6.65-29.01-3.93-42.64,8.55-6.19,6.4-11.53,14.18-15.87,23.1-.54,1.12-4.52,10.56-4.96,11.86-1.56,4.27-6.56,19.27-5.14,33.03.89,10.47,5.87,20.97,13,27.42.12.11.54.44.67.53,7.94,6.03,16.67,9.07,25.99,9.07,1.13,0,2.27-.05,3.42-.13,12.05-.93,21.23-4.61,21.51-4.72,1.18-.45,2.22-.93,3.33-1.4,3.32,4.59,7.6,8.48,12.65,11.05,6.29,3.17,11.23,4.29,15.81,4.29.67,0,1.31-.14,1.97-.18.25.54.51,1.09.92,1.73,9.83,18.52,24.19,24.87,33.25,24.47.58.03,1.17.05,1.76.05,15.78,0,33.72-11.18,44.46-28.18l.53-.88c3.53-5.77,8.87-14.5,9.85-31.66Z"/>
          <path class="cls-2" d="M390.94,220.47c.07-12.49-5.34-22.53-15.6-29.03-.69-.44-1.39-.87-2.1-1.27-.77-.43-1.55-.85-2.34-1.22-11.64-5.67-23.69-4.48-34.15-2.53-5.83,1.33-9.45,2.5-11.74,3.46-1.46-1.46-3.03-2.84-4.74-4.07-.97-.67-6.37-4.22-14.15-5.76-.48-2.22-.98-3.96-1.26-4.88-.01-.05-.23-.79-.25-.84-1.29-3.88-4.26-11.63-9.68-19.89-6.8-10.34-15.02-17.72-24.49-21.96-15.15-6.65-29.01-3.93-42.64,8.55-6.19,6.4-11.53,14.18-15.87,23.1-.54,1.12-4.52,10.56-4.96,11.86-1.56,4.27-6.56,19.27-5.14,33.03.89,10.47,5.87,20.97,13,27.42.12.11.54.44.67.53,7.94,6.03,16.67,9.07,25.99,9.07,1.13,0,2.27-.05,3.42-.13,12.05-.93,21.23-4.61,21.51-4.72,1.18-.45,2.22-.93,3.33-1.4,3.32,4.59,7.6,8.48,12.65,11.05,6.29,3.17,11.23,4.29,15.81,4.29.67,0,1.31-.14,1.97-.18.25.54.51,1.09.92,1.73,9.83,18.52,24.19,24.87,33.25,24.47.58.03,1.17.05,1.76.05,15.78,0,33.72-11.18,44.46-28.18l.53-.88c3.53-5.77,8.87-14.5,9.85-31.66ZM262.41,230.99c-.08.03-8.08,3.2-18.37,4-11.87.91-19.44-4.85-21.88-6.66-5-4.53-8.79-12.66-9.45-20.34-1.18-11.51,3.16-24.52,4.61-28.48.39-1.06,3.95-9.57,4.44-10.59,3.84-7.9,8.52-14.72,13.66-20.06,10.24-9.37,19.41-11.29,30.57-6.38,7.49,3.35,14.15,9.4,19.77,17.96,4.92,7.49,7.54,14.61,8.32,16.9l.28.99c.1.33.23.76.37,1.26-3.12.38-6.39,1.21-9.76,2.67-.86.37-1.62.86-2.44,1.29-1.82-1.99-4.05-3.77-6.3-5.03-6.73-3.79-14.11-3.84-20.25-.13-6.59,4-10.46,11.71-9.86,19.44.23,6.03,2.69,11.16,7.12,14.82,2.87,2.37,6.27,3.78,9.4,4.6,0,.53-.07,1.05-.06,1.58.03,3.82.78,7.6,2.04,11.21-.76.31-1.43.63-2.24.94ZM264.12,206.3c-1.43-.51-2.96-1.24-4.22-2.39-1.79-1.63-2.7-3.75-2.82-6.7-.29-3.87,1.51-7.59,4.61-9.47,2.17-1.32,4.47-1.53,7.04-.66,2.02.68,3.67,1.86,4.9,2.98-4.48,4.46-7.75,9.99-9.5,16.23ZM306.89,242.69c-7.63,2.01-11.53,2.43-19.54-1.62-8.18-4.17-13.72-13.13-13.78-22.46-.43-11.82,5.62-21.89,15.78-26.29,3.44-1.49,6.75-2.05,9.77-2.05,8.05,0,14.03,3.93,14.85,4.49,9.03,6.49,13.34,17.88,10.69,28.51-2.49,11.49-10.8,17.57-17.75,19.43ZM371.63,246.63l-.6,1.01c-8.69,13.74-23.71,23.26-36.56,22.57-6.52.09-15.93-5.16-23.02-17.53,4.14-1.36,8.46-3.71,12.35-7.14,1.96,1.41,4.3,2.61,7,3.2,1.02.22,2.2.38,3.49.38,3.21,0,7.18-.98,11.47-4.38,4.81-4.81,6.43-10.35,4.84-17.49-2.81-8.54-9.53-11.12-14.31-12.03-.27-5.63-1.81-11.14-4.48-16.14,2.05-.65,4.64-1.36,7.15-1.94,8.49-1.57,18.35-2.62,27.19,1.67.59.28,1.14.58,1.7.89.53.3,1.04.61,1.59.96,7.15,4.53,10.61,10.99,10.57,19.46-.82,14.14-4.94,20.88-8.38,26.5ZM335.17,226.2c2.53.61,4.13,1.69,4.89,3.93.65,2.96.13,4.69-1.56,6.43-1.71,1.35-3.44,1.83-5.18,1.51-.94-.17-1.76-.57-2.49-1,1.88-3.16,3.39-6.77,4.33-10.89Z"/>
        </g>
      </g>
    </g>
    <g>
      <path class="cls-7" d="M144.25,116.37c-5.85-2.79-11.66-5.56-17.59-7.73v-3.44c-1.26-.44-2.54-.83-3.82-1.18,4.16-11.28,6.39-24.03,6.39-37.29,0-16.49-3.42-32.21-9.87-45.48l-1.04-2.13c-.11-.1-.25-.17-.39-.21l-1.93,1.64c-3.85,3.27-8.2,5-12.57,5-9.87,0-19.17-8.95-23.68-22.8l-.46-1.41h-.04c-.12-.76-.77-1.35-1.56-1.35s-1.45.59-1.56,1.35h-.04l-.46,1.4c-4.6,13.94-13.65,22.6-23.62,22.6-4.36,0-8.69-1.72-12.53-4.96l-1.95-1.64c-.12.04-.24.09-.34.16l-1.07,2.18c-6.51,13.29-9.96,29.08-9.96,45.64,0,20.44,5.26,39.69,14.81,54.19.16.25.33.49.5.73-4.52-.31-9.04-1.25-13.43-2.73l-.05,3.41c-5.77-1.85-11.44-4.31-17.14-6.81v.03c2.79,3.89,5.58,7.77,8.38,11.59-2.68,1.56-5.38,3.06-8.07,4.54,8.52,3.73,16.96,7.36,25.62,9.01l-.05-2.88c5.35.86,10.76.92,16.02-.02,1.21-.22,2.41-.48,3.6-.79,6.61,4.48,13.85,6.85,21.36,6.85,13.94,0,26.99-8.14,36.73-22.93.22-.33.42-.68.63-1.01,1.14.14,2.27.31,3.4.52v3.4c8.74,2.15,17.22,6.17,25.78,10.26-3-4.38-5.98-8.75-8.99-13.05,2.99-1.6,6-3.13,9.01-4.65v-.04Z"/>
      <g>
        <path class="cls-5" d="M127.93,67.23c0,20.01-5.13,38.85-14.46,53.05-9.51,14.48-22.23,22.45-35.84,22.45s-26.33-7.97-35.84-22.45c-9.32-14.2-14.46-33.04-14.46-53.05,0-16.22,3.36-31.67,9.72-44.69l1.04-2.13c.1-.07.21-.13.34-.16l1.9,1.61c3.75,3.18,7.98,4.86,12.23,4.86,9.73,0,18.56-8.48,23.05-22.13l.45-1.38h.04c.11-.75.75-1.32,1.53-1.32s1.41.57,1.53,1.32h.04l.45,1.39c4.4,13.56,13.47,22.32,23.11,22.32,4.27,0,8.51-1.69,12.27-4.89l1.89-1.6c.14.04.27.12.39.21l1.01,2.08c6.3,12.98,9.64,28.38,9.64,44.52"/>
        <g>
          <path class="cls-11" d="M29.98,56.5c-.34,3.5-.52,7.08-.52,10.73,0,40.53,21.57,73.38,48.17,73.38s48.18-32.86,48.18-73.38c0-3.65-.19-7.23-.52-10.73H29.98Z"/>
          <g>
            <path class="cls-8" d="M69.03,56.5v82.95c2.79.77,5.67,1.17,8.6,1.17s5.94-.42,8.8-1.22V56.5h-17.4Z"/>
            <path class="cls-8" d="M112.54,117.81v-61.31h-17.4v79.11c6.64-3.95,12.57-10.08,17.4-17.81Z"/>
            <path class="cls-8" d="M42.67,56.5v61.21c4.83,7.75,10.75,13.9,17.4,17.87V56.5h-17.4Z"/>
          </g>
        </g>
        <g>
          <g>
            <path class="cls-5" d="M109.46,92.58c0,17.52-14.2,31.72-31.72,31.72s-31.72-14.2-31.72-31.72,14.2-31.72,31.72-31.72,31.72,14.2,31.72,31.72"/>
            <path class="cls-7" d="M103.98,92.58c0,14.49-11.75,26.24-26.24,26.24s-26.24-11.75-26.24-26.24,11.75-26.23,26.24-26.23,26.24,11.74,26.24,26.23"/>
          </g>
          <g>
            <g>
              <path class="cls-4" d="M100.88,95.32s.04.01.05.02c-.1-.05-.2-.1-.31-.15.21-.1.4-.25.55-.46.26-.35.4-.82.4-1.28,0-.32-.06-.63-.2-.9-.12-.24-.29-.43-.49-.57.03-2.2-.26-4.41-.86-6.58-1.35-4.91-3.95-8.96-7.51-11.73-2.68-2.08-6.04-2.89-9.4-2.33-.72-.32-1.47-.59-2.24-.8-5.81-1.56-11.99.47-15.75,5.08-2.77,1.27-4.58,3.06-5.72,4.64-.94-.58-1.61-.51-2.02-.32-.66.3-.94,1.02-.99,1.6-.01.18,0,.34.02.5-.6.03-1.1.42-1.37.91-.16.29-.25.62-.25.95,0,.48.2.95.68,1.22,0,0,0,0,0,0,0,0,0,0,0,0,.08.06.16.11.23.17-.23.06-.44.17-.64.34-.43.39-.68,1.01-.68,1.61,0,.17.02.33.06.49.07.26.2.48.36.66-.46,2.15-.61,4.37-.45,6.62.36,5.08,2.11,9.56,5.07,12.97,2.22,2.56,5.36,4.02,8.76,4.13.65.46,1.33.87,2.05,1.22,5.39,2.67,11.85,1.88,16.44-1.9,5.52-1.3,8.12-5.06,8.77-6.15.91-1.53,1.51-3.1,1.77-4.69.14.03.27.07.4.11,1.25.58,2,.36,2.4.06.59-.43.73-1.19.66-1.76-.02-.18-.07-.34-.12-.48.58-.15.99-.63,1.17-1.16.25-.77.04-1.75-.85-2.05ZM81.51,81.48c.14-.21.31-.42.49-.6.06.18.1.37.15.56-.22.01-.43.03-.64.04ZM71.12,102.42c.22.03.42.06.63.08-.18.18-.38.34-.6.49-.02-.19-.02-.38-.03-.57Z"/>
              <g>
                <path class="cls-11" d="M68.69,103.73c.11,0,.21,0,.32,0,.51-.04.99-.17,1.45-.36-.05-.35-.08-.71-.09-1.07-.59-.11-1.19-.25-1.78-.42,0,.09-.01.17-.01.26,0,.32.03.63.05.94.01.14.01.28.03.42,0,.07.03.15.04.22Z"/>
                <path class="cls-11" d="M65.3,102.16s0-.01,0-.02c0-.36.02-.71.04-1.07,0-.1.01-.21.02-.31,0-.1.02-.21.03-.31-.52-.37-1.02-.77-1.49-1.18-.04.23-.07.46-.1.68.41.79.89,1.52,1.45,2.16.01.02.03.03.04.05Z"/>
                <path class="cls-11" d="M68.81,91.19c.07-.1.15-.2.22-.31-.15-.05-.3-.09-.45-.16-.2-.09-.38-.17-.57-.26.21.32.44.62.68.91.04-.06.08-.13.12-.19Z"/>
                <path class="cls-11" d="M66.1,100.89c-.04.48-.06.95-.06,1.43,0,.17,0,.34.01.51.53.37,1.17.68,1.86.83-.06-.53-.1-1.06-.1-1.59,0-.13.01-.27.02-.4-.61-.21-1.18-.47-1.73-.77Z"/>
                <path class="cls-11" d="M69.24,91.91c.34,0,.67-.04,1.01-.13.35-.1.67-.25.97-.43-.49-.04-.98-.11-1.45-.23-.12.16-.24.32-.35.49-.07.1-.12.2-.19.3Z"/>
                <path class="cls-11" d="M74.18,111.38c.26.06.52.11.78.16.02,0,.04,0,.07.01,1.27.2,2.57.19,3.83-.01-1.28-.23-2.63-.56-4.09-1.04-.44.25-.9.48-1.36.68.16.05.32.09.48.13.1.03.19.06.29.08Z"/>
                <path class="cls-11" d="M80.93,111.81c-2.78.9-5.84.85-8.62-.24-.89.28-1.82.47-2.78.53.34.2.68.4,1.04.58,4.67,2.31,10.18,1.88,14.42-.93-1.23.16-2.58.19-4.06.06Z"/>
                <path class="cls-11" d="M70.64,100.3c-.16-.06-.32-.13-.48-.2-1.59.13-3.19-.05-4.71-.53.2.15.38.3.59.45,1.83,1.14,4.28,1.61,6.26,1.8.05-.08.09-.16.14-.24-.06-.04-.11-.07-.16-.11-1.33-.87-1.55-1.03-1.64-1.16Z"/>
                <path class="cls-11" d="M66.33,89.62c-.24.07-.47.13-.71.19.53.96,1.41,1.64,2.44,1.94-.47-.57-.89-1.19-1.25-1.87-.16-.09-.32-.17-.47-.26Z"/>
                <path class="cls-11" d="M94.77,100.28c-.24,1.24-.73,2.52-1.49,3.86-1.02,1.79-5.18,7.38-16.08,4.55-.02.02-.04.04-.06.05-.01.01-.03.02-.04.03-.23.22-.48.43-.73.63-.24.2-.5.38-.75.55,12.97,4,18.25-3.47,19.19-5.04.87-1.46,1.43-2.95,1.68-4.46-.27-.05-.55-.1-.89-.14-.28-.04-.56-.04-.83-.03Z"/>
                <path class="cls-11" d="M73.65,102.4c-.06-.05-.29-.22-.58-.41-.15.28-.33.55-.55.8-.85.97-2.11,1.59-3.47,1.69-1.91.14-3.55-.92-4.37-1.87-1.12-1.29-1.97-2.89-2.51-4.65-.8-.55-1.52-1.2-2.16-1.91.46,3.03,1.66,5.81,3.47,7.94,1.33,1.57,3.66,2.47,5.92,2.31,1.72-.12,3.26-.88,4.35-2.13.33-.38.61-.8.83-1.25-.28-.15-.57-.28-.84-.44-.02-.01-.07-.06-.09-.07Z"/>
                <path class="cls-11" d="M79,106.5c-.23.36-.5.7-.77,1.04-.08.1-.16.21-.24.31-.05.06-.11.11-.16.16-.01.01-.02.03-.03.04,10.07,2.45,13.89-2.64,14.83-4.29.67-1.18,1.11-2.3,1.35-3.39-.68.14-1.36.41-2.06.74-.13.41-.28.82-.44,1.24-.35.92-1.48,2.55-3.52,3.65-.07.04-.14.07-.21.1-.19.1-.39.2-.59.28-.13.05-.28.1-.41.15-.16.06-.31.12-.48.17-.17.05-.36.09-.54.13-.15.04-.29.08-.44.11-.21.04-.43.06-.65.09-.14.02-.28.05-.43.06-.24.02-.5.02-.76.03-.14,0-.26.02-.4.01-.28,0-.58-.03-.88-.05-.13-.01-.25,0-.38-.02-.33-.04-.69-.1-1.04-.17-.1-.02-.2-.03-.31-.05-.39-.08-.79-.19-1.2-.3-.08-.02-.15-.04-.24-.06Z"/>
                <path class="cls-11" d="M69.46,107.04c-2.49.18-5.06-.83-6.54-2.57-2.14-2.52-3.47-5.89-3.78-9.53-.73-1.03-1.29-2.18-1.68-3.41,0,0,0,0,0,0-.05.54-.07,1.09-.08,1.63,0,.11,0,.21,0,.32,0,.42.02.84.04,1.26,0,.02,0,.04,0,.06.07.94.21,1.86.39,2.76.66,3.2,2.05,6.09,4.11,8.43.31.34.65.65,1,.93,1.49,1.21,3.34,1.92,5.3,2,.35.01.7,0,1.05-.02,2.42-.17,4.62-1.28,6.21-3.11.52-.6.94-1.25,1.28-1.94-.52-.18-1.03-.38-1.52-.61-.25.5-.56.96-.93,1.39-1.21,1.4-2.94,2.25-4.86,2.39Z"/>
                <path class="cls-11" d="M77.42,107.36c.45-.52.84-1.07,1.19-1.64.03-.05.05-.09.08-.14.2-.35.38-.7.54-1.07-.59-.12-1.17-.26-1.74-.43-.38.79-.85,1.53-1.44,2.21-1.72,1.98-4.1,3.17-6.72,3.36-3.05.22-5.95-.93-7.96-3.16-2.75-3.14-4.37-7.16-4.69-11.64-.04-.5-.05-1.01-.05-1.51,0-1.31.14-2.6.38-3.86,0-.04-.01-.08-.02-.12-.51-.14-1-.29-1.4-.51-.03,0-.06-.02-.09-.03-.29,1.46-.45,2.95-.45,4.46,0,.56.02,1.13.06,1.69.35,4.91,2.04,9.25,4.89,12.54,2.34,2.71,5.79,4.11,9.46,3.85,3.1-.22,5.93-1.64,7.97-4Z"/>
                <path class="cls-11" d="M90.78,102.09c.06-.16.12-.32.18-.48-.14.07-.27.14-.41.21l-1.58.81c-.56.27-1.29.59-2.1.9-1.03.61-2.33,1.05-3.92,1.07-.9.14-1.8.2-2.68.12-.1-.01-.2-.04-.3-.06-.18.4-.37.8-.58,1.18,7.29,2.08,10.74-2.08,11.38-3.74Z"/>
                <path class="cls-11" d="M72.84,82.17c-.42-.03-.82-.02-1.21,0,.09.04.17.08.27.12.3-.04.61-.06.93-.08,0-.01,0-.03,0-.04Z"/>
                <path class="cls-11" d="M57.98,82.73c.21-.49.53-1.12.99-1.83-.52-.3-.97-.41-1.28-.26-.37.17-.53.63-.55.98-.03.36.07.6.17.67.22.17.45.32.68.45Z"/>
                <path class="cls-11" d="M65.15,87.54c-.04.46-.03.93.1,1.4.02.06.05.12.07.18.06-.01.12-.03.18-.05-.03-.03-.06-.05-.08-.1l-.13-.41c-.1-.35-.13-.69-.14-1.03Z"/>
                <path class="cls-11" d="M55.81,88.15s.07.02.1.04c.29.16.63.28,1.01.39-.04-.76-.01-1.52.09-2.29-.33-.12-.67-.25-.67-.25-.28-.1-.54-.05-.77.16-.34.31-.52.91-.4,1.35.08.32.3.53.64.6Z"/>
                <path class="cls-11" d="M55.84,84.49s.03.02.05.03c.37.3.81.59,1.27.85.13-.65.31-1.3.54-1.95-.27-.15-.54-.32-.81-.52-.71-.38-1.13.28-1.2.42-.18.33-.29.91.15,1.16Z"/>
                <path class="cls-11" d="M84.73,81.44s0-.07-.02-.1c-.11-.57-.27-1.12-.45-1.66-.1.02-.21.03-.31.06-.5.14-.95.36-1.35.64.11.34.21.68.3,1.03.6-.01,1.22,0,1.84.06,0,0,0-.02,0-.02Z"/>
                <path class="cls-11" d="M79.82,93.96c-.24.41-.5.81-.77,1.18.5.2,1.02.36,1.54.47,1.02-1.12,1.9-2.39,2.6-3.8.17-.34.33-.69.48-1.05.06-.15.11-.3.17-.46-.56-.14-1.13-.22-1.7-.24,0,.02-.01.03-.02.05-.56,1.35-1.31,2.57-2.2,3.65-.03.06-.06.13-.1.19Z"/>
                <path class="cls-11" d="M89.79,82.41c-.56-.69-1.17-1.31-1.84-1.83-.02-.01-.04-.02-.05-.04.11.56.19,1.12.24,1.69.58.26,1.14.55,1.68.86,0-.23-.02-.46-.03-.69Z"/>
                <path class="cls-11" d="M87.9,92.95c-.38-.43-.78-.83-1.21-1.17-.03.07-.05.14-.08.21-.17.4-.35.79-.54,1.18-.18.36-.37.72-.57,1.07,0,0,0,.02-.02.03-.17.31-.36.6-.55.9.83-.29,1.64-.67,2.43-1.08.19-.37.37-.75.53-1.13Z"/>
                <path class="cls-11" d="M87.01,80.03c-.58-.26-1.26-.43-1.96-.43.2.63.34,1.28.46,1.93.63.08,1.25.23,1.85.42-.08-.65-.2-1.29-.34-1.91Z"/>
                <path class="cls-11" d="M86.06,91.34c-.45-.3-.92-.57-1.42-.79-.03-.01-.06-.02-.09-.03-.07.17-.12.35-.19.52-.73,1.74-1.71,3.3-2.88,4.67.8.04,1.58-.04,2.34-.22.82-1.17,1.54-2.44,2.11-3.8.05-.12.09-.24.14-.36Z"/>
                <path class="cls-11" d="M77.77,73.27c-.14-.01-.27-.03-.41-.03-.21,0-.42,0-.63,0-.08,0-.16,0-.25,0-.25,0-.51.03-.76.05-.04,0-.07,0-.11,0-1.02.11-2.01.36-2.97.72,1.33-.04,2.78.03,4.34.22.38-.34.79-.65,1.22-.94-.15-.02-.3-.02-.45-.03Z"/>
                <path class="cls-11" d="M79.19,72.69c.81-.45,1.69-.81,2.62-1.07-.37-.13-.75-.26-1.13-.36-5.03-1.35-10.34.14-13.95,3.73,1.15-.38,2.45-.68,3.89-.84,2.55-1.46,5.57-2.01,8.57-1.46Z"/>
                <path class="cls-11" d="M80.92,84.13c1.76-.19,3.95-.2,5.82.5,0,0,0,0,0,0,.4.16.78.34,1.14.53.07.04.15.07.22.11.35.19.68.38,1,.58.05.03.1.07.15.1.31.2.6.41.88.62.02.02.04.03.06.04.3.23.58.47.85.71.03.02.05.05.08.07.61.56,1.14,1.14,1.59,1.69-.08-.53-.19-1.06-.33-1.59-.23-.83-.53-1.63-.89-2.38-1.16-.92-2.45-1.7-3.89-2.33-2.02-.76-4.52-.74-6.5-.53-.22.58-.27,1.22-.17,1.86Z"/>
                <path class="cls-11" d="M70.27,82.34c-.92.19-1.69.53-2.35.93,0,0,0,0-.01,0,0,0,0,0,0,0,.72.54,1.47.87,2.22,1.18l.51.21c.62.27,1.39.4,2.2.46-.07-.54-.11-1.08-.11-1.61,0-.07,0-.13.01-.2-.37-.07-.74-.17-1.11-.33-.56-.24-.99-.45-1.36-.65Z"/>
                <path class="cls-11" d="M72.77,89.81c.21-.36.35-.75.44-1.15-.87,0-1.77-.09-2.72-.33-.19-.05-.39-.1-.58-.16-.13-.04-.25-.09-.38-.14-.06-.02-.12-.04-.18-.07-1.14-.44-2.3-1.13-3.28-1.96-.02.07-.05.15-.06.22-.06.38-.11.78-.11,1.18,0,.32.03.64.12.96,0,0,.04.13.08.23.77.49,1.68.97,2.79,1.45,1.01.44,2.12.6,3.25.61.24-.25.47-.53.65-.84Z"/>
                <path class="cls-11" d="M89.06,93.19c.59-.31,1.2-.6,1.83-.86-1.32-1.95-3.1-3.41-5.4-4.41-.11-.04-.23-.07-.35-.11-.19-.06-.38-.13-.58-.18-.02,0-.04,0-.06-.01-.91-.21-1.84-.27-2.78-.22-.1,0-.21.02-.32.03.02.63,0,1.26-.07,1.88,1.19-.03,2.38.1,3.57.55,1.62.7,3,1.83,4.14,3.33Z"/>
                <path class="cls-11" d="M73.31,87.81c0-.35-.05-.71-.14-1.05-.08-.29-.14-.57-.2-.86-.95-.06-1.87-.22-2.63-.54l-.5-.21c-.82-.34-1.67-.71-2.49-1.36-.43.45-.77.95-1.02,1.47,1.26,1.12,2.89,2.02,4.33,2.36.91.23,1.77.32,2.64.31,0-.04,0-.07,0-.11Z"/>
                <path class="cls-11" d="M92.87,91.62c0-.34,0-.69-.02-1.04-1.15-1.73-3.13-3.92-6.38-5.25-1.57-.59-3.56-.65-5.42-.46.15.6.25,1.21.31,1.81,1.48-.11,2.95,0,4.4.54,2.5,1.08,4.41,2.68,5.82,4.82.42-.16.85-.3,1.28-.42Z"/>
                <path class="cls-11" d="M58.04,90.91c.82,2.97,2.75,5.45,5.43,6.98,2.68,1.52,5.8,1.91,8.77,1.1,2.95-.81,5.41-2.73,6.93-5.4,1.53-2.7,1.92-5.84,1.1-8.83-.68-2.49.85-5.02,3.49-5.74,1.85-.51,3.66.21,4.66.98,2.22,1.72,3.83,4.25,4.68,7.32.36,1.31.54,2.64.54,3.95,0,.06,0,.12,0,.17.57-.12,1.14-.2,1.72-.21,0-.07,0-.14,0-.2,0-.17,0-.35-.02-.52-.02-.25-.04-.49-.07-.74-.02-.16-.03-.32-.05-.48-.04-.28-.09-.55-.13-.83-.02-.13-.04-.26-.07-.39-.08-.4-.18-.8-.28-1.2-.95-3.46-2.87-6.46-5.4-8.46-.4-.32-.86-.58-1.35-.8-1.47-.63-3.26-.76-4.91-.31-2.84.78-4.63,3.18-4.68,5.97,0,.43.03.87.11,1.31.04.22.09.44.15.67.7,2.54.37,5.2-.93,7.48-.23.41-.5.78-.78,1.15-1.29,1.68-3.08,2.89-5.16,3.47-2.62.72-5.28.31-7.47-.94-.8-.45-1.53-1.02-2.18-1.68-.02-.02-.04-.03-.06-.05-.34-.35-.64-.73-.92-1.13-.65-.91-1.16-1.94-1.47-3.07,0,0,0-.01,0-.02-.09-.33-.16-.67-.21-1.02-.01-.08-.02-.16-.03-.24-.04-.34-.07-.69-.07-1.05,0-.02,0-.04,0-.06,0-.07,0-.14.01-.21,0-.2.01-.4.03-.6,0-.11.02-.22.03-.33.02-.19.05-.39.08-.58.02-.12.04-.23.06-.35.04-.21.09-.42.14-.63.03-.11.05-.21.08-.32.08-.29.17-.59.27-.9,0-.02.01-.05.02-.07.65-1.96,3.63-8.25,14.87-7.61.39-.56.83-1.08,1.31-1.56-13.51-1.39-17.23,6.99-17.84,8.71-.89,2.52-1.02,4.97-.38,7.29Z"/>
                <path class="cls-11" d="M82.87,76.58c2.41-.66,5.12-.17,6.92,1.24,2.65,2.09,4.66,5.23,5.65,8.84.41,1.5.63,3.05.65,4.59.17.01.34,0,.51.03l1.19.11s0-.06,0-.09c0-.29-.01-.57-.03-.86,0-.14-.02-.29-.03-.43-.02-.29-.05-.57-.09-.86-.02-.14-.03-.28-.05-.42-.04-.31-.1-.61-.16-.91-.02-.12-.04-.24-.07-.35-.09-.42-.19-.84-.3-1.25-1.15-4.17-3.43-7.66-6.61-10.1-.74-.55-1.55-.96-2.4-1.25-1.7-.59-3.56-.66-5.38-.16-3.92,1.08-6.53,4.59-6.66,8.46,0,.3,0,.6.01.9.04.6.14,1.21.31,1.81.19.69.27,1.39.25,2.08-.03.93-.23,1.85-.62,2.71-.1.22-.2.43-.32.64-.99,1.73-2.6,2.98-4.56,3.52-.73.2-1.46.29-2.19.28-1.21-.02-2.38-.34-3.43-.94-1.63-.93-2.81-2.45-3.32-4.29-.15-.55-.22-1.1-.23-1.65-.02-.91.11-1.83.27-2.76.04-.24.12-.54.25-.87,0-.02.02-.04.03-.06.06-.15.12-.3.19-.46.04-.08.09-.17.13-.26.05-.1.1-.2.16-.3,1.32-2.28,4.46-5.12,10.66-4.55.24-.62.54-1.2.88-1.77-10.36-.42-13.11,5.31-13.7,7.11-.74,2.24-.87,4.18-.39,5.94.91,3.33,3.57,5.71,6.71,6.45.29.07.58.12.87.16,1.17.16,2.39.08,3.6-.25,2.34-.64,4.28-2.16,5.48-4.26,1.2-2.11,1.51-4.57.86-6.92-.34-1.22-.35-2.45-.1-3.58.55-2.49,2.4-4.56,5.04-5.29Z"/>
                <path class="cls-11" d="M74.13,79.73c-.03.09-.06.18-.08.27-.36,1.13-.57,2.31-.57,3.52,0,1,.13,2.03.41,3.04.11.41.17.83.17,1.25,0,.82-.21,1.63-.64,2.37-.65,1.15-1.71,1.97-2.97,2.32-2.56.71-5.22-.81-5.93-3.37-.24-.86-.14-1.68-.03-2.44.28-1.84,2.79-5.63,8.42-5.26.1-.57.25-1.12.42-1.66,0-.02,0-.04.01-.05-7.55-.61-10.12,4.14-10.42,5.89-.14.83-.26,1.64-.26,2.44,0,.55.06,1.1.2,1.64.45,1.65,1.51,3.01,2.97,3.84,1.51.86,3.31,1.06,5.06.58,1.76-.48,3.22-1.61,4.1-3.17.11-.19.2-.38.29-.57.61-1.35.73-2.86.33-4.29-1.44-5.23,1.64-10.66,6.86-12.09,1.84-.51,3.73-.48,5.48.05,1.05.32,2.05.82,2.95,1.49,3.31,2.54,5.69,6.17,6.88,10.49.49,1.79.74,3.62.75,5.43.54.04,1.05.1,1.5.24.04,0,.07.02.11.02,0-2.04-.28-4.09-.83-6.11-1.31-4.75-3.81-8.67-7.25-11.34-2.83-2.2-6.48-2.9-10.03-1.92-3.83,1.05-6.68,3.91-7.9,7.39Z"/>
                <path class="cls-11" d="M99.64,98.48s0,0,0,0c-.73-.36-1.46-.52-2.17-.63-.24-.04-.47-.07-.7-.1l-.55-.07c-2.15-.3-5.45,1.02-7.13,1.98-.34.19-.95.52-1.73.88-1.72.77-4.28,1.66-6.66,1.44-.31-.04-.63-.09-.93-.14-.28-.05-.56-.11-.83-.18-.02,0-.04,0-.06-.01-1.79-.45-3.46-1.23-5-2.32-.47.2-.95.38-1.43.51-.3.08-.64.14-.97.2.3.21.82.55,1.23.82,1.01.66,1.33.89,1.47,1.01,1.84,1.08,3.94,1.8,6.21,2.12,2.98.28,6.47-1.14,8.28-2.02l1.56-.8c1.9-1,3.55-1.87,5.5-1.59.94.13,1.58.26,2.18.45.76.35,1.35.41,1.7.16.33-.24.39-.72.35-1.07-.04-.36-.19-.58-.3-.62Z"/>
                <path class="cls-11" d="M99.85,92.41c-.5-.16-1.11-.2-1.82-.24l-1.54-.14c-2.74-.39-5.58,1-8.03,2.32-2.23,1.21-4.63,2.36-7.39,2.1-.84-.12-1.65-.36-2.44-.68-.45.55-.94,1.04-1.47,1.5,1.19.58,2.48,1.01,3.87,1.21,2.6.24,4.97-.86,7.37-2.12,1.91-1,3.44-1.74,5.17-2.07.58-.11,1.17-.17,1.82-.18,1.18-.04,2.03.1,3.1.28,0,0,1.35.21,1.35.21.3.05.55-.06.73-.3.28-.37.33-.99.13-1.4-.15-.3-.4-.45-.75-.46-.04,0-.07,0-.11-.02Z"/>
                <path class="cls-11" d="M100.64,96.03s-.04-.01-.06-.02c-1.44-.76-3.47-1.21-5.17-1.15-2.41.04-4.2.89-6.66,2.17-2.51,1.31-4.99,2.46-7.81,2.2-1.6-.23-3.08-.71-4.42-1.42-.58.43-1.2.81-1.85,1.13,1.85,1.24,3.9,2.03,6.1,2.3,2.58.24,5.79-.99,7.95-2.22,1.53-.87,5.09-2.43,7.61-2.07l.54.07c.97.12,1.98.26,3.05.77.77.23,1.05-.5,1.1-.65.12-.36.11-.95-.37-1.11Z"/>
              </g>
            </g>
            <g>
              <path class="cls-9" d="M77.65,82.29c-5.61,0-10.17,4.56-10.17,10.17s4.56,10.17,10.17,10.17,10.17-4.56,10.17-10.17-4.56-10.17-10.17-10.17"/>
              <path class="cls-3" d="M81.55,96.71l-.86,3.93c-.95.35-1.97.55-3.04.55s-2.01-.19-2.93-.52l-.89-3.94-3.98-.37c-.5-.98-.81-2.07-.9-3.23l3.18-2.31-1.26-3.88c.92-1.13,2.11-2.03,3.48-2.59l3.21,2.34,3.27-2.38c1.37.54,2.56,1.41,3.49,2.51h-.02l-1.28,3.94,3.33,2.42c-.1,1.11-.4,2.17-.88,3.12l-3.93.39Z"/>
              <polygon class="cls-9" points="75.49 95.69 74.21 91.75 77.56 89.31 80.92 91.75 79.64 95.69 75.49 95.69"/>
            </g>
          </g>
        </g>
        <g>
          <g>
            <path class="cls-6" d="M125.52,121.01c-7.87-2.69-16.14-3.71-24.08-2.37-8.16,1.39-16.1,5-24.08,8.75-7.99,3.76-15.92,7.44-24.08,8.93-7.93,1.45-16.21.57-24.08-2.05v-14.31c7.87,2.61,16.15,3.5,24.08,2.05,8.16-1.49,16.09-5.18,24.08-8.93,7.99-3.75,15.92-7.36,24.08-8.75,7.94-1.34,16.21-.32,24.08,2.37v14.31Z"/>
            <path class="cls-6" d="M141.04,117.34c-4.87-2.29-9.71-4.57-14.65-6.33v11.27c-2.15-.76-4.3-1.43-6.47-1.95v3.04c7.15,1.73,14.1,4.98,21.11,8.27-2.45-3.53-4.9-7.05-7.36-10.53,2.45-1.29,4.91-2.52,7.37-3.75v-.03Z"/>
            <path class="cls-6" d="M28.23,134.93v-11.27c-4.97-1.73-9.83-4-14.73-6.3v.03c2.36,3.49,4.71,6.96,7.08,10.39-2.34,1.34-4.71,2.62-7.06,3.89,7.32,3.44,14.57,6.78,22.04,8.38v-3.04c-2.45-.53-4.9-1.24-7.32-2.08"/>
          </g>
          <g>
            <path d="M52.92,131.04c-.05,1.51.04,1.59.85,1.51l-.02.55-3.57.73.02-.55c.75-.24.84-.35.89-1.86l.14-4.61c.05-1.51-.04-1.59-.84-1.51l.02-.55,3.57-.73-.02.54c-.76.24-.85.36-.9,1.87l-.06,2.18c.87-1.32,1.6-2.5,2.29-3.7.17-.28.3-.59,0-.57l-.43.03.02-.54,3.07-.63-.02.55c-.66.22-1.01.36-1.63,1.2-.64.85-1.23,1.69-1.73,2.47.67,1.18,1.39,2.31,2.07,3.34.59.88.79.98,1.26.95l-.02.55-2.63.54c-.41-.81-1.43-2.64-2.22-3.99h-.02s-.07,2.24-.07,2.24Z"/>
            <path d="M63.96,129.36l.41-.2c.5-.25.53-.4.35-.82l-.49-1.21-2.23.81-.41,1.45c-.18.65-.18.78.45.63l.4-.1v.53l-3.17,1.15v-.53c.69-.35.9-.47,1.35-1.78l2.72-8.01.94-.53.93,2.23c.58,1.41,1.17,2.8,1.69,4,.43,1.03.68,1.01,1.35.85v.53l-4.27,1.55v-.53ZM62.23,127.03l1.74-.63-.86-2.29h-.04s-.84,2.92-.84,2.92Z"/>
            <path d="M76.21,119.2c-.41-1.67-1.54-1.7-2.42-1.44-1.44.43-2.64,2.22-2.64,4.54,0,2.11.9,3.81,2.77,3.25.34-.1.56-.27.56-.91v-1.31c0-.91-.05-.99-1.48-.67v-.61l4.54-1.36v.61c-.69.33-.75.39-.75,1.34v.98c0,.49.01.92.08,1.21-.84.48-1.94,1.12-3.07,1.46-3.25.97-5.18-.21-5.18-2.98,0-3.11,2.47-5.46,5.37-6.32,1.05-.31,2.12-.4,2.6-.42.04.45.11,1.14.22,2.41l-.6.22Z"/>
            <path d="M82.33,121.8l.41-.21c.5-.26.53-.41.35-.83l-.49-1.19-2.23.87-.41,1.46c-.18.65-.18.79.45.61l.39-.11v.53l-3.17,1.23v-.53c.69-.37.9-.5,1.35-1.82l2.72-8.09.94-.56.93,2.21c.58,1.39,1.17,2.77,1.69,3.95.44,1.01.68.99,1.35.81v.53l-4.27,1.66v-.53ZM80.6,119.52l1.74-.68-.86-2.26h-.04s-.84,2.94-.84,2.94Z"/>
            <path d="M89.17,111.04l-.43.23c-.5.26-.55.38-.38.87l1.29,4.06h.03s1.78-6.5,1.78-6.5l.95-.37,2.07,4.98h.03c.48-1.79.98-3.9,1.17-4.76.18-.84.14-.98-.45-.82l-.52.15v-.53l3.25-1.27v.53c-.76.41-.88.49-1.35,1.87-.07.2-1.11,3.74-2.2,7.92l-1.05.41-2-4.74h-.03s-1.82,6.24-1.82,6.24l-1.05.41-2.3-6.24c-.37-.98-.61-.94-1.24-.78v-.53l4.24-1.66v.53Z"/>
            <path d="M101.8,115.5l.41-.1c.5-.12.53-.26.35-.73l-.49-1.34-2.23.23-.41,1.27c-.18.62-.18.75.45.71l.39-.03v.53l-3.17.57v-.53c.69-.22.9-.31,1.35-1.53l2.72-7.31.94-.29.92,2.48c.58,1.56,1.17,3.1,1.69,4.44.43,1.14.68,1.18,1.34,1.2v.53l-4.27.43v-.53ZM100.07,112.73l1.74-.18-.86-2.51h-.04s-.84,2.69-.84,2.69Z"/>
          </g>
        </g>
        <g>
          <g>
            <path class="cls-7" d="M82.93,34.87h0c-.53-.99-2.34-1-4.13-.04-1.78.96-2.76,2.48-2.23,3.47.53.98,2.34,1,4.13.04,1.16-.63,2.04-1.55,2.3-2.4.12-.4.1-.77-.07-1.07M80.55,38.07c-.33.18-.66.32-.99.43l-.64-.51-1.39.66c-.26-.08-.43-.18-.58-.35l.88-1.03-.78-.46c.22-.35.52-.7.92-1.04l1.23-.15.82-.96c.5-.16.94-.22,1.36-.21l-.05.92,1.39-.18c.03.11.04.14.04.26s-.02.25-.06.39c0,0-1.3.79-1.3.79l.08.81c-.28.22-.59.43-.93.62"/>
            <g>
              <path class="cls-9" d="M51.09,34.09c.61.44.41,1.31-.45,1.93-.86.62-2.04.77-2.65.32-.61-.44-.41-1.31.45-1.93.86-.62,2.04-.77,2.65-.32"/>
              <path class="cls-7" d="M106.75,41.76c-.31-.4-.83-.59-1.55-.59-.41,0-.81.03-1.2.1-.39.06-.77.17-1.13.32l-.32,1.19c.32-.16.61-.27.88-.33.27-.06.56-.1.89-.1.3,0,.51.08.62.25.11.16.13.38.06.66l-.15.57c-.06-.12-.18-.22-.35-.3-.17-.08-.38-.12-.62-.12-.81,0-1.47.24-1.98.71-.51.47-.89,1.21-1.16,2.22-.25.91-.24,1.63.02,2.14.26.52.7.78,1.33.78.34,0,.64-.03.89-.1.26-.07.47-.16.65-.3l.11.33,1.83-.61,1.38-5.16c.19-.71.13-1.26-.18-1.65M103.75,47.91c-.08.07-.19.13-.34.18-.15.05-.3.08-.44.08-.26,0-.42-.11-.46-.33-.04-.22.04-.71.24-1.47.18-.66.36-1.12.56-1.39.2-.27.44-.41.72-.41.17,0,.29.04.38.11.09.07.13.18.14.31l-.78,2.91ZM117.25,41.98c-.23-.54-.73-.82-1.52-.82-.92,0-1.69.34-2.33,1.02-.64.68-1.14,1.69-1.49,3.02-.36,1.34-.41,2.35-.15,3.03.26.68.81,1.02,1.66,1.02.77,0,1.38-.16,1.84-.49.46-.33.78-.84.96-1.54h-1.44c-.08.3-.18.51-.31.63-.13.12-.29.18-.49.18-.29,0-.44-.16-.45-.48,0-.32.15-1.06.46-2.22h2.94l.24-.89c.29-1.09.33-1.91.1-2.45M115.54,44.19h-1.26c.2-.75.37-1.24.51-1.47.14-.23.34-.34.6-.34s.41.13.42.38c0,.26-.08.73-.27,1.42M60.06,42.77c.32-.16.61-.27.88-.33.27-.06.56-.1.89-.1.3,0,.51.08.62.25.11.16.13.38.06.66l-.15.57c-.06-.12-.18-.22-.35-.3s-.38-.12-.62-.12c-.81,0-1.47.24-1.98.71-.51.47-.89,1.21-1.16,2.22-.24.91-.24,1.63.02,2.14.26.52.7.78,1.33.78.34,0,.64-.03.89-.1.26-.07.48-.16.65-.3l.11.33,1.83-.61,1.37-5.16c.19-.71.13-1.26-.18-1.65-.31-.4-.83-.59-1.55-.59-.41,0-.82.03-1.2.1-.39.06-.77.17-1.13.32l-.32,1.19ZM61.27,47.91c-.08.07-.19.13-.34.18-.15.05-.3.08-.44.08-.26,0-.42-.11-.46-.33-.05-.22.03-.71.24-1.47.18-.66.36-1.12.56-1.39.2-.27.44-.41.72-.41.16,0,.29.04.38.11.09.07.13.18.14.31l-.78,2.91ZM74.07,41.64c-.29-.32-.76-.47-1.4-.47-.29,0-.6.07-.94.19-.33.13-.61.29-.83.48-.11-.24-.26-.41-.45-.51-.2-.11-.49-.16-.89-.16-.34,0-.66.04-.96.12-.29.08-.56.19-.81.33l-.04-.35h-1.65l-2.12,7.91,2.16-.61,1.62-6.01c.1-.04.19-.06.29-.08.1-.01.2-.02.31-.02.25,0,.42.05.51.16.09.11.1.28.04.52l-1.62,6.04c-1.57.39-3.31.81-4.87,1.01-2.24.29-4.33.47-5.82.24-1.33-.2-1.74-.96-1.54-2.03.2-1.01.95-2.3,1.99-3.68,2.03-2.68,1.04-3.88-1.01-3.88-1.57,0-3.09.33-5.4,1.08.42-.73.71-1.43.85-2.08.14-.03.28-.06.43-.1,4.72-1.21,8.62-4.39,8.72-7.1.07-1.86-1.67-3.01-4.29-3.16.52.64.79,1.43.76,2.35-.09,2.47-2.37,5.15-5.52,6.83-.06-.81-.42-1.5-1.11-2-2.01-1.46-6.26-.89-10.56,1.19,2.58-.61,4.81-.52,6.12.43,2.66,1.94.42,6.71-5.01,10.66-1.32.96-2.72,1.79-4.1,2.46,2.7-.64,5.77-2.05,8.54-4.07,2.26-1.64,3.97-3.43,5-5.1,1.67-.34,3.36-.6,4.02-.22,1.03.61-1.1,3.06-3.46,5.9-1.26,1.52-2.06,2.87-2.16,3.86-.1,1.04.59,1.66,2.35,1.61,2.1-.06,4.93-.63,8.05-1.41,3.23-.81,6.91-2.4,10.21-3.35l1.42-5.39c.03-.11.05-.23.06-.35.01-.13.01-.22,0-.3.17-.05.31-.09.42-.1.1-.02.22-.02.36-.02.21,0,.35.07.43.2.08.13.1.29.05.48l-1.62,6.05,2.19-.61,1.47-5.54c.16-.61.1-1.08-.19-1.39M78.67,41.17c-.41,0-.82.03-1.2.1-.39.06-.77.17-1.13.32l-.32,1.19c.32-.16.61-.27.88-.33.27-.06.56-.1.89-.1.3,0,.51.08.62.25.11.16.13.38.06.66l-.15.57c-.06-.12-.18-.22-.35-.3-.17-.08-.38-.12-.62-.12-.81,0-1.47.24-1.98.71-.51.47-.89,1.21-1.16,2.22-.24.91-.24,1.63.02,2.14.26.52.7.78,1.33.78.34,0,.64-.03.89-.1.26-.07.47-.16.65-.3l.11.33,1.83-.61,1.37-5.16c.19-.71.13-1.26-.18-1.65-.31-.4-.83-.59-1.55-.59M77.22,47.91c-.08.07-.19.13-.34.18-.15.05-.3.08-.44.08-.26,0-.42-.11-.46-.33-.05-.22.03-.71.24-1.47.18-.66.36-1.12.56-1.39.2-.27.44-.41.72-.41.17,0,.29.04.38.11s.13.18.14.31l-.78,2.91ZM84.13,42.28h1.25l.27-1.01h-1.25l.65-2.41h-2.05l-.65,2.41h-.77l-.27,1h.77l-1.35,5.02c-.17.64-.13,1.12.12,1.43.25.31.7.47,1.35.47l1.32-.61.12-.45c-.42,0-.69-.06-.81-.19-.12-.12-.13-.37-.03-.73l1.32-4.92ZM100.6,41.64c-.29-.32-.76-.47-1.4-.47-.29,0-.6.07-.94.19-.34.13-.61.29-.83.48-.11-.24-.26-.41-.45-.51-.2-.11-.49-.16-.89-.16-.34,0-.66.04-.96.12-.3.08-.57.19-.81.33l-.03-.35h-1.66l-2.12,7.91,2.16-.61,1.63-6.01c.1-.04.19-.06.29-.08.1-.01.2-.02.31-.02.25,0,.42.05.51.16.09.11.1.28.03.52l-1.62,6.05,2.16-.61,1.45-5.33c.03-.11.05-.23.06-.35.01-.13.01-.22,0-.3.17-.05.31-.09.42-.1.1-.02.22-.02.36-.02.21,0,.35.07.43.2.08.13.1.29.05.48l-1.62,6.05,2.18-.61,1.48-5.54c.16-.61.1-1.08-.19-1.39M112.07,42.97l.44-1.65c-.09-.05-.19-.09-.3-.12-.11-.03-.23-.04-.36-.04-.3,0-.59.04-.85.11-.27.07-.52.19-.75.35l-.02-.36h-1.66l-2.12,7.91,2.18-.61,1.5-5.61c.1-.07.24-.11.43-.13.19-.02.38-.04.57-.04.18,0,.34.02.49.05.15.03.3.08.44.14M90.8,41.76c-.31-.4-.83-.59-1.55-.59-.41,0-.81.03-1.2.1-.39.06-.77.17-1.13.32l-.32,1.19c.32-.16.61-.27.88-.33.27-.06.56-.1.89-.1.3,0,.51.08.62.25.11.16.13.38.06.66l-.15.57c-.06-.12-.18-.22-.35-.3-.17-.08-.38-.12-.62-.12-.81,0-1.47.24-1.98.71-.51.47-.89,1.21-1.16,2.22-.24.91-.24,1.63.02,2.14.26.52.7.78,1.33.78.34,0,.63-.03.89-.1.26-.07.48-.16.65-.3l.11.33,1.81-.61,1.39-5.16c.19-.71.13-1.26-.18-1.65M87.8,47.91c-.08.07-.19.13-.34.18-.15.05-.3.08-.44.08-.26,0-.42-.11-.46-.33-.04-.22.03-.71.24-1.47.18-.66.36-1.12.56-1.39.2-.27.44-.41.72-.41.17,0,.29.04.38.11.09.07.13.18.14.31l-.78,2.91Z"/>
            </g>
            <g>
              <path class="cls-5" d="M80.01,34.64h0s-.82.96-.82.96l-1.21.15c-.4.33-.71.68-.94,1.05v.02s.73.43.77.46c-.03.04-.87,1.02-.87,1.02h.01c.15.19.32.29.59.37,0,0,1.37-.65,1.39-.66.02.02.64.51.64.51h.01c.34-.11.67-.26,1-.43.34-.18.65-.39.94-.62h0s-.08-.79-.08-.82q1.29-.79,1.3-.8c.04-.14.06-.27.06-.4,0-.12,0-.15-.04-.25v-.04s-1.35.17-1.4.17c0-.05.05-.92.05-.92h-.02c-.44,0-.89.07-1.37.22"/>
              <polygon class="cls-7" points="78.58 37.06 79.36 37.52 80.69 36.8 80.74 35.9 79.44 36.07 78.58 37.06"/>
            </g>
          </g>
          <g>
            <path class="cls-7" d="M76.5,51.38h-1.03c0-.09-.03-.16-.08-.2-.06-.05-.15-.07-.27-.07s-.22.02-.3.07c-.06.04-.1.08-.11.14-.01.05,0,.09.02.12.04.04.15.09.33.13l.4.09c.37.09.61.21.72.37.11.16.14.35.08.56-.05.17-.13.32-.25.46-.12.14-.25.25-.39.33-.14.08-.31.14-.51.19-.2.05-.41.07-.61.07-.23,0-.43-.03-.62-.08-.18-.06-.33-.13-.43-.24-.1-.1-.17-.22-.2-.36-.02-.1-.02-.21,0-.36h1.04c0,.1.03.17.1.23.07.05.18.08.35.08.15,0,.26-.02.33-.07.06-.03.09-.08.11-.14.02-.06,0-.11-.02-.15-.03-.04-.14-.08-.32-.12l-.36-.09c-.19-.04-.35-.1-.51-.18-.15-.08-.26-.18-.31-.3-.05-.12-.06-.27,0-.45.05-.17.13-.33.24-.46.11-.13.25-.24.41-.33.15-.08.32-.14.49-.17.17-.04.34-.05.52-.05.21,0,.39.02.55.06.16.04.28.09.37.15.08.06.15.13.19.22.04.08.07.17.08.25.01.08.02.18,0,.3"/>
            <path class="cls-7" d="M78.32,52.53h-.69l.64-1.12.05,1.12ZM77.03,53.57l.23-.4h1.08l.02.4h1.08l-.36-3.08h-1.1l-2.01,3.08h1.06Z"/>
            <polygon class="cls-7" points="79.62 53.57 80.44 50.49 81.45 50.49 82.15 52.14 82.59 50.49 83.63 50.49 82.8 53.57 81.77 53.57 81.09 51.96 80.66 53.57 79.62 53.57"/>
            <path class="cls-7" d="M83.96,50.49h1.08l-.51,1.9c-.03.13-.04.22-.03.28.02.06.06.12.14.16.07.04.17.06.27.06.16,0,.29-.04.4-.12.11-.08.19-.21.23-.38l.51-1.9h1.08l-.48,1.8c-.06.23-.13.41-.2.54-.07.13-.17.25-.28.35-.11.1-.24.19-.39.26-.14.07-.31.13-.49.17-.18.04-.37.06-.57.06-.23,0-.43-.02-.59-.06-.16-.04-.3-.09-.4-.17-.11-.08-.19-.16-.25-.26-.06-.1-.09-.23-.09-.4,0-.11.03-.27.09-.49l.48-1.79Z"/>
            <polygon class="cls-7" points="86.67 53.57 87.5 50.49 88.55 50.49 88.28 51.51 89.53 50.49 90.81 50.49 89.29 51.65 90.11 53.57 88.81 53.57 88.34 52.34 87.99 52.61 87.73 53.57 86.67 53.57"/>
            <polygon class="cls-7" points="90.38 53.57 91.21 50.49 92.29 50.49 91.46 53.57 90.38 53.57"/>
          </g>
        </g>
      </g>
    </g>
  </g>
</svg>