<?xml version="1.0" encoding="UTF-8"?>
<svg id="_レイヤー_2" data-name="レイヤー 2" xmlns="http://www.w3.org/2000/svg" xmlns:xlink="http://www.w3.org/1999/xlink" viewBox="0 0 426.45 442.5">
  <defs>
    <style>
      .cls-1 {
        fill: none;
      }

      .cls-2 {
        fill: gray;
      }

      .cls-3 {
        fill: #221815;
      }

      .cls-4 {
        fill: #ffe100;
      }

      .cls-5 {
        fill: #9fa0a0;
      }

      .cls-6 {
        fill: #c7000b;
      }

      .cls-7 {
        clip-path: url(#clippath-1);
      }

      .cls-8 {
        fill: #fff;
      }

      .cls-9 {
        fill: #182f60;
      }

      .cls-10 {
        fill: #0098d4;
      }

      .cls-11 {
        clip-path: url(#clippath);
      }
    </style>
    <clipPath id="clippath">
      <path class="cls-1" d="M390.94,217.52c.07-12.48-5.34-22.53-15.6-29.03-.69-.44-1.39-.87-2.1-1.27-.77-.43-1.55-.85-2.34-1.22-11.64-5.67-23.69-4.48-34.15-2.53-5.83,1.33-9.45,2.5-11.74,3.46-1.46-1.46-3.03-2.84-4.74-4.07-.97-.67-6.37-4.22-14.15-5.76-.48-2.22-.98-3.96-1.26-4.88-.01-.05-.23-.79-.25-.84-1.29-3.88-4.26-11.63-9.68-19.89-6.8-10.34-15.02-17.72-24.49-21.96-15.15-6.65-29.01-3.93-42.64,8.55-6.19,6.4-11.53,14.18-15.87,23.1-.54,1.12-4.52,10.56-4.96,11.86-1.56,4.27-6.56,19.27-5.14,33.03.89,10.47,5.87,20.98,13,27.42.12.11.54.44.67.53,7.94,6.03,16.67,9.07,25.99,9.07,1.13,0,2.27-.05,3.42-.13,12.05-.93,21.23-4.61,21.51-4.72,1.18-.45,2.22-.93,3.33-1.4,3.32,4.59,7.6,8.48,12.65,11.05,6.29,3.17,11.23,4.29,15.81,4.29.67,0,1.31-.14,1.97-.18.25.54.51,1.09.92,1.73,9.83,18.52,24.19,24.87,33.25,24.47.58.03,1.17.05,1.76.05,15.78,0,33.72-11.18,44.46-28.18l.53-.88c3.53-5.77,8.87-14.5,9.85-31.67Z"/>
    </clipPath>
    <clipPath id="clippath-1">
      <path class="cls-1" d="M113.15,51.5H41.63c6.41-13.31,20.02-22.48,35.78-22.51,15.76.03,29.35,9.21,35.75,22.51ZM37.84,65.5c-.09,1.05-.14,2.11-.14,3.18.04,20.5,15.55,37.3,35.47,39.43-5.51-7.68-5.64-14.65-5.64-15.11,0-.02,0-.04.02-.06.04-5.4,4.43-9.77,9.84-9.77s9.77,4.36,9.81,9.82h.01c0,.52-.12,7.59-5.86,15.14,8.13-.81,15.53-4.07,21.46-9.03-.76-.94-1.25-2.14-1.25-3.45.01-3,2.43-5.45,5.46-5.45,1.15,0,2.22.39,2.97,1.04,4.44-6.4,7.05-14.18,7.07-22.57,0-1.07-.06-2.13-.14-3.18H37.84Z"/>
    </clipPath>
  </defs>
  <g id="_レイヤー_1-2" data-name="レイヤー 1">
    <g>
      <path class="cls-9" d="M426.45,225.05c0,117.76-84.41,196.43-213.22,196.43S0,342.81,0,225.05,95.46,11.83,213.22,11.83s213.22,95.46,213.22,213.23Z"/>
      <g>
        <g>
          <g>
            <path class="cls-3" d="M419.52,293.54c-1.3-.72-2.84-1.24-3.8-1.44-6.81-1.4-13.64-2.18-20.31-2.33-3.7-.09-7.16,0-10.49.16-1.79-20.11-8.09-39.31-19.27-58.27,1.62-9.72,2.12-22.36,2.53-32.66l.21-5.17c.84-18.75-5.88-43.26-14.38-52.46-2.12-2.29-5.31-4.04-8.12-4.45-21.54-3.21-49.87,5.35-81.73,24.67l-4-.59c-26.18-3.9-58.77-8.75-103.06,1.53-1.4.32-2.95.78-4.54,1.26-2.36.71-6.76,1.98-7.92,1.68-8.49-4.64-30.28-15.71-49.14-18.49-17.53-2.61-29.09.83-34.52,10.31-15.37,28.86-7.65,69.07-4.44,79.47-16,31.01-15.7,63.87-15.6,67.47-.01.84.03,1.72.04,2.58-.84.06-1.6.09-2.48.16-8.93.71-17.8,1.58-28.07,4.44-3.34.92-6.41,3.14-5.81,5.59.47,1.92,2.84,2.35,4.83,2.35,1.54,0,2.85-.25,2.89-.26,10.63-2.17,16.02-2.75,23.47-3.55l3.14-.34c.81-.09,1.61-.13,2.42-.2.81,9.68,2.86,19.99,6.48,30.18-4.44,1.67-9.56,3.89-15.71,7.07-.04.02-3.98,2.08-4.74,4.62-.23.78-.15,1.56.23,2.24.62,1.11,1.92,1.46,3.31,1.46,2.3,0,4.82-.95,4.86-.96,1.84-.81,3.57-1.58,5.21-2.31,3.72-1.66,6.96-3.05,10-4.23,3.93,8.9,9.09,17.53,15.73,25.34-6.84,3.96-15.09,9.33-24.43,16.6-1.94,1.52-3.19,3.45-3.41,5.32-.12,1.04.11,1.99.65,2.67.41.51,1.18.73,2.1.73,1.62,0,3.71-.68,5.14-1.7,10.26-7.27,19.16-12.89,26.15-17.04,7.51,7.31,16.5,13.67,27.22,18.49,35.27,15.84,67.77,19.4,108.95,20l4.04-.06,4.36.06c47.38-.7,84.81-7.46,111.26-20.11,15.35-7.34,27.56-17.24,36.7-29.54,7.64,2.61,16.9,6.62,25.83,12.66,1.14.79,3.45,2.17,5.5,2.17.92,0,1.79-.27,2.47-1.01.29-.3.62-.85.53-1.73-.17-1.86-2.23-4.46-3.56-5.43-9.12-6.66-18.29-10.95-26.01-13.74,5.25-8.67,9.17-18.37,11.72-29.12,5.64.9,12.22,2.35,19.44,4.77.04,0,2.17.71,4.26.71,1.57,0,3.11-.39,3.7-1.78.27-.63.26-1.33-.03-2.02-1.04-2.48-5.39-4.32-5.43-4.33-7.12-2.82-14.12-4.47-20.31-5.49,1.35-8.14,2-16.8,1.93-26,.02-1.57-.07-3.12-.1-4.67,2.93-.16,5.97-.26,9.16-.22,4.96.05,10.48.42,15.35.74,1.52.1,2.99.19,4.4.28,3.19.18,7.1-.41,7.57-2.73.17-.81-.11-2.03-2.36-3.29Z"/>
            <path class="cls-8" d="M354.53,231.67c1.76-9.13,2.29-22.42,2.71-33.11l.22-5.23c.76-16.97-5.67-38.25-11.49-44.55-.51-.56-1.4-.99-1.72-1.06-18.78-2.76-45.27,5.51-74.57,23.31-2.08,1.26-3.22,1.95-5.23,1.65l-5.91-.87c-25.25-3.76-56.69-8.45-98.98,1.36-1.2.27-2.52.67-3.88,1.08-5.38,1.6-11.46,3.43-16.3.8-7.98-4.35-28.38-14.75-45.5-17.28-12.59-1.85-20.45-.25-23.34,4.78-10.47,19.65-8.42,46.45-5.73,61.45.72-.85,1.42-1.62,2.07-2.27,2.63-2.63,5.32-3.6,7.16-2.33,1.91,1.32,1.15,4.66-.08,7.33-1.22,2.65-3.69,7.76-5.63,11.18,0,0,0,.01,0,.02-16.85,29.6-16.54,62.53-16.45,66.2,0,.74.03,1.51.04,2.26,9.31.02,14.99,1,17.89,1.74l.21.05c.06.01,7.62,1.41,7.18,5.04-.39,3.23-4.98,2.99-7.2,2.87l-.82-.06c-2.44-.37-8.96-1.24-16.86-1.4.79,8.79,2.71,18.09,6.01,27.25,4.52-1.04,7.71-1.28,9.83-1.4l.29-.02c2.79-.15,9.39-.25,9.73,3.07.3,2.87-4.87,4.24-7.11,4.7-1.04.21-2.16.36-3.41.53-1.75.24-3.74.52-6.09,1.02,3.77,8.24,8.76,16.15,15.14,23.24,6.63-3.21,10.45-4.39,10.53-4.42.06-.03,6.57-1.68,7.84,1.28,1.09,2.56-1.67,3.92-4.33,5.24-.85.42-1.74.86-2.55,1.35,0,0-.09.05-.26.13-1.03.51-2.75,1.4-5.02,2.62,6.17,5.56,13.32,10.43,21.71,14.2,33.54,15.07,64.84,18.45,104.46,19.04l4.04-.06,4.36.06c44.98-.67,81.88-7.25,106.54-19.04,12.36-5.91,22.38-13.54,30.17-22.9-3.71-.86-5.98-1.18-6.04-1.19-1.42-.14-5.85-1.17-7.34-3.19-.44-.61-.61-1.28-.47-1.94.75-3.62,7.32-2.9,10.09-2.43.35.03,3.75.38,9.03,1.65,5.2-7.94,9.03-16.98,11.53-27.11-2.33-.14-4.2-.17-5.48-.17-2.44.01-5.28-.05-5.28-.05-.74-.07-6.59-.76-6.82-3.68-.03-.39.05-1,.6-1.64,1.31-1.53,4.62-2.39,6.03-2.5l.31-.03c.84-.08,3.07-.3,5.31-.32h.61c1.62,0,3.81.05,6.42.22,1.29-7.68,1.93-15.9,1.86-24.75.01-1.24-.07-2.46-.09-3.69-6.85.85-12.47,1.97-16.3,2.74-1.96.39-3.38.68-4.24.78-1.38.2-2.56.3-3.55.3-2.31,0-3.58-.56-4-1.72-.29-.84-.23-1.74.18-2.59.74-1.52,2.53-2.81,5.19-3.72,2.09-.71,10.21-3.2,22.24-4.68-1.72-19.09-7.86-37.28-18.78-55.31-.7-1.16-.95-2.54-.69-3.87Z"/>
          </g>
          <g>
            <path class="cls-3" d="M115.31,313.35c-3.5,7.1-3.52,18.45,1.21,24.48,2.92,3.45,7.8,5.41,14.09,4.33,5.43-.94,8.52-5.9,9.55-9.85,2.23-8.84-.15-19.68-5.23-23.79-5.36-3.91-15.39-3.82-19.61,4.83Z"/>
            <path class="cls-3" d="M285.41,314.39c-3.5,7.1-3.52,18.45,1.21,24.48,2.92,3.45,7.8,5.41,14.09,4.33,5.43-.94,8.52-5.9,9.55-9.85,2.23-8.84-.14-19.68-5.23-23.79-5.36-3.91-15.39-3.82-19.61,4.83Z"/>
            <g>
              <path class="cls-3" d="M230.45,345.1c-1.17-4.16-4.32-7.43-8.44-8.76-7.86-2.55-15.82-1.48-20.77,2.79-5.16,4.56-5.41,12.65-2.18,16.84,2.99,3.88,7.72,5.9,14.48,6.2.31.01.63.02.94.02,5.41,0,10.44-1.98,13.31-5.27v-.02c2.83-3.28,3.82-7.69,2.67-11.81Z"/>
              <path class="cls-4" d="M219.91,342.85c-2.1-.68-4.24-1.01-6.25-1.01-3.19,0-6.05.84-7.91,2.45-2.45,2.17-2.29,6.18-1.26,7.52,1.68,2.18,4.74,3.34,9.35,3.54,4.27.17,7.46-1.38,8.79-2.9,1.34-1.56,1.79-3.55,1.24-5.49-.54-1.94-2.02-3.48-3.96-4.11Z"/>
            </g>
          </g>
        </g>
        <g>
          <g>
            <path class="cls-3" d="M174.31,403.18c-1.48-4.63-4.48-8.3-7.74-11.99-11.57-11.11-31.76-15.56-47.81-10.64-11.58,3.03-24.94,13.2-26.89,28.3-1.79,11.76,2.42,22.06,11.65,27.76,9.31,4.78,19.42,4.67,29.7-.17.87-.33,1.3-.24,3.57.72,1.42.61,3.17,1.34,5.28,1.7,3.57,1.03,6.76,1.46,9.57,1.46,7.46,0,12.38-3.02,15.44-6.04,7.97-7.84,10.94-20.61,7.23-31.1Z"/>
            <path class="cls-8" d="M163.98,406.77c-.03-.07-.05-.13-.07-.2-.83-2.65-3.05-5.31-5.25-7.82-8.41-8.05-24.41-11.47-36.92-7.67-8.41,2.2-17.79,9.67-19.04,19.29-.55,3.62-1.01,12.25,6.19,16.72,5.93,3.02,12.4,2.87,20-.7,1.9-.75,3.63-1.02,5.18-1.02,2.92,0,5.24.98,6.98,1.72,1.12.47,2.08.88,2.97,1.01.27.04.53.09.78.17,6.51,1.94,11.44,1.34,14.59-1.78,4.91-4.82,6.87-13.3,4.58-19.71Z"/>
          </g>
          <g>
            <path class="cls-3" d="M338.19,411.14c-1.98-15.21-15.33-25.39-26.69-28.34-16.27-4.97-36.47-.53-48.34,10.91-2.82,3.2-5.95,7-7.44,11.65-3.71,10.49-.74,23.27,7.22,31.1,3.07,3.03,8,6.05,15.45,6.05,2.81,0,5.99-.43,9.57-1.46,2.11-.36,3.86-1.1,5.28-1.7,2.29-.98,2.71-1.06,3.23-.87,10.61,5,20.73,5.1,30.44.1,8.83-5.48,13.04-15.78,11.27-27.43Z"/>
            <path class="cls-8" d="M327.35,412.67c-1.27-9.74-10.64-17.21-18.84-19.34-3.53-1.08-7.32-1.6-11.13-1.6-9.92,0-20.02,3.48-26.32,9.54-1.88,2.17-4.1,4.83-4.94,7.48-.02.07-.04.13-.07.2-2.29,6.41-.33,14.89,4.56,19.7,3.17,3.11,8.06,3.72,14.6,1.78.25-.07.51-.13.78-.17.89-.13,1.85-.53,2.97-1.01,2.67-1.14,6.69-2.83,11.82-.85,7.93,3.73,14.41,3.87,20.73.63,6.81-4.24,6.35-12.88,5.82-16.38Z"/>
          </g>
        </g>
        <g>
          <g class="cls-11">
            <rect class="cls-9" x="240.92" y="114.92" width="108.55" height="184.44" transform="translate(-17.29 387.14) rotate(-65)"/>
            <rect class="cls-10" x="285.32" y="218.08" width="108.55" height="19.53" transform="translate(-10.43 439.32) rotate(-65)"/>
            <rect class="cls-6" x="209.65" y="182.79" width="108.55" height="19.53" transform="translate(-22.14 350.36) rotate(-65)"/>
          </g>
          <path class="cls-3" d="M390.94,217.52c.07-12.48-5.34-22.53-15.6-29.03-.69-.44-1.39-.87-2.1-1.27-.77-.43-1.55-.85-2.34-1.22-11.64-5.67-23.69-4.48-34.15-2.53-5.83,1.33-9.45,2.5-11.74,3.46-1.46-1.46-3.03-2.84-4.74-4.07-.97-.67-6.37-4.22-14.15-5.76-.48-2.22-.98-3.96-1.26-4.88-.01-.05-.23-.79-.25-.84-1.29-3.88-4.26-11.63-9.68-19.89-6.8-10.34-15.02-17.72-24.49-21.96-15.15-6.65-29.01-3.93-42.64,8.55-6.19,6.4-11.53,14.18-15.87,23.1-.54,1.12-4.52,10.56-4.96,11.86-1.56,4.27-6.56,19.27-5.14,33.03.89,10.47,5.87,20.98,13,27.42.12.11.54.44.67.53,7.94,6.03,16.67,9.07,25.99,9.07,1.13,0,2.27-.05,3.42-.13,12.05-.93,21.23-4.61,21.51-4.72,1.18-.45,2.22-.93,3.33-1.4,3.32,4.59,7.6,8.48,12.65,11.05,6.29,3.17,11.23,4.29,15.81,4.29.67,0,1.31-.14,1.97-.18.25.54.51,1.09.92,1.73,9.83,18.52,24.19,24.87,33.25,24.47.58.03,1.17.05,1.76.05,15.78,0,33.72-11.18,44.46-28.18l.53-.88c3.53-5.77,8.87-14.5,9.85-31.67ZM262.41,228.04c-.08.03-8.08,3.2-18.37,4-11.87.91-19.45-4.84-21.88-6.66-5-4.53-8.79-12.66-9.45-20.34-1.18-11.51,3.16-24.52,4.61-28.48.39-1.06,3.95-9.57,4.44-10.59,3.84-7.89,8.52-14.72,13.66-20.06,10.24-9.37,19.41-11.29,30.57-6.38,7.49,3.36,14.15,9.4,19.77,17.96,4.92,7.49,7.54,14.61,8.32,16.9l.28.99c.1.33.23.76.37,1.26-3.12.38-6.39,1.21-9.76,2.67-.86.37-1.62.86-2.44,1.29-1.82-1.99-4.05-3.77-6.3-5.03-6.73-3.79-14.11-3.84-20.25-.13-6.59,4-10.46,11.71-9.86,19.44.23,6.03,2.69,11.16,7.12,14.82,2.87,2.37,6.27,3.78,9.4,4.6,0,.53-.07,1.05-.05,1.58.03,3.82.78,7.6,2.04,11.21-.76.31-1.43.63-2.24.94ZM264.12,203.35c-1.43-.51-2.96-1.24-4.22-2.39-1.79-1.63-2.7-3.75-2.82-6.7-.29-3.87,1.51-7.59,4.61-9.47,2.17-1.32,4.47-1.53,7.04-.66,2.02.68,3.67,1.86,4.9,2.98-4.48,4.46-7.75,9.99-9.5,16.23ZM306.89,239.74c-7.63,2.01-11.53,2.43-19.54-1.62-8.18-4.17-13.72-13.13-13.78-22.46-.43-11.82,5.62-21.89,15.78-26.29,3.44-1.49,6.75-2.04,9.77-2.05,8.05,0,14.03,3.93,14.85,4.49,9.03,6.49,13.34,17.88,10.69,28.51-2.49,11.49-10.8,17.57-17.75,19.43ZM371.63,243.68l-.6,1.01c-8.69,13.74-23.71,23.26-36.56,22.57-6.52.09-15.93-5.16-23.02-17.53,4.14-1.36,8.46-3.71,12.35-7.14,1.96,1.41,4.3,2.61,7,3.2,1.02.22,2.2.38,3.49.38,3.21,0,7.18-.98,11.47-4.38,4.8-4.81,6.43-10.35,4.84-17.49-2.82-8.54-9.53-11.12-14.31-12.03-.27-5.63-1.81-11.14-4.48-16.14,2.05-.65,4.64-1.36,7.15-1.93,8.49-1.57,18.35-2.62,27.19,1.67.59.28,1.14.58,1.7.89.53.3,1.04.61,1.59.96,7.15,4.53,10.61,10.99,10.57,19.46-.82,14.14-4.94,20.88-8.38,26.5ZM335.17,223.25c2.53.61,4.13,1.69,4.89,3.94.65,2.96.13,4.69-1.56,6.43-1.71,1.35-3.44,1.83-5.18,1.51-.94-.17-1.76-.56-2.49-1,1.88-3.16,3.39-6.77,4.33-10.89Z"/>
        </g>
      </g>
    </g>
    <g>
      <path class="cls-8" d="M8.72,68.68C8.72,30.75,39.47,0,77.4,0s68.67,30.75,68.67,68.68-30.75,68.67-68.67,68.67S8.72,106.6,8.72,68.68Z"/>
      <g>
        <g>
          <path class="cls-9" d="M10.57,68.68C10.57,31.77,40.48,1.85,77.4,1.85s66.82,29.93,66.82,66.83-29.92,66.83-66.82,66.83S10.57,105.58,10.57,68.68Z"/>
          <path class="cls-5" d="M13.9,68.68c0-35.06,28.43-63.48,63.5-63.48s63.5,28.42,63.5,63.48-28.44,63.48-63.5,63.48S13.9,103.74,13.9,68.68Z"/>
          <path class="cls-9" d="M15.76,68.68c0-34.05,27.58-61.64,61.65-61.64s61.64,27.59,61.64,61.64-27.6,61.63-61.64,61.63S15.76,102.73,15.76,68.68Z"/>
          <path class="cls-5" d="M34.16,68.68c0-23.88,19.35-43.25,43.24-43.25s43.24,19.37,43.24,43.25-19.36,43.23-43.24,43.23-43.24-19.37-43.24-43.23Z"/>
          <path class="cls-9" d="M35.36,68.68c0-23.22,18.83-42.04,42.04-42.04s42.05,18.82,42.05,42.04-18.84,42.04-42.05,42.04-42.04-18.83-42.04-42.04Z"/>
        </g>
        <g>
          <g>
            <path class="cls-8" d="M80.57,121.92h-4.38v2.33h5.15v2.82h-7.87v-11.89h7.87l-.02,2.72h-5.13v2.15h4.38v1.89Z"/>
            <polygon class="cls-8" points="47.23 104.06 41.37 110.58 40.91 110.6 39.59 109.42 39.58 108.96 45.42 102.46 43.4 100.62 36.77 108.01 36.92 110.81 39.83 113.41 42.61 113.27 49.25 105.88 47.23 104.06"/>
            <path class="cls-8" d="M63.85,113.34l7.69,1.64-.57,2.66-2.51-.54-1.91,8.97-2.66-.57,1.9-8.96-2.5-.53.56-2.66Z"/>
            <polygon class="cls-8" points="107.03 104.57 106.87 107.37 112.18 113.27 114.99 113.42 117.89 110.82 118.04 108.02 116.73 106.55 114.69 108.38 115.22 108.98 115.21 109.44 113.9 110.62 113.44 110.6 109.61 106.36 109.64 105.89 111.2 104.48 111.97 105.34 113.99 103.51 111.4 100.63 107.03 104.57"/>
            <polygon class="cls-8" points="57.76 123.66 55.22 122.7 59.48 111.6 62.01 112.57 57.76 123.66"/>
            <polygon class="cls-8" points="55.25 109.58 53.58 112.5 52.75 109.1 53.16 108.38 50.81 107.02 44.87 117.33 47.24 118.68 50.74 112.57 51.7 115.77 49.34 119.88 51.69 121.25 57.63 110.93 55.25 109.58"/>
            <path class="cls-8" d="M83.34,114.96l7.71-1.67,2.07,9.7-1.51,2.35-5.75,1.23-2.52-11.61ZM89.98,122.8l.24-.37-1.27-5.88-2.36.51,1.32,6.19,2.07-.44Z"/>
            <path class="cls-8" d="M101.96,113.78l3.8-2.18.94,1.62-3.78,2.18,2.56,4.46-2.36,1.36-5.92-10.3,6.81-3.93,1.35,2.36-4.45,2.58,1.05,1.84Z"/>
          </g>
          <g>
            <path class="cls-8" d="M78.65,10.27l5.87.32-.15,2.72-4.8-.26-.35.3-.09,1.48.32.34,4.78.27-.26,5.04-2.1,1.89-5.87-.32.16-2.82,4.81.26.33-.3.11-2.01-3.97-.22-1.09-1.23.19-3.58,2.1-1.86Z"/>
            <polygon class="cls-8" points="93.94 12.68 92.65 17.36 90.32 16.72 91.58 12.05 88.95 11.33 85.83 22.79 88.46 23.51 89.82 18.54 92.16 19.18 90.79 24.14 93.43 24.86 96.55 13.39 93.94 12.68"/>
            <path class="cls-8" d="M39.66,23.91l.79,7.04,7.69,1.3-2.24,2.19-3.84-.64,2.19,2.24-1.93,1.92-8.34-8.48,1.96-1.91,2.19,2.26-.42-4,1.94-1.91Z"/>
            <path class="cls-8" d="M100.57,15.07l2.48,1.14-4.97,10.8-2.49-1.14,4.97-10.8Z"/>
            <polygon class="cls-8" points="111.2 21.06 110.73 21.76 109.03 22.14 108.73 20.4 109.21 19.71 106.95 18.18 100.28 28.02 102.52 29.56 106.48 23.72 106.85 25.35 108.49 25.08 104.53 30.91 106.77 32.44 113.46 22.61 111.2 21.06"/>
            <path class="cls-8" d="M107.82,33.3l1.96,1.98,1.62-1.17,1.26,1.29-1.2,1.62,1.94,1.98,7.03-9.8-2.65-2.72-9.96,6.82ZM112.94,33l3.2-2.27-2.34,3.13-.86-.86Z"/>
            <path class="cls-8" d="M47.96,18.24l-3.23,2.03,4.56,11.17,2.36-1.48-.81-1.86,1.53-.96,1.33,1.53,2.34-1.48-8.08-8.96ZM50.1,26.34l-1.56-3.6,2.57,2.95-1.02.65Z"/>
            <polygon class="cls-8" points="58.53 18.58 59.18 20.36 60.37 19.91 61.09 21.8 60.91 22.22 59.24 22.84 58.82 22.64 56.81 17.3 57 16.89 58.96 16.14 59.37 17.21 61.94 16.25 60.56 12.62 55.03 14.7 53.88 17.25 56.67 24.69 59.22 25.86 62.89 24.47 64.05 21.92 62.28 17.19 58.53 18.58"/>
            <path class="cls-8" d="M72.35,10.37l-5.82.9-1.65,2.26,1.23,7.85,2.24,1.65,3.88-.6,1.65-2.26-1.52-9.81ZM71.01,19.46l-.28.37-1.75.26-.38-.26-.87-5.65.27-.37,2.08-.32.93,5.98Z"/>
          </g>
        </g>
        <g>
          <path class="cls-8" d="M84.89,93.03c0,4.16-3.35,7.51-7.49,7.51s-7.5-3.35-7.5-7.51,3.36-7.5,7.5-7.5,7.49,3.36,7.49,7.5Z"/>
          <g>
            <path class="cls-2" d="M79.06,95.14c.63-1.75.94-2.99.94-2.99-1.78-1.52-2.6-1.92-2.6-1.92,0,0-.83.4-2.6,1.92,0,0,.27,1.24.93,2.99,0,0,.65.18,1.66.18s1.66-.18,1.66-.18Z"/>
            <path class="cls-2" d="M70.86,93.46s.6-1.16,1.55-2.1c0,0-.33-1.15,0-2.55,0,0-.83-.25-1.72.9-.26.52-.46,1.07-.59,1.64-.03.72.08,1.68.76,2.12Z"/>
            <path class="cls-2" d="M82.37,88.81c.36,1.41,0,2.55,0,2.55.96.94,1.57,2.1,1.57,2.1.69-.43.79-1.37.77-2.08-.13-.59-.34-1.16-.61-1.69-.88-1.13-1.73-.88-1.73-.88Z"/>
            <path class="cls-2" d="M74.9,86.85c2.3.17,2.5.8,2.5.8,0,0,.22-.63,2.47-.8,0,0-.16-.74-1.01-1.17-.47-.09-.96-.14-1.46-.14s-1,.05-1.48.15c-.86.44-1.02,1.17-1.02,1.17Z"/>
            <path class="cls-2" d="M71.97,96.58s-.41.88.37,1.98c.45.42.96.79,1.5,1.08.66.2,1.59.35,2.1-.17,0,0-1.11-1.09-1.55-2.15,0,0-1.12.08-2.43-.75Z"/>
            <path class="cls-2" d="M82.82,96.58c-1.29.83-2.41.75-2.41.75-.45,1.06-1.55,2.15-1.55,2.15.52.52,1.44.38,2.1.17.55-.3,1.06-.67,1.52-1.09.76-1.1.35-1.98.35-1.98Z"/>
          </g>
        </g>
        <g class="cls-7">
          <g>
            <path class="cls-8" d="M77.4,28.99c-21.92.04-39.66,17.76-39.7,39.69.04,20.5,15.55,37.3,35.47,39.43-5.51-7.68-5.64-14.65-5.64-15.11,0-.02,0-.04.02-.06.04-5.4,4.43-9.77,9.84-9.77s9.77,4.36,9.81,9.82h.01c0,.52-.12,7.59-5.86,15.14,8.13-.81,15.53-4.07,21.46-9.03-.76-.94-1.25-2.14-1.25-3.45.01-3,2.43-5.45,5.46-5.45,1.15,0,2.22.39,2.97,1.04,4.44-6.4,7.05-14.18,7.07-22.57-.03-21.92-17.74-39.65-39.66-39.69Z"/>
            <path class="cls-6" d="M73.37,71.06c.15.14.32.43.38.5.08.07.38.15.51.27.13.13.83.47.98.54.13.07.75.18.93.07.19-.12.31-.21.31-.21,0,0,.33-.01.45-.03.06-.01.27-.1.47-.22V28.97c-1.52,0-3.02.1-4.49.27v41.64c.15.05.37.13.46.19Z"/>
            <g>
              <g>
                <path class="cls-9" d="M102.2,82.59c-.15-.14-.33-.39-.53-.31.2.35.44.7,1.02.56-.05-.19-.26-.24-.49-.25Z"/>
                <path class="cls-9" d="M107.77,81.89c-.16-.09-.59-.1-.73,0,.48.16.76.7,1.14.82-.03-.17-.22-.35-.22-.45.39.04.77.3,1.09.31-.32-.38-.79-.42-1.28-.67Z"/>
                <path class="cls-9" d="M112.92,82.07c-.34-.1-.75.01-1.18-.06-.41-.06-.92-.41-1.39-.19.49.01.93.42,1.42.48.43.08.89-.14,1.24.13-.37.14-.85.15-1.28.23.81.1,1.69.07,2.35-.19-.5.01-.82-.27-1.18-.39Z"/>
                <path class="cls-9" d="M94.65,82.32c-.19.01-.24-.11-.4-.11-.65.26-.88-.7-1.54-.54.28.2.49.49.73.75.38.06.79.18,1.12.18.24.14.35.36.55.51.05-.51-.28-.69-.47-1,0,.07.11.18,0,.22Z"/>
                <path class="cls-9" d="M102.07,81.85c-.14-.48-1.24-.56-1.62-.22.24.05.53.02.84.02.24.34.77.41,1.28.52-.14-.16-.24-.31-.49-.33Z"/>
                <path class="cls-9" d="M50.92,81.89c.16-.13.29-.28.37-.49-.53.2-1.24.2-1.61.56.37.07.8-.2,1.23-.07Z"/>
                <path class="cls-9" d="M74.55,81.45c-.36-.08-.75.12-1.13.19.02-.12.27-.36.11-.41-.36.32-.66.82-1.19,1.06-.26.14-.59.21-.85.35-.22.09-.6.19-.56.47.41-.22.75-.2,1.15-.26.56-.07.76-.56,1.41-.52.09-.05.04-.23.2-.22.16.06.39.06.51.18-.07.1-.22.14-.22.31.8-.11,1.37-.24,2.18-.39-.81-.06-1.6-.14-2.27-.32.16-.23.5-.25.66-.44Z"/>
                <path class="cls-9" d="M55.22,81.04c.06-.15.3-.1.36-.23-.22-.4-.58.13-.82.19-.56-.03-.83.24-1.18.44.38.02.66-.12,1-.15.24-.02.48.12.66.1.38-.05.54-.43.85-.54-.29-.11-.61.26-.88.18Z"/>
                <path class="cls-9" d="M62.48,81.07c-.48.26-1.14.27-1.45.67.58-.11,1.12-.27,1.66-.44.07-.32.48-.48.48-.75-.4,0-.5.31-.69.52Z"/>
                <path class="cls-9" d="M90.59,81.55c.04.23.22.3.25.52-.68.17-1.93.14-2.11-.62-.82.62-1.48-.07-2.19-.26-.11-.26-.31-.44-.48-.67.01.44.28.6.37.95.24.16.45.32.79.39.24.47.82.61,1.45.66-.08-.28-.52-.19-.72-.36.23-.07.37-.2.69-.15.48.55,1.81.22,2.31.73.05.3.39.5.56.56-.22-.68-.24-1.53-.93-1.74Z"/>
                <path class="cls-9" d="M106.48,80.55c.19.19.67.07.79.34-.18.08-.23.23-.45.26-.45-.41-1.36-.36-1.89-.67.16.54.82.49,1.36.67.43.14.76.4,1.12.32-.14-.07-.35-.1-.44-.22.9-.25,1.88.45,2.81.41-.52-.26-.99-.57-1.71-.63-.26-.49-.84-.64-1.59-.49Z"/>
                <path class="cls-9" d="M67.87,80.23c-.26-.04-.55-.04-.86-.04-.12-.04-.3-.22-.48-.13.15.32.56.4.87.42-.82.29-1.7.54-2.23,1.12.56.06.81-.31,1.1-.42.22-.08.47-.03.68-.11.32-.11.58-.43.99-.37.33.33,1.05.11,1.5.04-.52-.19-1.34-.06-1.58-.51Z"/>
                <path class="cls-9" d="M48.87,80.55c.15-.01.31-.04.52-.03-.05.05-.05.14,0,.18.35-.01.42-.32.52-.64-.36.02-.84.22-1.03.49Z"/>
                <path class="cls-9" d="M45.63,80.74c.59-.31,1.72-.07,1.87-.82-.08.01-.09-.04-.16-.03-.49.35-1.44.41-1.71.85Z"/>
                <path class="cls-9" d="M103.99,80.14c.28-.03.49-.3.72-.28.28.01.75.33.81.56.3-.02.62-.03.78-.18h-.55c-.09-.56-.89-.37-1.12-.78-.04.05-.04.14-.03.23-.31.25-.71.06-1.08.1-.14.01-.27.17-.4.18-.2.01-.53-.23-.63.08.03.17.29.1.48.1.36.31,1.06.47,1.59.45-.23-.32-.85-.26-1.18-.49.24-.15.36.08.61.03Z"/>
                <path class="cls-9" d="M86.91,80.25c.17.21.19.53.62.49-.13.24.11.59.35.44-.12-.37-.27-.61-.41-1.04-.19-.03-.05.24-.19.27-.11-.06-.23-.13-.26-.27.05-.11.29-.18.2-.32-.24-.03-.2.22-.45.17-.19-.27-.43-.49-.79-.57.23.36.32.87.92.83Z"/>
                <path class="cls-9" d="M54.43,79.92c-.06-.15-.22-.18-.36-.25.04-.22.08-.44.08-.67-.31.05-.45.24-.64.41-.06.16.13.21.05.28-.68,0-1.37.05-1.82.36-.36.05-.73.05-.85.35.22.05.46-.09.59,0-.21.24-.49.42-.69.69.53.17.75-.47,1.19-.66.53-.26,1.09-.5,1.87-.49.22,0,.49.17.59-.03Z"/>
                <path class="cls-9" d="M46.05,79.14c.13-.14.4-.15.4-.43-.44.18-.97.08-1.48.25-.29.11-.5.39-.82.49-.35.11-.76.09-1.08.23-.15.06-.3.23-.48.28-.44.15-1.19.13-1.58.18-.57.1-1.22-.18-1.63.16.19.13.36.02.55.03.47.05.99.32,1.44.26.22-.05.55-.31.9-.36.38-.07.48-.19.74-.27.32-.09.69-.08,1.06-.1-.15.28-.49.39-.7.66.69-.03.78-.67,1.49-.69.16-.23.35-.47.54-.68.19-.01.33-.09.52-.1.1-.01-.03.17.11.1Z"/>
                <path class="cls-9" d="M101.93,79.14c.07.38.24.63.53.78.08-.25.62-.16.85-.18-.06-.28-.44-.19-.61-.36.36-.17.48.07.87.04.03-.12-.24-.13-.13-.2.27.09.45.23.71.03-.52-.16-1.18-.59-1.69-.54.06.13.32.26.29.37-.16-.03-.11-.03-.26,0-.1.06-.08.27-.16.36-.15-.1-.08-.32,0-.44-.18,0-.31.06-.4.14Z"/>
                <path class="cls-9" d="M93.36,79.82c0-.4-.22-.83-.24-1.27-.11.23-.12.52-.28.67.12.26.17.56.53.6Z"/>
                <path class="cls-9" d="M53.93,77.96c-.05.18.09.16.07.31-.34.07-.7.13-.82.44.58-.32,1.07.27,1.58-.07.09-.11,0-.28.05-.34.39.01.3-.28.29-.63-.22-.18-.47-.23-.59.06-.31-.02-.5.06-.58.23Z"/>
                <path class="cls-9" d="M101.15,77.92c.11.4.6.41.89.62,0-.18-.24-.41-.4-.54-.31-.25-.67-.43-1.14-.48-.13-.17-.39-.41-.61-.36-.03.23.23.16.24.36-.11.09-.28.11-.32.28.49.11.94-.12,1.32.11Z"/>
                <path class="cls-9" d="M94.56,78.74c.16.2.34.58.55.59-.1-.41-.36-.67-.55-1.03-.16-.03-.18.06-.28.07-.35-.3-.62-.69-.82-1.14-.15-.02-.1.16-.21.18-.19-.15-.16-.52-.27-.74-.06.1-.08.27-.11.4-.16-.1-.36-.34-.57-.3.44.67,1.11,1.11,1.44,1.86.3.02.51.11.82.1Z"/>
                <path class="cls-9" d="M75.66,78.08c.18.1.31.26.43.43h.33c.52.36,1.23.5,1.85.74.05-.17,0-.44,0-.61-.2-.03-.17.19-.33.22-.1-.02-.21-.03-.27-.11.17-.01.24-.16.27-.3-.36.19-.64-.02-1.03.07-.17-.08-.24-.25-.44-.28.07,0,.02-.11.1-.11.13.03.26.05.42.07.06-.05.11-.24.02-.34-.22.08-.36-.1-.58-.22-.03.23-.11.49-.25.49-.07,0-.23-.31-.34-.34-.27-.1-.53.14-.58-.15.13-.08.42,0,.58-.08.09-.2-.03-.45-.27-.48-.1.06.09.18-.02.23-.36-.02-.44-.31-.78-.34.05.22.27.22.28.46-.03.15-.27.18-.43.11-.16-.44-.45-.74-.79-1-.01.24.23.42.18.58-.47-.05-.57-.66-.91-.74.4,1.02,1.28,1.59,2.57,1.71Z"/>
                <path class="cls-9" d="M56.66,76.63c.09.39-.06,1,.26,1.15.17-.03.13-.24.19-.36.2,0,.36-.05.48-.11-.01-.41.06-.94.06-1.29-.28.14-.42.44-.55.75,0,.19.27.13.27.32-.08.06-.18.09-.34.09-.11-.18-.14-.47-.37-.53Z"/>
                <path class="cls-9" d="M48.52,79.96c.9-.19,1.95-.15,2.64-.54.38-.23.53-.53.93-.6.28-.06.65.07.8-.31-.75,0-1.6-.26-2.1.27.05.05.21.03.26.1-.23.47-.81.57-1.44.64.19-.19.45-.32.69-.44.21-.36.29-.81.68-.9.38-.09.73.15,1.18.18.49.05.81-.17,1.24-.18.13-.11.06-.23.17-.34.27-.27,1.06-.32.99-.77-.01-.17-.54-.46-.61-.54-.21.2-.29.56-.53.74-.34-.06-.39.15-.57.22-.5-.36-.86.12-1.38.19.03-.13-.02-.18-.03-.26.35-.09.65-.24.95-.37.22.23.89.13.75-.28-.16.04-.39.2-.59.1.26-.12.3-.43.59-.56.27-.13.65-.03.85-.3-.35.03-.72.06-1.08.07-.64.89-2,1.09-3.1,1.52-.35.13-.64.4-.91.44-.42.09-.71-.03-1.02.08-.35.11-.63.32-.95.52.6-.09,1.22-.34,1.91-.19-.3.08-.43.41-.74.56-.36.18-.91.1-1.14.48.39-.2.88-.09,1.33-.26.32-.11.58-.36.88-.48.35-.14.66-.19,1-.3,0,1.02-1.28.97-1.64,1.51Z"/>
                <path class="cls-9" d="M87.52,76.57c0-.35-.03-.66-.24-.78-.02.32,0,.84-.26,1.13.07.18.07.43.12.62.2.1.3.26.51.34.18.22.22.58.48.69.02-.24.6-.5.41-.81-.08.22-.26.27-.44.38.09-.31.52-1.11,0-1.26-.18.24,0,.75-.11,1-.37-.23-.18-1.03-.46-1.32Z"/>
                <path class="cls-9" d="M75.64,75.89c-.15-.1-.31-.03-.48,0-.04.11-.07.22-.16.26-.09-.13-.06-.34-.2-.36-.31.29,0,1.04.36.96.09-.12-.04-.27,0-.41.14-.14.29-.32.48-.45Z"/>
                <path class="cls-9" d="M91.88,75.52c.3.37.72.68,1.12.93-.22-.43-.57-.95-1.12-.93Z"/>
                <path class="cls-9" d="M73.69,76.22c.13.02.18-.08.31-.07.09.3.31.42.56.52-.22-.42-.57-1.05-1.11-1.3-.1,0-.06.18-.17.18-.26.04-.04-.37-.23-.41-.07.13-.14.43-.11.56.14.15.47.11.62.15-.02.19.05.3.13.36Z"/>
                <path class="cls-9" d="M55.74,75.94c-.09,0-.09.09-.07.18.44-.15.66.36,1.04.25-.17-.19-.22-.51-.55-.54,0-.16-.03-.25-.09-.34.3-.19.98-.08.93-.56-.18.28-.53.06-.82.11-.17.04-.27.22-.4.3-.26.16-.54.17-.75.37.32,0,.62,0,.7.23Z"/>
                <path class="cls-9" d="M67.79,75.27c0-.14.22-.23.1-.37-.12.08-.28.14-.46.15-.07.11-.11.23-.11.37-.2.15-.43.25-.36.66-.14.15-.24.32-.24.6.16.25.28.53.56.67.22-.31-.2-.45,0-.77-.02-.11-.15-.06-.15-.16.38-.24.07-1.15.66-1.15Z"/>
                <path class="cls-9" d="M76.71,76.45c-.23-.51-.49-.98-.6-1.62-.18.02-.23.13-.39,0v.15c.34.48.45,1.19.99,1.48Z"/>
                <path class="cls-9" d="M95.57,75.45c.19,0,.33.05.47.07-.19-.23-.51-.34-.69-.63-.38,0-.63-.14-.93-.22.19.44.93.36,1.15.77Z"/>
                <path class="cls-9" d="M91.32,75.98c-.22-.48-.32-1.07-.52-1.56-.06.19,0,.47-.06.67.27.19.18.94.58.89Z"/>
                <path class="cls-9" d="M60.37,74.41c-.18.5-.62.83-.74,1.41-.07.27,0,.59-.05.95-.16.18-.31.58-.27.85.16-.35.45-.57.68-.85-.36-.94.24-1.41.58-1.95-.11-.1-.11-.31-.22-.41Z"/>
                <path class="cls-9" d="M72.23,75.38c-.33-.12-.51-.39-.62-.77.11-.07.22-.12.29-.23.04-.54-.12-.87-.55-.97.16.32.35.43.21.82-.05.16-.24.16-.26.33,0,.2.3.55.26.82-.13.11-.31.2-.47.28.1.31.53.25.61.56-.22.42-.07.95.35,1.08.1-.09.13-.24.18-.37-.74.16.06-1.15,0-1.54Z"/>
                <path class="cls-9" d="M59.44,74.07c-.39.31-.26,1.06-.6,1.37-.07-.07-.18-.11-.26-.18v-.44c-.22.07-.16.41-.22.62.51.28.22.91.19,1.37.75-.51.41-2.09,1.21-2.56.02-.17.06-.31.08-.48.41-.14.94-.61,1.37-.37.16-.18.34-.35.51-.51-.87-.03-1.67.29-2.14.88-.83.02-1.1.6-1.81.74.91.28,1.02-.5,1.67-.45Z"/>
                <path class="cls-9" d="M84.75,76.27c-.45.09-.06.61-.35.8-.06-.13-.21-.16-.29-.25.48-.47.42-1.65.55-2.37.1-.7.76-1.01.85-1.67-.36.2-.5.65-.82.9.02-.32-.05-.51-.03-.81-.44.23-.16.82-.23,1.24-.01.14-.19.28-.23.45-.1.4-.04.61-.33.7-.26.74-.85,1.33-1.01,2.08.52-.57.95-1.41,1.36-1.93.08,1.17-.84,1.52-1.05,2.26.3-.11.53-.3.66-.6.28.2.35.65.76.7-.02-.32.19-.66.19-1.07-.1-.17-.15-.22-.05-.44Z"/>
                <path class="cls-9" d="M71.12,74.2c-.13-.17-.3-.31-.32-.56.07-.11.29-.11.24-.34-.12-.1-.23.02-.33.03-.13-.39.1-.64.09-1.03.19-.01.36-.25.24-.48-.16,0-.22.27-.3.19-.06-.16.06-.26-.07-.38-.18-.01-.44.13-.49.32-.01.19.23.31.24.49.02.25-.14.52-.07.81.02.27.16.41.18.63.14.12.34.17.35.42-.03.06-.08.1-.14.14-.05-.02-.05-.14-.19-.1-.05.45.22.78.08,1.23.26-.34.38-.86.48-1.39Z"/>
                <path class="cls-9" d="M64.69,80.18c.37-.08,1.12-.08,1.42-.41-.48,0-.9-.12-.87-.69-.3-.14-.4-.45-.77-.53.04-.23.14-.41.07-.59-.34.1-.4.49-.48.83.07.18.37.35.37.51-.56,0-.57-.47-.72-.82-.2.12-.12.56-.29.74-.26-.14-.39.13-.63.16.14-.37-.17-.59-.31-.8-.1-.17-.05-.49-.24-.58-.24.26-.08.74-.3,1.03.05.03.06.07.07.15.17,0,.17-.15.37-.1.18-.01.21.27.19.36-.2.02-.33-.06-.53-.03-.1.04-.11.14-.18.22-.28-.15-.28-.59-.26-1.06.11-.17.29-.26.34-.47-.05-.16-.28-.11-.34-.31.14-.19.22-.44.63-.36.16.19.14.56.36.67.19-.2.09-.59,0-.82.06-.06.18-.24.22-.19.03.26.13.42.35.44-.03-.2-.07-.41-.1-.62.16-.18.62-.08.73-.33-.45-.24-1.01.27-1.41.23.19-.69.89-.9.94-1.74.36-.36-.08-.78-.2-1.11.04-.15.2-.19.2-.41-.1-.11-.22-.22-.42-.23-.03.15.07.15.07.27-.16.34-.49.47-.7.77-.03.55-.4,1.07-.4,1.77.22-.16.26-.49.48-.64-.05-.36.17-.46.3-.66,0-.25.02-.45.23-.48.03.15.16.22.19.36-.09.22-.16.41-.16.67-.72.7-.97,1.9-1.91,2.36-.13.02-.15-.06-.27-.04-.13.07-.14.23-.31.23-.35-.44.23-.78.25-1.14,0-.33-.3-.52-.37-.85-.18.25,0,.64.07.89-.18.39-.62.49-.68.99.06.14.22.15.31.24-.6.17-.91,1-1.68.77.06-.28.24-.43.52-.49.01-.22.09-.36.11-.59-.3.28-.76.42-1.22.56-.17.59-1.02.52-1.33.97-.14.03-.1-.11-.24-.08-.09.23-.4.41-.49.48,0-.19.05-.45-.14-.48-.19.14.06.69-.3.64-.13-.3-.15-.7-.52-.75.16.25.16.62.31.89-.07.11-.2.15-.24.31.4-.16.86-.34,1.27-.07.03-.17-.11-.18-.11-.31.07-.1.17-.2.28-.25.18.13.18.36.13.62.15.1.36.16.57.22.27-.2.49-.22.9-.14.13-.31.13-.74.55-.74,0,.17.13.26.19.4-.07.1-.29.25-.19.41.13-.14.32-.21.48-.31.04-.21-.08-.24-.1-.4.13-.02.16-.16.27-.22.22.03.25.27.37.43.41-.07.72-.27,1.03-.48.03-.17-.09-.28,0-.37.32-.07.29.17.45.27.15,0,.28-.02.38.04-.02.18.06.23.12.32.29.03.68.42.86.03.46.1.8.14,1.36.15.11-.31.74-.39.99-.23.13-.04.15-.22.26-.28.13.14.27.26.38.4-.19.11-.43.17-.52.36ZM57.21,80.04c-.2.07-.33.26-.56.1-.06-.47,0-.76.34-.92.1.03.15.1.26.11,0,.27-.11.49-.05.7Z"/>
                <path class="cls-9" d="M102.97,80.74c-.05.08.06.14-.04.18-.42-.14-.54-.59-.88-.82-.1.1.01.2,0,.34-.13-.03-.17.07-.3.03.13-.17.19-.42.3-.62-.13-.22-.24-.44-.32-.72-.19-.09-.49.13-.63.05,0-.12.1-.14.06-.3-.13-.22-.58-.1-.8-.22.24.04.31-.13.52-.16.14.11.34.22.53.07.2.24.64.39.83.06-.1-.1-.26,0-.35.03-.11-.35-.4-.13-.73-.23-.24-.08-.47-.24-.68,0h-.25c-.09.04-.12.16-.25.19-.29.02-.52-.18-.79-.06.22.25.66.25.6.75-.16.09-.33.06-.48-.03-.17-.47-.65-.58-.92-.93,0-.5-.44-.56-.62-.84-.02.28.16.43.28.59-.1.02-.15.11-.22.18-.05.18.15.14.15.28-.33.02-.54-.06-.59-.28.07-.13.26-.16.29-.37-.19.02-.48.19-.6.37-.09-.15-.05-.48-.26-.52.1-.06.2-.1.23-.23-.07-.02-.07-.14-.07-.25-.24-.12-.4-.33-.77-.31-.09-.19-.09-.48-.23-.62-.22.04-.41-.15-.6-.03.19.11.54.2.45.44-1.22.05-1.27-1.1-2.44-1.07.05.17.35.27.3.41-.15-.02-.2-.14-.41-.11.06.48.47.27.82.19.19.16.36.34.55.51-.17.01-.18.17-.22.28h.37s0-.12.03-.14c.39.18.93.25,1.15.63.14.04.14-.13.23-.03-.02.65.5.77.92,1,0,.37.34.32.64.48.26.16.36.36.55.41.14.04.34-.03.47,0,.59.12.9.61,1.23,1,.74.13,1.27.68,2.1.36.23.4,1.1.18,1.08.82-.23.09-.56.03-.62.26.35.08.54-.11.76-.11.56.03.72.66,1.2.82-.19-.33-.4-.61-.59-.93-.55-.04-.61-.58-.97-.81ZM99.98,79.86c-.11-.07-.22-.13-.24-.26.16-.01.24-.14.35,0-.01.1-.08.16-.11.26ZM100.45,79.04c.14.01.3-.03.38.04.02.19-.17.18-.26.25-.09-.06-.07-.2-.12-.3ZM100.65,79.74v-.15s.12-.04.22-.03c-.03.11-.1.18-.22.18ZM101.39,80.41c-.22,0-.44,0-.56-.08-.15-.36.27-.41.56-.44.07.15.1.37,0,.52Z"/>
                <path class="cls-9" d="M99.17,80.74c-.09-.11-.08-.32-.27-.33-.23.03-.26.24-.48.28-.24-.19-.12-.34.07-.56.15-.03.27.12.37,0-.31-.31-.82-.41-1.03-.81-.25.02-.19.39-.25.59-.06-.01-.09-.04-.12,0-.05-.23.04-.36.06-.54-.24-.13-.35-.57-.73-.34-.09-.1-.07-.32-.07-.52-.17-.07-.35-.11-.44-.25-.98.05-1.2-.82-1.98-.85.59.23.72.9,1.36,1.07.14.19.32.33.37.6.29.34.87.43,1.03.91-.11.19-.32.07-.56.07-.13.1-.14.31-.27.42-.06-.02-.15-.06-.3-.03-.11.07-.14.23-.31.25.01-.17.09-.23.06-.44-.08-.08-.39-.11-.47-.07.02.19.23.19.15.48-.24.06-.4.03-.44-.11-.12-.41.26-.49.36-.62-.47-.4-1.31-.02-1.74-.44,0,.31.31.3.37.56-.4-.07-.37.34-.82.21-.07-.07-.13-.15-.22-.21-.57.09-.69-.32-1.19-.36.08.13.27.17.3.36-.1.05-.1.21-.26.21-.17-.06-.11-.34-.32-.36-.22.17-.49.42-.86.22.06-.17-.02-.47.15-.54.26-.05.41.16.59,0-.07-.61-.69-.17-.86.08-.15-.22-.66-.07-.93-.19-.06.16-.27.16-.28.37.31.14.92-.31,1.11.07-.17.24-.8.01-.93.36-.14-.11-.18-.3-.37-.36-.12.1-.19.3-.38.34-.05-.03-.1-.09-.13-.17.11-.09.13-.26.16-.42-.31.05-.49.29-.91.18-.01-.13.1-.13.06-.26-.55.25.16.54.24.85h.22c.15.17-.05.55.11.66.18.14.13-.28.28-.3.19.01.07.32.24.33.16-.18-.08-.65.19-.81.24.21.14.82-.04,1,.6-.25.77.33,1.18.48.11-.33-.35-.41-.41-.7.15-.14.04-.34.11-.52.47.05.64.38,1.07.42.24-.25.29-.46.56-.49.31-.02.31.24.58.37.31.15.74.07,1.03.15-.2-.3-1.08-.26-.91-.67.37.23,1.09.13,1.19.64.27.06.26-.17.48-.16.06.16.05.37,0,.52.15.35.53.33.7,0,.27.18.69.16,1.01.03.24.18.56.47.84.49-.1-.43-.92-.53-.69-1.04.2,0,.22.19.4.23.56-.12,1.39.02,1.66.43h.48c-.12-.22-.45-.17-.45-.5.11,0,.05-.16.15-.16.1.43.74.32,1.07.52.19-.1.47-.1.62-.23-.11-.09-.36-.03-.43-.18.3-.09.78.14,1.07.05-.27-.19-.78-.35-1.22-.23ZM96.11,78.64c.17-.1.36.1.36.32-.24,0-.26-.2-.36-.32ZM93.46,80.59c.04-.11.24-.36.53-.36.02.28-.33.42-.53.36ZM94.83,81c.07-.17.32-.13.52-.15.03.11.18.16.14.33-.28.02-.54.05-.65-.18ZM96.47,80.7c0-.1.02-.17.06-.25.21,0,.45-.03.42.18-.05.14-.31.06-.48.07ZM97.64,80.92c-.11.03-.09-.05-.18-.03-.07-.34.16-.28.32-.3-.03.11-.13.19-.14.33Z"/>
                <path class="cls-9" d="M91.43,77.26c-.16-.09-.4-.09-.53.03.09.18-.07.36-.18.48.1-.28-.07-.47-.18-.67.15,0,.35.06.44-.03-.03-.2-.29-.19-.33-.4.04-.09.06-.22.07-.34-.29,0-.48.12-.67-.07.03-.07-.03-.22.04-.23.26-.04.06.33.32.3.1-.24-.03-.54-.24-.6-.16-.52.08-.95.16-1.43-.27.02-.19.39-.33.54-.1-.07.03-.33-.15-.3-.01.39-.07.9.09,1.23-.24-.06-.1-.53-.42-.49.02.36-.25.48-.22.92.1.14.27.39.22.56-.14-.06-.27-.1-.37-.2-.03-.16.05-.23.05-.35-.11-.1-.23-.15-.2-.28-.26.06-.28.35-.41.56.24.4.7.94.38,1.55,0-.08-.05-.15-.15-.15-.12.2-.07.57-.23.75.15.1.19.32.41.36.09-.13.02-.36,0-.52.02-.08.23.02.2-.11.04-.24.07-.69.28-.89.03-.42.22-.69.41-.95,0,.13.1.16.11.3-.04.12-.2.12-.22.28.02.1.15.1.18.19-.07.14-.17.24-.26.37.03.14.08.24.1.36-.21.08.03.49.16.54.14-.27.19-.62,0-.87.05-.15.24-.14.27-.3-.07-.24-.17-.52.1-.59.09.15.03.2.04.44.35.18,0,.74.14.97.29-.2.74-.5.66-.82.15.02.2-.07.26-.15ZM89.69,76.53c-.14-.2-.27-.51-.07-.73.1.14.15.31.26.43-.04.14-.13.19-.19.31Z"/>
                <path class="cls-9" d="M79,76.82c.2-.15.27-.43.31-.75-.09-.06-.25-.03-.31-.1.24-.49-.19-.72-.07-1.23-.1-.09-.15-.27-.29-.33-.39.24-.32.93-.6,1.25.03.17.21.36.1.53-.14-.34-.41-.53-.61-.82-.16.56.52.8.33,1.37-.02,0-.03.02-.03.02-.2-.01-.2-.19-.42-.18.12.42.56.51.68.93.11,0,.24.14.36.02-.11-.24-.3-.44-.4-.69.1-.15.15-.36.14-.64.3.17.48.47.82.6ZM78.87,76.22c0,.27-.25.05-.18-.07.08.01.08.1.18.07ZM78.6,74.93c.13.18.16.43.18.7-.12-.01-.21-.06-.37-.04.03-.25.03-.44.19-.66Z"/>
                <path class="cls-9" d="M86.33,78.37c-.27.02-.36.4-.53.38.03-.32.17-.52.34-.7.16.01.19.04.31,0,.07-.19-.09-.19-.16-.26.1-.19.23-.33.3-.55-.25.07-.25.39-.47.48-.09-.26.13-.28.22-.48-.02-.4-.09-.68-.05-1.03.34-.27-.08-.86.23-1.11.19.34-.11,1.05.14,1.36.13-.13.07-.42.14-.59.1.02.08.02.19,0,.06-.32.23-.48.33-.74-.04-.08-.23.01-.26-.08.11-.2.03-.52-.18-.59-.08.15-.08.37-.18.48-.07-.03-.12-.08-.16-.15.15-.4.03-1.06-.26-1.28.05.25-.07.36-.11.56.07.11.23.17.26.33-.1.27-.05.68-.29.82-.1-.33-.1-.53-.03-.89-.27-.19-.15-.52-.26-.82-.16.15-.1.48-.27.61-.13-.08-.05-.4-.23-.43.23.77-.23,1.75.3,2.29-.35.2-.04.92-.47,1.1.06.23.03.51.04.77-.07.16-.27.17-.35.31.07.37.48.64.74.4-.03.23.04.34.1.45.27-.13.65-.31.62-.64ZM85.3,78.37c-.09-.17.15-.22.21-.36.02-.34.07-.65-.08-.9.19-.19.08-.37.16-.61.05-.2.32-.34.34-.52.02-.23-.26-.43-.27-.67-.04-.35.18-.58.15-.95.1.29-.05,1.04.37,1.13.16.6-.54,1.13-.06,1.68-.04.15-.17.19-.24.32.11.58-.33.8-.57.89Z"/>
                <path class="cls-9" d="M63.94,76.37c.05-.22-.11-.44.05-.54.4.08.39.57.66.77.07-.3-.03-.78.28-.85.11-.01.04.15.17.11.06-.22.21-.34.43-.41.14.02.19.11.33.14.08-.2.25-.33.34-.54-.03-.09-.14-.11-.1-.26.12-.07.3-.01.42.05.06-.31.26-.49.6-.51v-.31s.16-.02.22-.07c-.07-.38.17-.46.44-.49,0-.12-.06-.2-.02-.36.12-.03.23.06.29,0,.15-.25.03-.56-.17-.67-.16.06-.28.17-.49.18.1-.18.27-.29.39-.48-.12-.07-.06-.34-.02-.48-.24-.07-.46-.17-.49-.45.12-.14.36-.15.57-.19h0c.13-.04.36.06.47.09.11.01.32.03.32.03.15.13.32.26.43.44.43.05.65-.15.92-.28.09.09.1.27.31.25-.05-.33.09-.52.24-.7.16-.2.34-.13.52-.13s.32.17.32.17h0s.09.1.15.11c.09-.05.3-.14.41-.05.03.16-.03.22-.04.35.33.16.01.77.33.92-.09.03-.18.09-.26.14.11.25,0,.5,0,.79.22-.19.42-.39.63-.61.04-.1-.06-.27,0-.28.09.07.06.22.23.18.09-.27-.04-.43-.11-.67.18-.15.28-.39.38-.63.08.05.15-.11.19,0-.18.35-.18.81-.08,1.26-.03-.39.3-.68.38-.97h.01l.16.26h0c0,.35.16.82-.06,1.08-.24.05-.32-.24-.53-.08-.01-.16-.11-.23-.28-.23,0,.15.04.24.02.42-.08.04-.23.04-.21.18.04.15.3.24.14.48-.1-.04-.14-.04-.26,0-.19.53.4.72.66,1.03-.12.52.31.52.59.67.07.24.2.39.48.4.01-.23-.19-.22-.22-.4.35-.31-.14-.72.04-1.18-.14-.07-.3-.11-.25-.34.11-.01.16.09.25,0-.07-.31-.13-.42-.19-.7.16.01.2-.1.27-.17-.05-.08-.22,0-.22-.14.2-.1.12-.48.18-.74.08-.08.79.41,1.02.51.26.12.64.27.64.27h0c.16.22.35.41.56.45-.14-.14-.16-.36-.22-.56.14-.09.22-.23.32-.34.25-.01.56.03.75-.03.02.15.17.14.17.3-.15.03-.47-.09-.47.11.29.26.82.31,1.15.52.02.13.03.24.14.3.05-.28.03-.43.07-.72,0-.13-.19-.08-.22-.18.03-.03.13-.03.19-.08-.13-.31.24-.44,0-.59.14-.14.33-.23.55-.25.2.01.36.22.52.18.16-.03.32,0,.35,0,.2.1.28.31.56.34.07.09.13.19.18.32.16.05.14-.09.29-.07-.07.31-.11.65-.34.81-.05-.07-.1-.16-.18-.21-.11-.01-.18.03-.25.07.17.15.17.49.48.52.04.19-.07.3,0,.43-.12-.01-.15.06-.23.09,0-.13-.03-.22-.06-.31-.27-.1-.63-.1-.74-.36-.16.42.3.52.21.99.05.16.32.09.26.34-.19.02-.2-.14-.33-.15-.03.47.49.59.26,1.07.15.02.24-.01.3-.08v-.36c.16-.02.19-.18.34-.22.39.18,0,.52-.18.66,0,.49-.23,1.07-.48,1.42.04.15.09.32.07.54.19.09.33.25.63.22.06-.07.06-.2.18-.25.15,0,.29.05.49.03.07-.07.09-.2.16-.26.48.27.87-.17,1.29-.03-.06-.11-.25-.43-.18-.7-.19.1-.14.66-.52.46.11-.24.14-.55.31-.75.09.05.1.08.2.03.07-.19.09-.53.29-.65.11.04,0,.28.15.28.19-.4-.07-.98.09-1.18.23,0,.14.22.19.34.26.02.18-.32.39-.34-.06-.11-.2-.15-.25-.28.6-.5.65-1.53,1.24-2.04.08.03.13.1.27.11.02-.07.05-.12.07-.18h0c.15-.25.74-.26,1.05-.19.3.07.93.23,1.28.26.35.03.94.22.97.24.08.06.16.12.2.2.04.19-.14.3-.07.41.06.08.26-.01.32.08.15.65-.31,1-.25,1.7.2.18.11.58.1.92.22,0,.21-.22.22-.41.46-.24.38-1.17.16-1.64.13-.16.26-.34.18-.69.09-.12.27-.15.3-.33-.1-.08-.18-.19-.26-.3h0c0-.11.16-.16.32-.09.18.07.48.26.74.17.27-.09.51-.31.7.17.2.48.79.56.81.56.12.11.22.23.3.38.04-.07.04-.18.07-.26.16-.08.18,0,.31.07.13.06.44.32.44.32.03.06.05.14.05.2-.05.21-.42.09-.52.22.22.06.5.04.74.08.39.43.9.73,1.52.92.04-.18-.11-.15-.07-.33-.54-.03-.68-.49-1.23-.52-.07-.11-.27-.22-.13-.43.4.03.66.41,1.19.22-.62-.22-1.13-.57-1.73-.77-.19-.07-.33-.2-.33-.2h0c-.16-.23-.44-.31-.73-.2h0c-.27,0-.37-.58-.54-.76-.18-.16-.55-.27-.55-.27-.36.13-.86.09-1.18.14-.28,0-.4-.03-.4-.03h-.01c-.1-.15-.2-.27-.37-.34-.22.19-.35.44-.81.37-.34-.03-1.24-.15-1.63-.28-.43-.15-.91.04-.91.04-.59.3-1.67.06-2.46.21-.16,0-.18-.07-.18-.07-.03-.17-.1-.28-.14-.44-.35,0-.81.07-.93-.26-.59-.13-1.03.03-1.3.33-.2,0-.23-.17-.37-.22-.05.05-.14.05-.19.09h-.01c-.16.08-.34-.06-.34-.06-.36-.37-.52-.14-.92-.08-.11.02-.26-.02-.37,0-.27.07-.65.39-1.03.49-.32.08-.46.1-.63.24h-.64c-.74-.15-1.13-.51-1.13-.51-.2-.15-.34-.32-.63-.36-.14-.1-.19-.23-.19-.23-.03-.19-.9-.66-1.15-.66-.2-.01-.38.16-.56.15-.34-.02-.48-.31-.74-.19-.2.02-.41,0-.41,0-.21.03-.37.1-.56.16-.04.35-.44.36-.69.55-.31-.11-.72-.31-1.04-.26-.27-.01-.38-.07-.38-.07-.52.01-1-.22-1.31-.3-.14-.15-.32-.19-.32-.19-.14.08-.32.13-.51.19-.11.4-.6.32-.93.48-.45.22-.71.65-1.11.84.79,0,.85-.74,1.77-.61.27-.16.5-.4.66-.62.01-.03.05-.06.07-.09h0c.09-.07.18.1.27.13.08.01.23.19.23.19.06.24.08.51.3.68-.44.3.05,1.06-.31,1.53-.11,0-.18.08-.32.07-.09-.36.15-.54.1-.75-.16,0-.19.11-.34.11-.23-.37,0-1,.45-.89-.02-.11-.02-.25-.19-.26-.43.23-.8.72-.57,1.34.08.23.33.28.32.48,0,.15-.19.36-.36.3-.05-.12-.03-.29-.03-.45-.19.01-.26.27-.35.45-.16.31-.36.54-.3,1.03.04.08.2.06.2.18-.24.3-.57.3-.73.67-.05-.06-.14-.06-.19,0-.09.03.03.25-.09.3-.47-.08-.19-.22-.06-.41.04-.06-.01-.13.04-.22.14-.28.59-.54.66-.64-.02-.28.02-.49.08-.7-.49-.35-.15-1.14.14-1.48-.93.06-.88,1.4-.56,2-.17.42-.56.65-.85.97-.03-.44.32-.47.19-.88.26-.26.39-1.11.1-1.41.07-.1.16-.16.13-.34-.05-.15-.24-.15-.42-.18-.01.14.13.09.12.23-.26.43.2.76.17,1.22-.32.22-.35.73-.65.97.09.4-.08.75-.11,1.15.15.14.32.28.48.4ZM88.62,75.2c-.22-.01-.05-.53,0-.72.05,0,.06.01.06.04.02.26-.1.39-.06.67ZM83.8,72.68c-.02.1-.1.15-.11.26-.09-.06-.03-.32.11-.26ZM83.64,73.41c.1.25-.24.68-.39.94-.23-.4.31-.41.23-.86.07-.01.13-.02.16-.08ZM81.37,71.93c.16-.03.56-.1.6.09-.03.36-.21.54-.15.95.15,0,.11-.19.11-.33.11.01.14-.06.22-.08.02-.14.07-.24.06-.41.07.08.18.22.32.26.16.03.34.08.36.08.01.02.05.03.05.07-.04.12-.11.17-.11.31.22-.02.38-.43.61-.19.01.45-.22.64-.24,1.03-.13.02-.22.1-.31.15-.03.17.1.26,0,.37-.36-.26.27-1.14-.32-1.3.15.38-.1.77-.1,1.23.03.14.23.11.23.28-.06.2,0,.51-.14.64.05.11.22.27.14.4-.11-.05-.09-.22-.23-.22-.11.11-.19.23-.35.3-.19-.35-.4-.69-.56-1.08.13-.01.18-.09.26-.17-.06-.34-.03-.86-.11-1.05-.29.18-.18.77-.56.85-.13-.03-.17-.15-.3-.17.04.59.2,1.1.52,1.4v.29c.11.18.31.26.45.41.05.28-.06.42-.18.53-.04.24.07.42-.05.59-.23-.21-.63-.26-.9-.41-.19-.36-.25-.56-.22-1.01.13-.03.2-.13.31-.18.14.11.18.33.4.37.03-.14.03-.36.03-.6-.46-.25-.43-.77-.85-1.1.09,0,.13-.01.15-.03-.05-.37.31-.64.05-.9.1-.1.36-.06.44-.18-.11-.37.11-.43.22-.64,0-.11-.23-.11-.15-.22.15.07.33.11.39.25-.51.03-.24,1.02.14.61-.04-.12-.27-.06-.23-.26.52-.33.14-.84-.41-.91-.11,0-.05.2-.18.19-.05-.19-.37-.09-.48-.23.23-.23.84-.32,1.07,0ZM78.04,71.93c-.09.1-.05.32-.1.45-.15-.02-.21.03-.36.03,0-.09-.05-.11-.1-.15.33.02.27-.34.56-.34ZM73.49,73.82c.17-.05.16.1.2.23-.16.01-.22-.07-.2-.23ZM73.82,74.93c-.13-.03-.09-.25-.29-.22v-.33c.02-.07.18.01.18-.07.12.1.18.43.11.61ZM72.46,71.56c-.02.11.06.32-.05.36-.13-.01-.11-.2-.11-.36h.16ZM67.32,71.79c.13.03.11.2.11.36-.19,0-.26-.27-.11-.36Z"/>
                <path class="cls-9" d="M83.78,79.96c-.07-.37-.39-.51-.34-1.03-.32-.22-.48-.6-.61-1-.08.07-.08.21-.16.26-.18-.06-.25-.26-.44-.34-.06.32.28.46.16.86.18.03.05-.25.2-.23.18.09.4.11.35.41.06.05.26-.06.29.11-.03.23.08.35.11.52-.08-.06-.2-.18-.3-.08.04.24.31.25.47.37,0,.42.46.56.45.84-.39-.08-.53-.45-.88-.6-.06-.16.05-.52-.19-.58,0,.42-.72.72-1.02.38.03-.51.82-.26.99-.64-.21.01-.5-.03-.65.03-.22-.1-.31-.31-.53-.36.07-.06.13-.12.22-.18.06.13.23.3.38.22-.07-.33-.48-.65-.53-1.11-.36-.06-.4.25-.74.11-.24.09-.32.39-.64.44-.42.09-1.03-.2-1.18.31.23,0,.72,0,.93.03-.3-.03-.37.37-.6.54-.13.1-.45.1-.64.23-.06.07-.09.17-.14.22-.27.3-.83.07-1.18-.14-.26.17-.47.37-.93.26.12-.13.27-.23.3-.44.17-.04.43.01.39-.24-.18-.07-.46.05-.66.08,0,.24-.16.34-.36.37,0-.07.16-.32,0-.3-.13.12-.18.3-.3.4-.02-.11-.2-.07-.26-.17.16-.15.37-.27.37-.57-.27.24-.57.43-.84.68.08.18.27.28.56.28.3.78-.67.81-1.27.93-.13-.1-.29-.2-.35-.37.27-.23.7.16.91-.03-.13-.13-.62-.39-.31-.59.19.06.15.39.44.37.11-.25-.12-.44-.26-.53-.1-.07-.06-.31-.23-.32-.07.25-.28.52-.27.73-.44,0-.87.33-1.18-.05.68.08.95-.27,1.15-.68-.4.04-.44.44-.96.36-.05-.19-.19-.28-.26-.44.48-.72-.75-.75-.64-1.57.11-.06.2-.16.27-.28-.3.06-.59.14-.9.18.09.22.33.24.37.49-.53.1-.8-.17-.87-.49-.34.06-.64.17-.9-.03-.39.74-1.45.81-2.11,1.29-.1-.1-.2-.3-.13-.44.13,0,.21-.06.32-.08.03-.48.26-.75.43-1.1.26.06.23-.2.43-.23.33.14.68-.05.78-.26.02-.24-.05-.41,0-.58-.09-.14-.32-.11-.45-.19.22-.56-.24-.86.05-1.26.06.08.04.25.17.27.05-.32.2-.5.34-.7-.27-.24.04-.81-.39-.9-.03.07-.03.19-.09.23-.19-.01-.3-.07-.45.03-.04.81.08,1.65-.1,2.12-.08-.02-.08.03-.16.03-.12-.25.15-.35.12-.59-.07-.15-.24.01-.33-.08-.06-.23.21-.28.1-.44-.39.15-.48.58-.55,1.03-.62.23.06.97-.32,1.42-.05.16.1.17.06.32-.26.03-.3.29-.29.64-.26.14-.49.26-.57.56.14.22.59.16.73.41-.07.14-.03.31,0,.48-.13.09-.35.09-.42.22.49-.06.87.13,1.19.41.61-.14.9.67,1.6.33-.2-.16-.43-.08-.63-.22-.13-.07-.15-.27-.26-.34-.28-.16-.69,0-.93-.28.2-.02.28.06.49.02.26-.68.79-1.25,1.39-1.46.08-.03.26-.08.37-.08.48.01.61.34.94.4.39.09,1.12-.18,1.15.49-.26.12-.76.04-.96.21.28.13.49.33.92.31.03.11.12.17.14.3-.4.19-.76.47-1.03.81.56-.15,1.15-.15,1.79-.03.26.16.35.44.66.48.35.05.95-.32,1.4-.18.46-.41.96-.78,1.7-.93.12.15.25.25.33.42-.5.67-1.48.87-2.3,1.25,1-.02,1.79-.24,2.48-.56-.04-.03-.2,0-.26-.07.23-.15.31-.45.69-.49.09-.26.31-.44.55-.59.14.08.39.05.56.1-.19.23-.46.39-.61.64.44.02.65-.47,1.01-.56.29-.06.5.11.66.11.32.03.58-.28.93-.15-.02.17-.36.18-.25.34.89-.43,1.82-.11,2.24.44.28-.03.66.05.88-.03-.14-.41-.59-.52-.77-.9ZM69.08,79.3c-.16.02-.2-.07-.37-.05.09-.21.37-.25.52-.4.18.07-.09.33-.15.44ZM76.27,80.38c-.09-.05-.09-.14-.09-.27h.41c-.06.14-.3.12-.32.27ZM79.11,79.7c.17-.14.49-.11.56.13-.2-.03-.4-.06-.56-.13ZM81.74,78.48c-.18.12-.32.31-.52.41.07-.36.27-.86.52-.41ZM81.15,78.26c-.02.1-.06.18-.1.25-.2-.01-.31.07-.42.16-.04-.19.31-.45.52-.41ZM80.33,79.86c.22-.39.88-.3,1.12-.67.15.03.33.02.43.11-.2.5-.94.78-1.55.56Z"/>
              </g>
              <g>
                <path class="cls-9" d="M92.71,40.62c-.31-.2-.63-.1-.97,0,.28-.4.9-.46,1.51-.53.04.06.03.19.13.2-.07.09-.84-.18-.66.34Z"/>
                <path class="cls-9" d="M92.92,39.17c.43.07.61-.09.86-.2-.07.12-.11.29-.26.34.07.33.47.6.9.38-.23.24-.2.45,0,.73.1-.06.05-.31.19-.34.32.14.18.78.33,1.05-.45-.26-.8-.6-.98-1.11-.23-.18-.53-.28-.58-.65-.5.2-.68-.79-.46-.19Z"/>
                <path class="cls-9" d="M92.46,69.44c-.03.56-.45.74-.93.86-.02.45-.02.91-.52.9.41-.47.1-1.16-.32-1.36.16-.19.55.1.83.07.44-.03.57-.4.93-.47Z"/>
                <path class="cls-9" d="M88.02,70.12c-.47.03-.22.75-.72.72-.26-.37-1.07-.88-.53-1.43.22-.03.29.04.45.06-.06-.72-.99-.53-1.24-.13-.9-.28-1.58.69-1.19,1.5-.26.27-.76,1.13-.19,1.44,0-.42.14-.69.4-.84.37.08.72.18.91.44.07-.54-.43-.52-.47-.96.31-.81,1.75-.51,1.37.65.64-.41,1.57.16,1.9-.19-.58-.06-.73-.79-.7-1.24ZM85.86,70.12c-.29.07-.53.18-.65.39-.27-.31.14-.89.65-.84v.45Z"/>
                <path class="cls-9" d="M88.02,68.16c-.58-.43-.96.08-1.32.39-.35-.83,1.16-1.24,1.32-.39Z"/>
                <path class="cls-9" d="M102.22,59.52c.62.16.52,1.13-.16,1.18.23-.24.3-.8.16-1.18Z"/>
                <path class="cls-9" d="M99.08,58.8c-.33-.08-1.05-.57-1.58-.13-.13-.9,1.84-.78,1.58.13Z"/>
                <path class="cls-9" d="M93.25,53.24c.15.05.18.19.27.32.28.07.39-.08.57-.13-.03.23.16.23.26.33-.23.19-.73.31-1.05-.07-.26.04-.33.3-.39.52-.2-.24-.54-.36-.73-.66.38-.07.99.15,1.07-.32Z"/>
                <path class="cls-9" d="M94.09,52.85c.27.14.55.09.79.12-.27.08-.19.48-.47.53.02-.33-.31-.33-.33-.66Z"/>
                <path class="cls-9" d="M89.52,52.85c.27.09.27.44.65.4.16,0,.03-.24.08-.33.39.06.52.38.93.47-.38.23-1.7.28-1.65-.53Z"/>
                <path class="cls-9" d="M92.71,51.87c.33.3.85.41,1.06.84-.41-.08-.69.02-1.06-.06,0-.38-.06-.45,0-.78Z"/>
                <path class="cls-9" d="M107.24,50.3c.04.22.17.59-.07.73-.18-.06-.12-.36-.46-.28.08.28.06.44-.26.46-.52-.48.44-.7.26-1.43-.2.53-.86.73-1.5.65.15.23.49.25.78.32-.09.83.76.72.93,1.26-.09.42-1.31.49-1.45.05.09-.38.04-.85-.26-1.03.05.55-.11,1.2-.99,1.03.07.56,1.12.25,1.19.79.03.31-.2.47-.66.53,0-.27-.13-.4-.4-.41,0,.29.23.41.08.66-.45.17-1,.02-1.32-.13-.25.44-.6.78-.97,1.11-.67-.15.09-.61-.27-1.06.1-.01.1-.09.18-.13.16.05.3.24.41.13.12-.09-.11-.27.12-.32h.53c.1-.42.55-.48.81-.72-.32,0-.64-.09-.93-.27-.05.89-1.22.59-1.3-.06.07-.35.26-.61.36-.93-.52-.12-.33-.71-.18-1.1-.34.13-.59.35-1.1.32-.32-.28-.12-.93-.27-1.25-.1.09-.08.31-.18.39-.13-.04-.29-.4-.48-.19.37.19.48.7.27,1.12.24,0,.52.5.2.64-.1-.23-.26-.39-.4-.57-.62-.02-1.14-1.07-1.71-.33.19.08.29-.05.6,0,.09.16.15.35.12.65.23-.06.42-.16.65-.21.45.32.29.78-.05.93-.43.15-.64-.39-.85-.14.8.38,1.24,1.15,1.75,1.84,0,.18-.16.22-.2.39.43,0,.59-.26.8-.45.52.3.5,1.15.66,1.83-.73.18-.46-.6-.79-.79-.43.56-.06,1.42.84,1.24-.02.36.18.48.27.73-.14.29-.49.37-.85.45-.24-.14-.3-.4-.52-.52-.27.47.28.7.52.9-.59.18-.82.2-1.64.27-.22-.26-1.06-.57-1.25-.07.66-.14,1.12.38,1.3.93.05-.23.18-.36.4-.39.19.1.41.15.47.39.32-.02.35-.3.78-.2.02.09.11.11.14.2,0,.18-.24.27-.06.46.43-.27.65-.38,1.38-.4.11.13.07.4.25.46.3-.31-.06-.66-.19-.91.13-.11.13-.37.26-.47.59-.07.99-.31.97-.98.47-.11.74-.41.92-.79.59-.15.97-.48.86-1.31,1.1-.02,1.01-.96,1.18-1.82.3-.16.49-.41.45-.91.61-.18.35-1.15-.14-1.31ZM101.1,52.58c-.65.14-1.14-.01-1.17-.52-.06-.9,1.48-.73,1.17.52ZM101.81,58.08c.15-.26.2-.73,0-.98.15-.06.25-.14.48-.14.1.46.04,1.1-.48,1.12Z"/>
                <path class="cls-9" d="M92.14,50.89c.26.2.64.31,1.17.26-.19.53-1.25.39-1.17-.26Z"/>
                <path class="cls-9" d="M103.78,49.24h.18c-.03.67.74.68,1.19.66-.68.44-1.42.8-1.57,1.77-.32-.25-.78-.1-.91.19-.24-.08-.24-.39-.27-.66.16.02.24,0,.32-.06.02-.37,0-.7-.06-.98.37.04.16.65.57.64.22-.11-.1-.41.07-.51.28,0,.36.2.6.26.14-.05.12-.25.18-.39-.09-.31-.39-.43-.32-.92Z"/>
                <path class="cls-9" d="M102.02,47.73c.34.08.09.75.57.67.28.03.27-.21.53-.2.02.57-1.01.85-1.1.2-.37.09-.43.77-.92.39.05-.25.2.03.33-.12.06-.27-.31-.09-.26-.34.48,0,.76-.18.85-.6Z"/>
                <path class="cls-9" d="M107.59,48.6c-.23-.34-.21-.91-.74-.92.55-.52,1.28.52.74.92Z"/>
                <path class="cls-9" d="M105.87,48.07c-.19-.28-.51-.4-.8-.59.4-.18.88.09.8.59Z"/>
                <path class="cls-9" d="M88.21,45.92c-.17-.24-.43-.4-.78-.47.21-.31.98-.08.78.47Z"/>
                <path class="cls-9" d="M105.87,45.86c-.37-.15-.51-.52-.99-.53-.26-.01-.28.18-.39.34-.21-.32-.63-.41-1.11-.47.72-.43,2.39-.38,2.49.66Z"/>
                <path class="cls-9" d="M102.15,45.86c-.22-.2-.61-.19-.72-.47.11-.13-.04-.34-.07-.53-.24.2-.25.61-.71.59-.26-.01-.3-.24-.53-.26-.06.43-.4.55-.85.58-.44-.54-1.68-.1-2.24-.58.15-.28-.01-.53,0-.85-.28.39-.32,1.02-1.04.98-.18-.01-.07-.31-.34-.26-.17.06-.11.36-.45.26-.25-.01-.25-.27-.39-.4-.25.16-.53.26-.99.2-.05-.21-.24-.27-.18-.59.49-.12-.07-1.02.54-1.11.26-.01.26.24.52.26.25-.36.78-.23,1.23-.13-.25-.42.19-.49.25-.91-.36.04-.33.28-.63.27-.64-.04-.35-.68-.74-1-.1.11-.05.39-.06.59-.33.29-.67.35-1.23.27,0,.26.2.32.05.58-.36.02-.37.04-.65-.07-.69,1.18-2.67-.78-3.66.27-.36-.17-.47-.57-.53-1.05.45-.45,1.22-.58,1.71-.98-.22-.04-.43-.1-.34-.46-.16-.08-.69.35-.84-.07-.01-.16.1-.19.14-.31-.42.06-.72.08-.99-.14-.09.2,0,.21,0,.45-.16.09-.34.18-.52.28-.07-.14-.26-.15-.33-.28-.06-.43.13-.62.2-.91-.62-.1-.45,1.27-1.32.79.06.37.3.51.09.86.27.09.5.23.52.57.66.12.91.63,1.03,1.25.19.2.26-.18.39,0,.06.24.18.42.22.72-.45.65-.99-.2-1.25-.53-.26.41.38.87.64,1.18.61-.14.98.18,1.51,0,.11-.1-.06-.28,0-.52.15-.27.57-.06.67-.26-.2-.22-.7-.04-.81-.07.48-1.05,2.28-.25,2.03.99-.07.11-.39.04-.39.26.48.1.98.52.53.98h-.32c-.19-.06-.27-.26-.34-.44-.76.35-1-.57-1.37-.61-.08.14.11.7-.14.86.14.1.38.07.48.19.17.76.76,1.11.85,1.96-.09,0-.07.12-.13.14-.56-.03-.8.03-1.12-.2-.2-.44-.02-.84,0-1.37-.19-.18-.34-.4-.52-.59-.09.19-.19.38-.27.59.24.11.49-.19.59.2-.16.23-.42.39-.78.26-.18.16.08.25.14.39-.15.08-.34.1-.34.32.59.2,1.18.77,1.98.86.48.07,1.22-.18,1.15.65.36-.21,1.35-.19,1.24.59-.1.13-.18.28-.44.27-.17-.06-.24-.23-.21-.47-.66.67.68,1.15.99.47.14.15.57.04.47.44.55-.18,1.13.06,1.18.59-.27.13-.69.11-.73.47.35,0,.56-.15.93-.12.22.12.27.47.57.51.24-.16-.18-.47,0-.58.56.06.57.64.46,1.17.44-.21.97-.32,1.44-.46.05-.37-.31-.41-.14-.72.41.16.9.02.93-.4-.58.29-1.29.02-.98-.71.19-.16.6-.1.65-.39-.72.04-.82-1.43-1.57-.73.2-.04.3.05.45.07.13.26.15.59-.07.79-.13-.24-.33-.05-.59-.07-.14-.26-.13-.65-.47-.72-.11.1-.05.34-.05.52-.21.24-1.03.44-1.19,0,.29-.08.57-.17.53-.58-.27.02-.27.31-.6.26-.72-.08-.51-.93-.19-1.3-.44-.03-.43.4-.91.33-.38-.09-.18-.74-.34-1.06-.41.18-.28.74-.84.65-.2-.03-.48-.34-.47-.71.47-.27,1.65-1.23,1.9-.14.47-.08.85-.19,1.04.19-.11.06-.19.31,0,.32.24-.42,1.31-.4,1.69-.12,1.06-.61,2.11,1.17.59,1.06-.17-.1-.14-.37-.38-.4.05,1.01,1.38.61,1.82.26.75.04,1.39-.53,2.23-.06-.16-.32-.35-.43-.06-.74-.14-.07-.33-.09-.32-.32.11-.31.44-.42.59-.72.31.07.42.07.65.13.16-.22-.26-.32-.12-.72.19-.33.56-.44.98-.51ZM93.44,49.44c.16.19.38.33.47.58-.19.08-.46.07-.72.07.03-.27.07-.55.25-.66ZM92.14,45.86c-.08-.25-.24-.39-.2-.73.16-.1.27-.24.59-.2.14.41-.02.84-.39.93ZM94.36,46.11c-.16.01-.13.22-.13.39-.43,0-.82-.19-.85-.45-.07-.65.96-.48,1.43-.18.14.52.64,1.01,1.25.84-.47.76-1.69.22-1.7-.59ZM96.76,46.04c-.41.32-1.26.35-1.49-.18.18-.62.89,0,1.44-.27-.06.22.09.26.05.46ZM96.98,46.3c.25-.26.69-.64,1.18-.44.05.57-.72.6-1.18.44Z"/>
                <path class="cls-9" d="M97.7,43.24c.07.43-.4.35-.47.65-.22-.04-.28-.23-.47-.32-.19.03-.22.19-.5.13.05-.19.28-.23.39-.39.37.38.76-.17,1.04-.06Z"/>
                <path class="cls-9" d="M90.64,42.44c-.03.34-.41.34-.58.52-.26-.05-.34-.27-.53-.39.17-.2.74,0,1.12-.14Z"/>
                <path class="cls-9" d="M100.5,41.85c.93.36,1.91.98,1.97,1.97-.36-.26-.36-.88-.98-.9-.2.11-.28.38-.53.51-.19-.15.43-.81,0-1.19-.02-.24-.48-.07-.45-.39Z"/>
                <path class="cls-9" d="M99.21,41.74c.3.1-.02.43-.07.57.11.38.39.58.72.73-.44,0-.49.4-.77.57.07-.53-.31-1.43-.91-1.04-.03-.27-.29-.34-.52-.39.31-.36,1.32.31,1.57-.45Z"/>
                <path class="cls-9" d="M91.88,52c-.97.15-1.09-.49-1.64-.73.45-.17,1.21.07,1.23-.64-.26-.06-.15.26-.39.26-.43,0-.47-.37-.76-.47-.1.23.13.47,0,.53-.31-.05-.43-.13-.61-.14-.4-.64.3-.93.45-1.44-.59.09-.66-.31-.98-.51-.17.11-.09.47-.12.51-.44-.36-1.1-.46-1.24-1.11-.6.18-1.24-.02-1.24-.64-.19-.01-.14.22-.4.11-.3-.82.89-.7,1.18-1.18-.45-.1-.99-.14-1.03-.64-.45.04-.8-.01-.86-.4.07-.24.22-.39.26-.66-.56.01-.7.76-.39,1.12-.28.48-1.06.18-1.29-.13-.19.02-.1.33-.4.25-.19-.03-.19-.25-.27-.4.13-.25.38-.41.52-.64.32-.04.41.16.72.13-.39-1.1,1.64-1.27,1.51-.07.16.14.82.38.91,0-1.16.06-.68-1.01-.21-1.37.34-.04.6-.19.6-.58-.22.13-.63.54-.91.19.06-.22.6-.3.39-.58-.13.23-1.05.48-1.1,0-.09-.39.32-.3.26-.66-.39-.11-.91-.03-.85-.59-.35.03-.78.19-.86-.19-.31.03-.37.33-.79.26.1.31.08.61-.26.64-.24.06-.24-.14-.46-.13-.1.22-.46.19-.58.39.33.02,1.05.24.65.59-.12-.06-.1-.26-.34-.18-.12.05-.02.35-.18.38-.27-.21-.35-.59-.66-.72-.1.23-.23.45-.59.47-.1-.05-.17-.11-.21-.19.02-.98.82-.99,1.46-1.19-.03.17.12.17.24.19.61-.23.59-1.11,1.13-1.43.16-.02-.06.31.18.2.18-.38.66-.55,1.06-.53.11-.23-.35-.37-.53-.52v.4c-.17.08-.33.15-.53.19-.2.01-.09-.34-.31-.32-.19-.02-.06.24-.27.18-.36-.1-.23-.39-.07-.58-.41.13-.57.08-1.04.13-.14-.08-.17-.27-.33-.32-.07.36.38.61.19,1.18.43.02.26-.53.66-.53.13.22.27.37.39.59,0,.49-.49.4-.77.27-.09.31.19.28.12.6-.65-.04-.76-.91-.65-1.32-.27-.18-.23.34-.53.34-.13-.15-.29-.45-.13-.67-.55.22-.09.98.13,1.18-.2.17-.43-.05-.66-.06-.58.75.15,1.49-.05,2.15.12.12.15.32.31.4-.15.02-.28.07-.31.2.26.11.62-.07.79.26-.05.12.06.4-.08.4-.23-.15-.59.03-.78.14-.05-.35-.69-.11-.87-.33.18.34.54.86.94.78.26-1.05,1.74.51.44.27-.16.64,1.13.05,1.06.71-.27.05-.35.32-.65.33-.21-.08-.36-.2-.46-.4-.26.03-.24.29-.6.2-.06-.3-.09-.56-.37-.72-.5.6.06,1.4.79,1.57-.01.56.65.62,1.1.53.12.44,1.11.51,1.44.19.02.44.29.63.78.59-.03.94,1.2,1.06,1.7.72-.29.77-.1,1.61,1.05,1.58.24.01.49,0,.65-.07-.03.19.07.22.07.39-.68.05-.56,1.36,0,1.44-.07.47.24.56.32.85-.48.97.68,1.37,1.45,1.51-.23-.34-.58-.6-.26-1.04-.37.15-.46.31-.79.39-.19-.17-.37-.59-.06-.78.26.01.41.14.58-.07-.06-.18-.26-.56-.07-.77.15.01.11.23.33.19.11-.1.1-.33.31-.33.28.33.48-.07.81-.05.14.62.76.01,1.1.45,0,.37.08.63.45.58-.26-.35-.18-.75.08-1.03ZM86.39,43.56c.03.37-.17.49-.46.52-.16-.18-.3-.38-.27-.72.22.1.6.01.73.2ZM84.16,41.74c.19.08.26.29.26.57h-.34c-.11-.2-.14-.43.08-.57ZM81.6,43.43c0-.19.15-.19.14-.39.39.02.2.63-.14.39ZM83.89,47.14c-.31-.24.03-.68.4-.65.1.45-.22.5-.4.65ZM84.54,48.14c.05-.46.89-.56,1.11-.07-.03.86-1.15.63-1.11.07ZM85.71,47.09c-.96.03-.18-1.55.46-.53-.13.27-.19.53-.46.53Z"/>
                <path class="cls-9" d="M96.12,42.12c-.22-.19-.57-.3-.84-.27.18-.46,1.09-.17.84.27Z"/>
                <path class="cls-9" d="M92.85,41.41c-.11.15-.3.25-.44.39,0,.22.22.22.2.45-.36-.23-.83-.1-.86.34-.34-.26.09-.7.4-.73.15-.24.38-.61.7-.44Z"/>
                <path class="cls-9" d="M96.39,41.2c.29.21.45.56.91.59-.09.18-.4.14-.65.19-.02-.31-.34-.58-.26-.78Z"/>
                <path class="cls-9" d="M93.96,41.2c.16.14.39.44.32.59-.28-.03-.35-.24-.32-.59Z"/>
                <path class="cls-9" d="M91.02,40.48c-.02.25-.28.25-.2.59.01.08.13.05.13.14.37.05.39-.22.73-.2-.23.83-1.36.37-1.36-.31.31.19.31-.26.7-.21Z"/>
                <path class="cls-9" d="M97.64,40.36c.19.06.14.32.19.51-.28.04-.34-.36-.19-.51Z"/>
                <path class="cls-9" d="M95.16,40.02c.14.36.66.39,1.11.45-.16.27-.56.29-.99.27-.07-.19-.1-.46-.12-.72Z"/>
                <path class="cls-9" d="M96.65,39.88h.27c-.03.28.08.27,0,.48h-.53c.07-.18.35-.14.26-.48Z"/>
                <path class="cls-9" d="M90.9,39.5c.29.16.35.18.72.06.01.63-.93.34-.72-.06Z"/>
                <path class="cls-9" d="M90.16,39.31c.26.14-.03.6.16.91-.51,0-.78-.23-1.26-.06.31-.25-.23-.24-.19-.59.38-.01,1.12.35,1.29-.26Z"/>
                <path class="cls-9" d="M84.08,38.72c.35.15-.24.22-.12.59-.15-.02-.23.01-.26.13-.13-.11-.32-.43-.19-.59.27.2.39.06.57-.13Z"/>
                <path class="cls-9" d="M91.69,38.4c.2.28.45.15.77.07-.03.41-.83.42-.77-.07Z"/>
                <path class="cls-9" d="M98.35,37.4c.94-.18.76.89,1.11,1.45.92-.05,1.74.97,1.25,1.7-.03-1.03-.69-1.69-1.85-1.37-.02-.32.31-.27.21-.65-.1-.29-.43-.08-.6-.2-.03-.26.26-.18.46-.19.1-.5-.29-.56-.58-.73Z"/>
                <path class="cls-9" d="M88.07,37.73c-.24-.11-.26-.43-.64-.39.21-.29.69.02.64.39Z"/>
                <path class="cls-9" d="M86.17,38.52c.28-.42,1.44.4,1.52-.52-.53.15-1.28.25-1.26-.47-.23-.07-.12.23-.26.27-.23-.18-.81-.06-.9-.4-.21.16.14.41-.12.47-.22-.24-.56-.38-.86-.53.16-.1.35-.4.72-.66.04-.05.26-.01.31-.07.24-.19.1-.39.39-.45.26-.04.81.02.81.52.36.02.07-.6.25-.77-.55-.44-1.59-.06-1.9-.78-.17.17.09.33-.08.45-.19.03-.2-.11-.45-.05-.06.46-.66.76-1.11.44-.07.31.18.26.14.52.35-.08,1.03-.19,1.05.26-.1.02-.11.1-.2.14-.45-.32-.84.39-1.3,0-.16-.14.1-.2.06-.4-.48.01-.66-.14-1.19-.2v-.32c-.3.02-.39.3-.76.27-.18-.34.03-.59.19-.79-.85-.02-.47.98-.37,1.31-.39.07-.28-.33-.53-.39-.23.31.09.58.26.73-.07.12-.34.04-.33.25.14.1.47.28.66.12.26.34.29,1.12.26,1.44.36-.09.35.06.72.07.4-.24.79-1.04,1.37-.51.07-.91,1.57-1.03,1.7-.15-.37.05.13.43-.18.66.94-.23.57.87,1.05,1.11-.1-.52.37-.73.72-.45-.09-.54.47-.43.83-.53-.29-.75-.94.27-1.36,0-.11-.32.3-.32.14-.52-.33-.05-.66-.12-.59-.59.61-.15.53.35.64.52ZM83.12,37.8c-.41.05-.54-.16-.6-.46.18-.44.7.01.6.46Z"/>
                <path class="cls-9" d="M90.82,37.73c-.4-.37-.87-.98-1.57-.52-.17-.18.24-.32.46-.33.07-.6-.28-.76-.72-.85.88-.55.86.92,1.56.99.09.23.23.41.26.71Z"/>
                <path class="cls-9" d="M82.58,35.65c.27-.06.24.2.54.13,0,.41-.6.23-.54-.13Z"/>
                <path class="cls-9" d="M92.98,35.52c-.14.17-.42.18-.52.39-.06.31.07.45.14.65-.33-.08-.89-.13-1.06.12-.19-.26.18-.53.47-.52.18-.31.51-.85.98-.64Z"/>
                <path class="cls-9" d="M86.91,35.39c.4-.24.6.72.32.97.2.13.6.06.6.39-.2,0-.57-.18-.73,0-.29-.2-.14-.56.06-.72-.16-.12-.14-.47-.25-.65Z"/>
                <path class="cls-9" d="M83.42,34.59c.24.14.3.07.66.07-.07.27-.53.47-.84.32.16-.09.35-.14.18-.4Z"/>
                <path class="cls-9" d="M81.94,34.47c.19.16.13.6.33.78-.3.01-.34-.19-.48-.33-.02-.23.09-.32.15-.46Z"/>
                <path class="cls-9" d="M85.8,34.2c.27.06.23.47.51.52-.34.12-.8-.24-1.05-.45.13.11.46.08.53-.07Z"/>
                <path class="cls-9" d="M85.21,33.81c-.35-.02-.78.08-1.13.26-.07-.51.98-.72,1.13-.26Z"/>
                <path class="cls-9" d="M102.06,58.73c-.2.31-.57.52-1.02.26-.09.84-1.31.75-1.71.39-.35.41-.86.06-1.31,0,0,.17.02.37-.12.39h-.6c-.03-.15-.04-.34-.26-.33-.01.36-.92.68-.86,0,.35,0,.73-.26.54-.59-.33.01-.36.29-.8.2-.22-.06-.16-.4-.46-.4,0,.38.24.51.34.78-.58.35-.81-.23-.91-.72.33-.15.41-.59.77-.72.2,0,.34.07.4.2.35-.36.75.08,1.05-.26-.27-.19-.62-.26-.59-.73.53.19,1.19-.02,1.31-.45-.44.06-.91.38-1.31.26,0-.39-.03-.72-.41-.71,0,.27.2.35.15.71-.56.14-.48-.35-.72-.52-.62.37-.99-.49-.48-.73.27-.03.31.08.52.07.08-.34.27-.57.73-.52.2.22.4.53.86.32.27.65,1.48.13,1.51,1.12.31-.11.89.09,1.16-.19-.38-.11-.76-.24-.85-.66-.01-.31.33-.28.27-.66-.34.07-.52.27-.99.2-.44-.38.09-1.21.52-1.31.49-.1.93.53,1.37.26-.25-.22-.6-.34-.72-.72.02-.13.26.1.26-.14-.26-.07-.18-.52-.45-.59-.23-.02-.06.3-.2.34-.7.07-.49-.62-.39-1.06-.29.02-.53.1-.86.07-.05.31.45.11.45.38.03.4.12.72.31.92-.09.48-.65.73-1.23.53-.08-.11.03-.42-.19-.39-.2.39-.65.85-1.32.58.03-.15,0-.24-.06-.31-.26.44-1.01.31-1.32.13-.02.6.52.62.79.91-.25.33-.74.44-1.37.39-.28-.15-.28-.57-.53-.78-.09.42.14.56.14.9-.09.08-.24.07-.33.14v-.4c-.41-.01-.36.42-.73.45-.45-.51-1.52-.39-1.56-1.31.61.22,1.19.19,1.76.2-.14-.31-.67-.24-.65-.72-.28.46-.94.45-1.37.13-.05.13.19.22,0,.26-.5.11-.6-.19-.98-.19-.01.53.59.46.51.91-.07.59-1.11.54-1.57.19-.06.35.31.27.33.52-.1.17-.29.24-.59.2,0,.23.03.51-.13.59-.3.01-.33-.24-.52-.33-.27-.07-.2.19-.47.12-.16-.1-.28-.48-.13-.72-.74.32-.47,1.64.06,1.96-.27.85.1,1.72.27,2.43-.49.74-.55,1.56-.72,2.55-.59.34-.53,1.08,0,1.25.46.14,1.05-.3,1.18.25-.1.64-.73.66-1.23.39-.13.05,0,.32-.13.34-.03-.1-.17-.05-.2,0-.23-.11.12-.59-.14-.52-.15.07.05.51-.11.58.17.2.49.23.65.45.12.61.34,1.72,1.24,1.77,0,.08-.08.08-.06.2.19.09.56,0,.72.13-.36.35-.1.94.13,1.24-.09.34-.43.43-.85.45-.18-.03-.18-.45-.39-.27.12.66.53,1.05,1.31,1.05.09.02.15.09.13.2.41-.39,1.12-.48,1.32-1.11-.31.11-1.27.39-1.11-.32.32.03.45-.15.66-.26.52.64,1.05-.09,1.56-.15.57-.03.64.26,1.26.41.02-.16-.13-.14-.07-.33.3-.05.47-.22.52-.53-.39.43-1.4.35-1.16-.59.18-.11.57-.17.83-.05.05-.32.09-.7.4-.79.69-.17.82.73.92,1.37-.13.17-.41.21-.4.51.35-.21.82-.22,1.25-.06-.03-.22.47-.35.45-.78-1.49.98-1.39-1.65.47-.98-.18-.48.09-.98.66-.93.07-.28-.3-.08-.29-.32-.04-.47.59-.24.75-.54-.09-.14-.38-.06-.46-.19.17-.14.27-.37.57-.39.13.12.17.28.4.27-.15-.88.34-1.91,1.37-2.02.33.26.55.67.65,1.17-.11.13-.19.29-.46.26.03-.14.16-.19.13-.4-.31.15-.6.28-1.05.14-.1.36.29.21.27.45.06.59-.32.74-.78.78.07.22.36.21.38.47.01.55-.68.91-1.02.51.02.73-.35,1.07-.93,1.18.52.36,1.24-.01,1.19-.65.66-.06.98-.45,1.17-.99.95-.05.73-1.28,1.44-1.56.14.14.34.21.65.18.77-.52.49-1.68.78-2.61-.16-.1-.16-.36-.38-.4-.12.16.14.37.07.72-.12.07-.2.16-.33.2-.13-.09-.35-.09-.4-.25.23-.14.27-.71.15-.98.23-.1.32-.34.58-.39.31.02.29.45.57.52.27-.51-.49-.54-.31-1.18.49-.08,1-.14.89-.79ZM87.15,63.44c-.06-.01-.11.02-.12.07-.27-.03-.41-.2-.39-.53.14-.11.34-.16.57-.19,0,.22.06.53-.07.65ZM92.19,56.45c.27.14.57-.1.79.14.3-.06-.06-.32.14-.47.18-.12.66-.08.85,0,.16.5.79.52.73,1.24.22-.02.14-.36.32-.45.36-.11.24.29.53.25.01.49-.39.54-.53.86-.4.07-.55-.1-.84-.13-.05-.3.11-.4.18-.59-.51.19-1.02.25-1.24-.27-.33.27-.42.76-1.06.73-.29-.36.1-.73.08-1.18-.72-.05-1.31.64-1.7-.07.11-.73,2.03-1.26,1.75-.07ZM90.56,55.92c-.15.11-.3.27-.59.26-.16-.58.54-.78.59-.26ZM89.19,55.85c.28-.03.4.08.47.26-.07.29-.4.3-.47.6.13.03.56-.15.79-.2.07.7.21,1.35,1.05,1.31-.11.26-.26.44-.46.59-.3-.19-.95,0-.98-.45-.26-.06-.23.2-.52.13-.17-.41-.3-.85-.52-1.18.1-.45.56-.57.65-1.05ZM88.68,59.52c.38-.69,1.4-.23,2.09-.14-.06.8-1.9,1.05-2.09.14ZM90.77,60.24v.65h-.33c-.07-.35-.09-.65.33-.65ZM90.77,64.36c-.22.1-.49.13-.72.2-.16-.13-.32-.49-.13-.72.23.04.46.09.77.06-.04.2.12.23.07.46ZM89.52,63.05c-.05-.4.73-.71,1.18-.39.02.68-1.08.99-1.18.39ZM88.6,58.34c.27-.14.31.08.59.07-.03.22-.61.18-.59-.07ZM87.22,57.3c-.11-.1-.19-.24-.19-.46.13.12.5.06.66,0-.07.24-.15.46-.47.46ZM87.76,61.41c-.53-.31-.12-1.2.19-1.44.76-.02,1.28.7.98,1.32-.35.05-.53-.06-.64-.27-.26.05-.32.31-.53.39ZM88.68,65.67c-.31-.03-.31-.36-.61-.4-.19-.03-.2.15-.19.33-.41.03-.66-.12-.79-.39.19-.24.68-.16.79-.47.37.37.66-.06,1.12,0,.06-.27-.19-.26-.27-.39,0-.46.17-.76.59-.78-.1.74.26.95.52,1.31.43.06.71-.16.93.06.11.73-.98.75-.98.14-.36.11-.7.03-.92-.14-.33.11.1.58-.19.73ZM89.66,66.26c-.43,0-.48-.36-.6-.66.27.06.29-.12.52-.12.11.18-.06.52.08.78ZM88.87,68.21c-.12-.73.39-.71.65-.31.13.43-.41.46-.65.31ZM89.58,67.49s-.08-.04-.14-.06c-.28-.51.28-.94.73-.67-.01.09.02.13.08.14-.05.39-.24.58-.67.58ZM90.36,68.42c-.21-.11-.4-.2-.44-.46.54-1.19,1.66.08.44.46ZM89.98,65.8c.39.23.98-.35.98.32-.3.28-1.03.28-.98-.32ZM90.36,62.01c-.14-.26.02-.48.07-.72.36-.05.57.03.64.26-.09.29-.28.48-.72.45ZM95.59,64.36c-.17,0-.37.03-.44-.06,0-.11,0-.2-.09-.21.04-.27.39-.21.48-.44.21.02.13.57.05.71ZM95.59,63.05c-.15,0-.13.22-.13.39-.31.13-.67.18-.98,0-.26.13-.33.44-.84.33-.1-.22-.07-.57.06-.72.49.01.78-.18.91-.53-.34.01-1.15.37-1.24-.33-.2.02-.2.65,0,.66-.18.22-.42.38-.78.39-.17-.12-.09-.47-.27-.59-.23.16-.32.45-.79.39-.09-.16-.17-.32-.07-.53.67.06.87-.18,1.37,0,.11-.03.16-.1.2-.18-.16-.19-.53-.16-.72-.33-.06.37-.71.41-.9.14-.06-.23.09-.27.05-.46.73-.31,1.35-.16,2.05-.13.14.13.7.59.84.13-.29-.14-.65-.22-.79-.53-.38.31-.97-.08-.97-.58.16,0,.3.02.32-.14-.36-.15-.76-.25-.91-.58.06.63.4.66.4,1.3-.44.01-.75-.14-1.11-.18-.24-.33-.08-.8-.08-1.25.36.05.35-.27.33-.58.2-.23.52-.31.99-.27,0-.24-.2-.24-.35-.34.35-.8,1.85-.04,1.19.73-.4-.11-.92-.34-1.24,0,.39.11.86.15,1.11.45-.14.44.08.65.27.92.4-.14.55-.55,1.03-.6.44.29.06.94.2,1.37.82-.2,1.5.18,1.51.98.22.05.26-.12.39,0,.39,1.03-.72,1.55-1.06.65ZM100.5,63.11c-.05.24-.22.35-.44.4v-.4h.44Z"/>
              </g>
            </g>
            <path class="cls-10" d="M80.83,46.76c-.73-.16-1.29-.97-.79-1.57-.3-.36.07-.56.1-.57-.19-.17-.35-.41-.45-.61,0-1.06.94-1.06.94-1.06.2-.66-.53-1.4.05-2.15-.17-.52.28-.6.28-.6,0-.01,0-.02,0-.03-.04-.21.01-.4.24-.49-.48-.49-.06-.78-.06-.78.03-.32,0-1.11-.26-1.44-.19.16-.52-.02-.66-.12,0-.08.04-.11.1-.14h-.02c-.17-.27,0-.38,0-.38-.09-.13-.13-.29,0-.46,0-.45.36-.33.36-.33,0-.01,0-.02.01-.03,0-.3.1-.57.54-.55.1-.64.57-.52.57-.52-.02-.16.03-.25.09-.34v-5.35c-1.47-.17-2.95-.26-4.46-.26v43.02c.22-.11.43-.23.51-.24.13-.05.34-.01.53-.07.2-.06.46-.09.57,0,.13.08.24.16.47.11.22-.05.27-.01.4.07.13.08.2.1.4-.02.19-.11.61-.37,1.01-.16l.18.12.4.06v-24.56c-.45.08-1.04,0-1.03-.54Z"/>
          </g>
        </g>
      </g>
    </g>
  </g>
</svg>