<?xml version="1.0" encoding="UTF-8"?>
<svg id="_レイヤー_2" data-name="レイヤー 2" xmlns="http://www.w3.org/2000/svg" xmlns:xlink="http://www.w3.org/1999/xlink" viewBox="0 0 426.45 447.55">
  <defs>
    <style>
      .cls-1 {
        fill: none;
      }

      .cls-2 {
        fill: #221815;
      }

      .cls-3 {
        fill: #ffe100;
      }

      .cls-4 {
        fill: #ffd900;
      }

      .cls-5 {
        fill: #231815;
      }

      .cls-6 {
        fill: #fff;
      }

      .cls-7 {
        fill: #cf7b0e;
      }

      .cls-8 {
        fill: #d80c1e;
      }

      .cls-9 {
        clip-path: url(#clippath);
      }
    </style>
    <clipPath id="clippath">
      <path class="cls-1" d="M390.94,222.57c.07-12.49-5.34-22.53-15.6-29.03-.69-.44-1.39-.87-2.1-1.27-.77-.43-1.55-.85-2.34-1.22-11.64-5.67-23.69-4.48-34.15-2.53-5.83,1.33-9.45,2.5-11.74,3.46-1.46-1.46-3.03-2.84-4.74-4.07-.97-.67-6.37-4.22-14.15-5.76-.48-2.22-.98-3.97-1.26-4.88-.01-.05-.23-.79-.25-.84-1.29-3.88-4.26-11.63-9.68-19.89-6.8-10.34-15.02-17.72-24.49-21.96-15.15-6.65-29.01-3.93-42.64,8.55-6.19,6.4-11.53,14.18-15.87,23.1-.54,1.12-4.52,10.56-4.96,11.86-1.56,4.27-6.56,19.27-5.14,33.03.89,10.47,5.87,20.97,13,27.42.12.11.54.44.67.53,7.94,6.03,16.67,9.07,25.99,9.07,1.13,0,2.27-.05,3.42-.13,12.05-.93,21.23-4.61,21.51-4.72,1.18-.45,2.22-.93,3.33-1.4,3.32,4.59,7.6,8.48,12.65,11.05,6.29,3.17,11.23,4.29,15.81,4.29.67,0,1.31-.14,1.97-.18.25.54.51,1.09.92,1.73,9.83,18.53,24.19,24.87,33.25,24.48.58.03,1.17.05,1.76.05,15.78,0,33.72-11.18,44.46-28.18l.53-.88c3.53-5.77,8.87-14.5,9.85-31.66Z"/>
    </clipPath>
  </defs>
  <g id="_レイヤー_1-2" data-name="レイヤー 1">
    <g>
      <path class="cls-8" d="M426.45,230.04c0,117.76-84.41,196.43-213.22,196.43S0,347.8,0,230.04,95.46,16.81,213.22,16.81s213.22,95.46,213.22,213.23Z"/>
      <g>
        <g>
          <g>
            <path class="cls-2" d="M419.51,298.59c-1.3-.72-2.84-1.24-3.8-1.44-6.81-1.4-13.64-2.18-20.31-2.33-3.7-.09-7.16,0-10.5.16-1.79-20.11-8.09-39.31-19.27-58.27,1.62-9.72,2.12-22.36,2.53-32.66l.21-5.17c.84-18.75-5.88-43.26-14.38-52.47-2.12-2.29-5.31-4.04-8.12-4.45-21.54-3.21-49.87,5.35-81.73,24.67l-4-.6c-26.18-3.9-58.77-8.75-103.06,1.53-1.4.32-2.95.78-4.54,1.26-2.37.71-6.76,1.98-7.92,1.68-8.49-4.64-30.28-15.71-49.14-18.5-17.53-2.61-29.09.83-34.52,10.31-15.37,28.86-7.65,69.07-4.44,79.47-16,31.01-15.7,63.87-15.6,67.47,0,.84.03,1.72.04,2.58-.84.06-1.6.09-2.48.16-8.93.71-17.8,1.58-28.07,4.44-3.34.92-6.41,3.14-5.81,5.59.47,1.92,2.84,2.34,4.83,2.34,1.54,0,2.85-.25,2.89-.26,10.63-2.17,16.02-2.75,23.47-3.55l3.14-.34c.81-.09,1.61-.13,2.42-.2.81,9.68,2.85,19.99,6.48,30.18-4.44,1.67-9.56,3.89-15.71,7.07-.04.02-3.98,2.08-4.74,4.62-.23.78-.15,1.56.23,2.24.62,1.11,1.92,1.46,3.31,1.46,2.3,0,4.82-.95,4.86-.96,1.84-.81,3.57-1.58,5.21-2.31,3.72-1.66,6.96-3.05,10-4.23,3.93,8.9,9.09,17.53,15.73,25.34-6.84,3.95-15.09,9.33-24.43,16.6-1.94,1.52-3.19,3.45-3.41,5.32-.12,1.04.11,1.99.65,2.67.41.51,1.18.73,2.1.73,1.62,0,3.71-.68,5.14-1.7,10.26-7.27,19.16-12.89,26.15-17.04,7.51,7.31,16.5,13.67,27.22,18.49,35.27,15.84,67.77,19.4,108.95,20l4.04-.06,4.36.06c47.38-.7,84.81-7.46,111.26-20.11,15.35-7.34,27.56-17.24,36.7-29.54,7.64,2.61,16.9,6.62,25.83,12.66,1.14.79,3.45,2.17,5.5,2.17.92,0,1.79-.27,2.47-1.01.29-.3.61-.85.53-1.73-.17-1.86-2.22-4.46-3.56-5.43-9.12-6.66-18.29-10.95-26.01-13.74,5.25-8.67,9.17-18.37,11.72-29.12,5.64.9,12.22,2.35,19.44,4.77.04,0,2.17.71,4.26.71,1.57,0,3.11-.39,3.7-1.78.27-.63.26-1.33-.03-2.02-1.04-2.48-5.39-4.32-5.43-4.33-7.12-2.82-14.12-4.48-20.31-5.49,1.35-8.14,2-16.8,1.93-26,.02-1.57-.07-3.12-.1-4.67,2.93-.16,5.97-.26,9.16-.22,4.96.05,10.48.42,15.35.74,1.52.1,2.99.19,4.4.28,3.19.18,7.1-.41,7.57-2.73.17-.81-.11-2.03-2.36-3.29Z"/>
            <path class="cls-6" d="M354.53,236.73c1.76-9.13,2.29-22.42,2.71-33.11l.22-5.23c.76-16.97-5.67-38.25-11.49-44.55-.51-.56-1.4-.99-1.72-1.06-18.78-2.76-45.27,5.51-74.57,23.31-2.08,1.26-3.22,1.95-5.23,1.65l-5.91-.87c-25.25-3.76-56.69-8.45-98.98,1.36-1.2.27-2.52.68-3.88,1.08-5.38,1.6-11.46,3.43-16.3.79-7.98-4.35-28.38-14.75-45.5-17.28-12.59-1.85-20.45-.25-23.34,4.78-10.47,19.65-8.42,46.45-5.73,61.45.72-.85,1.42-1.62,2.07-2.27,2.63-2.63,5.32-3.6,7.16-2.33,1.91,1.32,1.15,4.66-.08,7.33-1.22,2.65-3.69,7.76-5.63,11.18,0,0,0,.01,0,.02-16.85,29.6-16.54,62.53-16.45,66.2,0,.74.03,1.51.04,2.26,9.31.02,14.99,1,17.89,1.74l.21.05c.06.01,7.62,1.41,7.18,5.04-.39,3.23-4.98,2.99-7.2,2.87l-.82-.06c-2.44-.37-8.96-1.24-16.86-1.4.79,8.79,2.71,18.09,6.01,27.25,4.52-1.04,7.71-1.28,9.83-1.4l.29-.02c2.79-.15,9.39-.25,9.73,3.07.3,2.87-4.87,4.24-7.11,4.7-1.04.21-2.16.36-3.41.53-1.75.24-3.74.52-6.09,1.02,3.77,8.24,8.76,16.15,15.14,23.24,6.63-3.22,10.45-4.39,10.53-4.42.06-.03,6.57-1.68,7.84,1.28,1.09,2.56-1.67,3.92-4.33,5.24-.85.42-1.74.86-2.55,1.35,0,0-.09.05-.26.13-1.03.51-2.75,1.4-5.02,2.62,6.17,5.56,13.32,10.43,21.71,14.2,33.54,15.07,64.84,18.45,104.46,19.04l4.04-.06,4.36.06c44.98-.67,81.88-7.25,106.54-19.04,12.36-5.91,22.38-13.54,30.17-22.9-3.71-.86-5.98-1.18-6.04-1.19-1.42-.14-5.85-1.17-7.34-3.19-.44-.61-.61-1.28-.47-1.94.75-3.62,7.32-2.9,10.09-2.43.35.03,3.75.38,9.03,1.65,5.2-7.94,9.03-16.98,11.53-27.1-2.33-.14-4.2-.17-5.48-.17-2.44.01-5.28-.05-5.28-.05-.73-.07-6.59-.76-6.82-3.68-.03-.39.05-1,.6-1.64,1.31-1.53,4.62-2.39,6.03-2.5l.31-.03c.84-.08,3.07-.3,5.31-.32h.61c1.62,0,3.81.05,6.42.22,1.29-7.68,1.93-15.9,1.86-24.75.01-1.24-.06-2.46-.09-3.69-6.85.85-12.47,1.97-16.3,2.74-1.96.39-3.38.68-4.24.78-1.38.2-2.56.3-3.55.3-2.31,0-3.58-.56-4-1.72-.29-.84-.23-1.74.18-2.59.74-1.52,2.53-2.81,5.19-3.71,2.09-.71,10.2-3.2,22.24-4.68-1.72-19.09-7.86-37.28-18.78-55.31-.7-1.16-.95-2.54-.69-3.87Z"/>
          </g>
          <g>
            <path class="cls-2" d="M115.31,318.4c-3.5,7.1-3.52,18.45,1.21,24.48,2.92,3.45,7.8,5.41,14.09,4.33,5.43-.94,8.52-5.9,9.55-9.85,2.23-8.84-.14-19.68-5.23-23.79-5.36-3.91-15.39-3.82-19.61,4.83Z"/>
            <path class="cls-2" d="M285.41,319.44c-3.5,7.1-3.52,18.45,1.21,24.48,2.92,3.45,7.8,5.41,14.09,4.33,5.43-.94,8.52-5.9,9.55-9.85,2.23-8.84-.15-19.68-5.23-23.79-5.36-3.91-15.39-3.82-19.61,4.83Z"/>
            <g>
              <path class="cls-2" d="M230.45,350.15c-1.17-4.16-4.32-7.43-8.44-8.76-7.86-2.55-15.82-1.48-20.77,2.79-5.16,4.56-5.41,12.65-2.19,16.84,2.99,3.87,7.72,5.9,14.48,6.2.31.01.63.02.94.02,5.41,0,10.44-1.98,13.31-5.27v-.02c2.83-3.28,3.82-7.69,2.67-11.81Z"/>
              <path class="cls-3" d="M219.91,347.9c-2.1-.68-4.24-1.01-6.25-1.01-3.19,0-6.05.84-7.91,2.45-2.45,2.17-2.29,6.18-1.26,7.52,1.68,2.18,4.74,3.34,9.35,3.54,4.27.17,7.46-1.38,8.79-2.9,1.34-1.56,1.79-3.55,1.24-5.49-.54-1.94-2.02-3.48-3.96-4.11Z"/>
            </g>
          </g>
        </g>
        <g>
          <g>
            <path class="cls-2" d="M174.31,408.23c-1.48-4.63-4.48-8.3-7.74-11.99-11.57-11.1-31.76-15.56-47.81-10.64-11.58,3.03-24.94,13.2-26.89,28.3-1.79,11.76,2.42,22.06,11.65,27.76,9.31,4.78,19.42,4.67,29.7-.17.87-.33,1.3-.24,3.57.72,1.42.61,3.17,1.34,5.28,1.7,3.57,1.03,6.76,1.46,9.57,1.46,7.46,0,12.38-3.02,15.44-6.04,7.97-7.84,10.94-20.61,7.23-31.1Z"/>
            <path class="cls-6" d="M163.98,411.82c-.03-.07-.05-.13-.07-.2-.83-2.65-3.05-5.31-5.25-7.82-8.41-8.05-24.41-11.47-36.92-7.67-8.41,2.21-17.79,9.67-19.04,19.29-.55,3.62-1.01,12.25,6.19,16.72,5.93,3.02,12.4,2.87,20-.7,1.9-.75,3.63-1.02,5.19-1.02,2.92,0,5.24.98,6.98,1.72,1.12.47,2.08.88,2.97,1.01.27.04.53.09.78.17,6.51,1.94,11.44,1.34,14.59-1.78,4.91-4.82,6.87-13.3,4.58-19.71Z"/>
          </g>
          <g>
            <path class="cls-2" d="M338.19,416.19c-1.98-15.21-15.33-25.39-26.69-28.34-16.27-4.97-36.47-.53-48.34,10.91-2.82,3.2-5.95,7-7.44,11.65-3.71,10.49-.74,23.27,7.22,31.1,3.07,3.03,8,6.05,15.45,6.05,2.81,0,5.99-.43,9.57-1.46,2.11-.36,3.85-1.1,5.28-1.7,2.29-.98,2.71-1.06,3.23-.88,10.61,5,20.73,5.11,30.44.1,8.83-5.48,13.04-15.78,11.27-27.43Z"/>
            <path class="cls-6" d="M327.35,417.72c-1.27-9.74-10.64-17.21-18.84-19.34-3.53-1.08-7.32-1.6-11.13-1.6-9.92,0-20.02,3.48-26.32,9.53-1.88,2.17-4.1,4.83-4.94,7.48-.02.07-.04.13-.07.2-2.29,6.41-.33,14.89,4.56,19.7,3.17,3.11,8.06,3.72,14.6,1.78.25-.07.51-.13.78-.17.89-.13,1.85-.53,2.97-1.01,2.67-1.14,6.69-2.83,11.82-.85,7.93,3.73,14.41,3.87,20.73.64,6.81-4.24,6.35-12.88,5.82-16.38Z"/>
          </g>
        </g>
        <g>
          <g class="cls-9">
            <rect class="cls-4" x="234.12" y="120.94" width="132.75" height="190.62" transform="translate(-22.49 397.2) rotate(-65)"/>
            <g>
              <path class="cls-8" d="M273.72,294.7l-22.18-10.34c-10.38,22.26-35.1,25.57-35.1,25.57l2.13,19.2c6.68.47,14.87-3.14,14.87-3.14,0,0-7.69,13.91-5.18,37.26,19.5-13.09,25.2-27.92,25.2-27.92,0,0,2.5,8.59,7.15,13.41l16.08-10.7s-13.35-21.07-2.97-43.33Z"/>
              <rect class="cls-8" x="261.22" y="236.59" width="9.7" height="91.07" transform="translate(-102.07 404.04) rotate(-65)"/>
              <path class="cls-8" d="M188.64,192.29l6.91,61.15c18.15-38.91,55.04-14.94,46.83,7.41l13.02,6.07c33.15-73.61-23.39-128.12-66.77-74.63Z"/>
              <path class="cls-8" d="M284.58,280.52l13.02,6.07c11.85-20.65,53.92-7.8,35.78,31.12l51.29-34.01c13.09-67.61-65.01-75.89-100.09-3.18Z"/>
              <path class="cls-8" d="M345.06,112.76s-51.24,15.59-68.75,53.12c-17.32,37.13,5.28,53.56-17.06,102.83l21.48,10.02c23.39-48.78,50.5-42.03,67.81-79.17,17.5-37.54-3.49-86.81-3.49-86.81Z"/>
            </g>
          </g>
          <path class="cls-1" d="M390.94,222.57c.07-12.49-5.34-22.53-15.6-29.03-.69-.44-1.39-.87-2.1-1.27-.77-.43-1.55-.85-2.34-1.22-11.64-5.67-23.69-4.48-34.15-2.53-5.83,1.33-9.45,2.5-11.74,3.46-1.46-1.46-3.03-2.84-4.74-4.07-.97-.67-6.37-4.22-14.15-5.76-.48-2.22-.98-3.97-1.26-4.88-.01-.05-.23-.79-.25-.84-1.29-3.88-4.26-11.63-9.68-19.89-6.8-10.34-15.02-17.72-24.49-21.96-15.15-6.65-29.01-3.93-42.64,8.55-6.19,6.4-11.53,14.18-15.87,23.1-.54,1.12-4.52,10.56-4.96,11.86-1.56,4.27-6.56,19.27-5.14,33.03.89,10.47,5.87,20.97,13,27.42.12.11.54.44.67.53,7.94,6.03,16.67,9.07,25.99,9.07,1.13,0,2.27-.05,3.42-.13,12.05-.93,21.23-4.61,21.51-4.72,1.18-.45,2.22-.93,3.33-1.4,3.32,4.59,7.6,8.48,12.65,11.05,6.29,3.17,11.23,4.29,15.81,4.29.67,0,1.31-.14,1.97-.18.25.54.51,1.09.92,1.73,9.83,18.53,24.19,24.87,33.25,24.48.58.03,1.17.05,1.76.05,15.78,0,33.72-11.18,44.46-28.18l.53-.88c3.53-5.77,8.87-14.5,9.85-31.66Z"/>
          <path class="cls-2" d="M390.94,222.57c.07-12.49-5.34-22.53-15.6-29.03-.69-.44-1.39-.87-2.1-1.27-.77-.43-1.55-.85-2.34-1.22-11.64-5.67-23.69-4.48-34.15-2.53-5.83,1.33-9.45,2.5-11.74,3.46-1.46-1.46-3.03-2.84-4.74-4.07-.97-.67-6.37-4.22-14.15-5.76-.48-2.22-.98-3.97-1.26-4.88-.01-.05-.23-.79-.25-.84-1.29-3.88-4.26-11.63-9.68-19.89-6.8-10.34-15.02-17.72-24.49-21.96-15.15-6.65-29.01-3.93-42.64,8.55-6.19,6.4-11.53,14.18-15.87,23.1-.54,1.12-4.52,10.56-4.96,11.86-1.56,4.27-6.56,19.27-5.14,33.03.89,10.47,5.87,20.97,13,27.42.12.11.54.44.67.53,7.94,6.03,16.67,9.07,25.99,9.07,1.13,0,2.27-.05,3.42-.13,12.05-.93,21.23-4.61,21.51-4.72,1.18-.45,2.22-.93,3.33-1.4,3.32,4.59,7.6,8.48,12.65,11.05,6.29,3.17,11.23,4.29,15.81,4.29.67,0,1.31-.14,1.97-.18.25.54.51,1.09.92,1.73,9.83,18.53,24.19,24.87,33.25,24.48.58.03,1.17.05,1.76.05,15.78,0,33.72-11.18,44.46-28.18l.53-.88c3.53-5.77,8.87-14.5,9.85-31.66ZM262.41,233.09c-.08.03-8.08,3.2-18.37,4-11.87.91-19.45-4.84-21.88-6.66-5-4.53-8.79-12.66-9.45-20.34-1.18-11.51,3.16-24.52,4.61-28.48.39-1.06,3.95-9.57,4.44-10.59,3.84-7.9,8.52-14.72,13.66-20.06,10.24-9.38,19.41-11.29,30.57-6.38,7.49,3.35,14.15,9.4,19.77,17.96,4.92,7.49,7.54,14.61,8.32,16.9l.28.99c.1.33.23.76.37,1.26-3.12.38-6.39,1.21-9.76,2.67-.86.37-1.62.86-2.44,1.29-1.82-1.99-4.05-3.77-6.3-5.03-6.73-3.79-14.11-3.84-20.25-.13-6.59,4-10.46,11.71-9.86,19.44.23,6.03,2.69,11.16,7.12,14.82,2.87,2.37,6.27,3.78,9.4,4.6,0,.53-.07,1.05-.06,1.58.03,3.82.78,7.6,2.04,11.21-.76.31-1.43.63-2.24.94ZM264.12,208.4c-1.43-.51-2.96-1.24-4.22-2.39-1.79-1.63-2.7-3.75-2.82-6.7-.29-3.87,1.51-7.59,4.61-9.47,2.17-1.31,4.47-1.52,7.04-.66,2.02.68,3.67,1.86,4.9,2.98-4.48,4.46-7.75,9.99-9.5,16.23ZM306.89,244.79c-7.63,2.01-11.53,2.43-19.54-1.62-8.18-4.17-13.72-13.13-13.78-22.46-.43-11.82,5.62-21.89,15.78-26.29,3.44-1.49,6.75-2.05,9.77-2.05,8.05,0,14.03,3.93,14.85,4.49,9.03,6.49,13.34,17.88,10.69,28.51-2.49,11.49-10.8,17.57-17.75,19.43ZM371.63,248.73l-.6,1.01c-8.69,13.74-23.71,23.26-36.56,22.57-6.52.09-15.93-5.16-23.02-17.53,4.14-1.36,8.46-3.71,12.35-7.14,1.96,1.41,4.3,2.61,7,3.2,1.02.22,2.2.38,3.49.38,3.21,0,7.18-.98,11.47-4.38,4.81-4.81,6.43-10.35,4.84-17.49-2.82-8.54-9.53-11.12-14.31-12.03-.27-5.63-1.81-11.14-4.48-16.14,2.05-.65,4.64-1.36,7.15-1.93,8.49-1.57,18.35-2.62,27.19,1.67.59.28,1.14.58,1.7.89.53.3,1.04.61,1.59.96,7.15,4.53,10.61,10.99,10.57,19.46-.82,14.14-4.94,20.88-8.38,26.5ZM335.17,228.3c2.53.61,4.13,1.69,4.89,3.94.65,2.96.13,4.69-1.56,6.43-1.71,1.35-3.44,1.83-5.18,1.51-.94-.17-1.76-.56-2.49-1,1.88-3.16,3.39-6.77,4.33-10.89Z"/>
        </g>
      </g>
    </g>
    <g>
      <path class="cls-5" d="M135.09,73.62l-.25-.98c-4.3-17.19-15.35-22.2-24.26-21.15-4.53.53-9.02,2.61-13.03,6.02,1.96-4.88,2.85-9.55,2.85-15.07,0-21.84-20.14-40.18-21-40.95l-1.61-1.44c-.07-.06-.17-.06-.23,0l-1.61,1.44c-.86.77-21,19.11-21,40.95,0,5.52.88,10.2,2.85,15.07-4.01-3.41-8.5-5.49-13.04-6.02-8.91-1.05-19.96,3.96-24.26,21.15l-.25.98s0,.09.02.13l.53.86,20.7,33.84c.04.07.12.1.19.08.08-.02.13-.08.13-.17v-8.56c0-9.63,4.72-13.23,9.13-13.39,3.75-.13,7.97,2.24,8.67,6.44h-7.37c-.09,0-.17.08-.17.17v9.72c0,.09.08.17.17.17h16.63c-.5,10.25-9.31,16.08-9.4,16.14l-1.96,1.27c-.15.09-.07.21.03.37l.23.38.83,1.37,2.52,4.15,3.67,6.03c.04.07.12.1.19.08,2.51-.7,4.34-1.94,4.98-2.41.42,2.31,2.29,11.03,7.57,17.47.03.04.08.06.14.06.05,0,.1-.02.13-.06,4.21-5.13,6.69-12.54,7.57-17.47.62.46,2.46,1.71,4.99,2.41.07.02.15-.01.19-.08l3.67-6.03,2.52-4.15.83-1.37.23-.38c.1-.16.17-.28.02-.37,0,0-1.96-1.27-1.96-1.27-.09-.06-8.9-5.89-9.41-16.14h16.63c.09,0,.17-.08.17-.17v-9.72c0-.09-.08-.17-.17-.17h-7.37c.7-4.2,4.91-6.57,8.66-6.44,4.42.16,9.13,3.76,9.13,13.39v8.56c0,.08.05.15.13.17.08.02.15,0,.19-.08l20.7-33.84.53-.86s.03-.09.02-.13Z"/>
      <path class="cls-8" d="M134.25,74.44s-17.78,29.07-20.38,33.32v-7.95c0-9.88-4.89-13.57-9.46-13.73-3.96-.14-8.43,2.41-9.05,6.93,0,.05.01.1.04.14.03.03.08.06.13.06h7.41v9.38h-16.64s-.09.02-.12.05c-.03.03-.05.08-.05.12.41,10.54,9.48,16.54,9.57,16.6l1.83,1.19c-.75,1.23-6.51,10.68-7.18,11.8-2.97-.86-4.94-2.47-4.96-2.49-.05-.04-.11-.05-.17-.03-.06.02-.1.07-.11.13-.82,4.83-3.26,12.25-7.42,17.42-4.16-5.17-6.6-12.58-7.42-17.42,0-.06-.05-.11-.11-.13-.06-.02-.12,0-.17.03-.02.02-1.99,1.63-4.96,2.49-.68-1.12-6.44-10.57-7.18-11.8.45-.29,1.83-1.19,1.83-1.19.09-.06,9.16-6.05,9.57-16.6,0-.04-.02-.09-.05-.12-.03-.03-.07-.05-.12-.05h-16.64v-9.38h7.41c.05,0,.1-.02.13-.06.03-.04.05-.09.04-.14-.62-4.52-5.09-7.07-9.05-6.93-4.58.16-9.46,3.85-9.46,13.73v7.95l-20.38-33.32-.49-.8.23-.91c4.25-16.98,15.12-21.93,23.89-20.9,4.67.55,9.3,2.76,13.39,6.4.06.05.15.06.21.01.07-.04.09-.13.06-.2-2.14-5.08-3.09-9.89-3.09-15.6,0-21.69,20.03-39.93,20.89-40.69l1.5-1.34,1.49,1.34c.85.76,20.89,19,20.89,40.69,0,5.72-.96,10.53-3.09,15.6-.03.07,0,.16.06.2.06.05.15.04.21-.01,4.09-3.64,8.72-5.85,13.39-6.4,8.77-1.03,19.64,3.92,23.89,20.9l.23.91-.49.8Z"/>
      <g>
        <path class="cls-5" d="M83.86,102.01h-12.37c0,12.41-10.62,19.22-10.62,19.22l5.08,8.34c3.16-1.21,6.14-4.62,6.14-4.62,0,0-.55,8.02,5.59,18.18,6.14-10.16,5.58-18.18,5.58-18.18,0,0,2.98,3.4,6.14,4.62l5.08-8.34s-10.62-6.8-10.62-19.22Z"/>
        <rect class="cls-5" x="54.65" y="95.44" width="46.04" height="4.9"/>
        <path class="cls-5" d="M23.01,73.27l16.23,26.54c0-21.71,22.02-18.61,23.04-6.61h7.26c-.54-40.81-38.09-53.7-46.53-19.93Z"/>
        <path class="cls-5" d="M85.81,93.2h7.26c1.02-11.99,23.04-15.09,23.04,6.61l16.23-26.54c-8.45-33.77-46-20.88-46.54,19.93Z"/>
        <path class="cls-5" d="M77.68,3.41s-20.15,18.09-20.15,39.03,13.86,23.41,14.15,50.76h11.98c.29-27.35,14.16-30.05,14.16-50.76S77.68,3.41,77.68,3.41Z"/>
      </g>
      <g>
        <g>
          <path class="cls-5" d="M113.94,114.38c-.03-.05-.09-.08-.15-.08h-3.07l1.3-2.14s0-.01.01-.02c.57-1.26-.23-2.19-.75-2.63-8.2-6.36-18.88-9.44-33.61-9.7-14.73.26-25.41,3.34-33.61,9.7-.53.44-1.33,1.37-.76,2.63,0,0,0,.01,0,.02l1.3,2.14h-3.06c-.06,0-.12.03-.15.08-.03.05-.03.12,0,.17l5.17,8.76c.03.05.09.08.14.08h5.27c1.75,0,2.55-.61,2.92-1.13.33-.47.43-1.05.26-1.55-.05-.15-.13-.27-.23-.38l-2.01-3.37c3.11-1.88,10.98-5.56,24.74-5.56s21.62,3.68,24.73,5.56l-2.01,3.38c-.09.11-.17.23-.22.37-.17.5-.08,1.08.26,1.55.36.51,1.17,1.13,2.91,1.13h5.27c.06,0,.12-.03.15-.08l5.17-8.76c.03-.05.03-.12,0-.17Z"/>
          <path class="cls-7" d="M54.33,119.96h0c-.9-.27-2.2.11-2.93.38-.16.06-.34.15-.54.24-.69.33-1.63.77-1.94.28-.54-.87,1.77-2.49,3.55-3.63.05-.04.11-.07.17-.11,0,0,0,0,0,0l1.68,2.82Z"/>
          <path class="cls-7" d="M102.7,117.14h0c.06.03.12.07.18.11,1.78,1.14,4.09,2.76,3.55,3.63-.31.49-1.25.05-1.93-.28-.2-.09-.39-.19-.55-.25-.73-.27-2.03-.66-2.93-.38l1.68-2.83Z"/>
          <path class="cls-4" d="M54.63,122.06c-.45.64-1.39.99-2.64.99h-5.17l-4.97-8.42h2.97l3.81,6.42h0s0,0,0,0c.46.75,1.56.23,2.37-.15.19-.09.37-.18.51-.23,1.26-.47,2.31-.59,2.88-.32.22.11.36.26.44.48.11.31.11.79-.22,1.24Z"/>
          <path class="cls-4" d="M77.68,111.06c-14.58,0-22.61,4.13-25.38,5.9-1.72,1.1-3.4,2.31-3.72,3.31l-4.96-8.27c-.45-1.01.11-1.77.66-2.23,8.13-6.3,18.75-9.36,33.4-9.62,14.65.26,25.26,3.32,33.4,9.62.55.46,1.11,1.22.66,2.22l-4.96,8.27c-.32-1-2.01-2.21-3.73-3.31-2.77-1.77-10.81-5.9-25.37-5.9Z"/>
          <path class="cls-4" d="M108.53,123.05h-5.18c-1.25,0-2.19-.35-2.64-.99-.32-.45-.32-.93-.21-1.24.04-.11.09-.2.16-.27,0,0,0,0,0,0h0c.07-.09.16-.15.27-.2.57-.27,1.62-.15,2.88.32.14.05.33.14.52.23.8.38,1.9.89,2.36.15h0s0,0,0,0l3.81-6.42h2.97l-4.97,8.42Z"/>
        </g>
        <g>
          <path class="cls-5" d="M54.29,112.01l-.23.12s-2.94,1.65-2.94,1.65c0,0-.07.04-.13.07l.47-2.1.69-.36c.06-.03.12-.06.2-.1.06-.03.12-.06.18-.08.06-.03.11-.04.17-.06.06-.01.12-.03.17-.05.03,0,.05-.03.06-.06l.04-.52s0-.04,0-.05c0,0,0,0,0-.01,0-.02,0-.04,0-.06,0,0,0-.02,0-.03,0,0,0-.01,0-.03,0,0,0,0,0-.01h0s0-.05,0-.06v-.03s.03-.07.04-.11c.02-.07.03-.13.04-.19,0-.03-.01-.06-.04-.08-.03-.01-.07,0-.09.02-.02.03-.04.05-.06.07l-.02.02s-.04.04-.06.07c-.01.01-.03.02-.06.04-.03.02-.05.03-.07.04,0,0-.27.19-.27.19l-.04.03c-.08.05-.15.1-.22.15-.06.04-.14.08-.25.14-.08.04-.17.09-.25.13l.6-3.19s0-.06-.03-.07c-.02-.02-.06-.02-.08,0-.16.11-.32.22-.47.32l-.1.06c-.12.08-.25.16-.38.24-.15.08-.31.18-.53.3-.18.1-.38.2-.6.32,0,0-.32.17-.32.17,0,0-2.34,1.16-2.34,1.16-.02,0-.03.03-.03.04,0,.02,0,.04,0,.05l.25.49s.23.48.23.48c0,.02.03.03.05.04.02,0,.04,0,.06,0l.17-.11s1.54-.88,1.54-.88c0,0,1.43-.8,1.43-.8,0,0,.05-.03.1-.05l-.36,1.83-.67.35c-.07.04-.15.08-.22.12-.07.04-.13.07-.19.09-.07.03-.13.05-.19.08-.06.03-.13.05-.21.07-.03.01-.05.04-.05.07l-.08,1.12s.01.06.04.07c.03.01.06,0,.08-.02,0,0,.01-.02.02-.03,0,0,0,0,0-.01,0,0,0,0,0-.01,0,0,.02-.02.03-.04,0-.01.03-.04.06-.07.03-.03.07-.06.11-.11.04-.04.09-.09.15-.13.07-.05.14-.1.21-.14.08-.05.16-.11.25-.16.09-.05.19-.11.29-.17,0,0,.07-.03.14-.07l-.03.16s-.71,3.04-.71,3.04l-.06.23s0,.06.03.08c.03.02.06.02.08,0,.19-.14.37-.27.55-.38.18-.12.35-.22.51-.32.15-.09.32-.19.54-.31.2-.11.42-.23.64-.35.14-.08.29-.15.4-.2.12-.06.25-.12.42-.2.14-.06.28-.12.41-.17.12-.05.25-.09.38-.14.02,0,.04-.02.04-.04l.57-1.48s0-.06-.02-.08c-.02-.02-.05-.02-.08-.01Z"/>
          <path class="cls-5" d="M59.08,109.62c-.01-.14-.03-.28-.05-.4-.01-.12-.03-.25-.07-.37-.03-.12-.06-.24-.11-.36-.05-.15-.11-.28-.17-.4-.06-.12-.13-.23-.22-.34-.09-.11-.18-.2-.26-.27-.09-.08-.19-.14-.3-.18-.09-.04-.19-.07-.28-.09-.09-.02-.18-.03-.27-.03-.07,0-.16,0-.26,0h-.06c-.08.01-.15.02-.23.03-.03,0-.05.02-.06.05l-.31.9c-.08-.07-.15-.13-.22-.17-.1-.06-.21-.11-.31-.13-.1-.02-.22-.03-.35-.02-.13,0-.27.02-.43.05-.02,0-.05.02-.05.05l-.36.97c-.12-.1-.24-.2-.37-.27-.16-.08-.33-.15-.52-.2-.03,0-.07.01-.08.04l-.44,1.16s0,.07.04.09l.1.05s.05,0,.08,0l.09-.07s.09-.03.13-.02c.04,0,.08.02.12.05.04.03.07.07.1.11.03.03.05.07.07.11,0,.02.02.03.03.05.01.02.02.04.03.06.02.04.03.07.04.09,0,0,.54,1.43.54,1.43.03.09.06.17.09.23.03.07.06.12.11.18.04.05.09.1.15.16.06.05.13.09.22.13.08.04.17.08.26.1.1.03.19.05.29.06.09.01.19.02.29.02s.2,0,.31-.01c.03,0,.05-.02.06-.05.06-.16.13-.32.2-.49.06-.14.13-.28.2-.42.07.05.15.1.23.13.1.04.2.08.31.1.1.03.21.05.31.06.11.01.23.01.36,0,.03,0,.05-.01.06-.03.04-.07.08-.13.12-.2.04-.07.08-.14.12-.2.04-.07.09-.13.13-.19.05-.06.09-.13.13-.19,0,0,.02-.02.02-.02.04-.05.07-.1.11-.15.05-.06.09-.11.13-.15,0,0,.02-.02.02-.02.04-.04.09-.09.12-.14.04-.04.08-.09.11-.14l.03-.03s.02-.03.02-.05v-.2c-.02-.16-.03-.32-.05-.47M56.55,111.35c-.06.03-.13.05-.2.06-.08.01-.17.02-.26,0-.1,0-.18-.02-.24-.04-.06-.02-.1-.04-.14-.07-.04-.03-.07-.07-.09-.1-.03-.03-.04-.06-.05-.09,0-.03-.02-.06-.03-.1-.01-.04-.03-.07-.04-.12l-.64-1.73s0,0,0,0c.02-.01.04-.03.06-.04.02-.01.04-.03.07-.04,0,0,.01,0,.01,0,.03-.01.05-.03.07-.03.03-.01.06-.03.1-.03.03-.01.08-.02.14-.03h0s.09-.01.13,0c.05.01.1.03.15.07,0,0,0,0,0,0,.05.03.1.08.14.14.04.07.08.14.11.23,0,0,.56,1.48.56,1.48h0c.02.06.03.1.05.14.01.04.03.07.05.11.01.04.03.08.05.11.01.02.02.03.03.04l-.05.04M56.84,108.33c.07,0,.14-.01.22-.01s.14.01.2.03c.06.01.12.05.17.09,0,0,0,0,0,0,.05.03.1.08.15.13.04.05.09.11.13.19.03.06.07.14.12.23.04.09.08.2.12.3.04.1.07.21.1.34.03.11.05.24.07.37.03.16.04.28.05.39.01.12.02.23.02.33-.07.02-.15.03-.22.03-.08,0-.16-.01-.23-.03-.08-.03-.14-.05-.2-.07-.05-.03-.08-.04-.08-.06,0,0,0,0,0,0-.02-.02-.04-.05-.05-.08-.02-.03-.04-.07-.06-.12l-.76-1.97.08-.04c.05-.02.11-.03.18-.04Z"/>
          <path class="cls-5" d="M56.52,111.17s0,0,0-.01c0,0,0,0,0,0,0,0,0,.01,0,.01Z"/>
          <path class="cls-5" d="M62.23,109.23s-.04,0-.06,0c-.02,0-.03.02-.04.04-.02.05-.04.09-.06.12-.02.02-.04.04-.07.06-.03.01-.07.03-.1.04-.03.01-.06.02-.09.03h-.02c-.08.03-.16.05-.24.06-.08.01-.16.02-.24.02-.07,0-.15-.02-.22-.04-.07-.02-.14-.05-.21-.09-.06-.03-.12-.07-.18-.11-.06-.04-.1-.1-.14-.15-.04-.06-.08-.13-.12-.2-.04-.07-.07-.14-.1-.21l1.33-1.97s.01-.04,0-.06c0-.02-.02-.03-.04-.05l-1.2-.61s-.06,0-.09.02l-1.31,1.52s-.02.04-.01.06l.16.9c.11.41.24.76.39,1.02.15.28.32.5.52.65.2.15.44.26.73.31.29.05.62.05.99,0,.02,0,.05-.02.06-.04l.25-.55s.01,0,.02-.02c.01-.03.03-.06.05-.11.02-.04.04-.08.07-.13l.02-.04s.03-.07.03-.07c.02-.04.04-.07.05-.1.03-.06.05-.1.06-.13.01-.03,0-.07-.04-.09l-.15-.07M60.11,108.22h0c-.02-.1-.05-.19-.06-.28-.02-.09-.04-.19-.06-.31-.02-.1-.02-.2-.03-.29,0-.06,0-.11,0-.17l.72.35-.53.77-.03-.07Z"/>
          <path class="cls-5" d="M62.05,105.45s.04.02.05.01c.02,0,.04-.02.05-.04l.58-1s0-.08-.03-.1l-.38-.23s-.04-.01-.06-.01c-.02,0-.03.02-.04.03l-.58.98s0,.08.02.1l.39.25Z"/>
          <path class="cls-5" d="M64.29,108.93s-.04-.02-.06-.01c-.02,0-.04.01-.05.03,0,0,0,0,0,0h0s-.03.02-.04.04c0,0,0,0,0,0h0s0-.01.01-.02h0s0,.01,0,.02c0,0-.01,0-.02,0-.01,0-.03.02-.03.02-.01,0-.01,0-.02,0-.05,0-.09,0-.13-.02-.04-.02-.07-.05-.09-.09-.03-.06-.06-.12-.08-.2-.03-.08-.05-.17-.07-.26,0,0-.4-1.81-.4-1.81l-.03-.15c-.03-.1-.05-.18-.07-.25-.03-.08-.05-.14-.08-.19-.03-.05-.07-.1-.11-.14-.05-.05-.1-.1-.15-.14-.04-.03-.07-.05-.1-.07h-.02s-.06-.04-.09-.06l-.07-.03-.05-.02s-.09-.04-.15-.06c-.03-.01-.07,0-.09.03l-.57,1s-.01.06.02.09l.09.09s.06.02.09,0l.04-.03s.03-.01.05-.02c.02,0,.05,0,.08,0,.03,0,.06.02.08.03.02.01.03.02.04.04.02.02.03.04.04.06,0,.01.02.03.02.04,0,0,0,.02.02.03,0,.01.01.04.03.07.01.03.01.05.02.08,0,0,.05.21.05.21l.39,1.74s.05.21.05.21c.02.09.04.16.06.23.02.06.04.11.06.16.02.04.06.09.1.13.05.04.1.09.16.15.07.05.15.09.25.12.1.03.21.05.34.06.03,0,.05,0,.07-.03l.57-.91s.01-.07-.01-.09l-.11-.09Z"/>
          <path class="cls-5" d="M67.65,108.8s-.31-1.41-.31-1.41c-.01-.06-.03-.15-.06-.26v-.02s-.02-.06-.02-.06l-.09-.39c-.04-.15-.08-.3-.12-.46-.02-.11-.05-.23-.06-.31-.03-.13-.05-.26-.07-.42-.02-.14-.03-.26-.04-.38,0-.03-.03-.07-.06-.07l-1.55-.09s-.05,0-.06.03l-1.1,1.42s-.02.03-.02.05l.02.2s.09.85.09.85c.06.34.13.63.23.87.1.25.21.44.35.59.13.15.32.28.55.38.22.1.48.17.81.22.03,0,.06,0,.07-.04.02-.04.05-.09.06-.12l.02-.04.03-.07s0,0,0,0c.02-.04.04-.08.05-.11.01-.02.03-.05.04-.07h0s0-.03,0-.03c.02-.03.03-.05.05-.07.02-.03.04-.07.07-.1.02-.03.04-.06.06-.09h0s.14.65.14.65c.01.07.02.15.03.24,0,0,.01.24.01.24,0,.09,0,.16,0,.22,0,.04-.02.08-.03.12l-1.02-.37s-.06,0-.08.02l-.75.8s-.02.04-.02.07c0,.02.02.04.05.05.04.01.09.03.15.04.06.01.14.04.22.06.08.02.15.04.21.06.06.02.11.03.15.05,0,0,.49.22.49.22.03.01.06,0,.08-.02.05-.05.1-.1.17-.17l.07-.07s.07-.07.11-.11c0,0,.08-.07.08-.07l.1-.08c.06-.06.12-.11.17-.15.02-.02.04-.03.06-.04l.03-.03s.06-.05.1-.07l.02-.02s.04-.03.07-.05c.03-.02.06-.04.09-.06.06-.03.12-.07.19-.11.05-.03.11-.07.16-.11h.02s.03-.04.03-.07c.02-.12.03-.23.03-.33,0-.1,0-.2,0-.3,0-.09-.01-.18-.02-.3-.01-.1-.03-.2-.05-.34M66.44,108.49s-.09.01-.13.01c-.05,0-.09,0-.14-.02-.05-.01-.12-.03-.2-.06-.1-.04-.2-.08-.3-.13-.11-.04-.19-.13-.26-.25-.07-.13-.13-.3-.17-.53,0,0,0,0,0-.01,0,0,0-.01,0-.02,0-.01,0-.02,0-.03h0s0-.03,0-.04c0,0,0-.01,0-.02,0-.01,0-.02,0-.03,0,0,0-.02,0-.03-.01-.04-.02-.08-.03-.11,0,0-.01-.09-.01-.09h0c-.02-.1-.03-.2-.04-.29,0,0,0-.01,0-.01l-.03-.27s0-.09,0-.09v-.21c-.01-.08-.01-.17-.02-.27l.93.1.04.2.44,2s.03.1.04.17l-.06.03Z"/>
          <path class="cls-5" d="M70.52,107.69s-.04-.02-.06-.01c-.02,0-.04.02-.05.04-.02.03-.05.07-.08.1-.02.02-.04.04-.07.05-.04,0-.08.02-.11.03-.03,0-.07.01-.11.02-.09.01-.17.02-.25.01-.07,0-.15,0-.25-.02-.07-.02-.14-.04-.21-.07-.06-.03-.13-.07-.2-.12-.06-.04-.11-.09-.16-.14-.05-.05-.09-.11-.12-.17-.03-.07-.06-.14-.1-.22-.03-.07-.05-.15-.07-.23l1.59-1.74s.02-.04.02-.05c0-.02-.01-.04-.03-.05l-1.1-.79s-.06-.02-.09,0l-1.51,1.3s-.03.03-.02.06l.03.92c.05.42.13.78.24,1.08.11.3.25.54.42.72.17.18.4.32.68.41.27.09.6.14.97.15.02,0,.05-.01.06-.03l.33-.5s.02-.01.02-.02c.01-.02.04-.06.06-.1l.04-.05.08-.11s.07-.08.09-.12l.02-.03s.06-.09.08-.12c.02-.03,0-.07-.02-.09l-.14-.1M68.57,106.36h0c0-.1-.02-.2-.03-.29,0-.1-.01-.21-.01-.31,0-.09,0-.2,0-.29,0-.07.01-.12.02-.17l.66.46-.63.68v-.08M70.29,108.32s.02.01.02.03c0-.01-.02-.02-.03-.02t0,0Z"/>
          <path class="cls-5" d="M74.53,107.44s-.03-.03-.05-.03c-.02,0-.04,0-.05.01l-.27.19-.17-2.51c-.01-.2-.05-.38-.12-.52-.07-.14-.16-.25-.28-.33-.12-.07-.25-.12-.41-.16-.15-.04-.33-.06-.54-.08-.02,0-.05.01-.06.03l-.62.74-.02-.79s-.02-.05-.04-.06c-.03-.01-.06,0-.08,0l-1.29,1.08s-.03.04-.03.06v.1s.04.07.07.07c.08,0,.16.03.21.06.04.02.08.06.1.1.03.06.04.13.06.2.02.08.03.17.04.29l.16,2.24s.01.33.01.33v.19s.02.04.03.06c.02.01.04.02.06.01l.49-.06s.04,0,.05,0h.01s.05,0,.07,0c.02,0,.03,0,.05,0h.01s.03,0,.04,0c.03,0,.06,0,.08,0h.02s.07,0,.11,0h.01s.04-.01.05-.03c.01-.01.02-.04.01-.06-.02-.12-.04-.23-.05-.33-.02-.09-.02-.15-.03-.19v-.04s0-.06,0-.09c0-.03,0-.06,0-.11v-.05s-.16-2.21-.18-2.59c.06-.02.12-.03.18-.05.07-.02.16-.03.24-.03.07,0,.13,0,.2.03.07.02.12.04.17.06.04.02.07.05.1.08.02.03.04.07.05.11.02.06.03.12.04.17.01.06.02.12.03.21,0,0,0,.13,0,.13v.03s0,.1,0,.1v.05s.18,2.56.18,2.56c0,.03.02.05.04.06.02.01.05,0,.07-.01l1.34-.95s.04-.07.02-.1l-.12-.18Z"/>
          <path class="cls-5" d="M81.04,102.3l-.85.02s-.58-.03-.58-.03c-.03,0-.06.02-.07.04-.04.09-.07.18-.11.26-.04.08-.09.17-.13.25-.05.07-.11.17-.19.29-.08.11-.17.23-.27.36l-.03.04s-.02.03-.02.03l-.31.4c-.11.15-.21.27-.3.38-.05.06-.1.12-.15.18-.05.07-.1.12-.15.16-.05.05-.09.11-.14.15l-.02.02s-.02.02-.03.03v-.17s0-.09,0-.14c0-.05,0-.1,0-.16v-.14c.02-.11.03-.21.03-.33v-.07c0-.07,0-.14,0-.2,0,0,.08-1.19.08-1.19l.02-.26s0-.05-.03-.06c-.02-.02-.04-.02-.06-.02l-1.15.24s-.06.04-.06.07v.28s.02,1.89.02,1.89c0,0-.02,1.6-.02,1.6,0,.19,0,.36-.01.54,0,.18-.01.35-.02.56,0,.2-.02.37-.03.53-.01.19-.03.34-.05.46,0,.02,0,.04.02.06.01.01.03.02.06.02l.57-.02s.54.04.54.04c.02,0,.04,0,.05-.02.02-.01.02-.04.02-.05l-.04-1.63s.01-.88.01-1.15h.21c.15,0,.3.04.44.09.14.06.28.15.4.26.12.11.23.23.33.36.09.13.16.27.21.41.06.15.1.29.14.44.04.12.07.25.1.41.03.15.05.28.07.41.02.13.04.28.06.43,0,.04.04.07.07.06l.56-.02s.56.04.56.04c.02,0,.05,0,.06-.03.01-.02.02-.04.01-.06l-.16-.69c-.02-.06-.04-.16-.08-.29,0,0-.07-.24-.07-.24l-.07-.22c-.05-.19-.11-.37-.18-.55-.07-.19-.15-.35-.23-.51-.09-.17-.19-.32-.3-.45-.12-.15-.24-.27-.38-.38-.14-.11-.3-.2-.47-.28-.13-.06-.28-.1-.43-.14l1.19-1.11s.6-.51.6-.51c.19-.16.27-.23.31-.26.06-.05.12-.09.19-.14,0,0,.09-.06.09-.06l.15-.11s.04-.05.03-.08c-.01-.03-.04-.05-.07-.05Z"/>
          <path class="cls-5" d="M84.5,107.87s-.03-.03-.05-.03c-.02,0-.04,0-.06.01l-.05.04s-.04,0-.05,0c-.02,0-.04,0-.06-.03-.03-.01-.04-.03-.07-.06-.02-.01-.03-.04-.04-.08-.01-.03-.02-.06-.03-.09,0-.03,0-.08,0-.13,0,0,0-.02,0-.02v-.13s.02-.07.02-.11v-.06s.12-1.61.12-1.61c0-.15,0-.28,0-.41-.01-.13-.04-.25-.08-.36-.03-.11-.08-.21-.15-.3-.06-.09-.15-.16-.25-.22-.08-.05-.17-.1-.25-.14-.08-.04-.16-.06-.24-.08-.08-.02-.16-.03-.23-.04l-.27-.04h-.23s-.05,0-.07.02c-.07.13-.17.26-.27.4-.1.13-.21.26-.31.38,0,0-.13.15-.13.15-.01.01-.02.03-.02.05v2.01s-.61.55-.61.55c-.02.02-.02.03-.02.05,0,.03.01.04.02.06l1.14.99s.03.02.05.02c.02,0,.04-.01.05-.03.03-.03.07-.07.11-.11.02-.02.05-.04.07-.06.03-.03.07-.05.1-.08,0,0,.1-.08.1-.08l.12-.11c.06-.04.12-.09.19-.14.02.05.04.1.06.15.03.08.08.15.13.21.04.06.1.12.17.18.05.04.12.1.21.15.02.01.04.02.07,0,0,0,.03-.01.08-.06.03-.03.08-.07.14-.12.05-.05.09-.09.12-.12h.01s.05-.05.06-.07c.01-.01.29-.22.29-.22l.13-.1s.04-.07.02-.1l-.08-.12M82.16,106.01c0-.27.02-.52.04-.75,0,0,.02-.12.02-.2.02,0,.05,0,.07,0,0,0,.04,0,.04,0h.08s.03,0,.05,0c.02,0,.03,0,.05,0,0,0,.02,0,.03,0,0,0,.02,0,.02,0,.01,0,.02,0,.02,0,.01,0,.02,0,.03,0,.1,0,.19.03.26.05.07.03.13.06.18.09.05.03.08.08.1.14.02.06.03.14.02.22v.18s-1,.92-1,.92c0-.22-.01-.43,0-.63M83.04,107.76s-.03.02-.05.02c-.02,0-.04,0-.06,0-.03-.02-.07-.03-.1-.04-.03-.01-.06-.03-.08-.05,0,0-.01-.01-.02-.01-.03-.02-.06-.04-.08-.06-.03-.02-.05-.05-.08-.08,0,0,0,0,0,0l-.39-.34.95-.89-.08,1.46Z"/>
          <path class="cls-5" d="M88.45,108.28s-.06-.05-.09-.04l-.3.12.32-2.49c.03-.2.02-.38-.01-.53-.03-.15-.1-.28-.2-.38-.1-.09-.22-.17-.37-.24-.15-.07-.32-.14-.51-.2-.02,0-.05,0-.07.01l-.75.59.14-.77s-.01-.06-.03-.07c-.02-.02-.05-.02-.07,0l-1.47.78s-.03.03-.04.05v.1s0,.07.03.08c.09.03.15.06.19.1.04.04.07.07.08.12.01.06.02.13.02.21,0,.1,0,.2-.02.29l-.29,2.22s-.05.33-.05.33c0,0-.03.19-.03.19,0,.02,0,.04.01.06.01.01.03.02.05.03l.49.04s.03,0,.05,0h.02s0,0,0,0c.02,0,.04,0,.06,0,.02,0,.03.01.05.01,0,0,0,0,0,0,.02,0,.03,0,.04,0,.03,0,.07.02.1.03.04,0,.07.02.12.02.02,0,.04,0,.06-.01.02-.01.03-.03.03-.05v-.14s.01-.19.01-.19c0-.08,0-.16.01-.19,0-.03,0-.05,0-.07,0-.02,0-.04,0-.06,0,0,0-.04,0-.04,0-.03,0-.07.01-.11,0,0,.28-2.21.33-2.58.05,0,.11,0,.18,0,.07,0,.16,0,.24.02.06.02.13.04.19.07.07.04.12.07.15.1.04.03.07.06.08.1.02.04.02.07.02.12,0,.05,0,.11,0,.18s0,.13,0,.21c0,0,0,.07,0,.07,0,.03,0,.06-.01.09,0,.04-.01.09-.02.13v.02s-.33,2.55-.33,2.55c0,.02,0,.05.03.07.02.01.05.02.07,0l1.49-.64s.03-.02.04-.04c0-.02,0-.04,0-.05l-.09-.2Z"/>
          <path class="cls-5" d="M91.38,109.83c.06-.05.11-.08.15-.11.04-.03.07-.05.08-.07,0,0-.01.02-.02.02,0,0,.32-.19.32-.19l.15-.08s.03-.02.03-.04c0-.02,0-.04,0-.06l-.07-.13s-.06-.05-.1-.03l-.05.03s-.04,0-.06,0c-.02,0-.04-.02-.05-.04,0,0,0,0,0,0-.02-.02-.04-.04-.05-.06-.01-.02-.02-.05-.03-.08,0,0,0,0,0-.01-.01-.02-.01-.05-.01-.08,0-.04,0-.09.01-.13,0-.03.01-.06.02-.1v-.05s.02-.07.03-.1v-.06s.32-1.58.32-1.58c.03-.15.04-.28.05-.41,0-.12,0-.24-.03-.37-.02-.11-.06-.22-.11-.31-.06-.1-.13-.18-.22-.25-.07-.06-.15-.12-.23-.17-.07-.05-.15-.08-.23-.11-.06-.02-.13-.05-.23-.08l-.26-.07h0l-.22-.04s-.05,0-.07.03c-.09.12-.2.24-.32.36-.12.12-.24.23-.35.33,0,0-.15.13-.15.13-.01.01-.02.03-.02.05l-.24,2-.66.47s-.03.03-.03.05c0,.02,0,.04.02.06l1.01,1.12s.03.02.05.02c.02,0,.04,0,.05-.02.03-.03.07-.06.12-.1.06-.04.13-.08.19-.12.04-.03.09-.06.14-.09l.1-.06c.07-.05.14-.08.2-.12.02.05.03.12.04.16.03.08.06.16.1.23.05.07.1.14.15.2.06.06.12.12.18.18.02.02.04.02.07.01.01,0,.03-.01.09-.05.04-.02.08-.05.14-.09h.02M90.58,108.88s-.04.01-.05.01c-.03,0-.05,0-.06,0-.03-.02-.06-.03-.1-.06-.03-.02-.05-.03-.08-.06,0,0,0,0-.01,0-.04-.03-.06-.05-.08-.07-.03-.03-.05-.06-.06-.09,0,0,0,0,0-.01l-.35-.39,1.04-.76-.25,1.44M90.03,106.29s.03-.12.05-.19c.02,0,.05,0,.07,0,0,0,.04,0,.04,0,.03,0,.05,0,.07,0h-.01s.04,0,.07,0c.01,0,.03,0,.04.01,0,0,.02,0,.03,0h.02s.02,0,.03,0c0,0,.01,0,.02,0,.1.02.18.05.26.08.07.04.13.08.17.12.04.04.07.09.08.14.01.07.01.14,0,.23l-.03.17-1.08.78c.02-.21.03-.41.06-.62.03-.25.07-.5.12-.74Z"/>
          <path class="cls-5" d="M94.37,108.26c-.07-.09-.13-.16-.19-.21-.04-.04-.09-.08-.14-.12l-.04-.04h0s-.17-.13-.17-.13c.1-.06.2-.12.29-.18.1-.06.19-.11.28-.15,0,0,0,0,0,0,.07-.05.15-.09.25-.14.1-.05.21-.11.33-.17.01,0,.02-.02.03-.03l.41-.71s.01-.04,0-.07c-.01-.02-.03-.03-.05-.04-.27-.05-.49-.09-.69-.13-.23-.05-.45-.1-.67-.17l-1.21-.36s-.07.01-.09.04c-.06.16-.13.32-.2.48,0,0-.08.17-.08.17l-.11.23s-.01.04,0,.07c0,.02.02.03.04.03l.99.28c.05.02.12.03.21.05h.07s.22.06.22.06c.11.02.21.04.28.06,0,0,.02,0,.03,0l-1.75,1.17s-.04.05-.03.08l.04.11s.04.05.07.05h.02s.09,0,.12,0c.05,0,.07,0,.1,0h.01s.05,0,.07,0c.03,0,.07.01.1.02,0,0,.02,0,.08.04.03.02.07.03.12.05l.06.03c.07.03.13.08.18.15.06.08.11.17.16.3.05.13.08.25.08.38,0,.12,0,.25-.03.37-.03.13-.07.25-.12.36-.05.11-.1.23-.16.33-.07.11-.14.22-.22.33-.07.1-.14.19-.2.26l-.53-.73s-.06-.04-.09-.02l-.06.03c-.06.03-.12.06-.17.08-.07.04-.13.06-.17.08-.02,0-.04.02-.06.02-.04.02-.08.03-.12.05,0,0-.28.11-.28.11-.02,0-.04.02-.04.04,0,.02,0,.05.01.06l.65.94s.05.04.08.02l.26-.09c.07-.03.14-.05.21-.07.06-.02.12-.04.19-.06,0,0,.04-.01.04-.01.06-.02.12-.03.18-.05.08-.02.16-.04.23-.07.08-.01.16-.04.25-.05.08-.02.15-.03.2-.04.06,0,.09-.02.12-.03.01,0,.02-.01.03-.02.11-.13.22-.27.31-.4.09-.13.18-.27.25-.39.08-.14.15-.28.2-.42.06-.15.1-.3.14-.45.05-.21.07-.41.06-.58-.01-.17-.06-.33-.14-.47-.08-.13-.16-.24-.23-.33Z"/>
          <path class="cls-5" d="M98.19,107.44c-.06-.06-.12-.13-.21-.2-.07-.06-.15-.11-.22-.14-.05-.03-.12-.06-.21-.1-.08-.03-.16-.07-.25-.11h0l-.21-.07s-.05,0-.07.02c-.1.1-.22.21-.35.31-.13.11-.26.2-.39.29,0,0-.16.11-.16.11-.01,0-.03.02-.03.04l-.46,1.95-.71.39s-.03.03-.04.05c0,.02,0,.04,0,.06l.88,1.24s.03.03.05.03c.02,0,.04,0,.05-.01.03-.03.08-.05.14-.08.05-.03.12-.05.2-.1.07-.04.16-.07.25-.12.08-.03.15-.06.22-.09,0,.06,0,.11.02.16.02.09.04.17.08.24.03.07.07.15.12.22.04.06.09.12.16.2.01.02.04.03.06.02,0,0,.03,0,.09-.04.04-.02.09-.04.17-.09.07-.04.12-.07.16-.09.05-.03.07-.04.08-.05.05-.02.33-.14.33-.14l.15-.06s.04-.02.04-.04c0-.02,0-.04,0-.05l-.05-.14s-.06-.05-.09-.04l-.06.02s-.04,0-.05-.01c-.02,0-.03-.02-.05-.04-.03-.03-.04-.05-.05-.07-.01-.03-.02-.05-.02-.08,0,0,0,0,0,0,0-.03,0-.06,0-.09,0-.04.01-.08.03-.13,0-.02.02-.05.03-.08l.02-.06.03-.1.02-.06s.48-1.53.48-1.53c.04-.15.07-.28.09-.4.02-.13.02-.25,0-.37,0-.11-.03-.22-.07-.32-.04-.11-.11-.19-.19-.27M97.27,108.66l-1.17.64c.04-.21.08-.42.14-.61.06-.22.12-.46.2-.72,0,0,.04-.11.07-.18.02,0,.04,0,.06,0,.02,0,.05,0,.07.01h.04s0,0,0,0c.02,0,.04.01.06.01.01,0,.03,0,.05.01,0,0,.01,0,.02,0s.01,0,.03,0c0,0,.03,0,.04.01.09.03.17.07.24.11.07.04.12.09.16.13.04.04.06.1.06.16,0,.07,0,.14-.03.22l-.05.16M96.69,110.6s-.03,0-.05,0c-.02,0-.04,0-.06-.01l-.05-.03-.05-.04s-.05-.04-.07-.07c0,0,0,0,0,0-.03-.03-.05-.06-.07-.09-.02-.03-.04-.06-.05-.1,0,0,0,0,0,0l-.3-.43,1.12-.63-.41,1.4Z"/>
          <path class="cls-5" d="M103.35,112.2c.07-.1.14-.2.19-.31.06-.11.11-.22.16-.34.05-.13.1-.27.13-.41.04-.13.06-.27.07-.41,0-.14,0-.27,0-.39-.02-.13-.05-.24-.1-.34-.04-.1-.09-.2-.14-.28-.06-.09-.11-.16-.17-.22-.07-.07-.13-.13-.2-.18,0,0-.15-.13-.15-.13l-.08-.07s-.05-.02-.08,0l-.82.42c0-.1-.02-.2-.05-.28-.03-.12-.08-.23-.14-.31-.06-.09-.14-.18-.24-.27-.1-.1-.22-.19-.34-.27-.02-.01-.05-.02-.07,0l-.9.44c-.01-.16-.04-.32-.09-.47-.06-.17-.14-.34-.24-.52-.02-.03-.06-.05-.09-.03l-1.08.52s-.05.06-.04.09l.04.11s.03.04.06.05h.11s.09.06.12.1c.02.04.04.08.05.13,0,.05,0,.11,0,.15,0,.05,0,.09-.02.12-.01.05-.03.09-.04.13-.01.04-.02.07-.03.1,0,0-.56,1.43-.56,1.43-.03.08-.07.16-.09.23-.02.06-.03.13-.05.2,0,.08,0,.15.01.22.02.09.04.17.07.25.03.08.07.17.12.26.05.09.11.18.16.25.06.08.12.16.19.23.07.07.14.14.23.21.02.02.05.02.08.01.14-.07.29-.13.47-.21.15-.06.29-.11.42-.16.02.08.05.17.08.26.04.1.09.2.15.3.05.09.12.18.19.27.07.09.15.18.26.27.02.02.04.03.07.02.06-.01.13-.03.22-.05,0,0,.02,0,.02,0,.06-.02.13-.04.2-.05h.02c.07-.02.14-.03.2-.04l.14-.03h.07c.08-.03.14-.04.21-.04.06-.01.12-.02.19-.02.08,0,.14,0,.2-.01.07,0,.14-.01.22-.02.02,0,.04-.01.05-.03l.13-.16c.09-.11.18-.23.28-.36.08-.11.16-.22.23-.32M100.16,111.94c-.06-.02-.12-.06-.19-.1-.06-.05-.13-.11-.19-.18-.06-.08-.11-.15-.14-.2-.03-.05-.05-.1-.06-.16,0-.05,0-.1,0-.14,0-.04,0-.07.02-.1.01-.04.03-.07.04-.11,0,0,0,0,0,0,.01-.03.03-.06.04-.09v-.03s.69-1.71.69-1.71c.02,0,.04.01.07.02.03,0,.05.01.08.02.03.01.06.02.09.03.03.01.06.03.09.05.04.02.08.05.12.08.05.03.08.06.11.1.03.04.04.1.05.16,0,0,0,0,0,0,.02.06.02.13,0,.2-.01.08-.04.16-.07.25,0,0-.58,1.47-.58,1.47-.01.04-.03.08-.04.11v.02s-.04.08-.05.13c0,0,0,0,0,0-.02.04-.03.08-.04.12,0,.01,0,.03,0,.05h-.06M102.12,109.84l.07.03c.05.03.11.06.16.1.05.04.1.09.16.15.05.05.1.11.13.17.03.05.05.11.07.19.02.07.02.14.02.21,0,.08-.02.16-.03.23-.02.07-.04.14-.07.22v.03c-.04.11-.08.2-.12.29-.04.11-.09.22-.15.32-.06.11-.12.21-.19.32-.08.12-.15.23-.22.32-.07.09-.13.17-.19.25-.07-.04-.13-.09-.18-.13-.06-.06-.11-.12-.15-.2-.04-.07-.07-.13-.09-.2-.03-.06-.03-.09-.03-.11,0-.03,0-.06.01-.1,0-.04.02-.08.03-.14l.75-1.98Z"/>
          <path class="cls-5" d="M106.88,111.77c-.02-.11-.07-.21-.13-.31-.06-.09-.12-.17-.17-.23-.06-.07-.12-.13-.19-.18-.06-.05-.13-.1-.19-.14,0,0-.06-.04-.06-.04l-.16-.11s-.2-.11-.2-.11c-.02-.01-.05,0-.07,0-.14.09-.27.17-.4.24-.14.08-.29.15-.43.21l-.18.08s-.03.02-.04.04l-.79,1.83-.77.24s-.03.02-.04.04c0,.02,0,.04,0,.06l.65,1.39s.02.03.04.04c.02,0,.04,0,.06,0,.04-.02.09-.04.15-.05l.22-.06.27-.07c.07-.02.15-.03.23-.05,0,.06,0,.11,0,.17,0,.1.02.18.04.26.02.08.04.16.08.24.03.07.07.14.12.23.01.02.04.03.06.03.02,0,.04,0,.1-.02.03,0,.07-.02.11-.03l.07-.02s.05-.02.05-.02c.05-.02.09-.03.12-.04.04-.01.07-.02.08-.03.04-.01.35-.08.35-.07l.16-.03s.04-.01.05-.03c.01-.01.01-.03.01-.05l-.03-.15s-.04-.06-.08-.06h-.06s-.03,0-.05-.02c-.02-.01-.03-.03-.04-.05,0,0,0,0,0,0-.02-.02-.03-.05-.03-.07,0-.03,0-.06,0-.09,0-.04,0-.07.01-.09.01-.04.03-.08.05-.12,0-.02.03-.05.04-.07l.03-.06.03-.07.04-.08.74-1.41c.07-.12.12-.25.16-.37.04-.12.06-.23.07-.36.01-.11,0-.23-.02-.33M105.63,112.49l-1.26.4c.08-.19.15-.39.24-.58.1-.22.21-.45.33-.67,0,0,.06-.1.1-.16.02,0,.04.01.06.02,0,0,.04.01.04.01.02.01.05.02.07.03,0,0-.01,0-.02-.01.02.02.04.03.07.03,0,0,.02,0,.04.02,0,0,.02,0,.03,0,0,0,.01,0,.02,0,0,0,.01.01.02.01,0,0,.01,0,.02.01,0,0,0,0,0,0,.09.05.17.1.22.16.06.05.1.11.13.16.03.05.04.1.04.17,0,.07-.03.14-.07.21l-.08.15M104.72,114.3s-.03,0-.05,0c-.03-.01-.05-.02-.05-.03-.02-.02-.03-.04-.05-.05l-.03-.03s-.04-.06-.06-.09c0,0,0,0,0,0-.02-.03-.04-.06-.05-.09-.01-.03-.03-.07-.04-.1,0,0,0,0,0-.01l-.21-.48,1.21-.4-.65,1.3Z"/>
        </g>
      </g>
      <g>
        <path class="cls-7" d="M75.5,50.86l-1.52-.63-3.16.92c.14,1.32.49,2.48.56,2.71.99.62,2.08,1.1,3.24,1.42.14-.87.46-2.68.87-4.42Z"/>
        <path class="cls-7" d="M84.88,37.41l-3.4,1c-.1.03-.2.02-.3-.01l-1.94-.8h-3.12l-1.94.8c-.09.04-.2.04-.29.01l-3.4-1c-1.3,1.3-2.26,2.92-2.52,3.38l.19.92c1.11-.27,4.21-.89,9.53-.89s8.41.62,9.53.89l.19-.92c-.26-.47-1.22-2.08-2.52-3.38Z"/>
        <path class="cls-7" d="M87.1,45.13v-2.52c-.94-.23-4.04-.89-9.42-.89s-8.49.65-9.43.89v2.52c.94.24,4.04.89,9.43.89s8.48-.65,9.42-.89Z"/>
        <path class="cls-7" d="M79.85,50.86c.42,1.74.73,3.55.88,4.42,1.16-.31,2.24-.79,3.23-1.41.07-.22.43-1.38.57-2.71l-3.15-.92-1.53.63Z"/>
        <path class="cls-7" d="M87.2,46.02c-1.14.28-4.26.89-9.53.89s-8.42-.61-9.53-.89l-.19.93c.26.47,1.22,2.08,2.52,3.38l3.4-1c.09-.03.2-.02.29.02l1.94.8h3.12l1.94-.8c.09-.04.2-.04.3-.02l3.4,1c1.29-1.3,2.25-2.91,2.52-3.38l-.19-.93Z"/>
        <path class="cls-7" d="M78.98,51.04h-2.6c-.42,1.76-.74,3.6-.88,4.44.71.13,1.44.2,2.18.2s1.47-.07,2.18-.2c-.14-.84-.46-2.68-.88-4.44Z"/>
        <path class="cls-7" d="M69.92,51.03c-1.66-1.64-2.78-3.72-2.82-3.8-.05-.09-.07-.2-.04-.3l.31-1.5v-3.11l-.31-1.5c-.02-.1,0-.21.04-.3.05-.09,1.17-2.16,2.82-3.8.06-.76.2-1.47.33-2.03-2.67,2.17-4.38,5.47-4.38,9.18s1.71,7.01,4.38,9.18c-.13-.56-.26-1.26-.33-2.02Z"/>
        <path class="cls-7" d="M85.1,34.69c.13.56.26,1.26.33,2.03,1.66,1.64,2.78,3.71,2.82,3.8.05.09.06.2.04.3l-.31,1.5v3.12l.31,1.5c.02.1,0,.2-.04.3-.05.09-1.16,2.17-2.82,3.8-.07.76-.2,1.47-.33,2.02,2.68-2.17,4.39-5.47,4.39-9.18s-1.71-7.02-4.39-9.18Z"/>
        <path class="cls-7" d="M79.85,36.88l1.53.63,3.15-.92c-.14-1.34-.5-2.5-.57-2.71-.99-.62-2.08-1.1-3.23-1.41-.14.87-.46,2.68-.88,4.42Z"/>
        <path class="cls-7" d="M75.5,36.88c-.42-1.74-.73-3.55-.87-4.42-1.16.31-2.25.79-3.24,1.42-.07.22-.43,1.38-.57,2.71l3.15.92,1.53-.63Z"/>
        <path class="cls-7" d="M76.38,36.7h2.6c.42-1.76.74-3.6.88-4.44-.71-.13-1.44-.2-2.18-.2s-1.48.07-2.18.2c.14.84.46,2.68.88,4.44Z"/>
      </g>
      <g>
        <path class="cls-8" d="M98.21,76.65s-.09.1-.13.14c-.04.04-.08.08-.11.12-.03.04-.06.09-.08.13-.03.04-.05.09-.08.13-.04.1-.08.19-.12.27-.04.08-.06.14-.09.2l-2.25-.09c-.1,0-.2.01-.31.02-.11,0-.22,0-.34.01-.11.01-.23.03-.35.04-.12,0-.23.03-.35.05.02-.16.04-.33.05-.51.02-.18.02-.36.02-.55h.26c.18,0,.35-.01.5-.04.15-.03.28-.08.39-.14.12-.06.24-.14.36-.24.12-.1.24-.21.37-.35.12-.14.24-.28.35-.45.12-.17.23-.35.35-.55.11-.2.19-.39.24-.58.06-.19.08-.37.08-.55,0-.27-.04-.51-.13-.73-.09-.22-.22-.41-.39-.59-.18-.17-.39-.31-.63-.4-.24-.09-.52-.13-.83-.13-.13,0-.24.01-.34.03-.1.02-.19.05-.27.09-.07.03-.14.06-.2.09-.06.03-.12.06-.17.08l-.07-.1c.2-.19.41-.39.61-.59.2-.2.4-.4.6-.61.07,0,.16.01.25.01.09,0,.19.01.28.03.1,0,.22.03.36.08.14.05.29.1.47.17.18.07.36.17.53.3.18.13.36.29.53.48.18.18.31.4.4.67.09.26.13.56.13.9s-.04.65-.11.94c-.08.29-.19.55-.34.78-.15.23-.33.46-.55.68-.22.22-.48.44-.78.65h.18c.08,0,.18,0,.29,0h.16c.06,0,.1,0,.15-.01h.23l.69-.07s.03.04.04.06c.01.01.02.03.03.04.01,0,.03.02.04.04,0,.02.02.03.03.05h0Z"/>
        <path class="cls-8" d="M102.26,72.83c.06.12.11.24.16.37.05.12.09.26.12.41.04.14.06.29.07.44.01.15.02.31.02.47,0,.18-.01.37-.04.56-.02.18-.06.37-.1.56-.04.18-.09.36-.16.53-.07.17-.14.34-.24.5-.02,0-.05.01-.07.02-.03,0-.05,0-.09,0-.09,0-.19,0-.31-.02-.11-.01-.23-.04-.36-.07-.13-.04-.23-.08-.32-.12-.09-.04-.16-.09-.22-.16-.14-.12-.25-.25-.34-.37-.09-.12-.15-.25-.18-.37-.04-.12-.07-.28-.08-.47-.02-.19-.03-.42-.03-.68,0-.19,0-.37.02-.55,0-.17.03-.34.06-.5.03-.15.06-.29.09-.41.03-.12.06-.21.09-.3.04-.08.07-.16.1-.25.03-.09.07-.18.11-.28.03,0,.07-.01.09-.02.03,0,.06,0,.09,0,.03,0,.06-.01.09-.01h.09c.16,0,.31.02.44.05.13.03.25.08.37.15.12.07.22.14.3.24.09.09.16.19.23.29h0M102.65,76.91c.14-.15.28-.28.41-.39.13-.11.27-.21.39-.3.08-.14.14-.28.2-.43.05-.15.1-.3.14-.46.03-.16.06-.3.08-.45.02-.14.03-.27.03-.39,0-.22-.01-.44-.04-.65-.03-.21-.06-.42-.11-.63-.05-.21-.13-.44-.23-.69-.11-.24-.25-.5-.41-.77-.17-.28-.39-.49-.65-.63-.27-.14-.58-.21-.94-.21-.05,0-.11,0-.18,0-.07,0-.14.01-.22.02-.09.01-.16.02-.22.03-.06.01-.12.02-.18.03-.1.16-.21.32-.32.47-.11.15-.22.31-.34.45-.11.14-.24.28-.37.43-.13.15-.27.29-.42.43l-.11.12c-.04.17-.08.33-.11.5-.03.16-.06.31-.08.46-.02.15-.03.3-.04.45,0,.15-.01.31-.01.48,0,.49.06.92.18,1.28.12.36.3.66.54.9.24.23.52.4.84.51.32.11.68.17,1.07.17h.07s.05,0,.08,0h.16c.06-.07.13-.14.19-.21.06-.06.12-.12.18-.18.06-.06.12-.12.19-.18.07-.06.13-.14.21-.22h0Z"/>
        <path class="cls-8" d="M107.8,72.83c.06.12.11.24.16.37.05.12.09.26.12.41.04.14.06.29.07.44.01.15.02.31.02.47,0,.18-.01.37-.04.56-.03.18-.06.37-.1.56-.04.18-.09.36-.16.53-.07.17-.15.34-.24.5-.02,0-.04.01-.07.02-.03,0-.06,0-.09,0-.09,0-.19,0-.31-.02-.11-.01-.23-.04-.36-.07-.13-.04-.24-.08-.33-.12-.09-.04-.16-.09-.22-.16-.13-.12-.25-.25-.33-.37-.09-.12-.15-.25-.18-.37-.04-.12-.06-.28-.08-.47-.02-.19-.03-.42-.03-.68,0-.19,0-.37.02-.55.01-.17.03-.34.06-.5.03-.15.06-.29.08-.41.03-.12.06-.21.09-.3.04-.08.07-.16.1-.25.03-.09.07-.18.11-.28.04,0,.07-.01.1-.02.03,0,.06,0,.09,0,.03,0,.06-.01.09-.01h.09c.16,0,.31.02.44.05.13.03.25.08.37.15.12.07.22.14.31.24.08.09.16.19.23.29h0M108.19,76.91c.14-.15.28-.28.41-.39.13-.11.27-.21.39-.3.08-.14.14-.28.2-.43.06-.15.1-.3.14-.46.03-.16.07-.3.08-.45.02-.14.03-.27.03-.39,0-.22-.01-.44-.04-.65-.03-.21-.06-.42-.11-.63-.05-.21-.13-.44-.23-.69-.11-.24-.25-.5-.41-.77-.17-.28-.39-.49-.66-.63-.27-.14-.58-.21-.94-.21-.05,0-.11,0-.17,0-.07,0-.14.01-.22.02-.08.01-.16.02-.22.03-.06.01-.12.02-.18.03-.11.16-.21.32-.32.47-.11.15-.22.31-.34.45-.11.14-.24.28-.37.43-.13.15-.27.29-.41.43l-.11.12c-.04.17-.08.33-.11.5-.03.16-.06.31-.08.46-.02.15-.04.3-.05.45,0,.15,0,.31,0,.48,0,.49.06.92.18,1.28.12.36.3.66.54.9.24.23.52.4.84.51.32.11.68.17,1.08.17h.08s.05,0,.08,0h.16c.06-.07.13-.14.19-.21.06-.06.13-.12.18-.18.06-.06.12-.12.19-.18.07-.06.13-.14.21-.22h0Z"/>
        <path class="cls-8" d="M113.83,75.52c0,.12,0,.23-.02.34-.01.11-.03.21-.05.31-.02.09-.04.19-.07.28-.03.09-.05.19-.09.29-.02,0-.04.01-.06.02-.02,0-.04.01-.06.01-.02,0-.04,0-.07,0h-.06c-.18,0-.36-.04-.56-.12-.19-.08-.39-.2-.6-.36-.21-.16-.38-.36-.51-.59-.14-.23-.24-.5-.31-.81.06-.07.12-.13.17-.18.06-.05.13-.1.2-.14.07-.03.16-.07.26-.09.1-.02.21-.04.33-.04.19,0,.37.03.54.09.17.05.34.13.5.24.16.11.28.23.36.35.08.12.12.25.12.38h0M114.21,72.27s0-.08,0-.14v-.99c-.14-.03-.27-.07-.41-.09-.14-.03-.27-.05-.41-.07-.14-.01-.28-.03-.41-.04-.14-.01-.27-.02-.42-.02-.13,0-.24,0-.34.03-.1.01-.19.03-.27.05-.08.02-.17.05-.27.1-.1.04-.21.1-.33.17-.08.17-.16.32-.24.47-.08.14-.16.28-.24.4-.08.12-.17.24-.28.37-.11.13-.23.26-.38.41-.03.13-.05.25-.06.37-.02.12-.03.24-.04.36,0,.12-.01.24-.01.37,0,.12,0,.26,0,.4,0,.31.03.59.07.83.05.25.13.46.23.65.1.19.2.34.29.48.1.14.19.26.28.36.09.1.19.19.3.28.11.09.22.18.33.26.12.08.23.15.34.21.11.05.21.09.31.1.1.01.21.03.32.04.12.01.24.02.37.02.12-.09.25-.19.37-.29.13-.1.26-.2.39-.29.14-.1.29-.19.44-.28.15-.1.31-.19.48-.29.08-.22.15-.45.2-.68.04-.23.07-.46.07-.69,0-.15-.01-.28-.04-.41-.02-.13-.06-.24-.11-.34-.05-.1-.12-.2-.2-.29-.08-.09-.18-.18-.3-.26-.11-.09-.23-.16-.36-.23-.13-.06-.26-.11-.39-.15-.14-.04-.27-.07-.41-.09-.14-.02-.28-.03-.42-.03-.11,0-.21,0-.29.02-.08.02-.14.03-.2.05-.05.03-.11.06-.17.09-.06.03-.13.06-.19.09l-.51,1.06-.04-.28c0-.09-.01-.18-.02-.26-.01-.09-.03-.17-.04-.25,0-.08-.01-.17-.02-.26,0-.1,0-.19,0-.29,0-.18.01-.35.04-.51.03-.16.07-.31.12-.45.1-.08.2-.15.28-.2.08-.05.14-.09.19-.11.06-.02.14-.04.25-.05.11,0,.24-.02.41-.02s.32.01.47.02c.15.02.3.03.44.06.14.02.28.05.43.09.14.04.28.08.41.12h0Z"/>
      </g>
      <g>
        <path class="cls-8" d="M45.21,72.18c-.16-.08-.33-.14-.5-.19-.17-.05-.35-.09-.54-.12-.18-.04-.38-.07-.57-.08-.2-.02-.4-.02-.62-.02-.18,0-.36,0-.53.02-.17,0-.33.03-.48.05-.15.02-.3.05-.45.1-.16.04-.32.1-.49.16-.04.12-.08.24-.12.37-.04.13-.06.25-.08.38-.02.13-.04.25-.05.37-.01.12-.02.24-.02.36v.2l2.84-.02,1.67-.07v.56s.01.67.01.67c-.1,0-.21-.01-.34-.02-.13,0-.27,0-.43-.01h-.23c-.08,0-.15,0-.21-.01h-.42l-2.76.02c.02.19.05.37.11.53.07.16.15.32.25.46.1.14.23.27.38.38.15.12.32.21.52.29.2.08.41.13.62.17.22.04.44.06.66.06.21,0,.41,0,.59,0,.18-.01.35-.02.5-.03.15-.01.28-.04.4-.06.12-.02.21-.05.29-.08.08-.04.15-.07.2-.09.05-.02.1-.05.12-.07.04-.02.07-.04.09-.05.02-.02.04-.03.04-.03l.1.09-.54.69-.48.77h-.21s-.92.06-.92.06c-.31,0-.61-.01-.88-.04-.28-.03-.54-.06-.8-.12-.25-.06-.48-.15-.7-.25-.22-.11-.42-.25-.6-.41-.19-.16-.35-.35-.49-.57-.14-.22-.25-.46-.34-.73-.09-.27-.15-.54-.2-.82-.05-.28-.07-.56-.07-.85,0-.26.01-.51.03-.77.02-.26.06-.52.1-.78l.67-.55c.08-.07.17-.15.24-.23.08-.08.16-.15.23-.23.08-.08.17-.17.25-.27.09-.1.18-.21.28-.33l.14-.17c.29-.09.57-.16.86-.2.29-.05.58-.07.87-.07.15,0,.3,0,.44,0,.14,0,.26.01.37.02.11.01.22.03.35.04.12.02.24.04.36.07l.38.1v.58l.05.77Z"/>
        <path class="cls-8" d="M47.89,72.92c-.03.07-.04.14-.06.2-.02.06-.03.13-.05.19-.01.07-.03.13-.04.2,0,.07-.01.13-.01.21,0,.13,0,.23.03.32.02.09.04.16.08.22.04.05.1.11.17.17.08.06.17.11.29.16.04.02.07.04.1.06.03.01.06.03.09.04.03,0,.07.02.12.03.05,0,.1.01.16.01l.64-.86c.16,0,.32.03.48.05.16.03.33.07.5.12.18.05.34.13.47.22.13.1.24.21.31.34.09.14.15.28.19.45.04.17.06.34.06.53,0,.08,0,.15,0,.22,0,.07-.01.12-.02.16-.01.05-.03.13-.06.25-.03.12-.07.27-.11.46l-.04.12c-.08.05-.15.1-.22.14-.07.04-.13.07-.19.11-.06.03-.12.07-.2.12-.08.05-.17.1-.29.17-.1.06-.19.11-.24.15-.06.03-.1.06-.11.06,0,0-.03.03-.08.08-.05.04-.11.1-.2.18-.1-.01-.22-.03-.36-.03-.13,0-.28-.01-.45-.02h-.24c-.08,0-.15,0-.24-.01h-.44c-.07,0-.16,0-.27,0-.1,0-.23.01-.36.03-.14,0-.26.01-.37.02-.1,0-.19,0-.26,0h-.14c.03-.05.06-.12.1-.21.04-.09.08-.19.13-.31.05-.12.09-.23.14-.35.04-.11.09-.22.13-.32l3.15.04c.01-.08.03-.15.04-.21.01-.06.02-.12.02-.17v-.27c0-.09,0-.16-.02-.23-.01-.07-.03-.13-.04-.18-.02-.05-.04-.11-.08-.16-.03-.05-.08-.1-.13-.15-.06-.05-.12-.09-.18-.12-.07-.04-.14-.07-.22-.09-.07-.03-.16-.04-.24-.06-.08-.01-.17-.01-.27-.01-.02,0-.04.01-.06.02-.02,0-.03.02-.05.02,0,.02-.03.06-.08.11-.05.06-.11.14-.19.24-.08.1-.15.19-.2.28-.05.08-.1.15-.14.21-.29-.06-.52-.12-.69-.16-.17-.05-.3-.09-.37-.12-.07-.03-.14-.06-.2-.1-.07-.04-.13-.1-.2-.15-.07-.06-.12-.13-.16-.2-.04-.07-.08-.15-.1-.24-.02-.09-.04-.18-.05-.27-.02-.1-.02-.19-.02-.3,0-.13,0-.25.01-.36,0-.11.01-.22.02-.33.02-.1.03-.2.05-.29.02-.09.04-.19.06-.28.06-.04.13-.08.2-.13.07-.04.13-.1.18-.15.06-.05.13-.1.18-.15.06-.05.12-.1.19-.16.07-.05.13-.11.21-.17.08-.06.15-.13.23-.2.08-.06.15-.13.21-.19.06-.06.11-.12.16-.17.1.02.21.04.32.05.11.02.23.02.35.03.12,0,.23.01.35.02.12,0,.22,0,.34,0,.1,0,.22,0,.35,0,.13,0,.28,0,.45-.02.16-.01.28-.02.38-.03.1,0,.16,0,.18,0l.15,1.21-3.2-.11Z"/>
        <path class="cls-8" d="M55.15,73.04v-.89h-1.23l.08-1.45-1.03,1.25-1.03,1.09h.72v3.08c0,.24.03.47.1.67.07.2.17.37.31.52.14.14.3.26.5.36.2.1.42.17.68.23l1.06-1.19-.11-.14s-.02.01-.02.02c0,.01-.02.01-.03.01-.01,0-.02.02-.02.03,0,0-.02.01-.04.03-.03.01-.04.03-.07.04-.02.01-.04.01-.05.01,0,0-.02.01-.05.01h-.07c-.07,0-.14,0-.2-.02-.06-.01-.13-.04-.19-.07-.05-.04-.11-.08-.17-.12-.05-.04-.11-.09-.16-.15-.05-.06-.09-.12-.11-.17-.03-.06-.05-.12-.07-.2,0-.06-.01-.14-.02-.22,0-.09-.01-.19-.01-.3v-2.42h1.23Z"/>
        <path class="cls-8" d="M57.35,74.91c0-.17,0-.34.02-.51.02-.17.04-.33.07-.49.03-.16.07-.32.11-.5.05-.17.1-.36.16-.55l1.31.58v2.89s.02.21.02.21l-.25.06s-.09.02-.14.03c-.04,0-.09,0-.14,0-.19,0-.35-.03-.49-.1-.14-.06-.25-.16-.33-.28-.09-.12-.15-.24-.2-.34-.05-.1-.08-.19-.11-.26-.01-.08-.03-.18-.04-.3-.01-.12-.02-.27-.02-.44h0M58.37,71.94l-1.82,1.08c-.08.21-.16.42-.22.62-.06.2-.11.4-.15.59-.04.19-.07.38-.09.58-.02.2-.03.41-.03.63s.02.44.07.65c.04.21.11.41.19.62.09.2.2.37.31.5.11.13.23.24.36.3.13.07.25.13.37.18.12.04.23.08.32.1.1.02.2.03.31.05.1.01.2.04.29.07l.37-.6c.03-.05.07-.11.1-.15.04-.05.07-.09.1-.13.03-.04.06-.08.1-.13.04-.05.08-.09.13-.14.04.12.09.22.14.32.06.1.12.19.19.26.07.07.13.13.19.19.06.05.11.1.15.13.05.03.11.06.19.1.08.04.17.08.29.13.08-.12.15-.23.23-.35.07-.11.15-.22.23-.33.08-.11.16-.22.24-.32.08-.11.16-.21.25-.31l-.07-.15-.12.02c-.13.01-.25,0-.34-.03-.09-.04-.16-.1-.21-.2-.05-.09-.08-.18-.11-.26-.02-.08-.04-.16-.05-.22,0-.06-.01-.14-.02-.25,0-.1,0-.21,0-.34v-3.37l.03-1.35v-.27c-.1,0-.21.02-.32.02-.11,0-.21.01-.32.01h-.18c-.05,0-.11,0-.17-.01-.06,0-.11,0-.17,0-.06,0-.12,0-.17-.02l.05.98v1.11l-.67-.34Z"/>
      </g>
    </g>
  </g>
</svg>