<?xml version="1.0" encoding="UTF-8"?>
<svg id="_レイヤー_2" data-name="レイヤー 2" xmlns="http://www.w3.org/2000/svg" xmlns:xlink="http://www.w3.org/1999/xlink" viewBox="0 0 426.45 440.34">
  <defs>
    <style>
      .cls-1 {
        fill: none;
      }

      .cls-2 {
        fill: #ffe100;
      }

      .cls-3 {
        fill: #b8193f;
      }

      .cls-4 {
        fill: #182448;
      }

      .cls-5 {
        fill: #231815;
      }

      .cls-6 {
        fill: #beb1aa;
      }

      .cls-7 {
        fill: #fff;
      }

      .cls-8 {
        clip-path: url(#clippath);
      }
    </style>
    <clipPath id="clippath">
      <path class="cls-1" d="M390.82,215.51c.07-12.48-5.34-22.51-15.59-29.01-.69-.44-1.39-.87-2.1-1.27-.77-.43-1.55-.84-2.34-1.22-11.63-5.66-23.67-4.47-34.13-2.53-5.83,1.33-9.44,2.5-11.73,3.46-1.46-1.46-3.03-2.83-4.74-4.06-.97-.67-6.37-4.22-14.14-5.76-.48-2.22-.98-3.96-1.26-4.88-.01-.05-.23-.79-.25-.84-1.29-3.88-4.25-11.62-9.67-19.88-6.79-10.33-15.01-17.71-24.47-21.94-15.14-6.65-28.99-3.93-42.62,8.54-6.18,6.4-11.52,14.17-15.86,23.09-.54,1.11-4.52,10.55-4.96,11.85-1.56,4.27-6.56,19.26-5.14,33,.89,10.46,5.87,20.96,12.99,27.4.12.11.54.44.67.53,7.93,6.02,16.66,9.06,25.97,9.06,1.13,0,2.27-.05,3.42-.13,12.04-.93,21.22-4.6,21.5-4.72,1.18-.45,2.22-.93,3.33-1.4,3.32,4.59,7.6,8.47,12.65,11.05,6.29,3.17,11.22,4.29,15.8,4.29.67,0,1.31-.14,1.97-.18.25.54.51,1.09.92,1.73,9.83,18.51,24.18,24.85,33.23,24.46.58.03,1.17.05,1.76.05,15.77,0,33.7-11.17,44.43-28.16l.53-.88c3.53-5.77,8.86-14.49,9.84-31.64Z"/>
    </clipPath>
  </defs>
  <g id="_レイヤー_1-2" data-name="レイヤー 1">
    <g>
      <path class="cls-3" d="M426.45,223.36c0,117.76-84.41,196.43-213.22,196.43S0,341.12,0,223.36,95.46,10.14,213.22,10.14s213.22,95.46,213.22,213.22Z"/>
      <g>
        <g>
          <path class="cls-5" d="M419.37,291.48c-1.3-.72-2.84-1.24-3.79-1.44-6.8-1.4-13.63-2.18-20.3-2.33-3.7-.09-7.15,0-10.49.16-1.79-20.1-8.09-39.28-19.25-58.23,1.62-9.72,2.12-22.35,2.52-32.64l.21-5.17c.84-18.74-5.88-43.23-14.37-52.43-2.12-2.29-5.3-4.04-8.12-4.45-21.53-3.21-49.83,5.34-81.67,24.65l-4-.59c-26.16-3.9-58.73-8.74-102.99,1.53-1.4.32-2.94.78-4.54,1.26-2.36.71-6.75,1.98-7.92,1.68-8.49-4.63-30.26-15.7-49.1-18.48-17.51-2.61-29.07.83-34.5,10.3-15.36,28.84-7.65,69.02-4.43,79.41-15.99,30.99-15.68,63.83-15.59,67.43-.01.84.03,1.72.04,2.57-.84.06-1.6.09-2.47.16-8.92.71-17.79,1.58-28.05,4.43-3.34.92-6.4,3.14-5.81,5.58.47,1.92,2.84,2.34,4.83,2.34,1.54,0,2.85-.25,2.88-.26,10.62-2.16,16.01-2.74,23.46-3.55l3.14-.34c.81-.09,1.61-.13,2.42-.2.81,9.68,2.85,19.98,6.47,30.16-4.43,1.67-9.56,3.89-15.7,7.07-.04.02-3.97,2.08-4.74,4.61-.23.78-.15,1.56.23,2.24.62,1.11,1.92,1.46,3.31,1.46,2.3,0,4.82-.95,4.86-.96,1.84-.81,3.57-1.58,5.21-2.31,3.71-1.66,6.95-3.04,9.99-4.23,3.93,8.89,9.08,17.52,15.72,25.33-6.83,3.95-15.08,9.32-24.42,16.59-1.94,1.52-3.18,3.45-3.41,5.31-.12,1.04.11,1.99.65,2.66.41.51,1.18.73,2.1.73,1.62,0,3.71-.68,5.13-1.7,10.25-7.27,19.14-12.89,26.13-17.03,7.51,7.31,16.49,13.66,27.21,18.47,35.24,15.83,67.73,19.38,108.87,19.98l4.04-.06,4.35.06c47.35-.69,84.75-7.46,111.18-20.09,15.34-7.34,27.54-17.23,36.68-29.52,7.64,2.61,16.89,6.61,25.81,12.66,1.14.79,3.45,2.16,5.5,2.16.92,0,1.79-.27,2.47-1.01.29-.3.61-.85.53-1.73-.17-1.86-2.22-4.46-3.56-5.43-9.12-6.66-18.27-10.95-25.99-13.73,5.24-8.66,9.17-18.36,11.71-29.1,5.64.9,12.21,2.34,19.43,4.76.04,0,2.17.71,4.25.71,1.57,0,3.11-.39,3.7-1.78.27-.63.26-1.33-.03-2.02-1.03-2.48-5.38-4.31-5.42-4.33-7.12-2.81-14.11-4.47-20.29-5.48,1.35-8.13,2-16.79,1.93-25.98.02-1.57-.07-3.11-.1-4.67,2.93-.16,5.96-.26,9.15-.22,4.95.05,10.47.42,15.34.74,1.52.1,2.99.19,4.39.28,3.18.18,7.09-.41,7.57-2.73.17-.81-.11-2.03-2.36-3.29Z"/>
          <path class="cls-7" d="M354.43,229.66c1.76-9.12,2.28-22.41,2.7-33.09l.22-5.22c.75-16.96-5.66-38.22-11.48-44.52-.51-.56-1.4-.99-1.72-1.06-18.76-2.76-45.24,5.5-74.52,23.29-2.08,1.26-3.22,1.95-5.23,1.65l-5.9-.87c-25.23-3.76-56.65-8.44-98.91,1.36-1.2.27-2.52.67-3.87,1.08-5.38,1.6-11.45,3.43-16.29.79-7.97-4.35-28.36-14.74-45.47-17.27-12.59-1.85-20.44-.25-23.32,4.77-10.46,19.64-8.42,46.42-5.73,61.41.72-.85,1.42-1.62,2.06-2.27,2.63-2.63,5.32-3.59,7.15-2.33,1.91,1.32,1.15,4.66-.08,7.33-1.22,2.64-3.68,7.75-5.63,11.17,0,0,0,.01,0,.02-16.84,29.58-16.53,62.49-16.44,66.15,0,.74.03,1.51.04,2.26,9.3.02,14.98,1,17.88,1.74l.21.05c.06.01,7.61,1.41,7.17,5.04-.39,3.23-4.97,2.99-7.19,2.86l-.82-.06c-2.44-.37-8.95-1.24-16.84-1.4.79,8.78,2.71,18.08,6.01,27.23,4.52-1.04,7.71-1.27,9.83-1.4l.29-.02c2.79-.15,9.39-.25,9.72,3.06.3,2.87-4.87,4.24-7.1,4.69-1.03.21-2.16.36-3.41.53-1.74.24-3.73.52-6.08,1.02,3.77,8.24,8.76,16.14,15.13,23.23,6.62-3.21,10.44-4.39,10.52-4.41.06-.03,6.57-1.68,7.83,1.28,1.09,2.56-1.67,3.92-4.33,5.23-.85.42-1.74.86-2.54,1.35,0,0-.09.05-.26.13-1.03.51-2.75,1.4-5.02,2.62,6.16,5.55,13.31,10.42,21.7,14.19,33.52,15.06,64.79,18.44,104.38,19.02l4.04-.06,4.35.06c44.95-.67,81.82-7.24,106.47-19.02,12.35-5.91,22.36-13.53,30.14-22.88-3.71-.86-5.97-1.18-6.04-1.19-1.42-.14-5.85-1.17-7.33-3.18-.44-.61-.61-1.28-.47-1.94.75-3.62,7.31-2.9,10.08-2.42.35.03,3.75.38,9.02,1.65,5.2-7.94,9.02-16.96,11.52-27.09-2.33-.14-4.2-.17-5.48-.17-2.44.01-5.27-.05-5.27-.05-.73-.07-6.59-.76-6.81-3.68-.03-.39.05-.99.6-1.64,1.31-1.53,4.62-2.39,6.02-2.5l.31-.03c.84-.08,3.06-.3,5.3-.32h.61c1.62,0,3.81.05,6.41.22,1.29-7.67,1.93-15.89,1.86-24.73.01-1.24-.07-2.46-.09-3.69-6.84.85-12.46,1.97-16.29,2.73-1.96.39-3.38.68-4.24.78-1.38.2-2.56.3-3.55.3-2.31,0-3.58-.56-3.99-1.72-.29-.84-.23-1.74.18-2.58.73-1.52,2.53-2.8,5.19-3.71,2.09-.71,10.2-3.2,22.23-4.67-1.72-19.07-7.86-37.25-18.77-55.27-.7-1.16-.95-2.54-.69-3.87Z"/>
        </g>
        <g>
          <path class="cls-5" d="M115.38,311.28c-3.5,7.09-3.52,18.44,1.2,24.46,2.92,3.45,7.79,5.41,14.08,4.32,5.43-.94,8.52-5.9,9.54-9.84,2.23-8.83-.14-19.66-5.23-23.77-5.35-3.9-15.38-3.82-19.6,4.83Z"/>
          <path class="cls-5" d="M285.36,312.32c-3.5,7.09-3.52,18.44,1.2,24.46,2.92,3.45,7.79,5.41,14.08,4.32,5.43-.94,8.52-5.9,9.54-9.84,2.23-8.83-.14-19.66-5.23-23.77-5.35-3.9-15.38-3.82-19.6,4.83Z"/>
          <g>
            <path class="cls-5" d="M230.44,343.01c-1.17-4.15-4.32-7.43-8.43-8.76-7.86-2.54-15.81-1.48-20.76,2.79-5.15,4.56-5.4,12.64-2.18,16.83,2.99,3.87,7.72,5.9,14.47,6.2.31.01.63.02.94.02,5.4,0,10.44-1.98,13.3-5.26v-.02c2.83-3.28,3.82-7.69,2.66-11.8Z"/>
            <path class="cls-2" d="M219.9,340.76c-2.1-.68-4.24-1.01-6.25-1.01-3.19,0-6.05.84-7.91,2.44-2.45,2.17-2.29,6.18-1.26,7.52,1.68,2.18,4.73,3.34,9.34,3.54,4.27.17,7.45-1.38,8.79-2.9,1.34-1.56,1.79-3.55,1.24-5.48-.54-1.94-2.02-3.48-3.95-4.1Z"/>
          </g>
        </g>
      </g>
      <g>
        <g>
          <path class="cls-5" d="M174.34,401.05c-1.48-4.63-4.48-8.29-7.74-11.98-11.56-11.1-31.74-15.55-47.78-10.64-11.57,3.02-24.92,13.19-26.87,28.28-1.79,11.75,2.42,22.04,11.64,27.74,9.3,4.78,19.4,4.67,29.68-.17.87-.33,1.3-.24,3.57.72,1.42.61,3.16,1.34,5.27,1.7,3.57,1.03,6.75,1.46,9.57,1.46,7.45,0,12.37-3.02,15.43-6.04,7.97-7.83,10.93-20.6,7.22-31.08Z"/>
          <path class="cls-7" d="M164.01,404.64c-.03-.07-.05-.13-.07-.2-.83-2.64-3.05-5.31-5.25-7.81-8.4-8.05-24.39-11.46-36.89-7.67-8.41,2.2-17.77,9.66-19.02,19.28-.55,3.62-1.01,12.24,6.19,16.71,5.92,3.02,12.39,2.86,19.98-.7,1.9-.75,3.63-1.02,5.18-1.02,2.92,0,5.23.98,6.97,1.72,1.12.47,2.08.88,2.97,1.01.27.04.53.09.78.17,6.5,1.94,11.43,1.34,14.58-1.78,4.91-4.82,6.86-13.29,4.57-19.7Z"/>
        </g>
        <g>
          <path class="cls-5" d="M338.1,409c-1.98-15.2-15.32-25.37-26.67-28.32-16.26-4.97-36.44-.53-48.31,10.9-2.82,3.2-5.94,7-7.43,11.64-3.71,10.48-.74,23.25,7.22,31.08,3.06,3.02,7.99,6.04,15.44,6.04,2.81,0,5.99-.43,9.56-1.46,2.11-.36,3.85-1.1,5.27-1.7,2.28-.97,2.71-1.05,3.23-.87,10.6,4.99,20.72,5.1,30.41.1,8.83-5.48,13.03-15.76,11.26-27.41Z"/>
          <path class="cls-7" d="M327.27,410.53c-1.27-9.74-10.64-17.2-18.82-19.33-3.53-1.08-7.32-1.6-11.12-1.6-9.92,0-20,3.48-26.3,9.53-1.88,2.17-4.09,4.83-4.93,7.48-.02.07-.04.13-.07.2-2.29,6.41-.33,14.88,4.56,19.69,3.16,3.1,8.06,3.72,14.59,1.78.25-.07.51-.13.78-.17.89-.13,1.85-.53,2.97-1.01,2.66-1.14,6.68-2.83,11.81-.85,7.93,3.73,14.4,3.87,20.72.63,6.8-4.24,6.34-12.87,5.82-16.37Z"/>
        </g>
      </g>
      <g>
        <g class="cls-8">
          <rect class="cls-3" x="243.69" y="118.69" width="102.76" height="173.03" transform="translate(-15.61 385.91) rotate(-65)"/>
          <path class="cls-4" d="M181.07,250.79l.17-42.21c9.07-6.28,27.98-16.1,41.42-20.34,13.44-4.24,34.51-15.68,48.14-44.92,6.77-14.52,10.9-41.74,1.61-62.79,26.32,27.56,23,72.6,3.14,100.84,42.77-1.56,98.12,10.88,123.56-43.67,10.06-21.58,6.06-47.82-6.38-70.34,59.11,57.66,12.38,127.13-42.94,137.16,22.5,15.27,38.57,36.14,37.61,64.84-11.49-23.51-21.77-38.34-48.07-50.6-56.12-26.17-118.76-7.6-158.26,32.03Z"/>
        </g>
        <path class="cls-5" d="M390.82,215.51c.07-12.48-5.34-22.51-15.59-29.01-.69-.44-1.39-.87-2.1-1.27-.77-.43-1.55-.84-2.34-1.22-11.63-5.66-23.67-4.47-34.13-2.53-5.83,1.33-9.44,2.5-11.73,3.46-1.46-1.46-3.03-2.83-4.74-4.06-.97-.67-6.37-4.22-14.14-5.76-.48-2.22-.98-3.96-1.26-4.88-.01-.05-.23-.79-.25-.84-1.29-3.88-4.25-11.62-9.67-19.88-6.79-10.33-15.01-17.71-24.47-21.94-15.14-6.65-28.99-3.93-42.62,8.54-6.18,6.4-11.52,14.17-15.86,23.09-.54,1.11-4.52,10.55-4.96,11.85-1.56,4.27-6.56,19.26-5.14,33,.89,10.46,5.87,20.96,12.99,27.4.12.11.54.44.67.53,7.93,6.02,16.66,9.06,25.97,9.06,1.13,0,2.27-.05,3.42-.13,12.04-.93,21.22-4.6,21.5-4.72,1.18-.45,2.22-.93,3.33-1.4,3.32,4.59,7.6,8.47,12.65,11.05,6.29,3.17,11.22,4.29,15.8,4.29.67,0,1.31-.14,1.97-.18.25.54.51,1.09.92,1.73,9.83,18.51,24.18,24.85,33.23,24.46.58.03,1.17.05,1.76.05,15.77,0,33.7-11.17,44.43-28.16l.53-.88c3.53-5.77,8.86-14.49,9.84-31.64ZM262.38,226.03c-.08.03-8.08,3.2-18.35,4-11.86.91-19.43-4.84-21.86-6.66-5-4.52-8.79-12.65-9.44-20.32-1.18-11.5,3.16-24.5,4.61-28.46.39-1.06,3.95-9.56,4.44-10.58,3.84-7.89,8.51-14.71,13.65-20.05,10.24-9.37,19.4-11.28,30.55-6.38,7.49,3.35,14.14,9.39,19.76,17.95,4.91,7.49,7.54,14.6,8.31,16.89l.28.99c.1.33.23.76.37,1.26-3.11.38-6.39,1.21-9.75,2.67-.86.37-1.62.86-2.44,1.28-1.82-1.99-4.05-3.77-6.29-5.03-6.72-3.79-14.1-3.84-20.23-.13-6.58,3.99-10.45,11.71-9.86,19.43.23,6.03,2.69,11.15,7.12,14.81,2.87,2.37,6.27,3.78,9.4,4.6,0,.53-.07,1.05-.06,1.58.03,3.82.78,7.59,2.04,11.2-.76.31-1.43.63-2.24.94ZM264.08,201.36c-1.43-.51-2.96-1.24-4.22-2.39-1.79-1.63-2.7-3.75-2.82-6.69-.29-3.87,1.51-7.58,4.61-9.46,2.16-1.31,4.47-1.53,7.03-.66,2.02.68,3.67,1.86,4.89,2.98-4.48,4.46-7.75,9.98-9.49,16.22ZM306.82,237.72c-7.63,2.01-11.52,2.43-19.53-1.62-8.17-4.16-13.71-13.12-13.78-22.45-.43-11.81,5.61-21.88,15.77-26.27,3.44-1.49,6.74-2.04,9.76-2.04,8.04,0,14.02,3.92,14.84,4.48,9.02,6.49,13.33,17.87,10.68,28.49-2.48,11.48-10.79,17.55-17.74,19.41ZM371.52,241.65l-.6,1.01c-8.69,13.73-23.69,23.25-36.53,22.56-6.52.09-15.92-5.15-23.01-17.52,4.14-1.36,8.45-3.7,12.34-7.13,1.95,1.41,4.3,2.61,6.99,3.2,1.02.22,2.19.38,3.49.38,3.21,0,7.18-.98,11.47-4.37,4.8-4.81,6.43-10.35,4.84-17.48-2.81-8.53-9.52-11.12-14.3-12.03-.27-5.62-1.81-11.14-4.47-16.13,2.05-.65,4.63-1.36,7.15-1.93,8.49-1.57,18.34-2.61,27.17,1.67.59.28,1.14.58,1.7.89.53.3,1.04.61,1.59.96,7.15,4.52,10.6,10.98,10.56,19.45-.82,14.13-4.94,20.87-8.37,26.49ZM335.09,221.24c2.53.61,4.13,1.69,4.89,3.93.65,2.96.13,4.69-1.56,6.43-1.71,1.35-3.43,1.83-5.17,1.51-.94-.17-1.76-.56-2.49-1,1.88-3.15,3.38-6.76,4.33-10.88Z"/>
      </g>
    </g>
    <g>
      <path class="cls-1" d="M138.41,26.32c-3.09-1.16-6.16-2.35-9.32-3.62-.07-8.44-5.39-15.28-14.48-18.46l-12.11-4.24,10.36,7.56c4.38,3.19,7.06,7.35,7.53,11.57l-9.96-4.23c-14.15-6.09-22.69-9.77-32.8-9.77s-18.65,3.68-32.8,9.77l-9.99,4.24c.47-4.22,3.15-8.38,7.53-11.58L52.74,0l-12.11,4.24c-9.09,3.18-14.41,10.03-14.48,18.47-3.15,1.26-6.21,2.44-9.29,3.61l-1.23.46v19.78c0,27.45,9.78,49.73,29.08,66.29l-9.21,2.75-2.06.62.87,1.97c.62,1.4,2.34,1.95,3.71,1.77l.12-.02.11-.03,2.63-.69c-2.26,1.89-4.37,3.68-4.97,4.25l-3.64,3.49,5.04-.23c3.47-.16,5.35-1.62,7.26-3.38l6.67-5.39c2.92,2.1,5.98,4.09,9.14,5.91,1.85,1.07,4.11,2.23,6.29,3.36,3.85,1.99,7.82,4.04,9.77,5.62l1.19.97,1.19-.97c1.95-1.58,5.93-3.64,9.77-5.62,2.18-1.13,4.44-2.29,6.29-3.36,7.74-4.46,14.59-9.64,20.39-15.39l13.32-3.28.68-.17.41-.58.8-1.13,2.82-3.97-4.76,1.03-5.39,1.16c.2-.72.26-1.51.16-2.31,10.82-14.51,16.32-32.23,16.32-52.68v-19.78l-1.23-.46Z"/>
      <g>
        <g>
          <path class="cls-7" d="M119.68,100.87c13.13-16.06,18.06-34.96,18.06-54.32v-18.46C104.25,15.49,92.53,7.02,77.64,7.02s-26.61,8.46-60.11,21.07v18.46c0,28.88,11,56.77,43.8,75.67,5.06,2.92,13.03,6.5,16.31,9.15,3.27-2.65,11.25-6.24,16.31-9.15,9.97-5.75,17.93-12.32,24.18-19.51l1.56-1.85Z"/>
          <path d="M120.04,100.42c12.85-15.96,17.7-34.7,17.7-53.87v-18.46C104.25,15.49,92.53,7.02,77.64,7.02s-26.61,8.46-60.11,21.07v18.46c0,28.88,11,56.77,43.8,75.67,5.06,2.92,13.03,6.5,16.31,9.15,3.27-2.65,11.25-6.24,16.31-9.15,9.97-5.75,17.93-12.32,24.18-19.51h-.84c-6.22,7.1-14.12,13.61-23.99,19.3-4.75,2.74-12.06,6.06-15.65,8.66-3.59-2.59-10.9-5.92-15.65-8.66C29.19,103.12,18.19,75.22,18.19,46.34v-17.94C51.43,15.9,62.91,7.47,77.64,7.59c14.72.13,26.21,8.31,59.44,20.81v17.94c0,18.98-4.75,37.53-17.31,53.39l.27.69Z"/>
          <path class="cls-6" d="M77.64,128.82c-2.81-2.44-6.69-4.16-11.87-6.87C31.73,104.15,19.86,75.03,19.86,47.72v-18.39c19.44-5.85,41.22-20.06,57.77-20.06v119.55Z"/>
          <path class="cls-3" d="M77.64,128.82c2.81-2.44,6.69-4.16,11.87-6.87,34.05-17.8,45.91-46.93,45.91-74.24v-18.39c-19.44-5.85-41.22-20.06-57.77-20.06v119.55Z"/>
          <g>
            <path d="M86.98,66.43l-4.18-9.05c1.31-2.25,4.38-6.24,6.84-8.49,2.45-2.25,5.82-6.8,5.82-14.42,0-3.78-1.83-10.02-5.93-13.61,8.39,3.27,12.17,13.25,10.74,21.28,9-4.6,22.1-7.47,22.1-21.69,0-5.63-3.48-10.84-8.39-14.42,18.41,6.44,15.34,25.98,4.5,33.65,6.34,1.02,11.87,3.89,14.53,10.13-4.81-3.89-8.49-6.04-15.34-6.04-14.63,0-26.19,10.23-30.69,22.66Z"/>
            <path d="M68.27,66.43l4.18-9.05c-1.31-2.25-4.38-6.24-6.84-8.49-2.45-2.25-5.82-6.8-5.82-14.42,0-3.78,1.83-10.02,5.93-13.61-8.39,3.27-12.17,13.25-10.74,21.28-9-4.6-22.1-7.47-22.1-21.69,0-5.63,3.48-10.84,8.39-14.42-18.41,6.44-15.34,25.98-4.5,33.65-6.34,1.02-11.87,3.89-14.53,10.13,4.81-3.89,8.49-6.04,15.34-6.04,14.63,0,26.19,10.23,30.69,22.66Z"/>
          </g>
          <g>
            <polygon points="42.35 93.32 43.33 93.32 42.53 94.67 43.31 96.12 42.33 96.12 41.68 94.87 41.68 96.09 40.8 96.09 40.8 93.32 41.68 93.32 41.68 94.43 42.35 93.32"/>
            <path d="M52.39,93.46s-.2-.18-.79-.18c-.62,0-1.24.27-1.24.94,0,.31.23.55.46.65.25.11.7.22.69.35,0,.13-.19.18-.34.18-.23,0-.57-.12-.74-.23v.79s.3.21.87.21,1.28-.33,1.28-.92c0-.41-.14-.53-.52-.72-.24-.12-.61-.14-.61-.31,0-.18.15-.2.39-.2.17,0,.48.13.54.2v-.74Z"/>
            <path d="M46.44,95.61l-.13.5h-.94l.68-2.8h1.47l.68,2.8h-.94l-.13-.5h-.7ZM46.56,94.95h.46l-.23-.96-.23.96Z"/>
            <path d="M69.83,95.61l-.13.5h-.94l.68-2.8h1.47l.68,2.8h-.94l-.13-.5h-.7ZM69.95,94.95h.46l-.23-.96-.23.96Z"/>
            <polygon points="56.45 95.04 56.45 96.11 57.41 96.11 57.41 93.31 56.45 93.31 56.45 94.35 55.89 94.35 55.89 93.31 54.94 93.31 54.94 96.11 55.89 96.11 55.89 95.04 56.45 95.04"/>
            <rect x="59.76" y="93.31" width=".95" height="2.8"/>
            <polygon points="65.07 96.11 65.58 94.45 65.58 96.11 66.47 96.11 66.47 93.32 65.13 93.32 64.79 94.78 64.45 93.32 63.11 93.32 63.11 96.11 63.99 96.11 63.99 94.45 64.5 96.11 65.07 96.11"/>
          </g>
        </g>
        <path d="M80.25,96.04s.1-1.38.15-2.51c.05-1.13.31-1.99.61-2.71l3.73-9.21v-4.09l2-1.94v-4.6l-5.73-12.48h-6.77l-5.73,12.48v4.6l2,1.94v4.09l3.73,9.21c.31.72.56,1.59.61,2.71.05,1.13.15,2.51.15,2.51h5.23Z"/>
        <g>
          <path d="M71.41,113.91c-.11.68.45.64.83.54l56.71-12.21-.8,1.13-58.74,14.46c-.88.13-1.8.22-2.34-.17-.46-.33-.42-.82-.24-1.64,0,0,2.94-11.44,3.01-11.84.08-.4-.23-.51-.76-.43-1.93.31-9.64,5.49-12.26,7.49l10.93-3.13-.84,2.59-14.08,3.57-9.49,7.66c-1.84,1.7-3.31,2.81-6.11,2.93,1.35-1.29,11.43-9.61,11.43-9.61l-10.88,2.84c-.61.08-1.5-.13-1.73-.66l16.04-4.8c6.05-4.68,12.04-9,18.78-12.04.95-.43,2.51-.83,3.34-.09.52.46.45,1.31.3,1.91l-3.1,11.51Z"/>
          <path d="M121.42,99.27c-.26-1.51-1.95-2.93-3.27-3.47,0,0-1.79,3.64-2.54,4.8-.65.85-1.18,1.72-1.99,2.29-.18.1-.57.34-.57.03.12-1.68,2.14-2.9,1.16-4.52-.48-.8-2.82-.83-4.18-1.18-.72,2.76-1.85,5.35-4.42,7.15-.8.56-2,1.27-2.55.72,1.21-.81,4.98-3.48,4.75-6.06-.08-.84-.73-1.26-1.18-1.41-.59-.2-1.63-.16-2.5.37-2.27,1.4-3.93,4.21-3.6,7.21-.77.51-3.76,2.34-4.55.25,2.5-2.04,5.87-5.5,6.9-9.15.15-.55.04-1.5-.56-1.94-1.54-1.13-3.53-.18-4.76,1.08-2.8,3.01-4.3,6.54-4.35,10.57-.85.78-1.86,1.43-2.96,1.68-.39.09-.63-.28-.61-.67.07-1.97.6-3.51,1.61-5.38l2.3-.55c.21-.45.49-1.06.63-1.48l-2.16.67c.51-1.02,1.31-1.99,2.06-2.93-2.63-.38-4.71,1.94-5.64,4.05-1.08.54-2.69.5-3.26,1.84l2.63-.6-.72,2.19c-.87,1.19-3.51,3.92-4,3.96-.38.04,0-.93.15-1.44.5-1.61,1.51-2.43,1.63-3.74.04-.47-.53-.84-1.42-.6-2.63.69-5.57,4.78-6,5.16.29-.89,1.25-2.45,1.97-3.53-4.23.42-5.12,5.5-6.05,8.24l2.06-.37c1.51-2.05,4.6-5.86,6.09-7-.27.38-.9,1.76-1.12,2.45-.27.81-.67,2.44.04,3.12.27.26.79.34,1.2.23,1.82-.52,3.57-2.18,5.11-3.97-.02,1.18.43,2.12,1.36,2.3,1.74.33,4.33-1.35,5.67-2.4,1.62,2.14,5.34.09,7.41-.98,0,0,.42.3.8.38,3.79.84,7.15-3.74,9.06-6.89.24.01.84.08,1.05.16.1.03.16.11.11.22-.52,1.21-1.73,2.65-1.15,3.9.25.54.93.78,1.49.7,2.8-.39,4.29-3.67,5.76-5.86.75.4,1.33,1.1,1.32,1.73,0,.67-.19.96-.7,1.26-.39.23-1.01.24-1.49.06-.33.45-1.03,1.44-1.44,1.92,1.68-.03,3.37-.44,4.61-1.58.68-.63,1.02-1.78.81-3.02ZM96.32,103.34c.63-2.43,1.74-4.63,3.72-6.51.26-.25.55-.53.88-.38.24.1.3.43.13.8-.36.78-.94,1.72-1.52,2.48-.89,1.17-2.07,2.57-3.21,3.62ZM106.11,99.97c-.68,1.66-2.18,3-3.31,3.72.08-1.13,1.11-3.31,2.77-4.09.49-.19.66.06.54.37Z"/>
        </g>
      </g>
    </g>
  </g>
</svg>