<?xml version="1.0" encoding="UTF-8"?>
<svg id="_レイヤー_2" data-name="レイヤー 2" xmlns="http://www.w3.org/2000/svg" xmlns:xlink="http://www.w3.org/1999/xlink" viewBox="0 0 426.45 439.06">
  <defs>
    <style>
      .cls-1 {
        fill: none;
      }

      .cls-2 {
        fill: #221815;
      }

      .cls-3 {
        fill: #ffe100;
      }

      .cls-4 {
        fill: #fff;
      }

      .cls-5 {
        fill: #d80a30;
      }

      .cls-6 {
        fill: #fff100;
      }

      .cls-7 {
        clip-path: url(#clippath);
      }
    </style>
    <clipPath id="clippath">
      <path class="cls-1" d="M390.94,214.08c.07-12.49-5.34-22.53-15.6-29.03-.69-.44-1.39-.87-2.1-1.27-.77-.43-1.55-.85-2.34-1.22-11.64-5.67-23.69-4.48-34.15-2.53-5.83,1.33-9.45,2.5-11.74,3.46-1.46-1.46-3.03-2.84-4.74-4.07-.97-.67-6.37-4.22-14.15-5.76-.48-2.23-.98-3.97-1.26-4.88-.01-.05-.23-.79-.25-.84-1.29-3.88-4.26-11.63-9.68-19.89-6.8-10.34-15.02-17.72-24.49-21.96-15.15-6.65-29.01-3.93-42.64,8.55-6.19,6.4-11.53,14.18-15.87,23.1-.54,1.12-4.52,10.56-4.96,11.86-1.56,4.27-6.56,19.27-5.14,33.03.89,10.47,5.87,20.98,13,27.42.12.11.54.44.67.53,7.94,6.03,16.67,9.07,25.99,9.07,1.13,0,2.27-.05,3.42-.13,12.05-.93,21.23-4.61,21.51-4.72,1.18-.45,2.22-.93,3.33-1.4,3.32,4.59,7.6,8.48,12.65,11.05,6.29,3.17,11.23,4.29,15.81,4.29.67,0,1.31-.14,1.97-.18.25.54.51,1.09.92,1.73,9.83,18.52,24.19,24.87,33.25,24.48.58.03,1.17.05,1.76.05,15.78,0,33.72-11.18,44.46-28.18l.53-.88c3.53-5.77,8.87-14.5,9.85-31.66Z"/>
    </clipPath>
  </defs>
  <g id="_レイヤー_1-2" data-name="レイヤー 1">
    <g>
      <path class="cls-6" d="M426.45,221.55c0,117.76-84.41,196.43-213.22,196.43S0,339.31,0,221.55,95.46,8.33,213.22,8.33s213.22,95.46,213.22,213.23Z"/>
      <g>
        <g>
          <path class="cls-2" d="M419.51,290.11c-1.3-.72-2.84-1.24-3.8-1.44-6.81-1.4-13.64-2.18-20.31-2.33-3.7-.09-7.16,0-10.5.16-1.79-20.11-8.09-39.31-19.27-58.27,1.62-9.72,2.12-22.36,2.53-32.66l.21-5.17c.84-18.75-5.88-43.26-14.38-52.46-2.12-2.29-5.31-4.04-8.12-4.45-21.54-3.21-49.87,5.34-81.73,24.67l-4-.59c-26.18-3.9-58.77-8.75-103.06,1.53-1.4.32-2.95.78-4.54,1.26-2.37.71-6.76,1.98-7.92,1.68-8.49-4.64-30.28-15.71-49.14-18.5-17.53-2.61-29.09.83-34.52,10.31-15.37,28.86-7.65,69.07-4.44,79.47-16,31.01-15.7,63.87-15.6,67.47,0,.84.03,1.72.04,2.58-.84.06-1.6.09-2.48.16-8.93.71-17.8,1.58-28.07,4.44-3.34.92-6.41,3.14-5.81,5.59.47,1.92,2.84,2.34,4.83,2.34,1.54,0,2.85-.25,2.89-.26,10.63-2.17,16.02-2.75,23.47-3.55l3.14-.34c.81-.09,1.61-.13,2.42-.2.81,9.68,2.85,19.99,6.48,30.18-4.44,1.67-9.56,3.89-15.71,7.07-.04.02-3.98,2.08-4.74,4.62-.23.78-.15,1.56.23,2.24.62,1.11,1.92,1.46,3.31,1.46,2.3,0,4.82-.95,4.86-.96,1.84-.81,3.57-1.58,5.21-2.31,3.72-1.66,6.96-3.05,10-4.23,3.93,8.9,9.09,17.53,15.73,25.34-6.84,3.96-15.09,9.33-24.43,16.6-1.94,1.52-3.19,3.45-3.41,5.32-.12,1.04.11,1.99.65,2.67.41.51,1.18.73,2.1.73,1.62,0,3.71-.68,5.14-1.7,10.26-7.27,19.16-12.89,26.15-17.04,7.51,7.31,16.5,13.67,27.22,18.49,35.27,15.84,67.77,19.4,108.95,20l4.04-.06,4.36.06c47.38-.7,84.81-7.46,111.26-20.11,15.35-7.34,27.56-17.24,36.7-29.54,7.64,2.61,16.9,6.62,25.83,12.66,1.14.79,3.45,2.17,5.5,2.17.92,0,1.79-.27,2.47-1.01.29-.3.61-.85.53-1.73-.17-1.86-2.22-4.46-3.56-5.43-9.12-6.66-18.29-10.95-26.01-13.74,5.25-8.67,9.17-18.37,11.72-29.12,5.64.9,12.22,2.35,19.44,4.77.04,0,2.17.71,4.26.71,1.57,0,3.11-.39,3.7-1.78.27-.63.26-1.33-.03-2.02-1.04-2.48-5.39-4.32-5.43-4.33-7.12-2.82-14.12-4.47-20.31-5.49,1.35-8.14,2-16.8,1.93-26,.02-1.57-.07-3.12-.1-4.67,2.93-.16,5.97-.26,9.16-.22,4.96.05,10.48.42,15.35.74,1.52.1,2.99.19,4.4.28,3.19.18,7.1-.41,7.57-2.73.17-.81-.11-2.03-2.36-3.29Z"/>
          <path class="cls-4" d="M354.53,228.24c1.76-9.13,2.29-22.42,2.71-33.11l.22-5.23c.76-16.97-5.67-38.25-11.49-44.55-.51-.56-1.4-.99-1.72-1.06-18.78-2.76-45.27,5.51-74.57,23.31-2.08,1.26-3.22,1.95-5.23,1.65l-5.91-.87c-25.25-3.76-56.69-8.45-98.98,1.36-1.2.27-2.52.68-3.88,1.08-5.38,1.6-11.46,3.43-16.3.79-7.98-4.35-28.38-14.75-45.5-17.28-12.59-1.85-20.45-.25-23.34,4.78-10.47,19.65-8.42,46.45-5.73,61.45.72-.85,1.42-1.62,2.07-2.27,2.63-2.63,5.32-3.6,7.16-2.33,1.91,1.32,1.15,4.66-.08,7.33-1.22,2.65-3.69,7.76-5.63,11.18,0,0,0,.01,0,.02-16.85,29.6-16.54,62.53-16.45,66.2,0,.74.03,1.51.04,2.26,9.31.02,14.99,1,17.89,1.74l.21.05c.06.01,7.62,1.41,7.18,5.04-.39,3.23-4.98,2.99-7.2,2.87l-.82-.06c-2.44-.37-8.96-1.24-16.86-1.4.79,8.79,2.71,18.09,6.01,27.25,4.52-1.04,7.71-1.28,9.83-1.4l.29-.02c2.79-.15,9.39-.25,9.73,3.07.3,2.87-4.87,4.24-7.11,4.7-1.04.21-2.16.36-3.41.53-1.75.24-3.74.52-6.09,1.02,3.77,8.24,8.76,16.15,15.14,23.24,6.63-3.22,10.45-4.39,10.53-4.42.06-.03,6.57-1.68,7.84,1.28,1.09,2.56-1.67,3.92-4.33,5.24-.85.42-1.74.86-2.55,1.35,0,0-.09.05-.26.13-1.03.51-2.75,1.4-5.02,2.62,6.17,5.56,13.32,10.43,21.71,14.2,33.54,15.07,64.84,18.45,104.46,19.04l4.04-.06,4.36.06c44.98-.67,81.88-7.25,106.54-19.04,12.36-5.91,22.38-13.54,30.17-22.9-3.71-.86-5.98-1.18-6.04-1.19-1.42-.14-5.85-1.17-7.34-3.19-.44-.61-.61-1.28-.47-1.94.75-3.62,7.32-2.9,10.09-2.42.35.03,3.75.38,9.03,1.65,5.2-7.94,9.03-16.98,11.53-27.1-2.33-.14-4.2-.17-5.48-.17-2.44.01-5.28-.05-5.28-.05-.73-.07-6.59-.76-6.82-3.68-.03-.39.05-1,.6-1.64,1.31-1.53,4.62-2.39,6.03-2.5l.31-.03c.84-.08,3.07-.3,5.31-.32h.61c1.62,0,3.81.05,6.42.22,1.29-7.68,1.93-15.9,1.86-24.75.01-1.24-.06-2.46-.09-3.69-6.85.85-12.47,1.97-16.3,2.74-1.96.39-3.38.68-4.24.78-1.38.2-2.56.3-3.55.3-2.31,0-3.58-.56-4-1.72-.29-.84-.23-1.74.18-2.59.74-1.52,2.53-2.81,5.19-3.72,2.09-.71,10.2-3.2,22.24-4.68-1.72-19.09-7.86-37.28-18.78-55.31-.7-1.16-.95-2.54-.69-3.87Z"/>
        </g>
        <g>
          <path class="cls-2" d="M115.31,309.92c-3.5,7.1-3.52,18.45,1.21,24.48,2.92,3.45,7.8,5.41,14.09,4.33,5.43-.94,8.52-5.9,9.55-9.85,2.23-8.84-.14-19.68-5.23-23.79-5.36-3.91-15.39-3.82-19.61,4.83Z"/>
          <path class="cls-2" d="M285.41,310.96c-3.5,7.1-3.52,18.45,1.21,24.48,2.92,3.45,7.8,5.41,14.09,4.33,5.43-.94,8.52-5.9,9.55-9.85,2.23-8.84-.15-19.68-5.23-23.79-5.36-3.91-15.39-3.82-19.61,4.83Z"/>
          <g>
            <path class="cls-2" d="M230.45,341.67c-1.17-4.16-4.32-7.43-8.44-8.76-7.86-2.55-15.82-1.48-20.77,2.79-5.16,4.56-5.41,12.65-2.19,16.84,2.99,3.88,7.72,5.9,14.48,6.2.31.01.63.02.94.02,5.41,0,10.44-1.98,13.31-5.27v-.02c2.83-3.28,3.82-7.69,2.67-11.81Z"/>
            <path class="cls-3" d="M219.9,339.41c-2.1-.68-4.24-1.01-6.25-1.01-3.19,0-6.05.84-7.91,2.45-2.45,2.17-2.29,6.18-1.26,7.52,1.68,2.18,4.74,3.34,9.35,3.54,4.27.17,7.46-1.38,8.79-2.9,1.34-1.56,1.79-3.55,1.24-5.49-.54-1.94-2.02-3.48-3.96-4.11Z"/>
          </g>
        </g>
      </g>
      <g>
        <g>
          <path class="cls-2" d="M174.31,399.75c-1.48-4.63-4.48-8.3-7.74-11.99-11.57-11.1-31.76-15.56-47.81-10.64-11.58,3.03-24.94,13.2-26.89,28.3-1.79,11.76,2.42,22.06,11.65,27.76,9.31,4.78,19.42,4.67,29.7-.17.87-.33,1.3-.24,3.57.72,1.42.61,3.17,1.34,5.28,1.7,3.57,1.03,6.76,1.46,9.57,1.46,7.46,0,12.38-3.02,15.44-6.04,7.97-7.84,10.94-20.61,7.23-31.1Z"/>
          <path class="cls-4" d="M163.97,403.34c-.03-.07-.05-.13-.07-.2-.83-2.65-3.05-5.31-5.25-7.82-8.41-8.05-24.41-11.47-36.92-7.67-8.41,2.21-17.79,9.67-19.04,19.29-.55,3.62-1.01,12.25,6.19,16.72,5.93,3.02,12.4,2.87,20-.7,1.9-.75,3.63-1.02,5.19-1.02,2.92,0,5.24.98,6.98,1.72,1.12.47,2.08.88,2.97,1.01.27.04.53.09.78.17,6.51,1.94,11.44,1.34,14.59-1.78,4.91-4.82,6.87-13.3,4.58-19.71Z"/>
        </g>
        <g>
          <path class="cls-2" d="M338.19,407.71c-1.98-15.21-15.33-25.39-26.69-28.34-16.27-4.97-36.47-.53-48.34,10.91-2.82,3.2-5.95,7-7.44,11.65-3.71,10.49-.74,23.27,7.22,31.1,3.07,3.03,8,6.05,15.45,6.05,2.81,0,5.99-.43,9.57-1.46,2.11-.36,3.85-1.1,5.28-1.7,2.29-.98,2.71-1.06,3.23-.88,10.61,5,20.73,5.1,30.44.1,8.83-5.48,13.04-15.78,11.27-27.43Z"/>
          <path class="cls-4" d="M327.35,409.24c-1.27-9.74-10.64-17.21-18.84-19.34-3.53-1.08-7.32-1.6-11.13-1.6-9.92,0-20.02,3.48-26.32,9.54-1.88,2.17-4.1,4.83-4.94,7.48-.02.07-.04.13-.07.2-2.29,6.41-.33,14.89,4.56,19.7,3.17,3.11,8.06,3.72,14.6,1.78.25-.07.51-.13.78-.17.89-.13,1.85-.53,2.97-1.01,2.67-1.14,6.69-2.83,11.82-.85,7.93,3.73,14.41,3.88,20.73.64,6.81-4.24,6.35-12.88,5.82-16.38Z"/>
        </g>
      </g>
      <g>
        <g class="cls-7">
          <rect class="cls-6" x="244.78" y="115.66" width="102.63" height="175.93" transform="translate(-13.59 385.92) rotate(-65)"/>
          <polygon class="cls-5" points="378.57 243.39 223.93 145.16 203.92 188.07 378.57 243.39"/>
        </g>
        <path class="cls-2" d="M390.94,214.08c.07-12.49-5.34-22.53-15.6-29.03-.69-.44-1.39-.87-2.1-1.27-.77-.43-1.55-.85-2.34-1.22-11.64-5.67-23.69-4.48-34.15-2.53-5.83,1.33-9.45,2.5-11.74,3.46-1.46-1.46-3.03-2.84-4.74-4.07-.97-.67-6.37-4.22-14.15-5.76-.48-2.23-.98-3.97-1.26-4.88-.01-.05-.23-.79-.25-.84-1.29-3.88-4.26-11.63-9.68-19.89-6.8-10.34-15.02-17.72-24.49-21.96-15.15-6.65-29.01-3.93-42.64,8.55-6.19,6.4-11.53,14.18-15.87,23.1-.54,1.12-4.52,10.56-4.96,11.86-1.56,4.27-6.56,19.27-5.14,33.03.89,10.47,5.87,20.98,13,27.42.12.11.54.44.67.53,7.94,6.03,16.67,9.07,25.99,9.07,1.13,0,2.27-.05,3.42-.13,12.05-.93,21.23-4.61,21.51-4.72,1.18-.45,2.22-.93,3.33-1.4,3.32,4.59,7.6,8.48,12.65,11.05,6.29,3.17,11.23,4.29,15.81,4.29.67,0,1.31-.14,1.97-.18.25.54.51,1.09.92,1.73,9.83,18.52,24.19,24.87,33.25,24.48.58.03,1.17.05,1.76.05,15.78,0,33.72-11.18,44.46-28.18l.53-.88c3.53-5.77,8.87-14.5,9.85-31.66ZM262.41,224.6c-.08.03-8.08,3.2-18.37,4-11.87.91-19.45-4.85-21.88-6.66-5-4.53-8.79-12.66-9.45-20.34-1.18-11.51,3.16-24.52,4.61-28.48.39-1.06,3.95-9.57,4.44-10.59,3.84-7.9,8.52-14.72,13.66-20.06,10.24-9.37,19.41-11.29,30.57-6.38,7.49,3.35,14.15,9.4,19.77,17.96,4.92,7.49,7.54,14.61,8.32,16.91l.28.99c.1.33.23.76.37,1.26-3.12.38-6.39,1.21-9.76,2.67-.86.37-1.62.86-2.44,1.29-1.82-1.99-4.05-3.77-6.3-5.03-6.73-3.79-14.11-3.85-20.25-.13-6.59,4-10.46,11.71-9.86,19.44.23,6.03,2.69,11.16,7.12,14.82,2.87,2.37,6.27,3.78,9.4,4.6,0,.53-.07,1.05-.06,1.58.03,3.82.78,7.6,2.04,11.21-.76.31-1.43.63-2.24.94ZM264.12,199.92c-1.43-.51-2.96-1.24-4.22-2.39-1.79-1.63-2.7-3.75-2.82-6.7-.29-3.87,1.51-7.58,4.61-9.47,2.17-1.32,4.47-1.53,7.04-.66,2.02.68,3.67,1.86,4.9,2.98-4.48,4.46-7.75,9.99-9.5,16.23ZM306.89,236.3c-7.63,2.01-11.53,2.43-19.54-1.62-8.18-4.17-13.72-13.13-13.78-22.46-.43-11.82,5.62-21.89,15.78-26.29,3.44-1.5,6.75-2.05,9.77-2.05,8.05,0,14.03,3.93,14.85,4.49,9.03,6.49,13.34,17.88,10.69,28.51-2.49,11.49-10.8,17.57-17.75,19.43ZM371.63,240.24l-.6,1.01c-8.69,13.74-23.71,23.26-36.56,22.57-6.52.09-15.93-5.16-23.02-17.53,4.14-1.36,8.46-3.71,12.35-7.14,1.96,1.41,4.3,2.61,7,3.2,1.02.22,2.2.38,3.49.38,3.21,0,7.18-.98,11.47-4.38,4.81-4.81,6.43-10.35,4.84-17.49-2.82-8.54-9.53-11.12-14.31-12.03-.27-5.63-1.81-11.14-4.48-16.14,2.05-.65,4.64-1.36,7.15-1.93,8.49-1.57,18.35-2.62,27.19,1.67.59.28,1.14.58,1.7.89.53.3,1.04.61,1.59.96,7.15,4.53,10.61,10.99,10.57,19.46-.82,14.14-4.94,20.88-8.38,26.5ZM335.17,219.81c2.53.61,4.13,1.69,4.89,3.93.65,2.96.13,4.69-1.56,6.43-1.71,1.35-3.44,1.83-5.18,1.51-.94-.17-1.76-.57-2.49-1,1.88-3.16,3.39-6.77,4.33-10.89Z"/>
      </g>
    </g>
    <g>
      <path class="cls-4" d="M148.72,65.35c0,1.48-1.61,1.58-2.2,1.65-.59.07-15.82,2.48-15.82,2.48.92.09,12.35.91,13.11.91,2.87,0,5.51,2.09,6.85,4.15,3.09,4.76,3.55,12.62-1.65,17.82-1.15,1.15-2.8,1.8-5.28,1.8h-8.12c-4.3,8.79-10.5,16.46-18.36,22.63-11.44,8.97-25.58,13.91-39.83,13.91s-28.39-4.94-39.83-13.91c-7.86-6.17-14.06-13.84-18.36-22.63h-8.12c-2.48,0-4.12-.65-5.28-1.8-5.2-5.2-4.73-13.06-1.65-17.82,1.34-2.07,3.98-4.15,6.85-4.15.76,0,12.18-.82,13.11-.91,0,0-15.23-2.42-15.82-2.48-.59-.07-2.2-.17-2.2-1.65s1.61-1.58,2.2-1.65c.59-.07,15.82-2.48,15.82-2.48-.92-.09-12.35-.91-13.11-.91-2.87,0-5.51-2.09-6.85-4.15-3.09-4.76-3.55-12.62,1.65-17.82,1.15-1.15,2.8-1.8,5.28-1.8h8.12c4.3-8.79,10.5-16.46,18.36-22.63C49.02,4.94,63.17,0,77.41,0s28.39,4.94,39.83,13.91c7.86,6.17,14.06,13.84,18.36,22.63h8.12c2.48,0,4.12.65,5.28,1.8,5.2,5.2,4.73,13.06,1.65,17.82-1.34,2.07-3.98,4.15-6.85,4.15-.76,0-12.18.82-13.11.91,0,0,15.23,2.42,15.82,2.48.59.07,2.2.17,2.2,1.65Z"/>
      <g>
        <g>
          <path d="M137.81,65.35l-34.61,4.3c-.07.41-.16.82-.25,1.23,1.74.15,3.73.64,4.87,1.85.99,1.05,1.86,2.64,2.18,3.16.58.94,1.91,1.64,2.72,1.81.9.19,2.25.22,3.81-.4-.29.65-1.12,1.71-1.78,2.36-.91.9-2.69,1.66-4.39,1.45-1.49-.18-2.54-.72-3.84-1.63-1.25-.88-2.54-1.12-3.52-1.16-.98-.04-2.39.18-3.41.62-.34.54-.71,1.07-1.09,1.59,3.26,1.79,4.11,4.21,4.22,6.14.14,2.55,1.85,5.16,5.61,5.29-2.15,1.71-3.84,1.74-4.74,1.75-1.3,0-3.86-1.39-4.77-3.05-.67-1.21-1.24-1.9-1.92-2.37-1.39-.97-2.97-1.58-4.73-1.7-.46.31-.93.61-1.4.89,2.32,2.94,2.15,5.51,1.5,7.33-.87,2.4-.33,5.48,3.08,7.07-2.65.73-4.22.09-5.04-.25-1.2-.51-3-2.79-3.19-4.68-.14-1.38-.4-2.24-.83-2.94-.9-1.44-2.13-2.64-3.71-3.43-.2.04-.4.07-.6.1l-4.5,20.81-4.5-20.81c-.2-.03-.4-.06-.6-.1-1.59.8-2.81,1.99-3.71,3.43-.44.7-.7,1.56-.83,2.94-.19,1.88-1.99,4.17-3.19,4.68-.82.35-2.39.98-5.04.25,3.41-1.6,3.95-4.67,3.08-7.07-.66-1.82-.82-4.39,1.5-7.33-.48-.28-.95-.58-1.4-.89-1.76.12-3.34.73-4.73,1.7-.68.47-1.25,1.16-1.92,2.37-.91,1.66-3.47,3.05-4.77,3.05-.89,0-2.59-.04-4.74-1.75,3.76-.13,5.47-2.74,5.61-5.29.11-1.92.97-4.35,4.22-6.14-.38-.51-.75-1.04-1.09-1.59-1.02-.44-2.43-.65-3.41-.62-.98.04-2.27.28-3.52,1.16-1.3.91-2.36,1.45-3.84,1.63-1.7.21-3.47-.55-4.39-1.45-.66-.65-1.49-1.7-1.78-2.36,1.56.62,2.91.59,3.81.4.81-.18,2.14-.87,2.72-1.81.32-.51,1.19-2.1,2.18-3.16,1.14-1.22,3.13-1.71,4.87-1.85-.09-.41-.18-.82-.25-1.23l-34.61-4.3,34.61-4.3c.07-.41.16-.82.25-1.23-1.74-.15-3.73-.64-4.87-1.85-.99-1.05-1.86-2.64-2.18-3.16-.58-.94-1.91-1.64-2.72-1.81-.9-.19-2.25-.22-3.81.4.29-.65,1.12-1.71,1.78-2.36.91-.9,2.69-1.66,4.39-1.45,1.49.18,2.54.72,3.84,1.63,1.25.88,2.54,1.12,3.52,1.16.98.04,2.39-.18,3.41-.62.34-.54.71-1.07,1.09-1.59-3.26-1.79-4.11-4.21-4.22-6.14-.14-2.55-1.85-5.16-5.61-5.29,2.15-1.71,3.84-1.75,4.74-1.75,1.3,0,3.86,1.39,4.77,3.05.67,1.21,1.24,1.9,1.92,2.37,1.39.97,2.97,1.58,4.73,1.7.46-.31.93-.61,1.4-.89-2.32-2.94-2.15-5.51-1.5-7.33.87-2.4.33-5.48-3.08-7.07,2.65-.73,4.22-.09,5.04.25,1.2.51,3,2.79,3.19,4.68.14,1.38.4,2.24.83,2.94.9,1.44,2.13,2.64,3.71,3.43.2-.04.4-.07.6-.1l4.5-20.81,4.5,20.81c.2.03.4.06.6.1,1.58-.8,2.81-1.99,3.71-3.43.44-.7.7-1.56.83-2.94.19-1.88,1.99-4.17,3.19-4.68.82-.35,2.39-.98,5.04-.25-3.41,1.6-3.95,4.67-3.08,7.07.66,1.82.82,4.39-1.5,7.33.48.28.95.58,1.4.89,1.76-.12,3.34-.73,4.73-1.7.68-.47,1.25-1.16,1.92-2.37.91-1.66,3.47-3.05,4.77-3.05.89,0,2.59.04,4.74,1.75-3.76.13-5.47,2.74-5.61,5.29-.11,1.92-.97,4.35-4.22,6.14.38.51.75,1.04,1.09,1.59,1.02.44,2.43.65,3.41.62.98-.04,2.27-.28,3.52-1.16,1.3-.91,2.36-1.45,3.84-1.63,1.7-.21,3.47.55,4.39,1.45.66.65,1.49,1.7,1.78,2.36-1.56-.62-2.91-.59-3.81-.4-.81.18-2.14.87-2.72,1.81-.32.51-1.19,2.1-2.18,3.16-1.14,1.22-3.13,1.71-4.87,1.85.09.41.18.82.25,1.23l34.61,4.3Z"/>
          <path class="cls-6" d="M101.31,65.35c0,13.21-10.85,23.61-24.06,23.61s-24.06-10.39-24.06-23.61,10.85-23.61,24.06-23.61,24.06,10.39,24.06,23.61Z"/>
          <g>
            <path class="cls-5" d="M64.11,36.59c.52-1.69.87-4.06-.54-6.17,2.43,1.02,2.83,3.55,3.05,5.3.18,1.4,1.79,3.81,3.77,4.88-1.67.46-3.26,1.08-4.78,1.84-.91-.95-2.37-2.99-1.5-5.85Z"/>
            <path class="cls-5" d="M53.81,44.1c-.19-1.76-.8-4.08-2.92-5.46,2.63-.02,4,2.16,4.88,3.67.71,1.22,3.13,2.79,5.36,3-1.34,1.07-2.57,2.26-3.67,3.56-1.22-.52-3.33-1.83-3.65-4.78Z"/>
            <path class="cls-5" d="M52.36,58.32c-.62.04-2.06-.22-3.01-.73-1.05-.56-1.92-1.67-2.5-2.72-.51-.92-1.23-1.81-1.92-2.25-.73-.46-1.27-.87-2.65-1.12.69-.29,1.39-.45,1.85-.4,2.63.27,3.26,1.8,5.77,2.58,1.23.38,2.94.4,4.46-.11-.76,1.05-1.74,3.81-1.99,4.75Z"/>
            <path class="cls-5" d="M90.8,36.59c-.52-1.69-.87-4.06.54-6.17-2.43,1.02-2.83,3.55-3.05,5.3-.18,1.4-1.79,3.81-3.77,4.88,1.67.46,3.26,1.08,4.78,1.84.91-.95,2.37-2.99,1.5-5.85Z"/>
            <path class="cls-5" d="M101.11,44.1c.19-1.76.8-4.08,2.92-5.46-2.63-.02-4,2.16-4.88,3.67-.71,1.22-3.13,2.79-5.36,3,1.34,1.07,2.57,2.26,3.67,3.56,1.22-.52,3.33-1.83,3.65-4.78Z"/>
            <path class="cls-5" d="M77.46,39.65c.98,0,2.09.06,3.05.17l-3.05-13.43-3.05,13.43c.96-.11,2.06-.17,3.05-.17Z"/>
            <path class="cls-5" d="M102.56,58.32c.62.04,2.06-.22,3.01-.73,1.05-.56,1.92-1.67,2.5-2.72.51-.92,1.23-1.81,1.92-2.25.73-.46,1.27-.87,2.65-1.12-.69-.29-1.39-.45-1.85-.4-2.63.27-3.26,1.8-5.77,2.58-1.23.38-2.94.4-4.46-.11.76,1.05,1.74,3.81,2,4.75Z"/>
            <path class="cls-5" d="M64.11,94.11c.52,1.69.87,4.06-.54,6.17,2.43-1.02,2.83-3.55,3.05-5.3.18-1.4,1.79-3.81,3.77-4.88-1.67-.46-3.26-1.08-4.78-1.84-.91.95-2.37,2.99-1.5,5.85Z"/>
            <path class="cls-5" d="M53.81,86.59c-.19,1.76-.8,4.08-2.92,5.46,2.63.02,4-2.16,4.88-3.67.71-1.22,3.13-2.79,5.36-3-1.34-1.07-2.57-2.26-3.67-3.56-1.22.52-3.33,1.83-3.65,4.78Z"/>
            <path class="cls-5" d="M51.3,65.35c0,1.04.06,1.75.18,2.75l-21.72-2.75,21.72-2.75c-.12,1.01-.18,1.71-.18,2.75Z"/>
            <path class="cls-5" d="M52.36,72.37c-.62-.04-2.06.22-3.01.73-1.05.56-1.92,1.67-2.5,2.72-.51.92-1.23,1.81-1.92,2.25-.73.46-1.27.87-2.65,1.12.69.29,1.39.45,1.85.4,2.63-.27,3.26-1.8,5.77-2.57,1.23-.38,2.94-.4,4.46.11-.76-1.05-1.74-3.81-1.99-4.75Z"/>
            <path class="cls-5" d="M90.8,94.11c-.52,1.69-.87,4.06.54,6.17-2.43-1.02-2.83-3.55-3.05-5.3-.18-1.4-1.79-3.81-3.77-4.88,1.67-.46,3.26-1.08,4.78-1.84.91.95,2.37,2.99,1.5,5.85Z"/>
            <path class="cls-5" d="M101.11,86.59c.19,1.76.8,4.08,2.92,5.46-2.63.02-4-2.16-4.88-3.67-.71-1.22-3.13-2.79-5.36-3,1.34-1.07,2.57-2.26,3.67-3.56,1.22.52,3.33,1.83,3.65,4.78Z"/>
            <path class="cls-5" d="M77.46,91.04c.98,0,2.09-.06,3.05-.17l-3.05,13.43-3.05-13.43c.96.11,2.06.17,3.05.17Z"/>
            <path class="cls-5" d="M125.15,65.35l-21.72,2.75c.12-1.01.18-1.71.18-2.75s-.06-1.75-.18-2.75l21.72,2.75Z"/>
            <path class="cls-5" d="M102.56,72.37c.62-.04,2.06.22,3.01.73,1.05.56,1.92,1.67,2.5,2.72.51.92,1.23,1.81,1.92,2.25.73.46,1.27.87,2.65,1.12-.69.29-1.39.45-1.85.4-2.63-.27-3.26-1.8-5.77-2.57-1.23-.38-2.94-.4-4.46.11.76-1.05,1.74-3.81,2-4.75Z"/>
          </g>
          <g>
            <path d="M77.55,50.8c1.55-1.12,5.93-3.13,7.42-3.01,3.95.32,7.63,4.51,8.43,7.89.45,1.89.46,3.75-.36,5.48-.8,1.67-3.48,5.48-8.99,5.98,2.9.76,3.7,2.39,4.13,3.26.44.87.85,2.07,1.05,2.79.58,2.07,1.8,2.35,2.76,2.03.95-.31,1.85-1.56,2.14-2.21l.87.65c-.69,3.34-1.93,6.55-3.16,7.91-1.02,1.12-1.99,1.43-2.76,1.45-1.34.04-2.86-.53-3.95-1.6-1.02-.99-1.83-2.57-2.1-4.13-.38-2.14-1.27-5.98-1.81-7.25-.37-.86-.81-2.25-2.43-2.14v8.03c.55-.29.95-.67,1.34-1.08l1.2.91c-1.45,1.41-5.92,5.15-8.27,6.78-.43.29-1.12.35-1.56.25-1.96-.44-2.76-2.25-4.42-2.39-2.21-.2-3.35.83-4.17,2.03l-.94-.65c.16-.63.42-1.14.65-1.67.94-2.1,2.36-3.93,4.57-4.75,1.63-.61,3.35-.63,4.68-.43v-7.51s-2.03,0-2.03,0l.02-3.17h2.02v-3.32c0-.81-1.1-1.17-1.92-1.23v-.78s.65-.04.86-.05c2.47-.15,6.06-2.97,6.75-8.05Z"/>
            <path class="cls-6" d="M74.87,75.9c-.25-.12-.6-.27-1.02-.42,1.18-.55,1.64-1.36,1.71-2.12v-13.89s1.41-1.18,1.41-1.18v18.12c-.64.01-1.37-.16-2.1-.51Z"/>
            <path class="cls-6" d="M81.87,63.79c-1.07.3-2.08.38-3.08.28v-7.06c1.46-.93,3.08-1.78,4.42-2.37.45-.2,1.3.63,1.52.94.69.94,2.29,3.41.76,5.69-.51.76-1.55,1.92-3.63,2.5Z"/>
            <path d="M67.58,62.95c.76.03,1.69-.09,2.2-.25v-1.23c-.51.22-1.51.25-1.98.25-1.3,0-3.84-1.18-3.26-3.39.15-.57,1.19-1.5,2.19-1.27.91.21,1.85.49,3.05.49,1.74,0,2.7-.58,3.72-1.52,1.02-.94,2.03-2.21,2.5-4.57-1.89,1.09-2.94,1.09-4.79.4-1.85-.69-2.87-1.99-4.97-1.99-.91,0-2.65.65-3.55,1.78-1.03,1.28-1.56,2.87-1.56,4.32,0,2.1.64,3.88,1.85,5.08,1.61,1.6,3.35,1.87,4.61,1.92Z"/>
          </g>
        </g>
        <g>
          <g>
            <path d="M77.41,21.67c21.17,0,36.43,13.16,42.02,31.77.44,1.45,1.16,2.76,2.18,3.48,1.02.73,1.16.94,3.05.87,1.89-.07,11.97-1.09,14.94-1.38-1.16-.8-2.34-2.13-2.76-3.99-6.6-29.67-32.59-48.32-59.42-48.32S24.59,22.76,17.99,52.42c-.41,1.86-1.6,3.19-2.76,3.99,2.97.29,13.06,1.31,14.94,1.38,1.89.07,2.03-.15,3.05-.87,1.02-.73,1.74-2.03,2.18-3.48,5.59-18.61,20.85-31.77,42.02-31.77Z"/>
            <g>
              <path d="M17.05,49.39c.04-.13.07-.27.11-.4h-7.07c.47-2.18-.13-5.98-.74-7.69-.14-.38-.38-.31-.62-.07-3.66,3.65-3.25,9.39-1.11,12.69.81,1.24,2.29,2.28,3.41,2.28,1.02,0,2.24-.33,3.23-1.16,2.1-1.77,2.51-4.6,2.79-5.66Z"/>
              <path d="M11.1,40.64c.58,1.38,1.16,4.82.83,6.35h5.8c.67-2.19,1.44-4.31,2.3-6.35h-8.93Z"/>
            </g>
            <g>
              <path d="M137.82,49.39c-.04-.13-.07-.27-.11-.4h7.07c-.47-2.18.13-5.98.74-7.69.14-.38.38-.31.62-.07,3.66,3.65,3.25,9.39,1.11,12.69-.81,1.24-2.29,2.28-3.41,2.28-1.02,0-2.24-.33-3.23-1.16-2.1-1.77-2.51-4.6-2.79-5.66Z"/>
              <path d="M143.77,40.64c-.58,1.38-1.16,4.82-.83,6.35h-5.8c-.67-2.19-1.44-4.31-2.3-6.35h8.93Z"/>
            </g>
          </g>
          <g>
            <path d="M77.41,108.93c21.17,0,36.43-13.16,42.02-31.77.44-1.45,1.16-2.76,2.18-3.48,1.02-.73,1.16-.94,3.05-.87,1.89.07,11.97,1.09,14.94,1.38-1.16.8-2.34,2.13-2.76,3.99-6.6,29.67-32.59,48.32-59.42,48.32s-52.82-18.66-59.42-48.32c-.41-1.86-1.6-3.19-2.76-3.99,2.97-.29,13.06-1.31,14.94-1.38,1.89-.07,2.03.15,3.05.87,1.02.73,1.74,2.03,2.18,3.48,5.59,18.61,20.85,31.77,42.02,31.77Z"/>
            <g>
              <path d="M17.05,81.2c.04.13.07.27.11.4h-7.07c.47,2.18-.13,5.98-.74,7.69-.14.38-.38.31-.62.07-3.66-3.65-3.25-9.39-1.11-12.69.81-1.24,2.29-2.28,3.41-2.28,1.02,0,2.24.33,3.23,1.16,2.1,1.77,2.51,4.6,2.79,5.66Z"/>
              <path d="M11.1,89.96c.58-1.38,1.16-4.82.83-6.35h5.8c.67,2.19,1.44,4.31,2.3,6.35h-8.93Z"/>
            </g>
            <g>
              <path d="M137.82,81.2c-.04.13-.07.27-.11.4h7.07c-.47,2.18.13,5.98.74,7.69.14.38.38.31.62.07,3.66-3.65,3.25-9.39,1.11-12.69-.81-1.24-2.29-2.28-3.41-2.28-1.02,0-2.24.33-3.23,1.16-2.1,1.77-2.51,4.6-2.79,5.66Z"/>
              <path d="M143.77,89.96c-.58-1.38-1.16-4.82-.83-6.35h-5.8c-.67,2.19-1.44,4.31-2.3,6.35h8.93Z"/>
            </g>
          </g>
          <g>
            <path class="cls-6" d="M34.65,42.51s-.01.04-.01.04c-.03.11-.11.35.12.61,0,0,.18.22.18.22.14.15.28.22.44.21.15-.01.28-.1.38-.26l2.46-3.95c.15-.24.11-.44.04-.56v-.03s-.03-.02-.03-.02l-.22-.27c-.08-.13-.23-.21-.39-.22-.15,0-.3.06-.41.19-.47.45-.51.46-.93.2l-1.71-1.07h3.18s.02,0,.02,0c0,0,.02,0,.02,0l.31-.05c.83-.12,1.38-.2,1.74-.77l1.34-2.16.16-.25-.25-.16-.41-.26c-.2-.12-.46-.05-.75.03-.08.02-.17.05-.25.07-.67.13-3.51.45-5.62.56l-.86-2.63c-.21-.65-.22-1.15-.22-1.52,0-.38,0-.71-.3-.89l-.39-.24-.25-.16-.16.25-1.04,1.67-.07.12.05.13,1.67,4.93-1.79-1.12c-.31-.2-.41-.45-.29-.76h0s.01-.05.01-.05c.03-.11.11-.35-.12-.61,0,0-.18-.22-.18-.22-.14-.15-.28-.22-.44-.21-.15.01-.28.1-.38.26l-2.46,3.94c-.15.24-.11.44-.04.56v.03s.03.02.03.02l.22.27c.08.13.23.21.39.22.15,0,.3-.06.41-.19.47-.45.51-.46.93-.2l5.6,3.49c.31.2.41.45.29.76h0Z"/>
            <path class="cls-6" d="M53.46,24.37s-.08-.31-.08-.31v-.02s0-.02,0-.02c-.07-.18-.18-.26-.27-.3-.09-.04-.24-.07-.45,0-.44.2-.59.17-1.2-.21-2.37-1.28-5.04-2.87-7.17-4.28l.03.02c-.31-.27-.66-.32-.92-.12l-2.47,1.9c-.11.08-.4.3-.26.69,0,.01.11.26.11.26l-.02-.05c.04.17.12.3.24.37.21.12.43.04.62-.03.14-.05.29-.1.41-.08.01,0,.04,0,.07.01.22.04.46.08.65.61,0-.01,1.84,6,1.84,6,.22.77.2.79-.1,1.18-.13.17-.31.4-.19.71,0,0,.07.21.07.21.07.21.19.34.35.39.24.07.45-.09.59-.21.02-.02.05-.04.07-.06l1.86-1.42c.29-.22.2-.56.17-.67,0-.01,0-.03,0-.03,0,0-.04-.19-.04-.19-.1-.46-.56-.38-.71-.35-.26.05-.35.07-.44-.2,0,.02-.23-.81-.34-1.2l2.06-1.58.89.5c.29.21.26.3.17.53-.07.17-.15.38-.07.62,0,0,.1.33.1.33.08.24.22.33.33.36.11.03.28.04.48-.12l3.35-2.57c.23-.17.39-.33.28-.71ZM44.76,23.43l1.75,1.08-1.17.9-.58-1.97Z"/>
            <path class="cls-6" d="M59.99,14.46s-.16-.03-.16-.03c-1.36-.25-1.97-.39-2.17-1.15-.14-.56.27-.94.5-1.03.39-.17.76-.11,1.09.16,0,0,.1.08.1.08.52.44.76.62.99.57.11-.02.19-.09.24-.19l-.02.04.37-.55.03-.04v-.05s.02-.02.02-.03c.02-.08.05-.2,0-.34l-.42-.97v.03c-.13-.49-.68-.47-1.08-.46-.59.02-1.18.17-2.03.54-3.01,1.3-3.49,3.12-2.95,4.4.57,1.32,1.75,1.56,2.69,1.74l.32.07c.31.06.6.12.87.17,1.37.25,1.98.39,2.27,1.12.31.8-.26,1.47-.92,1.76-.46.2-.93-.05-1.16-.22-.21-.16-.4-.34-.56-.48-.32-.29-.55-.5-.8-.3-.02.02-.45.44-.45.44-.24.24-.08.55-.01.68.02.03.03.06.04.08l.55,1.28c.24.56.47.53,1.24.45.55-.06,1.5-.35,2.35-.72,1.57-.68,2.61-1.59,3.01-2.63.27-.73.23-1.49-.14-2.27-.61-1.31-1.86-1.77-3.82-2.13Z"/>
            <path class="cls-6" d="M81.85,17.1c-.64-.15-.67-.18-.68-.67l-.11-6.6c0-.37.16-.59.48-.66h0s.04-.01.04-.01c.11-.03.35-.1.45-.43,0,0,.08-.27.08-.27.05-.2.03-.36-.06-.48-.09-.12-.23-.18-.42-.17l-4.65.08c-.28,0-.43.15-.5.27l-.02.03v.03s-.12.33-.12.33c-.06.14-.05.31.02.44.08.13.21.22.38.24.64.15.67.18.68.67,0,0,.03,1.63.04,2.08l-2.65.05c0-.46-.04-2.08-.04-2.08,0-.37.16-.59.48-.66h0s.04-.01.04-.01c.11-.03.35-.1.45-.43,0,0,.08-.27.08-.27.05-.2.03-.36-.06-.48-.09-.12-.23-.18-.42-.17l-4.65.08c-.28,0-.43.15-.5.27l-.02.03v.03s-.12.33-.12.33c-.06.14-.05.31.02.44.08.13.21.22.38.24.64.15.67.18.68.67l.11,6.6c0,.37-.16.59-.48.66h0s-.04.01-.04.01c-.11.03-.35.1-.45.43,0,0-.08.27-.08.27-.05.2-.03.36.06.48.09.12.23.18.42.17,0,0,4.65-.08,4.65-.08.28,0,.43-.15.5-.27l.02-.03v-.03s.12-.33.12-.33c.06-.14.05-.31-.02-.44-.08-.13-.21-.22-.38-.24-.64-.15-.67-.18-.68-.67,0,0-.04-2.42-.05-2.92l2.64-.05.05,2.92c0,.37-.16.59-.48.66h0s-.04.01-.04.01c-.11.03-.35.1-.45.43,0,0-.08.27-.08.27-.05.2-.03.36.06.48.09.12.23.18.42.17l4.65-.08c.28,0,.43-.15.5-.27l.02-.03v-.03s.12-.33.12-.33c.06-.14.05-.31-.02-.44-.08-.13-.21-.22-.38-.24Z"/>
            <path class="cls-6" d="M95.83,10.85s-4.47-1.28-4.47-1.28c-.27-.08-.45.02-.55.11l-.02.02-.02.03-.2.29c-.1.11-.14.28-.11.43.03.15.14.27.3.35.56.32.59.36.45.84l-1.82,6.34c-.1.35-.32.52-.65.49h0s-.04,0-.04,0c-.12,0-.37,0-.55.28,0,0-.16.24-.16.24-.11.17-.14.33-.08.48.05.14.17.24.35.29,0,0,4.47,1.28,4.47,1.28.27.08.45-.02.55-.11l.02-.02.02-.03.2-.29c.1-.11.14-.28.11-.43-.03-.15-.14-.27-.3-.35-.57-.32-.59-.36-.45-.84l1.82-6.34c.1-.35.32-.52.65-.49h0s.04,0,.04,0c.12,0,.37,0,.55-.28,0,0,.16-.24.16-.24.11-.17.14-.33.08-.48-.05-.14-.17-.24-.35-.29Z"/>
            <path class="cls-6" d="M115.31,23.61c.21.06.49.14.7-.03,0,0,.31-.25.31-.25.12-.1.17-.22.16-.35-.01-.24-.22-.38-.33-.46,0,0-2.2-1.53-2.2-1.53-.28-.19-.51-.07-.61-.01l-.22.12c-.4.23-.17.63-.09.78.03.05.06.1.08.15.12.26.2.43-.1.68,0,0-2.08,1.75-3.23,2.71l1.64-5.24c.02-.06.04-.12.06-.18.09-.26.21-.59-.06-.78l-1.47-1.02c-.27-.18-.54.02-.8.21l-.12.09s-3.11,2.3-4.57,3.38l1.44-4.06c.11-.32.24-.32.59-.28.22.02.47.05.68-.11,0,0,.3-.23.3-.23.11-.09.18-.21.17-.34,0-.23-.2-.39-.34-.49l-3.52-2.44c-.29-.2-.5-.11-.63,0l.02-.02-.27.19c-.35.25-.16.64-.08.79,0,0,.04.09.04.09.15.3.22.43,0,1.01,0,0-2.81,7.33-2.81,7.33-.11.33-.12.89.19,1.11l1.59,1.1c.42.29.86-.05,1.07-.21,0,0,2.71-2.03,4.06-3.04l-1.61,4.72c-.11.32-.11.88.2,1.1l1.73,1.2c.45.31.92-.09,1.08-.22,0,0,5.97-5.15,5.97-5.15.48-.46.62-.44,1-.33Z"/>
            <path class="cls-6" d="M124.55,32.85l-1.78-2.56c-.08-.11-.28-.41-.68-.29-.01,0-.27.09-.27.09h.05c-.17.01-.3.09-.38.21-.13.2-.06.43,0,.62.04.14.09.29.06.41,0,.01-.01.04-.02.07-.05.22-.1.46-.64.62.01,0-6.08,1.55-6.08,1.55-.78.18-.8.16-1.18-.16-.16-.14-.39-.33-.7-.22,0,0-.21.06-.21.06-.21.06-.35.17-.4.33-.08.24.07.45.18.6.02.03.04.05.05.07,0,0,1.33,1.92,1.33,1.92.21.3.55.23.66.2.01,0,.03,0,.03,0,0,0,.19-.03.19-.03.47-.07.4-.54.38-.7-.04-.26-.05-.35.22-.43-.02,0,.82-.19,1.21-.28l1.48,2.14-.54.86c-.22.28-.31.25-.54.14-.16-.07-.37-.17-.62-.1,0,0-.34.08-.34.08-.25.07-.34.21-.37.31-.04.1-.05.27.1.48l2.41,3.47c.16.23.32.4.69.31-.01,0,.31-.06.31-.06h.02s.02,0,.02,0c.18-.06.27-.17.31-.25.04-.09.08-.24.01-.45-.17-.45-.14-.6.27-1.18,1.39-2.3,3.11-4.9,4.61-6.96l-.03.03c.29-.3.35-.65.17-.91ZM120.23,34l-1.16,1.7-.84-1.21,2-.49Z"/>
          </g>
          <g>
            <path class="cls-6" d="M39.68,93.14c-.16-.17-.39-.22-.63-.13,0,0-.32.13-.32.13-.14.05-.23.14-.28.27-.08.2.02.39.1.54.29.46.26.69-.11,1.02l-4.78,4.37c-.27.25-.55.28-.81.08h0s-.03-.03-.03-.03c-.1-.06-.31-.2-.62-.05,0,0-.26.12-.26.12-.18.09-.29.21-.32.36-.03.15.02.29.15.43l3.14,3.43c.19.21.39.22.53.19h.03s.03-.02.03-.02l.32-.14c.14-.05.27-.16.32-.31.05-.15.02-.3-.07-.45-.31-.57-.31-.62.05-.95,0,0,1.25-1.14,1.59-1.45h0s-1.19,4.17-1.19,4.17c0,.01,0,.03-.01.05-.05.16-.15.49.1.77l2.11,2.31.2.22.22-.2.42-.39.13-.12-.04-.17c-.13-.54.08-2.14.81-4.53,1.29.59,2.59.37,3.7-.65,1.34-1.25.72-3.18-.11-4.1l-4.37-4.78ZM38.84,99.53l2.51-2.3.45.49c.32.35.56.85-.33,1.71-.56.52-1.14.8-1.63.77-.28-.02-.51-.13-.69-.33,0,0-.17-.18-.31-.34Z"/>
            <path class="cls-6" d="M59.25,108.79c-.05-.2-.19-.37-.4-.48l-6.43-3.34c-.21-.11-.44-.07-.64.09,0,0-.25.23-.25.23-.11.1-.17.22-.17.35,0,.22.16.36.28.47.43.34.48.56.25,1l-3.32,6.39c-.19.36-.29.66-.19.96.15.47.66.73,1.91,1.38l.08.04,3.93,2.04c.31.16.59.21.82.14.15-.05.27-.14.34-.28,0,0,.71-1.38.71-1.38.09-.18.06-.39-.08-.52.01.01-.25-.25-.25-.25-.21-.2-.46-.06-.64.04-.33.19-.83.47-1.57.09l-1.03-.54c-.46-.24-.66-.35-.12-1.39l1.01-1.95,2.12,1.1c.27.14.47.15.74.05h.03s.02-.03.02-.03l.6-.37-.03.02c.15-.07.24-.21.25-.36,0-.17-.11-.33-.31-.44,0,0-1.95-1.01-2.68-1.39l1.13-2.18,1.59.83c.37.19.43.55.48.96.02.22.05.41.2.53.08.06.19.08.29.06,0,0,.33-.07.33-.07.17-.05.27-.13.32-.24l.6-1.15-.02.04c.1-.14.13-.31.09-.47Z"/>
            <path class="cls-6" d="M76.52,112.26l-2.6-.36c-.31-.04-.44.15-.49.22l-.16.24c-.26.39.1.64.26.76.05.04.1.07.16.12.15.13.2.17-.02.45,0,0-1.44,1.87-2.12,2.74l-1.02-2.99c-.04-.37.06-.46.11-.5.08-.07.16-.1.23-.14.12-.05.29-.13.37-.32,0,.01.16-.33.16-.33.07-.14.06-.29,0-.41-.07-.13-.2-.21-.35-.23l-4.19-.58c-.28-.04-.48.05-.58.27,0-.01-.17.3-.17.3-.06.09-.08.22-.05.33.05.21.23.34.4.44.19.13.38.27.62.98,0,0,1.39,4.17,1.57,4.73l-.26,1.86c-.05.37-.24.56-.58.58h0s-.04,0-.04,0c-.12.01-.36.05-.51.36,0,0-.12.26-.12.26-.08.19-.09.35-.01.48.07.13.2.21.39.24,0,0,4.6.64,4.6.64.28.04.44-.08.53-.19l.02-.02v-.03s.17-.31.16-.29c.09-.15.11-.32.06-.46-.05-.14-.18-.25-.34-.3-.6-.24-.63-.28-.57-.77l.2-1.48c.05-.36.37-.98.51-1.17,0,0,2.51-3.34,2.51-3.34.44-.64.69-.71.88-.76.03,0,.06-.02.09-.03.19-.05.48-.12.6-.36h0s0-.03,0-.03l.11-.27c.02-.06.1-.24,0-.43-.07-.12-.19-.19-.36-.22Z"/>
            <path class="cls-6" d="M89.08,114.48s-.15-.06-.15-.06c-1.28-.52-1.85-.78-1.89-1.57-.03-.57.46-.86.7-.91.42-.09.77.04,1.04.38,0,0,.08.1.08.1.42.54.62.76.86.76.11,0,.21-.05.27-.14l-.03.03.48-.46.04-.04.02-.05s0-.02.01-.03c.03-.07.09-.19.06-.33l-.21-1.04v.03c-.04-.51-.58-.61-.97-.68-.58-.1-1.19-.07-2.1.12-3.21.66-4.06,2.35-3.78,3.71.29,1.41,1.4,1.88,2.28,2.26l.3.13c.29.13.56.24.82.34,1.29.52,1.86.78,1.99,1.56.14.85-.55,1.39-1.26,1.53-.49.1-.9-.24-1.09-.45-.17-.2-.33-.41-.45-.58-.26-.35-.44-.6-.72-.46-.02.01-.53.34-.53.34-.29.19-.19.52-.15.67,0,.03.02.06.02.08l.28,1.36c.12.6.35.62,1.12.69.55.05,1.54-.04,2.45-.23,1.68-.35,2.88-1.03,3.48-1.97.42-.66.53-1.42.32-2.25-.34-1.4-1.47-2.11-3.3-2.86Z"/>
            <path class="cls-6" d="M101.68,104.86c-2.91,1.64-3.92,4.96-2.37,7.71,1.67,2.96,5.04,3.4,7.32,2.11,2.91-1.64,3.89-5.01,2.3-7.84-1.48-2.63-4.6-3.48-7.25-1.99ZM106.2,113.09c-.33.23-.68.3-1.05.21-.6-.14-1.56-.74-2.75-2.85-.86-1.52-1.19-3.49-.23-4.03.35-.2.73-.24,1.12-.14.8.22,1.67,1.1,2.45,2.48.9,1.6,1.34,3.71.46,4.32Z"/>
            <path class="cls-6" d="M122.07,97.53c-.16-.13-.37-.14-.52-.03.02-.01-.3.19-.3.19-.24.16-.16.44-.1.63.11.36.28.91-.26,1.55l-.75.89c-.19.22-.33.33-.45.34-.19.02-.49-.15-.93-.52l-4.47-3.76c-.28-.24-.34-.51-.18-.8h0s.02-.04.02-.04c.05-.11.15-.33-.03-.62,0,0-.15-.24-.15-.24-.11-.17-.25-.26-.4-.27-.15,0-.29.06-.41.2,0,0-2.99,3.56-2.99,3.56-.18.22-.17.42-.12.55v.03s.03.03.03.03l.18.3c.07.14.2.24.35.27.15.03.31-.02.44-.13.53-.38.57-.39.95-.07l5.05,4.25c.28.24.34.51.18.8h0s-.02.04-.02.04c-.05.11-.15.33.03.62,0,0,.15.24.16.24.11.17.24.25.4.26.15,0,.29-.06.41-.2l4.98-5.92c.46-.54.35-.96.11-1.16,0,0-1.19-1-1.19-1Z"/>
          </g>
        </g>
      </g>
    </g>
  </g>
</svg>