<?xml version="1.0" encoding="UTF-8"?>
<svg id="_レイヤー_2" data-name="レイヤー 2" xmlns="http://www.w3.org/2000/svg" xmlns:xlink="http://www.w3.org/1999/xlink" viewBox="0 0 426.45 446.06">
  <defs>
    <style>
      .cls-1 {
        fill: none;
      }

      .cls-2 {
        fill: #c0ae72;
      }

      .cls-3 {
        fill: #221815;
      }

      .cls-4 {
        fill: #ffe100;
      }

      .cls-5 {
        fill: #38a1db;
      }

      .cls-6 {
        fill: #fff;
      }

      .cls-7 {
        fill: #bf9d6d;
      }

      .cls-8 {
        clip-path: url(#clippath);
      }
    </style>
    <clipPath id="clippath">
      <path class="cls-1" d="M390.94,221.08c.07-12.49-5.34-22.53-15.6-29.03-.69-.44-1.39-.87-2.1-1.27-.77-.43-1.55-.84-2.34-1.22-11.64-5.67-23.69-4.48-34.15-2.53-5.83,1.33-9.45,2.5-11.74,3.46-1.46-1.46-3.03-2.84-4.74-4.07-.97-.67-6.37-4.22-14.15-5.76-.48-2.23-.98-3.97-1.26-4.88-.01-.05-.23-.79-.25-.84-1.29-3.88-4.26-11.63-9.68-19.89-6.8-10.34-15.02-17.72-24.49-21.96-15.15-6.65-29.01-3.93-42.64,8.55-6.19,6.4-11.53,14.18-15.87,23.1-.54,1.12-4.52,10.56-4.96,11.86-1.56,4.27-6.56,19.27-5.14,33.02.89,10.47,5.87,20.98,13,27.42.12.11.54.44.67.53,7.94,6.03,16.67,9.07,25.99,9.07,1.13,0,2.27-.05,3.42-.13,12.05-.93,21.23-4.61,21.51-4.72,1.18-.45,2.22-.93,3.33-1.4,3.32,4.59,7.6,8.48,12.65,11.05,6.29,3.17,11.23,4.29,15.81,4.29.67,0,1.31-.14,1.97-.18.25.54.51,1.09.92,1.73,9.83,18.52,24.19,24.87,33.26,24.47.58.03,1.17.05,1.76.05,15.78,0,33.72-11.18,44.46-28.18l.53-.88c3.53-5.77,8.87-14.5,9.85-31.66Z"/>
    </clipPath>
  </defs>
  <g id="_レイヤー_1-2" data-name="レイヤー 1">
    <g>
      <path class="cls-5" d="M426.45,228.54c0,117.76-84.41,196.43-213.22,196.43S0,346.3,0,228.54,95.46,15.32,213.22,15.32s213.22,95.46,213.22,213.22Z"/>
      <g>
        <g>
          <path class="cls-3" d="M419.51,297.1c-1.3-.72-2.84-1.24-3.8-1.44-6.81-1.4-13.64-2.18-20.31-2.33-3.7-.08-7.16,0-10.49.16-1.79-20.11-8.09-39.31-19.27-58.28,1.62-9.72,2.12-22.36,2.53-32.66l.21-5.17c.84-18.75-5.88-43.26-14.38-52.46-2.12-2.29-5.31-4.04-8.12-4.45-21.54-3.21-49.87,5.35-81.73,24.67l-4-.59c-26.18-3.9-58.77-8.75-103.06,1.53-1.4.32-2.95.78-4.54,1.26-2.36.71-6.76,1.98-7.92,1.68-8.49-4.64-30.28-15.71-49.14-18.49-17.53-2.61-29.09.83-34.52,10.31-15.37,28.86-7.65,69.07-4.44,79.47-16,31.01-15.7,63.87-15.6,67.47-.01.84.03,1.72.04,2.58-.84.06-1.6.09-2.48.16-8.93.71-17.8,1.58-28.07,4.44-3.34.92-6.41,3.14-5.81,5.59.47,1.92,2.84,2.35,4.83,2.35,1.54,0,2.85-.25,2.89-.26,10.63-2.16,16.02-2.75,23.47-3.55l3.14-.34c.81-.09,1.61-.13,2.42-.2.81,9.68,2.86,19.99,6.48,30.18-4.44,1.67-9.56,3.89-15.71,7.07-.04.02-3.98,2.08-4.74,4.62-.23.78-.15,1.56.23,2.24.62,1.11,1.92,1.46,3.31,1.46,2.3,0,4.82-.95,4.86-.96,1.84-.81,3.57-1.58,5.21-2.31,3.72-1.66,6.96-3.05,10-4.23,3.93,8.9,9.09,17.53,15.73,25.34-6.84,3.96-15.09,9.33-24.43,16.6-1.94,1.52-3.19,3.46-3.41,5.32-.12,1.04.11,1.99.65,2.67.41.51,1.18.73,2.1.73,1.62,0,3.71-.68,5.14-1.7,10.26-7.27,19.16-12.89,26.15-17.04,7.51,7.31,16.5,13.67,27.22,18.49,35.27,15.84,67.77,19.4,108.95,20l4.04-.06,4.36.06c47.38-.69,84.81-7.46,111.26-20.11,15.35-7.34,27.56-17.24,36.7-29.54,7.64,2.61,16.9,6.62,25.83,12.67,1.14.79,3.45,2.16,5.5,2.16.92,0,1.79-.27,2.47-1.01.29-.3.62-.85.53-1.73-.17-1.86-2.23-4.46-3.56-5.43-9.12-6.66-18.29-10.95-26.01-13.74,5.25-8.67,9.17-18.37,11.72-29.12,5.64.9,12.22,2.35,19.44,4.77.04,0,2.17.71,4.26.71,1.57,0,3.11-.39,3.7-1.78.27-.63.26-1.33-.03-2.02-1.04-2.48-5.39-4.32-5.43-4.33-7.12-2.82-14.12-4.47-20.31-5.49,1.35-8.14,2-16.8,1.93-26,.02-1.57-.07-3.12-.1-4.67,2.94-.16,5.97-.26,9.16-.22,4.96.05,10.48.42,15.35.74,1.52.1,2.99.19,4.4.28,3.19.18,7.1-.41,7.57-2.73.17-.81-.11-2.03-2.36-3.29Z"/>
          <path class="cls-6" d="M354.53,235.23c1.76-9.13,2.29-22.42,2.71-33.11l.22-5.22c.76-16.97-5.67-38.25-11.49-44.55-.51-.56-1.4-.99-1.72-1.06-18.78-2.76-45.27,5.51-74.57,23.31-2.08,1.26-3.22,1.95-5.23,1.65l-5.91-.87c-25.25-3.76-56.69-8.45-98.98,1.36-1.2.27-2.52.67-3.88,1.08-5.38,1.6-11.46,3.43-16.3.79-7.98-4.35-28.38-14.75-45.5-17.28-12.59-1.85-20.45-.25-23.34,4.78-10.47,19.65-8.42,46.45-5.73,61.45.72-.85,1.42-1.62,2.07-2.27,2.63-2.63,5.32-3.6,7.16-2.33,1.91,1.32,1.15,4.66-.08,7.33-1.22,2.65-3.69,7.76-5.63,11.18,0,0,0,.01,0,.02-16.85,29.6-16.54,62.53-16.45,66.2,0,.74.03,1.51.04,2.26,9.31.02,14.99,1,17.89,1.74l.21.05c.06.01,7.62,1.41,7.18,5.04-.39,3.23-4.98,2.99-7.2,2.87l-.82-.06c-2.44-.37-8.96-1.24-16.86-1.4.79,8.79,2.71,18.09,6.01,27.25,4.52-1.04,7.71-1.28,9.83-1.4l.29-.02c2.79-.15,9.39-.25,9.73,3.07.3,2.87-4.87,4.24-7.11,4.7-1.04.21-2.16.36-3.41.53-1.75.24-3.74.52-6.09,1.02,3.77,8.24,8.76,16.15,15.14,23.24,6.63-3.22,10.45-4.4,10.53-4.42.06-.03,6.57-1.68,7.84,1.28,1.09,2.56-1.67,3.92-4.33,5.24-.85.42-1.74.86-2.55,1.35,0,0-.09.05-.26.13-1.03.51-2.75,1.4-5.02,2.62,6.17,5.56,13.32,10.43,21.71,14.2,33.54,15.07,64.84,18.45,104.45,19.04l4.04-.06,4.36.06c44.98-.67,81.88-7.25,106.54-19.04,12.36-5.91,22.38-13.54,30.17-22.9-3.71-.86-5.98-1.18-6.04-1.19-1.42-.14-5.85-1.17-7.34-3.19-.44-.61-.61-1.28-.47-1.94.75-3.62,7.32-2.9,10.09-2.43.35.03,3.75.38,9.03,1.65,5.2-7.94,9.03-16.98,11.53-27.11-2.33-.14-4.2-.17-5.48-.17-2.44.01-5.28-.05-5.28-.05-.74-.07-6.59-.76-6.82-3.68-.03-.39.05-1,.6-1.64,1.31-1.53,4.62-2.39,6.03-2.5l.31-.03c.84-.08,3.07-.3,5.31-.32h.61c1.62,0,3.81.05,6.42.22,1.29-7.68,1.93-15.9,1.86-24.74.01-1.24-.07-2.46-.09-3.69-6.85.85-12.47,1.97-16.3,2.74-1.96.39-3.38.68-4.24.78-1.38.2-2.56.3-3.55.3-2.31,0-3.58-.56-4-1.72-.29-.84-.23-1.74.18-2.59.74-1.52,2.53-2.81,5.19-3.72,2.09-.71,10.21-3.2,22.24-4.67-1.72-19.09-7.86-37.28-18.78-55.31-.7-1.16-.95-2.54-.69-3.87Z"/>
        </g>
        <g>
          <path class="cls-3" d="M115.31,316.91c-3.5,7.1-3.52,18.45,1.21,24.48,2.92,3.45,7.8,5.41,14.09,4.33,5.43-.94,8.52-5.9,9.55-9.85,2.23-8.84-.15-19.68-5.23-23.79-5.36-3.91-15.39-3.82-19.61,4.83Z"/>
          <path class="cls-3" d="M285.41,317.95c-3.5,7.1-3.52,18.45,1.21,24.48,2.92,3.45,7.8,5.41,14.09,4.33,5.43-.94,8.52-5.9,9.55-9.85,2.23-8.84-.14-19.68-5.23-23.79-5.36-3.91-15.39-3.82-19.61,4.83Z"/>
          <g>
            <path class="cls-3" d="M230.45,348.66c-1.17-4.16-4.32-7.43-8.44-8.76-7.86-2.55-15.82-1.48-20.77,2.79-5.16,4.56-5.41,12.65-2.18,16.84,2.99,3.88,7.72,5.9,14.48,6.2.31.01.63.02.94.02,5.41,0,10.44-1.98,13.31-5.27v-.02c2.83-3.28,3.82-7.69,2.67-11.81Z"/>
            <path class="cls-4" d="M219.9,346.41c-2.1-.68-4.24-1.01-6.25-1.01-3.19,0-6.05.84-7.91,2.45-2.45,2.17-2.29,6.18-1.26,7.52,1.68,2.18,4.74,3.34,9.35,3.54,4.27.17,7.46-1.38,8.79-2.9,1.34-1.56,1.79-3.55,1.24-5.49-.54-1.94-2.02-3.48-3.96-4.11Z"/>
          </g>
        </g>
      </g>
      <g>
        <g>
          <path class="cls-3" d="M174.31,406.74c-1.48-4.63-4.48-8.3-7.74-11.99-11.57-11.1-31.76-15.56-47.81-10.64-11.58,3.03-24.94,13.2-26.89,28.3-1.79,11.76,2.42,22.06,11.65,27.76,9.31,4.78,19.42,4.67,29.7-.17.87-.33,1.3-.24,3.57.72,1.42.61,3.17,1.34,5.28,1.7,3.57,1.03,6.76,1.46,9.57,1.46,7.46,0,12.38-3.02,15.44-6.04,7.97-7.84,10.94-20.61,7.23-31.1Z"/>
          <path class="cls-6" d="M163.97,410.33c-.03-.07-.05-.13-.07-.2-.83-2.65-3.05-5.31-5.25-7.82-8.41-8.05-24.41-11.47-36.92-7.67-8.41,2.21-17.79,9.67-19.04,19.29-.55,3.62-1.01,12.25,6.19,16.72,5.93,3.02,12.4,2.87,20-.7,1.9-.75,3.63-1.02,5.18-1.02,2.92,0,5.24.98,6.98,1.72,1.12.47,2.08.88,2.97,1.01.27.04.53.09.78.17,6.51,1.94,11.44,1.34,14.59-1.78,4.91-4.82,6.87-13.3,4.58-19.71Z"/>
        </g>
        <g>
          <path class="cls-3" d="M338.19,414.7c-1.98-15.21-15.33-25.39-26.69-28.34-16.27-4.97-36.47-.53-48.34,10.91-2.82,3.2-5.95,7-7.44,11.65-3.71,10.49-.74,23.27,7.22,31.1,3.07,3.03,8,6.05,15.45,6.05,2.81,0,5.99-.43,9.57-1.46,2.11-.36,3.86-1.1,5.28-1.7,2.29-.98,2.71-1.06,3.23-.88,10.61,5,20.73,5.1,30.44.1,8.83-5.48,13.04-15.78,11.27-27.43Z"/>
          <path class="cls-6" d="M327.35,416.23c-1.27-9.74-10.64-17.21-18.84-19.34-3.53-1.08-7.32-1.6-11.13-1.6-9.92,0-20.02,3.48-26.32,9.53-1.88,2.17-4.1,4.83-4.94,7.48-.02.07-.04.13-.07.2-2.29,6.41-.33,14.89,4.56,19.7,3.17,3.11,8.06,3.72,14.6,1.78.25-.07.51-.13.78-.17.89-.13,1.85-.53,2.97-1.01,2.67-1.14,6.69-2.83,11.82-.85,7.93,3.73,14.41,3.87,20.73.63,6.81-4.24,6.35-12.88,5.82-16.38Z"/>
        </g>
      </g>
      <g class="cls-8">
        <rect class="cls-5" x="239.53" y="119.46" width="111.39" height="180.31" transform="translate(-19.52 388.6) rotate(-65)"/>
        <g>
          <rect class="cls-3" x="170.43" y="181.51" width="137.19" height="10.62" transform="translate(-31.3 324.49) rotate(-65)"/>
          <rect class="cls-3" x="189.3" y="190.31" width="137.19" height="10.62" transform="translate(-28.39 346.67) rotate(-65)"/>
          <rect class="cls-3" x="208.17" y="199.11" width="137.19" height="10.62" transform="translate(-25.46 368.86) rotate(-65)"/>
          <rect class="cls-3" x="227.04" y="207.9" width="137.19" height="10.62" transform="translate(-22.55 391.03) rotate(-65)"/>
          <rect class="cls-3" x="245.9" y="216.7" width="137.19" height="10.62" transform="translate(-19.62 413.22) rotate(-65)"/>
          <rect class="cls-3" x="264.77" y="225.5" width="137.19" height="10.62" transform="translate(-16.7 435.41) rotate(-65)"/>
          <rect class="cls-3" x="283.64" y="234.3" width="137.19" height="10.62" transform="translate(-13.78 457.58) rotate(-65)"/>
        </g>
      </g>
      <path class="cls-3" d="M390.94,221.08c.07-12.49-5.34-22.53-15.6-29.03-.69-.44-1.39-.87-2.1-1.27-.77-.43-1.55-.84-2.34-1.22-11.64-5.67-23.69-4.48-34.15-2.53-5.83,1.33-9.45,2.5-11.74,3.46-1.46-1.46-3.03-2.84-4.74-4.07-.97-.67-6.37-4.22-14.15-5.76-.48-2.23-.98-3.97-1.26-4.88-.01-.05-.23-.79-.25-.84-1.29-3.88-4.26-11.63-9.68-19.89-6.8-10.34-15.02-17.72-24.49-21.96-15.15-6.65-29.01-3.93-42.64,8.55-6.19,6.4-11.53,14.18-15.87,23.1-.54,1.12-4.52,10.56-4.96,11.86-1.56,4.27-6.56,19.27-5.14,33.02.89,10.47,5.87,20.98,13,27.42.12.11.54.44.67.53,7.94,6.03,16.67,9.07,25.99,9.07,1.13,0,2.27-.05,3.42-.13,12.05-.93,21.23-4.61,21.51-4.72,1.18-.45,2.22-.93,3.33-1.4,3.32,4.59,7.6,8.48,12.65,11.05,6.29,3.17,11.23,4.29,15.81,4.29.67,0,1.31-.14,1.97-.18.25.54.51,1.09.92,1.73,9.83,18.52,24.19,24.87,33.26,24.47.58.03,1.17.05,1.76.05,15.78,0,33.72-11.18,44.46-28.18l.53-.88c3.53-5.77,8.87-14.5,9.85-31.66ZM262.41,231.6c-.08.03-8.08,3.2-18.37,4-11.87.92-19.45-4.85-21.88-6.66-5-4.53-8.79-12.66-9.45-20.34-1.18-11.51,3.16-24.52,4.61-28.48.39-1.06,3.95-9.57,4.44-10.59,3.84-7.89,8.52-14.72,13.66-20.06,10.24-9.37,19.41-11.29,30.57-6.38,7.49,3.36,14.15,9.4,19.77,17.96,4.92,7.49,7.54,14.61,8.32,16.91l.28.99c.1.33.23.76.37,1.26-3.12.38-6.39,1.21-9.76,2.67-.86.37-1.62.86-2.44,1.29-1.82-1.99-4.05-3.77-6.3-5.03-6.73-3.79-14.11-3.84-20.25-.13-6.59,4-10.46,11.71-9.86,19.44.23,6.03,2.69,11.16,7.12,14.82,2.87,2.37,6.27,3.78,9.4,4.6,0,.53-.07,1.05-.05,1.58.03,3.82.78,7.6,2.04,11.21-.76.31-1.43.63-2.24.94ZM264.12,206.91c-1.43-.51-2.96-1.24-4.22-2.39-1.79-1.63-2.7-3.75-2.82-6.7-.29-3.87,1.51-7.58,4.61-9.47,2.17-1.32,4.47-1.53,7.04-.66,2.02.68,3.67,1.86,4.9,2.98-4.48,4.46-7.75,9.99-9.5,16.23ZM306.89,243.3c-7.63,2.01-11.53,2.43-19.54-1.62-8.18-4.17-13.72-13.13-13.78-22.46-.43-11.82,5.62-21.89,15.78-26.29,3.44-1.49,6.75-2.04,9.77-2.05,8.05,0,14.03,3.93,14.85,4.49,9.03,6.49,13.34,17.88,10.69,28.51-2.49,11.49-10.8,17.57-17.75,19.43ZM371.63,247.24l-.6,1.01c-8.69,13.74-23.71,23.26-36.56,22.57-6.52.09-15.93-5.16-23.02-17.53,4.14-1.36,8.46-3.71,12.35-7.14,1.96,1.41,4.3,2.61,7,3.2,1.02.22,2.2.38,3.49.38,3.21,0,7.18-.98,11.47-4.38,4.8-4.81,6.43-10.35,4.84-17.49-2.82-8.54-9.53-11.12-14.31-12.03-.27-5.63-1.81-11.14-4.48-16.14,2.05-.65,4.64-1.36,7.15-1.93,8.49-1.57,18.35-2.62,27.19,1.67.59.28,1.14.57,1.7.89.53.3,1.04.61,1.59.96,7.15,4.53,10.61,10.99,10.57,19.46-.82,14.14-4.94,20.88-8.38,26.5ZM335.17,226.81c2.53.61,4.13,1.69,4.89,3.93.65,2.96.13,4.69-1.56,6.43-1.71,1.35-3.44,1.83-5.18,1.51-.94-.17-1.76-.57-2.49-1,1.88-3.16,3.39-6.77,4.33-10.89Z"/>
      <g>
        <path class="cls-6" d="M265.76,189.54h0c.68,0,1.43.13,2.2.39.73.25,1.45.59,2.16,1.03-3.25,3.71-5.78,8.03-7.44,12.7-.45-.27-.85-.56-1.2-.88-1.33-1.21-1.96-2.76-2.05-5.13-.23-3,1.14-5.85,3.48-7.27.93-.56,1.86-.84,2.85-.84M265.76,187.18c-1.43,0-2.78.39-4.08,1.18-3.1,1.88-4.9,5.6-4.61,9.47.11,2.95,1.03,5.07,2.82,6.7,1.26,1.15,2.79,1.88,4.22,2.39,1.75-6.24,5.02-11.77,9.5-16.23-1.23-1.12-2.88-2.3-4.9-2.98-1.03-.34-2.01-.52-2.96-.52h0Z"/>
        <path class="cls-6" d="M351.67,198.74h0c5.17,0,9.56.92,13.46,2.81.54.26,1.05.53,1.55.81.49.28.97.57,1.49.9,6.41,4.06,9.51,9.77,9.47,17.33-.78,13.55-4.64,19.85-8.05,25.43l-.57.96c-8.01,12.67-21.69,21.51-33.24,21.51-.4,0-.8,0-1.19-.03h-.23s-.06,0-.06,0c-4.92,0-12.73-3.71-19.36-13.97,3.19-1.35,6.25-3.18,9.02-5.4,2.02,1.23,4.14,2.09,6.33,2.56,1.33.29,2.67.43,3.99.43,4.49,0,8.85-1.64,12.94-4.89l.11-.09.1-.1c5.43-5.43,7.22-11.87,5.48-19.67l-.03-.11-.04-.11c-2.24-6.81-7.18-11.35-14.33-13.21-.41-4.37-1.56-8.71-3.36-12.76,1.42-.4,2.89-.77,4.24-1.08,3.34-.62,7.76-1.33,12.28-1.33M351.67,196.38c-4.37,0-8.69.63-12.71,1.37-2.51.58-5.1,1.28-7.15,1.93,2.67,5,4.21,10.52,4.48,16.14,4.79.91,11.5,3.49,14.31,12.03,1.59,7.14-.04,12.68-4.85,17.49-4.29,3.4-8.26,4.38-11.47,4.38-1.3,0-2.47-.16-3.49-.38-2.69-.59-5.04-1.79-7-3.2-3.89,3.43-8.21,5.78-12.35,7.14,7.03,12.27,16.34,17.53,22.85,17.53.06,0,.11,0,.17,0,.44.02.88.03,1.32.03,12.54,0,26.84-9.34,35.24-22.61l.6-1.01c3.44-5.62,7.56-12.37,8.38-26.5.04-8.48-3.41-14.93-10.57-19.46-.55-.35-1.06-.66-1.59-.96-.55-.31-1.11-.61-1.7-.89-4.66-2.26-9.6-3.04-14.48-3.04h0Z"/>
        <path class="cls-6" d="M254.76,142.83c3.22,0,6.58.79,10.27,2.41,7.08,3.17,13.39,8.92,18.76,17.1,4.6,7,7.14,13.71,7.92,15.96-2.61.52-5.18,1.33-7.67,2.41-.37.16-.72.34-1.07.52-1.7-1.62-3.63-3.07-5.57-4.16-3.7-2.08-7.72-3.18-11.63-3.18s-7.66,1.07-11,3.09c-7.35,4.46-11.66,12.95-11,21.55.25,6.72,3.01,12.44,7.98,16.55,2.36,1.95,5.21,3.47,8.49,4.53.04,3.16.54,6.41,1.5,9.71-.07.03-.15.06-.23.09-.08.03-7.75,3.07-17.66,3.83-.8.06-1.58.09-2.34.09-9.41,0-15.44-4.42-17.85-6.22-4.55-4.17-8-11.68-8.61-18.76-1.13-11.01,3.14-23.77,4.48-27.42.38-1.04,3.92-9.48,4.34-10.37,3.67-7.55,8.25-14.27,13.13-19.35,6.25-5.72,11.89-8.38,17.75-8.38M254.76,140.47c-6.55,0-12.72,2.94-19.34,9-5.14,5.34-9.82,12.17-13.66,20.06-.49,1.02-4.05,9.52-4.44,10.59-1.45,3.96-5.79,16.96-4.61,28.48.65,7.67,4.45,15.81,9.45,20.34,2.25,1.68,8.93,6.76,19.35,6.76.82,0,1.66-.03,2.52-.1,10.28-.8,18.29-3.97,18.37-4,.81-.31,1.48-.63,2.24-.94-1.25-3.61-2.01-7.39-2.04-11.21-.02-.54.05-1.05.05-1.58-3.13-.82-6.53-2.23-9.4-4.6-4.43-3.66-6.9-8.78-7.12-14.82-.6-7.73,3.27-15.45,9.86-19.44,3.03-1.84,6.37-2.75,9.78-2.75s7.07.96,10.47,2.88c2.24,1.26,4.47,3.04,6.3,5.03.82-.43,1.58-.91,2.44-1.29,3.36-1.46,6.64-2.29,9.76-2.67-.14-.5-.27-.93-.37-1.26l-.28-.99c-.77-2.29-3.4-9.41-8.32-16.91-5.63-8.56-12.28-14.61-19.77-17.96-3.95-1.74-7.65-2.62-11.24-2.62h0Z"/>
        <path class="cls-6" d="M336.77,229.98c.53.39.81.85,1.01,1.4.44,2.13.09,3.01-.87,4.04-.9.68-1.74,1.01-2.57,1.01-.04,0-.09,0-.13,0,1.03-2.05,1.88-4.2,2.55-6.44M335.17,226.81c-.94,4.12-2.45,7.73-4.33,10.89.73.43,1.55.82,2.49,1,.34.06.69.09,1.03.09,1.39,0,2.78-.53,4.15-1.61,1.68-1.74,2.21-3.47,1.56-6.43-.76-2.24-2.36-3.32-4.89-3.93h0Z"/>
        <path class="cls-6" d="M299.11,193.24h0c7.38,0,12.9,3.65,13.47,4.04,8.25,5.93,12.18,16.39,9.76,26.09-2.26,10.45-9.78,15.97-16.05,17.64-3.38.89-5.8,1.41-8.13,1.41-2.91,0-5.73-.83-9.74-2.85-7.41-3.78-12.44-11.97-12.5-20.45-.39-10.83,5.11-20.04,14.36-24.04,2.83-1.23,5.8-1.85,8.83-1.85M299.11,190.88c-3.02,0-6.33.55-9.77,2.05-10.16,4.4-16.21,14.47-15.78,26.29.07,9.33,5.61,18.3,13.78,22.46,4.42,2.23,7.58,3.1,10.81,3.1,2.63,0,5.31-.58,8.74-1.48,6.96-1.86,15.27-7.94,17.75-19.43,2.65-10.62-1.66-22.01-10.69-28.51-.81-.56-6.8-4.49-14.85-4.49h0Z"/>
      </g>
    </g>
    <g>
      <path class="cls-1" d="M142.91,33.94l2.34-4.64-5.04,1.3c-1.26.32-2.26.43-3.04.43,2.7-6.05,2.86-11.32,2.86-11.57l.12-4.95-3.92,3.02c-3.4,2.62-7.26,4.48-9.87,5.57v-.72l-.5-.64c-.44-.56-.68-.86-.83-1.05l.03.03c-.15-.19-.31-.39-.48-.59v-11.05l-1.01-.7-10.42-7.25-1.62-1.13-1.4,1.4-1.93,1.93c-5.06,5.06-17.63,3.14-27.72-.34.01,0-2.42-.85-2.42-.85l-.78-.27-.78.27s-2.43.85-2.42.85c-10.08,3.48-22.66,5.4-27.72.34,0,0-1.93-1.93-1.93-1.93l-1.4-1.4-1.62,1.13-10.42,7.25-1.01.7v11.05c-.17.2-.33.39-.48.59l.03-.03c-.15.18-.39.49-.83,1.05l-.5.64v.72c-2.61-1.09-6.47-2.95-9.87-5.57l-3.92-3.02.12,4.95c0,.25.16,5.52,2.86,11.57-.78,0-1.79-.1-3.04-.43l-5.04-1.3,2.34,4.64c.15.29,3.42,6.58,13.22,11.11-1.63,2.05-2.85,4.14-3.65,6.23l-.33-.23-3.25-2.3s-.45,3.96-.45,3.96l-.63,5.48c-.05.4-.08.8-.1,1.2l-1.01-.24s-.14,2.82-.14,2.82l-.19,3.91c0,.1,0,.3,0,.41,0,.33.02,1.01.13,1.9,0,.68,0,1.3,0,1.3l-.02,4.18c0,.1,0,.35.03.7l-3.31-.74s1.13,3.85,1.13,3.85l1.57,5.33c.03.09.43,1.46,1.3,3.32l-1.81.02s1.09,3.1,1.09,3.1l1.5,4.3c.49,1.4,1.25,2.83,2.19,4.17l-.69.06s1.18,2.95,1.18,2.95l1.64,4.09c1.14,2.84,3.62,6.37,7.35,8.74-.61.38-1.12.69-1.12.69l-2.37,1.47,1.84,2.09,2.55,2.9c2.01,2.28,5.64,4.7,10.22,5.47-.02.03-.04.05-.05.08,0,0-2.4,3.72-2.4,3.72l-1.74,2.68,3.07.87,4.26,1.21c3.2.91,7.73,1.26,12.25.11-.19,1.26-.29,2.55-.29,3.87,0-.04-.05,2.97-.05,2.97l-.04,2.04s2.02.33,2.02.33c6.76,1.1,10.4-.43,11.77-1.23,2.69-1.18,6.72-3.8,8.99-9.4,2.27,5.6,6.3,8.22,9,9.4,1.38.81,5.02,2.33,11.77,1.23l2.02-.33s-.04-2.04-.04-2.04l-.06-3.01c0-1.31-.1-2.59-.28-3.84,4.52,1.14,9.05.79,12.24-.11,0,0,4.26-1.21,4.26-1.21l3.07-.87-1.74-2.68-2.4-3.71s-.04-.05-.06-.08c4.58-.77,8.22-3.19,10.22-5.47l2.55-2.9,1.84-2.09-2.37-1.47-1.12-.69c3.73-2.37,6.21-5.9,7.35-8.74,0,0,1.64-4.09,1.64-4.09l1.18-2.95-.69-.06c.94-1.34,1.7-2.77,2.19-4.17,0,0,1.5-4.3,1.5-4.3l1.09-3.1s-.94,0-1.81-.02c.86-1.87,1.27-3.24,1.3-3.33,0,0,1.57-5.32,1.57-5.32l1.13-3.85s-2.21.5-3.31.74c.02-.36.03-.6.03-.7l-.02-4.18v-1.3c.11-.89.13-1.57.13-1.91,0-.11,0-.31-.01-.45,0,.04-.19-3.87-.19-3.87l-.14-2.82s-.46.11-1.01.24c-.02-.4-.06-.8-.1-1.2,0,0-.63-5.48-.63-5.48l-.45-3.96-3.25,2.3-.33.23c-.8-2.09-2.02-4.17-3.65-6.23,9.8-4.52,13.07-10.82,13.22-11.11Z"/>
      <g>
        <path d="M76.51,126.41c-.46,4.89-2.13,8.8-5.09,11.53-4.86,4.45-11.19,3.97-11.46,3.93l-3-.27v-3c0-2.92.56-5.45,1.32-7.62l-.08.03c-5.28,2.71-11.4,2.33-14.91,1.36l-4.26-1.2,2.38-3.71c.9-1.35,1.78-2.55,2.68-3.54-6.12.59-10.87-2.46-13.02-4.88l-2.55-2.89,3.26-2c.56-.39,1.09-.71,1.62-.94-5.58-1.64-8.96-6.22-10.16-9.33l-1.67-4.15s1.16-.05,2.25-.17c-2.6-2.21-4.19-4.92-4.87-6.89l-1.5-4.25s1.21-.08,2.45-.08c-1.98-3.05-2.93-6-3.03-6.27l-1.51-5.33s1.4.32,2.83.65c-.59-2.05-.62-3.58-.62-3.79l.03-4.2s.28.11.32.11c-.43-1.49-.43-2.75-.43-3.28v-.27l.17-3.91s.71.14,1.26.25c-.1-.6-.11-1.19-.11-1.82,0-.67.01-1.37.11-2.06l.63-5.48s1.71,1.2,3.06,2.11c.41-2.71,1.78-5.95,4.95-9.57h-.1l1.44-1.38c-11.6-4.22-15.14-11.29-15.14-11.29,4.96,1.28,7.11-.26,7.11-.26-3.85-6.67-4.01-13.19-4.01-13.19,6.22,4.78,13.71,7.08,13.71,7.08v-3.29c.23-.3.76-1,.76-1,.34-.4.64-.78.99-1.19v-10.67l10.42-7.31,1.89,2.04c7.37,7.28,24.93,1.99,30.16.2l1.34-.5,1.12-.37,2.42.86c5.25,1.79,22.76,7.08,30.12-.2l1.96-2.04,10.41,7.31v10.67c.32.41.68.78,1,1.19l.72.96v3.33s7.44-2.3,13.66-7.08c0,0-.15,6.53-3.98,13.19,0,0,2.16,1.55,7.1.26,0,0-3.54,7.06-15.13,11.29l1.44,1.38h0c3.14,3.62,4.5,6.86,4.86,9.57,1.37-.91,3.11-2.11,3.11-2.11l.65,5.48c.04.69.13,1.39.13,2.06,0,.63-.09,1.22-.13,1.82.56-.11,1.26-.25,1.26-.25l.16,3.91v.27c0,.53,0,1.79-.42,3.28.04,0,.32-.11.32-.11l.03,4.2c0,.21-.03,1.74-.62,3.79h-.03c1.4-.32,2.84-.65,2.84-.65l-1.58,5.33c-.08.27-.96,3.22-2.94,6.27,1.21,0,2.43.08,2.43.08l-1.5,4.25c-.71,1.97-2.29,4.68-4.89,6.89,1.16.12,2.25.17,2.25.17l-1.63,4.15c-1.27,3.11-4.65,7.7-10.2,9.33,1.11.46,3.74,2.32,4.49,3.54-.82,1.29-3.98,4.19-6.13,5.36-2.03,1.05-5.11,2.18-9.01,1.82.86.99,1.75,2.19,2.63,3.54l2.46,3.71-4.29,1.19c-3.51.97-9.59,1.33-14.98-1.39.77,2.17,1.32,4.7,1.32,7.62v3l-3,.27c-.27.04-6.6.52-11.47-3.93-2.96-2.73-4.63-6.64-5.08-11.53-.32-.01-.58-.03-.77-.09-.23.06-.49.08-.77.09Z"/>
        <g>
          <path class="cls-6" d="M77.28,11.01c.5,0,5.16.01,11.34.64-4.11-.79-7.76-1.9-10.23-2.75,0,0-.83-.3-1.11-.39-.36.12-1.16.39-1.18.4-2.44.85-6.05,1.95-10.11,2.74,6.15-.62,10.78-.63,11.29-.63Z"/>
          <path class="cls-6" d="M105.69,14.82c2.33-.58,4.43-1.46,6.26-2.63l.38-.22,1.75,1.21,1.14.75v4.93c1.11.67,2.13,1.4,3.06,2.19v-8.72c-.48-.33-5.42-3.77-6.11-4.25-4.26,3.92-10.55,4.83-16.75,4.44,3.38.54,6.9,1.29,10.27,2.29Z"/>
          <path class="cls-6" d="M39.3,18.84v-4.91l1.07-.71,1.81-1.26.36.23c1.84,1.18,3.94,2.05,6.28,2.64,3.31-.99,6.78-1.72,10.11-2.27-6.13.36-12.35-.57-16.55-4.47-.69.48-5.65,3.92-6.13,4.25v8.69c.93-.79,1.95-1.51,3.05-2.18Z"/>
          <path class="cls-6" d="M115.22,44.94v2.13c0,4.87-.93,47.77-33.38,54.94-1.48.31-2.99.55-4.49.73h-.15c-1.56-.17-3.08-.41-4.54-.73-14.03-3.1-23.88-13.09-29.28-29.69-3.96-12.22-4.09-23.68-4.09-24.94v-2.43c-.98-.24-2-.5-3.05-.78v3.15c0,1.96.18,13.52,4.14,25.75,5.78,17.82,16.42,28.57,31.64,31.93,1.79.47,3.75.7,5.26.85,1.47-.15,3.38-.38,5.25-.87,15.18-3.35,25.82-14.09,31.6-31.91,3.97-12.25,4.15-23.8,4.15-25.76v-3.15c-1.05.29-2.08.55-3.06.79Z"/>
        </g>
        <g>
          <path class="cls-5" d="M110.58,69.88h-3.61v9.5c1.5-3.13,2.69-6.36,3.61-9.5Z"/>
          <path class="cls-5" d="M90.38,97.56c2.59-1.37,4.9-3.02,6.96-4.88v-22.79h-6.96v27.67Z"/>
          <path class="cls-5" d="M80.74,69.88h-6.98v31.04c1.14.22,2.31.4,3.52.53,1.16-.13,2.32-.31,3.46-.53v-31.05Z"/>
          <path class="cls-5" d="M47.58,69.88h-3.61c.2.68.41,1.35.63,2.04.88,2.69,1.87,5.2,2.98,7.53v-9.56Z"/>
          <path class="cls-5" d="M57.17,92.72c2.14,1.93,4.47,3.56,6.98,4.87v-27.71h-6.98v22.84Z"/>
        </g>
        <g>
          <path class="cls-5" d="M46.67,15.51c-1.59-.54-3.08-1.21-4.43-2.03-.42.28-1.16.8-1.16.8,0,0-.26.18-.49.33v3.5c1.87-1,3.93-1.86,6.08-2.6Z"/>
          <path class="cls-5" d="M113.94,18.13v-3.51c-.24-.17-.55-.37-.55-.37,0,0-.71-.49-1.11-.76-1.35.82-2.83,1.5-4.43,2.03,2.16.74,4.22,1.61,6.09,2.61Z"/>
          <path class="cls-5" d="M109.74,46.11c-.53.18-1.13.18-1.13.18v-12.71l.11-.21c.57-1.12,1.2-2.19,1.96-3.16-13.12-5.65-32.6-5.66-33.4-5.66-.9,0-20.29.01-33.41,5.66.75.97,1.39,2.04,1.95,3.16l.1.21v11.6c0,.45-.02,1.17-.02,1.17-.49-.08-.76-.19-1.15-.24-1.15-.21-2.57-.5-4.16-.87v2.13c0,.16,0,1.52.15,3.68h73.07c.12-1.92.14-3.31.14-3.98v-1.83c-1.6.36-3.04.66-4.2.87Z"/>
        </g>
        <g>
          <path class="cls-5" d="M119.81,24.16v10.83c-10.18-11.63-41.18-11.66-42.53-11.66s-32.36.04-42.55,11.66v-10.83c9.52-11.93,42.22-11.92,42.55-11.92s33-.01,42.53,11.92Z"/>
          <path class="cls-5" d="M129.42,33.95l-.11-.16.12-.16s2.9-4.15,5.23-9.44c-3.06,2.93-8.74,5.23-14.06,6.87l-.03,5.43s-.87.21-.92.21c-.19.02-6,1.91-9.5,8.15,6.24-1.25,19.04-4.35,24.2-9.5-1.77.34-3.78.26-4.94-1.39Z"/>
          <path class="cls-5" d="M20.11,35.35c5.22,5.13,17.95,8.23,24.21,9.49-3.48-6.24-9.24-8.12-9.47-8.14-.03,0-.95-.21-.95-.21l-.05-5.44c-5.28-1.63-10.92-3.92-14-6.86,2.33,5.3,5.19,9.41,5.22,9.45l.12.16-.12.17c-.97,1.35-2.68,1.81-4.96,1.39Z"/>
        </g>
        <path class="cls-6" d="M103.47,40.24c-.41-.16-.92-.54-.02-.9,1.32-.09,1.94-1.05,2.01-1.26.17-.35.17-1.18.17-1.39-.13-.18.34-1.02.26-1.52-.07-.49-.93-.86-1.4-1.13-.5-.28-.43-.84-.67-1.09-.25-.32-1.08-.54-1.8-.59-.78-.09-.73.98-.95,1.41-.18.48-.17.1-.71.92-.14.33-.2.54-.23.74-.45.45-.68-.55-.75-1.07.01-.27.04-.48.07-.63.05-.32.37-2.53-1.61-3.21-2.02-.68-1.99,1.07-2.02,1.46-.09.41-.47.3-1.1.52-.63.16-.63,1.04-.41,1.39.18.37-.72,1.43-.4,2.28.1.31.19.48.38.54.45.65.08.63-.2.52-.18-.16-.44-.25-.66.06-.58.81-.63-.64-.63-.64,0,0-.13-1.26-1.12-.2.08-.4.12-.93.12-1.13-.06-.17.45-1.04.33-1.53-.04-.48-.85-.88-1.32-1.17-.52-.32-.41-.85-.67-1.13-.25-.29-.98-.56-1.73-.65-.72-.13-.72.93-1.01,1.4-.2.41-.18.01-.73.89-.2.24-.24.52-.26.67-.46.48-.69-.53-.75-1.12.02-.25.07-.44.07-.58.11-.35.5-2.53-1.49-3.3-1.97-.75-1.97.99-2.02,1.34-.09.44-.52.31-1.15.49-.61.21-.69,1.03-.47,1.42.19.35-.78,1.38-.5,2.23.12.3.25.43.36.59.43.64.06.59-.21.47-.19-.17-.42-.25-.64.06-.63.78-.63-.7-.63-.7,0,0-.06-1.02-.81-.5-.17-.37-.69-.91-1.28-1.34-.57-.43-1.1.57-1.49.8-.42.31-.16-.05-1.05.49-.31.19-.51.37-.59.52-.6.17-.31-.77-.13-1.35.13-.19.27-.35.35-.49.23-.24,1.53-2.04.14-3.61-1.4-1.57-2.17,0-2.44.34-.22.29-.57,0-1.2-.13-.69-.11-1.05.67-1.05,1.03,0,.38-1.32.9-1.44,1.79-.09.28-.04.52.03.72.15.78-.19.53-.4.29-.06-.23-.24-.4-.59-.23-.89.4-.28-.92-.28-.92,0,0,.82-1.83-2.39,0,0,0-.87.65-1.14,1.71-.35-.45-.88-.92-1.67-1.04-.71-.12-.74.25-1.22.25-.33,0-.97-.34-1.14-.2-.03.01-.34.2-.7.44-.45.3-.57.17-.61-.03.21-.21.25-.46.23-.7-.07-.53-.59-.82-.66-1.01-.09-.16.04-1.29-.47-1.24-.44.12-.97,1.05-1.27,1.05-.34,0-1.5-.4-1.75-.18-.23.2-1.03.98-.69,1.53.31.55.07.78-.06.93-.07.14-.56.53-.35,1.06.08.17.28.43.48.67.62,1.64-.59,1.38-1.22,1.2-.55-.47-.89-.47-1.2-.2-.31.33-.4.38-1.45.9-1.02.49-.53,1.08-.37,1.92.27.85-.94.56-.33,1.42.58.85,3.11,1.45,3.42,1.43.19,0,.39-.15.56-.27.44-.19,1.03-.32.62.6-.92.93-.73,2.06-.57,2.25.12.38.71,1.03.85,1.12.13.11.42,1.01.8,1.31.39.3,1.26.04,1.81-.13.57-.13.88.32,1.25.34.41.07,1.15-.36,1.69-.8.58-.44-.18-1.22-.32-1.7-.08-.45.15-.15-.08-1.14-.07-.32-.18-.52-.31-.69,0-.62.87-.1,1.29.22.15.27.28.47.36.53.19.29,1.49,2.08,3.42,1.26,1.61-.76.94-1.79.55-2.27.4.2,1.16.46,1.5.06.36-.5.74-.27.88-.22.11.05.68.4,1.07,0,.19-.15.38-.34.59-.64,1.31-1.1,1.49.17,1.49.81-.34.62-.23,1.01.13,1.19.41.2.54.28,1.29,1.12.78.86,1.23.21,1.95-.28.73-.53.79.77,1.49-.1.63-.78.4-3.4.29-3.7-.07-.12-.27-.25-.42-.41-.3-.33-.59-.9.38-.81,1.17.64,2.18.06,2.39-.09.11-.08.25-.24.37-.42.17.06.34.09.5.24.2.23.41.92.62.98.12.02.36.11.82.16.55.16.55.33.44.46-.33.08-.59.2-.65.32-.39.5-.25,1.03-.31,1.23-.02.18-.92.88-.53,1.15.36.26,1.4,0,1.6.26.21.21.78,1.27,1.12,1.31.3.05,1.41.05,1.6-.57.12-.64.5-.56.64-.64.18,0,.81.08,1.02-.45.09-.19.18-.51.19-.85.7-1.56,1.37-.54,1.69.06,0,.73.31,1.01.67,1.01.47,0,.61.03,1.66.42,1.08.35,1.17-.38,1.62-1.15.41-.75,1.07.33,1.25-.71.08-.35-.01-.81-.18-1.29.24.15.43.12.67.32.29.21.53.89.72.93.13,0,.38.12.88.12.5.11.5.29.36.45-.29.12-.51.17-.61.36-.3.45-.17,1.02-.24,1.21-.04.2-.92.94-.49,1.19.36.29,1.37-.05,1.61.16.23.2.84,1.28,1.17,1.31.25.01,1.44-.04,1.57-.66.12-.63.46-.63.64-.63.14-.03.75-.03.94-.54.09-.2.14-.52.14-.84.62-1.59,1.45-.62,1.69-.05.12.79.39.99.76.99.52-.03.6,0,1.73.33,1.1.39,1.14-.41,1.51-1.18.41-.77,1.11.3,1.28-.76.14-1.06-1.31-3.22-1.52-3.43-.15-.08-.38-.12-.64-.12M64.76,38.1c-.29-.06-.57-.06-.74,0-.45.21-.61.71-.75.9-.16-.37-.37-.74-.72-.92-.31-.19-.49-.19-.65-.19-.79-.13-.48-.34-.26-.47.3,0,.47-.1.45-.47-.15-1,.95.02.95.02,0,0,.61.56.84-.03.01.03.03.06.05.08.05.03.27.26.64.54.45.34.34.49.19.54M90.1,38.88c-.14-.06-.34-.08-.57-.14-.38-.2-.92-.55,0-.92.63,0,1.11-.21,1.44-.46-.08.13-.17.26-.26.41,0,0-.32.72-.27,1.56-.15-.24-.28-.41-.34-.45Z"/>
        <g>
          <path class="cls-5" d="M51.33,39.23c-.19-.19.18-.32.39-.37.15-.05.15-.35.28-.22.03.07.11.07-.07.17-.07.14.08.15-.07.37-.14.17-.36.18-.53.05Z"/>
          <path class="cls-5" d="M99.21,41.16c0-.07.08-.2.08-.2,0,0-1.29-2.48-1.3-3.35,0-.8.31-.17.31-.17,0,0,.04.13.44,1.39.44,1.67.8,2.03.8,2.03.27-.12.35.06.35.06.52.9.38,1.19.26,1.24-.04.16-.57-.03-.59-.03-.03-.02-.33-.9-.36-.96Z"/>
          <path class="cls-5" d="M99.67,39.99s.05-.12.05-.12c0,0-1.43-1.57-1.6-2.26-.14-.59.21-.17.21-.17,0,0,.03.08.57,1,.64,1.11.95,1.32.95,1.32.17-.16.31-.05.31-.05.54.58.49.79.41.91,0,.1-.41.04-.44.04,0,0-.39-.57-.45-.66Z"/>
          <path class="cls-5" d="M97.78,41.01c0-.1-.1-.16-.1-.16,0,0,.33-2.06.16-2.69-.16-.6-.28-.08-.28-.08,0,0-.03.08.03,1.14.09,1.27-.13,1.6-.13,1.6-.22,0-.22.14-.22.14-.17.76,0,.92.12,1.02.05.03.36-.21.37-.26.05-.01.05-.71.05-.71Z"/>
          <path class="cls-5" d="M99.37,38.43s2.28,1.11,3.47-1.42c1.14-2.51-.7,2.53-3.47,1.42Z"/>
          <path class="cls-5" d="M97.26,37.56s-1.38-.66-.79-3.07c0,0-.35,1.82.79,3.07Z"/>
          <path class="cls-5" d="M96.81,39.34s-3.35,3.29-5.02.52c0,0,1.78,2.29,5.02-.52Z"/>
          <path class="cls-5" d="M102.9,43.69s-1.48-.64-2.48-2.47c0,0,1.6,2.02,2.48,2.47Z"/>
          <path class="cls-5" d="M97.44,42.41s-.21,2.49-2.49,2.95c0,0,1.79-.6,2.49-2.95Z"/>
          <path class="cls-5" d="M103.19,38c0,.29-.3.16-.49.04-.15-.09-.39.12-.39,0,.07-.15,0-.15.24-.15.13,0,0-.13.21-.16.26-.03.43.07.43.27Z"/>
          <path class="cls-5" d="M102.84,42.93c-.07.31-.39.13-.54.06-.17-.1-.34.06-.34-.06q0-.07.17-.07c.15,0,.01-.14.26-.18.18-.06.45.08.45.25Z"/>
          <path class="cls-5" d="M97.45,35.95c-.01.31-.31.12-.48.05-.16-.12-.33.07-.33-.05,0-.08,0-.08.17-.08.14-.07.02-.17.25-.2.2-.04.39.07.39.28Z"/>
          <path class="cls-5" d="M100.69,38.95c0,.12-.13.27-.22.23-.06,0-.25.16-.31.04,0-.09-.04-.16.11-.16.08-.01-.05-.14.08-.19.12-.05.34,0,.34.08Z"/>
          <path class="cls-5" d="M101.77,41.58c0,.13-.12.23-.24.23-.05-.04-.26.09-.3.02-.03-.11-.05-.11.05-.19.14-.03,0-.1.14-.12.12-.05.35,0,.35.06Z"/>
          <path class="cls-5" d="M100.16,38.31c0,.17-.35.22-.26.13.12-.13-.15-.13-.09-.22.09-.13.09-.05.13-.17.06-.09.06-.23.22-.15.15.15.12.21.07.32l-.06.1Z"/>
          <path class="cls-5" d="M102.31,37.58c-.17.23-.17-.02-.36-.02-.15,0-.42,0-.24-.05.23-.1.4-.46.57-.23.17.23.12.28.03.3Z"/>
          <path class="cls-5" d="M96.33,44.44c-.2.21-.2-.08-.38-.05-.19,0-.4,0-.24-.08.17-.11.37-.4.51-.2.21.2.16.25.1.33Z"/>
          <path class="cls-5" d="M95.89,40.92c-.26.24-.17-.06-.34-.06-.28.01-.51.01-.31-.08.21-.07.36-.44.57-.22.19.22.15.3.09.36Z"/>
          <path class="cls-5" d="M96.82,40.21c-.18.22-.18-.08-.35-.08-.25.08-.47.08-.27-.02.18-.13.35-.47.54-.24.2.24.14.26.08.34Z"/>
          <path class="cls-5" d="M102.55,36.69c0,.14,0,0-.1.12-.14.14-.22.24-.17.08.02-.1.12-.21.19-.21.08,0,.09-.06.08,0Z"/>
          <path class="cls-5" d="M94.3,40.34c-.02.16,0-.03-.1.11-.1.11-.25.22-.2.11.07-.13.17-.26.23-.26.06,0,.12-.02.08.03Z"/>
          <path class="cls-5" d="M101.37,38.97c-.05.17,0-.02-.14.1-.13.16-.19.28-.17.12.02-.13.15-.23.22-.23.04,0,.12-.08.09.02Z"/>
          <path class="cls-5" d="M97.84,43.1c-.06.14,0-.04-.11.14-.13.13-.27.15-.17.07.03-.11.16-.25.17-.25.09,0,.11-.02.11.04Z"/>
          <path class="cls-5" d="M101.06,42.72c-.06.16,0-.04-.12.14-.06.07-.2.18-.17.03.02-.12.13-.21.17-.21.1,0,.12-.06.12.04Z"/>
          <path class="cls-5" d="M101.32,37.76c.25.13-.04.32-.24.4-.18.02-.2.32-.18.14,0-.19.05-.08.11-.21.06-.19.08-.38.32-.32Z"/>
          <path class="cls-5" d="M97.26,44.09c.19.07-.07.27-.2.35-.22.02-.25.31-.24.11.02-.16.06-.02.12-.19.03-.2.12-.41.32-.27Z"/>
          <path class="cls-5" d="M96.64,38.97c.21.1-.12.28-.25.39-.18,0-.26.34-.19.15,0-.16.03-.08.1-.25.03-.18.09-.38.34-.28Z"/>
          <path class="cls-5" d="M95.71,39.36c.24.15-.09.34-.26.39-.19.04-.25.36-.22.14.04-.19.09-.07.14-.2.08-.19.09-.44.34-.34Z"/>
          <path class="cls-5" d="M96.09,36.43c.23.1-.01.26-.21.38-.17.01-.29.35-.26.15.09-.17.09-.12.14-.26.07-.16.12-.38.33-.26Z"/>
          <path class="cls-5" d="M97.68,36.47c.21.12-.09.34-.23.35-.18.02-.25.35-.21.15.03-.16.03-.06.12-.18.05-.19.05-.45.32-.32Z"/>
          <path class="cls-5" d="M101.77,38.83c.06-.2.18-.2.18-.34s-.12-.3.17-.17c.26.17.34.48.28.51-.11,0-.28,0-.39,0-.07.05-.3.13-.24,0Z"/>
          <path class="cls-5" d="M96.09,43.57c.11-.2.13-.26.13-.37,0-.14-.03-.3.25-.15.23.15.35.46.23.52-.07,0-.23-.06-.38,0-.12.04-.32.12-.23,0Z"/>
          <path class="cls-5" d="M96.5,38.08c.14-.23.14-.27.14-.38,0-.12-.1-.28.18-.14.28.14.41.49.28.53-.04,0-.28-.04-.4,0-.07.02-.27.13-.21,0Z"/>
          <path class="cls-5" d="M55.22,38.08s.09.21.09.21c0,0,2.65.89,3.24,1.5.63.64-.11.33-.11.33,0,0-.12,0-1.28-.7-1.43-.94-1.95-.94-1.95-.94-.14.33-.35.25-.35.25-.95-.29-.98-.63-1.04-.73-.02-.15.5-.3.52-.4.07,0,.86.44.88.48Z"/>
          <path class="cls-5" d="M55.68,39.23s.09.12.09.12c0,0,2.12.19,2.67.51.57.37-.02.26-.02.26,0,0-.07.08-1.06-.26-1.23-.41-1.63-.32-1.63-.32-.04.25-.17.21-.17.21-.76,0-.88-.21-.94-.33-.05-.07.25-.36.32-.36.02,0,.67.16.74.16Z"/>
          <path class="cls-5" d="M56.41,37.22h.17s1.17,1.83,1.71,2.14c.58.28.25-.17.25-.17,0,0-.04-.12-.76-.75-.94-.88-1.05-1.28-1.05-1.28.16-.18.11-.33.11-.33-.4-.66-.71-.62-.74-.62-.12,0-.17.43-.17.44,0,.05.47.57.47.57Z"/>
          <path class="cls-5" d="M57.04,40.21s-2.47.71-1.63,3.36c.9,2.66-1.21-2.29,1.63-3.36Z"/>
          <path class="cls-5" d="M59.17,39.36s1.42-.48,2.66,1.73c0,0-1.01-1.58-2.66-1.73Z"/>
          <path class="cls-5" d="M58.29,37.74s.13-4.7,3.27-3.84c0,0-2.88-.46-3.27,3.84Z"/>
          <path class="cls-5" d="M50.82,38.73s1.5-.52,3.5.09c0,0-2.54-.34-3.5-.09Z"/>
          <path class="cls-5" d="M55.69,36s-1.58-2.04-.19-3.89c0,0-.93,1.65.19,3.89Z"/>
          <path class="cls-5" d="M54.47,43.1c-.18-.22.15-.32.35-.38.24-.04.17-.29.26-.19.08.09.13.09,0,.19-.13.14.03.14-.11.33-.1.15-.35.2-.49.05Z"/>
          <path class="cls-5" d="M60.08,40.71c-.17-.26.17-.37.36-.41.24-.02.15-.32.26-.19q.1.1-.01.19c-.13.13.01.13-.13.31-.11.17-.36.25-.47.1Z"/>
          <path class="cls-5" d="M55.68,40.71c-.1-.06-.1-.26,0-.35.05-.02.09-.23.17-.23.1.08.14.08.09.17-.07.14.09.13,0,.22-.07.13-.22.22-.26.19Z"/>
          <path class="cls-5" d="M53.1,39.51c-.07-.08-.07-.27,0-.28.09-.04.11-.26.18-.26.07.08.11.08.07.17,0,.1.13.09.03.22-.03.1-.19.21-.29.15Z"/>
          <path class="cls-5" d="M56.45,40.82c-.04-.16.16-.47.13-.3,0,.14.17-.03.26.13.02.12-.08.09,0,.2.05.06.15.18-.08.23-.19,0-.19-.07-.3-.17v-.09Z"/>
          <path class="cls-5" d="M55.38,42.86c0-.32.18-.1.31-.24.14-.16.3-.34.25-.11-.07.18,0,.54-.26.53-.29-.04-.29-.1-.3-.18Z"/>
          <path class="cls-5" d="M55.1,33.72c-.03-.29.14-.1.29-.25.17-.14.3-.31.29-.13-.1.24,0,.59-.3.55-.28-.01-.28-.12-.28-.17Z"/>
          <path class="cls-5" d="M57.87,35.95c0-.28.14-.07.28-.21.15-.17.29-.33.21-.11-.04.17.07.52-.21.52-.28,0-.28-.08-.28-.2Z"/>
          <path class="cls-5" d="M57.62,37.15c0-.33.17-.1.31-.25.17-.11.31-.31.23-.1-.04.16,0,.54-.23.54-.31-.02-.31-.13-.31-.19Z"/>
          <path class="cls-5" d="M55.85,43.6c-.07-.12,0,.03,0-.14-.02-.15.03-.29.09-.21,0,.14,0,.26,0,.32-.07.07-.07.12-.09.04Z"/>
          <path class="cls-5" d="M59.38,35.3c-.06-.13,0,.01,0-.16,0-.13,0-.3.04-.15.1.08.1.28.03.31-.03.01-.07.12-.07,0Z"/>
          <path class="cls-5" d="M55.15,41.09c-.05-.07.05.07,0-.07,0-.19.05-.35.07-.24.09.09.09.31.03.31-.03.07-.03.13-.09,0Z"/>
          <path class="cls-5" d="M54.86,35.7c0-.13.07.05.07-.15-.07-.14,0-.28.02-.18.09.11.09.26.03.3-.03.07-.05.13-.12.03Z"/>
          <path class="cls-5" d="M52.82,38.18c-.06-.1.02.03.02-.1-.02-.19,0-.35.09-.23,0,.1,0,.31,0,.33-.07.03-.07.12-.12,0Z"/>
          <path class="cls-5" d="M56.03,41.98c-.3.12-.18-.26-.09-.4.09-.19-.07-.42.05-.22.12.12,0,.03.11.22.03.14.17.32-.07.4Z"/>
          <path class="cls-5" d="M54.67,34.62c-.26.06-.21-.27-.06-.4.06-.17-.04-.45,0-.28.14.15,0,.12.08.28.09.14.17.29-.03.4Z"/>
          <path class="cls-5" d="M58.63,37.86c-.28.1-.19-.28-.09-.42.13-.11-.04-.38.09-.22.05.13-.04.11.04.22.08.15.2.33-.04.42Z"/>
          <path class="cls-5" d="M59.02,36.95c-.24.1-.16-.26-.03-.42.03-.13-.11-.38.02-.24.07.14,0,.11.03.24.13.16.18.3-.02.42Z"/>
          <path class="cls-5" d="M60.7,39.36c-.21.09-.11-.22-.02-.39.11-.15,0-.44.02-.24.11.14,0,.09.09.24.06.17.23.38-.09.39Z"/>
          <path class="cls-5" d="M59.57,40.43c-.26.09-.19-.3-.05-.44.1-.12-.07-.4.05-.24.07.14-.04.07.05.24.06.14.18.35-.05.44Z"/>
          <path class="cls-5" d="M54.96,41.52c.09.25.03.29.11.35.13.1.28.23-.02.25-.29.05-.59-.03-.54-.14.06-.11.25-.17.28-.27.06-.13.15-.32.17-.19Z"/>
          <path class="cls-5" d="M55.87,34.22c.07.19.07.28.12.34.11.08.28.13-.04.24-.26.05-.57-.11-.54-.16.09-.13.21-.15.28-.28.08-.11.16-.3.18-.14Z"/>
          <path class="cls-5" d="M59.38,38.44c.04.25,0,.29.07.38.08.06.29.15-.03.24-.25.07-.56-.09-.55-.14.11-.1.2-.19.31-.29.04-.14.11-.31.2-.18Z"/>
          <path class="cls-5" d="M70.19,39.19c.01-.05.15-.13.15-.13,0,0,.05-2.8.46-3.52.42-.76.42,0,.42,0,0,0,.02.03-.37,1.41-.37,1.58-.27,2.11-.27,2.11.34,0,.34.28.34.28,0,.99-.27,1.15-.37,1.21-.13.09-.5-.35-.5-.43-.03,0,.13-.9.13-.94Z"/>
          <path class="cls-5" d="M71.16,38.44c0-.1.09-.14.09-.14,0,0-.51-2.1-.31-2.73.15-.58.29-.03.29-.03,0,0,.02.03.02,1.09,0,1.26.17,1.66.17,1.66.27-.07.28.05.28.05.17.79.07.91-.01,1.02-.07.07-.42-.17-.44-.17-.02-.05-.09-.75-.09-.75Z"/>
          <path class="cls-5" d="M69.03,38.31s-.09-.15-.09-.15c0,0,1.39-1.65,1.54-2.28.1-.61-.25-.18-.25-.18,0,0-.04.05-.56.99-.54,1.12-.86,1.4-.86,1.4-.17-.19-.31-.04-.31-.04-.48.58-.39.78-.34.92,0,.1.41,0,.43,0,.05,0,.44-.62.44-.65Z"/>
          <path class="cls-5" d="M71.65,36.82s1.42,2.14,3.66.5c2.28-1.62-1.8,1.9-3.66-.5Z"/>
          <path class="cls-5" d="M70.2,35.07s-.88-1.2.86-3.1c0,0-1.23,1.46-.86,3.1Z"/>
          <path class="cls-5" d="M68.94,36.4s-4.47,1.3-4.6-1.91c0,0,.37,2.83,4.6,1.91Z"/>
          <path class="cls-5" d="M72.13,43.19s-.91-1.29-.91-3.37c0,0,.39,2.59.91,3.37Z"/>
          <path class="cls-5" d="M68.05,39.36s-1.45,2.11-3.58,1.42c0,0,1.81.38,3.58-1.42Z"/>
          <path class="cls-5" d="M75.25,38.34c-.21.28-.38-.03-.51-.18-.11-.16-.35-.08-.31-.2.08-.06.08-.1.24-.06.14.15.1-.04.3,0,.19.11.34.32.28.44Z"/>
          <path class="cls-5" d="M72.43,42.5c-.12.25-.31-.05-.47-.22-.11-.16-.32-.13-.27-.16q.07-.14.17-.02c.13.03.13-.12.36,0,.21.03.35.21.21.4Z"/>
          <path class="cls-5" d="M71.22,33.77c-.16.29-.38-.04-.49-.19-.14-.18-.34-.11-.25-.18q0-.11.17-.06c.15.09.08-.11.3,0,.27.09.37.28.27.43Z"/>
          <path class="cls-5" d="M72.58,38c-.05.1-.25.16-.34.08-.05-.08-.27-.04-.27-.13.03-.1,0-.15.16-.1.12,0,.07-.12.19-.12.12.03.28.16.27.27Z"/>
          <path class="cls-5" d="M72.19,40.78c-.06.09-.22.14-.33.09-.05-.05-.25-.01-.21-.09,0-.11,0-.12.12-.12.09.01.05-.13.19-.09.14.05.27.15.23.22Z"/>
          <path class="cls-5" d="M72.4,37.21c-.07.11-.43,0-.27-.05.12-.02-.13-.2.01-.27.1-.08.1,0,.2-.08.07-.03.15-.18.25,0,.12.2,0,.2-.09.33l-.09.06Z"/>
          <path class="cls-5" d="M74.67,37.58c-.29.12-.15-.15-.31-.17-.14-.08-.38-.19-.19-.19.22,0,.57-.25.61.06.04.28-.03.28-.1.3Z"/>
          <path class="cls-5" d="M66.04,40.65c-.26.09-.11-.16-.29-.22-.18-.09-.38-.19-.18-.19.21,0,.59-.25.6.06.06.31,0,.31-.12.35Z"/>
          <path class="cls-5" d="M67.38,37.34c-.26.08-.13-.13-.33-.19-.16-.1-.37-.25-.16-.2.23,0,.54-.26.55.07.13.26,0,.3-.05.32Z"/>
          <path class="cls-5" d="M68.58,37.21c-.27.06-.15-.16-.38-.25-.09-.07-.34-.18-.14-.18.25.02.54-.19.63.05.03.32-.04.33-.11.38Z"/>
          <path class="cls-5" d="M75.26,36.95c-.12.1.03-.05-.13.02-.16.08-.33.08-.22,0,.07-.07.24-.15.34-.13.01.07.06,0,.01.12Z"/>
          <path class="cls-5" d="M66.3,36.1c-.13.06,0-.02-.14.05-.17,0-.31.05-.23-.05.11-.06.23-.1.29-.1.07.04.14.04.07.1Z"/>
          <path class="cls-5" d="M73.1,38.31c-.12.13.05-.02-.12.03-.21.1-.28.1-.23,0,.11-.04.23-.12.31-.05.03,0,.1,0,.03.02Z"/>
          <path class="cls-5" d="M68.02,40.24c-.11.06,0-.03-.16.04-.11.06-.29.06-.19,0,.09-.15.24-.15.32-.15.03,0,.12,0,.03.12Z"/>
          <path class="cls-5" d="M71.02,41.4c-.09.14.04-.02-.1.07-.19.08-.34.08-.22,0,.02-.08.23-.12.24-.1.07.01.13,0,.07.03Z"/>
          <path class="cls-5" d="M73.65,37.28c.17.23-.18.28-.36.15-.14,0-.38.17-.26.08.13-.17.11-.08.21-.17.14-.13.27-.29.41-.07Z"/>
          <path class="cls-5" d="M67.05,40.78c.19.24-.21.24-.37.18-.17-.04-.38.2-.29.05.13-.16.12-.05.23-.16.14-.12.29-.3.43-.08Z"/>
          <path class="cls-5" d="M68.94,36.04c.15.22-.2.22-.35.15-.16-.04-.4.2-.29.06.16-.16.12-.06.2-.16.18-.1.31-.3.44-.06Z"/>
          <path class="cls-5" d="M67.99,35.9c.17.25-.23.25-.42.25-.14-.05-.34.14-.28,0,.14-.15.14,0,.27-.11.11-.17.27-.3.43-.14Z"/>
          <path class="cls-5" d="M69.78,33.53c.17.23-.2.23-.36.19-.2,0-.39.17-.33.04.17-.14.13-.04.23-.14.15-.11.34-.28.46-.08Z"/>
          <path class="cls-5" d="M71.09,34.36c.18.2-.16.2-.35.15-.17,0-.39.18-.25.05.1-.15.1-.05.22-.15.13-.1.23-.29.38-.05Z"/>
          <path class="cls-5" d="M73.51,38.43c.25-.14.29-.14.34-.27.06-.08.12-.26.23,0,.16.27.16.53.05.53-.14-.03-.28-.16-.37-.2-.11,0-.31,0-.25-.05Z"/>
          <path class="cls-5" d="M66.28,39.75c.22-.16.23-.16.32-.21.01-.12.07-.31.24-.04.16.24.11.57,0,.57-.1,0-.24-.19-.34-.21-.14-.05-.35-.05-.22-.12Z"/>
          <path class="cls-5" d="M69.27,35.14c.25-.13.29-.12.39-.2,0-.13.01-.3.17-.06.19.26.12.6.02.55-.08,0-.2-.13-.34-.16-.1,0-.3,0-.25-.13Z"/>
          <path class="cls-5" d="M85.2,39.45s.11-.2.11-.2c0,0-1.18-2.47-1.18-3.35,0-.84.35-.16.35-.16,0,0,.09.06.34,1.42.39,1.65.72,2.02.72,2.02.3-.12.4.07.4.07.48.88.29,1.18.2,1.27-.05.14-.58-.09-.6-.09,0-.07-.33-.88-.33-.98Z"/>
          <path class="cls-5" d="M85.73,38.34s.06-.16.06-.16c0,0-1.4-1.65-1.55-2.28-.1-.6.24-.16.24-.16,0,0,.09,0,.55.95.53,1.16.91,1.39.91,1.39.15-.13.29,0,.29,0,.49.57.43.79.38.88,0,.1-.42,0-.48,0-.05,0-.41-.54-.41-.63Z"/>
          <path class="cls-5" d="M83.75,39.23s-.08-.16-.08-.16c0,0,.48-2.05.36-2.67-.21-.64-.31-.09-.31-.09,0,0-.05.09-.05,1.12.05,1.3-.15,1.63-.15,1.63-.23,0-.28.16-.28.16-.2.74,0,.9.07.98.07.07.37-.22.41-.23.02,0,.1-.73.04-.75Z"/>
          <path class="cls-5" d="M85.46,36.69s2.23,1.26,3.55-1.21c1.26-2.48-.74,2.53-3.55,1.21Z"/>
          <path class="cls-5" d="M83.41,35.75s-1.38-.69-.67-3.1c0,0-.37,1.85.67,3.1Z"/>
          <path class="cls-5" d="M82.85,37.56s-3.42,3.15-5,.34c0,0,1.62,2.38,5-.34Z"/>
          <path class="cls-5" d="M88.77,42.15s-1.44-.68-2.35-2.56c0,0,1.52,2.12,2.35,2.56Z"/>
          <path class="cls-5" d="M83.41,40.65s-.39,2.45-2.63,2.83c0,0,1.82-.49,2.63-2.83Z"/>
          <path class="cls-5" d="M89.35,36.51c-.02.29-.34.12-.53,0-.19-.08-.34.12-.34-.04q0-.13.22-.13c.12,0,.02-.08.23-.14.22-.04.43.11.43.31Z"/>
          <path class="cls-5" d="M88.74,41.39c-.04.32-.35.14-.53.02-.13-.05-.36.12-.36-.02.08-.11,0-.14.22-.14.13,0,.01-.09.23-.17.27,0,.46.13.43.3Z"/>
          <path class="cls-5" d="M83.71,34.22c-.05.28-.34.09-.53,0-.18-.1-.32.04-.32-.07q0-.1.15-.1c.18,0,.12-.12.3-.16.21-.01.43.07.41.33Z"/>
          <path class="cls-5" d="M86.8,37.34c0,.09-.14.21-.2.21-.14,0-.32.14-.33,0,0-.05-.04-.13.05-.13.14-.02,0-.1.14-.15.14-.06.35,0,.35.07Z"/>
          <path class="cls-5" d="M87.74,39.99c0,.14-.15.25-.19.22-.14,0-.33.13-.35.03,0-.11-.06-.12.1-.13.08-.03,0-.14.08-.22.17-.02.34,0,.35.09Z"/>
          <path class="cls-5" d="M86.32,36.69c-.04.13-.38.21-.26.12.07-.12-.21-.12-.12-.27.07-.1.12-.02.15-.13,0-.09,0-.24.19-.11.18.14.13.18.05.31v.1Z"/>
          <path class="cls-5" d="M88.47,36.08c-.17.19-.16-.07-.36-.07-.15,0-.42,0-.25-.1.24-.1.41-.43.61-.2.15.25.11.3,0,.38Z"/>
          <path class="cls-5" d="M82.17,42.64c-.17.22-.17-.08-.34-.08-.23,0-.45,0-.31-.1.21-.05.4-.36.6-.18.16.22.11.28.05.36Z"/>
          <path class="cls-5" d="M81.85,39.07c-.15.18-.15-.02-.34-.02s-.45,0-.25-.09c.16-.13.4-.47.59-.23.15.24.08.32,0,.34Z"/>
          <path class="cls-5" d="M82.85,38.44c-.19.18-.19-.1-.37-.1s-.44,0-.24-.04c.21-.12.39-.44.57-.21.17.21.11.26.04.36Z"/>
          <path class="cls-5" d="M88.74,35.17c-.04.14,0-.03-.12.13-.11.12-.2.18-.15.07,0-.1.14-.23.22-.23.02,0,.08-.08.05.03Z"/>
          <path class="cls-5" d="M80.35,38.48c-.03.14,0-.04-.12.05-.04.13-.21.26-.17.13.04-.17.17-.22.19-.22.1,0,.11-.09.1.05Z"/>
          <path class="cls-5" d="M87.47,37.42c-.08.13,0-.02-.13.08-.11.1-.22.19-.19.07.06-.07.18-.23.19-.23.08,0,.13-.02.13.08Z"/>
          <path class="cls-5" d="M83.73,41.37c-.02.15,0-.02-.07.1-.11.11-.25.18-.23.08.07-.14.13-.19.23-.19.07,0,.08-.08.07.02Z"/>
          <path class="cls-5" d="M87,41.09c-.05.17,0,0-.13.13-.08.14-.25.17-.18.06.03-.08.17-.19.25-.19.01,0,.1-.07.06,0Z"/>
          <path class="cls-5" d="M87.47,36.2c.26.11-.08.31-.24.33-.17.06-.28.3-.23.16.06-.18.06-.06.15-.22.06-.18.08-.39.32-.27Z"/>
          <path class="cls-5" d="M83.12,42.31c.24.12,0,.31-.22.33-.17.04-.27.36-.23.14.07-.16.08-.06.12-.22.07-.15.12-.41.34-.25Z"/>
          <path class="cls-5" d="M82.73,37.21c.19.11-.11.29-.26.34-.2.02-.25.3-.23.14.03-.19.05-.1.14-.27.07-.11.1-.36.36-.22Z"/>
          <path class="cls-5" d="M81.73,37.56c.27.14-.03.3-.21.34-.15.06-.26.32-.2.15.06-.19.08-.04.1-.23.09-.11.1-.38.31-.25Z"/>
          <path class="cls-5" d="M82.29,34.62c.25.16-.05.32-.25.36-.18.02-.2.28-.18.08,0-.12.05-.05.15-.22,0-.16.08-.34.28-.22Z"/>
          <path class="cls-5" d="M83.86,34.69c.28.16-.05.33-.21.38-.21.07-.29.35-.23.16.02-.21.09-.08.09-.21.06-.2.13-.39.35-.33Z"/>
          <path class="cls-5" d="M87.86,37.28c.1-.23.22-.26.22-.38,0-.1-.12-.27.18-.11.21.17.34.43.21.49-.05.04-.21-.06-.36,0-.15.04-.33.13-.25,0Z"/>
          <path class="cls-5" d="M82.01,41.72c.08-.2.17-.2.17-.34,0-.11-.09-.3.2-.14.24.14.36.47.24.52-.07,0-.24-.05-.38-.05-.15.05-.33.15-.23,0Z"/>
          <path class="cls-5" d="M82.62,36.29c.12-.21.16-.24.16-.38,0-.1-.04-.27.21-.1.28.15.37.46.28.48-.13.02-.29-.02-.43,0-.1.02-.27.11-.23,0Z"/>
        </g>
        <path d="M67.13,82.55s-.67.76-.67.76l1-.11c.89-.08,1.74.3,2.15.97.14.24.21.49.21.75,0,.28-.08.55-.24.81-2.59,2.51-4.3,6.25-4.33,9.5v.07c0,2.26.78,4.2,2.3,5.8,0,.06,0,.15,0,.15,0,2.92,2.36,5.57,3.89,5.86l.23.05.12-.2s.11-.34.11-.34l.05-.15-.25-.1s-.2-.14-.2-.9l.08-1.36s.09-1.39.09-1.4c0-.3-.05-.56-.13-.81.82-.16,1.45-.86,1.91-1.4.42-.48.81-.94,1.18-1.01,0,0,.29-.06.29-.06l.23-.05-.24-.47c-.42-.81-1.59-.65-2.82-.47-.87.13-1.95.28-2.55,0-.27-.31-.41-.71-.41-1.17,0-.31.05-.62.17-.94.76-2.2,4.03-4.95,8.64-5.91-.45.59-1.06,1.39-1.44,1.82,0,0,.02,0,.02,0-.05.04-.12.12-.25.26l-.2.21.62.17c2.05.54,5.2-1.68,6.64-3.46,5.35.24,9.69-.64,10.01-1.36h0s.07-.28.07-.28l-.08-.37c-.28-.69-1.31-1.68-2.93-2.35-.53-1.48-1.94-2.78-4-3.66-3.12-1.33-7.01-1.43-9.5-.26-1.99-1.24-7.09-1.64-9.75,1.41Z"/>
        <path class="cls-6" d="M69.92,85.95c.98-1.58-.53-3.3-2.5-3.13,2.54-2.91,7.67-2.52,9.44-1.25,4.17-2.12,12.04-.13,13.23,3.78,1.87.73,3.09,2.06,2.88,2.54-.18.4-4.08,1.41-9.83,1.13-1.32,1.73-4.49,3.97-6.35,3.48.65-.75,2.09-2.68,2.09-2.68-7.22,1.02-11.89,6.57-9.56,8.98,1.45.76,4.68-.77,5.23.31-1.3.23-2.15,3.25-4.02,2.31,1.67-.14-.23,4.82,1.01,5.33-1.32-.22-3.76-2.86-3.58-5.77-4.41-4.41-1.76-11.41,1.96-15.02Z"/>
        <path class="cls-5" d="M86.65,86.7c-9.21-3.53-16.9,1.6-18.72,6.87v.02c1.99-5.24,9.87-10.12,18.92-6.23.55.23,1.37-.02-.2-.67Z"/>
        <g>
          <path class="cls-7" d="M132.33,58.74s-3.64,2.58-4.28,5.96l.02,4.67s5.12-2.96,4.26-10.63Z"/>
          <path class="cls-7" d="M127.71,75.75c6.42-3.02,6.05-9.64,6.05-9.64-3.44.78-5.71,5-5.71,5l-.35,4.64Z"/>
          <path class="cls-7" d="M126.01,84.22c7.69-2.84,7.66-10.61,7.66-10.61-3.69.95-6.77,5.64-6.77,5.64l-.9,4.97Z"/>
          <path class="cls-7" d="M125.12,86.97s3.95-4.59,9.36-5.86c0,0-3.13,10.62-10.76,11.12l-.5-.06,1.91-5.21Z"/>
          <path class="cls-7" d="M119.74,99.73c9.53.97,12.73-8.11,12.73-8.11-6.06-.07-10.55,3.55-10.55,3.55l-2.18,4.56Z"/>
          <path class="cls-7" d="M112.58,109.83c11.44,3.45,15.67-7.14,15.67-7.14-8.89-.81-11.78,2.35-11.78,2.35l-3.89,4.8Z"/>
          <path class="cls-7" d="M102.65,117.35c11.07,7.85,18.38-.45,18.38-.45-8.84-5.52-13.3-2.93-13.3-2.93l-5.08,3.38Z"/>
          <path class="cls-7" d="M96.82,119.75s7.14-.4,13.5,9.47c0,0-13.18,3.73-18.73-7.63l5.23-1.84Z"/>
          <path class="cls-7" d="M84.95,122.79s9.37,3.98,9.37,15.89c0,0-13.44,1.15-13.16-15.51l3.79-.38Z"/>
          <path class="cls-7" d="M22.19,58.74s3.59,2.58,4.31,5.96l-.03,4.67s-5.2-2.96-4.28-10.63Z"/>
          <path class="cls-7" d="M26.83,75.75c-6.4-3.02-6.09-9.64-6.09-9.64,3.44.78,5.74,5,5.74,5l.35,4.64Z"/>
          <path class="cls-7" d="M28.5,84.22c-7.7-2.83-7.66-10.61-7.66-10.61,3.65.95,6.77,5.64,6.77,5.64l.89,4.97Z"/>
          <path class="cls-7" d="M29.36,86.97s-3.91-4.59-9.31-5.86c0,0,3.09,10.62,10.76,11.12l.53-.06-1.99-5.21Z"/>
          <path class="cls-7" d="M34.76,99.73c-9.57.97-12.74-8.11-12.74-8.11,6.1-.07,10.6,3.55,10.6,3.55l2.15,4.56Z"/>
          <path class="cls-7" d="M41.89,109.83c-11.41,3.45-15.61-7.14-15.61-7.14,8.86-.81,11.82,2.35,11.82,2.35l3.8,4.8Z"/>
          <path class="cls-7" d="M51.83,117.35c-11,7.85-18.3-.45-18.3-.45,8.84-5.52,13.29-2.93,13.29-2.93l5.01,3.38Z"/>
          <path class="cls-7" d="M57.74,119.75s-7.16-.4-13.58,9.47c0,0,13.24,3.73,18.78-7.63l-5.2-1.84Z"/>
          <path class="cls-7" d="M69.6,122.79s-9.35,3.99-9.35,15.89c0,0,13.38,1.15,13.13-15.51l-3.78-.38Z"/>
        </g>
        <path class="cls-2" d="M122.1,45.17s-3.01,9.98,4.95,16.02c.12,1.55.32,4.98.07,9.45-.35-1.01-1.4-2.95-4.64-5.47,0,0-.98,6.88,4.18,10.65-.15,1.19-.32,2.41-.54,3.67-.33-1.14-1.61-4.68-5.64-7.72,0,0-1.27,8.18,4.73,12.11-.24.98-.5,1.97-.8,2.96-.35-1.41-1.72-5.57-6.46-9.19,0,0-1.14,9.86,4.89,13.78-.7,1.81-1.52,3.61-2.45,5.38.32-7.37-6.38-10.83-6.38-10.83,0,0-1.39,10.64,4.79,13.59-.84,1.36-1.76,2.69-2.78,3.97v-.06c.62-5.85-4.6-10.18-4.6-10.18-2.91,8.03-.1,13.16.78,14.5-1.16,1.16-2.3,2.2-3.41,3.14,3.13-7.89-1.71-13.31-1.71-13.31,0,0-6.25,7.54-2.97,16.77-1.76,1.12-3.45,2.01-5.06,2.7,5.44-8.66,2.43-14.77,2.43-14.77,0,0-9.23,4.59-9.68,16.94-2.06.38-3.95.56-5.68.73,7.86-7.06,5.36-13.98,5.36-13.98-10.98,4.27-11.38,12.77-11.27,15.06-.11.04-.21.08-.32.13,0,0-1.34.11-2.63.78-1.3-.67-2.66-.78-2.66-.78-.08-.04-.17-.07-.26-.1.09-2.25-.32-10.8-11.31-15.08,0,0-2.57,6.92,5.33,13.98-1.72-.17-3.61-.35-5.66-.73-.44-12.35-9.62-16.94-9.62-16.94,0,0-3.07,6.11,2.39,14.77-1.62-.7-3.3-1.58-5.06-2.7,3.27-9.24-2.96-16.78-2.96-16.78,0,0-4.89,5.43-1.7,13.33-1.13-.95-2.28-2.01-3.46-3.19.92-1.37,3.72-6.5.79-14.47,0,0-5.23,4.33-4.58,10.18v.09c-1.01-1.3-1.94-2.63-2.79-4,6.14-2.95,4.8-13.59,4.8-13.59,0,0-6.73,3.47-6.36,10.89-.95-1.79-1.77-3.61-2.48-5.44,6.02-3.91,4.89-13.78,4.89-13.78-4.73,3.58-6.11,7.69-6.47,9.14-.29-.98-.55-1.96-.78-2.93,5.93-3.94,4.7-12.09,4.7-12.09-4.06,3.06-5.3,6.64-5.6,7.75-.22-1.26-.4-2.49-.54-3.68,5.14-3.76,4.16-10.67,4.16-10.67-3.22,2.49-4.27,4.41-4.62,5.43-.24-4.45-.05-7.87.08-9.42,7.91-6.04,4.93-16.02,4.93-16.02-8.33,7.75-6.93,13.43-5.95,15.51-1.01,5.72-.28,14.64,1.32,21.7,1.55,7.53,7.68,26.72,23.57,35.02,12.79,6.76,22.61,6.14,25.88,5.66,3.26.48,13.06,1.1,25.93-5.66,15.85-8.29,21.91-27.48,23.57-35.02,1.48-7.03,2.28-15.89,1.26-21.61.99-2.01,2.54-7.74-5.93-15.6Z"/>
        <g>
          <path class="cls-6" d="M89.93,109.1s-3.25,1.17-4.39,3.36c-.79,1.56-.03,2.98-.7,4.3-.62,1.33-2.34,2.98-2.34,2.98,0,0,3.24-.72,4.13-2.74.83-1.95.06-2.69.77-4.29.64-1.55,2.53-3.62,2.53-3.62Z"/>
          <path class="cls-6" d="M91.34,135.13s-3.35-.95-4.61-3.09c-.96-1.53-.19-2.93-.96-4.23-.65-1.29-2.5-2.9-2.5-2.9,0,0,3.24.56,4.29,2.49.98,1.95.25,2.75.99,4.22.77,1.53,2.79,3.51,2.79,3.51Z"/>
          <path class="cls-6" d="M100.16,107.49s-2.82,1.38-3.58,3.44c-.54,1.5.29,2.62-.15,3.92-.39,1.26-1.81,2.93-1.81,2.93,0,0,2.82-1.01,3.43-2.87.56-1.9-.27-2.45.19-3.9.43-1.5,1.91-3.52,1.91-3.52Z"/>
          <path class="cls-6" d="M107.36,101.69s-1.97,2.06-2,4.05c-.07,1.48,1.01,2.19,1.01,3.37,0,1.27-.64,3.08-.64,3.08,0,0,2.08-1.72,2-3.45-.07-1.81-.89-2.05-.97-3.43-.04-1.41.6-3.62.6-3.62Z"/>
          <path class="cls-6" d="M112.58,96.15s-1.38,2.2-1.02,3.97c.26,1.29,1.33,1.71,1.58,2.82.23,1.09,0,2.84,0,2.84,0,0,1.51-1.95,1.13-3.47-.4-1.56-1.18-1.66-1.51-2.89-.33-1.24-.18-3.27-.18-3.27Z"/>
          <path class="cls-6" d="M116.07,89.25s-.79,2.26-.12,3.78c.52,1.09,1.6,1.26,2.01,2.18.44.93.59,2.57.59,2.57,0,0,.94-2.05.3-3.39-.66-1.29-1.41-1.2-1.97-2.22-.53-1.03-.81-2.93-.81-2.93Z"/>
          <path class="cls-6" d="M120.03,81.07s-.81,2.22-.13,3.81c.49,1.07,1.52,1.2,1.96,2.16.45.9.61,2.53.61,2.53,0,0,.94-2.06.26-3.36-.64-1.33-1.37-1.23-1.91-2.28-.55-1.01-.8-2.87-.8-2.87Z"/>
          <path class="cls-6" d="M122.22,74.4s-.6,2.02.09,3.33c.45,1,1.4,1.03,1.85,1.82.42.81.63,2.21.63,2.21,0,0,.76-1.85.12-2.95-.69-1.12-1.3-.99-1.84-1.87-.53-.87-.85-2.53-.85-2.53Z"/>
          <path class="cls-6" d="M123.67,66.91s-.59,2.06.14,3.37c.47.95,1.42,1.01,1.81,1.84.46.75.62,2.15.62,2.15,0,0,.76-1.85.14-2.94-.63-1.17-1.28-.99-1.8-1.91-.56-.83-.91-2.51-.91-2.51Z"/>
          <path class="cls-6" d="M107.1,127.64s-3.37.55-5.59-.73c-1.65-.93-1.73-2.44-3.1-3.26-1.28-.8-3.69-1.34-3.69-1.34,0,0,3.07-.87,4.95.34,1.85,1.27,1.71,2.2,3.14,3.17,1.51.95,4.29,1.82,4.29,1.82Z"/>
          <path class="cls-6" d="M116.87,117.55s-2.57,1.32-4.64.88c-1.5-.33-1.97-1.51-3.25-1.8-1.24-.26-3.31-.17-3.31-.17,0,0,2.33-1.39,4.06-.95,1.81.51,1.9,1.36,3.33,1.7,1.39.43,3.82.35,3.82.35Z"/>
          <path class="cls-6" d="M124.55,104.77s-1.52,2.11-3.38,2.6c-1.35.3-2.2-.37-3.31-.13-1.13.26-2.72,1.23-2.72,1.23,0,0,1.28-2.1,2.89-2.42,1.59-.35,2.01.25,3.33,0,1.26-.27,3.19-1.28,3.19-1.28Z"/>
          <path class="cls-6" d="M129.49,93.8s-1.14,2.03-2.66,2.68c-1.12.45-1.92-.08-2.92.24-.94.38-2.21,1.37-2.21,1.37,0,0,.81-1.93,2.21-2.43,1.41-.47,1.8,0,2.92-.36,1.1-.4,2.66-1.5,2.66-1.5Z"/>
          <path class="cls-6" d="M131.69,83.92s-.62,2.16-1.95,3.15c-1.06.73-1.95.42-2.78.96-.86.62-1.85,1.88-1.85,1.88,0,0,.35-2.11,1.62-2.94,1.19-.76,1.76-.4,2.72-.99.97-.65,2.24-2.06,2.24-2.06Z"/>
          <path class="cls-6" d="M131.98,75.77s-.14,2.06-1.18,3.14c-.8.79-1.64.7-2.29,1.38-.6.65-1.34,1.96-1.34,1.96,0,0,0-1.95.92-2.87.98-.9,1.5-.65,2.25-1.38.81-.73,1.63-2.23,1.63-2.23Z"/>
          <path class="cls-6" d="M132.16,68.2s0,1.69-.76,2.68c-.55.71-1.27.69-1.82,1.28-.47.56-.91,1.67-.91,1.67,0,0-.18-1.59.55-2.39.69-.8,1.18-.64,1.74-1.3.56-.63,1.19-1.94,1.19-1.94Z"/>
          <path class="cls-6" d="M131.62,60.92s.22,1.65-.47,2.71c-.48.79-1.22.83-1.62,1.43-.42.7-.73,1.83-.73,1.83,0,0-.36-1.57.23-2.43.63-.9,1.11-.8,1.64-1.49.48-.76.95-2.05.95-2.05Z"/>
          <path class="cls-6" d="M124.01,49.42s-.6,2.38.14,4.19c.45,1.25,1.47,1.53,1.93,2.62.46,1,.68,2.82.68,2.82,0,0,.74-2.17.06-3.7-.72-1.47-1.36-1.42-1.9-2.66-.57-1.17-.91-3.28-.91-3.28Z"/>
          <path class="cls-6" d="M64.54,109.1s3.33,1.17,4.46,3.36c.77,1.56,0,2.98.66,4.3.64,1.33,2.39,2.98,2.39,2.98,0,0-3.23-.72-4.12-2.74-.9-1.95-.12-2.69-.77-4.29-.69-1.55-2.62-3.62-2.62-3.62Z"/>
          <path class="cls-6" d="M63.22,135.13s3.32-.94,4.56-3.08c.91-1.53.18-2.93.91-4.23.77-1.29,2.58-2.9,2.58-2.9,0,0-3.31.56-4.27,2.49-.98,1.95-.26,2.75-1.05,4.22-.76,1.53-2.72,3.51-2.72,3.51Z"/>
          <path class="cls-6" d="M54.37,107.49s2.8,1.37,3.59,3.44c.58,1.5-.3,2.62.16,3.92.43,1.26,1.8,2.93,1.8,2.93,0,0-2.89-1.01-3.44-2.87-.55-1.9.21-2.45-.23-3.91-.45-1.5-1.87-3.52-1.87-3.52Z"/>
          <path class="cls-6" d="M47.14,101.69s2.02,2.06,2.03,4.05c.05,1.48-1.06,2.19-1.06,3.37,0,1.27.7,3.08.7,3.08,0,0-2.1-1.72-2.01-3.46.06-1.81.87-2.04.93-3.43.07-1.41-.59-3.62-.59-3.62Z"/>
          <path class="cls-6" d="M41.92,96.15s1.37,2.2,1.04,3.97c-.2,1.29-1.34,1.71-1.59,2.82-.22,1.09,0,2.84,0,2.84,0,0-1.51-1.95-1.11-3.47.36-1.56,1.22-1.66,1.46-2.89.4-1.24.2-3.27.2-3.27Z"/>
          <path class="cls-6" d="M38.47,89.25s.73,2.26.08,3.78c-.45,1.09-1.54,1.26-1.96,2.18-.46.93-.56,2.57-.56,2.57,0,0-1.05-2.05-.33-3.39.69-1.29,1.35-1.2,1.91-2.22.52-1.03.86-2.93.86-2.93Z"/>
          <path class="cls-6" d="M34.52,81.07s.78,2.22.11,3.81c-.46,1.07-1.58,1.2-1.96,2.16-.5.9-.55,2.53-.55,2.53,0,0-1.03-2.06-.38-3.36.71-1.33,1.47-1.23,1.98-2.28.5-1.01.81-2.87.81-2.87Z"/>
          <path class="cls-6" d="M32.31,74.4s.57,2.02-.06,3.33c-.52,1-1.43,1.03-1.84,1.82-.47.81-.71,2.21-.71,2.21,0,0-.72-1.85-.07-2.95.65-1.12,1.31-.99,1.79-1.87.54-.87.89-2.53.89-2.53Z"/>
          <path class="cls-6" d="M30.82,66.91s.57,2.06-.09,3.37c-.46.95-1.4,1.01-1.84,1.84-.45.75-.64,2.15-.64,2.15,0,0-.76-1.85-.09-2.94.63-1.17,1.28-.99,1.79-1.91.51-.83.88-2.51.88-2.51Z"/>
          <path class="cls-6" d="M47.46,127.64s3.39.55,5.6-.73c1.59-.93,1.73-2.44,3.04-3.26,1.34-.8,3.73-1.34,3.73-1.34,0,0-3.13-.87-5.01.34-1.87,1.27-1.69,2.21-3.14,3.17-1.51.95-4.22,1.82-4.22,1.82Z"/>
          <path class="cls-6" d="M37.68,117.55s2.52,1.32,4.6.88c1.47-.33,1.99-1.51,3.28-1.8,1.24-.26,3.28-.17,3.28-.17,0,0-2.28-1.39-4.03-.95-1.82.5-1.9,1.36-3.32,1.7-1.41.43-3.8.35-3.8.35Z"/>
          <path class="cls-6" d="M29.99,104.77s1.53,2.11,3.41,2.6c1.28.3,2.13-.37,3.25-.13,1.14.26,2.73,1.23,2.73,1.23,0,0-1.26-2.1-2.87-2.42-1.65-.35-1.99.25-3.3,0-1.34-.27-3.21-1.28-3.21-1.28Z"/>
          <path class="cls-6" d="M24.99,93.8s1.18,2.03,2.69,2.68c1.13.45,1.97-.08,2.93.24.95.38,2.19,1.37,2.19,1.37,0,0-.82-1.93-2.19-2.43-1.39-.47-1.84,0-2.93-.36-1.05-.4-2.69-1.5-2.69-1.5Z"/>
          <path class="cls-6" d="M22.8,83.92s.65,2.16,2.02,3.15c.93.73,1.9.42,2.78.96.78.62,1.83,1.88,1.83,1.88,0,0-.37-2.11-1.6-2.94-1.28-.76-1.76-.4-2.73-.99-1.05-.65-2.29-2.06-2.29-2.06Z"/>
          <path class="cls-6" d="M22.5,75.77s.24,2.06,1.21,3.14c.75.79,1.63.7,2.3,1.38.65.65,1.28,1.96,1.28,1.96,0,0,.09-1.95-.9-2.87-.93-.9-1.44-.65-2.23-1.38-.78-.73-1.65-2.23-1.65-2.23Z"/>
          <path class="cls-6" d="M22.37,68.2s0,1.69.77,2.68c.54.71,1.27.69,1.81,1.28.45.56.84,1.67.84,1.67,0,0,.22-1.59-.47-2.39-.74-.8-1.17-.64-1.77-1.3-.59-.63-1.17-1.94-1.17-1.94Z"/>
          <path class="cls-6" d="M22.92,60.92s-.18,1.65.45,2.71c.52.79,1.21.83,1.61,1.43.41.7.76,1.83.76,1.83,0,0,.35-1.57-.3-2.43-.6-.9-1.08-.8-1.56-1.49-.52-.76-.97-2.05-.97-2.05Z"/>
          <path class="cls-6" d="M30.56,49.42s.53,2.38-.14,4.19c-.55,1.25-1.52,1.53-1.99,2.62-.45,1-.7,2.82-.7,2.82,0,0-.73-2.17-.05-3.7.69-1.47,1.37-1.42,1.94-2.66.55-1.17.93-3.28.93-3.28Z"/>
        </g>
        <g>
          <path class="cls-6" d="M50.33,20.63q.11.31.38.21l.85-.21c.63-.17.75-.22.68-.76v-.27c.08-.08.35-.17.5-.08,0,.35.13.7.2,1.12.12.34.19.69.28.98-.02.14-.28.19-.43.14l-.05-.23c-.31-.45-.42-.5-.98-.34l-.88.24c-.3.07-.3.1-.27.35l.41,1.36c.21.93.23,1.02.78.93h.44c.08,0,.17.26.08.31-.64.19-1.21.32-1.8.45-.47.11-1.02.28-1.71.48-.13-.06-.15-.29-.05-.36l.29-.17c.49-.2.55-.27.31-1.19l-.95-3.76c-.17-.99-.31-1.04-.82-.99l-.25.07c-.07-.07-.19-.3-.07-.41.5-.12,1.03-.24,1.61-.35l2.36-.59c.7-.15,1.34-.35,1.5-.45,0,.19.2.95.39,1.6,0,.14-.26.21-.39.14-.26-.37-.42-.64-.55-.64-.23-.2-.63-.24-1.16-.12l-.89.26c-.34.04-.34.12-.22.46l.42,1.86Z"/>
          <path class="cls-6" d="M56.32,17.47c-.08-.48-.08-.54.38-.59.93-.15,1.63.31,1.81,1.3.03.56-.12.95-.25,1.19-.19.18-.43.31-.82.38-.7.12-.73.12-.76-.24l-.36-2.04M55.48,22.07c.19.95.1,1.06-.36,1.21l-.31.12c-.08.05-.03.26.03.37.6-.16,1.09-.21,1.68-.34.5-.07,1.09-.15,1.68-.24.06-.07,0-.34-.05-.35h-.35c-.52,0-.6-.04-.78-1.04l-.18-1.26c0-.18,0-.22.41-.25.26-.08.41,0,.62.21.39.52.7.98,1.19,1.45.64.7,1.33.9,2.37.73.35-.08.75-.18.89-.28.02-.06.02-.21-.1-.25-.18.04-.51.04-.83-.17-.59-.29-1.16-1.02-2.18-2.28-.06-.04-.12-.17,0-.2.49-.29,1.14-.83.94-1.73-.1-.7-.53-1.14-1.25-1.35-.5-.19-1.3-.19-2.27,0-1.09.1-2,.36-2.82.55-.13.08-.07.34.05.4l.31-.06c.47,0,.56.09.67,1.12l.64,3.62Z"/>
          <path class="cls-6" d="M67.96,18.58c.13,1.67-.29,3.03-1.77,3.18-1.9.19-2.6-1.77-2.68-3.04-.23-1.74.48-3.02,1.85-3.13,1.42-.16,2.42,1.19,2.6,2.98M65.44,15.05c-2.4.3-3.93,2.04-3.77,4.09.23,2.18,2.02,3.38,4.35,3.17,2.45-.24,4.01-1.8,3.76-4.07-.19-2.1-2-3.39-4.34-3.19Z"/>
          <path class="cls-6" d="M77.93,19.68c0,.69.05,1.29.12,1.7-.12.11-.45.24-.74.24-.03,0-.37-.51-.93-1.11l-2.76-2.88c-.7-.76-1.03-1.17-1.31-1.35-.04.16-.04.36-.04.71l.09,2c0,.87.1,1.65.24,1.96.05.16.35.24.66.27h.29c.12.11.12.34,0,.4h-1.5c-.43,0-.85.08-1.3.1-.09-.1-.13-.3,0-.39h.17c.29-.11.53-.16.62-.38.12-.29.12-1.07.12-1.96l-.12-2.61c0-.6,0-.75-.09-.9-.1-.14-.24-.28-.67-.32l-.31-.02c-.07-.1-.07-.35.06-.35.53,0,1.13,0,1.56-.05.39,0,.73-.03.96-.03.15.46.9,1.2,2.02,2.29l.95,1c.52.52.92.91,1.14,1.13.11-.14.11-.3.11-.51l-.11-1.43c-.01-.84-.07-1.59-.22-1.85-.08-.29-.4-.3-.7-.34h-.28c-.07-.11-.07-.32,0-.41h1.51c.44-.01.81-.01,1.32-.06.05.05.1.26.03.36l-.2.03c-.36.08-.55.12-.63.31-.11.33-.15,1.12-.11,1.95l.06,2.49Z"/>
          <path class="cls-6" d="M82.25,15.53c0-.19,0-.32-.28-.32l-.72-.02c-.83-.03-1.12.34-1.47,1.09-.14.07-.41,0-.44-.14.29-.7.36-1.32.45-1.75h.2c.07,0,.14,0,.14.05.04.14.13.22.95.25l4.32.22c.75.08.9.08,1.05-.18h.17s.1.05.1.08c-.1.34-.23,1.17-.23,1.82-.08.05-.39.05-.45,0-.17-.67-.29-1.27-1.1-1.29h-.73c-.31,0-.32,0-.35.28l-.2,4.58c-.09.97,0,1.01.53,1.17l.42.06c.06.08.06.31-.04.36-.7-.05-1.3-.09-1.83-.1-.53-.08-1.12-.08-1.96-.08-.07-.1-.07-.3.07-.4h.51c.48-.04.6-.12.6-1.09l.28-4.61Z"/>
          <path class="cls-6" d="M88.39,19.23c-.28-.09-.38-.1-.17-.34l.33-.76c.21-.5.45-.94.6-1.09.08.22.16.59.3,1.14l.2.8c.02.28,0,.29-.3.28l-.96-.04M89.35,19.86c.44.01.5.03.55.23l.2.89c.12.44.18.73.18.78,0,0-.08.11-.35.13h-.41c-.08.08-.08.32,0,.38.55.04,1.03.09,1.57.12.61.1,1.24.13,1.79.22.09-.07.09-.3.04-.36l-.44-.13c-.4-.13-.49-.35-.69-.95l-1.1-4.28c-.24-.78-.29-1.15-.4-1.53-.01-.13-.07-.16-.21-.18,0,0-.55.5-1.08.52,0,.28-.24.64-.58,1.28l-1.31,2.44c-.38.71-.61,1.21-.82,1.55-.23.41-.52.47-.77.47h-.36c-.04.08-.09.31,0,.36.58.06.78.06,1.2.08.49.08.94.11,1.37.19.1,0,.1-.3.05-.35l-.33-.1c-.33-.1-.42-.18-.4-.2,0-.09,0-.2.14-.39l.49-1.16c.14-.19.15-.19.44-.16l1.24.14Z"/>
          <path class="cls-6" d="M95.67,21.32c-.05.45-.05.8.02.99.14.2.34.3,1.12.43,1.07.21,1.42.21,2.26-.88.13-.09.36,0,.4.13-.14.52-.58,1.3-.72,1.59-.64-.12-1.75-.3-2.67-.45l-1.49-.27c-.54-.05-1.12-.15-1.81-.25-.13-.09-.08-.35.02-.36h.43c.51.01.64-.05.77-1.03l.62-3.8c.17-.97.11-1.04-.4-1.18l-.32-.13c-.08-.03-.03-.3.09-.36.6.15,1.16.23,1.7.35.54.04,1.12.14,1.7.18.08.1.06.36-.07.41h-.32c-.52,0-.57.04-.73,1l-.6,3.63Z"/>
          <path class="cls-6" d="M102.87,20.21c-.1.3-.1.33.22.42l.76.14c.6.17.77.09.97-.34l.17-.25s.38.03.38.14c-.09.31-.18.65-.29,1.06-.09.37-.17.74-.23,1.1-.1.03-.35,0-.38-.13v-.28c0-.45-.15-.58-.72-.75l-.79-.16q-.31-.1-.36.21l-.32,1.16c-.12.49-.16.87-.03,1.04.09.21.32.37,1.11.57.96.21,1.32.28,2.24-.72.14-.07.41.02.43.15-.2.52-.66,1.28-.9,1.55-.58-.2-1.63-.45-2.53-.7l-1.48-.37c-.53-.1-1.11-.24-1.95-.4-.09-.07,0-.36.13-.37l.5.08c.52.07.59,0,.8-.96l.95-3.8c.17-.88.14-.98-.31-1.19l-.3-.09c-.06-.07,0-.34.12-.4.55.15,1.05.33,1.58.47l2.39.57c.74.2,1.34.34,1.52.34,0,.13-.12.91-.2,1.57-.13.14-.34.03-.42-.03-.07-.41-.14-.74-.26-.91-.2-.22-.47-.47-1.02-.59l-.9-.18c-.36-.14-.36-.12-.45.27l-.43,1.76Z"/>
        </g>
        <g>
          <path class="cls-6" d="M48.02,58.94c0,.53.07.55.21.55.31,0,.82-.63.99-.95.75-.99,1.37-2.02,1.81-2.78.08-.18.2-.33.2-.4,0-.08-.12-.13-.21-.23l-.32-.03c-.18-.14-.12-.52.01-.63.68.08,1.14.11,1.62.11.54,0,1.1-.03,1.59-.11.17.11.2.48.11.63-.46.03-.9.14-1.11.26-.59.34-1.12.9-1.99,2.07l-.6.89c-.17.18-.19.3-.19.38,0,.07.11.25.47,1.01.64,1.2,1.42,2.78,2.34,4.26.36.6.61.7.97.75l.45.09c.05.13.05.46-.08.55h-3.95c-.17,0-.17-.44,0-.55l.37-.09c.09,0,.18-.13.18-.15,0-.1,0-.22-.1-.39-.09-.06-.65-1.15-.8-1.4l-.66-1.35c-.48-.87-.7-1.28-.93-1.28-.36,0-.36.23-.36,1.16v1.69c0,1.48.07,1.59.65,1.72l.38.09c.12.11.12.46,0,.55h-3.95c-.11-.09-.11-.44,0-.55l.36-.09c.6-.13.69-.24.69-1.72v-6.1c0-1.52-.09-1.62-.69-1.77l-.36-.03c-.18-.14-.18-.49,0-.63.68.08,1.3.11,2.01.11.62,0,1.28-.03,1.94-.11.12.14.12.49,0,.63l-.38.03c-.58.15-.65.25-.65,1.77v2.04Z"/>
          <path class="cls-6" d="M57.11,60.8c-.37,0-.43-.09-.26-.52l.27-1.2c.25-.76.45-1.45.56-1.81.14.33.29,1.03.49,1.71l.36,1.3c.09.43.03.52-.31.52h-1.09M58.29,61.66c.44,0,.56.02.62.29l.38,1.42c.17.59.21.97.21,1.1,0,.1-.03.2-.33.25l-.43.09c-.14.13-.14.46.01.55h3.8c.13-.09.13-.46.08-.55l-.53-.09c-.54-.14-.59-.49-.9-1.45l-1.74-6.4c-.39-1.17-.55-1.77-.64-2.26-.07-.2-.11-.32-.28-.32,0,0-.51.81-1.14,1,.04.43-.19,1.06-.53,2.11l-1.14,3.92c-.4,1.2-.6,1.98-.88,2.65-.2.61-.46.75-.75.8l-.37.05c-.09.13-.13.46.02.55h2.89c.18-.09.09-.44.03-.55l-.36-.09c-.4-.05-.53-.15-.53-.25,0-.15,0-.29.11-.62l.47-1.89q.1-.29.47-.29h1.45Z"/>
          <path class="cls-6" d="M73.91,55.22c-.28.05-.42.15-.53.33-.12.26-.39.78-.74,1.85-.63,1.89-2.1,5.96-2.76,8.08-.1.05-.28.08-.41.08-.15,0-.25-.03-.4-.08-.14-.4-.33-1.02-.47-1.47l-.52-1.54c-.2-.53-.37-1.02-.52-1.3-.13.32-.24.69-.39,1.15l-.68,1.69c-.24.55-.29.95-.55,1.51-.06.12-.25.13-.4.13-.18,0-.21-.01-.36-.13-.24-.66-.74-2.16-1.18-3.39l-2.15-5.81c-.33-.98-.45-1.1-.84-1.18l-.35-.06c-.1-.17-.1-.49.04-.63.47.08,1.03.11,1.74.11.55,0,1.07-.03,1.57-.11.14.11.14.49.02.63l-.21.03c-.27.03-.37.15-.37.23,0,.15.29.9.69,2.05l1.3,3.61c.41,1.05.49,1.36.64,1.73.16-.35.39-.81.65-1.57l.19-.5c.07-.25.11-.62.11-.69,0-.1-.01-.28-.04-.44l-1.25-3.42c-.31-.84-.41-.96-.91-1.03h-.13c-.11-.15-.11-.52.07-.63.56.08,1.09.11,1.64.11.63,0,1.14-.03,1.53-.11.14.11.14.49.03.63l-.2.03c-.17.03-.35.15-.35.23,0,.15.02.34.11.53l.42,1.11c.03.4.2.68.35.98.15-.34.24-.69.41-.99l.13-.35c.2-.6.3-1.13.3-1.21,0-.08-.05-.15-.27-.2l-.34-.13c-.13-.14-.07-.49.02-.63.36.08.84.11,1.26.11.53,0,1.01-.03,1.38-.11.11.14.11.49,0,.63l-.39.13c-.46.12-.52.13-1,1.12-.31.65-.6,1.43-.77,1.85-.17.3-.32.75-.32.85,0,.09,0,.12.13.43l.65,1.66c.29.94.45,1.36.54,1.59.63-1.89,1.22-3.92,1.85-5.93.13-.28.4-1.21.4-1.41,0-.1-.15-.13-.26-.21l-.33-.06c-.12-.15-.04-.49.04-.63.4.08.93.11,1.35.11.48,0,.85-.03,1.22-.11.08.14.16.48.03.63l-.4.13Z"/>
          <path class="cls-6" d="M75.19,60.8c-.37,0-.45-.09-.34-.52l.36-1.2c.18-.76.41-1.45.54-1.81.13.33.27,1.03.45,1.71l.34,1.3c.11.43,0,.52-.25.52h-1.1M76.38,61.66c.43,0,.56.02.61.29l.32,1.42c.22.59.29.97.29,1.1,0,.1-.07.2-.33.25l-.46.09c-.16.13-.1.46.05.55h3.77c.1-.09.1-.46.06-.55l-.56-.09c-.46-.14-.6-.49-.82-1.45l-1.84-6.4c-.31-1.17-.48-1.77-.59-2.26-.02-.2-.09-.32-.34-.32,0,0-.45.81-1.09,1,0,.43-.21,1.06-.54,2.11l-1.16,3.92c-.36,1.2-.58,1.98-.81,2.65-.2.61-.48.75-.85.8l-.29.05c-.11.13-.15.46,0,.55h2.87c.15-.09.12-.44.04-.55l-.42-.09c-.32-.05-.41-.15-.41-.25,0-.15,0-.29.05-.62l.48-1.89c.1-.29.11-.29.46-.29h1.47Z"/>
          <path class="cls-6" d="M83.27,65.57c-1.22,0-1.94-.36-2.23-.63-.25-.36-.43-1.48-.43-2.61.12-.23.43-.23.49-.05.27,1.09,1.15,2.59,2.28,2.59.98,0,1.43-.85,1.43-1.68,0-1.33-1-2.07-1.81-2.62-.94-.55-1.96-1.54-1.96-3.16,0-1.83,1.13-3.13,3.01-3.13.45,0,.96.12,1.5.29.2.03.32.08.46.1.1.38.22,1.21.22,2.32-.05.25-.36.25-.49.08-.23-.82-.78-2.01-1.72-2.01-.88,0-1.35.64-1.35,1.46,0,.77.5,1.51,1.2,1.88l.89.57c.79.57,1.79,1.51,1.79,3.3,0,2.01-1.31,3.29-3.27,3.29Z"/>
          <path class="cls-6" d="M90.01,60.8c-.35,0-.37-.1-.34-.52l.4-1.2c.15-.76.38-1.45.51-1.81.14.33.26,1.03.48,1.71l.33,1.3c.12.43,0,.52-.25.52h-1.14M91.19,61.66c.47,0,.6.02.66.29l.33,1.42c.17.59.28.97.28,1.1,0,.1-.11.2-.37.25l-.42.09c-.15.13-.13.46.04.55h3.78c.13-.09.13-.46.04-.55l-.55-.09c-.47-.14-.6-.49-.84-1.45l-1.8-6.4c-.34-1.17-.49-1.77-.61-2.26-.02-.2-.1-.32-.33-.32,0,0-.45.81-1.1,1,.09.43-.19,1.06-.5,2.11l-1.2,3.92c-.35,1.2-.58,1.98-.78,2.65-.23.61-.51.75-.86.8l-.3.05c-.11.13-.14.46.03.55h2.85c.14-.09.13-.44.11-.55l-.45-.09c-.31-.05-.43-.15-.43-.25,0-.15,0-.29.05-.62l.51-1.89c.04-.29.14-.29.44-.29h1.44Z"/>
          <path class="cls-6" d="M98.52,58.94c0,.53.09.55.23.55.3,0,.84-.63,1.02-.95.71-.99,1.34-2.02,1.74-2.78.16-.18.17-.33.17-.4,0-.08-.01-.13-.19-.23l-.35-.03c-.11-.14-.09-.52.09-.63.65.08,1.16.11,1.63.11s1.03-.03,1.59-.11c.16.11.19.48.05.63-.42.03-.82.14-1.13.26-.51.34-1.08.9-1.9,2.07l-.63.89c-.15.18-.16.3-.16.38,0,.07.04.25.45,1.01.65,1.2,1.44,2.78,2.35,4.26.33.6.6.7.97.75l.38.09c.09.13.09.46-.02.55h-3.97c-.15,0-.15-.44,0-.55l.3-.09c.13,0,.25-.13.25-.15,0-.1-.02-.22-.11-.39-.05-.06-.59-1.15-.77-1.4l-.67-1.35c-.51-.87-.73-1.28-.98-1.28-.35,0-.35.23-.35,1.16v1.69c0,1.48.09,1.59.68,1.72l.39.09c.07.11.07.46,0,.55h-3.97c-.09-.09-.09-.44,0-.55l.39-.09c.56-.13.66-.24.66-1.72v-6.1c0-1.52-.1-1.62-.66-1.77l-.39-.03c-.19-.14-.19-.49,0-.63.65.08,1.3.11,1.97.11s1.28-.03,2-.11c.07.14.07.49,0,.63l-.39.03c-.59.15-.68.25-.68,1.77v2.04Z"/>
          <path class="cls-6" d="M107.92,62.93c0,1.54.09,1.65.69,1.79l.36.09c.12.11.09.46-.02.55h-3.95c-.1-.09-.1-.44,0-.55l.36-.09c.56-.14.67-.25.67-1.79v-6.02c0-1.53-.11-1.63-.67-1.75l-.36-.06c-.1-.14-.1-.49,0-.63.72.08,1.35.11,1.98.11s1.29-.03,1.99-.11c.12.14.12.49,0,.63l-.36.06c-.6.12-.69.21-.69,1.75v6.02Z"/>
        </g>
        <g>
          <path class="cls-6" d="M63.59,74.66q0,.18.23.18h.5c.45,0,.47-.03.62-.39v-.2s.24-.04.29,0v1.5c-.05.09-.24.09-.29,0v-.15c-.15-.31-.17-.41-.62-.41h-.5q-.23,0-.23.24v.85c0,.35,0,.55.1.7.13.08.3.2.83.2.66,0,.93-.1,1.36-.89.12-.02.32-.02.35.07-.03.37-.23.92-.36,1.12-.43,0-1.17-.03-1.85-.03h-.99c-.4,0-.76.03-1.37.03-.11-.03-.11-.24,0-.28h.38c.29-.02.4-.12.4-.77v-2.65c0-.65-.11-.67-.4-.77l-.2-.05c-.07,0-.07-.19,0-.21h3.84c0,.1.05.6.17,1.13-.07.03-.26.03-.32.01-.09-.27-.21-.49-.31-.6-.15-.15-.39-.18-.79-.18h-.62q-.23,0-.23.23v1.3Z"/>
          <path class="cls-6" d="M67.96,77.61c-.7,0-1.17-.21-1.32-.31-.16-.11-.24-.65-.24-1.13.02-.07.21-.07.27-.03.17.5.7,1.13,1.4,1.13.52,0,.81-.36.81-.72,0-.59-.6-.93-1.07-1.16-.55-.2-1.17-.66-1.2-1.34,0-.8.71-1.37,1.85-1.37.23,0,.58.04.89.09.11.02.12.02.24.1.07.11.18.5.18,1.03-.02.03-.29.03-.31,0-.15-.39-.46-.92-1.04-.92-.49,0-.8.32-.8.69,0,.29.31.6.73.79l.48.26c.53.25,1.14.64,1.14,1.41,0,.92-.79,1.48-2.01,1.48Z"/>
          <path class="cls-6" d="M72.21,73.3c0-.15,0-.17-.21-.17h-.45c-.61,0-.77.29-.98.78-.14.02-.25.02-.31-.01.16-.53.17-.97.28-1.28.02,0,.02-.04.1-.04.04,0,.06.04.13.04.02.11.02.15.6.15h2.94c.51,0,.61,0,.7-.15.07,0,.07-.04.1-.04.09,0,.11.04.14.09-.05.19-.15.82-.14,1.23-.01.03-.25.03-.28.01-.15-.45-.22-.78-.82-.78h-.46q-.18,0-.18.17v3.15c0,.64.02.75.35.77h.33c.04.09.04.25,0,.28-.5,0-.92-.03-1.28-.03s-.77.03-1.3.03c-.1-.03-.1-.2,0-.28h.36c.29-.02.39-.12.39-.77v-3.15Z"/>
          <path class="cls-6" d="M74.67,77.05c0-.38.32-.64.69-.64.39,0,.6.3.6.64,0,.25-.21.53-.6.53-.36,0-.69-.21-.69-.53Z"/>
          <path class="cls-6" d="M78.98,76.55c0,.55.01.66.38.67h.34c.08.09.08.25,0,.28-.33,0-.73-.03-1.26-.03s-1,.03-1.29.03c-.06-.03-.06-.2,0-.28h.31c.39,0,.44-.12.44-.67v-2.32c0-.46-.05-.58-.38-.61l-.38-.05c0-.05-.06-.2,0-.25.31-.04.67-.15,1.03-.18.31-.1.62-.26.7-.26.02,0,.09.06.09.11v3.57Z"/>
          <path class="cls-6" d="M84.31,74.76c0,.86-.44,1.62-1.14,2.17-.59.54-1.67.93-2.31,1.02-.12-.1-.12-.23-.07-.28,1.56-.37,2.34-1.54,2.34-2.83,0-.58-.18-1.57-.83-1.57-.35,0-.59.4-.59.79,0,.61.25,1.25.8,1.29h.24s.02.12.02.14c-.15.16-.42.25-.8.25-.72,0-1.28-.54-1.28-1.26,0-.92.73-1.56,1.7-1.56,1.2,0,1.91.83,1.91,1.83Z"/>
          <path class="cls-6" d="M88.37,74.76c0,.86-.41,1.62-1.09,2.17-.63.54-1.68.93-2.33,1.02-.11-.1-.15-.23-.09-.28,1.57-.37,2.33-1.54,2.33-2.83,0-.58-.14-1.57-.83-1.57-.35,0-.58.4-.58.79,0,.61.29,1.25.86,1.29h.21s.01.12.01.14c-.16.16-.43.25-.79.25-.74,0-1.28-.54-1.28-1.26,0-.92.74-1.56,1.72-1.56,1.18,0,1.87.83,1.87,1.83Z"/>
          <path class="cls-6" d="M91.4,73.03c.57,0,1.09,0,1.23-.05.02.05.04.12.04.15-.21.23-.43.63-.78,1.13l-2.23,3.69c-.16,0-.36-.13-.43-.28l2.12-3.22c.15-.27.24-.42.24-.55,0-.12-.1-.12-.24-.12h-1.68c-.44,0-.51.02-.68.31-.08.12-.23.08-.28-.04.09-.37.21-.79.29-1.09.29.05.45.05.94.05h1.46Z"/>
        </g>
      </g>
    </g>
  </g>
</svg>