<?xml version="1.0" encoding="UTF-8"?>
<svg id="_レイヤー_2" data-name="レイヤー 2" xmlns="http://www.w3.org/2000/svg" xmlns:xlink="http://www.w3.org/1999/xlink" viewBox="0 0 426.45 449.92">
  <defs>
    <style>
      .cls-1 {
        fill: none;
      }

      .cls-2 {
        fill: #221815;
      }

      .cls-3 {
        fill: #ffe100;
      }

      .cls-4 {
        fill: #c11920;
      }

      .cls-5 {
        fill: #fcc800;
      }

      .cls-6 {
        fill: #fff;
      }

      .cls-7 {
        fill: #eb6100;
      }

      .cls-8 {
        fill: #fff100;
      }

      .cls-9 {
        fill: #e60012;
      }

      .cls-10 {
        clip-path: url(#clippath);
      }
    </style>
    <clipPath id="clippath">
      <path class="cls-1" d="M390.94,224.94c.07-12.49-5.34-22.53-15.6-29.03-.69-.44-1.39-.87-2.1-1.27-.77-.43-1.55-.85-2.34-1.22-11.64-5.67-23.69-4.48-34.15-2.53-5.83,1.33-9.45,2.5-11.74,3.46-1.46-1.46-3.03-2.84-4.74-4.07-.97-.67-6.37-4.22-14.15-5.76-.48-2.23-.98-3.97-1.26-4.88-.01-.05-.23-.79-.25-.84-1.29-3.88-4.26-11.63-9.68-19.89-6.8-10.34-15.02-17.72-24.49-21.96-15.15-6.65-29.01-3.93-42.64,8.55-6.19,6.4-11.53,14.18-15.87,23.1-.54,1.12-4.52,10.56-4.96,11.86-1.56,4.27-6.56,19.27-5.14,33.03.89,10.47,5.87,20.97,13,27.42.12.11.54.44.67.53,7.94,6.03,16.67,9.07,25.99,9.07,1.13,0,2.27-.05,3.42-.13,12.05-.93,21.23-4.61,21.51-4.72,1.18-.45,2.22-.93,3.33-1.4,3.32,4.59,7.6,8.48,12.65,11.05,6.29,3.17,11.23,4.29,15.81,4.29.67,0,1.31-.14,1.97-.18.25.54.51,1.09.92,1.73,9.83,18.52,24.19,24.87,33.25,24.47.58.03,1.17.05,1.76.05,15.78,0,33.72-11.18,44.46-28.18l.53-.88c3.53-5.77,8.87-14.5,9.85-31.66Z"/>
    </clipPath>
  </defs>
  <g id="_レイヤー_1-2" data-name="レイヤー 1">
    <g>
      <path class="cls-8" d="M426.45,232.41c0,117.76-84.41,196.43-213.22,196.43S0,350.17,0,232.41,95.46,19.18,213.22,19.18s213.22,95.46,213.22,213.22Z"/>
      <g>
        <g>
          <g>
            <path class="cls-2" d="M419.51,300.96c-1.3-.72-2.84-1.24-3.8-1.44-6.81-1.4-13.64-2.18-20.31-2.33-3.7-.09-7.16,0-10.49.16-1.79-20.11-8.09-39.31-19.27-58.27,1.62-9.72,2.12-22.36,2.53-32.66l.21-5.17c.84-18.75-5.88-43.26-14.38-52.46-2.12-2.29-5.31-4.04-8.13-4.45-21.54-3.21-49.87,5.35-81.73,24.67l-4-.59c-26.18-3.9-58.77-8.75-103.06,1.53-1.4.32-2.95.78-4.54,1.26-2.37.71-6.76,1.98-7.92,1.68-8.49-4.64-30.28-15.71-49.14-18.49-17.53-2.61-29.09.83-34.52,10.31-15.37,28.86-7.65,69.07-4.44,79.47-16,31.01-15.69,63.87-15.6,67.47,0,.84.03,1.72.04,2.58-.84.06-1.6.09-2.48.16-8.93.71-17.8,1.58-28.07,4.44-3.34.92-6.41,3.14-5.81,5.59.47,1.92,2.84,2.35,4.83,2.35,1.54,0,2.85-.25,2.89-.26,10.63-2.16,16.02-2.75,23.47-3.55l3.14-.34c.81-.09,1.61-.13,2.42-.2.81,9.68,2.85,19.99,6.48,30.18-4.44,1.67-9.56,3.89-15.71,7.07-.04.02-3.98,2.08-4.74,4.62-.23.78-.15,1.56.23,2.24.62,1.11,1.92,1.46,3.31,1.46,2.3,0,4.82-.95,4.86-.96,1.84-.81,3.57-1.58,5.21-2.31,3.72-1.66,6.96-3.05,10-4.23,3.93,8.9,9.09,17.53,15.73,25.34-6.84,3.95-15.09,9.33-24.44,16.6-1.94,1.52-3.19,3.45-3.41,5.32-.12,1.04.11,1.99.65,2.67.41.51,1.18.73,2.1.73,1.62,0,3.71-.68,5.14-1.7,10.26-7.27,19.16-12.89,26.15-17.04,7.51,7.31,16.5,13.67,27.22,18.49,35.27,15.84,67.77,19.4,108.95,20l4.04-.06,4.36.06c47.38-.69,84.81-7.46,111.26-20.11,15.35-7.34,27.56-17.24,36.7-29.54,7.64,2.61,16.9,6.62,25.83,12.66,1.14.79,3.45,2.16,5.5,2.16.92,0,1.79-.27,2.47-1.01.29-.3.61-.85.53-1.73-.17-1.86-2.23-4.46-3.56-5.43-9.12-6.66-18.29-10.95-26.01-13.74,5.25-8.67,9.17-18.37,11.72-29.12,5.64.9,12.22,2.35,19.44,4.77.04,0,2.17.71,4.26.71,1.57,0,3.11-.39,3.7-1.78.27-.63.26-1.33-.03-2.02-1.04-2.48-5.39-4.32-5.43-4.33-7.12-2.82-14.12-4.47-20.31-5.49,1.35-8.14,2-16.8,1.93-26,.02-1.57-.07-3.12-.1-4.67,2.94-.16,5.97-.26,9.16-.22,4.96.05,10.48.42,15.35.74,1.52.1,2.99.19,4.4.28,3.19.18,7.1-.41,7.57-2.73.17-.81-.11-2.03-2.36-3.29Z"/>
            <path class="cls-6" d="M354.53,239.1c1.76-9.13,2.29-22.42,2.71-33.11l.22-5.23c.76-16.97-5.67-38.25-11.49-44.55-.51-.56-1.4-.99-1.72-1.06-18.78-2.76-45.27,5.51-74.57,23.31-2.08,1.26-3.22,1.95-5.23,1.65l-5.91-.87c-25.25-3.76-56.69-8.45-98.98,1.36-1.2.27-2.52.67-3.88,1.08-5.38,1.6-11.46,3.43-16.3.79-7.98-4.35-28.38-14.75-45.5-17.28-12.59-1.85-20.45-.25-23.34,4.78-10.47,19.65-8.42,46.45-5.73,61.45.72-.85,1.42-1.62,2.07-2.27,2.63-2.63,5.32-3.6,7.16-2.33,1.91,1.32,1.15,4.66-.08,7.33-1.22,2.65-3.69,7.76-5.63,11.18,0,0,0,.01,0,.02-16.85,29.6-16.54,62.53-16.45,66.2,0,.74.03,1.51.04,2.26,9.31.02,14.99,1,17.89,1.74l.21.05c.06.01,7.62,1.41,7.18,5.04-.39,3.23-4.98,2.99-7.2,2.87l-.82-.06c-2.44-.37-8.96-1.24-16.86-1.4.79,8.79,2.71,18.09,6.01,27.25,4.52-1.04,7.72-1.28,9.83-1.4l.29-.02c2.79-.15,9.39-.25,9.73,3.07.3,2.87-4.87,4.24-7.11,4.7-1.04.21-2.16.36-3.41.53-1.75.24-3.74.52-6.09,1.02,3.77,8.24,8.76,16.15,15.14,23.24,6.63-3.22,10.45-4.4,10.53-4.42.06-.03,6.57-1.68,7.84,1.28,1.09,2.56-1.67,3.92-4.33,5.24-.85.42-1.74.86-2.55,1.35,0,0-.09.05-.26.13-1.03.51-2.75,1.4-5.02,2.62,6.17,5.56,13.32,10.43,21.71,14.2,33.54,15.07,64.84,18.46,104.46,19.04l4.04-.06,4.36.06c44.98-.67,81.88-7.25,106.54-19.04,12.36-5.91,22.38-13.54,30.17-22.9-3.71-.86-5.98-1.18-6.04-1.19-1.42-.14-5.85-1.17-7.34-3.19-.44-.61-.61-1.28-.47-1.94.75-3.62,7.32-2.9,10.09-2.43.35.03,3.75.38,9.03,1.65,5.2-7.94,9.03-16.98,11.53-27.1-2.33-.14-4.2-.17-5.48-.17-2.44.01-5.28-.05-5.28-.05-.74-.07-6.59-.76-6.82-3.68-.03-.39.05-1,.6-1.64,1.31-1.53,4.62-2.39,6.03-2.5l.31-.03c.84-.08,3.07-.3,5.31-.32h.62c1.62,0,3.81.05,6.42.22,1.29-7.68,1.93-15.9,1.86-24.74.01-1.24-.06-2.46-.09-3.69-6.85.85-12.47,1.97-16.3,2.74-1.96.39-3.38.68-4.24.78-1.38.2-2.56.3-3.55.3-2.31,0-3.58-.56-4-1.72-.29-.84-.23-1.74.18-2.59.73-1.52,2.53-2.81,5.19-3.72,2.09-.71,10.2-3.2,22.24-4.68-1.72-19.09-7.86-37.28-18.78-55.31-.7-1.16-.95-2.54-.69-3.87Z"/>
          </g>
          <g>
            <path class="cls-2" d="M115.31,320.77c-3.5,7.1-3.52,18.45,1.21,24.48,2.92,3.45,7.8,5.41,14.09,4.33,5.43-.94,8.52-5.9,9.55-9.85,2.23-8.84-.14-19.68-5.23-23.79-5.36-3.91-15.39-3.82-19.61,4.83Z"/>
            <path class="cls-2" d="M285.41,321.81c-3.5,7.1-3.52,18.45,1.21,24.48,2.92,3.45,7.8,5.41,14.09,4.33,5.43-.94,8.52-5.9,9.55-9.85,2.23-8.84-.15-19.68-5.23-23.79-5.36-3.91-15.39-3.82-19.61,4.83Z"/>
            <g>
              <path class="cls-2" d="M230.45,352.52c-1.17-4.16-4.32-7.43-8.44-8.76-7.86-2.55-15.82-1.48-20.77,2.79-5.16,4.56-5.41,12.65-2.19,16.84,2.99,3.88,7.72,5.9,14.48,6.2.31.01.63.02.94.02,5.41,0,10.44-1.98,13.31-5.27v-.02c2.83-3.28,3.82-7.69,2.67-11.81Z"/>
              <path class="cls-3" d="M219.91,350.27c-2.1-.68-4.24-1.01-6.25-1.01-3.19,0-6.05.84-7.91,2.45-2.45,2.17-2.29,6.18-1.26,7.52,1.68,2.18,4.74,3.34,9.35,3.54,4.27.17,7.46-1.38,8.79-2.9,1.34-1.56,1.79-3.55,1.24-5.49-.54-1.94-2.02-3.48-3.96-4.11Z"/>
            </g>
          </g>
        </g>
        <g>
          <g>
            <path class="cls-2" d="M174.31,410.6c-1.48-4.63-4.48-8.3-7.74-11.99-11.57-11.1-31.76-15.56-47.81-10.64-11.58,3.03-24.94,13.2-26.89,28.3-1.79,11.76,2.42,22.06,11.65,27.76,9.31,4.78,19.42,4.67,29.7-.17.87-.33,1.3-.24,3.57.72,1.42.61,3.17,1.34,5.28,1.7,3.57,1.03,6.76,1.46,9.57,1.46,7.46,0,12.38-3.02,15.44-6.04,7.97-7.84,10.94-20.61,7.23-31.1Z"/>
            <path class="cls-6" d="M163.98,414.19c-.03-.07-.05-.13-.07-.2-.84-2.65-3.05-5.31-5.25-7.82-8.41-8.05-24.41-11.47-36.92-7.67-8.41,2.21-17.79,9.67-19.04,19.29-.55,3.62-1.01,12.25,6.19,16.72,5.93,3.02,12.4,2.87,20-.7,1.9-.75,3.63-1.02,5.19-1.02,2.92,0,5.24.98,6.98,1.72,1.12.47,2.08.88,2.97,1.01.27.04.53.09.78.17,6.51,1.94,11.44,1.34,14.59-1.78,4.91-4.82,6.87-13.3,4.58-19.71Z"/>
          </g>
          <g>
            <path class="cls-2" d="M338.19,418.56c-1.98-15.21-15.33-25.39-26.69-28.34-16.27-4.97-36.47-.53-48.34,10.91-2.82,3.2-5.95,7-7.44,11.65-3.71,10.49-.74,23.27,7.22,31.1,3.07,3.03,8,6.05,15.46,6.05,2.81,0,5.99-.43,9.57-1.46,2.11-.36,3.85-1.1,5.28-1.7,2.29-.98,2.71-1.06,3.23-.88,10.61,5,20.73,5.1,30.44.1,8.83-5.48,13.04-15.78,11.27-27.43Z"/>
            <path class="cls-6" d="M327.35,420.09c-1.27-9.74-10.64-17.21-18.84-19.34-3.53-1.08-7.32-1.6-11.13-1.6-9.92,0-20.02,3.48-26.32,9.53-1.88,2.17-4.1,4.83-4.94,7.48-.02.07-.04.13-.07.2-2.29,6.41-.33,14.89,4.56,19.7,3.17,3.11,8.06,3.72,14.6,1.78.25-.07.51-.13.78-.17.89-.13,1.85-.53,2.97-1.01,2.67-1.14,6.69-2.83,11.82-.85,7.93,3.73,14.41,3.88,20.73.63,6.81-4.24,6.35-12.88,5.82-16.38Z"/>
          </g>
        </g>
        <g>
          <g class="cls-10">
            <rect class="cls-8" x="239.53" y="123.6" width="112.63" height="182.75" transform="translate(-24.01 392.25) rotate(-65)"/>
            <rect class="cls-9" x="172.31" y="166.42" width="112.63" height="34.41" transform="translate(-34.42 313.22) rotate(-65)"/>
            <rect class="cls-9" x="305.31" y="226.85" width="112.63" height="37.59" transform="translate(-13.83 469.58) rotate(-65)"/>
          </g>
          <path class="cls-1" d="M390.94,224.94c.07-12.49-5.34-22.53-15.6-29.03-.69-.44-1.39-.87-2.1-1.27-.77-.43-1.55-.85-2.34-1.22-11.64-5.67-23.69-4.48-34.15-2.53-5.83,1.33-9.45,2.5-11.74,3.46-1.46-1.46-3.03-2.84-4.74-4.07-.97-.67-6.37-4.22-14.15-5.76-.48-2.23-.98-3.97-1.26-4.88-.01-.05-.23-.79-.25-.84-1.29-3.88-4.26-11.63-9.68-19.89-6.8-10.34-15.02-17.72-24.49-21.96-15.15-6.65-29.01-3.93-42.64,8.55-6.19,6.4-11.53,14.18-15.87,23.1-.54,1.12-4.52,10.56-4.96,11.86-1.56,4.27-6.56,19.27-5.14,33.03.89,10.47,5.87,20.97,13,27.42.12.11.54.44.67.53,7.94,6.03,16.67,9.07,25.99,9.07,1.13,0,2.27-.05,3.42-.13,12.05-.93,21.23-4.61,21.51-4.72,1.18-.45,2.22-.93,3.33-1.4,3.32,4.59,7.6,8.48,12.65,11.05,6.29,3.17,11.23,4.29,15.81,4.29.67,0,1.31-.14,1.97-.18.25.54.51,1.09.92,1.73,9.83,18.52,24.19,24.87,33.25,24.47.58.03,1.17.05,1.76.05,15.78,0,33.72-11.18,44.46-28.18l.53-.88c3.53-5.77,8.87-14.5,9.85-31.66Z"/>
          <path class="cls-2" d="M390.94,224.94c.07-12.49-5.34-22.53-15.6-29.03-.69-.44-1.39-.87-2.1-1.27-.77-.43-1.55-.85-2.34-1.22-11.64-5.67-23.69-4.48-34.15-2.53-5.83,1.33-9.45,2.5-11.74,3.46-1.46-1.46-3.03-2.84-4.74-4.07-.97-.67-6.37-4.22-14.15-5.76-.48-2.23-.98-3.97-1.26-4.88-.01-.05-.23-.79-.25-.84-1.29-3.88-4.26-11.63-9.68-19.89-6.8-10.34-15.02-17.72-24.49-21.96-15.15-6.65-29.01-3.93-42.64,8.55-6.19,6.4-11.53,14.18-15.87,23.1-.54,1.12-4.52,10.56-4.96,11.86-1.56,4.27-6.56,19.27-5.14,33.03.89,10.47,5.87,20.97,13,27.42.12.11.54.44.67.53,7.94,6.03,16.67,9.07,25.99,9.07,1.13,0,2.27-.05,3.42-.13,12.05-.93,21.23-4.61,21.51-4.72,1.18-.45,2.22-.93,3.33-1.4,3.32,4.59,7.6,8.48,12.65,11.05,6.29,3.17,11.23,4.29,15.81,4.29.67,0,1.31-.14,1.97-.18.25.54.51,1.09.92,1.73,9.83,18.52,24.19,24.87,33.25,24.47.58.03,1.17.05,1.76.05,15.78,0,33.72-11.18,44.46-28.18l.53-.88c3.53-5.77,8.87-14.5,9.85-31.66ZM262.41,235.46c-.08.03-8.08,3.2-18.37,4-11.87.91-19.44-4.85-21.88-6.66-5-4.53-8.79-12.66-9.45-20.34-1.18-11.51,3.16-24.52,4.61-28.48.39-1.06,3.95-9.57,4.44-10.59,3.84-7.89,8.52-14.72,13.66-20.06,10.24-9.37,19.41-11.29,30.57-6.38,7.49,3.35,14.15,9.4,19.77,17.96,4.92,7.49,7.54,14.61,8.32,16.9l.28.99c.1.33.23.76.37,1.26-3.12.38-6.39,1.21-9.76,2.67-.86.37-1.62.86-2.44,1.29-1.82-1.99-4.05-3.77-6.3-5.03-6.73-3.79-14.11-3.84-20.25-.13-6.59,4-10.46,11.71-9.86,19.44.23,6.03,2.69,11.16,7.12,14.82,2.87,2.37,6.27,3.78,9.4,4.6,0,.53-.07,1.05-.06,1.58.03,3.82.78,7.6,2.04,11.21-.76.31-1.43.63-2.24.94ZM264.12,210.77c-1.43-.51-2.96-1.24-4.22-2.39-1.79-1.63-2.7-3.75-2.82-6.7-.29-3.87,1.51-7.58,4.61-9.47,2.17-1.32,4.47-1.53,7.04-.66,2.02.68,3.67,1.86,4.9,2.98-4.48,4.46-7.75,9.99-9.5,16.23ZM306.89,247.16c-7.63,2.01-11.53,2.43-19.54-1.62-8.18-4.17-13.72-13.13-13.78-22.46-.43-11.82,5.62-21.89,15.78-26.29,3.44-1.49,6.75-2.05,9.77-2.05,8.05,0,14.03,3.93,14.85,4.49,9.03,6.49,13.34,17.88,10.69,28.51-2.49,11.49-10.8,17.57-17.75,19.43ZM371.63,251.1l-.6,1.01c-8.69,13.74-23.71,23.26-36.56,22.57-6.52.09-15.93-5.15-23.02-17.53,4.14-1.36,8.46-3.71,12.35-7.14,1.96,1.41,4.3,2.61,7,3.2,1.02.22,2.2.38,3.49.38,3.21,0,7.18-.98,11.47-4.38,4.81-4.81,6.43-10.35,4.84-17.49-2.81-8.54-9.53-11.12-14.31-12.03-.27-5.63-1.81-11.14-4.48-16.14,2.05-.65,4.64-1.36,7.15-1.93,8.49-1.57,18.35-2.62,27.19,1.67.59.28,1.14.58,1.7.89.53.3,1.04.61,1.59.96,7.15,4.53,10.61,10.99,10.57,19.46-.82,14.14-4.94,20.88-8.38,26.5ZM335.17,230.67c2.53.61,4.13,1.69,4.89,3.93.65,2.96.13,4.69-1.56,6.43-1.71,1.35-3.44,1.83-5.18,1.51-.94-.17-1.76-.57-2.49-1,1.88-3.16,3.39-6.77,4.33-10.89Z"/>
        </g>
      </g>
    </g>
    <g>
      <path class="cls-1" d="M151.84,74.48l-17.55-9.66,12.52-15.63c.45-.56.56-1.33.28-1.99-.28-.67-.89-1.13-1.61-1.21l-19.91-2.21,5.58-19.24c.2-.69,0-1.44-.5-1.95-.51-.51-1.26-.7-1.95-.5l-19.24,5.58-2.21-19.91c-.08-.72-.54-1.33-1.21-1.61-.67-.28-1.43-.17-1.99.28l-12.57,10.06L78.88.88c-.45-.56-1.12-.88-1.84-.88-.72,0-1.39.32-1.84.88,0,0-9.22,11.42-12.62,15.62l-12.57-10.06c-.56-.45-1.33-.56-1.99-.28-.67.28-1.13.89-1.21,1.61l-2.21,19.91-19.23-5.58c-.69-.2-1.44,0-1.95.5-.51.51-.7,1.26-.5,1.95l5.58,19.24-19.91,2.2c-.72.08-1.33.54-1.61,1.21-.28.67-.17,1.43.28,1.99l12.52,15.64-17.55,9.65c-.63.35-1.02,1.01-1.02,1.73s.39,1.38,1.02,1.73l17.55,9.66-12.52,15.63c-.45.56-.56,1.33-.28,1.99.28.67.89,1.13,1.61,1.21l19.91,2.21-5.58,19.24c-.2.69,0,1.44.5,1.95.51.51,1.26.7,1.95.5l19.24-5.58,2.21,19.91c.08.72.54,1.33,1.21,1.61.67.28,1.43.17,1.99-.28l12.56-10.06,12.62,15.62c.45.56,1.12.88,1.84.88s1.39-.32,1.84-.88c0,0,9.22-11.42,12.62-15.63l12.56,10.06c.56.45,1.33.56,1.99.28.67-.28,1.13-.89,1.21-1.61l2.21-19.91,19.23,5.58c.69.2,1.44,0,1.95-.5.51-.51.7-1.26.5-1.95l-5.58-19.24,19.91-2.2c.72-.08,1.33-.54,1.61-1.21.28-.67.17-1.43-.28-1.99l-12.52-15.64,17.55-9.65c.63-.35,1.02-1.01,1.02-1.73s-.39-1.38-1.02-1.73Z"/>
      <g>
        <g>
          <g>
            <polygon class="cls-5" points="110.31 109.48 129.25 128.43 123.02 106.93 111.32 108.23 110.31 109.48"/>
            <polygon class="cls-5" points="45.09 41.31 46.32 30.23 24.82 23.99 43.77 42.94 45.09 41.31"/>
            <path class="cls-5" d="M136.98,75.97c.06.07.09.16.09.24h13.81s-19.61-10.79-19.61-10.79l-1.4,1.75,7.11,8.8Z"/>
            <path class="cls-5" d="M17.09,75.97l7.11-8.8-1.4-1.75-19.61,10.79h13.81c0-.08.03-.17.09-.24Z"/>
            <polygon class="cls-5" points="43.76 109.48 24.82 128.43 46.31 122.19 45.09 111.12 43.76 109.48"/>
            <polygon class="cls-5" points="111.32 44.19 123.02 45.49 129.26 23.99 110.31 42.94 111.32 44.19"/>
          </g>
          <g>
            <polygon class="cls-8" points="108.99 111.12 107.76 122.19 129.25 128.43 110.31 109.48 108.99 111.12"/>
            <polygon class="cls-8" points="43.77 42.94 24.82 23.99 31.06 45.48 42.76 44.19 43.77 42.94"/>
            <path class="cls-8" d="M136.98,76.46l-7.1,8.8,1.4,1.75,19.61-10.79h-13.81c0,.09-.03.17-.09.25Z"/>
            <path class="cls-8" d="M17.09,76.45c-.06-.07-.09-.16-.09-.25H3.19s19.61,10.79,19.61,10.79l1.4-1.74-7.1-8.8Z"/>
            <polygon class="cls-8" points="110.31 42.94 129.26 23.99 107.76 30.23 108.99 41.31 110.31 42.94"/>
            <polygon class="cls-8" points="42.75 108.23 31.06 106.93 24.82 128.43 43.76 109.48 42.75 108.23"/>
          </g>
          <g>
            <polygon class="cls-9" points="108.99 41.31 107.76 30.23 105.3 7.98 97.43 26.99 108.99 41.31"/>
            <polygon class="cls-9" points="48.78 144.43 62.88 133.15 56.65 125.43 48.78 144.43"/>
            <polygon class="cls-9" points="91.19 133.15 105.3 144.43 97.43 125.43 91.19 133.15"/>
            <polygon class="cls-9" points="56.65 26.99 48.78 7.98 46.32 30.23 45.09 41.31 56.65 26.99"/>
            <polygon class="cls-9" points="122.1 94.88 111.32 108.23 123.02 106.93 145.26 104.47 122.1 94.88"/>
            <polygon class="cls-9" points="31.98 57.54 8.81 47.95 22.8 65.42 24.2 67.17 31.98 57.54"/>
            <polygon class="cls-9" points="24.2 85.25 22.8 86.99 8.81 104.46 31.97 94.87 24.2 85.25"/>
            <polygon class="cls-9" points="122.1 57.54 145.26 47.95 123.02 45.49 111.32 44.19 122.1 57.54"/>
          </g>
          <g>
            <polygon class="cls-7" points="45.09 111.12 46.31 122.19 48.78 144.43 56.65 125.43 45.09 111.12"/>
            <polygon class="cls-7" points="105.3 7.98 91.19 19.27 97.43 26.99 105.3 7.98"/>
            <polygon class="cls-7" points="62.88 19.27 48.78 7.98 56.65 26.99 62.88 19.27"/>
            <polygon class="cls-7" points="97.43 125.43 105.3 144.43 107.76 122.19 108.99 111.12 97.43 125.43"/>
            <polygon class="cls-7" points="42.76 44.19 31.06 45.48 8.81 47.95 31.98 57.54 42.76 44.19"/>
            <polygon class="cls-7" points="122.1 94.88 145.26 104.47 131.28 87 129.88 85.25 122.1 94.88"/>
            <polygon class="cls-7" points="129.88 67.17 131.28 65.42 145.26 47.95 122.1 57.54 129.88 67.17"/>
            <polygon class="cls-7" points="31.97 94.87 8.81 104.46 31.06 106.93 42.75 108.23 31.97 94.87"/>
          </g>
        </g>
        <g>
          <g>
            <path class="cls-4" d="M136.98,75.97L77.34,2.12c-.07-.09-.18-.14-.3-.14s-.23.05-.3.14L17.09,75.97c-.11.14-.11.34,0,.49l59.64,73.85c.07.09.18.14.3.14s.23-.05.3-.14l59.65-73.85c.11-.14.11-.34,0-.49Z"/>
            <g>
              <g>
                <polygon class="cls-5" points="67.73 120.01 67.73 120.01 49.35 97.25 49.34 97.25 41.62 87.68 32.5 76.38 18.03 76.38 76.87 149.24 76.87 131.33 67.73 120.01"/>
                <polygon class="cls-5" points="104.72 55.17 104.73 55.18 112.46 64.75 112.46 64.75 121.58 76.04 136.05 76.04 77.21 3.19 77.21 21.1 104.72 55.17"/>
              </g>
              <g>
                <polygon class="cls-8" points="67.73 32.42 67.73 32.42 76.87 21.1 76.87 3.19 18.03 76.04 32.49 76.04 67.73 32.42"/>
                <polygon class="cls-8" points="77.21 131.32 77.21 149.23 136.05 76.38 121.58 76.38 77.21 131.32"/>
              </g>
              <g>
                <g>
                  <polygon class="cls-6" points="72.61 38.67 67.86 32.79 51.15 53.49 55.89 59.37 72.61 38.67"/>
                  <polygon class="cls-6" points="49.7 97.14 67.86 119.63 72.61 113.75 54.44 91.26 49.7 97.14"/>
                  <path class="cls-6" d="M42.4,76.35c-.06-.08-.06-.19,0-.27l4.1-5.08-4.75-5.88-8.96,11.09,8.96,11.09,4.75-5.88-4.1-5.08Z"/>
                </g>
                <g>
                  <polygon class="cls-6" points="81.46 38.67 86.21 32.79 102.93 53.49 98.18 59.37 81.46 38.67"/>
                  <polygon class="cls-6" points="104.38 97.14 86.21 119.63 81.47 113.75 99.63 91.26 104.38 97.14"/>
                  <path class="cls-6" d="M111.68,76.35c.06-.08.06-.19,0-.27l-4.1-5.08,4.75-5.88,8.96,11.09-8.96,11.09-4.75-5.88,4.1-5.08Z"/>
                </g>
              </g>
              <g>
                <path class="cls-9" d="M77.2,119.03s-.1.08-.17.08-.13-.03-.17-.08l-4.04-5.01-4.75,5.88,8.96,11.09,8.96-11.09-4.75-5.88-4.04,5.01Z"/>
                <path class="cls-9" d="M76.87,33.39c.04-.05.1-.08.17-.08s.13.03.17.08l4.04,5.01,4.75-5.88-8.96-11.09-8.96,11.09,4.75,5.88,4.04-5.01Z"/>
                <polygon class="cls-9" points="41.97 64.85 46.72 70.73 55.67 59.64 50.93 53.76 41.97 64.85"/>
                <polygon class="cls-9" points="41.97 87.57 49.48 96.87 54.22 90.99 46.72 81.69 41.97 87.57"/>
                <polygon class="cls-9" points="111.24 76.21 77.04 33.87 42.84 76.21 77.04 118.56 111.24 76.21"/>
                <polygon class="cls-9" points="112.1 64.85 107.36 70.73 98.4 59.64 103.15 53.76 112.1 64.85"/>
                <polygon class="cls-9" points="112.1 87.57 104.6 96.87 99.85 90.99 107.36 81.69 112.1 87.57"/>
                <polygon class="cls-9" points="42.84 76.21 77.04 33.87 111.24 76.21 77.04 118.56 42.84 76.21"/>
              </g>
            </g>
          </g>
          <g>
            <g>
              <path class="cls-4" d="M39.21,63.04c.2.3.39.49.55.42.04.01.09.08.08.14-.07.08-.15.25-.24.43-.29.6-.67,1.27-1.02,1.7-.73.91-1.6,1.49-2.5,1.4-.71-.07-1.38-.58-1.87-1.29-.49-.72-.82-1.68-.81-2.71,0-1.18.4-2.38,1.24-3.43.28-.36.64-.68.89-.88.17-.13.37-.32.44-.41.18.25.52.63,1.01,1.27.03.12-.1.3-.18.26-.7-.66-1.41-.54-2.01.22-1.06,1.34-.84,3.07.15,4.53.47.69,1.08,1.29,1.78,1.43.7.14,1.31-.29,1.66-.74.29-.36.42-.65.4-.87-.02-.12-.1-.3-.31-.61l-.21-.31c-.41-.61-.45-.65-.92-.24l-.25.22c-.08,0-.18-.15-.16-.26.25-.28.54-.64.96-1.16.27-.35.47-.61.72-.95.09-.04.2.1.18.23l-.09.16c-.19.33-.18.45.18.97l.34.5Z"/>
              <path class="cls-4" d="M40.86,60.33c.62.91.69.86,1.01.56l.15-.14c.08,0,.18.17.16.26-.28.32-.56.65-.82.99-.26.33-.54.7-.8,1.05-.07.03-.18-.12-.18-.23l.12-.19c.25-.41.29-.5-.33-1.41l-2.17-3.19c-.62-.91-.69-.87-1.01-.56l-.15.14c-.08,0-.18-.17-.16-.26.28-.32.56-.65.83-1,.27-.33.53-.68.79-1.03.07-.03.18.12.18.23l-.12.19c-.25.41-.29.5.33,1.41l2.17,3.19Z"/>
              <path class="cls-4" d="M40.18,55.37c-.56-.82-.64-.92-.95-.6l-.18.17c-.08,0-.18-.14-.16-.25.35-.53.84-1.2,1.34-1.83.47-.59.94-1.02,1.35-1.15.46-.16.96-.03,1.38.58.54.79.38,1.72.2,2.27-.02.07.04.12.1.15,1.27.55,2.07.9,2.58.88.31,0,.52-.18.6-.26.05,0,.12.09.13.16-.06.12-.15.29-.37.55-.58.73-1.12.79-2.03.45-.41-.16-.9-.41-1.27-.57-.28-.12-.37-.07-.57.18-.18.23-.18.24-.06.42l.75,1.1c.62.91.69.87,1.01.56l.15-.14c.08,0,.18.17.16.26-.28.32-.56.65-.82.99-.27.34-.53.68-.8,1.05-.07.03-.19-.11-.18-.23l.12-.19c.25-.41.29-.5-.33-1.41l-2.13-3.14ZM41.72,55.72c.19.27.2.29.49-.07.59-.74.59-1.5.03-2.31-.46-.68-1.17-.88-1.7-.22-.31.4-.3.43-.03.82l1.21,1.78Z"/>
              <path class="cls-4" d="M46.66,51.45c-.16.2-.15.19-.05.49l.45,1.34c.22.66.26.64.52.41l.2-.18c.08,0,.18.17.16.26-.2.23-.41.48-.66.78-.2.25-.38.49-.58.78-.07.01-.17-.11-.18-.24l.15-.27c.15-.26.17-.41.06-.81-.08-.31-.23-.8-.41-1.42l-1.25-4.09c-.11-.37-.19-.65-.31-.77.17-.33.13-.93.14-.94.05-.06.1-.07.15-.06.36.26.71.57,1.07.83l3.32,2.5c.53.4.59.41.96.11l.11-.09c.09,0,.19.15.17.24-.26.3-.49.57-.8.96-.26.33-.52.68-.72.95-.08.02-.19-.13-.19-.23l.11-.19c.19-.32.19-.41-.15-.65l-1.07-.81c-.21-.16-.24-.13-.41.08l-.81,1.01ZM47.12,50.15c.17-.21.18-.26,0-.41l-.95-.71c-.42-.32-.56-.44-.63-.47v.02c0,.09.1.37.27.91l.43,1.32c.11.33.12.31.27.13l.63-.79Z"/>
              <path class="cls-4" d="M51.38,45.47c.28,1.09.69,2.44.88,3.01,0,.04-.03.12-.08.17-.04.05-.1.09-.15.1-.31-.25-.69-.55-1.04-.77l-3.51-2.28c-.56-.36-.7-.41-.99-.18l-.17.14c-.08,0-.19-.16-.15-.26.25-.28.51-.6.75-.89.27-.34.47-.61.78-1.03.09-.02.19.11.17.24l-.12.24c-.1.21-.12.32-.08.38.05.08.23.2,1.07.77l1.47.98c.37.25.88.55,1.07.67-.41-1.49-.85-3.13-1.32-4.7-.14-.47-.2-.51-.42-.34l-.21.16c-.09-.01-.18-.16-.16-.26.26-.29.47-.54.67-.79.22-.27.41-.53.57-.76.08-.02.16.13.18.23l-.12.23c-.11.22-.2.45-.14.82.11.62.33,1.41.64,2.63l.38,1.49Z"/>
              <path class="cls-4" d="M53.45,42.93c-.16.2-.15.19-.05.49l.45,1.34c.22.66.26.64.52.41l.2-.18c.08,0,.18.17.16.26-.2.23-.41.48-.66.78-.2.25-.38.49-.58.78-.07.01-.17-.11-.18-.24l.15-.27c.15-.26.16-.41.07-.81-.08-.31-.23-.8-.42-1.42l-1.25-4.09c-.11-.37-.19-.65-.31-.77.17-.33.13-.93.14-.94.05-.06.1-.07.15-.06.36.26.71.57,1.07.83l3.32,2.5c.53.4.59.41.96.11l.11-.09c.09,0,.19.15.17.24-.26.29-.49.57-.8.96-.26.33-.51.68-.72.95-.08.02-.19-.13-.19-.23l.12-.19c.19-.32.18-.41-.15-.65l-1.08-.81c-.21-.16-.24-.13-.41.08l-.8,1.01ZM53.91,41.63c.17-.21.18-.26,0-.41l-.96-.71c-.42-.32-.56-.44-.63-.46h-.01c.02.1.11.39.28.92l.43,1.32c.11.32.12.31.27.13l.63-.79Z"/>
              <path class="cls-4" d="M60.65,35.08c.18.26.89,1.31,1.04,1.49.02.15-.04.29-.12.38-.22-.06-.59-.13-1.51-.29l-2.97-.51c-.82-.15-1.24-.22-1.42-.22-.02.02.05.12.36.57l1.14,1.67c.44.64.98,1.42,1.26,1.55.14.06.28,0,.45-.17l.15-.14c.1,0,.2.16.16.26-.24.26-.48.55-.71.84-.26.32-.41.53-.61.82-.08.02-.19-.11-.18-.23l.1-.21c.09-.18.18-.34.13-.53-.1-.37-.61-1.11-1.07-1.79l-1.38-2.03c-.46-.67-.54-.81-.92-.8-.12,0-.33.15-.44.23l-.11.09c-.08,0-.19-.18-.15-.28.25-.25.58-.68.73-.87.13-.16.27-.35.4-.55.35.24,1.75.49,2.18.55l1.24.17c.52.08,1.7.28,1.8.25,0-.05-.03-.09-.12-.23l-1.14-1.67c-.44-.64-.98-1.42-1.27-1.54-.14-.06-.28,0-.45.17l-.16.15c-.1,0-.2-.16-.16-.26.25-.28.48-.55.71-.85.26-.33.41-.53.62-.83.08-.02.19.11.18.23l-.11.22c-.09.18-.18.34-.13.53.1.37.61,1.12,1.07,1.8l1.39,2.05Z"/>
              <path class="cls-4" d="M61.28,26.5c.41-.51.58-.75.66-.89.05-.04.11,0,.15.07-.01.38.18,1.89.33,3.02l.44,3.32c.05.33.21,1.63.28,1.73.06.09.17.01.28-.11.13-.14.27-.31.71-.86.56-.7.83-1.12.91-1.51.07-.36.01-.84-.18-1.46.02-.12.16-.24.24-.17.33.63.62,1.43.67,1.77-.35.4-.71.84-1.14,1.38l-1.57,1.97c-.33.42-.52.67-.62.82-.04.02-.1-.02-.12-.08-.02-.28-.09-1.3-.22-2.19l-.6-4.52c-.12-.83-.2-1.42-.25-1.5-.04-.06-.13.05-.25.2l-.73.92c-.46.58-.69,1.01-.7,1.42,0,.32.08.71.17,1-.02.14-.15.24-.24.18-.25-.61-.46-1.21-.72-1.77,0-.07.06-.13.1-.13.18.15.3.02.78-.58l1.6-2.01Z"/>
            </g>
            <g>
              <path class="cls-4" d="M85.1,129.26c.16.21.27.34.37.22.12-.15.14-.51.14-1.06l.02-1.67c0-.2,0-.69-.01-.91-.02-.32-.06-.39-.15-.32l-.25.18c-.09,0-.16-.12-.15-.24.28-.32.5-.57.74-.86.28-.34.46-.6.69-.9.09-.06.23.08.19.2-.52.84-.56,1.24-.61,2.31-.03.68-.05,1.32-.07,1.93,0,.19.01.25.17.28,1.11.19,2.41.37,3.36.46.28.03.48-.08.69-.29l.17-.17c.07-.02.19.16.16.24-.24.26-.5.57-.84.99-.31.39-.6.75-.87,1.11-.09.06-.21-.1-.18-.21l.15-.25c.09-.14.04-.25-.11-.27-.57-.08-2.28-.4-2.73-.41-.09,0-.18,0-.24.07-.16.2,0,.37.16.6l.74.99c.61.83.69.78,1.03.46l.18-.17c.07-.01.18.15.16.24-.32.36-.61.71-.89,1.05-.29.35-.58.73-.8,1.03-.08.03-.2-.12-.18-.21l.08-.13c.26-.43.3-.52-.31-1.35l-2.15-2.91c-.62-.83-.69-.78-1.03-.46l-.14.13c-.09,0-.18-.15-.15-.24.27-.31.57-.66.86-1.02.28-.35.57-.71.8-1.04.08-.03.2.12.18.21l-.09.16c-.26.43-.3.51.31,1.34l.64.87Z"/>
              <path class="cls-4" d="M91.11,125.77c.61.83.69.78,1.02.45l.16-.15c.08,0,.18.15.16.24-.29.33-.59.68-.87,1.03-.28.35-.58.73-.85,1.09-.07.03-.19-.1-.18-.21l.12-.2c.27-.42.31-.51-.31-1.34l-2.16-2.91c-.62-.83-.69-.78-1.03-.46l-.16.15c-.09,0-.18-.15-.16-.24.3-.33.59-.68.88-1.04.28-.35.57-.71.84-1.08.07-.03.18.1.18.21l-.13.2c-.27.42-.31.51.31,1.34l2.16,2.92Z"/>
              <path class="cls-4" d="M91.04,119.38c-.24-.33-.26-.33-.43-.13l-.36.45c-.59.73-.7,1.03-.47,1.96-.01.1-.16.24-.25.2-.2-.56-.47-1.16-.62-1.49,0-.04.01-.08.05-.12.03-.03.06-.05.09-.05.18.16.27.05.71-.48l2.62-3.23c.31-.39.39-.53.34-.81.02-.05.03-.09.05-.13.04-.05.08-.07.11-.06.17.4.62,1.14.83,1.36.02.11-.08.26-.18.27-.53-.51-.77-.51-1.45.34l-.37.45c-.17.21-.16.23.08.56l2.5,3.38c.61.83.69.78,1.02.45l.25-.25c.09,0,.18.15.15.24-.38.44-.68.79-.96,1.14-.28.35-.58.73-.98,1.25-.07.03-.2-.12-.18-.21l.24-.37c.27-.42.32-.5-.3-1.33l-2.5-3.39Z"/>
              <path class="cls-4" d="M96.43,117.68c-.17.21-.16.2-.06.48l.43,1.27c.21.62.25.61.53.36l.21-.19c.09,0,.18.15.16.24-.22.24-.43.5-.7.82-.21.26-.4.52-.62.81-.07.02-.17-.09-.17-.22l.16-.28c.16-.27.18-.42.09-.8-.07-.3-.21-.75-.39-1.34l-1.19-3.87c-.11-.34-.18-.61-.3-.72.19-.33.16-.91.17-.93.05-.06.1-.08.16-.07.36.23.72.49,1.08.72l3.35,2.14c.53.34.6.35.99.02l.11-.09c.09,0,.19.12.17.22-.27.31-.52.59-.85,1.01-.28.34-.55.71-.76.99-.08.03-.19-.11-.19-.2l.12-.19c.2-.33.2-.42-.14-.62l-1.09-.69c-.21-.14-.24-.11-.42.11l-.85,1.05ZM96.94,116.38c.18-.22.2-.27,0-.39l-.97-.61c-.42-.27-.56-.38-.64-.4v.02c0,.09.09.36.25.86l.41,1.25c.11.3.12.29.27.1l.67-.82Z"/>
              <path class="cls-4" d="M99.7,111.26c.16.21.27.34.37.22.12-.15.14-.51.14-1.05l.02-1.67c0-.2,0-.69-.01-.91-.02-.32-.06-.39-.15-.32l-.25.17c-.09,0-.16-.12-.16-.24.28-.32.5-.57.74-.86.28-.34.46-.6.69-.89.09-.06.22.08.19.2-.52.84-.55,1.24-.61,2.31-.03.68-.05,1.32-.07,1.93,0,.19.01.25.17.28,1.11.19,2.41.37,3.36.46.28.03.48-.08.69-.29l.17-.16c.07-.02.19.15.16.24-.24.26-.5.57-.84.99-.32.39-.6.75-.87,1.11-.09.06-.21-.1-.18-.21l.15-.24c.09-.14.04-.24-.11-.26-.57-.08-2.27-.4-2.73-.41-.09,0-.18,0-.24.07-.16.2,0,.37.16.59l.74.99c.61.83.69.78,1.03.46l.18-.18c.07-.02.18.15.15.24-.31.36-.61.7-.89,1.05-.28.35-.58.73-.8,1.03-.08.03-.2-.11-.18-.21l.08-.13c.26-.43.3-.52-.31-1.35l-2.16-2.91c-.62-.83-.68-.78-1.03-.46l-.14.13c-.08,0-.18-.15-.15-.24.27-.31.57-.66.86-1.02.28-.35.56-.71.8-1.04.07-.03.2.12.18.21l-.09.16c-.26.44-.31.52.31,1.35l.65.87Z"/>
              <path class="cls-4" d="M105.47,107.16c-.32-.44-.44-.52-.92-.72l-2.15-.91c-.39-.16-.51-.18-.85.09l-.2.16c-.08,0-.18-.17-.14-.26.29-.32.56-.65.83-.97.28-.35.67-.84.8-1.04.08-.03.19.09.18.21l-.17.28c-.09.15-.11.2-.06.27.05.06.13.13.42.26.75.37,1.46.71,2.14.96-.18-.92-.34-1.76-.53-2.66-.09-.4-.15-.65-.22-.74-.06-.08-.13-.03-.24.06l-.23.18c-.09,0-.18-.13-.15-.25.29-.33.5-.57.69-.81.2-.24.4-.51.59-.77.09-.03.18.09.18.21l-.15.28c-.24.43-.21.66-.04,1.76.11.72.24,1.39.36,2.07.11.65.18.86.58,1.4l.35.47c.61.83.69.78,1.03.43l.27-.27c.09,0,.18.15.16.24-.41.48-.71.82-.99,1.17-.3.37-.58.73-.92,1.17-.07.03-.18-.11-.18-.21l.18-.29c.27-.42.31-.51-.3-1.33l-.34-.46Z"/>
              <path class="cls-4" d="M106.74,100.91c-.62-.83-.69-.77-1.03-.47l-.13.11c-.09,0-.17-.14-.15-.23.27-.3.56-.65.84-1,.29-.36.57-.72.84-1.08.07-.03.18.09.18.2l-.12.2c-.27.42-.3.52.31,1.35l1.33,1.79c.8,1.08,1.74,1.66,2.64.56.84-1.04.61-2.24-.27-3.43l-.72-.98c-.44-.59-.98-1.31-1.26-1.39-.15-.05-.29.03-.47.19l-.15.14c-.1.01-.2-.13-.15-.24.23-.26.48-.55.73-.86.27-.33.44-.55.67-.86.08-.02.19.09.18.21l-.11.21c-.1.18-.19.35-.14.53.08.35.59,1.04,1.05,1.66l.69.93c.53.71.92,1.48.91,2.33,0,.85-.38,1.59-.82,2.14-.6.74-1.14,1.11-1.69,1.13-.54.02-1.08-.36-1.66-1.16l-1.47-1.99Z"/>
              <path class="cls-4" d="M113.8,99.54c-.24-.02-.72-.46-1.07-.95-.02-.12.09-.27.18-.28.41.26,1.38.67,2.01-.11.49-.6.5-1.3.14-1.78-.33-.45-.77-.59-1.5-.33l-.41.15c-.73.26-1.5.31-2.02-.39-.57-.78-.59-2.02.35-3.18.33-.41.65-.62,1-.92.2.08.64.52.92.89.02.11-.09.26-.19.27-.4-.29-1.01-.54-1.56.14-.51.63-.42,1.3-.12,1.72.24.33.69.45,1.32.2l.59-.23c.62-.25,1.44-.33,2.02.46.66.89.57,2.22-.36,3.36-.59.73-1.1.91-1.3.97"/>
              <path class="cls-4" d="M116.51,91.79c-.33.4-.33.44-.18.66l.85,1.15c.61.83.68.77,1.02.45l.22-.21c.09,0,.18.15.15.24-.35.4-.64.75-.92,1.09-.28.35-.57.71-.8,1.03-.07.03-.18-.1-.18-.21l.08-.13c.26-.43.3-.52-.31-1.35l-2.15-2.91c-.62-.83-.69-.78-1.03-.46l-.16.15c-.07.02-.18-.15-.16-.24.3-.33.6-.7.89-1.05.28-.35.57-.71.8-1.03.07-.03.2.12.18.21l-.09.16c-.26.44-.31.52.31,1.35l.7.95c.16.22.19.21.52-.19l1.5-1.85c.33-.4.34-.44.17-.66l-.7-.95c-.61-.83-.69-.78-1.03-.46l-.16.15c-.07.02-.19-.15-.16-.24.31-.35.6-.7.88-1.05.28-.35.57-.71.81-1.04.07-.03.2.12.18.21l-.1.17c-.26.44-.31.52.3,1.35l2.16,2.91c.61.83.69.78,1.02.46l.16-.15c.09,0,.18.15.15.24-.29.33-.59.68-.87,1.03-.29.36-.58.73-.85,1.09-.07.03-.19-.1-.18-.21l.13-.2c.27-.42.31-.51-.31-1.35l-.85-1.15c-.16-.21-.19-.2-.52.2l-1.5,1.85Z"/>
              <path class="cls-4" d="M119.31,85.4c-.61-.83-.68-.77-1.03-.46l-.13.11c-.08,0-.18-.14-.15-.24.27-.3.56-.65.84-1,.29-.36.57-.72.84-1.09.08-.03.18.09.18.2l-.13.2c-.27.42-.3.52.32,1.35l1.32,1.8c.8,1.08,1.74,1.66,2.64.55.84-1.04.61-2.24-.27-3.43l-.72-.98c-.43-.59-.98-1.31-1.26-1.39-.15-.04-.29.03-.47.19l-.15.14c-.1.02-.2-.13-.15-.24.23-.25.48-.55.73-.85.27-.33.43-.55.66-.86.08-.02.19.08.18.2l-.11.21c-.1.18-.19.36-.15.54.09.34.59,1.04,1.05,1.65l.69.93c.53.71.92,1.48.91,2.33,0,.85-.38,1.59-.82,2.14-.6.74-1.14,1.11-1.69,1.13-.54.02-1.08-.36-1.67-1.16l-1.47-1.99Z"/>
            </g>
          </g>
          <g>
            <g>
              <polygon class="cls-8" points="77.04 42.57 49.87 76.21 77.04 109.85 104.21 76.21 77.04 42.57"/>
              <g>
                <g>
                  <g>
                    <rect class="cls-8" x="49.43" y="80.52" width="2.67" height="2.67"/>
                    <rect class="cls-8" x="54.64" y="86.94" width="2.67" height="2.67"/>
                    <rect class="cls-8" x="59.85" y="93.36" width="2.67" height="2.67"/>
                    <rect class="cls-8" x="65.07" y="99.78" width="2.67" height="2.67"/>
                    <rect class="cls-8" x="70.28" y="106.2" width="2.67" height="2.67"/>
                  </g>
                  <g>
                    <rect class="cls-8" x="101.97" y="80.52" width="2.67" height="2.67"/>
                    <rect class="cls-8" x="96.76" y="86.94" width="2.67" height="2.67"/>
                    <rect class="cls-8" x="91.55" y="93.36" width="2.67" height="2.67"/>
                    <rect class="cls-8" x="86.34" y="99.78" width="2.67" height="2.67"/>
                    <rect class="cls-8" x="81.12" y="106.2" width="2.67" height="2.67"/>
                  </g>
                  <polygon class="cls-8" points="77.04 111.37 78.91 113.69 77.04 116 75.17 113.69 77.04 111.37"/>
                </g>
                <g>
                  <g>
                    <rect class="cls-8" x="49.43" y="69.23" width="2.67" height="2.67"/>
                    <rect class="cls-8" x="54.64" y="62.81" width="2.67" height="2.67"/>
                    <rect class="cls-8" x="59.85" y="56.39" width="2.67" height="2.67"/>
                    <rect class="cls-8" x="65.07" y="49.97" width="2.67" height="2.67"/>
                    <rect class="cls-8" x="70.28" y="43.55" width="2.67" height="2.67"/>
                  </g>
                  <g>
                    <rect class="cls-8" x="101.97" y="69.23" width="2.67" height="2.67"/>
                    <rect class="cls-8" x="96.76" y="62.81" width="2.67" height="2.67"/>
                    <rect class="cls-8" x="91.55" y="56.39" width="2.67" height="2.67"/>
                    <rect class="cls-8" x="86.34" y="49.97" width="2.67" height="2.67"/>
                    <rect class="cls-8" x="81.12" y="43.55" width="2.67" height="2.67"/>
                  </g>
                  <polygon class="cls-8" points="77.04 41.05 78.91 38.73 77.04 36.42 75.17 38.73 77.04 41.05"/>
                  <polygon class="cls-8" points="107.61 78.53 109.48 76.21 107.61 73.9 105.74 76.21 107.61 78.53"/>
                  <polygon class="cls-8" points="46.47 78.53 44.6 76.21 46.47 73.9 48.34 76.21 46.47 78.53"/>
                </g>
              </g>
            </g>
            <g>
              <polygon class="cls-9" points="61.31 63.71 69.24 62.96 71.77 50.52 76.05 45.14 76.05 93.4 68.86 98.12 61.35 88.88 65.22 84.63 67.24 75.1 56 70.33 61.31 63.71"/>
              <polygon class="cls-9" points="92.76 63.71 84.83 62.96 82.3 50.52 78.03 45.14 78.03 93.4 85.22 98.12 92.72 88.88 88.86 84.63 86.84 75.1 98.08 70.33 92.76 63.71"/>
            </g>
          </g>
        </g>
      </g>
    </g>
  </g>
</svg>