<?xml version="1.0" encoding="UTF-8"?>
<svg id="_レイヤー_2" data-name="レイヤー 2" xmlns="http://www.w3.org/2000/svg" xmlns:xlink="http://www.w3.org/1999/xlink" viewBox="0 0 426.45 445.86">
  <defs>
    <style>
      .cls-1 {
        fill: none;
      }

      .cls-2 {
        fill: #221815;
      }

      .cls-3 {
        fill: #ffe100;
      }

      .cls-4 {
        fill: #fff;
      }

      .cls-5 {
        fill: #a9002e;
      }

      .cls-6 {
        clip-path: url(#clippath);
      }
    </style>
    <clipPath id="clippath">
      <path class="cls-1" d="M390.94,220.88c.07-12.49-5.34-22.53-15.6-29.03-.69-.44-1.39-.87-2.1-1.27-.77-.43-1.55-.85-2.34-1.22-11.64-5.67-23.69-4.48-34.15-2.53-5.83,1.33-9.45,2.5-11.74,3.46-1.46-1.46-3.03-2.84-4.74-4.07-.97-.67-6.37-4.22-14.15-5.76-.48-2.23-.98-3.96-1.26-4.88-.01-.05-.23-.79-.25-.84-1.29-3.88-4.26-11.63-9.68-19.89-6.8-10.34-15.02-17.72-24.49-21.96-15.15-6.65-29.01-3.93-42.64,8.55-6.19,6.4-11.53,14.18-15.87,23.1-.54,1.12-4.52,10.56-4.96,11.86-1.56,4.27-6.56,19.27-5.14,33.03.89,10.47,5.87,20.97,13,27.42.12.11.54.44.67.53,7.94,6.03,16.67,9.07,25.99,9.07,1.13,0,2.27-.05,3.42-.13,12.05-.93,21.23-4.61,21.51-4.72,1.18-.45,2.22-.93,3.33-1.4,3.32,4.59,7.6,8.48,12.65,11.05,6.29,3.17,11.23,4.29,15.81,4.29.67,0,1.31-.14,1.97-.18.25.54.51,1.09.92,1.73,9.83,18.52,24.19,24.87,33.25,24.47.58.03,1.17.05,1.76.05,15.78,0,33.72-11.18,44.46-28.18l.53-.88c3.53-5.77,8.87-14.5,9.85-31.66Z"/>
    </clipPath>
  </defs>
  <g id="_レイヤー_1-2" data-name="レイヤー 1">
    <g>
      <path class="cls-5" d="M426.45,228.34c0,117.76-84.41,196.43-213.22,196.43S0,346.1,0,228.34,95.46,15.12,213.22,15.12s213.22,95.46,213.22,213.23Z"/>
      <g>
        <g>
          <path class="cls-2" d="M419.51,296.9c-1.3-.72-2.84-1.24-3.8-1.44-6.81-1.4-13.64-2.18-20.31-2.33-3.7-.09-7.16,0-10.49.16-1.79-20.11-8.09-39.31-19.27-58.27,1.62-9.72,2.12-22.36,2.53-32.66l.21-5.17c.84-18.75-5.88-43.26-14.38-52.46-2.12-2.29-5.31-4.04-8.13-4.45-21.54-3.21-49.87,5.35-81.73,24.67l-4-.59c-26.18-3.9-58.77-8.75-103.06,1.53-1.4.32-2.95.78-4.54,1.26-2.37.71-6.76,1.98-7.92,1.68-8.49-4.64-30.28-15.71-49.14-18.49-17.53-2.61-29.09.83-34.52,10.31-15.37,28.86-7.65,69.07-4.44,79.46-16,31.01-15.69,63.87-15.6,67.47-.01.84.03,1.72.04,2.58-.84.05-1.6.09-2.48.16-8.93.71-17.8,1.58-28.07,4.44-3.34.92-6.41,3.14-5.81,5.59.47,1.92,2.84,2.35,4.83,2.35,1.54,0,2.85-.25,2.89-.26,10.63-2.16,16.02-2.75,23.47-3.55l3.14-.34c.81-.09,1.61-.13,2.42-.2.81,9.68,2.85,19.99,6.48,30.18-4.44,1.67-9.56,3.89-15.71,7.07-.04.02-3.98,2.08-4.74,4.62-.23.78-.15,1.56.23,2.24.62,1.11,1.92,1.46,3.31,1.46,2.3,0,4.82-.95,4.86-.96,1.84-.81,3.57-1.58,5.21-2.31,3.72-1.66,6.96-3.05,10-4.23,3.93,8.9,9.09,17.53,15.73,25.34-6.84,3.96-15.09,9.33-24.43,16.6-1.94,1.52-3.19,3.45-3.41,5.32-.12,1.04.11,1.99.65,2.67.41.51,1.18.73,2.1.73,1.62,0,3.71-.68,5.14-1.7,10.26-7.27,19.16-12.9,26.15-17.04,7.51,7.31,16.5,13.67,27.22,18.49,35.27,15.84,67.77,19.4,108.95,20l4.04-.06,4.36.06c47.38-.7,84.81-7.46,111.26-20.11,15.35-7.34,27.56-17.24,36.7-29.54,7.64,2.61,16.9,6.62,25.83,12.66,1.14.79,3.45,2.16,5.5,2.16.92,0,1.79-.27,2.47-1.01.29-.3.61-.85.53-1.73-.17-1.87-2.23-4.46-3.56-5.43-9.12-6.66-18.29-10.95-26.01-13.74,5.25-8.67,9.17-18.37,11.72-29.12,5.64.9,12.22,2.35,19.44,4.77.04,0,2.17.71,4.26.71,1.57,0,3.11-.39,3.7-1.78.27-.63.26-1.33-.03-2.02-1.04-2.48-5.39-4.32-5.43-4.33-7.12-2.82-14.12-4.47-20.31-5.49,1.35-8.14,2.01-16.8,1.93-26,.02-1.57-.07-3.12-.1-4.67,2.94-.16,5.97-.26,9.16-.22,4.96.05,10.48.42,15.35.74,1.52.1,2.99.19,4.4.28,3.19.18,7.1-.41,7.57-2.73.17-.81-.11-2.03-2.36-3.29Z"/>
          <path class="cls-4" d="M354.53,235.03c1.76-9.13,2.29-22.42,2.71-33.11l.22-5.23c.76-16.97-5.67-38.25-11.49-44.55-.51-.56-1.4-.99-1.72-1.06-18.78-2.76-45.27,5.51-74.57,23.31-2.08,1.26-3.22,1.95-5.23,1.65l-5.91-.87c-25.25-3.76-56.69-8.45-98.98,1.36-1.2.27-2.52.67-3.88,1.08-5.38,1.6-11.46,3.43-16.3.8-7.98-4.35-28.38-14.75-45.5-17.28-12.59-1.85-20.45-.25-23.34,4.78-10.47,19.65-8.42,46.45-5.73,61.45.72-.85,1.42-1.62,2.07-2.27,2.63-2.63,5.32-3.6,7.16-2.33,1.91,1.32,1.15,4.66-.08,7.33-1.22,2.65-3.69,7.76-5.63,11.18,0,0,0,.01,0,.02-16.85,29.6-16.54,62.53-16.45,66.2,0,.74.03,1.51.04,2.26,9.31.02,14.99,1,17.89,1.74l.21.05c.06.01,7.62,1.41,7.18,5.04-.39,3.23-4.98,2.99-7.2,2.87l-.82-.06c-2.44-.37-8.96-1.24-16.85-1.4.79,8.79,2.71,18.09,6.01,27.25,4.52-1.04,7.71-1.28,9.83-1.4l.29-.02c2.79-.15,9.39-.25,9.73,3.07.3,2.87-4.87,4.24-7.11,4.7-1.04.21-2.16.36-3.41.53-1.75.24-3.74.52-6.09,1.02,3.77,8.24,8.76,16.15,15.14,23.24,6.63-3.21,10.45-4.39,10.53-4.42.06-.03,6.57-1.68,7.84,1.28,1.09,2.56-1.67,3.92-4.33,5.24-.85.42-1.74.86-2.55,1.35,0,0-.09.05-.26.13-1.03.52-2.75,1.4-5.02,2.62,6.17,5.56,13.32,10.43,21.71,14.2,33.54,15.07,64.84,18.46,104.45,19.04l4.04-.06,4.36.06c44.98-.67,81.88-7.25,106.54-19.04,12.36-5.91,22.38-13.54,30.17-22.9-3.71-.86-5.98-1.18-6.04-1.19-1.42-.14-5.85-1.17-7.34-3.19-.44-.61-.61-1.28-.47-1.94.75-3.62,7.32-2.9,10.09-2.43.35.03,3.75.38,9.03,1.65,5.2-7.94,9.03-16.98,11.53-27.11-2.33-.14-4.2-.17-5.48-.17-2.44.01-5.28-.05-5.28-.05-.74-.07-6.59-.76-6.82-3.68-.03-.39.05-1,.6-1.64,1.31-1.53,4.62-2.39,6.03-2.5l.31-.03c.84-.08,3.07-.3,5.31-.32h.61c1.62,0,3.81.05,6.42.22,1.29-7.68,1.93-15.9,1.86-24.75.01-1.24-.06-2.46-.09-3.69-6.85.85-12.47,1.97-16.3,2.74-1.96.39-3.38.68-4.24.78-1.38.2-2.56.3-3.55.3-2.31,0-3.58-.56-4-1.72-.29-.84-.23-1.74.18-2.59.74-1.52,2.53-2.81,5.19-3.72,2.09-.71,10.2-3.2,22.24-4.68-1.72-19.09-7.86-37.28-18.78-55.31-.7-1.16-.95-2.54-.69-3.87Z"/>
        </g>
        <g>
          <path class="cls-2" d="M115.31,316.71c-3.5,7.1-3.52,18.45,1.21,24.48,2.92,3.45,7.8,5.41,14.09,4.33,5.43-.94,8.52-5.9,9.55-9.85,2.23-8.84-.14-19.68-5.23-23.79-5.36-3.91-15.39-3.82-19.61,4.83Z"/>
          <path class="cls-2" d="M285.41,317.75c-3.5,7.1-3.52,18.45,1.21,24.48,2.92,3.45,7.8,5.41,14.09,4.33,5.43-.94,8.52-5.9,9.55-9.85,2.23-8.84-.14-19.68-5.23-23.79-5.36-3.91-15.39-3.82-19.61,4.83Z"/>
          <g>
            <path class="cls-2" d="M230.45,348.46c-1.17-4.16-4.32-7.43-8.44-8.76-7.86-2.55-15.82-1.48-20.77,2.79-5.16,4.56-5.41,12.65-2.19,16.84,2.99,3.88,7.72,5.9,14.48,6.2.31.01.63.02.94.02,5.41,0,10.44-1.98,13.31-5.27v-.02c2.83-3.28,3.82-7.69,2.67-11.81Z"/>
            <path class="cls-3" d="M219.9,346.21c-2.1-.68-4.24-1.01-6.25-1.01-3.19,0-6.05.84-7.91,2.44-2.45,2.17-2.29,6.18-1.26,7.52,1.68,2.18,4.74,3.34,9.35,3.54,4.27.17,7.46-1.38,8.79-2.9,1.34-1.56,1.79-3.55,1.24-5.49-.54-1.94-2.02-3.48-3.96-4.11Z"/>
          </g>
        </g>
      </g>
      <g>
        <g>
          <path class="cls-2" d="M174.31,406.54c-1.48-4.63-4.48-8.3-7.74-11.99-11.57-11.1-31.77-15.56-47.81-10.64-11.58,3.03-24.94,13.2-26.89,28.3-1.79,11.76,2.42,22.06,11.65,27.76,9.31,4.78,19.42,4.67,29.7-.17.87-.33,1.3-.24,3.57.72,1.42.61,3.17,1.34,5.28,1.7,3.57,1.03,6.76,1.46,9.57,1.46,7.46,0,12.38-3.02,15.44-6.04,7.97-7.84,10.94-20.61,7.23-31.1Z"/>
          <path class="cls-4" d="M163.97,410.13c-.03-.07-.05-.13-.07-.2-.84-2.65-3.05-5.31-5.25-7.82-8.41-8.05-24.41-11.47-36.92-7.67-8.41,2.2-17.79,9.67-19.04,19.29-.55,3.62-1.01,12.25,6.19,16.72,5.93,3.02,12.4,2.87,20-.7,1.9-.75,3.63-1.02,5.19-1.02,2.92,0,5.24.98,6.98,1.72,1.12.47,2.08.88,2.97,1.01.27.04.53.09.78.17,6.51,1.94,11.44,1.34,14.59-1.78,4.91-4.82,6.87-13.3,4.58-19.71Z"/>
        </g>
        <g>
          <path class="cls-2" d="M338.19,414.5c-1.98-15.21-15.33-25.39-26.69-28.34-16.27-4.97-36.47-.53-48.34,10.91-2.82,3.2-5.95,7-7.44,11.65-3.71,10.49-.74,23.27,7.22,31.1,3.07,3.03,8,6.05,15.45,6.05,2.81,0,5.99-.43,9.57-1.46,2.11-.36,3.86-1.1,5.28-1.7,2.29-.98,2.71-1.06,3.23-.87,10.61,5,20.73,5.1,30.44.1,8.83-5.48,13.04-15.78,11.27-27.43Z"/>
          <path class="cls-4" d="M327.35,416.03c-1.27-9.74-10.64-17.21-18.84-19.34-3.53-1.08-7.32-1.6-11.13-1.6-9.92,0-20.02,3.48-26.32,9.53-1.88,2.17-4.1,4.83-4.94,7.48-.02.07-.04.13-.07.2-2.29,6.41-.33,14.89,4.56,19.7,3.17,3.11,8.06,3.72,14.6,1.78.25-.07.51-.13.78-.17.89-.13,1.85-.53,2.97-1.01,2.67-1.14,6.69-2.83,11.82-.85,7.93,3.73,14.41,3.88,20.73.63,6.81-4.24,6.35-12.88,5.82-16.38Z"/>
        </g>
      </g>
      <g>
        <g class="cls-6">
          <g>
            <rect class="cls-5" x="221.2" y="113.04" width="132.75" height="190.62" transform="translate(-22.79 380.93) rotate(-65)"/>
            <g>
              <rect class="cls-4" x="206.72" y="108.97" width="20.14" height="132.75" transform="translate(94.42 -75.2) rotate(25)"/>
              <rect class="cls-4" x="243.73" y="126.23" width="20.14" height="132.75" transform="translate(105.17 -89.21) rotate(25)"/>
              <rect class="cls-4" x="280.74" y="143.49" width="20.14" height="132.75" transform="translate(115.93 -103.24) rotate(25)"/>
              <rect class="cls-4" x="317.75" y="160.75" width="20.14" height="132.75" transform="translate(126.68 -117.25) rotate(25)"/>
              <rect class="cls-4" x="354.76" y="178" width="20.14" height="132.75" transform="translate(137.45 -131.28) rotate(25)"/>
            </g>
          </g>
        </g>
        <path class="cls-2" d="M390.94,220.88c.07-12.49-5.34-22.53-15.6-29.03-.69-.44-1.39-.87-2.1-1.27-.77-.43-1.55-.85-2.34-1.22-11.64-5.67-23.69-4.48-34.15-2.53-5.83,1.33-9.45,2.5-11.74,3.46-1.46-1.46-3.03-2.84-4.74-4.07-.97-.67-6.37-4.22-14.15-5.76-.48-2.23-.98-3.96-1.26-4.88-.01-.05-.23-.79-.25-.84-1.29-3.88-4.26-11.63-9.68-19.89-6.8-10.34-15.02-17.72-24.49-21.96-15.15-6.65-29.01-3.93-42.64,8.55-6.19,6.4-11.53,14.18-15.87,23.1-.54,1.12-4.52,10.56-4.96,11.86-1.56,4.27-6.56,19.27-5.14,33.03.89,10.47,5.87,20.97,13,27.42.12.11.54.44.67.53,7.94,6.03,16.67,9.07,25.99,9.07,1.13,0,2.27-.05,3.42-.13,12.05-.93,21.23-4.61,21.51-4.72,1.18-.45,2.22-.93,3.33-1.4,3.32,4.59,7.6,8.48,12.65,11.05,6.29,3.17,11.23,4.29,15.81,4.29.67,0,1.31-.14,1.97-.18.25.54.51,1.09.92,1.73,9.83,18.52,24.19,24.87,33.25,24.47.58.03,1.17.05,1.76.05,15.78,0,33.72-11.18,44.46-28.18l.53-.88c3.53-5.77,8.87-14.5,9.85-31.66ZM262.41,231.4c-.08.03-8.08,3.2-18.37,4-11.87.92-19.44-4.84-21.88-6.66-5-4.53-8.79-12.66-9.45-20.34-1.18-11.51,3.16-24.52,4.61-28.48.39-1.06,3.95-9.57,4.44-10.59,3.84-7.89,8.52-14.72,13.66-20.06,10.24-9.37,19.41-11.29,30.57-6.38,7.49,3.36,14.15,9.4,19.77,17.96,4.92,7.49,7.54,14.61,8.32,16.9l.28.99c.1.33.23.76.37,1.26-3.12.38-6.39,1.21-9.76,2.67-.86.37-1.62.86-2.44,1.29-1.82-1.99-4.05-3.77-6.3-5.03-6.73-3.79-14.11-3.84-20.25-.13-6.59,4-10.46,11.71-9.86,19.44.23,6.03,2.69,11.16,7.12,14.82,2.87,2.37,6.27,3.78,9.4,4.6,0,.53-.07,1.05-.06,1.58.03,3.82.78,7.6,2.04,11.21-.76.31-1.43.63-2.24.94ZM264.12,206.71c-1.43-.51-2.96-1.24-4.22-2.39-1.79-1.63-2.7-3.75-2.82-6.7-.29-3.87,1.51-7.59,4.61-9.47,2.17-1.32,4.47-1.53,7.04-.66,2.02.68,3.67,1.86,4.9,2.98-4.48,4.46-7.75,9.99-9.5,16.23ZM306.89,243.1c-7.63,2.01-11.53,2.43-19.54-1.62-8.18-4.17-13.72-13.13-13.78-22.47-.43-11.82,5.62-21.89,15.78-26.29,3.44-1.49,6.75-2.05,9.77-2.05,8.05,0,14.03,3.92,14.85,4.49,9.03,6.49,13.34,17.88,10.69,28.51-2.49,11.49-10.8,17.57-17.75,19.43ZM371.63,247.04l-.6,1.01c-8.69,13.74-23.71,23.26-36.56,22.57-6.52.09-15.93-5.16-23.02-17.53,4.14-1.36,8.46-3.71,12.35-7.14,1.96,1.41,4.3,2.61,7,3.2,1.02.22,2.2.38,3.49.38,3.21,0,7.18-.98,11.47-4.38,4.81-4.81,6.44-10.35,4.85-17.49-2.82-8.54-9.53-11.12-14.31-12.03-.27-5.63-1.81-11.14-4.48-16.14,2.05-.65,4.64-1.36,7.15-1.93,8.49-1.57,18.35-2.62,27.19,1.67.59.28,1.14.58,1.7.89.53.3,1.04.61,1.59.96,7.15,4.53,10.61,10.99,10.57,19.46-.82,14.14-4.94,20.88-8.38,26.5ZM335.17,226.61c2.53.62,4.13,1.7,4.89,3.94.65,2.96.13,4.69-1.56,6.43-1.71,1.35-3.44,1.83-5.18,1.51-.94-.17-1.76-.57-2.49-1,1.88-3.16,3.39-6.77,4.33-10.89Z"/>
        <path class="cls-1" d="M390.94,220.88c.07-12.49-5.34-22.53-15.6-29.03-.69-.44-1.39-.87-2.1-1.27-.77-.43-1.55-.85-2.34-1.22-11.64-5.67-23.69-4.48-34.15-2.53-5.83,1.33-9.45,2.5-11.74,3.46-1.46-1.46-3.03-2.84-4.74-4.07-.97-.67-6.37-4.22-14.15-5.76-.48-2.23-.98-3.96-1.26-4.88-.01-.05-.23-.79-.25-.84-1.29-3.88-4.26-11.63-9.68-19.89-6.8-10.34-15.02-17.72-24.49-21.96-15.15-6.65-29.01-3.93-42.64,8.55-6.19,6.4-11.53,14.18-15.87,23.1-.54,1.12-4.52,10.56-4.96,11.86-1.56,4.27-6.56,19.27-5.14,33.03.89,10.47,5.87,20.97,13,27.42.12.11.54.44.67.53,7.94,6.03,16.67,9.07,25.99,9.07,1.13,0,2.27-.05,3.42-.13,12.05-.93,21.23-4.61,21.51-4.72,1.18-.45,2.22-.93,3.33-1.4,3.32,4.59,7.6,8.48,12.65,11.05,6.29,3.17,11.23,4.29,15.81,4.29.67,0,1.31-.14,1.97-.18.25.54.51,1.09.92,1.73,9.83,18.52,24.19,24.87,33.25,24.47.58.03,1.17.05,1.76.05,15.78,0,33.72-11.18,44.46-28.18l.53-.88c3.53-5.77,8.87-14.5,9.85-31.66Z"/>
      </g>
    </g>
    <g>
      <path class="cls-4" d="M50.14,8.91s-3.72,1.85-3.72,1.85c-7.67,3.7-16.37,7.9-22.77,10.15l-2.69.94.11,2.85c.08,2.11,2.07,51.97,6.25,67.64,4.42,16.56,13.37,30.11,26.61,40.27,4.69,3.6,12.35,8.59,22.18,11.85,0,0,1.31.43,1.31.43l1.31-.43c9.83-3.26,17.49-8.24,22.18-11.85,13.24-10.17,22.19-23.71,26.61-40.27,4.18-15.67,6.17-65.52,6.25-67.64l.11-2.85-2.69-.94c-6.39-2.24-15.1-6.45-22.77-10.15,0,0-3.71-1.84-3.71-1.84-7.91-3.97-17.77-8.91-27.29-8.91s-19.37,4.94-27.28,8.91Z"/>
      <path d="M50.89,10.42l-3.72,1.85c-7.72,3.73-16.47,7.95-22.96,10.23l-1.51.53.06,1.6c.08,2.11,2.06,51.77,6.2,67.27,4.32,16.19,13.07,29.44,26.01,39.37,4.59,3.52,12.08,8.4,21.68,11.58l.76.25h.01s.78-.25.78-.25c9.61-3.19,17.09-8.06,21.68-11.58,12.93-9.93,21.68-23.18,26.01-39.37,4.14-15.5,6.12-65.16,6.2-67.27l.06-1.6-1.51-.53c-6.48-2.28-15.23-6.5-22.96-10.23l-3.72-1.84c-7.76-3.89-17.42-8.73-26.54-8.73s-18.78,4.84-26.53,8.73ZM49.05,16.17l3.78-1.87c7.35-3.68,16.49-8.27,24.59-8.27s17.24,4.59,24.59,8.27l3.78,1.87c7.61,3.67,15.44,7.44,21.89,9.85-.38,8.68-2.37,51.2-5.99,64.74-4.07,15.24-12.3,27.71-24.46,37.05-4.23,3.25-11.07,7.69-19.82,10.69-8.74-3-15.59-7.45-19.82-10.69-12.16-9.34-20.39-21.8-24.46-37.05-3.62-13.54-5.61-56.06-5.99-64.74,6.45-2.41,14.28-6.18,21.89-9.85Z"/>
      <g>
        <path class="cls-5" d="M66.39,58.42l-3.93,7.18-1.67-7.18h-3.39l3.4,14.48h1.11l7.99-14.48h-3.5Z"/>
        <path class="cls-5" d="M70.52,58.42v3.18h2.13l-1.24,7.9h-2.28v3.18h7.63v-3.18h-2.15l1.24-7.9h2.3v-3.18h-7.63Z"/>
        <path class="cls-5" d="M83.59,58.51c-.61.2-1.17.5-1.67.87-1.07.8-1.75,1.91-1.93,3.13-.04.25-.06.5-.06.73,0,.39.06.76.17,1.09.16.48.45.92.85,1.29.7.66,1.66,1.04,2.5,1.38,1.28.52,1.88.82,1.88,1.37,0,.04,0,.09-.01.13h0c-.12.79-1.27,1.21-2.05,1.21-.49,0-.96-.09-1.48-.29-.46-.17-.97-.43-1.64-.82l-.54-.32-.84,2.86.23.2c.61.54,1.17.91,1.76,1.15.63.26,1.31.39,2.09.39,1.34,0,2.65-.41,3.68-1.15.56-.4,1.02-.88,1.38-1.44.38-.6.63-1.27.74-1.99.03-.22.05-.44.05-.64,0-.39-.06-.75-.18-1.08-.17-.46-.45-.87-.85-1.23-.69-.64-1.64-1.04-2.48-1.4-.6-.25-1.16-.49-1.52-.77-.32-.24-.4-.44-.4-.62,0-.04,0-.08,0-.11.05-.27.25-.53.55-.73.36-.24.85-.38,1.37-.38.43,0,.89.1,1.36.31.41.18.84.43,1.28.75l.44.33,1.43-2.57-.29-.26c-.69-.62-1.25-1.02-1.82-1.28-.65-.3-1.32-.44-2.13-.44-.63,0-1.27.1-1.88.31ZM79.99,62.52s0,0,0,0,0,0,0,0h0ZM88.64,68.33h0s0,0,0,0c0,0,0,0,0,0Z"/>
        <path class="cls-5" d="M94.88,58.51c-.61.2-1.17.5-1.67.87-1.07.8-1.76,1.91-1.94,3.13-.04.25-.06.5-.06.73,0,.39.06.76.17,1.09.16.48.45.92.85,1.29.7.66,1.66,1.04,2.5,1.38,1.28.52,1.88.82,1.88,1.37,0,.04,0,.09-.01.13h0c-.12.79-1.27,1.21-2.05,1.21-.49,0-.96-.09-1.49-.29-.46-.17-.97-.43-1.64-.82l-.54-.32-.84,2.86.23.2c.61.54,1.17.91,1.76,1.15.63.26,1.31.39,2.09.39,1.34,0,2.65-.41,3.68-1.15.56-.4,1.02-.88,1.38-1.44.38-.6.63-1.27.74-1.99.04-.22.05-.44.05-.64,0-.39-.06-.75-.18-1.08-.17-.46-.45-.87-.85-1.23-.69-.64-1.64-1.04-2.48-1.4-.6-.25-1.16-.49-1.52-.77-.32-.24-.39-.44-.39-.62,0-.04,0-.08,0-.11.05-.27.25-.53.55-.73.36-.24.85-.38,1.37-.38.43,0,.89.1,1.36.31.41.18.84.43,1.28.75l.44.33,1.43-2.57-.29-.26c-.69-.62-1.25-1.02-1.82-1.28-.65-.3-1.32-.44-2.13-.44-.63,0-1.27.1-1.88.31ZM91.28,62.52s0,0,0,0h0s0,0,0,0ZM99.93,68.33h0s0,0,0,0c0,0,0,0,0,0Z"/>
        <path class="cls-5" d="M103.63,58.42v2.66l-1.84,11.6h7.99v-3.18h-4.28l.47-3.02h4.59v-3.18h-4.08l.27-1.7h4.52v-3.18h-7.63Z"/>
        <path class="cls-5" d="M114.55,58.42v2.66l-1.84,11.6h7.39v-3.18h-3.68l1.75-11.08h-3.62Z"/>
        <polygon class="cls-5" points="44.99 67.81 32.59 50.1 44.99 78.63 57.4 50.1 44.99 67.81"/>
      </g>
      <g>
        <path d="M39.45,24.73c-2.94,1.35-5.84,2.63-8.56,3.72.19,4.12.53,11.01,1.03,18.81h7.53v-22.54Z"/>
        <path d="M36.64,89.84c.77,2.9,1.72,5.69,2.81,8.38v-16.76h-4.39c.49,3.37,1.02,6.26,1.58,8.38Z"/>
        <path d="M56.54,16.49c-.71.35-1.42.71-2.1,1.05l-3.82,1.89c-1.19.58-2.42,1.17-3.65,1.76v26.08h9.57v-30.78Z"/>
        <path d="M46.97,111.82c2.76,3.8,5.96,7.28,9.57,10.43v-40.8h-9.57v30.37Z"/>
        <path d="M64.06,127.95c2.66,1.73,5.88,3.55,9.57,5.17v-51.67h-9.57v46.5Z"/>
        <path d="M73.64,10.01c-3.11.54-6.37,1.65-9.57,2.99v34.27h9.57V10.01Z"/>
        <path d="M90.73,12.98c-3.21-1.34-6.47-2.44-9.57-2.98v37.27h9.57V12.98Z"/>
        <path d="M81.16,133.15c3.69-1.62,6.91-3.44,9.57-5.16v-46.53h-9.57v51.69Z"/>
        <path d="M107.82,21.17c-1.23-.59-2.44-1.18-3.63-1.75,0,0-3.78-1.87-3.8-1.88-.7-.35-1.42-.71-2.14-1.07v30.8h9.57v-26.1Z"/>
        <path d="M98.25,122.3c3.61-3.15,6.81-6.62,9.57-10.41v-30.44h-9.57v40.85Z"/>
        <path d="M115.34,98.34c1.11-2.72,2.07-5.55,2.86-8.5.57-2.13,1.1-5.01,1.58-8.38h-4.44v16.88Z"/>
        <path d="M123.95,28.46c-2.73-1.1-5.65-2.39-8.61-3.75v22.56h7.58c.5-7.8.84-14.7,1.03-18.81Z"/>
      </g>
    </g>
  </g>
</svg>