<?xml version="1.0" encoding="UTF-8"?>
<svg id="_レイヤー_2" data-name="レイヤー 2" xmlns="http://www.w3.org/2000/svg" xmlns:xlink="http://www.w3.org/1999/xlink" viewBox="0 0 426.45 447.71">
  <defs>
    <style>
      .cls-1 {
        fill: none;
      }

      .cls-2 {
        fill: #221815;
      }

      .cls-3 {
        fill: #ffe100;
      }

      .cls-4 {
        fill: #231815;
      }

      .cls-5 {
        fill: #fff;
      }

      .cls-6 {
        fill: #005731;
      }

      .cls-7 {
        fill: #b81c22;
      }

      .cls-8 {
        fill: #998813;
      }

      .cls-9 {
        clip-path: url(#clippath);
      }
    </style>
    <clipPath id="clippath">
      <path class="cls-1" d="M390.94,222.73c.07-12.49-5.34-22.53-15.6-29.03-.69-.44-1.39-.87-2.1-1.27-.77-.43-1.55-.85-2.34-1.22-11.64-5.67-23.69-4.48-34.15-2.53-5.83,1.33-9.45,2.5-11.74,3.46-1.46-1.46-3.03-2.84-4.74-4.07-.97-.67-6.37-4.22-14.15-5.76-.48-2.23-.98-3.97-1.26-4.88-.01-.05-.23-.79-.25-.84-1.29-3.88-4.26-11.63-9.68-19.89-6.8-10.34-15.02-17.72-24.49-21.96-15.15-6.65-29.01-3.93-42.64,8.55-6.19,6.4-11.53,14.18-15.87,23.1-.54,1.12-4.52,10.56-4.96,11.86-1.56,4.27-6.56,19.27-5.14,33.03.89,10.47,5.87,20.97,13,27.42.12.11.54.44.67.53,7.94,6.03,16.67,9.07,25.99,9.07,1.13,0,2.27-.05,3.42-.13,12.05-.93,21.23-4.61,21.51-4.72,1.18-.45,2.22-.93,3.33-1.4,3.32,4.59,7.6,8.48,12.65,11.05,6.29,3.17,11.23,4.29,15.81,4.29.67,0,1.31-.14,1.97-.18.25.54.51,1.09.92,1.73,9.83,18.52,24.19,24.87,33.25,24.47.58.03,1.17.05,1.76.05,15.78,0,33.72-11.18,44.46-28.18l.53-.88c3.53-5.77,8.87-14.5,9.85-31.66Z"/>
    </clipPath>
  </defs>
  <g id="_レイヤー_1-2" data-name="レイヤー 1">
    <g>
      <path class="cls-7" d="M426.45,230.2c0,117.76-84.41,196.43-213.22,196.43S0,347.96,0,230.2,95.46,16.97,213.22,16.97s213.22,95.46,213.22,213.22Z"/>
      <g>
        <g>
          <g>
            <path class="cls-2" d="M419.52,298.75c-1.3-.72-2.84-1.24-3.8-1.44-6.81-1.4-13.64-2.18-20.31-2.33-3.7-.09-7.16,0-10.49.16-1.79-20.11-8.09-39.31-19.27-58.27,1.62-9.72,2.12-22.36,2.53-32.66l.21-5.17c.84-18.75-5.88-43.26-14.38-52.46-2.12-2.29-5.31-4.04-8.12-4.45-21.54-3.21-49.87,5.35-81.73,24.67l-4-.59c-26.18-3.9-58.77-8.75-103.06,1.53-1.4.32-2.95.78-4.54,1.26-2.37.71-6.76,1.98-7.92,1.68-8.49-4.64-30.28-15.71-49.14-18.49-17.53-2.61-29.09.83-34.52,10.31-15.37,28.86-7.65,69.07-4.44,79.47-16,31.01-15.7,63.87-15.6,67.47-.01.84.03,1.72.04,2.58-.84.06-1.6.09-2.48.16-8.93.71-17.8,1.58-28.07,4.44-3.34.92-6.41,3.14-5.81,5.59.47,1.92,2.84,2.35,4.83,2.35,1.54,0,2.85-.25,2.89-.26,10.63-2.16,16.02-2.75,23.47-3.55l3.14-.34c.81-.09,1.61-.13,2.42-.2.81,9.68,2.85,19.99,6.48,30.18-4.44,1.67-9.56,3.89-15.71,7.07-.04.02-3.98,2.08-4.74,4.62-.23.78-.15,1.56.23,2.24.62,1.11,1.92,1.46,3.31,1.46,2.3,0,4.82-.95,4.86-.96,1.84-.81,3.57-1.58,5.21-2.31,3.72-1.66,6.96-3.05,10-4.23,3.93,8.9,9.09,17.53,15.73,25.34-6.84,3.95-15.09,9.33-24.43,16.6-1.94,1.52-3.19,3.45-3.41,5.32-.12,1.04.11,1.99.65,2.67.41.51,1.18.73,2.1.73,1.62,0,3.71-.68,5.14-1.7,10.26-7.27,19.16-12.89,26.15-17.04,7.51,7.31,16.5,13.67,27.22,18.49,35.27,15.84,67.77,19.4,108.95,20l4.04-.06,4.36.06c47.38-.69,84.81-7.46,111.26-20.11,15.35-7.34,27.56-17.24,36.7-29.54,7.64,2.61,16.9,6.62,25.83,12.66,1.14.79,3.45,2.16,5.5,2.16.92,0,1.79-.27,2.47-1.01.29-.3.61-.85.53-1.73-.17-1.86-2.23-4.46-3.56-5.43-9.12-6.66-18.29-10.95-26.01-13.74,5.25-8.67,9.17-18.37,11.72-29.12,5.64.9,12.22,2.35,19.44,4.77.04,0,2.17.71,4.26.71,1.57,0,3.11-.39,3.7-1.78.27-.63.26-1.33-.03-2.02-1.04-2.48-5.39-4.32-5.43-4.33-7.12-2.82-14.12-4.47-20.31-5.49,1.35-8.14,2.01-16.8,1.93-26,.02-1.57-.07-3.12-.1-4.67,2.94-.16,5.97-.26,9.16-.22,4.96.05,10.48.42,15.35.74,1.52.1,2.99.19,4.4.28,3.19.18,7.1-.41,7.57-2.73.17-.81-.11-2.03-2.36-3.29Z"/>
            <path class="cls-5" d="M354.53,236.89c1.76-9.13,2.29-22.42,2.71-33.11l.22-5.23c.76-16.97-5.67-38.25-11.49-44.55-.51-.56-1.4-.99-1.72-1.06-18.78-2.76-45.27,5.51-74.57,23.31-2.08,1.26-3.22,1.95-5.23,1.65l-5.91-.87c-25.25-3.76-56.69-8.45-98.98,1.36-1.2.27-2.52.67-3.88,1.08-5.38,1.6-11.46,3.43-16.3.79-7.98-4.35-28.38-14.75-45.5-17.28-12.59-1.85-20.45-.25-23.34,4.78-10.47,19.65-8.42,46.45-5.73,61.45.72-.85,1.42-1.62,2.07-2.27,2.63-2.63,5.32-3.6,7.16-2.33,1.91,1.32,1.15,4.66-.08,7.33-1.22,2.65-3.69,7.76-5.63,11.18,0,0,0,.01,0,.02-16.85,29.6-16.54,62.53-16.45,66.2,0,.74.03,1.51.04,2.26,9.31.02,14.99,1,17.89,1.74l.21.05c.06.01,7.62,1.41,7.18,5.04-.39,3.23-4.98,2.99-7.2,2.87l-.82-.06c-2.44-.37-8.96-1.24-16.86-1.4.79,8.79,2.71,18.09,6.01,27.25,4.52-1.04,7.71-1.28,9.83-1.4l.29-.02c2.79-.15,9.39-.25,9.73,3.07.3,2.87-4.87,4.24-7.11,4.7-1.04.21-2.16.36-3.41.53-1.75.24-3.74.52-6.09,1.02,3.77,8.24,8.76,16.15,15.14,23.24,6.63-3.22,10.45-4.4,10.53-4.42.06-.03,6.57-1.68,7.84,1.28,1.09,2.56-1.67,3.92-4.33,5.24-.85.42-1.74.86-2.55,1.35,0,0-.09.05-.26.13-1.03.51-2.75,1.4-5.02,2.62,6.17,5.56,13.32,10.43,21.71,14.2,33.54,15.07,64.84,18.46,104.45,19.04l4.04-.06,4.36.06c44.98-.67,81.88-7.25,106.54-19.04,12.36-5.91,22.38-13.54,30.16-22.9-3.71-.86-5.98-1.18-6.04-1.19-1.42-.14-5.85-1.17-7.34-3.19-.44-.61-.61-1.28-.47-1.94.75-3.62,7.32-2.9,10.09-2.43.35.03,3.75.38,9.03,1.65,5.2-7.94,9.03-16.98,11.53-27.1-2.33-.14-4.2-.17-5.48-.17-2.44.01-5.28-.05-5.28-.05-.74-.07-6.59-.76-6.82-3.68-.03-.39.05-1,.6-1.64,1.31-1.53,4.62-2.39,6.03-2.5l.31-.03c.84-.08,3.07-.3,5.31-.32h.61c1.62,0,3.81.05,6.42.22,1.29-7.68,1.93-15.9,1.86-24.74.01-1.24-.06-2.46-.09-3.69-6.85.85-12.47,1.97-16.3,2.74-1.96.39-3.38.68-4.24.78-1.38.2-2.56.3-3.55.3-2.31,0-3.58-.56-4-1.72-.29-.84-.23-1.74.18-2.59.74-1.52,2.53-2.81,5.19-3.72,2.09-.71,10.2-3.2,22.24-4.68-1.72-19.09-7.86-37.28-18.78-55.31-.7-1.16-.95-2.54-.69-3.87Z"/>
          </g>
          <g>
            <path class="cls-2" d="M115.31,318.56c-3.5,7.1-3.52,18.45,1.21,24.48,2.92,3.45,7.8,5.41,14.09,4.33,5.43-.94,8.52-5.9,9.55-9.85,2.23-8.84-.14-19.68-5.23-23.79-5.36-3.91-15.39-3.82-19.61,4.83Z"/>
            <path class="cls-2" d="M285.41,319.6c-3.5,7.1-3.52,18.45,1.21,24.48,2.92,3.45,7.8,5.41,14.09,4.33,5.43-.94,8.52-5.9,9.55-9.85,2.23-8.84-.14-19.68-5.23-23.79-5.36-3.91-15.39-3.82-19.61,4.83Z"/>
            <g>
              <path class="cls-2" d="M230.45,350.31c-1.17-4.16-4.32-7.43-8.44-8.76-7.86-2.55-15.82-1.48-20.77,2.79-5.16,4.56-5.41,12.65-2.19,16.84,2.99,3.88,7.72,5.9,14.48,6.2.31.01.63.02.94.02,5.41,0,10.44-1.98,13.31-5.27v-.02c2.83-3.28,3.82-7.69,2.67-11.81Z"/>
              <path class="cls-3" d="M219.91,348.06c-2.1-.68-4.24-1.01-6.25-1.01-3.19,0-6.05.84-7.91,2.45-2.45,2.17-2.29,6.18-1.26,7.52,1.68,2.18,4.74,3.34,9.35,3.54,4.27.17,7.46-1.38,8.79-2.9,1.34-1.56,1.79-3.55,1.24-5.49-.54-1.94-2.02-3.48-3.96-4.11Z"/>
            </g>
          </g>
        </g>
        <g>
          <g>
            <path class="cls-2" d="M174.31,408.39c-1.48-4.63-4.48-8.3-7.74-11.99-11.57-11.1-31.76-15.56-47.81-10.64-11.58,3.03-24.94,13.2-26.89,28.3-1.79,11.76,2.42,22.06,11.65,27.76,9.31,4.78,19.42,4.67,29.7-.17.87-.33,1.3-.24,3.57.72,1.42.61,3.17,1.34,5.28,1.7,3.57,1.03,6.76,1.46,9.57,1.46,7.46,0,12.38-3.02,15.44-6.04,7.97-7.84,10.94-20.61,7.23-31.1Z"/>
            <path class="cls-5" d="M163.98,411.98c-.03-.07-.05-.13-.07-.2-.84-2.65-3.05-5.31-5.25-7.82-8.41-8.05-24.41-11.47-36.92-7.67-8.41,2.21-17.79,9.67-19.04,19.29-.55,3.62-1.01,12.25,6.19,16.72,5.93,3.02,12.4,2.87,20-.7,1.9-.75,3.63-1.02,5.19-1.02,2.92,0,5.24.98,6.98,1.72,1.12.47,2.08.88,2.97,1.01.27.04.53.09.78.17,6.51,1.94,11.44,1.34,14.59-1.78,4.91-4.82,6.87-13.3,4.58-19.71Z"/>
          </g>
          <g>
            <path class="cls-2" d="M338.19,416.35c-1.98-15.21-15.33-25.39-26.69-28.34-16.27-4.97-36.47-.53-48.34,10.91-2.82,3.2-5.95,7-7.44,11.65-3.71,10.49-.74,23.27,7.22,31.1,3.07,3.03,8,6.05,15.45,6.05,2.81,0,5.99-.43,9.57-1.46,2.11-.36,3.86-1.1,5.28-1.7,2.29-.98,2.71-1.06,3.23-.88,10.61,5,20.73,5.1,30.44.1,8.83-5.48,13.04-15.78,11.27-27.43Z"/>
            <path class="cls-5" d="M327.35,417.88c-1.27-9.74-10.64-17.21-18.84-19.34-3.53-1.08-7.32-1.6-11.13-1.6-9.92,0-20.02,3.48-26.32,9.53-1.88,2.17-4.1,4.83-4.94,7.48-.02.07-.04.13-.07.2-2.29,6.41-.33,14.89,4.56,19.7,3.17,3.11,8.06,3.72,14.6,1.78.25-.07.51-.13.78-.17.89-.13,1.85-.53,2.97-1.01,2.67-1.14,6.69-2.83,11.82-.85,7.93,3.73,14.41,3.88,20.73.63,6.81-4.24,6.35-12.88,5.82-16.38Z"/>
          </g>
        </g>
        <g>
          <g class="cls-9">
            <rect class="cls-6" x="240.92" y="120.13" width="108.55" height="184.44" transform="translate(-22.01 390.15) rotate(-65)"/>
            <rect class="cls-7" x="201.42" y="145.3" width="108.55" height="97.26" transform="translate(-28.13 343.71) rotate(-65)"/>
          </g>
          <path class="cls-1" d="M390.94,222.73c.07-12.49-5.34-22.53-15.6-29.03-.69-.44-1.39-.87-2.1-1.27-.77-.43-1.55-.85-2.34-1.22-11.64-5.67-23.69-4.48-34.15-2.53-5.83,1.33-9.45,2.5-11.74,3.46-1.46-1.46-3.03-2.84-4.74-4.07-.97-.67-6.37-4.22-14.15-5.76-.48-2.23-.98-3.97-1.26-4.88-.01-.05-.23-.79-.25-.84-1.29-3.88-4.26-11.63-9.68-19.89-6.8-10.34-15.02-17.72-24.49-21.96-15.15-6.65-29.01-3.93-42.64,8.55-6.19,6.4-11.53,14.18-15.87,23.1-.54,1.12-4.52,10.56-4.96,11.86-1.56,4.27-6.56,19.27-5.14,33.03.89,10.47,5.87,20.97,13,27.42.12.11.54.44.67.53,7.94,6.03,16.67,9.07,25.99,9.07,1.13,0,2.27-.05,3.42-.13,12.05-.93,21.23-4.61,21.51-4.72,1.18-.45,2.22-.93,3.33-1.4,3.32,4.59,7.6,8.48,12.65,11.05,6.29,3.17,11.23,4.29,15.81,4.29.67,0,1.31-.14,1.97-.18.25.54.51,1.09.92,1.73,9.83,18.52,24.19,24.87,33.25,24.47.58.03,1.17.05,1.76.05,15.78,0,33.72-11.18,44.46-28.18l.53-.88c3.53-5.77,8.87-14.5,9.85-31.66Z"/>
          <path class="cls-2" d="M390.94,222.73c.07-12.49-5.34-22.53-15.6-29.03-.69-.44-1.39-.87-2.1-1.27-.77-.43-1.55-.85-2.34-1.22-11.64-5.67-23.69-4.48-34.15-2.53-5.83,1.33-9.45,2.5-11.74,3.46-1.46-1.46-3.03-2.84-4.74-4.07-.97-.67-6.37-4.22-14.15-5.76-.48-2.23-.98-3.97-1.26-4.88-.01-.05-.23-.79-.25-.84-1.29-3.88-4.26-11.63-9.68-19.89-6.8-10.34-15.02-17.72-24.49-21.96-15.15-6.65-29.01-3.93-42.64,8.55-6.19,6.4-11.53,14.18-15.87,23.1-.54,1.12-4.52,10.56-4.96,11.86-1.56,4.27-6.56,19.27-5.14,33.03.89,10.47,5.87,20.97,13,27.42.12.11.54.44.67.53,7.94,6.03,16.67,9.07,25.99,9.07,1.13,0,2.27-.05,3.42-.13,12.05-.93,21.23-4.61,21.51-4.72,1.18-.45,2.22-.93,3.33-1.4,3.32,4.59,7.6,8.48,12.65,11.05,6.29,3.17,11.23,4.29,15.81,4.29.67,0,1.31-.14,1.97-.18.25.54.51,1.09.92,1.73,9.83,18.52,24.19,24.87,33.25,24.47.58.03,1.17.05,1.76.05,15.78,0,33.72-11.18,44.46-28.18l.53-.88c3.53-5.77,8.87-14.5,9.85-31.66ZM262.41,233.25c-.08.03-8.08,3.2-18.37,4-11.87.91-19.44-4.85-21.88-6.66-5-4.53-8.79-12.66-9.45-20.34-1.18-11.51,3.16-24.52,4.61-28.48.39-1.06,3.95-9.57,4.44-10.59,3.84-7.89,8.52-14.72,13.66-20.06,10.24-9.37,19.41-11.29,30.57-6.38,7.49,3.35,14.15,9.4,19.77,17.96,4.92,7.49,7.54,14.61,8.32,16.9l.28.99c.1.33.23.76.37,1.26-3.12.38-6.39,1.21-9.76,2.67-.86.37-1.62.86-2.44,1.29-1.82-1.99-4.05-3.77-6.3-5.03-6.73-3.79-14.11-3.84-20.25-.13-6.59,4-10.46,11.71-9.86,19.44.23,6.03,2.69,11.16,7.12,14.82,2.87,2.37,6.27,3.78,9.4,4.6,0,.53-.07,1.05-.05,1.58.03,3.82.78,7.6,2.04,11.21-.76.31-1.43.63-2.24.94ZM264.12,208.56c-1.43-.51-2.96-1.24-4.22-2.39-1.79-1.63-2.7-3.75-2.82-6.7-.29-3.87,1.51-7.58,4.61-9.47,2.17-1.32,4.47-1.53,7.04-.66,2.02.68,3.67,1.86,4.9,2.98-4.48,4.46-7.75,9.99-9.5,16.23ZM306.89,244.95c-7.63,2.01-11.53,2.43-19.54-1.62-8.18-4.17-13.72-13.13-13.78-22.46-.43-11.82,5.62-21.89,15.78-26.29,3.44-1.49,6.75-2.05,9.77-2.05,8.05,0,14.03,3.93,14.85,4.49,9.03,6.49,13.34,17.88,10.69,28.51-2.49,11.49-10.8,17.57-17.75,19.43ZM371.63,248.89l-.6,1.01c-8.69,13.74-23.71,23.26-36.56,22.57-6.52.09-15.93-5.15-23.02-17.53,4.14-1.36,8.46-3.71,12.35-7.14,1.96,1.41,4.3,2.61,7,3.2,1.02.22,2.2.38,3.49.38,3.21,0,7.18-.98,11.47-4.38,4.81-4.81,6.44-10.35,4.85-17.49-2.82-8.54-9.53-11.12-14.31-12.03-.27-5.63-1.81-11.14-4.48-16.14,2.05-.65,4.64-1.36,7.15-1.93,8.49-1.57,18.35-2.62,27.19,1.67.59.28,1.14.58,1.7.89.53.3,1.04.61,1.59.96,7.15,4.53,10.61,10.99,10.57,19.46-.82,14.14-4.94,20.88-8.38,26.5ZM335.17,228.46c2.53.61,4.13,1.69,4.89,3.93.65,2.96.13,4.69-1.56,6.43-1.71,1.35-3.44,1.83-5.18,1.51-.94-.17-1.76-.57-2.49-1,1.88-3.16,3.39-6.77,4.33-10.89Z"/>
        </g>
      </g>
    </g>
    <g>
      <path class="cls-4" d="M134.39,90.45l-.81-3.58c.03-.1.06-.2.08-.3,1.05-4.07.03-7.46-1.02-9.59l-1.5-3.08c0-.09,0-.19,0-.28.07-3.98-1.6-6.87-3.01-8.6l-2.16-2.65c-.01-.08-.03-.16-.05-.24-.78-3.65-2.9-5.97-4.54-7.26l-2.77-2.18c-.6-1.29-1.43-2.42-2.44-3.41l.25-1.35c.3-1.66-.11-5.23-3.77-6.83-1.13-.5-2.56-1.07-4.29-1.66,1.13-.33,2.17-.72,3.08-1.19,2.99-1.54,5.15-4.23,6.08-7.57.99-3.55.44-7.4-1.5-10.55-1.82-2.96-4.7-5.04-8.09-5.85-3.4-.81-6.89-.25-9.86,1.58-2.35,1.45-4,3.63-6.08,6.39-.79,1.05-1.56,2.29-2.47,3.74-.63,1.02-1.33,2.14-2.1,3.28.45-1.25.87-2.51,1.27-3.78,2.31-7.32,3.8-14.82,4.3-21.69l.18-2.42-11.6-1.39.12,2.98c.25,6.22-.23,12.81-1.43,19.58-.68,3.84-1.57,7.59-2.66,11.19-1.09-3.6-1.98-7.35-2.66-11.19-1.2-6.77-1.68-13.36-1.43-19.58l.12-2.98-11.6,1.39.18,2.42c.5,6.86,1.99,14.36,4.3,21.69.4,1.27.83,2.53,1.27,3.78-.76-1.12-1.45-2.24-2.11-3.3-.9-1.44-1.67-2.68-2.47-3.74-2.08-2.76-3.72-4.94-6.07-6.38-2.96-1.82-6.46-2.38-9.86-1.58-3.39.81-6.27,2.88-8.09,5.85-1.94,3.15-2.48,7-1.5,10.55.93,3.34,3.09,6.02,6.08,7.57.91.47,1.94.86,3.08,1.19-1.73.59-3.16,1.16-4.29,1.66-3.66,1.61-4.06,5.18-3.77,6.85l.36,1.96c-.05.02-.11.05-.16.07-3.12,1.56-4.74,4.01-5.55,5.79l-.95,2.1c-.52.3-1.01.65-1.48,1.01-2.91,2.31-4.03,5.24-4.46,7.3l-.73,3.44c-.1.12-.19.23-.28.34-2.48,3.11-2.91,6.43-2.85,8.66l.08,2.47c-.39.59-.73,1.21-1.02,1.83-1.75,3.82-1.35,7.34-.7,9.62l.83,2.92c-.14.48-.26.96-.34,1.42-.85,4.6.78,8.25,1.82,10.02l1.62,2.75c-.01.52,0,1.03.04,1.51.39,4.94,3.06,8.2,4.61,9.7l2.37,2.29c.13.5.28.98.44,1.43,1.78,4.87,5.4,7.41,7.41,8.49l3.11,1.67c.29.5.61.98.95,1.43,3.25,4.39,7.66,5.83,10,6.3l3.74.75c.38.34.78.66,1.18.96,3.7,2.73,7.56,3.31,10.15,3.31.6,0,1.2-.03,1.77-.09l4.32-.39c.37.15.71.28,1.04.4,1.83.63,3.74.95,5.65.95,3.11,0,5.64-.83,7.21-1.52l4.74-1.99c.08,0,.15,0,.23,0,5.49,0,9.35-2.64,11.2-4.24l2.96-2.75c.11-.03.21-.05.32-.08,5.26-1.41,8.22-4.98,9.51-6.98l2.27-3.41c.07-.04.15-.08.22-.13,4.47-2.69,6.25-6.72,6.92-8.88l1.4-4.14c3.27-3.55,3.89-7.63,3.97-9.75l.13-3.82s.05-.1.08-.15c2.26-4.12,1.86-8.1,1.42-10.1ZM99.65,28c1.36-1.8,2.64-3.5,3.45-4,.55-.34,1.18-.52,1.82-.52,1.22,0,2.34.62,2.98,1.66.52.85.68,1.99.41,3.05-.46,1.86-4.08,4.14-12.65,4.85,1.6-1.86,2.9-3.58,3.99-5.03ZM47.38,25.13h0c.64-1.04,1.75-1.66,2.98-1.66.64,0,1.27.18,1.82.52.82.5,2.1,2.2,3.46,4.01,1.09,1.45,2.39,3.17,3.98,5.03-8.57-.71-12.19-2.99-12.65-4.85-.26-1.06-.11-2.2.41-3.05Z"/>
      <g>
        <path class="cls-5" d="M133.44,90.66l-.86-3.82h0c.05-.17.1-.34.15-.51.98-3.78.03-6.93-.94-8.92l-1.62-3.31c0-.17.02-.33.02-.5.06-3.68-1.48-6.36-2.79-7.96l-2.32-2.85c-.03-.15-.06-.31-.09-.46-.72-3.37-2.68-5.5-4.19-6.7l-2.89-2.29s-.04-.03-.05-.04c0,0,0-.01,0-.02-.71-1.6-1.69-2.79-2.7-3.68l.34-1.85c.25-1.4-.1-4.4-3.2-5.77-5.15-2.26-16.5-6.07-34.64-6.13-18.13.06-29.48,3.87-34.63,6.13-3.1,1.36-3.45,4.37-3.2,5.77l.51,2.73c-.28.11-.55.23-.82.36-2.87,1.43-4.35,3.68-5.09,5.32l-1.08,2.39c-.57.31-1.11.68-1.63,1.09-2.68,2.13-3.72,4.84-4.12,6.73l-.76,3.62s0,.04-.02.08c-.14.16-.28.33-.42.5-2.29,2.88-2.7,5.95-2.63,8.02l.08,2.79c-.42.61-.8,1.27-1.12,1.96-1.63,3.55-1.25,6.82-.65,8.94l.91,3.19c-.16.52-.3,1.05-.4,1.59-.79,4.29.73,7.7,1.7,9.35l1.77,3c-.02.56-.02,1.12.03,1.69.36,4.62,2.86,7.67,4.31,9.07l2.57,2.48c.13.54.29,1.08.48,1.61,1.67,4.57,5.07,6.95,6.95,7.96l3.27,1.76s.03,0,.08.04c.31.55.65,1.08,1.03,1.59,3.06,4.13,7.2,5.48,9.4,5.93l4.2.98h-.01c.36.31.73.61,1.12.9,3.45,2.55,7.06,3.12,9.56,3.12.64,0,1.21-.04,1.68-.09l4.56-.41h-.02c.4.16.81.33,1.22.47,1.9.65,3.7.9,5.34.9,2.96,0,5.38-.8,6.83-1.44l4.94-2.07c.14,0,.28,0,.41,0,5.17,0,8.81-2.47,10.54-3.98l3.15-2.92c.18-.04.36-.09.54-.13,4.94-1.33,7.73-4.69,8.95-6.57l2.4-3.6h0c.13-.08.27-.15.4-.23,4.19-2.52,5.87-6.31,6.5-8.35l1.47-4.34c3.17-3.35,3.77-7.24,3.85-9.27l.14-4.06h0c.07-.11.14-.22.2-.34,2.1-3.84,1.73-7.55,1.32-9.42ZM38.72,102.47c0-2.01.31-3.94.87-5.77-.08.88-.13,1.77-.13,2.67,0,7.48,3,14.26,7.86,19.2-5.18-3.48-8.6-9.39-8.6-16.1ZM42.77,104.72c-.17-2.78.15-5.48.88-8.02-.1,1.52-.11,3.05-.02,4.61.46,7.66,3.24,14.64,7.6,20.28-4.83-4.09-8.05-10.06-8.46-16.88ZM104.06,121.6c4.37-5.65,7.14-12.62,7.6-20.28.09-1.56.08-3.09-.02-4.61.72,2.54,1.04,5.23.88,8.02-.41,6.81-3.63,12.79-8.46,16.88ZM107.96,118.57c4.86-4.94,7.86-11.72,7.86-19.2,0-.9-.05-1.79-.13-2.67.57,1.82.87,3.76.87,5.77,0,6.71-3.41,12.63-8.6,16.1ZM120.83,89.22c-.33-.94-.73-1.88-1.21-2.85-.83-1.68-2.51-3.66-5.49-4.45-2.74-.72-4.54.52-4.65,1.79-.18.55.07,1.16.6,1.64.26.27.58.48.93.58.07.03.15.06.23.08,1.25.41,2.5.04,2.78-.83.11-.34.05-.7-.13-1.05,1.24.49,3.34,1.77,3.57,4.82.41,5.39-1.78,7.19-4.3,1.82-1.12-2.39-2.95-4.73-5.82-6.69-7.75-5.3-16.48-3.8-16.12-.13,0,1.18,1.39,2.14,3.1,2.14s3.1-.96,3.1-2.14c0-.7-.48-1.31-1.23-1.7,1.59-.15,5.59-.43,9.85,2.99,0,0-2.15-.67-4.28-.22-1.19.25-2.71,1.51-2.22,2.93.17.96,1.43,1.54,2.82,1.3,1.39-.24,2.38-1.21,2.22-2.17-.03-.19-.11-.36-.22-.51,1.13.12,4.35.9,6.29,5.8,1.55,3.92-2.69,2.04-3.95.96-3.13-2.68-9.79-1.83-10.64.56-.09.23-.12.47-.08.71.17.96,1.43,1.54,2.82,1.3,1.39-.24,2.39-1.21,2.22-2.17-.03-.15-.08-.3-.16-.43,3.43-.16,7.14,3.65,7.41,5.96.43,3.82-2.11,5.7-2.11,5.7,0,0,2.02,1.17,1.22,4.64-3.21,14.01-13.93,19.65-18.59,21.48-3.52-.14-6.86.98-8.62,1.7l-1.89.77c-1.82-1.13-4.06-1.86-6.71-2.16-1.75-.2-3.35-.17-4.51-.09-4.28-1.57-15.82-7.07-19.16-21.69-.79-3.47,1.22-4.64,1.22-4.64,0,0-2.55-1.88-2.11-5.7.26-2.32,3.98-6.13,7.41-5.96-.08.13-.14.28-.16.43-.17.96.83,1.93,2.22,2.17,1.39.24,2.65-.34,2.82-1.3.04-.24.01-.48-.08-.71-.85-2.38-7.5-3.24-10.64-.56-1.26,1.08-5.5,2.96-3.95-.96,1.94-4.91,5.15-5.68,6.29-5.8-.11.15-.18.33-.22.51-.17.96.83,1.93,2.22,2.17,1.39.24,2.65-.34,2.82-1.3.49-1.42-1.04-2.68-2.22-2.93-2.12-.45-4.28.22-4.28.22,4.26-3.42,8.26-3.13,9.85-2.99-.74.39-1.23,1.01-1.23,1.7,0,1.18,1.39,2.14,3.1,2.14s3.1-.96,3.1-2.14c.37-3.67-8.36-5.18-16.12.13-2.87,1.96-4.7,4.3-5.82,6.69-2.52,5.37-4.71,3.57-4.3-1.82.23-3.05,2.33-4.33,3.57-4.82-.18.34-.24.71-.13,1.05.28.86,1.53,1.23,2.78.83.08-.03.15-.05.23-.08.35-.1.67-.31.93-.58.53-.48.78-1.1.6-1.64-.11-1.26-1.91-2.51-4.65-1.79-2.98.78-4.66,2.77-5.49,4.45-.48.97-.88,1.91-1.21,2.85-.55-4.92.8-8.36,2.43-10.22,1.07-1.23,2.28-1.74,2.95-1.95-.17.34-.23.7-.12,1.03.28.86,1.53,1.23,2.78.83,1.25-.41,2.04-1.44,1.76-2.3-.43-1.91-3.33-2.43-6.39-1.14-1.08.46-1.93,1.25-2.6,2.23,0-.1,0-.21.01-.3l.07-2.42c1.5-1.3,3.01-3.43,4-6.91l.91-3.11c.76-.56,1.54-1.3,2.3-2.25l2.4,12.98c.11.21.19.43.25.67.1.33.11.66.06.99l.89,4.8c.34.41.56.88.62,1.37.02.06.03.12.04.19.19-.14.38-.28.58-.41.21-.14.42-.28.63-.42l-6.54-35.41s-.48-2.71,2.2-3.89c4.47-1.97,15.7-5.93,33.95-5.99,18.25.06,29.48,4.03,33.95,5.99,2.68,1.18,2.2,3.89,2.2,3.89l-6.54,35.41c.21.13.42.27.63.42.2.13.39.27.58.41.01-.06.02-.12.04-.19.07-.49.29-.96.62-1.37l.89-4.8c-.06-.33-.04-.67.06-.99.06-.24.14-.46.25-.67l2.36-12.78c.44.55.94,1.11,1.54,1.68l2.07,2.07h0c.12,1.81.79,4.04,2.59,6.64l1.49,2.16.05-.09c-.18.75-.28,1.61-.25,2.58-.69-1.09-1.58-1.97-2.75-2.47-3.06-1.29-5.96-.77-6.39,1.14-.28.86.51,1.9,1.76,2.3,1.25.41,2.5.04,2.78-.83.11-.33.06-.69-.12-1.03.67.21,1.88.72,2.95,1.95,1.63,1.86,2.98,5.3,2.43,10.22Z"/>
        <path class="cls-5" d="M107.78,89.48c-.43-.48-.94-.91-1.51-1.26l-.61,3.32c.56.25,1.09.57,1.57.96l.56-3.02Z"/>
        <path class="cls-5" d="M77.64,118.4c-5.75.12-10.78,2.88-13.75,7.03-3.62-2.83-6.87-5.95-9.74-9.36l-3.73-20.19c-.08.07-.17.14-.25.21-.46.4-.87.85-1.22,1.3l3.59,19.43.29.35c2.93,3.49,6.29,6.72,9.99,9.61l1.41,1.1,1.04-1.45c2.75-3.84,7.36-6.2,12.35-6.31,4.99.11,9.61,2.47,12.36,6.31l1.04,1.45,1.41-1.1c3.7-2.89,7.06-6.12,10-9.61l.29-.35,3.59-19.43c-.34-.45-.76-.9-1.22-1.3-.08-.07-.17-.14-.25-.21l-3.73,20.19c-2.86,3.41-6.11,6.54-9.74,9.36-2.97-4.15-8-6.91-13.75-7.03Z"/>
        <path class="cls-5" d="M47.5,89.47l.56,3.03c.47-.39,1-.7,1.57-.96l-.61-3.31c-.49.29-1.01.69-1.51,1.24Z"/>
        <g>
          <path class="cls-5" d="M74.04,22.73c-1.21-6.84-1.69-13.5-1.44-19.79l.07-1.85-9.56,1.14.11,1.5c.49,6.79,1.97,14.21,4.26,21.47,1.07,3.38,2.29,6.66,3.65,9.79-2.59-2.7-4.56-5.85-6.21-8.5-.89-1.43-1.66-2.66-2.42-3.68-2.02-2.68-3.61-4.79-5.81-6.14-2.74-1.69-5.99-2.21-9.13-1.46-3.14.75-5.8,2.67-7.49,5.42-1.8,2.93-2.31,6.49-1.39,9.79.86,3.08,2.84,5.55,5.6,6.97,1.23.63,2.67,1.13,4.33,1.49,6.22-1.94,15.63-3.89,28.4-4-1.21-3.86-2.22-7.93-2.96-12.15ZM46.03,28.42c-.33-1.31-.13-2.72.53-3.79.84-1.36,2.3-2.12,3.8-2.12.8,0,1.6.21,2.32.66.97.6,2.24,2.29,3.72,4.24h0c1.46,1.94,3.19,4.23,5.5,6.72-8.99-.4-15.07-2.54-15.86-5.72Z"/>
          <path class="cls-5" d="M111.02,37.39c2.75-1.42,4.74-3.9,5.6-6.97.92-3.3.41-6.87-1.39-9.79-1.69-2.74-4.35-4.67-7.49-5.42-3.14-.75-6.38-.23-9.13,1.46-2.2,1.35-3.79,3.47-5.81,6.15-.76,1.01-1.53,2.25-2.42,3.67-1.65,2.65-3.62,5.8-6.21,8.5,1.35-3.13,2.58-6.41,3.65-9.79,2.29-7.25,3.76-14.67,4.26-21.47l.11-1.5-9.56-1.14.08,1.85c.25,6.29-.23,12.95-1.44,19.79-.75,4.22-1.75,8.29-2.96,12.15,12.78.11,22.18,2.06,28.4,4,1.66-.36,3.11-.86,4.33-1.49ZM98.88,27.42c1.47-1.96,2.75-3.65,3.72-4.24.73-.45,1.53-.66,2.33-.66,1.49,0,2.96.75,3.8,2.12.66,1.06.85,2.48.53,3.78-.79,3.18-6.87,5.32-15.86,5.72,2.31-2.49,4.04-4.78,5.5-6.72Z"/>
        </g>
      </g>
      <g>
        <g>
          <path class="cls-8" d="M33.69,77.34c-.9.44-1.92.73-2.92,1.01-.36.1-.72.2-1.07.31-2.23.68-4.37,2.72-5.56,5.33-1.46,3.18-1.05,6.13-.56,7.84.84-1.41,2.46-3.43,5.44-4.93,3.97-1.99,4.6-7.16,4.67-9.57Z"/>
          <path class="cls-8" d="M37.81,67.62c-.91.2-1.9.23-2.86.26-.35.01-.7.02-1.05.04-2.2.12-4.61,1.51-6.29,3.63-2.03,2.56-2.34,5.3-2.29,6.98,1.1-1.11,3.05-2.56,6.08-3.25,4.04-.92,5.79-5.44,6.42-7.66Z"/>
          <path class="cls-8" d="M32.2,88.02c-.81.7-1.79,1.27-2.76,1.83-.34.19-.68.39-1.01.59-2.11,1.28-3.77,3.93-4.31,6.9-.68,3.7.56,6.64,1.51,8.25.47-1.65,1.6-4.17,4.29-6.5,3.57-3.1,2.84-8.61,2.29-11.07Z"/>
          <path class="cls-8" d="M66.7,132.92c.79,1.14,1.33,2.53,1.9,3.98.18.45.36.91.55,1.37,1.21,2.9,4.21,5.47,7.84,6.72,4.8,1.65,8.92.42,11.01-.5-1.91-.8-5.03-2.63-7.56-6.62-1.75-2.76-4.8-4.41-9.06-4.9-1.88-.21-3.58-.15-4.69-.05Z"/>
          <path class="cls-8" d="M93.88,131.45c1.18.48,2.31,1.26,3.41,2.02.37.25.74.51,1.12.76,2.4,1.58,6,1.99,9.39,1.08,4.38-1.18,6.87-4.12,8.03-5.9-1.9.36-5.17.52-9.06-1.19-5.16-2.26-10.69,1.46-12.89,3.23Z"/>
          <path class="cls-8" d="M105.39,125.2c1.2.14,2.43.55,3.62.95.41.14.82.28,1.23.4,2.61.82,6.02.25,8.89-1.48,3.68-2.21,5.19-5.51,5.79-7.46-1.67.83-4.62,1.8-8.6,1.27-5.28-.71-9.36,4.09-10.94,6.31Z"/>
          <path class="cls-8" d="M115.87,116.15c.63,0,1.26.03,1.89.07.41.02.82.04,1.23.06,2.61.08,5.58-1.3,7.78-3.62,2.76-2.91,3.34-6.28,3.41-8.23-1.34,1.18-3.79,2.8-7.55,3.31-4.99.69-7.5,6.06-8.41,8.52.53-.08,1.08-.11,1.64-.11Z"/>
          <path class="cls-8" d="M131.87,91c-.97,1.42-2.83,3.46-6.12,4.83-4.38,1.82-5.41,7.29-5.65,9.8.99-.41,2.1-.64,3.19-.87.38-.08.77-.16,1.15-.25,2.41-.55,4.81-2.55,6.26-5.2,1.81-3.31,1.56-6.49,1.16-8.31Z"/>
          <path class="cls-8" d="M130.34,78.11c-.57,1.54-1.82,3.81-4.49,5.81-3.56,2.67-3.26,7.86-2.91,10.25.81-.6,1.76-1.06,2.69-1.51.33-.16.67-.32,1-.49,2.08-1.07,3.82-3.45,4.53-6.23.87-3.39-.05-6.22-.83-7.82Z"/>
          <path class="cls-8" d="M126.15,66.64c-.2,1.55-.86,3.89-2.84,6.28-2.64,3.19-1.28,7.84-.43,9.98.6-.71,1.36-1.33,2.11-1.95.27-.22.54-.45.81-.68,1.67-1.44,2.74-4.01,2.78-6.71.06-3.27-1.37-5.63-2.43-6.93Z"/>
          <path class="cls-8" d="M119.8,56.88c.13,1.48,0,3.74-1.29,6.32-1.73,3.45.44,7.38,1.68,9.18.4-.76.96-1.48,1.5-2.19.2-.26.4-.53.6-.79,1.23-1.67,1.66-4.25,1.13-6.74-.63-2.95-2.37-4.8-3.62-5.78Z"/>
          <path class="cls-8" d="M80.77,134.25c1.05.83,1.96,1.96,2.85,3.06.29.36.59.73.9,1.09,1.94,2.3,5.42,3.78,9.1,3.88,4.81.12,8.2-2.14,9.87-3.58-1.99-.19-5.35-.98-8.78-3.88-4.52-3.81-11.23-1.68-13.93-.57Z"/>
          <path class="cls-8" d="M60.4,142.12c-2.95-2.18-4.96-5.4-5.23-8.39-.04-.47-.07-.94-.11-1.41-.1-1.41-.19-2.86-.58-4.15,2.85.64,9.57,2.74,11.08,8.46,1.15,4.34,3.45,6.91,4.97,8.21-2.19.23-6.26.14-10.13-2.73Z"/>
          <path class="cls-8" d="M46.02,134.65c-2.09-2.82-3.02-6.32-2.44-9.13.09-.44.2-.88.3-1.32.3-1.3.61-2.64.63-3.92.89.51,2.19,1.33,3.46,2.45,2.94,2.57,4.38,5.38,4.27,8.36-.16,4.25,1.19,7.24,2.22,8.87-2.08-.42-5.73-1.65-8.44-5.31Z"/>
          <path class="cls-8" d="M41.51,122.12c-1.28,3.81-.89,6.89-.4,8.68-1.8-.97-4.75-3.09-6.21-7.11-1.15-3.15-1.05-6.6.25-9.01.2-.38.42-.76.63-1.13.62-1.1,1.26-2.22,1.63-3.38,1.88,1.97,5.81,6.89,4.1,11.94Z"/>
          <path class="cls-8" d="M31.47,119.01c-1.4-1.36-3.52-4.03-3.84-8.05-.25-3.18.71-6.32,2.52-8.2.29-.3.58-.59.87-.88.84-.84,1.7-1.7,2.33-2.65.44.82,1.01,2.05,1.44,3.47,1.03,3.39.78,6.25-.74,8.48-2.13,3.14-2.57,6.04-2.59,7.83Z"/>
          <path class="cls-8" d="M40.71,52.04c-.18.07-.35.15-.52.24-2.47,1.23-3.74,3.19-4.35,4.55,1.28-.44,3.24-.81,5.7-.33l-.82-4.46Z"/>
          <path class="cls-8" d="M116.37,53.94c-.46-1.03-1.06-1.87-1.69-2.54l-1.69,9.16c.72,1.22,1.64,2.22,2.32,2.87.23-.76.59-1.51.94-2.25.14-.28.27-.56.4-.85.8-1.76.69-4.21-.28-6.39Z"/>
          <path class="cls-8" d="M42.07,59.39c-.63-.07-1.26-.19-1.89-.32-.32-.06-.65-.13-.98-.18-.33-.06-.67-.09-1.02-.09-1.81,0-3.84.75-5.51,2.08-2.34,1.87-3.22,4.26-3.55,5.82,1.26-.77,3.33-1.66,6.19-1.66h.05c3.3,0,5.63-2.69,6.89-4.68l-.18-.98Z"/>
        </g>
        <g>
          <path class="cls-8" d="M86.3,24.73c2.34-7.4,3.72-14.61,4.19-21.11l-6.22-.74c.25,6.16-.2,13-1.46,20.13-.74,4.18-1.72,8.16-2.87,11.9.85.02,1.68.04,2.5.08,1.42-3.22,2.73-6.65,3.87-10.26Z"/>
          <path class="cls-8" d="M72.48,23.01c-1.26-7.12-1.71-13.97-1.46-20.13l-6.23.74c.47,6.49,1.85,13.7,4.19,21.11,1.14,3.61,2.45,7.03,3.87,10.26.82-.03,1.65-.06,2.5-.08-1.15-3.74-2.13-7.72-2.87-11.9Z"/>
          <path class="cls-8" d="M44.5,28.8c-.41-1.67-.19-3.52.71-4.99,1.74-2.83,5.46-3.72,8.29-1.97,1.23.75,2.52,2.47,4.15,4.64,1.89,2.5,4.28,5.67,7.83,9.05,1.18-.13,2.41-.23,3.68-.33-3.61-4.07-5.94-8.77-7.93-11.42-1.92-2.55-3.43-4.56-5.38-5.76-4.93-3.04-11.41-1.49-14.45,3.44h0c-1.57,2.55-2.01,5.66-1.21,8.54.74,2.65,2.44,4.78,4.8,5.99,1.98,1.02,4.49,1.59,7.26,1.86,3.13-.8,6.83-1.54,11.13-2.09-8.62-.2-17.63-1.98-18.88-6.97Z"/>
          <path class="cls-8" d="M97.62,26.47c1.63-2.17,2.93-3.88,4.15-4.64,2.83-1.74,6.55-.86,8.29,1.97.91,1.47,1.13,3.33.71,4.99-1.24,4.99-10.26,6.76-18.88,6.97,4.3.54,8.01,1.29,11.14,2.09,2.77-.27,5.28-.84,7.26-1.86,2.36-1.22,4.06-3.34,4.8-5.99.8-2.88.36-5.99-1.21-8.54h0c-3.04-4.93-9.52-6.47-14.45-3.44-1.95,1.2-3.46,3.21-5.38,5.76-2,2.65-4.33,7.35-7.93,11.42,1.27.09,2.49.2,3.68.33,3.55-3.38,5.94-6.55,7.83-9.05Z"/>
        </g>
      </g>
      <g>
        <path class="cls-7" d="M43.69,43.56c-2.69,1.18-2.2,3.89-2.2,3.89l6.54,35.41c3.24-2.06,6.25-2.81,8.26-3.07,2.74-.35,5.24,0,6.86.96,1.33.79,2.01,1.95,1.9,3.26-.03,1.72-1.82,3.07-4.08,3.07s-4.08-1.37-4.08-3.12c0-.27.04-.53.13-.79-1.31.06-2.54.33-3.75.81.15.02.3.05.45.08.91.19,2.1.87,2.71,1.95.4.7.49,1.46.26,2.19-.31,1.46-2.03,2.35-3.93,2.02-1.51-.26-2.68-1.22-2.98-2.36-.24.1-.5.22-.76.37l.61,3.31c2.26-1.02,5.07-1.03,7.09-.49,1.8.48,3.02,1.37,3.42,2.51.15.37.2.8.12,1.21-.13.78-.68,1.44-1.5,1.82-.71.33-1.58.43-2.45.28-1.58-.27-2.77-1.28-3.01-2.49-.94.21-1.94.73-2.88,1.5l3.73,20.19c2.87,3.41,6.12,6.54,9.74,9.36,2.97-4.14,8-6.91,13.75-7.03V37.57c-18.24.06-29.48,4.02-33.95,5.99Z"/>
        <path class="cls-6" d="M91.39,125.43c3.62-2.83,6.87-5.95,9.74-9.36l3.73-20.19c-.93-.77-1.93-1.29-2.88-1.5-.23,1.2-1.43,2.21-3.01,2.49-.87.15-1.73.05-2.44-.28-.82-.38-1.37-1.04-1.51-1.82-.07-.42-.03-.83.14-1.24.4-1.11,1.61-1.99,3.41-2.47,2.02-.54,4.83-.53,7.09.49l.61-3.32c-.24-.14-.49-.27-.76-.37-.29,1.15-1.46,2.11-2.98,2.37-1.9.33-3.63-.56-3.93-2.02-.23-.73-.14-1.49.26-2.19.61-1.08,1.8-1.76,2.71-1.95.15-.03.3-.06.45-.08-1.2-.48-2.44-.75-3.74-.81.09.26.13.52.13.79,0,1.75-1.79,3.12-4.08,3.12s-4.05-1.35-4.08-3.07c-.11-1.31.56-2.46,1.9-3.26,1.62-.96,4.12-1.31,6.86-.96,2,.26,5.02,1.01,8.26,3.07l6.54-35.41s.48-2.71-2.2-3.89c-4.47-1.97-15.7-5.93-33.95-5.99v80.83c5.75.12,10.78,2.88,13.75,7.03Z"/>
        <g>
          <g>
            <path class="cls-5" d="M57.16,106.68s.2,0,.22,0c.02,0,.05-.04.03-.08,0-.01-.05-.09-.09-.16-.04-.07-.09-.15-.16-.25-.06-.1-.13-.2-.21-.32-.08-.11-.15-.22-.22-.32-.07-.1-.13-.19-.18-.27-.05-.08-.09-.13-.11-.16l-.66.59v.85s.01.06.03.08c.02.02.17.03.26.04v.04h-1.58v-.04c.09,0,.23-.02.25-.04.02-.02.03-.05.03-.08v-3.23s-.01-.06-.03-.08c-.02-.02-.17-.03-.25-.04v-.04h1.58v.04c-.09,0-.24.02-.26.04-.02.02-.03.05-.03.08v1.26h.05c.13-.13.28-.27.44-.41.16-.14.3-.27.43-.39.13-.12.24-.22.33-.3.09-.08.17-.17.18-.19.01-.03-.01-.06-.03-.07-.02,0-.2-.01-.23-.02v-.04h1.96v.04s-.18.01-.21.02c-.03,0-.06.02-.08.04-.02.02-.05.04-.08.06-.03.03-.11.09-.15.13l-1.17,1.01,1.41,2.1c.04.05.07.09.1.1.03,0,.17.01.21.01v.04h-1.77v-.04Z"/>
            <path class="cls-5" d="M60.81,103.08c.29,0,.56.04.82.12.25.08.48.2.67.36.19.16.34.35.46.58.11.23.17.5.17.8s-.06.57-.17.8c-.11.23-.26.42-.46.58-.19.16-.41.27-.67.35-.25.07-.53.11-.82.11s-.56-.04-.82-.11c-.25-.07-.48-.19-.67-.35-.19-.16-.34-.35-.46-.58-.11-.23-.17-.5-.17-.8s.06-.57.17-.8c.11-.23.26-.42.46-.58.19-.16.41-.28.67-.36.25-.08.53-.12.82-.12ZM60.81,103.92c-.15,0-.29.02-.42.07-.13.05-.25.11-.35.2-.1.09-.18.19-.24.32-.06.13-.09.27-.09.43s.03.31.09.43c.06.13.14.23.24.32.1.09.22.15.35.2.13.05.27.07.42.07s.29-.02.42-.07c.13-.05.25-.11.35-.2.1-.09.18-.19.24-.32.06-.13.09-.27.09-.43s-.03-.31-.09-.43c-.06-.13-.14-.23-.24-.32-.1-.09-.22-.15-.35-.2-.13-.05-.27-.07-.42-.07Z"/>
            <path class="cls-5" d="M71.38,106.56s0,.06.03.08c.02.02.17.03.25.04v.04h-1.59v-.04c.09,0,.24-.02.26-.04s.03-.05.03-.08v-1.29h-1.76v1.29s.01.06.03.08.17.03.26.04v.04h-1.59v-.04c.09,0,.23-.02.26-.04.02-.02.03-.05.03-.08v-3.23s0-.06-.03-.08c-.02-.02-.17-.03-.26-.04v-.04h1.59v.04c-.09,0-.24.02-.26.04-.02.02-.03.05-.03.08v1.11h1.76v-1.11s-.01-.06-.03-.08c-.02-.02-.17-.03-.26-.04v-.04h1.59v.04c-.08,0-.23.02-.25.04-.02.02-.03.05-.03.08v3.23Z"/>
            <path class="cls-5" d="M72.24,106.68c.09,0,.24-.02.25-.04.02-.02.03-.05.03-.08v-3.23s0-.06-.03-.08c-.02-.02-.17-.03-.25-.04v-.04h1.58v.04c-.09,0-.23.02-.25.04-.02.02-.03.05-.03.08v3.23s.01.06.03.08c.02.02.17.03.25.04v.04h-1.58v-.04Z"/>
            <path class="cls-5" d="M78.66,103.33s0-.06-.03-.08c-.02-.02-.17-.03-.26-.04v-.04h1.59v.04c-.09,0-.24.02-.26.04-.02.02-.03.05-.03.08v1.9c0,.3-.05.55-.14.75-.1.2-.23.37-.4.49-.17.12-.37.21-.59.25-.23.05-.47.07-.73.07s-.5-.02-.73-.07c-.23-.05-.43-.13-.59-.25-.17-.12-.3-.28-.4-.49-.1-.2-.15-.45-.15-.75v-1.9s0-.06-.03-.08c-.02-.02-.17-.03-.25-.04v-.04h1.58v.04c-.09,0-.24.02-.26.04-.02.02-.03.05-.03.08v1.9c0,.26.08.45.22.56.15.11.36.17.63.17s.48-.06.63-.17c.15-.11.22-.3.22-.56v-1.9Z"/>
            <path class="cls-5" d="M80.55,103.33s-.01-.06-.03-.08c-.02-.02-.17-.03-.26-.04v-.04h1.8v.04c-.08,0-.23.02-.26.03-.03.01-.04.03-.04.06,0,0,.06.09.12.16.06.07.14.16.23.27.09.11.2.23.32.36.12.13.24.27.36.4.12.13.24.26.35.38.11.12.21.22.29.31v-1.84c0-.08-.14-.12-.24-.12v-.04h1.43v.04c-.09,0-.24.02-.26.04-.02.02-.03.05-.03.08v3.23s0,.06.03.08.17.03.26.04v.04h-1.43v-.04c.06,0,.18,0,.2-.02.02-.01.03-.03.03-.05,0-.01,0-.03-.02-.05-.01-.02-.07-.09-.11-.14-.04-.05-.11-.12-.2-.21-.09-.09-.2-.22-.35-.37-.14-.16-.32-.35-.53-.58-.21-.23-.46-.52-.76-.85v2.16s0,.06.03.08c.02.02.17.03.25.04v.04h-1.47v-.04c.09,0,.23-.02.26-.04.02-.02.03-.05.03-.08v-3.23Z"/>
            <path class="cls-5" d="M91.61,102.88c0,.08-.02.22-.04.25-.02.02-.05.04-.08.04h-3.42s-.06-.01-.08-.04c-.02-.03-.03-.17-.04-.25h-.04v1.39h.04c.01-.08.02-.22.04-.25.02-.02.05-.04.08-.04h1.2v1.9h-1.88c-.27,0-.48-.06-.63-.17-.15-.11-.22-.3-.22-.56v-1.83s.01-.06.03-.08c.02-.02.17-.03.26-.04v-.04h-1.58v.04c.09,0,.23.02.26.04.02.02.03.05.03.08v1.83c0,.3.05.55.14.75.1.2.23.37.4.49.17.12.37.21.6.25.23.05.47.07.73.07h3.18v-.04c-.09,0-.23-.02-.25-.04-.02-.02-.03-.05-.03-.08v-2.57h1.2s.06.01.08.04c.02.02.03.17.04.25h.04v-1.39h-.04Z"/>
            <path class="cls-5" d="M94.77,105.52s-.03-.18-.06-.21c-.03-.03-.08-.04-.15-.04h-1.29v.63h2.21s.06-.01.08-.04c.02-.02.03-.18.04-.26h.04v1.35h-.04c-.01-.06-.02-.19-.04-.2-.02-.01-.05-.02-.08-.02h-3.51v-.04c.08,0,.23-.02.25-.04.02-.02.03-.05.03-.08v-3.23s-.01-.06-.03-.08c-.02-.02-.17-.03-.25-.04v-.04h3.51s.06-.01.08-.04c.02-.03.03-.17.04-.25h.04v1.37h-.04c-.01-.08-.02-.22-.04-.25-.02-.03-.05-.04-.08-.04h-2.21v.56h1.29c.07,0,.12-.01.15-.04.03-.03.05-.16.06-.21h.04v1.25h-.04Z"/>
            <path class="cls-5" d="M96.33,103.33s-.01-.06-.03-.08c-.02-.02-.17-.03-.26-.04v-.04h2.34c.31,0,.58.05.81.14.23.09.42.22.57.38.15.16.26.35.33.56.07.22.11.45.11.7,0,.23-.04.45-.12.67-.08.21-.2.4-.36.57-.16.17-.36.3-.59.4-.24.1-.51.15-.83.15h-2.27v-.04c.09,0,.23-.02.26-.04.02-.02.03-.05.03-.08v-3.23ZM98.2,105.92c.36,0,.61-.09.77-.27.16-.18.24-.42.24-.71s-.08-.52-.24-.71c-.16-.18-.41-.27-.77-.27h-.86v1.96h.86Z"/>
            <path class="cls-5" d="M65.3,106.72c-.29,0-.56-.04-.82-.11-.25-.07-.48-.19-.67-.34-.19-.15-.34-.32-.46-.55-.11-.23-.17-.49-.17-.78s.06-.52.17-.74c.11-.22.26-.41.46-.57.19-.15.41-.27.67-.35.25-.08.53-.12.82-.12h1.32s.06-.01.08-.04c.02-.03.03-.17.04-.25h.04v1.39h-.04c0-.08-.02-.22-.04-.25-.02-.02-.05-.04-.08-.04h-1.32c-.15,0-.29.02-.42.07-.13.04-.25.11-.35.19-.1.08-.18.15-.24.27-.06.12-.09.26-.09.42s.03.3.09.42c.06.12.14.21.24.29.1.08.22.15.35.19.13.05.27.07.42.07h1.32s.06-.01.08-.04c.02-.02.03-.18.04-.26h.04v1.33h-.04c0-.06-.02-.19-.04-.2-.02-.01-.05-.02-.08-.02h-1.32Z"/>
            <g>
              <path class="cls-5" d="M87.93,108.3s0-.04-.02-.05c-.01-.01-.11-.02-.17-.03v-.03h1.07v.03c-.06,0-.16.02-.17.03-.01.01-.02.03-.02.05v1.25c0,.2-.03.37-.1.51-.06.14-.15.25-.27.33-.11.08-.25.14-.4.17-.15.03-.32.05-.49.05s-.34-.02-.49-.05c-.15-.03-.29-.09-.4-.17-.11-.08-.2-.19-.27-.33-.07-.14-.1-.3-.1-.51v-1.25s0-.04-.02-.05-.11-.02-.17-.03v-.03h1.07v.03c-.06,0-.16.02-.17.03-.01.01-.02.03-.02.05v1.25c0,.18.05.3.15.38.1.08.24.11.42.11s.32-.04.42-.11c.1-.08.15-.2.15-.38v-1.25Z"/>
              <path class="cls-5" d="M64.16,110.59h-.93s-.04,0-.06.01c-.01,0-.02.1-.03.14h-.03v-.87h.03c0,.06.02.16.03.18.01.02.03.02.06.02h.93c.23,0,.4-.02.51-.07.11-.05.14-.09.14-.19,0-.06-.04-.13-.14-.15-.09-.02-.21-.04-.35-.06-.14-.01-.29-.03-.45-.05-.16-.02-.31-.05-.45-.09-.14-.04-.26-.11-.35-.19-.09-.08-.14-.2-.14-.34,0-.12.03-.22.08-.31.05-.09.11-.16.21-.23.1-.07.2-.12.34-.16.14-.04.34-.04.51-.04h.94s.04,0,.05-.03c.01-.02.02-.12.03-.17h.03v.84h-.03c0-.05-.02-.15-.03-.17-.01-.02-.03-.03-.05-.03h-.94c-.2,0-.33.02-.41.06-.08.05-.1.07-.1.12s.03.09.08.12c.06.03.13.05.22.06.09.01.19.02.3.03.11,0,.23.02.35.03.12.02.24.04.35.06.11.03.21.07.3.12.09.05.16.12.21.21.06.09.08.2.08.33,0,.1-.02.19-.06.28-.04.1-.11.18-.21.26-.1.08-.23.14-.4.18-.16.05-.38.07-.62.07Z"/>
              <path class="cls-5" d="M78.21,110.59h-.93s-.04,0-.05.01c-.01,0-.02.1-.03.14h-.03v-.87h.03c0,.06.01.16.03.18.01.02.03.02.05.02h.93c.23,0,.4-.02.51-.07.11-.05.14-.09.14-.19,0-.06-.04-.13-.14-.15-.09-.02-.21-.04-.35-.06-.14-.01-.29-.03-.45-.05-.16-.02-.31-.05-.45-.09-.14-.04-.26-.11-.35-.19-.09-.08-.14-.2-.14-.34,0-.12.03-.22.08-.31.05-.09.11-.16.21-.23.1-.07.2-.12.34-.16.14-.04.34-.04.51-.04h.94s.04,0,.05-.03c.01-.02.02-.12.03-.17h.03v.84h-.03c0-.05-.01-.15-.03-.17-.01-.02-.03-.03-.05-.03h-.94c-.2,0-.33.02-.41.06-.08.05-.1.07-.1.12s.03.09.08.12c.05.03.12.05.21.06.09.01.19.02.3.03.11,0,.23.02.35.03.12.02.23.04.35.06.11.03.21.07.3.12.09.05.16.12.21.21.05.09.08.2.08.33,0,.1-.02.19-.06.28-.04.1-.11.18-.21.26-.1.08-.23.14-.4.18-.17.05-.38.07-.62.07Z"/>
              <path class="cls-5" d="M66.47,110.48s0,.04.02.05c.01.01.11.02.17.03v.03h-1.07v-.03c.06,0,.16-.02.17-.03.01-.01.02-.03.02-.05v-2.18s0-.04-.02-.05c-.01-.01-.11-.02-.17-.03v-.03h1.7c.14,0,.27.02.38.06.11.04.2.1.27.17.07.07.13.15.16.24.04.09.05.19.05.29s-.02.2-.05.29c-.04.09-.09.17-.16.24-.07.07-.16.12-.27.16-.11.04-.24.06-.38.06h-.82v.77ZM67.17,109.23c.13,0,.22-.02.28-.06.06-.04.09-.11.09-.21,0-.09-.03-.15-.09-.19-.06-.04-.15-.06-.28-.06h-.69v.53h.69Z"/>
              <path class="cls-5" d="M69.75,108.13c.19,0,.38.03.55.08.17.05.32.13.45.24.13.11.23.24.31.39.08.16.11.34.11.54s-.04.39-.11.54c-.08.16-.18.29-.31.39-.13.11-.28.18-.45.23-.17.05-.35.08-.55.08s-.38-.03-.55-.08c-.17-.05-.32-.13-.45-.23-.13-.11-.23-.24-.31-.39-.08-.16-.11-.34-.11-.54s.04-.39.11-.54c.07-.16.18-.29.31-.39.13-.11.28-.19.45-.24.17-.05.36-.08.55-.08ZM69.75,108.7c-.1,0-.2.02-.29.05-.09.03-.17.08-.24.13-.07.06-.12.13-.16.22-.04.09-.06.18-.06.29s.02.21.06.29c.04.09.1.16.16.21.07.06.15.1.24.13.09.03.18.05.29.05s.2-.02.28-.05c.09-.03.17-.08.24-.13.07-.06.12-.13.16-.21.04-.09.06-.18.06-.29s-.02-.21-.06-.29c-.04-.09-.1-.16-.16-.22-.07-.06-.15-.1-.24-.13-.09-.03-.18-.05-.28-.05Z"/>
              <path class="cls-5" d="M72.2,110.48s0,.04.02.05c.01.01.11.02.17.03v.03h-1.07v-.03c.06,0,.16-.02.17-.03.01-.01.02-.03.02-.05v-2.18s0-.04-.02-.05c-.01-.01-.11-.02-.17-.03v-.03h1.73c.34,0,.58.06.73.18.15.12.23.31.23.57,0,.21-.06.37-.19.49-.12.12-.28.2-.47.25l.56.78c.04.05.14.08.2.08v.03h-1.09v-.03c.07,0,.2-.04.18-.08,0,0-.01-.03-.04-.06-.02-.04-.07-.11-.11-.16-.04-.05-.08-.11-.12-.17-.04-.06-.09-.12-.13-.17-.04-.05-.08-.1-.11-.15-.03-.04-.05-.07-.06-.09h-.45v.79ZM72.96,109.21c.13,0,.23-.02.28-.08.05-.05.07-.11.07-.18s-.02-.13-.07-.18c-.05-.05-.14-.08-.28-.08h-.77v.5h.77Z"/>
              <path class="cls-5" d="M74.98,110.56c.06,0,.16-.02.17-.03.01-.01.02-.03.02-.05v-1.73h-.81s-.04,0-.05.03c-.01.02-.02.12-.03.17h-.03v-.94h.03c0,.05.01.15.03.17.01.02.03.03.05.03h2.3s.04,0,.06-.03c.01-.02.02-.12.03-.17h.03v.94h-.03c0-.05-.01-.15-.03-.17-.01-.02-.03-.03-.06-.03h-.81v1.73s0,.04.02.05c.01.01.11.02.17.03v.03h-1.07v-.03Z"/>
              <path class="cls-5" d="M81.98,110.59c-.2,0-.38-.02-.55-.07-.17-.05-.32-.12-.45-.23-.13-.1-.23-.22-.31-.37-.08-.15-.11-.33-.11-.53s.04-.35.11-.5c.08-.15.18-.28.31-.38.13-.1.28-.18.45-.24.17-.05.35-.08.55-.08h.89s.04,0,.06-.03c.01-.02.02-.12.03-.17h.03v.94h-.03c0-.05-.02-.15-.03-.17-.01-.02-.03-.03-.06-.03h-.89c-.1,0-.2.01-.28.05-.09.03-.17.07-.24.13-.07.06-.12.1-.16.18-.04.08-.06.18-.06.28s.02.2.06.28c.04.08.1.14.16.2.07.06.15.1.24.13.09.03.18.05.28.05h.89s.04,0,.06-.03c.01-.02.02-.12.03-.18h.03v.89h-.03s-.02-.13-.03-.14c-.01,0-.03-.01-.06-.01h-.89Z"/>
              <path class="cls-5" d="M85.79,110.04s.04,0,.05-.03c.01-.02.02-.12.03-.17h.03v.92h-.03s-.02-.14-.03-.15c-.01-.01-.03-.02-.05-.02h-2.47v-.03c.06,0,.16-.02.17-.03.01-.01.02-.03.02-.05v-2.18s0-.04-.02-.05c-.01-.01-.11-.02-.17-.03v-.03h1.07v.03c-.06,0-.16.02-.17.03-.01.01-.02.03-.02.05v1.73h1.59Z"/>
              <path class="cls-5" d="M89.18,108.3s0-.04-.02-.05c-.01-.01-.11-.02-.17-.03v-.03h1.8c.13,0,.24.01.34.04.1.02.19.06.27.11.08.05.14.12.18.2.04.08.06.18.06.29,0,.14-.04.25-.12.33-.08.08-.19.14-.31.17h0c.15.05.28.12.38.21.1.09.15.22.15.39,0,.09-.02.18-.05.26-.03.08-.09.15-.16.21-.08.06-.17.11-.29.15-.12.04-.26.05-.42.05h-1.82v-.03c.06,0,.16-.02.17-.03.01-.01.02-.03.02-.05v-2.18ZM90.48,109.1c.1,0,.18,0,.24,0,.06,0,.11-.01.15-.03.04-.01.06-.04.08-.06.02-.03.02-.06.02-.11s0-.08-.02-.11c-.02-.03-.04-.05-.08-.06-.04-.01-.09-.03-.15-.03-.06,0-.14,0-.24,0h-.62v.42h.62ZM90.64,110.11c.16,0,.28-.02.35-.06.07-.04.1-.11.1-.21s-.03-.17-.1-.21c-.07-.04-.18-.06-.35-.06h-.77v.55h.77Z"/>
            </g>
            <path class="cls-5" d="M86.03,102.89c.13-.24.34-.45.58-.58-.24-.13-.44-.34-.58-.58-.13.24-.34.45-.58.58.24.13.45.34.58.58Z"/>
          </g>
          <g>
            <path class="cls-5" d="M65.52,68.55c.62.6,1.21,1.25,1.67,1.74.48.52.68.79.93,1.02-1.48.31-3.56.91-5.21,2.11,0,0,.75-2.72,2.62-4.87Z"/>
            <path class="cls-5" d="M91.44,79.58c.31-.18.65-.34,1-.48-.54-.54-1.68-1.1-2.08-1.14.58-1.38.46-2.63.48-2.67.01-.27.16-.51.39-.63.04-4.01-.42-6.85-1.07-9.2-1.06-.23-1.79-.21-2.77-.04,2.86-1.65,7.72-1.77,7.72-1.77-.91-.57-7.89-2.7-16.33-1.19,4.97-1.7,9.4-1.16,9.98-1.08-.33-.83-.42-.98-.45-1.23-.02-.18.02-.54.21-.91.13-.26.34-.56.66-.92,1.49-1.69,4.49-3.02,4.49-3.02,0,0-5.37-2.41-12.17.3,0,0-7.04-7.85-22.56-7.12,0,0,1.02,4.19.77,6.75.94-.14,1.93-.14,1.93-.14,0,0,.45-2.45-2.12-6.21,0,0,2.84,1.82,2.92,5.93.02,1.13-.4,1.96.37,2.11.87.17,1.1-.06,1.1-.06,0,0-.37.87-1.35.75-1.53-.19-.97-1.85-.97-1.85-1.07-.23-3.55.82-6.73-.16-.7-.21-1.06,1.27.01,1.81.31.16,3.44,1.31,4.58,2.28,1.16,1,5.97,5.24,8.1,5.11,2.26-.13,4.01-.81,6.61-3.08,1.67-1.45,2.07-5.26,2.07-5.26.04.04.26,4.04-1.21,5.62-3.17,3.41-5.32,3.66-7.46,4.14-.74.17-3.78-1.6-6.15-4-.86-.88-3.16-2.47-3.15-2.47,1.83,1.76,10.56,11.06,10.88,11.38.97.98-.63,2.69.11,6.05l1.32-1.66.21-1.89,1.59.83s4,1.5,5.08,5.7c-.34.21-.91.57-1.13,1.44,1.2-.09,1.27.45,1.28.61,0,.17-.04.33-.17.43,0,0,0,0,0,0-.06.06-.05.2,0,.29,0,0,0,0,.01.01.1.05.18.15.19.28,0,.15-.09.28-.22.33-.07.06-.09.17-.07.27.07.06.11.14.12.24,0,.19-.13.34-.32.35-.02,0-.04,0-.06,0-.08.02-.21.13-.2.21.02.04.03.09.04.13,0,.09-.05.2-.08.23,0,0-.02.02-.02.03,0,0-.01.02-.02.02-.19.15-.74.66-1.33.26-1.25-.83-3.95-2.78-7.57-2.3,0,0,1.37.18,2.95,2.31,1.91,2.57,3.37,2.75,3.37,2.75,0,0-.73.68-.27,1.9,1.46,3.93-.25,6.93-.25,6.93,0,0,1.96-.58,3.38-6.17.04-.17.17-1.31.63-1.54.26-.13.64-.09.83.06.06.01.24-.02.31-.09.13-.38.48-.66.91-.68.21-.01.41.04.58.15.13.06.31,0,.42-.09.04-.13.1-.24.19-.34,0,0,0,0,0,0,.17-.21.43-.35.72-.36.19,0,.37.04.52.12.11.01.29-.07.35-.17.06-.48.45-.87.96-.9.16,0,.3.02.44.08.13.01.26-.1.35-.19-.02-.56.41-1.03.96-1.06.14,0,.28.02.4.06.13-.03.28-.19.33-.35-.1-.2-.18-.41.04-.62.56-.56,1.37-1.46,1.89-2.17.18-.24.56-.46,1.24-.29.37-1.09,1.17-2.04,2.33-2.73ZM65.73,51.39c.83,0,1.51.67,1.51,1.51,0,.83-.68,1.51-1.51,1.51-.83,0-1.51-.67-1.51-1.51,0-.83.68-1.51,1.51-1.51ZM67.16,63.53s-1.08-1.91-3.16-4.08c0,0,1.36.35,3.24,2.78.84-.3,1.58-.7,2.03-1.14.1-1.38-.44-3.52-.44-3.52,0,0,1.25,1.72,1.41,4.08-.57,1.02-3.09,1.88-3.09,1.88ZM79.14,84.27c1.52-1.77,2.45-4.08,2.45-6.61,0-2.52-.93-4.83-2.46-6.6,2.06,1.47,3.41,3.88,3.42,6.6,0,2.73-1.34,5.14-3.41,6.61ZM81.1,84.73c1.83-2.13,2.94-4.9,2.94-7.93,0-3.03-1.12-5.8-2.95-7.93,2.48,1.76,4.1,4.65,4.1,7.93,0,3.27-1.61,6.17-4.09,7.93ZM83.32,85.19c2.05-2.39,3.3-5.49,3.3-8.89,0-3.4-1.25-6.5-3.31-8.88,2.78,1.97,4.6,5.21,4.6,8.88,0,3.67-1.81,6.91-4.58,8.89Z"/>
          </g>
        </g>
      </g>
    </g>
  </g>
</svg>