<?xml version="1.0" encoding="UTF-8"?>
<svg id="_レイヤー_2" data-name="レイヤー 2" xmlns="http://www.w3.org/2000/svg" xmlns:xlink="http://www.w3.org/1999/xlink" viewBox="0 0 426.45 447.64">
  <defs>
    <style>
      .cls-1 {
        fill: none;
      }

      .cls-2 {
        fill: #221815;
      }

      .cls-3 {
        fill: #ffe100;
      }

      .cls-4 {
        fill: #b8193f;
      }

      .cls-5 {
        fill: #fff;
      }

      .cls-6 {
        fill: #005bac;
      }

      .cls-7 {
        clip-path: url(#clippath);
      }
    </style>
    <clipPath id="clippath">
      <path class="cls-1" d="M390.94,222.66c.07-12.49-5.34-22.53-15.6-29.03-.69-.44-1.39-.87-2.1-1.27-.77-.43-1.55-.85-2.34-1.22-11.64-5.67-23.69-4.48-34.15-2.53-5.83,1.33-9.45,2.5-11.74,3.46-1.46-1.46-3.03-2.84-4.74-4.07-.97-.67-6.37-4.22-14.15-5.76-.48-2.23-.98-3.97-1.26-4.88-.01-.05-.23-.79-.25-.84-1.29-3.88-4.26-11.63-9.68-19.89-6.8-10.34-15.02-17.72-24.49-21.96-15.15-6.65-29.01-3.93-42.64,8.54-6.19,6.41-11.53,14.18-15.87,23.1-.54,1.12-4.52,10.56-4.96,11.86-1.56,4.27-6.56,19.27-5.14,33.03.89,10.47,5.87,20.98,13,27.42.12.11.54.44.67.53,7.94,6.03,16.67,9.07,25.99,9.07,1.13,0,2.27-.05,3.42-.13,12.05-.93,21.23-4.61,21.51-4.72,1.18-.45,2.22-.93,3.33-1.4,3.32,4.59,7.6,8.48,12.65,11.05,6.29,3.17,11.23,4.29,15.81,4.29.67,0,1.31-.14,1.97-.18.25.54.51,1.09.92,1.73,9.83,18.52,24.19,24.87,33.26,24.47.58.03,1.17.05,1.76.05,15.78,0,33.72-11.18,44.46-28.18l.53-.88c3.53-5.77,8.87-14.5,9.85-31.66Z"/>
    </clipPath>
  </defs>
  <g id="_レイヤー_1-2" data-name="レイヤー 1">
    <g>
      <path class="cls-6" d="M426.45,230.13c0,117.76-84.41,196.43-213.22,196.43S0,347.89,0,230.13,95.46,16.9,213.22,16.9s213.22,95.46,213.22,213.23Z"/>
      <g>
        <g>
          <g>
            <path class="cls-2" d="M419.52,298.68c-1.3-.72-2.84-1.24-3.8-1.44-6.81-1.4-13.64-2.18-20.31-2.33-3.7-.09-7.16,0-10.49.16-1.79-20.11-8.09-39.31-19.27-58.27,1.62-9.72,2.12-22.36,2.53-32.66l.21-5.17c.84-18.75-5.88-43.26-14.38-52.47-2.12-2.29-5.31-4.04-8.12-4.45-21.54-3.21-49.87,5.35-81.73,24.67l-4-.6c-26.18-3.9-58.77-8.75-103.06,1.53-1.4.32-2.95.78-4.54,1.26-2.36.71-6.76,1.98-7.92,1.68-8.49-4.64-30.28-15.71-49.14-18.5-17.53-2.61-29.09.83-34.52,10.31-15.37,28.86-7.65,69.07-4.44,79.47-16,31.01-15.7,63.87-15.6,67.47-.01.84.03,1.72.04,2.58-.84.06-1.6.09-2.48.16-8.93.71-17.8,1.58-28.07,4.44-3.34.92-6.41,3.14-5.81,5.59.47,1.92,2.84,2.34,4.83,2.34,1.54,0,2.85-.25,2.89-.26,10.63-2.17,16.02-2.75,23.47-3.55l3.14-.34c.81-.09,1.61-.13,2.42-.2.81,9.68,2.85,19.99,6.48,30.18-4.44,1.67-9.56,3.89-15.71,7.07-.04.02-3.98,2.08-4.74,4.62-.23.78-.15,1.56.23,2.24.62,1.11,1.92,1.46,3.31,1.46,2.3,0,4.82-.95,4.86-.96,1.84-.81,3.57-1.58,5.21-2.31,3.72-1.66,6.96-3.05,10-4.23,3.93,8.9,9.09,17.53,15.73,25.34-6.84,3.95-15.09,9.33-24.43,16.6-1.94,1.52-3.19,3.45-3.41,5.32-.12,1.04.11,1.99.65,2.67.41.51,1.18.73,2.1.73,1.62,0,3.71-.68,5.14-1.7,10.26-7.27,19.16-12.89,26.15-17.04,7.51,7.31,16.5,13.67,27.22,18.49,35.27,15.84,67.77,19.4,108.95,20l4.04-.06,4.36.06c47.38-.7,84.81-7.46,111.26-20.11,15.35-7.34,27.56-17.24,36.7-29.54,7.64,2.61,16.9,6.62,25.83,12.66,1.14.79,3.45,2.17,5.5,2.17.92,0,1.79-.27,2.47-1.01.29-.3.62-.85.53-1.73-.17-1.86-2.23-4.46-3.56-5.43-9.12-6.66-18.29-10.95-26.01-13.74,5.25-8.67,9.17-18.37,11.72-29.12,5.64.9,12.22,2.35,19.44,4.77.04,0,2.17.71,4.26.71,1.57,0,3.11-.39,3.7-1.78.27-.63.26-1.33-.03-2.02-1.04-2.48-5.39-4.32-5.43-4.33-7.12-2.82-14.12-4.48-20.3-5.49,1.35-8.14,2-16.8,1.93-26,.02-1.57-.07-3.12-.1-4.67,2.94-.16,5.97-.26,9.16-.22,4.96.05,10.48.42,15.35.74,1.52.1,2.99.19,4.4.28,3.19.18,7.1-.41,7.57-2.73.17-.81-.11-2.03-2.36-3.29Z"/>
            <path class="cls-5" d="M354.53,236.81c1.76-9.13,2.29-22.42,2.71-33.11l.22-5.23c.76-16.97-5.67-38.25-11.49-44.55-.51-.56-1.4-.99-1.72-1.06-18.78-2.76-45.27,5.51-74.57,23.31-2.08,1.26-3.22,1.95-5.23,1.65l-5.91-.87c-25.25-3.76-56.69-8.45-98.98,1.36-1.2.27-2.52.68-3.88,1.08-5.38,1.6-11.46,3.43-16.3.79-7.98-4.35-28.38-14.75-45.5-17.28-12.59-1.85-20.45-.25-23.34,4.78-10.47,19.65-8.42,46.45-5.73,61.45.72-.85,1.42-1.62,2.07-2.27,2.63-2.63,5.32-3.6,7.16-2.33,1.91,1.32,1.15,4.66-.08,7.33-1.22,2.65-3.69,7.76-5.63,11.18,0,0,0,.01,0,.02-16.85,29.6-16.54,62.53-16.45,66.2,0,.74.03,1.51.04,2.26,9.31.02,14.99,1,17.89,1.74l.21.05c.06.01,7.62,1.41,7.18,5.04-.39,3.23-4.98,2.99-7.2,2.87l-.82-.06c-2.44-.37-8.96-1.24-16.86-1.4.79,8.79,2.71,18.09,6.01,27.25,4.52-1.04,7.71-1.28,9.83-1.4l.29-.02c2.79-.15,9.39-.25,9.73,3.07.3,2.87-4.87,4.24-7.11,4.7-1.04.21-2.16.36-3.41.53-1.75.24-3.74.52-6.09,1.02,3.77,8.24,8.76,16.15,15.14,23.24,6.63-3.22,10.45-4.39,10.53-4.42.06-.03,6.57-1.68,7.84,1.28,1.09,2.56-1.67,3.92-4.33,5.24-.85.42-1.74.86-2.55,1.35,0,0-.09.05-.26.13-1.03.51-2.75,1.4-5.02,2.62,6.17,5.56,13.32,10.43,21.71,14.2,33.54,15.07,64.84,18.45,104.46,19.04l4.04-.06,4.36.06c44.98-.67,81.88-7.25,106.54-19.04,12.36-5.91,22.38-13.54,30.17-22.9-3.71-.86-5.98-1.18-6.04-1.19-1.42-.14-5.85-1.17-7.34-3.19-.44-.61-.61-1.28-.47-1.94.75-3.62,7.32-2.9,10.09-2.43.35.03,3.75.38,9.03,1.65,5.2-7.94,9.03-16.98,11.53-27.1-2.33-.14-4.2-.17-5.48-.17-2.44.01-5.28-.05-5.28-.05-.74-.07-6.59-.76-6.82-3.68-.03-.39.05-1,.6-1.64,1.31-1.53,4.62-2.39,6.03-2.5l.31-.03c.84-.08,3.07-.3,5.31-.32h.61c1.62,0,3.81.05,6.42.22,1.29-7.68,1.93-15.9,1.86-24.75.01-1.24-.07-2.46-.09-3.69-6.85.85-12.47,1.97-16.3,2.74-1.96.39-3.38.68-4.24.78-1.38.2-2.56.3-3.55.3-2.31,0-3.58-.56-4-1.72-.29-.84-.23-1.74.18-2.59.74-1.52,2.53-2.81,5.19-3.71,2.09-.71,10.21-3.2,22.24-4.68-1.72-19.09-7.86-37.28-18.78-55.31-.7-1.16-.95-2.54-.69-3.87Z"/>
          </g>
          <g>
            <path class="cls-2" d="M115.31,318.49c-3.5,7.1-3.52,18.45,1.21,24.48,2.92,3.45,7.8,5.41,14.09,4.33,5.43-.94,8.52-5.9,9.55-9.85,2.23-8.84-.15-19.68-5.23-23.79-5.36-3.91-15.39-3.82-19.61,4.83Z"/>
            <path class="cls-2" d="M285.41,319.53c-3.5,7.1-3.52,18.45,1.21,24.48,2.92,3.45,7.8,5.41,14.09,4.33,5.43-.94,8.52-5.9,9.55-9.85,2.23-8.84-.14-19.68-5.23-23.79-5.36-3.91-15.39-3.82-19.61,4.83Z"/>
            <g>
              <path class="cls-2" d="M230.45,350.24c-1.17-4.16-4.32-7.43-8.44-8.76-7.86-2.55-15.82-1.48-20.77,2.79-5.16,4.56-5.41,12.65-2.18,16.84,2.99,3.87,7.72,5.9,14.48,6.2.31.01.63.02.94.02,5.41,0,10.44-1.98,13.31-5.27v-.02c2.83-3.28,3.82-7.69,2.67-11.81Z"/>
              <path class="cls-3" d="M219.91,347.99c-2.1-.68-4.24-1.01-6.25-1.01-3.19,0-6.05.84-7.91,2.45-2.45,2.17-2.29,6.18-1.26,7.52,1.68,2.18,4.74,3.34,9.35,3.54,4.27.17,7.46-1.38,8.79-2.9,1.34-1.56,1.79-3.55,1.24-5.49-.54-1.94-2.02-3.48-3.96-4.11Z"/>
            </g>
          </g>
        </g>
        <g>
          <g>
            <path class="cls-2" d="M174.31,408.32c-1.48-4.63-4.48-8.3-7.74-11.99-11.57-11.1-31.76-15.56-47.81-10.64-11.58,3.03-24.94,13.2-26.89,28.3-1.79,11.76,2.42,22.06,11.65,27.76,9.31,4.78,19.42,4.67,29.7-.17.87-.33,1.3-.24,3.57.72,1.42.61,3.17,1.34,5.28,1.7,3.57,1.03,6.76,1.46,9.57,1.46,7.46,0,12.38-3.02,15.44-6.04,7.97-7.84,10.94-20.61,7.23-31.1Z"/>
            <path class="cls-5" d="M163.98,411.91c-.03-.07-.05-.13-.07-.2-.83-2.65-3.05-5.31-5.25-7.82-8.41-8.05-24.41-11.47-36.92-7.67-8.41,2.21-17.79,9.67-19.04,19.29-.55,3.62-1.01,12.25,6.19,16.72,5.93,3.02,12.4,2.87,20-.7,1.9-.75,3.63-1.02,5.18-1.02,2.92,0,5.24.98,6.98,1.72,1.12.47,2.08.88,2.97,1.01.27.04.53.09.78.17,6.51,1.94,11.44,1.34,14.59-1.78,4.91-4.82,6.87-13.3,4.58-19.71Z"/>
          </g>
          <g>
            <path class="cls-2" d="M338.19,416.28c-1.98-15.21-15.33-25.39-26.69-28.34-16.27-4.97-36.47-.53-48.34,10.91-2.82,3.2-5.95,7-7.44,11.65-3.71,10.49-.74,23.27,7.22,31.1,3.07,3.03,8,6.05,15.45,6.05,2.81,0,5.99-.43,9.57-1.46,2.11-.36,3.86-1.1,5.28-1.7,2.29-.98,2.71-1.06,3.23-.88,10.61,5,20.73,5.11,30.44.1,8.83-5.48,13.04-15.78,11.27-27.43Z"/>
            <path class="cls-5" d="M327.35,417.81c-1.27-9.74-10.64-17.21-18.84-19.34-3.53-1.08-7.32-1.6-11.13-1.6-9.92,0-20.02,3.48-26.32,9.54-1.88,2.17-4.1,4.83-4.94,7.48-.02.07-.04.13-.07.2-2.29,6.41-.33,14.89,4.56,19.7,3.17,3.11,8.06,3.72,14.6,1.78.25-.07.51-.13.78-.17.89-.13,1.85-.53,2.97-1.01,2.67-1.14,6.69-2.83,11.82-.85,7.93,3.73,14.41,3.87,20.73.64,6.81-4.24,6.35-12.88,5.82-16.38Z"/>
          </g>
        </g>
        <g>
          <g class="cls-7">
            <g>
              <polygon class="cls-6" points="343.22 119.47 162.7 144.31 260.41 297.06 440.22 273.72 343.22 119.47"/>
              <g>
                <polygon class="cls-4" points="259.23 189.14 229.82 141.74 174.62 149.69 204.58 195.88 259.23 189.14"/>
                <polygon class="cls-4" points="343.84 228.59 314.43 181.19 259.23 189.14 289.19 235.34 343.84 228.59"/>
                <polygon class="cls-4" points="369.08 174.45 339.68 127.05 284.47 135 314.43 181.19 369.08 174.45"/>
                <polygon class="cls-4" points="263.94 289.48 318.59 282.74 289.19 235.34 233.98 243.28 263.94 289.48"/>
                <polygon class="cls-4" points="373.8 274.79 428.45 268.05 399.04 220.65 343.84 228.59 373.8 274.79"/>
              </g>
            </g>
          </g>
          <path class="cls-2" d="M390.94,222.66c.07-12.49-5.34-22.53-15.6-29.03-.69-.44-1.39-.87-2.1-1.27-.77-.43-1.55-.85-2.34-1.22-11.64-5.67-23.69-4.48-34.15-2.53-5.83,1.33-9.45,2.5-11.74,3.46-1.46-1.46-3.03-2.84-4.74-4.07-.97-.67-6.37-4.22-14.15-5.76-.48-2.23-.98-3.97-1.26-4.88-.01-.05-.23-.79-.25-.84-1.29-3.88-4.26-11.63-9.68-19.89-6.8-10.34-15.02-17.72-24.49-21.96-15.15-6.65-29.01-3.93-42.64,8.54-6.19,6.41-11.53,14.18-15.87,23.1-.54,1.12-4.52,10.56-4.96,11.86-1.56,4.27-6.56,19.27-5.14,33.03.89,10.47,5.87,20.98,13,27.42.12.11.54.44.67.53,7.94,6.03,16.67,9.07,25.99,9.07,1.13,0,2.27-.05,3.42-.13,12.05-.93,21.23-4.61,21.51-4.72,1.18-.45,2.22-.93,3.33-1.4,3.32,4.59,7.6,8.48,12.65,11.05,6.29,3.17,11.23,4.29,15.81,4.29.67,0,1.31-.14,1.97-.18.25.54.51,1.09.92,1.73,9.83,18.52,24.19,24.87,33.26,24.47.58.03,1.17.05,1.76.05,15.78,0,33.72-11.18,44.46-28.18l.53-.88c3.53-5.77,8.87-14.5,9.85-31.66ZM262.41,233.18c-.08.03-8.08,3.2-18.37,4-11.87.92-19.45-4.84-21.88-6.66-5-4.53-8.79-12.66-9.45-20.34-1.18-11.51,3.16-24.52,4.61-28.48.39-1.06,3.95-9.57,4.44-10.59,3.84-7.89,8.52-14.72,13.66-20.06,10.24-9.37,19.41-11.29,30.57-6.38,7.49,3.36,14.15,9.4,19.77,17.96,4.92,7.49,7.54,14.61,8.32,16.9l.28.99c.1.33.23.76.37,1.26-3.12.38-6.39,1.21-9.76,2.67-.86.37-1.62.86-2.44,1.29-1.82-1.99-4.05-3.77-6.3-5.03-6.73-3.79-14.11-3.84-20.25-.13-6.59,4-10.46,11.71-9.86,19.44.23,6.03,2.69,11.16,7.12,14.82,2.87,2.37,6.27,3.78,9.4,4.6,0,.53-.07,1.05-.05,1.58.03,3.82.78,7.6,2.04,11.21-.76.31-1.43.63-2.24.94ZM264.12,208.49c-1.43-.51-2.96-1.24-4.22-2.39-1.79-1.63-2.7-3.75-2.82-6.7-.29-3.87,1.51-7.59,4.61-9.47,2.17-1.32,4.47-1.53,7.04-.66,2.02.68,3.67,1.86,4.9,2.98-4.48,4.46-7.75,9.99-9.5,16.23ZM306.89,244.88c-7.63,2.01-11.53,2.43-19.54-1.62-8.18-4.17-13.72-13.13-13.78-22.47-.43-11.82,5.62-21.89,15.78-26.29,3.44-1.49,6.75-2.04,9.77-2.05,8.05,0,14.03,3.93,14.85,4.49,9.03,6.49,13.34,17.88,10.69,28.51-2.49,11.49-10.8,17.57-17.75,19.43ZM371.63,248.82l-.6,1.01c-8.69,13.74-23.71,23.26-36.56,22.57-6.52.09-15.93-5.16-23.02-17.53,4.14-1.36,8.46-3.71,12.35-7.14,1.96,1.41,4.3,2.61,7,3.2,1.02.22,2.2.38,3.49.38,3.21,0,7.18-.98,11.47-4.38,4.8-4.81,6.43-10.35,4.84-17.49-2.82-8.54-9.53-11.12-14.31-12.03-.27-5.63-1.81-11.14-4.48-16.14,2.05-.65,4.64-1.36,7.15-1.94,8.49-1.57,18.35-2.62,27.19,1.67.59.28,1.14.58,1.7.89.53.3,1.04.61,1.59.96,7.15,4.53,10.61,10.99,10.57,19.46-.82,14.14-4.94,20.88-8.38,26.5ZM335.17,228.39c2.53.61,4.13,1.69,4.89,3.94.65,2.96.13,4.69-1.56,6.43-1.71,1.35-3.44,1.83-5.18,1.51-.94-.17-1.76-.57-2.49-1,1.88-3.16,3.39-6.77,4.33-10.89Z"/>
        </g>
      </g>
    </g>
    <g>
      <path class="cls-6" d="M143.71,88.93h0c-.06-.74-.13-1.58-2.44-6.95,0-.02-1.4-3.18-1.4-3.18-.5-1.12-.99-2.19-1.79-2.97-.35-1.95-1.68-3.86-3.62-5.11-2.76-1.77-6.17-1.89-9.35-.31-.01,0-.56.28-1.28.74-1.03-6.03-2.83-16.94-3.19-19.31-.25-1.64,1.66-5.44,2.83-6.55,3.01-2.87,10.05-8.77,10.12-8.82l1.29-1.08-12.25-23.59-3.51,1.63c-.09.04-9.63,4.39-16.26,3.82-7.92-.68-18.74-10.32-22.25-14.04,0,0-3-3.2-3-3.2l-3,3.2c-3.5,3.72-14.32,13.36-22.25,14.04-6.63.57-16.17-3.78-16.27-3.83,0,0-3.51-1.63-3.51-1.63l-12.25,23.59,1.29,1.08c.07.06,7.11,5.96,10.12,8.83,1.17,1.11,3.08,4.92,2.83,6.55-.36,2.37-2.16,13.28-3.19,19.31-.72-.46-1.27-.73-1.28-.74-3.18-1.57-6.59-1.46-9.35.31-1.94,1.25-3.27,3.16-3.62,5.11-.81.77-1.29,1.84-1.79,2.95,0,.01-1.4,3.18-1.4,3.18-2.32,5.39-2.39,6.23-2.44,6.97-.22,2.67.52,6.06,4.87,7.78.13,4.42,1.98,11.95,8.38,18.68,8.69,9.15,18.25,13.27,27.3,16.36,7.52,2.57,17.8,7.38,22.02,12.46l3.53,4.25,3.53-4.25c4.22-5.08,14.5-9.89,22.02-12.46,9.04-3.09,18.61-7.21,27.3-16.36,6.39-6.73,8.24-14.26,8.38-18.68,4.35-1.73,5.08-5.11,4.87-7.79Z"/>
      <path class="cls-5" d="M141.61,89.1c-.04-.49-.1-1.24-2.27-6.29l-1.39-3.17c-.62-1.38-1.04-2.3-1.88-2.67,0-.02,0-.03,0-.05.05-1.57-1.05-3.34-2.74-4.43-2.12-1.36-4.78-1.43-7.28-.2-.13.06-3.02,1.63-3.63,2.91-.55-2.83-3.4-20.07-3.85-23.05-.39-2.57,2.04-7.04,3.46-8.39,3.09-2.95,10.22-8.92,10.22-8.92l-10.55-20.31-1.69.78c-.1.05-10.1,4.63-17.33,4.01-10.41-.89-23.49-14.63-23.62-14.77l-1.44-1.54-1.44,1.54c-.13.14-13.22,13.88-23.62,14.77-7.23.62-17.23-3.97-17.33-4.01l-1.69-.78-10.55,20.31s7.13,5.97,10.22,8.92c1.41,1.35,3.85,5.82,3.46,8.39-.45,2.98-3.3,20.22-3.85,23.05-.61-1.28-3.5-2.85-3.63-2.91-2.5-1.24-5.16-1.17-7.28.2-1.69,1.08-2.79,2.86-2.74,4.42,0,.02,0,.04,0,.06-.85.37-1.26,1.29-1.88,2.67l-1.39,3.17c-2.17,5.05-2.23,5.8-2.27,6.29-.38,4.68,3.38,5.71,4.9,6.1-.3,3.42.94,11.57,7.77,18.75,8.38,8.82,17.66,12.82,26.45,15.82,8.15,2.79,18.46,7.69,22.96,13.11l1.92,2.31,1.92-2.31c4.5-5.41,14.81-10.32,22.96-13.11,8.79-3,18.08-7,26.45-15.82,6.83-7.18,8.06-15.33,7.77-18.75,1.52-.39,5.28-1.42,4.9-6.1ZM137.53,79.53c0-.08.01-.17.01-.25,0,.09,0,.17-.01.25ZM17.7,79.53c0-.08-.01-.17-.01-.25,0,.08,0,.17.01.25Z"/>
      <g>
        <path class="cls-6" d="M120.75,76.97c.37,1.64,1.79,6.05.6,11.14-1.2,5.08-4.19,11.06-12.93,15.85-8.75,4.78-14.83,6.08-19.66,8.22-5.91,2.62-11.15,7.62-11.15,7.62,0,0-5.24-5.01-11.15-7.62-4.83-2.14-10.91-3.44-19.66-8.22-8.75-4.78-11.74-10.76-12.93-15.85-1.2-5.08.22-9.49.6-11.14.37-1.64,3.64-21.44,4.11-24.52.52-3.44-2.39-8.52-4.04-10.09-3.18-3.03-9.12-8-9.12-8l8.97-17.27s10.47,4.86,18.31,4.19c11.31-.97,24.9-15.45,24.9-15.45,0,0,13.59,14.48,24.9,15.45,7.85.67,18.31-4.19,18.31-4.19l8.97,17.27s-5.94,4.97-9.12,8c-1.64,1.57-4.56,6.65-4.04,10.09.47,3.07,3.74,22.87,4.11,24.52ZM44.29,29.8h-2.24l-.56,7.84h-.15l-.62-7.84h-2.24l1.28,10.3h3.39l1.14-10.3ZM49.48,38.16h-1.94v-2.54h1.59v-1.94h-1.59v-1.94h1.88v-1.94h-4.11v10.31h4.17v-1.94ZM55.63,29.8h-2.1v4.96h-.03l-1.43-4.96h-1.87v10.31h2.1v-5.02h.03l1.45,5.02h1.85v-10.31ZM61.25,29.8h-4.75v1.94h1.26v8.36h2.23v-8.36h1.26v-1.94ZM66.16,29.8h-4.33v10.31h2.23v-4.48h1.71v-1.94h-1.71v-1.94h2.1v-1.94ZM75.52,16.11c0,1.32.71,2.56,1.56,3.46.12.13.25.18.14-.07-.32-.73-.46-1.58-.4-2.64-.19-.08-.32-.28-.31-.5,0-.14.07-.26.17-.35.1-.09.23-.13.37-.12.13,0,.26.07.35.17.09.1.13.23.13.37-.01.22-.16.39-.36.45,0,.08,0,.17,0,.27.05.8.26,1.64.39,2.1.04.14.13.31.29.02,0,0,.29-.82.35-1.3.01-.1.02-.21.02-.33-.13-.08-.21-.23-.21-.4,0-.25.22-.45.48-.44.25,0,.45.22.44.48,0,.21-.16.39-.36.43-.01.63-.12,1.16-.34,1.61-.05.12-.1.31.11.07.78-.89,1.41-2.06,1.4-3.3,0-1.64-1.13-2.71-2.11-3.31-.98.59-2.1,1.67-2.11,3.31ZM70.12,18.26c.26,1.12.94,2.52,2.49,3.03,1.18.39,2.48.15,3.57-.32.28-.12.09-.14-.04-.12-.5.06-1.03,0-1.64-.18-.1.18-.32.27-.52.21-.24-.07-.39-.33-.32-.57.07-.24.33-.39.57-.32.16.05.28.17.32.32.12.04.23.07.32.09.47.1,1.34.07,1.34.07.32-.06.19-.19.07-.28-.4-.27-1.14-.72-1.88-1.02-.1-.04-.18-.06-.26-.09-.12.17-.33.26-.54.2-.13-.03-.24-.12-.31-.23-.07-.12-.09-.25-.06-.38.03-.13.12-.24.23-.31.12-.07.25-.09.38-.06.21.05.36.24.38.44,1.02.27,1.79.66,2.39,1.19.19.18.19.04.11-.12-.6-1.08-1.56-2.15-2.81-2.55-1.56-.5-2.93.23-3.8.98ZM72.15,31.29l-1.53-1.5h-2.39l-1.47,1.5v7.32l1.47,1.49h2.48l1.43-1.49v-7.32ZM73,27.05c1.14.1,2.68-.11,3.65-1.44.73-1,.91-2.32.8-3.49-.03-.31-.1-.13-.13,0-.09.49-.32.98-.68,1.5.14.15.16.38.04.56-.14.21-.43.27-.64.12-.21-.14-.27-.43-.13-.64.09-.14.25-.21.4-.2.07-.1.13-.19.18-.28.24-.42.48-1.25.48-1.25.04-.32-.13-.24-.24-.15-.38.3-1.04.86-1.55,1.47-.07.08-.11.15-.16.22.12.16.14.39.03.58-.07.11-.19.19-.32.22-.13.03-.27,0-.38-.07-.12-.07-.19-.18-.22-.32-.03-.13,0-.27.06-.38.12-.19.34-.27.54-.22.57-.89,1.18-1.5,1.87-1.9.23-.13.09-.17-.08-.14-1.21.24-2.52.82-3.29,1.89-.96,1.33-.68,2.86-.24,3.91ZM78.57,31.29l-1.5-1.5h-3.84v10.31h2.23v-4.13h.95v4.13h2.17v-4.13l-1.12-1.01,1.12-.99v-2.69ZM82.23,27.05c.45-1.05.72-2.59-.24-3.91-.77-1.07-2.08-1.65-3.29-1.89-.17-.03-.31,0-.08.14.69.4,1.3,1.01,1.87,1.9.2-.05.42.03.54.22.07.12.09.25.06.38-.03.13-.11.24-.22.32-.11.07-.25.09-.38.07-.13-.03-.24-.11-.32-.22-.12-.18-.1-.41.03-.58-.05-.07-.1-.14-.16-.22-.51-.61-1.17-1.17-1.55-1.47-.12-.09-.29-.17-.24.15,0,0,.24.83.48,1.25.05.08.11.18.18.28.15,0,.31.06.4.2.14.21.08.5-.13.64-.21.14-.5.08-.64-.12-.12-.18-.1-.41.04-.56-.36-.52-.58-1.01-.68-1.5-.03-.13-.1-.31-.13,0-.1,1.18.07,2.5.8,3.49.97,1.32,2.51,1.53,3.65,1.44ZM83.83,38.16h-1.94v-2.54h1.58v-1.94h-1.58v-1.94h1.88v-1.94h-4.11v10.31h4.17v-1.94ZM85.1,18.26c-.87-.75-2.24-1.48-3.8-.98-1.25.4-2.21,1.47-2.81,2.55-.09.15-.09.3.11.12.59-.53,1.37-.92,2.39-1.19.02-.21.16-.39.38-.44.13-.03.27-.01.38.06.12.07.2.18.23.31.03.13.01.27-.06.38-.07.12-.18.2-.31.23-.21.05-.42-.03-.54-.2-.08.02-.16.05-.26.09-.74.3-1.48.75-1.88,1.02-.12.08-.25.22.07.28,0,0,.87.03,1.34-.07.09-.02.21-.05.32-.09.04-.15.16-.27.32-.32.24-.07.5.07.57.32.07.24-.07.5-.32.57-.21.06-.42-.03-.52-.21-.6.18-1.14.24-1.64.18-.13-.02-.32,0-.04.12,1.09.46,2.4.71,3.57.32,1.56-.51,2.23-1.91,2.49-3.03ZM89.36,29.8h-4.75v1.94h1.26v8.36h2.23v-8.36h1.26v-1.94ZM99.56,40.1l-2.24-5.49,1.94-4.82h-2.29l-1.46,4.4h-.03v-4.4h-2.23v10.31h2.23v-4.4h.03l1.63,4.4h2.43ZM105.12,31.29l-1.53-1.5h-2.39l-1.47,1.5v7.32l1.47,1.49h2.48l1.43-1.49v-7.32ZM110.51,29.8h-4.33v10.31h2.23v-4.48h1.71v-1.94h-1.71v-1.94h2.1v-1.94ZM116.72,38.61v-8.81h-2.23v8.37h-.98v-8.37h-2.23v8.81l1.49,1.49h2.51l1.45-1.49ZM68.99,38.16h.93v-6.42h-.93v6.42ZM101.96,38.16h.92v-6.42h-.92v6.42ZM75.46,34.04h.95v-2.3h-.95v2.3Z"/>
        <g>
          <g>
            <path class="cls-6" d="M26.59,82.83c-2.49.61-6.09-.71-6.41-3.56,0-.02-3.98,8.69-4.08,10.02-.23,2.84,1.79,3.16,3.42,3.59l7.07-10.05Z"/>
            <path class="cls-6" d="M26.07,77.9c3.94,4.65.25,4.74-1.98,3.06l1.98-3.06Z"/>
          </g>
          <g>
            <path class="cls-6" d="M128.64,82.83c2.49.61,6.09-.71,6.41-3.56,0-.02,3.98,8.69,4.08,10.02.23,2.84-1.79,3.16-3.42,3.59l-7.07-10.05Z"/>
            <path class="cls-6" d="M129.16,77.9c-3.94,4.65-.25,4.74,1.98,3.06l-1.98-3.06Z"/>
          </g>
          <path class="cls-6" d="M127.14,112.24c-8.34,8.78-17.51,12.46-25.45,15.18-4.32,1.48-18.07,6.65-24.07,13.87-6-7.23-19.75-12.39-24.07-13.87-7.94-2.71-17.12-6.4-25.45-15.18-6.79-7.15-7.3-14.81-7.08-16.93.36-3.72,6.33-9.33,6.33-9.33,1.63-1.79,2.35-7.72-1.24-9.03l-2.86,3.78c-.91-.85-1.53-1.97-1.6-3.89-.04-1.24,2.54-4.23,6.43-2.31,1.94.96,3.7,4.96,3.89,9.96.77,20.47,21.87,25.77,31.5,30.15,9.05,4.12,14.14,9.35,14.14,9.35,0,0,5.09-5.23,14.14-9.35,9.63-4.39,30.73-9.68,31.5-30.15.19-5,1.96-9,3.89-9.96,3.88-1.92,6.46,1.07,6.43,2.31-.06,1.93-.68,3.04-1.6,3.89l-2.86-3.78c-3.59,1.31-2.87,7.24-1.24,9.03,0,0,5.97,5.61,6.33,9.33.21,2.11-.29,9.78-7.08,16.93ZM29.75,101.91l4.52-.38-1.06-1.89-2.61.58v-.02s1.84-1.93,1.84-1.93l-1.06-1.89-2.69,3.65-2.59,1.45,1.06,1.89,2.59-1.45ZM31.71,110.07l4.95-5.27-1.83-2.55-6.54,3.05,1.23,1.72,1.17-.61.73,1.03-.95.91,1.24,1.73ZM38.15,115.61l4.38-5.58-2.01-1.57-2.68,2.26-.15-.12,1.52-3.17-2.01-1.57-4.38,5.58,1.56,1.22,2.78-3.54.07.06-2.06,4.1.63.5,3.49-2.98.07.06-2.78,3.54,1.56,1.22ZM43.91,119.29l2.42-6.81-2.7-1.61-4.77,5.41,1.82,1.08.82-1.03,1.08.64-.51,1.22,1.83,1.09ZM49.51,122.03l3.08-6.39-1.83-.88-1.48,3.07h-.02s.23-3.69.23-3.69l-1.64-.78-3.08,6.39,1.83.89,1.5-3.11h.02s-.23,3.73-.23,3.73l1.62.78ZM55.68,124.56l1.41-7.09-2.9-1.2-3.94,6.05,1.96.81.67-1.14,1.17.48-.33,1.28,1.97.81ZM61.43,125.8l.8-2-.99-1.51-1.42-.68.54-1.34.83.33-.36.88,2.01.81.47-1.17-1.03-1.52-2.12-.85-1.7.43-.79,1.97,1.02,1.52,1.41.66-.55,1.38-.83-.33.35-.87-2.01-.81-.46,1.16.92,1.48,2.23.9,1.7-.43ZM66.56,129.17l2.94-6.46-1.97-.9-1.19,2.62-.83-.38,1.19-2.62-1.97-.9-2.94,6.46,1.97.9,1.19-2.62.82.38-1.19,2.62,1.97.9ZM73.01,124.64l-1.89-1.06-3.45,6.2,1.89,1.05,3.45-6.2ZM89.21,128.97l-.72-1.13-1.58,1.01-.94-1.48,1.3-.82-.72-1.13-1.3.82-.72-1.13,1.54-.98-.71-1.13-3.37,2.14,3.8,5.99,3.42-2.17ZM94.42,124.99l-1-1.91-1.79-.22-1.44.64-.67-1.28.79-.42.44.84,1.92-1.01-.58-1.11-1.83-.2-2.03,1.06-.78,1.57.99,1.88,1.81.21,1.41-.64.69,1.32-.79.42-.44-.83-1.92,1.01.58,1.1,1.72.26,2.13-1.12.78-1.57ZM98.53,124.37l-2.22-5.31,1.13-.47-.52-1.23-4.25,1.78.52,1.23,1.13-.47,2.22,5.31,2-.84ZM102.09,122.96l-.53-1.26-2,.84.53,1.26,2-.84ZM109.88,119.36l-3.14-6.36-1.13.56-1.43,1.14.43.88.79-.39,2.54,5.13,1.94-.96ZM115.2,115.09l-2.59-4.32-1.75-.15-2.06,1.24-.64,1.58,1.2,2,1.58.11,1.48-.88.76,1.27-.79.47-.48-.81-1.8,1.08.64,1.07,1.74.16,2.03-1.21.69-1.61ZM120.63,111.07l-1.37-1.79-1.63.07-1.37,1.05-.94-1.23.76-.58.57.75,1.67-1.28-.76-.99-1.76.05-1.85,1.41-.49,1.67,3.06,4,1.74-.04,1.88-1.44.48-1.66ZM125.48,106.32l-1.72-1.69-1.66.31-1.17,1.14-.93-.91,1.69-1.73-.96-.93-3.16,3.23,2.14,2.1,1.78-.37,1.02-1,1.22,1.2-.59.6-.75-.74-1.52,1.55.98.96,1.72-.28,1.67-1.71.23-1.71ZM110.12,112.62l.82,1.37.79-.47-.82-1.37-.79.47ZM44.12,112.91l-1.79,2.36.81.49,1.16-2.74-.18-.11ZM53.53,120.82l.87.36.75-2.88-.19-.08-1.43,2.6ZM117.07,111.46l.94,1.23.76-.58-.94-1.22-.76.58ZM31.86,105.75l.55.77,2.16-2.05-.12-.17-2.59,1.45Z"/>
        </g>
      </g>
      <g>
        <path class="cls-5" d="M116.57,44.67c-1.32,2.46-2.35,5.53-1.96,8.08.39,2.59,3.73,22.85,4.14,24.66.05.21.1.43.17.7.48,1.92,1.38,5.49.43,9.53-.93,3.95-3.17,9.74-11.93,14.53-5.67,3.1-10.11,4.67-14.03,6.06-1.95.69-3.79,1.34-5.48,2.09-4.36,1.93-8.27,5.03-10.29,6.76-2.01-1.73-5.93-4.83-10.29-6.76-1.69-.75-3.53-1.4-5.48-2.09-3.92-1.39-8.36-2.96-14.03-6.06-8.76-4.79-11-10.59-11.93-14.53-.95-4.03-.05-7.61.43-9.53.07-.26.12-.49.17-.7.41-1.81,3.74-22.07,4.14-24.66.39-2.55-.65-5.63-1.96-8.08h77.9ZM78.97,67.91c.16-3.71.46-7.51.78-11.51,4.11-.85,6.01,3.77,6.01,3.77l4.4-7.5s-2.29-2.89-5.51-2.78c-.79.03-2.55.47-3.66,1.58-1.11,1.11-7.71,7.26-7.71,7.26v8.98s-4.95,4.38-4.95,4.38c0,0,2.65,1.44,5.01,1.7.16,10.06-.54,18.91-.54,21.4s-2.57,8.95-2.57,8.95l8.68-7.66-.05-23.18c4.57-1.95,9.89-5.38,9.89-5.38,0,0-6.66.61-9.77,0ZM64.04,63.81l-5.44,6.43s1.1.23,1.68.44c.58.21,2.16,2.17,2.56,5.04.74,5.34-2.43,8.23-2.43,8.23-1.52-1.09-5.19-6.87-5.19-7.41,0-.68,2.39-6.79,2.39-6.79l-4.06-5.26-6.01,5.85s3.97,2.18,5.55,5.97c-1.31,3.18-2.43,5.23-2.73,5.63,0,0,.36,2.33,3.43,5.88,2.33,2.69,5.55,3.34,5.55,3.34,0,0,3.94-7.27,6.83-12.69,3.43-6.45.47-12.02-2.11-14.66ZM99.66,78.19l4-2.96s-3.25-4.62-5.15-4.57c-1.14.03-4.13,2.12-4.19,2.15l.36-8.67,2.57-1.49-5.16-3.59-5.47,3.71s1.26.7,1.79,1.09c.19.14.62.52.78,1.45.13.75,0,4.69,0,5.07,0,7.71-.6,15.95-.77,16.43l-.74.98,4.67,2.11,5.45-4.07-3.62-1.78s.01-2.45,0-2.7c2.69,2.79,7.24,8.1,7.24,8.1l5.91-3.25s-1.39-1.3-2.06-2.01c-3.36-3.6-4.81-5.41-5.63-5.99ZM93.85,75.66c0-.3.07-1.06,1.68.23.93.75,1.58,1.39,1.55,1.69-.02.3-.87.54-1.77.81-.9.27-1.54.64-1.54.27,0-.45.07-2.18.07-3Z"/>
        <g>
          <path class="cls-4" d="M40.37,45.38c.13.27.27.58.41.9l5.64,3.39,7.14-4.29h-13.19Z"/>
          <polygon class="cls-4" points="54.88 45.38 62.02 49.67 69.15 45.38 54.88 45.38"/>
          <polygon class="cls-4" points="70.48 45.38 77.62 49.67 84.75 45.38 70.48 45.38"/>
          <polygon class="cls-4" points="86.08 45.38 93.22 49.67 100.36 45.38 86.08 45.38"/>
          <path class="cls-4" d="M114.87,45.38h-13.19l7.14,4.29,5.64-3.39c.14-.32.28-.63.41-.9Z"/>
          <path class="cls-4" d="M46.42,49.67l-4.19,2.63c0,.29-.03.57-.07.85-.07.5-.26,1.67-.51,3.24l4.77,2.87,7.8-4.69-7.8-4.9Z"/>
          <polygon class="cls-4" points="69.82 54.57 62.02 49.67 54.22 54.57 62.02 59.26 69.82 54.57"/>
          <path class="cls-4" d="M79.03,50.55l-1.41-.89-7.8,4.9,3.01,1.81c1.86-1.74,4.87-4.56,6.2-5.83Z"/>
          <path class="cls-4" d="M92.6,52.5l-2.77,4.72.73.44,1.55-1.06,2.56,1.78,6.35-3.82-7.8-4.9-1.95,1.22c.28.29.44.49.47.52l.86,1.09Z"/>
          <path class="cls-4" d="M113.59,56.39c-.25-1.57-.44-2.74-.51-3.24-.04-.28-.06-.56-.07-.85l-4.19-2.63-7.8,4.9,7.8,4.69,4.77-2.87Z"/>
          <path class="cls-4" d="M46.42,59.26l-5.83,3.67c-.12.73-.24,1.46-.36,2.2l6.04,3.63,5.99-5.83-5.83-3.67Z"/>
          <path class="cls-4" d="M62.02,59.26l-6.71,4.21,1.95,2.52,1.51.91,5.16-6.1,1.56,1.59c.84.86,1.62,1.87,2.28,3l2.05-1.23-7.8-4.9Z"/>
          <path class="cls-4" d="M82.77,62.95l.34-.23-1.73-1.09c-.11,1.49-.21,3-.29,4.49.33.02.67.03,1.02.04l3.09-1.86-2.43-1.35Z"/>
          <polygon class="cls-4" points="71.26 65.03 71.26 63.26 69.82 64.16 71.26 65.03"/>
          <polygon class="cls-4" points="99.91 63.46 96.66 65.33 96.6 66.82 101.02 64.16 99.91 63.46"/>
          <path class="cls-4" d="M108.82,68.85l6.2-3.72c-.12-.74-.24-1.47-.36-2.2l-5.83-3.67-7.8,4.9,7.8,4.69Z"/>
          <path class="cls-4" d="M46.55,72.12l-2.4-1.32,1.55-1.51-6.9,4.34c-.01.07-.02.14-.04.21l7.65,4.6,4.18-2.51c-1.5-2.37-4.02-3.8-4.04-3.81Z"/>
          <path class="cls-4" d="M59.37,72.51c-.17-.05-.39-.11-.6-.16-.49,1.29-.95,2.54-1.24,3.4l3.38,2.03c.03-.55.02-1.14-.07-1.78-.27-1.92-1.14-3.14-1.47-3.49Z"/>
          <path class="cls-4" d="M84.15,72.96c-1.05.56-2.16,1.13-3.27,1.65v1.87s4.54-2.72,4.54-2.72l-1.27-.8Z"/>
          <path class="cls-4" d="M87.12,74.78c.02-.7.03-1.41.04-2.12l-1.75,1.1,1.71,1.03Z"/>
          <path class="cls-4" d="M105.32,74.06l1.14,1.62-1,.74,3.36,2.02,7.65-4.6c-.01-.07-.02-.14-.04-.21l-7.62-4.79-5.07,3.19c.61.71,1.15,1.43,1.57,2.03Z"/>
          <path class="cls-4" d="M37.28,84.15l1.34-.8-1.33-.84c-.03.52-.03,1.07,0,1.64Z"/>
          <path class="cls-4" d="M48.35,82.25l-.13-.85s.33-.52.78-1.33l-2.58-1.62-7.8,4.9,7.8,4.69,3.48-2.09c-1.27-2.12-1.52-3.49-1.55-3.7Z"/>
          <path class="cls-4" d="M60.2,80.71c.19-.41.37-.89.5-1.44l-1.07.67c.19.27.38.53.56.77Z"/>
          <path class="cls-4" d="M66.83,81.47c-.78,1.44-1.86,3.46-2.92,5.42l5.9-3.55-2.98-1.87Z"/>
          <polygon class="cls-4" points="80.9 80.5 80.91 86.06 85.42 83.35 80.9 80.5"/>
          <path class="cls-4" d="M71.21,84.19c.02-.57.03-1.15.05-1.75l-1.44.91,1.4.84Z"/>
          <path class="cls-4" d="M86.68,84.1c.04-.48.07-1.02.11-1.62l-1.37.86,1.26.76Z"/>
          <path class="cls-4" d="M104.99,80.85c.64.71,1.3,1.42,1.79,1.95.51.54,4.01,3.82,4.01,3.82,0,0-.95.52-2.26,1.24l.29.18,7.8-4.69-7.8-4.9-3.83,2.41Z"/>
          <path class="cls-4" d="M117.95,82.51l-1.33.84,1.34.8c.02-.57.02-1.12,0-1.64Z"/>
          <path class="cls-4" d="M46.42,88.04l-6.61,4.15c.48.81,1.06,1.66,1.75,2.52l4.86,2.92,7.8-4.69-7.8-4.9Z"/>
          <path class="cls-4" d="M62.02,97.63l7.8-4.69-6.84-4.3c-1.42,2.63-2.59,4.8-2.59,4.8l-1.47-.3c-.09-.02-1.46-.31-3.12-1.2l-1.58.99,7.8,4.69Z"/>
          <path class="cls-4" d="M70.82,93.54c.02-.38.03-.8.06-1.26l-1.06.66,1,.6Z"/>
          <polygon class="cls-4" points="80.93 95.64 85.42 92.94 80.92 90.11 80.93 95.64"/>
          <polygon class="cls-4" points="89.08 90.64 85.42 92.94 93.22 97.63 101.02 92.94 95.95 89.75 92.62 92.24 89.08 90.64"/>
          <path class="cls-4" d="M108.82,97.63l4.86-2.92c.68-.86,1.26-1.71,1.75-2.52l-6.61-4.15-7.8,4.9,7.8,4.69Z"/>
          <path class="cls-4" d="M45.2,98.39c1.1.9,2.35,1.76,3.77,2.55,1.5.83,2.9,1.56,4.23,2.2l1.02-.61-7.8-4.9-1.21.76Z"/>
          <path class="cls-4" d="M68.89,101.95l-6.88-4.32-7.8,4.9,6.1,3.67c.72.27,1.42.53,2.11.77l5.87-3.53c.09-.18.12-.24.14-.31.14-.37.29-.77.45-1.18Z"/>
          <polygon class="cls-4" points="73.03 104.47 77.62 107.22 85.42 102.53 79.41 98.75 73.03 104.47"/>
          <path class="cls-4" d="M85.42,102.53l7.39,4.44c.69-.25,1.39-.5,2.11-.77l6.1-3.67-7.8-4.9-7.8,4.9Z"/>
          <path class="cls-4" d="M102.04,103.14c1.33-.65,2.73-1.37,4.23-2.2,1.42-.79,2.66-1.65,3.77-2.55l-1.21-.76-7.8,4.9,1.02.61Z"/>
          <path class="cls-4" d="M77.62,116.01c1.42-1.2,3.61-3.2,6.17-4.91l-6.17-3.88-6.17,3.88c2.56,1.72,4.75,3.71,6.17,4.91Z"/>
        </g>
      </g>
    </g>
  </g>
</svg>