<?xml version="1.0" encoding="UTF-8"?>
<svg id="_レイヤー_2" data-name="レイヤー 2" xmlns="http://www.w3.org/2000/svg" xmlns:xlink="http://www.w3.org/1999/xlink" viewBox="0 0 426.45 449.86">
  <defs>
    <style>
      .cls-1 {
        fill: none;
      }

      .cls-2 {
        fill: #221815;
      }

      .cls-3 {
        fill: #ffe100;
      }

      .cls-4 {
        fill: #b62013;
      }

      .cls-5 {
        fill: #231815;
      }

      .cls-6 {
        fill: #c7c8c8;
      }

      .cls-7 {
        fill: #fff;
      }

      .cls-8 {
        fill: #e2e2e3;
      }

      .cls-9 {
        clip-path: url(#clippath);
      }
    </style>
    <clipPath id="clippath">
      <path class="cls-1" d="M390.94,224.88c.07-12.48-5.34-22.53-15.6-29.03-.69-.44-1.39-.87-2.1-1.27-.77-.43-1.55-.85-2.34-1.22-11.64-5.67-23.69-4.48-34.15-2.53-5.83,1.33-9.45,2.5-11.74,3.46-1.46-1.46-3.03-2.84-4.74-4.07-.97-.67-6.37-4.22-14.15-5.76-.48-2.22-.98-3.96-1.26-4.88-.01-.05-.23-.79-.25-.84-1.29-3.88-4.26-11.63-9.68-19.89-6.8-10.34-15.02-17.72-24.49-21.96-15.15-6.65-29.01-3.93-42.64,8.55-6.19,6.4-11.53,14.18-15.87,23.1-.54,1.12-4.52,10.56-4.96,11.86-1.56,4.27-6.56,19.27-5.14,33.03.89,10.47,5.87,20.97,13,27.42.12.11.54.44.67.53,7.94,6.03,16.67,9.07,25.99,9.07,1.13,0,2.27-.05,3.42-.13,12.05-.93,21.23-4.61,21.51-4.72,1.18-.45,2.22-.93,3.33-1.4,3.32,4.59,7.6,8.48,12.65,11.05,6.29,3.17,11.23,4.29,15.81,4.29.67,0,1.31-.14,1.97-.18.25.54.51,1.09.92,1.73,9.83,18.52,24.19,24.87,33.25,24.47.58.03,1.17.05,1.76.05,15.78,0,33.72-11.18,44.46-28.18l.53-.88c3.53-5.77,8.87-14.5,9.85-31.67Z"/>
    </clipPath>
  </defs>
  <g id="_レイヤー_1-2" data-name="レイヤー 1">
    <g>
      <path class="cls-4" d="M426.45,231.72c0,117.76-84.41,196.43-213.22,196.43S0,349.48,0,231.72,95.46,18.5,213.22,18.5s213.22,95.46,213.22,213.23Z"/>
      <g>
        <g>
          <g>
            <path class="cls-2" d="M419.52,300.9c-1.3-.72-2.84-1.24-3.8-1.44-6.81-1.4-13.64-2.18-20.31-2.33-3.7-.09-7.16,0-10.49.16-1.79-20.11-8.09-39.31-19.27-58.27,1.62-9.72,2.12-22.36,2.53-32.66l.21-5.17c.84-18.75-5.88-43.26-14.38-52.46-2.12-2.29-5.31-4.04-8.12-4.45-21.54-3.21-49.87,5.35-81.73,24.67l-4-.59c-26.18-3.9-58.77-8.75-103.06,1.53-1.4.32-2.95.78-4.54,1.26-2.37.71-6.76,1.98-7.92,1.68-8.49-4.64-30.28-15.71-49.14-18.49-17.53-2.61-29.09.83-34.52,10.31-15.37,28.86-7.65,69.07-4.44,79.47-16,31.01-15.7,63.87-15.6,67.47-.01.84.03,1.72.04,2.58-.84.06-1.6.09-2.48.16-8.93.71-17.8,1.58-28.07,4.44-3.34.92-6.41,3.14-5.81,5.59.47,1.92,2.84,2.35,4.83,2.35,1.54,0,2.85-.25,2.89-.26,10.63-2.17,16.02-2.75,23.47-3.55l3.14-.34c.81-.09,1.61-.13,2.42-.2.81,9.68,2.85,19.99,6.48,30.18-4.44,1.67-9.56,3.89-15.71,7.07-.04.02-3.98,2.08-4.74,4.62-.23.78-.15,1.56.23,2.24.62,1.11,1.92,1.46,3.31,1.46,2.3,0,4.82-.95,4.86-.96,1.84-.81,3.57-1.58,5.21-2.31,3.72-1.66,6.96-3.05,10-4.23,3.93,8.9,9.09,17.53,15.73,25.34-6.84,3.96-15.09,9.33-24.43,16.6-1.94,1.52-3.19,3.45-3.41,5.32-.12,1.04.11,1.99.65,2.67.41.51,1.18.73,2.1.73,1.62,0,3.71-.68,5.14-1.7,10.26-7.27,19.16-12.89,26.15-17.04,7.51,7.31,16.5,13.67,27.22,18.49,35.27,15.84,67.77,19.4,108.95,20l4.04-.06,4.36.06c47.38-.7,84.81-7.46,111.26-20.11,15.35-7.34,27.56-17.24,36.7-29.54,7.64,2.61,16.9,6.62,25.83,12.66,1.14.79,3.45,2.17,5.5,2.17.92,0,1.79-.27,2.47-1.01.29-.3.61-.85.53-1.73-.17-1.86-2.23-4.46-3.56-5.43-9.12-6.66-18.28-10.95-26.01-13.74,5.25-8.67,9.17-18.37,11.72-29.12,5.64.9,12.22,2.35,19.44,4.77.04,0,2.17.71,4.26.71,1.57,0,3.11-.39,3.7-1.78.27-.63.26-1.33-.03-2.02-1.04-2.48-5.38-4.32-5.43-4.33-7.12-2.82-14.12-4.47-20.3-5.49,1.35-8.14,2-16.8,1.93-26,.02-1.57-.07-3.12-.1-4.67,2.94-.16,5.97-.26,9.16-.22,4.96.05,10.48.42,15.35.74,1.52.1,2.99.19,4.4.28,3.19.18,7.1-.41,7.57-2.73.17-.81-.11-2.03-2.36-3.29Z"/>
            <path class="cls-7" d="M354.53,239.04c1.76-9.13,2.29-22.42,2.71-33.11l.22-5.23c.76-16.97-5.67-38.25-11.49-44.55-.51-.56-1.4-.99-1.72-1.06-18.78-2.76-45.27,5.51-74.57,23.31-2.08,1.26-3.22,1.95-5.23,1.65l-5.91-.87c-25.25-3.76-56.69-8.45-98.98,1.36-1.2.27-2.52.67-3.88,1.08-5.38,1.6-11.46,3.43-16.3.8-7.98-4.35-28.38-14.75-45.5-17.28-12.6-1.85-20.45-.25-23.34,4.78-10.47,19.65-8.42,46.45-5.73,61.45.72-.85,1.42-1.62,2.07-2.27,2.63-2.63,5.32-3.6,7.16-2.33,1.91,1.32,1.15,4.66-.08,7.33-1.22,2.65-3.69,7.76-5.63,11.18,0,0,0,.01,0,.02-16.85,29.6-16.54,62.53-16.45,66.2,0,.74.03,1.51.04,2.26,9.31.02,14.99,1,17.89,1.74l.21.05c.06.01,7.62,1.41,7.18,5.04-.39,3.23-4.98,2.99-7.2,2.87l-.82-.06c-2.44-.37-8.96-1.24-16.86-1.4.79,8.79,2.71,18.09,6.01,27.25,4.52-1.04,7.71-1.28,9.83-1.4l.29-.02c2.79-.15,9.39-.25,9.73,3.07.3,2.87-4.87,4.24-7.11,4.7-1.04.21-2.16.36-3.41.53-1.75.24-3.74.52-6.09,1.02,3.77,8.24,8.76,16.15,15.14,23.24,6.63-3.21,10.45-4.39,10.53-4.42.06-.03,6.57-1.68,7.84,1.28,1.09,2.56-1.67,3.92-4.33,5.24-.85.42-1.74.86-2.55,1.35,0,0-.09.05-.26.13-1.03.51-2.75,1.4-5.02,2.62,6.17,5.56,13.32,10.43,21.71,14.2,33.54,15.07,64.84,18.45,104.45,19.04l4.04-.06,4.36.06c44.98-.67,81.88-7.25,106.54-19.04,12.36-5.91,22.38-13.54,30.16-22.9-3.71-.86-5.97-1.18-6.04-1.19-1.42-.14-5.85-1.17-7.34-3.19-.44-.61-.61-1.28-.47-1.94.75-3.62,7.32-2.9,10.09-2.43.35.03,3.75.38,9.03,1.65,5.2-7.94,9.03-16.98,11.53-27.11-2.33-.14-4.2-.17-5.48-.17-2.44.01-5.28-.05-5.28-.05-.74-.07-6.59-.76-6.82-3.68-.03-.39.05-1,.6-1.64,1.31-1.53,4.62-2.39,6.03-2.5l.31-.03c.84-.08,3.07-.3,5.31-.32h.61c1.62,0,3.81.05,6.42.22,1.29-7.68,1.93-15.9,1.86-24.75.01-1.24-.07-2.46-.09-3.69-6.85.85-12.47,1.97-16.3,2.74-1.96.39-3.38.68-4.24.78-1.38.2-2.56.3-3.55.3-2.31,0-3.58-.56-4-1.72-.29-.84-.23-1.74.18-2.59.74-1.52,2.53-2.81,5.19-3.72,2.09-.71,10.2-3.2,22.24-4.68-1.72-19.09-7.86-37.28-18.78-55.31-.7-1.16-.95-2.54-.69-3.87Z"/>
          </g>
          <g>
            <path class="cls-2" d="M115.31,320.71c-3.5,7.1-3.52,18.45,1.21,24.48,2.92,3.45,7.8,5.41,14.09,4.33,5.43-.94,8.52-5.9,9.55-9.85,2.23-8.84-.15-19.68-5.23-23.79-5.36-3.91-15.39-3.82-19.61,4.83Z"/>
            <path class="cls-2" d="M285.41,321.75c-3.5,7.1-3.52,18.45,1.21,24.48,2.92,3.45,7.8,5.41,14.09,4.33,5.43-.94,8.52-5.9,9.55-9.85,2.23-8.84-.14-19.68-5.23-23.79-5.36-3.91-15.39-3.82-19.61,4.83Z"/>
            <g>
              <path class="cls-2" d="M230.45,352.46c-1.17-4.16-4.32-7.43-8.44-8.76-7.86-2.55-15.82-1.48-20.77,2.79-5.16,4.56-5.41,12.65-2.18,16.84,2.99,3.88,7.72,5.9,14.48,6.2.31.01.63.02.94.02,5.41,0,10.44-1.98,13.31-5.27v-.02c2.83-3.28,3.82-7.69,2.67-11.81Z"/>
              <path class="cls-3" d="M219.91,350.21c-2.1-.68-4.24-1.01-6.25-1.01-3.19,0-6.05.84-7.91,2.45-2.45,2.17-2.29,6.18-1.26,7.52,1.68,2.18,4.74,3.34,9.35,3.54,4.27.17,7.46-1.38,8.79-2.9,1.34-1.56,1.79-3.55,1.24-5.49-.54-1.94-2.02-3.48-3.96-4.11Z"/>
            </g>
          </g>
        </g>
        <g>
          <g>
            <path class="cls-2" d="M174.31,410.54c-1.48-4.63-4.48-8.3-7.74-11.99-11.57-11.11-31.76-15.56-47.81-10.64-11.58,3.03-24.94,13.2-26.89,28.3-1.79,11.76,2.42,22.06,11.65,27.76,9.31,4.78,19.42,4.67,29.7-.17.87-.33,1.3-.24,3.57.72,1.42.61,3.17,1.34,5.28,1.7,3.57,1.03,6.76,1.46,9.57,1.46,7.46,0,12.38-3.02,15.44-6.04,7.97-7.84,10.94-20.61,7.23-31.1Z"/>
            <path class="cls-7" d="M163.98,414.13c-.03-.07-.05-.13-.07-.2-.84-2.65-3.05-5.31-5.25-7.82-8.41-8.05-24.41-11.47-36.92-7.67-8.41,2.2-17.79,9.67-19.04,19.29-.55,3.62-1.01,12.25,6.19,16.72,5.93,3.02,12.4,2.87,20-.7,1.9-.75,3.63-1.02,5.18-1.02,2.92,0,5.24.98,6.98,1.72,1.12.47,2.08.88,2.97,1.01.27.04.53.09.78.17,6.51,1.94,11.44,1.34,14.59-1.78,4.91-4.82,6.87-13.3,4.58-19.71Z"/>
          </g>
          <g>
            <path class="cls-2" d="M338.19,418.5c-1.98-15.21-15.33-25.39-26.69-28.34-16.27-4.97-36.47-.53-48.34,10.91-2.82,3.2-5.95,7-7.44,11.65-3.71,10.49-.74,23.27,7.22,31.1,3.07,3.03,8,6.05,15.45,6.05,2.81,0,5.99-.43,9.57-1.46,2.11-.36,3.86-1.1,5.28-1.7,2.29-.98,2.71-1.06,3.23-.87,10.61,5,20.73,5.1,30.44.1,8.83-5.48,13.04-15.78,11.27-27.43Z"/>
            <path class="cls-7" d="M327.35,420.03c-1.27-9.74-10.64-17.21-18.84-19.34-3.53-1.08-7.32-1.6-11.13-1.6-9.92,0-20.02,3.48-26.32,9.53-1.88,2.17-4.1,4.83-4.94,7.48-.02.07-.04.13-.07.2-2.29,6.41-.33,14.89,4.56,19.7,3.17,3.11,8.06,3.72,14.6,1.78.25-.07.51-.13.78-.17.89-.13,1.85-.53,2.97-1.01,2.67-1.14,6.69-2.83,11.82-.85,7.93,3.73,14.41,3.87,20.73.63,6.81-4.24,6.35-12.88,5.82-16.38Z"/>
          </g>
        </g>
        <g>
          <g class="cls-9">
            <rect class="cls-4" x="240.92" y="122.28" width="108.55" height="184.44" transform="translate(-23.96 391.39) rotate(-65)"/>
            <rect class="cls-7" x="284.77" y="124.16" width="19.11" height="184.44" transform="translate(-26.17 391.68) rotate(-65)"/>
            <rect class="cls-2" x="291.14" y="124.16" width="6.37" height="184.44" transform="translate(-26.17 391.68) rotate(-65)"/>
          </g>
          <path class="cls-2" d="M390.94,224.88c.07-12.48-5.34-22.53-15.6-29.03-.69-.44-1.39-.87-2.1-1.27-.77-.43-1.55-.85-2.34-1.22-11.64-5.67-23.69-4.48-34.15-2.53-5.83,1.33-9.45,2.5-11.74,3.46-1.46-1.46-3.03-2.84-4.74-4.07-.97-.67-6.37-4.22-14.15-5.76-.48-2.22-.98-3.96-1.26-4.88-.01-.05-.23-.79-.25-.84-1.29-3.88-4.26-11.63-9.68-19.89-6.8-10.34-15.02-17.72-24.49-21.96-15.15-6.65-29.01-3.93-42.64,8.55-6.19,6.4-11.53,14.18-15.87,23.1-.54,1.12-4.52,10.56-4.96,11.86-1.56,4.27-6.56,19.27-5.14,33.03.89,10.47,5.87,20.97,13,27.42.12.11.54.44.67.53,7.94,6.03,16.67,9.07,25.99,9.07,1.13,0,2.27-.05,3.42-.13,12.05-.93,21.23-4.61,21.51-4.72,1.18-.45,2.22-.93,3.33-1.4,3.32,4.59,7.6,8.48,12.65,11.05,6.29,3.17,11.23,4.29,15.81,4.29.67,0,1.31-.14,1.97-.18.25.54.51,1.09.92,1.73,9.83,18.52,24.19,24.87,33.25,24.47.58.03,1.17.05,1.76.05,15.78,0,33.72-11.18,44.46-28.18l.53-.88c3.53-5.77,8.87-14.5,9.85-31.67ZM262.41,235.4c-.08.03-8.08,3.2-18.37,4-11.87.91-19.45-4.84-21.88-6.66-5-4.53-8.79-12.66-9.45-20.34-1.18-11.51,3.16-24.52,4.61-28.48.39-1.06,3.95-9.57,4.44-10.59,3.84-7.89,8.52-14.72,13.66-20.06,10.24-9.37,19.41-11.29,30.57-6.38,7.49,3.36,14.15,9.4,19.77,17.96,4.92,7.49,7.54,14.61,8.32,16.9l.28.99c.1.33.23.76.37,1.26-3.12.38-6.39,1.21-9.76,2.67-.86.37-1.62.86-2.44,1.29-1.82-1.99-4.05-3.77-6.3-5.03-6.73-3.79-14.11-3.84-20.25-.13-6.59,4-10.46,11.71-9.86,19.44.23,6.03,2.69,11.16,7.12,14.82,2.87,2.37,6.27,3.78,9.4,4.6,0,.53-.07,1.05-.05,1.58.03,3.82.78,7.6,2.04,11.21-.76.31-1.43.63-2.24.94ZM264.12,210.71c-1.43-.51-2.96-1.24-4.22-2.39-1.79-1.63-2.71-3.75-2.82-6.7-.29-3.87,1.51-7.59,4.61-9.47,2.17-1.32,4.47-1.53,7.04-.66,2.02.68,3.67,1.86,4.9,2.98-4.48,4.46-7.75,9.99-9.5,16.23ZM306.89,247.1c-7.63,2.01-11.53,2.43-19.54-1.62-8.18-4.17-13.72-13.13-13.78-22.46-.43-11.82,5.62-21.89,15.78-26.29,3.44-1.49,6.75-2.04,9.77-2.05,8.05,0,14.03,3.93,14.85,4.49,9.03,6.49,13.34,17.88,10.69,28.51-2.49,11.49-10.8,17.57-17.75,19.43ZM371.63,251.04l-.6,1.01c-8.69,13.74-23.71,23.26-36.56,22.57-6.52.09-15.93-5.16-23.02-17.53,4.14-1.36,8.46-3.71,12.35-7.14,1.96,1.41,4.3,2.61,7,3.2,1.02.22,2.2.38,3.49.38,3.21,0,7.18-.98,11.47-4.38,4.8-4.81,6.43-10.35,4.84-17.49-2.82-8.54-9.53-11.12-14.31-12.03-.27-5.63-1.81-11.14-4.48-16.14,2.05-.65,4.64-1.36,7.15-1.93,8.49-1.57,18.35-2.62,27.19,1.67.59.28,1.14.58,1.7.89.53.3,1.04.61,1.59.96,7.15,4.53,10.61,10.99,10.57,19.46-.82,14.14-4.94,20.88-8.38,26.5ZM335.17,230.61c2.53.61,4.13,1.69,4.89,3.94.65,2.96.13,4.69-1.56,6.43-1.71,1.35-3.44,1.83-5.18,1.51-.94-.17-1.76-.56-2.49-1,1.88-3.16,3.39-6.77,4.33-10.89Z"/>
        </g>
      </g>
    </g>
    <g>
      <path class="cls-7" d="M143.02,68.79s-4.45-.29-10.68-.54l.44-3.35s-6.53.1-12.52.18c.09-.14.18-.27.26-.39,0-.01.02-.02.02-.04.02-.03.04-.05.05-.08.03-.04.06-.09.08-.12.07-.09.13-.19.2-.27.12-.16.23-.31.35-.46.03-.03.06-.07.08-.1.11-.13.21-.25.32-.38.09-.09.17-.19.26-.28,0,0,0,0,0,0,.15-.15.3-.29.47-.43.46-.4,1.3-.85,1.53-1.46.39-1.02-.1-2.63.02-3.73.09-.91.35-2.44.22-3.67,0-.08-.02-.16-.03-.24-.03-.21-.08-.41-.14-.59-.06-.18-.14-.35-.24-.49-.53-.76-1.14-.71-1.24-1.59,0-.06-.01-.12-.01-.19-.01-.34.04-.66.09-.98.05-.32.11-.64.11-.98,0-.22-.01-.45-.07-.69-.13-.54-.39-1.05-.62-1.53-.08-.16-.15-.32-.22-.48-1.41-3.35-.49-7.13-1.89-10.38-.13-.29-.27-.57-.43-.83-.7-1.14-1.67-2.07-2.34-3.22-.56-.97-1.24-1.96-2.21-2.33-.26-.1-.55-.16-.85-.15-.21,0-.42.03-.65.09-.78.21-1.4.26-2.14.3-.25.01-.5.02-.79.03-.87.04-1.99.1-2.61.82-.59.67-.76,1.63-1.46,2.33-.1.1-.19.19-.29.27-.02.02-.04.04-.06.05-.2.17-.41.31-.64.44,0,0-.01,0-.02.01-.11.06-.23.12-.35.17-.64-5.02-1.08-8.3-1.08-8.3-.19-1.43-1.49-2.59-2.88-2.59h-18.66c-.42-.45-.43-.97-.47-1.74,0-.1-.01-.2-.02-.3-.07-.87-.35-1.72-.6-2.57-.04-.13-.07-.25-.11-.38-.25-.89-.43-1.8-.29-2.77.07-.44.24-.82.47-1.16.05-.07.09-.14.14-.2.25-.34.54-.64.82-.96.08-.09.16-.18.24-.28.37-.45.69-.93.78-1.54.08-.49.13-1.08.13-1.68,0-.96-.16-1.96-.61-2.71-.17-.28-.38-.53-.64-.72-.06-.04-.14-.08-.23-.12-.4-.16-1.04-.29-1.18-.52-.03-.04-.05-.09-.06-.13-.09-.32.15-.65.15-1.01,0-.42-.1-.83-.26-1.23-.16-.4-.39-.77-.67-1.09-1.48-1.76-2.54-1.91-4.38-.82-.44.26-1.21.56-1.97.9-.11.05-.22.1-.32.14-.21.1-.42.2-.62.3-.6.31-1.09.63-1.27.97-.36.67-.51,2.01-.76,2.79-.41,1.27-.68,2.32-1.58,3.36-.24.27-.67.58-1.12.91-.15.11-.3.22-.44.34-.58.46-1.06.96-1,1.49-.09,0-.17,0-.26,0-.42.02-.8.16-1.12.39-.13.09-.25.2-.36.33-.15.16-.27.35-.38.57-.03.06-.08.2-.14.4-.01.05-.03.1-.04.15-.18.63-.42,1.61-.51,2.16-.02.15-.04.26-.03.33,0,.03,0,.05.01.06,0,0,0,0,.01,0-.12,0-.25,0-.37,0-.11,0-.22,0-.33-.02-.77-.05-1.54-.2-2.3-.21h0c-.54,0-1.11,0-1.68.03-.57.03-1.14.07-1.68.11.19.32.38.73.55,1.14.06.14.11.28.17.41.07.18.14.36.2.52.2.54.55,1.02.76,1.56.23.56.3,1.16.42,1.75-.36-.15-.72-.31-1.07-.49-.64-.33-.54.01-.54.65,0,.3.02.6.06.88h-5.46c-1.39,0-2.69,1.17-2.88,2.59,0,0-1.84,13.75-3.47,28.01,0,0,0-.02,0-.02-1.21,1.72-.79,3.74-1.55,5.45-.11-.07-.22-.15-.33-.24-.21-.17-.4-.35-.57-.55-1.07-1.22-1.54-3.03-1.68-4.64,0-.11-.02-.21-.03-.32-.02-.31-.04-.61-.07-.9-.19-2.03-.52-3.65-1.22-5.74-.43-1.27-.63-3.07-1.71-3.91-.09.18-.17.37-.22.56-.02.07-.04.15-.06.22-.13.52-.19,1.06-.36,1.59-.35,1.08-.86,2.13-1.37,3.18-.07.15-.14.3-.21.45-.07.15-.14.3-.21.45-.14.3-.27.61-.4.91-.32.76-.59,1.54-.75,2.34-.28,1.36-.12,2.83-.15,4.25,0,.2-.01.4-.02.6-.27-.48-.55-.96-.84-1.44-.34-.55-.68-1.08-1.02-1.56.23.33-.48,2.98-.48,3.55-.19-.14-.35-.3-.52-.48-.12-.13-.24-.28-.36-.42-.35-.43-.71-.87-1.17-1.17-1.12-.72-2.47-1.06-3.64-1.51,0,0,0,0,0,0h0c1.76,1.01,1.88,3.44,2.1,5.28.06.49,1.02,5.6.86,5.59-.32-.02-1.31-.24-1.5-.55.15.25.3.51.45.78-1-.06-2.6-.07-7.4.06l.56,3.59-10.31.16,2,8.87-1.04,7.66s14.26-.59,20.02-.78l-.03-.06.13.06.66-3.38c.44,0,.89,0,1.35,0,0,0,0,0,0,0,.07.07.15.14.23.22.01.01.02.02.03.03.08.07.15.15.23.23,0,0,0,0,.01.01.48.47.97.99,1.42,1.47.37.4.72.77.99,1.06,0,0,.02.02.02.02.06.06.11.11.15.16.02.02.03.03.05.05.04.04.08.08.11.12.01.01.03.03.04.04.05.05.09.09.12.12.06.06.13.12.19.19.02.02.04.04.05.06.05.05.09.09.14.14.02.02.04.04.06.06.05.05.09.1.14.15.02.02.03.03.05.05.05.06.1.11.15.17,0,.01.02.02.03.03.06.07.11.13.17.2,0,0,0,0,0,0,1.56,1.85,3.02,4.18,5.21,4.86,1.81,8.95,6.09,16.24,10.84,21.91-.13.41-.22.92-.24,1.49,0,0,0,0,0,0,0,.14,0,.28,0,.42,0,.01,0,.02,0,.04,0,.14,0,.27.01.41,0,.02,0,.05,0,.07,0,.13.02.26.03.39,0,.04,0,.07.01.11.01.12.03.24.05.36,0,.05.02.1.03.14.02.11.04.22.06.32.01.06.03.12.04.18.02.1.04.19.07.29.02.07.04.14.06.2.03.09.05.17.08.26.02.07.05.15.08.22.03.08.05.15.08.23.03.08.07.16.1.23.03.07.06.14.09.2.04.08.08.16.13.24.03.06.06.12.09.18.05.08.1.16.15.24.03.05.06.1.1.15.07.1.15.19.23.29.02.02.04.05.06.07.35,1.24.6,1.91.86,2.73.15.49.31,1.04.48,1.79.63,2.73,1.2,5.22,2.01,7.89.07.23.14.44.2.62.46,1.28.81,1.52,1.32,3.31-.2.65.15,1.89.51,3.25-.44,1.59-.58,3.42-.44,4.54.07.53.6,2.45,1.88,3.4.39.29.91.54,1.5.74,2.56.88,6.54.98,8.26.55.89-.22,2.17-.34,2.62-1.36.35-.8.37-1.29.27-2.13-.02-.2-.06-.42-.11-.66-.05-.24-.12-.49-.2-.76-.03-.1-.06-.2-.09-.3-.48-1.52-1.28-3.27-1.91-4.23-.88-1.33-2.25-1.58-2.18-3.19.05-1.07-.8-2.4-1.67-3.36-.06-.06-.12-.13-.17-.19-.31-.32-.61-.59-.86-.78-.13-.09-.23-.23-.32-.41-.02-.05-.04-.09-.06-.14-.29-.71-.39-1.87-.51-2.98,0-.08-.02-.16-.03-.24,0-.08-.02-.15-.03-.23.32.2.63.44.9.7.07.06.14.13.2.19.47.46.86.96,1.17,1.36.17.23.32.44.43.59.2.27.39.55.58.83.57.84,1.09,1.72,1.6,2.6.45.78.86,1.61,1.33,2.37.16.25.33.5.51.73.53.69,1.05,1.16,1.47,1.87.06.1.12.21.17.32-.05.72-.28,1.18-.22,1.97.16,2.25,1.41,4.41,2.84,5.3.83.52.7-.49,1.02.45.34,1.03.71,1.82,1.24,2.43.07.08.14.15.21.22.51.49,1.15.84,2.04,1.06.26.07.53.13.8.19,1.35.29,2.75.44,4.13.41.55-.01,1.11-.05,1.65-.12,1.27-.16,2.36-.21,3.67-.71.44-.17.83-.56,1.07-1.01.03-.06.06-.11.09-.17,0-.02.02-.04.02-.05.04-.09.07-.17.1-.26,0,0,0-.02,0-.03.06-.2.09-.4.09-.59h0c-.02-.95-.97-2.95-1.46-3.56-.48-.6-1.06-1.38-1.57-2.18-.07-.11-.14-.23-.21-.34-.18-.3-.34-.6-.48-.89-.65-1.36-2.26-1.89-3.2-3.18-.07-1.36-1.56-1.76-2.77-2.65-.09-.06-.16-.13-.23-.2-.13-.13-.24-.26-.32-.4-.58-.98-.11-2.29-.24-3.58-.06-.63-.28-1.09-.6-1.45-.13-.14-.27-.27-.42-.39-.69-.53-1.61-.86-2.43-1.45,0,0-.02-.01-.02-.02-.1-.07-.19-.14-.29-.21-.02-.01-.04-.03-.06-.04-.1-.07-.2-.14-.31-.21,5.42-3.05,28.64-17.67,29.18-44.71,3.7-.07,7.11-.01,10.05.11l-.18,2.73c6.65,0,22.04,1.26,22.04,1.26l-1.08-8.01,2.37-9.64ZM111.93,65.18c.5-1.35.38-3.43.27-4.75-.04-.39-.11-.73-.19-1.06-.11-.42-.23-.82-.32-1.28-.03-.14-.04-.29-.04-.45,0-.41.06-.86.05-1.3,0-.27-.03-.54-.11-.8-.17-.52-.48-.89-.77-1.29-.04-.06-.08-.11-.12-.17-.25-.36-.47-.74-.54-1.27-.35-2.54.17-5.12-.18-7.65-.14-.99-.5-1.69-1.03-2.52.45-.32.87-.76,1.31-1.1.02-.02.05-.03.07-.04.02-.01.05-.02.08-.02.68-.08,1.69,2.24,1.98,3.1.04.13.07.23.08.28.26,2.03.63,4.38.44,6.43-.03.32-.22.98-.11,1.27.06.18.21.28.36.37.15.09.3.18.38.34.36.73-.05,1.51-.23,2.26-.16.66-.2,1.35-.15,2.06.01.2.04.4.06.6.04.3.1.61.16.91.04.2.09.41.15.61.03.1.05.2.08.3.49,1.72,1.26,3.41,1.8,4.87,0,.02.01.04.02.05.02.06.04.12.06.18-1.45.02-2.7.03-3.58.04Z"/>
      <g>
        <g>
          <path class="cls-4" d="M100.15,24.12h-15.65c.68.5,1.53,1.15,2.45,1.84h11.29c.65,0,1.26.56,1.37,1.24,0,0,.46,3.05,1.13,7.72,1.07-.41,2.12-.71,3.23-1.04-.53-4.23-.89-6.98-.9-7.09-.19-1.47-1.5-2.67-2.91-2.67Z"/>
          <path class="cls-4" d="M103.85,69.15c-.99-1.49-.75-3.41-.78-5.11-.01-1.33.53-2.28.05-3.58-.38-.1-.69-.08-.99.02-.73,1.28-1.36,2.87-2.14,4.56-.8,1.72-1.4,2.57-1.98,4.36-.59,1.8-1.58,3.37-2.42,5-.84,1.63-.76,3.42-1.64,5-.91,1.63-2.16,2.81-2.73,4.56-.1.31-.23.6-.38.87,3.39,3.46,5.51,7.03,6.26,10.64,1.12,5.39-.74,10.97-5.52,16.63-6.78,6.91-13.44,10.35-13.44,10.35-.43.22-.93.33-1.43.34.2.51.43,1,.7,1.43.4.62.98,1.17,1.62,1.67l.99-.5c.07-.04,7.23-3.7,14.28-11,4.15-4.29,7.45-8.97,9.82-13.93,2.96-6.19,4.47-12.82,4.47-19.71,0-2.52-.25-6.44-.65-11.04-1.43,1.21-2.89,1.22-4.09-.57Z"/>
          <path class="cls-4" d="M55.67,108.89c-.19-1.52-.33-3.06-.35-4.61-2.37-3.53-4.45-7.57-5.86-12.12-.48,0-.96-.09-1.38-.34-.37-.22-.51-.51-.82-.71.75,3.21,1.84,6.35,3.29,9.37,1.39,2.9,3.1,5.72,5.12,8.41Z"/>
          <path class="cls-4" d="M51.61,26.79c-.03.25-2.05,15.67-3.63,30.4,1.5,2.35,3.47,4.99,4.37,7.25.14-.88,1.91-2.38,3.58-2.78-.34.93-.59,2.71-.67,3.95,2.17.74,4.27,1.49,6.28,2.26.3-.41.6-.8.95-1.17,1.02-1.08,2.45-1.51,3.64-1.97,1.37-.53,2.32-1.34,3.13-2.4.26-.34,1.62-2.7,2.97-3.6-3.11.43-5.47,0-8.17.72,1.29-.83,1.33-1.62,2.3-2.28-.68-.16-1.18.34-2.05.54.63-1.18.38-4.2,1.08-5.89-.32.24-.77.13-1.2.98.04-2.09.44-4.03,1.24-5.04-4.71,3.47-9.37,2.08-11.31.9,1.62-.45,3.49-1.36,4.04-2.07.72-.93,1.12-1.67,1.44-2.81.15-.52.19-1.08.27-1.62.12-.82.24-1.64.41-2.45.17-.79.36-1.62.75-2.32.07-.14.16-.27.25-.39h-6.55c-.75,0-1.36-.25-1.76-.71-.22-.26-.36-.58-.45-.94.7-4.91,1.2-8.15,1.2-8.15.1-.68.72-1.24,1.37-1.24h4.73c-.66-.5-1.16-1.12-1.5-1.84h-3.81c-1.41,0-2.72,1.2-2.91,2.67Z"/>
        </g>
        <g>
          <path class="cls-8" d="M55.22,66.26c-.03,1.27-.33,2.23-.07,3.49.24,1.18.24,2.1-.24,3.29-.26.67-1.75,2.39-.91,2.88,1.08-1.08,1.64-2.61,2.66-3.74.9-.98,2.25-1.17,3.17-2.1.66-.67,1.16-1.45,1.7-2.19-2.02-.77-4.11-1.52-6.28-2.26-.02.23-.03.45-.03.64Z"/>
          <path class="cls-8" d="M55.32,103.98c0-1.11.18-1.5-.49-2.25-.6-.69-1.34-1.16-1.84-1.99-.48-.8-.75-1.76-.96-2.65-.13-.57-.96-5.28-.48-5.58-.6.37-1.36.63-2.1.64,1.41,4.56,3.49,8.6,5.86,12.12,0-.1,0-.2,0-.3Z"/>
          <path class="cls-8" d="M91.58,112.12c4.78-5.66,6.64-11.24,5.52-16.63-.75-3.61-2.86-7.18-6.26-10.64-.65,1.17-1.71,2.06-2.61,3.11-.93,1.08-.16,2.73-1.44,5.1-.87,1.61-2.25,2.51-2.96,4.24-1.27,3.14-2.17,6.2-4.28,8.88-2.25,2.86-3.21,6.17-6.05,8.62.73,1.42,1.39,3.02,2,4.53.43,1.07.76,2.33,1.21,3.47.5,0,1-.12,1.43-.34,0,0,6.66-3.45,13.44-10.35Z"/>
          <path class="cls-8" d="M98.23,25.96h-11.29c2.1,1.59,4.51,3.44,5.84,4.45,1.37,1.03,2.28,2.3,2.51,4.14.8.34,1.39.11,2.13.63,1.05.75,1.06.7,2.34.13.33-.15.65-.28.98-.4-.67-4.67-1.13-7.72-1.13-7.72-.11-.68-.72-1.24-1.37-1.24Z"/>
          <path class="cls-8" d="M53.73,27.2s-.49,3.24-1.2,8.15c.09.37.23.69.45.94.4.47,1.01.72,1.76.72h6.55c.09-.11.18-.2.29-.28.17-.12.46-.22.13-.35-.73-.29-1.61-.22-2.36-.14-.43.04-.85.12-1.27.19-.74.12-1.52.22-2.27.07-.37-.07-.71-.21-1.02-.41-.04-.03-.7-.49-.7-.5.68-.38,1.18-.89,1.52-1.18-.44-.07-.83-.52-1.37-1,1.17-.38,2.67-1.63,3.13-2.27.23-.32.45-.64.73-.92.18-.18,1.35-.94.77-1.22-.54-.26-1.11-.45-1.64-.72-.49-.25-.95-.52-1.4-.84-.23-.16-.46-.34-.68-.52-.12-.1,4.1-.42,4.94-.77-.09-.06-.19-.13-.27-.19h-4.73c-.65,0-1.27.56-1.37,1.24Z"/>
        </g>
        <path class="cls-5" d="M74.96,123.89c-.91-1.7-2.49-4.92-3.45-8.64-.06-1.7-.61,0,.55-2.14,1.15-2.15,3.64-1.96,5.82-8.7,2.06-2.27,2.18-3.28,3.03-4.73.85-1.45,1.88-5.87,1.88-5.87.04-.4,1.39-1.46,2-2.46,1.1-1.25.62-2.98.87-3.24.58-.61,1.03-1.45,1.51-2.16.56-.82,1.11-1.3,1.77-1.92.71-.66.92-1.61,1.32-2.52.5-1.15,1.25-2.06,1.72-3.24.74-1.82,1.83-3.23,2.54-5.04.61-1.56,1.44-3.01,2.05-4.58.6-1.56.75-2.99,1.75-4.35.91-1.25,1.75-2.64,2.55-3.98.73-1.23,1.48-2.29,1.56-3.8.03-.67.14-1.37.17-2.02.08-1.5-.39-3,.62-4.19.35-.41,1.16-.47,1.21.19.49,1.39.79,4.44.49,5.55-.16.56-.08,1.98.2,2.27.29.29.69.76.69.76l-.04,1.11s-.55.18-1.09.65c-.32.84-.48,2.86-.36,4.79.12,1.93.97,3.57,1.62,3.7.65,0,1.53-1.26,2.22-1.85.69-.59,1.64-1.31,1.78-1.51.24-.73.52-2.16.63-2.73.07-.51.31-2.24.22-2.73-.24-.67-.44-1.47-.85-2.06-.32-.84.4-.42.24-2.23-.08-.93-.88-1.49-1.05-2.1-.21-.78-.32-5.13-.56-6.39.14-1.42.73-2.4-.37-3.91-1.09-1.51-2.71-.62-2.42-1.64.32-1.16,4.26-3.11,4.26-3.11.96.33,1.2.11,2.42.83l.97,1.01.6,2.78s.49,2,.75,3.07c.12.5.46,1.08.51,1.57.04.51-.18,1.14-.16,1.69.02.68.2,1.25.61,1.74.33.4.81.53.92,1.11.06.35-.06,1.18-.05,1.6,0,.53-.16,1-.16,1.52-.41.04-1.05-.16-1.2.28-.14.44.84,3.04,1.11,4.58.13.75.37,1.56.68,2.22.28.58.72,2.08,1.38,1.86.49-.17.9-.92,1.34-1.29.54-.44.98-.74,1.44-1.31.97-1.22.88-2.36.89-3.92,0-1.22.3-2.7.13-3.96-.18-1.45-1.73-2.24-1.66-3.48.08-1.44.25-2.24-.36-3.61-.6-1.34-.69-2.75-1.06-4.15-.33-1.25-.32-2.55-.59-3.77-.27-1.18-.41-2.59-.87-3.69-.36-.88-1.13-1.27-1.62-2.01-.57-.87-.88-1.89-1.29-2.83-.85.28-1.54.2-2.48.25-.68.03-1.86.03-2.45.41-.46.3-.59,1.01-.94,1.48-.3.43-.71.9-1.11,1.24-.78.66-1.84.99-2.76,1.3-1.08.37-2.12.78-3.18,1.22-1.2.5-2.28,1.7-3.45,2.04-.52-.69-1.15-1.56-1.81-2.07-.69-.53-1.68-.04-2.38-.53-.67-.47-.7-1.61-1.22-2.28-.61-.78-1.43-1.5-2.14-2.17-1.82-1.72-5.74-4.67-5.74-4.67-.89-.72-1.76-1.44-2.68-2.15-.41-.32-.81-.68-1.22-.96-.49-.33-.91-.35-1.09-.96-.17-.55-.05-1.41-.18-2.02-.26-1.3-.73-2.54-.85-3.87-.11-1.24-.1-2.66.21-3.87.37-1.5,1.35-1.58,2.32-2.44.58-.51.36-.76.17-1.57-.15-.62-.3-1.21-.42-1.87-.25-1.47-1.7-.89-2.76-1.06.45-.8.73-.94.66-1.89-.06-.77,0-1.29-.44-1.86-.32-.41-1.02-.9-1.49-1.02-.66-.17-1.21.39-1.74.79-.62.45-1.19.91-1.84,1.27-.68.38-.87.4-.99,1.18-.19,1.35-.2,2.58-.71,3.82-.58,1.41-1.59,1.7-2.45,2.8-.43.54-1.49,2.35-1.46,2.83-1.08-.08-1.41.41-1.95,1.43-.49.93-.11,2.85-.11,2.85-.79,0-2.35-.42-3.38-.54-.51-.06-.9-.19-1.39-.16-.46.03-.92.27-1.35.09l-.22.07c.28.55.7.96.99,1.51.24.48.39,1.03.65,1.49,1,1.82,1.84,2.09,2.05,2.13-1.79.43-3.25.3-4.69-.86.75,1.04,1.05,2.26,2.54,2.93.49.22,1.02.41,1.55.48.29.04.58.11.88.12.15,0,.72.07.83-.06-.18.22-.59.37-.85.48-.52.22-1.07.44-1.62.55-.34.07-.68.16-1.02.22-.34.05-.68.06-1.02.11-.83.14-1.65.27-2.5.35,1.66.35,3.23,1.67,5.05,1.36-1.44.38-2.85.57-3.86,1.91-1.08,1.42-1.05,2.08-2.85,2.69,1.46.03,1.86-.2,3.13-.79-1.27.67-1.92,2.4-3.61,2.98,1.25.2,2.99-.58,4.25-.51,2.24.13,3.86.99,6.19.4-1.45.37-2.29,1.06-3.11,2.4-.85,1.39-1.11,3.11-1.36,4.7-.4,2.56-2.14,5.53-3.55,5.88,5.44.5,6.36-3.02,9.94-2.76-1.06,1.55-1.29,3.54-1.88,4.92,1.03-.76,1.4-1.28,2.35-1.38-2.65,2.44-1.61,5.14-2.49,6.87,1.71-.56,2.3-3.21,5.67-3.16-1.23.54-1.38,3.16-4.54,4.68,1.53-.08,3.4-.61,4.97-.56.48.02,3.22.34,4.29-.08-1.62.97-2.15,1.95-4,4.65-.73,1.05-1.69,2.51-2.62,3.33-.75.67-1.98.84-2.88,1.19-.67.26-1.59.42-2.18.87-.69.52-1.16,1.55-1.75,2.25-.52.64-1.16,1.37-1.79,1.82-.65.46-1.4.65-2.05,1.1-2.01,1.39-2.75,3.88-3.98,6.01-.33.57-.48,1.07-1.08.85-.41-.15-.74-.85-.9-1.26-.6-1.55-.42-3.28.05-4.83.22-.74.84-1.59.98-2.33.22-1.19.52-1.89.43-2.85-.13-1.39-.33-2.42.43-4.44-1.51.84-2.2,2.91-2.58,3.87.16-2.95-2.44-4.14-3.84-6.31-.92-1.42-1.58-3.09-2.07-4.63.08,1.73.42,2.95.37,4.41-.03.92-.54,2.37-.29,3.34.05.21-.02.17-.1.03-.31-.58.07-.74-.43-1.68-.95-1.8-3.34-1.9-4.26-3.87-.76-1.62-.9-2.65-1.29-4.38-.66-2.89-.8-5.57-1.23-8.55-.14,2.92-.8,7.68-1.42,11.41-.57,3.39.26,5.59,1.51,8.73,1.11,2.8,2.5,6.37,1.47,9.4.18-1.77-.02-3.36-.85-4.98-.49-.95-1.43-1.54-1.99-2.43-.55-.88-.84-1.84-1.27-2.81-1.05-2.39-2.02-4.75-2.01-7.42-.8,2.46-1.02,6.26.16,8.67-2.71-1.61-2.09-6.63-3.96-8.82.95,1.39.8,5.54,1.29,7.39.68,2.53,2.15,4.17,3.48,6.33-1.74-1.34-3.23-2.52-4.55-4.34,2.87,4.03,2.81,8.61,7.38,11.21-1.81-.54-3.72.76-5.4.22,2.7.88,7.99,1.72,7.99,4.63,0,.3-2.43-.44-3.21-.85,1.46,1.2,2.47,3.49,4.94,5.52.79.65,1.88,1.45,2.85,1.81.67.24,1.37.11,2.03.32.75.24,1.36.95,2.16,1.06.86.12,1.12-.29,1.84-.57.58-.22,1.28-.09,1.84-.39.56-.3.81-.93,1.2-1.37-.11,1.11-.91,2.15-.9,3.26,0,.5.22.93.23,1.46,0,.59-.24,1.15-.16,1.75.16,1.3.64,2.47,1.42,3.51,1.7,2.27,2.85,2.4,2.85,2.4,0,0-.3,3.15-.18,5.8.12,2.65.42,5.55.42,5.55,0,0-.73,1.26-.67,3.03.06,1.77.73,2.46,1.46,3.28,1.94,12.67,4.11,14.33,4.47,15.46-.24,4.23.9,4.49.57,5.04-.49.82-.3.51-.73,1.76.55-.25.73-.12.73-.12,0,0-.42.38-.54,1.45.67-.69-.12.82.12,1.77.24.95.6.25.6.25,0,0,.55.24.49,1.13,1.52,2.02,9.7,1.52,9.83.25.12-1.26-.97-3.66-.97-3.66,0,0,.36.25,0-.88-.36-1.14-1.21-2.77-3.76-4.29.67-2.96-1.15-3.16-1.89-3.97-1.38-1.53-2-8.46-2.24-10.1-.24-1.64-.18-3.53-.18-3.53l.91,1.33s.85,2.77,2.43,4.29c1.58,1.51,7.39,10.36,8.11,11.87.36,1.1,1.49,1.18,1.58,1.45.63.16-1.11,2.29-.94,2.9.54-.95.91-.69.85-.51-.06.19-.73,1.22-.36,1.58.06-1.08.43.38.61.12-.07.1.02.54.04.67.02.13.05.26.11.38.09.18.26.41.39.54.09-.06.14-.16.21-.24-.02.16.09.39.14.55.05.14.26.41.25.55.12-1.52.44-1.68.44-1.68,0,0-.33.98.61,1.76.81.67.48-.08,1.21.25,0,0,.32,1.93.48,2.52,0,2.1,12.01,2.27,10.8,0-1.58-2.52-1.94-4.29-3.04-4.92-.48-1.14-1.21-2.52-3.39-2.77-.49-1.64-.67-.76-1.76-2.21-.34-.49-1.17-.3-1.71-1.26-.72-1.28.61-2.98-.24-4.24-.85-1.26-2.06-.76-5.04-3.34-1.09-.76-2.24-2.9-3.15-4.6Z"/>
        <path class="cls-5" d="M140.81,70.63l-.3-.02c-.07,0-4.3-.28-9.37-.51l.31-3.19.03-.28h-.28c-.28,0-27.89.42-34.84.17-6.11-.22-23.62-.19-32.04-.17h-3.79c-5.89,0-13.88.12-18.58.28-1.14.04-1.94-.04-3.05-.14-2.24-.21-5.63-.54-15.39-.28h-.26s.02.27.02.27l.19,3.13-9.29.56-.32.02.09.3,1.8,6.36-.72,6-.04.29s.3,0,.3,0l15.85-.5h.33s.27.09.27.09l.05-.3.42-2.37c4.81.02,10.53.03,13.16-.06,1.98-.07,5.4.04,9.36.16,6.02.18,13.52.41,19.56.15,5.54-.24,13.55-.19,21.29-.14,6.3.04,12.24.08,16.79-.03,3.22-.08,6.12-.03,8.59.06l-.2,2.63h0s-.03.36-.03.36l.32-.08c3.72,0,18.32,1,18.47,1.01l.31.02-.04-.3-.72-6.09,1.69-7.1.07-.29Z"/>
        <g>
          <g>
            <g>
              <path class="cls-6" d="M130.05,81.22l-.26-.04s-.08-.01-.21-.03l-6.76,1.78c4.79.17,14.6.82,16.43.95l-.69-5.84v-.04s0-.04,0-.04l1.63-6.85c-1.06-.07-4.77-.29-9.09-.5l-1.01,10.35-.03.26Z"/>
              <path class="cls-6" d="M16.24,77.04v.05s0,.05,0,.05l-.69,5.76,14.65-.46-5.76-2.15c-.07,0-.11,0-.12,0h-.24s-.01-.24-.01-.24l-.59-9.65-8.97.54,1.73,6.11Z"/>
            </g>
            <path class="cls-8" d="M108.27,67.38s-.08.07-.12.1c-.69.59-1.26,1.18-2.22,1.22-.41-.08-.9-.52-1.24-1.32-3.57,0-6.61-.02-8.35-.08-6.1-.22-23.61-.19-32.02-.17h-3.8c-5.89,0-13.87.12-18.56.28-1.18.04-1.99-.04-3.11-.15-2.21-.21-5.54-.53-15.06-.28l.78,12.79c1.99.02,16.16.15,20.78,0,2-.07,5.42.04,9.39.16,6.02.18,13.5.41,19.53.15,5.55-.24,13.57-.19,21.32-.14,6.29.04,12.24.08,16.78-.03,9.23-.22,15.88.55,17.25.72l1.32-13.49c-1.91.03-13.19.19-22.65.23Z"/>
          </g>
          <g>
            <g>
              <path class="cls-5" d="M36.83,76.27c-.1,0-.18-.04-.26-.1-.05-.04-.16-.16-.38-.47,0,0-.72-.99-.95-1.32.92-.18,1.38-.69,1.38-1.54,0-.26-.05-.5-.15-.73-.11-.24-.27-.43-.49-.57-.19-.12-.4-.2-.65-.25-.24-.05-.56-.07-.98-.07h-3.33s-.09.04-.09.09v.12s.03.07.06.08c.09.03.14.05.15.07.02.02.03.06.03.12v4.38c0,.06,0,.09-.03.12-.02.02-.06.05-.15.07-.04.01-.07.05-.07.09v.12s.04.09.09.09h1.66s.09-.04.09-.09v-.12s-.03-.08-.07-.09c-.09-.02-.13-.05-.15-.07-.02-.02-.03-.06-.03-.12v-1.63h1.29l1.05,1.49c.15.21.16.27.17.28,0,.01-.04.04-.12.05-.04,0-.07.04-.07.09v.12s.04.09.09.09h1.93s.09-.04.09-.09v-.12s-.04-.09-.08-.09ZM35.28,72.84c0,.24-.08.39-.25.48-.08.04-.18.07-.27.09-.1.01-.28.02-.55.02h-1.71v-1.18h1.71c.27,0,.45,0,.55.02.1.01.19.04.27.09.17.09.25.25.25.48Z"/>
              <path class="cls-5" d="M42.6,71.89c-.56-.5-1.32-.75-2.27-.75-1.27.02-2.18.45-2.72,1.29-.28.44-.42.94-.42,1.47,0,.36.07.71.21,1.04.15.37.38.7.69.97.56.5,1.31.75,2.25.75,1.26,0,2.17-.44,2.72-1.3.28-.44.43-.92.43-1.43,0-.83-.3-1.52-.89-2.04ZM41.99,74.58c-.1.24-.25.44-.44.61-.32.28-.72.42-1.22.42s-.9-.14-1.22-.42c-.38-.33-.57-.76-.57-1.29s.19-.96.57-1.29c.32-.28.73-.42,1.21-.42.5,0,.9.14,1.23.42.38.32.57.76.57,1.31,0,.23-.04.45-.13.66Z"/>
              <path class="cls-5" d="M49.94,76.27c-.09-.02-.16-.05-.22-.1-.03-.03-.11-.12-.21-.32,0,0-2.03-3.98-2.03-3.98-.04-.09-.07-.15-.07-.21,0-.02,0-.09.17-.14.04-.01.06-.05.06-.08v-.12s-.04-.09-.09-.09h-1.89s-.09.04-.09.09v.12s.02.07.06.08c.17.06.17.14.17.17,0,.04-.01.13-.08.26,0,0-1.96,3.97-1.96,3.97-.07.14-.12.23-.17.27-.04.04-.11.07-.2.09-.04,0-.07.04-.07.09v.12s.04.09.09.09h1.76s.09-.04.09-.09v-.12s-.03-.08-.07-.09c-.2-.05-.2-.12-.2-.15,0-.03.01-.09.07-.2,0,0,.26-.52.33-.68h2.31c.08.16.34.68.34.68.06.12.07.17.07.2,0,.04,0,.12-.18.15-.04,0-.07.04-.07.09v.12s.04.09.09.09h1.96s.09-.04.09-.09v-.12s-.03-.08-.07-.09ZM47.31,74.36h-1.46l.74-1.55.73,1.55Z"/>
              <path class="cls-5" d="M54.54,72.9s.02.06.04.08l.11.06s.05.01.07,0c.02,0,.04-.02.05-.04l.63-1.22s0-.1-.04-.12l-.11-.06s-.07-.01-.09,0c-.06.05-.11.07-.14.07,0,0-.05,0-.24-.08-.44-.18-.81-.31-1.11-.37-.3-.07-.63-.1-.97-.1-.83,0-1.46.2-1.89.59-.33.3-.49.69-.49,1.15,0,.28.07.53.19.75.15.24.34.42.6.55.17.08.34.14.52.18.17.04.45.08.87.12,0,0,.6.06.6.06.39.04.66.09.78.13.2.08.23.2.23.29,0,.09-.03.18-.1.27-.07.09-.17.17-.29.23-.23.11-.52.16-.85.16-.31,0-.63-.05-.98-.16-.34-.1-.59-.22-.75-.36-.09-.08-.14-.16-.14-.25v-.05s-.02-.07-.05-.08l-.11-.05s-.05-.01-.07,0c-.02,0-.04.02-.05.05l-.58,1.27s0,.09.04.11l.11.06s.07.01.09,0c.08-.06.1-.06.11-.06,0,0,.05.01.22.09.69.33,1.41.5,2.12.5.4,0,.78-.05,1.13-.14.47-.13.83-.33,1.06-.6.25-.3.38-.64.38-1.03,0-.24-.05-.47-.16-.68-.11-.21-.26-.39-.45-.52-.18-.12-.39-.22-.62-.29-.23-.07-.53-.12-.9-.16,0,0-.61-.06-.61-.06-.4-.04-.67-.08-.79-.11-.27-.08-.3-.22-.3-.31s.04-.18.12-.27c.09-.09.2-.16.33-.2.2-.06.44-.09.7-.09.6,0,1.14.15,1.59.45.17.11.18.18.18.2,0,.01,0,.03,0,.05h0Z"/>
              <path class="cls-5" d="M60.38,72.98l.11.06s.04.01.07,0c.02,0,.04-.02.05-.04l.63-1.22s.01-.04,0-.07c0-.02-.02-.04-.04-.05l-.11-.06s-.07-.01-.09,0c-.06.04-.1.07-.14.07-.01,0-.06,0-.24-.08-.44-.18-.81-.3-1.11-.37-.3-.07-.63-.1-.97-.1-.83,0-1.46.2-1.88.59-.33.3-.49.69-.49,1.15,0,.28.07.53.19.75.14.24.34.42.6.55.17.08.35.14.52.18.17.04.45.08.86.12,0,0,.6.06.6.06.39.04.66.09.78.13.15.06.23.15.23.29,0,.09-.03.19-.1.27-.07.09-.17.17-.29.23-.23.11-.52.16-.85.16-.31,0-.64-.05-.98-.16-.34-.1-.59-.22-.75-.36-.09-.08-.14-.16-.14-.25v-.05s-.02-.07-.05-.08l-.12-.05s-.05-.01-.07,0c-.02,0-.04.02-.05.05l-.58,1.27s0,.09.04.11l.11.06s.07.01.09,0c.08-.06.11-.07.11-.07.01,0,.07.02.23.09.69.33,1.4.5,2.12.5.4,0,.78-.05,1.13-.14.47-.13.83-.33,1.06-.6.26-.3.38-.64.38-1.03,0-.24-.06-.47-.16-.68-.11-.22-.26-.39-.45-.52-.18-.12-.38-.22-.62-.29-.23-.07-.52-.12-.9-.16,0,0-.61-.06-.61-.06-.4-.04-.67-.08-.79-.11-.27-.08-.3-.22-.3-.31s.04-.18.12-.27c.09-.09.2-.16.34-.2.2-.06.44-.1.7-.1.6,0,1.13.15,1.58.45.17.11.18.18.18.2,0,.01,0,.03,0,.05,0,.03.01.07.05.08Z"/>
              <path class="cls-5" d="M64.94,71.13c-1.26.02-2.18.45-2.72,1.29-.28.44-.42.93-.42,1.47,0,.36.07.71.21,1.04.16.38.38.7.69.97.56.5,1.32.75,2.26.75,1.26,0,2.17-.44,2.72-1.3.28-.44.43-.92.43-1.43,0-.83-.3-1.52-.89-2.04-.56-.5-1.32-.75-2.27-.75ZM66.6,74.58c-.1.24-.25.44-.44.61-.32.28-.73.42-1.22.42s-.89-.14-1.22-.42c-.38-.33-.57-.75-.57-1.29s.19-.97.57-1.29c.33-.28.72-.42,1.21-.42.49,0,.9.15,1.22.42.38.32.57.76.57,1.31,0,.23-.05.45-.13.66Z"/>
            </g>
            <g>
              <path class="cls-5" d="M76.78,76.27c-.11-.02-.21-.06-.28-.11-.05-.04-.17-.15-.4-.42,0,0-1.67-1.95-1.99-2.33l1.74-1.36s.3-.24.3-.24c.2-.16.3-.24.33-.25.02-.01.07-.03.17-.05.04,0,.07-.04.07-.09v-.12s-.04-.09-.09-.09h-2.18s-.09.04-.09.09v.12s.03.08.07.09c.12.02.15.06.15.07,0,0-.01.04-.12.13,0,0-1.57,1.25-2.05,1.63v-1.63c0-.05.01-.09.03-.12.01-.02.05-.04.15-.07.04,0,.07-.04.07-.09v-.12s-.04-.09-.09-.09h-1.66s-.09.04-.09.09v.12s.03.07.06.08c.1.03.14.06.15.07.02.02.03.06.03.12v4.38c0,.06-.01.1-.03.12-.01.02-.05.05-.15.07-.04.01-.07.04-.07.08v.12s.04.09.09.09h1.66s.09-.04.09-.09v-.12s-.03-.08-.07-.09c-.1-.02-.13-.05-.15-.07-.02-.02-.03-.06-.03-.12v-1.34l.7-.55c.27.32,1.52,1.8,1.51,1.8.13.15.16.21.17.23,0,0-.03.03-.13.06-.04,0-.07.04-.07.09v.12s.04.09.09.09h2.08s.09-.04.09-.09v-.12s-.03-.08-.07-.09Z"/>
              <path class="cls-5" d="M83.04,71.22h-1.57s-.09.04-.09.09v.12s.03.07.06.08c.1.03.14.06.15.07.02.02.03.06.03.12v2.58c0,.29-.02.5-.05.64-.03.13-.09.23-.16.32-.23.24-.64.36-1.22.36s-.98-.12-1.22-.36c-.08-.08-.14-.19-.17-.32-.03-.13-.05-.35-.05-.64v-2.58c0-.05.01-.1.03-.13.01-.01.05-.04.15-.07.04-.01.07-.04.07-.08v-.12s-.04-.09-.09-.09h-1.66s-.09.04-.09.09v.12s.03.07.06.08c.1.03.14.06.15.07.02.02.03.06.03.12v2.9c0,.37.05.7.15.97.11.28.3.51.58.67.46.27,1.13.41,1.99.41,1.19,0,2-.26,2.39-.77.22-.29.33-.72.33-1.29v-2.9c0-.06.01-.09.03-.12.01-.02.05-.04.15-.07.04-.01.06-.05.06-.08v-.12s-.04-.09-.09-.09Z"/>
              <path class="cls-5" d="M90.69,71.22h-2.01s-.09.04-.09.09v.12s.03.08.08.09c.12.01.12.06.12.09,0,.01,0,.07-.08.21,0,0-1.09,1.94-1.39,2.48l-1.38-2.53c-.04-.07-.04-.11-.04-.13,0-.05.01-.1.12-.12.04-.01.07-.04.07-.08v-.12s-.04-.09-.09-.09h-2.05s-.09.04-.09.09v.12s.03.07.06.08c.1.03.14.06.15.07.02.02.03.06.03.11v4.38c0,.06-.01.1-.03.12-.01.01-.05.04-.15.07-.04.01-.07.05-.07.09v.12s.04.09.09.09h1.56s.09-.04.09-.09v-.12s-.03-.07-.07-.09c-.1-.03-.14-.05-.15-.07-.02-.03-.03-.07-.03-.12v-2.83l1.8,3.27s.04.05.08.05c.03,0,.06-.02.08-.04l1.91-3.29v2.85c0,.06-.01.1-.03.12-.03.03-.08.05-.15.07-.04,0-.07.04-.07.09v.12s.04.09.09.09h1.66s.09-.04.09-.09v-.12s-.03-.07-.07-.09c-.1-.03-.14-.06-.15-.07-.02-.02-.03-.06-.03-.12v-4.38c0-.05.01-.09.03-.12.02-.02.06-.05.15-.07.04-.01.06-.05.06-.08v-.12s-.04-.09-.09-.09Z"/>
              <path class="cls-5" d="M97.76,76.27c-.09-.02-.16-.05-.22-.1-.04-.04-.11-.13-.21-.32,0,0-2.03-3.98-2.03-3.98-.04-.08-.06-.15-.06-.21,0-.02,0-.09.17-.14.04-.01.06-.05.06-.08v-.12s-.04-.09-.09-.09h-1.89s-.09.04-.09.09v.12s.02.07.06.08c.15.05.17.12.17.17,0,.04-.01.12-.08.26,0,0-1.96,3.97-1.96,3.97-.09.18-.14.24-.17.27-.04.04-.11.07-.2.08-.04,0-.07.04-.07.09v.12s.04.09.09.09h1.76s.09-.04.09-.09v-.12s-.03-.08-.07-.09c-.13-.03-.2-.08-.2-.15,0-.04.02-.11.07-.2,0,0,.26-.52.34-.68h2.31c.08.16.34.68.34.68.06.12.07.17.07.2,0,.04,0,.12-.18.15-.04,0-.07.04-.07.09v.12s.04.09.09.09h1.96s.09-.04.09-.09v-.12s-.03-.08-.07-.09ZM95.12,74.36h-1.46l.73-1.55.73,1.55Z"/>
              <path class="cls-5" d="M104.99,71.22h-2.01s-.09.04-.09.09v.12s.03.08.08.09c.12.01.12.06.12.09,0,.01,0,.07-.09.21,0,0-1.09,1.94-1.39,2.48l-1.37-2.53c-.03-.05-.04-.1-.04-.13,0-.06.02-.1.12-.12.04-.01.07-.04.07-.08v-.12s-.04-.09-.09-.09h-2.05s-.09.04-.09.09v.12s.03.07.06.08c.09.03.14.06.16.08.02.02.03.06.03.11v4.38c0,.06-.01.1-.03.12-.02.02-.06.05-.15.07-.04.01-.07.04-.07.08v.12s.04.09.09.09h1.56s.09-.04.09-.09v-.12s-.03-.08-.07-.09c-.1-.03-.14-.06-.15-.07-.02-.03-.03-.07-.03-.12v-2.83l1.8,3.27s.04.05.08.05c.03,0,.06-.02.08-.04l1.91-3.29v2.85c0,.05-.01.1-.04.12-.03.03-.08.05-.15.07-.04,0-.07.04-.07.09v.12s.04.09.09.09h1.66s.09-.04.09-.09v-.12s-.03-.07-.07-.09c-.11-.03-.14-.06-.15-.07-.02-.02-.03-.07-.03-.12v-4.38c0-.05.01-.09.03-.12,0,0,.04-.04.15-.07.04-.01.06-.05.06-.08v-.12s-.04-.09-.09-.09Z"/>
              <path class="cls-5" d="M108.92,71.13c-1.27.02-2.18.45-2.72,1.29-.28.44-.42.93-.42,1.47,0,.36.07.72.2,1.04.16.38.39.7.69.97.56.5,1.32.75,2.26.75,1.25,0,2.17-.44,2.72-1.3.28-.44.43-.92.43-1.43,0-.83-.3-1.51-.89-2.04-.56-.5-1.32-.75-2.27-.75ZM110.59,74.58c-.1.24-.25.44-.44.61-.32.28-.73.42-1.21.42s-.9-.14-1.22-.42c-.38-.33-.57-.76-.57-1.29s.19-.97.57-1.29c.33-.28.72-.42,1.21-.42.49,0,.9.15,1.22.42.38.32.57.76.57,1.31,0,.22-.05.45-.13.66Z"/>
              <path class="cls-5" d="M117.67,70.98h-.12s-.07.03-.08.06c-.03.1-.06.13-.07.15-.02.02-.07.03-.13.03h-4.47c-.06,0-.1-.01-.12-.03-.02-.01-.05-.05-.08-.15-.01-.04-.05-.06-.08-.06h-.12s-.09.04-.09.09v1.34s.04.09.09.09h.12s.07-.03.08-.06c.03-.1.06-.14.07-.15.02-.02.06-.03.12-.03h1.56v3.83c0,.06-.01.1-.03.12-.01.02-.05.05-.15.07-.04,0-.07.04-.07.09v.12s.04.09.09.09h1.66s.09-.04.09-.09v-.12s-.03-.08-.07-.09c-.1-.03-.14-.06-.15-.07-.02-.03-.04-.07-.04-.12v-3.83h1.56c.06,0,.1.01.13.03.01.01.05.05.07.15.01.04.05.06.08.06h.12s.09-.04.09-.09v-1.34s-.04-.09-.09-.09Z"/>
              <path class="cls-5" d="M123.39,71.89c-.56-.5-1.32-.75-2.27-.75-1.26.02-2.18.45-2.71,1.29-.28.44-.42.93-.42,1.47,0,.36.07.71.21,1.04.15.37.38.7.68.97.56.5,1.32.75,2.26.75,1.25,0,2.17-.44,2.72-1.3.28-.44.43-.93.43-1.43,0-.83-.3-1.52-.89-2.04ZM122.78,74.58c-.1.24-.24.44-.44.61-.32.28-.73.42-1.22.42s-.9-.14-1.22-.42c-.38-.33-.57-.75-.57-1.29s.19-.97.57-1.29c.32-.28.73-.42,1.21-.42.5,0,.9.14,1.23.42.38.32.57.76.57,1.31,0,.23-.04.45-.13.66Z"/>
            </g>
          </g>
        </g>
      </g>
    </g>
  </g>
</svg>