<?xml version="1.0" encoding="UTF-8"?>
<svg id="_レイヤー_2" data-name="レイヤー 2" xmlns="http://www.w3.org/2000/svg" xmlns:xlink="http://www.w3.org/1999/xlink" viewBox="0 0 426.45 444.23">
  <defs>
    <style>
      .cls-1 {
        fill: none;
      }

      .cls-2 {
        fill: #c0ae72;
      }

      .cls-3 {
        fill: #221815;
      }

      .cls-4 {
        fill: #ffe100;
      }

      .cls-5 {
        fill: #e6002d;
      }

      .cls-6 {
        fill: #fff;
      }

      .cls-7 {
        fill: #750069;
      }

      .cls-8 {
        clip-path: url(#clippath);
      }
    </style>
    <clipPath id="clippath">
      <path class="cls-1" d="M390.94,219.25c.07-12.49-5.34-22.53-15.6-29.03-.69-.44-1.39-.87-2.1-1.27-.77-.43-1.55-.85-2.34-1.22-11.64-5.67-23.69-4.48-34.15-2.53-5.83,1.33-9.45,2.5-11.74,3.46-1.46-1.46-3.03-2.84-4.74-4.07-.97-.67-6.37-4.22-14.15-5.76-.48-2.23-.98-3.96-1.26-4.88-.01-.05-.23-.79-.25-.84-1.29-3.88-4.26-11.63-9.68-19.89-6.8-10.34-15.02-17.72-24.49-21.96-15.15-6.65-29.01-3.93-42.64,8.55-6.19,6.4-11.53,14.18-15.87,23.1-.54,1.12-4.52,10.56-4.96,11.86-1.56,4.27-6.56,19.27-5.14,33.03.89,10.47,5.87,20.98,13,27.42.12.11.54.44.67.53,7.94,6.03,16.67,9.07,25.99,9.07,1.13,0,2.27-.05,3.42-.13,12.05-.93,21.23-4.61,21.51-4.72,1.18-.45,2.22-.93,3.33-1.4,3.32,4.59,7.6,8.48,12.65,11.05,6.29,3.17,11.23,4.29,15.81,4.29.67,0,1.31-.14,1.97-.18.25.54.51,1.09.92,1.73,9.83,18.52,24.19,24.87,33.25,24.47.58.03,1.17.05,1.76.05,15.78,0,33.72-11.18,44.46-28.18l.53-.88c3.53-5.77,8.87-14.5,9.85-31.66Z"/>
    </clipPath>
  </defs>
  <g id="_レイヤー_1-2" data-name="レイヤー 1">
    <g>
      <path class="cls-7" d="M426.45,226.72c0,117.76-84.41,196.43-213.22,196.43S0,344.48,0,226.72,95.46,13.49,213.22,13.49s213.22,95.46,213.22,213.23Z"/>
      <g>
        <g>
          <path class="cls-3" d="M419.51,295.28c-1.3-.72-2.84-1.24-3.8-1.44-6.81-1.4-13.64-2.18-20.31-2.33-3.7-.09-7.16,0-10.5.16-1.79-20.11-8.09-39.31-19.27-58.27,1.62-9.72,2.12-22.36,2.53-32.66l.21-5.17c.84-18.75-5.88-43.26-14.38-52.46-2.12-2.29-5.31-4.04-8.12-4.45-21.54-3.21-49.87,5.35-81.73,24.67l-4-.59c-26.18-3.9-58.77-8.75-103.06,1.53-1.4.32-2.95.78-4.54,1.26-2.36.71-6.76,1.98-7.92,1.68-8.49-4.64-30.28-15.71-49.14-18.49-17.53-2.61-29.09.83-34.52,10.31-15.37,28.86-7.65,69.07-4.44,79.46-16,31.01-15.7,63.87-15.6,67.47-.01.84.03,1.72.04,2.58-.84.05-1.6.09-2.48.16-8.93.71-17.8,1.58-28.07,4.44-3.34.92-6.41,3.14-5.81,5.59.47,1.92,2.84,2.35,4.83,2.35,1.54,0,2.85-.25,2.89-.26,10.63-2.16,16.02-2.75,23.47-3.55l3.14-.34c.81-.09,1.61-.13,2.42-.2.81,9.68,2.85,19.99,6.48,30.18-4.44,1.67-9.56,3.89-15.71,7.07-.04.02-3.98,2.08-4.74,4.62-.23.78-.15,1.56.23,2.24.62,1.11,1.92,1.46,3.31,1.46,2.3,0,4.82-.95,4.86-.96,1.84-.81,3.57-1.58,5.21-2.31,3.72-1.66,6.96-3.05,10-4.23,3.93,8.9,9.09,17.53,15.73,25.34-6.84,3.96-15.09,9.33-24.43,16.6-1.94,1.52-3.19,3.45-3.41,5.32-.12,1.04.11,1.99.65,2.67.41.51,1.18.73,2.1.73,1.62,0,3.71-.68,5.14-1.7,10.26-7.27,19.16-12.9,26.15-17.04,7.51,7.31,16.5,13.67,27.22,18.49,35.27,15.84,67.77,19.4,108.95,20l4.04-.06,4.36.06c47.38-.7,84.81-7.46,111.26-20.11,15.35-7.34,27.56-17.24,36.7-29.54,7.64,2.61,16.9,6.62,25.83,12.66,1.14.79,3.45,2.16,5.5,2.16.92,0,1.79-.27,2.47-1.01.29-.3.61-.85.53-1.73-.17-1.87-2.23-4.46-3.56-5.43-9.12-6.66-18.29-10.95-26.01-13.74,5.25-8.67,9.17-18.37,11.72-29.12,5.64.9,12.22,2.35,19.44,4.77.04,0,2.17.71,4.26.71,1.57,0,3.11-.39,3.7-1.78.27-.63.26-1.33-.03-2.02-1.04-2.48-5.39-4.32-5.43-4.33-7.12-2.82-14.12-4.47-20.31-5.49,1.35-8.14,2-16.8,1.93-26,.02-1.57-.07-3.12-.1-4.67,2.93-.16,5.97-.26,9.16-.22,4.96.05,10.48.42,15.35.74,1.52.1,2.99.19,4.4.28,3.19.18,7.1-.41,7.57-2.73.17-.81-.11-2.03-2.36-3.29Z"/>
          <path class="cls-6" d="M354.53,233.41c1.76-9.13,2.29-22.42,2.71-33.11l.22-5.23c.76-16.97-5.67-38.25-11.49-44.55-.51-.56-1.4-.99-1.72-1.06-18.78-2.76-45.27,5.51-74.57,23.31-2.08,1.26-3.22,1.95-5.23,1.65l-5.91-.87c-25.25-3.76-56.69-8.45-98.98,1.36-1.2.27-2.52.67-3.87,1.08-5.38,1.6-11.46,3.43-16.3.8-7.98-4.35-28.38-14.75-45.5-17.28-12.59-1.85-20.45-.25-23.34,4.78-10.47,19.65-8.42,46.45-5.73,61.45.72-.85,1.42-1.62,2.07-2.27,2.63-2.63,5.32-3.6,7.16-2.33,1.91,1.32,1.15,4.66-.08,7.33-1.22,2.65-3.69,7.76-5.63,11.18,0,0,0,.01,0,.02-16.85,29.6-16.54,62.53-16.45,66.2,0,.74.03,1.51.04,2.26,9.31.02,14.99,1,17.89,1.74l.21.05c.06.01,7.62,1.41,7.18,5.04-.39,3.23-4.98,2.99-7.2,2.87l-.82-.06c-2.44-.37-8.96-1.24-16.86-1.4.79,8.79,2.71,18.09,6.01,27.25,4.52-1.04,7.71-1.28,9.83-1.4l.29-.02c2.79-.15,9.39-.25,9.73,3.07.3,2.87-4.87,4.24-7.11,4.7-1.04.21-2.16.36-3.41.53-1.75.24-3.74.52-6.09,1.02,3.77,8.24,8.76,16.15,15.14,23.24,6.63-3.21,10.45-4.39,10.53-4.42.06-.03,6.57-1.68,7.84,1.28,1.09,2.56-1.67,3.92-4.33,5.24-.85.42-1.74.86-2.55,1.35,0,0-.09.05-.26.13-1.03.52-2.75,1.4-5.02,2.62,6.17,5.56,13.32,10.43,21.71,14.2,33.54,15.07,64.84,18.46,104.46,19.04l4.04-.06,4.36.06c44.98-.67,81.88-7.25,106.54-19.04,12.36-5.91,22.38-13.54,30.17-22.9-3.71-.86-5.98-1.18-6.04-1.19-1.42-.14-5.85-1.17-7.34-3.19-.44-.61-.61-1.28-.47-1.94.75-3.62,7.32-2.9,10.09-2.43.35.03,3.75.38,9.03,1.65,5.2-7.94,9.03-16.98,11.53-27.11-2.33-.14-4.2-.17-5.48-.17-2.44.01-5.28-.05-5.28-.05-.74-.07-6.59-.76-6.82-3.68-.03-.39.05-1,.6-1.64,1.31-1.53,4.62-2.39,6.03-2.5l.31-.03c.84-.08,3.07-.3,5.31-.32h.61c1.62,0,3.81.05,6.42.22,1.29-7.68,1.93-15.9,1.86-24.75.01-1.24-.07-2.46-.09-3.69-6.85.85-12.47,1.97-16.3,2.74-1.96.39-3.38.68-4.24.78-1.38.2-2.56.3-3.55.3-2.31,0-3.58-.56-4-1.72-.29-.84-.23-1.74.18-2.59.74-1.52,2.53-2.81,5.19-3.72,2.09-.71,10.2-3.2,22.24-4.68-1.72-19.09-7.86-37.28-18.78-55.31-.7-1.16-.95-2.54-.69-3.87Z"/>
        </g>
        <g>
          <path class="cls-3" d="M115.31,315.09c-3.5,7.1-3.52,18.45,1.21,24.48,2.92,3.45,7.8,5.41,14.09,4.33,5.43-.94,8.52-5.9,9.55-9.85,2.23-8.84-.14-19.68-5.23-23.79-5.36-3.91-15.39-3.82-19.61,4.83Z"/>
          <path class="cls-3" d="M285.41,316.12c-3.5,7.1-3.52,18.45,1.21,24.48,2.92,3.45,7.8,5.41,14.09,4.33,5.43-.94,8.52-5.9,9.55-9.85,2.23-8.84-.14-19.68-5.23-23.79-5.36-3.91-15.39-3.82-19.61,4.83Z"/>
          <g>
            <path class="cls-3" d="M230.45,346.84c-1.17-4.16-4.32-7.43-8.44-8.76-7.86-2.55-15.82-1.48-20.77,2.79-5.16,4.56-5.4,12.65-2.18,16.84,2.99,3.88,7.72,5.9,14.48,6.2.31.01.63.02.94.02,5.41,0,10.44-1.98,13.31-5.27v-.02c2.83-3.28,3.82-7.69,2.67-11.81Z"/>
            <path class="cls-4" d="M219.9,344.58c-2.1-.68-4.24-1.01-6.25-1.01-3.19,0-6.05.84-7.91,2.44-2.45,2.17-2.29,6.18-1.26,7.52,1.68,2.18,4.74,3.34,9.35,3.54,4.27.17,7.46-1.38,8.79-2.9,1.34-1.56,1.79-3.55,1.24-5.49-.54-1.94-2.02-3.48-3.96-4.11Z"/>
          </g>
        </g>
      </g>
      <g>
        <g>
          <path class="cls-3" d="M174.31,404.92c-1.48-4.63-4.48-8.3-7.74-11.99-11.57-11.1-31.76-15.56-47.81-10.64-11.58,3.03-24.94,13.2-26.89,28.3-1.79,11.76,2.42,22.06,11.65,27.76,9.31,4.78,19.42,4.67,29.7-.17.87-.33,1.3-.24,3.57.72,1.42.61,3.17,1.34,5.28,1.7,3.57,1.03,6.76,1.46,9.57,1.46,7.46,0,12.38-3.02,15.44-6.04,7.97-7.84,10.94-20.61,7.23-31.1Z"/>
          <path class="cls-6" d="M163.97,408.51c-.03-.07-.05-.13-.07-.2-.83-2.65-3.05-5.31-5.25-7.82-8.41-8.05-24.41-11.47-36.92-7.67-8.41,2.2-17.79,9.67-19.04,19.29-.55,3.62-1.01,12.25,6.19,16.72,5.93,3.02,12.4,2.87,20-.7,1.9-.75,3.63-1.02,5.19-1.02,2.92,0,5.24.98,6.98,1.72,1.12.47,2.08.88,2.97,1.01.27.04.53.09.78.17,6.51,1.94,11.44,1.34,14.59-1.78,4.91-4.82,6.87-13.3,4.58-19.71Z"/>
        </g>
        <g>
          <path class="cls-3" d="M338.19,412.87c-1.98-15.21-15.33-25.39-26.69-28.34-16.27-4.97-36.47-.53-48.34,10.91-2.82,3.2-5.95,7-7.44,11.65-3.71,10.49-.74,23.27,7.22,31.1,3.07,3.03,8,6.05,15.45,6.05,2.81,0,5.99-.43,9.57-1.46,2.11-.36,3.85-1.1,5.28-1.7,2.29-.98,2.71-1.06,3.23-.87,10.61,5,20.73,5.1,30.44.1,8.83-5.48,13.04-15.78,11.27-27.43Z"/>
          <path class="cls-6" d="M327.35,414.4c-1.27-9.74-10.64-17.21-18.84-19.34-3.53-1.08-7.32-1.6-11.13-1.6-9.92,0-20.02,3.48-26.32,9.54-1.88,2.17-4.1,4.83-4.94,7.48-.02.07-.04.13-.07.2-2.29,6.41-.33,14.89,4.56,19.7,3.17,3.11,8.06,3.72,14.6,1.78.25-.07.51-.13.78-.17.89-.13,1.85-.53,2.97-1.01,2.67-1.14,6.69-2.83,11.82-.85,7.93,3.73,14.41,3.88,20.73.63,6.81-4.24,6.35-12.88,5.82-16.38Z"/>
        </g>
      </g>
      <g>
        <g class="cls-8">
          <rect class="cls-6" x="239.53" y="117.91" width="112.63" height="182.76" transform="translate(-18.86 388.97) rotate(-65)"/>
          <rect class="cls-7" x="201.02" y="142.44" width="112.63" height="97.78" transform="translate(-24.82 343.7) rotate(-65)"/>
          <rect class="cls-5" x="291.22" y="172.47" width="13.7" height="94.18" transform="translate(120.71 -105.39) rotate(25)"/>
        </g>
        <path class="cls-3" d="M390.94,219.25c.07-12.49-5.34-22.53-15.6-29.03-.69-.44-1.39-.87-2.1-1.27-.77-.43-1.55-.85-2.34-1.22-11.64-5.67-23.69-4.48-34.15-2.53-5.83,1.33-9.45,2.5-11.74,3.46-1.46-1.46-3.03-2.84-4.74-4.07-.97-.67-6.37-4.22-14.15-5.76-.48-2.23-.98-3.96-1.26-4.88-.01-.05-.23-.79-.25-.84-1.29-3.88-4.26-11.63-9.68-19.89-6.8-10.34-15.02-17.72-24.49-21.96-15.15-6.65-29.01-3.93-42.64,8.55-6.19,6.4-11.53,14.18-15.87,23.1-.54,1.12-4.52,10.56-4.96,11.86-1.56,4.27-6.56,19.27-5.14,33.03.89,10.47,5.87,20.98,13,27.42.12.11.54.44.67.53,7.94,6.03,16.67,9.07,25.99,9.07,1.13,0,2.27-.05,3.42-.13,12.05-.93,21.23-4.61,21.51-4.72,1.18-.45,2.22-.93,3.33-1.4,3.32,4.59,7.6,8.48,12.65,11.05,6.29,3.17,11.23,4.29,15.81,4.29.67,0,1.31-.14,1.97-.18.25.54.51,1.09.92,1.73,9.83,18.52,24.19,24.87,33.25,24.47.58.03,1.17.05,1.76.05,15.78,0,33.72-11.18,44.46-28.18l.53-.88c3.53-5.77,8.87-14.5,9.85-31.66ZM262.41,229.77c-.08.03-8.08,3.2-18.37,4-11.87.92-19.45-4.84-21.88-6.66-5-4.53-8.79-12.66-9.45-20.34-1.18-11.51,3.16-24.52,4.61-28.48.39-1.06,3.95-9.57,4.44-10.59,3.84-7.89,8.52-14.72,13.66-20.06,10.24-9.37,19.41-11.29,30.57-6.38,7.49,3.36,14.15,9.4,19.77,17.96,4.92,7.49,7.54,14.61,8.32,16.9l.28.99c.1.33.23.76.37,1.26-3.12.38-6.39,1.21-9.76,2.67-.86.37-1.62.86-2.44,1.29-1.82-1.99-4.05-3.77-6.3-5.03-6.73-3.79-14.11-3.84-20.25-.13-6.59,4-10.46,11.71-9.86,19.44.23,6.03,2.69,11.16,7.12,14.82,2.87,2.37,6.27,3.78,9.4,4.6,0,.53-.07,1.05-.06,1.58.03,3.82.78,7.6,2.04,11.21-.76.31-1.43.63-2.24.94ZM264.12,205.08c-1.43-.51-2.96-1.24-4.22-2.39-1.79-1.63-2.7-3.75-2.82-6.7-.29-3.87,1.51-7.59,4.61-9.47,2.17-1.32,4.47-1.53,7.04-.66,2.02.68,3.67,1.86,4.9,2.98-4.48,4.46-7.75,9.99-9.5,16.23ZM306.89,241.47c-7.63,2.01-11.53,2.43-19.54-1.62-8.18-4.17-13.72-13.13-13.78-22.47-.43-11.82,5.62-21.89,15.78-26.29,3.44-1.49,6.75-2.05,9.77-2.05,8.05,0,14.03,3.92,14.85,4.49,9.03,6.49,13.34,17.88,10.69,28.51-2.49,11.49-10.8,17.57-17.75,19.43ZM371.63,245.41l-.6,1.01c-8.69,13.74-23.71,23.26-36.56,22.57-6.52.09-15.93-5.16-23.02-17.53,4.14-1.36,8.46-3.71,12.35-7.14,1.96,1.41,4.3,2.61,7,3.2,1.02.22,2.2.38,3.49.38,3.21,0,7.18-.98,11.47-4.38,4.8-4.81,6.43-10.35,4.84-17.49-2.82-8.54-9.53-11.12-14.31-12.03-.27-5.63-1.81-11.14-4.48-16.14,2.05-.65,4.64-1.36,7.15-1.93,8.49-1.57,18.35-2.62,27.19,1.67.59.28,1.14.58,1.7.89.53.3,1.04.61,1.59.96,7.15,4.53,10.61,10.99,10.57,19.46-.82,14.14-4.94,20.88-8.38,26.5ZM335.17,224.98c2.53.62,4.13,1.7,4.89,3.94.65,2.96.13,4.69-1.56,6.43-1.71,1.35-3.44,1.83-5.18,1.51-.94-.17-1.76-.57-2.49-1,1.88-3.16,3.39-6.77,4.33-10.89Z"/>
      </g>
    </g>
    <g>
      <path class="cls-6" d="M77.85,0L26.93,9.35l.14,8.05c.71,40.17,4.72,82.47,44.33,119.24l6.51,6.05,6.46-6.1c39.59-37.42,43.53-77.73,44.27-119.18l.14-8.05L77.85,0Z"/>
      <path d="M77.85,3.16L30.08,11.92l.1,5.41c.7,39.5,4.62,81.08,43.34,117.02l4.38,4.07,4.34-4.11c38.72-36.6,42.57-76.22,43.3-116.98l.1-5.41L77.85,3.16Z"/>
      <path class="cls-6" d="M77.85,6.4l-44.54,8.17.05,2.71c.69,38.82,4.52,79.65,42.32,114.74l2.19,2.03,2.17-2.05c37.82-35.74,41.59-74.66,42.3-114.71l.05-2.71-44.54-8.17Z"/>
      <path class="cls-2" d="M77.85,7.9l-43.04,7.9.03,1.46c.34,19.4,1.5,40.08,7.61,59.94,6.37,20.69,17.56,38.27,34.23,53.75l1.18,1.1,1.17-1.11c16.89-15.96,28.15-33.68,34.42-54.15,5.93-19.36,7.07-40.04,7.41-59.52l.03-1.46-43.04-7.9ZM77.85,129.68C42.15,96.54,37.3,58.99,36.56,17.22l41.3-7.58,41.3,7.58c-.74,41.77-5.06,78.2-41.3,112.45Z"/>
      <path class="cls-6" d="M77.85,129.68V9.64s41.3,7.58,41.3,7.58c-.74,41.77-5.06,78.2-41.3,112.45Z"/>
      <g>
        <path class="cls-7" d="M77.86,103.63s0,0,0,0V9.64h0l-41.3,7.58c.74,41.77,5.6,79.31,41.3,112.45v-6.7s0,0,0,0c2.54,0,4.94-.99,6.77-2.77,1.87-1.84,2.91-4.29,2.91-6.9,0-5.33-4.34-9.68-9.67-9.68Z"/>
        <g>
          <path class="cls-2" d="M74.08,117.14c.89.87,2,1.39,3.21,1.52v-10.72c-1.21.13-2.32.65-3.21,1.52v7.68Z"/>
          <path class="cls-2" d="M72.95,109.43l-1.62-1.62c-1.13,1.34-1.84,3.02-1.98,4.87h3.59v-3.25Z"/>
          <path class="cls-2" d="M82.75,110.6v2.08h3.62c-.14-1.89-.89-3.62-2.07-4.97-.44.44-1.34,1.34-1.55,1.55v1.34Z"/>
          <path class="cls-2" d="M76.67,106.87s.07-.01.1-.02c.16-.03.31-.05.47-.07.21-.02.41-.03.62-.03s.41.01.61.03c.14.01.28.04.42.06.05,0,.09.01.14.02,1.13.2,2.18.7,3.06,1.46.32-.32,1.03-1.03,1.41-1.41-1.51-1.33-3.48-2.15-5.64-2.15s-4.22.85-5.74,2.23c.4.4,1.06,1.06,1.41,1.41.9-.8,1.97-1.33,3.13-1.54Z"/>
          <path class="cls-2" d="M78.43,118.66c1.2-.13,2.31-.64,3.19-1.5v-7.73c-.88-.86-1.99-1.37-3.19-1.5v10.72Z"/>
          <path class="cls-2" d="M72.95,117.25v-3.43h-3.6c.11,1.82.83,3.53,2.01,4.93.47-.44,1.04-.98,1.36-1.28.09-.09.17-.16.23-.22Z"/>
          <path class="cls-2" d="M82.75,113.82v3.52s.02.02.03.03c.33.36,1.03,1.13,1.43,1.57,1.28-1.44,2.04-3.21,2.16-5.12h-3.62Z"/>
          <path class="cls-2" d="M79.03,119.75s-.09.01-.14.02c-.14.02-.28.05-.42.06-.2.02-.41.03-.61.03s-.41,0-.62-.03c-.15-.01-.3-.04-.45-.06-.04,0-.08-.01-.12-.02-1.15-.21-2.21-.72-3.11-1.51-.36.34-.96.9-1.42,1.34,1.58,1.45,3.58,2.27,5.72,2.27s3.99-.76,5.54-2.1l-1.32-1.45c-.88.75-1.93,1.25-3.05,1.45Z"/>
        </g>
      </g>
      <g>
        <path class="cls-6" d="M50.74,24.97s-.32-1.79-.33-1.87c.04-.08,2.28-5.21,2.28-5.21l-.27.05-2.12.37v.32c.19.06.33.15.39.28.02.04.03.07.03.11.03.19-.04.42-.12.58,0,0-.75,1.72-1.01,2.31-.26-.3-2.34-2.65-2.34-2.65-.21-.24-.59-.31-1.1-.22l-1.5.26-.16.03-2.01.36v.32c.17.04.27.11.32.21.11.24-.12.69-.3,1.06l-.13.27h0s-1.14,2.23-1.14,2.23l-.34-1.91-.03-.16c-.1-.51-.23-1.2.21-1.44l-.1-.3-2.32.41v.32c.5.09.62.78.7,1.28l.03.16.8,4.56.03.16c.1.51.23,1.2-.21,1.46l.11.3,2.32-.41v-.32c-.5-.09-.61-.76-.7-1.29l-.03-.16-.39-2.21,3.2,3.03c.31.29.96.42,1.58.32l1.14-.2v-.32c-.68-.2-1.16-.45-1.58-.85,0,0-2.52-2.33-2.93-2.7.09-.16,1.72-3.24,2.14-4.03l.18.06c.6.2.89.53,1.3.99,0,0,2.41,2.69,2.56,2.85.01.08.31,1.75.31,1.75,0,0,.06.33.08.4.08.46.12.93-.24,1.2l.12.29,2.31-.42.03-.31c-.59-.3-.64-.6-.76-1.31Z"/>
        <path class="cls-6" d="M66.66,15.23l-.29.18c-.12.09-.31.13-.48.16,0,0-4.81.85-4.81.85,0,0-.12,0-.12,0h-.43s-.08.12-.08.12l-.2,1.81c-.2-.21-.42-.4-.66-.57-.98-.69-2.21-.94-3.46-.71-1.3.2-2.42.87-3.16,1.9-.69.95-.95,2.1-.76,3.22.44,2.47,2.72,3.99,5.32,3.53,2.58-.45,4.25-2.74,3.82-5.21-.14-.78-.49-1.5-1.02-2.08l.24-.3c.26-.34.71-.58,1.26-.68,0,0,.71-.13.92-.16.05.27.93,5.25.93,5.25,0,0,.05.28.06.34.08.47.14,1.04-.24,1.26l.1.3,2.34-.41.04-.31c-.53-.2-.65-.62-.76-1.25,0-.01-.91-5.18-.96-5.45.22-.04.95-.17.95-.17.53-.09.83-.02.98.23l.23.39.08-.46.16-1.82ZM57.38,24.58c-1.82.32-3.26-1.19-3.53-2.77-.32-1.82.64-3.25,2.39-3.56,1.88-.33,3.2,1.2,3.48,2.82.32,1.8-.62,3.2-2.34,3.51Z"/>
        <path class="cls-6" d="M70.76,14.5c-1.3.2-2.42.87-3.16,1.9-.69.96-.96,2.1-.76,3.22.44,2.47,2.72,3.99,5.32,3.53,2.58-.45,4.25-2.74,3.82-5.21-.19-1.11-.82-2.08-1.76-2.74-.99-.69-2.21-.94-3.46-.71ZM72.03,21.99c-1.82.32-3.26-1.19-3.54-2.77-.32-1.82.64-3.25,2.39-3.56,1.88-.33,3.2,1.2,3.48,2.82.32,1.8-.62,3.2-2.34,3.51Z"/>
      </g>
      <g>
        <path d="M83.82,17.99c-.8-.56-1.57-1.08-1.45-1.73.15-.88,1.3-.73,1.53-.68.64.11,1.27.5,1.61,1l.19.28.31-1.76-.09-.05c-.53-.27-1.11-.47-1.74-.58-1.41-.25-3.17.03-3.45,1.63-.25,1.42.88,2.19,1.89,2.87.84.57,1.56,1.06,1.43,1.81-.12.7-1.08.92-1.72.81-.87-.15-1.73-.67-2.3-1.37l-.27-.33.11,2.02.06.04c.6.35,1.3.6,2.07.73,1.8.32,3.47-.57,3.72-1.98.22-1.25-.91-2.03-1.91-2.72Z"/>
        <path d="M102.43,17.89l-2.06-.36-.12.28c.47.39.42.76.31,1.37,0,.01-.61,3.45-.72,4.11-.34-.63-3.13-5.8-3.13-5.8,0,0-.12-.25-.12-.25,0-.01-.11-.28-.11-.28l-.03-.07-.08-.05-1.67-.3-.11.31c.4.36.38.77.26,1.42l-.82,4.66c-.12.65-.18,1.04-.79,1.27h-.03s0,0,0,0c-.51-.39-.64-.98-.76-1.6l-.04-.18-1.39-6.51-.09-.02-1.85-.33-.09.3c.12.06.18.13.21.21.05.17-.11.43-.25.66-.03.05-2.84,4.58-2.84,4.58,0,0-.09.16-.09.16-.34.57-.63,1.06-1.25,1.24v.31s2.16.38,2.16.38l.1-.29c-.21-.12-.25-.22-.27-.28-.01-.04-.01-.09,0-.14.03-.17.15-.38.3-.63,0,0,.66-1.14.85-1.46.17.03,2.58.46,2.76.49.03.17.35,1.82.35,1.82.07.33.1.52.08.63-.02.14-.14.17-.39.23v.31s2.4.42,2.4.42h0s.15.03.15.03l2.09.37.1-.29c-.48-.4-.42-.78-.31-1.39,0-.01.62-3.54.74-4.2.33.62,2.92,5.43,2.92,5.43.38.72.69,1.23,1.53,1.69l.17.09,1.19-6.74c.12-.65.18-1.04.78-1.26l-.02-.3ZM90.4,19.82c-.3-.05-1.59-.28-1.9-.34.17-.27,1.11-1.81,1.38-2.26.1.52.46,2.29.52,2.6Z"/>
        <path d="M108.94,26.46l.48-2.75.17-.59-.13-.1-1.79-.32-.1.29c.39.24.35.68.24,1.27,0,0-.24,1.36-.28,1.56-.49.04-1.01.03-1.52-.06-1.8-.32-2.96-1.96-2.65-3.74.3-1.73,1.78-2.71,3.59-2.39.42.07,1.44.32,1.86,1l.19.31.1-.35.26-1.46-.11-.04c-.62-.25-1.22-.42-1.83-.53-2.97-.52-5.26.82-5.71,3.34-.44,2.5,1.19,4.46,4.17,4.98.93.16,1.84.15,2.8.14h.21s0-.17,0-.17l.02-.42Z"/>
        <path d="M116.62,26.83l-.04-.18-1.39-6.51-.09-.02-1.85-.33-.09.29c.12.06.18.13.21.21.05.18-.11.43-.25.66l-2.84,4.58s-.09.16-.09.16c-.34.57-.63,1.06-1.25,1.24v.31s2.16.38,2.16.38l.1-.29c-.22-.13-.3-.24-.27-.43.03-.15.13-.34.29-.63,0,0,.67-1.14.85-1.46.17.03,2.58.46,2.75.49.03.17.35,1.82.35,1.82.07.33.1.52.08.63-.03.14-.14.17-.39.23v.31s2.4.42,2.4.42l.11-.28c-.51-.39-.63-.97-.76-1.6ZM114.57,24.08c-.3-.05-1.59-.28-1.9-.34.17-.27,1.11-1.81,1.38-2.26.1.51.45,2.29.52,2.6Z"/>
      </g>
      <g>
        <path d="M75.58,27.22h-.99v-1.5c.14-.01.83-.06.83-.06.45,0,.76.05,1,.32l.19.21.03-.28v-1.18l-.19.03-.29.03h-.09s-2.93,0-2.93,0l-.04.24c.35.13.35.64.34,1.04v.12s0,3.45,0,3.45v.12c0,.38.01.91-.34,1.03l.04.24h1.73l.04-.24c-.28-.11-.32-.47-.32-.82,0-.06,0-.12,0-.18v-.16s0-1.36,0-1.55h.62c.26,0,.56,0,.67.2l.2.38.03-.43v-1.09l-.18.03-.34.04Z"/>
        <path d="M77.02,29.8c-.38,0-.69.29-.69.64,0,.41.29.71.68.71.37,0,.67-.31.67-.68s-.3-.67-.66-.67Z"/>
        <path d="M81.57,30.2c-1.44,0-2.22-1.26-2.22-2.44,0-1.26.84-2.15,2.04-2.15.55,0,1.12.17,1.64.51l.17.1v-1.34l-.08-.02c-.67-.16-1.2-.23-1.69-.23-1.96,0-3.32,1.34-3.32,3.26,0,2.02,1.38,3.28,3.61,3.28.55,0,1.03-.1,1.43-.28l.04-.02.61-1.4-.31.16c-.45.26-1.14.56-1.9.56Z"/>
        <path d="M84.81,29.8c-.38,0-.69.29-.69.64,0,.41.29.71.68.71.37,0,.67-.31.67-.68s-.3-.67-.66-.67Z"/>
      </g>
      <g>
        <path d="M111.63,47.27c-1.92-3-1.83-9.16-1.17-12.82-1.83.83-3.41,3.12-3.97,4.37-.76-1.47-2.21-3.92-5.61-6.32-3.39-2.39-7.98-4.01-12.77-2.26,2.94.67,6.27,2.12,9.51,4.59-.01.04-.02.07-.02.07-.23.71-.33,1.43-.33,2.15,0,1.5,1.11,4.47,1.75,6.25-.87-2.13-3.54-5.94-12.23-6.24-3.53-.12-5.32-1.83-6.34-4.78-.4.88-.84,2.9-.84,3.98s.1,2.83,1.14,4.37c-.2-.19-.39-.38-.59-.57-2-2.18-4.15-3.77-6.52-4.81-3-1.37-7.7-1.27-10.98.45,0,0,.01,0,.02-.01,0,0-1.43.8-2.18,1.55.25-1.08.98-2.58,2.16-3.58-6.62-1.37-10.73,3.22-11.68,6.02-.31.92-.48,1.94-.48,2.97,0,1.45.35,2.83.98,4.01-.94-.07-1.94.05-3.07.41-3.21,1.01-4.98,3.91-5.27,6.18,0,0-.34,1.68,0,3.61-1.41,2.11-1.57,4.28-1.58,4.4,0,0-.15,2.18.41,3.68.94-1,2.31-1.78,2.78-1.88l-.2.98s-.18,1.59.07,2.55c1.62-1.46,3.62-2.08,4.01-2.14.65,4.56,4.08,6.24,5.12,6.62-2.06,1.36-4.14,3.61-4.58,7.24l-.09,1.56c0,4.52,2.45,7.66,4.73,9.71,1.52,1.71,8.02,5.72,9.4,7.4,1.37,1.69,2.68,4.37,3,7.81.81-.94,2-3.75,1.9-5.59,1.85,1.72,4.11,3.46,9.47,3.56,5.37.1,8.76-4.2,10.12-8.03-.91.34-3.83,1.35-3.83,1.35-.05.02-3.22,1.07-6.75.59-2.17-4.99-6.97-6.86-12.12-7.74-2.42-.42-6.38-1.4-9.12-3.61-.11-.14-.22-.28-.33-.42-.82-1.18-1.23-2.53-1.23-4.02,0-.56.06-1.15.17-1.74.14-.47.3-.89.47-1.27-.01.2-.03.4-.03.61,0,.73-.08,3.8,1.77,5.66,1.44-.37,3.2-1.72,3.94-2.87.5,3.45,3.25,6.12,8.68,7.93-.5-1.12-.74-2.45-.82-2.9.62.8,1.52,1.45,2.87,1.9,3.09,1.04,6.94.37,8.71-.91-.46-.15-1.7-.8-2.08-1.07,1.62.41,3.61.75,6.8-.57.94-.39,1.67-.97,2.22-1.59-1.07,3.2-4.46,5.04-7.43,5.21,0,0-1.39.13-1.76.15,1.96,3.5,7.28,5.58,11.94,4.53,4.26-.96,6.07-4.8,6.73-6.63-.16,2.36-1.15,5.43-2.33,7.55,4.31-.62,10.21-4.48,10.92-10.27l.1-1.65c0-2.68-.9-5.11-2.7-7.38,1.77.77,3.35,1.94,5.35,3.68.42-4.91-1.81-7.49-2.53-8.49,4.31-2.06,8.17-6.83,8.77-11.76.67-5.48-.87-9.2-2.49-11.73ZM86.99,51.99c.39,1.02.58,1.94.59,2.74-.4-.07-.82-.15-.82-.15-2.21-.41-3.5-1.07-4.41-1.74-.79-1.08-1.71-2.72-2.26-4.18,2.5.47,4.92,1.43,6.52,2.63.16.23.29.46.38.7ZM87.27,61.51c0,.92-.26,1.69-.5,2.2-.33-.21-.65-.44-.96-.7-1.18-1.4-1.92-2.91-1.94-3.64.63-.03,1.95.24,3.2.87.12.41.19.83.19,1.27ZM67.96,64.16c-.05-.25-.08-.48-.08-.76,0-1.81,1.52-2.48,1.52-2.48l1.47-.55c.6-.23,1.11-.4,1.57-.54-.9,1.58-2.58,3.52-4.48,4.33ZM73.88,52.41s-.06.05-.06.05c-.83.78-3.46,1.87-4.71-.76-.62-1.3-.15-3.18.41-4,1.35-1.95,3.31-3.1,5.87-3.47-1.3.68-2.63,1.68-3.95,3.19.41.09,2.24.1,5.18.66-1.01,2.25-1.95,3.68-2.74,4.34ZM74.97,66.05c1.59-2.24,3.08-6.28,3.68-11.04.74,4.33,2.24,7.95,3.54,9.73,0,0,1.72,2.27,2.27,2.99-.17.61-.35.92-2.03,1.48-1.43.48-2.42,1.23-3.03,2.26.21-1.16.57-1.88.58-1.89,0,0,.25-.48.25-.48,0,0-2-3.15-5.27-3.06ZM80.27,77.04c-.27-.22-.45-.4-.57-.54.6-.1,1.33-.16,1.33-.16.87-.09,4.3.22,5.46,1.6.11.13.2.26.28.4l-.32.04s-3.66.38-6.18-1.34ZM108.33,57.2c-.29,1.76-1.09,3.37-2.32,4.77.01-1.04.05-2.58-.86-4.76.12-.77.23-2.29.23-2.29,0-3.14-1.29-5.87-2.21-7.43,1.06.72,3.03,2.22,3.51,2.93,1.21,1.47,1.79,3.12,1.79,5.03,0,.56-.05,1.15-.15,1.76Z"/>
        <path class="cls-2" d="M86.52,78.94c-.07,0-7.54.82-8.96-4.9-.86-3.46.5-6.1.52-6.12l.08-.15-.11-.13s-1.77-2.08-4.52-.45c-1.75,1.04-2.74.87-3.15.72.34-.42,1.17-1.47,2.64-3.49,2.27-3.12,3.54-7.34,3.97-14.02,0,0,.04-1.06.04-2.02-.17.48-.64,1.44-.92,1.98-.27.54-.83,1.63-1.88,2.5l-.06.05c-1.06.99-2.43,1.49-3.55,1.82-.46.13-.96.26-1.54.42.87.29,2.37.55,3.05.6-1.07.59-2.18,1.44-2.88,2.69,1.87-.71,3.46-1.13,4.15-1.01.08.01.3.05.3.52h0c0,1.84-3.15,6.4-6.56,7.12-.73-.75-1.25-1.83-1.25-3.07,0-.98.32-2.04,1.1-3.09,1.41-1.9,2.07-3.75,2.07-5.79,0-.09,0-.19,0-.29v-.17s-.16-.06-.16-.06c-.9-.34-1.68-1.25-2.03-2.37-.14-.44-.2-.89-.2-1.34,0-.99.33-2,.97-2.93,2.54-3.68,7.1-4.73,13.55-3.11l.69.17-.43-.57c-2.42-3.19-5.05-5.38-8.02-6.69-3.7-1.68-10.08-1.08-12.76,2.22-1.93,2.37-2.29,4.94-2.29,6.54,0,.15.01.26.02.39-.76-1.35-1.15-2.7-1.15-4.18,0-.54.05-1.1.14-1.68.55-3.29,2.76-4.72,3.6-5.29-4.9-.31-8.58,3.49-9.46,6.08-.29.85-.44,1.81-.44,2.79,0,1.71.52,3.46,1.62,4.8-.99-.31-2.24-.42-4.1.16-2.97.94-4.61,3.62-4.88,5.71l-.06.5.44-.25c2.36-1.37,5.79-1.71,7.99-.78,1,.42,1.85,1.01,2.55,1.74-1.79-.86-5.33-1.92-9.05.6-3.16,2.29-3.42,6.01-3.43,6.17l-.03.53.43-.32s2.53-1.83,4.45-2.03c-.79.96-1.31,1.99-1.54,3.13l-.1.47.44-.19c3.11-1.35,6.38-.3,7.45,1.55-1.22.49-2.67.12-3.68-.43l-.46-.25.09.52c.31,1.75,1.66,5.6,7.44,5.94-2.24.87-6.27,3.11-6.87,8.16-.06.51-.09,1.01-.09,1.49,0,6.36,5.07,9.87,7.32,11.43l1.39.93c2.76,1.81,6.34,4.13,7.53,8.09.5-1.78.2-3.45-.07-4.19,2.14,2.29,4.8,4.58,10.34,4.64,4.72.01,8.02-3.61,8.16-3.76l.65-.72-.92.32c-.09.03-8.4,2.84-13.39-2.56,1.84.44,3.42,1.34,4.76,2.18-.53-2.62-3.86-5.61-10.52-6.75-3.1-.53-8.67-1.98-11.23-5.68-.89-1.28-1.33-2.74-1.33-4.34,0-.6.06-1.21.19-1.85,1.33-4.47,4.43-5.45,5.89-5.66-1.03.9-2.9,3.02-2.9,6.52,0,.66.07,1.38.22,2.14l.15.74.32-.68c.45-.95,1.42-3.01,2.38-3.99,0,.35-.01.7-.01.7-.02,1.51-.23,3.77-.57,4.74,1.75-1.34,2.5-2.73,3.16-4.05-.04.46-.06.91-.06,1.34,0,3.43,1.27,5.72,5.44,7.25l.48.18-.16-.49c-.38-1.18-.51-2.39-.51-3.46,0-.38.03-.71.05-1.05.48,2.09,1.3,3.58,3.74,4.4,2.76.94,5.69.48,6.88-.15l.43-.22-.8-.41c-1.07-.53-3.29-1.65-4.23-4.19-.42-1.14-.55-2.25-.55-3.16,0-.19.02-.35.03-.52.27,1.31.88,3.06,2.29,4.55,2.56,2.7,5.82,3.28,8.94,1.58,3.06-1.66,3.62-4.36,3.64-4.47l.06-.34-.34.04Z"/>
        <path class="cls-2" d="M110.12,48.04c-.59-1-1.09-1.87-1.27-3.01-.36-2.29-.46-4.12-.46-5.41,0-1.39.13-2.39.17-2.85-.83.62-1.99,2.69-2.45,5.11-.64-2.82-2.11-6.48-5.55-8.93-3.16-2.25-6.65-3.39-10.15-2.72.5.12,9.92,2.1,11.2,10.41-1.38-1.1-3.16-4.09-3.45-5.59-1.54,4.79,3.1,10.27,6.59,12.74,2.97,2.1,4.39,4.55,4.39,7.63,0,.59-.05,1.21-.16,1.85-.64,3.87-3.57,7.08-7.97,8.83,2.27-1.92,3.23-4.19,3.31-7.58-.49.93-2.64,3-3.56,3.58.89-1.47,2.63-4.79,2.73-8.33,0-.1,0-.19,0-.29,0-4.54-2.85-8.27-2.97-8.43l-.48-.62s.04.88.04,1.04c0,1.13-.2,5.65-2.83,8.34.59-1.73,1.04-3.94,1.04-6.1,0-1.99-.37-3.92-1.34-5.34-2.1-3.09-5.14-4.52-10.16-4.75-4.55-.22-5.87-3.01-5.93-3.13l-.28-.61-.19.64s-.2.71-.2,1.73c0,1.81.61,4.68,3.94,6.78,1.53.96,2.75,1.88,3.65,2.71-2.56-1.85-8.1-3.92-14.25.77,5.12-.78,12.65,1.77,13.97,5.27.42,1.12.63,2.12.63,3,0,1.29-.45,2.32-1.35,3.09l-.18.15.14.19c.88,1.14,1.16,2.29,1.16,3.29,0,1.44-.58,2.58-.84,3.01-2.92-1.5-5.11-5.14-5.11-6.58,0-.06,0-.11,0-.16.04-.28.18-.34.29-.37.69-.12,2.41.18,3.98,1.03-.44-1.12-1.64-2.11-2.71-2.71.68-.05,2.24-.26,3.12-.6-2.9-.53-4.28-1.51-5.16-2.24l-.06-.05c-1.05-.87-2.27-2.86-2.77-4.47-.09,1.01.04,2.96.06,3.2.56,5.71,1.88,10.02,3.93,12.84,1.01,1.39,1.81,2.44,2.43,3.21-.02.08-.04.15-.04.15-.22.81-.35,1.29-2.43,1.99-2.2.73-3.26,2.11-3.33,4.34v.29s.28-.03.28-.03c1.31-.14,4.89.35,6.98,2.72,1.45,1.64,1.87,3.84,1.24,6.52-.9,3.83-4.76,6.03-8.12,6.22l-.6.03.44.4c1.7,1.54,5.07,2.67,8.75,1.71,4.19-1.09,5.9-4.94,6.44-6.54.37-1.11.59-2.7.59-4.24,0-1.05-.11-2.08-.33-2.93,1.2,1.31,1.92,3.44,2.16,6.5.03.4.05.81.05,1.22,0,2.76-.59,5.5-1.33,6.93,2.24-.76,6.64-4.35,7.31-9.8.07-.54.1-1.07.1-1.58,0-3.16-1.27-5.91-3.88-8.5,3.27.82,4.99,1.99,6.23,3.05l.57.49-.16-.73c-.67-3.07-3.64-5.15-5.55-5.97,4.85-.8,11.08-5.17,11.68-12.33.06-.7.09-1.34.09-1.94,0-3.93-1.16-5.91-2.11-7.54Z"/>
        <path class="cls-5" d="M77.07,74.16c-.22-.89-.31-1.72-.31-2.47,0-1.97.57-3.38.78-3.84-.34-.34-1.68-1.47-3.77-.23-2.72,1.61-3.9.59-3.95.54l-.18-.16.16-.18s.84-.98,2.81-3.69c2.1-2.88,3.41-7.43,3.91-13.48-.52,1.06-1.18,1.95-1.97,2.6l-.06.05c-.78.64-1.59,1.3-3.52,1.83.95.13,2.69.36,2.69.36,0,0-2.29,1.08-2.96,1.93,1.02-.37,2.15-.58,2.79-.47.45.08.71.45.71,1.01,0,2.04-3.35,6.97-7.09,7.65l-.13.02-.09-.09c-.89-.85-1.47-2.13-1.47-3.54,0-1.09.35-2.27,1.17-3.38,1.34-1.81,1.97-3.57,1.97-5.49,0-.04,0-.09,0-.13-.97-.44-1.8-1.41-2.17-2.6-.15-.49-.23-.99-.23-1.49,0-1.09.36-2.2,1.06-3.21,2.57-3.72,7.09-4.86,13.37-3.45-2.25-2.81-4.66-4.8-7.38-6-3.54-1.61-9.62-1.06-12.16,2.08-2.66,3.27-2.25,7.25-2.13,8.09-1.44-1.56-2.19-3.74-2.19-5.64,0-.57.05-1.16.15-1.77.43-2.58,1.72-4.01,2.75-4.76-3.87.53-6.87,3.55-7.63,5.8-.26.78-.41,1.67-.41,2.59,0,1.97.56,3.85,2.49,5.81-1.81-.72-2.91-1.1-5.33-.34-2.54.8-4.02,2.97-4.44,4.83,2.45-1.24,5.78-1.51,7.96-.59,1.52.64,2.99,1.81,3.71,3.44-.91-.5-5.41-3.42-10.12-.23-2.28,1.66-2.95,4.16-3.14,5.25.95-.63,3.17-1.97,4.85-1.83l.51.04-.35.38c-.84.9-1.37,1.86-1.67,2.91,3.37-1.22,6.83.06,7.8,2.18l.1.21-.21.11c-1.27.67-2.79.38-3.96-.15.53,2.21,2.24,5.17,8.54,5.3-.53.41-7.27,1.85-8.07,8.5-.06.5-.09.99-.09,1.46,0,6.07,4.74,9.35,7.11,10.99l1.38.92c2.57,1.69,5.69,3.76,7.12,6.98,0-.11.03-.23.03-.35,0-1.42-.67-2.87-1.29-3.76-.62-.89-1.08-1.34-1.55-1.84.66.37,1.86,1.47,2.5,2.13,2.34,2.51,4.75,5.23,10.73,5.29,3.27.01,5.87-1.87,7.06-2.92-2.53.62-9.35,1.67-13.5-3.58l-.4-.5.63.1c1.71.28,3.25.95,4.38,1.65-1.34-1.94-4.04-4.1-9.54-5.05-3.17-.55-8.89-2.04-11.56-5.89-.94-1.37-1.42-2.91-1.42-4.62,0-.64.07-1.3.2-1.98,1.85-6.23,7.12-6.1,7.17-6.09l.82.03-.7.43c-.15.1-3.33,2.12-3.33,6.57,0,.41.04.85.1,1.31.79-1.62,1.69-3.21,2.6-3.81l.4-.26-.03,1.73c-.02,1.14-.03,2.24-.22,3.23,1.12-1.3,1.9-2.4,2.83-4.46-.12,1.22-.08,2.02-.08,3.27,0,3.11,1.13,5.15,4.68,6.57-.29-1.07-.34-2.09-.34-3.07s.19-2.15.44-2.97c.59,3.09,1.34,4.91,3.94,5.79,2.47.84,4.84.49,6.01.08-1.16-.58-3.39-1.76-4.36-4.41-.45-1.22-.5-2.52-.5-3.12,0-.6.28-2.4.5-3,0,.42.18,3.92,2.59,6.47,2.43,2.56,5.39,3.09,8.34,1.49,2.27-1.23,3.06-3.08,3.3-3.8-1.57.09-7.79.09-9.14-5.31Z"/>
        <path class="cls-5" d="M107.89,39.62c0-.46.01-.82.03-1.14-.6,1.09-1.44,2.58-1.67,5.71-.39-2.07-1.73-7.79-5.98-10.82-2.46-1.75-4.93-2.66-7.51-2.84,3.03,1.05,8.75,3.89,9.44,10.64l.05.46-.41-.22c-1.19-.62-2.69-2.68-3.44-4.21.26,3.51,3.37,7.88,6.64,10.19,3.11,2.2,4.6,4.78,4.6,8.01,0,.63-.06,1.28-.17,1.96-.75,4.55-4.27,8.29-10.36,9.69,3.19-2.03,4.32-4.69,4.61-7.03-1.33,1.56-2.52,2.56-3.59,2.97l-.77.3.48-.68s3.03-4.35,3.15-8.85c0-.09,0-.18,0-.27,0-3.31-1.62-6.24-2.42-7.49-.05,1.85-.52,6.49-3.76,8.91l-.74.56.36-.86c.75-1.76,1.37-4.4,1.37-6.91,0-1.89-.35-3.72-1.26-5.06-2.01-2.95-4.93-4.31-9.77-4.54-3.63-.17-5.35-1.92-6.01-2.85-.04.27-.08.62-.08,1.04,0,1.68.58,4.32,3.73,6.3,2.16,1.36,5.22,3.94,5.31,5.37-.22-.31-6.06-6.9-14.71-1.99,5.06-.21,11.65,2.12,12.98,5.62.45,1.18.67,2.25.67,3.19,0,1.35-.47,2.44-1.38,3.3.84,1.17,1.14,2.35,1.14,3.38,0,2-1.02,3.49-1.04,3.52l-.12.17-.19-.09c-3.18-1.51-5.79-5.7-5.57-7.37.06-.44.31-.72.7-.79.63-.11,1.77.1,2.79.47-.68-.66-2.07-1.51-2.91-1.89.91-.09,1.68-.27,2.63-.4-1.93-.52-2.74-1.18-3.52-1.83l-.06-.05c-.78-.65-1.44-1.54-1.97-2.6.5,6.06,1.81,10.6,3.91,13.48,1.05,1.44,1.87,2.52,2.5,3.29l.08.1-.11.39c-.26.96-.53,1.59-2.75,2.33-1.91.64-2.81,1.77-2.95,3.61,1.58-.05,5.01.55,7.09,2.9,1.1,1.24,1.65,2.77,1.65,4.55,0,.76-.1,1.56-.3,2.41-.89,3.83-4.56,6.09-7.94,6.52,1.71,1.26,4.6,2.08,7.8,1.25,3.95-1.03,5.58-4.69,6.09-6.22.69-2.05.87-6.18-.16-8.21,2.25,1.12,3.26,3.88,3.56,7.66.03.41.05.83.05,1.25,0,2.38-.49,4.71-.89,5.97,1.73-1.05,5.34-4.47,5.89-8.9.06-.51.09-1.02.09-1.51,0-3.28-1.41-6.1-4.37-8.78l-.68-.62.9.19c3.37.71,5.29,1.78,6.64,2.82-1.15-2.99-5.16-5.11-6.29-5.48,3.4-.25,12.01-4.11,12.69-12.17.06-.7.09-1.34.09-1.94,0-3.76-1.08-5.6-2.04-7.25-.59-1-1.14-1.95-1.33-3.18-.37-2.33-.47-4.19-.47-5.49Z"/>
      </g>
    </g>
  </g>
</svg>