<?xml version="1.0" encoding="UTF-8"?>
<svg id="_レイヤー_2" data-name="レイヤー 2" xmlns="http://www.w3.org/2000/svg" xmlns:xlink="http://www.w3.org/1999/xlink" viewBox="0 0 426.45 442.18">
  <defs>
    <style>
      .cls-1 {
        fill: none;
      }

      .cls-2 {
        fill: #c0ae72;
      }

      .cls-3 {
        fill: #221815;
      }

      .cls-4 {
        fill: #ffe100;
      }

      .cls-5 {
        fill: #fff;
      }

      .cls-6 {
        fill: #00226d;
      }

      .cls-7 {
        clip-path: url(#clippath);
      }

      .cls-8 {
        fill: #0054a7;
      }
    </style>
    <clipPath id="clippath">
      <path class="cls-1" d="M390.94,217.2c.07-12.49-5.34-22.53-15.6-29.03-.69-.44-1.39-.87-2.1-1.27-.77-.43-1.55-.84-2.34-1.22-11.64-5.67-23.69-4.48-34.15-2.53-5.83,1.33-9.45,2.5-11.74,3.46-1.46-1.46-3.03-2.84-4.74-4.07-.97-.67-6.37-4.22-14.15-5.76-.48-2.23-.98-3.97-1.26-4.88-.01-.05-.23-.79-.25-.84-1.29-3.88-4.26-11.63-9.68-19.89-6.8-10.34-15.02-17.72-24.49-21.96-15.15-6.65-29.01-3.93-42.64,8.55-6.19,6.4-11.53,14.18-15.87,23.1-.54,1.12-4.52,10.56-4.96,11.86-1.56,4.27-6.56,19.27-5.14,33.02.89,10.47,5.87,20.98,13,27.42.12.11.54.44.67.53,7.94,6.03,16.67,9.07,25.99,9.07,1.13,0,2.27-.05,3.42-.13,12.05-.93,21.23-4.61,21.51-4.72,1.18-.45,2.22-.93,3.33-1.4,3.32,4.59,7.6,8.48,12.65,11.05,6.29,3.17,11.23,4.29,15.81,4.29.67,0,1.31-.14,1.97-.18.25.54.51,1.09.92,1.73,9.83,18.52,24.19,24.87,33.25,24.47.58.03,1.17.05,1.76.05,15.78,0,33.72-11.18,44.46-28.18l.53-.88c3.53-5.77,8.87-14.5,9.85-31.66Z"/>
    </clipPath>
  </defs>
  <g id="_レイヤー_1-2" data-name="レイヤー 1">
    <g>
      <path class="cls-8" d="M426.45,224.66c0,117.76-84.41,196.43-213.22,196.43S0,342.43,0,224.66,95.46,11.44,213.22,11.44s213.22,95.46,213.22,213.23Z"/>
      <g>
        <g>
          <path class="cls-3" d="M419.51,293.22c-1.3-.72-2.84-1.24-3.8-1.44-6.81-1.4-13.64-2.18-20.31-2.33-3.7-.08-7.16,0-10.5.16-1.79-20.11-8.09-39.31-19.27-58.28,1.62-9.72,2.12-22.36,2.53-32.66l.21-5.17c.84-18.75-5.88-43.26-14.38-52.46-2.12-2.29-5.31-4.04-8.12-4.45-21.54-3.21-49.87,5.35-81.73,24.67l-4-.59c-26.18-3.9-58.77-8.75-103.06,1.53-1.4.32-2.95.78-4.54,1.26-2.36.71-6.76,1.98-7.92,1.68-8.49-4.64-30.28-15.71-49.14-18.49-17.53-2.61-29.09.83-34.52,10.31-15.37,28.86-7.65,69.07-4.44,79.47-16,31.01-15.7,63.87-15.6,67.47-.01.84.03,1.72.04,2.58-.84.06-1.6.09-2.48.16-8.93.71-17.8,1.58-28.07,4.44-3.34.92-6.41,3.14-5.81,5.59.47,1.92,2.84,2.35,4.83,2.35,1.54,0,2.85-.25,2.89-.26,10.63-2.16,16.02-2.75,23.47-3.55l3.14-.34c.81-.09,1.61-.13,2.42-.2.81,9.68,2.85,19.99,6.48,30.18-4.44,1.67-9.56,3.89-15.71,7.07-.04.02-3.98,2.08-4.74,4.62-.23.78-.15,1.56.23,2.24.62,1.11,1.92,1.46,3.31,1.46,2.3,0,4.82-.95,4.86-.96,1.84-.81,3.57-1.58,5.21-2.31,3.72-1.66,6.96-3.05,10-4.23,3.93,8.9,9.09,17.53,15.73,25.34-6.84,3.96-15.09,9.33-24.43,16.6-1.94,1.52-3.19,3.46-3.41,5.32-.12,1.04.11,1.99.65,2.67.41.51,1.18.73,2.1.73,1.62,0,3.71-.68,5.14-1.7,10.26-7.27,19.16-12.89,26.15-17.04,7.51,7.31,16.5,13.67,27.22,18.49,35.27,15.84,67.77,19.4,108.95,20l4.04-.06,4.36.06c47.38-.69,84.81-7.46,111.26-20.11,15.35-7.34,27.56-17.24,36.7-29.54,7.64,2.61,16.9,6.62,25.83,12.67,1.14.79,3.45,2.16,5.5,2.16.92,0,1.79-.27,2.47-1.01.29-.3.61-.85.53-1.73-.17-1.86-2.23-4.46-3.56-5.43-9.12-6.66-18.29-10.95-26.01-13.74,5.25-8.67,9.17-18.37,11.72-29.12,5.64.9,12.22,2.35,19.44,4.77.04,0,2.17.71,4.26.71,1.57,0,3.11-.39,3.7-1.78.27-.63.26-1.33-.03-2.02-1.04-2.48-5.39-4.32-5.43-4.33-7.12-2.82-14.12-4.47-20.31-5.49,1.35-8.14,2-16.8,1.93-26,.02-1.57-.07-3.12-.1-4.67,2.93-.16,5.97-.26,9.16-.22,4.96.05,10.48.42,15.35.74,1.52.1,2.99.19,4.4.28,3.19.18,7.1-.41,7.57-2.73.17-.81-.11-2.03-2.36-3.29Z"/>
          <path class="cls-5" d="M354.53,231.35c1.76-9.13,2.29-22.42,2.71-33.11l.22-5.22c.76-16.97-5.67-38.25-11.49-44.55-.51-.56-1.4-.99-1.72-1.06-18.78-2.76-45.27,5.51-74.57,23.31-2.08,1.26-3.22,1.95-5.23,1.65l-5.91-.87c-25.25-3.76-56.69-8.45-98.98,1.36-1.2.27-2.52.67-3.87,1.08-5.38,1.6-11.46,3.43-16.3.79-7.98-4.35-28.38-14.75-45.5-17.28-12.59-1.85-20.45-.25-23.34,4.78-10.47,19.65-8.42,46.45-5.73,61.45.72-.85,1.42-1.62,2.07-2.27,2.63-2.63,5.32-3.6,7.16-2.33,1.91,1.32,1.15,4.66-.08,7.33-1.22,2.65-3.69,7.76-5.63,11.18,0,0,0,.01,0,.02-16.85,29.6-16.54,62.53-16.45,66.2,0,.74.03,1.51.04,2.26,9.31.02,14.99,1,17.89,1.74l.21.05c.06.01,7.62,1.41,7.18,5.04-.39,3.23-4.98,2.99-7.2,2.87l-.82-.06c-2.44-.37-8.96-1.24-16.86-1.4.79,8.79,2.71,18.09,6.01,27.25,4.52-1.04,7.71-1.28,9.83-1.4l.29-.02c2.79-.15,9.39-.25,9.73,3.07.3,2.87-4.87,4.24-7.11,4.7-1.04.21-2.16.36-3.41.53-1.75.24-3.74.52-6.09,1.02,3.77,8.24,8.76,16.15,15.14,23.24,6.63-3.22,10.45-4.4,10.53-4.42.06-.03,6.57-1.68,7.84,1.28,1.09,2.56-1.67,3.92-4.33,5.24-.85.42-1.74.86-2.55,1.35,0,0-.09.05-.26.13-1.03.51-2.75,1.4-5.02,2.62,6.17,5.56,13.32,10.43,21.71,14.2,33.54,15.07,64.84,18.45,104.46,19.04l4.04-.06,4.36.06c44.98-.67,81.88-7.25,106.54-19.04,12.36-5.91,22.38-13.54,30.17-22.9-3.71-.86-5.98-1.18-6.04-1.19-1.42-.14-5.85-1.17-7.34-3.19-.44-.61-.61-1.28-.47-1.94.75-3.62,7.32-2.9,10.09-2.43.35.03,3.75.38,9.03,1.65,5.2-7.94,9.03-16.98,11.53-27.11-2.33-.14-4.2-.17-5.48-.17-2.44.01-5.28-.05-5.28-.05-.74-.07-6.59-.76-6.82-3.68-.03-.39.05-1,.6-1.64,1.31-1.53,4.62-2.39,6.03-2.5l.31-.03c.84-.08,3.07-.3,5.31-.32h.61c1.62,0,3.81.05,6.42.22,1.29-7.68,1.93-15.9,1.86-24.74.01-1.24-.07-2.46-.09-3.69-6.85.85-12.47,1.97-16.3,2.74-1.96.39-3.38.68-4.24.78-1.38.2-2.56.3-3.55.3-2.31,0-3.58-.56-4-1.72-.29-.84-.23-1.74.18-2.59.74-1.52,2.53-2.81,5.19-3.72,2.09-.71,10.2-3.2,22.24-4.67-1.72-19.09-7.86-37.28-18.78-55.31-.7-1.16-.95-2.54-.69-3.87Z"/>
        </g>
        <g>
          <path class="cls-3" d="M115.31,313.03c-3.5,7.1-3.52,18.45,1.21,24.48,2.92,3.45,7.8,5.41,14.09,4.33,5.43-.94,8.52-5.9,9.55-9.85,2.23-8.84-.14-19.68-5.23-23.79-5.36-3.91-15.39-3.82-19.61,4.83Z"/>
          <path class="cls-3" d="M285.41,314.07c-3.5,7.1-3.52,18.45,1.21,24.48,2.92,3.45,7.8,5.41,14.09,4.33,5.43-.94,8.52-5.9,9.55-9.85,2.23-8.84-.14-19.68-5.23-23.79-5.36-3.91-15.39-3.82-19.61,4.83Z"/>
          <g>
            <path class="cls-3" d="M230.45,344.78c-1.17-4.16-4.32-7.43-8.44-8.76-7.86-2.55-15.82-1.48-20.77,2.79-5.16,4.56-5.4,12.65-2.18,16.84,2.99,3.88,7.72,5.9,14.48,6.2.31.01.63.02.94.02,5.41,0,10.44-1.98,13.31-5.27v-.02c2.83-3.28,3.82-7.69,2.67-11.81Z"/>
            <path class="cls-4" d="M219.9,342.53c-2.1-.68-4.24-1.01-6.25-1.01-3.19,0-6.05.84-7.91,2.45-2.45,2.17-2.29,6.18-1.26,7.52,1.68,2.18,4.74,3.34,9.35,3.54,4.27.17,7.46-1.38,8.79-2.9,1.34-1.56,1.79-3.55,1.24-5.49-.54-1.94-2.02-3.48-3.96-4.11Z"/>
          </g>
        </g>
      </g>
      <g>
        <g>
          <path class="cls-3" d="M174.31,402.86c-1.48-4.63-4.48-8.3-7.74-11.99-11.57-11.1-31.76-15.56-47.81-10.64-11.58,3.03-24.94,13.2-26.89,28.3-1.79,11.76,2.42,22.06,11.65,27.76,9.31,4.78,19.42,4.67,29.7-.17.87-.33,1.3-.24,3.57.72,1.42.61,3.17,1.34,5.28,1.7,3.57,1.03,6.76,1.46,9.57,1.46,7.46,0,12.38-3.02,15.44-6.04,7.97-7.84,10.94-20.61,7.23-31.1Z"/>
          <path class="cls-5" d="M163.97,406.45c-.03-.07-.05-.13-.07-.2-.83-2.65-3.05-5.31-5.25-7.82-8.41-8.05-24.41-11.47-36.92-7.67-8.41,2.21-17.79,9.67-19.04,19.29-.55,3.62-1.01,12.25,6.19,16.72,5.93,3.02,12.4,2.87,20-.7,1.9-.75,3.63-1.02,5.19-1.02,2.92,0,5.24.98,6.98,1.72,1.12.47,2.08.88,2.97,1.01.27.04.53.09.78.17,6.51,1.94,11.44,1.34,14.59-1.78,4.91-4.82,6.87-13.3,4.58-19.71Z"/>
        </g>
        <g>
          <path class="cls-3" d="M338.19,410.82c-1.98-15.21-15.33-25.39-26.69-28.34-16.27-4.97-36.47-.53-48.34,10.91-2.82,3.2-5.95,7-7.44,11.65-3.71,10.49-.74,23.27,7.22,31.1,3.07,3.03,8,6.05,15.45,6.05,2.81,0,5.99-.43,9.57-1.46,2.11-.36,3.85-1.1,5.28-1.7,2.29-.98,2.71-1.06,3.23-.88,10.61,5,20.73,5.1,30.44.1,8.83-5.48,13.04-15.78,11.27-27.43Z"/>
          <path class="cls-5" d="M327.35,412.35c-1.27-9.74-10.64-17.21-18.84-19.34-3.53-1.08-7.32-1.6-11.13-1.6-9.92,0-20.02,3.48-26.32,9.53-1.88,2.17-4.1,4.83-4.94,7.48-.02.07-.04.13-.07.2-2.29,6.41-.33,14.89,4.56,19.7,3.17,3.11,8.06,3.72,14.6,1.78.25-.07.51-.13.78-.17.89-.13,1.85-.53,2.97-1.01,2.67-1.14,6.69-2.83,11.82-.85,7.93,3.73,14.41,3.87,20.73.63,6.81-4.24,6.35-12.88,5.82-16.38Z"/>
        </g>
      </g>
      <g>
        <g class="cls-7">
          <g>
            <polygon class="cls-6" points="237.35 121.21 398.82 196.5 354.11 292.39 235.72 237.18 192.64 217.09 237.35 121.21"/>
            <g>
              <polygon class="cls-8" points="286.58 144.16 357.93 177.44 313.22 273.32 261.67 249.28 241.87 240.05 286.58 144.16"/>
              <path class="cls-2" d="M314.38,276.52l-75.72-35.31,46.75-100.25,75.72,35.31-46.75,100.25ZM245.06,238.88l66.99,31.24,42.68-91.52-66.99-31.24-42.68,91.52Z"/>
            </g>
          </g>
        </g>
        <path class="cls-3" d="M390.94,217.2c.07-12.49-5.34-22.53-15.6-29.03-.69-.44-1.39-.87-2.1-1.27-.77-.43-1.55-.84-2.34-1.22-11.64-5.67-23.69-4.48-34.15-2.53-5.83,1.33-9.45,2.5-11.74,3.46-1.46-1.46-3.03-2.84-4.74-4.07-.97-.67-6.37-4.22-14.15-5.76-.48-2.23-.98-3.97-1.26-4.88-.01-.05-.23-.79-.25-.84-1.29-3.88-4.26-11.63-9.68-19.89-6.8-10.34-15.02-17.72-24.49-21.96-15.15-6.65-29.01-3.93-42.64,8.55-6.19,6.4-11.53,14.18-15.87,23.1-.54,1.12-4.52,10.56-4.96,11.86-1.56,4.27-6.56,19.27-5.14,33.02.89,10.47,5.87,20.98,13,27.42.12.11.54.44.67.53,7.94,6.03,16.67,9.07,25.99,9.07,1.13,0,2.27-.05,3.42-.13,12.05-.93,21.23-4.61,21.51-4.72,1.18-.45,2.22-.93,3.33-1.4,3.32,4.59,7.6,8.48,12.65,11.05,6.29,3.17,11.23,4.29,15.81,4.29.67,0,1.31-.14,1.97-.18.25.54.51,1.09.92,1.73,9.83,18.52,24.19,24.87,33.25,24.47.58.03,1.17.05,1.76.05,15.78,0,33.72-11.18,44.46-28.18l.53-.88c3.53-5.77,8.87-14.5,9.85-31.66ZM262.41,227.72c-.08.03-8.08,3.2-18.37,4-11.87.92-19.45-4.85-21.88-6.66-5-4.53-8.79-12.66-9.45-20.34-1.18-11.51,3.16-24.52,4.61-28.48.39-1.06,3.95-9.57,4.44-10.59,3.84-7.89,8.52-14.72,13.66-20.06,10.24-9.37,19.41-11.29,30.57-6.38,7.49,3.36,14.15,9.4,19.77,17.96,4.92,7.49,7.54,14.61,8.32,16.91l.28.99c.1.33.23.76.37,1.26-3.12.38-6.39,1.21-9.76,2.67-.86.37-1.62.86-2.44,1.29-1.82-1.99-4.05-3.77-6.3-5.03-6.73-3.79-14.11-3.84-20.25-.13-6.59,4-10.46,11.71-9.86,19.44.23,6.03,2.69,11.16,7.12,14.82,2.87,2.37,6.27,3.78,9.4,4.6,0,.53-.07,1.05-.06,1.58.03,3.82.78,7.6,2.04,11.21-.76.31-1.43.63-2.24.94ZM264.12,203.03c-1.43-.51-2.96-1.24-4.22-2.39-1.79-1.63-2.7-3.75-2.82-6.7-.29-3.87,1.51-7.58,4.61-9.47,2.17-1.32,4.47-1.53,7.04-.66,2.02.68,3.67,1.86,4.9,2.98-4.48,4.46-7.75,9.99-9.5,16.23ZM306.89,239.42c-7.63,2.01-11.53,2.43-19.54-1.62-8.18-4.17-13.72-13.13-13.78-22.46-.43-11.82,5.62-21.89,15.78-26.29,3.44-1.49,6.75-2.04,9.77-2.05,8.05,0,14.03,3.93,14.85,4.49,9.03,6.49,13.34,17.88,10.69,28.51-2.49,11.49-10.8,17.57-17.75,19.43ZM371.63,243.36l-.6,1.01c-8.69,13.74-23.71,23.26-36.56,22.57-6.52.09-15.93-5.16-23.02-17.53,4.14-1.36,8.46-3.71,12.35-7.14,1.96,1.41,4.3,2.61,7,3.2,1.02.22,2.2.38,3.49.38,3.21,0,7.18-.98,11.47-4.38,4.8-4.81,6.43-10.35,4.84-17.49-2.82-8.54-9.53-11.12-14.31-12.03-.27-5.63-1.81-11.14-4.48-16.14,2.05-.65,4.64-1.36,7.15-1.93,8.49-1.57,18.35-2.62,27.19,1.67.59.28,1.14.57,1.7.89.53.3,1.04.61,1.59.96,7.15,4.53,10.61,10.99,10.57,19.46-.82,14.14-4.94,20.88-8.38,26.5ZM335.17,222.93c2.53.61,4.13,1.69,4.89,3.93.65,2.96.13,4.69-1.56,6.43-1.71,1.35-3.44,1.83-5.18,1.51-.94-.17-1.76-.57-2.49-1,1.88-3.16,3.39-6.77,4.33-10.89Z"/>
      </g>
    </g>
    <g>
      <path class="cls-2" d="M77.54,136.91c-37.75,0-68.46-30.71-68.46-68.45S39.79,0,77.54,0s68.46,30.71,68.46,68.46-30.71,68.45-68.46,68.45"/>
      <g>
        <path class="cls-6" d="M77.54,135.76c-37.11,0-67.3-30.19-67.3-67.3S40.43,1.15,77.54,1.15s67.3,30.19,67.3,67.3-30.19,67.3-67.3,67.3"/>
        <path class="cls-2" d="M77.54,130.66c-34.3,0-62.21-27.91-62.21-62.21S43.23,6.24,77.54,6.24s62.21,27.91,62.21,62.21-27.91,62.21-62.21,62.21"/>
        <path class="cls-5" d="M77.54,128.12c32.9,0,59.66-26.77,59.66-59.66S110.43,8.79,77.54,8.79s-59.67,26.77-59.67,59.67,26.77,59.66,59.67,59.66"/>
        <g>
          <path class="cls-6" d="M134.66,68.45c0,31.55-25.57,57.12-57.12,57.12s-57.12-25.57-57.12-57.12S45.99,11.33,77.54,11.33s57.12,25.57,57.12,57.12"/>
          <path class="cls-8" d="M51.85,119.48c7.72,3.89,16.45,6.09,25.69,6.09s17.96-2.2,25.69-6.09V17.42c-7.72-3.89-16.45-6.09-25.69-6.09s-17.96,2.2-25.69,6.09v102.06Z"/>
        </g>
        <path class="cls-5" d="M90.07,31.53H30.7c-1.58,2-3.04,4.11-4.36,6.31h38.76c1.56,0,2.32,1.27.01,2.83l-47.11,31.76c.09,1.34.22,2.67.4,3.99h9.61s60.84-41.04,62.69-42.27c1.64-1.08.92-2.61-.63-2.61M88.6,69.53c-1.56,0-2.32-1.27-.02-2.83l40.9-27.57c-1.51-2.67-3.22-5.2-5.11-7.6h-2.38c.59.92-.03,1.9-1.36,2.83l-62.39,42.06h78.43c.3-2.26.48-4.56.52-6.89h-48.59ZM113.46,31.53h-14.55c.58.92-.03,1.9-1.37,2.83l-62.38,42.06h15.93l62.38-42.06c2.31-1.56,1.54-2.83-.01-2.83"/>
        <g>
          <g>
            <path class="cls-2" d="M38.63,91.3c0,.1-.02.19-.04.27l-2.44-.05-.06-5.8h19.1l.04,2.44-13.02,12.72h3.38c1.11.03,4.26-.06,4.93-.27.67-.21,1.12-.54,1.36-.97.23-.45.42-1,.55-1.66l.05-1.05,2.92-.03-.2,6.07h-19.71v-2.1l13.68-12.94h-6.46c-.89.04-1.61.13-2.15.29-.54.15-.9.39-1.11.67-.36.5-.8,1.64-.8,2.4"/>
            <path class="cls-2" d="M69.5,96.55h-1.65c-.04-.43-.1-.83-.19-1.17-.09-.35-.2-.65-.33-.9-.14-.25-.39-.44-.76-.56-.37-.12-.86-.19-1.45-.19l-3.27-.03v3.16h1.26s.03.01.04.01h.09c.24,0,.44-.02.6-.07.17-.04.29-.11.38-.19.1-.09.17-.22.22-.39.05-.17.07-.38.07-.62v-.6h1.67v5.18h-1.67v-.65c0-.24-.02-.44-.06-.61-.05-.17-.12-.29-.22-.37-.08-.09-.22-.15-.42-.19-.19-.04-.43-.06-.72-.06l-1.26-.03v3.49h3.51s.02.01.03.01h.06c.41,0,.77-.06,1.07-.19.3-.13.55-.31.74-.56.2-.25.35-.58.45-1,.1-.42.15-.91.15-1.49l1.75-.03-.09,4.66h-12.69v-1.34h.97s.05.01.07.01h.06c.15,0,.28-.01.39-.04.11-.03.2-.07.26-.12.07-.05.13-.13.16-.23.04-.1.06-.22.06-.36v-6.68c0-.12-.02-.23-.06-.33-.04-.1-.09-.17-.16-.23-.08-.05-.18-.1-.31-.13-.13-.03-.29-.05-.47-.05l-.97-.03v-1.35h12.69v4.25Z"/>
            <path class="cls-2" d="M78.74,101.76c.66.02,1.18-.05,1.57-.21.39-.16.66-.41.81-.73.14-.33.24-.69.32-1.09.07-.4.12-.84.13-1.3l1.77-.03v4.77h-12.19v-1.34h.97s.05.02.07.02h.06c.15,0,.28-.01.39-.04.11-.03.2-.07.26-.12.08-.05.13-.13.17-.23.04-.1.05-.22.05-.36v-6.68c0-.12-.02-.23-.05-.33-.04-.1-.09-.17-.17-.23-.07-.05-.18-.1-.31-.13-.13-.03-.29-.05-.47-.05l-.97-.03v-1.35h7.16v1.35h-1.12c-.19.02-.34.05-.47.08-.13.03-.23.08-.31.13-.07.06-.13.13-.17.23-.04.1-.05.22-.05.36v7.31h2.56Z"/>
            <path class="cls-2" d="M91.42,94.95c.05-.09.09-.17.12-.25.03-.08.05-.14.07-.19.03-.05.04-.1.05-.15,0-.04,0-.09,0-.13,0-.09-.02-.16-.05-.22-.03-.06-.08-.11-.14-.16-.05-.04-.13-.07-.22-.1-.1-.02-.22-.03-.35-.03l-.97-.03v-1.4h5.5v1.4c-.35.02-.63.06-.86.11-.23.05-.4.13-.51.23-.11.1-.21.21-.29.34-.08.13-.15.28-.21.44-.01.02-.02.05-.03.07,0,.03,0,.05,0,.07-.01.02-.02.05-.03.07,0,.03-.02.05-.03.07-.01.02-.02.05-.04.07-.01.03-.02.05-.02.07-.01.03-.02.06-.04.09-.01.03-.03.05-.04.07l-3.53,7.74h-2.79l-3.81-8.21c-.04-.06-.07-.12-.11-.18-.04-.07-.07-.13-.09-.2-.04-.06-.07-.11-.1-.16-.03-.05-.06-.1-.08-.15-.09-.12-.18-.22-.29-.29-.11-.08-.21-.13-.33-.16-.12-.02-.28-.04-.46-.06-.19-.02-.4-.02-.65-.02v-1.43h6.97v1.4h-.89c-.16.02-.29.04-.4.06-.11.02-.19.03-.25.06-.06.03-.11.07-.14.12-.03.05-.05.11-.05.17v.07s0,.05.02.07c0,.03,0,.06.02.08.01.02.02.04.04.06v.02s0,.01.02.01v.03s0,.02.01.03c0,.01.01.02.03.03,0,.01,0,.02,0,.04,0,.02.02.04.03.06v.02s0,0,.02,0c0,.01,0,.02,0,.02,0,0,0,.01,0,.02l2.47,5.69,2.41-5.44Z"/>
            <path class="cls-2" d="M96.45,92.3h6.61v1.35h-.8c-.19.02-.34.05-.48.08-.13.03-.23.08-.3.13-.08.06-.13.13-.17.23-.04.1-.05.22-.05.36v6.61c0,.15.02.28.05.38.04.1.09.18.17.24.07.06.18.11.3.14.13.03.29.04.48.04l.8-.03v1.34h-6.61v-1.34h.73s.05.01.07.01h.06c.15,0,.28-.01.39-.04.11-.03.2-.07.26-.12.07-.05.13-.13.17-.23.04-.1.06-.22.06-.36v-6.68c0-.12-.02-.23-.06-.33-.04-.1-.09-.17-.17-.23-.08-.05-.18-.1-.31-.13-.13-.03-.29-.05-.48-.05l-.73-.03v-1.35Z"/>
            <path class="cls-2" d="M108.59,99.74s-.03.06-.04.08c-.02.02-.02.04-.02.07-.01.03-.02.06-.04.08-.01.02-.02.04-.04.07-.01.04-.03.09-.05.13-.02.04-.04.09-.06.13-.02.03-.03.06-.05.1-.02.03-.03.07-.05.1-.01.01-.02.02-.03.04,0,.02,0,.03,0,.04-.01.02-.02.04-.03.05,0,.01,0,.03,0,.05-.04.07-.07.13-.09.2-.02.07-.04.13-.06.2-.01.07-.02.13-.04.2-.01.07-.02.13-.02.18,0,.08.02.14.05.2.03.06.08.1.16.12.06.02.16.04.3.05.14.01.32.02.53.02l.54-.03v1.37h-5.52v-1.37s.03.02.05.02h.14c.2,0,.38-.01.55-.03.17-.02.31-.05.44-.1.14-.06.27-.15.39-.28.12-.13.24-.3.35-.51.03-.05.05-.11.07-.15.03-.05.05-.1.08-.14.01-.02.02-.04.04-.07.01-.02.03-.05.04-.08.01-.02.03-.04.04-.07.02-.02.03-.04.04-.06v-.02s0-.01.02-.03c.01,0,.02-.02.02-.03,0-.01,0-.02.01-.03,0-.01.01-.02.03-.03.02-.03.04-.06.05-.09.01-.03.03-.06.06-.09.01-.02.03-.05.05-.08.02-.03.04-.06.05-.1.04-.05.07-.11.1-.18.03-.07.06-.13.08-.2l3.27-7.15h2.83l3.87,7.8c.03.06.04.1.06.14.02.04.03.08.06.11.01.04.03.08.05.12.02.03.03.06.05.1.03.03.04.06.06.1.01.03.03.07.06.1.01.03.03.06.05.09.02.03.03.05.05.07.1.16.2.3.32.42.12.12.24.21.36.28.13.08.31.13.51.16.21.03.46.05.76.05v1.34h-6.88v-1.37h.65s.04.02.06.02h.15c.13,0,.25,0,.35-.02.1-.02.18-.04.26-.06.09-.03.15-.08.2-.13.04-.05.06-.12.06-.2,0-.05,0-.11-.02-.17-.01-.06-.03-.13-.05-.2-.03-.06-.05-.13-.08-.2-.03-.07-.06-.14-.08-.22-.01-.02-.03-.04-.04-.07-.01-.02-.03-.04-.04-.07-.01-.02-.03-.04-.04-.06-.01-.02-.03-.05-.04-.08-.02-.05-.05-.11-.07-.16-.02-.05-.05-.1-.07-.14-.03-.06-.05-.1-.06-.14-.02-.04-.04-.08-.06-.12v-.03h-4.63ZM110.77,94.67l-1.58,3.26h3.33l-1.75-3.26Z"/>
            <path class="cls-2" d="M62.44,87.34h-.8c0-.17-.02-.32-.04-.46-.03-.14-.07-.26-.13-.38-.06-.11-.16-.2-.32-.25-.15-.06-.36-.08-.61-.08h-1.43s0,1.29,0,1.29h.55s.02,0,.04,0h.03c.1,0,.19,0,.25-.02.07-.01.12-.04.15-.07.04-.03.07-.08.09-.15s.03-.15.03-.26v-.24h.75v2.14h-.75v-.27c0-.1,0-.19-.03-.27-.02-.08-.05-.13-.09-.16-.04-.03-.1-.06-.18-.08-.08-.02-.18-.03-.3-.03h-.54s0,1.16,0,1.16c0,.06,0,.12.03.16.02.04.04.08.08.1.03.02.08.04.14.05.06.01.13.02.22.02h.59s0,.55,0,.55h-3.36v-.55h.44s.02,0,.04,0h.03c.07,0,.13,0,.18-.02.05-.01.09-.03.12-.05.03-.02.06-.05.08-.09.02-.04.03-.09.03-.15v-2.78c0-.05,0-.09-.03-.14-.02-.04-.04-.07-.08-.09-.03-.02-.08-.04-.14-.05-.06-.01-.13-.02-.22-.02h-.44v-.58h5.63v1.77Z"/>
            <path class="cls-2" d="M68.39,87.37h-.82c-.02-.19-.06-.37-.14-.52-.08-.15-.18-.29-.32-.4-.14-.11-.29-.2-.47-.25-.18-.06-.38-.09-.6-.09-.26,0-.48.04-.69.12-.2.08-.38.19-.53.34-.15.15-.27.33-.34.54-.07.21-.11.44-.11.7,0,.28.04.53.1.75.07.22.18.4.32.55.15.15.32.26.52.34.2.07.44.11.7.11.22,0,.41-.03.59-.08.18-.05.34-.13.48-.24.13-.11.25-.24.34-.4.09-.16.16-.34.21-.54h.87c-.05.3-.14.58-.28.82-.14.24-.33.44-.57.61-.24.17-.51.29-.82.37-.31.08-.66.12-1.05.12-.42,0-.81-.05-1.16-.16-.35-.11-.66-.27-.94-.5-.28-.22-.49-.47-.62-.75-.14-.28-.21-.59-.21-.93,0-.36.07-.69.21-.99.14-.3.35-.56.62-.78.28-.23.6-.4.95-.51.36-.11.76-.17,1.2-.17.11,0,.22,0,.32.01.1,0,.2.02.29.03.09.01.18.03.27.06.09.02.18.05.27.09.05.02.09.04.14.06.05.02.09.04.14.07s.09.05.13.08c.05.03.09.05.15.08l.19-.39h.68v1.86Z"/>
            <path class="cls-2" d="M76.55,88.33l1.43-2.77h2.66v.56h-.44c-.08,0-.16.02-.22.04-.06.01-.11.03-.14.05-.03.02-.06.06-.08.1-.02.04-.03.09-.03.15v2.75c0,.06,0,.12.03.16.02.04.04.08.08.1.03.03.08.05.14.06.06.01.13.02.22.02h.44s0,.54,0,.54h-3.2v-.56h.44s.02,0,.03,0h.03c.07,0,.13,0,.18-.02.05-.01.09-.03.12-.05.03-.02.06-.05.08-.09.02-.04.03-.09.03-.15v-2.58l-1.8,3.43h-.63l-1.75-3.48v2.61c0,.06,0,.12.02.16.02.04.04.08.08.1.03.03.08.05.14.06.06.01.13.02.22.02h.4s0,.54,0,.54h-2.64v-.56h.44s.02,0,.03,0h.03c.07,0,.13,0,.18-.02.05-.01.09-.03.12-.05.03-.02.06-.05.08-.09.02-.04.03-.09.03-.15v-2.78c0-.05,0-.09-.03-.13-.02-.04-.04-.07-.08-.1-.03-.02-.08-.04-.14-.05-.06-.02-.13-.02-.21-.02h-.44v-.58h2.77l1.41,2.77Z"/>
            <path class="cls-2" d="M82.5,88.66s-.01.03-.02.03c0,0,0,.02,0,.03,0,.01-.01.03-.02.03,0,0-.01.02-.02.03,0,.02-.01.04-.02.05,0,.02-.02.04-.03.05,0,.01-.01.03-.02.04,0,.01-.02.03-.02.04,0,0,0,.01-.01.02,0,0,0,.01,0,.02,0,0,0,.01-.01.02,0,0,0,.01,0,.02-.02.03-.03.05-.04.08,0,.03-.02.05-.03.08,0,.03-.01.05-.02.08,0,.03,0,.05,0,.07,0,.03,0,.06.02.09.01.02.04.04.07.05.03,0,.07.02.14.02.07,0,.15,0,.24,0h.25s0,.56,0,.56h-2.52v-.57s.01,0,.02,0h.06c.09,0,.17,0,.25-.01.08,0,.14-.02.2-.04.06-.02.12-.06.18-.11.05-.05.11-.12.16-.21.01-.02.02-.05.03-.07.01-.02.02-.04.03-.06,0,0,.01-.02.02-.03,0,0,0-.02.02-.03,0,0,.01-.02.02-.03,0,0,.01-.02.02-.03h0s0-.02,0-.02c0,0,0,0,0-.01,0,0,0,0,0-.01,0,0,0,0,.01-.01.01-.01.02-.03.03-.04,0-.01.01-.02.03-.04,0,0,.01-.02.02-.03,0-.01.02-.03.02-.04.02-.02.03-.05.05-.07.01-.03.03-.05.04-.08l1.49-2.97h1.29l1.76,3.24s.02.04.02.06c0,.02.02.03.03.04,0,.02.01.03.02.05,0,.01.02.03.02.04.01.01.02.03.03.04,0,.01.01.03.03.04,0,.01.01.03.02.04,0,.01.02.02.02.03.05.07.1.12.15.18.05.05.11.09.16.12.06.03.14.05.23.07.09.01.21.02.34.02v.56h-3.13v-.57h.3s.02,0,.02,0h.07c.06,0,.12,0,.16,0,.05,0,.08-.01.12-.02.04-.01.07-.03.09-.05.02-.02.03-.05.03-.08,0-.02,0-.05,0-.07,0-.02-.01-.05-.03-.09-.01-.03-.02-.05-.04-.08-.01-.03-.03-.06-.04-.09,0,0-.01-.02-.02-.03,0,0-.01-.02-.02-.03,0,0-.01-.02-.02-.03,0,0-.01-.02-.02-.03,0-.02-.02-.04-.03-.06-.01-.02-.02-.04-.03-.06-.01-.02-.02-.04-.03-.06,0-.01-.02-.03-.03-.05h0s-2.11-.01-2.11-.01ZM83.49,86.59l-.72,1.49h1.52l-.8-1.49Z"/>
            <path class="cls-2" d="M92.48,87.37h-.82c-.02-.19-.06-.37-.14-.52-.08-.15-.18-.29-.32-.4-.14-.11-.29-.2-.47-.25-.18-.06-.38-.09-.6-.09-.26,0-.49.04-.69.12-.2.08-.38.19-.53.34-.15.15-.27.33-.34.54-.07.21-.11.44-.11.7,0,.28.03.53.11.75.07.22.18.4.32.55.15.15.32.26.52.34.2.07.44.11.7.11.22,0,.41-.03.59-.08.18-.05.34-.13.48-.24.13-.11.25-.24.34-.4.09-.16.16-.34.21-.54h.86c-.05.3-.14.58-.28.82-.15.24-.34.44-.57.61-.24.17-.51.29-.83.37-.31.08-.66.12-1.05.12-.42,0-.81-.05-1.16-.16-.35-.11-.66-.27-.94-.5-.28-.22-.49-.47-.62-.75-.14-.28-.21-.59-.21-.93,0-.36.07-.69.21-.99.14-.3.35-.56.62-.78.27-.23.59-.4.95-.51.36-.11.76-.17,1.2-.17.11,0,.22,0,.32.01.1,0,.2.02.29.03.09.01.18.03.27.06.09.02.18.05.27.09.05.02.09.04.14.06.05.02.09.04.13.07.05.02.09.05.14.08.05.03.09.05.15.08l.19-.39h.68v1.86Z"/>
            <path class="cls-2" d="M95.56,88.04v1.17c0,.06,0,.12.03.16.02.04.04.08.07.1.04.03.08.05.14.06.06.01.13.02.22.02h.36s0,.54,0,.54h-3.12v-.56h.44s.03,0,.04,0h.03c.07,0,.13,0,.18-.02.05-.01.09-.03.12-.05.04-.02.06-.05.08-.09.02-.04.02-.09.02-.15v-2.78s0-.09-.02-.13c-.02-.04-.04-.07-.08-.1-.03-.02-.08-.04-.14-.05-.06-.02-.13-.02-.22-.02h-.44v-.57h3.12v.56h-.36c-.08,0-.16.02-.22.04-.06.01-.11.03-.14.05-.03.02-.06.05-.07.1-.02.04-.03.09-.03.15v.97h2.25v-.98s0-.09-.03-.13c-.02-.04-.04-.07-.07-.1-.04-.02-.08-.04-.14-.05-.06-.02-.13-.02-.22-.02h-.36v-.57h3.12v.56h-.44c-.08,0-.16.02-.22.04-.06.01-.11.03-.14.05-.03.02-.06.05-.08.1-.02.04-.02.09-.02.15v2.75c0,.06,0,.12.02.16.02.04.04.08.08.1.03.03.08.05.14.06.06.01.13.02.22.02h.44s0,.54,0,.54h-3.12v-.56h.36s.02,0,.03,0h.03c.07,0,.13,0,.18-.02.05-.01.09-.03.12-.05.03-.02.06-.05.07-.09.02-.04.03-.09.03-.15v-1.18h-2.25Z"/>
            <path class="cls-2" d="M100.84,85.57h3.12v.56h-.36c-.08,0-.16.02-.22.04-.06.01-.11.03-.14.05-.03.02-.06.06-.08.09-.02.04-.03.09-.03.15v2.75c0,.06,0,.12.03.16.02.04.04.08.08.1.03.03.08.05.14.06.06.01.13.02.22.02h.36s0,.54,0,.54h-3.12v-.56h.44s.02,0,.03,0h.02c.07,0,.13,0,.18-.02.05,0,.09-.03.12-.05.03-.02.06-.05.08-.09.02-.04.03-.09.03-.15v-2.78c0-.05,0-.1-.03-.14-.02-.04-.04-.07-.08-.09-.03-.02-.08-.04-.14-.05-.06-.02-.13-.02-.22-.02h-.44v-.57Z"/>
            <path class="cls-2" d="M104.67,85.57h3.74c.4,0,.76.06,1.08.16.32.09.59.24.81.43.23.19.4.42.52.68.11.27.17.57.17.91,0,.36-.06.68-.19.96-.12.28-.31.53-.56.74-.25.22-.55.38-.88.48-.34.11-.71.16-1.13.16h-3.55v-.56h.44s.02,0,.03,0h.03c.07,0,.13,0,.18-.02.05-.01.09-.03.12-.05.03-.02.06-.05.08-.09.02-.04.03-.09.03-.15v-2.78c0-.05,0-.1-.03-.14-.02-.04-.04-.07-.08-.1-.04-.02-.08-.04-.14-.05-.06-.02-.13-.02-.22-.02h-.44v-.57ZM107.68,89.5s.02,0,.03,0h.08c.15,0,.28,0,.39-.02.12-.01.22-.03.3-.05.1-.03.18-.07.27-.11.08-.05.16-.1.22-.17.08-.08.16-.17.22-.27.06-.1.11-.2.15-.32.04-.11.07-.24.09-.38.02-.14.03-.29.03-.46,0-.24-.03-.45-.09-.64-.06-.19-.16-.35-.29-.49-.12-.14-.3-.25-.52-.32-.22-.07-.49-.1-.81-.1l-.79-.02v3.35h.72Z"/>
            <path class="cls-2" d="M112.99,88.66s-.01.03-.02.03c0,0,0,.02,0,.03,0,.01-.01.03-.02.03,0,0-.01.02-.02.03,0,.02-.01.04-.02.05-.01.02-.02.04-.03.05,0,.01-.01.03-.02.04,0,.01-.01.03-.02.04,0,0,0,.01-.01.02,0,0,0,.01,0,.02,0,0,0,.01-.01.02,0,0,0,.01,0,.02-.02.03-.03.05-.04.08,0,.03-.02.05-.03.08,0,.03-.01.05-.02.08,0,.03,0,.05,0,.07,0,.03,0,.06.02.09.02.02.04.04.07.05.03,0,.08.02.14.02.07,0,.15,0,.24,0h.25s0,.56,0,.56h-2.52v-.57s.01,0,.02,0h.06c.09,0,.17,0,.25-.01.08,0,.14-.02.2-.04.06-.02.12-.06.18-.11.06-.05.11-.12.16-.21.01-.02.02-.05.03-.07,0-.02.02-.04.03-.06,0,0,.01-.02.02-.03,0,0,0-.02.02-.03,0,0,0-.02.02-.03,0,0,.01-.02.02-.03h0s0-.02,0-.02c0,0,0,0,0-.01,0,0,0,0,0-.01,0,0,0,0,.01-.01.01-.01.02-.03.03-.04,0-.01.01-.02.02-.04,0,0,.02-.02.02-.03,0-.01.01-.03.02-.04.02-.02.03-.05.05-.07.01-.03.03-.05.04-.08l1.49-2.97h1.29l1.76,3.24s.02.04.02.06c0,.02.01.03.02.04,0,.02.01.03.02.05,0,.01.02.03.02.04.01.01.02.03.03.04,0,.01.02.03.03.04,0,.01.01.03.02.04,0,.01.01.02.02.03.04.07.09.12.15.18.06.05.11.09.17.12.06.03.14.05.23.07.09.01.21.02.34.02v.56h-3.14v-.57h.3s.02,0,.03,0h.07c.06,0,.12,0,.16,0,.05,0,.08-.01.12-.02.04-.01.07-.03.09-.05.02-.02.03-.05.03-.08,0-.02,0-.05,0-.07,0-.02-.01-.05-.03-.09-.01-.03-.02-.05-.04-.08-.02-.03-.03-.06-.04-.09,0,0-.01-.02-.02-.03,0,0-.01-.02-.02-.03,0,0-.01-.02-.02-.03,0,0,0-.02-.02-.03-.01-.02-.02-.04-.03-.06-.01-.02-.02-.04-.04-.06,0-.02-.02-.04-.03-.06,0-.01-.02-.03-.03-.05h0s-2.11-.01-2.11-.01ZM113.98,86.59l-.72,1.49h1.52l-.8-1.49Z"/>
          </g>
          <g>
            <path class="cls-5" d="M62.79,109.4h-.58s0,0,0,0c0,0,0,0,0,0h0v-.02h0s0-.04-.01-.06c0-.02,0-.03,0-.05,0-.01,0-.03-.01-.04,0-.01,0-.03-.01-.04,0-.03-.01-.05-.02-.07-.01-.02-.03-.05-.04-.07,0,0-.01-.01-.02-.02,0,0-.01-.02-.02-.03,0,0,0-.01-.01-.02,0,0,0-.01,0-.01,0,0,0-.01-.01-.02,0,0,0,0-.01-.01-.05-.06-.11-.11-.17-.16-.07-.05-.14-.09-.22-.13-.08-.04-.17-.07-.25-.09-.09-.02-.18-.03-.27-.04h-.07c-.12,0-.24.01-.34.03-.1.02-.19.05-.27.09-.08.04-.13.09-.17.14-.04.06-.05.12-.05.19,0,.08.02.14.07.19.05.05.12.1.21.13.1.03.2.06.32.08.12.03.24.05.37.07.03,0,.07,0,.1.01.03,0,.07.01.1.02.01,0,.03,0,.05.01.02,0,.04,0,.06,0,.02,0,.03,0,.05.01.02,0,.04,0,.05,0,.17.03.33.07.49.12.16.05.31.11.45.18.14.07.25.16.32.29.07.12.11.27.11.46s-.04.35-.11.5c-.07.14-.18.26-.33.36-.15.09-.33.17-.54.22-.21.05-.45.08-.72.08h-.09s-.01,0-.02,0h-.01c-.11,0-.22-.01-.32-.03-.11-.02-.21-.04-.32-.07-.11-.03-.2-.06-.3-.11-.09-.04-.18-.1-.26-.16l-.13.27h-.49v-1.28h.58s.02.07.03.1c.01.03.02.06.02.08,0,.01,0,.02.01.03,0,.01,0,.02.01.03,0,.01,0,.02,0,.03,0,0,0,.02.01.02,0,.02.02.03.02.05,0,.02.01.03.01.04,0,.02.02.03.03.04,0,0,.02.02.02.03,0,0,0,.01.01.02,0,0,0,.01.01.02,0,0,0,0,0,.01,0,0,0,0,0,0,0,0,0,0,.01.01,0,0,0,0,0,.01.05.05.11.11.19.15.08.05.17.09.27.12.1.04.2.06.31.08.11.02.22.03.33.03s.22-.01.31-.03c.09-.02.18-.05.25-.09.07-.04.13-.09.17-.14.04-.05.05-.11.05-.18,0-.05,0-.09-.02-.12-.01-.03-.03-.06-.05-.09-.02-.03-.06-.05-.11-.07-.05-.02-.11-.05-.18-.06-.03,0-.06-.02-.1-.03-.04,0-.08-.02-.12-.03-.04,0-.09-.01-.13-.02-.05-.01-.09-.02-.14-.03l-.63-.13c-.18-.03-.34-.07-.48-.11-.14-.05-.27-.1-.39-.17-.12-.07-.2-.16-.26-.28-.06-.12-.08-.26-.08-.43s.04-.33.11-.48c.07-.14.19-.26.34-.37.15-.1.33-.18.54-.23.2-.05.43-.08.69-.08.12,0,.24,0,.35.02.11.01.22.03.32.06.09.02.19.06.28.1.09.04.18.1.26.15l.09-.24h.48v1.24Z"/>
            <path class="cls-5" d="M63.35,108.16h2.27v.43h-.27c-.06,0-.11.02-.16.03-.04.01-.08.02-.1.04-.02.02-.04.04-.05.07-.01.03-.02.07-.02.11v2.09s0,.09.02.12c.01.03.03.06.05.08.03.02.06.04.1.05.04,0,.1.01.16.01h.27s0,.41,0,.41h-2.27v-.42h.32s.02,0,.02,0h.02s.09,0,.13-.01c.03,0,.06-.02.08-.04.03-.01.05-.04.06-.07.01-.03.02-.07.02-.11v-2.11s0-.07-.02-.1c-.01-.03-.03-.05-.06-.07-.02-.02-.06-.03-.1-.04-.04,0-.1-.02-.16-.02h-.32v-.44Z"/>
            <path class="cls-5" d="M69.95,110.52v-1.69s0-.07-.02-.1c-.01-.03-.03-.05-.06-.07-.02-.02-.06-.03-.1-.04-.04,0-.1-.02-.16-.02h-.29v-.44h1.85v.43h-.24c-.06,0-.11.02-.16.03-.04.01-.08.02-.1.04-.03.02-.04.04-.06.07-.01.03-.02.07-.02.11v2.76h-1l-2.07-2.41v1.75s0,.09.02.12c.01.03.03.06.05.07.03.02.06.04.1.05.04,0,.1.01.16.01h.32s0,.41,0,.41h-1.96v-.42h.32s.02,0,.02,0h.02c.05,0,.09,0,.13-.01.03,0,.07-.02.09-.04.03-.01.04-.04.06-.07.01-.03.02-.07.02-.11v-2.11s0-.07-.02-.1c-.01-.03-.03-.05-.06-.07-.02-.02-.06-.03-.1-.04-.04,0-.1-.02-.16-.02h-.32v-.44h1.7l2.02,2.36Z"/>
            <path class="cls-5" d="M75.03,109.54h-.6c-.01-.15-.05-.28-.1-.4-.06-.12-.13-.22-.23-.3-.1-.08-.22-.15-.34-.19-.13-.04-.28-.07-.44-.07-.19,0-.35.03-.5.09-.15.06-.28.14-.38.26-.11.12-.19.25-.25.41-.05.16-.08.34-.08.53,0,.21.02.4.08.57.05.16.13.3.23.42.11.11.24.2.38.26.15.06.32.09.51.09.16,0,.3-.02.43-.06.13-.04.24-.1.35-.18.1-.08.18-.18.25-.3.07-.12.12-.26.15-.41h.63c-.03.23-.1.44-.21.62-.1.18-.24.34-.42.46-.17.13-.37.22-.6.28-.23.06-.48.09-.76.09-.31,0-.59-.04-.85-.12-.25-.08-.48-.21-.68-.38-.2-.17-.35-.36-.45-.57-.1-.21-.15-.45-.15-.71,0-.27.05-.53.15-.75.1-.23.25-.42.45-.6.2-.17.43-.3.7-.39.26-.09.55-.13.87-.13.08,0,.16,0,.23,0,.08,0,.15.02.21.03.07,0,.13.02.2.04.06.02.13.04.19.07.03.01.07.03.1.04.03.02.07.03.1.05.03.02.06.04.1.06.03.02.07.04.11.06l.13-.3h.49v1.41Z"/>
            <path class="cls-5" d="M79.69,109.51h-.55c-.01-.14-.03-.26-.06-.37-.03-.11-.07-.21-.11-.28-.05-.08-.13-.14-.25-.18-.12-.04-.28-.06-.48-.06h-1.09s0,.99,0,.99h.42s0,0,.01,0h.03c.08,0,.15,0,.2-.02.06-.01.1-.03.13-.06.03-.03.06-.07.08-.12.02-.05.02-.12.02-.2v-.19h.56v1.64h-.56v-.21c0-.08,0-.14-.02-.19-.02-.05-.04-.09-.07-.12-.03-.03-.07-.05-.14-.06-.07-.01-.14-.02-.24-.02h-.42s0,1.09,0,1.09h1.17s0,0,0,0h.02c.14,0,.25-.02.35-.06.1-.04.18-.1.24-.18.07-.08.12-.18.15-.32.03-.13.05-.29.05-.47h.58s-.03,1.46-.03,1.46h-4.22v-.42h.32s.02,0,.02,0h.02s.09,0,.13-.01c.04,0,.07-.02.09-.04.02-.01.04-.04.05-.07.01-.03.02-.07.02-.11v-2.11s0-.07-.02-.1c-.01-.03-.03-.05-.05-.07-.03-.02-.06-.03-.1-.04-.04,0-.09-.02-.16-.02h-.32v-.44h4.22v1.35Z"/>
            <path class="cls-5" d="M83.87,110.9c0,.05,0,.09.02.13.02.04.03.06.06.08.03.02.07.03.12.04.05,0,.11.01.17.01h.51s0,.44,0,.44h-2.77v-.45h.47s.02,0,.03,0h.02c.05,0,.1,0,.14-.02.04,0,.07-.02.09-.03.03-.02.05-.04.06-.08.01-.03.02-.07.02-.12v-1.75h-.85v-.45s0,.01.01.01h.03s0,0,.01,0h.03c.16-.02.3-.04.42-.06.12-.03.22-.06.3-.11.08-.04.15-.1.22-.18.07-.08.12-.18.17-.3h.7s0,2.84,0,2.84Z"/>
            <path class="cls-5" d="M87.14,110.2s-.05.03-.08.04c-.01,0-.03,0-.04.01-.01,0-.03.01-.04.02-.02,0-.03,0-.05.01-.01,0-.03,0-.04.01-.02,0-.04.01-.06.02-.02,0-.04,0-.06.02-.02,0-.05,0-.07,0-.02,0-.04,0-.07.01-.04,0-.08,0-.13.01-.04,0-.09,0-.14,0-.23,0-.43-.03-.6-.08-.17-.06-.32-.14-.44-.25-.12-.12-.2-.24-.26-.38-.06-.14-.09-.29-.09-.45,0-.17.04-.33.11-.47.08-.14.19-.27.34-.38.15-.11.33-.2.52-.25.2-.06.42-.08.66-.08.27,0,.52.04.72.11.21.07.39.18.54.33.15.14.26.32.34.52.08.21.12.44.12.71,0,.32-.04.6-.12.84-.08.24-.21.45-.38.62-.16.17-.36.3-.6.38-.24.08-.5.12-.81.12-.19,0-.37-.01-.53-.05-.16-.03-.3-.07-.42-.14-.11-.07-.2-.14-.26-.22-.06-.09-.09-.18-.09-.28,0-.06.01-.12.04-.17s.07-.1.13-.14c.06-.04.12-.08.19-.1.07-.02.15-.03.23-.03.07,0,.14,0,.2.03.06.02.12.05.16.09.05.04.09.08.12.13.02.05.04.1.04.15,0,.02,0,.04,0,.06,0,.02-.01.04-.02.06,0,.02-.01.03-.03.05-.01.02-.03.03-.05.05,0,0,0,0-.01.01,0,0,0,0,0,.01,0,0,0,0-.01.01,0,0-.01,0-.02.01,0,0-.02.01-.03.02-.01,0-.03.02-.03.02.03,0,.05,0,.06.01.02,0,.04,0,.06.01.01,0,.03,0,.05,0,.01,0,.03,0,.05,0h.07c.15,0,.29-.02.4-.07.11-.05.21-.11.29-.2.08-.09.14-.2.18-.34.05-.14.07-.3.08-.48h0s-.06.02-.09.04M86.07,109.48c.03.09.07.17.12.24.06.07.12.12.2.15.08.03.16.05.25.05s.17-.01.24-.04c.07-.03.13-.08.18-.13.05-.06.09-.14.12-.22.03-.08.04-.18.04-.29,0-.12-.01-.23-.04-.32-.03-.09-.07-.18-.12-.24-.06-.07-.12-.11-.19-.15-.07-.03-.16-.05-.26-.05-.09,0-.17.02-.24.05-.07.03-.13.08-.19.15-.05.06-.09.14-.12.23-.02.09-.04.19-.04.29h0c0,.1.01.21.04.3"/>
            <path class="cls-5" d="M89.39,109.83s-.05-.03-.08-.04c-.02-.01-.05-.03-.07-.04-.02-.01-.04-.03-.06-.04-.06-.04-.11-.09-.16-.14-.05-.05-.08-.1-.11-.14-.02-.05-.04-.11-.06-.16-.01-.06-.02-.12-.02-.19,0-.16.04-.3.12-.43.08-.13.19-.24.34-.34.15-.09.33-.17.54-.21.21-.05.44-.07.69-.07.22,0,.42.02.59.06.18.04.33.1.46.18.13.08.23.17.3.27.07.1.11.22.11.34,0,.07-.01.14-.03.2-.02.06-.04.12-.06.17-.03.05-.08.1-.13.14-.05.05-.11.09-.19.14-.01,0-.02,0-.03.01-.01,0-.02.01-.03.02-.02,0-.03,0-.03.01,0,0-.02,0-.03.02,0,0-.02,0-.03.01,0,0-.02,0-.03.01,0,0-.02.01-.03.02-.01,0-.02,0-.03.02.14.05.26.1.36.16.11.06.19.13.26.2.07.07.12.16.16.24.04.09.05.18.05.28,0,.18-.04.33-.12.47-.08.14-.2.26-.36.36-.16.1-.34.18-.55.23-.21.05-.45.07-.71.07s-.5-.02-.7-.06c-.2-.04-.37-.1-.51-.19-.14-.08-.25-.19-.32-.31-.07-.12-.11-.27-.11-.43,0-.07,0-.14.02-.2.01-.06.04-.11.07-.16.03-.05.08-.1.13-.15.06-.05.12-.09.19-.14,0,0,.02-.01.03-.02.01,0,.02-.01.03-.02.01,0,.02,0,.03-.02.01,0,.02-.01.03-.02.02-.01.05-.02.07-.03.02-.01.05-.02.08-.04h0s-.05-.03-.08-.04M89.9,110.15s-.07.04-.1.06c-.03.03-.05.05-.08.07-.02.02-.04.04-.06.07-.04.04-.07.09-.08.14-.02.05-.03.1-.03.16,0,.09.02.17.06.25.04.08.1.14.18.19.08.05.18.09.29.11.12.03.25.04.4.04.12,0,.22,0,.32-.03.1-.02.18-.05.25-.1.08-.04.13-.09.17-.14.03-.05.06-.11.06-.18,0-.06-.02-.12-.06-.17-.04-.05-.09-.1-.17-.15-.07-.05-.15-.09-.24-.13-.08-.04-.17-.07-.26-.1-.05-.02-.09-.03-.14-.05-.05-.01-.1-.03-.15-.04-.05-.01-.09-.02-.13-.03-.04-.01-.08-.02-.12-.03h0s-.08.04-.12.06M91.01,109.33c.06-.04.11-.08.14-.12.04-.04.07-.09.08-.13.02-.04.03-.09.03-.14,0-.07-.02-.14-.06-.19-.04-.06-.09-.11-.17-.15-.07-.04-.16-.07-.25-.1-.09-.02-.2-.03-.32-.03s-.23.01-.33.03c-.1.02-.18.05-.25.09-.07.04-.13.08-.16.13-.03.05-.05.1-.05.17,0,.02,0,.05.01.07,0,.03.02.05.03.07.01.02.04.04.06.06.03.02.06.04.1.06,0,0,.02,0,.03.01.01,0,.02.01.03.02.01,0,.02.01.04.01.01,0,.03.01.04.02.03.01.06.02.09.03.03.01.07.02.1.03.01,0,.03,0,.04.01.02,0,.04.01.05.02.02,0,.04.01.05.01.02,0,.03.01.05.02,0,0,.02,0,.02,0,0,0,.01,0,.02.01,0,0,.02,0,.03,0,0,0,.02,0,.03,0,.02,0,.05.02.07.03.03,0,.05.02.07.02.02,0,.05.01.07.02.03,0,.05.01.08.02h0c.08-.05.14-.08.2-.12"/>
            <path class="cls-5" d="M94.89,110.2s-.05.03-.08.04c-.01,0-.02,0-.04.01-.01,0-.03.01-.04.02-.02,0-.03,0-.05.01-.01,0-.03,0-.04.01-.02,0-.04.01-.06.02-.02,0-.04,0-.06.02-.02,0-.04,0-.07,0-.02,0-.04,0-.06.01-.04,0-.09,0-.13.01-.04,0-.09,0-.14,0-.23,0-.43-.03-.59-.08-.17-.06-.32-.14-.44-.25-.12-.12-.21-.24-.26-.38-.06-.14-.09-.29-.09-.45,0-.17.04-.33.12-.47.08-.14.19-.27.34-.38.15-.11.33-.2.52-.25.2-.06.42-.08.66-.08.27,0,.52.04.73.11.21.07.39.18.54.33.15.14.26.32.34.52.08.21.11.44.11.71,0,.32-.04.6-.12.84-.09.24-.21.45-.38.62-.17.17-.37.3-.6.38-.24.08-.51.12-.81.12-.19,0-.37-.01-.53-.05-.16-.03-.29-.07-.42-.14-.11-.07-.2-.14-.26-.22-.06-.09-.09-.18-.09-.28,0-.06.01-.12.04-.17.03-.05.07-.1.13-.14.05-.04.12-.08.19-.1.07-.02.15-.03.23-.03.07,0,.14,0,.2.03.06.02.12.05.16.09.05.04.09.08.11.13.03.05.04.1.04.15,0,.02,0,.04,0,.06,0,.02-.01.04-.02.06,0,.02-.01.03-.03.05-.01.02-.03.03-.05.05,0,0-.01,0-.02.01,0,0,0,0,0,.01,0,0,0,0-.02.01,0,0,0,0-.01.01,0,0-.02.01-.03.02-.01,0-.02.02-.03.02.02,0,.04,0,.06.01.02,0,.04,0,.06.01.01,0,.03,0,.05,0,.02,0,.03,0,.05,0h.07c.15,0,.29-.02.4-.07.11-.05.21-.11.29-.2.08-.09.14-.2.19-.34.04-.14.07-.3.07-.48h0s-.06.02-.09.04M93.83,109.48c.03.09.07.17.13.24.06.07.12.12.19.15.07.03.16.05.25.05s.17-.01.24-.04c.07-.03.13-.08.18-.13.05-.06.09-.14.12-.22.03-.08.04-.18.04-.29,0-.12-.02-.23-.04-.32-.03-.09-.07-.18-.12-.24-.06-.07-.12-.11-.19-.15-.07-.03-.16-.05-.26-.05-.09,0-.17.02-.24.05-.07.03-.13.08-.18.15-.05.06-.09.14-.11.23-.03.09-.04.19-.04.29h0c0,.1.01.21.04.3"/>
          </g>
        </g>
      </g>
    </g>
  </g>
</svg>