<?xml version="1.0" encoding="UTF-8"?>
<svg id="_レイヤー_2" data-name="レイヤー 2" xmlns="http://www.w3.org/2000/svg" xmlns:xlink="http://www.w3.org/1999/xlink" viewBox="0 0 426.45 445.81">
  <defs>
    <style>
      .cls-1 {
        fill: none;
      }

      .cls-2 {
        fill: #b4a25c;
      }

      .cls-3 {
        fill: #221815;
      }

      .cls-4 {
        fill: #ffe100;
      }

      .cls-5 {
        fill: #fff;
      }

      .cls-6 {
        fill: #008136;
      }

      .cls-7 {
        fill: #003e1f;
      }

      .cls-8 {
        clip-path: url(#clippath);
      }
    </style>
    <clipPath id="clippath">
      <path class="cls-1" d="M390.94,220.83c.07-12.49-5.34-22.53-15.6-29.03-.69-.44-1.39-.87-2.1-1.27-.77-.43-1.55-.85-2.34-1.22-11.64-5.67-23.69-4.48-34.15-2.53-5.83,1.33-9.45,2.5-11.74,3.46-1.46-1.46-3.03-2.84-4.74-4.07-.97-.67-6.37-4.22-14.15-5.76-.48-2.22-.98-3.97-1.26-4.88-.01-.05-.23-.79-.25-.84-1.29-3.88-4.26-11.63-9.68-19.89-6.8-10.34-15.02-17.72-24.49-21.96-15.15-6.65-29.01-3.93-42.64,8.55-6.19,6.4-11.53,14.18-15.87,23.1-.54,1.12-4.52,10.56-4.96,11.86-1.56,4.27-6.56,19.27-5.14,33.03.89,10.47,5.87,20.97,13,27.42.12.11.54.44.67.53,7.94,6.03,16.67,9.07,25.99,9.07,1.13,0,2.27-.05,3.42-.13,12.05-.93,21.23-4.61,21.51-4.72,1.18-.45,2.22-.93,3.33-1.4,3.32,4.59,7.6,8.48,12.65,11.05,6.29,3.17,11.23,4.29,15.81,4.29.67,0,1.31-.14,1.97-.18.25.54.51,1.09.92,1.73,9.83,18.53,24.19,24.87,33.25,24.48.58.03,1.17.05,1.76.05,15.78,0,33.72-11.18,44.46-28.18l.53-.88c3.53-5.77,8.87-14.5,9.85-31.66Z"/>
    </clipPath>
  </defs>
  <g id="_レイヤー_1-2" data-name="レイヤー 1">
    <g>
      <path class="cls-6" d="M426.45,228.29c0,117.76-84.41,196.43-213.22,196.43S0,346.06,0,228.29,95.46,15.07,213.22,15.07s213.22,95.46,213.22,213.23Z"/>
      <g>
        <g>
          <g>
            <path class="cls-3" d="M419.52,296.85c-1.3-.72-2.84-1.24-3.8-1.44-6.81-1.4-13.64-2.18-20.31-2.33-3.7-.09-7.16,0-10.49.16-1.79-20.11-8.09-39.31-19.27-58.27,1.62-9.72,2.12-22.36,2.53-32.66l.21-5.17c.84-18.75-5.88-43.26-14.38-52.47-2.12-2.29-5.31-4.04-8.12-4.45-21.54-3.21-49.87,5.35-81.73,24.67l-4-.6c-26.18-3.9-58.77-8.75-103.06,1.53-1.4.32-2.95.78-4.54,1.26-2.37.71-6.76,1.98-7.92,1.68-8.49-4.64-30.28-15.71-49.14-18.5-17.53-2.61-29.09.83-34.52,10.31-15.37,28.86-7.65,69.07-4.44,79.47-16,31.01-15.7,63.87-15.6,67.47-.01.84.03,1.72.04,2.58-.84.06-1.6.09-2.48.16-8.93.71-17.8,1.58-28.07,4.44-3.34.92-6.41,3.14-5.81,5.59.47,1.92,2.84,2.34,4.83,2.34,1.54,0,2.85-.25,2.89-.26,10.63-2.17,16.02-2.75,23.47-3.55l3.14-.34c.81-.09,1.61-.13,2.42-.2.81,9.68,2.85,19.99,6.48,30.18-4.44,1.67-9.56,3.89-15.71,7.07-.04.02-3.98,2.08-4.74,4.62-.23.78-.15,1.56.23,2.24.62,1.11,1.92,1.46,3.31,1.46,2.3,0,4.82-.95,4.86-.96,1.84-.81,3.57-1.58,5.21-2.31,3.72-1.66,6.96-3.05,10-4.23,3.93,8.9,9.09,17.53,15.73,25.34-6.84,3.95-15.09,9.33-24.43,16.6-1.94,1.52-3.19,3.45-3.41,5.32-.12,1.04.11,1.99.65,2.67.41.51,1.18.73,2.1.73,1.62,0,3.71-.68,5.14-1.7,10.26-7.27,19.16-12.89,26.15-17.04,7.51,7.31,16.5,13.67,27.22,18.49,35.27,15.84,67.77,19.4,108.95,20l4.04-.06,4.36.06c47.38-.7,84.81-7.46,111.26-20.11,15.35-7.34,27.56-17.24,36.7-29.54,7.64,2.61,16.9,6.62,25.83,12.66,1.14.79,3.45,2.17,5.5,2.17.92,0,1.79-.27,2.47-1.01.29-.3.61-.85.53-1.73-.17-1.86-2.23-4.46-3.56-5.43-9.12-6.66-18.28-10.95-26.01-13.74,5.25-8.67,9.17-18.37,11.72-29.12,5.64.9,12.22,2.35,19.44,4.77.04,0,2.17.71,4.26.71,1.57,0,3.11-.39,3.7-1.78.27-.63.26-1.33-.03-2.02-1.04-2.48-5.38-4.32-5.43-4.33-7.12-2.82-14.12-4.48-20.3-5.49,1.35-8.14,2-16.8,1.93-26,.02-1.57-.07-3.12-.1-4.67,2.94-.16,5.97-.26,9.16-.22,4.96.05,10.48.42,15.35.74,1.52.1,2.99.19,4.4.28,3.19.18,7.1-.41,7.57-2.73.17-.81-.11-2.03-2.36-3.29Z"/>
            <path class="cls-5" d="M354.53,234.98c1.76-9.13,2.29-22.42,2.71-33.11l.22-5.23c.76-16.97-5.67-38.25-11.49-44.55-.51-.56-1.4-.99-1.72-1.06-18.78-2.76-45.27,5.51-74.57,23.31-2.08,1.26-3.22,1.95-5.23,1.65l-5.91-.87c-25.25-3.76-56.69-8.45-98.98,1.36-1.2.27-2.52.68-3.88,1.08-5.38,1.6-11.46,3.43-16.3.79-7.98-4.35-28.38-14.75-45.5-17.28-12.6-1.85-20.45-.25-23.34,4.78-10.47,19.65-8.42,46.45-5.73,61.45.72-.85,1.42-1.62,2.07-2.27,2.63-2.63,5.32-3.6,7.16-2.33,1.91,1.32,1.15,4.66-.08,7.33-1.22,2.65-3.69,7.76-5.63,11.18,0,0,0,.01,0,.02-16.85,29.6-16.54,62.53-16.45,66.2,0,.74.03,1.51.04,2.26,9.31.02,14.99,1,17.89,1.74l.21.05c.06.01,7.62,1.41,7.18,5.04-.39,3.23-4.98,2.99-7.2,2.87l-.82-.06c-2.44-.37-8.96-1.24-16.86-1.4.79,8.79,2.71,18.09,6.01,27.25,4.52-1.04,7.71-1.28,9.83-1.4l.29-.02c2.79-.15,9.39-.25,9.73,3.07.3,2.87-4.87,4.24-7.11,4.7-1.04.21-2.16.36-3.41.53-1.75.24-3.74.52-6.09,1.02,3.77,8.24,8.76,16.15,15.14,23.24,6.63-3.22,10.45-4.39,10.53-4.42.06-.03,6.57-1.68,7.84,1.28,1.09,2.56-1.67,3.92-4.33,5.24-.85.42-1.74.86-2.55,1.35,0,0-.09.05-.26.13-1.03.51-2.75,1.4-5.02,2.62,6.17,5.56,13.32,10.43,21.71,14.2,33.54,15.07,64.84,18.45,104.45,19.04l4.04-.06,4.36.06c44.98-.67,81.88-7.25,106.54-19.04,12.36-5.91,22.38-13.54,30.16-22.9-3.71-.86-5.97-1.18-6.04-1.19-1.42-.14-5.85-1.17-7.34-3.19-.44-.61-.61-1.28-.47-1.94.75-3.62,7.32-2.9,10.09-2.43.35.03,3.75.38,9.03,1.65,5.2-7.94,9.03-16.98,11.53-27.1-2.33-.14-4.2-.17-5.48-.17-2.44.01-5.28-.05-5.28-.05-.74-.07-6.59-.76-6.82-3.68-.03-.39.05-1,.6-1.64,1.31-1.53,4.62-2.39,6.03-2.5l.31-.03c.84-.08,3.07-.3,5.31-.32h.61c1.62,0,3.81.05,6.42.22,1.29-7.68,1.93-15.9,1.86-24.75.01-1.24-.07-2.46-.09-3.69-6.85.85-12.47,1.97-16.3,2.74-1.96.39-3.38.68-4.24.78-1.38.2-2.56.3-3.55.3-2.31,0-3.58-.56-4-1.72-.29-.84-.23-1.74.18-2.59.74-1.52,2.53-2.81,5.19-3.71,2.09-.71,10.2-3.2,22.24-4.68-1.72-19.09-7.86-37.28-18.78-55.31-.7-1.16-.95-2.54-.69-3.87Z"/>
          </g>
          <g>
            <path class="cls-3" d="M115.31,316.66c-3.5,7.1-3.52,18.45,1.21,24.48,2.92,3.45,7.8,5.41,14.09,4.33,5.43-.94,8.52-5.9,9.55-9.85,2.23-8.84-.15-19.68-5.23-23.79-5.36-3.91-15.39-3.82-19.61,4.83Z"/>
            <path class="cls-3" d="M285.41,317.7c-3.5,7.1-3.52,18.45,1.21,24.48,2.92,3.45,7.8,5.41,14.09,4.33,5.43-.94,8.52-5.9,9.55-9.85,2.23-8.84-.14-19.68-5.23-23.79-5.36-3.91-15.39-3.82-19.61,4.83Z"/>
            <g>
              <path class="cls-3" d="M230.45,348.41c-1.17-4.16-4.32-7.43-8.44-8.76-7.86-2.55-15.82-1.48-20.77,2.79-5.16,4.56-5.41,12.65-2.18,16.84,2.99,3.87,7.72,5.9,14.48,6.2.31.01.63.02.94.02,5.41,0,10.44-1.98,13.31-5.27v-.02c2.83-3.28,3.82-7.69,2.67-11.81Z"/>
              <path class="cls-4" d="M219.91,346.16c-2.1-.68-4.24-1.01-6.25-1.01-3.19,0-6.05.84-7.91,2.45-2.45,2.17-2.29,6.18-1.26,7.52,1.68,2.18,4.74,3.34,9.35,3.54,4.27.17,7.46-1.38,8.79-2.9,1.34-1.56,1.79-3.55,1.24-5.49-.54-1.94-2.02-3.48-3.96-4.11Z"/>
            </g>
          </g>
        </g>
        <g>
          <g>
            <path class="cls-3" d="M174.31,406.49c-1.48-4.63-4.48-8.3-7.74-11.99-11.57-11.1-31.76-15.56-47.81-10.64-11.58,3.03-24.94,13.2-26.89,28.3-1.79,11.76,2.42,22.06,11.65,27.76,9.31,4.78,19.42,4.67,29.7-.17.87-.33,1.3-.24,3.57.72,1.42.61,3.17,1.34,5.28,1.7,3.57,1.03,6.76,1.46,9.57,1.46,7.46,0,12.38-3.02,15.44-6.04,7.97-7.84,10.94-20.61,7.23-31.1Z"/>
            <path class="cls-5" d="M163.98,410.08c-.03-.07-.05-.13-.07-.2-.84-2.65-3.05-5.31-5.25-7.82-8.41-8.05-24.41-11.47-36.92-7.67-8.41,2.21-17.79,9.67-19.04,19.29-.55,3.62-1.01,12.25,6.19,16.72,5.93,3.02,12.4,2.87,20-.7,1.9-.75,3.63-1.02,5.18-1.02,2.92,0,5.24.98,6.98,1.72,1.12.47,2.08.88,2.97,1.01.27.04.53.09.78.17,6.51,1.94,11.44,1.34,14.59-1.78,4.91-4.82,6.87-13.3,4.58-19.71Z"/>
          </g>
          <g>
            <path class="cls-3" d="M338.19,414.45c-1.98-15.21-15.33-25.39-26.69-28.34-16.27-4.97-36.47-.53-48.34,10.91-2.82,3.2-5.95,7-7.44,11.65-3.71,10.49-.74,23.27,7.22,31.1,3.07,3.03,8,6.05,15.45,6.05,2.81,0,5.99-.43,9.57-1.46,2.11-.36,3.86-1.1,5.28-1.7,2.29-.98,2.71-1.06,3.23-.88,10.61,5,20.73,5.11,30.44.1,8.83-5.48,13.04-15.78,11.27-27.43Z"/>
            <path class="cls-5" d="M327.35,415.98c-1.27-9.74-10.64-17.21-18.84-19.34-3.53-1.08-7.32-1.6-11.13-1.6-9.92,0-20.02,3.48-26.32,9.53-1.88,2.17-4.1,4.83-4.94,7.48-.02.07-.04.13-.07.2-2.29,6.41-.33,14.89,4.56,19.7,3.17,3.11,8.06,3.72,14.6,1.78.25-.07.51-.13.78-.17.89-.13,1.85-.53,2.97-1.01,2.67-1.14,6.69-2.83,11.82-.85,7.93,3.73,14.41,3.87,20.73.64,6.81-4.24,6.35-12.88,5.82-16.38Z"/>
          </g>
        </g>
        <g>
          <g class="cls-8">
            <g>
              <rect class="cls-7" x="222.64" y="113.67" width="132.75" height="190.62" transform="translate(-22.52 382.6) rotate(-65)"/>
              <g>
                <rect class="cls-6" x="208.17" y="109.6" width="20.14" height="132.75" transform="translate(94.82 -75.75) rotate(25)"/>
                <rect class="cls-6" x="245.18" y="126.86" width="20.14" height="132.75" transform="translate(105.58 -89.77) rotate(25)"/>
                <rect class="cls-6" x="282.19" y="144.11" width="20.14" height="132.75" transform="translate(116.34 -103.79) rotate(25)"/>
                <rect class="cls-6" x="319.19" y="161.37" width="20.14" height="132.75" transform="translate(127.11 -117.82) rotate(25)"/>
                <rect class="cls-6" x="356.2" y="178.63" width="20.14" height="132.75" transform="translate(137.86 -131.84) rotate(25)"/>
              </g>
            </g>
          </g>
          <path class="cls-3" d="M390.94,220.83c.07-12.49-5.34-22.53-15.6-29.03-.69-.44-1.39-.87-2.1-1.27-.77-.43-1.55-.85-2.34-1.22-11.64-5.67-23.69-4.48-34.15-2.53-5.83,1.33-9.45,2.5-11.74,3.46-1.46-1.46-3.03-2.84-4.74-4.07-.97-.67-6.37-4.22-14.15-5.76-.48-2.22-.98-3.97-1.26-4.88-.01-.05-.23-.79-.25-.84-1.29-3.88-4.26-11.63-9.68-19.89-6.8-10.34-15.02-17.72-24.49-21.96-15.15-6.65-29.01-3.93-42.64,8.55-6.19,6.4-11.53,14.18-15.87,23.1-.54,1.12-4.52,10.56-4.96,11.86-1.56,4.27-6.56,19.27-5.14,33.03.89,10.47,5.87,20.97,13,27.42.12.11.54.44.67.53,7.94,6.03,16.67,9.07,25.99,9.07,1.13,0,2.27-.05,3.42-.13,12.05-.93,21.23-4.61,21.51-4.72,1.18-.45,2.22-.93,3.33-1.4,3.32,4.59,7.6,8.48,12.65,11.05,6.29,3.17,11.23,4.29,15.81,4.29.67,0,1.31-.14,1.97-.18.25.54.51,1.09.92,1.73,9.83,18.53,24.19,24.87,33.25,24.48.58.03,1.17.05,1.76.05,15.78,0,33.72-11.18,44.46-28.18l.53-.88c3.53-5.77,8.87-14.5,9.85-31.66ZM262.41,231.35c-.08.03-8.08,3.2-18.37,4-11.87.91-19.45-4.84-21.88-6.66-5-4.53-8.79-12.66-9.45-20.34-1.18-11.51,3.16-24.52,4.61-28.48.39-1.06,3.95-9.57,4.44-10.59,3.84-7.9,8.52-14.72,13.66-20.06,10.24-9.38,19.41-11.29,30.57-6.38,7.49,3.35,14.15,9.4,19.77,17.96,4.92,7.49,7.54,14.61,8.32,16.9l.28.99c.1.33.23.76.37,1.26-3.12.38-6.39,1.21-9.76,2.67-.86.37-1.62.86-2.44,1.29-1.82-1.99-4.05-3.77-6.3-5.03-6.73-3.79-14.11-3.84-20.25-.13-6.59,4-10.46,11.71-9.86,19.44.23,6.03,2.69,11.16,7.12,14.82,2.87,2.37,6.27,3.78,9.4,4.6,0,.53-.07,1.05-.05,1.58.03,3.82.78,7.6,2.04,11.21-.76.31-1.43.63-2.24.94ZM264.12,206.66c-1.43-.51-2.96-1.24-4.22-2.39-1.79-1.63-2.71-3.75-2.82-6.7-.29-3.87,1.51-7.59,4.61-9.47,2.17-1.31,4.47-1.52,7.04-.66,2.02.68,3.67,1.86,4.9,2.98-4.48,4.46-7.75,9.99-9.5,16.23ZM306.89,243.05c-7.63,2.01-11.53,2.43-19.54-1.62-8.18-4.17-13.72-13.13-13.78-22.46-.43-11.82,5.62-21.89,15.78-26.29,3.44-1.49,6.75-2.05,9.77-2.05,8.05,0,14.03,3.93,14.85,4.49,9.03,6.49,13.34,17.88,10.69,28.51-2.49,11.49-10.8,17.57-17.75,19.43ZM371.63,246.99l-.6,1.01c-8.69,13.74-23.71,23.26-36.56,22.57-6.52.09-15.93-5.16-23.02-17.53,4.14-1.36,8.46-3.71,12.35-7.14,1.96,1.41,4.3,2.61,7,3.2,1.02.22,2.2.38,3.49.38,3.21,0,7.18-.98,11.47-4.38,4.8-4.81,6.43-10.35,4.84-17.49-2.82-8.54-9.53-11.12-14.31-12.03-.27-5.63-1.81-11.14-4.48-16.14,2.05-.65,4.64-1.36,7.15-1.93,8.49-1.57,18.35-2.62,27.19,1.67.59.28,1.14.58,1.7.89.53.3,1.04.61,1.59.96,7.15,4.53,10.61,10.99,10.57,19.46-.82,14.14-4.94,20.88-8.38,26.5ZM335.17,226.56c2.53.61,4.13,1.69,4.89,3.94.65,2.96.13,4.69-1.56,6.43-1.71,1.35-3.44,1.83-5.18,1.51-.94-.17-1.76-.56-2.49-1,1.88-3.16,3.39-6.77,4.33-10.89Z"/>
          <path class="cls-1" d="M390.94,220.83c.07-12.49-5.34-22.53-15.6-29.03-.69-.44-1.39-.87-2.1-1.27-.77-.43-1.55-.85-2.34-1.22-11.64-5.67-23.69-4.48-34.15-2.53-5.83,1.33-9.45,2.5-11.74,3.46-1.46-1.46-3.03-2.84-4.74-4.07-.97-.67-6.37-4.22-14.15-5.76-.48-2.22-.98-3.97-1.26-4.88-.01-.05-.23-.79-.25-.84-1.29-3.88-4.26-11.63-9.68-19.89-6.8-10.34-15.02-17.72-24.49-21.96-15.15-6.65-29.01-3.93-42.64,8.55-6.19,6.4-11.53,14.18-15.87,23.1-.54,1.12-4.52,10.56-4.96,11.86-1.56,4.27-6.56,19.27-5.14,33.03.89,10.47,5.87,20.97,13,27.42.12.11.54.44.67.53,7.94,6.03,16.67,9.07,25.99,9.07,1.13,0,2.27-.05,3.42-.13,12.05-.93,21.23-4.61,21.51-4.72,1.18-.45,2.22-.93,3.33-1.4,3.32,4.59,7.6,8.48,12.65,11.05,6.29,3.17,11.23,4.29,15.81,4.29.67,0,1.31-.14,1.97-.18.25.54.51,1.09.92,1.73,9.83,18.53,24.19,24.87,33.25,24.48.58.03,1.17.05,1.76.05,15.78,0,33.72-11.18,44.46-28.18l.53-.88c3.53-5.77,8.87-14.5,9.85-31.66Z"/>
        </g>
      </g>
    </g>
    <g>
      <path class="cls-1" d="M154.28,51.67h0c-.26-1.98-.64-4.01-1.33-5.86l-.07-.17c-.64-1.49-1.35-2.88-2.04-4.07-.35-.6-.69-1.14-1.05-1.65-.29-.4-.6-.81-1.01-1.23-.94-1.08-2.31-1.71-3.75-1.72-.06,0-.09,0-.1,0-.07,0-.19,0-.33.02-1.53.09-2.99.94-3.86,2.28l-1.69,2.58c-2.02,3.11-4.8,6.26-7.76,8.64-1.5-1.52-3.43-2.65-5.63-3.31-1.35-.41-2.7-.61-4.02-.61h-.04c-2.01,0-3.76.48-5.2,1.17V15.02c0-1.99-1.17-3.8-2.98-4.62-.65-.29-1.33-.44-2.02-.45-.02,0-.05,0-.07,0-1.2,0-2.41.43-3.36,1.28l-3.45,3.03s-.03.03-.04.04c-.23.17-1.06.75-2.07,1.21-1.24.59-2.83,1.08-4.34,1.07h-.04s-.05,0-.1,0h-.04c-1.69-.03-3.35-.34-5.78-1.87-2.32-1.49-5.26-4.31-8.4-9.42l-1.78-2.89c-.91-1.47-2.48-2.34-4.13-2.4h-.25c-1.71.06-3.27.93-4.18,2.4l-1.78,2.89c-3.15,5.12-6.08,7.93-8.42,9.43-2.42,1.52-4.07,1.83-5.79,1.86h-.15c-1.56,0-3.21-.52-4.45-1.12-.62-.3-1.15-.62-1.52-.86-.18-.12-.32-.22-.41-.29-.02-.02-.04-.03-.06-.04l-3.47-3.06c-.95-.83-2.14-1.27-3.35-1.26-.7,0-1.42.14-2.11.46-1.8.82-2.96,2.62-2.96,4.6v32.72c-1.43-.68-3.18-1.16-5.17-1.17h-.09c-1.32,0-2.65.21-3.98.61-2.21.67-4.15,1.8-5.64,3.32-2.96-2.38-5.74-5.53-7.75-8.63l-1.7-2.6c-.89-1.36-2.38-2.21-4-2.29-.07,0-.1,0-.15,0h-.08c-1.47,0-2.87.64-3.82,1.74-.41.42-.71.83-.99,1.21-1.05,1.49-2.13,3.5-3.09,5.71l-.06.15c-.7,1.88-1.08,3.91-1.34,5.89-.26,1.99-.38,3.9-.38,5.41,0,.54.02,1.04.06,1.54.41,4.33,1.3,10.09,4.61,14.9,3.93,5.63,8.16,8.75,11.62,10.37l.04.02c-.46.21-.93.38-1.27.47-.19.06-.34.1-.43.12-.05.01-.07.02-.11.03h0l-.08.02-2.09.37c-1.4.24-2.62,1.07-3.37,2.24-.53.82-.81,1.78-.81,2.75,0,.39.05.82.16,1.26l.55,2.17c.42,1.65,1.24,3.02,2.18,4.06.93,1.03,1.97,1.76,2.96,2.27.96.49,1.93.82,2.88,1.03,1.12.69,2.4,1.15,3.74,1.33-.34.31-.95.92-1.6,1.81h0c-.76,1.04-2.06,3.13-2.09,6.06h0s0,.06,0,.08v.05c.02,2.49,1.03,4.84,2.78,6.64,1.53,1.65,2.38,2.57,4.27,4.26,1.63,1.57,3.77,2.71,6.17,2.98.58,1.37,1.49,2.65,2.7,3.73,5.23,4.84,11.36,7.61,18.15,9.78l.09.03.06.02c4.89,1.55,10.22,2.64,15.83,3.23,2.08,1.59,4.32,3.03,6.73,4.29l.96.5c.74.38,1.49.54,2.15.56h.25c.72-.02,1.47-.18,2.21-.56l.96-.5c2.41-1.25,4.66-2.69,6.73-4.29,5.61-.6,10.94-1.68,15.87-3.24h-.01s.1-.03.1-.03c6.82-2.18,12.95-4.95,18.2-9.81,1.19-1.06,2.09-2.34,2.68-3.71,2.41-.27,4.55-1.42,6.21-3.01,1.85-1.66,2.7-2.58,4.26-4.26,1.73-1.77,2.74-4.13,2.76-6.59v-.13c-.03-2.95-1.34-5.04-2.06-6.06l-.04-.05c-.62-.86-1.23-1.47-1.59-1.79,1.35-.19,2.62-.64,3.74-1.33.95-.2,1.92-.53,2.89-1.03.99-.5,2.03-1.23,2.96-2.26.94-1.04,1.75-2.41,2.18-4.06l.56-2.18c.11-.41.16-.83.16-1.25,0-.98-.28-1.92-.8-2.74-.76-1.18-1.99-2.01-3.4-2.25l-2.13-.38h0s-1.1-.26-1.8-.61l-.04-.02s.03-.01.05-.02c3.46-1.62,7.69-4.74,11.62-10.36,3.31-4.81,4.2-10.57,4.61-14.9.04-.5.06-.99.06-1.53,0-1.51-.12-3.42-.38-5.41Z"/>
      <g>
        <g>
          <path class="cls-2" d="M152.77,51.87c-.26-1.92-.62-3.85-1.24-5.52l-.05-.12c-.61-1.41-1.29-2.76-1.95-3.89-.33-.57-.65-1.08-.98-1.53-.28-.39-.54-.73-.89-1.08-.67-.78-1.63-1.23-2.67-1.24h-.04s-.11,0-.21,0c-1.12.07-2.13.65-2.75,1.6l-1.69,2.58c-2.37,3.65-5.69,7.3-9.25,9.89-1.36-1.83-3.39-3.2-5.85-3.94-1.22-.36-2.42-.55-3.58-.55h-.04c-2.16,0-3.97.63-5.35,1.44-.2-.02-.4-.04-.61-.05-.07,0-.15,0-.17,0-.2,0-.4.01-.6.03V15.02c0-1.4-.81-2.65-2.09-3.23-.47-.21-.96-.31-1.46-.31-.84,0-1.68.3-2.35.89l-3.46,3.04s-.04.03-.05.05c-.2.16-1.15.85-2.43,1.44-1.38.65-3.17,1.22-5.01,1.21,0,0-.01,0-.07,0h-.07c-1.93-.02-3.97-.44-6.6-2.11-2.57-1.65-5.65-4.65-8.89-9.91l-1.78-2.89c-.63-1.03-1.73-1.64-2.89-1.68h-.2c-1.15.04-2.25.65-2.89,1.68l-1.78,2.89c-3.24,5.26-6.32,8.26-8.89,9.91-2.62,1.66-4.67,2.08-6.6,2.1h-.14c-1.9,0-3.74-.6-5.14-1.27-.7-.34-1.28-.68-1.69-.96-.21-.13-.37-.25-.48-.34-.05-.04-.1-.07-.12-.09-.01,0-.02-.02-.04-.03l-3.47-3.06c-.66-.58-1.5-.88-2.34-.88-.49,0-.99.1-1.47.32-1.26.57-2.07,1.82-2.07,3.22v34.5c-.2-.02-.39-.03-.58-.03-.04,0-.12,0-.17,0-.22,0-.42.02-.62.05-1.38-.81-3.18-1.43-5.33-1.44h-.09c-1.16,0-2.35.18-3.55.54-2.47.75-4.51,2.12-5.86,3.94-3.56-2.59-6.88-6.24-9.25-9.89l-1.7-2.59c-.63-.96-1.66-1.55-2.81-1.6-.02,0-.07,0-.16,0-1.05,0-2.02.45-2.69,1.24-.35.35-.6.69-.89,1.08-.95,1.35-2,3.29-2.93,5.42l-.05.11c-.63,1.67-.99,3.6-1.25,5.52-.25,1.92-.37,3.78-.37,5.21,0,.51.02.97.05,1.4.39,4.23,1.29,9.74,4.34,14.16,3.79,5.42,7.8,8.35,11.02,9.86.82.39,1.58.68,2.27.9-.06.1-.12.21-.18.32l-.03.06c-.04.08-.28.39-.65.68-.37.3-.87.6-1.36.82h-.03c-.5.25-1.04.44-1.46.56-.21.06-.39.11-.51.14-.06.02-.11.03-.15.03-.01,0-.02,0-.03,0h-.04s-2.15.39-2.15.39c-.98.17-1.83.74-2.36,1.57-.37.57-.57,1.25-.57,1.92,0,.27.03.57.11.88l.56,2.18c.35,1.39,1.04,2.54,1.83,3.41.79.88,1.68,1.5,2.53,1.93.93.47,1.87.78,2.77.95,1.29.86,2.85,1.34,4.51,1.34h.03c.48,0,.95-.04,1.41-.11.1.24.2.49.31.74l-1.99,1.85h0c-.28.25-.86.81-1.47,1.65l-.02.02c-.65.9-1.76,2.69-1.78,5.17v.03h0s0,0,0,.02v.07c.02,2.05.85,4.03,2.35,5.56,1.57,1.69,2.34,2.53,4.2,4.2,1.66,1.59,3.81,2.63,6.16,2.65h.08c.45,1.49,1.33,2.9,2.62,4.06,5.02,4.65,10.91,7.32,17.61,9.47l.08.03h.03c4.95,1.57,10.32,2.66,16,3.24,2.11,1.65,4.39,3.13,6.85,4.4l.96.5c.51.27,1.04.37,1.5.39h.19c.47-.02.99-.13,1.51-.39l.95-.5c2.46-1.27,4.74-2.76,6.85-4.4,5.67-.57,11.05-1.66,16-3.23h.03s.07-.03.07-.03c6.7-2.15,12.59-4.82,17.62-9.47,1.3-1.16,2.17-2.57,2.63-4.06h.07c2.36-.01,4.51-1.05,6.17-2.65,1.86-1.66,2.63-2.51,4.2-4.2,1.5-1.53,2.33-3.51,2.35-5.56v-.07s0-.02,0-.02h0v-.03c-.02-2.47-1.13-4.26-1.78-5.17l-.02-.02c-.61-.84-1.18-1.39-1.47-1.65h0l-1.99-1.85c.11-.25.21-.5.3-.74.46.07.94.11,1.41.11h.03c1.67,0,3.23-.49,4.52-1.34.9-.17,1.84-.47,2.77-.95.84-.43,1.73-1.05,2.52-1.93.79-.87,1.48-2.03,1.83-3.41l.56-2.18c.07-.29.11-.58.11-.88,0-.68-.2-1.34-.56-1.92-.53-.83-1.39-1.41-2.38-1.58l-2.14-.38h-.04c-.16-.04-1.22-.3-2.14-.73h-.03c-.48-.23-.98-.53-1.36-.83-.38-.29-.62-.6-.65-.68l-.03-.06c-.06-.11-.12-.22-.18-.32.69-.22,1.46-.52,2.27-.9,3.22-1.51,7.23-4.43,11.02-9.86,3.06-4.43,3.95-9.93,4.34-14.17.04-.43.05-.88.05-1.39,0-1.43-.12-3.29-.37-5.21Z"/>
          <path class="cls-5" d="M148.99,47.31c-1.13-2.62-2.57-5.06-3.33-5.74-.16-.23-.42-.36-.7-.36-.28,0-.54.15-.69.38l-1.69,2.59c-3.12,4.78-7.66,9.52-12.61,12.34-.15-.59-.39-1.2-.74-1.8-.92-1.53-2.56-2.79-4.81-3.48-.97-.29-1.91-.43-2.79-.43,0,0,0,0-.03,0-2.12,0-3.78.81-4.84,1.65-.31-.13-.72-.24-1.22-.26-.04,0-.05,0-.07,0-.54,0-1.16.15-1.74.54-.38.25-.78.63-1.07,1.16-.17.3-.28.62-.34.92-.02.08-.03.12-.09.12-.08-.01-.08-.13-.08-.13V15.02c0-.33-.19-.63-.49-.76-.3-.13-.65-.08-.89.13l-3.46,3.05s-.03.02-.04.03c-.39.34-4.36,3.36-9.29,3.34h-.09c-2.38,0-5.05-.61-8.06-2.53-3-1.93-6.34-5.25-9.73-10.78l-1.77-2.89c-.15-.24-.4-.38-.68-.39-.28,0-.53.15-.68.39l-1.77,2.89c-3.4,5.52-6.74,8.84-9.73,10.78-3.01,1.93-5.67,2.53-8.06,2.53h-.09c-4.93.02-8.9-2.99-9.29-3.34-.01-.01-.02-.02-.04-.03l-3.46-3.05c-.25-.21-.6-.27-.89-.13-.3.13-.49.43-.49.76v39.78s0,.11-.08.13c-.06,0-.07-.04-.09-.12-.06-.3-.17-.62-.34-.92-.29-.52-.69-.91-1.07-1.16-.58-.39-1.2-.53-1.74-.54-.02,0-.04,0-.07,0-.5.02-.91.13-1.22.26-1.06-.84-2.72-1.65-4.84-1.65-.02,0-.04,0-.03,0-.88,0-1.82.14-2.8.43-2.25.68-3.89,1.94-4.81,3.48-.35.59-.59,1.2-.74,1.8-4.95-2.82-9.49-7.56-12.61-12.34l-1.69-2.59c-.15-.23-.41-.37-.69-.38-.28,0-.54.13-.7.36-.76.68-2.2,3.12-3.33,5.74-1.18,3.11-1.57,8.89-1.4,10.93.35,4.03,1.28,9.16,3.87,12.85,7.36,10.52,15.01,10.32,15.01,10.32-.32.88-.87,2.11-1.79,3.68-.59,1.07-1.92,2.05-3.27,2.66-1.33.62-2.62.9-2.8.93-.01,0-.02,0-.02,0l-2.19.39c-.23.04-.43.17-.56.37-.13.19-.16.43-.11.66l.56,2.17c.47,1.85,1.8,3.01,2.96,3.6.9.46,1.79.7,2.61.78.1.08.21.16.32.24.85.6,1.94.97,3.14.97h.03c1.01,0,2.04-.24,3.08-.69,0,0,.95,2.84,1.91,4.68l-3.43,3.19c-.18.16-.63.58-1.12,1.26-.53.74-1.26,1.95-1.28,3.63v.03s0,.02,0,.05c0,1.3.57,2.67,1.6,3.71,1.62,1.74,2.24,2.43,4.07,4.07,1.25,1.22,2.8,1.93,4.33,1.93h.04c.96,0,1.78-.25,2.44-.57-.03.25-.06.52-.06.8v.03s0,.02,0,.07c0,1.5.69,3.19,2.08,4.42,4.63,4.3,10.09,6.82,16.64,8.92l.07.02h.02c4.98,1.58,10.45,2.67,16.25,3.2,2.16,1.74,4.5,3.3,7.04,4.62l.96.5c.11.06.23.08.35.09.12,0,.24-.03.35-.09l.96-.5c2.54-1.32,4.88-2.87,7.03-4.62,5.8-.53,11.27-1.62,16.25-3.2h.02s.07-.03.07-.03c6.55-2.1,12.01-4.62,16.64-8.92,1.39-1.23,2.07-2.91,2.08-4.42v-.1c0-.28-.03-.54-.06-.8.66.32,1.48.57,2.44.57h.04c1.54,0,3.08-.71,4.33-1.93,1.83-1.64,2.45-2.33,4.07-4.07,1.03-1.04,1.59-2.4,1.6-3.71,0-.03,0-.05,0-.05v-.03c-.02-1.68-.75-2.89-1.28-3.63-.49-.67-.94-1.1-1.12-1.26l-3.43-3.19c.96-1.84,1.91-4.68,1.91-4.68,1.05.45,2.08.69,3.08.69h.03c1.19,0,2.29-.37,3.14-.97.11-.08.22-.16.31-.24.82-.09,1.71-.32,2.61-.78,1.16-.59,2.49-1.75,2.96-3.6l.56-2.17c.06-.23.02-.46-.11-.66-.13-.2-.33-.33-.55-.37l-2.19-.39s0,0-.02,0c-.18-.03-1.47-.31-2.8-.93-1.35-.61-2.69-1.59-3.27-2.66-.91-1.57-1.46-2.8-1.78-3.68,0,0,7.65.2,15.01-10.32,2.58-3.69,3.51-8.82,3.87-12.85.18-2.04-.22-7.82-1.4-10.93Z"/>
        </g>
        <g>
          <path class="cls-7" d="M77.61,9.04c-15.34,24.94-31.63,10.6-31.63,10.6v45.51s0,57.1,31.63,73.48c31.63-16.38,31.63-73.48,31.63-73.48V19.63s-16.29,14.34-31.63-10.6"/>
          <g>
            <g>
              <path class="cls-5" d="M77.61,19.45s-11.38,15.45-28.43,9.17v36.93s0,.04,0,.13c0,1.53.26,15.69,4.23,31.19,1.98,7.75,4.89,15.83,9.07,22.81,3.78,6.32,8.56,11.71,14.61,15.36l.46.28.05-.03.05.03.46-.28c6.05-3.65,10.82-9.04,14.61-15.36,4.18-6.98,7.09-15.06,9.07-22.81,3.97-15.51,4.22-29.66,4.23-31.19,0-.09,0-.13,0-.13V28.61c-17.06,6.28-28.43-9.17-28.43-9.17Z"/>
              <path class="cls-7" d="M104.25,65.54s0,.02,0,.12c0,1.43-.26,15.49-4.18,30.76-1.95,7.63-4.81,15.56-8.87,22.33-3.58,5.98-8.02,11.01-13.53,14.46-.02,0-.04-.02-.05-.03-.02.01-.04.02-.05.03-5.52-3.45-9.96-8.49-13.53-14.46-4.06-6.77-6.92-14.7-8.87-22.33-3.92-15.27-4.17-29.33-4.18-30.76,0-.09,0-.12,0-.12v-11.93c7.79-1.3,16.9-2.05,26.64-2.05s18.84.75,26.64,2.05v11.93Z"/>
              <g>
                <path class="cls-7" d="M77.61,23.86c.91,0,1.65.74,1.65,1.65s-.74,1.65-1.65,1.65-1.65-.74-1.65-1.65.74-1.65,1.65-1.65Z"/>
                <path class="cls-7" d="M104.25,44.23h-5.57s-3.84.01-5.88-2.67c-2.43-3.19-5.52-3.2-5.52-3.2h-19.32s-3.09,0-5.52,3.2c-2.04,2.68-5.88,2.67-5.88,2.67h-5.57v-8.14c11.05,0,18.33-4.23,22.45-7.7.08.7.67,1.25,1.39,1.25.29,0,.56-.09.78-.24.22.91,1.04,1.58,2.01,1.58s1.79-.68,2.01-1.58c.22.15.49.24.78.24.72,0,1.32-.55,1.39-1.25,4.12,3.47,11.4,7.7,22.45,7.7v8.14Z"/>
              </g>
              <g>
                <rect class="cls-5" x="78.71" y="32.32" width="2.3" height="4.48"/>
                <rect class="cls-5" x="74.21" y="32.32" width="2.29" height="4.48"/>
              </g>
            </g>
            <path class="cls-6" d="M74.21,55.19v69.68h6.8V55.19c-1.12-.02-2.26-.03-3.4-.03s-2.28.01-3.4.03M87.82,55.44v61.97c.1-.17.2-.33.31-.5,2.65-4.42,4.8-9.45,6.5-14.6v-46.34c-2.2-.22-4.47-.39-6.8-.53M60.61,102.31c1.7,5.15,3.85,10.18,6.5,14.6.1.17.2.33.31.5v-61.97c-2.33.13-4.6.31-6.8.53v46.34Z"/>
            <path class="cls-7" d="M86.34,111.41c-.07-.07-.14-.14-.23-.19v-.41s0-.16,0-.43c.17-.15.29-.36.3-.6.02-.31.04-.43.07-.61.04-.21,0-.42-.11-.6l-.02-.03c-.14-.22-.37-.37-.63-.39-.16-.01-.33-.02-.51-.02l-1.53.03c-.22,0-.48,0-.91-.03-.17,0-.34.04-.48.13-.15-.04-.3-.08-.45-.11-.28-.05-.57-.08-.85-.08-.6,0-1.17.11-1.66.37-.02-.03-.05-.06-.07-.09-.17-.16-.38-.24-.61-.23-.21,0-.35.01-.62.01-.19,0-.28,0-.47-.01-.23-.01-.45.07-.62.23-.14.14-.23.32-.25.52-.14-.18-.26-.33-.33-.43-.17-.21-.43-.33-.7-.32-.18,0-.34.01-.48.01-.12,0-.24,0-.53-.01-.08,0-.15,0-.22.03-.08-.02-.16-.03-.25-.03-.28.01-.49.02-.82.02-.18,0-.38,0-.76-.02-.17,0-.34.04-.48.14-.16-.06-.33-.11-.49-.14-.23-.04-.47-.06-.72-.06-.65,0-1.28.14-1.76.6-.4.38-.62.93-.61,1.48,0,.32.07.66.25.96,0,0,0,0,0,.01-.13.14-.21.33-.21.53h0s0,.01,0,.02c0,.23-.01.4-.02.51,0,.05-.02.12-.04.22-.1.38.08.78.43.95.25.13.51.22.77.29.26.06.53.09.82.09h.02c.05,0,.1,0,.15,0-.13.15-.21.33-.21.54v.54c0,.25.12.49.31.65.1.08.22.13.34.16v.03c0,.5,0,1.08-.03,1.73,0,.02,0,.03,0,.05-.21.03-.41.13-.55.3l-.03.04c-.12.15-.19.34-.19.53v.2c0,.19.07.38.19.53l.03.04c.16.2.41.31.67.3.49-.02.78-.02,1.19-.02.14,0,.43,0,.85.01h.29s.02.01.03.01c.07,0,.14-.01.21-.03.15.12.33.18.51.18.02,0,.03,0,.05,0,.64-.03,1.25-.22,1.78-.57.28-.18.52-.4.73-.64.18.31.42.57.72.77.37.24.82.36,1.26.36.01,0,.03,0,.04,0,.5,0,1-.17,1.4-.48.08.1.18.18.31.24.19.08.38.14.58.18.2.04.4.06.6.06h.03c.74,0,1.46-.27,2-.77.54-.49.86-1.18.85-1.91,0-.57-.19-1.16-.61-1.56.15-.13.26-.32.28-.54l.09-.85s0-.09,0-.14c.05,0,.09,0,.14,0,.3,0,.5,0,.62,0,.18,0,.36,0,.55-.02.43-.03.76-.38.77-.81,0-.29.02-.46.06-.77.03-.24-.04-.48-.2-.66Z"/>
            <g>
              <g>
                <path class="cls-5" d="M74.63,112.83c.35-.01.49-.03.6-.03.13,0,.26,0,.55.02v-.23c-.23-.02-.28-.03-.31-.06-.02-.01-.04-.02-.04-.05-.02-.05-.03-.22-.04-.52,0-.41-.02-.76-.02-1.05v-1.07c.21.27,1.94,2.45,2.41,2.98.09.01.25-.04.47,0l.04-.04c-.01-.3-.02-.52-.02-.81v-1.11s.02-1.1.02-1.1c0-.24.01-.38.02-.42,0-.03.02-.05.03-.06.01-.02.03-.03.06-.04.04-.02.08-.03.29-.04v-.23c-.22,0-.38.01-.65.01-.2,0-.31,0-.51-.01v.23c.23.02.27.03.3.04.03,0,.05.03.06.05.02.04.04.15.04.33,0,.3.01.66.01,1.07v1.09c-.26-.28-1.82-2.27-2.24-2.81-.2,0-.37.01-.52.01-.14,0-.27,0-.56-.01v.23c.24.02.3.04.34.07.02.01.04.03.05.06.02.05.03.23.03.53v1.16c0,.22,0,.56,0,1,0,.27-.02.42-.04.46-.01.03-.03.06-.06.07-.04.02-.09.03-.31.04v.24Z"/>
                <path class="cls-5" d="M82.29,109.74h-.23c0-.14-.09-.21-.19-.28-.09-.07-.21-.12-.36-.17-.15-.04-.32-.06-.51-.06-.44,0-.79.14-1.05.41-.26.27-.39.65-.39,1.14,0,.52.16.95.47,1.28.29.3.68.45,1.19.45.19,0,.38-.02.55-.06.17-.04.36-.11.56-.21l.07.06c-.05.09-.09.18-.13.28-.21.11-.42.19-.62.24-.2.05-.42.07-.68.07-.48,0-.89-.09-1.22-.25-.33-.17-.59-.41-.77-.71-.18-.31-.27-.66-.27-1.06,0-.57.2-1.04.61-1.4.4-.37.96-.55,1.68-.55.24,0,.47.02.7.06.23.04.46.11.69.19l.02.04-.13.53Z"/>
                <path class="cls-5" d="M82.83,112.83v-.15c.1-.04.19-.1.27-.16.04-.29.06-.89.06-1.81,0-.63,0-1.04-.02-1.25,0-.11-.03-.18-.06-.2-.03-.03-.1-.06-.34-.07v-.23c.43.02.7.03.95.03l1.52-.03c.16,0,.3,0,.43.02l.02.03c-.04.2-.07.39-.09.73h-.22c0-.27-.02-.33-.03-.35-.01-.02-.05-.04-.12-.05-.15-.03-.39-.05-.7-.05-.16,0-.33,0-.54.02-.02.57-.04,1.02-.04,1.36.2.01.38.02.55.02.26,0,.41,0,.46-.02.03-.01.05-.04.07-.08.01-.03.02-.08.04-.28h.24c0,.31-.01.44-.01.54v.52s-.22,0-.22,0c-.01-.24-.03-.28-.05-.32-.01-.02-.04-.04-.07-.05-.09-.02-.3-.03-.62-.03-.1,0-.22,0-.35.02,0,.1,0,.2,0,.3,0,.52,0,.93.03,1.21h.55c.31,0,.6,0,.85-.04.05-.17.08-.27.12-.49h.23c-.04.33-.06.55-.06.85-.17.01-.33.02-.48.02-.1,0-.3,0-.6,0-.28,0-.53-.01-.77-.01-.31,0-.63,0-.97.02Z"/>
                <path class="cls-5" d="M72.57,112.83v-.23c.25-.01.31-.03.35-.06.03-.03.05-.1.06-.22.01-.24.02-.7.02-1.36,0-.25,0-.62-.01-1.1,0-.33-.01-.51-.02-.54-.01-.03-.03-.06-.06-.07-.04-.02-.1-.04-.34-.05v-.23c.38.01.59.02.79.02.35,0,.58,0,.86-.02v.23c-.25.01-.31.03-.34.06-.03.03-.05.08-.06.17-.02.18-.02.53-.02,1.07,0,.72,0,1.22,0,1.5,0,.28.02.45.05.5.01.02.03.04.07.06.04.01.08.03.3.04v.23h-.24c-.21-.02-.39-.02-.55-.02l-.85.02Z"/>
                <path class="cls-5" d="M69.41,111.66h.24c0,.27.01.43.03.48.02.05.07.11.16.19.09.08.21.14.35.19.14.05.29.07.44.07.26,0,.47-.07.62-.21.16-.14.23-.31.23-.52,0-.19-.05-.34-.15-.44-.11-.1-.3-.17-.6-.22-.44-.06-.73-.13-.88-.2-.15-.07-.27-.18-.36-.33-.09-.15-.13-.33-.13-.53,0-.35.12-.64.36-.88.25-.24.64-.36,1.17-.36.21,0,.4.02.56.05.16.03.33.08.49.15l.03.06c-.03.12-.09.51-.09.58h-.24c0-.16-.03-.22-.04-.26-.04-.06-.13-.13-.27-.19-.14-.07-.31-.1-.49-.1-.25,0-.45.06-.59.18-.14.12-.21.28-.21.47,0,.12.03.22.08.31.06.09.14.15.24.19.1.04.32.09.66.14.31.05.51.09.62.14.18.07.31.18.41.33.09.15.14.33.14.56,0,.39-.15.71-.45.97-.3.26-.71.39-1.23.39-.23,0-.44-.02-.63-.07-.19-.04-.38-.12-.59-.22.03-.13.06-.25.07-.35.01-.15.02-.34.03-.59"/>
              </g>
              <g>
                <path class="cls-5" d="M75.97,116.12c-.26.27-.44.43-.54.48-.14.07-.31.1-.52.1-.33,0-.59-.12-.8-.36-.2-.24-.31-.56-.31-.99,0-.51.15-.92.44-1.23.29-.31.67-.47,1.12-.47.31,0,.58.07.81.22.23.15.41.36.54.64.13.28.19.65.19,1.12,0,.64-.1,1.17-.31,1.59-.21.41-.51.75-.9,1.01-.39.26-.85.4-1.36.43l-.29-.23.08-.13c.14.02.24.02.29.02.26,0,.5-.08.74-.24.24-.16.42-.39.56-.68.13-.29.22-.72.26-1.29ZM75.37,116.08c.19,0,.34-.06.45-.19.11-.13.17-.33.17-.61,0-.45-.07-.77-.2-.97-.13-.19-.3-.29-.52-.29-.19,0-.34.08-.46.23-.11.15-.17.39-.17.71,0,.4.07.69.21.88.11.16.28.23.51.23Z"/>
                <path class="cls-5" d="M78.24,116.08c.26-.27.44-.43.54-.47.14-.07.31-.1.51-.1.33,0,.59.12.8.35.21.24.31.57.31.99,0,.52-.15.94-.46,1.28-.28.31-.64.46-1.09.46-.3,0-.57-.08-.81-.23-.23-.15-.42-.37-.54-.65-.13-.28-.19-.66-.19-1.13,0-.62.11-1.13.33-1.54.22-.41.53-.75.94-1,.41-.25.85-.38,1.31-.38l.29.26-.11.12c-.13-.02-.24-.03-.3-.03-.23,0-.46.08-.69.24-.24.16-.42.38-.56.66-.14.28-.23.68-.27,1.18ZM78.86,116.12c-.21,0-.36.06-.47.19-.11.13-.17.33-.17.61,0,.47.07.81.2,1,.13.2.3.3.51.3.18,0,.34-.08.45-.24.12-.16.18-.4.18-.74,0-.4-.07-.69-.21-.88-.12-.16-.28-.24-.49-.24Z"/>
                <path class="cls-5" d="M83.49,114.55c-.42-.02-.73-.02-1.15-.02-.28,0-.55,0-.82,0l-.04,1.14c.16-.1.31-.17.45-.2.13-.04.28-.06.46-.06.46,0,.81.12,1.06.36.25.24.37.56.37.97,0,.5-.2.93-.59,1.3-.39.36-.88.55-1.46.55-.15,0-.3-.01-.44-.04-.14-.03-.27-.07-.4-.13-.05-.31-.12-.63-.22-.98v-.03l.22-.07c.19.34.36.56.54.68.17.12.37.17.6.17.27,0,.48-.09.65-.27.16-.18.25-.43.25-.74s-.09-.57-.26-.74c-.17-.18-.4-.27-.69-.27-.14,0-.27.02-.39.06-.12.04-.26.12-.41.23l-.14-.08c.04-.57.06-1.04.06-1.41,0-.46-.02-.87-.06-1.22l.05-.04c.51.03.97.04,1.4.04s.73-.01,1.05-.04l-.09.85Z"/>
                <path class="cls-5" d="M73.6,118.23c-.41-.03-.51-.05-.57-.09-.04-.02-.07-.06-.08-.12-.03-.13-.04-.46-.04-.99,0-.78,0-1.44.02-1.99.01-.55.04-.98.07-1.3l-.09-.05c-.49.2-.86.34-1.57.55v.54l.47-.11s.08-.03.09-.03c.03,0,.06.02.07.06.01.07.02.25.02.92,0,.51,0,1.09-.03,1.75-.01.39-.03.61-.06.67-.02.04-.05.07-.09.09-.06.02-.15.05-.59.09l-.03.04v.2l.03.04c.49-.02.79-.02,1.21-.02.15,0,.44,0,.87.01h.3s.04-.03.04-.03v-.2l-.04-.04Z"/>
              </g>
            </g>
            <g>
              <g>
                <path class="cls-7" d="M68.07,43.84v-.22c.24-.01.29-.03.32-.05.03-.02.08-.08.08-.26,0-.1,0-.21,0-.61v-1.46c0-.49-.01-.76-.03-.81-.01-.03-.02-.05-.05-.06-.04-.02-.09-.04-.33-.06v-.22c.36.01.56.02.77.02.33,0,.55,0,.82-.02v.22c-.22.02-.27.03-.31.05-.02.01-.04.03-.05.05-.02.03-.03.14-.04.31,0,.26-.01.52-.01.78v.22c.18,0,.48.01.88.01.36,0,.62,0,.79-.01,0-.58,0-.96-.02-1.16,0-.1-.03-.16-.06-.19-.04-.03-.1-.06-.34-.07v-.22c.44.01.66.02.82.02.27,0,.47,0,.77-.02v.22c-.23.02-.28.03-.32.05-.02.01-.04.03-.05.05-.02.04-.03.18-.03.43-.01.39-.02.7-.02.94l.02,1.21c0,.28.01.43.02.47.01.04.03.07.06.09.03.02.07.03.3.05v.22h-.2c-.22-.01-.4-.02-.52-.02-.26,0-.5,0-.85.02v-.22c.24-.01.29-.03.32-.06.04-.03.05-.1.06-.22.01-.2.02-.64.03-1.3h-.66c-.38,0-.72,0-1,0v.18c0,.47,0,.82.02,1.05,0,.16.03.25.06.27.03.03.09.05.33.06v.22s-.62-.02-.77-.02l-.82.02Z"/>
                <path class="cls-7" d="M72.58,43.84v-.22c.25-.01.3-.03.34-.06.03-.03.05-.1.06-.21.01-.24.02-.68.02-1.32,0-.24,0-.6,0-1.07,0-.32-.01-.49-.02-.53,0-.03-.03-.05-.05-.07-.04-.02-.1-.04-.33-.05v-.22c.37.01.57.02.76.02.34,0,.56,0,.83-.02v.22c-.24.02-.3.03-.33.06-.03.03-.05.08-.06.17-.02.17-.02.52-.02,1.04,0,.7,0,1.18,0,1.45,0,.27.02.44.05.49.01.02.03.04.07.05.04.01.08.03.29.04v.22h-.24c-.2-.01-.38-.02-.53-.02l-.82.02Z"/>
                <path class="cls-7" d="M74.61,43.84c.34-.01.48-.03.58-.03.12,0,.25,0,.54.02v-.22c-.22-.02-.27-.03-.3-.05-.02,0-.03-.03-.04-.05-.02-.04-.03-.21-.04-.51,0-.4-.01-.74-.01-1.02v-1.04c.2.27,1.88,2.38,2.34,2.89.09.01.24-.04.46,0l.03-.04c-.01-.29-.02-.5-.02-.79v-1.07s.02-1.07.02-1.07c0-.23,0-.37.02-.41,0-.02.02-.04.03-.06.02-.02.03-.03.06-.04.04-.02.08-.03.28-.04v-.22c-.21.01-.37.01-.63.01-.19,0-.31,0-.5-.01v.22c.22.02.27.03.29.04.03,0,.05.02.06.05.02.04.03.15.04.32,0,.29.01.64.01,1.04v1.06c-.25-.27-1.76-2.2-2.18-2.73-.19.01-.36.01-.51.01-.13,0-.26,0-.54-.01v.22c.23.02.29.04.33.06.02.01.04.03.05.06.02.05.03.22.03.52v1.13c0,.22,0,.54,0,.97,0,.26-.02.41-.04.45-.01.03-.03.06-.06.07-.04.02-.09.03-.3.04v.23Z"/>
                <path class="cls-7" d="M86.36,40.36s.05.03.07.06c.02.05.03.13.04.25,0,.39.01.64.01.74v1.2c-.01.31.04.56.14.72.1.16.27.3.5.4.24.11.53.16.89.16s.63-.06.86-.17c.23-.11.4-.25.5-.43.1-.17.16-.38.18-.63,0-.1.01-.31.01-.63,0-.5.01-.95.03-1.35.01-.16.04-.27.08-.3.04-.04.08-.06.25-.06v-.23c-.25.01-.37.02-.54.02-.19,0-.33,0-.56-.02v.23c.22.01.27.03.31.06.03.01.05.03.06.05.02.05.03.18.03.4v.99c0,.56-.02.92-.07,1.09-.05.17-.15.3-.3.39-.15.09-.37.14-.66.14-.21,0-.4-.05-.58-.14-.12-.06-.22-.16-.28-.29-.06-.13-.1-.34-.1-.62,0-.34,0-.67,0-1,0-.47.02-.76.03-.86,0-.06.02-.1.04-.12.01-.02.03-.03.06-.05.07-.03.11-.04.27-.04v-.23c-.32.01-.49.02-.66.02-.27,0-.51,0-.88-.02v.23s.2.03.26.05Z"/>
                <path class="cls-7" d="M78.75,42.71h.23c0,.26.01.42.03.46.02.04.06.1.15.18.09.07.2.13.34.18.14.05.28.07.43.07.25,0,.45-.07.6-.2.15-.13.22-.3.22-.5,0-.18-.05-.32-.15-.42-.1-.1-.29-.17-.58-.21-.42-.06-.7-.13-.85-.2-.15-.07-.26-.18-.35-.32-.08-.14-.13-.31-.13-.51,0-.33.12-.62.35-.85.24-.23.61-.35,1.13-.35.2,0,.38.01.54.04.16.03.32.08.47.15l.03.06c-.03.11-.09.49-.09.56h-.23c0-.15-.02-.21-.04-.25-.03-.06-.12-.12-.26-.18-.14-.06-.3-.1-.48-.1-.24,0-.43.06-.57.18-.13.12-.2.27-.2.46,0,.11.03.21.08.3.06.09.13.15.23.19.1.04.31.09.64.14.3.05.5.09.6.13.17.07.3.18.39.32.09.14.13.32.13.54,0,.38-.14.69-.43.94-.29.25-.68.38-1.18.38-.22,0-.42-.02-.61-.07-.18-.04-.37-.11-.56-.21.03-.12.05-.24.06-.34.02-.14.02-.33.03-.57"/>
                <path class="cls-7" d="M81.64,43.84v-.22c.23-.01.29-.03.32-.05s.08-.08.08-.26c0-.1,0-.21,0-.61v-1.46c0-.49-.02-.76-.03-.81,0-.03-.02-.05-.05-.06-.04-.02-.09-.04-.33-.06v-.22c.35.01.56.02.77.02.33,0,.55,0,.82-.02v.22c-.22.02-.27.03-.31.05-.02.01-.04.03-.05.05-.02.03-.03.14-.04.31,0,.26-.01.52-.01.78v.22c.18,0,.48.01.88.01.36,0,.62,0,.79-.01,0-.58,0-.96-.02-1.16,0-.1-.03-.16-.06-.19-.04-.03-.1-.06-.34-.07v-.22c.44.01.66.02.82.02.27,0,.47,0,.77-.02v.22c-.23.02-.28.03-.32.05-.02.01-.04.03-.05.05-.02.04-.03.18-.03.43-.01.39-.02.7-.02.94l.02,1.21c0,.28.01.43.02.47.01.04.03.07.06.09.03.02.07.03.3.05v.22h-.2c-.22-.01-.4-.02-.52-.02-.26,0-.49,0-.85.02v-.22c.24-.01.29-.03.32-.06.03-.03.05-.1.06-.22.01-.2.02-.64.03-1.3h-.66c-.38,0-.72,0-1.01,0v.18c0,.47,0,.82.02,1.05,0,.16.03.25.06.27.03.03.09.05.33.06v.22s-.61-.02-.77-.02l-.82.02Z"/>
                <path class="cls-7" d="M65.13,42.71h.23c0,.26,0,.42.03.46.02.04.07.1.15.18.09.07.2.13.34.18.14.05.28.07.43.07.25,0,.45-.07.6-.2.15-.13.23-.3.23-.5,0-.18-.05-.32-.15-.42-.1-.1-.29-.17-.58-.21-.42-.06-.7-.13-.85-.2-.15-.07-.26-.18-.35-.32-.08-.14-.13-.31-.13-.51,0-.33.12-.62.35-.85.24-.23.61-.35,1.13-.35.2,0,.38.01.54.04.16.03.31.08.47.15l.02.06c-.03.11-.09.49-.09.56h-.23c0-.15-.02-.21-.04-.25-.03-.06-.12-.12-.26-.18-.14-.06-.3-.1-.48-.1-.24,0-.43.06-.57.18-.13.12-.2.27-.2.46,0,.11.03.21.08.3.06.09.13.15.23.19.1.04.31.09.64.14.3.05.49.09.6.13.17.07.3.18.39.32.09.14.13.32.13.54,0,.38-.14.69-.43.94-.29.25-.68.38-1.18.38-.22,0-.42-.02-.61-.07-.18-.04-.37-.11-.56-.21.03-.12.05-.24.06-.34.02-.14.02-.33.03-.57"/>
              </g>
              <g>
                <path class="cls-7" d="M57.72,45.4c-.26,0-.53,0-.82-.02h-.04s-1.59,4.57-1.59,4.57l-1.48-4.57h-.34c-.3,0-.61.01-.94.01-.28,0-.56,0-.85,0h-.05s0,.35,0,.35v.05h.05c.3.02.48.05.49.06.03.01.05.03.06.05.02.04.04.22.04.5,0,.47,0,4.45-.02,5.04,0,.29-.04.47-.07.49-.03.04-.13.09-.3.12-.09.02-.25.06-.25.06v.41s.67-.13,1.03-.19c.24-.04.78-.09.78-.09v-.41s-.3.03-.39.03c-.1,0-.17-.02-.17-.02-.02,0-.06-.13-.06-.33-.01-.51-.01-5.48-.01-5.48l.08.2,1.82,5.9.31-.04,1.87-5.35s0,4.11-.02,4.28c-.01.17-.04.27-.07.29-.02.03-.12.07-.28.09-.09.01-.26.04-.26.04v.41s1-.16,1.31-.19c.3-.04,1.09-.1,1.09-.1v-.41s-.29-.02-.36-.02c-.12,0-.19,0-.19,0-.02-.01-.04-.03-.05-.05-.02-.03-.02-4.62,0-4.92,0-.18.05-.29.06-.3,0-.01.19-.06.5-.07h.05v-.41h-.05c-.28.02-.58.02-.88.02Z"/>
                <path class="cls-7" d="M86.19,50.22s-.04-.04-.05-.06c-.02-.03-.04-.32-.04-.79,0-.48,0-2.93.01-3.23,0-.18.05-.29.06-.3,0-.01.17-.03.48-.05h.05v-.41s-.63.02-.93.02c-.33,0-.85-.02-.85-.02v.03c-.33.76-.89,1.94-1.68,3.53-.75-1.54-1.17-2.42-1.27-2.63-.14-.3-.27-.6-.4-.91v-.03s-.05,0-.05,0c-.3,0-.61,0-.94,0-.28,0-.91-.01-.91-.01v.41h.05c.3.02.48.05.49.06.03.02.05.03.05.05.02.04.04.22.05.5,0,.47,0,.89,0,1.25,0,.69-.02,1.97-.02,1.97,0,.22-.04.36-.06.37-.02.03-.12.06-.29.07-.09,0-.27.01-.27.01v.41s.46-.02.68-.02c.11,0,.23,0,.35,0,.24,0,.79.05.79.05v-.41h-.05c-.31-.02-.49-.07-.5-.09-.03-.02-.07-.15-.07-.35l-.03-3.01,1.15,2.36c.3.63.55,1.15.72,1.57v.03h.32v-.03c.15-.31.33-.71.57-1.21.53-1.1.97-2.01,1.32-2.72q.01,3.04,0,3.23c0,.16-.05.26-.07.28-.01.02-.12.05-.28.04-.08,0-.13,0-.21,0h-.05s0,.41,0,.41h.05c.53,0,.95.02,1.26.03.3.02.65.04,1.04.08h.06s0-.23,0-.36v-.05s-.53-.09-.53-.09Z"/>
                <path class="cls-7" d="M69.08,45.38h-.03c-.89.04-1.68.06-2.4.06-.72,0-1.45-.02-2.21-.05h-.02s-.06.04-.06.04l-.02.02v.03c.03.28.04.61.04.98v.25h.41v-.05c.03-.39.06-.61.06-.62,0-.02.02-.03.02-.03,0,0,.08-.02.21-.03.24-.02.48-.03.82-.03.08,0,.14,0,.18,0,0,0,0,4.21,0,4.3-.01.07-.03.11-.05.13-.02.02-.06.04-.12.05-.15.03-.29.06-.42.07h-.05v.41s.81-.09,1.33-.12c.4-.03,1.18-.04,1.18-.04v-.41s-.05,0-.05,0c-.34,0-.54-.03-.54-.03-.02,0-.05-.09-.06-.25-.01-.15,0-3.96,0-3.96,0-.08,0-.14,0-.16,0,0,.02,0,.04,0,.57,0,.98.02,1.16.05.06,0,.08.03.08.03,0,0,.04.24.06.64v.05h.4s.05-.88.1-1.21v-.02s-.05-.07-.05-.07l-.02-.02Z"/>
                <path class="cls-7" d="M92.25,46.48c-.21-.37-.52-.65-.92-.86-.4-.21-.91-.31-1.53-.31s-1.17.11-1.59.32c-.41.21-.74.52-.97.92-.23.4-.35.88-.35,1.45,0,.23-.02.45.02.65.08.6.3,1.1.69,1.5.48.5,1.18.77,2.08.83.11,0,.22.01.32.01h0c.46,0,.86-.08,1.21-.24.43-.19.76-.49,1-.89.24-.4.35-.89.35-1.45,0-.21,0-.6,0-.6,0-.52-.11-.97-.32-1.34ZM90.94,50.07c-.25.29-.57.43-.98.43-.04,0-.09,0-.13,0-.38-.03-.69-.13-.92-.29-.23-.17-.43-.43-.58-.79-.15-.35-.22-1.05-.22-1.56,0-.71.14-1.23.42-1.56.28-.33.66-.5,1.17-.5.55,0,.94.16,1.19.48.32.4.48.97.48,1.73v.5c0,.72-.15,1.24-.43,1.56Z"/>
                <path class="cls-7" d="M103.5,47.77h0c0-.49-.1-.91-.29-1.26-.21-.37-.51-.67-.9-.88-.4-.22-.9-.33-1.52-.35-.05,0-.08,0-.13,0-.58,0-1.06.09-1.45.28-.42.2-.75.5-1,.9-.24.39-.37.93-.39,1.5,0,0,0,1.27,0,1.3,0,.6.22,1.53.67,2.05.43.5,1.05.7,1.92.83.23.03.6.04.81.04.32,0,.61-.05.87-.14.43-.15.78-.43,1.02-.8.25-.38.38-1.06.39-1.63,0,0,0-1.8,0-1.83ZM100.62,45.82h.04c.54.02.91.18,1.15.49.29.37.43,1.01.43,1.69l.02,1.67c-.02.71-.18,1.33-.44,1.61-.2.22-.51.35-1.07.35h-.1c-.37,0-.61-.12-.84-.31-.22-.18-.42-.43-.56-.8-.13-.33-.18-.82-.18-1.27,0-.04.02-1.37.02-1.46,0-.7.17-1.2.44-1.52.27-.3.62-.46,1.09-.46ZM102.29,49.68h0,0Z"/>
                <path class="cls-7" d="M97.57,45.38h-.03c-.88.04-1.68.06-2.4.06s-1.45-.02-2.21-.05h-.02s-.05.04-.05.04l-.03.02v.03c.03.28.04.61.04.98v.25s.36,0,.36,0h.05v-.05c.03-.39.06-.61.06-.62,0-.02.02-.03.02-.03,0,0,.08-.02.21-.03.24-.02.53-.03.86-.03.08,0,.14,0,.18,0,0,0,.02,0,.02,0,0,.12,0,4.69-.02,4.78-.01.07-.03.11-.05.12-.01.01-.05.03-.12.03-.06,0-.11,0-.17,0-.09,0-.17,0-.25-.01h-.06s0,.05,0,.05v.35h.05c.32.02.75.05,1.27.11.4.04.77.09,1.12.15h.06s0-.05,0-.05v-.35h-.04c-.34-.07-.55-.13-.54-.14-.02-.01-.06-.11-.07-.26-.01-.16-.03-4.63-.03-4.63,0-.08,0-.14,0-.16,0,0,.02,0,.04,0,.57,0,.95.02,1.14.05.05,0,.08.03.08.03,0,0,.04.24.06.63v.05h.4v-.05c.02-.44.05-.83.1-1.16v-.02s-.05-.07-.05-.07l-.02-.02Z"/>
                <path class="cls-7" d="M64.21,50.49l-1.93-5.14h-.6s-2,5.39-2,5.39c-.07.16-.14.26-.16.27-.03.02-.44.1-.44.1v.44s.58-.12.91-.15c.35-.03.87-.08.87-.08v-.43s-.51.05-.53.04c-.03-.02-.03-.02-.03-.06h0s.01-.08.02-.12l.32-.96c.25-.03.56-.06.86-.09.35-.03.72-.05,1.01-.07l.33.93s-.02.12-.1.11c-.02.01-.47.07-.47.07v.43s.94-.12,1.36-.15c.35-.02,1.05-.06,1.05-.06v-.43s-.04,0-.04,0c-.32.02-.37-.02-.41-.04ZM61.52,49.19c-.23.02-.49.03-.7.04l.81-2.4.71,2.27c-.25.03-.56.07-.82.09Z"/>
                <path class="cls-7" d="M78.41,45.41s-.03,0-.05,0c-.26,0-.55-.01-.86-.03h-.05s0,.4,0,.4h.05c.29.02.47.06.51.08.03.02.04.03.05.05.02.04.04.23.04.52,0,.53,0,.8,0,1.33,0,.75-.03,1.24-.1,1.45-.07.21-.2.37-.39.5-.19.12-.48.18-.86.19h0c-.28,0-.53-.06-.76-.18-.16-.08-.28-.2-.36-.37-.08-.16-.13-.43-.13-.81,0-.46,0-.91.01-1.36.01-.64.02-1.03.04-1.16,0-.07.03-.12.04-.15.02-.02.03-.04.05-.04.08-.03.23-.06.45-.06h.05v-.41h-.05c-.43.02-.77.04-1,.04-.16,0-.33,0-.52,0-.24,0-.5,0-.78,0h-.05v.4h.05c.27.02.43.04.45.05.03.01.05.03.07.06.02.04.04.15.05.31.01.53,0,1.96,0,2.61,0,.43.07.76.21.99.14.23.38.41.71.56.32.14.72.21,1.2.21.01,0,.02,0,.03,0,.47,0,.87-.08,1.19-.23.32-.15.55-.35.7-.6.14-.24.22-.53.25-.87.01-.14.02-.43.02-.86,0-.68.02-1.29.04-1.83,0-.22.05-.35.09-.37.03-.03.17-.06.38-.06h.08s0-.41,0-.41h-.05c-.31.01-.57.02-.78.02Z"/>
                <path class="cls-7" d="M72.68,47.59c-.15-.06-.43-.11-.83-.15-.44-.05-.73-.11-.85-.15-.12-.05-.22-.12-.29-.22-.07-.1-.1-.22-.1-.37,0-.24.08-.43.26-.59.17-.16.41-.25.74-.26.02,0,.05,0,.07,0,.21,0,.39.04.55.11.18.08.29.16.32.22.01,0,.03.15.04.39h.43c0-.19.02-.35.03-.44.01-.12.04-.26.08-.41v-.02s0-.02,0-.02c-.01-.03-.02-.05-.04-.09v-.02s-.03,0-.03,0c-.22-.09-.44-.15-.65-.19-.17-.03-.36-.04-.56-.04-.06,0-.12,0-.18,0-.71.03-1.23.21-1.56.55-.33.34-.49.75-.49,1.21,0,.28.06.52.18.71.12.2.29.34.49.43.21.09.6.16,1.17.22.38.04.63.13.75.24.12.12.19.29.19.52,0,.26-.1.47-.29.65-.19.18-.45.27-.78.28-.02,0-.05,0-.07,0-.17,0-.33-.02-.49-.07-.18-.05-.33-.12-.44-.21-.11-.09-.18-.17-.19-.21-.01-.04-.03-.25-.03-.61v-.05s-.05,0-.05,0c-.13,0-.19,0-.32.01h-.05s0,.05,0,.05c0,.32-.01.58-.03.77-.01.11-.09.33-.09.44,0,.01,0,.03.01.05.09.13.54.22.8.28.2.04.42.06.65.06.06,0,.12,0,.18,0,.69-.03,1.23-.22,1.64-.57.4-.36.6-.8.6-1.33,0-.3-.06-.55-.19-.75-.13-.2-.32-.34-.56-.43Z"/>
              </g>
            </g>
          </g>
        </g>
        <g>
          <g>
            <path class="cls-7" d="M115.7,55.19s1.71,2.48.15,5.32c0,0,2.19,3.92-5.13,8.05,0,0,.05-8.58,4.57-8.25,0,0,1.44-2.57-.1-4.79,0,0-.09-.2.17-.37.16-.11.33.03.33.03"/>
            <path class="cls-7" d="M142.17,64.93c-.52.18-1.05.35-1.57.51-.36.11-.73.21-1.09.31h0c-.68.19-1.37.37-2.05.53-.05,0-.11.02-.16.03h0s-.01,0-.02,0c-.16,0-.29-.13-.29-.29,0-.12.08-.23.19-.27.03,0,.33-.09.45-.12,1.62-.51,3.41-1.18,5.12-1.94,1.17-.55,2.18-1.15,2.87-1.76,1.03-.91,1.74-2.16,1.82-4.32-1.96,1.48-4.02,2.66-6.36,3.82-.49.24-.99.48-1.5.7-.35.16-.69.31-1.05.45h0c-.65.28-1.31.55-1.96.79-.05.01-.11.03-.16.05,0,0,0,0,0,0,0,0-.01,0-.02,0-.16.02-.3-.09-.32-.25-.02-.12.05-.24.15-.29.03-.01.32-.13.43-.18,1.65-.77,3.47-1.74,5.17-2.8.44-.28.87-.57,1.28-.86,1.19-.87,2.18-1.75,2.8-2.57,1.04-1.39,1.51-3.13.99-4.83-2.81,3.24-6.41,6.34-10.37,8.54-.69.37-1.29.66-1.75.85,0,0,0,0,0,0,0,0-.01,0-.02.01-.15.04-.31-.06-.35-.21-.03-.12.02-.24.12-.31.03-.02.3-.16.4-.23,2.35-1.45,5.04-3.41,7.09-5.35,1.19-1.14,2.17-2.28,2.73-3.28.95-1.71,1.34-4.37.29-5.88-3.6,5.5-8.86,10.91-14.89,13.96-1.91.86-3.46,3.08-2.11,5.15.7,1.08,1.51,2.02.27,2.69-1.1.59-2.65,1.16-3.15.85-.09-.48-.57-2.07-.09-3.78.22-.77.76-2.54,1.54-3.77.41-.64,1.22-2.82.12-4.68-.45-.77-1.49-1.67-3.13-2.16-4.24-1.27-6.04,1.82-6.04,1.82,0,0-.81-.23-1.15.43-1.14.01-2.21,1.21-1.46,3.09,0,0,2.94-1.64,3.05,2.45,0,0,1.91,1.15.93,3.03-.69,1.33-1.9,1.24-3.38,1.09,0,0,.59,1.97-2.69,5.61-2.55,2.83-2.32,8.71-1.04,11.4,3.03,6.39-1.22,7.45.87,9.62,1.35,1.39,1.9,2.15,1.87,2.61-.07.97-.51,1.12-1.38,1.63-.42.25.59,1.12.18,1.36-.16.09-.95-.64-1.08-.87-.67-1.26.2-1.51-.02-1.95-.07-.19-.61-.01-.64-.2,1.15-1.47.51-2.64-.4-2.99-.6-.28-1.15-.04-1.15-.04-.32-.58-1.95-.68-2.35.52,0,0,1.15-.32,1.51.48-.7.63.54,1.24.64,2.07-1.57-.49-2.33-.36-2.53.61-1.44-.19-1.42,1.22-1.42,1.22.71-.37,1.39-.31,1.48.2.23,1.04,1.83.37,2.46-.11.13.13.15.3.08.42,0,0-1.98.34-1.87,1.66-.9.62-.7,1.79-.21,2.32,0,0,.1-1.14.74-1.22.81-.14,1.85-.29,2.12-1.28,1.13,1.76-.23.97-.07,2.4-.04.3.38,1-.56,1.61,0,0,1.17.5,2.02-.77,1.01-.62.26-1.07.68-1.63,0,0,.83-.98,1.67-1.3.2-.08-.93,1.51,1.48,1.22-.27-.92.08-1.65.28-2.13.18-.07.09.95,1.51,1.18-.22-1.4.22-2.22.71-2.37.77-.24.96-.65.63-1.45-.15-.36-2.32-4.1-2.41-4.35-.07-.21.16-.42.35-.27.68.53,2.39,4.16,2.59,4.43.76,1.03,1.04,3.54,1.14,4.73-.67.06-1.36.27-1.46.3-9.46,2.98-16.02,7.56-20.28,11.81-2.36,2.34-4.01,4.56-5.14,6.33-4.8,1.17-10.34,1.87-16.23,1.87h-.03c-5.88,0-11.4-.7-16.19-1.86-1.13-1.78-2.78-3.99-5.14-6.34-4.26-4.25-10.82-8.83-20.28-11.81-.1-.03-.79-.24-1.47-.3.09-1.19.38-3.7,1.14-4.73.2-.27,1.91-3.9,2.59-4.43.19-.15.42.06.35.27-.09.26-2.26,3.99-2.41,4.35-.33.81-.14,1.22.63,1.45.49.15.94.97.71,2.37,1.42-.23,1.34-1.24,1.51-1.18.2.48.55,1.21.28,2.13,2.41.28,1.28-1.3,1.48-1.22.84.32,1.67,1.3,1.67,1.3.41.56-.33,1.01.68,1.63.85,1.27,2.02.77,2.02.77-.94-.61-.52-1.3-.56-1.61.16-1.43-1.2-.64-.07-2.4.27.99,1.31,1.14,2.12,1.28.64.08.74,1.22.74,1.22.49-.52.69-1.7-.21-2.32.11-1.32-1.87-1.66-1.87-1.66-.08-.12-.05-.28.08-.42.64.48,2.23,1.15,2.46.11.09-.51.77-.57,1.48-.2,0,0,.02-1.42-1.42-1.22-.21-.96-.96-1.09-2.53-.61.1-.83,1.33-1.44.64-2.07.36-.79,1.51-.48,1.51-.48-.4-1.19-2.03-1.1-2.35-.52,0,0-.56-.24-1.15.04-.91.35-1.55,1.51-.4,2.99-.02.19-.57.01-.64.2-.22.45.65.69-.02,1.95-.13.23-.92.96-1.08.87-.41-.24.6-1.12.18-1.36-.87-.5-1.31-.66-1.38-1.63-.03-.46.52-1.22,1.87-2.61,2.09-2.17-2.15-3.23.87-9.62,1.27-2.69,1.51-8.57-1.04-11.4-3.28-3.64-2.69-5.61-2.69-5.61-1.48.14-2.69.24-3.39-1.09-.98-1.89.93-3.03.93-3.03.11-4.09,3.05-2.45,3.05-2.45.75-1.88-.31-3.08-1.46-3.09-.34-.66-1.15-.43-1.15-.43,0,0-1.81-3.09-6.04-1.82-1.65.49-2.68,1.39-3.13,2.16-1.1,1.85-.29,4.04.12,4.68.79,1.23,1.33,3,1.54,3.77.48,1.72,0,3.31-.09,3.78-.5.31-2.05-.25-3.15-.85-1.24-.67-.43-1.61.27-2.69,1.35-2.07-.19-4.29-2.11-5.15-6.03-3.05-11.29-8.46-14.89-13.96-1.05,1.51-.66,4.17.29,5.88.56,1.01,1.54,2.14,2.73,3.28,2.05,1.94,4.74,3.9,7.09,5.35.11.06.38.21.4.23.1.07.15.19.12.31-.04.15-.19.25-.35.21,0,0-.01,0-.02-.01,0,0,0,0,0,0-.46-.19-1.06-.47-1.75-.85-3.96-2.2-7.56-5.29-10.37-8.54-.53,1.7-.05,3.44.99,4.83.62.82,1.61,1.71,2.8,2.57.41.29.84.58,1.28.86,1.7,1.06,3.52,2.03,5.17,2.8.11.05.4.17.43.18.1.05.17.17.16.29-.02.16-.16.27-.32.25,0,0-.01,0-.02,0,0,0,0,0,0,0-.05-.01-.11-.03-.16-.05-.66-.25-1.31-.52-1.97-.79h0c-.35-.14-.7-.3-1.05-.45-.5-.22-1-.46-1.5-.7-2.33-1.16-4.4-2.34-6.36-3.82.08,2.16.79,3.41,1.82,4.32.7.61,1.7,1.2,2.87,1.76,1.71.76,3.5,1.43,5.12,1.94.12.04.42.12.45.12.11.04.19.15.19.27,0,.16-.13.29-.29.29,0,0-.01,0-.02,0,0,0,0,0,0,0-.05,0-.11-.02-.16-.03-.68-.16-1.37-.34-2.05-.53h0c-.37-.1-.73-.2-1.09-.31-.53-.16-1.05-.33-1.57-.51-1.45-.5-2.86-1.09-4.21-1.73-.13-.06-.12-.06-.25-.12.2,1.77,1.16,2.92,2.69,3.74,1.51.8,5.38,1.58,6.42,1.78.14.03.35.01.35.25-.02.26-.27.21-.35.21-2.39-.11-5.21-.61-7.38-1.14.48,1.46,1.68,2.46,3.11,2.92.85.28,3.36.28,4.63.3,0,0,.16-.02.19.14.03.15-.14.19-.14.19-1.8.17-3.09.37-5.17.38.66,1.05,1.72,1.61,2.93,1.69.72.05,1.81-.15,2.8-.38.06-.02.13,0,.15.07.02.06,0,.12-.07.15,0,0,0,0,0,0-1.13.52-1.84.63-3.06,1.01.94.81,2.04,1.23,3.22.95.28-.06.4-.1.56-.17.04-.03.1-.03.13.01.03.04.03.09,0,.13-.43.53-1.01,1.07-1.01,1.07.82.46,1.84.58,2.88.13.06-.03.11.04.08.1-.19.36-.37.71-.4,1.15,1.03.6,2.33-.1,2.65-.03.27.06-.1.55.43.8.73.17,1.94-.29,2.14-.2.75.32,1.6,2.12-1.89,8.2-2.3,4-8.1,5.03-8.1,5.03.53,2.07,3.49,2.46,4.06,2.11.3.8,1.55,1.92,4.09.83-.11-1.74.87-2.44,1.27-2.2,1.57.97,3.56,1.82,5.38,1.79,1.27-.02.15,5.11-1.48,5.57.4,1.28,1.92.8,2.26,2.12l-5.83,5.42s-2.77,2.39-.66,4.5c1.69,1.82,2.13,2.32,3.96,3.96,2.77,2.69,4.86-.22,4.86-.22l.79-.88c1.44.57,2.74,1.18,3.94,1.81l-1.09,1.27s-2.11,2.51.29,4.68c4.2,3.9,9.18,6.23,15.54,8.28h0c7.01,2.23,15.12,3.46,23.79,3.47h0s.08,0,.08,0h0c8.67,0,16.78-1.24,23.79-3.47h0c6.37-2.05,11.35-4.38,15.54-8.28,2.4-2.17.29-4.68.29-4.68l-1.08-1.26c1.2-.64,2.51-1.25,3.96-1.82l.79.88s2.09,2.92,4.86.22c1.84-1.65,2.27-2.14,3.96-3.96,2.11-2.11-.66-4.5-.66-4.5l-5.83-5.42c.34-1.32,1.86-.84,2.26-2.12-1.63-.46-2.75-5.59-1.48-5.57,1.82.03,3.81-.82,5.38-1.79.4-.25,1.37.46,1.27,2.2,2.54,1.09,3.79-.03,4.09-.83.57.34,3.53-.04,4.06-2.11,0,0-5.8-1.02-8.1-5.03-3.49-6.08-2.65-7.88-1.89-8.2.2-.09,1.41.37,2.14.2.53-.25.16-.75.44-.8.32-.06,1.62.63,2.65.03-.03-.44-.21-.79-.4-1.15-.03-.06.02-.13.08-.1,1.04.44,2.07.33,2.88-.13,0,0-.58-.53-1.01-1.07-.04-.03-.04-.09,0-.13.03-.04.09-.04.13-.01.16.07.28.1.56.17,1.18.28,2.28-.14,3.22-.95-1.22-.38-1.93-.49-3.06-1.01,0,0,0,0,0,0-.06-.03-.09-.09-.07-.15.02-.06.09-.09.15-.07,1,.23,2.09.43,2.81.38,1.21-.09,2.27-.64,2.93-1.69-2.08,0-3.37-.21-5.17-.38,0,0-.18-.05-.14-.19.04-.16.19-.14.19-.14,1.27-.02,3.78-.02,4.63-.3,1.43-.46,2.63-1.46,3.11-2.92-2.17.53-5,1.03-7.38,1.14-.08,0-.33.05-.35-.21,0-.24.21-.23.35-.25,1.04-.2,4.91-.97,6.42-1.78,1.53-.82,2.5-1.97,2.69-3.74-.13.06-.12.06-.25.12-1.35.64-2.76,1.23-4.21,1.73Z"/>
          </g>
          <g>
            <path class="cls-5" d="M117.61,58.53c-.81-.38-1.08-.63-1.63-.46,0,0-.26-1.07,1.18-.96,0,0-.31.65.25.83.59.19.66-.34.66-.34,0,0,.56,1.41-.45.93M123.48,56.66c.02-.55-.41-.65-.64-.53-.4.19-.74.1-.86-.15-.13-.28-.48-.44-.8-.15-.14.12-.46.25-.76-.06-.22-.24-.67-.15-.77.27-.08.36-.85.44-.94.4-.09-.04-.13-.13-.03-.27,1.21-1.64,3.6-1.32,3.92-1.24.71.17,3.17.81,3.47,3.51.02.15-.06,3.96-3.42,2.77-.32,1.11-1.26,1.44-1.89,1.38.41-1.09-1.43-1.32-1.79-1.75-.36-.43-.14-.9.1-1.02.44-.22.62-.91.18-1.23-.4-.29-.41-.82-.06-.71.28.09.57.37.79.7.19.27.58.88.86.62.21-.19.38-.38.78-.28,2.28.55,2.54-1.64,2.54-1.64,0,0-.71-.06-.69-.61"/>
            <path class="cls-5" d="M121.04,57.19c0,.31-.26.57-.57.57s-.57-.26-.57-.57.25-.57.57-.57.57.26.57.57"/>
            <path class="cls-5" d="M118.58,69.34c.49-.12,1.23-1.6,1.33-2.36.3-2.22,3.14-2,3.14-2,0,0-3.59,3.06-.31,5.63,0,0-.21,1.52-1.29,2.27-3.16-1.31-3.04,1.83-3.79,1.65-1.13-.27-1.07-2.1-1.07-2.1,0,0-.23.6-1.34,1.67-1.21,1.16-1.94,3.29-.97,6.8.56,2.04-.85.12-.88.02-1.79-6.17.45-8.07,1.2-8.93.49-.56,1.3-1.3,2.22-3.56.8-1.97.95,1.11,1.76.91"/>
          </g>
          <g>
            <path class="cls-5" d="M37.61,58.53c-1.01.48-.45-.93-.45-.93,0,0,.07.53.66.34.55-.18.25-.83.25-.83,1.44-.11,1.18.96,1.18.96-.55-.17-.82.08-1.63.46M31.74,56.66c.02.55-.69.61-.69.61,0,0,.26,2.19,2.54,1.64.39-.09.57.09.78.28.28.26.67-.35.86-.62.23-.33.51-.61.79-.7.36-.11.34.41-.06.71-.44.32-.26,1,.18,1.23.24.12.46.59.1,1.02-.36.43-2.21.66-1.79,1.75-.63.06-1.57-.27-1.89-1.38-3.36,1.19-3.43-2.62-3.42-2.77.3-2.7,2.76-3.34,3.47-3.51.33-.08,2.71-.4,3.92,1.24.1.14.06.23-.03.27-.09.04-.86-.04-.94-.4-.1-.43-.55-.51-.77-.27-.3.31-.62.18-.76.06-.32-.29-.67-.13-.8.15-.12.25-.46.34-.86.15-.24-.11-.66-.02-.64.53"/>
            <path class="cls-5" d="M34.19,57.19c0,.31.25.57.57.57s.57-.26.57-.57-.25-.57-.57-.57-.57.26-.57.57"/>
            <path class="cls-5" d="M36.65,69.34c-.49-.12-1.23-1.6-1.33-2.36-.3-2.22-3.14-2-3.14-2,0,0,3.59,3.06.31,5.63,0,0,.21,1.52,1.29,2.27,3.16-1.31,3.04,1.83,3.79,1.65,1.13-.27,1.07-2.1,1.07-2.1,0,0,.23.6,1.34,1.67,1.21,1.16,1.94,3.29.97,6.8-.57,2.04.85.12.88.02,1.79-6.17-.45-8.07-1.2-8.93-.49-.56-1.3-1.3-2.21-3.56-.8-1.97-.95,1.11-1.76.91"/>
          </g>
          <g>
            <path class="cls-2" d="M109.41,114.08c-.2.17-.41.34-.62.51l5.9,6.76c.19-.15.37-.3.55-.46l-5.84-6.81ZM45.82,114.08l-5.84,6.81c.18.15.37.3.55.46l5.9-6.76c-.21-.17-.42-.34-.62-.51ZM96.72,120.31c-5.51,1.6-12.07,2.55-19.11,2.54-7.04,0-13.6-.95-19.11-2.54-4.38-1.26-8.08-2.96-10.79-4.8l-5.93,6.79c3.87,2.82,8.7,5.01,14.22,6.62,6.42,1.86,13.77,2.9,21.61,2.9,7.84,0,15.19-1.04,21.61-2.9,5.52-1.61,10.36-3.8,14.22-6.62l-5.93-6.79c-2.71,1.84-6.41,3.53-10.79,4.8Z"/>
            <path class="cls-2" d="M121.97,103.64c-.16.17-.32.33-.47.5l6.55,6.13c.16-.17.33-.34.5-.52l-6.57-6.11ZM117.4,108.13l5.99,6.68c1.22-1.1,2.41-2.23,3.57-3.41l-6.55-6.13c-.98.99-1.98,1.94-3,2.86Z"/>
            <path class="cls-2" d="M115.73,109.63l-1.5-1.67h0s-.96-.94.41-2.55c.05-.12.05-.25-.06-.36-.14-.14-.28-.16-.39-.15-4.2,1.85-7.62,4.01-10.36,6.19-.15.17-.32.46-.1.81.23.36.62.28.88.18,1.42-.86,2.72-1.52,3.72-1.88,2.09-.75,2.55-.05,2.55-.05l3.83,4.47c1.17-.64,2.46-1.26,3.85-1.84l-2.82-3.15Z"/>
            <path class="cls-2" d="M26.68,109.75c.16.18.33.35.5.52l6.55-6.13c-.16-.17-.32-.33-.47-.5l-6.57,6.11ZM34.82,105.27l-6.55,6.13c1.16,1.17,2.34,2.31,3.57,3.41l5.99-6.68c-1.03-.92-2.02-1.88-3-2.86Z"/>
            <path class="cls-2" d="M39.49,109.63l1.5-1.67h0s.96-.94-.41-2.55c-.05-.12-.05-.25.06-.36.14-.14.28-.16.39-.15,4.2,1.85,7.62,4.01,10.36,6.19.15.17.32.46.1.81-.22.36-.62.28-.88.18-1.42-.86-2.72-1.52-3.72-1.88-2.09-.75-2.55-.05-2.55-.05l-3.83,4.47c-1.18-.64-2.46-1.26-3.85-1.84l2.83-3.15Z"/>
          </g>
          <g>
            <path class="cls-7" d="M52.58,126.08c.29.07.47.09.55.07.05-.02.16-.11.32-.28.3-.34.7-.81,1.2-1.41l2.79-3.42.67.2.59,5.46c.08.69.14,1.08.19,1.15.04.08.22.18.54.29l-.12.41c-.49-.17-.95-.32-1.39-.45-.52-.16-1.02-.3-1.5-.42l.12-.41c.36.09.58.14.64.13.06,0,.11-.05.12-.11.02-.06.01-.27-.02-.63l-.07-.84c-.37-.12-.79-.25-1.25-.39-.4-.12-.77-.23-1.1-.32l-.35.45c-.1.12-.22.31-.39.56-.04.06-.06.11-.08.16-.02.07,0,.12.04.17.05.05.25.14.61.28l-.12.41c-.29-.11-.65-.23-1.1-.37-.42-.13-.76-.22-1.01-.27l.12-.41ZM56.88,122.6l-1.66,2.03c.27.1.58.2.91.3.35.11.69.2,1.01.28l-.27-2.61Z"/>
            <path class="cls-7" d="M59.91,128.73l.06-.39.28.03c.23.02.38,0,.44-.05.07-.06.14-.27.21-.64.15-.76.29-1.59.44-2.48.08-.47.16-1.01.26-1.62.05-.37.07-.59.05-.68-.01-.04-.04-.08-.09-.11-.05-.03-.26-.1-.65-.19l.06-.39c.38.07.74.14,1.1.19.42.07.83.13,1.22.18.1.42.22.84.33,1.26.08.3.46,1.56,1.12,3.78,1.41-1.94,2.41-3.38,2.99-4.31.37.08.72.14,1.06.2.4.06.78.12,1.15.16l-.06.39c-.41-.04-.65-.05-.71,0-.06.04-.12.18-.17.41-.09.39-.22,1.12-.4,2.22-.09.55-.18,1.13-.27,1.75-.09.62-.12.96-.11,1.05.02.05.04.09.08.12.04.03.25.1.64.2l-.06.39c-.5-.1-.95-.19-1.35-.25-.4-.06-.94-.14-1.63-.23l.06-.39.28.04c.22.02.36.02.42-.03.06-.04.12-.17.17-.39.05-.22.14-.73.28-1.54l.46-2.8c-.64.88-1.46,2.03-2.46,3.46-.41.59-.73,1.07-.97,1.45l-.31-.05c-.15-.57-.35-1.3-.61-2.18l-1.08-3.57-.1.63c-.29,1.74-.48,2.95-.57,3.61-.03.27-.03.44.03.51.05.07.28.15.68.23l-.06.39c-.31-.07-.63-.14-.95-.19-.47-.08-.9-.14-1.27-.18"/>
            <path class="cls-7" d="M69.38,129.76c.3,0,.48-.02.55-.06.05-.03.13-.14.24-.34.21-.4.49-.95.83-1.66l1.9-3.98.69.04,1.85,5.17c.24.65.39,1.01.45,1.08.06.06.26.12.59.16l-.02.43c-.51-.05-1-.09-1.45-.11-.55-.03-1.07-.05-1.56-.06l.02-.43c.38,0,.59,0,.65-.02.06-.02.09-.07.09-.14,0-.06-.05-.26-.17-.61l-.27-.8c-.39-.03-.83-.06-1.31-.09-.42-.02-.8-.04-1.15-.05l-.24.52c-.07.14-.15.35-.24.63-.02.06-.03.12-.04.17,0,.07.02.12.08.16.06.03.28.07.66.13l-.02.43c-.31-.04-.69-.07-1.15-.1-.44-.02-.79-.03-1.04-.03l.02-.43ZM72.74,125.37l-1.13,2.36c.29.03.61.06.96.08.37.02.72.03,1.05.03l-.88-2.47Z"/>
            <path class="cls-7" d="M80.57,128.15v-.38c.56,0,1.08,0,1.53-.02.42-.01.87-.03,1.35-.06v.3c-.13.05-.26.1-.39.17-.03.32-.04.59-.03.81,0,.16.03.48.08.95-.62.24-1.14.41-1.56.5-.42.09-.85.14-1.31.15-1.22.03-2.18-.26-2.89-.87-.71-.61-1.07-1.42-1.1-2.42-.03-1.03.3-1.86.99-2.5.69-.64,1.69-.97,3.01-1.01.46-.01.91.01,1.34.07.43.06.84.16,1.23.3l.05.07c-.08.4-.14.9-.16,1.49h-.4c-.01-.29-.04-.55-.08-.78-.21-.23-.47-.39-.79-.5-.32-.11-.7-.16-1.13-.14-.81.02-1.45.28-1.92.79-.47.5-.69,1.18-.67,2.03.02.91.3,1.63.82,2.17.52.54,1.15.8,1.89.78.4-.01.81-.12,1.25-.32.02-.24.03-.47.02-.69-.01-.48-.05-.75-.11-.8-.06-.05-.4-.08-1.02-.1"/>
            <path class="cls-7" d="M84.11,129.91c.29-.05.47-.1.54-.16.04-.04.1-.16.18-.38.14-.43.32-1.02.53-1.78l1.17-4.25.69-.08,2.73,4.77c.35.6.56.93.64.98.07.05.27.07.61.05l.05.43c-.51.04-1,.09-1.45.14-.54.06-1.06.14-1.54.22l-.05-.42c.37-.06.58-.11.64-.14.06-.03.08-.08.07-.15,0-.06-.1-.25-.27-.57l-.4-.74c-.39.04-.82.09-1.31.14-.42.05-.8.1-1.14.15l-.14.55c-.04.15-.08.37-.13.66-.01.07-.01.13,0,.18,0,.07.05.12.11.14.06.02.29.02.67,0l.05.43c-.31.02-.69.05-1.15.11-.44.05-.78.11-1.03.16l-.05-.43ZM86.64,125.01l-.7,2.52c.29-.02.61-.05.96-.09.36-.04.71-.1,1.04-.15l-1.3-2.28Z"/>
            <path class="cls-7" d="M93.93,128.93l-.09-.38c.39-.1.61-.18.66-.25.04-.05.04-.17,0-.35-.11-.6-.26-1.3-.45-2.07-.14-.58-.3-1.19-.48-1.85-.18-.66-.3-1.03-.36-1.12-.03-.04-.06-.07-.1-.08-.06-.02-.28,0-.66.07l-.09-.39c.54-.11,1-.22,1.39-.31.56-.14,1.16-.29,1.77-.45.41-.11.75-.19,1.03-.26.2-.05.39-.09.58-.12l.07.09c.03.4.1.85.21,1.37l-.39.1-.16-.48c-.05-.15-.09-.24-.13-.27-.04-.03-.16-.03-.37-.03-.2.01-.49.06-.85.15-.27.06-.55.15-.84.25.09.52.16.89.22,1.11l.25.98.05.21c.19-.03.41-.09.67-.15.47-.11.75-.19.84-.24.05-.03.08-.06.09-.1.02-.08,0-.27-.06-.6l.4-.1c.06.27.12.54.18.8.06.25.16.65.31,1.19l-.4.1c-.12-.39-.21-.62-.26-.67-.03-.03-.07-.05-.13-.05-.16,0-.46.05-.91.16l-.6.16.45,1.75c.12.42.2.66.24.72.03.04.07.06.12.07.07.02.33-.02.79-.11l.09.38c-.5.1-.96.2-1.39.31-.38.09-.94.24-1.69.45"/>
            <path class="cls-7" d="M99.48,126.01c.2-.06.39-.05.57.05.18.1.31.25.37.44.06.2.04.39-.05.57-.1.18-.25.31-.44.37-.2.06-.39.04-.58-.05-.19-.1-.31-.25-.37-.44-.06-.2-.04-.39.05-.57.1-.19.25-.31.45-.37"/>
            <path class="cls-7" d="M106.72,123.71l.15.06c-.02.18-.02.35-.02.53-.27.31-.54.57-.83.77-.28.2-.63.39-1.04.55-.77.31-1.47.44-2.11.38-.64-.05-1.2-.26-1.68-.64-.48-.37-.85-.87-1.1-1.5-.36-.91-.34-1.78.07-2.61.41-.84,1.19-1.49,2.32-1.95.38-.15.77-.27,1.16-.35.4-.08.81-.13,1.23-.14l.06.05c.01.18.03.35.07.5.06.27.16.6.29.98l-.37.15c-.2-.45-.32-.7-.36-.73-.03-.04-.15-.08-.33-.14-.19-.05-.42-.06-.69-.03-.27.03-.56.1-.85.22-.7.28-1.17.73-1.41,1.32-.24.6-.2,1.28.1,2.05.34.83.86,1.41,1.56,1.72.65.29,1.38.28,2.18-.05.31-.13.59-.27.83-.45.25-.17.5-.4.76-.7"/>
            <path class="cls-7" d="M107.74,122.65c.19-.1.38-.12.57-.06.2.06.35.18.44.37.1.18.12.37.05.57-.06.2-.19.35-.37.44-.18.1-.38.12-.58.06-.2-.06-.35-.18-.45-.37-.1-.18-.11-.37-.05-.57.06-.2.19-.35.37-.45"/>
            <path class="cls-7" d="M54.15,120.01l-.14.37c.17.07.09.21.01.27-.99.74-2.3,1.66-2.3,1.66-.04-.71-.29-2.14-.46-3.02-.02-.08.03-.22.23-.14l.16-.36c-1.07-.43-2.13-1.01-2.13-1.01l-.15.34s.38.19.51.67c.05.17.31,1.61.43,2.38s.18,1.25.17,1.44c0,.12-.09.37-.26.76l-.14.31c-.25.52-.38.8-.4.82-.06.09-.14.14-.22.14-.14,0-.36-.06-.65-.19l-.16.36c.58.23,1.11.44,1.59.65.44.19.86.38,1.28.59l.16-.36c-.39-.18-.6-.3-.65-.37-.05-.06-.04-.17,0-.33.09-.29.28-.77.57-1.45.14-.33.26-.55.36-.64.15-.14.77-.58,1.87-1.32.3-.2.55-.37.76-.5.31-.21.61-.19.78-.14.05.02.11.04.17.06l.16-.36c-.16-.06-.86-.32-1.54-.64Z"/>
          </g>
        </g>
      </g>
    </g>
  </g>
</svg>