<?xml version="1.0" encoding="UTF-8"?>
<svg id="_レイヤー_2" data-name="レイヤー 2" xmlns="http://www.w3.org/2000/svg" xmlns:xlink="http://www.w3.org/1999/xlink" viewBox="0 0 426.45 443.1">
  <defs>
    <style>
      .cls-1 {
        fill: none;
      }

      .cls-2 {
        fill: #221815;
      }

      .cls-3 {
        fill: #ffe100;
      }

      .cls-4 {
        fill: #005ca2;
      }

      .cls-5 {
        fill: #fff;
      }

      .cls-6 {
        fill: #1d2088;
      }

      .cls-7 {
        clip-path: url(#clippath);
      }
    </style>
    <clipPath id="clippath">
      <path class="cls-1" d="M390.94,218.12c.07-12.49-5.34-22.53-15.6-29.03-.69-.44-1.39-.87-2.1-1.27-.77-.43-1.55-.84-2.34-1.22-11.64-5.67-23.69-4.48-34.15-2.53-5.83,1.33-9.45,2.5-11.74,3.46-1.46-1.46-3.03-2.84-4.74-4.07-.97-.67-6.37-4.22-14.15-5.76-.48-2.23-.98-3.97-1.26-4.88-.01-.05-.23-.79-.25-.84-1.29-3.88-4.26-11.63-9.68-19.89-6.8-10.34-15.02-17.72-24.49-21.96-15.15-6.65-29.01-3.93-42.64,8.55-6.19,6.4-11.53,14.18-15.87,23.1-.54,1.12-4.52,10.56-4.96,11.86-1.56,4.27-6.56,19.27-5.14,33.03.89,10.47,5.87,20.97,13,27.42.12.11.54.44.67.53,7.94,6.03,16.67,9.07,25.99,9.07,1.13,0,2.27-.05,3.42-.13,12.05-.93,21.23-4.61,21.51-4.72,1.18-.45,2.22-.93,3.33-1.4,3.32,4.59,7.6,8.48,12.65,11.05,6.29,3.17,11.23,4.29,15.81,4.29.67,0,1.31-.14,1.97-.18.25.54.51,1.09.92,1.73,9.83,18.52,24.19,24.87,33.25,24.47.58.03,1.17.05,1.76.05,15.78,0,33.72-11.18,44.46-28.18l.53-.88c3.53-5.77,8.87-14.5,9.85-31.66Z"/>
    </clipPath>
  </defs>
  <g id="_レイヤー_1-2" data-name="レイヤー 1">
    <g>
      <path class="cls-4" d="M426.45,225.58c0,117.76-84.41,196.43-213.22,196.43S0,343.35,0,225.58,95.46,12.36,213.22,12.36s213.22,95.46,213.22,213.23Z"/>
      <g>
        <g>
          <g>
            <path class="cls-2" d="M419.51,294.14c-1.3-.72-2.84-1.24-3.8-1.44-6.81-1.4-13.64-2.18-20.31-2.33-3.7-.09-7.16,0-10.5.16-1.79-20.11-8.09-39.31-19.27-58.27,1.62-9.72,2.12-22.36,2.53-32.66l.21-5.17c.84-18.75-5.88-43.26-14.38-52.46-2.12-2.29-5.31-4.04-8.12-4.45-21.54-3.21-49.87,5.35-81.73,24.67l-4-.59c-26.18-3.9-58.77-8.75-103.06,1.53-1.4.32-2.95.78-4.54,1.26-2.37.71-6.76,1.98-7.92,1.68-8.49-4.64-30.28-15.71-49.14-18.49-17.53-2.61-29.09.83-34.52,10.31-15.37,28.86-7.65,69.07-4.44,79.47-16,31.01-15.7,63.87-15.6,67.47,0,.84.03,1.72.04,2.58-.84.06-1.6.09-2.48.16-8.93.71-17.8,1.58-28.07,4.44-3.34.92-6.41,3.14-5.81,5.59.47,1.92,2.84,2.34,4.83,2.34,1.54,0,2.85-.25,2.89-.26,10.63-2.17,16.02-2.75,23.47-3.55l3.14-.34c.81-.09,1.61-.13,2.42-.2.81,9.68,2.85,19.99,6.48,30.18-4.44,1.67-9.56,3.89-15.71,7.07-.04.02-3.98,2.08-4.74,4.62-.23.78-.15,1.56.23,2.24.62,1.11,1.92,1.46,3.31,1.46,2.3,0,4.82-.95,4.86-.96,1.84-.81,3.57-1.58,5.21-2.31,3.72-1.66,6.96-3.05,10-4.23,3.93,8.9,9.09,17.53,15.73,25.34-6.84,3.96-15.09,9.33-24.43,16.6-1.94,1.52-3.19,3.45-3.41,5.32-.12,1.04.11,1.99.65,2.67.41.51,1.18.73,2.1.73,1.62,0,3.71-.68,5.14-1.7,10.26-7.27,19.16-12.89,26.15-17.04,7.51,7.31,16.5,13.67,27.22,18.49,35.27,15.84,67.77,19.4,108.95,20l4.04-.06,4.36.06c47.38-.7,84.81-7.46,111.26-20.11,15.35-7.34,27.56-17.24,36.7-29.54,7.64,2.61,16.9,6.62,25.83,12.66,1.14.79,3.45,2.17,5.5,2.17.92,0,1.79-.27,2.47-1.01.29-.3.61-.85.53-1.73-.17-1.86-2.22-4.46-3.56-5.43-9.12-6.66-18.29-10.95-26.01-13.74,5.25-8.67,9.17-18.37,11.72-29.12,5.64.9,12.22,2.35,19.44,4.77.04,0,2.17.71,4.26.71,1.57,0,3.11-.39,3.7-1.78.27-.63.26-1.33-.03-2.02-1.04-2.48-5.39-4.32-5.43-4.33-7.12-2.82-14.12-4.47-20.31-5.49,1.35-8.14,2-16.8,1.93-26,.02-1.57-.07-3.12-.1-4.67,2.93-.16,5.97-.26,9.16-.22,4.96.05,10.48.42,15.35.74,1.52.1,2.99.19,4.4.28,3.19.18,7.1-.41,7.57-2.73.17-.81-.11-2.03-2.36-3.29Z"/>
            <path class="cls-5" d="M354.53,232.27c1.76-9.13,2.29-22.42,2.71-33.11l.22-5.23c.76-16.97-5.67-38.25-11.49-44.55-.51-.56-1.4-.99-1.72-1.06-18.78-2.76-45.27,5.51-74.57,23.31-2.08,1.26-3.22,1.95-5.23,1.65l-5.91-.87c-25.25-3.76-56.69-8.45-98.98,1.36-1.2.27-2.52.67-3.88,1.08-5.38,1.6-11.46,3.43-16.3.79-7.98-4.35-28.38-14.75-45.5-17.28-12.59-1.85-20.45-.25-23.34,4.78-10.47,19.65-8.42,46.45-5.73,61.45.72-.85,1.42-1.62,2.07-2.27,2.63-2.63,5.32-3.6,7.16-2.33,1.91,1.32,1.15,4.66-.08,7.33-1.22,2.65-3.69,7.76-5.63,11.18,0,0,0,.01,0,.02-16.85,29.6-16.54,62.53-16.45,66.2,0,.74.03,1.51.04,2.26,9.31.02,14.99,1,17.89,1.74l.21.05c.06.01,7.62,1.41,7.18,5.04-.39,3.23-4.98,2.99-7.2,2.87l-.82-.06c-2.44-.37-8.96-1.24-16.86-1.4.79,8.79,2.71,18.09,6.01,27.25,4.52-1.04,7.71-1.28,9.83-1.4l.29-.02c2.79-.15,9.39-.25,9.73,3.07.3,2.87-4.87,4.24-7.11,4.7-1.04.21-2.16.36-3.41.53-1.75.24-3.74.52-6.09,1.02,3.77,8.24,8.76,16.15,15.14,23.24,6.63-3.21,10.45-4.4,10.53-4.42.06-.03,6.57-1.68,7.84,1.28,1.09,2.56-1.67,3.92-4.33,5.24-.85.42-1.74.86-2.55,1.35,0,0-.09.05-.26.13-1.03.51-2.75,1.4-5.02,2.62,6.17,5.56,13.32,10.43,21.71,14.2,33.54,15.07,64.84,18.45,104.46,19.04l4.04-.06,4.36.06c44.98-.67,81.88-7.25,106.54-19.04,12.36-5.91,22.38-13.54,30.17-22.9-3.71-.86-5.98-1.18-6.04-1.19-1.42-.14-5.85-1.17-7.34-3.19-.44-.61-.61-1.28-.47-1.94.75-3.62,7.32-2.9,10.09-2.42.35.03,3.75.38,9.03,1.65,5.2-7.94,9.03-16.98,11.53-27.11-2.33-.14-4.2-.17-5.48-.17-2.44.01-5.28-.05-5.28-.05-.73-.07-6.59-.76-6.82-3.68-.03-.39.05-1,.6-1.64,1.31-1.53,4.62-2.39,6.03-2.5l.31-.03c.84-.08,3.07-.3,5.31-.32h.61c1.62,0,3.81.05,6.42.22,1.29-7.68,1.93-15.9,1.86-24.75.01-1.24-.06-2.46-.09-3.69-6.85.85-12.47,1.97-16.3,2.74-1.96.39-3.38.68-4.24.78-1.38.2-2.56.3-3.55.3-2.31,0-3.58-.56-4-1.72-.29-.84-.23-1.74.18-2.59.74-1.52,2.53-2.81,5.19-3.72,2.09-.71,10.2-3.2,22.24-4.68-1.72-19.09-7.86-37.28-18.78-55.31-.7-1.16-.95-2.54-.69-3.87Z"/>
          </g>
          <g>
            <path class="cls-2" d="M115.31,313.95c-3.5,7.1-3.52,18.45,1.21,24.48,2.92,3.45,7.8,5.41,14.09,4.33,5.43-.94,8.52-5.9,9.55-9.85,2.23-8.84-.14-19.68-5.23-23.79-5.36-3.91-15.39-3.82-19.61,4.83Z"/>
            <path class="cls-2" d="M285.41,314.99c-3.5,7.1-3.52,18.45,1.21,24.48,2.92,3.45,7.8,5.41,14.09,4.33,5.43-.94,8.52-5.9,9.55-9.85,2.23-8.84-.15-19.68-5.23-23.79-5.36-3.91-15.39-3.82-19.61,4.83Z"/>
            <g>
              <path class="cls-2" d="M230.45,345.7c-1.17-4.16-4.32-7.43-8.44-8.76-7.86-2.55-15.82-1.48-20.77,2.79-5.16,4.56-5.41,12.65-2.19,16.84,2.99,3.88,7.72,5.9,14.48,6.2.31.01.63.02.94.02,5.41,0,10.44-1.98,13.31-5.27v-.02c2.83-3.28,3.82-7.69,2.67-11.81Z"/>
              <path class="cls-3" d="M219.91,343.45c-2.1-.68-4.24-1.01-6.25-1.01-3.19,0-6.05.84-7.91,2.45-2.45,2.17-2.29,6.18-1.26,7.52,1.68,2.18,4.74,3.34,9.35,3.54,4.27.17,7.46-1.38,8.79-2.9,1.34-1.56,1.79-3.55,1.24-5.49-.54-1.94-2.02-3.48-3.96-4.11Z"/>
            </g>
          </g>
        </g>
        <g>
          <g>
            <path class="cls-2" d="M174.31,403.78c-1.48-4.63-4.48-8.3-7.74-11.99-11.57-11.11-31.76-15.56-47.81-10.64-11.58,3.03-24.94,13.2-26.89,28.3-1.79,11.76,2.42,22.06,11.65,27.76,9.31,4.78,19.42,4.67,29.7-.17.87-.33,1.3-.24,3.57.72,1.42.61,3.17,1.34,5.28,1.7,3.57,1.03,6.76,1.46,9.57,1.46,7.46,0,12.38-3.02,15.44-6.04,7.97-7.84,10.94-20.61,7.23-31.1Z"/>
            <path class="cls-5" d="M163.98,407.37c-.03-.07-.05-.13-.07-.2-.83-2.65-3.05-5.31-5.25-7.82-8.41-8.05-24.41-11.47-36.92-7.67-8.41,2.2-17.79,9.67-19.04,19.29-.55,3.62-1.01,12.25,6.19,16.72,5.93,3.02,12.4,2.87,20-.7,1.9-.75,3.63-1.02,5.19-1.02,2.92,0,5.24.98,6.98,1.72,1.12.47,2.08.88,2.97,1.01.27.04.53.09.78.17,6.51,1.94,11.44,1.34,14.59-1.78,4.91-4.82,6.87-13.3,4.58-19.71Z"/>
          </g>
          <g>
            <path class="cls-2" d="M338.19,411.74c-1.98-15.21-15.33-25.39-26.69-28.34-16.27-4.97-36.47-.53-48.34,10.91-2.82,3.2-5.95,7-7.44,11.65-3.71,10.49-.74,23.27,7.22,31.1,3.07,3.03,8,6.05,15.45,6.05,2.81,0,5.99-.43,9.57-1.46,2.11-.36,3.85-1.1,5.28-1.7,2.29-.98,2.71-1.06,3.23-.87,10.61,5,20.73,5.1,30.44.1,8.83-5.48,13.04-15.78,11.27-27.43Z"/>
            <path class="cls-5" d="M327.35,413.27c-1.27-9.74-10.64-17.21-18.84-19.34-3.53-1.08-7.32-1.6-11.13-1.6-9.92,0-20.02,3.48-26.32,9.53-1.88,2.17-4.1,4.83-4.94,7.48-.02.07-.04.13-.07.2-2.29,6.41-.33,14.89,4.56,19.7,3.17,3.11,8.06,3.72,14.6,1.78.25-.07.51-.13.78-.17.89-.13,1.85-.53,2.97-1.01,2.67-1.14,6.69-2.83,11.82-.85,7.93,3.73,14.41,3.87,20.73.63,6.81-4.24,6.35-12.88,5.82-16.38Z"/>
          </g>
        </g>
        <g>
          <g class="cls-7">
            <g>
              <rect class="cls-6" x="223.44" y="61.83" width="174.05" height="242.65" transform="translate(13.25 387.13) rotate(-65)"/>
              <path class="cls-5" d="M376.56,212.55c-35.67,29.62-49.01,43.83-72.62,40.04-9.19-1.47-36.76-18.35-19.68-72.8,4.02-12.8,6.39-33.76-49.83-20.48-21.3,5.03-39.34,12.23-54.08,19.75,12.7-12.38,23.75-27.33,27.24-33.02,15.91-25.93,34.24-38.16,59.45-35.68,16.85,1.66,28.95,11.05,36.44,19.17l.53,5.97-23.57-3.35,34.5,25,4.37,21.2,5.61.86,3.37,14.39,10.43-3.83-2.41-37.8,4.96-6.74-5.99-9.5-1.17-18.36-5.93,9.43-50.7-55.01-7.82-3.64,46.41,57.83-7.87-2.53c-28.43-27.73-51.22-24.34-79.46-15.75-4.6,1.4-11.9,2.76-18.78,3.86l-32.96,70.67-13.31,28.55,24.04,11.21c6.94-11.04,18.02-27.12,29.98-38.33,17.98-16.85,32.54-24.86,50.6-24.69,18.96.18,15.57,11.21,11.31,24.42-5.66,17.55-16.85,46.67,11.21,86.68l92.79,43.27,61.92-132.79c-19.57,2.92-44.05,11.31-69,32.03Z"/>
              <rect class="cls-1" x="223.44" y="61.83" width="174.05" height="242.65" transform="translate(13.25 387.13) rotate(-65)"/>
            </g>
          </g>
          <path class="cls-2" d="M390.94,218.12c.07-12.49-5.34-22.53-15.6-29.03-.69-.44-1.39-.87-2.1-1.27-.77-.43-1.55-.84-2.34-1.22-11.64-5.67-23.69-4.48-34.15-2.53-5.83,1.33-9.45,2.5-11.74,3.46-1.46-1.46-3.03-2.84-4.74-4.07-.97-.67-6.37-4.22-14.15-5.76-.48-2.23-.98-3.97-1.26-4.88-.01-.05-.23-.79-.25-.84-1.29-3.88-4.26-11.63-9.68-19.89-6.8-10.34-15.02-17.72-24.49-21.96-15.15-6.65-29.01-3.93-42.64,8.55-6.19,6.4-11.53,14.18-15.87,23.1-.54,1.12-4.52,10.56-4.96,11.86-1.56,4.27-6.56,19.27-5.14,33.03.89,10.47,5.87,20.97,13,27.42.12.11.54.44.67.53,7.94,6.03,16.67,9.07,25.99,9.07,1.13,0,2.27-.05,3.42-.13,12.05-.93,21.23-4.61,21.51-4.72,1.18-.45,2.22-.93,3.33-1.4,3.32,4.59,7.6,8.48,12.65,11.05,6.29,3.17,11.23,4.29,15.81,4.29.67,0,1.31-.14,1.97-.18.25.54.51,1.09.92,1.73,9.83,18.52,24.19,24.87,33.25,24.47.58.03,1.17.05,1.76.05,15.78,0,33.72-11.18,44.46-28.18l.53-.88c3.53-5.77,8.87-14.5,9.85-31.66ZM262.41,228.64c-.08.03-8.08,3.2-18.37,4-11.87.91-19.45-4.85-21.88-6.66-5-4.53-8.79-12.66-9.45-20.34-1.18-11.51,3.16-24.52,4.61-28.48.39-1.06,3.95-9.57,4.44-10.59,3.84-7.89,8.52-14.72,13.66-20.06,10.24-9.37,19.41-11.29,30.57-6.38,7.49,3.35,14.15,9.4,19.77,17.96,4.92,7.49,7.54,14.61,8.32,16.9l.28.99c.1.33.23.76.37,1.26-3.12.38-6.39,1.21-9.76,2.67-.86.37-1.62.86-2.44,1.29-1.82-1.99-4.05-3.77-6.3-5.03-6.73-3.79-14.11-3.84-20.25-.13-6.59,4-10.46,11.71-9.86,19.44.23,6.03,2.69,11.16,7.12,14.82,2.87,2.37,6.27,3.78,9.4,4.6,0,.53-.07,1.05-.06,1.58.03,3.82.78,7.6,2.04,11.21-.76.31-1.43.63-2.24.94ZM264.12,203.95c-1.43-.51-2.96-1.24-4.22-2.39-1.79-1.63-2.7-3.75-2.82-6.7-.29-3.87,1.51-7.58,4.61-9.47,2.17-1.32,4.47-1.53,7.04-.66,2.02.68,3.67,1.86,4.9,2.98-4.48,4.46-7.75,9.99-9.5,16.23ZM306.89,240.34c-7.63,2.01-11.53,2.43-19.54-1.62-8.18-4.17-13.72-13.13-13.78-22.47-.43-11.82,5.62-21.89,15.78-26.29,3.44-1.49,6.75-2.05,9.77-2.05,8.05,0,14.03,3.92,14.85,4.49,9.03,6.49,13.34,17.88,10.69,28.51-2.49,11.49-10.8,17.57-17.75,19.43ZM371.63,244.28l-.6,1.01c-8.69,13.74-23.71,23.26-36.56,22.57-6.52.09-15.93-5.16-23.02-17.53,4.14-1.36,8.46-3.71,12.35-7.14,1.96,1.41,4.3,2.61,7,3.2,1.02.22,2.2.38,3.49.38,3.21,0,7.18-.98,11.47-4.38,4.81-4.81,6.43-10.35,4.84-17.49-2.82-8.54-9.53-11.12-14.31-12.03-.27-5.63-1.81-11.14-4.48-16.14,2.05-.65,4.64-1.36,7.15-1.93,8.49-1.57,18.35-2.62,27.19,1.67.59.28,1.14.58,1.7.89.53.3,1.04.61,1.59.96,7.15,4.53,10.61,10.99,10.57,19.46-.82,14.14-4.94,20.88-8.38,26.5ZM335.17,223.85c2.53.61,4.13,1.69,4.89,3.93.65,2.96.13,4.69-1.56,6.43-1.71,1.35-3.44,1.83-5.18,1.51-.94-.17-1.76-.57-2.49-1,1.88-3.16,3.39-6.77,4.33-10.89Z"/>
        </g>
      </g>
    </g>
    <g>
      <circle class="cls-5" cx="77.43" cy="69.12" r="69.12" transform="translate(-8.43 10.8) rotate(-7.57)"/>
      <g>
        <circle class="cls-5" cx="77.43" cy="69.12" r="65.67" transform="translate(-26.2 75) rotate(-45)"/>
        <g>
          <g>
            <path class="cls-4" d="M92.07,45.13c.24.5.48.99.71,1.51,1.5,2.74,4.09,3.81,6.29,4.43-.57-1.73-1.8-4.6-3.03-5.94h-3.97Z"/>
            <path class="cls-4" d="M86.06,45.14l2.78-2.24c-.82-1.5-1.15-1.98-1.76-2.76-.78-.74-1.45-1.47-1.96-2.14-.34.09-.68.15-.98.16-.47.02-.93-.11-1.36-.37.18,1.41.41,3.43.52,5.63.83,3.62,7.08,9.73,10.79,11.81-.49-2.34-2.49-7.05-4.02-10.17l-4,.08Z"/>
            <path class="cls-4" d="M90.49,41.51l3.45-2.79c-1.7-1.43-3.38-2.61-4.76-3.27-.7-.24-1.3-.46-1.79-.65.14.8-.05,1.4-.29,1.8-.22.38-.53.67-.88.9,1.08,1.36,2.25,2.59,4.25,4.02Z"/>
            <path class="cls-4" d="M87.2,32.19c-.91.55-.63.94.1,1.22.73.28,2.14.56,3.94,1.58,1.8,1.01,3.39,2.29,3.85,2.68l2.06-1.72c-.31-.06-8.07-2.95-9.94-3.76Z"/>
            <path class="cls-4" d="M89.15,94.91c-1.31-.07-2.59-.34-3.76-.58l-.99-.2c-.28-.06-.49-.1-.65-.13.51,1.25,1.47,2.77,2.71,4.25l.41-.64c.57-.9,1.34-1.8,2.28-2.69Z"/>
            <path class="cls-4" d="M91.42,102.19c1.26.74,2.58,1.23,3.87,1.34.12-.72.39-1.49.79-2.31-1.18.46-2.95,1.01-4.66.96Z"/>
            <path class="cls-4" d="M91.66,98.44c-1.54.24-2.92.34-4.03.28l-.45-.02c.91.98,1.94,1.92,3.02,2.7.07-.22.15-.47.15-.47.14-.43.53-1.42,1.31-2.49Z"/>
            <path class="cls-4" d="M84.4,92.02l.05-.05c.97-.95,1.9-1.85,3.04-2.55-1.58-.28-3.4-.71-4.62-1.29l-.18-.09c.1,1.94.34,3.56.72,4.94.24-.23.5-.49.5-.49,0,0,.49-.47.49-.47Z"/>
            <path class="cls-4" d="M68.97,65.09c-.38-.24-.76-.48-.76-.48-1.47-.93-3.12-1.96-4.78-2.88,0,.04,0,.06,0,.06.22,1.5.05,3.89-.47,6.53,1.76-1.17,4.36-2.73,6.01-3.23Z"/>
            <path class="cls-4" d="M108.69,87.54c-.71-.37-1.61-.47-2.3-.26-.23.07-.54.22-.68.48-.29.56-.45,1.38-.17,1.86.21.37.72.58,1.5.62q1.94.1,1.99.39l.04.3-.23.08c-.23.18-1.27.96-1.27.96-.09.07-8.67,6.63-10.21,11.52,3.9-.51,10.28-5.92,12.32-9.8.89-1.69,1.16-3.09.82-4.18-.25-.81-.86-1.48-1.81-1.98Z"/>
            <path class="cls-4" d="M108.78,90.67l.06-.02s.05-.04.05-.04l-.1.05Z"/>
            <path class="cls-4" d="M112.17,88.13s-.04-.09-.06-.13c-.03-.02-.06-.02-.09-.04l.15.17Z"/>
            <path class="cls-4" d="M115.54,87.92s-.09.03-.14.04c-.02.04-.04.09-.07.13l.21-.17Z"/>
            <path class="cls-4" d="M115.09,83.71c-1.31.41-2.7.24-4.12-.51-.47-.25-.91-.59-1.3-.99l-.23-.16c-5.49-3.72-16.27-9.54-24.46-11.03,4.49,4.03,11.06,8.65,14.75,10.66,3.63,1.97,7.32,3.39,7.87,3.59.7.06,1.39.25,1.98.56,1.2.63,2.04,1.48,2.52,2.53.96.51,2.14.3,3.29-.04,1.39-2.49,2.51-5.1,3.34-7.8-1.04,1.69-2.26,2.76-3.65,3.19Z"/>
            <path class="cls-4" d="M88.57,83.66c-1.89-.94-4.54-2.42-5.8-3.59-.02.45-.03.9-.03.9-.07,1.74-.14,3.69-.1,5.58.03-.02.05-.04.05-.04,1.19-.94,3.35-1.99,5.89-2.86Z"/>
            <path class="cls-4" d="M85.21,79.54c1.78,1.22,4.62,2.7,6.05,3.3,1.82-.48,3.56-.79,5.1-.92-1.59-.99-3.39-2.21-5.2-3.52-1.05-.13-4.15.66-5.95,1.14Z"/>
            <path class="cls-4" d="M82.84,76.37c0,.54,0,1.13-.01,1.83.05-.01.08-.02.08-.02,0,0,.18-.05.18-.05,2.03-.56,4.13-1.12,5.79-1.42-2.54-1.94-4.78-3.83-6.47-5.45.21,1.45.41,3.28.43,5.12Z"/>
            <path class="cls-4" d="M72.89,97.6c-3.6-3.36-10.17-5.96-14.39-6.37-.03.36-.12.69-.26.99-.16.33-.45.77-.98,1.13.4.28.8.57,1.2.86,3.2,1.79,9.93,3.34,14.44,3.38Z"/>
            <path class="cls-4" d="M66.86,102.57c.36.61.64,1.2.83,1.77.85-.22,1.73-.6,2.62-1.14-1.07-.04-2.26-.26-3.45-.63Z"/>
            <path class="cls-4" d="M67.39,98.63c-1.5-.26-2.99-.59-4.38-.99.53.5,1.03,1,1.48,1.48,1.21.77,3.57,1.58,5.54,1.76-.55-.78-1.4-1.66-2.64-2.26Z"/>
            <path class="cls-4" d="M57.8,88.53c.14.22.27.47.37.74.85.05,1.81.2,2.86.43,2.93.27,10.96-.95,15.2-2.48-3.88-1.55-11.43-2.92-14.93-1.89-1.45.87-2.88,1.68-4.27,2.42.31.21.57.46.77.77Z"/>
            <path class="cls-4" d="M76.95,94.49c-1.14.34-2.4.71-3.7.88,1.01.81,1.84,1.65,2.49,2.51,0,0,.01.01.02.03.9-1.27,1.63-2.57,2.05-3.67-.26.07-.86.25-.86.25Z"/>
            <path class="cls-4" d="M74.55,99.46c-1.03.09-2.25.08-3.6-.03.84.91,1.3,1.75,1.5,2.17.73-.64,1.43-1.35,2.1-2.14Z"/>
            <path class="cls-4" d="M69.97,83.65c1.29-.67,4.17-2.45,5.95-3.89-2.75-.43-5.05-.6-5.85-.41-1.65,1.29-3.45,2.57-5.36,3.83,1.58,0,3.37.16,5.26.46Z"/>
            <path class="cls-4" d="M70.29,93.34c1.71.47,3.67,0,5.36-.47-1.56-1.24-3.04-2.16-5.31-2.2-1.41.26-2.87.47-4.24.63,1.48.6,2.91,1.29,4.2,2.05Z"/>
            <path class="cls-4" d="M85.5,87.02c4.45,1.19,12.62,1.64,15.55,1.22.95-.28,1.84-.48,2.63-.6.09-.28.19-.54.31-.77.15-.28.35-.53.59-.74-1.21-.52-2.83-1.24-4.53-2.11-3.22-.97-10.76,1.05-14.56,3Z"/>
            <path class="cls-4" d="M109.11,76.96c-.38-.76-.73-1.66-1.06-2.69-1.23-2.67-6.31-9.02-9.74-11.92.6,4.14,3.19,11.36,5.83,13.87,1.48.82,2.9,1.65,4.23,2.49.03-.37.12-.73.29-1.05.12-.23.28-.47.46-.7Z"/>
            <path class="cls-4" d="M112.91,64.48c.53,1.43.98,2.88,1.34,4.29.17-.71.35-1.39.55-2.02.06-1.43-.42-3.89-1.24-5.68-.4.87-.74,2.04-.64,3.42Z"/>
            <path class="cls-4" d="M91.94,92.66c1.23-.85,2.6-1.66,4.02-2.37-1.38-.05-2.85-.15-4.28-.29-2.26.23-3.67,1.25-5.12,2.62,1.72.35,3.71.65,5.38.05Z"/>
            <path class="cls-4" d="M111.52,61.18c.37-1.18.87-2.01,1.12-2.39-.91-.31-1.88-.56-2.9-.75.59.85,1.19,1.91,1.78,3.13Z"/>
            <path class="cls-4" d="M103.59,57.84c.19.18.65.62.65.62.86.82,1.81,1.73,2.61,2.76.2-1.28.51-2.42.93-3.41l.02-.04c-1.55-.15-3.04-.12-4.2.06Z"/>
            <path class="cls-4" d="M111.63,75.8c.37-.03.89,0,1.47.28.04-.48.09-.97.15-1.46-.05-3.66-2.07-10.27-4.29-14.2-1.11,4.8-.08,11.79,1.68,15.65.33-.15.66-.24.99-.27Z"/>
            <path class="cls-4" d="M115.1,59.85c.5.95.9,2.08,1.18,3.3.35-.62.72-1.16,1.11-1.6-.62-.63-1.38-1.2-2.3-1.7Z"/>
            <path class="cls-4" d="M91.36,64.47c1.7.47,4.26,1.72,6.04,2.68-.72-2.38-1.13-4.54-1.13-6.01-1.53.97-3.04,2.02-4.39,2.97l-.51.36Z"/>
            <path class="cls-4" d="M111.86,81.5c.95.5,1.84.63,2.65.37,1.09-.34,2.09-1.37,2.98-3.05,1.89-3.6,2.63-10.42,1.59-14.32h0s-.1-.35-.1-.35c-.1-.35-.24-.69-.41-1.02-3.15,4.06-3.68,14.81-3.69,14.92l-.08,1.65-.05.99-.6-.79-1-1.31c-.48-.62-.93-.92-1.36-.88-.56.05-1.14.64-1.44,1.19-.14.27-.08.6,0,.84.22.69.81,1.38,1.52,1.75Z"/>
            <path class="cls-4" d="M89.58,65.71c-.56.38-1.05.71-1.51.99-1.42.9-2.91,1.65-4.15,2.23,2.28.29,4.88.95,7.77,1.97-.98-2.02-1.89-4.53-2.12-5.19Z"/>
            <path class="cls-4" d="M103.86,90.58c-.17-.29-.28-.62-.34-.97-4.18.74-10.51,3.85-13.84,7.49,1.45-.13,3.15-.44,4.98-.91.06-.03.3-.16.31-.15l.03.06c3.63-.96,7.03-2.33,8.92-3.62.34-.29.67-.58,1.01-.85-.55-.32-.88-.73-1.06-1.05Z"/>
            <path class="cls-4" d="M106.58,64.8c-.44-1.72-1.83-3.19-3.09-4.41-.3,1.97-.35,3.71.75,5.7.93,1.1,1.85,2.25,2.67,3.36-.22-1.58-.33-3.16-.33-4.66Z"/>
            <path class="cls-4" d="M95.27,97.69c-1.19.69-1.96,1.63-2.44,2.45,1.93-.36,4.25-1.39,5.45-2.28.39-.49.82-.99,1.28-1.5-1.36.5-2.81.95-4.29,1.33Z"/>
            <path class="cls-4" d="M101.72,59.27s.06-.32.06-.32c0,0,.11-.67.11-.67h0c-1.18.41-2.46,1-3.87,1.8,1.1.7,2.33,1.84,3.37,2.88-.08-1.27.12-2.46.34-3.7Z"/>
            <path class="cls-4" d="M74.47,89.76c1.14.57,2.07,1.33,3.03,2.14,0,0,.25.21.25.21l.52.43h0c.24-1.23.36-2.63.37-4.26-1.16.6-2.76,1.1-4.18,1.47Z"/>
            <path class="cls-4" d="M98.34,69.92c-1.22-.78-4.21-2.38-6.34-3.21,1,2.6,2.01,4.67,2.57,5.27,1.94.79,3.95,1.71,6,2.73-.79-1.37-1.55-3-2.23-4.78Z"/>
            <path class="cls-4" d="M77.49,34.32c.02.53-.05,1.08-.21,1.62l-.02.28c-.48,6.61-.13,18.86,2.68,26.7,1.25-5.9,1.96-13.9,1.85-18.11-.11-4.11-.72-8.01-.82-8.61-.3-.64-.48-1.33-.5-1.99-.05-1.35.26-2.51.93-3.45-.03-.84-.49-1.65-1.52-2.67-2.74.02-5.44.32-8.08.88,1.73.13,3.11.64,4.08,1.54,1.01.93,1.56,2.22,1.62,3.82Z"/>
            <path class="cls-4" d="M81.47,30.63s-.05.08-.08.12c0,.03,0,.07,0,.1l.07-.22Z"/>
            <path class="cls-4" d="M79.76,27.97s.07.07.1.1c.05,0,.1,0,.15,0l-.25-.1Z"/>
            <path class="cls-4" d="M68.89,36.65s.02,0,.02-.01c0,0,.01,0,.02,0l-.04.02Z"/>
            <path class="cls-4" d="M58.76,47.45c4.71-1.44,10.25-5.83,12.72-9.28-.29-.21-.54-.45-.73-.72-.21-.3-.44-.77-.49-1.41-.44.2-.89.41-1.34.6-3.15,1.88-7.86,6.93-10.15,10.81Z"/>
            <path class="cls-4" d="M63.75,47.32c-1.26,1.24-1.84,3.17-2.27,4.88,1.86-.73,3.39-1.56,4.56-3.5.48-1.35,1.03-2.72,1.58-3.99-1.26.98-2.57,1.87-3.87,2.61Z"/>
            <path class="cls-4" d="M63.7,47.35s.03-.02.05-.03c0,0,.02-.02.03-.03l-.07.05Z"/>
            <path class="cls-4" d="M66.06,48.67s-.01.02-.02.03c0,.01,0,.03-.01.04l.03-.06Z"/>
            <path class="cls-4" d="M57.03,43.14c.95-.09,2.14-.38,3.28-1.16.97-1.17,2.01-2.29,3.04-3.3-.7.21-1.38.39-2.02.54-1.27.66-3.16,2.3-4.3,3.92Z"/>
            <path class="cls-4" d="M60.34,41.97s-.02.01-.03.02c-.01.02-.03.03-.04.04l.07-.07Z"/>
            <path class="cls-4" d="M61.27,39.24s.03,0,.05-.01c.01,0,.02-.01.03-.02l-.08.03Z"/>
            <path class="cls-4" d="M94.55,57.17s-.06-.02-.06-.02c-1.41-.56-3.4-1.91-5.42-3.67.13,2.11.18,5.14-.2,6.82l.79-.42c1.54-.81,3.26-1.72,4.89-2.7Z"/>
            <path class="cls-4" d="M57.47,39.74c-.71,0-1.36-.05-1.95-.17-.24.85-.35,1.8-.32,2.85.57-.91,1.36-1.83,2.27-2.68Z"/>
            <path class="cls-4" d="M78.18,80.32c-1.25,1.24-3.62,2.83-5.34,3.88,2.42.57,4.5,1.29,5.78,2.03-.07-1.81-.23-3.65-.38-5.29,0,0-.03-.3-.05-.62Z"/>
            <path class="cls-4" d="M75.21,38.64c-.34.16-.69.26-1.05.28-.26.01-.54-.01-.83-.05-.47.71-1.07,1.47-1.8,2.27-1.7,2.4-4.65,9.97-5.46,14.4,3.28-2.59,8.25-8.44,9.1-11.98-.03-1.69-.02-3.34.04-4.91Z"/>
            <path class="cls-4" d="M75.18,43.51s0,.03,0,.04c0,.02,0,.03,0,.05v-.09Z"/>
            <path class="cls-4" d="M71.5,41.15s.01-.01.02-.02c0,0,0,0,0-.01l-.03.03Z"/>
            <path class="cls-4" d="M72.23,51.99s.05-.06.08-.1c0-.04,0-.08,0-.11l-.08.21Z"/>
            <path class="cls-4" d="M75.33,47.57c-.79,1.37-1.82,2.84-3.03,4.32-.06,1.45.04,4.83.39,7.1,1.75-2.17,3.04-4.07,3.27-4.86-.29-2.07-.5-4.27-.64-6.56Z"/>
            <path class="cls-4" d="M78.65,64.88c-.89-2.12-1.62-4.7-2.18-7.72-1.26,1.86-2.98,3.9-3.43,4.43.61.3,1.14.56,1.61.81,1.49.78,2.88,1.69,4,2.48Z"/>
            <path class="cls-4" d="M61.39,54.29s-.3.11-.3.11l-.64.24h0c.95.82,2.1,1.63,3.51,2.46.06-1.3.42-2.94.81-4.36-1.06.71-2.19,1.12-3.37,1.56Z"/>
            <path class="cls-4" d="M60.51,48.87c-1.21.47-2.35.77-3.41.9h-.04c.65,1.42,1.41,2.7,2.15,3.61.06-.26.21-.87.21-.87.28-1.16.59-2.43,1.09-3.64Z"/>
            <path class="cls-4" d="M71.08,60.66c-.45-1.71-.64-4.55-.69-6.57-1.7,1.82-3.37,3.25-4.64,3.99,1.6.84,3.28,1.62,4.77,2.31,0,0,.29.14.57.26Z"/>
            <path class="cls-4" d="M55.51,45.06c.19.95.46,1.91.81,2.89.44-.93,1.06-1.99,1.82-3.11-1.2.27-2.17.25-2.63.22Z"/>
            <path class="cls-4" d="M52.74,76.5s0-.01,0-.02c0-.01,0-.02,0-.03l-.02.05Z"/>
            <path class="cls-4" d="M52.75,76.84c-.23.97-.5,1.83-.8,2.58.2.21.37.44.51.66.17.27.28.57.35.88,1.05-.79,2.49-1.83,4.09-2.87,2.45-2.31,4.47-9.84,4.68-14.11-3.25,3.26-7.73,10.11-8.83,12.86Z"/>
            <path class="cls-4" d="M53.53,71.41c.73-1.17,1.55-2.39,2.39-3.56.94-2.07.75-3.8.3-5.75-1.16,1.32-2.42,2.89-2.73,4.64.13,1.49.14,3.08.05,4.67Z"/>
            <path class="cls-4" d="M46.24,63.58c-.66,1.85-.92,4.38-.75,5.86.23.58.45,1.21.66,1.86.24-1.43.58-2.91.99-4.38,0-1.37-.44-2.51-.9-3.34Z"/>
            <path class="cls-4" d="M70.49,66.34c-.53,2.04-1.1,4.13-1.66,5.72,2.94-1.23,5.71-2.22,7.95-2.87-1.36-.55-3.05-1.29-4.65-2.19-.47-.26-.98-.56-1.57-.92-.01.05-.02.08-.02.08l-.05.18Z"/>
            <path class="cls-4" d="M72.45,77.41c2.24.16,4.87.63,5.55.76-.05-.68-.08-1.27-.1-1.8-.07-1.68.02-3.34.15-4.7-1.39,1.83-3.27,3.75-5.59,5.75Z"/>
            <path class="cls-4" d="M42.07,64.02c.56.46,1.1,1.08,1.61,1.84.19-1.25.6-3.06,1.49-4.52-1.27.73-2.36,1.62-3.1,2.68Z"/>
            <path class="cls-4" d="M57.64,59.87s.17.66.17.66l.02.07c.34,1.31.65,2.56.69,3.9,1.04-1.22,2.31-2.59,3.42-3.36l.17-.12c-1.73-.88-3.25-1.49-4.63-1.84l.17.68Z"/>
            <path class="cls-4" d="M46.8,61.05c.3.34.97,1.17,1.5,2.38.56-1.45,1.17-2.7,1.77-3.63l.25-.38c-1.31.3-2.63.72-3.85,1.27.15.17.33.37.33.37Z"/>
            <path class="cls-4" d="M51.38,59.2c.14.26.35.67.35.67.49.95.89,2.06,1.19,3.32.71-1.1,1.59-2.08,2.38-2.96l.67-.76c.19-.21.33-.37.44-.49-1.34-.18-3.14-.12-5.04.22Z"/>
            <path class="cls-4" d="M50.76,62.57c-.61,1.32-1.19,2.94-1.7,4.77,0,.07-.02.34-.02.34h-.07c-.99,3.62-1.49,7.25-1.33,9.53.09.44.16.87.24,1.3.56-.32,1.07-.4,1.44-.4.33,0,.67.07,1.01.19,1.45-3.99,1.92-11.03.43-15.73Z"/>
            <path class="cls-4" d="M47.64,76.86s0-.01,0-.02c0,0,0-.02,0-.03v.04Z"/>
            <path class="cls-4" d="M62.32,71.06c-.5,1.82-1.09,3.48-1.75,4.87,1.66-.88,3.61-1.83,5.64-2.74.64-.85,1.5-3.93,1.99-5.72-1.95.93-4.64,2.65-5.88,3.59Z"/>
            <path class="cls-4" d="M85.64,62.09c.46-.28.98-.57,1.59-.9-.04-.04-.06-.06-.06-.06,0,0-.13-.13-.13-.13-1.5-1.48-3.03-3.02-4.12-4.3-.41,3.16-.93,6.05-1.49,8.32,1.15-.91,2.64-2,4.22-2.93Z"/>
            <path class="cls-4" d="M87.03,51.56c-1.33-1.34-2.47-2.68-3.35-3.95-.06,1.87-.22,4.05-.45,6.26.42.97,2.65,3.27,3.96,4.58.17-2.15.03-5.35-.17-6.89Z"/>
            <path class="cls-4" d="M87.02,51.44s0,.08.01.12c.03.03.06.06.09.09l-.1-.21Z"/>
            <path class="cls-4" d="M64.29,104.32l.35.09c.35.09.71.13,1.09.15-1.94-4.75-10.98-10.59-11.08-10.65l-1.39-.89-.83-.53.98-.13,1.63-.21c.78-.1,1.26-.35,1.45-.74.24-.51.02-1.31-.32-1.84-.16-.26-.48-.37-.72-.43-.71-.16-1.6.01-2.28.44-.91.57-1.46,1.28-1.65,2.11-.25,1.12.14,2.5,1.15,4.11,2.17,3.44,7.71,7.49,11.61,8.54h0Z"/>
            <path class="cls-4" d="M49.66,91.26c.3-1.34,1.14-2.46,2.5-3.31.45-.28.96-.49,1.51-.63l.25-.12c5.97-2.89,16.4-9.32,21.78-15.67-5.74,1.87-13.02,5.25-16.61,7.45-3.52,2.16-6.6,4.65-7.05,5.02-.4.58-.91,1.07-1.48,1.43-1.14.72-2.3,1.03-3.45.92-.91.57-1.32,1.68-1.6,2.83,1.44,2.43,3.14,4.7,5.06,6.79-.92-1.73-1.23-3.31-.92-4.72Z"/>
            <path class="cls-4" d="M49.54,83.8c.68-.43,1.22-1.16,1.38-1.87.05-.24.08-.58-.08-.83-.34-.53-.97-1.07-1.53-1.08-.43,0-.87.33-1.29.99q-1.04,1.61-1.3,1.54l-.26-.08v-.25c-.02-.19-.2-1.61-.2-1.61-.01-.11-1.41-10.82-4.87-14.6-1.51,3.63-.01,11.86,2.33,15.57,1.02,1.61,2.1,2.55,3.21,2.81.83.19,1.71,0,2.62-.58Z"/>
            <path class="cls-4" d="M56.99,36.9c-.25.26-.47.55-.67.87,5.09.7,14.67-4.22,14.77-4.27,0,0,1.02-.7,1.46-.76.45-.06.89.02.5.46-.39.44-.63,1.52-.63,1.52-.3.72-.33,1.27-.08,1.62.32.46,1.12.67,1.75.65.3-.01.56-.23.73-.41.49-.53.79-1.39.76-2.19-.04-1.07-.38-1.91-1-2.48-.84-.78-2.23-1.13-4.13-1.06-4.06.16-10.34,2.93-13.2,5.78h0s-.25.27-.25.27Z"/>
            <path class="cls-4" d="M90.76,62.18c3.53-2.48,7.52-5.28,11.47-6.39,4-1.11,13.63-.05,17.36,5.02.09.11.18.24.27.37-.51-5.17-3.1-11.57-5.86-16.13h-8.45c-.45,3.38-2.58,7.57-4.09,9.21-2.78,3.02-7.1,5.3-10.9,7.31-1.42.75-2.76,1.46-3.94,2.16-2.29,1.36-4.45,3.36-5.33,4.1,1.06-.43,3.53-1.72,5.76-3.13,1.16-.73,2.4-1.61,3.72-2.53Z"/>
            <path class="cls-4" d="M69.7,62.5c-3.91-1.81-8.34-3.87-11.27-6.74-2.97-2.91-6.86-11.78-4.34-17.55.03-.08.07-.16.1-.24-.85.72-1.67,1.47-2.46,2.26-6.38,6.38-10.41,14.65-11.5,23.53,3.28-6.13,13.16-7.46,17.19-6.55,4,.9,8.14,3.49,11.79,5.79,1.36.85,2.64,1.66,3.84,2.33,2.4,1.35,5.15,2.38,6.16,2.73-.86-.67-3.09-2.34-5.48-3.6-1.22-.64-2.59-1.28-4.05-1.96Z"/>
            <path class="cls-4" d="M81.7,94c-1.23-3.92-1.04-8.8-.88-13.1.06-1.61.12-3.12.1-4.5-.03-2.79-.53-5.7-.71-6.72-.15,1.03-.5,3.86-.39,6.62.05,1.37.19,2.88.33,4.49.38,4.29.82,9.15-.21,13.13-1.03,4.02-6.77,11.83-13.03,12.53-.23.04-.47.05-.73.06,4.46,1.66,9.17,2.5,14.04,2.5,5.58,0,11.12-1.17,16.2-3.41-7.14.6-13.46-7.55-14.72-11.59Z"/>
            <path class="cls-4" d="M80.33,68.81s.07-.18.25-.37.37-.32.7-.61c-.3.17-.56.35-.56.35,0,0-.35.13-.45.17l-.12.02h0c-.09-.04-.25-.09-.54-.19,0,0-.15-.05-.39-.14.23.18.37.3.38.3,0,0,.26.21.36.29l.06.09h0c.01.1.04.26.1.54,0,0,.03.15.07.39.04-.25.06-.4.06-.41,0,0,.06-.37.07-.45Z"/>
            <path class="cls-4" d="M82.38,34.12c.03.8.4,1.63.93,2.12.18.17.46.36.76.35.63-.03,1.41-.3,1.7-.79.22-.37.15-.92-.21-1.61-.86-1.67-.62-1.18-.62-1.63s.73-1,.73-1l-2.08-.97c-.47.61-1.24,2.55-1.2,3.52Z"/>
            <path class="cls-4" d="M100.83,50.82c.09.27.16.47.21.63.83-1.08,2.2-3.82,2.6-6.39h-5.01c.73,1.27,1.52,3.67,1.89,4.8l.32.96Z"/>
            <path class="cls-4" d="M98.41,52.91l-.07-.02c-1.3-.37-2.55-.72-3.73-1.36.54,1.51,1.09,3.29,1.2,4.64l.02.2c1.63-1.06,2.92-2.08,3.91-3.09-.31-.09-.68-.19-.68-.19,0,0-.65-.19-.65-.18Z"/>
          </g>
          <g>
            <g>
              <g>
                <g>
                  <g>
                    <path class="cls-6" d="M24.41,47.83c.35.15,1.07.27,1.58-.85.28-.61.44-1.35-.21-1.64-.48-.22-.82.18-1.27.76l-.45.59c-.68.88-1.34,1.74-2.69,1.12-.68-.31-1.72-1.23-.81-3.22.86-1.88,2.32-1.82,3.08-1.49l-.56,1.23c-.29-.09-.99-.29-1.5.83-.22.49-.31,1.15.25,1.4.48.22.76-.13.94-.36l1.05-1.33c.59-.74,1.28-1.36,2.38-.85,1.84.84,1.15,2.8.9,3.34-1.02,2.24-2.49,2.03-3.25,1.68l.56-1.23Z"/>
                    <path class="cls-6" d="M28.98,43.22l-.67,1.24-5.94-3.21.67-1.24,5.94,3.21Z"/>
                    <path class="cls-6" d="M26.16,34.95l.72-1.1,5.66,3.68-.77,1.18-5.54-.32v.02s4.02,2.63,4.02,2.63l-.72,1.1-5.66-3.68.81-1.25,5.4.32v-.02s-3.93-2.56-3.93-2.56Z"/>
                    <path class="cls-6" d="M32.33,30.59c-.38-.17-1.11-.49-1.85.41-.43.52-.72,1.58.75,2.79.93.77,2.08,1.1,2.84.18.5-.6.5-1.3-.03-1.96l.9-1.09c.95,1.15,1.13,2.54.05,3.84-1.14,1.38-2.9,1.6-4.69.12-1.82-1.5-1.88-3.32-.77-4.66,1.29-1.56,2.88-1.3,3.69-.73l-.9,1.09Z"/>
                    <path class="cls-6" d="M36.73,24.63l-2.56,2.5.99,1.01,2.35-2.3.83.85-2.35,2.3,1.22,1.25,2.67-2.61.83.85-3.66,3.58-4.71-4.82,3.54-3.47.83.85Z"/>
                    <path class="cls-6" d="M40.22,21.16l.17-.12c1.12-.8,1.01-1.6.72-2.06l.96-.68,4.22,5.91-1.16.83-2.91-4.07-1.41,1-.58-.81Z"/>
                    <path class="cls-6" d="M47.48,21.42h0c.33.4.71.42,1.09.19.51-.31.76-1.04-.02-2.35h-.03c-.03.58-.45.98-.87,1.23-1.19.72-2.43.23-3.06-.81-.92-1.53-.44-2.78.78-3.51,2.16-1.3,3.59,1,4.12,1.88,1.45,2.41.78,3.88-.34,4.55-1.06.64-2.19.48-2.89-.44l1.22-.73ZM47.33,19.35c.43-.26.72-.85.28-1.59-.43-.71-1-.96-1.63-.58-.32.19-.79.69-.25,1.59.56.94,1.14.87,1.61.59Z"/>
                    <path class="cls-6" d="M52.07,18.84h0c.29.43.67.48,1.07.29.53-.26.85-.97.19-2.35h-.03c-.08.58-.53.93-.98,1.15-1.25.61-2.44,0-2.97-1.09-.78-1.6-.19-2.81,1.09-3.43,2.27-1.1,3.49,1.33,3.93,2.25,1.23,2.53.43,3.93-.75,4.51-1.12.54-2.23.28-2.84-.7l1.28-.62ZM52.11,16.76c.45-.22.79-.78.42-1.56-.36-.75-.91-1.05-1.57-.73-.33.16-.85.62-.39,1.56.48.99,1.06.97,1.55.73Z"/>
                    <path class="cls-6" d="M60.78,15.32l-.76.28.55,1.51-1.35.49-.55-1.51-2.69.98-.43-1.16.99-5.07,1.53-.56,1.56,4.27.76-.28.38,1.05ZM58.29,15.04c-.6-1.65-.96-2.73-1.04-2.94h-.02s-.64,3.56-.64,3.56l1.7-.62Z"/>
                  </g>
                  <g>
                    <path class="cls-6" d="M16.08,55.63l.47-2.2,10.54,2.23-1.59,7.5-1.87-.39,1.12-5.3-2.38-.5-.98,4.64-1.87-.39.98-4.64-4.44-.94Z"/>
                    <path class="cls-6" d="M21.67,70.24c.65-.16,1.88-.46,1.95-2.31.04-1.08-.62-2.7-3.67-2.81-1.93-.07-3.7.63-3.77,2.53-.05,1.25.63,2.14,1.94,2.46l-.08,2.25c-2.32-.54-3.9-2.13-3.8-4.83.11-2.86,2.12-4.85,5.84-4.71,3.76.14,5.6,2.39,5.5,5.16-.12,3.22-2.39,4.45-3.98,4.51l.08-2.25Z"/>
                    <path class="cls-6" d="M17.33,89.05l-.48-2.05,8.76-2.05v-.03s-9.23.09-9.23.09l-.5-2.15,8.32-3.96v-.03s-8.77,2.05-8.77,2.05l-.48-2.05,10.49-2.45.75,3.2-7.82,3.83v.03s8.71-.06,8.71-.06l.74,3.17-10.49,2.45Z"/>
                    <path class="cls-6" d="M19.34,93.87l-.83-2.09,10.02-3.98.83,2.09-10.02,3.98Z"/>
                    <path class="cls-6" d="M23.12,101.45l-1.1-1.96,7.72-4.35-1.6-2.84,1.66-.93,4.3,7.63-1.66.93-1.6-2.84-7.72,4.35Z"/>
                    <path class="cls-6" d="M37.74,103.01c.92,1.09,2.87,4.35-.99,7.62-3.86,3.27-6.76.8-7.68-.29-.92-1.09-2.87-4.35.99-7.62,3.86-3.27,6.76-.8,7.68.29ZM30.53,109.1c.79.93,2.46,1.75,4.77-.2,2.3-1.95,1.77-3.74.99-4.67-.78-.93-2.46-1.75-4.77.2-2.3,1.95-1.77,3.74-.99,4.67Z"/>
                    <path class="cls-6" d="M43.08,116.45l-2.7,4.01-1.87-1.26,6.01-8.95,1.87,1.26-2.28,3.39,3.49,2.34,2.28-3.39,1.87,1.25-6.01,8.95-1.87-1.26,2.7-4.01-3.49-2.34Z"/>
                    <path class="cls-6" d="M56.99,117.17c1.31.56,4.52,2.6,2.54,7.25-1.98,4.65-5.68,3.75-6.99,3.19-1.31-.56-4.52-2.6-2.54-7.25,1.98-4.66,5.68-3.75,6.99-3.19ZM53.29,125.85c1.12.48,2.99.46,4.17-2.32,1.18-2.78-.1-4.14-1.22-4.61-1.12-.48-2.99-.46-4.17,2.32-1.18,2.78.1,4.14,1.22,4.61Z"/>
                    <path class="cls-6" d="M62.48,128.59l5.22,1.19-.43,1.9-7.42-1.69,2.4-10.51,2.2.5-1.96,8.6Z"/>
                    <path class="cls-6" d="M71.63,130.13l5.34.37-.14,1.94-7.59-.53.75-10.74,2.24.16-.62,8.8Z"/>
                    <path class="cls-6" d="M81.25,132.18l-2.25.11-.2-4.06-4.04-6.52,2.65-.13,2.46,4.57,1.9-4.78,2.55-.12-3.27,6.9.19,4.03Z"/>
                    <path class="cls-6" d="M92.61,125.38l1.47,4.6-2.14.69-3.28-10.26,2.14-.68,1.24,3.89,4-1.28-1.24-3.89,2.14-.69,3.28,10.26-2.14.69-1.47-4.6-4,1.28Z"/>
                    <path class="cls-6" d="M101.83,114.9c1.25-.68,4.84-1.95,7.27,2.49,2.43,4.44-.57,6.78-1.82,7.46-1.25.68-4.84,1.95-7.27-2.49-2.43-4.44.56-6.78,1.82-7.46ZM106.37,123.18c1.07-.58,2.21-2.06.76-4.71-1.45-2.65-3.31-2.48-4.38-1.9-1.07.58-2.21,2.06-.76,4.71,1.45,2.65,3.31,2.48,4.38,1.9Z"/>
                    <path class="cls-6" d="M114.47,110.6c-.55-.38-1.59-1.09-3.03.1-.83.69-1.59,2.26.36,4.61,1.24,1.49,2.94,2.34,4.41,1.12.96-.8,1.18-1.9.54-3.08l1.73-1.44c1.15,2.09,1.02,4.33-1.05,6.05-2.2,1.83-5.02,1.66-7.41-1.2-2.41-2.9-1.97-5.77.17-7.54,2.48-2.06,4.91-1.19,6.02-.05l-1.73,1.44Z"/>
                    <path class="cls-6" d="M124.01,111.18l-1.44,1.73-8.29-6.88,1.44-1.73,3.37,2.8-.75-5.96,1.86-2.24.59,6.2,7.86.48-1.85,2.23-5.76-.45.16,1.5,2.81,2.33Z"/>
                  </g>
                </g>
                <g>
                  <path class="cls-6" d="M129.07,101.76l-6.1-3.88.76-1.19,6.1,3.88-.76,1.19Z"/>
                  <path class="cls-6" d="M132.35,96.14l-1.42,2.68-6.4-3.39,1.34-2.53c.63-1.18,1.71-1.62,2.64-1.12.75.4,1.03,1.04.83,1.72h.02c.44-.65,1.36-1.02,2.35-.5,1.08.57,1.34,1.79.63,3.13ZM126.75,93.63l-.59,1.11,1.62.85.63-1.19c.28-.53.21-1.03-.31-1.3-.57-.3-1.09.03-1.35.52ZM129.4,94.82l-.67,1.27,1.84.97.69-1.3c.35-.66.27-1.3-.34-1.62-.61-.32-1.2.08-1.51.68Z"/>
                  <path class="cls-6" d="M135.71,88.62l-1.99-.1-1,2.46,1.5,1.32-.52,1.29-5.76-5.05.65-1.62,7.64.4-.53,1.3ZM129.53,88.23l-.03.07c.58.33,2.3,1.88,2.3,1.88l.7-1.73s-2.32-.07-2.97-.22Z"/>
                  <path class="cls-6" d="M137.53,82.87l-3.19.56-.37,1.25,2.79.82-.38,1.3-6.95-2.05.83-2.8c.39-1.31,1.42-2.01,2.66-1.64,1.11.33,1.55,1.01,1.56,1.82l3.51-.81-.46,1.56ZM131.29,82.52l-.37,1.26,2.01.59.38-1.28c.2-.67-.04-1.22-.72-1.42-.62-.18-1.1.2-1.29.85Z"/>
                  <path class="cls-6" d="M139.09,75.43l-1.97.31-.47,2.61,1.74.98-.24,1.37-6.68-3.74.31-1.72,7.56-1.19-.25,1.38ZM132.95,76.32v.07c.62.21,2.63,1.37,2.63,1.37l.33-1.83s-2.29.41-2.95.4Z"/>
                  <path class="cls-6" d="M139.7,69.29l-3.47,1.96.61.7,2.63.21-.11,1.35-7.22-.58.11-1.35,2.88.23-2.66-2.9.13-1.6,2.72,2.92,4.52-2.58-.13,1.63Z"/>
                  <path class="cls-6" d="M139.77,66.61l-7.24-.02v-1.41s7.24.02,7.24.02v1.41Z"/>
                </g>
              </g>
              <g>
                <path class="cls-6" d="M126.29,57.64c-.67.39-2.03,1.24-2.03,1.24l-2.59-6.99-1.8.68c1.98,4.95,2.84,10.57,2.84,16.06,0,11.35-4.42,22.02-12.45,30.05-8.03,8.03-18.7,12.45-30.05,12.45s-22.02-4.42-30.05-12.45c-8.03-8.03-12.45-18.7-12.45-30.05,0-23.43,19.06-42.49,42.49-42.49,4.92,0,11.1,1.96,15.6,3.55l-6.82-5.63,8.73-1.35-34.88-7.44,7.66,4.28-23.21,4.96,8.34,2.48-21.86,9.92,10.82-1.35s-13.63,11.72-19.83,17.13l10.37-3.16-9.51,24.38,6.36-6.8.05,24.39,3.89-8.16,5.86,22.76-.11-9.69,14.5,18.71-3.46-8.01,19.37,12.86-4.05-6.1,18.82,5.3s-4.44-3.52-3.83-3.64c8.64-1.28,17.2-4.5,24.13-9.31,15.36-10.94,23.19-29.72,19.14-48.58Z"/>
                <path class="cls-6" d="M134.55,52.74c-.77-1.49-1.09-2.29-1.09-2.29.35-.24.86-.55,1.37-1.22.91-2.97-3.02-3.42-4.57-4.59-2.49-3.94-4.66-8.09-7.16-12.01-.26-1.9.6-4.99-1.23-7.01-1.23-1.73-3.3-2.14-5.31-1.69-2.3-3.21-5.89-8.96-5.89-8.96l-.81,4.92L60.31,2.91l-1.66.41c9.28,3.88,18.52,8.31,27.47,12.35,5.07,2.05,16.03,7.51,16.03,7.51l-9.55,1.55,8.23,7.44-15.06-2.12,14.72,5.61-9.73,8.03,25.11-.03,3.32,7.1,3.29-1.32,2.8,7.06,2.37-1.41,3.33,5.9,5.22-5.65s-1.14-1.88-1.63-2.62ZM120.84,33.15c-2.05-.73-4.91-1.94-5.27-4.27-.17-.92-.47-2.07,0-2.95,1.58-.5,3.58.02,4.39.85.81.83,1.9,3.25.88,6.37ZM129.6,46.32c1.26-.36,1.93.3,2.9.96.83.42.87,2.04-.28,2.38-.85.48-2.6-1.9-2.62-3.34Z"/>
              </g>
            </g>
            <path class="cls-6" d="M77.43,2.78c-3.93,0-7.77.36-11.51,1.01l2.45.93c2.96-.41,5.98-.64,9.06-.64,35.92,0,65.04,29.12,65.04,65.04s-29.12,65.04-65.04,65.04S12.39,105.04,12.39,69.12c0-30.43,20.9-55.97,49.13-63.07l-1.88-.84C31.65,12.99,11.09,38.65,11.09,69.12c0,36.64,29.7,66.34,66.34,66.34s66.34-29.7,66.34-66.34S114.07,2.78,77.43,2.78Z"/>
          </g>
        </g>
      </g>
    </g>
  </g>
</svg>