<?xml version="1.0" encoding="UTF-8"?>
<svg id="_レイヤー_2" data-name="レイヤー 2" xmlns="http://www.w3.org/2000/svg" xmlns:xlink="http://www.w3.org/1999/xlink" viewBox="0 0 426.45 446.03">
  <defs>
    <style>
      .cls-1 {
        fill: none;
      }

      .cls-2 {
        fill: #221815;
      }

      .cls-3 {
        fill: #ffe100;
      }

      .cls-4 {
        fill: #e62e8b;
      }

      .cls-5 {
        fill: #163259;
      }

      .cls-6 {
        fill: #ffea4a;
      }

      .cls-7 {
        fill: #fff;
      }

      .cls-8 {
        clip-path: url(#clippath);
      }
    </style>
    <clipPath id="clippath">
      <path class="cls-1" d="M390.94,221.05c.07-12.48-5.34-22.53-15.6-29.03-.69-.44-1.39-.87-2.1-1.27-.77-.43-1.55-.85-2.34-1.22-11.64-5.67-23.69-4.48-34.15-2.53-5.83,1.33-9.45,2.5-11.74,3.46-1.46-1.46-3.03-2.84-4.74-4.07-.97-.67-6.37-4.22-14.15-5.76-.48-2.22-.98-3.96-1.26-4.88-.01-.05-.23-.79-.25-.84-1.29-3.88-4.26-11.63-9.68-19.89-6.8-10.34-15.02-17.72-24.49-21.96-15.15-6.65-29.01-3.93-42.64,8.55-6.19,6.4-11.53,14.18-15.87,23.1-.54,1.12-4.52,10.56-4.96,11.86-1.56,4.27-6.56,19.27-5.14,33.03.89,10.47,5.87,20.98,13,27.42.12.11.54.44.67.53,7.94,6.03,16.67,9.07,25.99,9.07,1.13,0,2.27-.05,3.42-.13,12.05-.93,21.23-4.61,21.51-4.72,1.18-.45,2.22-.93,3.33-1.4,3.32,4.59,7.6,8.48,12.65,11.05,6.29,3.17,11.23,4.29,15.81,4.29.67,0,1.31-.14,1.97-.18.25.54.51,1.09.92,1.73,9.83,18.52,24.19,24.87,33.25,24.47.58.03,1.17.05,1.76.05,15.78,0,33.72-11.18,44.46-28.18l.53-.88c3.53-5.77,8.87-14.5,9.85-31.67Z"/>
    </clipPath>
  </defs>
  <g id="_レイヤー_1-2" data-name="レイヤー 1">
    <g>
      <path class="cls-4" d="M426.45,228.52c0,117.76-84.41,196.43-213.22,196.43S0,346.28,0,228.52,95.46,15.29,213.22,15.29s213.22,95.46,213.22,213.23Z"/>
      <g>
        <g>
          <g>
            <path class="cls-2" d="M419.52,297.07c-1.3-.72-2.84-1.24-3.8-1.44-6.81-1.4-13.64-2.18-20.31-2.33-3.7-.09-7.16,0-10.5.16-1.79-20.11-8.09-39.31-19.27-58.27,1.62-9.72,2.12-22.36,2.53-32.66l.21-5.17c.84-18.75-5.88-43.26-14.38-52.46-2.12-2.29-5.31-4.04-8.12-4.45-21.54-3.21-49.87,5.35-81.73,24.67l-4-.59c-26.18-3.9-58.77-8.75-103.06,1.53-1.4.32-2.95.78-4.54,1.26-2.36.71-6.76,1.98-7.92,1.68-8.49-4.64-30.28-15.71-49.14-18.49-17.53-2.61-29.09.83-34.52,10.31-15.37,28.86-7.65,69.07-4.44,79.47-16,31.01-15.7,63.87-15.6,67.47-.01.84.03,1.72.04,2.58-.84.06-1.6.09-2.48.16-8.93.71-17.8,1.58-28.07,4.44-3.34.92-6.41,3.14-5.81,5.59.47,1.92,2.84,2.35,4.83,2.35,1.54,0,2.85-.25,2.89-.26,10.63-2.17,16.02-2.75,23.47-3.55l3.14-.34c.81-.09,1.61-.13,2.42-.2.81,9.68,2.85,19.99,6.48,30.18-4.44,1.67-9.56,3.89-15.71,7.07-.04.02-3.98,2.08-4.74,4.62-.23.78-.15,1.56.23,2.24.62,1.11,1.92,1.46,3.31,1.46,2.3,0,4.82-.95,4.86-.96,1.84-.81,3.57-1.58,5.21-2.31,3.72-1.66,6.96-3.05,10-4.23,3.93,8.9,9.09,17.53,15.73,25.34-6.84,3.96-15.09,9.33-24.43,16.6-1.94,1.52-3.19,3.45-3.41,5.32-.12,1.04.11,1.99.65,2.67.41.51,1.18.73,2.1.73,1.62,0,3.71-.68,5.14-1.7,10.26-7.27,19.16-12.89,26.15-17.04,7.51,7.31,16.5,13.67,27.22,18.49,35.27,15.84,67.77,19.4,108.95,20l4.04-.06,4.36.06c47.38-.7,84.81-7.46,111.26-20.11,15.35-7.34,27.56-17.24,36.7-29.54,7.64,2.61,16.9,6.62,25.83,12.66,1.14.79,3.45,2.17,5.5,2.17.92,0,1.79-.27,2.47-1.01.29-.3.61-.85.53-1.73-.17-1.86-2.23-4.46-3.56-5.43-9.12-6.66-18.29-10.95-26.01-13.74,5.25-8.67,9.17-18.37,11.72-29.12,5.64.9,12.22,2.35,19.44,4.77.04,0,2.17.71,4.26.71,1.57,0,3.11-.39,3.7-1.78.27-.63.26-1.33-.03-2.02-1.04-2.48-5.39-4.32-5.43-4.33-7.12-2.82-14.12-4.47-20.31-5.49,1.35-8.14,2-16.8,1.93-26,.02-1.57-.07-3.12-.1-4.67,2.93-.16,5.97-.26,9.16-.22,4.96.05,10.48.42,15.35.74,1.52.1,2.99.19,4.4.28,3.19.18,7.1-.41,7.57-2.73.17-.81-.11-2.03-2.36-3.29Z"/>
            <path class="cls-7" d="M354.53,235.21c1.76-9.13,2.29-22.42,2.71-33.11l.22-5.23c.76-16.97-5.67-38.25-11.49-44.55-.51-.56-1.4-.99-1.72-1.06-18.78-2.76-45.27,5.51-74.57,23.31-2.08,1.26-3.22,1.95-5.23,1.65l-5.91-.87c-25.25-3.76-56.69-8.45-98.98,1.36-1.2.27-2.52.67-3.87,1.08-5.38,1.6-11.46,3.43-16.3.8-7.98-4.35-28.38-14.75-45.5-17.28-12.59-1.85-20.45-.25-23.34,4.78-10.47,19.65-8.42,46.45-5.73,61.45.72-.85,1.42-1.62,2.07-2.27,2.63-2.63,5.32-3.6,7.16-2.33,1.91,1.32,1.15,4.66-.08,7.33-1.22,2.65-3.69,7.76-5.63,11.18,0,0,0,.01,0,.02-16.85,29.6-16.54,62.53-16.45,66.2,0,.74.03,1.51.04,2.26,9.31.02,14.99,1,17.89,1.74l.21.05c.06.01,7.62,1.41,7.18,5.04-.39,3.23-4.98,2.99-7.2,2.87l-.82-.06c-2.44-.37-8.96-1.24-16.86-1.4.79,8.79,2.71,18.09,6.01,27.25,4.52-1.04,7.71-1.28,9.83-1.4l.29-.02c2.79-.15,9.39-.25,9.73,3.07.3,2.87-4.87,4.24-7.11,4.7-1.04.21-2.16.36-3.41.53-1.75.24-3.74.52-6.09,1.02,3.77,8.24,8.76,16.15,15.14,23.24,6.63-3.21,10.45-4.39,10.53-4.42.06-.03,6.57-1.68,7.84,1.28,1.09,2.56-1.67,3.92-4.33,5.24-.85.42-1.74.86-2.55,1.35,0,0-.09.05-.26.13-1.03.51-2.75,1.4-5.02,2.62,6.17,5.56,13.32,10.43,21.71,14.2,33.54,15.07,64.84,18.45,104.46,19.04l4.04-.06,4.36.06c44.98-.67,81.88-7.25,106.54-19.04,12.36-5.91,22.38-13.54,30.17-22.9-3.71-.86-5.98-1.18-6.04-1.19-1.42-.14-5.85-1.17-7.34-3.19-.44-.61-.61-1.28-.47-1.94.75-3.62,7.32-2.9,10.09-2.43.35.03,3.75.38,9.03,1.65,5.2-7.94,9.03-16.98,11.53-27.11-2.33-.14-4.2-.17-5.48-.17-2.44.01-5.28-.05-5.28-.05-.74-.07-6.59-.76-6.82-3.68-.03-.39.05-1,.6-1.64,1.31-1.53,4.62-2.39,6.03-2.5l.31-.03c.84-.08,3.07-.3,5.31-.32h.61c1.62,0,3.81.05,6.42.22,1.29-7.68,1.93-15.9,1.86-24.75.01-1.24-.07-2.46-.09-3.69-6.85.85-12.47,1.97-16.3,2.74-1.96.39-3.38.68-4.24.78-1.38.2-2.56.3-3.55.3-2.31,0-3.58-.56-4-1.72-.29-.84-.23-1.74.18-2.59.74-1.52,2.53-2.81,5.19-3.72,2.09-.71,10.2-3.2,22.24-4.68-1.72-19.09-7.86-37.28-18.78-55.31-.7-1.16-.95-2.54-.69-3.87Z"/>
          </g>
          <g>
            <path class="cls-2" d="M115.31,316.89c-3.5,7.1-3.52,18.45,1.21,24.48,2.92,3.45,7.8,5.41,14.09,4.33,5.43-.94,8.52-5.9,9.55-9.85,2.23-8.84-.14-19.68-5.23-23.79-5.36-3.91-15.39-3.82-19.61,4.83Z"/>
            <path class="cls-2" d="M285.41,317.92c-3.5,7.1-3.52,18.45,1.21,24.48,2.92,3.45,7.8,5.41,14.09,4.33,5.43-.94,8.52-5.9,9.55-9.85,2.23-8.84-.14-19.68-5.23-23.79-5.36-3.91-15.39-3.82-19.61,4.83Z"/>
            <g>
              <path class="cls-2" d="M230.45,348.64c-1.17-4.16-4.32-7.43-8.44-8.76-7.86-2.55-15.82-1.48-20.77,2.79-5.16,4.56-5.41,12.65-2.19,16.84,2.99,3.88,7.72,5.9,14.48,6.2.31.01.63.02.94.02,5.41,0,10.44-1.98,13.31-5.27v-.02c2.83-3.28,3.82-7.69,2.67-11.81Z"/>
              <path class="cls-3" d="M219.91,346.38c-2.1-.68-4.24-1.01-6.25-1.01-3.19,0-6.05.84-7.91,2.45-2.45,2.17-2.29,6.18-1.26,7.52,1.68,2.18,4.74,3.34,9.35,3.54,4.27.17,7.46-1.38,8.79-2.9,1.34-1.56,1.79-3.55,1.24-5.49-.54-1.94-2.02-3.48-3.96-4.11Z"/>
            </g>
          </g>
        </g>
        <g>
          <g>
            <path class="cls-2" d="M174.31,406.72c-1.48-4.63-4.48-8.3-7.74-11.99-11.57-11.11-31.76-15.56-47.81-10.64-11.58,3.03-24.94,13.2-26.89,28.3-1.79,11.76,2.42,22.06,11.65,27.76,9.31,4.78,19.42,4.67,29.7-.17.87-.33,1.3-.24,3.57.72,1.42.61,3.17,1.34,5.28,1.7,3.57,1.03,6.76,1.46,9.57,1.46,7.46,0,12.38-3.02,15.44-6.04,7.97-7.84,10.94-20.61,7.23-31.1Z"/>
            <path class="cls-7" d="M163.98,410.3c-.03-.07-.05-.13-.07-.2-.83-2.65-3.05-5.31-5.25-7.82-8.41-8.05-24.41-11.47-36.92-7.67-8.41,2.2-17.79,9.67-19.04,19.29-.55,3.62-1.01,12.25,6.19,16.72,5.93,3.02,12.4,2.87,20-.7,1.9-.75,3.63-1.02,5.19-1.02,2.92,0,5.24.98,6.98,1.72,1.12.47,2.08.88,2.97,1.01.27.04.53.09.78.17,6.51,1.94,11.44,1.34,14.59-1.78,4.91-4.82,6.87-13.3,4.58-19.71Z"/>
          </g>
          <g>
            <path class="cls-2" d="M338.19,414.67c-1.98-15.21-15.33-25.39-26.69-28.34-16.27-4.97-36.47-.53-48.34,10.91-2.82,3.2-5.95,7-7.44,11.65-3.71,10.49-.74,23.27,7.22,31.1,3.07,3.03,8,6.05,15.45,6.05,2.81,0,5.99-.43,9.57-1.46,2.11-.36,3.85-1.1,5.28-1.7,2.29-.98,2.71-1.06,3.23-.87,10.61,5,20.73,5.1,30.44.1,8.83-5.48,13.04-15.78,11.27-27.43Z"/>
            <path class="cls-7" d="M327.35,416.2c-1.27-9.74-10.64-17.21-18.84-19.34-3.53-1.08-7.32-1.6-11.13-1.6-9.92,0-20.02,3.48-26.32,9.54-1.88,2.17-4.1,4.83-4.94,7.48-.02.07-.04.13-.07.2-2.29,6.41-.33,14.89,4.56,19.7,3.17,3.11,8.06,3.72,14.6,1.78.25-.07.51-.13.78-.17.89-.13,1.85-.53,2.97-1.01,2.67-1.14,6.69-2.83,11.82-.85,7.93,3.73,14.41,3.87,20.73.63,6.81-4.24,6.35-12.88,5.82-16.38Z"/>
          </g>
        </g>
        <g>
          <g class="cls-8">
            <g>
              <rect class="cls-4" x="221.2" y="113.22" width="132.75" height="190.62" transform="translate(-22.95 381.03) rotate(-65)"/>
              <g>
                <rect class="cls-7" x="206.73" y="109.15" width="20.14" height="132.75" transform="translate(94.49 -75.17) rotate(25)"/>
                <rect class="cls-7" x="243.73" y="126.41" width="20.14" height="132.75" transform="translate(105.25 -89.2) rotate(25)"/>
                <rect class="cls-7" x="280.74" y="143.66" width="20.14" height="132.75" transform="translate(116.01 -103.22) rotate(25)"/>
                <rect class="cls-7" x="317.75" y="160.92" width="20.14" height="132.75" transform="translate(126.77 -117.24) rotate(25)"/>
                <rect class="cls-7" x="354.76" y="178.18" width="20.14" height="132.75" transform="translate(137.53 -131.27) rotate(25)"/>
              </g>
            </g>
          </g>
          <path class="cls-1" d="M390.94,221.05c.07-12.48-5.34-22.53-15.6-29.03-.69-.44-1.39-.87-2.1-1.27-.77-.43-1.55-.85-2.34-1.22-11.64-5.67-23.69-4.48-34.15-2.53-5.83,1.33-9.45,2.5-11.74,3.46-1.46-1.46-3.03-2.84-4.74-4.07-.97-.67-6.37-4.22-14.15-5.76-.48-2.22-.98-3.96-1.26-4.88-.01-.05-.23-.79-.25-.84-1.29-3.88-4.26-11.63-9.68-19.89-6.8-10.34-15.02-17.72-24.49-21.96-15.15-6.65-29.01-3.93-42.64,8.55-6.19,6.4-11.53,14.18-15.87,23.1-.54,1.12-4.52,10.56-4.96,11.86-1.56,4.27-6.56,19.27-5.14,33.03.89,10.47,5.87,20.98,13,27.42.12.11.54.44.67.53,7.94,6.03,16.67,9.07,25.99,9.07,1.13,0,2.27-.05,3.42-.13,12.05-.93,21.23-4.61,21.51-4.72,1.18-.45,2.22-.93,3.33-1.4,3.32,4.59,7.6,8.48,12.65,11.05,6.29,3.17,11.23,4.29,15.81,4.29.67,0,1.31-.14,1.97-.18.25.54.51,1.09.92,1.73,9.83,18.52,24.19,24.87,33.25,24.47.58.03,1.17.05,1.76.05,15.78,0,33.72-11.18,44.46-28.18l.53-.88c3.53-5.77,8.87-14.5,9.85-31.67Z"/>
          <path class="cls-2" d="M390.94,221.05c.07-12.48-5.34-22.53-15.6-29.03-.69-.44-1.39-.87-2.1-1.27-.77-.43-1.55-.85-2.34-1.22-11.64-5.67-23.69-4.48-34.15-2.53-5.83,1.33-9.45,2.5-11.74,3.46-1.46-1.46-3.03-2.84-4.74-4.07-.97-.67-6.37-4.22-14.15-5.76-.48-2.22-.98-3.96-1.26-4.88-.01-.05-.23-.79-.25-.84-1.29-3.88-4.26-11.63-9.68-19.89-6.8-10.34-15.02-17.72-24.49-21.96-15.15-6.65-29.01-3.93-42.64,8.55-6.19,6.4-11.53,14.18-15.87,23.1-.54,1.12-4.52,10.56-4.96,11.86-1.56,4.27-6.56,19.27-5.14,33.03.89,10.47,5.87,20.98,13,27.42.12.11.54.44.67.53,7.94,6.03,16.67,9.07,25.99,9.07,1.13,0,2.27-.05,3.42-.13,12.05-.93,21.23-4.61,21.51-4.72,1.18-.45,2.22-.93,3.33-1.4,3.32,4.59,7.6,8.48,12.65,11.05,6.29,3.17,11.23,4.29,15.81,4.29.67,0,1.31-.14,1.97-.18.25.54.51,1.09.92,1.73,9.83,18.52,24.19,24.87,33.25,24.47.58.03,1.17.05,1.76.05,15.78,0,33.72-11.18,44.46-28.18l.53-.88c3.53-5.77,8.87-14.5,9.85-31.67ZM262.41,231.57c-.08.03-8.08,3.2-18.37,4-11.87.91-19.45-4.84-21.88-6.66-5-4.53-8.79-12.66-9.45-20.34-1.18-11.51,3.16-24.52,4.61-28.48.39-1.06,3.95-9.57,4.44-10.59,3.84-7.89,8.52-14.72,13.66-20.06,10.24-9.37,19.41-11.29,30.57-6.38,7.49,3.36,14.15,9.4,19.77,17.96,4.92,7.49,7.54,14.61,8.32,16.9l.28.99c.1.33.23.76.37,1.26-3.12.38-6.39,1.21-9.76,2.67-.86.37-1.62.86-2.44,1.29-1.82-1.99-4.05-3.77-6.3-5.03-6.73-3.79-14.11-3.84-20.25-.13-6.59,4-10.46,11.71-9.86,19.44.23,6.03,2.69,11.16,7.12,14.82,2.87,2.37,6.27,3.78,9.4,4.6,0,.53-.07,1.05-.06,1.58.03,3.82.78,7.6,2.04,11.21-.76.31-1.43.63-2.24.94ZM264.12,206.88c-1.43-.51-2.96-1.24-4.22-2.39-1.79-1.63-2.7-3.75-2.82-6.7-.29-3.87,1.51-7.59,4.61-9.47,2.17-1.32,4.47-1.53,7.04-.66,2.02.68,3.67,1.86,4.9,2.98-4.48,4.46-7.75,9.99-9.5,16.23ZM306.89,243.27c-7.63,2.01-11.53,2.43-19.54-1.62-8.18-4.17-13.72-13.13-13.78-22.46-.43-11.82,5.62-21.89,15.78-26.29,3.44-1.49,6.75-2.04,9.77-2.05,8.05,0,14.03,3.93,14.85,4.49,9.03,6.49,13.34,17.88,10.69,28.51-2.49,11.49-10.8,17.57-17.75,19.43ZM371.63,247.21l-.6,1.01c-8.69,13.74-23.71,23.26-36.56,22.57-6.52.09-15.93-5.16-23.02-17.53,4.14-1.36,8.46-3.71,12.35-7.14,1.96,1.41,4.3,2.61,7,3.2,1.02.22,2.2.38,3.49.38,3.21,0,7.18-.98,11.47-4.38,4.8-4.81,6.43-10.35,4.84-17.49-2.82-8.54-9.53-11.12-14.31-12.03-.27-5.63-1.81-11.14-4.48-16.14,2.05-.65,4.64-1.36,7.15-1.93,8.49-1.57,18.35-2.62,27.19,1.67.59.28,1.14.58,1.7.89.53.3,1.04.61,1.59.96,7.15,4.53,10.61,10.99,10.57,19.46-.82,14.14-4.94,20.88-8.38,26.5ZM335.17,226.78c2.53.61,4.13,1.69,4.89,3.94.65,2.96.13,4.69-1.56,6.43-1.71,1.35-3.44,1.83-5.18,1.51-.94-.17-1.76-.56-2.49-1,1.88-3.16,3.39-6.77,4.33-10.89Z"/>
        </g>
      </g>
    </g>
    <g>
      <path class="cls-7" d="M129.99,120.98c-1.08-1.11-2.71-3.37-3.59-4.58l-.33-.46,4.11-5.11c1.22-1.45.98-2.66.73-3.25-.51-1.19-1.75-1.68-2.75-1.74-.04,0-.08,0-.13,0h-11.25c3.69-6.82,6.3-13.51,8.14-19.47,5.81-18.81,5.41-34.06,5.37-35.19l.22-48.88c0-1.13-.9-2.04-2.03-2.05l-51.54-.24L25.41.24c-1.13,0-2.03.92-2.03,2.05l.22,48.88c-.04,1.13-.44,16.38,5.37,35.19,1.84,5.96,4.45,12.65,8.14,19.47h-11.36s-.08,0-.13,0c-.99.06-2.24.55-2.74,1.74-.25.59-.5,1.8.7,3.21l4.14,5.15-.32.44c-.88,1.22-2.53,3.49-3.61,4.61-.07.07-.13.14-.18.21-.65.88-1.11,2.26-.45,3.46.39.72,1.26,1.56,3.18,1.45,1.77-.1,8.4-.1,11.01-.09v6.07c-.03.5,0,1.64.86,2.62.51.58,1.47,1.27,3.16,1.27.04,0,.08,0,.12,0,.99-.02,8.48-.02,21.42-.01,3.36,2.51,7.01,4.86,10.98,7.02.44.32,1.45.92,2.84.99h.09s.04,0,.06,0h.02s.25,0,.28,0c1.38-.06,2.38-.66,2.82-.98,3.97-2.15,7.62-4.51,10.98-7.02,12.87,0,20.32,0,21.31.01,1.78.04,2.76-.67,3.28-1.27.86-.98.9-2.12.86-2.62v-6.07c2.61,0,9.25-.01,11.01.09,1.92.11,2.79-.73,3.18-1.45.65-1.2.2-2.58-.45-3.46-.06-.08-.12-.15-.18-.22Z"/>
      <g>
        <path class="cls-5" d="M124.27,116.94c-.78-1.06,0-2.03,0-2.03l4.35-5.4c1.29-1.53-.59-1.64-.59-1.64h-14.69c16.03-27.39,14.91-56.67,14.91-56.67l.22-48.93-51.52-.24-51.52.24.22,48.93s-1.12,29.28,14.91,56.67h-14.8s-1.88.12-.59,1.64l4.34,5.4s.78.97,0,2.03c-.78,1.06-2.85,4.01-4.26,5.46,0,0-1.32,1.8.97,1.67,2.29-.13,12.19-.09,12.19-.09,0,0,.97.09.97,1.14v7.04s-.26,1.81,2.07,1.76c1.28-.02,12.36-.02,22.11-.01,3.49,2.63,7.29,5.1,11.44,7.34,0,0,.73.62,1.8.67h.09s.14,0,.19,0c1.08-.05,1.8-.67,1.8-.67,4.15-2.24,7.95-4.71,11.44-7.34,9.72,0,20.72,0,22,.01,2.33.04,2.07-1.76,2.07-1.76v-7.04c0-1.06.97-1.14.97-1.14,0,0,9.91-.04,12.2.09,2.29.13.97-1.67.97-1.67-1.41-1.45-3.48-4.4-4.26-5.46ZM44.26,113.7c.55.8,1.12,1.6,1.71,2.39h-4.25l2.54-2.39ZM107.92,116.09c.57-.77,1.13-1.55,1.67-2.33l2.47,2.33h-4.14Z"/>
        <g>
          <g>
            <g>
              <path class="cls-6" d="M75.08,133.93c-1.76,0-4.05,0-6.61,0,4.14,2.7,6.85,3.67,6.85,3.67v-3.66c-.16,0-.25,0-.25,0h0Z"/>
              <path class="cls-6" d="M75.32,116.09v-45.22c0-1.8-1.54-1.59-1.54-1.59h-41.19c-2.02,0-1.4,1.72-1.4,1.72,4.26,20.51,11.51,34.99,18.91,45.08h25.22Z"/>
            </g>
            <path class="cls-6" d="M80.58,66.86h42.1c.29,0,.77.1.81-.17,1.1-8.36,1.19-41.46,1.19-41.46,0-1.1-.9-2-2-2h-42.1c-1.1,0-2,.9-2,2v39.64c0,1.1.9,2,2,2Z"/>
          </g>
          <g>
            <path class="cls-7" d="M73.5,23.23H31.41c-1.1,0-2,.9-2,2,0,0,0,2.56.04,6.44,1.22-1.06,4.81-2.71,5.69-2.85,5.1-.84,10.2-1.73,15.28-2.66,1.78-.33,3.42-.04,4.72,1.15,2.84,2.61,5.94,2.67,9.28,1.29.76-.31,1.52-.55,2.54-.24-.52.62-1,1.18-1.47,1.74l.08.1c2.04-.04,3.76-1.37,6.15-1.55-1.42,2.23-3.4,3.51-5.12,4.95-1.32,1.1-1.41,2.04-.84,3.42.75,1.81,1.5,3.51,3.38,4.57,2.32,1.31,2.2,3.53-.16,4.97-.86.53-1.68,1.06-2.47,1.7-1.55,1.26-3.24.56-4.37-.55-1.47-1.44-3.01-1.64-4.78-1.21-1.26.3-2.25.19-2.95-1.33-.11,1.9-1.55,2.59-2.35,3.72-.65.92-.5,1.32.6,1.38.61.04,1.21.06,1.82.08,2.88.12,4.19,2.09,3.21,4.85-.68,1.9-1.49,3.76-2.03,5.7-.42,1.52-1.24,2.03-2.6,1.48-1.4-.56-2-.05-2.26,1.27-.37,1.92-1.97,1.48-3.22,1.57-.69.05-.64-.52-.41-1.01.52-1.09,1.1-2.16,1.56-3.27.45-1.08,1.37-1.02,2.21-.96,1.67.12,2.23-.53,2.15-2.22-.17-3.56-.08-3.52-3.46-3.04-1.3.18-2.59.87-3.95.19-.27-.14-.48,0-.64.29-1.57,2.73-4.25,4.44-6.29,6.74-1.48,1.67-3.46,2.52-5.39,3.45-.79.38-2.09.92-2.83.67.02.21.05.42.07.61.03.27.52.17.81.17h42.1c1.1,0,2-.9,2-2V25.23c0-1.1-.9-2-2-2Z"/>
            <g>
              <path class="cls-7" d="M89.06,116.09c.62-.16.96-.58,1.1-1.47.73-4.91,1.42-9.84,2.4-14.7.57-2.82-.22-5.37-.66-8.32-.74.92-.78,1.71-.76,2.49.03,1.02-.45,1.6-1.38,1.98-2.06.84-3.1.45-5.1-1.56-1.45-1.46-.1-2.43.35-3.57.19-.49.56-.92.81-1.4.4-.76,1.12-1.58.3-2.38-.69-.67-1.66-.69-2.64-.54-.73.11-1.58,1.13-2.16.22-.52-.81.37-1.62.8-2.35.31-.51.73-.96,1.18-1.37.6-.54.8-1,.1-1.64-1.98-1.83-1.22-3.92-.76-6.03.91.13.87,1.23,1.68,1.13.17-.96.31-1.8.47-2.72l.02-.09c.09-.53.37-1.05.9-.59.97.84,1.42.54,1.97-.35l.05-.08c.3-.49.78-.81,1.3-.19.25.3.39.68.87.14.93-1.03,1.62-.57,2.14.49.26.54.51,1.22,1.32.66.7-.48,1.4-1.6,2.16-1.18.97.54-.32,1.69.07,2.58.03.06.07.11.08.13,1.05.22,1.81-.84,3.07-.64-.32,1.22-1.35,1.96-1.51,3.2.76.52,1.93-.22,2.24.72.28.84-.58,1.4-1.17,1.94-1.16,1.08-.88,2.02.35,2.76,4.15,2.5,7.96,5.49,11.85,8.36.82.61,1.68,1.17,2.72,1.22.79.04,2.48.68,2.49.69,2.61-6.57,4.9-14.07,6.68-22.62,0,0,.62-1.72-1.4-1.72h-41.19s-1.54-.22-1.54,1.59v45.22h10.81Z"/>
              <path class="cls-7" d="M78.7,133.94s-.16,0-.46,0v3.66s2.72-.98,6.85-3.67c-2.47,0-4.68,0-6.39,0h0Z"/>
            </g>
          </g>
          <g>
            <g>
              <path class="cls-4" d="M59.81,78.23c.39,1.59-.55,2.59-1.94,3.49.98.32,1.29,1.46,2.42,1.33-.4-2.69.05-3.34,2.4-3.58,0,.25.09.66-.02.73-.54.31-1.2.59-.71,1.32.49.73,1.22.98,2.04.38.8-.89.82-4.51.03-5.38-2.26-2.48-3.48-2.49-6.27-.03,1.28-.08,1.82.74,2.07,1.74Z"/>
              <path class="cls-4" d="M70.12,92.41c-5.04.84-10.12,1.34-15.23.99-3.33-.23-6.64-.68-10.32-1.07,1.05,2.18,2.08,3.82,4.53,3.72.75-.03,1.51.04,1.46,1.16-.05,1.06-.71,1.13-1.52,1.1-.6-.02-1.21,0-1.82,0-.54.01-.91.21-.9.82,0,.57.05,1.11.76,1.21.4.06.82.12,1.21.05,2.05-.36,2.33.73,2.24,2.43-.16,3.08-.17,6.18-.26,9.26-.03,1.14.46,1.84,1.61,1.86,1.32.03,1.2-1,1.2-1.88,0-3.36.05-6.73-.02-10.09-.02-1.21.34-1.67,1.6-1.63,2.35.08,4.71.12,7.06,0,1.58-.08,1.91.56,1.89,2-.05,3.29.1,6.59.1,9.88,0,1.14.61,1.31,1.54,1.35,1.08.06,1.19-.53,1.17-1.39-.04-2.62,0-5.25-.06-7.87-.03-1.13-.65-2.34-.1-3.36.68-1.27,2.07-.38,3.13-.58.67-.13.93-.47.95-1.07.02-.72-.31-1.13-1.09-1.1-.67.02-1.34,0-2.01-.03-.56-.02-1.26.18-1.28-.79-.02-.89.29-1.46,1.27-1.37,1.75.15,2.85-.83,3.78-2.13.3-.42.92-.79.58-1.37-.34-.58-.98-.23-1.47-.14ZM54.8,98.27c-.69.03-1.71.32-1.68-1.02.03-1.41,1.1-.72,1.75-.91.65.2,1.73-.47,1.78.9.05,1.5-1.13.99-1.85,1.02ZM61.6,98.3c-.77-.09-1.71.26-1.67-.95.07-1.8,1.49-.73,2.27-1,.68-.24,1.37-.16,1.36.85-.02,1.64-1.34.79-1.96,1.1Z"/>
              <path class="cls-4" d="M49.93,75.55c.37-.18.42-.59.16-.83-.2-.18-.76-.05-.87-.24-.31-.49.06-.73.53-.73.7,0,1.2.44,1.25,1.07.07.92.43.96,1.15.65.29-.13.68-.17.98-.09,1.15.33,2.15.55,2.24-1.2.02-.36.55-.81,1.08-.72.4.07.57.42.68.87.11.43-1.04.58-.18.97.45.21.95-.02,1.27-.4.37-.42.99-.74.73-1.5-.31-.88-.81-1.53-1.81-1.65-1.91-.22-3.82-1.12-5.24.08-1.93-.2-2.96.49-4.01,1.46-.76.7-.51,1.11-.07,1.69.56.74,1.27.95,2.1.55Z"/>
              <path class="cls-4" d="M57.17,79.79c.87,1.3,1.54.55,1.91-.24.45-.94.19-1.77-.99-2.18-1.56-.54-3.25-.45-4.8-1.14-.75-.34-1.74.11-2.11,1.06-.14.37-.25,1.15.52.89,1.76-.59,2.07.85,2.55,1.81.74,1.46,1.59,2.73,3.54,3.81-.52-1.49-1.3-2.31-1.33-3.38-.02-.59.49-.96.71-.62Z"/>
              <path class="cls-4" d="M45.65,86.16c.21-.36.24-.74-.03-1.13-.25-.38-.94-.07-1.03-.66.78-.6,1.53.12,2.34-.02,2.98-.5,2.99-.43,3.92,2.36.34-.47.61-.9.94-1.29.22-.26.5-.14.67.08.11.13.21.47.16.51-.4.32-1.11.66-.08.97.71.21,1.04-.36,1.09-1.06.04-.62-2.03-3.27-2.72-3.26-2.06.03-4.13-1.07-6.22.29-.7.46-1.16.85-1.22,1.61-.06.82.44,1.38,1.12,1.76.37.21.79.28,1.06-.17Z"/>
              <path class="cls-4" d="M48.1,81.01c.73.19,1.43-.12,1.93-.85.13-.19.2-.54.11-.71-.1-.18-.42-.29-.66-.33-.36-.06-.64,1.29-1.03.13-.24-.72.35-1.08,1.06-1.04.77.04.83-.45.87-1.03.06-.93-.6-.67-1.09-.67-.71,0-1.28-.33-1.79-.78-.48-.42-1.04-.5-1.4.02-.79,1.14-1,2.47-.64,3.78.32,1.18,1.25,1.67,2.64,1.48Z"/>
              <path class="cls-4" d="M65.67,81.83c2.32-.44,2.5-1.66,1.51-3.46.73.54,1.16,1.21,2.01.92.55-.18.8-.68.9-1.23.12-.59-.07-1.24-.61-1.33-.96-.17-1.66-.8-2.51-1.13-1.49-.59-2.1,0-1.91,1.63.18,1.54.89,2.98.6,4.61Z"/>
              <path class="cls-4" d="M74.66,85.01c-.69-1.48-1.92-2.52-3.47-3.07-.45-.16-.89.19-1.16.61-.29.44-.27.88-.01,1.32.19.32.43.44.82.35,1.75-.4,2.07.15,1.77,1.94-.33,1.96-2.01,1.51-3.5,2.17,2.05,1.17,3.29.31,4.45-.77.73-.68,1.62-1.45,1.1-2.56Z"/>
              <path class="cls-4" d="M42.59,78.35c-.74-.68-1.5-.32-2.2.13-1.3.81-2.02,3.78-1.21,5.05.09.14.3.27.46.27.45,0,.46-.37.5-.71.09-.83-.2-1.78.78-2.41.74.35-.05,1.81,1,1.39.74-.3,1.37-1.29,1.69-2.12.24-.61-.54-1.16-1.01-1.6Z"/>
              <path class="cls-4" d="M38.99,75.16c.23.14.5.29.65-.06.16-.37-.1-.61-.36-.83-1.05-.9-2.84-.34-3.67,1.14-.93,1.66-.64,3.33.1,5.09.17-.89,1.62-1.42,1.19-2.14-1.63-2.73,1.91-1.82,2.09-3.19Z"/>
              <path class="cls-4" d="M49.86,86.19c-.03-.84-.33-1.24-1.18-1.22-.6,0-1.26-.07-1.54.63-.31.81.29,1.26.84,1.62.65.44,1.32.93,2.41.71-.21-.65-.51-1.19-.54-1.74Z"/>
              <path class="cls-4" d="M41.29,77s.91.3,1.38.04c.68-.38.82-1.05.61-1.72-.27-.87-.85-1.47-1.88-1.63-.2.05-.54.02-.69.17-1.14,1.23,2.03,1.74.58,3.14Z"/>
              <path class="cls-4" d="M73.03,75.38c.35-.67.8-1.68.16-2.66-.22-.35-1.03-.77-.96-.2.12,1.06-.6.77-1,.97-.76.39-.68,1.02-.51,1.62,1.27-1.36,1.81-1.24,2.31.27Z"/>
              <path class="cls-4" d="M69.04,84.7c-.88,0-.94.79-.97,1.44-.03.7.45,1.19,1.06,1.2.89,0,.81-.64.49-1.35.32-.59.42-1.29-.59-1.28Z"/>
              <path class="cls-4" d="M52.7,89.12c-1.16.3-2.33-.85-3.75.06,1.44.72,2.61.38,3.75-.06Z"/>
              <path class="cls-4" d="M40.55,77.06c.15-.29-.19-.47-.46-.44-.84.11-1.1.73-1.38,1.55,1.02.05,1.51-.47,1.84-1.11Z"/>
            </g>
            <g>
              <path class="cls-4" d="M92.39,35.15c-3.58-.41-6.82,2.2-7.22,5.83-.41,3.63,2.17,6.9,5.76,7.31-1.79-.21-3.08-1.84-2.88-3.66.2-1.81,1.82-3.12,3.61-2.91,1.79.2,3.41-1.1,3.61-2.91.2-1.81-1.09-3.45-2.88-3.66ZM92.86,39.47c-.63,0-1.14-.51-1.14-1.14s.51-1.14,1.14-1.14,1.14.51,1.14,1.14-.51,1.14-1.14,1.14Z"/>
              <path class="cls-4" d="M98.03,56.22c-.49-1.76.51-3.58,2.25-4.08,1.73-.5,2.74-2.33,2.25-4.08-.49-1.76-2.3-2.78-4.03-2.28-3.47,1-5.49,4.65-4.5,8.16.98,3.51,4.6,5.55,8.07,4.56-1.74.5-3.54-.52-4.03-2.28ZM100.36,47.29c.7,0,1.26.57,1.26,1.27s-.57,1.27-1.26,1.27-1.27-.57-1.27-1.27.57-1.27,1.27-1.27Z"/>
              <g>
                <path class="cls-4" d="M111.95,63.1c-1.11-1.44-.87-3.51.55-4.64,1.42-1.13,1.67-3.21.55-4.64-1.11-1.44-3.17-1.69-4.59-.56-2.84,2.25-3.33,6.41-1.11,9.28,2.09,2.69,5.81,3.27,8.61,1.48-1.36.69-3.05.34-4.03-.92ZM109.49,55.31c0-.7.57-1.27,1.27-1.27s1.26.57,1.26,1.27-.57,1.26-1.26,1.26-1.27-.57-1.27-1.26Z"/>
                <path class="cls-4" d="M115.98,64.02c.19-.1.38-.22.56-.36-.18.14-.37.24-.56.36Z"/>
              </g>
              <g>
                <path class="cls-4" d="M124.41,47.04c-.64.05-1.27.1-1.92.1-12.43,0-22.5-10.19-22.5-22.77,0-.39.04-.76.06-1.14h-5.65c-.01.38-.03.76-.03,1.14,0,15.72,12.59,28.46,28.13,28.46.6,0,1.19-.03,1.78-.06.06-1.87.1-3.8.14-5.73Z"/>
                <path class="cls-4" d="M122.67,23.23h-18.13c-.02.38-.06.76-.06,1.14,0,10.06,8.06,18.22,18,18.22.68,0,1.35-.05,2.01-.12.15-9.17.18-17.24.18-17.24,0-1.1-.9-2-2-2Z"/>
              </g>
              <path class="cls-4" d="M81.85,25.46c-1.74,3.2-.58,7.22,2.59,8.98-1.58-.88-2.16-2.89-1.29-4.49.87-1.6,2.85-2.19,4.43-1.31,1.58.88,3.57.29,4.43-1.31.76-1.4.41-3.1-.74-4.1h-7.44c-.8.56-1.48,1.31-1.98,2.23ZM89.61,24.77c.63,0,1.14.51,1.14,1.14s-.51,1.14-1.14,1.14-1.14-.51-1.14-1.14.51-1.14,1.14-1.14Z"/>
              <path class="cls-4" d="M123.58,65.82c.18-1.75.34-4.24.46-7.11-.13.05-.27.08-.41.08-.7,0-1.27-.57-1.27-1.26s.57-1.27,1.27-1.27c.18,0,.35.04.51.11.02-.47.03-.94.05-1.43-1.41-.39-2.95.2-3.7,1.55-1.78,3.18-.68,7.21,2.45,9.01.21.12.42.22.63.32Z"/>
            </g>
          </g>
        </g>
        <g>
          <g>
            <rect class="cls-7" x="28.97" y="5.38" width="95.7" height="14.8"/>
            <g>
              <path class="cls-7" d="M112.41,109.45h13.76s-2.04,3.2-4.25,5.62c0,0-1.17.77,0,2,.95,1,4.35,5.26,4.35,5.26h-11.89v-4.84s-.1-1.99-1.16-2.73c-1.05-.74-2.5-2.23-2.5-2.23l1.7-3.09Z"/>
              <rect class="cls-7" x="41.4" y="118.33" width="71" height="13.42"/>
              <path class="cls-7" d="M41.37,109.45h-13.76s2.04,3.2,4.25,5.62c0,0,1.17.77,0,2-.95,1-4.35,5.26-4.35,5.26h11.89v-4.84s.11-1.99,1.16-2.73c1.05-.74,2.5-2.23,2.5-2.23l-1.7-3.09Z"/>
            </g>
          </g>
          <g>
            <g>
              <path class="cls-5" d="M38.18,7.6v3.77h-1.09v-2.68h-.87v7.97h.81v1.24h-3.09v-1.24h.82v-7.97h-.88v2.68h-1.09v-3.77h5.38Z"/>
              <path class="cls-5" d="M42.43,17.9v-1.24h.76v-7.82h-.76v-1.24h4.75v3.01h-1.24v-1.77h-1.28v3.13h1.04v1.24h-1.04v3.45h1.28v-1.92h1.24v3.16h-4.75Z"/>
              <path class="cls-5" d="M54.26,14.18v-1.24h2.21v.94c0,1.33-.2,2.36-.61,3.1-.41.74-.98,1.1-1.71,1.1-.36,0-.69-.1-1-.31-.31-.2-.57-.51-.78-.93-.21-.42-.36-.93-.43-1.54-.08-.61-.12-1.43-.12-2.47,0-1.87.17-3.24.5-4.1.33-.86.86-1.29,1.57-1.29.4,0,.77.18,1.11.56v-.39h1.24v3.34h-1.24c0-1.44-.28-2.15-.83-2.15-.21,0-.37.1-.47.29-.11.19-.18.55-.22,1.09-.05.54-.07,1.36-.07,2.47,0,1.21.02,2.09.06,2.65.04.56.11.93.22,1.13.1.2.27.3.49.3.32,0,.53-.22.63-.64.1-.43.15-1.06.15-1.9h-.7Z"/>
              <path class="cls-5" d="M60.93,17.9v-1.24h.76v-7.82h-.76v-1.24h4.75v3.01h-1.24v-1.77h-1.28v3.13h1.04v1.24h-1.04v3.45h1.28v-1.92h1.24v3.16h-4.75Z"/>
              <path class="cls-5" d="M72.39,17.98l-1.73-9.14h-.71v-1.24h2.85v1.24h-.7c.56,2.73.86,4.84.9,6.32h.03c.04-1.34.33-3.44.87-6.32h-.7v-1.24h2.71v1.24h-.74l-1.67,9.14h-1.12Z"/>
              <path class="cls-5" d="M81.68,14.32l-.26,2.34h.66v1.24h-2.76v-1.24h.64l1.13-7.82h-.72v-1.24h3.82v1.24h-.72l1.14,7.82h.64v1.24h-2.75v-1.24h.65l-.25-2.34h-1.23ZM81.77,13.08h1.05l-.44-4.6h-.17l-.44,4.6Z"/>
              <path class="cls-5" d="M89.54,8.84v-1.24h2.91v1.24h-.74v9.48c0,1.35-.57,2.02-1.71,2.02-.2,0-.43-.03-.7-.09v-1.2c.17.04.3.05.3.05.33,0,.48-.07.55-.21.07-.14.11-.39.11-.74v-9.3h-.72Z"/>
              <path class="cls-5" d="M98.74,14.32l-.26,2.34h.66v1.24h-2.75v-1.24h.64l1.13-7.82h-.72v-1.24h3.82v1.24h-.72l1.14,7.82h.64v1.24h-2.75v-1.24h.65l-.25-2.34h-1.23ZM98.82,13.08h1.05l-.44-4.6h-.16l-.44,4.6Z"/>
              <path class="cls-5" d="M108.75,13.23v3.43h.77v1.24h-3.09v-1.24h.87v-7.82h-.87v-1.24h2.58c.87,0,1.56.26,2.06.77.51.51.76,1.18.76,2.03,0,1.09-.41,1.9-1.23,2.43l1.12,3.84h.62v1.24h-1.75l-1.26-4.72c-.15.03-.34.04-.58.04ZM108.75,8.84v3.14c.55,0,.95-.13,1.19-.38.24-.25.36-.66.36-1.21,0-.58-.13-.99-.37-1.21-.24-.22-.64-.34-1.19-.34Z"/>
              <path class="cls-5" d="M121.22,12.81c0,3.51-.79,5.26-2.38,5.26-.81,0-1.41-.44-1.81-1.3-.39-.87-.59-2.19-.59-3.96,0-1.19.1-2.18.28-2.98.19-.8.46-1.4.82-1.8.36-.4.79-.6,1.29-.6.76,0,1.35.45,1.76,1.35.41.9.62,2.24.62,4.03ZM118.04,12.86c0,1.49.05,2.51.17,3.05.11.54.33.81.63.81s.51-.27.62-.81c.11-.54.17-1.55.17-3.03,0-1.62-.05-2.7-.16-3.26-.1-.56-.31-.83-.63-.83s-.55.31-.65.91c-.1.61-.15,1.67-.15,3.16Z"/>
            </g>
            <g>
              <path class="cls-5" d="M47.75,129.32v-1.03h.64v-6.5h-.64v-1.03h2.54l.33,1.81c.05.25.09.59.13,1.03l.15,1.6h.03l.18-1.4c.07-.55.14-1.02.2-1.4l.27-1.63h2.56v1.03h-.64v6.5h.65v1.03h-2.51v-1.03h.64v-4.34l.09-2.31h-.11l-.39,2.93-.81,4.75h-.37l-.79-4.4-.44-3.28h-.11l.07,2.29v4.36h.64v1.03h-2.32Z"/>
              <path class="cls-5" d="M57.69,129.32v-1.03h.65v-6.5h-.65v-1.03h2.52v1.03h-.66v6.5h.66v1.03h-2.52Z"/>
              <path class="cls-5" d="M64.88,129.32v-1.03h.6v-2.75l-1.38-3.75h-.55v-1.03h2.32v1.03h-.56l.79,2.3h.02l.74-2.3h-.55v-1.03h2.2v1.03h-.55l-1.26,3.64v2.86h.61v1.03h-2.42Z"/>
              <path class="cls-5" d="M73.17,126.35l-.21,1.94h.54v1.03h-2.29v-1.03h.53l.94-6.5h-.6v-1.03h3.17v1.03h-.6l.94,6.5h.54v1.03h-2.29v-1.03h.55l-.21-1.94h-1.02ZM73.25,125.31h.87l-.37-3.82h-.14l-.37,3.82Z"/>
              <path class="cls-5" d="M79.67,129.32v-.98l2.17-6.55h-1.05v1.8h-1.03v-2.83h3.33v1.03l-2.18,6.5h1.17v-1.82h1.03v2.85h-3.43Z"/>
              <path class="cls-5" d="M88.56,126.35l-.21,1.94h.54v1.03h-2.29v-1.03h.53l.94-6.5h-.6v-1.03h3.17v1.03h-.6l.94,6.5h.54v1.03h-2.29v-1.03h.55l-.21-1.94h-1.02ZM88.64,125.31h.87l-.37-3.82h-.14l-.37,3.82Z"/>
              <path class="cls-5" d="M95.02,129.32v-1.03h.61v-6.5h-.61v-1.03h2.31v1.03h-.49v6.5h.49v1.03h-2.31ZM97.63,129.32v-1.03h.55l-1.23-3.39,1.18-3.11h-.52v-1.03h2.16v1.03h-.55l-1.11,2.89,1.31,3.61h.57v1.03h-2.34Z"/>
              <path class="cls-5" d="M103.26,129.32v-1.03h.65v-6.5h-.65v-1.03h2.52v1.03h-.66v6.5h.66v1.03h-2.52Z"/>
            </g>
          </g>
        </g>
      </g>
    </g>
  </g>
</svg>