<?xml version="1.0" encoding="UTF-8"?>
<svg id="_レイヤー_2" data-name="レイヤー 2" xmlns="http://www.w3.org/2000/svg" xmlns:xlink="http://www.w3.org/1999/xlink" viewBox="0 0 426.45 446.17">
  <defs>
    <style>
      .cls-1 {
        fill: none;
      }

      .cls-2 {
        fill: #221815;
      }

      .cls-3 {
        fill: #eddd59;
      }

      .cls-4 {
        fill: #ffe100;
      }

      .cls-5 {
        fill: #009d42;
      }

      .cls-6 {
        fill: #fff;
      }

      .cls-7 {
        fill: #eb6100;
      }

      .cls-8 {
        fill: #1f2c5c;
      }

      .cls-9 {
        clip-path: url(#clippath);
      }
    </style>
    <clipPath id="clippath">
      <path class="cls-1" d="M390.94,221.19c.07-12.49-5.34-22.53-15.6-29.03-.69-.44-1.39-.87-2.1-1.27-.77-.43-1.55-.85-2.34-1.22-11.64-5.67-23.69-4.48-34.15-2.53-5.83,1.33-9.45,2.5-11.74,3.46-1.46-1.46-3.03-2.84-4.74-4.07-.97-.67-6.37-4.22-14.15-5.76-.48-2.22-.98-3.97-1.26-4.88-.01-.05-.23-.79-.25-.84-1.29-3.88-4.26-11.63-9.68-19.89-6.8-10.34-15.02-17.72-24.49-21.96-15.15-6.65-29.01-3.93-42.64,8.55-6.19,6.4-11.53,14.18-15.87,23.1-.54,1.12-4.52,10.56-4.96,11.86-1.56,4.27-6.56,19.27-5.14,33.03.89,10.47,5.87,20.97,13,27.42.12.11.54.44.67.53,7.94,6.03,16.67,9.07,25.99,9.07,1.13,0,2.27-.05,3.42-.13,12.05-.93,21.23-4.61,21.51-4.72,1.18-.45,2.22-.93,3.33-1.4,3.32,4.59,7.6,8.48,12.65,11.05,6.29,3.17,11.23,4.29,15.81,4.29.67,0,1.31-.14,1.97-.18.25.54.51,1.09.92,1.73,9.83,18.53,24.19,24.87,33.25,24.48.58.03,1.17.05,1.76.05,15.78,0,33.72-11.18,44.46-28.18l.53-.88c3.53-5.77,8.87-14.5,9.85-31.66Z"/>
    </clipPath>
  </defs>
  <g id="_レイヤー_1-2" data-name="レイヤー 1">
    <g>
      <path class="cls-7" d="M426.45,228.66c0,117.76-84.41,196.43-213.22,196.43S0,346.42,0,228.66,95.46,15.44,213.22,15.44s213.22,95.46,213.22,213.23Z"/>
      <g>
        <g>
          <g>
            <path class="cls-2" d="M419.52,297.22c-1.3-.72-2.84-1.24-3.8-1.44-6.81-1.4-13.64-2.18-20.31-2.33-3.7-.09-7.16,0-10.49.16-1.79-20.11-8.09-39.31-19.27-58.27,1.62-9.72,2.12-22.36,2.53-32.66l.21-5.17c.84-18.75-5.88-43.26-14.38-52.47-2.12-2.29-5.31-4.04-8.12-4.45-21.54-3.21-49.87,5.35-81.73,24.67l-4-.6c-26.18-3.9-58.77-8.75-103.06,1.53-1.4.32-2.95.78-4.54,1.26-2.37.71-6.76,1.98-7.92,1.68-8.49-4.64-30.28-15.71-49.14-18.5-17.53-2.61-29.09.83-34.52,10.31-15.37,28.86-7.65,69.07-4.44,79.47-16,31.01-15.7,63.87-15.6,67.47-.01.84.03,1.72.04,2.58-.84.06-1.6.09-2.48.16-8.93.71-17.8,1.58-28.07,4.44-3.34.92-6.41,3.14-5.81,5.59.47,1.92,2.84,2.34,4.83,2.34,1.54,0,2.85-.25,2.89-.26,10.63-2.17,16.02-2.75,23.47-3.55l3.14-.34c.81-.09,1.61-.13,2.42-.2.81,9.68,2.85,19.99,6.48,30.18-4.44,1.67-9.56,3.89-15.71,7.07-.04.02-3.98,2.08-4.74,4.62-.23.78-.15,1.56.23,2.24.62,1.11,1.92,1.46,3.31,1.46,2.3,0,4.82-.95,4.86-.96,1.84-.81,3.57-1.58,5.21-2.31,3.72-1.66,6.96-3.05,10-4.23,3.93,8.9,9.09,17.53,15.73,25.34-6.84,3.95-15.09,9.33-24.43,16.6-1.94,1.52-3.19,3.45-3.41,5.32-.12,1.04.11,1.99.65,2.67.41.51,1.18.73,2.1.73,1.62,0,3.71-.68,5.14-1.7,10.26-7.27,19.16-12.89,26.15-17.04,7.51,7.31,16.5,13.67,27.22,18.49,35.27,15.84,67.77,19.4,108.95,20l4.04-.06,4.36.06c47.38-.7,84.81-7.46,111.26-20.11,15.35-7.34,27.56-17.24,36.7-29.54,7.64,2.61,16.9,6.62,25.83,12.66,1.14.79,3.45,2.17,5.5,2.17.92,0,1.79-.27,2.47-1.01.29-.3.61-.85.53-1.73-.17-1.86-2.23-4.46-3.56-5.43-9.12-6.66-18.29-10.95-26.01-13.74,5.25-8.67,9.17-18.37,11.72-29.12,5.64.9,12.22,2.35,19.44,4.77.04,0,2.17.71,4.26.71,1.57,0,3.11-.39,3.7-1.78.27-.63.26-1.33-.03-2.02-1.04-2.48-5.39-4.32-5.43-4.33-7.12-2.82-14.12-4.48-20.31-5.49,1.35-8.14,2.01-16.8,1.93-26,.02-1.57-.07-3.12-.1-4.67,2.94-.16,5.97-.26,9.16-.22,4.96.05,10.48.42,15.35.74,1.52.1,2.99.19,4.4.28,3.19.18,7.1-.41,7.57-2.73.17-.81-.11-2.03-2.36-3.29Z"/>
            <path class="cls-6" d="M354.53,235.35c1.76-9.13,2.29-22.42,2.71-33.11l.22-5.23c.76-16.97-5.67-38.25-11.49-44.55-.51-.56-1.4-.99-1.72-1.06-18.78-2.76-45.27,5.51-74.57,23.31-2.08,1.26-3.22,1.95-5.23,1.65l-5.91-.87c-25.25-3.76-56.69-8.45-98.98,1.36-1.2.27-2.52.68-3.88,1.08-5.38,1.6-11.46,3.43-16.3.79-7.98-4.35-28.38-14.75-45.5-17.28-12.59-1.85-20.45-.25-23.34,4.78-10.47,19.65-8.42,46.45-5.73,61.45.72-.85,1.42-1.62,2.07-2.27,2.63-2.63,5.32-3.6,7.16-2.33,1.91,1.32,1.15,4.66-.08,7.33-1.22,2.65-3.69,7.76-5.63,11.18,0,0,0,.01,0,.02-16.85,29.6-16.54,62.53-16.45,66.2,0,.74.03,1.51.04,2.26,9.31.02,14.99,1,17.89,1.74l.21.05c.06.01,7.62,1.41,7.18,5.04-.39,3.23-4.98,2.99-7.2,2.87l-.82-.06c-2.44-.37-8.96-1.24-16.86-1.4.79,8.79,2.71,18.09,6.01,27.25,4.52-1.04,7.71-1.28,9.83-1.4l.29-.02c2.79-.15,9.39-.25,9.73,3.07.3,2.87-4.87,4.24-7.11,4.7-1.04.21-2.16.36-3.41.53-1.75.24-3.74.52-6.09,1.02,3.77,8.24,8.76,16.15,15.14,23.24,6.63-3.22,10.45-4.39,10.53-4.42.06-.03,6.57-1.68,7.84,1.28,1.09,2.56-1.67,3.92-4.33,5.24-.85.42-1.74.86-2.55,1.35,0,0-.09.05-.26.13-1.03.51-2.75,1.4-5.02,2.62,6.17,5.56,13.32,10.43,21.71,14.2,33.54,15.07,64.84,18.45,104.45,19.04l4.04-.06,4.36.06c44.98-.67,81.88-7.25,106.54-19.04,12.36-5.91,22.38-13.54,30.16-22.9-3.71-.86-5.98-1.18-6.04-1.19-1.42-.14-5.85-1.17-7.34-3.19-.44-.61-.61-1.28-.47-1.94.75-3.62,7.32-2.9,10.09-2.43.35.03,3.75.38,9.03,1.65,5.2-7.94,9.03-16.98,11.53-27.1-2.33-.14-4.2-.17-5.48-.17-2.44.01-5.28-.05-5.28-.05-.74-.07-6.59-.76-6.82-3.68-.03-.39.05-1,.6-1.64,1.31-1.53,4.62-2.39,6.03-2.5l.31-.03c.84-.08,3.07-.3,5.31-.32h.61c1.62,0,3.81.05,6.42.22,1.29-7.68,1.93-15.9,1.86-24.75.01-1.24-.06-2.46-.09-3.69-6.85.85-12.47,1.97-16.3,2.74-1.96.39-3.38.68-4.24.78-1.38.2-2.56.3-3.55.3-2.31,0-3.58-.56-4-1.72-.29-.84-.23-1.74.18-2.59.74-1.52,2.53-2.81,5.19-3.71,2.09-.71,10.2-3.2,22.24-4.68-1.72-19.09-7.86-37.28-18.78-55.31-.7-1.16-.95-2.54-.69-3.87Z"/>
          </g>
          <g>
            <path class="cls-2" d="M115.31,317.03c-3.5,7.1-3.52,18.45,1.21,24.48,2.92,3.45,7.8,5.41,14.09,4.33,5.43-.94,8.52-5.9,9.55-9.85,2.23-8.84-.14-19.68-5.23-23.79-5.36-3.91-15.39-3.82-19.61,4.83Z"/>
            <path class="cls-2" d="M285.41,318.07c-3.5,7.1-3.52,18.45,1.21,24.48,2.92,3.45,7.8,5.41,14.09,4.33,5.43-.94,8.52-5.9,9.55-9.85,2.23-8.84-.14-19.68-5.23-23.79-5.36-3.91-15.39-3.82-19.61,4.83Z"/>
            <g>
              <path class="cls-2" d="M230.45,348.78c-1.17-4.16-4.32-7.43-8.44-8.76-7.86-2.55-15.82-1.48-20.77,2.79-5.16,4.56-5.41,12.65-2.19,16.84,2.99,3.87,7.72,5.9,14.48,6.2.31.01.63.02.94.02,5.41,0,10.44-1.98,13.31-5.27v-.02c2.83-3.28,3.82-7.69,2.67-11.81Z"/>
              <path class="cls-4" d="M219.91,346.52c-2.1-.68-4.24-1.01-6.25-1.01-3.19,0-6.05.84-7.91,2.45-2.45,2.17-2.29,6.18-1.26,7.52,1.68,2.18,4.74,3.34,9.35,3.54,4.27.17,7.46-1.38,8.79-2.9,1.34-1.56,1.79-3.55,1.24-5.49-.54-1.94-2.02-3.48-3.96-4.11Z"/>
            </g>
          </g>
        </g>
        <g>
          <g>
            <path class="cls-2" d="M174.31,406.86c-1.48-4.63-4.48-8.3-7.74-11.99-11.57-11.1-31.76-15.56-47.81-10.64-11.58,3.03-24.94,13.2-26.89,28.3-1.79,11.76,2.42,22.06,11.65,27.76,9.31,4.78,19.42,4.67,29.7-.17.87-.33,1.3-.24,3.57.72,1.42.61,3.17,1.34,5.28,1.7,3.57,1.03,6.76,1.46,9.57,1.46,7.46,0,12.38-3.02,15.44-6.04,7.97-7.84,10.94-20.61,7.23-31.1Z"/>
            <path class="cls-6" d="M163.98,410.45c-.03-.07-.05-.13-.07-.2-.84-2.65-3.05-5.31-5.25-7.82-8.41-8.05-24.41-11.47-36.92-7.67-8.41,2.21-17.79,9.67-19.04,19.29-.55,3.62-1.01,12.25,6.19,16.72,5.93,3.02,12.4,2.87,20-.7,1.9-.75,3.63-1.02,5.19-1.02,2.92,0,5.24.98,6.98,1.72,1.12.47,2.08.88,2.97,1.01.27.04.53.09.78.17,6.51,1.94,11.44,1.34,14.59-1.78,4.91-4.82,6.87-13.3,4.58-19.71Z"/>
          </g>
          <g>
            <path class="cls-2" d="M338.19,414.82c-1.98-15.21-15.33-25.39-26.69-28.34-16.27-4.97-36.47-.53-48.34,10.91-2.82,3.2-5.95,7-7.44,11.65-3.71,10.49-.74,23.27,7.22,31.1,3.07,3.03,8,6.05,15.45,6.05,2.81,0,5.99-.43,9.57-1.46,2.11-.36,3.86-1.1,5.28-1.7,2.29-.98,2.71-1.06,3.23-.88,10.61,5,20.73,5.11,30.44.1,8.83-5.48,13.04-15.78,11.27-27.43Z"/>
            <path class="cls-6" d="M327.35,416.35c-1.27-9.74-10.64-17.21-18.84-19.34-3.53-1.08-7.32-1.6-11.13-1.6-9.92,0-20.02,3.48-26.32,9.53-1.88,2.17-4.1,4.83-4.94,7.48-.02.07-.04.13-.07.2-2.29,6.41-.33,14.89,4.56,19.7,3.17,3.11,8.06,3.72,14.6,1.78.25-.07.51-.13.78-.17.89-.13,1.85-.53,2.97-1.01,2.67-1.14,6.69-2.83,11.82-.85,7.93,3.73,14.41,3.87,20.73.64,6.81-4.24,6.35-12.88,5.82-16.38Z"/>
          </g>
        </g>
        <g>
          <g class="cls-9">
            <g>
              <rect class="cls-7" x="234.12" y="119.56" width="132.75" height="190.62" transform="translate(-21.24 396.41) rotate(-65)"/>
              <g>
                <rect class="cls-8" x="324.53" y="157.28" width="66.37" height="95.31" transform="translate(20.8 442.52) rotate(-65)"/>
                <rect class="cls-8" x="210.09" y="177.16" width="66.37" height="95.31" transform="translate(-63.28 350.29) rotate(-65)"/>
              </g>
            </g>
          </g>
          <path class="cls-1" d="M390.94,221.19c.07-12.49-5.34-22.53-15.6-29.03-.69-.44-1.39-.87-2.1-1.27-.77-.43-1.55-.85-2.34-1.22-11.64-5.67-23.69-4.48-34.15-2.53-5.83,1.33-9.45,2.5-11.74,3.46-1.46-1.46-3.03-2.84-4.74-4.07-.97-.67-6.37-4.22-14.15-5.76-.48-2.22-.98-3.97-1.26-4.88-.01-.05-.23-.79-.25-.84-1.29-3.88-4.26-11.63-9.68-19.89-6.8-10.34-15.02-17.72-24.49-21.96-15.15-6.65-29.01-3.93-42.64,8.55-6.19,6.4-11.53,14.18-15.87,23.1-.54,1.12-4.52,10.56-4.96,11.86-1.56,4.27-6.56,19.27-5.14,33.03.89,10.47,5.87,20.97,13,27.42.12.11.54.44.67.53,7.94,6.03,16.67,9.07,25.99,9.07,1.13,0,2.27-.05,3.42-.13,12.05-.93,21.23-4.61,21.51-4.72,1.18-.45,2.22-.93,3.33-1.4,3.32,4.59,7.6,8.48,12.65,11.05,6.29,3.17,11.23,4.29,15.81,4.29.67,0,1.31-.14,1.97-.18.25.54.51,1.09.92,1.73,9.83,18.53,24.19,24.87,33.25,24.48.58.03,1.17.05,1.76.05,15.78,0,33.72-11.18,44.46-28.18l.53-.88c3.53-5.77,8.87-14.5,9.85-31.66Z"/>
          <path class="cls-2" d="M390.94,221.19c.07-12.49-5.34-22.53-15.6-29.03-.69-.44-1.39-.87-2.1-1.27-.77-.43-1.55-.85-2.34-1.22-11.64-5.67-23.69-4.48-34.15-2.53-5.83,1.33-9.45,2.5-11.74,3.46-1.46-1.46-3.03-2.84-4.74-4.07-.97-.67-6.37-4.22-14.15-5.76-.48-2.22-.98-3.97-1.26-4.88-.01-.05-.23-.79-.25-.84-1.29-3.88-4.26-11.63-9.68-19.89-6.8-10.34-15.02-17.72-24.49-21.96-15.15-6.65-29.01-3.93-42.64,8.55-6.19,6.4-11.53,14.18-15.87,23.1-.54,1.12-4.52,10.56-4.96,11.86-1.56,4.27-6.56,19.27-5.14,33.03.89,10.47,5.87,20.97,13,27.42.12.11.54.44.67.53,7.94,6.03,16.67,9.07,25.99,9.07,1.13,0,2.27-.05,3.42-.13,12.05-.93,21.23-4.61,21.51-4.72,1.18-.45,2.22-.93,3.33-1.4,3.32,4.59,7.6,8.48,12.65,11.05,6.29,3.17,11.23,4.29,15.81,4.29.67,0,1.31-.14,1.97-.18.25.54.51,1.09.92,1.73,9.83,18.53,24.19,24.87,33.25,24.48.58.03,1.17.05,1.76.05,15.78,0,33.72-11.18,44.46-28.18l.53-.88c3.53-5.77,8.87-14.5,9.85-31.66ZM262.41,231.71c-.08.03-8.08,3.2-18.37,4-11.87.91-19.44-4.84-21.88-6.66-5-4.53-8.79-12.66-9.45-20.34-1.18-11.51,3.16-24.52,4.61-28.48.39-1.06,3.95-9.57,4.44-10.59,3.84-7.9,8.52-14.72,13.66-20.06,10.24-9.38,19.41-11.29,30.57-6.38,7.49,3.35,14.15,9.4,19.77,17.96,4.92,7.49,7.54,14.61,8.32,16.9l.28.99c.1.33.23.76.37,1.26-3.12.38-6.39,1.21-9.76,2.67-.86.37-1.62.86-2.44,1.29-1.82-1.99-4.05-3.77-6.3-5.03-6.73-3.79-14.11-3.84-20.25-.13-6.59,4-10.46,11.71-9.86,19.44.23,6.03,2.69,11.16,7.12,14.82,2.87,2.37,6.27,3.78,9.4,4.6,0,.53-.07,1.05-.05,1.58.03,3.82.78,7.6,2.04,11.21-.76.31-1.43.63-2.24.94ZM264.12,207.03c-1.43-.51-2.96-1.24-4.22-2.39-1.79-1.63-2.7-3.75-2.82-6.7-.29-3.87,1.51-7.59,4.61-9.47,2.17-1.31,4.47-1.52,7.04-.66,2.02.68,3.67,1.86,4.9,2.98-4.48,4.46-7.75,9.99-9.5,16.23ZM306.89,243.41c-7.63,2.01-11.53,2.43-19.54-1.62-8.18-4.17-13.72-13.13-13.78-22.46-.43-11.82,5.62-21.89,15.78-26.29,3.44-1.49,6.75-2.05,9.77-2.05,8.05,0,14.03,3.93,14.85,4.49,9.03,6.49,13.34,17.88,10.69,28.51-2.49,11.49-10.8,17.57-17.75,19.43ZM371.63,247.35l-.6,1.01c-8.69,13.74-23.71,23.26-36.56,22.57-6.52.09-15.93-5.16-23.02-17.53,4.14-1.36,8.46-3.71,12.35-7.14,1.96,1.41,4.3,2.61,7,3.2,1.02.22,2.2.38,3.49.38,3.21,0,7.18-.98,11.47-4.38,4.81-4.81,6.44-10.35,4.85-17.49-2.82-8.54-9.53-11.12-14.31-12.03-.27-5.63-1.81-11.14-4.48-16.14,2.05-.65,4.64-1.36,7.15-1.93,8.49-1.57,18.35-2.62,27.19,1.67.59.28,1.14.58,1.7.89.53.3,1.04.61,1.59.96,7.15,4.53,10.61,10.99,10.57,19.46-.82,14.14-4.94,20.88-8.38,26.5ZM335.17,226.92c2.53.61,4.13,1.69,4.89,3.94.65,2.96.13,4.69-1.56,6.43-1.71,1.35-3.44,1.83-5.18,1.51-.94-.17-1.76-.56-2.49-1,1.88-3.16,3.39-6.77,4.33-10.89Z"/>
        </g>
      </g>
    </g>
    <g>
      <path class="cls-1" d="M17.12,0v77.44c0,47.14,33.76,59.06,56.1,66.95l4.46,1.58,4.49-1.58c22.34-7.89,56.1-19.81,56.1-66.95V0H17.12Z"/>
      <g>
        <path class="cls-8" d="M130.8,2.17H19.29v75.27c0,45.61,32.89,57.22,54.66,64.91l3.74,1.33,3.75-1.33c21.76-7.68,54.66-19.3,54.66-64.91V2.17h-5.3Z"/>
        <path class="cls-6" d="M130.8,4.82H21.94v72.62c0,19.37,5.98,34.01,18.29,44.76,10.44,9.12,23.28,13.65,34.6,17.65l2.86,1.01,2.87-1.01c11.33-4,24.17-8.53,34.6-17.65,12.31-10.75,18.29-25.39,18.29-44.76V4.82h-2.65Z"/>
        <path class="cls-7" d="M77.7,7.47H24.6v69.97c0,43.14,31.13,52.81,53.1,60.61,21.97-7.8,53.1-17.47,53.1-60.61V7.47h-53.1Z"/>
        <path class="cls-8" d="M24.6,67.46v9.98c0,43.14,31.13,52.81,53.1,60.61v-70.59H24.6Z"/>
        <rect class="cls-8" x="77.7" y="7.47" width="53.1" height="59.99"/>
        <g>
          <g>
            <path class="cls-3" d="M57.53,101.69c.5.43,1.22.72,1.86.72.4,0,.94-.14.94-.66,0-1.14-2.7-.91-2.7-2.99,0-.53.25-1.04.66-1.35.45-.34,1-.45,1.54-.45.5,0,1.03.09,1.49.28v1.09c-.37-.25-.8-.44-1.25-.44-.35,0-.77.16-.77.6s.51.63.84.78c.43.19.82.37,1.18.7.43.39.66.81.66,1.41s-.24,1.15-.71,1.51c-.52.4-1.09.48-1.72.48-.58,0-1.17-.11-1.72-.33l-.29-1.34Z"/>
            <path class="cls-3" d="M63.43,98.95c.24,0,.43-.03.6-.14h.03v3.41c0,.43-.03.7.31,1v.03h-2.15v-.03c.34-.3.31-.57.31-1v-2.24c0-.44.03-.71-.3-1v-.03h1.21ZM62.4,97.91c0-.5.36-.93.84-.93.46,0,.83.41.83.88,0,.51-.39.9-.87.9-.43,0-.81-.41-.81-.86Z"/>
            <path class="cls-3" d="M66.53,99.33c.26-.34.64-.49,1.09-.49.48,0,.92.13,1.25.53.33.4.3.82.3,1.32v1.54c0,.44-.03.71.31,1v.03h-2.15v-.03c.34-.29.31-.56.31-1v-1.58c0-.21,0-.42-.12-.6-.1-.17-.28-.26-.46-.26-.15,0-.31.08-.4.21-.13.18-.13.44-.13.64v1.58c0,.44-.03.71.31,1v.03h-2.15v-.03c.34-.29.31-.56.31-1v-2.24c0-.43.03-.7-.31-1v-.03h1.19c.21,0,.4-.04.63-.14h.03v.51Z"/>
            <path class="cls-3" d="M73.48,100h-.03c-.27-.19-.55-.31-.9-.31-.26,0-.51.11-.67.33-.19.26-.23.62-.23.93,0,.38.11.86.37,1.16.19.24.51.33.8.33.41,0,.87-.19,1.17-.44h.03l-.29,1.02c-.47.24-1,.36-1.52.36-1.22,0-2.28-.85-2.28-2.2,0-1.54,1.14-2.33,2.5-2.33.35,0,.7.06,1.05.09v1.07Z"/>
            <path class="cls-3" d="M75.88,100.33c.04-.37.26-.68.65-.68.43,0,.59.32.59.68h-1.24ZM78.67,102.03c-.44.24-.99.47-1.49.47-.79,0-1.3-.58-1.3-1.38h2.74c-.03-1.44-.7-2.28-2.1-2.28-1.23,0-2.17.94-2.17,2.25,0,.7.24,1.4.8,1.83.5.38,1.17.46,1.77.46.47,0,.97-.09,1.39-.29l.35-1.05Z"/>
            <path class="cls-3" d="M82.21,101.96c0,.48-.03,1.01.45,1.26v.03h-2.55v-.03c.51-.33.53-.74.53-1.3v-3.19l-.88-.24v-.03c.93-.29,1.81-.71,2.41-1.49h.03v5Z"/>
            <path class="cls-3" d="M83.69,102.66c1.52-.43,2.29-1.5,2.29-3.14,0-.57-.13-1.63-.83-1.63-.58,0-.7.74-.7,1.2,0,.55.18,1.28.82,1.28.14,0,.26-.04.36-.09h.03l-.65.93-.2.02c-.47,0-.94-.11-1.3-.47-.42-.39-.61-.97-.61-1.55,0-1.39,1-2.25,2.26-2.25,1.51,0,2.38,1.09,2.38,2.64,0,1.13-.46,2.06-1.28,2.77-.76.68-1.77,1.08-2.76,1.08h-.16s.34-.78.34-.78Z"/>
            <path class="cls-3" d="M88.83,102.66c1.52-.43,2.3-1.5,2.3-3.14,0-.57-.13-1.63-.83-1.63-.58,0-.7.74-.7,1.2,0,.55.19,1.28.82,1.28.14,0,.27-.04.36-.09h.03l-.65.93-.19.02c-.47,0-.94-.11-1.3-.47-.42-.39-.61-.97-.61-1.55,0-1.39,1-2.25,2.26-2.25,1.51,0,2.38,1.09,2.38,2.64,0,1.13-.46,2.06-1.27,2.77-.76.68-1.77,1.08-2.77,1.08h-.16s.33-.78.33-.78Z"/>
            <path class="cls-3" d="M95.53,102.25c-.7,0-.76-1.47-.76-1.96s0-1.12.17-1.58c.1-.28.32-.66.64-.66.73,0,.75,1.43.75,1.95s-.06,2.25-.8,2.25ZM95.56,103.37c.73,0,1.39-.47,1.79-1.09.39-.63.53-1.41.53-2.16,0-.78-.14-1.57-.58-2.22-.42-.61-1-.94-1.72-.94-.77,0-1.46.44-1.86,1.12-.35.62-.5,1.4-.5,2.11s.16,1.56.55,2.17c.4.63,1.08,1.01,1.79,1.01Z"/>
          </g>
          <g>
            <path class="cls-3" d="M48.72,46.7s1.29,1.52,1.25,4.03c0,0,.14,5.06-5.02,5.33,0,0-2.44.24-3.02-3.08,0,0-.1-.65-.78-.58,0,0-1.97-.04-2.95-.61,0,0-.4-.27.11-.34,0,0,2.14-.55,1.72-3.12,0,0,0-1.66-1.72-1.73,0,0-.58-.1-1.6.55,0,0-1.56,1.11-3.23-.38,0,0-.53-.48.11-.37,0,0,1.97.1,1.97-1.73,0,0,.12-1.35-1.69-1.41,0,0-1.06-.07-1.95.72,0,0-.34.43-.25-.22,0,0,.05-1.52,1.56-2.56,0,0,.54-.47,1.53-.86,0,0,1.07-.39.91-1.7,0,0-.18-1.36-1.68-1.31,0,0-.93-.11-1.58.66,0,0-.36.52-.34-.08,0,0,.09-2.9,3.03-2.92,0,0,1.68-.05,2.49,1.95,0,0,.36-.5.74-.75,0,0,.66-1.09-.24-1.86,0,0-.57-.36.02-.38,0,0,2.76-.31,2.91,2.38,0,0-.08,1.72-1.22,2.42,0,0-.29,2.92,1.74,4.59,0,0,.43.38.81,0,0,0,.54-.7-.18-1.58,0,0-.32-.36.27-.36,0,0,4.05-.04,3.68,4.92,0,0-.15,1.48,1.43,1.43,0,0,.64-.05.66-.89,0,0,0-.76.49-.12Z"/>
            <path class="cls-3" d="M86.21,72.94c1.35-1.83,2.25-1.55,2.25-1.55.65.14.77,1.38.77,1.38,0,.3.27.23.27.23,1.62-.61,2.73-3.53,2.73-3.53.14-.28.61-.25.61-.25,2.7.25,3.42-1.99,3.42-1.99.14-.36-.33-.2-.33-.2-3.54.88-3.54-2.78-3.54-2.78.06-2.89,2.28-3.09,2.28-3.09,1.02-.1,1.83.54,1.83.54.47.39.38-.37.38-.37-.27-4.38-7.09-4.35-7.09-4.35-11.85.27-15.06,4.86-15.06,4.86-.28.44.2.27.2.27,2.11-.58,2.55,2.17,2.55,2.17.16,2.24-1.56,2.11-1.56,2.11-1.63.1-2.95-1.89-2.95-1.89-.9-1.11-1.98-1.01-1.98-1.01-2.51.05-3.6,2.59-3.6,2.59-.17.49.34.19.34.19,1.02-.78,1.63-.53,1.63-.53.44.2.34.61.34.61-.29.91-1.21,1.05-1.21,1.05-2.22.43-2.91,2.61-2.91,2.61-.11.46.19.32.19.32,1.26-.84,2.1-.24,2.1-.24,1.22.97.31,1.9.31,1.9-.55.43-1.62.14-1.62.14-.43-.14-.14.3-.14.3,1.16,1.58,2.49,1.58,2.49,1.58,2.62.32,3.75-2.01,3.75-2.01.47-.86.95-.59.95-.59.52.23.25,1.13.25,1.13-.11.31.11.29.11.29,1.08,0,1.68-1.34,1.68-1.34.34-.61.93-.38.93-.38.71.34.23,1.38.23,1.38-.2.4.14.29.14.29,1.42-.43,1.81-1.92,1.81-1.92.54-1.38,1.29-1.31,1.29-1.31.89.03.99,1.08.99,1.08.02,1.18-.81,1.22-.81,1.22-.79.04-.36.36-.36.36,1.97,1.43,4.17-1.47,4.17-1.47.88-1.02,1.78-.02,1.78-.02.46.45-.03,1.92-.03,1.92,0,0-.12.38.04.5,0,0,.15.11.39-.19Z"/>
            <path class="cls-3" d="M121.25,46.23c-1.36-.88-1.33-1.83-1.33-1.83-.18-2.44,1.72-2.3,1.72-2.3,1.94.19,2.15,2.49,2.15,2.49.04.45.44.14.44.14,1.59-1.81.23-3.73.23-3.73-1.44-2.11-5.41-1.24-5.41-1.24l-.28-.38c.11-.95,1.09-1.39,1.09-1.39,1.46-.44,2.41.61,2.41.61.62.55.51-.27.51-.27-1.08-4.65-5.26-2.95-5.26-2.95-1.8.64-1.73,3.12-1.73,3.12-3.22-2.24-7.22-2.27-7.22-2.27-6-.12-10.44,3.31-11.45,4.18-2.35-1-3.52-2.01-3.52-2.01-2.2-1.76-5.63-3.5-5.63-3.5-7.53-3.39-14.43-.2-14.43-.2-6.78,2.95-5.48,8.92-5.48,8.92,1.47,7.33,9.55,6.58,9.55,6.58,6.99-.19,12.55-3.04,13.46-3.52,1.52,1.35,4.01,2.88,7.53,2.88,0,0,5.33.17,7.97-3.33,0,0,.49-.55-.26-.36,0,0-7.87,2.39-11.72-.82,1.36-.71,2.41-1.33,2.41-1.33h.01c2.61,1.11,4.1,1.18,4.1,1.18,10.41,1.5,12.18-2.88,12.18-2.88.41-.58-.4-.24-.4-.24-5.26.89-9.43.49-12.53-.3,7.85-5.42,13.78-.85,13.78-.85,2.92,1.97,1.9,6.11,1.9,6.11-1.28,5.77-13.77,4.28-13.77,4.28-7.81-.68-19.39.34-19.39.34-4.44.4-9.01.25-9.01.25-5.29-.5-6.83-3.37-6.83-3.37-.9-1.9.22-3.49.22-3.49.22-.27-.09-.29-.09-.29-2.5-.43-1.86-2.74-1.86-2.74.13-.68,1.52-1.99,1.52-1.99.43-.39,0-.45,0-.45-1.49-.32-2.29-1.34-2.29-1.34-1.2-1.29-.8-3.58-.8-3.58,2.09-1.19,2.05-2.63,2.05-2.63,0-.53-.39-.08-.39-.08l-.63.51c-.42.36-1.34.1-1.34.1-.73-.15-1.99-.78-1.99-.78-3.14-1.22-5.61,0-5.61,0-1.38.7-2.79.04-2.79.04l-.43-.23c-.48-.27-.19.32-.19.32.77,1.65,1.56,1.83,1.56,1.83.25,4-3.21,5.07-3.21,5.07-.5.13-.05.4-.05.4,1.15.77,1.04,2.59,1.04,2.59.04,1.86-1.43,2.51-1.43,2.51-.25.08-.02.36-.02.36,1.7,2.27,1.32,5.77,1.32,5.77-.71,4.41-3.53,5.97-3.53,5.97-3.42,2.17-6.1,5.85-6.1,5.85-1.16.96-2.04.71-2.04.71-.5-.09-.71-.68-.71-.68-.25-2.58-1.72-3.63-1.72-3.63-2.38-1.68-4.94-.54-4.94-.54-.46.25.09.3.09.3,1.8-.1,2.02.95,2.02.95.46,1.36.12,2.87.12,2.87-3.89-.48-3.89,3.1-3.89,3.1.11,2.01,1.01,2.76,1.01,2.76.47.43.44-.17.44-.17,0-1.06.29-1.5.29-1.5.66-.9,1.77-.75,1.77-.75,1.14.08,1.33.66,1.33.66.28.72-.21.9-.21.9-1.59.95-1.7,2.44-1.7,2.44.03,1.79.95,2.57.95,2.57.85.65.54-.19.54-.19-.14-2.75,3.19-2.58,3.19-2.58,1.42,0,.95.75.95.75-.34.34-1.56.58-1.56.58-.47.07.04.41.04.41.88.99,2.31.99,2.31.99,1.93,0,3.43-2.88,3.43-2.88.64-.88,1.46-.34,1.46-.34.81.44.57,1.36.57,1.36-.07,2.75,1.5,3.67,1.5,3.67.64.51.54-.14.54-.14.07-1.29,1.22-1.42,1.22-1.42,1.29-.21,1.63,1.36,1.63,1.36.34.61.51-.07.51-.07,2.18-3.76,3.05-3.15,3.05-3.15.68.1.61,1.32.61,1.32.11.58.51-.03.51-.03,2.92-4.68,6.45-8.22,6.45-8.22,1.76-1.76,2.95-1.63,2.95-1.63,1.27.11,1.87,2.21,1.87,2.21.18.49.64.1.64.1,11.15-8.75,23.69-7.87,23.69-7.87,6.58.27,8.38,2.88,8.38,2.88,2.11,2.85.61,6.41.61,6.41-1.69,2.85-.37,5.7-.37,5.7,1.9,3.98,5.36,3.81,5.36,3.81.98.03.35-.41.35-.41-2.38-1.59-1.8-4.75-1.8-4.75.11-1.62,2.01-1.62,2.01-1.62.43.1,1.3.05,1.3.05,2.55-.03,5.82-1.9,5.82-1.9,1.19-.61,2.81-.58,2.81-.58,2.33.07,2.29,1.55,2.29,1.55-.03.94-.61,1.42-.61,1.42-.68.51-1.1-.16-1.1-.16-.78-1-1.74-.87-1.74-.87-2.13.07-2.62,2.03-2.62,2.03-.18.7.1.46.1.46.74-.59,1.19-.4,1.19-.4.54.17.03.42.03.42-2.1,1.23-1.03,4.1-1.03,4.1.5,1.04.55.13.55.13-.03-.58.39-.78.39-.78.86-.39,1.51.42,1.51.42.99,1.22-.1,2.43-.1,2.43-.49.54-.03.62-.03.62,2.29.18,3.8-1.54,3.8-1.54.93-1.11,1.25-3.6,1.25-3.6.15-.51.45-.14.45-.14.47.57.13,1.75.13,1.75-.04.36.34.07.34.07,1.74-1.7.68-3.42.68-3.42-.26-.6.25-1,.25-1,2.06-1.38,1.86-3.28,1.86-3.28-.05-.21-.39.03-.39.03-1.72.95-2.24-.63-2.24-.63-.27-.84.29-1.11.29-1.11,3.3-1.61,2.67-5.27,2.67-5.27-.1-.62-.43.02-.43.02-1.83,2.53-5.06-.14-5.06-.14.52-3.32-2.2-3.44-2.2-3.44-.54-.06-.22.34-.22.34.75.79.59,1.58.59,1.58-.07,1.44-2.04,1.22-2.04,1.22-4.44.02-5.54-4.57-5.54-4.57,7.56.77,10.36-1.86,10.36-1.86,1.68-1.52,2.79-1.29,2.79-1.29,1.81-.02,2.42,1.45,2.42,1.45.27.36.39-.05.39-.05.99-4.48-3.1-6-3.1-6ZM77.13,47.14c-5.53.2-6.14-4.15-6.14-4.15-.3-1.62.37-2.88,1.39-3.83.22.89,1.06,2.74,4.11,2.78,0,0,1.43.03,2.59-.97,0,0,.35-.3-.11-.3,0,0-3.35-.06-3.24-2.47,0,0-.12-.66.7-1.23.66-.21,1.11-.3,1.11-.3.45-.1.89-.17,1.33-.23.18.59.87,2.29,2.82,2.38,0,0,.84.04,1.38-.27,0,0,.33-.24-.11-.32,0,0-1.02-.11-1.15-1.31,0,0-.17-.53.79-.5.03,0,.06.01.09.01h0c.61.1,4.68.96,3.15,4.15,0,0-.42.61-.1.52,0,0,.71-.09,1.03.29,0,0,1.22,1.12,2.46,3.19-6.57,2.52-12.1,2.54-12.1,2.54ZM92.66,43.08c-.87-.98-1.91-2.27-2.73-3.66,1.55,1.19,2.97,2.12,4.24,2.85-.5.28-1,.55-1.5.8ZM61.7,35.29s-.49,1.38-2.12.83c0,0,.35-1.16,2.12-.83ZM57.84,36.13c-1.66.42-2.05-.98-2.05-.98,1.79-.2,2.05.98,2.05.98ZM60.76,43.6c-.85,1.49-2.26,1.45-2.26,1.45-1.43.04-2.14-1.45-2.14-1.45-.89-1.59-1.84-3.44-1.84-3.44.22.07.5.13.82.19.16.32.55,1.1.83,1.45,0,0,.2.25.27-.08,0,0,.22-.73.79-1.17.44.03.92.04,1.4.04.41,0,.81-.01,1.2-.02.53.45.6,1.27.6,1.27.08.45.41.04.41.04.27-.33.63-1.11.8-1.48.39-.05.72-.12.98-.18,0,0-1.43,2.47-1.85,3.38Z"/>
          </g>
        </g>
        <g>
          <path class="cls-6" d="M35.01,21.04h-2.28l1.11-3.47h.02l1.16,3.47ZM35.56,22.68l.55,1.71c.1.28.13.37.13.67,0,.57-.3.81-.69,1.08v.06h5.06v-.06c-.96-.93-1.04-1.34-1.44-2.47l-3.17-9.09h-4.11v.06c.33.23.64.55.64,1.02,0,.37-.27,1.06-.37,1.41l-2.31,7.04c-.3.9-.52,1.41-1.16,2.03v.06h3.44v-.06c-.3-.26-.6-.49-.6-.99,0-.37.18-.92.3-1.27l.4-1.2h3.32Z"/>
          <path class="cls-6" d="M49.47,16.99c-.82-.58-1.79-.92-2.8-.92-2.3,0-2.95,1.94-2.95,4.07,0,2.44,1.12,4.41,3.62,4.41,1.31,0,2.5-.51,3.62-1.15l-.84,2.58c-1.09.32-2.21.42-3.34.42-1.71,0-3.15-.3-4.49-1.52-1.29-1.15-1.98-2.81-1.98-4.61,0-1.62.65-3.33,1.83-4.43,1.27-1.15,3.04-1.57,4.68-1.57l2.53.23.12,2.47Z"/>
          <path class="cls-6" d="M66.71,26.56c-.59,0-1.51-.44-2.01-.7-1.24-.65-1.56-1.25-2.38-2.38l-3.22-4.52h-.05v4.66c0,1.02.02,1.8.74,2.52v.06h-3.24v-.06c.74-.72.75-1.5.75-2.52v-6.09c0-1.36-.07-1.83-.97-2.89v-.06h3.49v.06l5.15,7.1v-4.57c0-1.03-.02-1.8-.74-2.52v-.06h3.22v.06c-.72.72-.74,1.5-.74,2.52v9.4Z"/>
          <path class="cls-6" d="M73.9,21.04h-2.28l1.11-3.47h.02l1.16,3.47ZM74.45,22.68l.55,1.71c.1.28.14.37.14.67,0,.57-.3.81-.69,1.08v.06h5.06v-.06c-.96-.93-1.04-1.34-1.44-2.47l-3.17-9.09h-4.11v.06c.33.23.64.55.64,1.02,0,.37-.27,1.06-.37,1.41l-2.31,7.04c-.3.9-.52,1.41-1.16,2.03v.06h3.44v-.06c-.3-.26-.6-.49-.6-.99,0-.37.18-.92.3-1.27l.4-1.2h3.32Z"/>
          <path class="cls-6" d="M89.07,25.87c-1.16.33-2.37.55-3.57.55-3.49,0-6.3-2.08-6.3-6s2.77-6.13,6.24-6.13c.87,0,1.76.11,2.6.35v2.45h-.08c-.57-.56-1.61-.93-2.47-.93-2.18,0-3.12,1.61-3.12,3.74s.72,4.68,3.15,4.68c.22,0,.45,0,.67-.05v-2.61c0-.79-.03-1.22-.64-1.71v-.05h3.52v5.72Z"/>
          <path class="cls-6" d="M96.03,21.04h-2.28l1.11-3.47h.02l1.16,3.47ZM96.58,22.68l.55,1.71c.1.28.13.37.13.67,0,.57-.3.81-.69,1.08v.06h5.06v-.06c-.96-.93-1.04-1.34-1.44-2.47l-3.17-9.09h-4.11v.06c.33.23.64.55.64,1.02,0,.37-.27,1.06-.37,1.41l-2.31,7.04c-.3.9-.52,1.41-1.16,2.03v.06h3.44v-.06c-.3-.26-.6-.49-.6-.99,0-.37.18-.92.3-1.27l.4-1.2h3.32Z"/>
          <path class="cls-6" d="M112.31,26.56c-.59,0-1.51-.44-2.01-.7-1.24-.65-1.56-1.25-2.38-2.38l-3.22-4.52h-.05v4.66c0,1.02.02,1.8.74,2.52v.06h-3.23v-.06c.74-.72.75-1.5.75-2.52v-6.09c0-1.36-.07-1.83-.97-2.89v-.06h3.49v.06l5.14,7.1v-4.57c0-1.03-.02-1.8-.74-2.52v-.06h3.22v.06c-.72.72-.74,1.5-.74,2.52v9.4Z"/>
          <path class="cls-6" d="M117.1,19.87c0-1.82.87-3.81,2.85-3.81,2.3,0,3.05,2.88,3.05,4.89,0,.87-.12,1.76-.62,2.47-.54.76-1.34,1.23-2.23,1.23-.96,0-1.79-.67-2.26-1.52-.47-.88-.79-2.24-.79-3.27ZM113.85,20.35c0,3.72,2.67,6.07,6.1,6.07s6.31-2.24,6.31-6.09-2.58-6.04-6.1-6.04-6.3,2.3-6.3,6.06Z"/>
        </g>
        <g>
          <path class="cls-6" d="M35.65,89.9c0,1.22.02,2.19.9,3.05v.06h-5.44v-.06c1-.66.86-1.88.86-3v-7.98c0-1.11.14-2.34-.86-3v-.06h4.81c1.14,0,2.63-.03,3.65.51,1.24.65,1.94,1.89,1.94,3.35,0,3.05-2.45,4.23-4.99,4.23-.25,0-.49,0-.73-.04,1.26-.56,1.98-1.7,1.98-3.13,0-1.52-.51-2.73-2.1-2.79v8.89Z"/>
          <path class="cls-6" d="M47.4,86.75h-2.77l1.34-4.23h.02l1.41,4.23ZM48.07,88.74l.67,2.08c.12.34.16.45.16.81,0,.69-.37.99-.84,1.31v.06h6.16v-.06c-1.16-1.14-1.26-1.63-1.76-3l-3.85-11.05h-5v.06c.41.28.78.67.78,1.25,0,.45-.33,1.29-.45,1.72l-2.81,8.56c-.37,1.09-.63,1.72-1.41,2.47v.06h4.18v-.06c-.37-.32-.73-.6-.73-1.2,0-.45.22-1.12.37-1.55l.49-1.46h4.04Z"/>
          <path class="cls-6" d="M59.39,80.97c.41,0,.84.04,1.18.3.55.41.82,1.14.82,1.83,0,1.35-.94,2.49-2.2,2.72v-4.85h.2ZM59.18,86.96l2.37,4.68c.71,1.33,1.37,1.52,2.73,1.44l2.81-.19c-.82-.71-1.41-1.61-1.96-2.58l-2.43-4.27c1.35-.6,2.43-1.78,2.43-3.39,0-1.44-.61-2.58-1.82-3.26-.92-.52-1.73-.49-2.73-.49h-6.04v.06c1,.67.86,1.89.86,3v7.98c0,1.12.14,2.34-.86,3v.06h5.49v-.06c-1-.66-.86-1.88-.86-3v-2.98Z"/>
          <path class="cls-6" d="M77.63,81.83c-1-.71-2.18-1.11-3.4-1.11-2.79,0-3.59,2.36-3.59,4.96,0,2.96,1.36,5.37,4.4,5.37,1.59,0,3.04-.63,4.4-1.4l-1.02,3.13c-1.33.39-2.69.51-4.06.51-2.08,0-3.83-.36-5.46-1.85-1.57-1.39-2.41-3.41-2.41-5.6,0-1.97.79-4.05,2.22-5.38,1.55-1.4,3.69-1.91,5.69-1.91l3.08.28.14,3.01Z"/>
          <path class="cls-6" d="M84.47,90.63c.67.28,1.43.32,2.14.32,1.14,0,2.2-.19,2.98-1.18h.1l-.82,3.24h-9.03v-.06c1-.66.86-1.86.86-2.98v-8.03c0-1.11.14-2.34-.86-2.98v-.06h7.14c.3,0,.63,0,.86-.11h.06v3.11h-.06c-.55-1.01-1.71-.9-2.71-.9h-.65v3.48h1.9c.29,0,.57-.02.75-.11h.1v3h-.1c-.29-.86-1.22-.77-1.98-.77h-.67v4.03Z"/>
          <path class="cls-6" d="M94.7,89.97c0,1.12-.14,2.32.86,2.98v.06h-5.48v-.06c1-.66.86-1.86.86-2.98v-8.01c0-1.11.14-2.34-.86-3v-.06h5.48v.06c-1,.67-.86,1.89-.86,3v8.01Z"/>
          <path class="cls-6" d="M101.8,80.97c.41,0,.84.04,1.18.3.55.41.82,1.14.82,1.83,0,1.35-.94,2.49-2.2,2.72v-4.85h.2ZM101.59,86.96l2.37,4.68c.71,1.33,1.37,1.52,2.73,1.44l2.81-.19c-.82-.71-1.41-1.61-1.96-2.58l-2.43-4.27c1.35-.6,2.43-1.78,2.43-3.39,0-1.44-.61-2.58-1.81-3.26-.92-.52-1.73-.49-2.73-.49h-6.03v.06c1,.67.86,1.89.86,3v7.98c0,1.12.14,2.34-.86,3v.06h5.49v-.06c-1-.66-.86-1.88-.86-3v-2.98Z"/>
          <path class="cls-6" d="M112.99,85.33c0-2.21,1.06-4.63,3.47-4.63,2.8,0,3.71,3.5,3.71,5.95,0,1.05-.14,2.14-.76,3-.65.92-1.63,1.5-2.71,1.5-1.16,0-2.18-.82-2.75-1.85-.57-1.07-.96-2.72-.96-3.97ZM109.04,85.91c0,4.53,3.24,7.38,7.42,7.38s7.67-2.72,7.67-7.4-3.14-7.34-7.42-7.34-7.67,2.79-7.67,7.36Z"/>
        </g>
        <g>
          <path class="cls-6" d="M95.63,115.05c-2.3-1.17-4.11-1.15-5.45-.7.38-1.62-.03-3.98-4.05-6.1,0,0-.79,1.44-.32,2.63-.96-1.07-1.65-.95-1.65-.95,0,0-.64,2.33.23,4.34-1.09-.69-2.69-1.1-5-.54,0,0-.13,3.3,2.84,4.59-2.56,1.66-2.49,5.62-2.49,5.62,4.26.63,6-1.83,6.61-3.1.17,1.06.64,2.37,1.77,3.46,0,0,1.67,1.66,4.66,1.2,0,0,1.8-4.51-1.14-6.84,3.96-.84,4-3.61,4-3.61Z"/>
          <g>
            <path class="cls-5" d="M98.63,109.24s-.69-2.17-.69-2.71c0,0-.58.42-1.31.68,0,0-3.91,1.07-4.52,6.13,1.19.03,3.49.91,3.49.91.92-.51,4.18-1.93,3.03-5Z"/>
            <path class="cls-5" d="M102.56,115.13c-3.73-2.67-6.04-.26-6.1-.22,0,0-.14,3.02-3.54,4.15.46.55.79,1.03.98,1.65.57.39,1.01.78,1.9,1.14l.13.1c5.08,2.14,9.21-3.53,9.21-3.53.48-.78,1.23-1.19,1.23-1.19-1.15-.31-3.82-2.1-3.82-2.1Z"/>
          </g>
          <path class="cls-6" d="M63.01,118.67c-2.93,2.33-1.14,6.84-1.14,6.84,2.99.46,4.66-1.2,4.66-1.2,1.13-1.1,1.59-2.4,1.77-3.46.61,1.27,2.36,3.73,6.62,3.1,0,0,.07-3.96-2.5-5.62,2.97-1.3,2.84-4.59,2.84-4.59-2.31-.55-3.91-.14-5,.54.87-2,.23-4.34.23-4.34,0,0-.69-.12-1.65.95.47-1.19-.32-2.63-.32-2.63-4.02,2.12-4.43,4.48-4.05,6.1-1.34-.45-3.15-.47-5.45.7,0,0,.04,2.77,4,3.61Z"/>
          <g>
            <path class="cls-5" d="M87.07,117.85c.35,1.3,1.53,1.49,1.53,1.49.16-.9-.42-1.65-.73-1.91.37-.09,1.33.2,1.87-1.05,0,0-1.3-.33-2.12.29.02-.36.14-1.58-.68-1.85,0,0-.49.55-.16,1.92-.39-.28-1.14-.68-1.92-.35,0,0,.58.96,1.54,1.01-.37.31-1.5.88-1.24,1.8,0,0,1.56-.37,1.92-1.36Z"/>
            <path class="cls-5" d="M69.49,119.21c.25-.92-.86-1.49-1.24-1.8.96-.06,1.55-1.01,1.55-1.01-.78-.33-1.53.06-1.92.35.33-1.37-.16-1.92-.16-1.92-.82.26-.7,1.49-.68,1.85-.82-.61-2.12-.29-2.12-.29.54,1.25,1.5.95,1.87,1.05-.3.26-.89,1.01-.73,1.91,0,0,1.18-.19,1.53-1.49.36.99,1.91,1.36,1.91,1.36Z"/>
          </g>
          <g>
            <path class="cls-3" d="M87.56,117.21c.03.24-.14.45-.38.47-.23.03-.45-.14-.48-.37-.03-.24.14-.45.38-.48.23-.03.45.14.48.38Z"/>
            <path class="cls-3" d="M67.09,117.21c-.03.24.14.45.38.47.24.03.45-.14.48-.37.03-.24-.14-.45-.37-.48-.24-.03-.45.14-.48.38Z"/>
          </g>
          <g>
            <path class="cls-5" d="M56.01,109.24s.7-2.17.69-2.71c0,0,.58.42,1.31.68,0,0,3.91,1.07,4.52,6.13-1.19.03-3.49.91-3.49.91-.92-.51-4.18-1.93-3.03-5Z"/>
            <path class="cls-5" d="M52.09,115.13c3.73-2.67,6.04-.26,6.1-.22,0,0,.14,3.02,3.54,4.15-.46.55-.79,1.03-.98,1.65-.57.39-1.01.78-1.9,1.14l-.13.1c-5.08,2.14-9.22-3.53-9.22-3.53-.48-.78-1.23-1.19-1.23-1.19,1.15-.31,3.82-2.1,3.82-2.1Z"/>
          </g>
        </g>
      </g>
    </g>
  </g>
</svg>