<?xml version="1.0" encoding="UTF-8"?>
<svg id="_レイヤー_2" data-name="レイヤー 2" xmlns="http://www.w3.org/2000/svg" xmlns:xlink="http://www.w3.org/1999/xlink" viewBox="0 0 426.45 443.98">
  <defs>
    <style>
      .cls-1 {
        fill: none;
      }

      .cls-2 {
        fill: #221815;
      }

      .cls-3 {
        fill: #ffe100;
      }

      .cls-4 {
        fill: #e6002d;
      }

      .cls-5 {
        fill: #fff;
      }

      .cls-6 {
        fill: #f8b500;
      }

      .cls-7 {
        fill: #d80c18;
      }

      .cls-8 {
        fill: #baa85b;
      }

      .cls-9 {
        fill: #fabe00;
      }

      .cls-10 {
        clip-path: url(#clippath);
      }
    </style>
    <clipPath id="clippath">
      <path class="cls-1" d="M390.94,219c.07-12.49-5.34-22.53-15.6-29.03-.69-.44-1.39-.87-2.1-1.27-.77-.43-1.55-.85-2.34-1.22-11.64-5.67-23.69-4.48-34.15-2.53-5.83,1.33-9.45,2.5-11.74,3.46-1.46-1.46-3.03-2.84-4.74-4.07-.97-.67-6.37-4.22-14.15-5.76-.48-2.23-.98-3.97-1.26-4.88-.01-.05-.23-.79-.25-.84-1.29-3.88-4.26-11.63-9.68-19.9-6.8-10.34-15.02-17.72-24.49-21.96-15.15-6.65-29.01-3.93-42.64,8.55-6.19,6.4-11.53,14.18-15.87,23.1-.54,1.11-4.52,10.56-4.96,11.86-1.56,4.27-6.56,19.27-5.14,33.03.89,10.47,5.87,20.97,13,27.42.12.11.54.44.67.53,7.94,6.03,16.67,9.07,25.99,9.07,1.13,0,2.27-.05,3.42-.13,12.05-.93,21.23-4.61,21.51-4.72,1.18-.45,2.22-.93,3.33-1.4,3.32,4.59,7.6,8.48,12.65,11.05,6.29,3.17,11.23,4.29,15.81,4.29.67,0,1.31-.14,1.97-.18.25.54.51,1.09.92,1.73,9.83,18.53,24.19,24.87,33.25,24.48.58.03,1.17.05,1.76.05,15.78,0,33.72-11.18,44.46-28.18l.53-.88c3.53-5.77,8.87-14.5,9.85-31.66Z"/>
    </clipPath>
  </defs>
  <g id="_レイヤー_1-2" data-name="レイヤー 1">
    <g>
      <path class="cls-4" d="M426.45,226.46c0,117.76-84.41,196.43-213.22,196.43S0,344.22,0,226.46,95.46,13.24,213.22,13.24s213.22,95.46,213.22,213.23Z"/>
      <g>
        <g>
          <path class="cls-2" d="M419.51,295.02c-1.3-.72-2.84-1.24-3.8-1.44-6.81-1.4-13.64-2.18-20.31-2.33-3.7-.09-7.16,0-10.49.16-1.79-20.11-8.09-39.31-19.27-58.27,1.62-9.72,2.12-22.36,2.53-32.66l.21-5.17c.84-18.75-5.88-43.26-14.38-52.47-2.12-2.29-5.31-4.04-8.13-4.45-21.54-3.21-49.87,5.34-81.73,24.67l-4-.6c-26.18-3.9-58.77-8.75-103.06,1.53-1.4.32-2.95.78-4.54,1.26-2.37.71-6.76,1.98-7.92,1.68-8.49-4.64-30.28-15.71-49.14-18.5-17.53-2.61-29.09.83-34.52,10.31-15.37,28.86-7.65,69.07-4.44,79.47-16,31.01-15.69,63.87-15.6,67.47-.01.84.03,1.72.04,2.58-.84.06-1.6.09-2.48.16-8.93.71-17.8,1.58-28.07,4.44-3.34.92-6.41,3.14-5.81,5.59.47,1.92,2.84,2.35,4.83,2.35,1.54,0,2.85-.25,2.89-.26,10.63-2.16,16.02-2.75,23.47-3.55l3.14-.34c.81-.09,1.61-.13,2.42-.2.81,9.68,2.85,19.99,6.48,30.18-4.44,1.67-9.56,3.89-15.71,7.07-.04.02-3.98,2.08-4.74,4.62-.23.78-.15,1.56.23,2.24.62,1.11,1.92,1.46,3.31,1.46,2.3,0,4.82-.95,4.86-.96,1.84-.81,3.57-1.58,5.21-2.31,3.72-1.66,6.96-3.05,10-4.23,3.93,8.9,9.09,17.53,15.73,25.34-6.84,3.95-15.09,9.33-24.43,16.6-1.94,1.52-3.19,3.45-3.41,5.32-.12,1.04.11,1.99.65,2.67.41.51,1.18.73,2.1.73,1.62,0,3.71-.68,5.14-1.7,10.26-7.27,19.16-12.9,26.15-17.04,7.51,7.31,16.5,13.67,27.22,18.49,35.27,15.84,67.77,19.4,108.95,20l4.04-.06,4.36.06c47.38-.69,84.81-7.46,111.26-20.11,15.35-7.34,27.56-17.24,36.7-29.54,7.64,2.61,16.9,6.62,25.83,12.66,1.14.79,3.45,2.16,5.5,2.16.92,0,1.79-.27,2.47-1.01.29-.3.61-.85.53-1.73-.17-1.86-2.23-4.46-3.56-5.43-9.12-6.66-18.29-10.95-26.01-13.74,5.25-8.67,9.17-18.37,11.72-29.12,5.64.9,12.22,2.35,19.44,4.77.04,0,2.17.71,4.26.71,1.57,0,3.11-.39,3.7-1.78.27-.63.26-1.33-.03-2.02-1.04-2.48-5.39-4.32-5.43-4.33-7.12-2.82-14.12-4.47-20.31-5.49,1.35-8.14,2.01-16.8,1.93-26,.02-1.57-.07-3.12-.1-4.67,2.94-.16,5.97-.26,9.16-.22,4.96.05,10.48.42,15.35.74,1.52.1,2.99.19,4.4.28,3.19.18,7.1-.41,7.57-2.73.17-.81-.11-2.03-2.36-3.29Z"/>
          <path class="cls-5" d="M354.53,233.15c1.76-9.13,2.29-22.42,2.71-33.11l.22-5.23c.76-16.97-5.67-38.25-11.49-44.55-.51-.56-1.4-.99-1.72-1.06-18.78-2.76-45.27,5.51-74.57,23.31-2.08,1.26-3.22,1.95-5.23,1.65l-5.91-.87c-25.25-3.76-56.69-8.45-98.98,1.36-1.2.27-2.52.68-3.88,1.08-5.38,1.6-11.46,3.43-16.3.79-7.98-4.35-28.38-14.75-45.5-17.28-12.59-1.85-20.45-.25-23.34,4.78-10.47,19.65-8.42,46.45-5.73,61.45.72-.85,1.42-1.62,2.07-2.27,2.63-2.63,5.32-3.6,7.16-2.33,1.91,1.32,1.15,4.66-.08,7.33-1.22,2.65-3.69,7.76-5.63,11.18,0,0,0,.01,0,.02-16.85,29.6-16.54,62.53-16.45,66.2,0,.74.03,1.51.04,2.26,9.31.02,14.99,1,17.89,1.74l.21.05c.06.01,7.62,1.41,7.18,5.04-.39,3.23-4.98,2.99-7.2,2.87l-.82-.06c-2.44-.37-8.96-1.24-16.85-1.4.79,8.79,2.71,18.09,6.01,27.25,4.52-1.04,7.71-1.28,9.83-1.4l.29-.02c2.79-.15,9.39-.25,9.73,3.07.3,2.87-4.87,4.24-7.11,4.7-1.04.21-2.16.36-3.41.53-1.75.24-3.74.52-6.09,1.02,3.77,8.24,8.76,16.15,15.14,23.24,6.63-3.22,10.45-4.4,10.53-4.42.06-.03,6.57-1.68,7.84,1.28,1.09,2.56-1.67,3.92-4.33,5.24-.85.42-1.74.86-2.55,1.35,0,0-.09.05-.26.13-1.03.51-2.75,1.4-5.02,2.62,6.17,5.56,13.32,10.43,21.71,14.2,33.54,15.07,64.84,18.46,104.45,19.04l4.04-.06,4.36.06c44.98-.67,81.88-7.25,106.54-19.04,12.36-5.91,22.38-13.54,30.17-22.9-3.71-.86-5.98-1.18-6.04-1.19-1.42-.14-5.85-1.17-7.34-3.19-.44-.61-.61-1.28-.47-1.94.75-3.62,7.32-2.9,10.09-2.43.35.03,3.75.38,9.03,1.65,5.2-7.94,9.03-16.98,11.53-27.1-2.33-.14-4.2-.17-5.48-.17-2.44.01-5.28-.05-5.28-.05-.74-.07-6.59-.76-6.82-3.68-.03-.39.05-1,.6-1.64,1.31-1.53,4.62-2.39,6.03-2.5l.31-.03c.84-.08,3.07-.3,5.31-.32h.61c1.62,0,3.81.05,6.42.22,1.29-7.68,1.93-15.9,1.86-24.74.01-1.24-.06-2.46-.09-3.69-6.85.85-12.47,1.97-16.3,2.74-1.96.39-3.38.68-4.24.78-1.38.2-2.56.3-3.55.3-2.31,0-3.58-.56-4-1.72-.29-.84-.23-1.74.18-2.59.74-1.52,2.53-2.81,5.19-3.72,2.09-.71,10.2-3.2,22.24-4.68-1.72-19.09-7.86-37.28-18.78-55.31-.7-1.16-.95-2.54-.69-3.87Z"/>
        </g>
        <g>
          <path class="cls-2" d="M115.31,314.83c-3.5,7.1-3.52,18.45,1.21,24.48,2.92,3.45,7.8,5.41,14.09,4.33,5.43-.94,8.52-5.9,9.55-9.85,2.23-8.84-.14-19.67-5.23-23.79-5.36-3.91-15.39-3.82-19.61,4.83Z"/>
          <path class="cls-2" d="M285.41,315.87c-3.5,7.1-3.52,18.45,1.21,24.48,2.92,3.45,7.8,5.41,14.09,4.33,5.43-.94,8.52-5.9,9.55-9.85,2.23-8.84-.14-19.68-5.23-23.79-5.36-3.91-15.39-3.82-19.61,4.83Z"/>
          <g>
            <path class="cls-2" d="M230.45,346.58c-1.17-4.16-4.32-7.43-8.44-8.76-7.86-2.55-15.82-1.48-20.77,2.79-5.16,4.56-5.41,12.65-2.19,16.84,2.99,3.88,7.72,5.9,14.48,6.2.31.01.63.02.94.02,5.41,0,10.44-1.98,13.31-5.27v-.02c2.83-3.28,3.82-7.69,2.67-11.81Z"/>
            <path class="cls-3" d="M219.9,344.33c-2.1-.68-4.24-1.01-6.25-1.01-3.19,0-6.05.84-7.91,2.45-2.45,2.17-2.29,6.18-1.26,7.52,1.68,2.18,4.74,3.34,9.35,3.54,4.27.17,7.46-1.38,8.79-2.9,1.34-1.56,1.79-3.55,1.24-5.49-.54-1.94-2.02-3.48-3.96-4.11Z"/>
          </g>
        </g>
      </g>
      <g>
        <g>
          <path class="cls-2" d="M174.31,404.66c-1.48-4.63-4.48-8.3-7.74-11.99-11.57-11.1-31.77-15.56-47.81-10.64-11.58,3.03-24.94,13.2-26.89,28.3-1.79,11.76,2.42,22.06,11.65,27.76,9.31,4.78,19.42,4.67,29.7-.17.87-.33,1.3-.24,3.57.72,1.42.61,3.17,1.34,5.28,1.7,3.57,1.03,6.76,1.46,9.57,1.46,7.46,0,12.38-3.02,15.44-6.04,7.97-7.84,10.94-20.61,7.23-31.1Z"/>
          <path class="cls-5" d="M163.97,408.25c-.03-.07-.05-.13-.07-.2-.84-2.65-3.05-5.31-5.25-7.82-8.41-8.05-24.41-11.47-36.92-7.67-8.41,2.21-17.79,9.67-19.04,19.29-.55,3.62-1.01,12.25,6.19,16.72,5.93,3.02,12.4,2.87,20-.7,1.9-.75,3.63-1.02,5.19-1.02,2.92,0,5.24.98,6.98,1.72,1.12.47,2.08.88,2.97,1.01.27.04.53.09.78.17,6.51,1.94,11.44,1.34,14.59-1.78,4.91-4.82,6.87-13.3,4.58-19.71Z"/>
        </g>
        <g>
          <path class="cls-2" d="M338.19,412.62c-1.98-15.21-15.33-25.39-26.69-28.34-16.27-4.97-36.47-.53-48.34,10.91-2.82,3.2-5.95,7-7.44,11.65-3.71,10.49-.74,23.27,7.22,31.1,3.07,3.03,8,6.05,15.45,6.05,2.81,0,5.99-.43,9.57-1.46,2.11-.36,3.86-1.1,5.28-1.7,2.29-.98,2.71-1.06,3.23-.88,10.61,5,20.73,5.1,30.44.1,8.83-5.48,13.04-15.78,11.27-27.43Z"/>
          <path class="cls-5" d="M327.35,414.15c-1.27-9.74-10.64-17.21-18.84-19.34-3.53-1.08-7.32-1.6-11.13-1.6-9.92,0-20.02,3.48-26.32,9.53-1.88,2.17-4.1,4.83-4.94,7.48-.02.07-.04.13-.07.2-2.29,6.41-.33,14.89,4.56,19.7,3.17,3.11,8.06,3.72,14.6,1.78.25-.07.51-.13.78-.17.89-.13,1.85-.54,2.97-1.01,2.67-1.14,6.69-2.83,11.82-.85,7.93,3.73,14.41,3.88,20.73.64,6.81-4.24,6.35-12.88,5.82-16.38Z"/>
        </g>
      </g>
      <g>
        <g class="cls-10">
          <rect class="cls-9" x="239.53" y="117.65" width="112.63" height="182.75" transform="translate(-18.63 388.82) rotate(-65)"/>
          <rect class="cls-4" x="172.31" y="160.48" width="112.63" height="34.41" transform="translate(-29.03 309.79) rotate(-65)"/>
          <rect class="cls-4" x="305.31" y="220.91" width="112.63" height="37.59" transform="translate(-8.45 466.15) rotate(-65)"/>
        </g>
        <path class="cls-2" d="M390.94,219c.07-12.49-5.34-22.53-15.6-29.03-.69-.44-1.39-.87-2.1-1.27-.77-.43-1.55-.85-2.34-1.22-11.64-5.67-23.69-4.48-34.15-2.53-5.83,1.33-9.45,2.5-11.74,3.46-1.46-1.46-3.03-2.84-4.74-4.07-.97-.67-6.37-4.22-14.15-5.76-.48-2.23-.98-3.97-1.26-4.88-.01-.05-.23-.79-.25-.84-1.29-3.88-4.26-11.63-9.68-19.9-6.8-10.34-15.02-17.72-24.49-21.96-15.15-6.65-29.01-3.93-42.64,8.55-6.19,6.4-11.53,14.18-15.87,23.1-.54,1.11-4.52,10.56-4.96,11.86-1.56,4.27-6.56,19.27-5.14,33.03.89,10.47,5.87,20.97,13,27.42.12.11.54.44.67.53,7.94,6.03,16.67,9.07,25.99,9.07,1.13,0,2.27-.05,3.42-.13,12.05-.93,21.23-4.61,21.51-4.72,1.18-.45,2.22-.93,3.33-1.4,3.32,4.59,7.6,8.48,12.65,11.05,6.29,3.17,11.23,4.29,15.81,4.29.67,0,1.31-.14,1.97-.18.25.54.51,1.09.92,1.73,9.83,18.53,24.19,24.87,33.25,24.48.58.03,1.17.05,1.76.05,15.78,0,33.72-11.18,44.46-28.18l.53-.88c3.53-5.77,8.87-14.5,9.85-31.66ZM262.41,229.52c-.08.03-8.08,3.2-18.37,4-11.87.91-19.44-4.85-21.88-6.66-5-4.53-8.79-12.66-9.45-20.34-1.18-11.51,3.16-24.52,4.61-28.48.39-1.06,3.95-9.57,4.44-10.59,3.84-7.9,8.52-14.72,13.66-20.06,10.24-9.38,19.41-11.29,30.57-6.38,7.49,3.35,14.15,9.4,19.77,17.96,4.92,7.49,7.54,14.61,8.32,16.91l.28.99c.1.33.23.76.37,1.26-3.12.38-6.39,1.21-9.76,2.67-.86.37-1.62.86-2.44,1.29-1.82-1.99-4.05-3.77-6.3-5.03-6.73-3.79-14.11-3.84-20.25-.13-6.59,4-10.46,11.71-9.86,19.44.23,6.03,2.69,11.16,7.12,14.82,2.87,2.37,6.27,3.78,9.4,4.6,0,.53-.07,1.05-.06,1.58.03,3.82.78,7.6,2.04,11.21-.76.31-1.43.63-2.24.94ZM264.12,204.83c-1.43-.51-2.96-1.24-4.22-2.39-1.79-1.63-2.7-3.75-2.82-6.7-.29-3.87,1.51-7.58,4.61-9.47,2.17-1.32,4.47-1.53,7.04-.66,2.02.68,3.67,1.86,4.9,2.98-4.48,4.46-7.75,9.99-9.5,16.23ZM306.89,241.22c-7.63,2.01-11.53,2.43-19.54-1.62-8.18-4.17-13.72-13.13-13.78-22.46-.43-11.82,5.62-21.89,15.78-26.29,3.44-1.49,6.75-2.05,9.77-2.05,8.05,0,14.03,3.93,14.85,4.49,9.03,6.49,13.34,17.88,10.69,28.51-2.49,11.49-10.8,17.57-17.75,19.43ZM371.63,245.16l-.6,1.01c-8.69,13.74-23.71,23.26-36.56,22.57-6.52.09-15.93-5.15-23.02-17.53,4.14-1.36,8.46-3.71,12.35-7.14,1.96,1.41,4.3,2.61,7,3.2,1.02.22,2.2.38,3.49.38,3.21,0,7.18-.98,11.47-4.38,4.81-4.81,6.44-10.35,4.85-17.49-2.82-8.54-9.53-11.12-14.31-12.03-.27-5.63-1.81-11.14-4.48-16.14,2.05-.65,4.64-1.36,7.15-1.93,8.49-1.57,18.35-2.62,27.19,1.67.59.28,1.14.58,1.7.89.53.3,1.04.61,1.59.96,7.15,4.53,10.61,10.99,10.57,19.46-.82,14.14-4.94,20.88-8.38,26.5ZM335.17,224.73c2.53.61,4.13,1.69,4.89,3.94.65,2.96.13,4.69-1.56,6.43-1.71,1.35-3.44,1.83-5.18,1.51-.94-.17-1.76-.57-2.49-1,1.88-3.16,3.39-6.77,4.33-10.89Z"/>
      </g>
    </g>
    <g>
      <g>
        <g>
          <path class="cls-6" d="M94.54,126.64c9.43-3.87,16.99-8.97,22.46-15.17,6.58-7.45,9.91-16.26,9.91-26.2V31.24L77.61,4.02,28.31,31.24v54.03c0,9.93,3.34,18.75,9.91,26.2,5.47,6.19,13.03,11.3,22.46,15.17,4.51,1.85,9.72,4.2,14.12,7.59.44.34,1.55,1.2,1.56,1.2l1.26.98,1.26-.98s1.11-.86,1.56-1.2c4.4-3.39,9.6-5.73,14.12-7.59Z"/>
          <path class="cls-8" d="M77.61,4.02l49.3,27.22v54.03c0,9.93-3.34,18.75-9.91,26.2-5.47,6.19-13.03,11.3-22.46,15.17-4.51,1.85-9.72,4.2-14.12,7.59-.44.34-1.56,1.2-1.56,1.2l-1.26.98-1.26-.98s-1.11-.86-1.56-1.2c-4.4-3.39-9.6-5.73-14.12-7.59-9.43-3.87-16.99-8.97-22.46-15.17-6.58-7.45-9.91-16.26-9.91-26.2V31.24L77.61,4.02M24.79,29.17v56.11c0,10.82,3.63,20.42,10.79,28.53,5.83,6.6,13.82,12.02,23.76,16.09,4.3,1.76,9.24,3.99,13.31,7.12.32.24,2.8,2.17,2.8,2.17l2.16,1.67,2.16-1.67s2.37-1.84,2.8-2.17c4.07-3.13,9.01-5.36,13.3-7.12,9.94-4.08,17.93-9.49,23.76-16.09,7.16-8.11,10.79-17.71,10.79-28.53V29.17L77.61,0,24.79,29.17Z"/>
        </g>
        <path class="cls-7" d="M117,111.47c6.58-7.45,9.91-16.26,9.91-26.2V31.24l-19.65-10.85v99.52c3.75-2.53,7-5.35,9.73-8.45Z"/>
        <path class="cls-7" d="M28.31,31.24v54.03c0,9.93,3.34,18.75,9.91,26.2,2.73,3.09,5.99,5.92,9.73,8.45V20.4l-19.65,10.85Z"/>
      </g>
      <g>
        <path class="cls-7" d="M86.55,42.84s0-.02,0-.02c0,0,0,.02,0,.02Z"/>
        <path class="cls-7" d="M80.14,121.44c-1.39-3.15-3.8-5.33-7.35-5.86,0,0,2.92,3.18,3.22,7.23.34,3.23,1.25,4.82,3.8,4.89,2.28.02,4.44-2.98,4.44-2.98,0,0-2.57.46-4.11-3.27Z"/>
        <path class="cls-7" d="M86.79,59.34c-1.48,3.55-5.47,7.8-4.66,10.66.82,2.87,3.76,3.24,8.19,4.84,0,0-3.57-2.85-4.52-6.3-.96-3.45.66-5.34.99-9.2Z"/>
        <path class="cls-7" d="M79.84,108.23s2.37-2.79,1.98-9.36c-.2-3.27-.08-5.85,3.6-8.18,0,0,6.18-3.73,12.76-1.23,1.52.58,5.27,1.88,6.88,5.59,0,0-.74-7.23-8.6-9.47-3.16-.84-6.75-1.08-11.53,1.85-2,1.22-3.78,2.79-5.33,4.59-1.02,1.18-1.42,1.84-2.2,2.65,0,0-4.07,4.3-7.69,6.47,0,0,7.46-.27,10.13,7.1Z"/>
        <path class="cls-7" d="M97.3,91.91c-8.57-1.53-13.34,4.18-13.34,4.18,8.18.41,10,7.27,9.09,13.76-.91,6.96-8.62,14.78-8.62,14.78,11.95-5.7,16.05-12.6,16.09-19.85.04-7.38-6.38-9.18-6.38-9.18,11.88,1.46,8.02,14.66,8.02,14.66,6.77-11.95-.28-17.34-4.87-18.36Z"/>
        <path class="cls-7" d="M71.24,45.25c8.93-5.93,10.72-10.95,10.99-14.17.41-4.19-.85-7.67-1.66-10.43-1.52-5.7-2.8-11.81-2.8-11.81-1.41,6.15.06,13.35.23,15.87.19,3.2-.21,5.08-.53,6.81-1.19,6.78-6.24,13.72-6.24,13.72Z"/>
        <path class="cls-7" d="M80.44,87.85c2.82-2.41,7.55-4.84,10.35-4.86,0,0-11.12-5.12-24.65,6.39,0,0,9.49-3.93,10.53-2.65,1.05,1.28-5.76,6.37-7.65,7.61-1.89,1.24-9.46,6.6-10.64,4.45-1.18-2.15,1.49-7.25,3.28-9.68,1.31-1.78,3.97-4.34,7.52-6.39h0c1.3-.75,2.72-1.43,4.24-1.98,1.28-.45,4.4-1.11,7.78-1.27h0s0,0,0,0c5.1-.24,11.48.68,18.51,5.29,0,0-8.42-7.56-14.05-9.13-3.83-1.07-7.4-4.4-5.69-9.48,1.62-4.82,9.2-10.84,7-24.61.04.37-.67,4.41-3.98,9.98-1.42,2.4-4.13,5.31-6.4,8.53,4.57-9.66,11.36-20.49,8.03-30.07,0,0,.13,3.83-1.28,6.65-1.28,2.56-2.83,4.34-7.4,7.98-4.57,3.64-6.52,4.33-8.94,9.99,0,0-1.32,2.33-1.26,6.38.06,4.03,4.15,10.09,4.15,10.09,0,0-2.13-5.88,1.16-13.49,1.65-3.82,3.51-5.82,5.45-7.98-7.91,19.03-2.67,24.29-2.67,24.29h0s-1.29.17-5.05,1.61c0,0-9.42,3.57-15.27,12.23-3.08,4.75-3.63,8.9-3.63,8.9,0,0-.77,4.69.29,6.27,0,0,0,0,0,0,1.48,2.26,4.71,1.92,9.18.44,2.99-1.15,8.6-4.6,11.8-7.25,3.21-2.65,6.97-6.05,9.29-8.21Z"/>
      </g>
    </g>
  </g>
</svg>