<?xml version="1.0" encoding="UTF-8"?>
<svg id="_レイヤー_2" data-name="レイヤー 2" xmlns="http://www.w3.org/2000/svg" xmlns:xlink="http://www.w3.org/1999/xlink" viewBox="0 0 426.45 448.56">
  <defs>
    <style>
      .cls-1 {
        fill: none;
      }

      .cls-2 {
        fill: #221815;
      }

      .cls-3 {
        fill: #ffe100;
      }

      .cls-4 {
        fill: #fff;
      }

      .cls-5 {
        fill: #004098;
      }

      .cls-6 {
        fill: #004ea2;
      }

      .cls-7 {
        fill: #ea5504;
      }

      .cls-8 {
        clip-path: url(#clippath);
      }
    </style>
    <clipPath id="clippath">
      <path class="cls-1" d="M390.94,223.58c.07-12.49-5.34-22.53-15.6-29.03-.69-.44-1.39-.87-2.1-1.27-.77-.43-1.55-.85-2.34-1.22-11.64-5.67-23.69-4.48-34.15-2.53-5.83,1.33-9.45,2.5-11.74,3.46-1.46-1.46-3.03-2.84-4.74-4.07-.97-.67-6.37-4.22-14.15-5.76-.48-2.22-.98-3.97-1.26-4.88-.01-.05-.23-.79-.25-.84-1.29-3.88-4.26-11.63-9.68-19.89-6.8-10.34-15.02-17.72-24.49-21.96-15.15-6.65-29.01-3.93-42.64,8.55-6.19,6.4-11.53,14.18-15.87,23.1-.54,1.12-4.52,10.56-4.96,11.86-1.56,4.27-6.56,19.27-5.14,33.03.89,10.47,5.87,20.98,13,27.42.12.11.54.44.67.53,7.94,6.03,16.67,9.07,25.99,9.07,1.13,0,2.27-.05,3.42-.13,12.05-.93,21.23-4.61,21.51-4.72,1.18-.45,2.22-.93,3.33-1.4,3.32,4.59,7.6,8.48,12.65,11.05,6.29,3.17,11.23,4.29,15.81,4.29.67,0,1.31-.14,1.97-.18.25.54.51,1.09.92,1.73,9.83,18.53,24.19,24.87,33.25,24.48.58.03,1.17.05,1.76.05,15.78,0,33.72-11.18,44.46-28.18l.53-.88c3.53-5.77,8.87-14.5,9.85-31.66Z"/>
    </clipPath>
  </defs>
  <g id="_レイヤー_1-2" data-name="レイヤー 1">
    <g>
      <path class="cls-7" d="M426.45,231.05c0,117.76-84.41,196.43-213.22,196.43S0,348.81,0,231.05,95.46,17.82,213.22,17.82s213.22,95.46,213.22,213.23Z"/>
      <g>
        <g>
          <path class="cls-2" d="M419.51,299.6c-1.3-.72-2.84-1.24-3.8-1.44-6.81-1.4-13.64-2.18-20.31-2.33-3.7-.09-7.16,0-10.5.16-1.79-20.11-8.09-39.31-19.27-58.27,1.62-9.72,2.12-22.36,2.53-32.66l.21-5.17c.84-18.75-5.88-43.26-14.38-52.47-2.12-2.29-5.31-4.04-8.12-4.45-21.54-3.21-49.87,5.35-81.73,24.67l-4-.6c-26.18-3.9-58.77-8.75-103.06,1.53-1.4.32-2.95.78-4.54,1.26-2.37.71-6.76,1.98-7.92,1.68-8.49-4.64-30.28-15.71-49.14-18.5-17.53-2.61-29.09.83-34.52,10.31-15.37,28.86-7.65,69.07-4.44,79.47-16,31.01-15.7,63.87-15.6,67.47,0,.84.03,1.72.04,2.58-.84.06-1.6.09-2.48.16-8.93.71-17.8,1.58-28.07,4.44-3.34.92-6.41,3.14-5.81,5.59.47,1.92,2.84,2.34,4.83,2.34,1.54,0,2.85-.25,2.89-.26,10.63-2.17,16.02-2.75,23.47-3.55l3.14-.34c.81-.09,1.61-.13,2.42-.2.81,9.68,2.85,19.99,6.48,30.18-4.44,1.67-9.56,3.89-15.71,7.07-.04.02-3.98,2.08-4.74,4.62-.23.78-.15,1.56.23,2.24.62,1.11,1.92,1.46,3.31,1.46,2.3,0,4.82-.95,4.86-.96,1.84-.81,3.57-1.58,5.21-2.31,3.72-1.66,6.96-3.05,10-4.23,3.93,8.9,9.09,17.53,15.73,25.34-6.84,3.95-15.09,9.33-24.43,16.6-1.94,1.52-3.19,3.45-3.41,5.32-.12,1.04.11,1.99.65,2.67.41.51,1.18.73,2.1.73,1.62,0,3.71-.68,5.14-1.7,10.26-7.27,19.16-12.89,26.15-17.04,7.51,7.31,16.5,13.67,27.22,18.49,35.27,15.84,67.77,19.4,108.95,20l4.04-.06,4.36.06c47.38-.7,84.81-7.46,111.26-20.11,15.35-7.34,27.56-17.24,36.7-29.54,7.64,2.61,16.9,6.62,25.83,12.66,1.14.79,3.45,2.17,5.5,2.17.92,0,1.79-.27,2.47-1.01.29-.3.61-.85.53-1.73-.17-1.86-2.22-4.46-3.56-5.43-9.12-6.66-18.29-10.95-26.01-13.74,5.25-8.67,9.17-18.37,11.72-29.12,5.64.9,12.22,2.35,19.44,4.77.04,0,2.17.71,4.26.71,1.57,0,3.11-.39,3.7-1.78.27-.63.26-1.33-.03-2.02-1.04-2.48-5.39-4.32-5.43-4.33-7.12-2.82-14.12-4.48-20.31-5.49,1.35-8.14,2-16.8,1.93-26,.02-1.57-.07-3.12-.1-4.67,2.93-.16,5.97-.26,9.16-.22,4.96.05,10.48.42,15.35.74,1.52.1,2.99.19,4.4.28,3.19.18,7.1-.41,7.57-2.73.17-.81-.11-2.03-2.36-3.29Z"/>
          <path class="cls-4" d="M354.53,237.74c1.76-9.13,2.29-22.42,2.71-33.11l.22-5.23c.76-16.97-5.67-38.25-11.49-44.55-.51-.56-1.4-.99-1.72-1.06-18.78-2.76-45.27,5.51-74.57,23.31-2.08,1.26-3.22,1.95-5.23,1.65l-5.91-.87c-25.25-3.76-56.69-8.45-98.98,1.36-1.2.27-2.52.68-3.88,1.08-5.38,1.6-11.46,3.43-16.3.79-7.98-4.35-28.38-14.75-45.5-17.28-12.59-1.85-20.45-.25-23.34,4.78-10.47,19.65-8.42,46.45-5.73,61.45.72-.85,1.42-1.62,2.07-2.27,2.63-2.63,5.32-3.6,7.16-2.33,1.91,1.32,1.15,4.66-.08,7.33-1.22,2.65-3.69,7.76-5.63,11.18,0,0,0,.01,0,.02-16.85,29.6-16.54,62.53-16.45,66.2,0,.74.03,1.51.04,2.26,9.31.02,14.99,1,17.89,1.74l.21.05c.06.01,7.62,1.41,7.18,5.04-.39,3.23-4.98,2.99-7.2,2.87l-.82-.06c-2.44-.37-8.96-1.24-16.86-1.4.79,8.79,2.71,18.09,6.01,27.25,4.52-1.04,7.71-1.28,9.83-1.4l.29-.02c2.79-.15,9.39-.25,9.73,3.07.3,2.87-4.87,4.24-7.11,4.7-1.04.21-2.16.36-3.41.53-1.75.24-3.74.52-6.09,1.02,3.77,8.24,8.76,16.15,15.14,23.24,6.63-3.22,10.45-4.39,10.53-4.42.06-.03,6.57-1.68,7.84,1.28,1.09,2.56-1.67,3.92-4.33,5.24-.85.42-1.74.86-2.55,1.35,0,0-.09.05-.26.13-1.03.51-2.75,1.4-5.02,2.62,6.17,5.56,13.32,10.43,21.71,14.2,33.54,15.07,64.84,18.45,104.46,19.04l4.04-.06,4.36.06c44.98-.67,81.88-7.25,106.54-19.04,12.36-5.91,22.38-13.54,30.17-22.9-3.71-.86-5.98-1.18-6.04-1.19-1.42-.14-5.85-1.17-7.34-3.19-.44-.61-.61-1.28-.47-1.94.75-3.62,7.32-2.9,10.09-2.43.35.03,3.75.38,9.03,1.65,5.2-7.94,9.03-16.98,11.53-27.1-2.33-.14-4.2-.17-5.48-.17-2.44.01-5.28-.05-5.28-.05-.73-.07-6.59-.76-6.82-3.68-.03-.39.05-1,.6-1.64,1.31-1.53,4.62-2.39,6.03-2.5l.31-.03c.84-.08,3.07-.3,5.31-.32h.61c1.62,0,3.81.05,6.42.22,1.29-7.68,1.93-15.9,1.86-24.75.01-1.24-.06-2.46-.09-3.69-6.85.85-12.47,1.97-16.3,2.74-1.96.39-3.38.68-4.24.78-1.38.2-2.56.3-3.55.3-2.31,0-3.58-.56-4-1.72-.29-.84-.23-1.74.18-2.59.74-1.52,2.53-2.81,5.19-3.71,2.09-.71,10.2-3.2,22.24-4.68-1.72-19.09-7.86-37.28-18.78-55.31-.7-1.16-.95-2.54-.69-3.87Z"/>
        </g>
        <g>
          <path class="cls-2" d="M115.31,319.42c-3.5,7.1-3.52,18.45,1.21,24.48,2.92,3.45,7.8,5.41,14.09,4.33,5.43-.94,8.52-5.9,9.55-9.85,2.23-8.84-.14-19.68-5.23-23.79-5.36-3.91-15.39-3.82-19.61,4.83Z"/>
          <path class="cls-2" d="M285.41,320.45c-3.5,7.1-3.52,18.45,1.21,24.48,2.92,3.45,7.8,5.41,14.09,4.33,5.43-.94,8.52-5.9,9.55-9.85,2.23-8.84-.15-19.68-5.23-23.79-5.36-3.91-15.39-3.82-19.61,4.83Z"/>
          <g>
            <path class="cls-2" d="M230.45,351.17c-1.17-4.16-4.32-7.43-8.44-8.76-7.86-2.55-15.82-1.48-20.77,2.79-5.16,4.56-5.41,12.65-2.19,16.84,2.99,3.87,7.72,5.9,14.48,6.2.31.01.63.02.94.02,5.41,0,10.44-1.98,13.31-5.27v-.02c2.83-3.28,3.82-7.69,2.67-11.81Z"/>
            <path class="cls-3" d="M219.9,348.91c-2.1-.68-4.24-1.01-6.25-1.01-3.19,0-6.05.84-7.91,2.45-2.45,2.17-2.29,6.18-1.26,7.52,1.68,2.18,4.74,3.34,9.35,3.54,4.27.17,7.46-1.38,8.79-2.9,1.34-1.56,1.79-3.55,1.24-5.49-.54-1.94-2.02-3.48-3.96-4.11Z"/>
          </g>
        </g>
      </g>
      <g>
        <g>
          <path class="cls-2" d="M174.31,409.25c-1.48-4.63-4.48-8.3-7.74-11.99-11.57-11.1-31.76-15.56-47.81-10.64-11.58,3.03-24.94,13.2-26.89,28.3-1.79,11.76,2.42,22.06,11.65,27.76,9.31,4.78,19.42,4.67,29.7-.17.87-.33,1.3-.24,3.57.72,1.42.61,3.17,1.34,5.28,1.7,3.57,1.03,6.76,1.46,9.57,1.46,7.46,0,12.38-3.02,15.44-6.04,7.97-7.84,10.94-20.61,7.23-31.1Z"/>
          <path class="cls-4" d="M163.97,412.83c-.03-.07-.05-.13-.07-.2-.83-2.65-3.05-5.31-5.25-7.82-8.41-8.05-24.41-11.47-36.92-7.67-8.41,2.21-17.79,9.67-19.04,19.29-.55,3.62-1.01,12.25,6.19,16.72,5.93,3.02,12.4,2.87,20-.7,1.9-.75,3.63-1.02,5.19-1.02,2.92,0,5.24.98,6.98,1.72,1.12.47,2.08.88,2.97,1.01.27.04.53.09.78.17,6.51,1.94,11.44,1.34,14.59-1.78,4.91-4.82,6.87-13.3,4.58-19.71Z"/>
        </g>
        <g>
          <path class="cls-2" d="M338.19,417.21c-1.98-15.21-15.33-25.39-26.69-28.34-16.27-4.97-36.47-.53-48.34,10.91-2.82,3.2-5.95,7-7.44,11.65-3.71,10.49-.74,23.27,7.22,31.1,3.07,3.03,8,6.05,15.45,6.05,2.81,0,5.99-.43,9.57-1.46,2.11-.36,3.85-1.1,5.28-1.7,2.29-.98,2.71-1.06,3.23-.88,10.61,5,20.73,5.11,30.44.1,8.83-5.48,13.04-15.78,11.27-27.43Z"/>
          <path class="cls-4" d="M327.35,418.74c-1.27-9.74-10.64-17.21-18.84-19.34-3.53-1.08-7.32-1.6-11.13-1.6-9.92,0-20.02,3.48-26.32,9.54-1.88,2.17-4.1,4.83-4.94,7.48-.02.07-.04.13-.07.2-2.29,6.41-.33,14.89,4.56,19.7,3.17,3.11,8.06,3.72,14.6,1.78.25-.07.51-.13.78-.17.89-.13,1.85-.53,2.97-1.01,2.67-1.14,6.69-2.83,11.82-.85,7.93,3.73,14.41,3.87,20.73.64,6.81-4.24,6.35-12.88,5.82-16.38Z"/>
        </g>
      </g>
      <g>
        <g class="cls-8">
          <rect class="cls-7" x="243.71" y="126.7" width="102.83" height="173.15" transform="translate(-22.89 390.61) rotate(-65)"/>
          <g>
            <polygon class="cls-6" points="510.78 287.81 580.39 320.27 572.8 324.18 507.93 293.93 127.88 116.71 62.98 86.45 61.1 78.12 130.73 110.59 510.78 287.81"/>
            <polygon class="cls-6" points="506.35 297.32 568.6 326.34 561.01 330.25 503.5 303.43 123.45 126.21 65.91 99.39 64.03 91.06 126.3 120.1 506.35 297.32"/>
            <polygon class="cls-6" points="501.92 306.82 556.81 332.41 549.22 336.32 499.06 312.94 119.01 135.72 68.84 112.32 66.95 103.99 121.87 129.6 501.92 306.82"/>
            <polygon class="cls-6" points="497.49 316.32 545.02 338.48 537.42 342.39 494.63 322.44 114.58 145.22 71.77 125.26 69.88 116.93 117.44 139.1 497.49 316.32"/>
            <path class="cls-6" d="M493.05,325.82l40.02,18.66c-8.39,2.97-13.49.35-18.21-1.85l-24.36-11.36L110.46,154.06l-24.38-11.37c-4.72-2.2-10-4.42-13.12-12.76l40.04,18.67,380.05,177.22Z"/>
          </g>
        </g>
        <path class="cls-2" d="M390.94,223.58c.07-12.49-5.34-22.53-15.6-29.03-.69-.44-1.39-.87-2.1-1.27-.77-.43-1.55-.85-2.34-1.22-11.64-5.67-23.69-4.48-34.15-2.53-5.83,1.33-9.45,2.5-11.74,3.46-1.46-1.46-3.03-2.84-4.74-4.07-.97-.67-6.37-4.22-14.15-5.76-.48-2.22-.98-3.97-1.26-4.88-.01-.05-.23-.79-.25-.84-1.29-3.88-4.26-11.63-9.68-19.89-6.8-10.34-15.02-17.72-24.49-21.96-15.15-6.65-29.01-3.93-42.64,8.55-6.19,6.4-11.53,14.18-15.87,23.1-.54,1.12-4.52,10.56-4.96,11.86-1.56,4.27-6.56,19.27-5.14,33.03.89,10.47,5.87,20.98,13,27.42.12.11.54.44.67.53,7.94,6.03,16.67,9.07,25.99,9.07,1.13,0,2.27-.05,3.42-.13,12.05-.93,21.23-4.61,21.51-4.72,1.18-.45,2.22-.93,3.33-1.4,3.32,4.59,7.6,8.48,12.65,11.05,6.29,3.17,11.23,4.29,15.81,4.29.67,0,1.31-.14,1.97-.18.25.54.51,1.09.92,1.73,9.83,18.53,24.19,24.87,33.25,24.48.58.03,1.17.05,1.76.05,15.78,0,33.72-11.18,44.46-28.18l.53-.88c3.53-5.77,8.87-14.5,9.85-31.66ZM262.41,234.1c-.08.03-8.08,3.2-18.37,4-11.87.91-19.45-4.84-21.88-6.66-5-4.53-8.79-12.66-9.45-20.34-1.18-11.51,3.16-24.52,4.61-28.48.39-1.06,3.95-9.57,4.44-10.59,3.84-7.9,8.52-14.72,13.66-20.06,10.24-9.38,19.41-11.29,30.57-6.38,7.49,3.35,14.15,9.4,19.77,17.96,4.92,7.49,7.54,14.61,8.32,16.9l.28.99c.1.33.23.76.37,1.26-3.12.38-6.39,1.21-9.76,2.67-.86.37-1.62.86-2.44,1.29-1.82-1.99-4.05-3.77-6.3-5.03-6.73-3.79-14.11-3.84-20.25-.13-6.59,4-10.46,11.71-9.86,19.44.23,6.03,2.69,11.16,7.12,14.82,2.87,2.37,6.27,3.78,9.4,4.6,0,.53-.07,1.05-.06,1.58.03,3.82.78,7.6,2.04,11.21-.76.31-1.43.63-2.24.94ZM264.12,209.41c-1.43-.51-2.96-1.24-4.22-2.39-1.79-1.63-2.7-3.75-2.82-6.7-.29-3.87,1.51-7.59,4.61-9.47,2.17-1.31,4.47-1.53,7.04-.66,2.02.68,3.67,1.86,4.9,2.98-4.48,4.46-7.75,9.99-9.5,16.23ZM306.89,245.8c-7.63,2.01-11.53,2.43-19.54-1.62-8.18-4.17-13.72-13.13-13.78-22.46-.43-11.82,5.62-21.89,15.78-26.29,3.44-1.49,6.75-2.05,9.77-2.05,8.05,0,14.03,3.93,14.85,4.49,9.03,6.49,13.34,17.88,10.69,28.51-2.49,11.49-10.8,17.57-17.75,19.43ZM371.63,249.74l-.6,1.01c-8.69,13.74-23.71,23.26-36.56,22.57-6.52.09-15.93-5.16-23.02-17.53,4.14-1.36,8.46-3.71,12.35-7.14,1.96,1.41,4.3,2.61,7,3.2,1.02.22,2.2.38,3.49.38,3.21,0,7.18-.98,11.47-4.38,4.81-4.81,6.43-10.35,4.84-17.49-2.82-8.54-9.53-11.12-14.31-12.03-.27-5.63-1.81-11.14-4.48-16.14,2.05-.65,4.64-1.36,7.15-1.93,8.49-1.57,18.35-2.62,27.19,1.67.59.28,1.14.58,1.7.89.53.3,1.04.61,1.59.96,7.15,4.53,10.61,10.99,10.57,19.46-.82,14.14-4.94,20.88-8.38,26.5ZM335.17,229.31c2.53.61,4.13,1.69,4.89,3.94.65,2.96.13,4.69-1.56,6.43-1.71,1.35-3.44,1.83-5.18,1.51-.94-.17-1.76-.56-2.49-1,1.88-3.16,3.39-6.77,4.33-10.89Z"/>
      </g>
    </g>
    <g>
      <path class="cls-4" d="M121.94,39.69l.05,13.07v1.73s1.09-1.36,1.09-1.36c.08-.1,1.64-2.1,2.69-5.8.56,1.68,1.33,4.43,1.83,7.98,0,0,0,0,0,0,0,.04,0,.07.01.11.06.4.11.81.16,1.23,0,.07.02.13.02.2,0,0,0,0,0,0,.22,1.99.35,4.18.31,6.54,0,0,0,0,0,0,0,.04,0,.07,0,.11,0,.44-.02.88-.04,1.33,0,.05,0,.1,0,.15t0,0c-.1,2.14-.35,4.41-.77,6.77,0,0,0,0,0,0-.02.09-.03.17-.05.26-.05.25-.1.51-.15.77-.03.15-.06.31-.09.46,0,0,0,0,0,0-.51,2.4-1.21,4.88-2.17,7.42,0,0,0,0,0,0-.1.28-.22.56-.33.84-.06.14-.11.29-.17.43,0,.02-.02.05-.03.07,0,0,0,0,0,0-.65,1.6-1.39,3.22-2.25,4.86l-.07.13v22.17c.02.12,1.28,11.63-6.47,20.97-5.9,7.12-15.4,11.18-28.22,12.07h-.03s-.03,0-.03,0c-.2.03-4.8.81-9.65,5.51h0s0,0,0,0c-4.85-4.7-9.45-5.47-9.65-5.51h-.03s-.03,0-.03,0c-12.82-.89-22.31-4.95-28.22-12.07-7.75-9.34-6.49-20.86-6.47-20.97v-.04s0-.04,0-.04v-22.09l-.07-.13c-.86-1.64-1.6-3.26-2.25-4.86,0,0,0,0,0,0,0-.02-.02-.05-.03-.07-.06-.14-.11-.29-.17-.43-.11-.28-.22-.56-.33-.84,0,0,0,0,0,0-.95-2.54-1.66-5.03-2.17-7.42,0,0,0,0,0,0-.03-.16-.06-.31-.09-.46-.05-.26-.1-.51-.15-.77-.02-.09-.04-.17-.05-.26,0,0,0,0,0,0-.43-2.36-.67-4.63-.77-6.77t0,0s0-.1,0-.15c-.02-.45-.03-.89-.04-1.33,0-.04,0-.07,0-.11,0,0,0,0,0,0-.04-2.36.09-4.55.31-6.54,0,0,0,0,0,0,0-.07.02-.13.03-.2.05-.42.1-.83.16-1.23,0-.04,0-.07.01-.11,0,0,0,0,0,0,.5-3.55,1.28-6.31,1.83-7.98,1.05,3.7,2.62,5.71,2.69,5.8l1.08,1.36v-1.73s.06-13.07.06-13.07c0-7.52-5.04-14.63-7.1-17.21h40.52l-6.59-5.44h13.22l4.29-13.12,4.29,13.12h13.22l-6.59,5.44h40.52c-2.06,2.58-7.1,9.69-7.1,17.21Z"/>
      <path d="M131.7,21.26h-39.78l6.6-5.44h-15.74l-5.18-15.82-5.18,15.82h-15.74l6.6,5.44H23.5l.91,1.03c.08.09,7.64,8.62,7.64,17.39,0,0-.03,7.19-.04,10.91-.63-1.23-1.38-3.07-1.85-5.46l-.37-1.88-.79,1.75c-.09.2-2.23,5.04-2.94,12.71-.65,7.05-.15,17.88,5.93,29.57v21.76c-.09.82-1.21,12.24,6.74,21.84,6.12,7.39,15.89,11.6,29.05,12.52.33.06,4.83.96,9.38,5.58l.43.44h0s0,0,0,0l.43-.44c4.55-4.63,9.06-5.52,9.38-5.58,13.16-.92,22.93-5.13,29.05-12.52,7.95-9.61,6.83-21.03,6.74-21.84v-21.76c6.08-11.68,6.59-22.52,5.93-29.57-.71-7.68-2.85-12.51-2.94-12.71l-.79-1.75-.37,1.88c-.47,2.39-1.22,4.23-1.85,5.46-.01-3.71-.04-10.91-.04-10.91,0-8.77,7.56-17.31,7.64-17.39l.91-1.03ZM121.94,39.69l.05,13.07v1.73s1.09-1.36,1.09-1.36c.08-.1,1.64-2.1,2.69-5.8.56,1.68,1.33,4.43,1.83,7.98,0,0,0,0,0,0,0,.04,0,.07.01.11.06.4.11.81.16,1.23,0,.07.02.13.02.2,0,0,0,0,0,0,.22,1.99.35,4.18.31,6.54,0,0,0,0,0,0,0,.04,0,.07,0,.11,0,.44-.02.88-.04,1.33,0,.05,0,.1,0,.15t0,0c-.1,2.14-.35,4.41-.77,6.77,0,0,0,0,0,0-.02.09-.03.17-.05.26-.05.25-.1.51-.15.77-.03.15-.06.31-.09.46,0,0,0,0,0,0-.51,2.4-1.21,4.88-2.17,7.42,0,0,0,0,0,0-.1.28-.22.56-.33.84-.06.14-.11.29-.17.43,0,.02-.02.05-.03.07,0,0,0,0,0,0-.65,1.6-1.39,3.22-2.25,4.86l-.07.13v22.17c.02.12,1.28,11.63-6.47,20.97-5.9,7.12-15.4,11.18-28.22,12.07h-.03s-.03,0-.03,0c-.2.03-4.8.81-9.65,5.51h0s0,0,0,0c-4.85-4.7-9.45-5.47-9.65-5.51h-.03s-.03,0-.03,0c-12.82-.89-22.31-4.95-28.22-12.07-7.75-9.34-6.49-20.86-6.47-20.97v-.04s0-.04,0-.04v-22.09l-.07-.13c-.86-1.64-1.6-3.26-2.25-4.86,0,0,0,0,0,0,0-.02-.02-.05-.03-.07-.06-.14-.11-.29-.17-.43-.11-.28-.22-.56-.33-.84,0,0,0,0,0,0-.95-2.54-1.66-5.03-2.17-7.42,0,0,0,0,0,0-.03-.16-.06-.31-.09-.46-.05-.26-.1-.51-.15-.77-.02-.09-.04-.17-.05-.26,0,0,0,0,0,0-.43-2.36-.67-4.63-.77-6.77t0,0s0-.1,0-.15c-.02-.45-.03-.89-.04-1.33,0-.04,0-.07,0-.11,0,0,0,0,0,0-.04-2.36.09-4.55.31-6.54,0,0,0,0,0,0,0-.07.02-.13.03-.2.05-.42.1-.83.16-1.23,0-.04,0-.07.01-.11,0,0,0,0,0,0,.5-3.55,1.28-6.31,1.83-7.98,1.05,3.7,2.62,5.71,2.69,5.8l1.08,1.36v-1.73s.06-13.07.06-13.07c0-7.52-5.04-14.63-7.1-17.21h40.52l-6.59-5.44h13.22l4.29-13.12,4.29,13.12h13.22l-6.59,5.44h40.52c-2.06,2.58-7.1,9.69-7.1,17.21Z"/>
      <g>
        <path class="cls-5" d="M69.15,78.81h5.1c2.01-9.99,1.85-18.59,1.22-24.58l-11.57,8.41,5.25,16.17Z"/>
        <path class="cls-5" d="M36.92,57.23c4.58,3.16,10.4,5.21,14.94,6.51l2.76-3.83.53-13.05-3.94,1.33c4.04-5.5,9.77-9.68,16.42-11.8l-2.5,3.29,9.95,2.94h0l2.51-5.73,2.51,5.73h0l9.95-2.94-2.5-3.29c6.65,2.12,12.38,6.3,16.42,11.8l-3.94-1.33.53,13.05,2.76,3.83c4.54-1.3,10.37-3.35,14.94-6.51v-16.32c0-7.1,2.5-12.36,4-14.87h-39.49l2.52,8.49-7.72-5.7-7.72,5.7,2.52-8.49h-39.49c1.5,2.51,4,7.77,4,14.87v16.32Z"/>
        <path class="cls-5" d="M42.18,66.74c2.97.98,5.42,1.34,6.77,1.48l.2-1.09c-3.15-.31-13.94-2.03-21.55-11.8,0,.04,0,.07-.01.11-.06.4-.11.81-.16,1.23,0,.07-.01.13-.02.2,4.82,5.74,10.72,8.54,14.77,9.88Z"/>
        <path class="cls-5" d="M48.55,72.32l.2-1.09c-2.87.02-13.6,0-21.66-7.83,0,.04,0,.07,0,.11,0,.44.02.88.04,1.33,0,.05,0,.1,0,.15,7.33,7.2,18.35,7.37,21.41,7.33Z"/>
        <path class="cls-5" d="M48.97,76.89l-.15-1.09c-2.2.34-12.63,1.75-20.9-4.05.02.09.03.17.05.25.05.25.1.51.15.77.03.15.06.31.1.47,7.67,5.36,18.37,4.04,20.75,3.66Z"/>
        <path class="cls-5" d="M49.84,81.11l-.34-1.08c-.09.04-9.16,3.52-19.12.63.1.28.21.56.32.84.06.14.11.29.17.43,0,.02.02.05.03.07,9.38,2.59,18.54-.73,18.94-.88Z"/>
        <path class="cls-5" d="M50.61,83.73c-.08.05-7.74,4.96-16.54,4.49l.68,1.15c8.73.14,16.1-4.49,16.44-4.7l-.58-.94Z"/>
        <path class="cls-5" d="M80.96,78.81h5.1l5.25-16.17-11.57-8.41c-.62,5.99-.78,14.59,1.23,24.58Z"/>
        <path class="cls-5" d="M118.28,108.22v-15.34c-.58.71-1.18,1.42-1.8,2.18-6.3-.56-13.15-7.73-13.22-7.8l-.58.89c.29.31,6.17,6.83,12.98,7.88-1.41,1.62-2.92,3.16-4.52,4.6-6.45-3.46-9.87-9.93-9.9-9.99l-.74.96c.13.26,3.13,6.13,9.81,9.76-1.49,1.28-3.06,2.48-4.69,3.58l-7.42-10.76-.76.84,7.25,10.53c-1.44.93-2.93,1.79-4.47,2.58-2.02-7.48-4.9-10.95-5.02-11.11l-.87.68.06.08s2.84,3.71,4.8,10.86c-1.55.75-3.15,1.42-4.79,2.01.37-6.72-1.82-11.45-1.92-11.67l-.86.52c.02.05,2.11,5.04,1.74,11.51-1.98.66-4.01,1.2-6.08,1.61,4.52-9.28,1.73-15.37,1.6-15.63l-.99.47h0c.03.06,2.84,6.09-2.16,15.44-.03,0-.05,0-.08.01.03-.06.06-.12,0,0-.02.04-.03.05-.03.06-3.6,6.77,2.65,12.49,2.65,12.49l-10.67,11.11-10.67-11.11s6.25-5.73,2.65-12.49c0,0-.01-.02-.03-.06-.07-.12-.04-.06,0,0-.03,0-.05-.01-.08-.01-5-9.35-2.19-15.38-2.16-15.44h0s-.99-.47-.99-.47c-.13.27-2.92,6.35,1.6,15.63-2.07-.41-4.1-.95-6.08-1.61-.37-6.47,1.71-11.46,1.74-11.51l-.86-.52c-.1.22-2.29,4.95-1.92,11.67-1.64-.59-3.23-1.26-4.79-2.01,1.95-7.15,4.77-10.83,4.8-10.86l.06-.08-.87-.68c-.12.16-3,3.63-5.02,11.11-1.54-.78-3.03-1.64-4.47-2.58l7.25-10.53-.76-.84-7.42,10.76c-1.63-1.1-3.2-2.3-4.69-3.58,6.68-3.63,9.68-9.5,9.81-9.76l-.74-.96c-.03.06-3.45,6.53-9.9,9.99-1.6-1.44-3.11-2.97-4.52-4.6,6.81-1.06,12.69-7.57,12.98-7.88l-.58-.89c-.07.07-6.91,7.24-13.22,7.8-.63-.76-1.22-1.46-1.8-2.18v15.4c-.02.11-1.19,10.82,5.96,19.45,5.4,6.52,14.08,10.25,25.79,11.08h.03s.03,0,.03,0c.19.02,4.47.6,8.88,4.3,4.41-3.69,8.69-4.27,8.88-4.3h.03s.03,0,.03,0c11.72-.83,20.39-4.56,25.79-11.08,7.15-8.64,5.98-19.35,5.97-19.45v-.06Z"/>
        <path class="cls-5" d="M106.26,68.21c1.35-.13,3.8-.49,6.77-1.48,4.05-1.34,9.94-4.14,14.77-9.88,0-.07-.01-.13-.02-.2-.05-.42-.1-.83-.16-1.23,0-.04,0-.07-.01-.11-7.61,9.76-18.4,11.49-21.55,11.8l.2,1.09Z"/>
        <path class="cls-5" d="M106.45,71.23l.2,1.09c3.05.04,14.07-.13,21.41-7.33,0-.05,0-.1,0-.15.02-.45.03-.89.04-1.33,0-.04,0-.07,0-.11-8.06,7.83-18.78,7.84-21.66,7.83Z"/>
        <path class="cls-5" d="M106.39,75.8l-.15,1.09c2.38.38,13.09,1.7,20.75-3.66.03-.16.07-.31.1-.47.05-.26.1-.51.15-.77.02-.09.03-.17.05-.25-8.27,5.8-18.7,4.39-20.9,4.05Z"/>
        <path class="cls-5" d="M105.71,80.03l-.34,1.08c.4.15,9.56,3.47,18.94.88,0-.02.02-.05.03-.07.06-.14.11-.29.17-.43.11-.28.22-.56.32-.84-9.96,2.89-19.03-.59-19.12-.63Z"/>
        <path class="cls-5" d="M104.6,83.73l-.58.94c.34.21,7.71,4.84,16.44,4.7l.68-1.15c-8.8.47-16.46-4.44-16.54-4.49Z"/>
      </g>
      <g>
        <g>
          <path class="cls-7" d="M53.92,133.28v-2.64l1.52,2.64h.78v-3.72h-.72v2.59l-1.48-2.59h-.81v3.72h.72Z"/>
          <path class="cls-7" d="M62.53,129.56v3.72h-.77v-3.72h.77Z"/>
          <path class="cls-7" d="M69.1,129.56v3.72h-.77v-3.72h.77Z"/>
          <path class="cls-7" d="M78.96,129.83c-.29-.24-.67-.36-1.14-.36-.54,0-.98.18-1.31.54-.33.36-.5.85-.5,1.45s.16,1.06.49,1.41c.31.34.72.51,1.21.51.3,0,.55-.06.76-.19.12-.07.25-.2.4-.37l.08.46h.51v-1.99h-1.55v.62h.86c-.04.24-.14.44-.31.59-.17.15-.38.23-.64.23s-.5-.09-.71-.28c-.21-.19-.31-.51-.31-.97s.1-.79.29-1.02c.19-.23.44-.34.74-.34.16,0,.3.03.43.08.23.1.37.28.43.53h.76c-.04-.36-.21-.66-.49-.9Z"/>
          <path class="cls-7" d="M87.31,131.87h-.94l.48-1.46.46,1.46ZM85.9,133.28l.26-.76h1.37l.24.76h.84l-1.32-3.72h-.88l-1.33,3.72h.81Z"/>
          <path class="cls-7" d="M92.82,129.56h3.01v.66h-1.11v3.06h-.78v-3.06h-1.12v-.66Z"/>
          <path class="cls-7" d="M101.94,131.87h-.94l.48-1.46.46,1.46ZM100.53,133.28l.26-.76h1.37l.24.76h.84l-1.32-3.72h-.88l-1.33,3.72h.81Z"/>
          <path class="cls-7" d="M50.16,115.2h.13l1.48,6.45h-3.01l1.4-6.45ZM49.12,128.23v-.71c-.35,0-.62-.06-.79-.16-.3-.18-.45-.47-.45-.87,0-.33.07-.85.2-1.57.07-.34.21-1.06.44-2.16h3.48l.39,1.69c.09.37.15.69.2.95.08.44.12.78.12.99,0,.48-.08.78-.24.9-.16.12-.49.2-.99.23v.71h5.01v-.71c-.35.02-.62-.21-.82-.69-.19-.48-.48-1.54-.87-3.18l-3.45-14.65h-.43l-3.44,15.26c-.27,1.21-.48,1.99-.63,2.34-.23.56-.53.87-.9.91v.71h3.16Z"/>
          <path class="cls-7" d="M57.53,128.23v-.53c.37-.02.63-.09.79-.22.27-.22.4-.63.4-1.23v-10.03c0-.61-.13-1.02-.38-1.22-.15-.13-.42-.21-.81-.24v-.53h4.73v.53c-.55.03-.92.15-1.1.35-.18.21-.27.73-.27,1.55v9.78c0,.46.08.76.23.91.16.15.46.22.92.22.82,0,1.5-.27,2.05-.82.55-.55,1.03-1.62,1.43-3.21h.4l-.55,4.69h-7.84Z"/>
          <path class="cls-7" d="M79.55,128.22v-.37c-.33,0-.58-.07-.75-.21-.17-.14-.25-.41-.25-.82v-7.03c0-.43.1-.73.31-.87.12-.09.35-.14.69-.16v-.37h-3.72v.37c.32.02.54.07.66.16.2.15.31.44.31.87v7.03c0,.43-.11.72-.32.87-.13.09-.35.14-.65.15v.37h3.72Z"/>
          <path class="cls-7" d="M97.84,128.23h-7.91v-.5c.39-.02.66-.1.83-.23.25-.2.38-.59.38-1.15v-9.5c0-.57-.13-.96-.39-1.16-.15-.12-.42-.2-.81-.23v-.5h7.8v3.96h-.33c-.17-1.27-.46-2.13-.88-2.6-.41-.47-1.16-.7-2.25-.7-.41,0-.68.06-.79.19-.11.12-.17.37-.17.74v4.55c.77.01,1.29-.19,1.57-.61.27-.42.48-1.18.63-2.3h.34v6.64h-.34c-.1-1.12-.29-1.91-.59-2.36-.3-.46-.83-.69-1.6-.69v4.76c0,.42.07.7.22.85.15.15.45.23.91.23.86,0,1.57-.24,2.12-.73.55-.49,1.03-1.4,1.45-2.73h.38l-.55,4.09Z"/>
          <path class="cls-7" d="M69.86,117.83c0-.32.05-.54.16-.66.1-.12.29-.18.55-.18.5,0,.84.23,1.02.68.18.45.26,1.01.26,1.68,0,.9-.14,1.52-.41,1.87-.27.35-.8.53-1.59.53v-3.92ZM70.81,128.24c1.08,0,1.95-.3,2.61-.9.65-.6.98-1.38.98-2.34,0-1.03-.34-1.84-1.02-2.42-.35-.3-.76-.5-1.23-.63v-.16c.45-.11.87-.38,1.25-.8.38-.42.58-.99.58-1.71,0-1.19-.47-2-1.42-2.45-.5-.24-1.13-.36-1.89-.36h-3.95v.44c.37.03.63.1.77.2.24.18.36.52.36,1.03v8.44c0,.51-.13.86-.38,1.04-.15.11-.4.17-.74.19v.44h4.11ZM69.86,122.27c.69-.02,1.2.1,1.53.35.54.41.8,1.23.8,2.47,0,.83-.12,1.47-.36,1.92-.24.45-.67.67-1.27.67-.3,0-.49-.12-.6-.37-.06-.14-.1-.37-.1-.67v-4.36Z"/>
          <path class="cls-7" d="M83.76,117.78c0-.27.05-.46.16-.57.11-.12.33-.17.67-.17.63,0,1.06.33,1.3,1,.14.39.21.93.21,1.6,0,1.1-.18,1.8-.54,2.11-.36.3-.96.46-1.79.48v-4.43ZM84.88,128.23v-.44c-.45-.02-.75-.14-.9-.35-.15-.21-.22-.63-.22-1.24v-3.41h.34l2.65,5.45h2.61v-.42c-.12-.01-.21-.04-.29-.08-.08-.04-.15-.13-.22-.27l-2.57-4.96c.44-.11.85-.37,1.24-.78.51-.54.77-1.29.77-2.24,0-1.28-.51-2.17-1.53-2.66-.53-.24-1.22-.37-2.07-.37h-4.11v.44c.44.05.72.15.84.28.19.2.28.64.28,1.32v7.7c0,.65-.08,1.07-.24,1.26-.16.19-.45.3-.89.33v.44h4.31Z"/>
          <path class="cls-7" d="M109.47,111.55c-1.41.21-1.7.9-4.15,6.59l2.82,7.26c.82,2.1,1.07,2.16,1.5,2.21v.64h-5.26v-.64c.8-.08,1.24-.13,1.24-.82,0-.26-.17-.92-.33-1.33l-1.56-4.16-.59,1.31c-1.28,2.85-1.46,3.44-1.46,3.93,0,.9.71,1,1.25,1.08v.64h-3.87v-.64c.53-.13,1.05-.26,1.61-1.44l2.71-5.67-3.06-7.47c-.32-.8-.59-1.44-1.24-1.49v-.64h5.36v.64c-.91.1-1.22.1-1.22.85,0,.33.05.49.23.95l1.5,3.85q1.76-4.05,1.76-4.75c0-.8-.43-.82-1.11-.9v-.64h3.87v.64Z"/>
        </g>
        <g>
          <polygon class="cls-7" points="82.5 25.04 89.83 19.13 80.62 19.13 77.6 9.96 74.58 19.13 65.38 19.13 72.7 25.04 69.89 34.53 77.6 28.83 85.32 34.53 82.5 25.04"/>
          <g>
            <path class="cls-7" d="M120.31,108.16v-.12s0,.04,0,.06v-18c-.64,1.02-1.32,1.91-2.03,2.78v15.4c.02.11,1.19,10.82-5.96,19.45-5.4,6.52-14.08,10.25-25.79,11.08h-.03s-.03,0-.03,0c-.19.02-4.47.6-8.88,4.3-4.41-3.69-8.69-4.27-8.88-4.3h-.03s-.03,0-.03,0c-11.72-.83-20.39-4.56-25.79-11.08-7.15-8.64-5.98-19.35-5.97-19.45v-.06s0-.06,0-.06v-15.28c-.71-.87-1.39-1.76-2.03-2.78v18s0-.05,0-.06v.12s0-.06,0-.06c-.11,1.01-1.08,11.83,6.41,20.9,5.76,6.97,14.91,10.95,27.19,11.83,0,0-.01,0-.01,0h.05s-.03,0-.04,0c.23.03,4.41.67,8.45,4.38l.65.6.65-.6c4.05-3.71,8.22-4.35,8.45-4.38-.01,0-.03,0-.04,0h.05s0,0-.01,0c12.29-.88,21.43-4.86,27.19-11.83,7.49-9.07,6.52-19.89,6.41-20.9v.06Z"/>
            <g>
              <path class="cls-7" d="M51.22,48.2l3.94-1.33-.53,13.05-2.76,3.83c2.27.65,4.22,1.11,5.52,1.43,4.2,1.02,4.78,3.44,4.74,4.84,0,.61-.15,1.03-.15,1.03,0,15.79,9.73,17.44,9.73,17.44,1.09-3.33,1.92-6.56,2.54-9.67h-5.1l-5.25-16.17,11.57-8.41c-.58-5.58-1.56-8.89-1.56-8.89l1.19-2.72h0l-9.95-2.94,2.5-3.29c-6.65,2.12-12.38,6.3-16.42,11.8Z"/>
              <path class="cls-7" d="M91.31,62.64l-5.25,16.17h-5.1c.62,3.1,1.45,6.33,2.54,9.67,0,0,9.73-1.65,9.73-17.44,0,0-.15-.42-.15-1.03-.04-1.4.54-3.82,4.74-4.84,1.3-.32,3.25-.78,5.52-1.43l-2.76-3.83-.53-13.05,3.94,1.33c-4.04-5.5-9.77-9.68-16.42-11.8l2.5,3.29-9.95,2.94h0l1.19,2.72s-.98,3.31-1.56,8.89l11.57,8.41Z"/>
            </g>
          </g>
          <g>
            <path class="cls-7" d="M84.22,26.04h38.07c-1.5,2.51-4,7.77-4,14.87v16.32c.71-.49,1.39-.99,2.03-1.54v-14.79c0-9.19,4.61-15.19,4.66-15.25l1.29-1.64h-39.62l-2.43,2.02Z"/>
            <path class="cls-7" d="M68.56,24.02H28.94l1.29,1.64c.05.06,4.66,6.06,4.66,15.25v14.79c.64.54,1.32,1.05,2.03,1.54v-16.32c0-7.1-2.5-12.36-4-14.87h38.07l-2.43-2.02Z"/>
          </g>
        </g>
      </g>
    </g>
  </g>
</svg>