<?xml version="1.0" encoding="UTF-8"?>
<svg id="_レイヤー_2" data-name="レイヤー 2" xmlns="http://www.w3.org/2000/svg" xmlns:xlink="http://www.w3.org/1999/xlink" viewBox="0 0 426.45 449">
  <defs>
    <style>
      .cls-1 {
        fill: none;
      }

      .cls-2 {
        fill: #221815;
      }

      .cls-3 {
        fill: #ffe100;
      }

      .cls-4 {
        fill: #b6003d;
      }

      .cls-5 {
        fill: #fff;
      }

      .cls-6 {
        fill: #bf9c46;
      }

      .cls-7 {
        fill: #1c2469;
      }

      .cls-8 {
        clip-path: url(#clippath);
      }
    </style>
    <clipPath id="clippath">
      <path class="cls-1" d="M390.94,224.02c.07-12.49-5.34-22.53-15.6-29.03-.69-.44-1.39-.87-2.1-1.27-.77-.43-1.55-.85-2.34-1.22-11.64-5.67-23.69-4.48-34.15-2.53-5.83,1.33-9.45,2.5-11.74,3.46-1.46-1.46-3.03-2.84-4.74-4.07-.97-.67-6.37-4.22-14.15-5.76-.48-2.22-.98-3.96-1.26-4.88-.01-.05-.23-.79-.25-.84-1.29-3.88-4.26-11.63-9.68-19.89-6.8-10.34-15.02-17.72-24.49-21.96-15.15-6.65-29.01-3.93-42.64,8.55-6.19,6.4-11.53,14.18-15.87,23.1-.54,1.12-4.52,10.56-4.96,11.86-1.56,4.27-6.56,19.27-5.14,33.03.89,10.47,5.87,20.97,13,27.42.12.11.54.44.67.53,7.94,6.03,16.67,9.07,25.99,9.07,1.13,0,2.27-.05,3.42-.13,12.05-.93,21.23-4.61,21.51-4.72,1.18-.45,2.22-.93,3.33-1.4,3.32,4.59,7.6,8.48,12.65,11.05,6.29,3.17,11.23,4.29,15.81,4.29.67,0,1.31-.14,1.97-.18.25.54.51,1.09.92,1.73,9.83,18.52,24.19,24.87,33.26,24.47.58.03,1.17.05,1.76.05,15.78,0,33.72-11.18,44.46-28.18l.53-.88c3.53-5.77,8.87-14.5,9.85-31.66Z"/>
    </clipPath>
  </defs>
  <g id="_レイヤー_1-2" data-name="レイヤー 1">
    <g>
      <path class="cls-4" d="M426.45,231.49c0,117.76-84.41,196.43-213.22,196.43S0,349.25,0,231.49,95.46,18.26,213.22,18.26s213.22,95.46,213.22,213.22Z"/>
      <g>
        <g>
          <path class="cls-2" d="M419.51,300.04c-1.3-.72-2.84-1.24-3.8-1.44-6.81-1.4-13.64-2.18-20.31-2.33-3.7-.09-7.16,0-10.49.16-1.79-20.11-8.09-39.31-19.27-58.27,1.62-9.72,2.12-22.36,2.53-32.66l.21-5.17c.84-18.75-5.88-43.26-14.38-52.46-2.12-2.29-5.31-4.04-8.12-4.45-21.54-3.21-49.87,5.34-81.73,24.67l-4-.59c-26.18-3.9-58.77-8.75-103.06,1.53-1.4.32-2.95.78-4.54,1.26-2.36.71-6.76,1.98-7.92,1.68-8.49-4.64-30.28-15.71-49.14-18.5-17.53-2.61-29.09.83-34.52,10.31-15.37,28.86-7.65,69.07-4.44,79.47-16,31.01-15.7,63.87-15.6,67.47-.01.84.03,1.72.04,2.58-.84.06-1.6.09-2.48.16-8.93.71-17.8,1.58-28.07,4.44-3.34.92-6.41,3.14-5.81,5.59.47,1.92,2.84,2.34,4.83,2.34,1.54,0,2.85-.25,2.89-.26,10.63-2.17,16.02-2.75,23.47-3.55l3.14-.34c.81-.09,1.61-.13,2.42-.2.81,9.68,2.86,19.99,6.48,30.18-4.44,1.67-9.56,3.89-15.71,7.07-.04.02-3.98,2.08-4.74,4.62-.23.78-.15,1.56.23,2.24.62,1.11,1.92,1.46,3.31,1.46,2.3,0,4.82-.95,4.86-.96,1.84-.81,3.57-1.58,5.21-2.31,3.72-1.66,6.96-3.05,10-4.23,3.93,8.9,9.09,17.53,15.73,25.34-6.84,3.96-15.09,9.33-24.43,16.6-1.94,1.52-3.19,3.45-3.41,5.32-.12,1.04.11,1.99.65,2.67.41.51,1.18.73,2.1.73,1.62,0,3.71-.68,5.14-1.7,10.26-7.27,19.16-12.89,26.15-17.04,7.51,7.31,16.5,13.67,27.22,18.49,35.27,15.84,67.77,19.4,108.95,20l4.04-.06,4.36.06c47.38-.7,84.81-7.46,111.26-20.11,15.35-7.34,27.56-17.24,36.7-29.54,7.64,2.61,16.9,6.62,25.83,12.66,1.14.79,3.45,2.17,5.5,2.17.92,0,1.79-.27,2.47-1.01.29-.3.62-.85.53-1.73-.17-1.86-2.23-4.46-3.56-5.43-9.12-6.66-18.29-10.95-26.01-13.74,5.25-8.67,9.17-18.37,11.72-29.12,5.64.9,12.22,2.35,19.44,4.77.04,0,2.17.71,4.26.71,1.57,0,3.11-.39,3.7-1.78.27-.63.26-1.33-.03-2.02-1.04-2.48-5.39-4.32-5.43-4.33-7.12-2.82-14.12-4.47-20.31-5.49,1.35-8.14,2-16.8,1.93-26,.02-1.57-.07-3.12-.1-4.67,2.94-.16,5.97-.26,9.16-.22,4.96.05,10.48.42,15.35.74,1.52.1,2.99.19,4.4.28,3.19.18,7.1-.41,7.57-2.73.17-.81-.11-2.03-2.36-3.29Z"/>
          <path class="cls-5" d="M354.53,238.18c1.76-9.13,2.29-22.42,2.71-33.11l.22-5.23c.76-16.97-5.67-38.25-11.49-44.55-.51-.56-1.4-.99-1.72-1.06-18.78-2.76-45.27,5.51-74.57,23.31-2.08,1.26-3.22,1.95-5.23,1.65l-5.91-.87c-25.25-3.76-56.69-8.45-98.98,1.36-1.2.27-2.52.68-3.88,1.08-5.38,1.6-11.46,3.43-16.3.79-7.98-4.35-28.38-14.75-45.5-17.28-12.59-1.85-20.45-.25-23.34,4.78-10.47,19.65-8.42,46.45-5.73,61.45.72-.85,1.42-1.62,2.07-2.27,2.63-2.63,5.32-3.6,7.16-2.33,1.91,1.32,1.15,4.66-.08,7.33-1.22,2.65-3.69,7.76-5.63,11.18,0,0,0,.01,0,.02-16.85,29.6-16.54,62.53-16.45,66.2,0,.74.03,1.51.04,2.26,9.31.02,14.99,1,17.89,1.74l.21.05c.06.01,7.62,1.41,7.18,5.04-.39,3.23-4.98,2.99-7.2,2.87l-.82-.06c-2.44-.37-8.96-1.24-16.86-1.4.79,8.79,2.71,18.09,6.01,27.25,4.52-1.04,7.71-1.28,9.83-1.4l.29-.02c2.79-.15,9.39-.25,9.73,3.07.3,2.87-4.87,4.24-7.11,4.7-1.04.21-2.16.36-3.41.53-1.75.24-3.74.52-6.09,1.02,3.77,8.24,8.76,16.15,15.14,23.24,6.63-3.22,10.45-4.39,10.53-4.42.06-.03,6.57-1.68,7.84,1.28,1.09,2.56-1.67,3.92-4.33,5.24-.85.42-1.74.86-2.55,1.35,0,0-.09.05-.26.13-1.03.51-2.75,1.4-5.02,2.62,6.17,5.56,13.32,10.43,21.71,14.2,33.54,15.07,64.84,18.45,104.45,19.04l4.04-.06,4.36.06c44.98-.67,81.88-7.25,106.54-19.04,12.36-5.91,22.38-13.54,30.17-22.9-3.71-.86-5.98-1.18-6.04-1.19-1.42-.14-5.85-1.17-7.34-3.19-.44-.61-.61-1.28-.47-1.94.75-3.62,7.32-2.9,10.09-2.43.35.03,3.75.38,9.03,1.65,5.2-7.94,9.03-16.98,11.53-27.1-2.33-.14-4.2-.17-5.48-.17-2.44.01-5.28-.05-5.28-.05-.74-.07-6.59-.76-6.82-3.68-.03-.39.05-1,.6-1.64,1.31-1.53,4.62-2.39,6.03-2.5l.31-.03c.84-.08,3.07-.3,5.31-.32h.61c1.62,0,3.81.05,6.42.22,1.29-7.68,1.93-15.9,1.86-24.75.01-1.24-.07-2.46-.09-3.69-6.85.85-12.47,1.97-16.3,2.74-1.96.39-3.38.68-4.24.78-1.38.2-2.56.3-3.55.3-2.31,0-3.58-.56-4-1.72-.29-.84-.23-1.74.18-2.59.74-1.52,2.53-2.81,5.19-3.71,2.09-.71,10.21-3.2,22.24-4.68-1.72-19.08-7.86-37.28-18.78-55.31-.7-1.16-.95-2.54-.69-3.87Z"/>
        </g>
        <g>
          <path class="cls-2" d="M115.31,319.85c-3.5,7.1-3.52,18.45,1.21,24.48,2.92,3.45,7.8,5.41,14.09,4.33,5.43-.94,8.52-5.9,9.55-9.85,2.23-8.84-.15-19.68-5.23-23.79-5.36-3.91-15.39-3.82-19.61,4.83Z"/>
          <path class="cls-2" d="M285.41,320.89c-3.5,7.1-3.52,18.45,1.21,24.48,2.92,3.45,7.8,5.41,14.09,4.33,5.43-.94,8.52-5.9,9.55-9.85,2.23-8.84-.14-19.68-5.23-23.79-5.36-3.91-15.39-3.82-19.61,4.83Z"/>
          <g>
            <path class="cls-2" d="M230.45,351.61c-1.17-4.16-4.32-7.43-8.44-8.76-7.86-2.55-15.82-1.48-20.77,2.79-5.16,4.56-5.41,12.65-2.18,16.84,2.99,3.87,7.72,5.9,14.48,6.2.31.01.63.02.94.02,5.41,0,10.44-1.98,13.31-5.27v-.02c2.83-3.28,3.82-7.69,2.67-11.81Z"/>
            <path class="cls-3" d="M219.9,349.35c-2.1-.68-4.24-1.01-6.25-1.01-3.19,0-6.05.84-7.91,2.45-2.45,2.17-2.29,6.18-1.26,7.52,1.68,2.18,4.74,3.34,9.35,3.54,4.27.17,7.46-1.38,8.79-2.9,1.34-1.56,1.79-3.55,1.24-5.49-.54-1.94-2.02-3.48-3.96-4.11Z"/>
          </g>
        </g>
      </g>
      <g>
        <g>
          <path class="cls-2" d="M174.31,409.68c-1.48-4.63-4.48-8.3-7.74-11.99-11.57-11.1-31.76-15.56-47.81-10.64-11.58,3.03-24.94,13.2-26.89,28.3-1.79,11.76,2.42,22.06,11.65,27.76,9.31,4.78,19.42,4.67,29.7-.17.87-.33,1.3-.24,3.57.72,1.42.61,3.17,1.34,5.28,1.7,3.57,1.03,6.76,1.46,9.57,1.46,7.46,0,12.38-3.02,15.44-6.04,7.97-7.84,10.94-20.61,7.23-31.1Z"/>
          <path class="cls-5" d="M163.97,413.27c-.03-.07-.05-.13-.07-.2-.83-2.65-3.05-5.31-5.25-7.82-8.41-8.05-24.41-11.47-36.92-7.67-8.41,2.21-17.79,9.67-19.04,19.29-.55,3.62-1.01,12.25,6.19,16.72,5.93,3.02,12.4,2.87,20-.7,1.9-.75,3.63-1.02,5.18-1.02,2.92,0,5.24.98,6.98,1.72,1.12.47,2.08.88,2.97,1.01.27.04.53.09.78.17,6.51,1.94,11.44,1.34,14.59-1.78,4.91-4.82,6.87-13.3,4.58-19.71Z"/>
        </g>
        <g>
          <path class="cls-2" d="M338.19,417.64c-1.98-15.21-15.33-25.39-26.69-28.34-16.27-4.97-36.47-.53-48.34,10.91-2.82,3.2-5.95,7-7.44,11.65-3.71,10.49-.74,23.27,7.22,31.1,3.07,3.03,8,6.05,15.45,6.05,2.81,0,5.99-.43,9.57-1.46,2.11-.36,3.86-1.1,5.28-1.7,2.29-.98,2.71-1.06,3.23-.88,10.61,5,20.73,5.1,30.44.1,8.83-5.48,13.04-15.78,11.27-27.43Z"/>
          <path class="cls-5" d="M327.35,419.17c-1.27-9.74-10.64-17.21-18.84-19.34-3.53-1.08-7.32-1.6-11.13-1.6-9.92,0-20.02,3.48-26.32,9.53-1.88,2.17-4.1,4.83-4.94,7.48-.02.07-.04.13-.07.2-2.29,6.41-.33,14.89,4.56,19.7,3.17,3.11,8.06,3.72,14.6,1.78.25-.07.51-.13.78-.17.89-.13,1.85-.53,2.97-1.01,2.67-1.14,6.69-2.83,11.82-.85,7.93,3.73,14.41,3.88,20.73.64,6.81-4.24,6.35-12.88,5.82-16.38Z"/>
        </g>
      </g>
      <g>
        <g class="cls-8">
          <rect class="cls-7" x="240.33" y="124.46" width="110.16" height="179.53" transform="translate(-23.59 391.42) rotate(-65)"/>
          <rect class="cls-4" x="202.57" y="148.51" width="110.16" height="96.2" transform="translate(-29.43 347.03) rotate(-65)"/>
        </g>
        <path class="cls-2" d="M390.94,224.02c.07-12.49-5.34-22.53-15.6-29.03-.69-.44-1.39-.87-2.1-1.27-.77-.43-1.55-.85-2.34-1.22-11.64-5.67-23.69-4.48-34.15-2.53-5.83,1.33-9.45,2.5-11.74,3.46-1.46-1.46-3.03-2.84-4.74-4.07-.97-.67-6.37-4.22-14.15-5.76-.48-2.22-.98-3.96-1.26-4.88-.01-.05-.23-.79-.25-.84-1.29-3.88-4.26-11.63-9.68-19.89-6.8-10.34-15.02-17.72-24.49-21.96-15.15-6.65-29.01-3.93-42.64,8.55-6.19,6.4-11.53,14.18-15.87,23.1-.54,1.12-4.52,10.56-4.96,11.86-1.56,4.27-6.56,19.27-5.14,33.03.89,10.47,5.87,20.97,13,27.42.12.11.54.44.67.53,7.94,6.03,16.67,9.07,25.99,9.07,1.13,0,2.27-.05,3.42-.13,12.05-.93,21.23-4.61,21.51-4.72,1.18-.45,2.22-.93,3.33-1.4,3.32,4.59,7.6,8.48,12.65,11.05,6.29,3.17,11.23,4.29,15.81,4.29.67,0,1.31-.14,1.97-.18.25.54.51,1.09.92,1.73,9.83,18.52,24.19,24.87,33.26,24.47.58.03,1.17.05,1.76.05,15.78,0,33.72-11.18,44.46-28.18l.53-.88c3.53-5.77,8.87-14.5,9.85-31.66ZM262.41,234.54c-.08.03-8.08,3.2-18.37,4-11.87.91-19.45-4.85-21.88-6.66-5-4.53-8.79-12.66-9.45-20.34-1.18-11.51,3.16-24.52,4.61-28.48.39-1.06,3.95-9.57,4.44-10.59,3.84-7.9,8.52-14.72,13.66-20.06,10.24-9.37,19.41-11.29,30.57-6.38,7.49,3.35,14.15,9.4,19.77,17.96,4.92,7.49,7.54,14.61,8.32,16.9l.28.99c.1.33.23.76.37,1.26-3.12.38-6.39,1.21-9.76,2.67-.86.37-1.62.86-2.44,1.29-1.82-1.99-4.05-3.77-6.3-5.03-6.73-3.79-14.11-3.84-20.25-.13-6.59,4-10.46,11.71-9.86,19.44.23,6.03,2.69,11.16,7.12,14.82,2.87,2.37,6.27,3.78,9.4,4.6,0,.53-.07,1.05-.05,1.58.03,3.82.78,7.6,2.04,11.21-.76.31-1.43.63-2.24.94ZM264.12,209.85c-1.43-.51-2.96-1.24-4.22-2.39-1.79-1.63-2.7-3.75-2.82-6.7-.29-3.87,1.51-7.59,4.61-9.47,2.17-1.32,4.47-1.53,7.04-.66,2.02.68,3.67,1.86,4.9,2.98-4.48,4.46-7.75,9.99-9.5,16.23ZM306.89,246.24c-7.63,2.01-11.53,2.43-19.54-1.62-8.18-4.17-13.72-13.13-13.78-22.46-.43-11.82,5.62-21.89,15.78-26.29,3.44-1.49,6.75-2.05,9.77-2.05,8.05,0,14.03,3.93,14.85,4.49,9.03,6.49,13.34,17.88,10.69,28.51-2.49,11.49-10.8,17.57-17.75,19.43ZM371.63,250.18l-.6,1.01c-8.69,13.74-23.71,23.26-36.56,22.57-6.52.09-15.93-5.16-23.02-17.53,4.14-1.36,8.46-3.71,12.35-7.14,1.96,1.41,4.3,2.61,7,3.2,1.02.22,2.2.38,3.49.38,3.21,0,7.18-.98,11.47-4.38,4.8-4.81,6.43-10.35,4.84-17.49-2.82-8.54-9.53-11.12-14.31-12.03-.27-5.63-1.81-11.14-4.48-16.14,2.05-.65,4.64-1.36,7.15-1.94,8.49-1.57,18.35-2.62,27.19,1.67.59.28,1.14.58,1.7.89.53.3,1.04.61,1.59.96,7.15,4.53,10.61,10.99,10.57,19.46-.82,14.14-4.94,20.88-8.38,26.5ZM335.17,229.75c2.53.61,4.13,1.69,4.89,3.93.65,2.96.13,4.69-1.56,6.43-1.71,1.35-3.44,1.83-5.18,1.51-.94-.17-1.76-.57-2.49-1,1.88-3.16,3.39-6.77,4.33-10.89Z"/>
        <path class="cls-1" d="M390.94,224.02c.07-12.49-5.34-22.53-15.6-29.03-.69-.44-1.39-.87-2.1-1.27-.77-.43-1.55-.85-2.34-1.22-11.64-5.67-23.69-4.48-34.15-2.53-5.83,1.33-9.45,2.5-11.74,3.46-1.46-1.46-3.03-2.84-4.74-4.07-.97-.67-6.37-4.22-14.15-5.76-.48-2.22-.98-3.96-1.26-4.88-.01-.05-.23-.79-.25-.84-1.29-3.88-4.26-11.63-9.68-19.89-6.8-10.34-15.02-17.72-24.49-21.96-15.15-6.65-29.01-3.93-42.64,8.55-6.19,6.4-11.53,14.18-15.87,23.1-.54,1.12-4.52,10.56-4.96,11.86-1.56,4.27-6.56,19.27-5.14,33.03.89,10.47,5.87,20.97,13,27.42.12.11.54.44.67.53,7.94,6.03,16.67,9.07,25.99,9.07,1.13,0,2.27-.05,3.42-.13,12.05-.93,21.23-4.61,21.51-4.72,1.18-.45,2.22-.93,3.33-1.4,3.32,4.59,7.6,8.48,12.65,11.05,6.29,3.17,11.23,4.29,15.81,4.29.67,0,1.31-.14,1.97-.18.25.54.51,1.09.92,1.73,9.83,18.52,24.19,24.87,33.26,24.47.58.03,1.17.05,1.76.05,15.78,0,33.72-11.18,44.46-28.18l.53-.88c3.53-5.77,8.87-14.5,9.85-31.66Z"/>
      </g>
    </g>
    <g>
      <path class="cls-5" d="M124.24,87.77l-.02-.18.11-.14c1.08-1.45,1.05-2.78.83-3.64-.16-.66-.59-1.62-1.7-2.45l-.15-.11-.03-.18c-1.8-10.69-5.38-26.64-7.35-35.19l-.02-.07v-.07s.26-3.31.26-3.31c.11-1.37.01-2.84-.09-4.41l-.06-1.02c-.04-.76-1.83-9.26-2.1-10.5-.31-1.38-2.84-6.59-3.81-8.41-.37-.69-2.44-4.15-5.12-8.01-2.8-4.03-6.24-8.49-7.37-10.08-.4,2.41-1.3,7.94-1.31,7.96-.09.39-.58,2.45-1.33,5.08-.96,3.36-1.96,6.24-2.95,8.56-1.51,3.5-3.34,7.17-5.28,10.61l-.13.23h-7.91l-.11-.31-1.05-3.04c-.29-.53-3.99-7.24-5.1-8.83,0,0-4.5-6.57-5.78-7.85l-9.15-9.27c1.26,3.51,3.74,11.11,4.89,19.28.38,2.73.55,5.86.51,9.58v.46h-20.95c-.15.61-1.12,4.64-1.12,4.64-.37,1.53-9.01,37.54-10.37,50.66-.33,3.18-.26,6.44.22,9.68,0,0,.05.36.04.37l-1.32.55-2.44,7.64,4.9-1.54.43-.13.14.43c.78,2.32,1.77,4.65,2.94,6.94l.1.19-.08.2c-1.67,4.02-1.86,7.88-.52,10.33,1.2,2.19,3.17,3.54,5.52,3.8,1.35.15,2.79-.06,4.26-.63l.3-.12.21.24c12.48,14.02,28.62,22.78,29.3,23.14l-.09-.02c.2.09.8.4,2.95,1.56.38-.2,2.87-1.54,2.87-1.54.77-.41,19.01-10.31,31.72-25.99l.1-.12.15-.04c1.4-.36,2.6-1.11,3.35-1.67l.09-.07.11-.02c3.12-.55,4.07-3.01,4.29-3.75.34-1.16-.05-2.39-.99-3.14-.12-.06-.23-.16-.3-.28l-.03-.05-.02-.06c-.04-.13-.09-.29-.09-.31l-.06-.19.1-.18c4.59-8.38,6.48-16.85,5.62-25.19Z"/>
      <g>
        <path class="cls-7" d="M122.63,87.91c-1.36-13.03-9.97-48.93-10.34-50.45l-.82-3.41H43.22l-.82,3.41c-.37,1.52-8.98,37.42-10.34,50.45-3.54,33.99,41.27,58.46,43.18,59.49l2.1,1.13,2.1-1.13c1.91-1.03,46.72-25.5,43.18-59.49Z"/>
        <path class="cls-6" d="M120.42,88.14c-1.34-12.88-9.92-48.64-10.29-50.16l-.41-1.7H44.97s-.41,1.7-.41,1.7c-.36,1.52-8.95,37.28-10.29,50.16-1.41,13.57,5.47,27.81,19.9,41.2,10.71,9.93,21.65,15.86,22.12,16.11l1.05.56,1.05-.56c.46-.25,11.41-6.17,22.12-16.11,14.43-13.38,21.31-27.63,19.9-41.2Z"/>
        <path class="cls-7" d="M36.49,88.37c-3.27,31.41,40.86,55.11,40.86,55.11,0,0,0-104.98,0-104.98h-30.62s-8.9,36.99-10.24,49.87"/>
        <path class="cls-4" d="M77.35,38.5h30.62s8.9,36.99,10.24,49.87c3.27,31.41-40.86,55.11-40.86,55.11,0,0,0-104.98,0-104.98Z"/>
        <g>
          <g>
            <path class="cls-6" d="M92.29,104.49h-1.14v-.79c0-.28.01-.76.46-1.12.42-.32.99-.34,1.24-.34.76,0,1.48.24,1.67.92.01.04.08.4.08.67v.66c0,.69-.18.93-1.01,1.69-1.09,1.02-1.2,1.11-1.24,1.61h2.33v.97h-3.68c0-1.69.6-2.24,1.28-2.86,1.05-.96,1.11-1.02,1.11-1.5v-.73c0-.19-.03-.56-.51-.56-.55,0-.59.35-.59.62v.77Z"/>
            <path class="cls-6" d="M95.95,103.93c0-.43.02-.76.27-1.09.35-.45.93-.6,1.48-.6,1.78,0,1.78,1.19,1.78,1.59v3.46c0,.35-.07.84-.5,1.2-.42.35-.96.36-1.23.36-1.81,0-1.81-1.12-1.81-1.59v-3.33ZM97.15,107.37c0,.15,0,.6.55.6.58,0,.58-.44.58-.68v-3.49c0-.34,0-.73-.55-.73-.58,0-.58.41-.58.68v3.62Z"/>
            <path class="cls-6" d="M100.82,103.93c0-.43.02-.76.27-1.09.35-.45.93-.6,1.48-.6,1.78,0,1.78,1.19,1.78,1.59v3.46c0,.35-.07.84-.5,1.2-.42.35-.96.36-1.23.36-1.81,0-1.81-1.12-1.81-1.59v-3.33ZM102.03,107.37c0,.15,0,.6.55.6.58,0,.58-.44.58-.68v-3.49c0-.34,0-.73-.55-.73-.58,0-.58.41-.58.68v3.62Z"/>
            <path class="cls-6" d="M107.1,102.3h1.46v4.34h.42v.9h-.42v1.22h-1.12v-1.22h-2.12v-.9l1.78-4.34ZM107.44,106.64l.08-3.21-1.18,3.21h1.09Z"/>
          </g>
          <g>
            <path class="cls-7" d="M118.01,115.27l-.2-.15c-.17-.14-.37-.22-.58-.26,0-.29-.05-.6-.14-.93-.17-.57-.44-1.02-.81-1.37-.01-.14-.04-.26-.06-.35-.44-1.49-2.18-1.42-2.92-1.39h-.16c-1.67.07-3.56.77-5.07,1.82-.21-.38-.47-.75-.81-1.15-.78-.87-1.67-.9-2.37-.84-.72.06-1.83.38-3.85,1.97-.46-.6-1.3-.88-2.53-1.11-1.04-.2-1.66.17-2.08.52-.18.14-.34.31-.5.48-.52-1.76-2.64-1.93-4.18-1.91-1.81.03-4.38.89-6.4,2.17,0-.03-.02-.06-.03-.09.29-.2.55-.44.76-.74.49-.7.64-1.57.39-2.34-.29-.92-1.29-1.56-2.37-1.52-1.06.04-2.1.57-2.65,1.35-.43.61-.55,1.32-.33,2,.02.06.05.12.08.18-.62.3-1.25.75-1.8,1.31,0-.08.01-.15.01-.21,0-.44-.18-.86-.5-1.19-.23-.23-.94-.94-3.78-.94-1.63,0-4.95,1.2-7.2,2.98-.03-.08-.07-.16-.11-.23.08-.26.08-.54,0-.81-.51-1.77-2.64-1.94-4.19-1.92-2.76.05-7.11,1.92-8.82,4.34-.9,1.28-.81,2.37-.58,3.05.74,2.11,2.29,3.27,4.38,3.27.35,0,.85,0,3.27-1.8.43,1.1,1.52,1.8,2.86,1.8.73,0,1.53-.33,2.49-1.02.75.65,1.67,1.01,2.68,1.01.13,0,.3,0,.7-.14-1.1,1.19-1.3,2.27.04,4.1.61.83,1.3.98,1.77.96,1.35-.06,2.09-1.3,3.89-4.28l.21-.34,1.85-1.49c.61.7,1.5,1.2,2.64,1.2.95,0,1.89-.34,2.86-1.02.78.66,1.77,1.02,2.89,1.02.35,0,.85,0,3.27-1.8.43,1.1,1.52,1.8,2.86,1.8.77,0,1.6-.35,2.61-1.11.6.68,1.42,1.18,2.46,1.18,1.36,0,2.34-1.21,2.81-1.79l.05-.06c.06-.08.13-.16.2-.25.6,1.51,1.84,1.85,2.81,1.85s1.96-.38,3.01-1.13c.96.83,2.28,1.3,3.77,1.3,1.58,0,3.24-.92,4.4-1.89,2.03-.16,3.14-1.45,3.5-2.68.15-.53-.03-1.09-.46-1.43Z"/>
            <path class="cls-7" d="M92.7,135.24h1.2c.3,0,.58-.13.77-.36.19-.23.27-.53.21-.83l-1.2-6.44c-.09-.48-.5-.82-.99-.82h-1.36c-.48,0-.9.34-.99.81l-.46,2.38v-2.18c0-.56-.45-1.01-1.01-1.01h-5.36c-.56,0-1.01.45-1.01,1.01v1.92l-.39-2.11c-.09-.48-.5-.82-.99-.82h-15.6c-.54,0-.98.43-1,.97-.11-.17-.25-.33-.42-.47-.51-.42-1.19-.63-1.98-.63-.93,0-1.71.29-2.2.81-.61.64-.61,1.48-.61,1.79v3.6c0,.75.22,1.35.66,1.78.49.49,1.21.74,2.15.74.35,0,1.41,0,2.14-.77.1-.1.19-.21.26-.32.03.53.46.96,1,.96h27.16Z"/>
            <path class="cls-7" d="M123.59,84.2c-.69-2.76-5.9-3.09-8.12-3.1-6.04-.04-22.31,2.18-40.23,5.91,1.98-3.23,3.95-6.69,6.1-10.66.95.17,2.28.54,3.57.9,1.32.37,3.48.92,4.57,1.19.41.1,1.01-.01,1.01-.01.76-.17,12.48-8.44,12.59-8.5.62-.39,4.46-5.08,4.61-5.64.28-1.08,1.99-5.64,1.99-5.64,1.56-1.82,3.92-5.79,4.12-7.57.43-3.9.76-8.87.76-8.87l-.83.83s1.03-4.17.87-5.29c-.22-1.29-1.33-7.6-1.33-7.6l-.57.96s.05-3.64-.22-4.34c-.47-1.13-3.18-6.99-3.18-6.99l-.46,1.32s-.37-3.16-.8-3.86v-.02s-.03-.02-.03-.02c-.58-.87-4.01-5.8-4.01-5.8l-.28,1.35-1.05-2.98-.02-.03s-.02-.02-.02-.02l-4.17-5.95s-.4,3.27-.56,4.46c-.5,2.62-1.79,7.93-4.39,14.01-2.46,5.71-5.68,11.71-8.84,16.47-.91,1.13-1.85,2.28-2.89,3.49-3.33,3.91-3.58,4.7-2.48,7.68.15.39.31.84.48,1.36-.13.57-.86,2.68-5.12,9.09-.24-.07-.49-.15-.75-.23-4.07-1.22-10.22-3.06-12.13-6.93.06-.07.11-.14.17-.22.53-.73,1.06-.83,1.12-.84.09,0,.3-.02.3-.02l1.71-.11-.55-1.63c-.89-2.62-2.85-2.63-4.02-2.64-.14,0-.27,0-.4,0-.17-.11-.36-.22-.59-.34-1.47-.75-5.9-3.02-8.03.63-.26.09-.88.16-1.31.2-4.89.5-3.8,5.87-3.8,5.87,0,0,2.74-2.19,4.41-1.47.28.12,1.29.67,1.29.67,0,0-.4.47-.52.58-1.08,1.01-3.43-.12-3.43-.12l.98,1.97c.61,1.24,1.57,1.7,2.41,1.86.08.86.38,1.53.93,2.03.9.82,2.19.87,3.34.7.75,2.22,1.85,6.2,1.41,8.55-2.64,14.08,3.83,16.9,7.69,18.58,1.01.44,2.04.89,2.32,1.34-12.65,2.89-25.48,6.45-35.63,10.44l-.85.36-1.27,3.98,2.7-.88c11.25-3.43,22.72-5.95,31.28-7.6-7.69,9.53-15.82,16.2-18.75,17.8-1.5.81-2.29.77-2.44.63-.26-.26-.39-1.67.93-4.16l.35-.66-1.8-3.07-1.23,1.32c-3.64,3.92-6.21,11.04-4.2,14.69.94,1.71,2.47,2.77,4.29,2.97,2.21.24,5.89-.63,10.82-6.21,3.93-4.45,6.96-7.91,9.82-11.35,3.3-1.74,8.04-2.63,9.74-2.61-.34.76-1.28,2.09-2.3,3.18l-.63.68s1.66,2.75,1.66,2.75l1.1-.66c.82-.49,8.07-4.88,10.44-8.26.88-1.25.89-2.63.05-3.7-1.69-2.13-6.19-2.2-11.22-.18,0,0-2.38.95-2.7,1.08,1.48-1.97,2.79-3.85,3.99-5.66,16.57-2.82,28.08-3.61,32.08-3.22-.56.32-1.26.69-1.97,1.07-1.05.55-2.35,1.23-3.79,2.07,0,0,0,0,0,0-.42-.05-1.06-.12-1.6.35-.38.33-.82.75-1.29,1.2-.74.71-3.23,3.08-3.23,3.08l1.55,2.01s1.44-.41,2.13-.66c4.18-1.5,17.47-6.74,24.67-10.61,1.06-.57,4.3-2.31,3.7-4.7Z"/>
          </g>
          <g>
            <g>
              <g>
                <path class="cls-5" d="M116.99,116.18c-.57.71-1.22.66-1.58.5.3-.78.66-1.48.4-2.36-.18-.6-.47-1.02-1.36-1.18.27-.12.57-.24.49-.54-.16-.54-1.14-.44-1.75-.42-2.99.11-6.92,2.77-6.54,5.08-.47.33-1.03.66-1.43.66-.28,0-.78-.29-.83-.47-.41-1.38,2.84-3.21,2.61-3.99-.21-.42-.48-.78-.74-1.08-.33-.37-.68-.43-1.23-.38-1.21.11-3.26,1.52-6.23,4.49-.8.8-1.17.66-1.3-.05-.12-.63,2.9-2.11,2.56-2.89-.05-.12-.12-.4-1.78-.71-.48-.09-.72.02-.99.24-1.02.83-1.74,2.87-1.63,4.31-.4.31-.82.53-1.33.53-.45,0-.91-.14-1.01-.48-.28-.94,1.75-2.57,1.56-3.2-.13-.44-.47-.66-1.05-.82.23-.06.91-.26.83-.5-.06-.22-.24-1-2.88-.96-3.19.06-8.81,3.03-8.18,5.51-.53.35-1.1.61-1.71.61-1.32,0-1.08-.96-.95-1.5,1.95-1.95,3.35-2.46,3.12-3.46-.1-.44-.84-.56-1.28-.56-1.5,0-3.88,2.19-4.05,4.6l-2.71,1.71s1.37-2.39,1.61-2.62c.86-.8,1.15-2.91-.32-2.82.13-.11.76-.13.76-.69,0-.46-1.14-.78-2.94-.78-2.12,0-8.12,2.69-8.14,5.3,0,.11.03.27.08.45-.27.14-.55.23-.87.23-.45,0-.91-.14-1.01-.48-.28-.94,1.75-2.57,1.56-3.2-.13-.44-.47-.66-1.05-.82.23-.06.91-.26.83-.5-.06-.22-.24-1-2.88-.96-3.24.06-9,3.13-8.15,5.62.36,1.04,1.18,2.36,3.11,2.36.65,0,4.78-3.33,4.78-3.33l.07.04c-.21.54-.57,1.6-.38,2.24.17.58.73,1.06,1.66,1.06.73,0,1.74-.72,2.66-1.54.44.75,1.27,1.53,2.51,1.53.66,0,5.38-2.89,5.38-2.89l-1.29,2.89c-3.14,2.62-3.55,2.76-2.27,4.5.87,1.19,1.61-.2,3.77-3.77l3.3-2.66c.2.94.91,1.92,2.22,1.92,1.1,0,2.14-.71,3.01-1.54.47.8,1.29,1.54,2.73,1.54.65,0,4.78-3.33,4.78-3.33l.07.04c-.21.54-.57,1.6-.38,2.24.17.58.73,1.06,1.66,1.06.81,0,1.96-.88,2.95-1.8.25.69.92,1.88,2.12,1.88.76,0,1.51-.98,1.82-1.36.92-1.16,2.82-3.22,4.19-4.07l.07.04c-.63.92-2.21,2.69-1.86,3.89.2.68.58,1.25,1.65,1.25,1.13,0,2.27-.82,3.17-1.66.76,1.38,2.31,1.83,3.61,1.83,1.37,0,2.93-.99,3.88-1.87,1.9.04,2.56-1.13,2.74-1.74l-.2-.15ZM58.74,118.11c-.42.07-.64-.33-.7-.44-.3-1.07-.37-2.39,6.08-3.98,0,0-4.82,4.33-5.38,4.42ZM70.35,118.13c-.42.07-.64-.33-.7-.44-.3-1.07-.37-2.39,6.08-3.98,0,0-4.82,4.33-5.38,4.42ZM86.87,118.11c-.42.07-.64-.33-.7-.44-.3-1.07-.37-2.39,6.08-3.98,0,0-4.82,4.33-5.38,4.42ZM109.32,117.35c-.88-1.29.22-2.68,3.05-3.29-.21.66-.65,1.52-.35,2.32.13.36.37.62.68.94-1.07.91-2.71,1.02-3.38.04Z"/>
                <path class="cls-5" d="M83.71,111.86c1.11-.04,1.75-1.04,1.5-1.84-.11-.36-.58-.6-1.05-.59-1.01.03-2.02.79-1.76,1.61.15.48.68.84,1.3.82Z"/>
              </g>
              <g>
                <path class="cls-5" d="M63.9,132.86c0,.47-.09.8-.35,1.06-.38.4-.99.46-1.41.46-1.45,0-1.81-.69-1.81-1.51v-3.6c0-.27,0-.76.34-1.1.25-.26.73-.49,1.46-.49.58,0,1.04.16,1.34.4.32.26.43.6.43,1.22v3.58ZM62.7,129.36c0-.34,0-.8-.57-.8-.61,0-.61.49-.61.85v3.25c0,.37.02.78.6.78s.58-.45.58-.76v-3.32Z"/>
                <path class="cls-5" d="M65.54,127.79h1.2v2.51l1.29-2.51h1.21l-1.46,2.78,1.51,3.66h-1.29l-1.26-3.15v3.15h-1.2v-6.44Z"/>
                <path class="cls-5" d="M71.44,127.79h1.36l1.2,6.44h-1.2l-.16-1.05h-1.1l-.17,1.05h-1.19l1.25-6.44ZM71.7,132.19h.82l-.39-2.77-.43,2.77Z"/>
                <path class="cls-5" d="M74.38,127.79h1.25l.65,3.25.63-3.25h1.25l-1.29,4.54v1.91h-1.2v-1.98l-1.29-4.46Z"/>
                <path class="cls-5" d="M79.78,127.79h1.36l1.2,6.44h-1.2l-.16-1.05h-1.1l-.17,1.05h-1.19l1.25-6.44ZM80.04,132.19h.82l-.39-2.77-.43,2.77Z"/>
                <path class="cls-5" d="M83.53,127.79h1.93l.77,4.51.76-4.51h1.91v6.44h-1.18l.11-5.59-1.04,5.59h-1.11l-1.06-5.59.09,5.59h-1.17v-6.44Z"/>
                <path class="cls-5" d="M91.34,127.79h1.36l1.2,6.44h-1.2l-.16-1.05h-1.1l-.17,1.05h-1.19l1.25-6.44ZM91.6,132.19h.82l-.39-2.77-.43,2.77Z"/>
              </g>
            </g>
            <g>
              <path class="cls-7" d="M81.07,51.48c-.03-.28-.06-.57-.1-.85-.87-2.6-1.49-3.12-.22-5.02,0-1.23-.08-2.53-.26-3.21l-1.46-2.77-.59.61s.32-1.51.32-2.45c0-.38-2.75-8.2-2.75-8.2l-.3.69-.47-1.67-3.27-6.43-.18.9-.67-1.9-3.77-5.38s-.15.76-.15.76l-.77-1.91-3.16-3.55-2.53-2.84,1.16,3.63s1.61,6.12,2.1,10.35c.46,4.02.63,8.32.47,11.8-.1.81-.22,1.62-.36,2.47-.47,2.87-.31,3.25.7,5.06.17.31.37.66.59,1.08.02.48.01,14.63-.12,15.54,3.3,1.84,7.36,2.85,9.93,3.67,2.7-4.02,5.45-8.48,5.86-10.38Z"/>
              <g>
                <path class="cls-5" d="M65.87,37.02s-.07-.07-.1-.1c.3-3.12.3-7.28-.06-11.6-.36-4.32-1.09-8.52-1.84-11.33.24.27.85,1.04,1.09,1.31.26.34,1.13,2.63,1.29,3.34.81,3.66,1.42,8.41,1.69,13.17.06,1.61-1.19,3.92-2.07,5.21Z"/>
                <path class="cls-5" d="M68.32,40.48s-.06-.08-.08-.11c.51-2.68.8-6.45.75-10.51-.06-4.06-.5-8.29-1.09-11.06.24.3.86,1.25,1.09,1.56.25.37,1.03,2.82,1.16,3.59.54,3.61.77,8.13.67,12.53-.06,1.46-1.51,3.12-2.51,4Z"/>
                <path class="cls-5" d="M73.07,42.73c-.6.99-1.91,1.64-2.62,1.91-.02-.04-.05-.09-.07-.12,1.44-4.4,2.32-13.64,1.74-19.11.22.35.69,1.07.9,1.43.23.43.92,3.07.96,3.83.12,3.25-.12,7.16-.59,10.87-.1.41-.21.8-.32,1.2Z"/>
                <path class="cls-5" d="M75.84,32.81c.18.38.35.74.52,1.12.17.42,1.05,3.67.98,4.41-.33,3.04-1.34,6.35-2.19,9.54-.09.17-.17.32-.26.49-.65.71-2.03.82-2.79.81-.02-.05-.05-.1-.07-.15,1.73-3.33,3.62-11.17,3.8-16.22Z"/>
                <path class="cls-5" d="M74.39,57.41s.02.08.03.12c.48.45.97.84,1.37,1.06,2.47-3.84,3.43-5.8,3.79-6.74-1.37,2.19-3.6,4.83-5.19,5.56Z"/>
                <path class="cls-5" d="M79.31,45.45c.01-.98-.04-2.15-.11-2.44-.1-.35-.32-.69-.42-1.04-1.06,3.94-3.59,9.33-5.52,11.29.02.06.04.12.06.18,1.03.51,2.5,1,2.88.31.91-1.86,1.84-3.84,2.58-5.74-.14-.88,0-1.63.54-2.57Z"/>
              </g>
            </g>
            <path class="cls-5" d="M115.47,82.43c-6.6-.04-24.2,2.45-42.99,6.51,3-4.71,5.62-9.32,8.08-13.92.08-.05.15-.08.18-.09,2.09.13,6.77,1.88,9.47,2.19,1.12-.25,11.64-7.99,12.16-8.32,1-.68,3.6-3.8,4.11-5.03.39-1,1.32-3.66,1.43-3.99l-8.73,5.6s6.37-5.12,9.07-7.4c1.29-1.14,4.01-5.5,4.26-7.12.17-1.29.32-4.83.34-5.19-.23.26-.44.51-.67.77-1.79,2.06-5.08,5.32-8.95,8.34l7.49-8.04c1.22-1.56,2.81-7.2,2.58-8.81-.21-1.26-.6-3.79-.67-4.09-.17.32-.34.63-.52.95-1.19,2.15-5.8,7.61-7.65,9.53l5.65-8.43c1.07-1.93,1.64-7.35,1.14-8.66-.46-1.11-1.66-3.73-1.78-3.97-.12.35-.24.69-.36,1.04-1.03,2.84-3.71,7.71-7.33,12.86,2.23-3.94,5.34-10.89,5.34-10.89.78-2.07.47-7.24-.21-8.34-.62-.92-2.12-3.08-2.25-3.28-.08.38-.15.74-.23,1.12-.67,3.05-2.38,7.38-5.73,13.43l3.92-10.71c.55-2.12-.26-6.84-.98-7.77-.43-.99-2.25-3.48-2.4-3.65-.05.41-.24,1.71-.29,2.12-.41,2.8-1.74,7.75-4.23,13.58-2.51,5.83-5.76,11.87-8.98,16.72-.89,1.12-1.84,2.27-2.95,3.57-3.86,4.54-2.91,4.07-1.66,8.06-.05,1.62-3.01,6.45-5.91,10.76-4.15-1.32-12.19-3.13-14.63-8.15-.14-.29-.26-.56-.36-.81.17-.12.39-.34.66-.72.95-1.32,2.06-1.38,2.06-1.38l.33-.02c-.75-2.2-2.33-1.62-3.67-1.79-.15-.14-.37-.28-.7-.45-2.71-1.39-5.15-2.02-6.37.25-.71,1.34-4.49-.26-4.82,2.99,0,0,1.87-1.41,3.65-.37,1.92,1.13,2.53,1.36,2.44,1.65-.21.24-.6.9-.96,1.24-1.43,1.35-2.56.8-2.56.8.57,1.15,1.55,1.28,2.59,1.19-.38,2.56.89,3.2,3.76,2.48,0,0,2.55,6.53,1.85,10.3-3.78,20.14,11.51,14.98,10.02,20.75-12.97,2.93-26.17,6.58-36.44,10.62l-.3.94c11.13-3.39,23.51-6.2,34.9-8.28-8.29,11.02-17.79,19.02-21.34,20.94-4.58,2.49-5.79-.68-3.33-5.34l-.51-.87c-3.32,3.57-5.68,10.09-4.01,13.13,1.97,3.58,6.82,3.43,12.92-3.48,3.55-4.02,6.89-7.83,9.97-11.52,3.91-2.15,10.07-3.24,11.5-2.77,2.08.69-2.22,5.31-2.22,5.31.02.05.46.7.46.7,2.29-1.37,8.12-5.16,10.03-7.88,1.82-2.59-2.37-4.76-9.57-1.87-2.22.89-5.34,2.11-7.33,2.98,2.71-3.39,5.17-6.71,7.33-10.04,20.59-3.54,36.98-4.53,35.14-2.05-.8,1.08-3.61,2.15-7.63,4.51-.22.13-.95-.12-1.13.04-1.03.89-2.71,2.66-3.62,3.2l.42.49c.4-.06,17-6.31,25.51-10.88,6.36-3.42,1.71-5.25-3.79-5.29Z"/>
            <g>
              <path class="cls-4" d="M84.77,43.54s-.1-.1-.15-.14c1.08-1.46,2.19-2.73,3.3-4.53,3.77-6.08,7.54-14.05,9.95-20.4,1.15-3.05,1.77-5.81,2.24-7.99.33.38.52,1,.85,1.39.33.48.73,4.96.48,5.96-1.51,4.59-4.16,11.78-7.51,18.4-1.19,2.23-6.03,5.48-9.17,7.32Z"/>
              <path class="cls-4" d="M87.73,48.28s-.07-.11-.11-.15c5.86-6.78,15.17-22.26,17.58-30.1.29.43.43,1.24.72,1.68.26.52.47,4.51.07,5.59-1.97,5.03-5.32,11.26-9.14,17.34-1.34,2.02-6.07,4.37-9.13,5.64Z"/>
              <path class="cls-4" d="M97.04,51.21c-2.2,1.39-5.49,1.97-7.37,2.39-.02-.05-.05-.12-.08-.17,6.87-6.23,16.36-18.89,19.92-26.49.2.49.27,1.34.47,1.83.18.59-.27,4.78-.83,5.83-2.54,4.46-6.35,9.8-10.41,14.93-.57.57-1.13,1.12-1.7,1.67Z"/>
              <path class="cls-4" d="M111.8,37.19c.09.52.05,1.41.14,1.93.04.57-1.15,5.08-1.91,6.08-3.29,4.12-7.75,8.53-12.21,12.95-.33.23-.65.45-.98.69-2.05,1.01-4.58.99-6.36,1.02-.02-.07-.03-.14-.05-.21,5.97-3.3,16.61-15.6,21.36-22.46Z"/>
              <path class="cls-4" d="M111.43,49.1s-.36,1.84-.42,2.31c-.13.65-2.22,4.46-3.02,5.19-3.56,3.09-8.52,7.12-12.44,9.31-1.06.76-5.42,1.24-7.61,1.04,0-.09,0-.17,0-.25,6.08-2.96,14.53-9.31,23.49-17.59Z"/>
              <path class="cls-4" d="M85.41,72.94c0-.06.02-.11.02-.17,4.55-1.28,15.49-6.68,20.25-9.82-.1.28-.2.54-.3.82-.24.55-2.32,3.19-2.96,3.64-2.82,1.84-6.72,4.12-10.03,6.11-.91.5-4.8.12-6.99-.57Z"/>
            </g>
          </g>
        </g>
      </g>
    </g>
  </g>
</svg>