<?xml version="1.0" encoding="UTF-8"?>
<svg id="_レイヤー_2" data-name="レイヤー 2" xmlns="http://www.w3.org/2000/svg" xmlns:xlink="http://www.w3.org/1999/xlink" viewBox="0 0 442.24 433.57">
  <defs>
    <style>
      .cls-1 {
        fill: none;
      }

      .cls-2 {
        fill: #221815;
      }

      .cls-3 {
        fill: #ffe100;
      }

      .cls-4 {
        fill: #fff;
      }

      .cls-5, .cls-6 {
        fill: #df003f;
      }

      .cls-7 {
        fill: #dcdddd;
      }

      .cls-8 {
        fill: #ed6c00;
      }

      .cls-6 {
        fill-rule: evenodd;
      }

      .cls-9 {
        clip-path: url(#clippath);
      }

      .cls-10 {
        fill: #00164b;
      }
    </style>
    <clipPath id="clippath">
      <path class="cls-1" d="M406.74,208.59c.07-12.48-5.34-22.53-15.6-29.03-.69-.44-1.39-.87-2.1-1.27-.77-.43-1.55-.84-2.34-1.22-11.64-5.67-23.69-4.48-34.15-2.53-5.83,1.33-9.45,2.5-11.74,3.46-1.46-1.46-3.03-2.84-4.74-4.07-.97-.67-6.37-4.22-14.15-5.76-.48-2.22-.98-3.96-1.26-4.88-.01-.05-.23-.79-.25-.84-1.29-3.88-4.26-11.63-9.68-19.89-6.8-10.34-15.02-17.72-24.49-21.96-15.15-6.65-29.01-3.93-42.64,8.55-6.19,6.4-11.53,14.18-15.87,23.1-.54,1.12-4.52,10.56-4.96,11.86-1.56,4.27-6.56,19.27-5.14,33.03.89,10.47,5.87,20.97,13,27.42.12.11.54.44.67.53,7.94,6.03,16.67,9.07,25.99,9.07,1.13,0,2.27-.05,3.42-.13,12.05-.93,21.23-4.61,21.51-4.72,1.18-.45,2.22-.93,3.33-1.4,3.32,4.59,7.6,8.48,12.65,11.05,6.29,3.17,11.23,4.29,15.81,4.29.67,0,1.31-.14,1.97-.18.25.54.51,1.09.92,1.73,9.83,18.52,24.19,24.87,33.25,24.47.58.03,1.17.05,1.76.05,15.78,0,33.72-11.18,44.46-28.18l.53-.88c3.53-5.77,8.87-14.5,9.85-31.67Z"/>
    </clipPath>
  </defs>
  <g id="_レイヤー_1-2" data-name="レイヤー 1">
    <g>
      <path class="cls-10" d="M442.24,216.06c0,117.76-84.41,196.43-213.22,196.43S15.79,333.82,15.79,216.06,111.26,2.84,229.02,2.84s213.22,95.46,213.22,213.23Z"/>
      <g>
        <g>
          <g>
            <path class="cls-2" d="M435.31,284.62c-1.3-.72-2.84-1.24-3.8-1.44-6.81-1.4-13.64-2.18-20.31-2.33-3.7-.09-7.16,0-10.49.16-1.79-20.11-8.09-39.31-19.27-58.27,1.62-9.72,2.12-22.36,2.53-32.66l.21-5.17c.84-18.75-5.88-43.26-14.38-52.46-2.12-2.29-5.31-4.04-8.12-4.45-21.54-3.21-49.87,5.34-81.73,24.67l-4-.59c-26.18-3.9-58.77-8.75-103.06,1.53-1.4.32-2.95.78-4.54,1.26-2.37.71-6.76,1.98-7.92,1.68-8.49-4.64-30.28-15.71-49.14-18.5-17.53-2.61-29.09.83-34.52,10.31-15.37,28.86-7.65,69.07-4.44,79.47-16,31.01-15.7,63.87-15.6,67.47-.01.84.03,1.72.04,2.58-.84.06-1.6.09-2.48.16-8.93.71-17.8,1.58-28.07,4.44-3.34.92-6.41,3.14-5.81,5.59.47,1.92,2.84,2.34,4.83,2.34,1.54,0,2.85-.25,2.89-.26,10.63-2.17,16.02-2.75,23.47-3.55l3.14-.34c.81-.09,1.61-.13,2.42-.2.81,9.68,2.85,19.99,6.48,30.18-4.44,1.67-9.56,3.89-15.71,7.07-.04.02-3.98,2.08-4.74,4.62-.23.78-.15,1.56.23,2.24.62,1.11,1.92,1.46,3.31,1.46,2.3,0,4.82-.95,4.86-.96,1.84-.81,3.57-1.58,5.21-2.31,3.72-1.66,6.96-3.05,10-4.23,3.93,8.9,9.09,17.53,15.73,25.34-6.84,3.96-15.09,9.33-24.43,16.6-1.94,1.52-3.19,3.45-3.41,5.32-.12,1.04.11,1.99.65,2.67.41.51,1.18.73,2.1.73,1.62,0,3.71-.68,5.14-1.7,10.26-7.27,19.16-12.89,26.15-17.04,7.51,7.31,16.5,13.67,27.22,18.49,35.27,15.84,67.77,19.4,108.95,20l4.04-.06,4.36.06c47.38-.7,84.81-7.46,111.26-20.11,15.35-7.34,27.56-17.24,36.7-29.54,7.64,2.61,16.9,6.62,25.83,12.66,1.14.79,3.45,2.17,5.5,2.17.92,0,1.79-.27,2.47-1.01.29-.3.61-.85.53-1.73-.17-1.86-2.23-4.46-3.56-5.43-9.12-6.66-18.28-10.95-26.01-13.74,5.25-8.67,9.17-18.37,11.72-29.12,5.64.9,12.22,2.35,19.44,4.77.04,0,2.17.71,4.26.71,1.57,0,3.11-.39,3.7-1.78.27-.63.26-1.33-.03-2.02-1.04-2.48-5.38-4.32-5.43-4.33-7.12-2.82-14.12-4.47-20.3-5.49,1.35-8.14,2-16.8,1.93-26,.02-1.57-.07-3.12-.1-4.67,2.94-.16,5.97-.26,9.16-.22,4.96.05,10.48.42,15.35.74,1.52.1,2.99.19,4.4.28,3.19.18,7.1-.41,7.57-2.73.17-.81-.11-2.03-2.36-3.29Z"/>
            <path class="cls-4" d="M370.32,222.75c1.76-9.13,2.29-22.42,2.71-33.11l.22-5.23c.76-16.97-5.67-38.25-11.49-44.55-.51-.56-1.4-.99-1.72-1.06-18.78-2.76-45.27,5.51-74.57,23.31-2.08,1.26-3.22,1.95-5.23,1.65l-5.91-.87c-25.25-3.76-56.69-8.45-98.98,1.36-1.2.27-2.52.68-3.88,1.08-5.38,1.6-11.46,3.43-16.3.79-7.98-4.35-28.38-14.75-45.5-17.28-12.6-1.85-20.45-.25-23.34,4.78-10.47,19.65-8.42,46.45-5.73,61.45.72-.85,1.42-1.62,2.07-2.27,2.63-2.63,5.32-3.6,7.16-2.33,1.91,1.32,1.15,4.66-.08,7.33-1.22,2.65-3.69,7.76-5.63,11.18,0,0,0,.01,0,.02-16.85,29.6-16.54,62.53-16.45,66.2,0,.74.03,1.51.04,2.26,9.31.02,14.99,1,17.89,1.74l.21.05c.06.01,7.62,1.41,7.18,5.04-.39,3.23-4.98,2.99-7.2,2.87l-.82-.06c-2.44-.37-8.96-1.24-16.86-1.4.79,8.79,2.71,18.09,6.01,27.25,4.52-1.04,7.71-1.28,9.83-1.4l.29-.02c2.79-.15,9.39-.25,9.73,3.07.3,2.87-4.87,4.24-7.11,4.7-1.04.21-2.16.36-3.41.53-1.75.24-3.74.52-6.09,1.02,3.77,8.24,8.76,16.15,15.14,23.24,6.63-3.22,10.45-4.39,10.53-4.42.06-.03,6.57-1.68,7.84,1.28,1.09,2.56-1.67,3.92-4.33,5.24-.85.42-1.74.86-2.55,1.35,0,0-.09.05-.26.13-1.03.51-2.75,1.4-5.02,2.62,6.17,5.56,13.32,10.43,21.71,14.2,33.54,15.07,64.84,18.45,104.45,19.04l4.04-.06,4.36.06c44.98-.67,81.88-7.25,106.54-19.04,12.36-5.91,22.38-13.54,30.16-22.9-3.71-.86-5.97-1.18-6.04-1.19-1.42-.14-5.85-1.17-7.34-3.19-.44-.61-.61-1.28-.47-1.94.75-3.62,7.32-2.9,10.09-2.42.35.03,3.75.38,9.03,1.65,5.2-7.94,9.03-16.98,11.53-27.1-2.33-.14-4.2-.17-5.48-.17-2.44.01-5.28-.05-5.28-.05-.74-.07-6.59-.76-6.82-3.68-.03-.39.05-1,.6-1.64,1.31-1.53,4.62-2.39,6.03-2.5l.31-.03c.84-.08,3.07-.3,5.31-.32h.61c1.62,0,3.81.05,6.42.22,1.29-7.68,1.93-15.9,1.86-24.75.01-1.24-.07-2.46-.09-3.69-6.85.85-12.47,1.97-16.3,2.74-1.96.39-3.38.68-4.24.78-1.38.2-2.56.3-3.55.3-2.31,0-3.58-.56-4-1.72-.29-.84-.23-1.74.18-2.59.74-1.52,2.53-2.81,5.19-3.72,2.09-.71,10.2-3.2,22.24-4.68-1.72-19.09-7.86-37.28-18.78-55.31-.7-1.16-.95-2.54-.69-3.87Z"/>
          </g>
          <g>
            <path class="cls-2" d="M131.11,304.43c-3.5,7.1-3.52,18.45,1.21,24.48,2.92,3.45,7.8,5.41,14.09,4.33,5.43-.94,8.52-5.9,9.55-9.85,2.23-8.84-.15-19.68-5.23-23.79-5.36-3.91-15.39-3.82-19.61,4.83Z"/>
            <path class="cls-2" d="M301.2,305.47c-3.5,7.1-3.52,18.45,1.21,24.48,2.92,3.45,7.8,5.41,14.09,4.33,5.43-.94,8.52-5.9,9.55-9.85,2.23-8.84-.14-19.68-5.23-23.79-5.36-3.91-15.39-3.82-19.61,4.83Z"/>
            <g>
              <path class="cls-2" d="M246.24,336.18c-1.17-4.16-4.32-7.43-8.44-8.76-7.86-2.55-15.82-1.48-20.77,2.79-5.16,4.56-5.41,12.65-2.18,16.84,2.99,3.88,7.72,5.9,14.48,6.2.31.01.63.02.94.02,5.41,0,10.44-1.98,13.31-5.27v-.02c2.83-3.28,3.82-7.69,2.67-11.81Z"/>
              <path class="cls-3" d="M235.7,333.92c-2.1-.68-4.24-1.01-6.25-1.01-3.19,0-6.05.84-7.91,2.45-2.45,2.17-2.29,6.18-1.26,7.52,1.68,2.18,4.74,3.34,9.35,3.54,4.27.17,7.46-1.38,8.79-2.9,1.34-1.56,1.79-3.55,1.24-5.49-.54-1.94-2.02-3.48-3.96-4.11Z"/>
            </g>
          </g>
        </g>
        <g>
          <g>
            <path class="cls-2" d="M190.11,394.26c-1.48-4.63-4.48-8.3-7.74-11.99-11.57-11.1-31.76-15.56-47.81-10.64-11.58,3.03-24.94,13.2-26.89,28.3-1.79,11.76,2.42,22.06,11.65,27.76,9.31,4.78,19.42,4.67,29.7-.17.87-.33,1.3-.24,3.57.72,1.42.61,3.17,1.34,5.28,1.7,3.57,1.03,6.76,1.46,9.57,1.46,7.46,0,12.38-3.02,15.44-6.04,7.97-7.84,10.94-20.61,7.23-31.1Z"/>
            <path class="cls-4" d="M179.77,397.84c-.03-.07-.05-.13-.07-.2-.84-2.65-3.05-5.31-5.25-7.82-8.41-8.05-24.41-11.47-36.92-7.67-8.41,2.21-17.79,9.67-19.04,19.29-.55,3.62-1.01,12.25,6.19,16.72,5.93,3.02,12.4,2.87,20-.7,1.9-.75,3.63-1.02,5.18-1.02,2.92,0,5.24.98,6.98,1.72,1.12.47,2.08.88,2.97,1.01.27.04.53.09.78.17,6.51,1.94,11.44,1.34,14.59-1.78,4.91-4.82,6.87-13.3,4.58-19.71Z"/>
          </g>
          <g>
            <path class="cls-2" d="M353.98,402.21c-1.98-15.21-15.33-25.39-26.69-28.34-16.27-4.97-36.47-.53-48.34,10.91-2.82,3.2-5.95,7-7.44,11.65-3.71,10.49-.74,23.26,7.22,31.1,3.07,3.03,8,6.05,15.45,6.05,2.81,0,5.99-.43,9.57-1.46,2.11-.36,3.86-1.1,5.28-1.7,2.29-.98,2.71-1.06,3.23-.88,10.61,5,20.73,5.1,30.44.1,8.83-5.48,13.04-15.78,11.27-27.43Z"/>
            <path class="cls-4" d="M343.15,403.74c-1.27-9.74-10.64-17.21-18.84-19.34-3.53-1.08-7.32-1.6-11.13-1.6-9.92,0-20.02,3.48-26.32,9.54-1.88,2.17-4.1,4.83-4.94,7.48-.02.07-.04.13-.07.2-2.29,6.41-.33,14.89,4.56,19.7,3.17,3.11,8.06,3.72,14.6,1.78.25-.07.51-.13.78-.17.89-.13,1.85-.53,2.97-1.01,2.67-1.14,6.69-2.83,11.82-.85,7.93,3.73,14.41,3.88,20.73.64,6.81-4.24,6.35-12.88,5.82-16.38Z"/>
          </g>
        </g>
        <g class="cls-9">
          <rect class="cls-10" x="218.57" y="142.65" width="185.84" height="109.81" transform="translate(112.67 -113.13) rotate(25)"/>
          <g>
            <polygon class="cls-8" points="356.22 265.3 371.35 272.35 403.71 202.95 356.22 265.3"/>
            <polygon class="cls-8" points="322.26 249.46 328.75 252.49 462.47 76.95 476.34 47.21 322.26 249.46"/>
            <polygon class="cls-8" points="479.91 10.39 304.2 241.04 308.53 243.06 484.23 12.41 479.91 10.39"/>
            <polygon class="cls-8" points="339.24 257.38 350.05 262.42 416.91 174.66 440.03 125.08 339.24 257.38"/>
            <polygon class="cls-8" points="461.85 1.97 286.14 232.62 288.31 233.63 464.01 2.98 461.85 1.97"/>
          </g>
        </g>
        <path class="cls-2" d="M406.74,208.59c.07-12.48-5.34-22.53-15.6-29.03-.69-.44-1.39-.87-2.1-1.27-.77-.43-1.55-.84-2.34-1.22-11.64-5.67-23.69-4.48-34.15-2.53-5.83,1.33-9.45,2.5-11.74,3.46-1.46-1.46-3.03-2.84-4.74-4.07-.97-.67-6.37-4.22-14.15-5.76-.48-2.22-.98-3.96-1.26-4.88-.01-.05-.23-.79-.25-.84-1.29-3.88-4.26-11.63-9.68-19.89-6.8-10.34-15.02-17.72-24.49-21.96-15.15-6.65-29.01-3.93-42.64,8.55-6.19,6.4-11.53,14.18-15.87,23.1-.54,1.12-4.52,10.56-4.96,11.86-1.56,4.27-6.56,19.27-5.14,33.03.89,10.47,5.87,20.97,13,27.42.12.11.54.44.67.53,7.94,6.03,16.67,9.07,25.99,9.07,1.13,0,2.27-.05,3.42-.13,12.05-.93,21.23-4.61,21.51-4.72,1.18-.45,2.22-.93,3.33-1.4,3.32,4.59,7.6,8.48,12.65,11.05,6.29,3.17,11.23,4.29,15.81,4.29.67,0,1.31-.14,1.97-.18.25.54.51,1.09.92,1.73,9.83,18.52,24.19,24.87,33.25,24.47.58.03,1.17.05,1.76.05,15.78,0,33.72-11.18,44.46-28.18l.53-.88c3.53-5.77,8.87-14.5,9.85-31.67ZM278.21,219.11c-.08.03-8.08,3.2-18.37,4-11.87.91-19.45-4.84-21.88-6.66-5-4.53-8.79-12.66-9.45-20.34-1.18-11.51,3.16-24.52,4.61-28.48.39-1.06,3.95-9.57,4.44-10.59,3.84-7.9,8.52-14.72,13.66-20.06,10.24-9.37,19.41-11.29,30.57-6.38,7.49,3.35,14.15,9.4,19.77,17.96,4.92,7.49,7.54,14.61,8.32,16.9l.28.99c.1.33.23.76.37,1.26-3.12.38-6.39,1.21-9.76,2.67-.86.37-1.62.86-2.44,1.29-1.82-1.99-4.05-3.77-6.3-5.03-6.73-3.79-14.11-3.84-20.25-.13-6.59,4-10.46,11.71-9.86,19.44.23,6.03,2.69,11.16,7.12,14.82,2.87,2.37,6.27,3.78,9.4,4.6,0,.53-.07,1.05-.05,1.58.03,3.82.78,7.6,2.04,11.21-.76.31-1.43.63-2.24.94ZM279.91,194.43c-1.43-.51-2.96-1.24-4.22-2.39-1.79-1.63-2.71-3.75-2.82-6.7-.29-3.87,1.51-7.59,4.61-9.47,2.17-1.32,4.47-1.53,7.04-.66,2.02.68,3.67,1.86,4.9,2.98-4.48,4.46-7.75,9.99-9.5,16.23ZM322.68,230.82c-7.63,2.01-11.53,2.43-19.54-1.62-8.18-4.17-13.72-13.13-13.78-22.47-.43-11.82,5.62-21.89,15.78-26.29,3.44-1.49,6.75-2.04,9.77-2.05,8.05,0,14.03,3.93,14.85,4.49,9.03,6.49,13.34,17.88,10.69,28.51-2.49,11.49-10.8,17.57-17.75,19.43ZM387.42,234.75l-.6,1.01c-8.69,13.74-23.71,23.26-36.56,22.57-6.52.09-15.93-5.16-23.02-17.53,4.14-1.36,8.46-3.71,12.35-7.14,1.96,1.41,4.3,2.61,7,3.2,1.02.22,2.2.38,3.49.38,3.21,0,7.18-.98,11.47-4.38,4.8-4.81,6.43-10.35,4.84-17.49-2.82-8.54-9.53-11.12-14.31-12.03-.27-5.63-1.81-11.14-4.48-16.14,2.05-.65,4.64-1.36,7.15-1.93,8.49-1.57,18.35-2.62,27.19,1.67.59.28,1.14.58,1.7.89.53.3,1.04.61,1.59.96,7.15,4.53,10.61,10.99,10.57,19.46-.82,14.14-4.94,20.88-8.38,26.5ZM350.97,214.33c2.53.61,4.13,1.69,4.89,3.94.65,2.96.13,4.69-1.56,6.43-1.71,1.35-3.44,1.83-5.18,1.51-.94-.17-1.76-.57-2.49-1,1.88-3.16,3.39-6.77,4.33-10.89Z"/>
      </g>
    </g>
    <g>
      <path class="cls-8" d="M149.78,0H36.32v80.41c0,6.75.86,9.34,2.93,12.93l.03.05.03.05.11.18.03.05.03.05c11.5,17.2,31.03,27.07,53.56,27.07s42.06-9.87,53.57-27.07l.04-.06.04-.06.11-.18.02-.04.02-.04c2.06-3.59,2.93-6.18,2.93-12.93V0h0Z"/>
      <path class="cls-4" d="M183.74,59.13c-5.18-2.53-14.18-5.46-14.18-5.46-.39-.1-1.16-.36-1.16-.36,0,0,.39-.58.51-1.02.31-1.12.25-2.42-.47-2.83,0,0,3.93.22,4.78-.11,2.42-.94,3.34-4.18,2.49-6.48-.44-1.2-2.34-1.95-2.72-2.96-.37-.95-.61-1.7-1.62-2.21-1.63-.82-5.76-1.55-7.58-1.39-1.53.14-1.83,1.91-2.78,2.31-3.79,1.63-5.49.87-5.45,6.53,0,0,0,.27.04.49-.83-.4-4.65-2.21-7.88-3.72V2.07H38.39v39.83c-3.23,1.53-7.04,3.35-7.88,3.75.04-.23.04-.49.04-.49.04-5.66-1.66-4.9-5.45-6.53-.95-.41-1.24-2.18-2.78-2.31-1.82-.16-5.95.56-7.58,1.39-1.01.51-1.25,1.26-1.62,2.21-.39,1-2.28,1.76-2.72,2.96-.85,2.29.08,5.54,2.49,6.48.85.33,4.78.11,4.78.11-.72.41-.78,1.71-.47,2.83.11.43.51,1.02.51,1.02,0,0-.78.26-1.16.36,0,0-9,2.92-14.18,5.46,0,0-6.21,2.92,1.49,2.36.37,0,6.14-.45,12.16-1.34l-.04.34c0,1.95.42,1.93,2.03,2.49l-.05.36c-2.03.41-6.06.81-7.46,1.75-1.54,1.03-5.74.23-8.26,3.66-.66.9-1.77,3.64-1.12,4.53,1.06,1.46,7.15,3.58,7.95,3.6,1.9.04,2.1-1.52,3.44-2.44.65-.45,1.42-.15,2.13-.33,1.08-.29,1.67-1.27,2.62-1.76.55-.28,1.74-.56,2.49-.12,3.34,2.05,15.06-.55,18.63-2.65v10.82c0,6.56.85,8.76,2.65,11.9l.14.22c11.14,16.66,30.03,26.19,51.87,26.19s40.73-9.53,51.84-26.15l.02-.03.02-.03.11-.18c1.82-3.17,2.67-5.37,2.67-11.93v-10.83c3.56,2.1,15.29,4.71,18.63,2.65.76-.44,1.94-.17,2.49.12.95.49,1.55,1.47,2.62,1.76.72.19,1.49-.11,2.13.33,1.34.92,1.54,2.48,3.44,2.44.79-.02,6.88-2.15,7.95-3.6.65-.89-.45-3.63-1.12-4.53-2.52-3.43-6.72-2.64-8.26-3.66-1.4-.94-5.43-1.34-7.46-1.75l-.05-.36c1.62-.56,2.04-.55,2.03-2.49l-.04-.34c6.02.89,11.79,1.34,12.16,1.34,7.7.56,1.49-2.36,1.49-2.36Z"/>
      <g>
        <path class="cls-5" d="M173.1,46.11c.33-.49.34-1.4.08-1.93-.3-.61-1.2-.79-1.78-1-.72.16.08.78-.54,1.05l-1.39-.18c-.87-.9.95-.78,1.05-1.26.15-.7-.51-1.35-.08-2.03-.08-.17-.18-.34-.36-.41-.71-.26-4.99-1.28-5.58-1.23l-.18.21c.17.24.89.89.92.95.28.51-1.64.88-1.95.95-1.53.32-5.64.82-5.04,3.24.28,1.14,4.36,4.04,4.86,5.3.11.27.64.84.28,1.08-.75.51-4.53-.17-4.73.41.21.79,2.46,1.39,3.19,1.67.86.33,1.66.58,2.57.13,1.02-.5,1.68-1.84,1.49-2.96-.09-.51-.64-1.76-.95-2.18-.3-.39-2.78-2.36-2.08-2.62.84.27,1.98.03,2.57.82,1.56.44,3.23.72,4.83,1,1.03.18,2.2-.1,2.8-1h0ZM138.9,65.39c.13-.28.18-.64.03-.95-.13-.13-.26-.28-.46-.31-.72.16-1.44.49-2.26.28-.75,0-1.96-.67-2.29.33-.13.64-.49,1.18-.64,1.8,0,.33.31.64.62.8.46.1,1.03.36,1.44.28.77-.54.72-1.52,1.49-2.08.41.1.46.67.93.62.46-.05.93-.33,1.16-.77h0ZM157.65,53.44c.13-.73-.69-.84-1.18-1-1.19-.39-2.37-.76-3.57-1.1-.88-.25-1.77-.72-2.65-.9-1.12-.23-2-.25-2.78-1.23l.18-.1c1.06.42,2.75,1.33,3.86.59.52-.35,1.07-1.29.82-1.93-.19-.48-.78-.54-1.18-.72-1.73-.75-3.43-1.68-5.12-2.53-3.58-1.78-7.15-3.58-10.71-5.39-1.62-.82-3.46-1.77-5.24-2.16-1.45-.32-3.11.08-4.37.85-1.25.76-1.22,2.53-2.16,2.34-.13-.15-.25-.33-.23-.54-.38-.6-1.56,1.09-2.52,1.57-2.14,1.07-5.89,5.17-7.43,7.12-.97,1.23-1.36,2.8-1.72,4.29l.21.28c.47.11.9-.08,1.31-.28.39.1.35.59.57.87,1.56,2.1,5.7.88,7.97,1.65.03.14,0,.26-.16.28-1.02.13-2.36-.08-3.4-.11-2.4-.06-4.8-.09-7.19-.22l-.28.15c-.22.49-1.54,3.32-1.75,3.55-.32.35-.8.63-1.14,1.01-.93,1.04-1.6,2.3-2.77,3.11-.35.24-1.05.38-1.21.77l.18.21c3.54.29,3.9-3.43,6.27-4.27.13.02.18.16.15.28-.59.59-1.22,1.44-1.59,2.18-1.39,2.81-2.37,1.95-3.7,3.24l.21.31c3.92-.12,4.63-2.32,5.91-2.5,1.09-.15,5.18,1.76,6.53,2.13.68.19,1.35.42,2.06.41.24,0,.56-.13.77-.12.53.02.63.95,1.78.41.69-.33.74-1.31.82-1.98.1-.8-.89-1.49-.82-1.93.1-.62.87.21,1.05-.33.11-.33-.29-.98-.49-1.23-.52-.66-1.97-1.79-1.77-2.75.02-.09.29-.29.39-.28l4.76.59c.17.02.89,1.71.9,1.88.01.26-.68,2-.82,2.34-.4.95-1.09,1.63-1.08,2.73.01,1.34.92,2.59,1.6,3.7.75,1.23,1.95.65,3.03,1,.45.15.93.46,1.37.65,1.38.6,2.93,1.23,4.39,1.59.8.19,2.05-.08,2.52-.82.35-.55-.82-.71-.31-1.31.27-.32.62-.3,1-.26.82.09,5.06.61,5.5.13.15-.16-.08-.37-.2-.44-.85-.41-2.17-.61-3.11-.87-1.13-.32-2.31-.4-3.44-.75-.97-.3-.91.69-1.59,1.13-1.04.67-3.83-.66-4.16-1.85-.33-1.15.72-2.6,1.46-3.37.59-.61,1.3-.69,1.88-1.16.37-.29.1-.87.1-1.26.57-.72,2.72.42,3.6.18.95-.27.24-1.53,1.06-1.77.72.2,1.28.72,1.98.98.52.19,1.43.29,1.77.74.27.37,0,.87-.08,1.26.25.48,1.05.62,1.54.7.79.11,1.65.07,2.46.15.8.08,1.61.31,2.4.39l2.68.26c.64.31-.16.86.44,2.11-.64-.09-3.25-.87-3.55,0,2.31,2.15,7.54,3.67,10.64,4.11,1.9.27,3.91.21,5.81.05.29-.02.54-.07.71-.22,0,.01,1.02-.85,1.57-.76.75.12,1.61,1.55,3.17,2.15,1.06.6,2.06-.44,2.88.03,1.01.57,1.63,3.43,3.24,2.98.33-.09,1.72-.57,1.91-.76.53-.43-.36-1.58-.82-2.34-.17-.23-.28-.41-.47-.46-1.86-.48-.98-2.6-3.65-3.11-1.2-.22-1.49-.32-2.7-.55-.33-.06-1.06.1-1.1-.37,0,0,.2-.23.2-.23l2.13-.05-.05-.28c-3.42-.43-6.76-1.4-10.18-1.8-.26-.15-.58-.94-.54-1.18.1-.62,1.09.53,1.59-.7.3-.71-.42-1.32.15-1.67,1.5.19,3,.38,4.5.59-8.48-2.02-17.03-3.72-25.51-5.73-1.84-.44-3.72-.73-5.53-1.29l.03-.2c7.48,1.05,14.88,2.85,22.39,3.65v-.18c-4.15-.79-8.26-1.85-12.42-2.6-6.2-1.11-12.44-2.04-18.67-3-4.06-.62-8.19-1.38-12.29-1.73l-.13.28c.27.34.66.49,1.03.69.05.08.06.19-.02.26-.52-.06-2.85.09-2.85-.46.87-.82,1.08-1.25,2.34-1.13,1.96.18,3.94.47,5.89.72,11.25,1.44,22.58,2.95,33.76,4.89,11.79,2.04,18.02,2.95,27.71,4.82-3.29-1.18-18.13-5.34-25.71-6.64-.35-.06-.8,0-.97-.41h0ZM154.87,66.66c.59.05.91.04,1.68.19,1.26.26,2.52.36,3.8.72.21.08.43.37.46.57-.08.13-.26.16-.36.16l-5.01-1.28-.56-.37h0ZM127.21,64.6l1.39-3.26c.05-.23.28-.46.52-.44.31.1.69.15.8.51l-1.18,2.55c-.82,1.08-.23,2.57.05,3.65-.03.16-.18.23-.31.26-.82-.82-1.57-1.98-1.26-3.27h0ZM116.64,62.31c-.32.24-.87.11-1.27.05-.48-.26-.58-.82-.64-1.35,0-.13.03-.27.16-.37.56,0,1.11.13,1.48.58.16.34.45.71.26,1.08h0ZM133.51,48.98l.69.32s-10.18-1.44-15.09-2.16c-.21-.02-.84-.09-.74-.45.13-.08.28-.13.44-.1l14.7,2.39h0ZM136.13,44.44l-.1.1c-2.6-.5-5.27-1.12-7.82-1.83-.2-.05-.65-.09-.59-.38.93-.18,5.2.95,6.27,1.31.48.16.76.05,1.24,0,.36.23.73.46,1,.8h0ZM47.17,64.44c-.15.31-.1.67.03.95.23.44.69.72,1.16.77.46.05.51-.52.93-.62.77.57.72,1.54,1.49,2.08.41.08.98-.18,1.44-.28.31-.15.62-.46.62-.8-.15-.62-.52-1.16-.64-1.8-.33-1-1.54-.33-2.29-.33-.82.2-1.54-.13-2.26-.28-.21.03-.33.18-.46.31h0ZM82.14,63.85l.18-.21c-.16-.4-.86-.53-1.21-.77-1.17-.81-1.84-2.07-2.77-3.11-.34-.38-.82-.65-1.14-1.01-.21-.23-1.53-3.06-1.75-3.55l-.28-.15c-2.39.13-4.8.16-7.19.22-1.04.03-2.39.24-3.4.11-.15-.02-.19-.14-.16-.28,2.27-.77,6.41.45,7.97-1.65.21-.28.18-.77.57-.87.41.2.84.39,1.31.28l.21-.28c-.36-1.49-.75-3.06-1.72-4.29-1.54-1.95-5.29-6.05-7.43-7.12-.96-.48-2.14-2.17-2.52-1.57.02.21-.1.39-.23.54-.94.19-.91-1.59-2.16-2.34-1.27-.76-2.92-1.16-4.37-.85-1.78.39-3.62,1.34-5.24,2.16-3.57,1.81-7.14,3.61-10.71,5.39-1.69.84-3.39,1.77-5.12,2.53-.41.18-1,.24-1.18.72-.25.64.3,1.58.82,1.93,1.11.73,2.8-.17,3.86-.59l.18.1c-.78.98-1.66,1-2.78,1.23-.88.18-1.77.65-2.65.9-1.2.34-2.38.72-3.57,1.1-.5.16-1.32.28-1.18,1-.17.4-.62.35-.97.41-7.58,1.3-22.42,5.46-25.71,6.64,9.69-1.86,15.92-2.78,27.71-4.82,11.18-1.94,22.51-3.44,33.76-4.89,1.96-.25,3.93-.54,5.89-.72,1.26-.12,1.47.31,2.34,1.13,0,.56-2.33.41-2.85.46-.08-.07-.08-.17-.02-.26.37-.2.76-.36,1.03-.69l-.13-.28c-4.1.35-8.22,1.11-12.29,1.73-6.23.96-12.47,1.88-18.67,3-4.16.75-8.27,1.81-12.42,2.6v.18c7.51-.8,14.91-2.6,22.39-3.65l.03.2c-1.81.56-3.69.85-5.53,1.29-8.48,2.01-17.03,3.71-25.51,5.73,1.5-.21,3-.4,4.5-.59.57.35-.14.96.15,1.67.51,1.23,1.49.07,1.6.7.04.24-.28,1.03-.54,1.18-3.42.4-6.77,1.37-10.18,1.8l-.05.28,2.13.05s.21.23.2.23c-.04.47-.77.3-1.1.37-1.2.22-1.5.32-2.7.55-2.66.51-1.78,2.63-3.65,3.11-.19.05-.31.22-.47.46-.46.76-1.35,1.9-.82,2.34.19.19,1.58.67,1.91.76,1.6.45,2.23-2.42,3.24-2.98.82-.46,1.82.57,2.88-.03,1.55-.59,2.42-2.02,3.17-2.15.55-.09,1.56.77,1.57.76.17.15.43.2.71.22,1.9.16,3.91.22,5.81-.05,3.1-.44,8.34-1.96,10.64-4.11-.3-.87-2.91-.09-3.55,0,.59-1.25-.21-1.8.44-2.11l2.68-.26c.79-.07,1.6-.3,2.4-.39.81-.08,1.67-.04,2.46-.15.49-.07,1.29-.22,1.54-.7-.07-.39-.35-.89-.08-1.26.34-.46,1.26-.55,1.77-.74.7-.26,1.26-.77,1.98-.98.81.25.1,1.51,1.06,1.77.88.24,3.03-.9,3.6-.18,0,.38-.26.97.1,1.26.58.46,1.29.55,1.88,1.16.74.77,1.79,2.22,1.46,3.37-.34,1.19-3.13,2.52-4.16,1.85-.69-.44-.63-1.43-1.59-1.13-1.14.35-2.31.43-3.44.75-.94.26-2.26.46-3.11.87-.13.06-.35.28-.2.44.44.48,4.68-.04,5.5-.13.39-.04.73-.06,1,.26.51.6-.65.76-.31,1.31.47.75,1.72,1.02,2.52.82,1.46-.35,3.01-.98,4.39-1.59.44-.2.92-.5,1.37-.65,1.09-.36,2.29.23,3.03-1,.68-1.11,1.58-2.36,1.6-3.7.01-1.09-.68-1.78-1.08-2.73-.14-.34-.83-2.08-.82-2.34.01-.17.73-1.86.9-1.88l4.76-.59c.09-.01.37.19.39.28.2.96-1.26,2.09-1.77,2.75-.19.25-.6.91-.49,1.23.18.54.95-.28,1.05.33.07.44-.92,1.12-.82,1.93.09.67.13,1.65.82,1.98,1.15.54,1.25-.39,1.78-.41.21,0,.53.12.77.12.71.01,1.38-.22,2.06-.41,1.35-.37,5.44-2.29,6.53-2.13,1.28.18,1.99,2.38,5.91,2.5l.21-.31c-1.33-1.29-2.32-.44-3.7-3.24-.37-.75-1-1.6-1.59-2.18-.03-.12.02-.26.15-.28,2.37.84,2.73,4.55,6.27,4.27h0ZM31.23,66.66l-.56.37-5.01,1.28c-.1,0-.29-.04-.36-.16.03-.21.25-.5.46-.57,1.28-.36,2.54-.46,3.8-.72.77-.16,1.09-.14,1.68-.19h0ZM58.9,64.6c.31,1.29-.44,2.44-1.26,3.27-.13-.02-.28-.1-.31-.26.28-1.08.88-2.57.05-3.65l-1.18-2.55c.1-.36.49-.41.8-.51.23-.03.46.21.52.44l1.39,3.26h0ZM58.48,42.33c.06.29-.4.33-.59.38-2.55.71-5.22,1.32-7.82,1.83l-.1-.1c.27-.34.64-.57,1-.8.48.05.76.16,1.24,0,1.07-.36,5.34-1.49,6.27-1.31h0ZM66.99,47.14c-4.91.72-15.09,2.16-15.09,2.16l.69-.32,14.7-2.39c.15-.03.31.02.44.1.11.36-.53.42-.74.45h0ZM71.37,61.02c-.05.53-.16,1.09-.64,1.35-.4.05-.95.18-1.27-.05-.19-.37.1-.74.26-1.08.37-.45.92-.58,1.48-.58.13.11.16.24.16.37h0ZM27.84,44.47c.6-2.42-3.5-2.92-5.04-3.24-.32-.07-2.24-.44-1.95-.95.03-.06.75-.71.92-.95l-.18-.21c-.59-.04-4.86.98-5.58,1.23-.18.07-.28.24-.36.41.43.69-.23,1.33-.08,2.03.1.48,1.93.36,1.05,1.26l-1.39.18c-.62-.27.18-.9-.54-1.05-.57.21-1.48.39-1.78,1-.26.53-.25,1.44.08,1.93.61.9,1.77,1.19,2.8,1,1.6-.29,3.27-.56,4.83-1,.59-.8,1.73-.56,2.57-.82.7.26-1.79,2.23-2.08,2.62-.31.42-.86,1.67-.95,2.18-.18,1.12.48,2.46,1.49,2.96.91.45,1.71.2,2.57-.13.73-.28,2.98-.88,3.19-1.67-.21-.59-3.98.1-4.73-.41-.36-.24.18-.81.28-1.08.5-1.26,4.58-4.16,4.86-5.3h0ZM8.92,67.7c-.13-.41-2.66.05-2.81.54-.2.72,1.91,1.67,2.81-.54h0ZM3.25,72.12c.05.08.35.22.48.31.54.29,1.05.8,1.41.34.19-.24,1.18-1.95,1.37-2.6.08-.26-.1-.63-.72-.66h-.12c-1.61.16-2.13,1.55-2.41,2.61h0ZM179.99,68.24c-.14-.49-2.68-.94-2.81-.54.9,2.2,3.01,1.26,2.81.54h0ZM179.6,70.17c.19.65,1.18,2.36,1.37,2.6.36.46.87-.05,1.41-.34.13-.08.43-.23.48-.31-.28-1.05-.79-2.45-2.41-2.61h-.12c-.62.02-.8.4-.72.66h0Z"/>
        <g>
          <path class="cls-6" d="M83.4,13.98h-2.59v19.79h-5.08V9.87s8.6,0,8.72,0c3.97,0,7.19,3.16,7.19,7.06,0,3.32-2.33,6.1-5.48,6.85l7.01,9.98h-5.98l-5.07-7.82v-5.71h1.18c1.87,0,3.39-1.4,3.39-3.13s-1.42-3.12-3.3-3.12Z"/>
          <path class="cls-5" d="M109.17,20.76c1.31-1.22,2.1-2.85,2.1-4.64,0-1.62-.62-3.12-1.72-4.29-1.14-1.25-3.15-1.96-5.87-1.96h-8.15v23.89h10.53c4.04-.07,7.29-3.11,7.29-6.85,0-2.72-.96-4.66-4.17-6.15ZM105.18,29.61h-4.56v-15.64h3.18c1.4,0,2.53,1.28,2.53,2.68s-1.13,2.53-2.53,2.53h-1.66v4.29h3.04c1.69,0,2.97,1.37,2.97,3.06-.06,1.75-1.13,2.96-2.97,3.07Z"/>
        </g>
      </g>
      <g>
        <g>
          <path class="cls-10" d="M110.9,50.23c.7-2.23,1.64-3.44,4.1-5.88-2.69-1.87-6.69-3.85-6.69-3.85-2.84,4-5.21,8.95-5.21,8.95,1.4,2.92,3.49,6.23,4.65,8.27,1.55-2.27,2.19-4.42,3.15-7.49h0Z"/>
          <path class="cls-10" d="M73.8,46.9c.04.14,1.04,1.58,1.47,3.14l.85,2.71c.1.31.19.58.19.58.19.56.45,1.24.77,1.96.29.65.62,1.32.98,1.93.29.49.65.93,1.08,1.31.01,0,.02.02.03.03.38.33.83.57,1.32.7,1.31.36,2.78.75,4.38,1.14,0,0,4.78-7.62,6.44-10.85,0,0-3.44-5.47-7.03-9.55,0,0-7.57,3.38-10.37,4.83"/>
          <g>
            <path class="cls-10" d="M143.15,80.41c0,5.86-.68,7.24-2.04,9.62-10.43,15.6-28.06,24.12-48.05,24.12s-37.62-8.53-48.05-24.12c-1.36-2.38-2.05-3.76-2.05-9.62v-8.8h-3.08v8.8c0,6.23.75,8.19,2.46,11.16l.11.18c11.39,17.04,30.32,25.49,50.61,25.49s39.22-8.45,50.61-25.49l.11-.18c1.71-2.97,2.45-4.93,2.45-11.16v-8.77h-3.08v8.77Z"/>
            <path class="cls-10" d="M116.39,43.02c.47-.46.95-.89,1.42-1.29-1.54-3.15-3.67-5.95-6.24-8.29-.33.25-.68.48-1.05.69,2.5,2.52,4.52,5.53,5.86,8.89Z"/>
            <polygon class="cls-10" points="39.87 3.55 39.87 41.22 42.95 39.77 42.95 6.64 143.15 6.64 143.15 39.81 146.23 41.24 146.23 3.55 39.87 3.55"/>
            <path class="cls-10" d="M71.05,65.88c-.94.37-1.75.69-2.29.84h-.03c4.63,8.7,13.78,14.62,24.32,14.62s19.69-5.92,24.32-14.61h-.03c-.54-.16-1.35-.48-2.29-.85-.04-.02-.09-.04-.13-.05-2.4,4.31-5.95,7.9-10.25,10.32l-2.2-6.18-11.92.32-4.67,6.55s1.95,1.47,5.46,2.71c-5.76-.06-11.08-1.96-15.41-5.12.14-.12.28-.25.39-.37,0,0-3.23-4.65-5.21-8.2-.02,0-.04.01-.05.02Z"/>
            <path class="cls-10" d="M69.18,42.51c.23-.29.46-.59.69-.89,1.48-3.3,3.1-6.13,3.92-7.5-2.24,2.19-4.11,4.76-5.5,7.61.29.25.59.51.88.78Z"/>
          </g>
        </g>
        <g>
          <path class="cls-10" d="M62.74,75.79c.35-.23.73-.37,1.12-.43.39-.06.78-.05,1.16.04.38.08.73.23,1.07.45.33.22.62.5.84.85.23.35.37.73.43,1.12.06.39.05.78-.03,1.16s-.23.73-.45,1.07-.5.61-.86.84l-11.58,7.43c-.35.23-.73.37-1.12.43-.39.06-.78.05-1.16-.03-.38-.08-.73-.23-1.07-.45-.33-.22-.61-.5-.84-.86s-.37-.73-.43-1.12c-.06-.39-.05-.78.04-1.16.08-.38.23-.73.45-1.07.22-.33.5-.62.86-.84l11.58-7.44ZM65.64,78.74l-1.09-1.7-13.01,8.35,1.09,1.7,13-8.35Z"/>
          <path class="cls-10" d="M68.33,79.39l1.4,1.22-1.4,3.42c-.2.48-.4.96-.61,1.44-.21.49-.42.96-.63,1.43l.04.04c.43-.27.88-.54,1.33-.81s.9-.53,1.35-.79l3.21-1.84,1.4,1.22-12.85,14.66-1.52-1.33,5.87-6.69c.29-.33.61-.69.96-1.08s.72-.78,1.09-1.15c.37-.38.73-.74,1.07-1.1s.65-.67.91-.94l-.04-.04c-1.05.67-2.06,1.29-3.02,1.83-.96.55-1.94,1.1-2.92,1.67l-.04-.04c.43-1.05.86-2.08,1.27-3.11.42-1.03.89-2.11,1.42-3.24l-.04-.04c-.22.31-.49.66-.8,1.04s-.63.78-.96,1.19c-.33.42-.66.82-1,1.23-.34.4-.66.77-.94,1.1l-5.87,6.69-1.52-1.33,12.85-14.66Z"/>
          <path class="cls-10" d="M75.06,84.82l1.75,1.01-9.78,16.86-1.75-1.01,9.78-16.86Z"/>
          <path class="cls-10" d="M75.51,97.14c-.5-.45-.83-.98-.99-1.59-.15-.63-.11-1.23.12-1.83l2.88-7.38,1.88.73-3.18,8.17,1.93.75,3.18-8.17,1.88.73-2.87,7.38c-.23.59-.62,1.07-1.15,1.43-.53.34-1.13.51-1.8.5l-3.16,8.12-1.88-.73,3.16-8.12Z"/>
          <path class="cls-10" d="M83.2,91.51c.07-.41.22-.78.45-1.11.22-.33.5-.6.81-.82.32-.22.67-.38,1.06-.48.39-.1.79-.11,1.2-.03.41.07.78.22,1.11.45.33.23.61.5.83.81s.38.67.48,1.06c.1.39.11.79.03,1.2l-2.93,16.37-1.99-.36,1.54-8.6-1.99-.36-1.54,8.6-1.99-.36,2.93-16.37ZM84.15,97.64l1.99.36,1.18-6.61-1.99-.36-1.18,6.61Z"/>
          <path class="cls-10" d="M93.97,92.75c-.04-.42,0-.81.13-1.19.13-.38.31-.72.56-1.02.24-.3.54-.55.89-.75.35-.2.73-.32,1.14-.36.42-.04.81,0,1.19.13s.72.31,1.02.56c.3.24.55.54.75.89.2.35.32.73.36,1.14l1.66,16.55-2.01.2-.87-8.69-2.01.2.87,8.69-2.01.2-1.66-16.55ZM96.56,98.39l2.01-.2-.67-6.68-2.01.2.67,6.68Z"/>
          <path class="cls-10" d="M100.31,89.19l3.87-1.16c.54-.16,1.05-.11,1.54.15.49.26.81.66.97,1.21l1.77,5.91c.14.45.15.81.05,1.06-.11.25-.26.48-.46.69.27.01.52.12.76.31s.44.58.62,1.15l1.86,6.23c.08.26.19.48.34.67.15.18.33.38.54.58l-1.99.59c-.16-.16-.32-.35-.48-.57-.16-.22-.28-.45-.35-.69l-2.09-6.99-1.94.58,2.5,8.37-1.94.58-5.59-18.68ZM104.75,96.98l1.94-.58-1.92-6.44-1.94.58,1.92,6.44Z"/>
          <path class="cls-10" d="M106.6,87.26l3.56-1.91c.5-.27,1.01-.32,1.54-.16.53.16.93.49,1.19.99l7.31,13.62c.27.5.32,1.01.16,1.54s-.49.93-.99,1.19l-3.56,1.91-9.22-17.18ZM116.64,101.7l1.78-.96-7.31-13.62-1.78.95,7.31,13.62Z"/>
          <path class="cls-10" d="M112.53,83.83l1.6-1.23,11.87,15.47-1.6,1.23-11.87-15.47Z"/>
          <path class="cls-10" d="M130.78,89.42c.31.28.54.61.69.98.16.37.24.74.26,1.13s-.04.77-.17,1.15c-.13.38-.33.72-.62,1.03-.29.31-.61.54-.98.69-.37.16-.74.24-1.13.26-.39.01-.77-.04-1.15-.17s-.72-.33-1.03-.62l-1.62-1.5,1.37-1.48,2.24,2.08,1.37-1.48-11.33-10.51-1.37,1.48-1.48-1.37,2.75-2.96,12.19,11.31Z"/>
          <path class="cls-10" d="M121.24,79.38c-.37-.2-.67-.46-.92-.77-.24-.32-.42-.66-.53-1.03-.11-.37-.15-.75-.12-1.15.03-.4.14-.78.34-1.15.2-.37.46-.67.77-.92s.66-.42,1.03-.53c.37-.11.75-.15,1.15-.12s.78.14,1.15.34l14.64,7.89-.96,1.78-7.69-4.15-.96,1.78,7.69,4.15-.96,1.78-14.64-7.89ZM127.37,80.39l.96-1.78-5.91-3.19-.96,1.78,5.91,3.19Z"/>
        </g>
      </g>
      <g>
        <path class="cls-7" d="M75.92,74.43c4.33,3.17,9.65,5.06,15.41,5.12-3.5-1.24-5.46-2.71-5.46-2.71l1.07-1.49c-4.05-.08-7.9-.95-11.42-2.46.49.72.8,1.17.8,1.17-.11.13-.25.25-.39.37Z"/>
        <path class="cls-7" d="M114.91,65.83s.09.04.13.05c-1.05-.41-2.97-1.17-3.62-1.24-.12.07-.36.26-.53.4-.3.25-.68.55-1.15.84-2,2.1-4.3,3.91-6.83,5.37l1.74,4.9c4.3-2.42,7.85-6.01,10.25-10.32Z"/>
      </g>
    </g>
  </g>
</svg>