<?xml version="1.0" encoding="UTF-8"?>
<svg id="_レイヤー_2" data-name="レイヤー 2" xmlns="http://www.w3.org/2000/svg" xmlns:xlink="http://www.w3.org/1999/xlink" viewBox="0 0 426.45 441.62">
  <defs>
    <style>
      .cls-1 {
        fill: none;
      }

      .cls-2 {
        fill: #221815;
      }

      .cls-3 {
        fill: #ffe100;
      }

      .cls-4 {
        fill: #d6c560;
      }

      .cls-5 {
        fill: #fff;
      }

      .cls-6 {
        fill: #ca0915;
      }

      .cls-7 {
        clip-path: url(#clippath);
      }
    </style>
    <clipPath id="clippath">
      <path class="cls-1" d="M390.94,216.64c.07-12.48-5.34-22.53-15.6-29.03-.69-.44-1.39-.87-2.1-1.27-.77-.43-1.55-.85-2.34-1.22-11.64-5.67-23.69-4.48-34.15-2.53-5.83,1.33-9.45,2.5-11.74,3.46-1.46-1.46-3.03-2.84-4.74-4.07-.97-.67-6.37-4.22-14.15-5.76-.48-2.22-.98-3.96-1.26-4.88-.01-.05-.23-.79-.25-.84-1.29-3.88-4.26-11.63-9.68-19.89-6.8-10.34-15.02-17.72-24.49-21.96-15.15-6.65-29.01-3.93-42.64,8.55-6.19,6.4-11.53,14.18-15.87,23.1-.54,1.12-4.52,10.56-4.96,11.86-1.56,4.27-6.56,19.27-5.14,33.03.89,10.47,5.87,20.97,13,27.42.12.11.54.44.67.53,7.94,6.03,16.67,9.07,25.99,9.07,1.13,0,2.27-.05,3.42-.13,12.05-.93,21.23-4.61,21.51-4.72,1.18-.45,2.22-.93,3.33-1.4,3.32,4.59,7.6,8.48,12.65,11.05,6.29,3.17,11.23,4.29,15.81,4.29.67,0,1.31-.14,1.97-.18.25.54.51,1.09.92,1.73,9.83,18.52,24.19,24.87,33.25,24.47.58.03,1.17.05,1.76.05,15.78,0,33.72-11.18,44.46-28.18l.53-.88c3.53-5.77,8.87-14.5,9.85-31.67Z"/>
    </clipPath>
  </defs>
  <g id="_レイヤー_1-2" data-name="レイヤー 1">
    <g>
      <path class="cls-6" d="M426.45,224.17c0,117.76-84.41,196.43-213.22,196.43S0,341.93,0,224.17,95.46,10.95,213.22,10.95s213.22,95.46,213.22,213.23Z"/>
      <g>
        <g>
          <g>
            <path class="cls-2" d="M419.51,292.66c-1.3-.72-2.84-1.24-3.8-1.44-6.81-1.4-13.64-2.18-20.31-2.33-3.7-.09-7.16,0-10.5.16-1.79-20.11-8.09-39.31-19.27-58.27,1.62-9.72,2.12-22.36,2.53-32.66l.21-5.17c.84-18.75-5.88-43.26-14.38-52.46-2.12-2.29-5.31-4.04-8.12-4.45-21.54-3.21-49.87,5.35-81.73,24.67l-4-.59c-26.18-3.9-58.77-8.75-103.06,1.53-1.4.32-2.95.78-4.54,1.26-2.37.71-6.76,1.98-7.92,1.68-8.49-4.64-30.28-15.71-49.14-18.49-17.53-2.61-29.09.83-34.52,10.31-15.37,28.86-7.65,69.07-4.44,79.47-16,31.01-15.7,63.87-15.6,67.47,0,.84.03,1.72.04,2.58-.84.06-1.6.09-2.48.16-8.93.71-17.8,1.58-28.07,4.44-3.34.92-6.41,3.14-5.81,5.59.47,1.92,2.84,2.35,4.83,2.35,1.54,0,2.85-.25,2.89-.26,10.63-2.17,16.02-2.75,23.47-3.55l3.14-.34c.81-.09,1.61-.13,2.42-.2.81,9.68,2.85,19.99,6.48,30.18-4.44,1.67-9.56,3.89-15.71,7.07-.04.02-3.98,2.08-4.74,4.62-.23.78-.15,1.56.23,2.24.62,1.11,1.92,1.46,3.31,1.46,2.3,0,4.82-.95,4.86-.96,1.84-.81,3.57-1.58,5.21-2.31,3.72-1.66,6.96-3.05,10-4.23,3.93,8.9,9.09,17.53,15.73,25.34-6.84,3.96-15.09,9.33-24.43,16.6-1.94,1.52-3.19,3.45-3.41,5.32-.12,1.04.11,1.99.65,2.67.41.51,1.18.73,2.1.73,1.62,0,3.71-.68,5.14-1.7,10.26-7.27,19.16-12.89,26.15-17.04,7.51,7.31,16.5,13.67,27.22,18.49,35.27,15.84,67.77,19.4,108.95,20l4.04-.06,4.36.06c47.38-.7,84.81-7.46,111.26-20.11,15.35-7.34,27.56-17.24,36.7-29.54,7.64,2.61,16.9,6.62,25.83,12.66,1.14.79,3.45,2.17,5.5,2.17.92,0,1.79-.27,2.47-1.01.29-.3.61-.85.53-1.73-.17-1.86-2.22-4.46-3.56-5.43-9.12-6.66-18.29-10.95-26.01-13.74,5.25-8.67,9.17-18.37,11.72-29.12,5.64.9,12.22,2.35,19.44,4.77.04,0,2.17.71,4.26.71,1.57,0,3.11-.39,3.7-1.78.27-.63.26-1.33-.03-2.02-1.04-2.48-5.39-4.32-5.43-4.33-7.12-2.82-14.12-4.47-20.31-5.49,1.35-8.14,2-16.8,1.93-26,.02-1.57-.07-3.12-.1-4.67,2.93-.16,5.97-.26,9.16-.22,4.96.05,10.48.42,15.35.74,1.52.1,2.99.19,4.4.28,3.19.18,7.1-.41,7.57-2.73.17-.81-.11-2.03-2.36-3.29Z"/>
            <path class="cls-5" d="M354.53,230.79c1.76-9.13,2.29-22.42,2.71-33.11l.22-5.23c.76-16.97-5.67-38.25-11.49-44.55-.51-.56-1.4-.99-1.72-1.06-18.78-2.76-45.27,5.51-74.57,23.31-2.08,1.26-3.22,1.95-5.23,1.65l-5.91-.87c-25.25-3.76-56.69-8.45-98.98,1.36-1.2.27-2.52.67-3.88,1.08-5.38,1.6-11.46,3.43-16.3.8-7.98-4.35-28.38-14.75-45.5-17.28-12.59-1.85-20.45-.25-23.34,4.78-10.47,19.65-8.42,46.45-5.73,61.45.72-.85,1.42-1.62,2.07-2.27,2.63-2.63,5.32-3.6,7.16-2.33,1.91,1.32,1.15,4.66-.08,7.33-1.22,2.65-3.69,7.76-5.63,11.18,0,0,0,.01,0,.02-16.85,29.6-16.54,62.53-16.45,66.2,0,.74.03,1.51.04,2.26,9.31.02,14.99,1,17.89,1.74l.21.05c.06.01,7.62,1.41,7.18,5.04-.39,3.23-4.98,2.99-7.2,2.87l-.82-.06c-2.44-.37-8.96-1.24-16.86-1.4.79,8.79,2.71,18.09,6.01,27.25,4.52-1.04,7.71-1.28,9.83-1.4l.29-.02c2.79-.15,9.39-.25,9.73,3.07.3,2.87-4.87,4.24-7.11,4.7-1.04.21-2.16.36-3.41.53-1.75.24-3.74.52-6.09,1.02,3.77,8.24,8.76,16.15,15.14,23.24,6.63-3.21,10.45-4.39,10.53-4.42.06-.03,6.57-1.68,7.84,1.28,1.09,2.56-1.67,3.92-4.33,5.24-.85.42-1.74.86-2.55,1.35,0,0-.09.05-.26.13-1.03.51-2.75,1.4-5.02,2.62,6.17,5.56,13.32,10.43,21.71,14.2,33.54,15.07,64.84,18.45,104.46,19.04l4.04-.06,4.36.06c44.98-.67,81.88-7.25,106.54-19.04,12.36-5.91,22.38-13.54,30.17-22.9-3.71-.86-5.98-1.18-6.04-1.19-1.42-.14-5.85-1.17-7.34-3.19-.44-.61-.61-1.28-.47-1.94.75-3.62,7.32-2.9,10.09-2.43.35.03,3.75.38,9.03,1.65,5.2-7.94,9.03-16.98,11.53-27.11-2.33-.14-4.2-.17-5.48-.17-2.44.01-5.28-.05-5.28-.05-.73-.07-6.59-.76-6.82-3.68-.03-.39.05-1,.6-1.64,1.31-1.53,4.62-2.39,6.03-2.5l.31-.03c.84-.08,3.07-.3,5.31-.32h.61c1.62,0,3.81.05,6.42.22,1.29-7.68,1.93-15.9,1.86-24.75.01-1.24-.06-2.46-.09-3.69-6.85.85-12.47,1.97-16.3,2.74-1.96.39-3.38.68-4.24.78-1.38.2-2.56.3-3.55.3-2.31,0-3.58-.56-4-1.72-.29-.84-.23-1.74.18-2.59.74-1.52,2.53-2.81,5.19-3.72,2.09-.71,10.2-3.2,22.24-4.68-1.72-19.09-7.86-37.28-18.78-55.31-.7-1.16-.95-2.54-.69-3.87Z"/>
          </g>
          <g>
            <path class="cls-2" d="M115.31,312.47c-3.5,7.1-3.52,18.45,1.21,24.48,2.92,3.45,7.8,5.41,14.09,4.33,5.43-.94,8.52-5.9,9.55-9.85,2.23-8.84-.14-19.68-5.23-23.79-5.36-3.91-15.39-3.82-19.61,4.83Z"/>
            <path class="cls-2" d="M285.41,313.51c-3.5,7.1-3.52,18.45,1.21,24.48,2.92,3.45,7.8,5.41,14.09,4.33,5.43-.94,8.52-5.9,9.55-9.85,2.23-8.84-.15-19.68-5.23-23.79-5.36-3.91-15.39-3.82-19.61,4.83Z"/>
            <g>
              <path class="cls-2" d="M230.45,344.22c-1.17-4.16-4.32-7.43-8.44-8.76-7.86-2.55-15.82-1.48-20.77,2.79-5.16,4.56-5.41,12.65-2.19,16.84,2.99,3.88,7.72,5.9,14.48,6.2.31.01.63.02.94.02,5.41,0,10.44-1.98,13.31-5.27v-.02c2.83-3.28,3.82-7.69,2.67-11.81Z"/>
              <path class="cls-3" d="M219.91,341.97c-2.1-.68-4.24-1.01-6.25-1.01-3.19,0-6.05.84-7.91,2.45-2.45,2.17-2.29,6.18-1.26,7.52,1.68,2.18,4.74,3.34,9.35,3.54,4.27.17,7.46-1.38,8.79-2.9,1.34-1.56,1.79-3.55,1.24-5.49-.54-1.94-2.02-3.48-3.96-4.11Z"/>
            </g>
          </g>
        </g>
        <g>
          <g>
            <path class="cls-2" d="M174.31,402.3c-1.48-4.63-4.48-8.3-7.74-11.99-11.57-11.11-31.76-15.56-47.81-10.64-11.58,3.03-24.94,13.2-26.89,28.3-1.79,11.76,2.42,22.06,11.65,27.76,9.31,4.78,19.42,4.67,29.7-.17.87-.33,1.3-.24,3.57.72,1.42.61,3.17,1.34,5.28,1.7,3.57,1.03,6.76,1.46,9.57,1.46,7.46,0,12.38-3.02,15.44-6.04,7.97-7.84,10.94-20.61,7.23-31.1Z"/>
            <path class="cls-5" d="M163.98,405.89c-.03-.07-.05-.13-.07-.2-.83-2.65-3.05-5.31-5.25-7.82-8.41-8.05-24.41-11.47-36.92-7.67-8.41,2.2-17.79,9.67-19.04,19.29-.55,3.62-1.01,12.25,6.19,16.72,5.93,3.02,12.4,2.87,20-.7,1.9-.75,3.63-1.02,5.19-1.02,2.92,0,5.24.98,6.98,1.72,1.12.47,2.08.88,2.97,1.01.27.04.53.09.78.17,6.51,1.94,11.44,1.34,14.59-1.78,4.91-4.82,6.87-13.3,4.58-19.71Z"/>
          </g>
          <g>
            <path class="cls-2" d="M338.19,410.26c-1.98-15.21-15.33-25.39-26.69-28.34-16.27-4.97-36.47-.53-48.34,10.91-2.82,3.2-5.95,7-7.44,11.65-3.71,10.49-.74,23.27,7.22,31.1,3.07,3.03,8,6.05,15.45,6.05,2.81,0,5.99-.43,9.57-1.46,2.11-.36,3.85-1.1,5.28-1.7,2.29-.98,2.71-1.06,3.23-.87,10.61,5,20.73,5.1,30.44.1,8.83-5.48,13.04-15.78,11.27-27.43Z"/>
            <path class="cls-5" d="M327.35,411.79c-1.27-9.74-10.64-17.21-18.84-19.34-3.53-1.08-7.32-1.6-11.13-1.6-9.92,0-20.02,3.48-26.32,9.53-1.88,2.17-4.1,4.83-4.94,7.48-.02.07-.04.13-.07.2-2.29,6.41-.33,14.89,4.56,19.7,3.17,3.11,8.06,3.72,14.6,1.78.25-.07.51-.13.78-.17.89-.13,1.85-.53,2.97-1.01,2.67-1.14,6.69-2.83,11.82-.85,7.93,3.73,14.41,3.87,20.73.63,6.81-4.24,6.35-12.88,5.82-16.38Z"/>
          </g>
        </g>
        <g>
          <g class="cls-7">
            <rect class="cls-6" x="240.92" y="114.04" width="108.55" height="184.44" transform="translate(-16.49 386.63) rotate(-65)"/>
            <g>
              <polygon class="cls-4" points="292.91 186.95 276.44 222.28 256.15 212.82 272.63 177.49 292.91 186.95 292.91 186.95"/>
              <polygon class="cls-4" points="252.27 167.98 235.8 203.33 215.46 193.85 231.94 158.52 252.27 167.98 252.27 167.98"/>
              <polygon class="cls-4" points="256.13 212.81 239.66 248.14 219.31 238.66 235.8 203.33 256.13 212.81 256.13 212.81"/>
              <polygon class="cls-4" points="289.09 142.14 272.61 177.48 252.27 167.98 268.76 132.65 289.09 142.14 289.09 142.14"/>
            </g>
            <g>
              <polygon class="cls-4" points="317.08 241.23 300.6 276.56 280.25 267.07 296.71 231.76 317.08 241.23 317.08 241.23"/>
              <polygon class="cls-4" points="357.69 260.17 341.23 295.51 320.97 286.06 337.42 250.72 357.69 260.17 357.69 260.17"/>
              <polygon class="cls-4" points="350.03 170.57 333.55 205.9 313.2 196.41 329.67 161.07 350.03 170.57 350.03 170.57"/>
              <polygon class="cls-4" points="390.66 189.51 374.18 224.85 353.9 215.39 370.38 180.05 390.66 189.51 390.66 189.51"/>
              <polygon class="cls-4" points="353.87 215.38 337.39 250.74 317.08 241.23 333.55 205.9 353.87 215.38 353.87 215.38"/>
            </g>
          </g>
          <path class="cls-2" d="M390.94,216.64c.07-12.48-5.34-22.53-15.6-29.03-.69-.44-1.39-.87-2.1-1.27-.77-.43-1.55-.85-2.34-1.22-11.64-5.67-23.69-4.48-34.15-2.53-5.83,1.33-9.45,2.5-11.74,3.46-1.46-1.46-3.03-2.84-4.74-4.07-.97-.67-6.37-4.22-14.15-5.76-.48-2.22-.98-3.96-1.26-4.88-.01-.05-.23-.79-.25-.84-1.29-3.88-4.26-11.63-9.68-19.89-6.8-10.34-15.02-17.72-24.49-21.96-15.15-6.65-29.01-3.93-42.64,8.55-6.19,6.4-11.53,14.18-15.87,23.1-.54,1.12-4.52,10.56-4.96,11.86-1.56,4.27-6.56,19.27-5.14,33.03.89,10.47,5.87,20.97,13,27.42.12.11.54.44.67.53,7.94,6.03,16.67,9.07,25.99,9.07,1.13,0,2.27-.05,3.42-.13,12.05-.93,21.23-4.61,21.51-4.72,1.18-.45,2.22-.93,3.33-1.4,3.32,4.59,7.6,8.48,12.65,11.05,6.29,3.17,11.23,4.29,15.81,4.29.67,0,1.31-.14,1.97-.18.25.54.51,1.09.92,1.73,9.83,18.52,24.19,24.87,33.25,24.47.58.03,1.17.05,1.76.05,15.78,0,33.72-11.18,44.46-28.18l.53-.88c3.53-5.77,8.87-14.5,9.85-31.67ZM262.41,227.16c-.08.03-8.08,3.2-18.37,4-11.87.91-19.45-4.84-21.88-6.66-5-4.53-8.79-12.66-9.45-20.34-1.18-11.51,3.16-24.52,4.61-28.48.39-1.06,3.95-9.57,4.44-10.59,3.84-7.89,8.52-14.72,13.66-20.06,10.24-9.37,19.41-11.29,30.57-6.38,7.49,3.36,14.15,9.4,19.77,17.96,4.92,7.49,7.54,14.61,8.32,16.9l.28.99c.1.33.23.76.37,1.26-3.12.38-6.39,1.21-9.76,2.67-.86.37-1.62.86-2.44,1.29-1.82-1.99-4.05-3.77-6.3-5.03-6.73-3.79-14.11-3.84-20.25-.13-6.59,4-10.46,11.71-9.86,19.44.23,6.03,2.69,11.16,7.12,14.82,2.87,2.37,6.27,3.78,9.4,4.6,0,.53-.07,1.05-.06,1.58.03,3.82.78,7.6,2.04,11.21-.76.31-1.43.63-2.24.94ZM264.12,202.47c-1.43-.51-2.96-1.24-4.22-2.39-1.79-1.63-2.7-3.75-2.82-6.7-.29-3.87,1.51-7.59,4.61-9.47,2.17-1.32,4.47-1.53,7.04-.66,2.02.68,3.67,1.86,4.9,2.98-4.48,4.46-7.75,9.99-9.5,16.23ZM306.89,238.86c-7.63,2.01-11.53,2.43-19.54-1.62-8.18-4.17-13.72-13.13-13.78-22.46-.43-11.82,5.62-21.89,15.78-26.29,3.44-1.49,6.75-2.04,9.77-2.05,8.05,0,14.03,3.93,14.85,4.49,9.03,6.49,13.34,17.88,10.69,28.51-2.49,11.49-10.8,17.57-17.75,19.43ZM371.63,242.8l-.6,1.01c-8.69,13.74-23.71,23.26-36.56,22.57-6.52.09-15.93-5.16-23.02-17.53,4.14-1.36,8.46-3.71,12.35-7.14,1.96,1.41,4.3,2.61,7,3.2,1.02.22,2.2.38,3.49.38,3.21,0,7.18-.98,11.47-4.38,4.81-4.81,6.43-10.35,4.84-17.49-2.82-8.54-9.53-11.12-14.31-12.03-.27-5.63-1.81-11.14-4.48-16.14,2.05-.65,4.64-1.36,7.15-1.93,8.49-1.57,18.35-2.62,27.19,1.67.59.28,1.14.58,1.7.89.53.3,1.04.61,1.59.96,7.15,4.53,10.61,10.99,10.57,19.46-.82,14.14-4.94,20.88-8.38,26.5ZM335.17,222.37c2.53.61,4.13,1.69,4.89,3.94.65,2.96.13,4.69-1.56,6.43-1.71,1.35-3.44,1.83-5.18,1.51-.94-.17-1.76-.56-2.49-1,1.88-3.16,3.39-6.77,4.33-10.89Z"/>
        </g>
      </g>
    </g>
    <g>
      <g>
        <path class="cls-4" d="M75.54,134.11c-18.06-10.07-31.34-23.09-40.6-39.82-10.65-19.24-15.82-42.94-15.82-72.47v-1.86l1.5-1.09C37.67,6.53,57.27,0,77.31,0c20.04,0,39.64,6.53,56.69,18.88l1.5,1.09v1.86c0,29.53-5.18,53.23-15.82,72.47-9.26,16.73-22.54,29.75-40.6,39.82l-1.77.99-1.77-.99Z"/>
        <path class="cls-6" d="M77.31,3.64c-19.96,0-38.62,6.64-54.56,18.19h0c0,60.78,22.8,91.41,54.56,109.11,31.76-17.7,54.56-48.34,54.56-109.11C115.93,10.28,97.27,3.64,77.31,3.64Z"/>
      </g>
      <g>
        <path class="cls-4" d="M92.92,70.07c.01-.18.03-.36.03-.54,0-3.62-2.93-6.55-6.55-6.55-1.16,0-2.25.31-3.2.84-1.32-1.83-3.47-3.02-5.89-3.02-2.43,0-4.57,1.19-5.89,3.02-.95-.53-2.04-.84-3.2-.84-3.62,0-6.55,2.93-6.55,6.55,0,.18.01.36.03.54,1.31.83,2.68,1.57,4.12,2.19-.09-.29-.15-.59-.15-.91,0-1.61,1.3-2.91,2.91-2.91.55,0,1.06.15,1.5.42.84.51,1.41,1.43,1.41,2.49,0,.31-.05.61-.14.89-.2.62-.6,1.15-1.13,1.51.82.21,1.66.38,2.51.51.32.05.65.09.98.13,1.18.15,2.38.23,3.6.23,1.22,0,2.42-.08,3.6-.23.33-.04.65-.08.98-.13.85-.13,1.69-.31,2.51-.51-.53-.36-.93-.89-1.13-1.51-.09-.28-.14-.58-.14-.89,0-1.06.57-1.98,1.41-2.49.44-.26.95-.42,1.5-.42,1.61,0,2.91,1.3,2.91,2.91,0,.32-.05.63-.15.91,1.44-.62,2.81-1.35,4.12-2.19Z"/>
        <path class="cls-4" d="M94.77,107.66c-.93-.7-1.9-1.33-2.91-1.92-.94-.54-1.91-1.04-2.91-1.47-.95-.41-1.91-.78-2.91-1.09-.95-.3-1.92-.55-2.91-.75-.95-.19-1.92-.34-2.91-.44-.96-.1-1.93-.15-2.91-.15-.98,0-1.95.05-2.91.15-.99.1-1.96.24-2.91.44-.99.2-1.96.45-2.91.75-.99.31-1.96.68-2.91,1.09-1,.44-1.97.93-2.91,1.47-1.01.58-1.98,1.22-2.91,1.92-1.03.77-2,1.61-2.91,2.51-.2.2-.39.39-.59.6.2.2.39.4.59.59.95.94,1.91,1.86,2.91,2.76.24.22.49.43.73.64.72.63,1.44,1.26,2.17,1.88.95.79,1.92,1.57,2.91,2.33v-8.18c.93-.54,1.9-1.02,2.91-1.42v11.76c.95.68,1.92,1.35,2.91,2.01v-14.74c.95-.24,1.92-.42,2.91-.55v17.15c.96.59,1.92,1.18,2.91,1.75.99-.57,1.95-1.16,2.91-1.75v-17.15c.99.12,1.96.3,2.91.55v14.74c.99-.66,1.96-1.33,2.91-2.01v-11.76c1.01.41,1.98.88,2.91,1.42v8.18c.99-.76,1.96-1.54,2.91-2.33.74-.62,1.46-1.24,2.17-1.88.24-.22.49-.43.73-.64.99-.9,1.96-1.82,2.91-2.76.2-.2.39-.4.59-.59-.19-.2-.39-.4-.59-.6-.91-.9-1.88-1.74-2.91-2.51Z"/>
        <path class="cls-4" d="M46.78,44.09l8.89,3.24,1.45.53c.19.23.37.47.53.74,1.02,1.7,1.06,3.71.3,5.39-.47,1.04-1.25,1.95-2.31,2.59-1.45.6-3.19.32-4.37-.86l-2.79-2.79-1.64-1.64-4-4c-1.62-1.62-4.19-1.7-5.9-.24-.09.08-.18.16-.27.24-1.7,1.7-1.7,4.47,0,6.17,0,0,0,0,0,0,.08-.09.16-.18.24-.27,1.7-1.7,4.47-1.7,6.17,0h0s7.46,7.46,7.46,7.46c3.12,3.12,8.19,3.12,11.32,0,3-3,3.11-7.78.36-10.92l3.06,1.11c.26.7.56,1.38.9,2.03,1.13,2.16,2.7,4.06,4.59,5.57,1.42-.96,3.06-1.62,4.84-1.88.55-.08,1.12-.12,1.69-.12.57,0,1.14.04,1.69.12,1.77.26,3.42.91,4.84,1.88,1.89-1.51,3.46-3.41,4.59-5.57.34-.65.65-1.33.9-2.03l3.06-1.11c-2.75,3.14-2.64,7.92.36,10.92,3.12,3.12,8.19,3.12,11.32,0l7.46-7.46s0,0,0,0c1.7-1.7,4.47-1.7,6.17,0,.09.09.17.18.24.27,0,0,0,0,0,0,1.7-1.7,1.7-4.47,0-6.17-.09-.09-.18-.17-.27-.24-1.71-1.45-4.28-1.37-5.9.24l-4,4-1.64,1.64-2.79,2.79c-1.18,1.18-2.91,1.47-4.37.86-1.05-.63-1.83-1.54-2.31-2.59-.76-1.68-.72-3.69.3-5.39.16-.26.34-.51.53-.73l1.46-.53,8.89-3.24c.11-2.59-.36-5.15-1.35-7.51-.82-1.95-1.99-3.76-3.48-5.31l-3.9,8-.78.28-6.47,2.36-1.61.59-4.42,1.61c-.44,2.26-1.52,4.28-3.06,5.87-.72-.22-1.45-.39-2.2-.53-1.06-.19-2.14-.29-3.25-.29-1.11,0-2.2.1-3.25.29-.75.13-1.48.31-2.2.53-1.54-1.59-2.63-3.61-3.06-5.87l-4.42-1.61-1.61-.59-6.47-2.36-.78-.28-3.9-8c-1.49,1.56-2.66,3.36-3.48,5.31-.99,2.36-1.46,4.92-1.35,7.51Z"/>
        <path class="cls-4" d="M111.91,42.61l7.72-2.81c-.48-6.37,2.66-12.75,8.59-16.11-7.59-3.41-16.8-2.23-23.33,3.73,0,0,0,0,0,0,4.33,3.94,6.82,9.45,7.02,15.18Z"/>
        <path class="cls-4" d="M34.99,39.8l7.72,2.81c.2-5.73,2.69-11.24,7.02-15.18,0,0,0,0,0,0-6.53-5.97-15.75-7.14-23.33-3.73,5.93,3.36,9.07,9.74,8.59,16.11Z"/>
        <path class="cls-4" d="M71.49,27.87V7.67c-.98.13-1.95.28-2.91.48-.98.2-1.95.44-2.91.71v19.72c.96-.16,1.93-.29,2.91-.41.96-.12,1.93-.21,2.91-.29Z"/>
        <path class="cls-4" d="M77.31,27.64c.98,0,1.94.02,2.91.06V7.38c-.96-.06-1.93-.11-2.91-.11-.98,0-1.95.04-2.91.11v20.32c.97-.04,1.93-.06,2.91-.06Z"/>
        <path class="cls-4" d="M88.95,28.57V8.86c-.96-.26-1.93-.51-2.91-.71-.96-.19-1.93-.35-2.91-.48v20.2c.98.08,1.95.18,2.91.29.98.12,1.95.25,2.91.41Z"/>
        <path class="cls-4" d="M96.22,30.13l1.45-4,2.91-7.99,1.22-3.34c-.4-.27-.81-.53-1.22-.79-.95-.6-1.92-1.16-2.91-1.69-.48-.25-.96-.51-1.45-.74-.48-.23-.97-.44-1.45-.66-.95-.42-1.92-.8-2.91-1.15v19.33c.98.2,1.95.42,2.91.66.98.24,1.45.37,1.45.37Z"/>
        <path class="cls-4" d="M59.85,32.67c-.16.04-.32.08-.48.12l.48,1.33,1.22,3.35c.56-.13,1.12-.25,1.69-.37.96-.2,1.93-.37,2.91-.53.96-.16,1.93-.29,2.91-.41.96-.12,1.93-.21,2.91-.29.96-.08,1.93-.13,2.91-.17.97-.04,1.93-.06,2.91-.06.98,0,1.94.02,2.91.06.97.04,1.95.09,2.91.17.98.08,1.95.18,2.91.29.98.12,1.95.25,2.91.41.98.16,1.95.33,2.91.53.57.12,1.13.24,1.69.37l1.22-3.35.48-1.33c-.16-.04-.32-.08-.48-.12-.96-.24-1.93-.46-2.91-.66-.96-.2-1.93-.37-2.91-.53-.96-.15-1.93-.29-2.91-.41-.96-.12-1.93-.21-2.91-.29-.96-.08-1.93-.13-2.91-.17-.97-.04-1.93-.06-2.91-.06-.98,0-1.94.02-2.91.06-.97.04-1.95.09-2.91.17-.98.08-1.95.18-2.91.29-.98.12-1.95.25-2.91.41-.98.16-1.95.33-2.91.53-.98.2-1.95.42-2.91.66Z"/>
        <path class="cls-4" d="M55.49,22.13l1.45,4,1.45,4h0s0,0,0,0c.48-.13.97-.25,1.45-.37.96-.24,1.93-.46,2.91-.66V9.77c-.99.35-1.96.73-2.91,1.15-.49.21-.98.43-1.45.66-.49.24-.97.49-1.45.74-.49.26-.97.53-1.45.81-.49.28-.98.58-1.45.88-.41.26-.82.51-1.22.79l1.22,3.34,1.45,4Z"/>
        <path class="cls-4" d="M114.71,67.42c-.19-.19-.4-.36-.6-.53-2.29-1.79-5.49-1.84-7.83-.16-.29.21-.57.43-.82.69-.11.11-.21.23-.32.35-7.43,6.52-17.16,10.49-27.82,10.49-10.66,0-20.39-3.96-27.82-10.49-.1-.12-.2-.24-.32-.35-.26-.26-.54-.48-.82-.69-2.34-1.68-5.54-1.63-7.83.16-.21.16-.41.34-.6.53-1,1-1.6,2.24-1.82,3.54-.26,1.54.04,3.16.89,4.53.26.42.57.82.93,1.19.07.07.15.14.23.21,5.41,6.74,8.99,15.01,9.98,24.06,0,.18.02.37.06.55.08.41.24.81.48,1.17.12.18.26.36.42.52.79.79,1.89,1.09,2.92.9.31-.06.61-.16.9-.31.03-.02.06-.04.09-.05,6.63-3.63,14.24-5.7,22.33-5.7,8.09,0,15.7,2.07,22.33,5.7.03.02.06.04.09.05.29.15.59.25.9.31,1.02.19,2.12-.11,2.92-.9.16-.16.3-.33.42-.52.24-.36.4-.76.48-1.17.04-.18.05-.37.06-.55.98-9.05,4.56-17.33,9.98-24.06.08-.07.16-.13.23-.21.37-.37.67-.77.93-1.19.85-1.37,1.15-2.99.89-4.53-.22-1.3-.82-2.54-1.82-3.54ZM108.95,79.41c-3.74,5.35-6.38,11.52-7.6,18.19-.06.34-.11.68-.17,1.01-.3-3.93-1.9-7.49-4.37-10.26.04.47.06.95.06,1.43,0,3.18-.85,6.15-2.33,8.72-5.42-1.8-11.21-2.78-17.24-2.78-6.02,0-11.82.98-17.23,2.78-1.48-2.57-2.33-5.54-2.33-8.72,0-.48.02-.96.06-1.43-2.47,2.77-4.07,6.33-4.37,10.26-.05-.34-.1-.68-.17-1.01-1.22-6.67-3.86-12.84-7.6-18.19-.06-.08-.12-.17-.18-.25-.12-.19-.22-.39-.3-.59-.52-1.31-.25-2.85.81-3.91,1.16-1.16,2.91-1.37,4.29-.63.04,1.09.18,2.19.43,3.29.65,2.83,1.95,5.34,3.71,7.41-.16-2.7.31-5.43,1.41-7.95,6.59,2.83,13.85,4.4,21.48,4.4,7.63,0,14.88-1.57,21.48-4.4,1.09,2.52,1.56,5.25,1.41,7.95,1.76-2.07,3.06-4.58,3.71-7.41.25-1.1.39-2.2.43-3.29,1.38-.74,3.12-.53,4.29.63,1.06,1.06,1.33,2.6.81,3.91-.08.2-.18.4-.3.59-.05.09-.11.17-.18.25Z"/>
        <path class="cls-4" d="M60.3,93.7c.23.78.52,1.54.86,2.27,5.11-1.58,10.53-2.44,16.15-2.44,5.63,0,11.05.86,16.15,2.44.34-.73.62-1.49.86-2.27-5.36-1.76-11.07-2.72-17.01-2.72-5.94,0-11.66.96-17.01,2.72Z"/>
        <path class="cls-4" d="M126.39,46.76c-.18-.02-.34.1-.38.27l-.04.1c-2.54,6.2-7.7,11.19-14.35,13.34l-.12.04c-.15.04-.26.18-.26.35,0,.19.14.34.33.36l.12.02c4.93.74,8.78,4.77,9.24,9.79v.04c0,.2.17.36.37.36.14,0,.25-.08.31-.19l.04-.13c2.29-7.34,3.98-15.26,5.07-23.8,0-.05.02-.17.02-.17,0-.19-.13-.36-.33-.38Z"/>
        <path class="cls-4" d="M43.06,61.22c.18-.02.33-.17.33-.36,0-.17-.11-.31-.26-.35l-.12-.04c-6.66-2.15-11.82-7.14-14.35-13.34l-.04-.1c-.05-.17-.2-.28-.38-.27-.2.02-.34.19-.33.38,0,0,.02.13.02.17,1.09,8.54,2.78,16.46,5.07,23.8l.04.13c.06.11.18.19.31.19.2,0,.36-.16.36-.36v-.04c.46-5.02,4.31-9.05,9.24-9.79l.12-.02Z"/>
      </g>
    </g>
  </g>
</svg>