<?xml version="1.0" encoding="UTF-8"?>
<svg id="_レイヤー_2" data-name="レイヤー 2" xmlns="http://www.w3.org/2000/svg" xmlns:xlink="http://www.w3.org/1999/xlink" viewBox="0 0 426.45 438.46">
  <defs>
    <style>
      .cls-1 {
        fill: none;
      }

      .cls-2 {
        fill: #221815;
      }

      .cls-3 {
        fill: #ffe100;
      }

      .cls-4 {
        fill: #c1ab04;
      }

      .cls-5 {
        fill: #228e41;
      }

      .cls-6 {
        fill: #005250;
      }

      .cls-7 {
        fill: #fff;
      }

      .cls-8 {
        clip-path: url(#clippath);
      }
    </style>
    <clipPath id="clippath">
      <path class="cls-1" d="M390.94,213.48c.07-12.49-5.34-22.53-15.6-29.03-.69-.44-1.39-.87-2.1-1.27-.77-.43-1.55-.84-2.34-1.22-11.64-5.67-23.69-4.48-34.15-2.53-5.83,1.33-9.45,2.5-11.74,3.46-1.46-1.46-3.03-2.84-4.74-4.07-.97-.67-6.37-4.22-14.15-5.76-.48-2.23-.98-3.97-1.26-4.88-.01-.05-.23-.79-.25-.84-1.29-3.88-4.26-11.63-9.68-19.89-6.8-10.34-15.02-17.72-24.49-21.96-15.15-6.65-29.01-3.93-42.64,8.55-6.19,6.4-11.53,14.18-15.87,23.1-.54,1.12-4.52,10.56-4.96,11.86-1.56,4.27-6.56,19.27-5.14,33.02.89,10.47,5.87,20.98,13,27.42.12.11.54.44.67.53,7.94,6.03,16.67,9.07,25.99,9.07,1.13,0,2.27-.05,3.42-.13,12.05-.93,21.23-4.61,21.51-4.72,1.18-.45,2.22-.93,3.33-1.4,3.32,4.59,7.6,8.48,12.65,11.05,6.29,3.17,11.23,4.29,15.81,4.29.67,0,1.31-.14,1.97-.18.25.54.51,1.09.92,1.73,9.83,18.52,24.19,24.87,33.25,24.47.58.03,1.17.05,1.76.05,15.78,0,33.72-11.18,44.46-28.18l.53-.88c3.53-5.77,8.87-14.5,9.85-31.66Z"/>
    </clipPath>
  </defs>
  <g id="_レイヤー_1-2" data-name="レイヤー 1">
    <g>
      <path class="cls-6" d="M426.45,220.95c0,117.76-84.41,196.43-213.22,196.43S0,338.71,0,220.95,95.46,7.72,213.22,7.72s213.22,95.46,213.22,213.22Z"/>
      <g>
        <g>
          <g>
            <path class="cls-2" d="M419.51,289.5c-1.3-.72-2.84-1.24-3.8-1.44-6.81-1.4-13.64-2.18-20.31-2.33-3.7-.08-7.16,0-10.5.16-1.79-20.11-8.09-39.31-19.27-58.28,1.62-9.72,2.12-22.36,2.53-32.66l.21-5.17c.84-18.75-5.88-43.26-14.38-52.46-2.12-2.29-5.31-4.04-8.12-4.45-21.54-3.21-49.87,5.35-81.73,24.67l-4-.59c-26.18-3.9-58.77-8.75-103.06,1.53-1.4.32-2.95.78-4.54,1.26-2.37.71-6.76,1.98-7.92,1.68-8.49-4.64-30.28-15.71-49.14-18.49-17.53-2.61-29.09.83-34.52,10.31-15.37,28.86-7.65,69.07-4.44,79.47-16,31.01-15.7,63.87-15.6,67.47,0,.84.03,1.72.04,2.58-.84.06-1.6.09-2.48.16-8.93.71-17.8,1.58-28.07,4.44-3.34.92-6.41,3.14-5.81,5.59.47,1.92,2.84,2.35,4.83,2.35,1.54,0,2.85-.25,2.89-.26,10.63-2.16,16.02-2.75,23.47-3.55l3.14-.34c.81-.09,1.61-.13,2.42-.2.81,9.68,2.85,19.99,6.48,30.18-4.44,1.67-9.56,3.89-15.71,7.07-.04.02-3.98,2.08-4.74,4.62-.23.78-.15,1.56.23,2.24.62,1.11,1.92,1.46,3.31,1.46,2.3,0,4.82-.95,4.86-.96,1.84-.81,3.57-1.58,5.21-2.31,3.72-1.66,6.96-3.05,10-4.23,3.93,8.9,9.09,17.53,15.73,25.34-6.84,3.96-15.09,9.33-24.43,16.6-1.94,1.52-3.19,3.46-3.41,5.32-.12,1.04.11,1.99.65,2.67.41.51,1.18.73,2.1.73,1.62,0,3.71-.68,5.14-1.7,10.26-7.27,19.16-12.89,26.15-17.04,7.51,7.31,16.5,13.67,27.22,18.49,35.27,15.84,67.77,19.4,108.95,20l4.04-.06,4.36.06c47.38-.69,84.81-7.46,111.26-20.11,15.35-7.34,27.56-17.24,36.7-29.54,7.64,2.61,16.9,6.62,25.83,12.67,1.14.79,3.45,2.16,5.5,2.16.92,0,1.79-.27,2.47-1.01.29-.3.61-.85.53-1.73-.17-1.86-2.22-4.46-3.56-5.43-9.12-6.66-18.29-10.95-26.01-13.74,5.25-8.67,9.17-18.37,11.72-29.12,5.64.9,12.22,2.35,19.44,4.77.04,0,2.17.71,4.26.71,1.57,0,3.11-.39,3.7-1.78.27-.63.26-1.33-.03-2.02-1.04-2.48-5.39-4.32-5.43-4.33-7.12-2.82-14.12-4.47-20.31-5.49,1.35-8.14,2-16.8,1.93-26,.02-1.57-.07-3.12-.1-4.67,2.93-.16,5.97-.26,9.16-.22,4.96.05,10.48.42,15.35.74,1.52.1,2.99.19,4.4.28,3.19.18,7.1-.41,7.57-2.73.17-.81-.11-2.03-2.36-3.29Z"/>
            <path class="cls-7" d="M354.53,227.64c1.76-9.13,2.29-22.42,2.71-33.11l.22-5.22c.76-16.97-5.67-38.25-11.49-44.55-.51-.56-1.4-.99-1.72-1.06-18.78-2.76-45.27,5.51-74.57,23.31-2.08,1.26-3.22,1.95-5.23,1.65l-5.91-.87c-25.25-3.76-56.69-8.45-98.98,1.36-1.2.27-2.52.67-3.88,1.08-5.38,1.6-11.46,3.43-16.3.79-7.98-4.35-28.38-14.75-45.5-17.28-12.59-1.85-20.45-.25-23.34,4.78-10.47,19.65-8.42,46.45-5.73,61.45.72-.85,1.42-1.62,2.07-2.27,2.63-2.63,5.32-3.6,7.16-2.33,1.91,1.32,1.15,4.66-.08,7.33-1.22,2.65-3.69,7.76-5.63,11.18,0,0,0,.01,0,.02-16.85,29.6-16.54,62.53-16.45,66.2,0,.74.03,1.51.04,2.26,9.31.02,14.99,1,17.89,1.74l.21.05c.06.01,7.62,1.41,7.18,5.04-.39,3.23-4.98,2.99-7.2,2.87l-.82-.06c-2.44-.37-8.96-1.24-16.86-1.4.79,8.79,2.71,18.09,6.01,27.25,4.52-1.04,7.71-1.28,9.83-1.4l.29-.02c2.79-.15,9.39-.25,9.73,3.07.3,2.87-4.87,4.24-7.11,4.7-1.04.21-2.16.36-3.41.53-1.75.24-3.74.52-6.09,1.02,3.77,8.24,8.76,16.15,15.14,23.24,6.63-3.22,10.45-4.4,10.53-4.42.06-.03,6.57-1.68,7.84,1.28,1.09,2.56-1.67,3.92-4.33,5.24-.85.42-1.74.86-2.55,1.35,0,0-.09.05-.26.13-1.03.51-2.75,1.4-5.02,2.62,6.17,5.56,13.32,10.43,21.71,14.2,33.54,15.07,64.84,18.45,104.46,19.04l4.04-.06,4.36.06c44.98-.67,81.88-7.25,106.54-19.04,12.36-5.91,22.38-13.54,30.17-22.9-3.71-.86-5.98-1.18-6.04-1.19-1.42-.14-5.85-1.17-7.34-3.19-.44-.61-.61-1.28-.47-1.94.75-3.62,7.32-2.9,10.09-2.43.35.03,3.75.38,9.03,1.65,5.2-7.94,9.03-16.98,11.53-27.11-2.33-.14-4.2-.17-5.48-.17-2.44.01-5.28-.05-5.28-.05-.73-.07-6.59-.76-6.82-3.68-.03-.39.05-1,.6-1.64,1.31-1.53,4.62-2.39,6.03-2.5l.31-.03c.84-.08,3.07-.3,5.31-.32h.61c1.62,0,3.81.05,6.42.22,1.29-7.68,1.93-15.9,1.86-24.74.01-1.24-.06-2.46-.09-3.69-6.85.85-12.47,1.97-16.3,2.74-1.96.39-3.38.68-4.24.78-1.38.2-2.56.3-3.55.3-2.31,0-3.58-.56-4-1.72-.29-.84-.23-1.74.18-2.59.74-1.52,2.53-2.81,5.19-3.72,2.09-.71,10.2-3.2,22.24-4.67-1.72-19.09-7.86-37.28-18.78-55.31-.7-1.16-.95-2.54-.69-3.87Z"/>
          </g>
          <g>
            <path class="cls-2" d="M115.31,309.32c-3.5,7.1-3.52,18.45,1.21,24.48,2.92,3.45,7.8,5.41,14.09,4.33,5.43-.94,8.52-5.9,9.55-9.85,2.23-8.84-.14-19.68-5.23-23.79-5.36-3.91-15.39-3.82-19.61,4.83Z"/>
            <path class="cls-2" d="M285.41,310.35c-3.5,7.1-3.52,18.45,1.21,24.48,2.92,3.45,7.8,5.41,14.09,4.33,5.43-.94,8.52-5.9,9.55-9.85,2.23-8.84-.15-19.68-5.23-23.79-5.36-3.91-15.39-3.82-19.61,4.83Z"/>
            <g>
              <path class="cls-2" d="M230.45,341.07c-1.17-4.16-4.32-7.43-8.44-8.76-7.86-2.55-15.82-1.48-20.77,2.79-5.16,4.56-5.41,12.65-2.19,16.84,2.99,3.88,7.72,5.9,14.48,6.2.31.01.63.02.94.02,5.41,0,10.44-1.98,13.31-5.27v-.02c2.83-3.28,3.82-7.69,2.67-11.81Z"/>
              <path class="cls-3" d="M219.91,338.81c-2.1-.68-4.24-1.01-6.25-1.01-3.19,0-6.05.84-7.91,2.45-2.45,2.17-2.29,6.18-1.26,7.52,1.68,2.18,4.74,3.34,9.35,3.54,4.27.17,7.46-1.38,8.79-2.9,1.34-1.56,1.79-3.55,1.24-5.49-.54-1.94-2.02-3.48-3.96-4.11Z"/>
            </g>
          </g>
        </g>
        <g>
          <g>
            <path class="cls-2" d="M174.31,399.14c-1.48-4.63-4.48-8.3-7.74-11.99-11.57-11.1-31.76-15.56-47.81-10.64-11.58,3.03-24.94,13.2-26.89,28.3-1.79,11.76,2.42,22.06,11.65,27.76,9.31,4.78,19.42,4.67,29.7-.17.87-.33,1.3-.24,3.57.72,1.42.61,3.17,1.34,5.28,1.7,3.57,1.03,6.76,1.46,9.57,1.46,7.46,0,12.38-3.02,15.44-6.04,7.97-7.84,10.94-20.61,7.23-31.1Z"/>
            <path class="cls-7" d="M163.98,402.73c-.03-.07-.05-.13-.07-.2-.83-2.65-3.05-5.31-5.25-7.82-8.41-8.05-24.41-11.47-36.92-7.67-8.41,2.21-17.79,9.67-19.04,19.29-.55,3.62-1.01,12.25,6.19,16.72,5.93,3.02,12.4,2.87,20-.7,1.9-.75,3.63-1.02,5.19-1.02,2.92,0,5.24.98,6.98,1.72,1.12.47,2.08.88,2.97,1.01.27.04.53.09.78.17,6.51,1.94,11.44,1.34,14.59-1.78,4.91-4.82,6.87-13.3,4.58-19.71Z"/>
          </g>
          <g>
            <path class="cls-2" d="M338.19,407.1c-1.98-15.21-15.33-25.39-26.69-28.34-16.27-4.97-36.47-.53-48.34,10.91-2.82,3.2-5.95,7-7.44,11.65-3.71,10.49-.74,23.27,7.22,31.1,3.07,3.03,8,6.05,15.45,6.05,2.81,0,5.99-.43,9.57-1.46,2.11-.36,3.85-1.1,5.28-1.7,2.29-.98,2.71-1.06,3.23-.88,10.61,5,20.73,5.1,30.44.1,8.83-5.48,13.04-15.78,11.27-27.43Z"/>
            <path class="cls-7" d="M327.35,408.63c-1.27-9.74-10.64-17.21-18.84-19.34-3.53-1.08-7.32-1.6-11.13-1.6-9.92,0-20.02,3.48-26.32,9.53-1.88,2.17-4.1,4.83-4.94,7.48-.02.07-.04.13-.07.2-2.29,6.41-.33,14.89,4.56,19.7,3.17,3.11,8.06,3.72,14.6,1.78.25-.07.51-.13.78-.17.89-.13,1.85-.53,2.97-1.01,2.67-1.14,6.69-2.83,11.82-.85,7.93,3.73,14.41,3.87,20.73.63,6.81-4.24,6.35-12.88,5.82-16.38Z"/>
          </g>
        </g>
        <g>
          <g class="cls-8">
            <rect class="cls-6" x="235.92" y="107.29" width="112.32" height="190.62" transform="translate(-14.98 381.69) rotate(-65)"/>
            <g>
              <path class="cls-2" d="M200.47,241.27l2.09,23.85,15.19,7.08c23.2-33.07,46.35-66.08,55.43-79.01-7.63-3.56-11.45-5.34-19.08-8.9-8.79,9.34-31.27,33.22-53.63,56.97Z"/>
              <polygon class="cls-2" points="195.83 188.19 198.37 217.25 241.54 178.44 222.47 169.54 195.83 188.19"/>
              <path class="cls-2" d="M327.66,300.58l-19.61,13.73-15.19-7.08c10.42-39.03,20.82-77.98,24.9-93.25,7.63,3.56,11.45,5.34,19.08,8.9-1.5,12.73-5.35,45.31-9.17,77.7Z"/>
              <polygon class="cls-2" points="371.3 270.02 347.41 286.75 349.39 228.73 368.47 237.62 371.3 270.02"/>
              <path class="cls-2" d="M285.74,199.05c-15.28,27.16-30.85,54.84-46.74,83.06l32.61,15.21c11.44-30.39,22.63-60.12,33.59-89.19l-19.46-9.07"/>
            </g>
          </g>
          <path class="cls-2" d="M390.94,213.48c.07-12.49-5.34-22.53-15.6-29.03-.69-.44-1.39-.87-2.1-1.27-.77-.43-1.55-.84-2.34-1.22-11.64-5.67-23.69-4.48-34.15-2.53-5.83,1.33-9.45,2.5-11.74,3.46-1.46-1.46-3.03-2.84-4.74-4.07-.97-.67-6.37-4.22-14.15-5.76-.48-2.23-.98-3.97-1.26-4.88-.01-.05-.23-.79-.25-.84-1.29-3.88-4.26-11.63-9.68-19.89-6.8-10.34-15.02-17.72-24.49-21.96-15.15-6.65-29.01-3.93-42.64,8.55-6.19,6.4-11.53,14.18-15.87,23.1-.54,1.12-4.52,10.56-4.96,11.86-1.56,4.27-6.56,19.27-5.14,33.02.89,10.47,5.87,20.98,13,27.42.12.11.54.44.67.53,7.94,6.03,16.67,9.07,25.99,9.07,1.13,0,2.27-.05,3.42-.13,12.05-.93,21.23-4.61,21.51-4.72,1.18-.45,2.22-.93,3.33-1.4,3.32,4.59,7.6,8.48,12.65,11.05,6.29,3.17,11.23,4.29,15.81,4.29.67,0,1.31-.14,1.97-.18.25.54.51,1.09.92,1.73,9.83,18.52,24.19,24.87,33.25,24.47.58.03,1.17.05,1.76.05,15.78,0,33.72-11.18,44.46-28.18l.53-.88c3.53-5.77,8.87-14.5,9.85-31.66ZM262.41,224c-.08.03-8.08,3.2-18.37,4-11.87.92-19.45-4.85-21.88-6.66-5-4.53-8.79-12.66-9.45-20.34-1.18-11.51,3.16-24.52,4.61-28.48.39-1.06,3.95-9.57,4.44-10.59,3.84-7.89,8.52-14.72,13.66-20.06,10.24-9.37,19.41-11.29,30.57-6.38,7.49,3.36,14.15,9.4,19.77,17.96,4.92,7.49,7.54,14.61,8.32,16.91l.28.99c.1.33.23.76.37,1.26-3.12.38-6.39,1.21-9.76,2.67-.86.37-1.62.86-2.44,1.29-1.82-1.99-4.05-3.77-6.3-5.03-6.73-3.79-14.11-3.84-20.25-.13-6.59,4-10.46,11.71-9.86,19.44.23,6.03,2.69,11.16,7.12,14.82,2.87,2.37,6.27,3.78,9.4,4.6,0,.53-.07,1.05-.06,1.58.03,3.82.78,7.6,2.04,11.21-.76.31-1.43.63-2.24.94ZM264.12,199.31c-1.43-.51-2.96-1.24-4.22-2.39-1.79-1.63-2.7-3.75-2.82-6.7-.29-3.87,1.51-7.58,4.61-9.47,2.17-1.32,4.47-1.53,7.04-.66,2.02.68,3.67,1.86,4.9,2.98-4.48,4.46-7.75,9.99-9.5,16.23ZM306.89,235.7c-7.63,2.01-11.53,2.43-19.54-1.62-8.18-4.17-13.72-13.13-13.78-22.46-.43-11.82,5.62-21.89,15.78-26.29,3.44-1.49,6.75-2.04,9.77-2.05,8.05,0,14.03,3.93,14.85,4.49,9.03,6.49,13.34,17.88,10.69,28.51-2.49,11.49-10.8,17.57-17.75,19.43ZM371.63,239.64l-.6,1.01c-8.69,13.74-23.71,23.26-36.56,22.57-6.52.09-15.93-5.16-23.02-17.53,4.14-1.36,8.46-3.71,12.35-7.14,1.96,1.41,4.3,2.61,7,3.2,1.02.22,2.2.38,3.49.38,3.21,0,7.18-.98,11.47-4.38,4.81-4.81,6.43-10.35,4.84-17.49-2.82-8.54-9.53-11.12-14.31-12.03-.27-5.63-1.81-11.14-4.48-16.14,2.05-.65,4.64-1.36,7.15-1.93,8.49-1.57,18.35-2.62,27.19,1.67.59.28,1.14.57,1.7.89.53.3,1.04.61,1.59.96,7.15,4.53,10.61,10.99,10.57,19.46-.82,14.14-4.94,20.88-8.38,26.5ZM335.17,219.21c2.53.61,4.13,1.69,4.89,3.93.65,2.96.13,4.69-1.56,6.43-1.71,1.35-3.44,1.83-5.18,1.51-.94-.17-1.76-.57-2.49-1,1.88-3.16,3.39-6.77,4.33-10.89Z"/>
          <path class="cls-1" d="M390.94,213.48c.07-12.49-5.34-22.53-15.6-29.03-.69-.44-1.39-.87-2.1-1.27-.77-.43-1.55-.84-2.34-1.22-11.64-5.67-23.69-4.48-34.15-2.53-5.83,1.33-9.45,2.5-11.74,3.46-1.46-1.46-3.03-2.84-4.74-4.07-.97-.67-6.37-4.22-14.15-5.76-.48-2.23-.98-3.97-1.26-4.88-.01-.05-.23-.79-.25-.84-1.29-3.88-4.26-11.63-9.68-19.89-6.8-10.34-15.02-17.72-24.49-21.96-15.15-6.65-29.01-3.93-42.64,8.55-6.19,6.4-11.53,14.18-15.87,23.1-.54,1.12-4.52,10.56-4.96,11.86-1.56,4.27-6.56,19.27-5.14,33.02.89,10.47,5.87,20.98,13,27.42.12.11.54.44.67.53,7.94,6.03,16.67,9.07,25.99,9.07,1.13,0,2.27-.05,3.42-.13,12.05-.93,21.23-4.61,21.51-4.72,1.18-.45,2.22-.93,3.33-1.4,3.32,4.59,7.6,8.48,12.65,11.05,6.29,3.17,11.23,4.29,15.81,4.29.67,0,1.31-.14,1.97-.18.25.54.51,1.09.92,1.73,9.83,18.52,24.19,24.87,33.25,24.47.58.03,1.17.05,1.76.05,15.78,0,33.72-11.18,44.46-28.18l.53-.88c3.53-5.77,8.87-14.5,9.85-31.66Z"/>
          <g>
            <path class="cls-7" d="M265.77,181.94h0c.68,0,1.43.13,2.2.39.73.25,1.45.59,2.16,1.03-3.25,3.71-5.78,8.03-7.44,12.7-.45-.27-.85-.57-1.2-.88-1.33-1.21-1.96-2.76-2.05-5.13-.23-2.99,1.14-5.85,3.48-7.27.93-.57,1.86-.84,2.86-.84M265.76,179.58c-1.43,0-2.78.39-4.08,1.18-3.1,1.88-4.9,5.6-4.61,9.47.11,2.95,1.03,5.07,2.82,6.7,1.26,1.15,2.79,1.88,4.22,2.39,1.75-6.24,5.02-11.77,9.5-16.23-1.23-1.12-2.88-2.3-4.9-2.98-1.02-.35-2.01-.52-2.96-.52h0Z"/>
            <path class="cls-7" d="M351.67,191.14h0c5.17,0,9.56.92,13.47,2.81.54.25,1.04.53,1.54.81.49.28.97.57,1.5.91,6.41,4.05,9.5,9.76,9.47,17.33-.78,13.56-4.64,19.85-8.05,25.43l-.57.96c-8.01,12.67-21.68,21.51-33.24,21.51-.4,0-.8,0-1.19-.03h-.23s-.06,0-.06,0c-4.92,0-12.73-3.71-19.36-13.97,3.19-1.35,6.25-3.18,9.02-5.4,2.02,1.23,4.15,2.09,6.33,2.56,1.33.29,2.68.43,3.99.43,4.49,0,8.85-1.64,12.94-4.89l.11-.08.1-.1c5.42-5.43,7.22-11.87,5.48-19.67l-.03-.12-.04-.11c-2.25-6.81-7.18-11.35-14.33-13.21-.41-4.37-1.56-8.71-3.36-12.76,1.42-.4,2.89-.77,4.24-1.08,3.35-.62,7.77-1.33,12.28-1.33M351.67,188.78c-4.37,0-8.69.62-12.71,1.37-2.51.57-5.1,1.28-7.15,1.93,2.67,5,4.21,10.52,4.48,16.14,4.78.91,11.5,3.5,14.31,12.03,1.59,7.14-.04,12.68-4.84,17.49-4.29,3.4-8.26,4.38-11.47,4.38-1.3,0-2.47-.16-3.49-.38-2.69-.59-5.04-1.79-7-3.2-3.89,3.43-8.21,5.78-12.35,7.14,7.03,12.27,16.34,17.53,22.85,17.53.06,0,.11,0,.17,0,.44.02.88.03,1.32.03,12.54,0,26.84-9.34,35.24-22.61l.6-1.01c3.44-5.62,7.56-12.37,8.38-26.5.04-8.48-3.41-14.93-10.57-19.46-.55-.35-1.06-.66-1.59-.96-.55-.31-1.11-.61-1.7-.89-4.66-2.26-9.6-3.04-14.48-3.04h0Z"/>
            <path class="cls-7" d="M254.77,135.24c3.22,0,6.58.79,10.27,2.41,7.08,3.17,13.39,8.92,18.76,17.1,4.59,7,7.14,13.71,7.92,15.96-2.61.52-5.18,1.33-7.67,2.41-.37.16-.72.34-1.07.52-1.7-1.62-3.63-3.07-5.57-4.16-3.7-2.08-7.72-3.18-11.63-3.18s-7.61,1.04-11,3.09c-7.35,4.46-11.66,12.95-11,21.55.25,6.72,3.01,12.44,7.98,16.55,2.36,1.95,5.21,3.47,8.49,4.53.04,3.16.54,6.41,1.5,9.71-.07.03-.15.06-.22.09-.08.03-7.76,3.07-17.66,3.83-.8.06-1.58.09-2.34.09-9.41,0-15.44-4.42-17.85-6.22-4.55-4.17-8-11.67-8.61-18.76-1.13-11.01,3.14-23.77,4.48-27.42.38-1.03,3.92-9.47,4.34-10.37,3.67-7.55,8.25-14.27,13.13-19.35,6.25-5.72,11.89-8.38,17.75-8.38M254.77,132.88c-6.55,0-12.72,2.94-19.34,9-5.14,5.34-9.82,12.17-13.66,20.06-.49,1.02-4.05,9.53-4.44,10.59-1.45,3.96-5.79,16.96-4.61,28.48.65,7.67,4.45,15.81,9.45,20.34,2.25,1.69,8.93,6.76,19.35,6.76.82,0,1.66-.03,2.52-.1,10.28-.8,18.29-3.97,18.37-4,.81-.31,1.48-.63,2.24-.94-1.25-3.61-2.01-7.39-2.04-11.21-.02-.54.05-1.05.06-1.59-3.13-.82-6.53-2.23-9.4-4.6-4.43-3.66-6.89-8.78-7.12-14.82-.6-7.73,3.27-15.45,9.86-19.44,3.03-1.84,6.37-2.75,9.78-2.75s7.07.96,10.47,2.88c2.24,1.26,4.47,3.04,6.3,5.04.82-.43,1.59-.92,2.44-1.29,3.36-1.46,6.64-2.29,9.76-2.67-.15-.5-.27-.93-.37-1.26l-.28-.99c-.77-2.29-3.4-9.42-8.32-16.91-5.63-8.56-12.28-14.61-19.77-17.96-3.95-1.73-7.65-2.62-11.24-2.62h0Z"/>
            <path class="cls-7" d="M336.77,222.39c.53.39.81.85,1.01,1.4.44,2.13.09,3.01-.87,4.04-.9.68-1.74,1.01-2.57,1.01-.04,0-.09,0-.13,0,1.03-2.05,1.88-4.2,2.55-6.44M335.17,219.21c-.94,4.12-2.45,7.73-4.33,10.89.73.43,1.55.82,2.49,1,.34.06.69.09,1.03.09,1.39,0,2.78-.53,4.15-1.61,1.68-1.74,2.21-3.47,1.56-6.43-.76-2.24-2.36-3.32-4.89-3.94h0Z"/>
            <path class="cls-7" d="M299.11,185.64c7.4,0,12.9,3.65,13.47,4.04,8.25,5.93,12.18,16.39,9.76,26.09-2.26,10.45-9.78,15.97-16.05,17.64-3.38.89-5.8,1.41-8.13,1.41-2.91,0-5.73-.83-9.74-2.85-7.41-3.78-12.44-11.97-12.5-20.45-.39-10.83,5.11-20.04,14.36-24.04,2.83-1.23,5.8-1.85,8.83-1.85M299.11,183.28c-3.02,0-6.33.55-9.77,2.05-10.16,4.4-16.21,14.47-15.78,26.29.07,9.33,5.61,18.3,13.78,22.46,4.42,2.23,7.58,3.11,10.81,3.11,2.63,0,5.31-.58,8.74-1.49,6.96-1.86,15.27-7.94,17.75-19.43,2.65-10.62-1.66-22.01-10.69-28.5-.81-.56-6.8-4.49-14.85-4.49h0Z"/>
          </g>
        </g>
      </g>
    </g>
    <g>
      <polygon class="cls-1" points="40 128.31 2.96 64.16 40 0 114.08 0 151.12 64.16 114.08 128.31 40 128.31"/>
      <polygon points="112.86 2.11 41.22 2.11 5.39 64.16 41.22 126.2 112.86 126.2 148.69 64.16 112.86 2.11"/>
      <polygon class="cls-4" points="110.83 5.63 43.25 5.63 9.45 64.16 43.25 122.69 110.83 122.69 144.63 64.16 110.83 5.63"/>
      <polygon class="cls-7" points="109.82 7.38 44.26 7.38 11.48 64.16 44.26 120.93 109.82 120.93 142.6 64.16 109.82 7.38"/>
      <polygon points="108.8 9.14 45.28 9.14 13.51 64.16 45.28 119.17 108.8 119.17 140.57 64.16 108.8 9.14"/>
      <g>
        <path class="cls-5" d="M38.74,107.86l6.53,11.32h9.15c3.85-21.71,7.69-43.38,9.19-51.87h-11.49c-2.19,6.64-7.81,23.65-13.39,40.55Z"/>
        <polygon class="cls-5" points="24.2 82.67 32.17 96.46 44.57 67.3 33.08 67.3 24.2 82.67"/>
        <path class="cls-5" d="M115.34,107.86l-6.53,11.32h-9.15c-3.85-21.71-7.69-43.38-9.19-51.87,4.6,0,6.89,0,11.49,0,2.19,6.64,7.81,23.65,13.39,40.55Z"/>
        <polygon class="cls-5" points="129.87 82.68 121.91 96.46 109.51 67.31 121 67.31 129.87 82.68"/>
        <path class="cls-5" d="M71.18,67.3c-1.29,16.96-2.61,34.24-3.96,51.87h19.64c-1.35-17.67-2.67-34.96-3.96-51.87h-11.72"/>
      </g>
      <g>
        <path d="M112.85,80.21h-.14v.02c-.4.06-.51.07-.54.08h0s-5.37.67-10.09,1.26c-3.18.4-5.92.74-5.95.74-1.26.18-1.26.18-1.27.18h-.08c-1.78.25-4.3.59-6.53,1.75,1.05-1.94,1.65-4.18,1.65-6.57,0-4.43-2.06-8.35-5.25-10.82-.03-.04-.06-.07-.09-.11-.45-.52-1.01-.87-1.67-1.04-.5-.27-1.02-.51-1.56-.72-.11-.12-.26-.23-.45-.33-.65-.33-4.44-1.17-6.59-.5-.15.07-.83.37-1.48.79-.29.11-.57.22-.84.35-.16-.08-.33-.12-.41-.13l-.19-.03-.24.11c-.47.28-2.03,1.25-2.51,1.77l-.15.17c-.36.4-.56.62-.71,1.12,0,0,0,.02,0,.05-.23.25-.45.5-.65.76-.24.22-.46.44-.46.44-.24.28-.36.58-.43.83-1.3,2.1-2.06,4.59-2.06,7.27,0,2.38.6,4.62,1.65,6.57-2.22-1.17-4.75-1.51-6.53-1.74h-.08s0-.01-1.27-.19c-.02,0-2.77-.35-5.95-.74-4.72-.59-10.07-1.26-10.09-1.26h0s-.14-.02-.53-.08v-.02h-.15v.17s.02,0,.03,0l.58,1.45c.09.2.29.4.52.58.11.16.28.31.47.46h0s.11.23.11.23c0,0,.35.69.64,1.15.07.12.2.24.37.36.02.04.04.07.06.11.13.21.44.44.87.66.11.16.48.7.79,1.1.05.06.11.12.18.17.08.11.16.22.24.33.19.24.67.47,1.09.64.06.07.12.14.18.21,0,0-.01,0-.01,0l.12.14c.41.5.7.82.87.99.22.24.84.48,1.3.63.04.04.09.08.13.13-.04.02-.09.05-.09.05l.11.11c.11.11.51.51.92.89.21.19.68.35,1.25.48.06.05.14.11.22.18l-.16.1.2.16c.22.19.65.54,1,.81.32.25,1.07.4,1.57.48,0,0-.19.14-.19.14l.27.19,1.03.71c.12.08.39.23.8.34-.04.02-.08.04-.08.04l.14.16s.36.4,1.18.73c.27.11.62.19,1.03.23l-.22.22.19.12s.63.34,1.1.58c.14.07.47.2.95.25-.02.02-.14.16-.14.16l1.24.57c.31.14.64.23.99.26-.04.05-.09.13-.09.13l1.32.52s.11.04.11.04c.21.08.45.17.73.2-.02.02-.04.06-.04.06l.23.09s.76.27,1.23.42c0,0,.11.04.11.04.2.07.38.12.54.15,0,0,0,.02,0,.02l1.21.36c.21.06.54.15.94.12-.03.06-.06.12-.06.12l1.18.3c.23.05.58.08.95.05-.02.05-.07.16-.07.16l1.24.26c.26.05.57.05.87,0-.02.04-.05.16-.05.16l.28.05-3.98,3.31.33.16s.14.07.31.15l-.98.72s.51.23.84.38c.17.07.37.17.56.2.14.03.29.02.42-.06l-.19.2s.56.24.92.38c.18.07.34.15.48.16.11.01.21,0,.3-.08l-.12.19s.41.16.71.27c.12.04.27.1.42.12.19.03.38.02.52-.13l-.12.31s.45.16.67.24c.06.02.16.04.25.06.01,0,.03,0,.04,0,.02,0,.04,0,.06,0,.19.03.39.01.49-.09l-.06.28s.34.11.68.22c.05.01.1.03.15.03.24.04.47,0,.57-.1.1.11.33.14.57.1.05,0,.1-.02.15-.03.34-.11.68-.22.68-.22l-.06-.28c.1.11.3.12.49.09.02,0,.04,0,.06,0,.01,0,.03,0,.04,0,.1-.02.19-.04.25-.06.23-.08.67-.24.67-.24l-.12-.31c.14.15.33.16.52.13.15-.02.3-.08.42-.12.29-.11.71-.27.71-.27l-.12-.19c.1.08.2.1.3.08.15,0,.3-.08.48-.16.35-.14.92-.38.92-.38l-.19-.2c.14.08.28.09.42.06.2-.03.39-.13.56-.2.33-.14.84-.38.84-.38l-.98-.72c.17-.08.31-.15.31-.15l.33-.16-3.97-3.3.31-.05s-.04-.11-.05-.16c.3.05.61.05.87,0l1.24-.26s-.04-.11-.07-.16c.37.03.72,0,.95-.05l1.18-.3s-.03-.07-.06-.12c.41.02.74-.07.94-.12l1.21-.36s0-.01,0-.02c.16-.03.34-.08.54-.15,0,0,.11-.04.11-.04.47-.15,1.19-.41,1.23-.42l.23-.09s-.02-.03-.04-.06c.28-.03.52-.11.73-.2,0,0,.11-.04.11-.04l1.32-.52s-.05-.07-.09-.13c.35-.04.68-.13.99-.26l1.24-.57s-.12-.14-.14-.16c.48-.05.81-.18.95-.25.47-.23,1.07-.56,1.1-.58l.19-.12-.22-.22c.41-.04.77-.12,1.03-.23.82-.33,1.18-.72,1.18-.73l.14-.16s-.04-.02-.08-.04c.41-.11.68-.26.8-.34l1.03-.71.27-.19s-.18-.13-.19-.14c.5-.08,1.25-.23,1.57-.48.35-.27.78-.62,1-.81l.2-.16-.16-.1c.08-.07.16-.13.22-.18.57-.12,1.04-.29,1.25-.48.41-.37.81-.77.92-.89l.11-.11s-.04-.02-.09-.05c.05-.04.09-.09.13-.13.47-.15,1.08-.39,1.3-.63.17-.18.45-.49.87-.99l.12-.14s0,0-.01,0c.06-.07.12-.13.18-.21.42-.17.9-.4,1.09-.64.08-.11.16-.22.24-.33.07-.06.13-.11.18-.17.31-.4.69-.94.79-1.1.42-.21.74-.45.87-.66.02-.03.04-.07.06-.11.17-.12.3-.25.37-.36.29-.47.64-1.15.64-1.15l.11-.23h0c.19-.15.36-.3.47-.46.24-.19.43-.39.52-.58l.58-1.45s.03,0,.04,0v-.17Z"/>
        <g>
          <path class="cls-4" d="M71.28,91.49c.7.02,3.42.02,4.01.41.94.61,1.01,1.28,1.22,1.35.16.05.09.03.22.03-.07-.04-.12-.1-.16-.19-.05-.12,0-.19.02-.31.06-.28.16-.5.42-.68.4-.28.8-.12,1.13-.49-.04,0-.29-.06-.34-.05.16-.07.6-.19.72-.32-.1,0-.24.03-.34-.01.11-.07.22-.14.33-.2-.77.12-1.97-.06-2.57.06-.32.07-.46-.18-.98-.19-.13,0-.43.17-.53.32.03-.53.6-.8,1.06-.88.66,0,.77.18,1.49-.02-.05.07-.18.43-.28.51.33.06.87.08,1.71-.22.04-.02.08-.05.12-.07.21-.13.37-.12.21-.38l-.05-.29c.09-.3-.17-.83-.17-.83l-.4.5c.15-.33.16-.94.16-.94l-.66.52c.25-.49.18-1.25-.04-.93-.22.33-.92.76-.92.76l-.04-.6c-.36.42-.77.77-.77.77,0,0-.49.14-1.25,1.19l-.18.16-.55.23c.29.07.19.51.19.51-.66-.13-2.82.27-2.82.27Z"/>
          <path class="cls-4" d="M96.7,82.85l-.4.05-1.26.18c-2.22.3-4.73.64-7.04,2.44-.6.47-1.18,1.01-1.85,1.59l-.05.04c-1.8,1.56-3.76,3.26-5.87,4.17.45.18.96.41,1.47.29-.48.27-1.04.41-1.42.73.22.04.21.15.51.12-.25.47-.87.76-1.43.86-.03.03-.05.07-.08.11-.33.27-1.73,1.42-2.19,2.02-.01,0-.02.01-.03.02-.48-.69-2.22-2.17-2.22-2.17h-.03c-.31-.3-.62-.53-.91-.6-.5-.13-.71-.39-.71-.39,0,0-2.46-.38-2.99-.7,0,0,.17-.12,0-.06-.15.05.97-.4,2.56-.8-1.68-.96-3.26-2.32-4.73-3.59l-.05-.04c-.67-.58-1.3-1.12-1.9-1.59-2.31-1.8-4.82-2.14-7.04-2.44l-1.26-.18-.4-.05c-7.78-.95-13.02-1.6-14.81-1.84.1.26.22.56.22.56.27.58,1.19,1.02,2.34,1.12.06,0,3.58.3,6.98.59,3.6.3,7.32.62,7.4.63l1.24.1v.17s-2.85.12-2.85.12l-12.88-.79c-.3-.03-.58-.07-.84-.14.09.17.21.37.31.54.17.28,1.57.89,2.74.92l13.7.4v.17s-2.93.36-2.93.36l-10.8-.11c-.34,0-.69-.05-1.07-.13.11.16.27.37.42.57.3.38,1.76.78,3.38.73l11.35-.28.02.17-3.06.53-8.27.38c-.45.01-1.09,0-1.61-.06.19.22.39.44.39.44.34.36,1.32.7,2.65.58l10.42-.73.02.17-3.37.74-6.66.6c-.15.01-.24.02-.3.02h0c-.28.03-.53.04-.78.03.18.17.34.32.34.32.29.26,2.61.6,3.8.43l7.62-1.12.04.16-3.25,1-4.2.74c-.47.07-1.13.08-1.85.03.13.1.28.22.43.33l.03.02c.45.3,1.83.42,3.35.11l6.37-1.33.05.16-2.75,1.17s-3.07.82-3.34.89h0s-.02,0-.02,0c-.52.11-.99.18-1.42.21.13.09.24.16.35.23.21.13.85.39,2.33-.01l5.63-1.58.06.15-1.86,1.06s-3.83,1.34-4.03,1.41h-.01c-.11.03-.22.06-.34.08.02,0,.05.02.07.03.49.19,1.49.27,2.72-.16l4.57-1.54.08.14-1.25.97-.08.03-2.38,1.04c-.25.11-.38.17-.45.19h0c-.44.16-.88.27-1.32.33.12.06.22.11.31.16h.03c.17.09.81.3,1.91-.16l3.24-1.36,1.09-.49.1.13-.9,1.04-2.95,1.48c-.21.09-.42.16-.64.22.06.03.1.05.11.05h0c.53.23,1.06.2,1.66-.11l3.98-2,.1.13-.87,1.13h-.01c-.1.07-2.18,1.29-2.86,1.67.1.04.17.07.17.07,0,0,.13.05.13.05.32.12.53.2,1.2-.2l3.54-2.16.12.11-.72,1.2h-.01c-.68.5-1.93,1.38-2.15,1.54h0s-.04.03-.04.03c-.05.03-.1.06-.15.09.16.05.28.1.28.1.08.03.12.04.13.04.29.1.38.13.93-.27l3.31-2.42-.5,1.49-.02.02c-.07.06-1.48,1.25-2.06,1.69,0,0,0,0,0,0,.34.09.73.2,1.39-.36l2.76-2.4-.52,1.59-.07.05c-.37.39-1.04,1.11-1.24,1.31h0s-.07.06-.07.06c-.11.09-.22.17-.33.25l.07.02c.14.03.77.1,1.07-.21.05-.05.08-.08.1-.1h0s1.33-1.38,1.33-1.38l1.03-1.06c0-.38-.1-.85-.1-1.08,0-.04,0-.08,0-.13.55,1.01,1.1,2.23,1.06,2.96-.06,1.02.36.96,1.05,1.49.55.42.9,1.07.99,1.23v.03s0,.02,0,.02c0,0,0,0,0-.01,0,0,0,.01,0,.01,0,0,0-.01.02-.04v-.02c.1-.19.45-.81.98-1.22.7-.53,1.11-.48,1.05-1.49-.04-.73.51-1.94,1.06-2.96,0,.04,0,.09,0,.13,0,.23-.1.7-.1,1.08l1.03,1.06,1.33,1.38h0s.05.05.1.1c.3.31.93.25,1.07.21l.07-.02c-.11-.07-.22-.16-.33-.25l-.07-.06h0c-.19-.21-.86-.92-1.24-1.32l-.07-.05-.52-1.59,2.76,2.4c.66.56,1.05.46,1.39.36,0,0,0,0,0,0-.57-.44-1.99-1.63-2.06-1.69l-.02-.02-.5-1.49,3.31,2.42c.55.4.64.37.93.27.01,0,.05-.02.13-.04,0,0,.13-.04.28-.1-.05-.03-.1-.06-.15-.09l-.04-.02h0c-.22-.16-1.47-1.05-2.15-1.54h-.01s-.72-1.21-.72-1.21l.12-.11,3.54,2.16c.67.4.88.32,1.2.2,0,0,.13-.05.13-.05,0,0,.07-.03.17-.07-.68-.38-2.77-1.6-2.86-1.66h-.01s-.87-1.14-.87-1.14l.1-.13,3.98,2c.6.3,1.13.34,1.66.11h0s.05-.03.11-.05c-.22-.06-.43-.13-.64-.22l-2.95-1.48-.9-1.04.1-.13,1.09.49,3.24,1.36c1.1.46,1.74.25,1.91.17h.03c.09-.06.19-.11.31-.17-.44-.06-.88-.17-1.32-.32h0c-.07-.03-.2-.09-.45-.2l-2.38-1.04-.08-.03-1.25-.97.08-.14,4.57,1.54c1.23.42,2.23.35,2.72.16.02,0,.05-.02.07-.03-.12-.02-.23-.05-.34-.07h-.01c-.2-.07-3.99-1.4-4.03-1.42l-1.86-1.06.06-.15,5.63,1.58c1.48.41,2.12.15,2.33.01.1-.07.22-.14.35-.23-.43-.03-.9-.1-1.42-.21h-.02s0,0,0,0c-.27-.07-3.3-.88-3.34-.89l-2.75-1.17.05-.16,6.37,1.33c1.52.32,2.9.19,3.35-.11l.03-.02c.15-.11.3-.23.43-.33-.71.05-1.37.04-1.85-.03l-4.2-.74-3.25-1,.04-.16,7.62,1.12c1.19.18,3.51-.17,3.8-.43,0,0,.16-.15.34-.32-.24,0-.5,0-.78-.03h0c-.06,0-.15-.01-.3-.03l-6.66-.6-3.37-.74.02-.17,10.42.73c1.33.12,2.31-.22,2.65-.58,0,0,.2-.22.39-.44-.52.05-1.16.07-1.61.06l-8.27-.38-3.06-.53.02-.17,11.35.28c1.61.05,3.08-.34,3.38-.73.16-.2.31-.41.42-.57-.37.08-.73.12-1.07.13l-10.8.11-2.94-.36v-.17s13.7-.4,13.7-.4c1.17-.03,2.57-.64,2.74-.92.1-.17.21-.37.31-.54-.26.07-.54.11-.84.14l-12.88.79-2.84-.12v-.17s1.24-.1,1.24-.1c.08,0,3.8-.32,7.4-.63,3.4-.29,6.92-.58,6.98-.59,1.15-.1,2.07-.54,2.34-1.12,0,0,.12-.3.22-.56-1.79.24-7.03.89-14.81,1.84Z"/>
          <g>
            <g>
              <path class="cls-4" d="M74.36,101.05l-3.72,3.09c.14.07.29.14.41.2.03.01.06.03.09.04.34.16.47.19.61.03l2.82-3.32-.22-.04Z"/>
              <path class="cls-4" d="M75.18,101.13l-3.05,3.59h0s0,0,0,0l-.06.07c.17.07.37.16.52.23l.08.04c.31.13.31.12.4-.03l.32-.55,1.95-3.37c-.06,0-.11.01-.16.01Z"/>
              <path class="cls-4" d="M76,100.94l-1.94,3.34h0s-.27.47-.27.47l-.36.62c.12.05.26.1.37.15.14.05.36.14.48.09.01,0,.06-.03.09-.11l1.65-4.58s-.02,0-.03.01Z"/>
              <path class="cls-4" d="M75.12,106.03c-.1-.04-.25-.09-.38-.14l.09-.24s0,0,0-.01l.34-.94h0s1.3-3.59,1.3-3.59l-.89,4.97c-.05.04-.28.02-.46-.04Z"/>
              <path class="cls-4" d="M76.43,106.49c-.15-.05-.3-.1-.41-.14l.22-1.24v-.05s0,0,0,0l.53-2.93.03,3.23-.03,1.14s-.18.05-.35,0Z"/>
            </g>
            <g>
              <path class="cls-4" d="M79.68,101.05l3.72,3.09c-.14.07-.29.14-.41.2-.03.01-.06.03-.09.04-.34.16-.47.19-.61.03l-2.82-3.32.22-.04Z"/>
              <path class="cls-4" d="M78.87,101.13l3.05,3.59h0s0,0,0,0l.06.07c-.17.07-.37.16-.52.23l-.08.04c-.31.13-.31.12-.4-.03l-.32-.55-1.95-3.37c.06,0,.11.01.16.01Z"/>
              <path class="cls-4" d="M78.05,100.94l1.94,3.34h0s.27.47.27.47l.36.62c-.12.05-.26.1-.37.15-.14.05-.36.14-.48.09-.01,0-.06-.03-.09-.11l-1.65-4.58s.02,0,.03.01Z"/>
              <path class="cls-4" d="M78.46,106.08l-.89-4.97,1.3,3.59h0s.34.94.34.94c0,0,0,0,0,.01l.09.24c-.12.05-.28.1-.38.14-.18.07-.41.08-.46.04Z"/>
              <path class="cls-4" d="M77.26,106.49l-.03-1.14.03-3.23.53,2.93h0v.05s.23,1.24.23,1.24c-.11.04-.26.09-.41.14-.16.05-.3.03-.35,0Z"/>
            </g>
          </g>
        </g>
        <g>
          <path class="cls-7" d="M70.02,72.64c.11.33.58.77.93,1.09l.25.24c.18.19.49.38.78.34.13-.02.32-.11.45-.38.24-.52,1.64-3.36,2.48-4.41.8-1.01,2.49-2.41,4.16-3.15,1.46-.64,1.74-.58,1.75-.59.03,0,.07,0,.1,0,.01,0,.14-.08.14-.23,0-.14-.13-.28-.39-.4-.59-.3-4.22-1.09-6.21-.46,0,0,0,0-.01,0-.06.03-1.56.7-2.21,1.42-.66.74-1.83,2.57-2.21,3.94-.4,1.44-.13,2.26-.01,2.61Z"/>
          <path class="cls-7" d="M74.99,70.1c-.66.98-1.55,2.56-1.76,3.07l-.07.16c-.2.49-.4.99-.23,1.3.15.26.67.51,1.56.76.51.14,1.69.35,2.08.1.21-.13.57-.64,1.1-1.41l.71-.99c.49-.62,2.03-1.83,3.23-2.24,1.04-.35,1.95-.55,2.47-.54h.03c.46.01.9.02.95-.6.03-.29-.05-1.65-.89-2.63-.51-.59-1.19-.92-2.02-.97,0,0-.02,0-.03,0-.09.01-2.29.35-3.2.74-.93.39-3.29,2.27-3.95,3.24Z"/>
          <path class="cls-7" d="M86,70.7l.39.26c.32.24.92.51,1.13.4.05-.03.08-.08.08-.14-.01-.21-.47-1.03-.97-1.59l-1.11-1.18s-.05-.03-.08-.03c-.03,0-.06.02-.08.04-.37.41-.02,1.51.11,1.76.1.2.3.32.55.48Z"/>
          <path class="cls-7" d="M88.62,75.01c-.18-1.82-.74-2.92-1.81-3.58-1.12-.69-1.78-.6-2.26-.54h-.04c-.1.02-.39.06-.46.27-.01.03-.01.06-.01.1,0,.15.14.34.41.58.02.03,1.54,1.68,1.95,2.63l.39.81c.32.64.61,1.24.73,2.02.1.66.14,1.14.16,1.42,0,.18,0,.27,0,.27h0s0,.04.01.05c.05.09.22.38.42.35.18-.03.22-.25.24-.33.05-.22.45-2.23.27-4.05Z"/>
          <path class="cls-7" d="M85.52,74.1c-1.4-1.81-2.14-2.59-2.56-2.71-.48-.13-.84-.15-1.31.11l-.31.14c-.44.19-.98.42-1.03.82-.03.21.09.43.35.65.04.04,1.54,1.66,2.28,3.87.72,2.16.98,4.25.92,5.37-.05,1.03-.47,2.32-.6,2.69-.06.17-.16.57.01.7.04.04.14.08.29-.02.28-.18,2.21-2.02,2.83-2.75l.04-.05c.62-.73,1.26-1.48,1.05-3.2-.22-1.82-.91-4.27-1.97-5.64Z"/>
          <path class="cls-7" d="M83.28,80.04c-.45-3.36-2.59-6.02-2.88-6.27l-.17-.17c-.29-.29-.62-.62-1.18-.34-.01,0-.02.02-.03.03-.04.05-1.11,1.19-1.28,1.51-.13.24-.31.74-.05,1.37l.22.43c.3.59.76,1.47.88,2.58.18,1.68.06,3.06-.33,4.12-.44,1.17-.74,1.77-.85,1.93-.14.2-.09.93.18,1.21.17.18.77.77,1.42.86.46.07,2.46.1,3.05-1,.64-1.18,1.45-3.12,1.03-6.26Z"/>
          <path class="cls-7" d="M77.51,84.24c-.15-.21-.5-.1-.62-.07,0,0,0,0-.01,0,0,0-1,.42-3,.57-1.92.14-2.68.02-3.22-.19-.5-.2-1.71-.6-1.76-.62-.02,0-.05,0-.07,0-.06.02-.16.09-.18.22-.02.16.11.33.41.53.21.14.49.36.78.6.59.48,1.25,1.02,1.77,1.22l.25.1c.69.27,1.46.59,2.72.35,1.34-.26,1.85-.64,2.29-1.21.88-1.16.7-1.41.64-1.5Z"/>
          <path class="cls-7" d="M74.65,84.22c1.52-.19,3.04-.88,3.05-.88,0,0-.01,0-.02,0,.57-.16.64-1.03.69-1.73l.06-.56c.04-.18,0-.31-.07-.4-.16-.16-.45-.12-.68-.08l-.16.02h-.15c-.32.04-.98.1-2.53,0-1.81-.12-1.86-.14-4.6-1.17l-.06-.02c-2.43-.92-3.12-1.76-3.78-2.57l-.26-.32c-.31-.36-.52-.49-.7-.43-.24.1-.24.54-.22,1.03.03.63.34,2.2.52,2.66l.05.13c.24.66.98,2.66,2.86,3.44,2.09.87,4.58,1.07,6.01.89Z"/>
          <path class="cls-7" d="M66.89,76.52c1.24,1.15,2.75,2.31,5.33,3.03,2.32.65,4.59.47,4.66.47.62-.03.95-.12,1.15-.53.2-.42.13-1.04-.25-1.95-.37-.9-1.28-1.02-2.43-1.17l-.45-.06c-1.29-.18-2.99-1.01-3.93-1.71-.89-.66-1.74-1.86-2.17-2.51-.45-.7-.77-.99-1.42-.91-.02,0-.04,0-.07.01.12-.11.15-.19.18-.26.03-.08.06-.16.25-.32.25-.21.44-.56.49-.9.04.48.11.94.2,1.14.1.24.3.39.52.39.21,0,.4-.13.51-.36.08-.17.14-.46.2-.81.1-.57.24-1.28.55-1.84.5-.91.64-1.14,1.09-1.57l.2-.18c.27-.24.44-.4.39-.57-.04-.15-.23-.2-.41-.23-.02,0-.05,0-.07.02-.08.05-1.93,1.16-2.39,1.68l-.15.17c-.34.37-.48.53-.6.93-.05.17-.07.48-.05.83-.03-.08-.06-.16-.12-.23-.04-.04-.1-.05-.15-.02-.02.01-.47.34-.89.85-.44.53-.38,1.1-.38,1.13,0,.01,0,.03.01.04,0,.02.1.17.26.22-.39.16-.68.44-.83.67-.17.26-.36.8-.53,1.48-.26,1.01.17,2.02,1.31,3.07Z"/>
        </g>
      </g>
      <g>
        <g>
          <polyline class="cls-4" points="77.04 50.22 78.19 53.75 81.9 53.75 78.89 55.93 80.04 59.45 77.04 57.27 74.04 59.45 75.19 55.93 72.18 53.75 75.89 53.75 77.04 50.22"/>
          <polyline class="cls-4" points="59.72 50.22 60.87 53.75 64.57 53.75 61.57 55.93 62.72 59.45 59.72 57.27 56.72 59.45 57.86 55.93 54.87 53.75 58.57 53.75 59.72 50.22"/>
          <polyline class="cls-4" points="42.4 50.22 43.55 53.75 47.25 53.75 44.26 55.93 45.4 59.45 42.4 57.27 39.4 59.45 40.55 55.93 37.55 53.75 41.25 53.75 42.4 50.22"/>
          <polyline class="cls-4" points="94.36 50.22 93.21 53.75 89.51 53.75 92.51 55.93 91.36 59.45 94.36 57.27 97.36 59.45 96.22 55.93 99.21 53.75 95.51 53.75 94.36 50.22"/>
          <polyline class="cls-4" points="111.68 50.22 110.53 53.75 106.82 53.75 109.82 55.93 108.68 59.45 111.68 57.27 114.68 59.45 113.53 55.93 116.53 53.75 112.83 53.75 111.68 50.22"/>
        </g>
        <g>
          <g>
            <path class="cls-7" d="M49.89,40.18h-.78c-.29,0-.38-.16-.38-.31,0-.25.15-.37.46-.37h1.46v-.51h-1.56c-.74,0-.97.32-.99.85,0,.55.29.82.94.82h.7c.38,0,.42.14.42.27,0,.23-.07.37-.46.37h-1.48v.51h1.58c.75,0,.97-.32.99-.85,0-.52-.21-.79-.91-.79"/>
            <path class="cls-7" d="M52.53,38.99h-1.29v2.82h.59v-.99h.72c.79,0,1.2-.2,1.2-.91-.02-.62-.3-.92-1.22-.92M52.55,40.33h-.72v-.83h.68c.44,0,.57.14.57.42s-.17.41-.53.41Z"/>
            <path class="cls-7" d="M55.37,38.94c-.79,0-1.4.32-1.4,1.46,0,.98.44,1.48,1.41,1.48,1.06,0,1.41-.6,1.41-1.47,0-1.2-.67-1.47-1.42-1.47M55.37,41.39c-.59,0-.77-.45-.77-.99,0-.6.24-.97.77-.97.69,0,.77.57.77.99,0,.58-.21.98-.77.98Z"/>
            <path class="cls-7" d="M59.62,39.85c0-.61-.33-.85-.99-.85h-1.46v2.82h.59v-1.1h.7l.62,1.1h.66l-.69-1.18c.38-.09.56-.4.56-.79M58.5,40.21h-.73v-.71h.73c.54,0,.53.19.53.35,0,.28-.14.36-.53.36Z"/>
            <polyline class="cls-7" points="59.83 39.49 60.73 39.49 60.73 41.81 61.35 41.81 61.35 39.49 62.26 39.49 62.26 39 59.83 39 59.83 39.49"/>
            <path class="cls-7" d="M64.16,40.18h-.78c-.29,0-.38-.16-.38-.31,0-.25.15-.37.46-.37h1.46v-.51h-1.56c-.74,0-.97.32-.99.85,0,.55.29.82.94.82h.7c.38,0,.42.14.42.27,0,.23-.07.37-.46.37h-1.48v.51h1.58c.75,0,.97-.32.99-.85,0-.52-.21-.79-.9-.79"/>
            <path class="cls-7" d="M66.31,40.46c0,.85.41,1.36,1.31,1.36h1v-.49h-.97c-.4,0-.69-.06-.69-.82,0-.81.28-1.02.69-1.02h.97v-.48h-.98c-1.03,0-1.33.6-1.33,1.46"/>
            <path class="cls-7" d="M69.58,40.54v-1.55h-.59v1.68c0,1.01.49,1.14,1.18,1.14h.75v-.47h-.71c-.64,0-.64-.25-.64-.8"/>
            <path class="cls-7" d="M73.09,40.69c0,.58-.2.71-.63.71-.58,0-.63-.3-.63-.71v-1.69h-.59v1.71c0,.73.22,1.14,1.23,1.14s1.22-.44,1.22-1.14v-1.71h-.59v1.69"/>
            <path class="cls-7" d="M76.32,40.41c.28-.16.42-.37.42-.64,0-.73-.56-.77-1.04-.78h-1.45v2.82h1.55c.53,0,.95-.14.95-.79,0-.35-.22-.52-.43-.62M74.84,39.5h.86c.26,0,.39.11.39.33,0,.25-.16.32-.39.32h-.86v-.65ZM75.71,41.31h-.87v-.66h.87c.26,0,.39.11.39.34,0,.27-.19.33-.39.33Z"/>
            <path class="cls-7" d="M79.81,40.18h-.78c-.29,0-.38-.16-.38-.31,0-.25.15-.37.46-.37h1.46v-.51h-1.56c-.74,0-.97.32-.99.85,0,.55.29.82.94.82h.7c.38,0,.41.14.41.27,0,.23-.07.37-.45.37h-1.48v.51h1.58c.75,0,.97-.32.99-.85,0-.52-.21-.79-.9-.79"/>
            <path class="cls-7" d="M81.96,38.99l-1.18,2.82h.63l.24-.68h1.23l.26.68h.66l-1.21-2.82h-.63M81.84,40.64l.42-1.08.43,1.08h-.84Z"/>
            <path class="cls-7" d="M83.81,40.46c0,1.03.55,1.36,1.33,1.36h1.27v-1.67h-1.39v.5h.79v.66h-.67c-.52,0-.66-.33-.66-.87,0-.75.28-.94.66-.94h1.27v-.49h-1.27c-.82,0-1.33.37-1.33,1.46"/>
            <path class="cls-7" d="M87.71,38.99l-1.18,2.82h.63l.24-.68h1.23l.26.68h.66l-1.21-2.82h-.63M87.58,40.64l.42-1.08.43,1.08h-.84Z"/>
            <polyline class="cls-7" points="91.33 41.16 90.61 38.99 89.74 38.99 89.74 41.81 90.35 41.81 90.28 39.6 91.02 41.81 91.66 41.81 92.37 39.62 92.33 41.81 92.91 41.81 92.91 38.99 92.04 38.99 91.33 41.16"/>
            <rect class="cls-7" x="93.49" y="38.99" width=".62" height="2.82"/>
            <polyline class="cls-7" points="96.38 40.13 95.29 40.13 95.29 38.99 94.7 38.99 94.7 41.81 95.29 41.81 95.29 40.63 96.38 40.63 96.38 41.81 96.97 41.81 96.97 38.99 96.38 38.99 96.38 40.13"/>
            <path class="cls-7" d="M98.36,38.99l-1.18,2.82h.63l.24-.68h1.23l.26.68h.66l-1.21-2.82h-.63M98.23,40.64l.42-1.08.43,1.08h-.85Z"/>
            <path class="cls-7" d="M102.83,39.85c0-.61-.33-.85-.99-.85h-1.45v2.82h.59v-1.1h.69l.62,1.1h.66s-.69-1.18-.69-1.18c.38-.09.57-.4.57-.79M101.7,40.21h-.72v-.71h.72c.53,0,.53.19.53.35,0,.28-.14.36-.53.36Z"/>
            <path class="cls-7" d="M104.76,38.99h-.63l-1.18,2.81h0s.62.01.62.01l.24-.68h1.23l.26.68h.66l-1.21-2.82M104.01,40.64l.42-1.08.43,1.08h-.84Z"/>
          </g>
          <g>
            <path class="cls-7" d="M61.82,24.39h-2.31s-4.13,0-4.13,0c-.95,0-1.73-.77-1.73-1.73s.77-1.72,1.73-1.72h6.85,0c1.1,0,2.25-.02,2.95,1.27h.64s0-4.38,0-4.38h-3.19s-7.52,0-7.52,0c-2.66,0-4.82,2.16-4.82,4.82s2.16,4.82,4.82,4.82h3.52s2.78,0,2.78,0c.95,0,1.73.77,1.73,1.73v.75c0,.96-.81,1.8-1.73,1.8h-6.11,0c-1.11,0-3.05.11-3.75-1.35h-.68s0,4.45,0,4.45h3.42s7.53,0,7.53,0c2.66,0,4.82-2.19,4.82-4.89v-.75c0-2.66-2.16-4.82-4.82-4.82"/>
            <path class="cls-7" d="M83.86,30.41c-.55,1.15-1.9,1.32-2.98,1.34h-3.91c-2.18,0-3.96-1.78-3.96-3.95v-3.32c0-2.18,1.77-3.54,3.96-3.54h3.92,0c1.11,0,2.25-.02,2.95,1.27h.64s0-4.38,0-4.38h-3.19s-4.67,0-4.67,0c-3.89,0-7.05,2.75-7.05,6.64v3.32c0,3.89,3.16,7.05,7.05,7.05h4.45s3.42.01,3.42.01v-4.47h-.64"/>
            <path class="cls-7" d="M98.97,24.39h-2.31s-4.13,0-4.13,0c-.95,0-1.72-.77-1.72-1.73s.77-1.72,1.72-1.72h6.85,0c1.1,0,2.26-.02,2.95,1.27h.64s0-4.38,0-4.38h-3.19s-7.53,0-7.53,0c-2.66,0-4.82,2.16-4.82,4.82s2.16,4.82,4.82,4.82h3.52s2.78,0,2.78,0c.95,0,1.73.77,1.73,1.73v.75c0,.96-.81,1.8-1.73,1.8h-6.11,0c-1.1,0-3.06.11-3.75-1.35h-.69s0,4.45,0,4.45h3.42s7.53,0,7.53,0c2.66,0,4.82-2.19,4.82-4.89v-.75c0-2.66-2.16-4.82-4.82-4.82"/>
          </g>
        </g>
      </g>
    </g>
  </g>
</svg>