<?xml version="1.0" encoding="UTF-8"?>
<svg id="_レイヤー_2" data-name="レイヤー 2" xmlns="http://www.w3.org/2000/svg" xmlns:xlink="http://www.w3.org/1999/xlink" viewBox="0 0 426.45 444.66">
  <defs>
    <style>
      .cls-1 {
        fill: none;
      }

      .cls-2 {
        fill: #221815;
      }

      .cls-3 {
        fill: #ffe100;
      }

      .cls-4 {
        fill: #322b29;
      }

      .cls-5 {
        fill: #00516d;
      }

      .cls-6 {
        fill: #d7000f;
      }

      .cls-7 {
        fill: #fff;
      }

      .cls-8 {
        clip-path: url(#clippath);
      }
    </style>
    <clipPath id="clippath">
      <path class="cls-1" d="M390.94,219.68c.07-12.49-5.34-22.53-15.6-29.03-.69-.44-1.39-.87-2.1-1.27-.77-.43-1.55-.85-2.34-1.22-11.64-5.67-23.69-4.48-34.15-2.53-5.83,1.33-9.45,2.5-11.74,3.46-1.46-1.46-3.03-2.84-4.74-4.07-.97-.67-6.37-4.22-14.15-5.76-.48-2.23-.98-3.96-1.26-4.88-.01-.05-.23-.79-.25-.84-1.29-3.88-4.26-11.63-9.68-19.9-6.8-10.34-15.02-17.72-24.49-21.96-15.15-6.65-29.01-3.93-42.64,8.55-6.19,6.4-11.53,14.18-15.87,23.1-.54,1.11-4.52,10.56-4.96,11.86-1.56,4.27-6.56,19.27-5.14,33.03.89,10.47,5.87,20.97,13,27.42.12.11.54.44.67.53,7.94,6.03,16.67,9.07,25.99,9.07,1.13,0,2.27-.05,3.42-.13,12.05-.93,21.23-4.61,21.51-4.72,1.18-.45,2.22-.93,3.33-1.4,3.32,4.59,7.6,8.48,12.65,11.05,6.29,3.17,11.23,4.29,15.81,4.29.67,0,1.31-.14,1.97-.18.25.54.51,1.09.92,1.73,9.83,18.52,24.19,24.87,33.25,24.47.58.03,1.17.05,1.76.05,15.78,0,33.72-11.18,44.46-28.18l.53-.88c3.53-5.77,8.87-14.5,9.85-31.66Z"/>
    </clipPath>
  </defs>
  <g id="_レイヤー_1-2" data-name="レイヤー 1">
    <g>
      <path class="cls-6" d="M426.45,227.15c0,117.76-84.41,196.43-213.22,196.43S0,344.91,0,227.15,95.46,13.92,213.22,13.92s213.22,95.46,213.22,213.22Z"/>
      <g>
        <g>
          <g>
            <path class="cls-2" d="M419.51,295.7c-1.3-.72-2.84-1.24-3.8-1.44-6.81-1.4-13.64-2.18-20.31-2.33-3.7-.09-7.16,0-10.49.16-1.79-20.11-8.09-39.31-19.27-58.27,1.62-9.72,2.12-22.36,2.53-32.66l.21-5.17c.84-18.75-5.88-43.26-14.38-52.46-2.12-2.29-5.31-4.04-8.13-4.45-21.54-3.21-49.87,5.35-81.73,24.67l-4-.59c-26.18-3.9-58.77-8.75-103.06,1.53-1.4.32-2.95.78-4.54,1.26-2.37.71-6.76,1.98-7.92,1.68-8.49-4.64-30.28-15.71-49.14-18.49-17.53-2.61-29.09.83-34.52,10.31-15.37,28.86-7.65,69.07-4.44,79.47-16,31.01-15.69,63.87-15.6,67.47-.01.84.03,1.72.04,2.58-.84.06-1.6.09-2.48.16-8.93.71-17.8,1.58-28.07,4.44-3.34.92-6.41,3.14-5.81,5.59.47,1.92,2.84,2.35,4.83,2.35,1.54,0,2.85-.25,2.89-.26,10.63-2.16,16.02-2.75,23.47-3.55l3.14-.34c.81-.09,1.61-.13,2.42-.2.81,9.68,2.85,19.99,6.48,30.18-4.44,1.67-9.56,3.89-15.71,7.07-.04.02-3.98,2.08-4.74,4.62-.23.78-.15,1.56.23,2.24.62,1.11,1.92,1.46,3.31,1.46,2.3,0,4.82-.95,4.86-.96,1.84-.81,3.57-1.58,5.21-2.31,3.72-1.66,6.96-3.05,10-4.23,3.93,8.9,9.09,17.53,15.73,25.34-6.84,3.95-15.09,9.33-24.43,16.6-1.94,1.52-3.19,3.45-3.41,5.32-.12,1.04.11,1.99.65,2.67.41.51,1.18.73,2.1.73,1.62,0,3.71-.68,5.14-1.7,10.26-7.27,19.16-12.89,26.15-17.04,7.51,7.31,16.5,13.67,27.22,18.49,35.27,15.84,67.77,19.4,108.95,20l4.04-.06,4.36.06c47.38-.69,84.81-7.46,111.26-20.11,15.35-7.34,27.56-17.24,36.7-29.54,7.64,2.61,16.9,6.62,25.83,12.66,1.14.79,3.45,2.16,5.5,2.16.92,0,1.79-.27,2.47-1.01.29-.3.61-.85.53-1.73-.17-1.86-2.23-4.46-3.56-5.43-9.12-6.66-18.29-10.95-26.01-13.74,5.25-8.67,9.17-18.37,11.72-29.12,5.64.9,12.22,2.35,19.44,4.77.04,0,2.17.71,4.26.71,1.57,0,3.11-.39,3.7-1.78.27-.63.26-1.33-.03-2.02-1.04-2.48-5.39-4.32-5.43-4.33-7.12-2.82-14.12-4.47-20.31-5.49,1.35-8.14,2-16.8,1.93-26,.02-1.57-.07-3.12-.1-4.67,2.94-.16,5.97-.26,9.16-.22,4.96.05,10.48.42,15.35.74,1.52.1,2.99.19,4.4.28,3.19.18,7.1-.41,7.57-2.73.17-.81-.11-2.03-2.36-3.29Z"/>
            <path class="cls-7" d="M354.53,233.84c1.76-9.13,2.29-22.42,2.71-33.11l.22-5.23c.76-16.97-5.67-38.25-11.49-44.55-.51-.56-1.4-.99-1.72-1.06-18.78-2.76-45.27,5.51-74.57,23.31-2.08,1.26-3.22,1.95-5.23,1.65l-5.91-.87c-25.25-3.76-56.69-8.45-98.98,1.36-1.2.27-2.52.68-3.88,1.08-5.38,1.6-11.46,3.43-16.3.79-7.98-4.35-28.38-14.75-45.5-17.28-12.59-1.85-20.45-.25-23.34,4.78-10.47,19.65-8.42,46.45-5.73,61.45.72-.85,1.42-1.62,2.07-2.27,2.63-2.63,5.32-3.6,7.16-2.33,1.91,1.32,1.15,4.66-.08,7.33-1.22,2.65-3.69,7.76-5.63,11.18,0,0,0,.01,0,.02-16.85,29.6-16.54,62.53-16.45,66.2,0,.74.03,1.51.04,2.26,9.31.02,14.99,1,17.89,1.74l.21.05c.06.01,7.62,1.41,7.18,5.05-.39,3.23-4.98,2.99-7.2,2.87l-.82-.06c-2.44-.37-8.96-1.24-16.86-1.4.79,8.79,2.71,18.09,6.01,27.25,4.52-1.04,7.71-1.28,9.83-1.4l.29-.02c2.79-.15,9.39-.25,9.73,3.07.3,2.87-4.87,4.24-7.11,4.7-1.04.21-2.16.36-3.41.53-1.75.24-3.74.52-6.09,1.02,3.77,8.24,8.76,16.15,15.14,23.24,6.63-3.22,10.45-4.4,10.53-4.42.06-.03,6.57-1.68,7.84,1.28,1.09,2.56-1.67,3.92-4.33,5.24-.85.42-1.74.86-2.55,1.35,0,0-.09.05-.26.13-1.03.51-2.75,1.4-5.02,2.62,6.17,5.56,13.32,10.43,21.71,14.2,33.54,15.07,64.84,18.46,104.45,19.04l4.04-.06,4.36.06c44.98-.67,81.88-7.25,106.54-19.04,12.36-5.91,22.38-13.54,30.17-22.9-3.71-.86-5.98-1.18-6.04-1.19-1.42-.14-5.85-1.17-7.34-3.19-.44-.61-.61-1.28-.47-1.94.75-3.62,7.32-2.9,10.09-2.43.35.03,3.75.38,9.03,1.65,5.2-7.94,9.03-16.98,11.53-27.1-2.33-.14-4.2-.17-5.48-.17-2.44.01-5.28-.05-5.28-.05-.74-.07-6.59-.76-6.82-3.68-.03-.39.05-1,.6-1.64,1.31-1.53,4.62-2.39,6.03-2.5l.31-.03c.84-.08,3.07-.3,5.31-.32h.61c1.62,0,3.81.05,6.42.22,1.29-7.68,1.93-15.9,1.86-24.74.01-1.24-.06-2.46-.09-3.69-6.85.85-12.47,1.97-16.3,2.74-1.96.39-3.38.68-4.24.78-1.38.2-2.56.3-3.55.3-2.31,0-3.58-.56-4-1.72-.29-.84-.23-1.74.18-2.59.74-1.52,2.53-2.81,5.19-3.72,2.09-.71,10.2-3.2,22.24-4.68-1.72-19.09-7.86-37.28-18.78-55.31-.7-1.15-.95-2.54-.69-3.87Z"/>
          </g>
          <g>
            <path class="cls-2" d="M115.31,315.51c-3.5,7.1-3.52,18.45,1.21,24.48,2.92,3.45,7.8,5.41,14.09,4.33,5.43-.94,8.52-5.9,9.55-9.85,2.23-8.84-.14-19.68-5.23-23.79-5.36-3.91-15.39-3.82-19.61,4.83Z"/>
            <path class="cls-2" d="M285.41,316.55c-3.5,7.1-3.52,18.45,1.21,24.48,2.92,3.45,7.8,5.41,14.09,4.33,5.43-.94,8.52-5.9,9.55-9.85,2.23-8.84-.14-19.68-5.23-23.79-5.36-3.91-15.39-3.82-19.61,4.83Z"/>
            <g>
              <path class="cls-2" d="M230.45,347.26c-1.17-4.16-4.32-7.43-8.44-8.76-7.86-2.55-15.82-1.48-20.77,2.79-5.16,4.56-5.41,12.65-2.19,16.84,2.99,3.88,7.72,5.9,14.48,6.2.31.01.63.02.94.02,5.41,0,10.44-1.98,13.31-5.27v-.02c2.83-3.28,3.82-7.69,2.67-11.81Z"/>
              <path class="cls-3" d="M219.91,345.01c-2.1-.68-4.24-1.01-6.25-1.01-3.19,0-6.05.84-7.91,2.45-2.45,2.17-2.29,6.18-1.26,7.52,1.68,2.18,4.74,3.34,9.35,3.54,4.27.17,7.46-1.38,8.79-2.9,1.34-1.56,1.79-3.55,1.24-5.49-.54-1.94-2.02-3.48-3.96-4.11Z"/>
            </g>
          </g>
        </g>
        <g>
          <g>
            <path class="cls-2" d="M174.31,405.34c-1.48-4.63-4.48-8.3-7.74-11.99-11.57-11.1-31.77-15.56-47.81-10.64-11.58,3.03-24.94,13.2-26.89,28.3-1.79,11.76,2.42,22.06,11.65,27.76,9.31,4.78,19.42,4.67,29.7-.17.87-.33,1.3-.24,3.57.72,1.42.61,3.17,1.34,5.28,1.7,3.57,1.03,6.76,1.46,9.57,1.46,7.46,0,12.38-3.02,15.44-6.04,7.97-7.84,10.94-20.61,7.23-31.1Z"/>
            <path class="cls-7" d="M163.98,408.93c-.03-.07-.05-.13-.07-.2-.84-2.65-3.05-5.31-5.25-7.82-8.41-8.05-24.41-11.47-36.92-7.67-8.41,2.21-17.79,9.67-19.04,19.29-.55,3.62-1.01,12.25,6.19,16.72,5.93,3.02,12.4,2.87,20-.7,1.9-.75,3.63-1.02,5.19-1.02,2.92,0,5.24.98,6.98,1.72,1.12.47,2.08.88,2.97,1.01.27.04.53.09.78.17,6.51,1.94,11.44,1.34,14.59-1.78,4.91-4.82,6.87-13.3,4.58-19.71Z"/>
          </g>
          <g>
            <path class="cls-2" d="M338.19,413.3c-1.98-15.21-15.33-25.39-26.69-28.34-16.27-4.97-36.47-.53-48.34,10.91-2.82,3.2-5.95,7-7.44,11.65-3.71,10.49-.74,23.27,7.22,31.1,3.07,3.03,8,6.05,15.46,6.05,2.81,0,5.99-.43,9.57-1.46,2.11-.36,3.86-1.1,5.28-1.7,2.29-.98,2.71-1.06,3.23-.88,10.61,5,20.73,5.1,30.44.1,8.83-5.48,13.04-15.78,11.27-27.43Z"/>
            <path class="cls-7" d="M327.35,414.83c-1.27-9.74-10.64-17.21-18.84-19.34-3.53-1.08-7.32-1.6-11.13-1.6-9.92,0-20.02,3.48-26.32,9.53-1.88,2.17-4.1,4.83-4.94,7.48-.02.07-.04.13-.07.2-2.29,6.41-.33,14.89,4.56,19.7,3.17,3.11,8.06,3.72,14.6,1.78.25-.07.51-.13.78-.17.89-.13,1.85-.53,2.97-1.01,2.67-1.14,6.69-2.83,11.82-.85,7.93,3.73,14.41,3.88,20.73.63,6.81-4.24,6.35-12.88,5.82-16.38Z"/>
          </g>
        </g>
        <g>
          <g class="cls-8">
            <g>
              <rect class="cls-4" x="222.64" y="112.52" width="132.75" height="190.62" transform="translate(-21.49 381.94) rotate(-65)"/>
              <g>
                <rect class="cls-6" x="208.17" y="108.45" width="20.14" height="132.75" transform="translate(94.34 -75.85) rotate(25)"/>
                <rect class="cls-6" x="245.18" y="125.71" width="20.14" height="132.75" transform="translate(105.1 -89.88) rotate(25)"/>
                <rect class="cls-6" x="282.19" y="142.97" width="20.14" height="132.75" transform="translate(115.86 -103.9) rotate(25)"/>
                <rect class="cls-6" x="319.19" y="160.23" width="20.14" height="132.75" transform="translate(126.62 -117.92) rotate(25)"/>
                <rect class="cls-6" x="356.2" y="177.48" width="20.14" height="132.75" transform="translate(137.38 -131.95) rotate(25)"/>
              </g>
            </g>
          </g>
          <path class="cls-2" d="M390.94,219.68c.07-12.49-5.34-22.53-15.6-29.03-.69-.44-1.39-.87-2.1-1.27-.77-.43-1.55-.85-2.34-1.22-11.64-5.67-23.69-4.48-34.15-2.53-5.83,1.33-9.45,2.5-11.74,3.46-1.46-1.46-3.03-2.84-4.74-4.07-.97-.67-6.37-4.22-14.15-5.76-.48-2.23-.98-3.96-1.26-4.88-.01-.05-.23-.79-.25-.84-1.29-3.88-4.26-11.63-9.68-19.9-6.8-10.34-15.02-17.72-24.49-21.96-15.15-6.65-29.01-3.93-42.64,8.55-6.19,6.4-11.53,14.18-15.87,23.1-.54,1.11-4.52,10.56-4.96,11.86-1.56,4.27-6.56,19.27-5.14,33.03.89,10.47,5.87,20.97,13,27.42.12.11.54.44.67.53,7.94,6.03,16.67,9.07,25.99,9.07,1.13,0,2.27-.05,3.42-.13,12.05-.93,21.23-4.61,21.51-4.72,1.18-.45,2.22-.93,3.33-1.4,3.32,4.59,7.6,8.48,12.65,11.05,6.29,3.17,11.23,4.29,15.81,4.29.67,0,1.31-.14,1.97-.18.25.54.51,1.09.92,1.73,9.83,18.52,24.19,24.87,33.25,24.47.58.03,1.17.05,1.76.05,15.78,0,33.72-11.18,44.46-28.18l.53-.88c3.53-5.77,8.87-14.5,9.85-31.66ZM262.41,230.2c-.08.03-8.08,3.2-18.37,4-11.87.91-19.44-4.85-21.88-6.66-5-4.53-8.79-12.66-9.45-20.34-1.18-11.51,3.16-24.52,4.61-28.48.39-1.06,3.95-9.57,4.44-10.59,3.84-7.9,8.52-14.72,13.66-20.06,10.24-9.38,19.41-11.29,30.57-6.38,7.49,3.35,14.15,9.4,19.77,17.96,4.92,7.49,7.54,14.61,8.32,16.9l.28.99c.1.33.23.76.37,1.26-3.12.38-6.39,1.21-9.76,2.67-.86.37-1.62.86-2.44,1.29-1.82-1.99-4.05-3.77-6.3-5.03-6.73-3.79-14.11-3.84-20.25-.13-6.59,4-10.46,11.71-9.86,19.44.23,6.03,2.69,11.16,7.12,14.82,2.87,2.37,6.27,3.78,9.4,4.6,0,.53-.07,1.05-.06,1.58.03,3.82.78,7.6,2.04,11.21-.76.31-1.43.63-2.24.94ZM264.12,205.51c-1.43-.51-2.96-1.24-4.22-2.39-1.79-1.63-2.7-3.75-2.82-6.7-.29-3.87,1.51-7.58,4.61-9.47,2.17-1.32,4.47-1.53,7.04-.66,2.02.68,3.67,1.86,4.9,2.98-4.48,4.46-7.75,9.99-9.5,16.23ZM306.89,241.9c-7.63,2.01-11.53,2.43-19.54-1.62-8.18-4.17-13.72-13.13-13.78-22.46-.43-11.82,5.62-21.89,15.78-26.29,3.44-1.49,6.75-2.05,9.77-2.05,8.05,0,14.03,3.93,14.85,4.49,9.03,6.49,13.34,17.88,10.69,28.51-2.49,11.49-10.8,17.57-17.75,19.43ZM371.63,245.84l-.6,1.01c-8.69,13.74-23.71,23.26-36.56,22.57-6.52.09-15.93-5.16-23.02-17.53,4.14-1.36,8.46-3.71,12.35-7.14,1.96,1.41,4.3,2.61,7,3.2,1.02.22,2.2.38,3.49.38,3.21,0,7.18-.98,11.47-4.38,4.81-4.81,6.44-10.35,4.85-17.49-2.82-8.54-9.53-11.12-14.31-12.03-.27-5.63-1.81-11.14-4.48-16.14,2.05-.65,4.64-1.36,7.15-1.94,8.49-1.57,18.35-2.62,27.19,1.67.59.28,1.14.58,1.7.89.53.3,1.04.61,1.59.96,7.15,4.53,10.61,10.99,10.57,19.46-.82,14.14-4.94,20.88-8.38,26.5ZM335.17,225.41c2.53.62,4.13,1.7,4.89,3.94.65,2.96.13,4.69-1.56,6.43-1.71,1.35-3.44,1.83-5.18,1.51-.94-.17-1.76-.57-2.49-1,1.88-3.16,3.39-6.77,4.33-10.89Z"/>
        </g>
      </g>
    </g>
    <g>
      <path class="cls-1" d="M77.63,143.49l3.3-2.43c4.42-3.22,8.69-6.76,12.7-10.5,14.12-1.53,27.73-5.08,40.47-10.56l1.42-.61-6.95-15.66,3.03.09,6.33-6.23-3.12-3.37,4.32-6.38-3.9-2.27,4.29-8.54-9.47-2.17-2.33,1.26c1.83-6.78,2.76-13.33,2.76-19.51v-29.66s-21.43-5.74-21.43-5.74l-2.52-4c3.87-2.53,6.58-7.06,6.7-7.28l1.71-2.9-2.85.53c1.55-2.26,2.51-4.53,2.58-4.68l1.21-2.87-3.01.8-4.86,1.29c-.62.16-3.91.99-7.91.99-1.81,0-2.98-.25-4.75-.62-3.14-.67-7.45-1.58-17.74-1.58s-14.59.91-17.74,1.58c-1.77.38-2.94.62-4.75.62-4,0-7.29-.82-7.91-.99l-4.86-1.29-3.01-.8,1.21,2.87c.06.15,1.03,2.42,2.58,4.68l-2.85-.53,1.71,2.9c.13.21,2.83,4.74,6.7,7.28l-2.52,4-21.44,5.74v29.66c0,6.18.94,12.73,2.77,19.51l-2.33-1.26-9.47,2.17,4.29,8.54-3.9,2.27,4.32,6.38-3.12,3.37,6.33,6.23,3.03-.09-6.95,15.66,1.42.61c12.74,5.49,26.35,9.04,40.47,10.56,4.01,3.75,8.28,7.28,12.7,10.5l3.3,2.43Z"/>
      <g>
        <path d="M136.97,88.33l-4.08,6.03,2.94,3.17-4.81,4.73-11.41-.33,7.26,1.67,6.65,14.98c-12.66,5.45-26.29,9.02-40.56,10.51-4.06,3.82-8.38,7.41-12.93,10.73,0,0-2.4,1.76-2.4,1.76,0,0-2.41-1.77-2.4-1.76-4.55-3.32-8.87-6.91-12.93-10.73-14.26-1.49-27.88-5.05-40.54-10.5l6.65-14.98,7.26-1.67-11.41.33-4.81-4.73,2.94-3.17-4.08-6.03,3.73-2.17-4.06-8.08,7.01-1.6,5.04,2.72c-2.44-7.8-3.72-15.47-3.72-22.59v-28.48s20.87-5.6,20.87-5.6l3.69-5.87c-4.29-2-7.53-7.51-7.53-7.51l4.06.76c-3.09-2.11-5.4-7.63-5.4-7.63l4.86,1.29c.65.17,4.12,1.04,8.3,1.04,1.97,0,3.27-.28,5.06-.66,3.08-.65,7.29-1.55,17.42-1.55s14.34.89,17.42,1.55c1.8.38,3.1.66,5.06.66,4.19,0,7.65-.86,8.3-1.04l4.86-1.29s-2.32,5.51-5.4,7.63l4.06-.76s-3.25,5.51-7.53,7.51l3.69,5.87,20.88,5.6v28.48c0,7.12-1.29,14.8-3.73,22.61l5.06-2.74,7.01,1.6-4.06,8.08,3.73,2.17Z"/>
        <g>
          <g>
            <path class="cls-7" d="M52.74,101.6l-.2.83c.15.2.1.43.06.61v.05s-.16.61-.16.61l-.03.13-.13-.03-.68-.16-.13-.03.03-.13.15-.61v-.05c.05-.18.12-.4.34-.52l.2-.83-1.92-.46-.2.83c.15.2.1.43.06.61v.05s-.63,2.56-.63,2.56v.05c-.05.18-.12.4-.34.52l-.2.83,1.92.46.2-.83c-.15-.2-.1-.43-.06-.61v-.05s.21-.84.21-.84l.03-.13.13.03.68.16.13.03-.03.13-.2.84v.05c-.05.18-.12.4-.34.52l-.2.83,1.92.46.2-.83c-.15-.2-.1-.43-.06-.61v-.05s.63-2.56.63-2.56v-.05c.05-.18.12-.4.34-.52l.2-.83-1.92-.46Z"/>
            <path class="cls-7" d="M60.11,102.96c-.8-.13-1.35-.07-1.72.19-.31.22-.5.59-.59,1.13l-.41,2.44c-.2,1.18.31,1.76,1.76,2,.8.13,1.35.07,1.72-.19.31-.22.5-.59.59-1.13l.41-2.44c.2-1.18-.31-1.76-1.76-2ZM60.33,104.61s-.44,2.62-.44,2.62c-.04.24-.14.36-.22.42-.1.07-.22.1-.35.07s-.24-.08-.31-.18c-.06-.08-.12-.23-.07-.48,0,0,.44-2.62.44-2.62.04-.24.14-.36.22-.42.1-.07.22-.1.36-.07.14.02.24.09.31.18.06.08.12.23.07.47Z"/>
            <path class="cls-7" d="M68.28,104.17c-.02.19-.08.79-.08.79-.03.27-.06.34-.42.8l-.5.63-.28.35.05-.45s.08-.75.08-.75v-.05c.02-.19.06-.41.26-.56l.09-.85-1.96-.2-.09.85c.17.18.16.41.14.6v.05s-.28,2.62-.28,2.62v.05c-.02.19-.06.41-.26.55l-.09.85,1.96.2.09-.85c-.17-.18-.16-.41-.14-.6v-.05s.1-.93.1-.93v-.13s.14.01.14.01h.01s.08.01.08.01l.03.07s.37.93.37.93l.04.1c.13.35.18.49.14.94l-.06.56,1.83.19.09-.83c-.2-.16-.27-.32-.34-.49,0,0-.01-.03-.01-.03l-.68-1.79-.03-.07.05-.06s.91-1.17.91-1.17c.1-.13.19-.23.4-.32l.09-.82-1.72-.18Z"/>
            <path class="cls-7" d="M76.02,105.32c0,.27-.04.34-.36.83l-.45.66-.25.37v-.45s.04-.75.04-.75v-.05c0-.19.02-.41.22-.57l.03-.85-1.97-.06-.03.85c.19.17.19.4.18.58v.05s-.09,2.63-.09,2.63v.05c0,.19-.02.41-.22.57l-.03.85,1.97.06.03-.85c-.19-.17-.19-.4-.18-.58v-.05s.03-.93.03-.93v-.13s.14,0,.14,0h.01s.08,0,.08,0l.03.07s.43.9.43.91l.04.1c.16.34.22.48.21.93l-.02.57,1.84.06.03-.84c-.21-.14-.29-.3-.37-.46,0,0-.01-.03-.01-.03l-.81-1.74-.03-.07.04-.06s.82-1.23.82-1.23c.09-.14.17-.25.38-.35l.03-.83-1.73-.05c0,.19-.03.79-.03.79Z"/>
            <path class="cls-7" d="M82.59,108.79c0-.07,0-.14.02-.2l.02-.1h.1s.89-.06.89-.06c0,0,.1,0,.1,0l.03.1c.02.06.04.12.04.2.01.18-.06.32-.19.41l.05.83,2.05-.12-.05-.82c-.22-.12-.31-.46-.35-.61l-1.09-4.08-2.39.15c-.08.63-.51,4.09-.51,4.1,0,.04-.01.08-.02.13-.03.19-.06.41-.21.57l.05.85,1.76-.11-.05-.82c-.15-.07-.25-.2-.27-.39ZM82.66,107.45l.18-1.75v-.11s.12,0,.12,0h.01s.11,0,.11,0l.03.11.41,1.72.04.15h-.16s-.6.05-.6.05h-.15s.02-.14.02-.14Z"/>
            <path class="cls-7" d="M88.92,105.39v.05s.31,2.62.31,2.62v.05c.03.19.05.41-.12.6l.1.85,1.96-.23-.1-.85c-.21-.14-.25-.36-.27-.55v-.05s-.31-2.62-.31-2.62v-.05c-.03-.19-.05-.41.12-.6l-.1-.85-1.96.23.1.85c.21.14.25.36.27.55Z"/>
            <path class="cls-7" d="M98.59,107.76c.33-.44.29-.84.2-1.39l-.38-2.16c-.09-.52-.21-1-.7-1.26-.44-.23-1-.13-1.45-.05,0,0-1.87.33-2.38.41l.14.83c.23.1.29.31.32.48,0,0,.49,2.81.49,2.81.02.15.04.38-.14.56l.14.83,2.43-.42c.53-.09,1-.2,1.32-.63ZM96.72,107.5l-.14.02-.13.02-.02-.13-.57-3.3-.02-.13.13-.02.14-.02c.23-.04.39-.02.51.07.16.12.22.33.25.51l.38,2.18c.09.5-.06.72-.52.8Z"/>
            <path class="cls-7" d="M106.31,106.03c.19-.33.22-.74.08-1.27l-.61-2.39c-.3-1.16-1-1.48-2.42-1.12-.79.2-1.26.48-1.49.87-.19.33-.22.74-.08,1.27l.61,2.39c.3,1.16,1,1.48,2.42,1.12.79-.2,1.26-.48,1.49-.87ZM104.86,105.71c-.06.11-.16.18-.29.21-.13.03-.26.02-.36-.04-.09-.05-.2-.16-.26-.41,0,0-.66-2.57-.66-2.57-.06-.23-.02-.38.03-.47.06-.11.16-.18.3-.21.14-.03.26-.02.36.04.09.05.2.16.26.4,0,0,.66,2.57.66,2.58.06.24.02.39-.03.48Z"/>
          </g>
          <g>
            <path class="cls-7" d="M33.99,109.47l-1.11,2.87-1.72-.67.43-1.1s.32-.82-.26-1.05c-.57-.23-.92.64-.92.64l-2.09,5.36s-.43.95.15,1.22c.64.31,1.04-.83,1.04-.83l.57-1.46,1.71.67-1.38,3.52s-1.27.83-2.82.11c-1.55-.72-1.77-2.09-1.14-3.73l2.25-5.76s.99-2.68,3.16-1.92c1.6.56,1.97,1.85,2.14,2.13Z"/>
            <path class="cls-7" d="M34.4,111.28s.53-1.05.83-1.36c.31-.31,1-1.02,2.51-.49,1.5.53,1.63,1.5,1.63,1.5,0,0,.21,1.04-.09,1.97l-1.93,5.76s-.46,1.17-.83,1.6c-.37.43-1,1.31-2.75.66-1.75-.65-1.63-1.91-1.63-1.91,0,0,.01-1.17.34-2.12l1.92-5.63ZM34.23,117.83s-.24.87.27,1.03c.72.22.97-.67.97-.67l1.88-5.59s.26-.87-.32-1.06c-.57-.2-.89.62-.89.62l-1.91,5.67Z"/>
            <path class="cls-7" d="M40.95,110.74l2.09.57-.23,5.61.33.1.78-2.76s.15-.4-.04-.77l.51-1.8,1.91.53-.51,1.81s-.34.29-.44.66l-2.46,8.74-1.83-.53.13-5.58-.34-.11-.76,2.7s-.13.45.04.77l-.51,1.81-1.85-.54.5-1.79s.24-.04.43-.62l1.75-6.13s.18-.56-.01-.91l.51-1.79Z"/>
            <path class="cls-7" d="M51.91,114.37l-.57,2.5-1.74-.38.12-.64s.24-.82-.43-.99c-.59-.15-.82.71-.82.71,0,0-.38.98.43,1.53.81.55,2.05,1.3,1.83,3.09-.22,1.8-.53,2.62-.99,3.35-.46.73-1.32,1.45-2.76,1.03-1.74-.5-2.07-1.65-2.07-1.65l.66-2.91,1.82.42-.2.92s-.2.95.44,1.09c.64.13.82-.71.82-.71,0,0,.56-1.43-.48-2.07-1.04-.64-2.18-1.41-1.54-3.99.66-2.65,1.52-3.45,3.62-2.87,1.27.35,1.85,1.58,1.85,1.58Z"/>
            <path class="cls-7" d="M90.46,116.2l.19,2.55-1.77.15-.07-.64s-.02-.86-.7-.82c-.6.03-.57.92-.57.92,0,0-.07,1.05.86,1.33.93.29,2.35.63,2.67,2.41.32,1.78.27,2.66.05,3.49-.23.84-.83,1.77-2.34,1.8-1.81.04-2.46-.97-2.46-.97l-.23-2.98,1.86-.14.08.93s.1.97.74.91c.65-.06.57-.92.57-.92,0,0,.11-1.53-1.07-1.83-1.18-.3-2.5-.7-2.65-3.35-.15-2.73.43-3.74,2.61-3.82,1.32-.04,2.23.96,2.23.96Z"/>
            <path class="cls-7" d="M54.04,113.92l2.9.51-.45,9.01s-.04.76.18.93l-.32,1.82-2.51-.44.31-1.83s.51-.16.44-1.22l-1.42-.27s-.4,1.02,0,1.36l-.32,1.8-2.15-.39.32-1.83s.22-.1.44-.78l2.58-8.66ZM53.6,120.51l1.19.22.27-4-.35-.06-1.1,3.84Z"/>
            <path class="cls-7" d="M92.44,115.11l2.92-.37,2.25,8.74s.19.73.45.83l.24,1.83-2.52.33-.25-1.84s.44-.3.06-1.3l-1.43.17s-.08,1.09.4,1.3l.23,1.81-2.17.27-.24-1.85s.18-.16.19-.88l-.11-9.03ZM93.98,121.54l1.2-.14-.93-3.9-.36.05.09,3.99Z"/>
            <path class="cls-7" d="M58.89,114.71l3.4.43s1.97.01,1.59,3.16l-.72,5.72s-.27,2.98-2.36,2.73l-3.36-.43.23-1.82s.28-.01.4-.92l.77-6.03s.13-.72-.18-1.02l.23-1.82ZM59.92,124.45l.42.05c.89.11.94-1.04.94-1.04l.62-4.9c.16-1.33-.67-1.3-.67-1.3l-.39-.04-.92,7.23Z"/>
            <path class="cls-7" d="M64.81,118.22s.09-3.1,2.72-2.96c2.89.16,2.42,3.12,2.42,3.12l-.44,6s-.02,3.27-2.82,3.08c-2.61-.17-2.32-3.3-2.32-3.3l.45-5.94ZM66.3,124.25s-.16.89.54.95c.7.06.73-.94.73-.94l.44-5.88s-.05-.88-.59-.92c-.54-.04-.68.81-.68.81l-.44,5.98Z"/>
            <path class="cls-7" d="M109.97,114.96s-.97-2.95,1.54-3.71c2.77-.84,3.34,2.1,3.34,2.1l1.64,5.79s1.1,3.08-1.6,3.86c-2.51.73-3.31-2.31-3.31-2.31l-1.61-5.74ZM113.43,120.11s.16.89.83.71c.68-.18.37-1.14.37-1.14l-1.6-5.68s-.35-.81-.86-.66c-.52.15-.37.99-.37.99l1.63,5.77Z"/>
            <path class="cls-7" d="M122.03,111.26s-1.29-2.82,1.13-3.85c2.66-1.13,3.55,1.73,3.55,1.73l2.26,5.58s1.43,2.94-1.17,4.01c-2.41,1-3.54-1.94-3.54-1.94l-2.22-5.53ZM126.03,116.01s.25.87.9.62c.65-.25.24-1.17.24-1.17l-2.21-5.47s-.43-.77-.93-.56c-.5.21-.26,1.03-.26,1.03l2.25,5.56Z"/>
            <path class="cls-7" d="M70.89,115.84l2.45.06-.05,1.9s-.26.13-.28.79l-.2,6.85h.42s.75.1.79-.95l.09-2.32,1.64.05-.15,5.47-5.04-.13.04-1.88s.27-.04.29-.86l.18-6.25s.06-.5-.23-.84l.05-1.87Z"/>
            <path class="cls-7" d="M76.67,115.9l5.21-.09.05,3.71-1.74.02-.05-.73s-.01-.78-.7-.78h-.51l.05,2.58,1.46-.02.04,1.97-1.46.02.04,2.82h.43s.77-.04.77-.86v-.97s1.75-.04,1.75-.04l.06,3.99-5.2.07-.04-1.86s.24-.07.24-.94l-.09-6.16s.04-.59-.28-.87l-.04-1.87Z"/>
            <path class="cls-7" d="M97.34,114.44l3.31-.61s1.77-.35,2.34,1.98c.58,2.39.59,3.07.59,3.07,0,0,.53,2.65-1.36,3.03l-1.3.26.12.68s.09.64.4.84l.34,1.83-2.4.43-.34-1.85s.22-.16.1-.94l-1.09-6.04s-.06-.6-.4-.87l-.32-1.82ZM100.56,120.03l.55-.11c.73-.16.48-1.24.48-1.24,0,0-.18-1.33-.39-2.02-.21-.68-.84-.6-.84-.6l-.49.1.7,3.86Z"/>
            <path class="cls-7" d="M103.25,113.42l3.28-.77s1.75-.44,2.43,1.87c.69,2.36.73,3.04.73,3.04,0,0,.65,2.63-1.21,3.09l-1.28.32.16.68s.12.63.44.82l.43,1.82-2.37.54-.43-1.83s.21-.17.05-.95l-1.38-5.98s-.09-.6-.44-.85l-.4-1.8ZM106.73,118.85l.54-.14c.73-.19.42-1.26.42-1.26,0,0-.25-1.32-.49-2-.24-.67-.87-.56-.87-.56l-.48.12.88,3.83Z"/>
            <path class="cls-7" d="M114.93,110.55l3.42-1.12s1.3-.48,2.08.92c.78,1.39.86,2.27.86,2.27,0,0,.43,1.31-.44,1.97l.1.28s.95-.12,1.35,1.03c.39,1.15.5,1.47.5,1.47,0,0,.21.65.56.76l.59,1.76-2.02.67s-.46-.99-.77-1.94l-.5-1.5s-.39-.97-1.09-.73l-.34.12.64,1.92s.18.55.49.68l.6,1.77-2.3.78-.61-1.76s.21-.15-.04-.89l-1.98-5.97s-.09-.49-.5-.71l-.59-1.77ZM118.57,114.59l.5-.17c.55-.2.46-.83.42-1.01-.05-.18-.13-.7-.46-1.28-.33-.59-.86-.43-.86-.43l-.51.18.92,2.71Z"/>
          </g>
        </g>
        <g>
          <g>
            <g>
              <path class="cls-7" d="M23.11,87.29l-2.63,1.53,3.29,4.86,13.02,1.93c-.83-1.61-1.62-3.24-2.35-4.86l-11.33-3.45Z"/>
              <path class="cls-7" d="M24.76,78.09l-4.55,1.04,3.34,6.65,10.05,3.06c-1.08-2.51-2.05-5.03-2.9-7.54l-5.95-3.21Z"/>
              <path class="cls-7" d="M37.66,97.26l-14-2.02-2.08,2.25,3.29,3.23,14.49-.42c-.18-.32-.37-.64-.55-.96-.39-.69-.77-1.39-1.14-2.08Z"/>
            </g>
            <g>
              <path class="cls-7" d="M132.16,87.29l2.63,1.53-3.29,4.86-13.02,1.93c.83-1.61,1.62-3.24,2.35-4.86l11.33-3.45Z"/>
              <path class="cls-7" d="M130.52,78.09l4.55,1.04-3.34,6.65-10.05,3.06c1.08-2.51,2.05-5.03,2.9-7.54l5.95-3.21Z"/>
              <path class="cls-7" d="M117.61,97.26l14-2.02,2.08,2.25-3.29,3.23-14.49-.42c.18-.32.37-.64.55-.96.39-.69.77-1.39,1.14-2.08Z"/>
            </g>
          </g>
          <g>
            <path class="cls-7" d="M40.79,102.73c-.06-.1-.12-.19-.18-.29l-9.67,2.22c3.72,1.5,7.53,2.8,11.42,3.92l-2.43-3.91.87-1.94Z"/>
            <path class="cls-7" d="M112.72,108.63c3.95-1.14,7.83-2.46,11.61-3.98l-9.67-2.22c-.09.15-.18.29-.27.44l.8,1.79-2.47,3.97Z"/>
          </g>
          <g>
            <path class="cls-7" d="M49.6,107.9c-2.69-.74-5.25-1.58-7.64-2.54l2.39,3.75c2.22.58,4.63,1.16,7.21,1.69l-1.96-2.9Z"/>
            <path class="cls-7" d="M113.16,105.36c-2.39.96-4.96,1.8-7.64,2.54l-1.98,2.93c2.58-.53,4.99-1.1,7.21-1.69l2.41-3.79Z"/>
          </g>
          <g>
            <path class="cls-7" d="M106.75,24.33l-5.39-8.58c2.19-.75,5.08-2.81,5.64-3.55-1.32.25-3.32,1.07-9.12.84,2.18-.61,9-3.85,11.07-7.45-1.17.31-4.68,1.11-8.84,1.11-5.81,0-6.58-2.21-22.48-2.21s-16.67,2.21-22.48,2.21c-4.16,0-7.67-.8-8.84-1.11,2.07,3.6,8.89,6.84,11.07,7.45-5.8.22-7.8-.6-9.12-.84.56.74,3.46,2.8,5.64,3.55l-5.39,8.58-20.11,5.39v26.88c0,12.9,4.35,27.72,12.24,41.71.39.69.8,1.38,1.21,2.07l1-2.24c-2.37-4.13-4.42-8.28-6.12-12.41-.43-1.04-.84-2.07-1.22-3.11-1.77-4.75-3.08-9.43-3.93-13.97h0c-.78-4.17-1.18-8.21-1.18-12.07v-25.34l19.46-5.21,27.78,16.03,27.78-16.03,19.24,5.15-47.02,27.13v3.81l47.25-27.26v16.24l-47.25,27.26v3.81l47.25-27.26v1.67c0,4.96-.66,10.24-1.95,15.69l-45.3,26.14v3.81l44.09-25.44c-2.08,6.99-5.18,14.2-9.28,21.33l.89,2.39c.44-.73.87-1.46,1.29-2.2,7.89-14,12.24-28.81,12.24-41.71v-26.88l-20.11-5.39Z"/>
            <path class="cls-7" d="M86.28,129.64c-2.74,2.37-5.62,4.67-8.64,6.88-3.02-2.2-5.9-4.5-8.64-6.87,0,0-1.39-.08-3.28-.23,3.41,3.08,6.99,5.99,10.74,8.72l1.17.86,1.17-.86c3.74-2.73,7.33-5.64,10.73-8.72-1.88.15-3.25.23-3.25.23Z"/>
            <path class="cls-7" d="M90.66,110.7s0,0,0,0l-4.34,2.51c2.98-.21,5.86-.52,8.61-.9l5.51-3.18c-3.13.67-6.41,1.19-9.79,1.57Z"/>
          </g>
        </g>
        <g>
          <g>
            <path class="cls-6" d="M74.91,21.99c-6.03,1.53-6.98,1.49-10.1.41-3.12-1.08-3.64-3.93-2.01-7.15l12.11,6.74Z"/>
            <path class="cls-6" d="M80.34,21.99c6.03,1.53,6.98,1.49,10.1.41,3.12-1.08,3.64-3.93,2.01-7.15l-12.11,6.74Z"/>
          </g>
          <g>
            <path class="cls-6" d="M124.66,31.2l-19.24-5.15-27.78,16.03-46.07,26.59c.85,4.54,2.16,9.22,3.93,13.97.39,1.03.79,2.07,1.22,3.11l40.91-23.61v-3.81l47.02-27.13Z"/>
            <g>
              <path class="cls-6" d="M86.28,129.64c-2.86.17-5.74.25-8.64.25s-5.78-.09-8.64-.25c2.74,2.37,5.61,4.67,8.64,6.87,3.02-2.2,5.9-4.5,8.64-6.88Z"/>
              <path class="cls-6" d="M103.2,108.5c-.9.22-1.82.43-2.75.63l-5.62,3.24c.38-.05.75-.09,1.13-.15.15-.02.3-.04.45-.06,1.13-.17,2.26-.34,3.39-.54.05,0,.1-.02.14-.03.45-.08.9-.17,1.35-.26l1.91-2.83Z"/>
            </g>
            <g>
              <path class="cls-6" d="M77.64,102.24v-3.81l45.3-26.14c1.3-5.45,1.95-10.73,1.95-15.69v-1.67l-76.2,43.97c7.89,2.59,17.44,4.03,27.56,4.15l1.39-.8Z"/>
              <path class="cls-6" d="M63.24,110.55c-3.94-.49-7.75-1.17-11.33-2.05l1.89,2.8c.52.1,1.03.2,1.54.29.04,0,.07.01.11.02,1.09.19,2.18.36,3.28.52.21.03.41.06.62.09.26.04.53.07.8.1l3.09-1.78Z"/>
            </g>
          </g>
        </g>
        <g>
          <path class="cls-5" d="M49.85,26.04l-19.46,5.21v25.34c0,3.85.39,7.9,1.18,12.07l46.07-26.59-27.78-16.03Z"/>
          <path class="cls-5" d="M77.64,78.38l47.25-27.26v-16.24l-88.16,50.87c1.7,4.12,3.74,8.28,6.12,12.41l.56-1.26c1.66.73,3.42,1.4,5.27,2.01l28.96-16.71v-3.81Z"/>
          <g>
            <path class="cls-5" d="M76.24,103.04c.44,0,.89.01,1.33.01,12.52,0,24.2-2.03,33.1-5.73.35-.14.88-.41,1.22-.56l.55,1.36c4.1-7.13,7.2-14.34,9.28-21.33l-44.09,25.44h0s-1.39.8-1.39.8Z"/>
            <path class="cls-5" d="M77.58,111.42c-4.92,0-9.72-.31-14.34-.88l-3.09,1.78c.81.11,1.61.22,2.42.31.13.02.26.03.39.04,1.14.13,2.28.25,3.42.34,0,0,0,0,0,0,1.22.1,2.44.19,3.67.26.03,0,.06,0,.09,0,2.48.14,4.98.21,7.49.21s5.01-.07,7.49-.21c.02,0,.05,0,.07,0,.37-.02.74-.05,1.11-.08l4.36-2.52c-4.23.48-8.62.72-13.09.72Z"/>
          </g>
        </g>
        <g>
          <path class="cls-7" d="M68.95,57.15c-.22-4.44-3.11-5.89-7.39-7.2-3.7-1.14-5.53-2.11-5.67-4.93-.13-2.48,1.42-4.19,3.83-4.31,3.66-.19,5.49,3.11,6.5,5.13l.94-.61-2.7-7.49c-.2,2.32-1.28,2.43-1.54,2.44-.31.02-.6-.04-1.45-.26-.55-.14-1.42-.29-2.14-.26-2.89.15-5.62,2.84-5.41,6.98.26,5.2,4.58,6.58,6.7,7.23,3.47,1.12,5.9,2.09,6.04,4.81.11,2.25-1.45,4.79-4.14,4.93-2.52.13-5.75-.24-8.74-1.4,2.68-2.07,4.64-4.81,5.12-5.79l-.57-.56c-1.86,2.4-4.05,4.4-6.47,5.49-2.5-1.27-4.63-2.89-6.61-5.49l-.6.61c1.24,2.09,2.92,4.08,5.15,5.73-1.13.31-2.12.44-3.59.52-5.06.28-8-5.87-8.38-11.47-.17-2.52.08-5.59.93-7.41,1.03-2.2,2.69-3.11,4.17-3.21,1.74-.12,3.31.94,4.28,1.8,1.37,1.2,2.02,2.29,2.67,3.41l.95-.61-2.87-7.48c-.04,1.06-.33,1.72-.73,2.09-.19.17-.49.32-.75.34-.29.02-.73.02-1.52-.22-.82-.24-1.66-.35-2.52-.29-4.97.34-8.27,7.16-7.8,14.14.54,7.91,5.49,11.49,9.99,11.66,2.68.1,5.08-.63,7.13-1.77,1.66,1.3,2.91,2.08,2.91,2.08.63-.68,1.19-1.39,2.91-1.23.32.03.75.07,1.85.29,1.22.25,2.77.12,3.48.08,2.92-.15,6.24-3.14,6-7.78Z"/>
          <g>
            <polygon class="cls-7" points="48.73 88.43 45.33 88.82 44.81 85.6 44.3 88.82 40.9 88.43 43.98 89.8 42.39 93.02 44.81 90.41 47.24 93.02 45.65 89.8 48.73 88.43"/>
            <polygon class="cls-7" points="56.18 84.12 52.78 84.52 52.27 81.29 51.75 84.52 48.35 84.12 51.43 85.5 49.84 88.72 52.27 86.1 54.69 88.72 53.1 85.5 56.18 84.12"/>
            <polygon class="cls-7" points="63.63 79.82 60.23 80.22 59.72 76.99 59.21 80.22 55.81 79.82 58.89 81.2 57.29 84.42 59.72 81.8 62.15 84.42 60.56 81.2 63.63 79.82"/>
            <polygon class="cls-7" points="71.09 75.52 67.69 75.92 67.17 72.69 66.66 75.92 63.26 75.52 66.34 76.89 64.75 80.12 67.17 77.5 69.6 80.12 68.01 76.89 71.09 75.52"/>
            <polygon class="cls-7" points="78.54 71.22 75.14 71.61 74.63 68.39 74.11 71.61 70.72 71.22 73.79 72.59 72.2 75.81 74.63 73.2 77.05 75.81 75.46 72.59 78.54 71.22"/>
            <polygon class="cls-7" points="86 66.91 82.6 67.31 82.08 64.09 81.57 67.31 78.17 66.91 81.25 68.29 79.66 71.51 82.08 68.9 84.51 71.51 82.92 68.29 86 66.91"/>
            <polygon class="cls-7" points="93.45 62.61 90.05 63.01 89.54 59.78 89.02 63.01 85.62 62.61 88.7 63.99 87.11 67.21 89.54 64.59 91.96 67.21 90.37 63.99 93.45 62.61"/>
            <polygon class="cls-7" points="100.9 58.31 97.5 58.71 96.99 55.48 96.48 58.71 93.08 58.31 96.16 59.68 94.56 62.91 96.99 60.29 99.42 62.91 97.82 59.68 100.9 58.31"/>
            <polygon class="cls-7" points="108.36 54.01 104.96 54.4 104.44 51.18 103.93 54.4 100.53 54.01 103.61 55.38 102.02 58.6 104.44 55.99 106.87 58.6 105.28 55.38 108.36 54.01"/>
            <polygon class="cls-7" points="115.81 49.71 112.41 50.1 111.9 46.88 111.38 50.1 107.98 49.71 111.06 51.08 109.47 54.3 111.9 51.69 114.32 54.3 112.73 51.08 115.81 49.71"/>
            <polygon class="cls-7" points="123.27 45.4 119.87 45.8 119.35 42.58 118.84 45.8 115.44 45.4 118.52 46.78 116.93 50 119.35 47.39 121.78 50 120.19 46.78 123.27 45.4"/>
          </g>
        </g>
      </g>
    </g>
  </g>
</svg>