<?xml version="1.0" encoding="UTF-8"?>
<svg id="_レイヤー_2" data-name="レイヤー 2" xmlns="http://www.w3.org/2000/svg" xmlns:xlink="http://www.w3.org/1999/xlink" viewBox="0 0 426.45 440.02">
  <defs>
    <style>
      .cls-1 {
        fill: none;
      }

      .cls-2 {
        fill: #221815;
      }

      .cls-3 {
        fill: #ffe100;
      }

      .cls-4 {
        fill: #fcc800;
      }

      .cls-5 {
        fill: #2c4198;
      }

      .cls-6 {
        fill: #d7000f;
      }

      .cls-7 {
        fill: #fff;
      }

      .cls-8 {
        clip-path: url(#clippath);
      }
    </style>
    <clipPath id="clippath">
      <path class="cls-1" d="M390.94,215.04c.07-12.49-5.34-22.53-15.6-29.03-.69-.44-1.39-.87-2.1-1.27-.77-.43-1.55-.85-2.34-1.22-11.64-5.67-23.69-4.48-34.15-2.53-5.83,1.33-9.45,2.5-11.74,3.46-1.46-1.46-3.03-2.84-4.74-4.07-.97-.67-6.37-4.22-14.15-5.76-.48-2.23-.98-3.96-1.26-4.88-.01-.05-.23-.79-.25-.84-1.29-3.88-4.26-11.63-9.68-19.9-6.8-10.34-15.02-17.72-24.49-21.96-15.15-6.65-29.01-3.93-42.64,8.55-6.19,6.4-11.53,14.18-15.87,23.1-.54,1.11-4.52,10.56-4.96,11.86-1.56,4.27-6.56,19.27-5.14,33.03.89,10.47,5.87,20.97,13,27.42.12.11.54.44.67.53,7.94,6.03,16.67,9.07,25.99,9.07,1.13,0,2.27-.05,3.42-.13,12.05-.93,21.23-4.61,21.51-4.72,1.18-.45,2.22-.93,3.33-1.4,3.32,4.59,7.6,8.48,12.65,11.05,6.29,3.17,11.23,4.29,15.81,4.29.67,0,1.31-.14,1.97-.18.25.54.51,1.09.92,1.73,9.83,18.52,24.19,24.87,33.25,24.47.58.03,1.17.05,1.76.05,15.78,0,33.72-11.18,44.46-28.18l.53-.88c3.53-5.77,8.87-14.5,9.85-31.66Z"/>
    </clipPath>
  </defs>
  <g id="_レイヤー_1-2" data-name="レイヤー 1">
    <g>
      <path class="cls-4" d="M426.45,222.51c0,117.76-84.41,196.43-213.22,196.43S0,340.27,0,222.51,95.46,9.28,213.22,9.28s213.22,95.46,213.22,213.22Z"/>
      <g>
        <g>
          <g>
            <path class="cls-2" d="M419.51,291.06c-1.3-.72-2.84-1.24-3.8-1.44-6.81-1.4-13.64-2.18-20.31-2.33-3.7-.09-7.16,0-10.5.16-1.79-20.11-8.09-39.31-19.27-58.27,1.62-9.72,2.12-22.36,2.53-32.66l.21-5.17c.84-18.75-5.88-43.26-14.38-52.46-2.12-2.29-5.31-4.04-8.12-4.45-21.54-3.21-49.87,5.35-81.73,24.67l-4-.59c-26.18-3.9-58.77-8.75-103.06,1.53-1.4.32-2.95.78-4.54,1.26-2.37.71-6.76,1.98-7.92,1.68-8.49-4.64-30.28-15.71-49.14-18.49-17.53-2.61-29.09.83-34.52,10.31-15.37,28.86-7.65,69.07-4.44,79.47-16,31.01-15.7,63.87-15.6,67.47,0,.84.03,1.72.04,2.58-.84.06-1.6.09-2.48.16-8.93.71-17.8,1.58-28.07,4.44-3.34.92-6.41,3.14-5.81,5.59.47,1.92,2.84,2.35,4.83,2.35,1.54,0,2.85-.25,2.89-.26,10.63-2.16,16.02-2.75,23.47-3.55l3.14-.34c.81-.09,1.61-.13,2.42-.2.81,9.68,2.85,19.99,6.48,30.18-4.44,1.67-9.56,3.89-15.71,7.07-.04.02-3.98,2.08-4.74,4.62-.23.78-.15,1.56.23,2.24.62,1.11,1.92,1.46,3.31,1.46,2.3,0,4.82-.95,4.86-.96,1.84-.81,3.57-1.58,5.21-2.31,3.72-1.66,6.96-3.05,10-4.23,3.93,8.9,9.09,17.53,15.73,25.34-6.84,3.95-15.09,9.33-24.43,16.6-1.94,1.52-3.19,3.45-3.41,5.32-.12,1.04.11,1.99.65,2.67.41.51,1.18.73,2.1.73,1.62,0,3.71-.68,5.14-1.7,10.26-7.27,19.16-12.89,26.15-17.04,7.51,7.31,16.5,13.67,27.22,18.49,35.27,15.84,67.77,19.4,108.95,20l4.04-.06,4.36.06c47.38-.69,84.81-7.46,111.26-20.11,15.35-7.34,27.56-17.24,36.7-29.54,7.64,2.61,16.9,6.62,25.83,12.66,1.14.79,3.45,2.16,5.5,2.16.92,0,1.79-.27,2.47-1.01.29-.3.61-.85.53-1.73-.17-1.86-2.22-4.46-3.56-5.43-9.12-6.66-18.29-10.95-26.01-13.74,5.25-8.67,9.17-18.37,11.72-29.12,5.64.9,12.22,2.35,19.44,4.77.04,0,2.17.71,4.26.71,1.57,0,3.11-.39,3.7-1.78.27-.63.26-1.33-.03-2.02-1.04-2.48-5.39-4.32-5.43-4.33-7.12-2.82-14.12-4.47-20.31-5.49,1.35-8.14,2-16.8,1.93-26,.02-1.57-.07-3.12-.1-4.67,2.93-.16,5.97-.26,9.16-.22,4.96.05,10.48.42,15.35.74,1.52.1,2.99.19,4.4.28,3.19.18,7.1-.41,7.57-2.73.17-.81-.11-2.03-2.36-3.29Z"/>
            <path class="cls-7" d="M354.53,229.2c1.76-9.13,2.29-22.42,2.71-33.11l.22-5.23c.76-16.97-5.67-38.25-11.49-44.55-.51-.56-1.4-.99-1.72-1.06-18.78-2.76-45.27,5.51-74.57,23.31-2.08,1.26-3.22,1.95-5.23,1.65l-5.91-.87c-25.25-3.76-56.69-8.45-98.98,1.36-1.2.27-2.52.68-3.88,1.08-5.38,1.6-11.46,3.43-16.3.79-7.98-4.35-28.38-14.75-45.5-17.28-12.59-1.85-20.45-.25-23.34,4.78-10.47,19.65-8.42,46.45-5.73,61.45.72-.85,1.42-1.62,2.07-2.27,2.63-2.63,5.32-3.6,7.16-2.33,1.91,1.32,1.15,4.66-.08,7.33-1.22,2.65-3.69,7.76-5.63,11.18,0,0,0,.01,0,.02-16.85,29.6-16.54,62.53-16.45,66.2,0,.74.03,1.51.04,2.26,9.31.02,14.99,1,17.89,1.74l.21.05c.06.01,7.62,1.41,7.18,5.05-.39,3.23-4.98,2.99-7.2,2.87l-.82-.06c-2.44-.37-8.96-1.24-16.86-1.4.79,8.79,2.71,18.09,6.01,27.25,4.52-1.04,7.71-1.28,9.83-1.4l.29-.02c2.79-.15,9.39-.25,9.73,3.07.3,2.87-4.87,4.24-7.11,4.7-1.04.21-2.16.36-3.41.53-1.75.24-3.74.52-6.09,1.02,3.77,8.24,8.76,16.15,15.14,23.24,6.63-3.22,10.45-4.4,10.53-4.42.06-.03,6.57-1.68,7.84,1.28,1.09,2.56-1.67,3.92-4.33,5.24-.85.42-1.74.86-2.55,1.35,0,0-.09.05-.26.13-1.03.51-2.75,1.4-5.02,2.62,6.17,5.56,13.32,10.43,21.71,14.2,33.54,15.07,64.84,18.46,104.46,19.04l4.04-.06,4.36.06c44.98-.67,81.88-7.25,106.54-19.04,12.36-5.91,22.38-13.54,30.17-22.9-3.71-.86-5.98-1.18-6.04-1.19-1.42-.14-5.85-1.17-7.34-3.19-.44-.61-.61-1.28-.47-1.94.75-3.62,7.32-2.9,10.09-2.43.35.03,3.75.38,9.03,1.65,5.2-7.94,9.03-16.98,11.53-27.1-2.33-.14-4.2-.17-5.48-.17-2.44.01-5.28-.05-5.28-.05-.73-.07-6.59-.76-6.82-3.68-.03-.39.05-1,.6-1.64,1.31-1.53,4.62-2.39,6.03-2.5l.31-.03c.84-.08,3.07-.3,5.31-.32h.61c1.62,0,3.81.05,6.42.22,1.29-7.68,1.93-15.9,1.86-24.74.01-1.24-.06-2.46-.09-3.69-6.85.85-12.47,1.97-16.3,2.74-1.96.39-3.38.68-4.24.78-1.38.2-2.56.3-3.55.3-2.31,0-3.58-.56-4-1.72-.29-.84-.23-1.74.18-2.59.74-1.52,2.53-2.81,5.19-3.72,2.09-.71,10.2-3.2,22.24-4.68-1.72-19.09-7.86-37.28-18.78-55.31-.7-1.15-.95-2.54-.69-3.87Z"/>
          </g>
          <g>
            <path class="cls-2" d="M115.31,310.88c-3.5,7.1-3.52,18.45,1.21,24.48,2.92,3.45,7.8,5.41,14.09,4.33,5.43-.94,8.52-5.9,9.55-9.85,2.23-8.84-.14-19.68-5.23-23.79-5.36-3.91-15.39-3.82-19.61,4.83Z"/>
            <path class="cls-2" d="M285.41,311.91c-3.5,7.1-3.52,18.45,1.21,24.48,2.92,3.45,7.8,5.41,14.09,4.33,5.43-.94,8.52-5.9,9.55-9.85,2.23-8.84-.15-19.68-5.23-23.79-5.36-3.91-15.39-3.82-19.61,4.83Z"/>
            <g>
              <path class="cls-2" d="M230.45,342.63c-1.17-4.16-4.32-7.43-8.44-8.76-7.86-2.55-15.82-1.48-20.77,2.79-5.16,4.56-5.41,12.65-2.19,16.84,2.99,3.88,7.72,5.9,14.48,6.2.31.01.63.02.94.02,5.41,0,10.44-1.98,13.31-5.27v-.02c2.83-3.28,3.82-7.69,2.67-11.81Z"/>
              <path class="cls-3" d="M219.91,340.37c-2.1-.68-4.24-1.01-6.25-1.01-3.19,0-6.05.84-7.91,2.45-2.45,2.17-2.29,6.18-1.26,7.52,1.68,2.18,4.74,3.34,9.35,3.54,4.27.17,7.46-1.38,8.79-2.9,1.34-1.56,1.79-3.55,1.24-5.49-.54-1.94-2.02-3.48-3.96-4.11Z"/>
            </g>
          </g>
        </g>
        <g>
          <g>
            <path class="cls-2" d="M174.31,400.71c-1.48-4.63-4.48-8.3-7.74-11.99-11.57-11.1-31.76-15.56-47.81-10.64-11.58,3.03-24.94,13.2-26.89,28.3-1.79,11.76,2.42,22.06,11.65,27.76,9.31,4.78,19.42,4.67,29.7-.17.87-.33,1.3-.24,3.57.72,1.42.61,3.17,1.34,5.28,1.7,3.57,1.03,6.76,1.46,9.57,1.46,7.46,0,12.38-3.02,15.44-6.04,7.97-7.84,10.94-20.61,7.23-31.1Z"/>
            <path class="cls-7" d="M163.98,404.29c-.03-.07-.05-.13-.07-.2-.83-2.65-3.05-5.31-5.25-7.82-8.41-8.05-24.41-11.47-36.92-7.67-8.41,2.21-17.79,9.67-19.04,19.29-.55,3.62-1.01,12.25,6.19,16.72,5.93,3.02,12.4,2.87,20-.7,1.9-.75,3.63-1.02,5.19-1.02,2.92,0,5.24.98,6.98,1.72,1.12.47,2.08.88,2.97,1.01.27.04.53.09.78.17,6.51,1.94,11.44,1.34,14.59-1.78,4.91-4.82,6.87-13.3,4.58-19.71Z"/>
          </g>
          <g>
            <path class="cls-2" d="M338.19,408.66c-1.98-15.21-15.33-25.39-26.69-28.34-16.27-4.97-36.47-.53-48.34,10.91-2.82,3.2-5.95,7-7.44,11.65-3.71,10.49-.74,23.27,7.22,31.1,3.07,3.03,8,6.05,15.45,6.05,2.81,0,5.99-.43,9.57-1.46,2.11-.36,3.85-1.1,5.28-1.7,2.29-.98,2.71-1.06,3.23-.88,10.61,5,20.73,5.1,30.44.1,8.83-5.48,13.04-15.78,11.27-27.43Z"/>
            <path class="cls-7" d="M327.35,410.19c-1.27-9.74-10.64-17.21-18.84-19.34-3.53-1.08-7.32-1.6-11.13-1.6-9.92,0-20.02,3.48-26.32,9.53-1.88,2.17-4.1,4.83-4.94,7.48-.02.07-.04.13-.07.2-2.29,6.41-.33,14.89,4.56,19.7,3.17,3.11,8.06,3.72,14.6,1.78.25-.07.51-.13.78-.17.89-.13,1.85-.53,2.97-1.01,2.67-1.14,6.69-2.83,11.82-.85,7.93,3.73,14.41,3.88,20.73.63,6.81-4.24,6.35-12.88,5.82-16.38Z"/>
          </g>
        </g>
        <g>
          <g class="cls-8">
            <g>
              <rect class="cls-4" x="172.43" y="61.53" width="179.49" height="250.26" transform="translate(-17.8 345.38) rotate(-65)"/>
              <path class="cls-5" d="M351.77,129.6s-.07-.06-.11-.05c-23.62,2.55-47.84,20.84-57.2,26.11,19.86-5.83,51.77-2.21,68.88-3.96,10.53-1.08,20.71-2.43,28-3.65l-39.56-18.45Z"/>
              <path class="cls-5" d="M158.78,195.19s27.61-25.44,71.83-31.96c28.14-4.15,37.57,2.7,53.24,1.53,18.19-1.35,35.15-8.64,54.44-6.88,7.48.68,17.05,2.91,17.05,2.91,0,0-16.56,2.71-37.22,16.01-12.89,8.3-19.79,14.42-34.14,14.57-22.27.23-30.44-9.12-45.3-11.25-30.41-4.37-31.46,7.62-31.46,7.62,0,0,1.33-5.08,21.84,9.46,42.16,29.89,66.8,3.18,93.01-11.47,38.74-21.65,86.79-17.68,86.79-17.68l-48.21,103.39s-41.78-34.02-75.65-18.34c-46.58,21.55-71.76-.39-71.76-.39,0,0,5.88.98,19.55-6.27,17.06-9.05,28.8-17.2,66.47-15.21,44.38,2.35,56.46-20.64,56.46-20.64,0,0-21.43.59-32.95,5.8-39.36,17.8-65.36,7.84-83.5,1.98-33.33-10.75-49.56-36.01-80.5-23.19Z"/>
              <rect class="cls-1" x="172.43" y="61.53" width="179.49" height="250.26" transform="translate(-17.8 345.38) rotate(-65)"/>
            </g>
          </g>
          <path class="cls-2" d="M390.94,215.04c.07-12.49-5.34-22.53-15.6-29.03-.69-.44-1.39-.87-2.1-1.27-.77-.43-1.55-.85-2.34-1.22-11.64-5.67-23.69-4.48-34.15-2.53-5.83,1.33-9.45,2.5-11.74,3.46-1.46-1.46-3.03-2.84-4.74-4.07-.97-.67-6.37-4.22-14.15-5.76-.48-2.23-.98-3.96-1.26-4.88-.01-.05-.23-.79-.25-.84-1.29-3.88-4.26-11.63-9.68-19.9-6.8-10.34-15.02-17.72-24.49-21.96-15.15-6.65-29.01-3.93-42.64,8.55-6.19,6.4-11.53,14.18-15.87,23.1-.54,1.11-4.52,10.56-4.96,11.86-1.56,4.27-6.56,19.27-5.14,33.03.89,10.47,5.87,20.97,13,27.42.12.11.54.44.67.53,7.94,6.03,16.67,9.07,25.99,9.07,1.13,0,2.27-.05,3.42-.13,12.05-.93,21.23-4.61,21.51-4.72,1.18-.45,2.22-.93,3.33-1.4,3.32,4.59,7.6,8.48,12.65,11.05,6.29,3.17,11.23,4.29,15.81,4.29.67,0,1.31-.14,1.97-.18.25.54.51,1.09.92,1.73,9.83,18.52,24.19,24.87,33.25,24.47.58.03,1.17.05,1.76.05,15.78,0,33.72-11.18,44.46-28.18l.53-.88c3.53-5.77,8.87-14.5,9.85-31.66ZM262.41,225.56c-.08.03-8.08,3.2-18.37,4-11.87.91-19.45-4.85-21.88-6.66-5-4.53-8.79-12.66-9.45-20.34-1.18-11.51,3.16-24.52,4.61-28.48.39-1.06,3.95-9.57,4.44-10.59,3.84-7.9,8.52-14.72,13.66-20.06,10.24-9.38,19.41-11.29,30.57-6.38,7.49,3.35,14.15,9.4,19.77,17.96,4.92,7.49,7.54,14.61,8.32,16.9l.28.99c.1.33.23.76.37,1.26-3.12.38-6.39,1.21-9.76,2.67-.86.37-1.62.86-2.44,1.29-1.82-1.99-4.05-3.77-6.3-5.03-6.73-3.79-14.11-3.84-20.25-.13-6.59,4-10.46,11.71-9.86,19.44.23,6.03,2.69,11.16,7.12,14.82,2.87,2.37,6.27,3.78,9.4,4.6,0,.53-.07,1.05-.06,1.58.03,3.82.78,7.6,2.04,11.21-.76.31-1.43.63-2.24.94ZM264.12,200.88c-1.43-.51-2.96-1.24-4.22-2.39-1.79-1.63-2.7-3.75-2.82-6.7-.29-3.87,1.51-7.58,4.61-9.47,2.17-1.32,4.47-1.53,7.04-.66,2.02.68,3.67,1.86,4.9,2.98-4.48,4.46-7.75,9.99-9.5,16.23ZM306.89,237.26c-7.63,2.01-11.53,2.43-19.54-1.62-8.18-4.17-13.72-13.13-13.78-22.46-.43-11.82,5.62-21.89,15.78-26.29,3.44-1.49,6.75-2.05,9.77-2.05,8.05,0,14.03,3.93,14.85,4.49,9.03,6.49,13.34,17.88,10.69,28.51-2.49,11.49-10.8,17.57-17.75,19.43ZM371.63,241.2l-.6,1.01c-8.69,13.74-23.71,23.26-36.56,22.57-6.52.09-15.93-5.16-23.02-17.53,4.14-1.36,8.46-3.71,12.35-7.14,1.96,1.41,4.3,2.61,7,3.2,1.02.22,2.2.38,3.49.38,3.21,0,7.18-.98,11.47-4.38,4.81-4.81,6.43-10.35,4.84-17.49-2.82-8.54-9.53-11.12-14.31-12.03-.27-5.63-1.81-11.14-4.48-16.14,2.05-.65,4.64-1.36,7.15-1.94,8.49-1.57,18.35-2.62,27.19,1.67.59.28,1.14.58,1.7.89.53.3,1.04.61,1.59.96,7.15,4.53,10.61,10.99,10.57,19.46-.82,14.14-4.94,20.88-8.38,26.5ZM335.17,220.77c2.53.62,4.13,1.7,4.89,3.94.65,2.96.13,4.69-1.56,6.43-1.71,1.35-3.44,1.83-5.18,1.51-.94-.17-1.76-.57-2.49-1,1.88-3.16,3.39-6.77,4.33-10.89Z"/>
        </g>
      </g>
    </g>
    <g>
      <path class="cls-1" d="M148.11,23.45h-3.2c-9.4,0-17.09-4.51-26-9.73C107.95,7.29,95.52,0,77.34,0s-30.61,7.29-41.57,13.72c-8.91,5.22-16.6,9.73-26,9.73h-5.21l.06,2,.09,3.2s.59,18.23.59,18.23c.36,10.49,2.4,20.74,6.07,30.45,3.58,9.47,8.61,18.2,14.94,25.94,6.35,7.76,13.83,14.28,22.21,19.39,8.64,5.26,18.01,8.88,27.86,10.76l.58.11.36.07.36-.07.58-.11c9.85-1.87,19.22-5.49,27.86-10.76,8.39-5.11,15.86-11.64,22.21-19.39,6.34-7.74,11.37-16.46,14.94-25.94,3.67-9.72,5.71-19.96,6.07-30.45l.59-18.23s.09-3.2.09-3.2l.06-2h-2.01Z"/>
      <path class="cls-5" d="M7.25,46.81c-.38-11.07-.59-18.15-.59-18.22l-.09-3.2h3.2c9.93,0,17.83-4.63,26.98-10C47.5,9.09,59.69,1.95,77.34,1.95s29.84,7.15,40.59,13.45c9.15,5.37,17.05,10,26.98,10h3.2l-.09,3.2c0,.07-.21,7.14-.59,18.22-.35,10.28-2.35,20.31-5.95,29.83-3.5,9.28-8.43,17.82-14.63,25.39-6.21,7.59-13.52,13.97-21.72,18.96-8.44,5.14-17.59,8.68-27.21,10.51l-.58.11-.58-.11c-9.62-1.83-18.77-5.37-27.21-10.51-8.2-5-15.51-11.38-21.72-18.96-6.2-7.57-11.12-16.12-14.63-25.39-3.6-9.52-5.6-19.56-5.95-29.83Z"/>
      <path class="cls-7" d="M114.97,20.44c-10.6-6.22-21.57-12.65-37.63-12.65s-27.03,6.43-37.63,12.65c-8.69,5.09-16.93,9.93-27.12,10.69.09,3.03.26,8.44.51,15.48.65,18.99,7.49,37.35,19.26,51.72,5.79,7.07,12.6,13.02,20.24,17.68,7.68,4.68,16.01,7.93,24.75,9.65,8.74-1.73,17.06-4.97,24.75-9.65,7.64-4.65,14.45-10.6,20.24-17.68,11.77-14.37,18.61-32.74,19.26-51.72.24-7.04.41-12.45.51-15.48-10.19-.77-18.44-5.6-27.12-10.69Z"/>
      <path class="cls-5" d="M140.6,32.45l-.46,14.11c-.64,18.67-7.36,36.73-18.93,50.85-5.69,6.95-12.38,12.79-19.87,17.36-7.45,4.54-15.52,7.7-23.99,9.41-8.48-1.71-16.55-4.87-23.99-9.41-7.5-4.57-14.18-10.41-19.87-17.36-11.57-14.12-18.29-32.18-18.93-50.85l-.46-14.11c9.88-1.1,17.9-5.79,26.36-10.76,10.44-6.12,21.23-12.45,36.9-12.45s26.46,6.33,36.9,12.45c8.47,4.97,16.48,9.66,26.36,10.76Z"/>
      <g>
        <path class="cls-6" d="M98.63,40.61c-4.71-2.83,1.37-13.77,9.51-19.63-4.34-.38-11.43,4.54-17.72,9.63-6.37,5.14-13.66,5.98-14.71,3.19-.71-1.89,1.18-9.81,24.44-18.69-1.03-.46-2.07-.89-3.14-1.3-3.13,1.33-6.5,2.5-10.18,3.4-6.32,1.54-47.23,14.73-66.97,53.79,0,0,0,.01,0,.01,6.47-7.02,22.07-12.29,26.93-6.41,3.04,3.68-3.25,6.61-.54,9.43,2.95,3.08,12.29-.14,16.65-2.66,2.36-1.36,6.45-3.85,6.45-6.95,0-5.45-9.05-9.89-11.98-10.89-4.53-1.55-7.54-1.09-8.09,1.17-4.4-5.74.84-11.61,8.92-12.44,1.01-1.36,3.04-2.3,5.28-2.62,6.28-.88,19.17.63,22.18.38-1.16,1.13-3.46,2.39-3.46,2.39,5.59,1.38,14.33,5.09,20.8,6.22-1.17.8-4.9,1.93-4.9,1.93,15.41,6.1,30.65,4.13,41.16-3.94,0-.03,0-.06,0-.08l.44-13.34c-5.39-.71-10.22-2.45-14.88-4.69-12.36,11.93-22.52,14.31-26.21,12.1Z"/>
        <path class="cls-6" d="M67.43,105.45c-7.55,0-14.15,1.23-20.52,3.85,1.67,1.29,3.38,2.5,5.15,3.65,4.4-3.83,9.91-5.9,15.37-7.5Z"/>
        <path class="cls-6" d="M100.89,114.05c7.41-4.52,14.03-10.29,19.66-17.17,2.35-2.87,4.49-5.91,6.42-9.08-4.08,3.12-8.5,6.25-15.43,10.98-4.56,3.11-13.19,6.44-19,8.36-7,2.31-14.3,9.5-15.12,16.16,8.29-1.7,16.19-4.81,23.48-9.25Z"/>
      </g>
      <g>
        <path class="cls-4" d="M99.85,39.27c2.64,1.84,10.27-1.17,16.97-8.3,1.42-1.51,2.72-3.04,3.92-4.58-1.56-.85-3.11-1.74-4.68-2.65-.41.3-.84.61-1.32.93-3.17,2.15-6.21,3.71-10.79,6.84-4.09,2.79-5.97,6.45-4.11,7.75Z"/>
        <path class="cls-4" d="M79.11,32.86c.85.99,8.23-.51,18.02-11.27,2.09-2.3,4.45-3.74,6.83-4.67-.52-.26-1.05-.52-1.58-.78-3.08.91-6.04,1.86-8.75,2.96-11.5,4.71-16.12,11.89-14.52,13.75Z"/>
        <path class="cls-4" d="M19.3,69.25c-2.3-7.3-3.64-14.95-3.9-22.71,0,0-.34-10.38-.44-13.33,9.71-1.27,17.59-5.89,25.92-10.78,10.34-6.06,21.03-12.33,36.47-12.33,2.16,0,4.22.13,6.2.36C47.85,21.11,29.68,49.82,19.3,69.25ZM23.34,37.91h-6.79l5.49,3.99-2.1,6.46,5.49-3.99,5.5,4-2.1-6.47,5.5-4h-6.8l-2.1-6.47-2.1,6.47Z"/>
        <path class="cls-4" d="M137.63,60.59c-.78,3.83-1.82,7.6-3.11,11.27-8.03,3.4-13.8,8.1-18.33,14.78-7.88,11.61-9.51,15.09-25.58,18.15-10.85,2.07-20.22,6.66-24.98,15.09-3.14-1.21-6.19-2.64-9.16-4.28,3.66-5.07,9.6-8.08,20.87-11.43-13.95-1.15-24.86,0-32.96,3.09-3.7-3.11-7.13-6.57-10.25-10.38-6-7.32-10.66-15.72-13.85-24.71,7.97-7.43,17.72-8.6,20.25-6.71,4.02,3.02-1.67,6.93,5.11,11.54,6.79,4.61,16.01,1.57,20.8-.68,4.27-2.01,7.79-5.28,7.79-9.05,0-6.28-8-11.36-11.39-13.81.98-.12,1.92-.43,2.78-.98-3.05-1.47-5.22-4.45-5.57-7.97,0-.09,0-.19,0-.29,0-2.26,1.67-3.24,5.83-3.24,3.89,0,10.83.85,13.38.95l-2.33,1.29c5.37.57,14.42,5.28,17.88,6.28-1.26.29-4.52.84-6.53,1.05,12.8,11.28,33.08,15.98,49.36,10.03ZM70.31,43.41l-8.91.21.81.85c.09.66.37,1.27.85,1.75.57.57,1.33.89,2.14.89s1.57-.32,2.14-.89c.07-.07.12-.14.18-.21l1.9-.95c.17-.09.18-.24,0-.33l-.41-.23,1.4-.66c.53-.25.48-.44-.1-.43Z"/>
      </g>
      <g>
        <path class="cls-7" d="M60.4,48.47c1.17,2.01,2.01,2.56,3.44,3.64-2.05.34-4.4.04-7.37-.46-2.97-.5-6.49-.25-7.37,1.89-2.26-5.78,3.27-9.34,9.68-9.76.81.02.12,2.1,1.63,4.69Z"/>
        <polygon class="cls-7" points="131.34 37.91 138.13 37.91 132.64 41.91 134.73 48.37 129.24 44.38 123.74 48.37 125.84 41.91 120.34 37.91 127.14 37.91 129.24 31.44 131.34 37.91"/>
        <path class="cls-7" d="M66.92,44.5l-.76.02c.05.13.07.26.07.4,0,.65-.53,1.18-1.18,1.18s-1.18-.53-1.18-1.18c0-.12.02-.23.05-.34h-.49c-.02.12-.03.23-.03.34,0,.48.19.92.52,1.26.34.34.78.52,1.26.52.98,0,1.78-.8,1.78-1.78,0-.14-.02-.28-.06-.42Z"/>
      </g>
      <g>
        <g>
          <path class="cls-5" d="M66.85,97.69v.04c0,.44.39.68,1.14.68.58,0,.9-.18.9-.48s-.24-.37-.77-.42l-.7-.07c-1-.1-1.49-.44-1.49-1.1,0-.74.71-1.31,1.89-1.31,1.26,0,1.96.51,1.96,1.28v.03h-.98c-.04-.39-.36-.59-.96-.59-.57,0-.87.17-.87.45,0,.29.25.33.79.39l.73.08c.99.11,1.46.46,1.46,1.15,0,.87-.71,1.34-2.09,1.34s-2.03-.51-2.03-1.38v-.08h1.01Z"/>
          <path class="cls-5" d="M72.96,95.12h3.49v.81h-2.5v.65h2.23v.81h-2.23v.86h2.5v.81h-3.49v-3.93Z"/>
          <path class="cls-5" d="M79.54,95.12h1.21l1.96,2.77v-2.77h.95v3.93h-1.2l-1.98-2.8v2.8h-.94v-3.93Z"/>
          <path class="cls-5" d="M90.12,95.37c.58.32.91.92.91,1.71s-.33,1.39-.91,1.71c-.44.24-.92.26-1.52.26h-1.77v-3.93h1.77c.6,0,1.09.02,1.52.26ZM87.86,98.24h.76c.91,0,1.38-.42,1.38-1.18s-.47-1.14-1.38-1.14h-.76v2.32Z"/>
          <path class="cls-5" d="M94.94,95.12h.95l1.79,3.93h-1.09l-.36-.83h-1.73l-.35.83h-1.06l1.86-3.93ZM95.87,97.42l-.53-1.21-.51,1.21h1.04Z"/>
          <path class="cls-5" d="M100.44,95.12h.98v3.93h-.98v-3.93Z"/>
        </g>
        <path class="cls-5" d="M115.25,91.29h-.04c-.46-.06-.6-.07-.97-1.19l-2.39-7.85c.07-.03.13-.06.13-.06l.21-.09v-2.44h-25.52v2.48l.28.06c.43.09.49.22.49.97v6.12l-.56-1.83-1.31-4.29-.28-.91c.06-.03.13-.06.13-.06l.21-.09v-2.44h-7.22v2.41l.2.1.14.06c-.23.7-1.16,3.53-1.79,5.49v-6.79l-.19-.1-.45-.23c-1.54-.78-3.18-1.18-4.88-1.18-1.28,0-2.42.3-3.4.89-.71.43-1.3.99-1.77,1.68l-.51-2.33h-7.14c.6-.51,1.28-.93,2.02-1.23l.5-.21.22-.09v-2.71l-.43.09-.99.22c-3.86.85-7.12,2.61-9.41,5.11-1.22,1.32-1.97,2.84-2.21,4.45l-.83-2.3c-.16-.46-.14-.57-.13-.6.01,0,.1-.08.51-.08h.35v-2.65h-9.15v2.63l.29.06.66.13c.38.07.5.21.96,1.48,0,0,5.63,15.49,5.63,15.49l.43,1.18,1.15-.51c2.34-1.04,4.24-3,5.2-5.37.81-1.98,1.32-4.08,1.51-6.22h0c.17-1.68.55-3.31,1.15-4.88v6.75q0,.79-.45.89h-.04s-.28.07-.28.07c0,0,0,2.55,0,2.55h10.36s.48-1.72.68-2.41c.2.28.42.54.65.78,1.14,1.14,2.69,1.74,4.48,1.74.24,0,.53-.02.89-.04.53-.03,1.19-.07,2-.07h6.26v-2.57l-.3-.04h-.01c-.16-.03-.38-.06-.41-.12,0-.01-.08-.14.08-.64,0,0,.19-.61.32-1,1.12.31,1.71,1.03,1.75,1.64-.06.03-.2.07-.5.1l-.32.03v2.59h25.95v-2.57l-.3-.04h-.01c-.16-.03-.38-.06-.41-.12,0-.01-.08-.14.08-.64,0,0,.19-.61.32-1,1.12.31,1.71,1.03,1.75,1.64-.06.03-.2.07-.5.1l-.32.03v2.59h7.82v-2.58s-.31-.04-.31-.04ZM102.39,90.89c-.01-.16-.02-.4-.02-.73v-6.44c.34.27.61.75.8,1.44l.2.73.09.31.59-.12c-.37,1.13-1.16,3.55-1.16,3.55-.23.72-.38,1.07-.5,1.25ZM95.3,86.14l.32.06.09-.31.2-.73c.19-.69.46-1.16.8-1.44v2.92l-.6-.23-.13.34-.29.77c-.7,1.89-1.55,2.84-2.5,2.84-.03,0-.06,0-.09,0-.02-.16-.03-.45-.03-.84v-3.82l.24.05,1.98.39ZM71.32,87.23c.01.12.03.33.03.72v1.73c0,.08,0,.15,0,.22-.35-.49-.76-1.39-.82-2.84l.2.04.59.13ZM74.04,84.44h-3.15c.15-.38.35-.7.58-.93.28-.28.61-.43.96-.43h.06c.64,0,1.2.5,1.54,1.36ZM61.71,90.36c-.01-.1-.03-.26-.03-.52v-1.78c.12.17.24.45.37.95l.16.6.07.26h.87c-.41.4-.8.5-1.25.5-.09,0-.15,0-.2,0ZM61.69,83.95v-.5c0-.1,0-.17,0-.24.1,0,.21,0,.3.02-.11.36-.21.58-.31.72ZM65.01,86.43l-.3.7v-1.1l.1-.02.22-.06c0,.16-.01.32-.02.49ZM93.61,82.2c-.2,1.13-.42,2.35-.42,2.35,0,0-.06.32-.1.56v-1.94c0-.87.1-.92.52-.97Z"/>
        <path class="cls-7" d="M113.91,90.21l-2.44-8-.02-.09s.01-.09.05-.11l.34-.15v-1.85h-6.52v1.84l.35.16s.07.05.06.07c0,.02,0,.04-.02.08h0s0,.02,0,.02l-.38,1.17-.61-3.33h-10.35l-.82,4.6-.14.79,1.98.39.2-.73c.36-1.29.94-1.76,1.5-1.92v4.01l-.75-.29-.29.77c-.76,2.04-1.72,3.07-2.83,3.07-.26,0-.35-.04-.37-.05-.1-.15-.1-.8-.1-1.15v-6.35c0-.87.1-1.24.85-1.32v-1.84h-6.56v1.84c.71.15.77.57.77,1.32v7.23c0,.25,0,.68-.03.91-.14-.24-.32-.8-.41-1.1,0,0-2.33-7.66-2.44-8-.02-.06-.02-.09-.02-.09-.01-.04.01-.09.05-.11l.34-.15v-1.85h-6.52v1.84l.35.16s.07.05.06.07c0,.02,0,.04-.02.08h0s0,.02,0,.02l-2.47,7.57c-.02.07-.04.13-.06.19v-8.79l-.45-.23c-1.49-.76-3.08-1.14-4.72-1.14-2.46,0-4.34,1.17-5.32,3.17l-.5-2.29-.14-.64h-7.74c.77-.82,1.72-1.47,2.77-1.91l.5-.21v-2.03l-.99.22c-3.79.83-6.98,2.56-9.23,5-1.44,1.56-2.2,3.42-2.2,5.37,0,.24.01.47.03.71l-1.47-4.04c-.29-.82-.25-1.14.71-1.16v-1.94h-8.44v1.99l.66.13c.59.12.77.45,1.23,1.71,0,0,5.63,15.49,5.63,15.49l.3.82.8-.36c2.26-1,4.09-2.89,5.02-5.18.8-1.96,1.3-4.02,1.49-6.13h0c.22-2.2.81-4.34,1.76-6.34.02,0,.03,0,.04,0,.06.19.06.73.06,1.02v7.23c0,1.1-.11,1.1-.77,1.24v1.91h9.74l.82-2.93c.28.53.62,1,1.02,1.4,1.07,1.07,2.53,1.64,4.23,1.64.23,0,.51-.02.87-.04.53-.03,1.2-.07,2.02-.07h5.91v-1.91c-.52-.08-.98-.14-.63-1.21l.42-1.31c1.52.3,2.34,1.26,2.34,2.12,0,.3-.48.36-.82.4v1.92h25.25v-1.91c-.52-.08-.98-.14-.63-1.21l.42-1.31c1.52.3,2.34,1.26,2.34,2.12,0,.3-.48.36-.82.4v1.92h7.11v-1.91c-.59-.07-.85-.07-1.31-1.43ZM61.34,83.45c0-.33.02-.49.03-.58.05,0,.13-.02.26-.02.29,0,.56.03.82.09l-.04.14c-.29,1.08-.57,1.38-1.07,1.46v-1.1ZM61.92,90.72c-.35,0-.46-.05-.49-.06-.02-.04-.09-.2-.09-.82v-2.39c.49.08.78.38,1.07,1.46l.16.6h1.34c-.59.89-1.17,1.2-1.99,1.2ZM65.36,86.51l-.47,1.1c-.19.43-.36.81-.53,1.14v-4.05c.04.09.07.18.11.27l.25.69.7-.18c-.04.33-.05.67-.06,1.03ZM70.8,84.8v1.96l.65.14c.11.02.16.05.17.06.09.14.09.76.09,1v1.73c0,.56-.04.84-.07.99-.42-.22-1.46-1.39-1.46-3.95,0-1.55.37-2.78,1.05-3.46.35-.35.77-.53,1.21-.53h.06c.92,0,1.67.77,2.03,2.07h-3.73ZM103.23,89.75c-.39,1.19-.56,1.54-.98,1.67h-.02c-.05,0-.09-.01-.11-.02-.07-.14-.1-.56-.1-1.24v-7.01c.56.16,1.14.63,1.5,1.92l.2.73.86-.17-1.35,4.13Z"/>
        <g>
          <path class="cls-5" d="M60.2,76.87c-3.38.74-6.51,2.26-8.81,4.76-1.19,1.29-1.99,2.94-1.99,4.81,0,.76.13,1.49.36,2.18l1.32,3.64c.14.37.21.78.21,1.2,0,.7-.21,1.36-.57,1.91l-4.35-11.98c-.18-.52-.27-.93-.27-1.21,0-.55.32-.84.93-.84v-.5h-6.81v.5c1.09.21,1.39,1,1.84,2.23l5.63,15.48c2.08-.92,3.74-2.63,4.59-4.74.76-1.85,1.25-3.83,1.43-5.9.24-2.41.9-4.69,1.9-6.77.95-1.93,2.57-3.46,4.57-4.29v-.47Z"/>
          <path class="cls-5" d="M108.74,87.77l-1.17-4.28-1.12,3.43c.9.11,1.64.37,2.3.86ZM102.35,92.23c.98-.21,1.25-1,1.65-2.23l2.47-7.57c.06-.18.1-.36.1-.52,0-.27-.13-.45-.43-.59v-.5h4.88v.5c-.29.12-.43.34-.43.54,0,.21.05.39.1.57l2.44,8.01c.35,1.14.58,1.75,1.27,1.78v.5h-5.48v-.5c.58-.11.82-.41.82-1,0-1.45-1.43-2.86-3.73-3.02l-.63,1.96c-.16.52-.24.93-.24,1.21,0,.55.29.84.84.84v.5h-9.1v-.5c.92-.07,1.01-.7,1.01-2.07v-7.91h-.21c-1.46,0-2.41.87-2.89,2.59l-.45-.09.7-3.93h8.99l.72,3.93-.45.09c-.48-1.71-1.43-2.59-2.89-2.59h-.21v7.91c0,1.43.11,2.02,1,2.07h.15Z"/>
          <path class="cls-5" d="M65.63,87.93c-1.06,2.45-1.95,3.6-3.72,3.6-1.16,0-1.4-.43-1.4-1.7v-3.23h.39c1.33,0,1.88.61,2.28,2.09h.34v-5.39h-.34c-.4,1.48-.95,2.09-2.28,2.09h-.39v-1.95c0-1.02.13-1.41,1.11-1.41,1.73,0,2.96.89,3.6,2.64l.42-.11-.82-3.75h-8.38v.5c.74.14.77.66.77,1.84v7.23c0,1.18-.03,1.7-.77,1.84v.5h8.3l1.31-4.66-.42-.14Z"/>
          <path class="cls-5" d="M82.19,87.77l-1.17-4.28-1.12,3.43c.9.11,1.64.37,2.3.86ZM75.79,92.23c.98-.21,1.25-1,1.65-2.23l2.47-7.57c.06-.18.1-.36.1-.52,0-.27-.13-.45-.43-.59v-.5h4.88v.5c-.29.12-.43.34-.43.54,0,.21.05.39.1.57l2.44,8.01c.35,1.14.58,1.75,1.27,1.78.74-.14.77-.66.77-1.84v-7.23c0-1.18-.03-1.7-.77-1.84v-.5h4.93v.5c-.79.18-.85.7-.85,1.84v6.35c0,1.3.03,2.02,1.29,2.02,1.49,0,2.7-1.2,3.6-3.6l.37.14-1.17,4.66h-13.64v-.5c.58-.11.82-.41.82-1,0-1.45-1.43-2.86-3.73-3.02l-.63,1.96c-.16.52-.24.93-.24,1.21,0,.55.29.84.84.84v.5h-5.09c-1.38,0-2.35.11-2.89.11-3.29,0-5.27-2.35-5.27-5.94v-.37c0-3.59,1.98-5.94,5.27-5.94,1.55,0,3.03.38,4.35,1.05v3.12h-.43c-.46-1.91-1.62-2.86-2.87-2.86h-.06c-1.62,0-3.08,1.59-3.08,4.81s1.52,4.8,2.37,4.8c.65,0,.79-.64.79-1.84v-1.73c0-1.14-.06-1.68-.9-1.86v-.48h4.18v6.62Z"/>
        </g>
      </g>
    </g>
  </g>
</svg>