<?xml version="1.0" encoding="UTF-8"?>
<svg id="_レイヤー_2" data-name="レイヤー 2" xmlns="http://www.w3.org/2000/svg" xmlns:xlink="http://www.w3.org/1999/xlink" viewBox="0 0 426.45 442.13">
  <defs>
    <style>
      .cls-1 {
        fill: none;
      }

      .cls-2 {
        fill: #221815;
      }

      .cls-3 {
        fill: #ffe100;
      }

      .cls-4 {
        fill: #113961;
      }

      .cls-5 {
        fill: #fff;
      }

      .cls-6 {
        fill: #f18900;
      }

      .cls-7 {
        clip-path: url(#clippath);
      }
    </style>
    <clipPath id="clippath">
      <path class="cls-1" d="M390.94,217.15c.07-12.49-5.34-22.53-15.6-29.03-.69-.44-1.39-.87-2.1-1.27-.77-.43-1.55-.85-2.34-1.22-11.64-5.67-23.69-4.48-34.15-2.53-5.83,1.33-9.45,2.5-11.74,3.46-1.46-1.46-3.03-2.84-4.74-4.07-.97-.67-6.37-4.22-14.15-5.76-.48-2.23-.98-3.97-1.26-4.88-.01-.05-.23-.79-.25-.84-1.29-3.88-4.26-11.63-9.68-19.9-6.8-10.34-15.02-17.72-24.49-21.96-15.15-6.65-29.01-3.93-42.64,8.55-6.19,6.4-11.53,14.18-15.87,23.1-.54,1.11-4.52,10.56-4.96,11.86-1.56,4.27-6.56,19.27-5.14,33.03.89,10.47,5.87,20.97,13,27.42.12.11.54.44.67.53,7.94,6.03,16.67,9.07,25.99,9.07,1.13,0,2.27-.05,3.42-.13,12.05-.93,21.23-4.61,21.51-4.72,1.18-.45,2.22-.93,3.33-1.4,3.32,4.59,7.6,8.48,12.65,11.05,6.29,3.17,11.23,4.29,15.81,4.29.67,0,1.31-.14,1.97-.18.25.54.51,1.09.92,1.73,9.83,18.53,24.19,24.87,33.25,24.48.58.03,1.17.05,1.76.05,15.78,0,33.72-11.18,44.46-28.18l.53-.88c3.53-5.77,8.87-14.5,9.85-31.66Z"/>
    </clipPath>
  </defs>
  <g id="_レイヤー_1-2" data-name="レイヤー 1">
    <g>
      <path class="cls-6" d="M426.45,224.61c0,117.76-84.41,196.43-213.22,196.43S0,342.37,0,224.61,95.46,11.39,213.22,11.39s213.22,95.46,213.22,213.23Z"/>
      <g>
        <g>
          <path class="cls-2" d="M419.51,293.17c-1.3-.72-2.84-1.24-3.8-1.44-6.81-1.4-13.64-2.18-20.31-2.33-3.7-.09-7.16,0-10.5.16-1.79-20.11-8.09-39.31-19.27-58.27,1.62-9.72,2.12-22.36,2.53-32.66l.21-5.17c.84-18.75-5.88-43.26-14.38-52.47-2.12-2.29-5.31-4.04-8.12-4.45-21.54-3.21-49.87,5.34-81.73,24.67l-4-.6c-26.18-3.9-58.77-8.75-103.06,1.53-1.4.32-2.95.78-4.54,1.26-2.36.71-6.76,1.98-7.92,1.68-8.49-4.64-30.28-15.71-49.14-18.5-17.53-2.61-29.09.83-34.52,10.31-15.37,28.86-7.65,69.07-4.44,79.47-16,31.01-15.7,63.87-15.6,67.47-.01.84.03,1.72.04,2.58-.84.06-1.6.09-2.48.16-8.93.71-17.8,1.58-28.07,4.44-3.34.92-6.41,3.14-5.81,5.59.47,1.92,2.84,2.35,4.83,2.35,1.54,0,2.85-.25,2.89-.26,10.63-2.16,16.02-2.75,23.47-3.55l3.14-.34c.81-.09,1.61-.13,2.42-.2.81,9.68,2.85,19.99,6.48,30.18-4.44,1.67-9.56,3.89-15.71,7.07-.04.02-3.98,2.08-4.74,4.62-.23.78-.15,1.56.23,2.24.62,1.11,1.92,1.46,3.31,1.46,2.3,0,4.82-.95,4.86-.96,1.84-.81,3.57-1.58,5.21-2.31,3.72-1.66,6.96-3.05,10-4.23,3.93,8.9,9.09,17.53,15.73,25.34-6.84,3.95-15.09,9.33-24.43,16.6-1.94,1.52-3.19,3.45-3.41,5.32-.12,1.04.11,1.99.65,2.67.41.51,1.18.73,2.1.73,1.62,0,3.71-.68,5.14-1.7,10.26-7.27,19.16-12.9,26.15-17.04,7.51,7.31,16.5,13.67,27.22,18.49,35.27,15.84,67.77,19.4,108.95,20l4.04-.06,4.36.06c47.38-.69,84.81-7.46,111.26-20.11,15.35-7.34,27.56-17.24,36.7-29.54,7.64,2.61,16.9,6.62,25.83,12.66,1.14.79,3.45,2.16,5.5,2.16.92,0,1.79-.27,2.47-1.01.29-.3.61-.85.53-1.73-.17-1.86-2.23-4.46-3.56-5.43-9.12-6.66-18.29-10.95-26.01-13.74,5.25-8.67,9.17-18.37,11.72-29.12,5.64.9,12.22,2.35,19.44,4.77.04,0,2.17.71,4.26.71,1.57,0,3.11-.39,3.7-1.78.27-.63.26-1.33-.03-2.02-1.04-2.48-5.39-4.32-5.43-4.33-7.12-2.82-14.12-4.47-20.31-5.49,1.35-8.14,2-16.8,1.93-26,.02-1.57-.07-3.12-.1-4.67,2.93-.16,5.97-.26,9.16-.22,4.96.05,10.48.42,15.35.74,1.52.1,2.99.19,4.4.28,3.19.18,7.1-.41,7.57-2.73.17-.81-.11-2.03-2.36-3.29Z"/>
          <path class="cls-5" d="M354.53,231.3c1.76-9.13,2.29-22.42,2.71-33.11l.22-5.23c.76-16.97-5.67-38.25-11.49-44.55-.51-.56-1.4-.99-1.72-1.06-18.78-2.76-45.27,5.51-74.57,23.31-2.08,1.26-3.22,1.95-5.23,1.65l-5.91-.87c-25.25-3.76-56.69-8.45-98.98,1.36-1.2.27-2.52.68-3.87,1.08-5.38,1.6-11.46,3.43-16.3.79-7.98-4.35-28.38-14.75-45.5-17.28-12.59-1.85-20.45-.25-23.34,4.78-10.47,19.65-8.42,46.45-5.73,61.45.72-.85,1.42-1.62,2.07-2.27,2.63-2.63,5.32-3.6,7.16-2.33,1.91,1.32,1.15,4.66-.08,7.33-1.22,2.65-3.69,7.76-5.63,11.18,0,0,0,.01,0,.02-16.85,29.6-16.54,62.53-16.45,66.2,0,.74.03,1.51.04,2.26,9.31.02,14.99,1,17.89,1.74l.21.05c.06.01,7.62,1.41,7.18,5.04-.39,3.23-4.98,2.99-7.2,2.87l-.82-.06c-2.44-.37-8.96-1.24-16.86-1.4.79,8.79,2.71,18.09,6.01,27.25,4.52-1.04,7.71-1.28,9.83-1.4l.29-.02c2.79-.15,9.39-.25,9.73,3.07.3,2.87-4.87,4.24-7.11,4.7-1.04.21-2.16.36-3.41.53-1.75.24-3.74.52-6.09,1.02,3.77,8.24,8.76,16.15,15.14,23.24,6.63-3.22,10.45-4.4,10.53-4.42.06-.03,6.57-1.68,7.84,1.28,1.09,2.56-1.67,3.92-4.33,5.24-.85.42-1.74.86-2.55,1.35,0,0-.09.05-.26.13-1.03.51-2.75,1.4-5.02,2.62,6.17,5.56,13.32,10.43,21.71,14.2,33.54,15.07,64.84,18.46,104.46,19.04l4.04-.06,4.36.06c44.98-.67,81.88-7.25,106.54-19.04,12.36-5.91,22.38-13.54,30.17-22.9-3.71-.86-5.98-1.18-6.04-1.19-1.42-.14-5.85-1.17-7.34-3.19-.44-.61-.61-1.28-.47-1.94.75-3.62,7.32-2.9,10.09-2.43.35.03,3.75.38,9.03,1.65,5.2-7.94,9.03-16.98,11.53-27.1-2.33-.14-4.2-.17-5.48-.17-2.44.01-5.28-.05-5.28-.05-.74-.07-6.59-.76-6.82-3.68-.03-.39.05-1,.6-1.64,1.31-1.53,4.62-2.39,6.03-2.5l.31-.03c.84-.08,3.07-.3,5.31-.32h.61c1.62,0,3.81.05,6.42.22,1.29-7.68,1.93-15.9,1.86-24.74.01-1.24-.07-2.46-.09-3.69-6.85.85-12.47,1.97-16.3,2.74-1.96.39-3.38.68-4.24.78-1.38.2-2.56.3-3.55.3-2.31,0-3.58-.56-4-1.72-.29-.84-.23-1.74.18-2.59.74-1.52,2.53-2.81,5.19-3.72,2.09-.71,10.2-3.2,22.24-4.68-1.72-19.09-7.86-37.28-18.78-55.31-.7-1.16-.95-2.54-.69-3.87Z"/>
        </g>
        <g>
          <path class="cls-2" d="M115.31,312.98c-3.5,7.1-3.52,18.45,1.21,24.48,2.92,3.45,7.8,5.41,14.09,4.33,5.43-.94,8.52-5.9,9.55-9.85,2.23-8.84-.14-19.67-5.23-23.79-5.36-3.91-15.39-3.82-19.61,4.83Z"/>
          <path class="cls-2" d="M285.41,314.02c-3.5,7.1-3.52,18.45,1.21,24.48,2.92,3.45,7.8,5.41,14.09,4.33,5.43-.94,8.52-5.9,9.55-9.85,2.23-8.84-.14-19.68-5.23-23.79-5.36-3.91-15.39-3.82-19.61,4.83Z"/>
          <g>
            <path class="cls-2" d="M230.45,344.73c-1.17-4.16-4.32-7.43-8.44-8.76-7.86-2.55-15.82-1.48-20.77,2.79-5.16,4.56-5.4,12.65-2.18,16.84,2.99,3.88,7.72,5.9,14.48,6.2.31.01.63.02.94.02,5.41,0,10.44-1.98,13.31-5.27v-.02c2.83-3.28,3.82-7.69,2.67-11.81Z"/>
            <path class="cls-3" d="M219.9,342.48c-2.1-.68-4.24-1.01-6.25-1.01-3.19,0-6.05.84-7.91,2.45-2.45,2.17-2.29,6.18-1.26,7.52,1.68,2.18,4.74,3.34,9.35,3.54,4.27.17,7.46-1.38,8.79-2.9,1.34-1.56,1.79-3.55,1.24-5.49-.54-1.94-2.02-3.48-3.96-4.11Z"/>
          </g>
        </g>
      </g>
      <g>
        <g>
          <path class="cls-2" d="M174.31,402.81c-1.48-4.63-4.48-8.3-7.74-11.99-11.57-11.1-31.76-15.56-47.81-10.64-11.58,3.03-24.94,13.2-26.89,28.3-1.79,11.76,2.42,22.06,11.65,27.76,9.31,4.78,19.42,4.67,29.7-.17.87-.33,1.3-.24,3.57.72,1.42.61,3.17,1.34,5.28,1.7,3.57,1.03,6.76,1.46,9.57,1.46,7.46,0,12.38-3.02,15.44-6.04,7.97-7.84,10.94-20.61,7.23-31.1Z"/>
          <path class="cls-5" d="M163.97,406.4c-.03-.07-.05-.13-.07-.2-.83-2.65-3.05-5.31-5.25-7.82-8.41-8.05-24.41-11.47-36.92-7.67-8.41,2.21-17.79,9.67-19.04,19.29-.55,3.62-1.01,12.25,6.19,16.72,5.93,3.02,12.4,2.87,20-.7,1.9-.75,3.63-1.02,5.19-1.02,2.92,0,5.24.98,6.98,1.72,1.12.47,2.08.88,2.97,1.01.27.04.53.09.78.17,6.51,1.94,11.44,1.34,14.59-1.78,4.91-4.82,6.87-13.3,4.58-19.71Z"/>
        </g>
        <g>
          <path class="cls-2" d="M338.19,410.77c-1.98-15.21-15.33-25.39-26.69-28.34-16.27-4.97-36.47-.53-48.34,10.91-2.82,3.2-5.95,7-7.44,11.65-3.71,10.49-.74,23.27,7.22,31.1,3.07,3.03,8,6.05,15.45,6.05,2.81,0,5.99-.43,9.57-1.46,2.11-.36,3.85-1.1,5.28-1.7,2.29-.98,2.71-1.06,3.23-.88,10.61,5,20.73,5.1,30.44.1,8.83-5.48,13.04-15.78,11.27-27.43Z"/>
          <path class="cls-5" d="M327.35,412.3c-1.27-9.74-10.64-17.21-18.84-19.34-3.53-1.08-7.32-1.6-11.13-1.6-9.92,0-20.02,3.48-26.32,9.53-1.88,2.17-4.1,4.83-4.94,7.48-.02.07-.04.13-.07.2-2.29,6.41-.33,14.89,4.56,19.7,3.17,3.11,8.06,3.72,14.6,1.78.25-.07.51-.13.78-.17.89-.13,1.85-.54,2.97-1.01,2.67-1.14,6.69-2.83,11.82-.85,7.93,3.73,14.41,3.88,20.73.64,6.81-4.24,6.35-12.88,5.82-16.38Z"/>
        </g>
      </g>
      <g>
        <g class="cls-7">
          <g>
            <rect class="cls-4" x="221.2" y="109.31" width="132.75" height="190.62" transform="translate(-19.41 378.78) rotate(-65)"/>
            <g>
              <rect class="cls-6" x="206.72" y="105.24" width="20.14" height="132.75" transform="translate(92.84 -75.54) rotate(25)"/>
              <rect class="cls-6" x="243.73" y="122.5" width="20.14" height="132.75" transform="translate(103.61 -89.57) rotate(25)"/>
              <rect class="cls-6" x="280.74" y="139.76" width="20.14" height="132.75" transform="translate(114.37 -103.59) rotate(25)"/>
              <rect class="cls-6" x="317.75" y="157.02" width="20.14" height="132.75" transform="translate(125.13 -117.62) rotate(25)"/>
              <rect class="cls-6" x="354.76" y="174.27" width="20.14" height="132.75" transform="translate(135.89 -131.64) rotate(25)"/>
            </g>
          </g>
        </g>
        <path class="cls-2" d="M390.94,217.15c.07-12.49-5.34-22.53-15.6-29.03-.69-.44-1.39-.87-2.1-1.27-.77-.43-1.55-.85-2.34-1.22-11.64-5.67-23.69-4.48-34.15-2.53-5.83,1.33-9.45,2.5-11.74,3.46-1.46-1.46-3.03-2.84-4.74-4.07-.97-.67-6.37-4.22-14.15-5.76-.48-2.23-.98-3.97-1.26-4.88-.01-.05-.23-.79-.25-.84-1.29-3.88-4.26-11.63-9.68-19.9-6.8-10.34-15.02-17.72-24.49-21.96-15.15-6.65-29.01-3.93-42.64,8.55-6.19,6.4-11.53,14.18-15.87,23.1-.54,1.11-4.52,10.56-4.96,11.86-1.56,4.27-6.56,19.27-5.14,33.03.89,10.47,5.87,20.97,13,27.42.12.11.54.44.67.53,7.94,6.03,16.67,9.07,25.99,9.07,1.13,0,2.27-.05,3.42-.13,12.05-.93,21.23-4.61,21.51-4.72,1.18-.45,2.22-.93,3.33-1.4,3.32,4.59,7.6,8.48,12.65,11.05,6.29,3.17,11.23,4.29,15.81,4.29.67,0,1.31-.14,1.97-.18.25.54.51,1.09.92,1.73,9.83,18.53,24.19,24.87,33.25,24.48.58.03,1.17.05,1.76.05,15.78,0,33.72-11.18,44.46-28.18l.53-.88c3.53-5.77,8.87-14.5,9.85-31.66ZM262.41,227.67c-.08.03-8.08,3.2-18.37,4-11.87.91-19.45-4.85-21.88-6.66-5-4.53-8.79-12.66-9.45-20.34-1.18-11.51,3.16-24.52,4.61-28.48.39-1.06,3.95-9.57,4.44-10.59,3.84-7.9,8.52-14.72,13.66-20.06,10.24-9.38,19.41-11.29,30.57-6.38,7.49,3.35,14.15,9.4,19.77,17.96,4.92,7.49,7.54,14.61,8.32,16.91l.28.99c.1.33.23.76.37,1.26-3.12.38-6.39,1.21-9.76,2.67-.86.37-1.62.86-2.44,1.29-1.82-1.99-4.05-3.77-6.3-5.03-6.73-3.79-14.11-3.84-20.25-.13-6.59,4-10.46,11.71-9.86,19.44.23,6.03,2.69,11.16,7.12,14.82,2.87,2.37,6.27,3.78,9.4,4.6,0,.53-.07,1.05-.06,1.58.03,3.82.78,7.6,2.04,11.21-.76.31-1.43.63-2.24.94ZM264.12,202.98c-1.43-.51-2.96-1.24-4.22-2.39-1.79-1.63-2.7-3.75-2.82-6.7-.29-3.87,1.51-7.58,4.61-9.47,2.17-1.32,4.47-1.53,7.04-.66,2.02.68,3.67,1.86,4.9,2.98-4.48,4.46-7.75,9.99-9.5,16.23ZM306.89,239.37c-7.63,2.01-11.53,2.43-19.54-1.62-8.18-4.17-13.72-13.13-13.78-22.46-.43-11.82,5.62-21.89,15.78-26.29,3.44-1.49,6.75-2.05,9.77-2.05,8.05,0,14.03,3.93,14.85,4.49,9.03,6.49,13.34,17.88,10.69,28.51-2.49,11.49-10.8,17.57-17.75,19.43ZM371.63,243.31l-.6,1.01c-8.69,13.74-23.71,23.26-36.56,22.57-6.52.09-15.93-5.15-23.02-17.53,4.14-1.36,8.46-3.71,12.35-7.14,1.96,1.41,4.3,2.61,7,3.2,1.02.22,2.2.38,3.49.38,3.21,0,7.18-.98,11.47-4.38,4.8-4.81,6.43-10.35,4.84-17.49-2.82-8.54-9.53-11.12-14.31-12.03-.27-5.63-1.81-11.14-4.48-16.14,2.05-.65,4.64-1.36,7.15-1.93,8.49-1.57,18.35-2.62,27.19,1.67.59.28,1.14.58,1.7.89.53.3,1.04.61,1.59.96,7.15,4.53,10.61,10.99,10.57,19.46-.82,14.14-4.94,20.88-8.38,26.5ZM335.17,222.88c2.53.61,4.13,1.69,4.89,3.94.65,2.96.13,4.69-1.56,6.43-1.71,1.35-3.44,1.83-5.18,1.51-.94-.17-1.76-.57-2.49-1,1.88-3.16,3.39-6.77,4.33-10.89Z"/>
      </g>
    </g>
    <g>
      <path class="cls-4" d="M75.81,136.83l.17.08.16.07.08.03.07.03.07.03.07.03.06.03.06.03.06.02.06.02.05.02.05.02.05.02.04.02.04.02.04.02.07.03.06.02.05.02h.04s.04.03.04.03l.07.02c.08.01.16.01.23,0l.07-.02h.04s.04-.03.04-.03l.05-.02.06-.02.07-.03h.04s.04-.03.04-.03l.04-.02.05-.02.05-.02.05-.02.06-.02.06-.02.06-.03.06-.03.07-.03.07-.03.07-.03.08-.03.16-.07.17-.08c13.64-6.07,25.43-15.65,34.15-27.77,14.67-20.37,17.75-44.57,17.75-61.28,0-12.13-1.67-24.21-4.98-35.88l-.67-2.24-.17-.52-.08-.22-.07-.19-.03-.08-.03-.07-.02-.03-.02-.03-.02-.03v-.03s-.03-.02-.03-.02v-.02s-.03-.02-.03-.02h0s0-.02,0-.02h0s0-.02,0-.02h0s0-.02,0-.02h0s0-.02,0-.02h0s0-.01,0-.01c-.13-.12-.31-.17-.48-.11l-3.26,1.08c-4.15,1.46-8.5,2.25-12.89,2.35-7.81,0-13.63-3.31-16.37-9.33l-.91-2c-.08-.17-.25-.29-.44-.29h-25.82c-.19,0-.36.11-.44.29l-.91,2c-2.74,6.02-8.55,9.33-16.37,9.33-4.39-.1-8.75-.89-12.89-2.35l-3.26-1.08c-.17-.06-.35-.01-.48.11h0s0,.01,0,.01h0s0,.02,0,.02h0s0,.02,0,.02h0s0,.02,0,.02h0s0,.02,0,.02v.02s-.03.02-.03.02v.02s-.03.03-.03.03l-.02.03-.02.03-.02.03-.03.07-.03.08-.07.19-.08.22-.17.52-.67,2.24c-3.31,11.67-4.99,23.75-4.98,35.88,0,16.71,3.08,40.91,17.75,61.28,8.72,12.12,20.51,21.7,34.15,27.77"/>
      <path class="cls-6" d="M122.14,12.96c-4.54,1.59-9.3,2.45-14.11,2.55-9.35,0-16.58-4.28-19.92-11.61h-21.43c-3.34,7.33-10.56,11.61-19.92,11.61-4.81-.1-9.57-.96-14.11-2.55-3.22,11.32-4.84,23.04-4.83,34.81,0,20.45,4.66,41.84,17.01,59,8.32,11.56,19.56,20.7,32.57,26.49,13.01-5.79,24.25-14.93,32.57-26.49,12.35-17.16,17.01-38.55,17.01-59,0-11.77-1.62-23.49-4.83-34.81M105.89,81.63c-2.43,2.05-5.29,4.09-8.42,5.92l-.82-.91c-.08-.08-.22-.19-.33-.24l-1.22-.55c-.1-.05-.28-.11-.39-.13l-1.12-.26c-.11-.03-.26-.12-.33-.21l-1.79-2.19c-.07-.09-.22-.17-.34-.18l-.42-.03c-.11,0-.23.08-.25.19l-.3,1.44c-.02.11,0,.29.03.4l.46,1.17c.04.11.09.29.1.4l.4,3.17c.01.11-.04.28-.11.36l-.56.64c-.08.09-.23.17-.34.18l-1.26.13c-.11.01-.3,0-.41-.01l-.28-.05-4.16-11.43c8.66-3.23,15.8-7.46,20.88-12.16,1.35,4.94,1.69,9.81.99,14.34M60.73,81.44h-.16c-.11,0-.28.05-.38.12l-.17.13c-.09.07-.26.13-.37.15h-.12c-.11.03-.27-.02-.35-.1l-.25-.24c-.08-.08-.24-.11-.34-.07l-.25.09c-.11.04-.25.15-.31.24l-.08.11c-1.19-3.04-2.14-6.54-2.67-10.58l-1.36.18c.51,3.91,1.48,7.62,2.84,11.03-4.03-.51-7.64-1.72-10.82-3.61-.05-.1-.11-.19-.17-.29l.75-1.94c.04-.11.1-.28.13-.39l1-3.93c.03-.11.06-.29.06-.41l.17-3.3c0-.11.06-.29.12-.38l.85-1.32c.06-.1.11-.27.1-.38l-.08-1.81c0-.07,0-.16-.02-.25,1.16.33,2.38.59,3.66.8l-.14.78c-.02.11.02.28.08.37l.61.88c.06.09.21.16.32.14l.19-.02c.03.83.08,1.67.16,2.53l1.37-.13c-.14-1.46-.2-2.88-.19-4.25,1.29.12,2.62.18,3.99.18,5.52,0,11.58-1,17.55-3.09l.1.27-.76,1.07c-.07.09-.19.23-.28.3l-1.1.88c-.09.07-.19.22-.23.33l-.15.43c-.04.11-.16.17-.27.14l-.41-.12c-.11-.03-.24-.14-.29-.24l-.06-.11c-.05-.1-.04-.26.02-.36l.42-.66c.06-.1.02-.2-.09-.23h0c-.11-.03-.28,0-.37.07l-.91.66c-.09.07-.17.21-.17.33v.03c0,.11.04.29.1.38l.15.24c.06.1.1.27.09.38l-.04.62c0,.11-.04.3-.07.41l-.26.96c-.03.11-.05.29-.05.41v.76c0,.11-.05.29-.1.39l-.12.24c-.05.1-.18.21-.29.25l-1.82.59c-.11.04-.28.11-.37.17l-1.96,1.22c-.1.06-.26.15-.37.19l-2.13.95c-.1.05-.28.06-.39.04l-.5-.12c-.11-.03-.27.02-.36.09l-.74.67c-.08.08-.19.22-.25.33l-.55,1.11c-.05.1-.14.27-.2.36l-.49.79c-.06.1-.17.24-.25.33l-.48.5c-.08.08-.18.24-.22.34l-.2.49c-.04.11-.16.23-.26.29h0c-.1.05-.28.09-.39.09h-.14c-.11,0-.27.06-.36.14l-.18.17c-.08.08-.12.23-.09.34l.17.52c.04.11.16.21.27.22l.52.05c.11.01.29-.02.4-.06l1.41-.63c.1-.05.28-.08.4-.07l.8.07c.11,0,.2-.08.19-.19l-.05-.64c0-.11.04-.28.1-.38l.12-.18c.06-.09.2-.14.31-.11l.47.15c.11.04.27,0,.37-.06l2.07-1.48c.09-.07.26-.12.38-.13l.62-.02c.11,0,.25-.09.31-.19l.58-1.08c.05-.1.19-.22.29-.26l.67-.26c.11-.04.28-.04.39,0l.85.33c.11.04.29.06.4.04l.35-.06c.11-.02.3-.04.41-.04h0c.11,0,.2.09.19.21v.08c-.01.11.02.29.07.4l.34.74c.05.1.17.23.27.29l.95.51c.1.05.26.05.36-.02l.69-.46c.1-.06.2-.21.23-.32l.6-2.27c.03-.11.1-.28.15-.39l.67-1.33c.05-.1.19-.19.3-.2l1.33-.13c.11-.01.3-.04.41-.06l1-.19c.11-.02.22-.13.25-.24l.22-.98,2.85,7.83c-5.45,1.94-10.51,3.2-15.17,3.78l.05-.81c0-.12.08-.28.17-.36l.8-.75c.09-.08.25-.12.37-.09l.95.29c.11.03.22-.03.23-.15l.1-.95c.01-.12.08-.3.15-.39l.33-.47c.07-.1.08-.26.03-.37l-.47-.9c-.05-.11-.2-.19-.32-.2h-.91c-.12-.01-.29.05-.39.12l-.95.73c-.09.07-.17.23-.18.35l-.02.49c0,.12-.09.26-.2.32l-.59.32c-.11.06-.28.06-.39.02l-.17-.07c-.11-.05-.27-.02-.37.05l-.18.15c-.09.08-.16.24-.15.35l.06.61c.01.12-.04.29-.11.39l-.42.58c-.07.1-.05.23.04.31l.32.24c.09.07.2.23.23.34v.05c-.98.08-1.96.14-2.91.16l-.38-.41c-.08-.08-.23-.11-.33-.06l-.19.09c-.1.05-.25.02-.32-.06l-.03-.04c-.08-.08-.13-.25-.11-.36l.04-.29c.02-.11-.06-.21-.18-.21M72.02,25.54c.46-.07.92-.12,1.38-.18.4-.02.8-.03,1.18-.03.86,0,1.7.05,2.5.15,3.11.39,5.33,1.5,6.36,3.16-5.25-.46-10.66.21-16.16,2.04.99-1.42,2.73-3.33,4.74-5.15M85.42,30.27c3.29.5,6.52,1.47,9.65,2.9l.57,2.79c.02.11.08.29.13.39l2.37,5.1c.05.1.09.28.09.4v1.85c0,.11.02.3.03.41l.3,1.82c-.61.98-1.34,1.95-2.18,2.9-.17-.19-.35-.38-.52-.56-4.2-4.38-8.33-8.05-13.25-10.96,2.03-2.33,3.06-4.79,2.81-7.04M83.18,56.36l-.24-1.45c-.02-.11-.04-.3-.05-.41l-.11-1.52c0-.11-.07-.28-.14-.38l-.83-1.15c-.07-.09-.2-.22-.29-.29l-1.48-1.03c-.09-.07-.22-.2-.28-.3l-1.21-1.96c-.06-.1-.2-.18-.32-.17h-.74c-.11,0-.2.1-.2.22l.02.62c0,.11.09.17.2.12l.51-.22c.1-.05.21,0,.24.12l.17.71c.03.11-.04.24-.14.29l-.66.29c-.1.05-.26.02-.34-.06l-.52-.51c-.08-.08-.24-.14-.35-.12l-.42.04c-.11.01-.16.1-.1.2l.23.36c.06.1.08.26.05.37l-.24.8c-.03.11-.1.28-.15.39l-.03.07c-.05.1-.05.27,0,.37l.57,1.12c.05.1.11.28.12.39l.05.48c.01.11.05.29.09.4l.21.63c.04.11.15.23.26.26l.5.16c.11.04.2.16.21.27l.11,1.3c0,.11,0,.3,0,.41l-.15,1.46c-.01.11-.02.3-.02.41v.92c0,.11-.04.28-.11.38l-.35.53-5.9-16.2c.92-.35,1.81-.74,2.66-1.14l.3.31c.08.08.11.24.07.34l-.37.95c-.04.11-.07.29-.06.4l.05.56c0,.11.09.27.17.34l.49.43c.09.08.15.23.14.34l-.05.93c0,.11.08.21.2.21h.48c.11.02.24-.07.28-.17l.25-.7c.04-.11.12-.28.17-.37l.13-.22c.06-.1.2-.19.31-.21l.62-.08c.11-.01.17-.11.13-.22l-.12-.31c-.04-.11-.17-.2-.28-.22l-.4-.04c-.11-.01-.29.01-.4.05l-.16.06c-.11.04-.28.04-.39,0l-.26-.1c-.11-.04-.18-.17-.17-.28l.06-.59c.01-.11.12-.21.23-.21h.53c.11,0,.25-.08.31-.18l.47-.83c.06-.1.19-.2.31-.22l1.05-.19c.11-.02.29-.01.4.02l2.66.72c.11.03.19-.04.17-.15l-.16-1.02c-.02-.11-.01-.3.01-.41l.23-1.06c.02-.11.11-.27.19-.35l.76-.76c.08-.08.23-.18.34-.23l1.03-.46c4.04,2.65,7.56,5.85,11.14,9.59.19.2.39.41.58.62-3.15,3.26-7.54,6.27-12.75,8.78l-.22-.54c-.04-.11-.03-.27.03-.37l.59-.96c.06-.1.09-.27.07-.38M55.75,39.03l-.06-.78c2.46-1.91,5.21-3.52,8.23-4.83-1.91,2.6-3.47,5.12-4.74,7.61l-2.52.4c-.11.02-.27-.03-.36-.1l-.71-.62c-.09-.08-.13-.23-.1-.34l.24-.93c.03-.11.04-.29.04-.41M56.96,58.41c.08-.08.15-.25.16-.36l.14-1.5c.01-.11.04-.3.06-.41l.43-2.42c.02-.11.05-.3.06-.41l.54-5.18c.01-.11.09-.27.17-.36l.81-.84c.21,0,.42.02.64.02,3.15,0,6.64-.63,10.11-1.82l5.92,16.26c-6.97,2.43-14.47,3.44-21.03,2.83,0-.16.01-.32.02-.48.08-1.17.17-2.32.28-3.45l1.69-1.88ZM81.36,36.58c-3.7-2.03-7.86-3.65-12.84-4.85,5.27-1.65,10.46-2.19,15.49-1.65.37,1.97-.64,4.28-2.65,6.5M79.74,37.29l-.27.08c-.11.03-.29.05-.4.03l-1.85-.3c-.11-.02-.29-.07-.39-.12l-2.41-1.05c-.1-.05-.22,0-.27.11l-.07.18c-.04.11-.06.28-.04.4v.08c.03.11.1.28.17.37l1.04,1.37c.07.09.13.26.13.37l.02.49c0,.11.04.3.08.4l.32.88c.04.11.04.28,0,.39v.03c-1.5.89-3.15,1.69-4.91,2.37l-3.85-10.58c4.92,1.09,9.05,2.6,12.7,4.49M69.61,43.85c-3.2,1.1-6.4,1.69-9.3,1.73l.75-2.36c.03-.11.02-.28-.03-.38l-.6-1.24c1.39-2.72,3.13-5.47,5.32-8.32l3.85,10.58ZM55.57,36.61l-.12-1.63c0-.11-.05-.29-.09-.4l-.56-1.48c1.02-.82,2.08-1.58,3.19-2.29,2.56.12,4.96.44,6.55.87-3.29,1.31-6.29,2.95-8.97,4.93M52.25,63.53l.11.35c-1.31-.22-2.54-.51-3.69-.86l-.1-.8c-.01-.11.02-.29.08-.38l.92-1.5c.06-.1.18-.12.27-.04l.59.5c.09.07.24.18.34.24l1.49.88c.1.06.16.2.14.31l-.17.91c-.02.11-.01.29.02.4M62.18,89.15c.11-.03.21-.14.21-.25l.03-.69c0-.11.09-.25.19-.31l.21-.11c.1-.05.18-.19.17-.31l-.04-.57c0-.11-.04-.3-.08-.4l-.4-1.13c-.04-.11-.06-.29-.06-.4l.05-.83c6.03-.15,12.81-1.56,20.28-4.22l3.89,10.68-1.1-.2c-.11-.02-.3-.05-.41-.07l-2.64-.41c-.11-.02-.2-.13-.2-.24l.02-.63c0-.11.05-.29.11-.39l.44-.76c.06-.1.09-.27.08-.39l-.02-.17c-.01-.11-.12-.22-.23-.24l-1.19-.18c-.11-.02-.3-.01-.41.01l-3.39.74c-.11.02-.29.08-.39.12l-1.73.73c-.1.04-.27.14-.36.2l-1.37,1c-.09.07-.18.21-.2.33l-.13.85c-.02.11-.09.28-.15.37l-.4.57c-.07.09-.21.17-.33.16l-2.4-.05c-.11,0-.3.02-.41.05l-1.73.49c-.11.03-.25.13-.32.23l-1.13,1.63c-.06.09-.18.2-.27.27-1.49-1.43-3.06-3.22-4.54-5.4l.37-.08ZM104.32,61.42l-1.26.53c.55,1.3,1.01,2.6,1.42,3.89-3.13,2.99-7.13,5.8-11.87,8.29v-.14s-1.75.61-1.75.61v.43c-2.28,1.12-4.73,2.17-7.3,3.13l-2.5-6.86.12-.03c.11-.03.27-.09.36-.14.09-.05.17-.19.18-.3l.09-.72c.01-.11-.02-.29-.08-.39l-.19-.33c-.06-.1-.07-.27-.03-.38l.06-.16c.04-.11.15-.24.25-.3l.42-.25c.1-.06.22-.19.27-.29l.46-.96c.05-.1.18-.17.3-.15l.19.03c.11.02.19.12.17.24l-.07.42c-.02.11-.02.3,0,.41l.07.54c.01.11.09.14.18.06l.86-.81c.08-.08.16-.24.18-.35l.13-.87c.02-.11.09-.28.16-.37l.36-.45c.07-.09.07-.23,0-.32l-.65-.75c-.07-.09-.15-.25-.16-.36l-.13-1.2c-.01-.11-.06-.29-.1-.4l-1.1-2.66s-.04-.1-.07-.16c5.34-2.56,9.86-5.65,13.13-9.01.35.42.7.85,1.05,1.3l1.09-.84c-.39-.51-.79-1-1.19-1.48.58-.65,1.11-1.31,1.59-1.97v.06c.03.11.04.3.04.41l-.02,2.22c0,.11.05.29.11.38l1.54,2.34c.06.1.19.23.27.3l2.02,1.66c.09.07.2.22.25.32l2.01,4.16c.05.1.12.1.15-.01l.73-2.31c.03-.11.15-.17.26-.14l.17.05c.11.03.2.15.2.27l.03,1.53c0,.11.04.3.08.4l.32.86c.04.11.13.27.19.36l.77,1.09c-.73.97-1.54,1.93-2.45,2.87-.37-1.11-.78-2.22-1.25-3.33M91.14,27.86l1.8,2.94c-2.58-.96-5.21-1.61-7.88-1.97-.57-1.44-1.71-2.59-3.33-3.41,3.29.39,6.45,1.23,9.41,2.45M69.54,26.01c-1.48,1.48-2.71,2.91-3.49,4.06l-1-2.75c1.46-.53,2.96-.96,4.49-1.3M63.77,27.81l.91,2.5c-1.23-.31-2.84-.57-4.62-.73,1.2-.66,2.44-1.24,3.71-1.76M47.34,81.2c2.84,1.36,5.96,2.26,9.36,2.68l-.14.21c-.06.09-.08.26-.04.37l.26.69c.04.11.15.24.25.29l.52.28c.1.05.27.11.39.12l.32.03c1.75,3.47,3.94,6.56,6.48,9.15-7.15-2.68-13.23-7.56-17.4-13.82M99.33,89.87l-.1-.12c-.07-.09-.19-.24-.25-.33l-.52-.74s-.05-.06-.07-.09c2.57-1.53,4.97-3.18,7.1-4.87-.02.07-.04.15-.06.22-1.79,2.21-3.84,4.2-6.1,5.93M108.84,78.92c-.44.44-.9.89-1.39,1.34.46-4.48-.02-9.25-1.43-14.05,1.04-1.04,1.98-2.1,2.81-3.18l.32.45c.07.09.16.25.21.36l1.26,2.65c.05.1.1.28.11.39l.21,1.68c.01.11.04.3.07.41l.71,3.39c-.75,2.3-1.71,4.49-2.88,6.56"/>
      <path class="cls-4" d="M70.22,22.43v-12.35h14.34v12.35c-2.33-.43-4.72-.65-7.17-.65s-4.85.23-7.17.65M112.06,42.38h.51v-20.95s0-.02,0-.03c-2.35.44-4.75.57-7.13.38l-.22-.02c-2.34-.14-4.65-.65-6.83-1.51v7.56c5.71,3.6,10.44,8.62,13.68,14.56M56.41,27.82v-7.56c-2.18.86-4.49,1.37-6.83,1.51l-.22.02c-2.38.19-4.78.06-7.13-.38,0,0,0,.02,0,.03v20.95h.51c3.24-5.95,7.96-10.97,13.68-14.56M77.4,100.67s0,0,0,0c0,0,0,0,0,0-2.45,0-4.84-.22-7.17-.65v22.39c2.31,1.48,4.71,2.82,7.17,4.03,2.46-1.21,4.86-2.56,7.17-4.03v-22.39c-2.33.43-4.72.65-7.17.65M42.73,80.06h-.51v10.92c3.54,7.45,8.34,14.24,14.19,20.06v-16.41c-5.71-3.6-10.44-8.62-13.68-14.56M98.39,94.63v16.41c5.85-5.82,10.65-12.6,14.19-20.06v-10.92h-.51c-3.24,5.95-7.96,10.97-13.68,14.56"/>
      <path class="cls-5" d="M95.45,46.51c0,4.48,2.06,6.82,3.87,8.88,1.31,1.48,2.47,2.8,2.87,4.93h-3.4v-2.53h-3.34v5.87h10.23v-1.67c0-4.44-2.05-6.76-3.85-8.81-1.32-1.5-2.5-2.83-2.89-5h3.4v2.53h3.34v-5.88h-10.23v1.67Z"/>
      <polygon class="cls-5" points="118.34 48.18 118.34 44.84 109.48 44.84 109.48 63.66 118.34 63.66 118.34 60.32 112.82 60.32 112.82 55.1 116.9 55.1 116.9 51.76 112.82 51.76 112.82 48.18 118.34 48.18"/>
      <path class="cls-5" d="M36.45,46.51c0,4.48,2.06,6.82,3.87,8.88,1.31,1.48,2.47,2.8,2.87,4.93h-3.4v-2.53h-3.34v5.87h10.23v-1.67c0-4.44-2.05-6.76-3.85-8.81-1.32-1.5-2.5-2.83-2.89-5h3.4v2.53h3.34v-5.88h-10.23v1.67Z"/>
      <rect class="cls-5" x="48.96" y="52.58" width="4.6" height="3.34"/>
      <polygon class="cls-5" points="87.31 44.84 83.97 44.84 83.97 63.66 92.82 63.66 92.82 60.32 87.31 60.32 87.31 44.84"/>
      <path class="cls-5" d="M76.69,60.32h-1.12c-.91,0-2.43,0-2.43-3.44v-12.04h-3.34v12.04c0,1.86.35,3.31,1.08,4.44.69,1.07,2.06,2.35,4.69,2.35h4.46v-18.82h-3.34v15.48Z"/>
      <path class="cls-5" d="M56.62,44.84v18.82h3.34v-5.5c0-1.29.42-1.59,1.89-2.43,1.99-1.14,5-2.86,5-9.22v-1.67h-10.23ZM60.19,52.83c-.07.04-.15.09-.23.13v-4.78h3.46c-.35,3-1.7,3.77-3.23,4.65"/>
      <path class="cls-5" d="M78.08,69.7h-1.41c-.06.77-.44,1.24-.97,1.88-.86,1.04-1.92,2.34-1.92,5.33v.7h1.4v-.7c0-.17,0-.34.01-.5h1.48v1.2h1.4v-7.91h0ZM76.69,75h-1.29c.27-1.11.78-1.78,1.29-2.4v2.4Z"/>
      <path class="cls-5" d="M71.27,69.7h1.4v.7c0,1.76-.54,2.68-1.19,3.25.62.55,1.19,1.47,1.19,3.25v.7h-1.4v-.7c0-1.86-.65-2.23-1.39-2.66-.03-.02-.06-.04-.1-.05v3.41h-1.4v-7.91h1.4v2.31c0,.43.11.6.47.83.55-.35,1.02-.85,1.02-2.43v-.7Z"/>
      <rect class="cls-5" x="48.4" y="69.7" width="1.4" height="7.91"/>
      <path class="cls-5" d="M45.5,69.7h1.4v7.91h-1.4v-3.42c-.2.09-.4.15-.57.2-.69.21-.92.29-.92,1.04v2.17h-1.4v-7.91h1.4v3.52c.18-.07.35-.13.51-.17.7-.22.98-.31.98-1.18v-2.17Z"/>
      <path class="cls-5" d="M36.8,69.7h4.3v2.47h-1.4v-1.06h-1.43c.17.91.66,1.47,1.22,2.1.76.86,1.62,1.84,1.62,3.7v.7h-4.3v-2.47h1.4v1.06h1.43c-.17-.89-.66-1.45-1.21-2.07-.76-.87-1.63-1.85-1.63-3.73v-.7Z"/>
      <path class="cls-5" d="M59.75,69.7h1.4v7.91h-1.87c-1.11,0-1.68-.54-1.97-.99-.3-.47-.45-1.08-.45-1.86v-5.06h1.4v5.06c0,1.45.64,1.45,1.02,1.45h.47v-6.5Z"/>
      <path class="cls-5" d="M66.5,70.73c-.36-.67-.99-1.03-1.78-1.03s-1.42.37-1.78,1.03c-.25.46-.37,1.06-.37,1.82v2.21c0,.78.15,1.39.45,1.86.29.45.87.99,1.97.99h1.87v-5.06c0-.76-.12-1.36-.37-1.82M65.47,76.2h-.47c-.38,0-1.02,0-1.02-1.45v-2.21c0-1.45.5-1.45.75-1.45s.75,0,.75,1.45v3.65Z"/>
      <path class="cls-5" d="M53.93,74.12c-.53.63-.99,1.18-1.15,2.08h2.7v1.4h-4.17v-.7c0-1.86.82-2.83,1.54-3.69.53-.63,1-1.19,1.16-2.11h-2.7v-1.4h4.17v.7c0,1.87-.82,2.85-1.55,3.72"/>
      <rect class="cls-5" x="95.51" y="69.7" width="1.4" height="7.91"/>
      <path class="cls-5" d="M92.61,69.7h1.4v7.91h-1.4v-3.42c-.2.09-.4.15-.57.2-.69.21-.92.29-.92,1.04v2.17h-1.4v-7.91h1.4v3.52c.18-.07.35-.13.51-.17.7-.22.98-.31.98-1.18v-2.17Z"/>
      <path class="cls-5" d="M83.91,69.7h4.3v2.47h-1.4v-1.06h-1.43c.17.91.66,1.47,1.22,2.1.76.86,1.62,1.84,1.62,3.7v.7h-4.3v-2.47h1.4v1.06h1.43c-.17-.89-.66-1.45-1.21-2.07-.76-.87-1.63-1.85-1.63-3.73v-.7Z"/>
      <rect class="cls-5" x="105.24" y="69.7" width="1.4" height="7.91"/>
      <path class="cls-5" d="M116.59,69.7h1.4v7.91h-1.87c-1.11,0-1.68-.54-1.97-.99-.3-.47-.45-1.08-.45-1.86v-5.06h1.4v5.06c0,1.45.64,1.45,1.02,1.45h.47v-6.5Z"/>
      <path class="cls-5" d="M110.76,74.12c-.53.63-.99,1.18-1.15,2.08h2.7v1.4h-4.17v-.7c0-1.86.82-2.83,1.54-3.69.53-.63,1-1.19,1.16-2.11h-2.7v-1.4h4.17v.7c0,1.87-.82,2.85-1.55,3.72"/>
      <path class="cls-5" d="M102.33,69.7h1.4v7.91h-1.4v-4.82c-.33.37-.55.73-.55,1.45v.22h-1.4v-.22c0-.72-.22-1.09-.55-1.46v4.83h-1.4v-7.91h1.4v.1c0,.92.33,1.27.8,1.77.15.16.31.33.46.53.15-.19.31-.36.46-.51.46-.48.79-.83.79-1.74v-.14Z"/>
    </g>
  </g>
</svg>