<?xml version="1.0" encoding="UTF-8"?>
<svg id="_レイヤー_2" data-name="レイヤー 2" xmlns="http://www.w3.org/2000/svg" xmlns:xlink="http://www.w3.org/1999/xlink" viewBox="0 0 426.45 450.62">
  <defs>
    <style>
      .cls-1 {
        fill: none;
      }

      .cls-2 {
        fill: #221815;
      }

      .cls-3 {
        fill: #ffe100;
      }

      .cls-4 {
        fill: #005ca7;
      }

      .cls-5 {
        fill: #fff;
      }

      .cls-6 {
        fill: #82c039;
      }

      .cls-7 {
        fill: #00a7ea;
      }

      .cls-8 {
        clip-path: url(#clippath);
      }
    </style>
    <clipPath id="clippath">
      <path class="cls-1" d="M390.94,225.64c.07-12.49-5.34-22.53-15.6-29.03-.69-.44-1.39-.87-2.1-1.27-.77-.43-1.55-.84-2.34-1.22-11.64-5.67-23.69-4.48-34.15-2.53-5.83,1.33-9.45,2.5-11.74,3.46-1.46-1.46-3.03-2.84-4.74-4.07-.97-.67-6.37-4.22-14.15-5.76-.48-2.23-.98-3.97-1.26-4.88-.01-.05-.23-.79-.25-.84-1.29-3.88-4.26-11.63-9.68-19.89-6.8-10.34-15.02-17.72-24.49-21.96-15.15-6.65-29.01-3.93-42.64,8.55-6.19,6.4-11.53,14.18-15.87,23.1-.54,1.12-4.52,10.56-4.96,11.86-1.56,4.27-6.56,19.27-5.14,33.02.89,10.47,5.87,20.98,13,27.42.12.11.54.44.67.53,7.94,6.03,16.67,9.07,25.99,9.07,1.13,0,2.27-.05,3.42-.13,12.05-.93,21.23-4.61,21.51-4.72,1.18-.45,2.22-.93,3.33-1.4,3.32,4.59,7.6,8.48,12.65,11.05,6.29,3.17,11.23,4.29,15.81,4.29.67,0,1.31-.14,1.97-.18.25.54.51,1.09.92,1.73,9.83,18.52,24.19,24.87,33.25,24.47.58.03,1.17.05,1.76.05,15.78,0,33.72-11.18,44.46-28.18l.53-.88c3.53-5.77,8.87-14.5,9.85-31.66Z"/>
    </clipPath>
  </defs>
  <g id="_レイヤー_1-2" data-name="レイヤー 1">
    <g>
      <path class="cls-6" d="M426.45,233.1c0,117.76-84.41,196.43-213.22,196.43S0,350.86,0,233.1,95.46,19.88,213.22,19.88s213.22,95.46,213.22,213.22Z"/>
      <g>
        <g>
          <path class="cls-2" d="M419.51,301.66c-1.3-.72-2.84-1.24-3.8-1.44-6.81-1.4-13.64-2.18-20.31-2.33-3.7-.08-7.16,0-10.49.16-1.79-20.11-8.09-39.31-19.27-58.28,1.62-9.72,2.12-22.36,2.53-32.66l.21-5.17c.84-18.75-5.88-43.26-14.38-52.46-2.12-2.29-5.31-4.04-8.13-4.45-21.54-3.21-49.87,5.35-81.73,24.67l-4-.59c-26.18-3.9-58.77-8.75-103.06,1.53-1.4.32-2.95.78-4.54,1.26-2.37.71-6.76,1.98-7.92,1.68-8.49-4.64-30.28-15.71-49.14-18.49-17.53-2.61-29.09.83-34.52,10.31-15.37,28.86-7.65,69.07-4.44,79.47-16,31.01-15.69,63.87-15.6,67.47-.01.84.03,1.72.04,2.58-.84.06-1.6.09-2.48.16-8.93.71-17.8,1.58-28.07,4.44-3.34.92-6.41,3.14-5.81,5.59.47,1.92,2.84,2.35,4.83,2.35,1.54,0,2.85-.25,2.89-.26,10.63-2.16,16.02-2.75,23.47-3.55l3.14-.34c.81-.09,1.61-.13,2.42-.2.81,9.68,2.85,19.99,6.48,30.18-4.44,1.67-9.56,3.89-15.71,7.07-.04.02-3.98,2.08-4.74,4.62-.23.78-.15,1.56.23,2.24.62,1.11,1.92,1.46,3.31,1.46,2.3,0,4.82-.95,4.86-.96,1.84-.81,3.57-1.58,5.21-2.31,3.72-1.66,6.96-3.05,10-4.23,3.93,8.9,9.09,17.53,15.73,25.34-6.84,3.96-15.09,9.33-24.43,16.6-1.94,1.52-3.19,3.46-3.41,5.32-.12,1.04.11,1.99.65,2.67.41.51,1.18.73,2.1.73,1.62,0,3.71-.68,5.14-1.7,10.26-7.27,19.16-12.89,26.15-17.04,7.51,7.31,16.5,13.67,27.22,18.49,35.27,15.84,67.77,19.4,108.95,20l4.04-.06,4.36.06c47.38-.69,84.81-7.46,111.26-20.11,15.35-7.34,27.56-17.24,36.7-29.54,7.64,2.61,16.9,6.62,25.83,12.67,1.14.79,3.45,2.16,5.5,2.16.92,0,1.79-.27,2.47-1.01.29-.3.61-.85.53-1.73-.17-1.86-2.23-4.46-3.56-5.43-9.12-6.66-18.29-10.95-26.01-13.74,5.25-8.67,9.17-18.37,11.72-29.12,5.64.9,12.22,2.35,19.44,4.77.04,0,2.17.71,4.26.71,1.57,0,3.11-.39,3.7-1.78.27-.63.26-1.33-.03-2.02-1.04-2.48-5.39-4.32-5.43-4.33-7.12-2.82-14.12-4.47-20.31-5.49,1.35-8.14,2.01-16.8,1.93-26,.02-1.57-.07-3.12-.1-4.67,2.94-.16,5.97-.26,9.16-.22,4.96.05,10.48.42,15.35.74,1.52.1,2.99.19,4.4.28,3.19.18,7.1-.41,7.57-2.73.17-.81-.11-2.03-2.36-3.29Z"/>
          <path class="cls-5" d="M354.53,239.79c1.76-9.13,2.29-22.42,2.71-33.11l.22-5.22c.76-16.97-5.67-38.25-11.49-44.55-.51-.56-1.4-.99-1.72-1.06-18.78-2.76-45.27,5.51-74.57,23.31-2.08,1.26-3.22,1.95-5.23,1.65l-5.91-.87c-25.25-3.76-56.69-8.45-98.98,1.36-1.2.27-2.52.67-3.88,1.08-5.38,1.6-11.46,3.43-16.3.79-7.98-4.35-28.38-14.75-45.5-17.28-12.59-1.85-20.45-.25-23.34,4.78-10.47,19.65-8.42,46.45-5.73,61.45.72-.85,1.42-1.62,2.07-2.27,2.63-2.63,5.32-3.6,7.16-2.33,1.91,1.32,1.15,4.66-.08,7.33-1.22,2.65-3.69,7.76-5.63,11.18,0,0,0,.01,0,.02-16.85,29.6-16.54,62.53-16.45,66.2,0,.74.03,1.51.04,2.26,9.31.02,14.99,1,17.89,1.74l.21.05c.06.01,7.62,1.41,7.18,5.04-.39,3.23-4.98,2.99-7.2,2.87l-.82-.06c-2.44-.37-8.96-1.24-16.85-1.4.79,8.79,2.71,18.09,6.01,27.25,4.52-1.04,7.71-1.28,9.83-1.4l.29-.02c2.79-.15,9.39-.25,9.73,3.07.3,2.87-4.87,4.24-7.11,4.7-1.04.21-2.16.36-3.41.53-1.75.24-3.74.52-6.09,1.02,3.77,8.24,8.76,16.15,15.14,23.24,6.63-3.22,10.45-4.4,10.53-4.42.06-.03,6.57-1.68,7.84,1.28,1.09,2.56-1.67,3.92-4.33,5.24-.85.42-1.74.86-2.55,1.35,0,0-.09.05-.26.13-1.03.51-2.75,1.4-5.02,2.62,6.17,5.56,13.32,10.43,21.71,14.2,33.54,15.07,64.84,18.45,104.45,19.04l4.04-.06,4.36.06c44.98-.67,81.88-7.25,106.54-19.04,12.36-5.91,22.38-13.54,30.17-22.9-3.71-.86-5.98-1.18-6.04-1.19-1.42-.14-5.85-1.17-7.34-3.19-.44-.61-.61-1.28-.47-1.94.75-3.62,7.32-2.9,10.09-2.43.35.03,3.75.38,9.03,1.65,5.2-7.94,9.03-16.98,11.53-27.11-2.33-.14-4.2-.17-5.48-.17-2.44.01-5.28-.05-5.28-.05-.74-.07-6.59-.76-6.82-3.68-.03-.39.05-1,.6-1.64,1.31-1.53,4.62-2.39,6.03-2.5l.31-.03c.84-.08,3.07-.3,5.31-.32h.61c1.62,0,3.81.05,6.42.22,1.29-7.68,1.93-15.9,1.86-24.74.01-1.24-.06-2.46-.09-3.69-6.85.85-12.47,1.97-16.3,2.74-1.96.39-3.38.68-4.24.78-1.38.2-2.56.3-3.55.3-2.31,0-3.58-.56-4-1.72-.29-.84-.23-1.74.18-2.59.74-1.52,2.53-2.81,5.19-3.72,2.09-.71,10.2-3.2,22.24-4.67-1.72-19.09-7.86-37.28-18.78-55.31-.7-1.16-.95-2.54-.69-3.87Z"/>
        </g>
        <g>
          <path class="cls-2" d="M115.31,321.47c-3.5,7.1-3.52,18.45,1.21,24.48,2.92,3.45,7.8,5.41,14.09,4.33,5.43-.94,8.52-5.9,9.55-9.85,2.23-8.84-.14-19.68-5.23-23.79-5.36-3.91-15.39-3.82-19.61,4.83Z"/>
          <path class="cls-2" d="M285.41,322.51c-3.5,7.1-3.52,18.45,1.21,24.48,2.92,3.45,7.8,5.41,14.09,4.33,5.43-.94,8.52-5.9,9.55-9.85,2.23-8.84-.14-19.68-5.23-23.79-5.36-3.91-15.39-3.82-19.61,4.83Z"/>
          <g>
            <path class="cls-2" d="M230.45,353.22c-1.17-4.16-4.32-7.43-8.44-8.76-7.86-2.55-15.82-1.48-20.77,2.79-5.16,4.56-5.41,12.65-2.19,16.84,2.99,3.88,7.72,5.9,14.48,6.2.31.01.63.02.94.02,5.41,0,10.44-1.98,13.31-5.27v-.02c2.83-3.28,3.82-7.69,2.67-11.81Z"/>
            <path class="cls-3" d="M219.9,350.97c-2.1-.68-4.24-1.01-6.25-1.01-3.19,0-6.05.84-7.91,2.45-2.45,2.17-2.29,6.18-1.26,7.52,1.68,2.18,4.74,3.34,9.35,3.54,4.27.17,7.46-1.38,8.79-2.9,1.34-1.56,1.79-3.55,1.24-5.49-.54-1.94-2.02-3.48-3.96-4.11Z"/>
          </g>
        </g>
      </g>
      <g>
        <g>
          <path class="cls-2" d="M174.31,411.3c-1.48-4.63-4.48-8.3-7.74-11.99-11.57-11.1-31.77-15.56-47.81-10.64-11.58,3.03-24.94,13.2-26.89,28.3-1.79,11.76,2.42,22.06,11.65,27.76,9.31,4.78,19.42,4.67,29.7-.17.87-.33,1.3-.24,3.57.72,1.42.61,3.17,1.34,5.28,1.7,3.57,1.03,6.76,1.46,9.57,1.46,7.46,0,12.38-3.02,15.44-6.04,7.97-7.84,10.94-20.61,7.23-31.1Z"/>
          <path class="cls-5" d="M163.97,414.89c-.03-.07-.05-.13-.07-.2-.84-2.65-3.05-5.31-5.25-7.82-8.41-8.05-24.41-11.47-36.92-7.67-8.41,2.21-17.79,9.67-19.04,19.29-.55,3.62-1.01,12.25,6.19,16.72,5.93,3.02,12.4,2.87,20-.7,1.9-.75,3.63-1.02,5.19-1.02,2.92,0,5.24.98,6.98,1.72,1.12.47,2.08.88,2.97,1.01.27.04.53.09.78.17,6.51,1.94,11.44,1.34,14.59-1.78,4.91-4.82,6.87-13.3,4.58-19.71Z"/>
        </g>
        <g>
          <path class="cls-2" d="M338.19,419.26c-1.98-15.21-15.33-25.39-26.69-28.34-16.27-4.97-36.47-.53-48.34,10.91-2.82,3.2-5.95,7-7.44,11.65-3.71,10.49-.74,23.27,7.22,31.1,3.07,3.03,8,6.05,15.45,6.05,2.81,0,5.99-.43,9.57-1.46,2.11-.36,3.86-1.1,5.28-1.7,2.29-.98,2.71-1.06,3.23-.88,10.61,5,20.73,5.1,30.44.1,8.83-5.48,13.04-15.78,11.27-27.43Z"/>
          <path class="cls-5" d="M327.35,420.79c-1.27-9.74-10.64-17.21-18.84-19.34-3.53-1.08-7.32-1.6-11.13-1.6-9.92,0-20.02,3.48-26.32,9.53-1.88,2.17-4.1,4.83-4.94,7.48-.02.07-.04.13-.07.2-2.29,6.41-.33,14.89,4.56,19.7,3.17,3.11,8.06,3.72,14.6,1.78.25-.07.51-.13.78-.17.89-.13,1.85-.53,2.97-1.01,2.67-1.14,6.69-2.83,11.82-.85,7.93,3.73,14.41,3.87,20.73.63,6.81-4.24,6.35-12.88,5.82-16.38Z"/>
        </g>
      </g>
      <g>
        <g class="cls-8">
          <g>
            <rect class="cls-6" x="239.93" y="125.54" width="110.16" height="180.72" transform="translate(-25.33 392.03) rotate(-65)"/>
            <path class="cls-4" d="M401.63,229c-6.07.59-13.07-.6-19.87-3.77-9.56-4.46-16.4-11.75-18.86-19.09-7.21,2.83-17.18,2.28-26.75-2.18-9.56-4.46-16.4-11.75-18.86-19.09-7.21,2.83-17.19,2.28-26.75-2.18-9.56-4.46-16.4-11.75-18.86-19.09-7.21,2.83-17.19,2.28-26.75-2.18-6.81-3.18-12.23-7.79-15.68-12.84l-10.48,20.03c3.39,5.44,9.08,10.46,16.35,13.85,9.56,4.46,19.54,5.01,26.75,2.18,2.46,7.34,9.3,14.63,18.86,19.09,9.56,4.46,19.54,5.01,26.75,2.18,2.46,7.34,9.3,14.63,18.86,19.09,9.56,4.46,19.54,5.01,26.75,2.18,2.46,7.34,9.3,14.63,18.86,19.09,7.25,3.38,14.74,4.51,21.07,3.63l8.61-20.91Z"/>
            <path class="cls-4" d="M381.69,271.76c-6.07.59-13.07-.6-19.87-3.77-9.56-4.46-16.4-11.75-18.86-19.09-7.21,2.83-17.18,2.28-26.75-2.18-9.56-4.46-16.4-11.75-18.86-19.09-7.21,2.83-17.19,2.28-26.75-2.18-9.56-4.46-16.4-11.75-18.86-19.09-7.21,2.83-17.18,2.28-26.75-2.18-6.81-3.18-12.23-7.79-15.68-12.84l-10.48,20.03c3.4,5.44,9.08,10.46,16.35,13.85,9.56,4.46,19.54,5.01,26.75,2.18,2.46,7.34,9.3,14.63,18.86,19.09,9.56,4.46,19.54,5.01,26.75,2.18,2.46,7.34,9.3,14.63,18.86,19.09,9.56,4.46,19.54,5.01,26.75,2.18,2.46,7.34,9.3,14.63,18.86,19.09,7.25,3.38,14.74,4.51,21.07,3.63l8.61-20.91Z"/>
          </g>
        </g>
        <path class="cls-1" d="M390.94,225.64c.07-12.49-5.34-22.53-15.6-29.03-.69-.44-1.39-.87-2.1-1.27-.77-.43-1.55-.84-2.34-1.22-11.64-5.67-23.69-4.48-34.15-2.53-5.83,1.33-9.45,2.5-11.74,3.46-1.46-1.46-3.03-2.84-4.74-4.07-.97-.67-6.37-4.22-14.15-5.76-.48-2.23-.98-3.97-1.26-4.88-.01-.05-.23-.79-.25-.84-1.29-3.88-4.26-11.63-9.68-19.89-6.8-10.34-15.02-17.72-24.49-21.96-15.15-6.65-29.01-3.93-42.64,8.55-6.19,6.4-11.53,14.18-15.87,23.1-.54,1.12-4.52,10.56-4.96,11.86-1.56,4.27-6.56,19.27-5.14,33.02.89,10.47,5.87,20.98,13,27.42.12.11.54.44.67.53,7.94,6.03,16.67,9.07,25.99,9.07,1.13,0,2.27-.05,3.42-.13,12.05-.93,21.23-4.61,21.51-4.72,1.18-.45,2.22-.93,3.33-1.4,3.32,4.59,7.6,8.48,12.65,11.05,6.29,3.17,11.23,4.29,15.81,4.29.67,0,1.31-.14,1.97-.18.25.54.51,1.09.92,1.73,9.83,18.52,24.19,24.87,33.25,24.47.58.03,1.17.05,1.76.05,15.78,0,33.72-11.18,44.46-28.18l.53-.88c3.53-5.77,8.87-14.5,9.85-31.66Z"/>
        <path class="cls-2" d="M390.94,225.64c.07-12.49-5.34-22.53-15.6-29.03-.69-.44-1.39-.87-2.1-1.27-.77-.43-1.55-.84-2.34-1.22-11.64-5.67-23.69-4.48-34.15-2.53-5.83,1.33-9.45,2.5-11.74,3.46-1.46-1.46-3.03-2.84-4.74-4.07-.97-.67-6.37-4.22-14.15-5.76-.48-2.23-.98-3.97-1.26-4.88-.01-.05-.23-.79-.25-.84-1.29-3.88-4.26-11.63-9.68-19.89-6.8-10.34-15.02-17.72-24.49-21.96-15.15-6.65-29.01-3.93-42.64,8.55-6.19,6.4-11.53,14.18-15.87,23.1-.54,1.12-4.52,10.56-4.96,11.86-1.56,4.27-6.56,19.27-5.14,33.02.89,10.47,5.87,20.98,13,27.42.12.11.54.44.67.53,7.94,6.03,16.67,9.07,25.99,9.07,1.13,0,2.27-.05,3.42-.13,12.05-.93,21.23-4.61,21.51-4.72,1.18-.45,2.22-.93,3.33-1.4,3.32,4.59,7.6,8.48,12.65,11.05,6.29,3.17,11.23,4.29,15.81,4.29.67,0,1.31-.14,1.97-.18.25.54.51,1.09.92,1.73,9.83,18.52,24.19,24.87,33.25,24.47.58.03,1.17.05,1.76.05,15.78,0,33.72-11.18,44.46-28.18l.53-.88c3.53-5.77,8.87-14.5,9.85-31.66ZM262.41,236.16c-.08.03-8.08,3.2-18.37,4-11.87.92-19.44-4.85-21.88-6.66-5-4.53-8.79-12.66-9.45-20.34-1.18-11.51,3.16-24.52,4.61-28.48.39-1.06,3.95-9.57,4.44-10.59,3.84-7.89,8.52-14.72,13.66-20.06,10.24-9.37,19.41-11.29,30.57-6.38,7.49,3.36,14.15,9.4,19.77,17.96,4.92,7.49,7.54,14.61,8.32,16.91l.28.99c.1.33.23.76.37,1.26-3.12.38-6.39,1.21-9.76,2.67-.86.37-1.62.86-2.44,1.29-1.82-1.99-4.05-3.77-6.3-5.03-6.73-3.79-14.11-3.84-20.25-.13-6.59,4-10.46,11.71-9.86,19.44.23,6.03,2.69,11.16,7.12,14.82,2.87,2.37,6.27,3.78,9.4,4.6,0,.53-.07,1.05-.06,1.58.03,3.82.78,7.6,2.04,11.21-.76.31-1.43.63-2.24.94ZM264.12,211.47c-1.43-.51-2.96-1.24-4.22-2.39-1.79-1.63-2.7-3.75-2.82-6.7-.29-3.87,1.51-7.58,4.61-9.47,2.17-1.32,4.47-1.53,7.04-.66,2.02.68,3.67,1.86,4.9,2.98-4.48,4.46-7.75,9.99-9.5,16.23ZM306.89,247.86c-7.63,2.01-11.53,2.43-19.54-1.62-8.18-4.17-13.72-13.13-13.78-22.46-.43-11.82,5.62-21.89,15.78-26.29,3.44-1.49,6.75-2.04,9.77-2.05,8.05,0,14.03,3.93,14.85,4.49,9.03,6.49,13.34,17.88,10.69,28.51-2.49,11.49-10.8,17.57-17.75,19.43ZM371.63,251.8l-.6,1.01c-8.69,13.74-23.71,23.26-36.56,22.57-6.52.09-15.93-5.16-23.02-17.53,4.14-1.36,8.46-3.71,12.35-7.14,1.96,1.41,4.3,2.61,7,3.2,1.02.22,2.2.38,3.49.38,3.21,0,7.18-.98,11.47-4.38,4.81-4.81,6.44-10.35,4.85-17.49-2.82-8.54-9.53-11.12-14.31-12.03-.27-5.63-1.81-11.14-4.48-16.14,2.05-.65,4.64-1.36,7.15-1.93,8.49-1.57,18.35-2.62,27.19,1.67.59.28,1.14.57,1.7.89.53.3,1.04.61,1.59.96,7.15,4.53,10.61,10.99,10.57,19.46-.82,14.14-4.94,20.88-8.38,26.5ZM335.17,231.37c2.53.61,4.13,1.69,4.89,3.93.65,2.96.13,4.69-1.56,6.43-1.71,1.35-3.44,1.83-5.18,1.51-.94-.17-1.76-.57-2.49-1,1.88-3.16,3.39-6.77,4.33-10.89Z"/>
      </g>
    </g>
    <g>
      <g>
        <g>
          <path class="cls-1" d="M132.96,66.35c1.54-3.31,2.83-8.81.26-16.17h0s0-.02,0-.02c-.23-.69-1.45-4.06-4.5-7.43-2.76-3.04-7.54-6.62-15-7.24v-.1s-2,0-2,0h-.04,0c-.07,0-.16,0-.27,0h-1.68s-.02.04-.02.1c-1.71.16-4.28.58-7.08,1.67l1.46-14.15.44-4.29s-3.56,2.43-3.56,2.43l-10.94,7.48c-2.5-5.78-9.05-20.85-10.59-24.4l-1.83-4.22-1.83,4.22c-1.55,3.56-8.09,18.63-10.59,24.4l-10.94-7.48-3.56-2.44.45,4.29,1.46,14.15c-2.79-1.08-5.33-1.5-7.04-1.66v-.1h-1.8c-.05,0-.09,0-.13,0h-.09c-.05,0-.07,0-.07,0l-1.95.04s0,.02,0,.06c-7.47.61-12.25,4.2-15.01,7.24-3.02,3.33-4.24,6.66-4.49,7.4,0,.02-.01.04-.02.05h0c-2.57,7.36-1.28,12.86.26,16.17,1.65,3.55,3.94,5.47,4.6,5.97,1.58,1.27,3.26,2.24,5,2.92-4.55,7.64-6.08,13.91-6.25,14.64-4.03,14.94,2.49,27.78,2.77,28.32,6.53,12.65,17.23,17.81,18.43,18.36,3.78,1.81,7.87,2.95,10.84,3.63,1.77,1.85,4.69,4.34,9.1,6.58,4.18,2.09,7.46,3.79,7.91,4.06.32.18.66.38.97.56l2,1.38,2.01-1.38c.3-.18.62-.37.9-.52.52-.32,3.8-2.01,7.97-4.1,4.42-2.25,7.34-4.74,9.11-6.59,2.96-.67,7.06-1.82,10.87-3.64,1.17-.53,11.86-5.7,18.4-18.34.28-.54,6.79-13.38,2.75-28.39-.15-.66-1.67-6.91-6.23-14.57,1.74-.68,3.42-1.66,5.04-2.95.62-.47,2.92-2.39,4.56-5.94Z"/>
          <g>
            <path class="cls-4" d="M70.28,33.25c.3-.05.7-.09.9-.1v2l-2.38-1.63,1.48-.27ZM131.15,65.51c1.39-2.99,2.54-7.97.17-14.74v.03c-.11-.36-1.21-3.57-4.08-6.73-2.73-3.01-7.63-6.6-15.52-6.68h0s0,0-.01,0h0s-.01,0-.03,0h0s0,0,0,0h0c-.58,0-4.91.02-9.57,2.15-.62.28-1.23.6-1.82.94.55-5.56,1.82-17.68,1.82-17.68l-12.94,8.84c-.15-.38-11.56-26.62-11.56-26.62,0,0-11.4,26.25-11.56,26.62l-12.94-8.84s1.27,12.13,1.82,17.68c-.59-.34-1.19-.65-1.82-.94-4.67-2.13-9-2.16-9.57-2.15h0s0,0,0,0h0s-.02,0-.03,0h0s0,0-.01,0h0c-7.89.08-12.79,3.67-15.52,6.68-2.87,3.16-3.97,6.37-4.09,6.73v-.03c-2.37,6.77-1.21,11.75.18,14.74,1.49,3.21,3.58,4.91,4,5.22,2.18,1.74,4.47,2.86,6.84,3.34l-.39.64c-5.12,8.06-6.77,14.78-6.97,15.61-3.84,14.27,2.33,26.45,2.6,26.96,6.22,12.04,16.31,16.92,17.48,17.46,3.85,1.84,8.05,2.98,11.04,3.63,1.44,1.58,4.32,4.25,8.97,6.62,3.47,1.74,7.43,3.76,8.05,4.14,0,0,1.31.74,1.92,1.17h0s0,0,0,0c0,0,0,0,0,0h0c.61-.45,1.92-1.18,1.92-1.18.62-.38,4.58-2.41,8.05-4.14,4.65-2.36,7.53-5.04,8.97-6.62,2.99-.65,7.19-1.79,11.04-3.63,1.17-.54,11.27-5.42,17.48-17.46.27-.51,6.44-12.69,2.6-26.96-.19-.84-1.84-7.56-6.97-15.61l-.39-.64c2.37-.48,4.66-1.6,6.84-3.34.41-.32,2.51-2.01,4-5.22ZM86.39,33.53l-2.38,1.63v-2c.2,0,.6.05.9.1l1.48.27Z"/>
            <path class="cls-5" d="M129.87,64.91c1.28-2.75,2.33-7.36.11-13.68-.09-.27-1.11-3.26-3.79-6.22-2.55-2.81-7.14-6.16-14.55-6.22h.04c-.18,0-4.4-.08-9.02,2.03-1.3.59-2.71,1.4-4.09,2.49.4-4.34,1.8-17.64,1.8-17.64l-16.39,11.2c-.54.4-.85.16-.85.16-.58-.32-.54-1.4-.54-1.4v-2.54c0-.77.53-1.09.53-1.09.41-.29.79-.27.79-.27.42-.01,1.23.12,1.23.12l2.79.52-1.38-3.38c-1.09-2.68-8.96-20.5-8.96-20.5,0,0-7.87,17.82-8.96,20.5l-1.38,3.38,2.79-.52s.81-.13,1.23-.12c0,0,.38-.02.79.27,0,0,.53.32.53,1.09v2.54s.04,1.08-.54,1.4c0,0-.31.23-.85-.16l-16.39-11.2s1.39,13.3,1.8,17.64c-1.38-1.09-2.79-1.9-4.09-2.49-4.61-2.11-8.84-2.03-9.02-2.03h.04c-7.41.05-12,3.41-14.55,6.22-2.69,2.96-3.7,5.95-3.79,6.22-2.22,6.32-1.16,10.92.11,13.68,1.36,2.92,3.23,4.44,3.58,4.7,3.07,2.46,5.97,3.25,8.32,3.32-.79,1.33-1.46,2.41-1.53,2.53-5.06,7.94-6.64,14.53-6.79,15.2-3.72,13.76,2.22,25.48,2.48,25.98,6.09,11.78,16.18,16.53,16.83,16.83,3.85,1.84,8.08,2.97,11.19,3.63,1.32,1.52,4.12,4.23,8.87,6.64,2.75,1.38,7.39,3.73,8.15,4.2l1.18.72h0s0,0,0,0h0s0,0,0,0l1.18-.72c.77-.47,5.4-2.82,8.15-4.2,4.75-2.41,7.54-5.12,8.87-6.64,3.11-.65,7.34-1.79,11.19-3.63.65-.3,10.74-5.04,16.83-16.83.26-.49,6.2-12.21,2.48-25.98-.15-.68-1.74-7.26-6.79-15.2-.07-.11-.73-1.2-1.53-2.53,2.35-.07,5.25-.86,8.32-3.32.34-.26,2.22-1.77,3.58-4.7Z"/>
            <g>
              <circle class="cls-4" cx="77.59" cy="85.88" r="18.86" transform="translate(-29.04 40.86) rotate(-25.01)"/>
              <g>
                <g>
                  <path class="cls-5" d="M77.59,101.75c-1.08,0-2.17-.09-3.48-.38,0,0-.98.74-1.86,1.06,1.84.57,3.56.86,5.35.85,1.79.01,3.51-.28,5.35-.85-.89-.32-1.86-1.06-1.86-1.06-1.32.29-2.4.39-3.48.38Z"/>
                  <path class="cls-5" d="M92.68,90.78c-.33,1.03-.76,2.03-1.44,3.2,0,0,.41,1.16.43,2.1,1.11-1.58,1.92-3.12,2.46-4.82.56-1.7.82-3.42.85-5.35-.58.75-1.59,1.44-1.59,1.44-.13,1.34-.37,2.4-.71,3.43Z"/>
                  <path class="cls-5" d="M86.91,73.04c.88.63,1.7,1.35,2.59,2.36,0,0,1.23-.03,2.13.24-1.15-1.54-2.37-2.79-3.83-3.83-1.44-1.06-3-1.84-4.82-2.46.53.78.88,1.95.88,1.95,1.24.54,2.17,1.1,3.04,1.74Z"/>
                  <path class="cls-5" d="M68.26,73.04c.87-.64,1.81-1.2,3.04-1.74,0,0,.35-1.17.88-1.95-1.82.62-3.38,1.4-4.82,2.46-1.45,1.04-2.67,2.28-3.83,3.83.9-.26,2.13-.24,2.13-.24.9-1.01,1.72-1.73,2.59-2.36Z"/>
                  <path class="cls-5" d="M62.49,90.78c-.34-1.03-.58-2.09-.71-3.43,0,0-1.01-.7-1.59-1.44.03,1.93.28,3.65.85,5.35.54,1.7,1.35,3.25,2.46,4.82.03-.94.43-2.1.43-2.1-.68-1.16-1.11-2.17-1.44-3.2Z"/>
                </g>
                <g>
                  <path class="cls-5" d="M77.58,91.63c-2.13,0-3.14-.19-3.14-.19l-3.83,5.23c.96,1.9,2.58,3.2,2.58,3.2,2.07.75,4.39.7,4.39.7,0,0,2.32.05,4.39-.7,0,0,1.62-1.3,2.58-3.2l-3.83-5.23s-1.01.19-3.14.19Z"/>
                  <path class="cls-5" d="M83.02,87.68c-.66,2.03-1.15,2.93-1.15,2.93l3.79,5.26c2.11-.33,3.85-1.47,3.85-1.47,1.36-1.73,2.03-3.96,2.03-3.96,0,0,.76-2.19.69-4.39,0,0-.74-1.94-2.25-3.45l-6.16,2.03s-.13,1.02-.79,3.05Z"/>
                  <path class="cls-5" d="M80.95,81.29c1.72,1.25,2.43,2,2.43,2l6.17-1.98c.34-2.1-.21-4.11-.21-4.11-1.23-1.83-3.14-3.15-3.14-3.15,0,0-1.85-1.4-3.97-2.01,0,0-2.08.1-3.97,1.07l.03,6.48s.93.44,2.65,1.69Z"/>
                  <path class="cls-5" d="M74.23,81.29c1.72-1.25,2.65-1.69,2.65-1.69l.03-6.48c-1.9-.97-3.97-1.07-3.97-1.07-2.12.61-3.97,2.01-3.97,2.01,0,0-1.91,1.33-3.14,3.15,0,0-.55,2.01-.21,4.11l6.17,1.98s.71-.75,2.43-2Z"/>
                  <path class="cls-5" d="M72.15,87.68c-.66-2.03-.79-3.05-.79-3.05l-6.16-2.03c-1.51,1.5-2.25,3.45-2.25,3.45-.08,2.2.69,4.39.69,4.39,0,0,.67,2.22,2.03,3.96,0,0,1.74,1.14,3.85,1.47l3.79-5.26s-.49-.9-1.15-2.93Z"/>
                </g>
              </g>
            </g>
            <path class="cls-4" d="M77.6,65.74c1.03,0,2.09.08,3.13.23.04-1.74.82-3.82,2.16-5.16,2.81.9,6.16.35,8.77-.45-1.46-1.67-3.07-3.49-3.22-5.79-.07-.99-.08-1.95.2-2.95.58-2.03,1.19-3.22,2.32-5,.52-.83,1.23-1.41,1.88-1.58,1.48-.38,2.77.67,3.15,2.07.47-5.66,1.07-11.3,1.66-16.95-4.71,3.07-9.23,6.4-13.82,9.65,1.44-.26,2.78.69,3.14,2.11.23.91-.18,1.68-.64,2.42-.72,1.19-1.27,2.37-2.29,3.33-1.67,1.56-3.69.67-3.63-1.01v-15.31c.07-1.36,1.9-2.75,4.08-1.5-2.12-5.21-4.75-10.18-6.88-15.39-2.13,5.21-4.76,10.18-6.88,15.39,2.18-1.25,4.01.14,4.08,1.5v15.31c.05,1.67-1.97,2.57-3.64,1.01-1.02-.96-1.57-2.14-2.29-3.33-.45-.74-.86-1.51-.64-2.42.36-1.42,1.69-2.37,3.14-2.11-4.59-3.24-9.11-6.57-13.82-9.65.59,5.65,1.18,11.29,1.66,16.95.38-1.4,1.67-2.46,3.15-2.07.66.17,1.36.76,1.88,1.58,1.13,1.78,1.74,2.97,2.32,5,.29,1,.27,1.97.2,2.95-.15,2.3-1.76,4.12-3.22,5.79,2.6.8,5.96,1.35,8.77.45,1.34,1.34,2.11,3.42,2.16,5.16,1.04-.15,2.09-.23,3.13-.23h0Z"/>
            <g>
              <g>
                <path class="cls-4" d="M124.9,67.82s6.77-4.99,2.92-15.88c0,0-3.44-10.79-16.22-10.89,0,0-15.32-.37-18.24,15.69,0,0-.95,5.4,1.16,11.08,0,0,1.71,4.7,3.77,8.36,0,0,3.27,5.67,4.63,9.33,0,0,3.98,9.39.27,18.08,0,0-1.29,4.07-5.83,7.22-.51-2.32-1.05-3.32-1.05-3.32-1.88,1.12-3.9,2.08-6.38,2.6-5.03,1.03-9.34-1.21-9.34-1.21v-3.04c-.98.15-1.98.22-3,.22s-2.02-.08-3-.22v3.04s-4.31,2.24-9.34,1.21c-2.48-.52-4.5-1.48-6.38-2.6,0,0-.54,1.01-1.06,3.33-4.55-3.15-5.84-7.23-5.84-7.23-3.71-8.69.27-18.08.27-18.08,1.36-3.66,4.63-9.33,4.63-9.33,2.07-3.66,3.77-8.36,3.77-8.36,2.11-5.68,1.16-11.08,1.16-11.08-2.91-16.06-18.24-15.69-18.24-15.69-12.77.09-16.22,10.89-16.22,10.89-3.85,10.89,2.92,15.88,2.92,15.88,6.2,5,11.4,1.92,11.4,1.92-1.15,2.16-4.06,6.91-4.06,6.91-5.08,7.98-6.52,14.55-6.52,14.55-3.57,13.1,2.29,24.41,2.29,24.41,5.87,11.36,15.77,15.82,15.77,15.82,4.08,1.96,8.68,3.07,11.47,3.62.85,1.09,3.48,4.05,8.66,6.68,0,0,7.18,3.59,8.31,4.29,1.14-.7,8.31-4.29,8.31-4.29,5.18-2.64,7.81-5.6,8.66-6.69,2.8-.55,7.38-1.67,11.45-3.62,0,0,9.9-4.46,15.77-15.82,0,0,5.86-11.31,2.29-24.41,0,0-1.44-6.57-6.52-14.55,0,0-2.91-4.75-4.06-6.91,0,0,5.2,3.08,11.4-1.92Z"/>
                <g>
                  <path class="cls-6" d="M115.66,55.78c-1.6-.82-3.29-.68-4.61-.15-1.83.72-3.08,2.63-3.31,4.56-.17,1.44-.11,2.86.36,4.26,2.32,7,6.57,12.27,9.93,18.77,2.4,4.65,3.9,9.54,4.29,14.72.31,4.14-.29,8.25-1.46,12.32-1.59,5.54-5.06,9.87-9.14,13.81-2.42,2.34-4.61,3.71-7.86,5.27-2.02.98-5,1.76-7.35,2.27,1.86-4.71,2.08-11.59,1.25-17.74,4.27-2.36,7.14-6.31,8.62-10.76,2.42-7.29,1.06-15.17-2.26-21.91-4.25-8.61-10.87-17.48-7.05-27.42,1.13-2.94,2.67-5.13,5.38-6.98,6.28-4.29,14.67-3.91,19.82,1.51,3.44,3.63,4.77,9.12,3.28,13.84-1.01,3.19-4.58,5.69-8.34,5.66-1.82-.01-3.41-1.03-4.47-1.97-1.45-1.28-2.63-3.8-1.47-6.02.66-1.27,2.21-1.84,3.57-1.36,0,0,2.33.73,1.96,3.19.89-.67,1.9-4.11-1.13-5.89Z"/>
                  <path class="cls-5" d="M102.56,69.72s-4.33-6.37-1.76-14.05c0,0,2.28-7.2,10.06-8.01,0,0,7.61-1.15,11.12,5.88,0,0,2.1,3.92.16,7.55,0,0-.93,1.72-2.69,2.06,2.61-3.11,1.1-6.63,1.1-6.63-1.95-5.42-7.89-5.11-7.89-5.11-5.59,0-7.92,4.78-7.92,4.78-2.84,5.73,1.29,11.92,1.29,11.92l-3.47,1.61Z"/>
                </g>
                <g>
                  <path class="cls-6" d="M39.49,55.78c1.6-.82,3.29-.68,4.61-.15,1.83.72,3.08,2.63,3.31,4.56.17,1.44.11,2.86-.36,4.26-2.32,7-6.57,12.27-9.93,18.77-2.4,4.65-3.9,9.54-4.29,14.72-.31,4.14.29,8.25,1.46,12.32,1.59,5.54,5.06,9.87,9.14,13.81,2.42,2.34,4.61,3.71,7.86,5.27,2.02.98,5,1.76,7.35,2.27-1.86-4.71-2.08-11.59-1.25-17.74-4.27-2.36-7.14-6.31-8.62-10.76-2.42-7.29-1.06-15.17,2.26-21.91,4.25-8.61,10.87-17.48,7.05-27.42-1.13-2.94-2.67-5.13-5.38-6.98-6.28-4.29-14.67-3.91-19.82,1.51-3.44,3.63-4.77,9.12-3.28,13.84,1.01,3.19,4.58,5.69,8.34,5.66,1.82-.01,3.41-1.03,4.47-1.97,1.45-1.28,2.63-3.8,1.47-6.02-.66-1.27-2.21-1.84-3.57-1.36,0,0-2.33.73-1.96,3.19-.89-.67-1.9-4.11,1.13-5.89Z"/>
                  <path class="cls-5" d="M52.6,69.72s4.33-6.37,1.76-14.05c0,0-2.28-7.2-10.06-8.01,0,0-7.61-1.15-11.12,5.88,0,0-2.1,3.92-.16,7.55,0,0,.93,1.72,2.69,2.06-2.61-3.11-1.1-6.63-1.1-6.63,1.95-5.42,7.89-5.11,7.89-5.11,5.59,0,7.92,4.78,7.92,4.78,2.84,5.73-1.29,11.92-1.29,11.92l3.47,1.61Z"/>
                </g>
              </g>
              <g>
                <path class="cls-5" d="M87.01,127.6c-1,1.05-2.73,1.75-4.71,1.75s-3.71-.7-4.71-1.75c-1,1.05-2.74,1.75-4.71,1.75s-3.71-.7-4.71-1.75c-1,1.05-2.74,1.75-4.71,1.75-1.04,0-2.02-.2-2.85-.53.13.51.28,1.02.45,1.51.32,1.02.87,2,1.56,2.92.27.03.55.04.84.04,1.98,0,3.71-.7,4.71-1.75,1,1.05,2.73,1.75,4.71,1.75s3.71-.7,4.71-1.75c1,1.05,2.73,1.75,4.71,1.75s3.71-.7,4.71-1.75c1,1.05,2.73,1.75,4.71,1.75.28,0,.56-.02.83-.04.69-.92,1.24-1.9,1.56-2.92.17-.49.31-1,.45-1.51-.83.34-1.81.53-2.84.53-1.98,0-3.71-.7-4.71-1.75Z"/>
                <path class="cls-7" d="M87.01,119.31c-1,1.05-2.73,1.75-4.71,1.75s-3.71-.7-4.71-1.75c-1,1.05-2.74,1.75-4.71,1.75s-3.71-.7-4.71-1.75c-1,1.05-2.74,1.75-4.71,1.75-1.5,0-2.86-.4-3.87-1.06,0,1.32.05,2.68.19,4.06.99.58,2.27.94,3.68.94,1.98,0,3.71-.7,4.71-1.75,1,1.05,2.73,1.75,4.71,1.75s3.71-.7,4.71-1.75c1,1.05,2.73,1.75,4.71,1.75s3.71-.7,4.71-1.75c1,1.05,2.73,1.75,4.71,1.75,1.41,0,2.69-.35,3.67-.94.13-1.38.19-2.74.19-4.06-1.01.65-2.36,1.05-3.86,1.05-1.98,0-3.71-.7-4.71-1.75Z"/>
                <path class="cls-7" d="M82.3,137.64c-1.98,0-3.71-.7-4.71-1.75-1,1.05-2.74,1.75-4.71,1.75s-3.71-.7-4.71-1.75c-.41.43-.95.8-1.58,1.09.37.26.75.51,1.13.75,2.95,1.86,5.65,3.07,8.05,4.26,0,0,.96.49,1.82.97.86-.48,1.82-.97,1.82-.97,2.4-1.19,5.1-2.4,8.05-4.26.38-.23.76-.48,1.13-.75-.63-.29-1.16-.66-1.57-1.09-1,1.05-2.73,1.75-4.71,1.75Z"/>
                <path class="cls-5" d="M68.17,114.96c1,1.05,2.73,1.75,4.71,1.75s3.71-.7,4.71-1.75c1,1.05,2.73,1.75,4.71,1.75s3.71-.7,4.71-1.75c1,1.05,2.73,1.75,4.71,1.75,1.4,0,2.68-.35,3.67-.93-.17-1.93-.44-3.56-.68-4.65-10.07,4.34-17.13-1.41-17.13-1.41,0,0-7.05,5.75-17.13,1.41-.24,1.1-.5,2.72-.68,4.65.98.58,2.27.94,3.68.94,1.98,0,3.71-.7,4.71-1.75Z"/>
              </g>
            </g>
          </g>
        </g>
        <g>
          <path class="cls-4" d="M49.68,75.7c.27.11.47.1.64.02s.31-.22.41-.41c.24-.41.2-.68-.05-.83-1.07-.63-2.34,3.03-4.92,1.5-1.65-.97-1.8-2.55-.87-4.11.89-1.5,2.56-1.83,3.87-1.11l-1.06,1.79c-.28-.11-.53-.11-.74-.02-.21.08-.38.24-.49.42-.28.47-.27.89.07,1.08,1.08.64,2.27-3.07,4.98-1.47,1.51.89,1.65,2.39.81,3.81-.93,1.58-2.37,1.7-3.69,1.1l1.05-1.77Z"/>
          <path class="cls-4" d="M41.8,78.18l7.56,3.33-.87,1.98-2.55-1.12-.82,1.87,2.55,1.12-.87,1.98-7.56-3.33.87-1.98,2.93,1.29.82-1.87-2.93-1.29.87-1.98Z"/>
          <path class="cls-4" d="M40.43,95.88c-2.77-.49-4.07-2.25-3.73-4.18.36-2.04,2.18-3.13,4.95-2.64,2.55.45,3.97,2.12,3.62,4.15-.41,2.32-2.69,3.05-4.84,2.67ZM41.25,91.19c-1.04-.18-2.38-.16-2.56.86-.16.92.77,1.46,2.11,1.69,1.11.19,2.35.04,2.48-.91.17-.97-1-1.47-2.03-1.65Z"/>
          <path class="cls-4" d="M40.24,103.93l1.86-.27,2.61-.27.21,2.06-8.22.85-.21-2.02,4.23-2.81-1.86.27-2.6.27-.21-2.06,8.22-.85.21,2.02-4.24,2.81Z"/>
          <path class="cls-4" d="M38.43,111.54l8.2-2.58,1.21,1.84-5.59,6.53-1.19-1.8.77-.82-1.19-1.8-1.05.39-1.17-1.77ZM45.14,111.24l-2.84,1.07.75,1.14,2.08-2.21Z"/>
          <path class="cls-4" d="M51.78,120.08l.97-1.61,1.45-2.19,1.73,1.15-4.56,6.88-1.69-1.12.52-5.05-.97,1.61-1.44,2.18-1.73-1.15,4.56-6.88,1.69,1.12-.52,5.06Z"/>
        </g>
      </g>
      <g>
        <polygon class="cls-4" points="108.91 69.68 107.33 70.48 108.41 72.63 107.02 73.34 105.95 71.19 104.34 72.03 105.41 74.17 104.15 74.81 103.07 72.67 101.55 73.45 103.54 77.42 110.9 73.65 108.91 69.68"/>
        <polygon class="cls-4" points="119.05 99.42 117.36 99.33 117.25 101.74 110.65 101.36 110.56 103.34 118.85 103.8 119.05 99.42"/>
        <polygon class="cls-4" points="118.27 107.16 116.67 106.6 115.88 108.87 109.64 106.59 108.99 108.46 116.83 111.31 118.27 107.16"/>
        <path class="cls-4" d="M108.14,86.77l6.95-4.67.74,2.01-1.08.7.57,1.55,1.31-.07.75,2.01-8.46.6-.79-2.12ZM111.5,86.87l2.24-.22-.39-1.06-1.85,1.29Z"/>
        <path class="cls-4" d="M107.47,81.53l1.73-.84-.18-.35c-.11-.19-.34-.4-.54-.44-.41-.08-1.04.23-1.23.52-.08.13-.1.47.03.72l.19.39ZM108.95,78.33c.1-.59.43-.85,1.09-1.32,1-.72,1.91-1.33,1.91-1.33l1.02,2.02s-1.13.54-1.92,1.04c-.56.38-.71.75-.68.94.04.19.15.43.15.43l2.96-1.44.91,1.82-7.37,3.58-1.31-2.6s-.53-1.07-.25-1.91c.28-.83.82-1.08,1.41-1.37.59-.29,1.64-.31,2.05.14Z"/>
        <polygon class="cls-4" points="114.25 115.5 112.94 114.36 111.39 116.13 110.24 115.13 111.79 113.36 110.55 112.27 109 114.05 107.84 113.05 109.4 111.27 108.13 110.17 105.25 113.46 111.37 118.79 114.25 115.5"/>
        <path class="cls-4" d="M99.22,117.69l2.54-1.76c1.25-.91,2.36-.09,2.68.38.46.66.86,1.26.45,2.17,0,0,1.25-.42,2.22.98,1.16,1.67-.61,3.06-.61,3.06l-2.65,1.83-4.64-6.66ZM102.11,117.44l-.45.3,1.08,1.54.59-.41c.21-.27.2-.55-.19-1.12-.31-.44-.64-.49-1.03-.31ZM103.97,120.12l-.45.3,1.1,1.56.59-.41c.19-.3.34-.57-.06-1.13-.3-.44-.79-.5-1.18-.32Z"/>
        <polygon class="cls-4" points="110.45 95.95 112.67 94.54 110.12 93.75 109.8 91.6 118.05 90.39 118.34 92.26 113.86 92.92 116.57 93.91 114.26 95.61 118.74 94.95 119.04 96.97 110.79 98.18 110.45 95.95"/>
      </g>
    </g>
  </g>
</svg>