<?xml version="1.0" encoding="UTF-8"?>
<svg id="_レイヤー_2" data-name="レイヤー 2" xmlns="http://www.w3.org/2000/svg" xmlns:xlink="http://www.w3.org/1999/xlink" viewBox="0 0 426.45 445.68">
  <defs>
    <style>
      .cls-1 {
        fill: none;
      }

      .cls-2 {
        fill: #221815;
      }

      .cls-3 {
        fill: #ffe100;
      }

      .cls-4 {
        fill: #fff;
      }

      .cls-5 {
        fill: #005bac;
      }

      .cls-6 {
        fill: #fff100;
      }

      .cls-7 {
        fill: #00a33e;
      }

      .cls-8 {
        clip-path: url(#clippath);
      }
    </style>
    <clipPath id="clippath">
      <path class="cls-1" d="M390.94,220.7c.07-12.48-5.34-22.53-15.6-29.03-.69-.44-1.39-.87-2.1-1.27-.77-.43-1.55-.85-2.34-1.22-11.64-5.67-23.69-4.48-34.15-2.53-5.83,1.33-9.45,2.5-11.74,3.46-1.46-1.46-3.03-2.84-4.74-4.07-.97-.67-6.37-4.22-14.15-5.76-.48-2.22-.98-3.96-1.26-4.88-.01-.05-.23-.79-.25-.84-1.29-3.88-4.26-11.63-9.68-19.89-6.8-10.34-15.02-17.72-24.49-21.96-15.15-6.65-29.01-3.93-42.64,8.55-6.19,6.4-11.53,14.18-15.87,23.1-.54,1.12-4.52,10.56-4.96,11.86-1.56,4.27-6.56,19.27-5.14,33.03.89,10.47,5.87,20.98,13,27.42.12.11.54.44.67.53,7.94,6.03,16.67,9.07,25.99,9.07,1.13,0,2.27-.05,3.42-.13,12.05-.93,21.23-4.61,21.51-4.72,1.18-.45,2.22-.93,3.33-1.4,3.32,4.59,7.6,8.48,12.65,11.05,6.29,3.17,11.23,4.29,15.81,4.29.67,0,1.31-.14,1.97-.18.25.54.51,1.09.92,1.73,9.83,18.52,24.19,24.87,33.25,24.47.58.03,1.17.05,1.76.05,15.78,0,33.72-11.18,44.46-28.18l.53-.88c3.53-5.77,8.87-14.5,9.85-31.66Z"/>
    </clipPath>
  </defs>
  <g id="_レイヤー_1-2" data-name="レイヤー 1">
    <g>
      <path class="cls-6" d="M426.45,228.16c0,117.76-84.41,196.43-213.22,196.43S0,345.92,0,228.16,95.46,14.94,213.22,14.94s213.22,95.46,213.22,213.23Z"/>
      <g>
        <g>
          <g>
            <path class="cls-2" d="M419.52,296.72c-1.3-.72-2.84-1.24-3.8-1.44-6.81-1.4-13.64-2.18-20.31-2.33-3.7-.09-7.16,0-10.5.16-1.79-20.11-8.09-39.31-19.27-58.27,1.62-9.72,2.12-22.36,2.53-32.66l.21-5.17c.84-18.75-5.88-43.26-14.38-52.46-2.12-2.29-5.31-4.04-8.12-4.45-21.54-3.21-49.87,5.35-81.73,24.67l-4-.59c-26.18-3.9-58.77-8.75-103.06,1.53-1.4.32-2.95.78-4.54,1.26-2.36.71-6.76,1.98-7.92,1.68-8.49-4.64-30.28-15.71-49.14-18.49-17.53-2.61-29.09.83-34.52,10.31-15.37,28.86-7.65,69.07-4.44,79.47-16,31.01-15.7,63.87-15.6,67.47-.01.84.03,1.72.04,2.58-.84.06-1.6.09-2.48.16-8.93.71-17.8,1.58-28.07,4.44-3.34.92-6.41,3.14-5.81,5.59.47,1.92,2.84,2.34,4.83,2.34,1.54,0,2.85-.25,2.89-.26,10.63-2.17,16.02-2.75,23.47-3.55l3.14-.34c.81-.09,1.61-.13,2.42-.2.81,9.68,2.85,19.99,6.48,30.18-4.44,1.67-9.56,3.89-15.71,7.07-.04.02-3.98,2.08-4.74,4.62-.23.78-.15,1.56.23,2.24.62,1.11,1.92,1.46,3.31,1.46,2.3,0,4.82-.95,4.86-.96,1.84-.81,3.57-1.58,5.21-2.31,3.72-1.66,6.96-3.05,10-4.23,3.93,8.9,9.09,17.53,15.73,25.34-6.84,3.96-15.09,9.33-24.43,16.6-1.94,1.52-3.19,3.45-3.41,5.32-.12,1.04.11,1.99.65,2.67.41.51,1.18.73,2.1.73,1.62,0,3.71-.68,5.14-1.7,10.26-7.27,19.16-12.89,26.15-17.04,7.51,7.31,16.5,13.67,27.22,18.49,35.27,15.84,67.77,19.4,108.95,20l4.04-.06,4.36.06c47.38-.7,84.81-7.46,111.26-20.11,15.35-7.34,27.56-17.24,36.7-29.54,7.64,2.61,16.9,6.62,25.83,12.66,1.14.79,3.45,2.17,5.5,2.17.92,0,1.79-.27,2.47-1.01.29-.3.61-.85.53-1.73-.17-1.86-2.23-4.46-3.56-5.43-9.12-6.66-18.29-10.95-26.01-13.74,5.25-8.67,9.17-18.37,11.72-29.12,5.64.9,12.22,2.35,19.44,4.77.04,0,2.17.71,4.26.71,1.57,0,3.11-.39,3.7-1.78.27-.63.26-1.33-.03-2.02-1.04-2.48-5.39-4.32-5.43-4.33-7.12-2.82-14.12-4.47-20.31-5.49,1.35-8.14,2-16.8,1.93-26,.02-1.57-.07-3.12-.1-4.67,2.93-.16,5.97-.26,9.16-.22,4.96.05,10.48.42,15.35.74,1.52.1,2.99.19,4.4.28,3.19.18,7.1-.41,7.57-2.73.17-.81-.11-2.03-2.36-3.29Z"/>
            <path class="cls-4" d="M354.53,234.85c1.76-9.13,2.29-22.42,2.71-33.11l.22-5.23c.76-16.97-5.67-38.25-11.49-44.55-.51-.56-1.4-.99-1.72-1.06-18.78-2.76-45.27,5.51-74.57,23.31-2.08,1.26-3.22,1.95-5.23,1.65l-5.91-.87c-25.25-3.76-56.69-8.45-98.98,1.36-1.2.27-2.52.67-3.87,1.08-5.38,1.6-11.46,3.43-16.3.79-7.98-4.35-28.38-14.75-45.5-17.28-12.59-1.85-20.45-.25-23.34,4.78-10.47,19.65-8.42,46.45-5.73,61.45.72-.85,1.42-1.62,2.07-2.27,2.63-2.63,5.32-3.6,7.16-2.33,1.91,1.32,1.15,4.66-.08,7.33-1.22,2.65-3.69,7.76-5.63,11.18,0,0,0,.01,0,.02-16.85,29.6-16.54,62.53-16.45,66.2,0,.74.03,1.51.04,2.26,9.31.02,14.99,1,17.89,1.74l.21.05c.06.01,7.62,1.41,7.18,5.04-.39,3.23-4.98,2.99-7.2,2.87l-.82-.06c-2.44-.37-8.96-1.24-16.86-1.4.79,8.79,2.71,18.09,6.01,27.25,4.52-1.04,7.71-1.28,9.83-1.4l.29-.02c2.79-.15,9.39-.25,9.73,3.07.3,2.87-4.87,4.24-7.11,4.7-1.04.21-2.16.36-3.41.53-1.75.24-3.74.52-6.09,1.02,3.77,8.24,8.76,16.15,15.14,23.24,6.63-3.21,10.45-4.4,10.53-4.42.06-.03,6.57-1.68,7.84,1.28,1.09,2.56-1.67,3.92-4.33,5.24-.85.42-1.74.86-2.55,1.35,0,0-.09.05-.26.13-1.03.51-2.75,1.4-5.02,2.62,6.17,5.56,13.32,10.43,21.71,14.2,33.54,15.07,64.84,18.45,104.46,19.04l4.04-.06,4.36.06c44.98-.67,81.88-7.25,106.54-19.04,12.36-5.91,22.38-13.54,30.17-22.9-3.71-.86-5.98-1.18-6.04-1.19-1.42-.14-5.85-1.17-7.34-3.19-.44-.61-.61-1.28-.47-1.94.75-3.62,7.32-2.9,10.09-2.42.35.03,3.75.38,9.03,1.65,5.2-7.94,9.03-16.98,11.53-27.11-2.33-.14-4.2-.17-5.48-.17-2.44.01-5.28-.05-5.28-.05-.74-.07-6.59-.76-6.82-3.68-.03-.39.05-1,.6-1.64,1.31-1.53,4.62-2.39,6.03-2.5l.31-.03c.84-.08,3.07-.3,5.31-.32h.61c1.62,0,3.81.05,6.42.22,1.29-7.68,1.93-15.9,1.86-24.75.01-1.24-.07-2.46-.09-3.69-6.85.85-12.47,1.97-16.3,2.74-1.96.39-3.38.68-4.24.78-1.38.2-2.56.3-3.55.3-2.31,0-3.58-.56-4-1.72-.29-.84-.23-1.74.18-2.59.74-1.52,2.53-2.81,5.19-3.72,2.09-.71,10.2-3.2,22.24-4.68-1.72-19.09-7.86-37.28-18.78-55.31-.7-1.16-.95-2.54-.69-3.87Z"/>
          </g>
          <g>
            <path class="cls-2" d="M115.31,316.53c-3.5,7.1-3.52,18.45,1.21,24.48,2.92,3.45,7.8,5.41,14.09,4.33,5.43-.94,8.52-5.9,9.55-9.85,2.23-8.84-.14-19.68-5.23-23.79-5.36-3.91-15.39-3.82-19.61,4.83Z"/>
            <path class="cls-2" d="M285.41,317.57c-3.5,7.1-3.52,18.45,1.21,24.48,2.92,3.45,7.8,5.41,14.09,4.33,5.43-.94,8.52-5.9,9.55-9.85,2.23-8.84-.14-19.68-5.23-23.79-5.36-3.91-15.39-3.82-19.61,4.83Z"/>
            <g>
              <path class="cls-2" d="M230.45,348.28c-1.17-4.16-4.32-7.43-8.44-8.76-7.86-2.55-15.82-1.48-20.77,2.79-5.16,4.56-5.41,12.65-2.19,16.84,2.99,3.88,7.72,5.9,14.48,6.2.31.01.63.02.94.02,5.41,0,10.44-1.98,13.31-5.27v-.02c2.83-3.28,3.82-7.69,2.67-11.81Z"/>
              <path class="cls-3" d="M219.91,346.03c-2.1-.68-4.24-1.01-6.25-1.01-3.19,0-6.05.84-7.91,2.45-2.45,2.17-2.29,6.18-1.26,7.52,1.68,2.18,4.74,3.34,9.35,3.54,4.27.17,7.46-1.38,8.79-2.9,1.34-1.56,1.79-3.55,1.24-5.49-.54-1.94-2.02-3.48-3.96-4.11Z"/>
            </g>
          </g>
        </g>
        <g>
          <g>
            <path class="cls-2" d="M174.31,406.36c-1.48-4.63-4.48-8.3-7.74-11.99-11.57-11.11-31.76-15.56-47.81-10.64-11.58,3.03-24.94,13.2-26.89,28.3-1.79,11.76,2.42,22.06,11.65,27.76,9.31,4.78,19.42,4.67,29.7-.17.87-.33,1.3-.24,3.57.72,1.42.61,3.17,1.34,5.28,1.7,3.57,1.03,6.76,1.46,9.57,1.46,7.46,0,12.38-3.02,15.44-6.04,7.97-7.84,10.94-20.61,7.23-31.1Z"/>
            <path class="cls-4" d="M163.98,409.95c-.03-.07-.05-.13-.07-.2-.83-2.65-3.05-5.31-5.25-7.82-8.41-8.05-24.41-11.47-36.92-7.67-8.41,2.2-17.79,9.67-19.04,19.29-.55,3.62-1.01,12.25,6.19,16.72,5.93,3.02,12.4,2.87,20-.7,1.9-.75,3.63-1.02,5.19-1.02,2.92,0,5.24.98,6.98,1.72,1.12.47,2.08.88,2.97,1.01.27.04.53.09.78.17,6.51,1.94,11.44,1.34,14.59-1.78,4.91-4.82,6.87-13.3,4.58-19.71Z"/>
          </g>
          <g>
            <path class="cls-2" d="M338.19,414.32c-1.98-15.21-15.33-25.39-26.69-28.34-16.27-4.97-36.47-.53-48.34,10.91-2.82,3.2-5.95,7-7.44,11.65-3.71,10.49-.74,23.27,7.22,31.1,3.07,3.03,8,6.05,15.45,6.05,2.81,0,5.99-.43,9.57-1.46,2.11-.36,3.85-1.1,5.28-1.7,2.29-.98,2.71-1.06,3.23-.87,10.61,5,20.73,5.1,30.44.1,8.83-5.48,13.04-15.78,11.27-27.43Z"/>
            <path class="cls-4" d="M327.35,415.85c-1.27-9.74-10.64-17.21-18.84-19.34-3.53-1.08-7.32-1.6-11.13-1.6-9.92,0-20.02,3.48-26.32,9.53-1.88,2.17-4.1,4.83-4.94,7.48-.02.07-.04.13-.07.2-2.29,6.41-.33,14.89,4.56,19.7,3.17,3.11,8.06,3.72,14.6,1.78.25-.07.51-.13.78-.17.89-.13,1.85-.53,2.97-1.01,2.67-1.14,6.69-2.83,11.82-.85,7.93,3.73,14.41,3.87,20.73.63,6.81-4.24,6.35-12.88,5.82-16.38Z"/>
          </g>
        </g>
        <g>
          <g class="cls-8">
            <rect class="cls-6" x="240.92" y="118.1" width="108.55" height="184.44" transform="translate(-20.17 388.97) rotate(-65)"/>
            <g>
              <path class="cls-5" d="M276.13,234.09c10.44-18.02,24.27-36.27,44.09-43.46,25.46-9.23,34.17,4.38,70.93-7.57,3.79-1.23,4.23,1.26,1.02,4.17-19.86,18.02-33.97,27.88-62.71,22.49-20.84-3.91-41.7,16.11-50.77,27.03-3.55,4.27-4.69.9-2.57-2.66Z"/>
              <path class="cls-5" d="M279.6,244.97c9.39-11.13,22.37-18.35,35.23-19.68,16.51-1.7,26.87,5.74,49.99-4.27,2.38-1.03,2.16.27.25,3.2-11.75,18.09-30.65,22.55-48.65,18.59-12.17-2.68-27.81-.88-35.09,5.32-2.85,2.42-3.61-.97-1.72-3.16Z"/>
              <path class="cls-5" d="M282.7,255.44c6.42-2.59,13.14-4.52,19.84-2.82,9.25,2.35,13.89,6.38,26.17,3.22,1.32-.34,1.99,1.19.86,2.94-6.98,10.8-19.17,10.75-28.94,5.02-6.03-3.54-12.63-6.03-17.16-5.37-1.77.26-2.06-2.49-.78-2.99Z"/>
            </g>
          </g>
          <path class="cls-2" d="M390.94,220.7c.07-12.48-5.34-22.53-15.6-29.03-.69-.44-1.39-.87-2.1-1.27-.77-.43-1.55-.85-2.34-1.22-11.64-5.67-23.69-4.48-34.15-2.53-5.83,1.33-9.45,2.5-11.74,3.46-1.46-1.46-3.03-2.84-4.74-4.07-.97-.67-6.37-4.22-14.15-5.76-.48-2.22-.98-3.96-1.26-4.88-.01-.05-.23-.79-.25-.84-1.29-3.88-4.26-11.63-9.68-19.89-6.8-10.34-15.02-17.72-24.49-21.96-15.15-6.65-29.01-3.93-42.64,8.55-6.19,6.4-11.53,14.18-15.87,23.1-.54,1.12-4.52,10.56-4.96,11.86-1.56,4.27-6.56,19.27-5.14,33.03.89,10.47,5.87,20.98,13,27.42.12.11.54.44.67.53,7.94,6.03,16.67,9.07,25.99,9.07,1.13,0,2.27-.05,3.42-.13,12.05-.93,21.23-4.61,21.51-4.72,1.18-.45,2.22-.93,3.33-1.4,3.32,4.59,7.6,8.48,12.65,11.05,6.29,3.17,11.23,4.29,15.81,4.29.67,0,1.31-.14,1.97-.18.25.54.51,1.09.92,1.73,9.83,18.52,24.19,24.87,33.25,24.47.58.03,1.17.05,1.76.05,15.78,0,33.72-11.18,44.46-28.18l.53-.88c3.53-5.77,8.87-14.5,9.85-31.66ZM262.41,231.22c-.08.03-8.08,3.2-18.37,4-11.87.91-19.45-4.84-21.88-6.66-5-4.53-8.79-12.66-9.45-20.34-1.18-11.51,3.16-24.52,4.61-28.48.39-1.06,3.95-9.57,4.44-10.59,3.84-7.89,8.52-14.72,13.66-20.06,10.24-9.37,19.41-11.29,30.57-6.38,7.49,3.36,14.15,9.4,19.77,17.96,4.92,7.49,7.54,14.61,8.32,16.9l.28.99c.1.33.23.76.37,1.26-3.12.38-6.39,1.21-9.76,2.67-.86.37-1.62.86-2.44,1.29-1.82-1.99-4.05-3.77-6.3-5.03-6.73-3.79-14.11-3.84-20.25-.13-6.59,4-10.46,11.71-9.86,19.44.23,6.03,2.69,11.16,7.12,14.82,2.87,2.37,6.27,3.78,9.4,4.6,0,.53-.07,1.05-.06,1.58.03,3.82.78,7.6,2.04,11.21-.76.31-1.43.63-2.24.94ZM264.12,206.53c-1.43-.51-2.96-1.24-4.22-2.39-1.79-1.63-2.7-3.75-2.82-6.7-.29-3.87,1.51-7.59,4.61-9.47,2.17-1.32,4.47-1.53,7.04-.66,2.02.68,3.67,1.86,4.9,2.98-4.48,4.46-7.75,9.99-9.5,16.23ZM306.89,242.92c-7.63,2.01-11.53,2.43-19.54-1.62-8.18-4.17-13.72-13.13-13.78-22.46-.43-11.82,5.62-21.89,15.78-26.29,3.44-1.49,6.75-2.04,9.77-2.05,8.05,0,14.03,3.93,14.85,4.49,9.03,6.49,13.34,17.88,10.69,28.51-2.49,11.49-10.8,17.57-17.75,19.43ZM371.63,246.86l-.6,1.01c-8.69,13.74-23.71,23.26-36.56,22.57-6.52.09-15.93-5.16-23.02-17.53,4.14-1.36,8.46-3.71,12.35-7.14,1.96,1.41,4.3,2.61,7,3.2,1.02.22,2.2.38,3.49.38,3.21,0,7.18-.98,11.47-4.38,4.8-4.81,6.43-10.35,4.84-17.49-2.82-8.54-9.53-11.12-14.31-12.03-.27-5.63-1.81-11.14-4.48-16.14,2.05-.65,4.64-1.36,7.15-1.93,8.49-1.57,18.35-2.62,27.19,1.67.59.28,1.14.58,1.7.89.53.3,1.04.61,1.59.96,7.15,4.53,10.61,10.99,10.57,19.46-.82,14.14-4.94,20.88-8.38,26.5ZM335.17,226.43c2.53.61,4.13,1.69,4.89,3.94.65,2.96.13,4.69-1.56,6.43-1.71,1.35-3.44,1.83-5.18,1.51-.94-.17-1.76-.56-2.49-1,1.88-3.16,3.39-6.77,4.33-10.89Z"/>
        </g>
      </g>
    </g>
    <g>
      <path d="M135.48,87.54v-.1s-.13-9.5-.13-9.5c0-.16-.09-.3-.23-.37-.14-.07-.31-.06-.44.04l-7.64,5.64s-2.25,1.66-3.04,2.25l-1.37-1.23s-.98-.88-1.34-1.2c8.41-14.22,12.68-27.94,12.68-40.76s-1.9-22.29-5.8-29.87l-2.51-4.88c-.05-.1-.15-.18-.26-.21-.11-.03-.23-.02-.33.04l-4.76,2.73c-4.7,2.69-10.19,4.11-15.89,4.11-9.03,0-17.31-3.51-22.72-9.62l-3.93-4.45c-.08-.09-.2-.14-.32-.14s-.24.05-.32.14l-3.93,4.45c-5.41,6.11-13.69,9.62-22.72,9.62-5.7,0-11.19-1.42-15.89-4.11l-4.76-2.73c-.1-.06-.22-.07-.33-.04-.11.03-.2.11-.26.21l-2.51,4.88c-3.91,7.58-5.8,17.36-5.8,29.87s4.27,26.54,12.68,40.76l-1.34,1.2s-1.01.9-1.37,1.23l-3.04-2.25-3.82-2.82-2.63-1.94q-1.4-1.04-1.64-.92c-.14.07-.23.22-.23.38,0,0-.13,9.49-.13,9.49,0,0,0,.1,0,.1,0,0,0,.61,0,.61,0,10.26,2.71,20.33,7.84,29.15,0,0,2.36,4.06,2.36,4.06.11.2.36.27.56.16l1.86-.99c10.47,14.66,27.42,23.4,45.42,23.4s34.95-8.74,45.42-23.4l1.86.99c.2.11.45.04.56-.16l2.36-4.06c5.13-8.82,7.84-18.9,7.84-29.15,0,0,0-.61,0-.61Z"/>
      <path class="cls-4" d="M134.63,87.55s0-.1,0-.1l-.12-8.68c-1.1.82-6.98,5.15-6.98,5.15l-3.32,2.45c-.16.12-.38.11-.53-.03l-1.63-1.46-1.6-1.43c-.15-.13-.18-.36-.08-.53,8.45-14.2,12.73-27.87,12.73-40.63s-1.87-22.03-5.71-29.49l-2.31-4.48-4.38,2.51c-4.82,2.76-10.46,4.22-16.31,4.22-9.27,0-17.79-3.61-23.35-9.9l-3.61-4.09c-.54.61-3.61,4.09-3.61,4.09-5.57,6.29-14.08,9.9-23.35,9.9-5.85,0-11.48-1.46-16.31-4.22l-4.38-2.51c-.34.66-2.31,4.48-2.31,4.48-3.84,7.46-5.71,17.11-5.71,29.49s4.28,26.43,12.73,40.63c.1.17.07.4-.08.53l-1.6,1.43-1.63,1.46c-.15.13-.37.14-.53.03l-3.32-2.45-6.98-5.15c-.03,2.31-.12,8.67-.12,8.67,0,0,0,.1,0,.1,0,0,0,.61,0,.6,0,10.1,2.67,20.03,7.73,28.72l2.16,3.71,1.82-.97c.19-.1.42-.04.54.13,10.3,14.62,27.1,23.34,44.95,23.34s34.66-8.73,44.95-23.34c.12-.17.36-.23.54-.13l1.82.97c.57-.98,2.16-3.71,2.16-3.71,5.05-8.69,7.73-18.62,7.73-28.72,0,0,0-.6,0-.6Z"/>
      <g>
        <g>
          <path class="cls-5" d="M36.6,96.34c-.53-2.63-.81-5.35-.81-8.14l-4.59,4.11-6.51-4.81c0,.21,0,.43,0,.64,0,9.65,2.59,18.7,7.12,26.48l2.01-1.07c-2.83-4.85-4.88-10.21-5.97-15.92l8.75-1.3Z"/>
          <path class="cls-5" d="M130.18,88.15c0-.21,0-.43,0-.64l-6.51,4.81-4.59-4.11c0,2.79-.29,5.51-.81,8.14l8.75,1.3c-1.09,5.71-3.14,11.07-5.97,15.92l2.01,1.07c4.53-7.78,7.12-16.83,7.12-26.48Z"/>
        </g>
        <g>
          <path class="cls-7" d="M118.27,96.34l-3.75-.56c-3.53,17.25-18.8,30.22-37.09,30.22s-33.56-12.97-37.09-30.22l-3.75.56-8.75,1.3c1.09,5.71,3.14,11.07,5.97,15.92,8.75,14.99,25.01,25.07,43.62,25.07s34.87-10.08,43.62-25.07c2.83-4.85,4.88-10.21,5.97-15.92l-8.75-1.3Z"/>
          <g>
            <path class="cls-4" d="M34.02,103.33c-.54.18-.91.3-1.03.9h-.03s-.63-1.86-.63-1.86h.03c.34.4,1.01.11,1.43-.03l4.2-1.42-.28-.83c-.14-.4-.38-.79-.76-.99v-.03s1.22-.05,1.22-.05v.03c0,.13.04.25.06.38l.08.24,1.19,3.51c.05.16.11.31.21.41v.03s-1.21.08-1.21.08v-.03c.28-.23.2-.63.09-.94l-.29-.85-4.3,1.46Z"/>
            <path class="cls-4" d="M40.24,111.81c-1.8.95-3.88.14-4.8-1.61-.92-1.74-.44-3.87,1.36-4.82,1.67-.88,3.84-.17,4.76,1.71.98,1.84.26,3.89-1.32,4.72M37.4,106.34c-1.23.65-2.04,2.19-1.31,3.57.7,1.34,2.13,1.68,3.44.99,1.28-.68,2.1-2.15,1.36-3.54-.72-1.36-2.16-1.72-3.49-1.02Z"/>
            <path class="cls-4" d="M45.76,115.77c-.06-.65-.28-1.28-.68-1.81-.84-1.09-2.22-1.23-3.36-.35-1.16.89-1.58,2.48-.64,3.69.46.59,1.13,1.02,1.79,1.3l.02.02-1.22.3c-.46-.24-.84-.6-1.16-1.01-1.44-1.86-1.29-3.81.4-5.12,1.63-1.26,3.6-.94,4.85.67.37.48.66,1.04.91,1.59l-.91.7Z"/>
            <path class="cls-4" d="M46.16,119.25l-1.22,1.32c-.3.33-.84.82-.61,1.3l-.02.02-1.39-1.29.02-.02c.49.2.94-.37,1.25-.7l2.56-2.76c.3-.33.85-.81.61-1.3l.02-.02,1.39,1.29-.02.02c-.49-.2-.94.37-1.25.71l-.84.91,2.64,2.44.84-.91c.31-.34.86-.82.61-1.31l.02-.02,1.39,1.29-.02.02c-.5-.21-.95.37-1.26.7l-2.56,2.76c-.3.33-.84.82-.6,1.31l-.02.02-1.39-1.29.02-.02c.5.21.94-.37,1.25-.7l1.22-1.32-2.64-2.44Z"/>
            <path class="cls-4" d="M52.48,122.09c.27-.37.75-.92.45-1.37l.02-.02,1.54,1.1-.02.02c-.51-.14-.9.5-1.16.86l-2.19,3.05c-.26.36-.73.92-.44,1.36l-.02.02-1.54-1.1.02-.02c.51.14.89-.49,1.15-.85l2.19-3.05Z"/>
            <path class="cls-4" d="M59.48,126.06h-.03c-.14-.61-.73-1.1-1.27-1.39-1.36-.75-2.89-.43-3.66.98-.77,1.41-.24,3.08,1.14,3.84.4.22.85.4,1.3.5l.69-1.26c.22-.4.45-.83.14-1.21v-.03s1.35.73,1.35.73v.03c-.12.08-.19.22-.26.35l-1.1,2.01c-.07.13-.16.27-.17.42-.77-.25-1.52-.49-2.23-.88-2.23-1.23-2.88-3.17-1.92-4.93,1.03-1.88,3.16-2.23,5.28-1.07.46.25.89.56,1.29.9l-.55,1Z"/>
            <path class="cls-4" d="M61.3,127.07c.17-.42.51-1.07.1-1.44v-.03s1.77.7,1.77.7v.03c-.54,0-.76.7-.93,1.11l-1.4,3.48c-.17.42-.49,1.07-.1,1.43v.03s-1.77-.7-1.77-.7v-.03c.54.02.76-.69.92-1.1l1.4-3.48Z"/>
            <path class="cls-4" d="M70.63,129.54c-.3-.47-.86-.82-1.4-.93-.56-.11-1.3-.04-1.44.63-.27,1.34,3.08,2,2.72,3.8-.21,1.04-1.5,1.79-3.02,1.48-.59-.12-1.17-.33-1.68-.65l-.03-1.28c.47.61,1.21,1.09,1.97,1.25.56.11,1.46-.05,1.6-.73.31-1.52-3.1-1.93-2.68-4,.25-1.23,1.6-1.44,2.79-1.2.49.1.97.27,1.41.51l-.22,1.1Z"/>
            <path class="cls-4" d="M79.3,132.18c-.08,2.03-1.82,3.43-3.8,3.36-1.97-.08-3.57-1.56-3.49-3.6.07-1.89,1.78-3.41,3.87-3.27,2.09.07,3.5,1.72,3.43,3.51M73.15,131.89c-.06,1.39.87,2.86,2.43,2.93,1.51.06,2.52-1.01,2.58-2.49.06-1.45-.81-2.89-2.38-2.95-1.54-.06-2.57,1.01-2.63,2.51Z"/>
            <path class="cls-4" d="M85.42,129.42c-.59-.27-1.25-.41-1.9-.32-1.36.18-2.18,1.3-1.99,2.73.19,1.45,1.34,2.62,2.87,2.42.74-.1,1.45-.46,2.02-.9h.03s-.35,1.21-.35,1.21c-.44.28-.94.42-1.45.49-2.33.3-3.94-.81-4.22-2.93-.27-2.04,1-3.58,3.02-3.85.6-.08,1.23-.05,1.83.01l.15,1.14Z"/>
            <path class="cls-4" d="M91.59,127.73c-.62-.18-1.3-.21-1.93-.03-1.32.38-1.96,1.62-1.55,3,.41,1.41,1.73,2.38,3.2,1.95.72-.21,1.36-.68,1.86-1.2h.03s-.17,1.24-.17,1.24c-.39.34-.86.56-1.36.71-2.26.66-4.02-.2-4.62-2.25-.58-1.98.44-3.7,2.4-4.27.58-.17,1.21-.24,1.81-.27l.32,1.1Z"/>
            <path class="cls-4" d="M95.92,130.75l1.2-.41c.62-.22,1.16-.69,1.44-1.3h.03s.13,1.36.13,1.36l-3.78,1.71v-.03c.38-.37.02-1.02-.17-1.43l-1.55-3.42c-.19-.42-.43-1.1-.97-1.07v-.03s2.89-1.32,2.89-1.32c.15-.07.32-.12.41-.24h.03s.48,1.05.48,1.05h-.03c-.43-.19-.82-.05-1.23.13-.32.14-.63.3-.9.48l.76,1.69,1.08-.49c.14-.07.29-.13.37-.24h.03s.44.95.44.95h-.03c-.26-.18-.64,0-.92.12l-.67.3.97,2.15Z"/>
            <path class="cls-4" d="M99.09,122.64c1.13-.71,2.12-.5,2.6.26.47.74.18,1.73-.41,2.32l2.17.77c.63.22,1.44.32,2.11.32l-.78.49c-.45.28-.79.34-1.24.19l-1.83-.63-1.52-.7c.61-.52,1.2-1.33.7-2.12-.38-.61-1.13-.63-1.67-.25-.19.13-.36.27-.53.43l2.37,3.78c.24.39.58,1.04,1.1.92l.02.03-1.61,1.01-.02-.03c.33-.42-.12-1.01-.35-1.39l-1.99-3.18c-.24-.39-.57-1.04-1.1-.93l-.02-.03,2.01-1.26Z"/>
            <path class="cls-4" d="M108.7,116.23c-.63.14-1.24.43-1.71.89-.98.96-.95,2.35.06,3.38,1.03,1.04,2.65,1.27,3.74.19.53-.52.87-1.24,1.07-1.94l.02-.02.45,1.18c-.18.48-.49.9-.86,1.27-1.67,1.65-3.63,1.74-5.12.22-1.45-1.47-1.37-3.46.08-4.89.43-.43.95-.78,1.46-1.1l.8.81Z"/>
            <path class="cls-4" d="M114.87,115.82c.44-.51.62-1.12.59-1.77l.02-.02.74,1.21-2.48,3.25-.02-.02c.17-.51-.46-.91-.81-1.18l-2.98-2.27c-.36-.28-.91-.77-1.36-.48l-.02-.02,1.15-1.51.02.02c-.16.52.47.91.83,1.18l3.45,2.63.89-1.02Z"/>
            <path class="cls-4" d="M119.09,109.13c.3.66.11,1.49-.22,2.1-.31.58-.83,1.09-1.48,1.25-.76.19-1.33-.15-1.96-.5l-2.33-1.27c-.39-.22-1-.62-1.41-.27h-.03s.91-1.67.91-1.67h.03c-.07.54.59.84.99,1.05l2.33,1.27c1.16.63,1.97.44,2.46-.46.27-.49.34-1.1.09-1.61-.16-.33-.38-.45-.69-.62l-2.63-1.44c-.39-.21-1-.62-1.41-.27h-.03s.91-1.67.91-1.67h.03c-.08.54.59.84.99,1.06l3.29,1.8c.39.21,1,.62,1.41.26h.03s-.7,1.3-.7,1.3l-.58-.32Z"/>
            <path class="cls-4" d="M116.42,104.22c-.42-.15-1.08-.46-1.43-.05h-.03s.79-2.23.79-2.23c.44-1.24,1.23-1.77,2.06-1.48.63.22.84.75.88,1.37.48-.78,1.29-1.26,2.21-.94.72.26,1.16.98,1.24,1.71.08.77-.21,1.5-.46,2.2l-.55,1.55h-.03c-.01-.54-.72-.73-1.15-.89l-3.54-1.26M121.23,103.94c.35-.74.27-1.65-.62-1.97-.91-.33-1.62.42-1.87,1.26l-.2.67,2.32.83.37-.79M118.04,103.38c.22-.61.32-1.56-.45-1.83-.65-.23-1.2.25-1.34.83l-.16.65,1.84.66.11-.31Z"/>
          </g>
        </g>
      </g>
      <g>
        <path class="cls-5" d="M85.37,95.98c0-8.6,5.75-14.6,13.99-14.6,1.98,0,4.14.32,6.81.99l1.23.31v8.7l-2.55-1.74c-1.79-1.22-3.72-1.87-5.59-1.87-1.76,0-3.31.61-4.47,1.77-1.38,1.38-2.14,3.46-2.14,5.87,0,2.72.95,5.23,2.62,6.9.92.92,2.01,1.52,3.21,1.79,13.99-15.55,29.79-38.31,29.79-61.8,0-12.04-1.86-20.84-5.17-27.28-5.36,3.07-11.79,4.86-18.71,4.86-11,0-20.77-4.52-26.97-11.53-6.2,7.01-15.97,11.53-26.97,11.53-6.91,0-13.34-1.79-18.71-4.86-3.31,6.43-5.17,15.24-5.17,27.28,0,23.61,15.98,46.5,30.02,62.06.8.16,1.61.26,2.39.26,1.67,0,4.2-.91,4.2-2.29,0-1.51-1.97-2.44-5.2-3.78-3.93-1.63-8.83-3.65-8.83-9.05,0-4.98,4.66-8.19,11.87-8.19,2.28,0,4.48.3,6.53.89l1.18.34v9.29l-2.76-2.61c-1.24-1.17-3.31-1.93-5.28-1.93-1.43,0-2.72.37-3.29.94-.24.24-.34.5-.34.86,0,1.31,2.78,2.48,5.23,3.52,3.92,1.66,8.8,3.72,8.8,8.55,0,2.03-.9,4.05-2.54,5.69-1.65,1.65-3.91,2.79-6.46,3.35,8.58,8.75,15.32,14.03,15.32,14.03,0,0,7.18-5.62,16.14-14.87-1.61-.68-3.04-1.6-4.23-2.79-2.6-2.6-3.97-6.26-3.97-10.59Z"/>
        <g>
          <g>
            <polygon class="cls-7" points="77.43 12.16 76.32 22.94 78.55 22.94 77.43 12.16"/>
            <path class="cls-7" d="M72.98,41.97l.97-.37-.27-4.99-3.69-8.32c-.6.1-1.11.31-1.44.62,0,0-.47.44-.55.44h-.07l1.83,8.54,3.22,4.98v-.9Z"/>
            <path class="cls-7" d="M66.79,23.91s.34-1.16.43-1.16h.31l-1.97-4.44,1.21,5.66.02-.06Z"/>
            <path class="cls-7" d="M52.34,20.31l7.94,13.69c1.8,1,3.64,2.19,5.71,4.03,1.01.9,1.93,1.85,2.77,2.85l-1.55-4.01-14.86-16.56Z"/>
            <polygon class="cls-7" points="89.3 18.31 87.33 22.75 88.35 22.75 89.3 18.31"/>
            <path class="cls-7" d="M81.82,42.24v.73l3.29-5.08,1.83-8.54h-.68s-1.1,0-1.11-.03l-.34-.85-3.61,8.15-.27,5.01s.06.04.1.06c0,0,.8.47.8.55Z"/>
            <path class="cls-7" d="M101.72,47.87c-.13.43-.31.84-.51,1.24l16.82-7.46-15.4,3.3c-.41.34-.85.66-1.3.98.45.5.61,1.21.39,1.94Z"/>
            <path class="cls-7" d="M97.23,52.92c-1.52.84-3.2,1.39-4.69,1.67-.99.18-1.93.42-2.75.68l6.13,1.63,19.92-2.06-18.61-1.92Z"/>
            <path class="cls-7" d="M86.1,40.91c.84-1.02,1.76-1.98,2.77-2.88,2.07-1.84,3.91-3.03,5.71-4.03l7.93-13.69-14.86,16.55-1.56,4.04Z"/>
            <path class="cls-7" d="M53.14,47.87c-.22-.73-.05-1.44.39-1.94-.45-.32-.88-.64-1.3-.98l-15.4-3.3,16.82,7.46c-.21-.39-.38-.8-.51-1.24Z"/>
            <path class="cls-7" d="M101.82,88.17c-.17-.05-.34-.1-.51-.14l1.21,1.35-.7-1.2Z"/>
            <path class="cls-7" d="M84.45,64.51l3.2,8.3,8.07,9c.71-.17,1.43-.3,2.19-.37l-6.56-11.32-6.91-5.61Z"/>
            <path class="cls-7" d="M87.05,61.52c-.1.14-.2.27-.31.4l4.44,5.46,17.32,10.04-14.9-13.37-6.55-2.53Z"/>
            <path class="cls-7" d="M84.08,70.22v2.22l-2.49-1.58c-.18-.11-.36-.21-.54-.3l.14,2.52,1.35,3.04s.05-.03.07-.04c0,0,.37-.21.43-.21h2.91l-1,2.27-.69,1.57c-.03.06-.05.11-.07.15l3.43,7.73c.21-.33.43-.65.66-.95l-3.18-14.84-1.02-1.58Z"/>
            <polygon class="cls-7" points="88.8 58.54 96.27 63.37 118.02 68.03 97.69 59.02 88.8 58.54"/>
            <path class="cls-7" d="M78.12,82.43v-.52c-.47-.05-.92-.12-1.35-.22v.78l-.73.28c-.02.21-.02.5-.02.68v.25s0,.3,0,.3l.02.16h2.77l.05-.48v-.27c0-.17,0-.45,0-.65-.31-.12-.73-.29-.73-.32Z"/>
            <polygon class="cls-7" points="76.76 91.09 78.1 91.09 78.35 88.6 76.51 88.6 76.76 91.09"/>
            <path class="cls-7" d="M76.68,70.78c-.21.21-.37.47-.51.75l-.35,1.31c-.01.13-.03.25-.03.39,0,1.16.42,2.24,1.14,2.96.6.6,1.38.92,2.26.92.12,0,.23,0,.35-.02l.18-1.7-1.43-5.37c-.64.09-1.19.35-1.61.76Z"/>
            <path class="cls-7" d="M67.2,72.82l3.2-8.31-6.91,5.61-6.74,11.62c.87-.19,1.79-.32,2.77-.39l7.67-8.54Z"/>
            <path class="cls-7" d="M61.26,64.05l-14.9,13.37,17.32-10.04,4.43-5.46c-.1-.13-.21-.27-.31-.4l-6.55,2.53Z"/>
            <polygon class="cls-7" points="66.06 58.53 57.18 59.02 36.84 68.03 58.59 63.37 66.06 58.53"/>
            <path class="cls-7" d="M65.07,55.27c-.82-.27-1.76-.5-2.75-.68-1.49-.27-3.17-.82-4.69-1.67l-18.61,1.92,19.92,2.06,6.13-1.63Z"/>
            <path class="cls-7" d="M72.37,67.75c.48-.53,1.04-1,1.67-1.38l.02-.41c-.15-.04-.29-.09-.44-.14l-1.25,1.93Z"/>
            <polygon class="cls-7" points="65.56 91.37 66.36 89.56 66.02 89.24 65.56 91.37"/>
            <path class="cls-7" d="M68.75,82.54v1.64l2.72-6.14c-.77-1.28-1.18-2.81-1.18-4.52,0-1.38.27-2.63.76-3.73l-1.3,2.01-2.23,10.39s.03,0,.04.01l1.18.34Z"/>
          </g>
          <g>
            <path class="cls-7" d="M67.12,88.03c-1.59-1.51-4.12-2.38-6.41-2.38s-5.26.83-5.26,3.43c0,5.17,14.04,5.09,14.04,12.07,0,4.03-4.57,7.81-10.94,7.81-2.49,0-4.98-.34-7.3-1.13l-1.18-4.71c2.41,1.92,5.75,3.13,8.94,3.13,2.33,0,5.83-1.28,5.83-3.92,0-5.88-14.04-4.83-14.04-12.82,0-4.75,5.26-6.56,10.24-6.56,2.04,0,4.12.26,6.08.83v4.26Z"/>
            <path class="cls-7" d="M105.77,88.29c-1.94-1.32-4.19-2.15-6.51-2.15-4.86,0-8.24,3.81-8.24,9.28s3.52,10.48,8.94,10.48c2.64,0,5.28-1.02,7.5-2.38h.11l-1.79,4.37c-1.65.83-3.48,1.13-5.31,1.13-8.31,0-13.44-4.98-13.44-13.05s5.14-12.97,12.35-12.97c2.15,0,4.33.41,6.41.94v4.34Z"/>
          </g>
        </g>
        <g>
          <path class="cls-6" d="M86.58,47.48c2.02-2.57,4.71-5.1,8.1-6.54,8.97-3.8,12.04-7.77,15.92-14.06.63-1.01.23-1.36-.74-.53-9.46,8.03-13.46,7.17-19.91,12.9-2.25,2-3.91,4.17-5.16,6.39.29.24.58.49.85.76.34.34.65.71.94,1.08Z"/>
          <path class="cls-6" d="M94.51,47.76c5.68-2.28,10.73-6.13,12.23-11.1.24-.81.17-1.06-.42-.5-5.69,5.47-9.5,5.92-14.15,8.91-1.7,1.1-3.27,2.42-4.62,3.87.37.66.68,1.36.91,2.09,1.82-1.27,4-2.46,6.04-3.27Z"/>
          <path class="cls-6" d="M92.25,52.99c3.46-.64,7.03-2.62,7.92-5.58.14-.48-.22-.63-.57-.35-3.25,2.54-5.04,2.62-7.99,3.75-1.01.38-1.93.91-2.8,1.51.1.49.15,1,.19,1.51,1-.34,2.13-.62,3.25-.82Z"/>
          <path class="cls-6" d="M70.08,45.65c-1.25-2.22-2.91-4.41-5.17-6.41-6.45-5.73-10.45-4.86-19.91-12.9-.98-.83-1.37-.48-.74.53,3.88,6.29,6.95,10.26,15.92,14.06,3.39,1.44,6.09,3.98,8.11,6.54.53-.68,1.14-1.29,1.8-1.83Z"/>
          <path class="cls-6" d="M62.68,45.08c-4.64-2.99-8.46-3.44-14.15-8.91-.59-.56-.66-.31-.42.5,1.5,4.97,6.55,8.81,12.23,11.1,2.04.82,4.22,2.01,6.04,3.28.24-.73.54-1.43.91-2.09-1.35-1.45-2.91-2.78-4.62-3.88Z"/>
          <path class="cls-6" d="M63.25,50.8c-2.95-1.12-4.74-1.2-7.99-3.75-.35-.27-.71-.13-.57.35.89,2.96,4.45,4.95,7.92,5.58,1.11.2,2.24.48,3.24.82.03-.51.1-1.01.2-1.5-.87-.6-1.79-1.13-2.81-1.51Z"/>
        </g>
        <g>
          <path class="cls-4" d="M79.2,78.73c-3.05,0-5.03-2.59-5.03-5.5s1.9-4.87,4.63-4.87c1.31,0,2.57.44,3.66,1.13v-2.28c-1.17-.28-2.39-.49-3.6-.49-4.06,0-6.95,2.71-6.95,6.81s2.89,6.85,7.56,6.85c1.03,0,2.06-.16,2.99-.59l1.01-2.3h-.06c-1.25.71-2.73,1.25-4.22,1.25Z"/>
          <path class="cls-4" d="M79.74,81.36c.86.32.74,1.55.74,2.32v2.09h-6.07v-2.09c0-.77-.1-2,.74-2.32v-.05h-3.2v.05c.86.32.74,1.55.74,2.3v6.36c0,.76.1,1.99-.74,2.3v.05h3.2v-.05c-.84-.32-.74-1.55-.74-2.3v-3.05h6.07v3.05c0,.76.12,1.99-.74,2.3v.05h3.21v-.05c-.86-.32-.76-1.55-.76-2.3v-6.36c0-.76-.1-1.99.76-2.3v-.05h-3.21v.05Z"/>
          <path class="cls-4" d="M76.14,102.07v.04h2.72v-.04c-.71-.27-.63-1.32-.63-1.96v-5.39c0-.64-.09-1.7.63-1.97v-.04h-2.72v.04c.73.27.63,1.32.63,1.97v5.39c0,.64.09,1.7-.63,1.96Z"/>
          <path class="cls-4" d="M79.59,107.1c.55.22.56.81.56,1.37v1.75c-.55.16-1.13.23-1.69.23-1.92,0-3.48-1.48-3.48-3.44s1.45-3.2,3.34-3.2c.74,0,1.67.17,2.16.73h.04v-1.4c-.63-.13-1.26-.21-1.91-.21-2.94,0-5.02,1.63-5.02,4.24,0,2.44,1.84,4.15,4.95,4.15.98,0,1.93-.18,2.9-.36-.07-.17-.06-.36-.06-.55v-2.8c0-.18,0-.38.06-.52v-.04h-1.86v.04Z"/>
          <path class="cls-4" d="M76.56,112.17c.53.2.45.95.45,1.43v3.9c0,.46.06,1.23-.45,1.42v.03h1.96v-.03c-.52-.2-.45-.95-.45-1.42v-3.9c0-.46-.06-1.23.45-1.43v-.03h-1.96v.03Z"/>
          <path class="cls-4" d="M85.64,46.4c-1.52-1.52-3.4-2.56-5.44-3.06v-.26c-1.5-.88-1.47-1.98-1.47-3.59v-12.89h5.09c.93,0,2.06.14,2.43,1.13h.08l.9-3.36h-.08c-.37.17-.82.2-1.3.2h-16.35c-.37-.06-.74-.06-1.07-.2h-.08l-.99,3.36h.09c.88-.82,2.15-1.13,3.36-1.13h5.04v12.61c0,1.27.17,3.34-1.24,3.87v.28c-5.04,1.27-8.78,5.82-8.78,11.25,0,3.1,1.21,6.02,3.4,8.21,2.19,2.19,5.11,3.4,8.21,3.4s6.02-1.21,8.21-3.4c2.19-2.19,3.4-5.11,3.4-8.21s-1.21-6.02-3.4-8.21Z"/>
        </g>
        <path d="M84.67,47.37c-1.93-1.93-4.5-3-7.24-3-5.64,0-10.23,4.59-10.23,10.23,0,2.73,1.06,5.3,3,7.24,1.93,1.93,4.5,3,7.24,3s5.3-1.06,7.24-3c1.93-1.93,3-4.5,3-7.24s-1.06-5.3-3-7.24ZM77.95,47.44l2.36-1.5c1.34.44,2.56,1.19,3.58,2.21.34.34.64.69.92,1.07l-.67,2.61-3.32,1.08-2.87-2.08v-3.39ZM70.97,48.15c1.02-1.02,2.25-1.77,3.58-2.21l2.36,1.5v3.39l-2.87,2.08-3.32-1.08-.67-2.61c.28-.38.58-.73.92-1.07ZM70.03,59.96c-1.08-1.49-1.72-3.32-1.74-5.3l2.15-1.78,3.45,1.12,1.01,3.11-2.19,3.01-2.68-.17ZM80.2,63.32c-.87.28-1.81.43-2.77.43s-1.9-.15-2.77-.43l-1.02-2.6,2.18-3h3.23l2.18,3-1.02,2.6ZM82.15,60.13l-2.19-3.01,1.01-3.11,3.45-1.12,2.15,1.78c-.01,1.98-.65,3.81-1.74,5.3l-2.68.17Z"/>
      </g>
    </g>
  </g>
</svg>