<?xml version="1.0" encoding="UTF-8"?>
<svg id="_レイヤー_2" data-name="レイヤー 2" xmlns="http://www.w3.org/2000/svg" xmlns:xlink="http://www.w3.org/1999/xlink" viewBox="0 0 426.45 443.06">
  <defs>
    <style>
      .cls-1 {
        fill: none;
      }

      .cls-2 {
        fill: #221815;
      }

      .cls-3 {
        fill: #ffe100;
      }

      .cls-4 {
        fill: #00395d;
      }

      .cls-5 {
        fill: #fff;
      }

      .cls-6 {
        fill: #10234f;
      }

      .cls-7 {
        fill: #007f41;
      }

      .cls-8 {
        clip-path: url(#clippath);
      }
    </style>
    <clipPath id="clippath">
      <path class="cls-1" d="M390.94,218.09c.07-12.48-5.34-22.53-15.6-29.03-.69-.44-1.39-.87-2.1-1.27-.77-.43-1.55-.85-2.34-1.22-11.64-5.67-23.69-4.48-34.15-2.53-5.83,1.33-9.45,2.5-11.74,3.46-1.46-1.46-3.03-2.84-4.74-4.07-.97-.67-6.37-4.22-14.15-5.76-.48-2.22-.98-3.96-1.26-4.88-.01-.05-.23-.79-.25-.84-1.29-3.88-4.26-11.63-9.68-19.89-6.8-10.34-15.02-17.72-24.49-21.96-15.15-6.65-29.01-3.93-42.64,8.55-6.19,6.4-11.53,14.18-15.87,23.1-.54,1.12-4.52,10.56-4.96,11.86-1.56,4.27-6.56,19.27-5.14,33.03.89,10.47,5.87,20.97,13,27.42.12.11.54.44.67.53,7.94,6.03,16.67,9.07,25.99,9.07,1.13,0,2.27-.05,3.42-.13,12.05-.93,21.23-4.61,21.51-4.72,1.18-.45,2.22-.93,3.33-1.4,3.32,4.59,7.6,8.48,12.65,11.05,6.29,3.17,11.23,4.29,15.81,4.29.67,0,1.31-.14,1.97-.18.25.54.51,1.09.92,1.73,9.83,18.52,24.19,24.87,33.25,24.47.58.03,1.17.05,1.76.05,15.78,0,33.72-11.18,44.46-28.18l.53-.88c3.53-5.77,8.87-14.5,9.85-31.67Z"/>
    </clipPath>
  </defs>
  <g id="_レイヤー_1-2" data-name="レイヤー 1">
    <g>
      <path class="cls-6" d="M426.45,225.55c0,117.76-84.41,196.43-213.22,196.43S0,343.31,0,225.55,95.46,12.33,213.22,12.33s213.22,95.46,213.22,213.22Z"/>
      <g>
        <g>
          <g>
            <path class="cls-2" d="M419.51,294.11c-1.3-.72-2.84-1.24-3.8-1.44-6.81-1.4-13.64-2.18-20.31-2.33-3.7-.09-7.16,0-10.5.16-1.79-20.11-8.09-39.31-19.27-58.27,1.62-9.72,2.12-22.36,2.53-32.66l.21-5.17c.84-18.75-5.88-43.26-14.38-52.46-2.12-2.29-5.31-4.04-8.12-4.45-21.54-3.21-49.87,5.34-81.73,24.67l-4-.59c-26.18-3.9-58.77-8.75-103.06,1.53-1.4.32-2.95.78-4.54,1.26-2.37.71-6.76,1.98-7.92,1.68-8.49-4.64-30.28-15.71-49.14-18.5-17.53-2.61-29.09.83-34.52,10.31-15.37,28.86-7.65,69.07-4.44,79.47-16,31.01-15.7,63.87-15.6,67.47,0,.84.03,1.72.04,2.58-.84.06-1.6.09-2.48.16-8.93.71-17.8,1.58-28.07,4.44-3.34.92-6.41,3.14-5.81,5.59.47,1.92,2.84,2.34,4.83,2.34,1.54,0,2.85-.25,2.89-.26,10.63-2.17,16.02-2.75,23.47-3.55l3.14-.34c.81-.09,1.61-.13,2.42-.2.81,9.68,2.85,19.99,6.48,30.18-4.44,1.67-9.56,3.89-15.71,7.07-.04.02-3.98,2.08-4.74,4.62-.23.78-.15,1.56.23,2.24.62,1.11,1.92,1.46,3.31,1.46,2.3,0,4.82-.95,4.86-.96,1.84-.81,3.57-1.58,5.21-2.31,3.72-1.66,6.96-3.05,10-4.23,3.93,8.9,9.09,17.53,15.73,25.34-6.84,3.96-15.09,9.33-24.43,16.6-1.94,1.52-3.19,3.45-3.41,5.32-.12,1.04.11,1.99.65,2.67.41.51,1.18.73,2.1.73,1.62,0,3.71-.68,5.14-1.7,10.26-7.27,19.16-12.89,26.15-17.04,7.51,7.31,16.5,13.67,27.22,18.49,35.27,15.84,67.77,19.4,108.95,20l4.04-.06,4.36.06c47.38-.7,84.81-7.46,111.26-20.11,15.35-7.34,27.56-17.24,36.7-29.54,7.64,2.61,16.9,6.62,25.83,12.66,1.14.79,3.45,2.17,5.5,2.17.92,0,1.79-.27,2.47-1.01.29-.3.61-.85.53-1.73-.17-1.86-2.22-4.46-3.56-5.43-9.12-6.66-18.29-10.95-26.01-13.74,5.25-8.67,9.17-18.37,11.72-29.12,5.64.9,12.22,2.35,19.44,4.77.04,0,2.17.71,4.26.71,1.57,0,3.11-.39,3.7-1.78.27-.63.26-1.33-.03-2.02-1.04-2.48-5.39-4.32-5.43-4.33-7.12-2.82-14.12-4.47-20.31-5.49,1.35-8.14,2-16.8,1.93-26,.02-1.57-.07-3.12-.1-4.67,2.93-.16,5.97-.26,9.16-.22,4.96.05,10.48.42,15.35.74,1.52.1,2.99.19,4.4.28,3.19.18,7.1-.41,7.57-2.73.17-.81-.11-2.03-2.36-3.29Z"/>
            <path class="cls-5" d="M354.53,232.24c1.76-9.13,2.29-22.42,2.71-33.11l.22-5.23c.76-16.97-5.67-38.25-11.49-44.55-.51-.56-1.4-.99-1.72-1.06-18.78-2.76-45.27,5.51-74.57,23.31-2.08,1.26-3.22,1.95-5.23,1.65l-5.91-.87c-25.25-3.76-56.69-8.45-98.98,1.36-1.2.27-2.52.68-3.88,1.08-5.38,1.6-11.46,3.43-16.3.79-7.98-4.35-28.38-14.75-45.5-17.28-12.59-1.85-20.45-.25-23.34,4.78-10.47,19.65-8.42,46.45-5.73,61.45.72-.85,1.42-1.62,2.07-2.27,2.63-2.63,5.32-3.6,7.16-2.33,1.91,1.32,1.15,4.66-.08,7.33-1.22,2.65-3.69,7.76-5.63,11.18,0,0,0,.01,0,.02-16.85,29.6-16.54,62.53-16.45,66.2,0,.74.03,1.51.04,2.26,9.31.02,14.99,1,17.89,1.74l.21.05c.06.01,7.62,1.41,7.18,5.04-.39,3.23-4.98,2.99-7.2,2.87l-.82-.06c-2.44-.37-8.96-1.24-16.86-1.4.79,8.79,2.71,18.09,6.01,27.25,4.52-1.04,7.71-1.28,9.83-1.4l.29-.02c2.79-.15,9.39-.25,9.73,3.07.3,2.87-4.87,4.24-7.11,4.7-1.04.21-2.16.36-3.41.53-1.75.24-3.74.52-6.09,1.02,3.77,8.24,8.76,16.15,15.14,23.24,6.63-3.22,10.45-4.39,10.53-4.42.06-.03,6.57-1.68,7.84,1.28,1.09,2.56-1.67,3.92-4.33,5.24-.85.42-1.74.86-2.55,1.35,0,0-.09.05-.26.13-1.03.51-2.75,1.4-5.02,2.62,6.17,5.56,13.32,10.43,21.71,14.2,33.54,15.07,64.84,18.45,104.46,19.04l4.04-.06,4.36.06c44.98-.67,81.88-7.25,106.54-19.04,12.36-5.91,22.38-13.54,30.17-22.9-3.71-.86-5.98-1.18-6.04-1.19-1.42-.14-5.85-1.17-7.34-3.19-.44-.61-.61-1.28-.47-1.94.75-3.62,7.32-2.9,10.09-2.43.35.03,3.75.38,9.03,1.65,5.2-7.94,9.03-16.98,11.53-27.1-2.33-.14-4.2-.17-5.48-.17-2.44.01-5.28-.05-5.28-.05-.73-.07-6.59-.76-6.82-3.68-.03-.39.05-1,.6-1.64,1.31-1.53,4.62-2.39,6.03-2.5l.31-.03c.84-.08,3.07-.3,5.31-.32h.61c1.62,0,3.81.05,6.42.22,1.29-7.68,1.93-15.9,1.86-24.75.01-1.24-.06-2.46-.09-3.69-6.85.85-12.47,1.97-16.3,2.74-1.96.39-3.38.68-4.24.78-1.38.2-2.56.3-3.55.3-2.31,0-3.58-.56-4-1.72-.29-.84-.23-1.74.18-2.59.74-1.52,2.53-2.81,5.19-3.71,2.09-.71,10.2-3.2,22.24-4.68-1.72-19.08-7.86-37.28-18.78-55.31-.7-1.16-.95-2.54-.69-3.87Z"/>
          </g>
          <g>
            <path class="cls-2" d="M115.31,313.92c-3.5,7.1-3.52,18.45,1.21,24.48,2.92,3.45,7.8,5.41,14.09,4.33,5.43-.94,8.52-5.9,9.55-9.85,2.23-8.84-.14-19.68-5.23-23.79-5.36-3.91-15.39-3.82-19.61,4.83Z"/>
            <path class="cls-2" d="M285.41,314.96c-3.5,7.1-3.52,18.45,1.21,24.48,2.92,3.45,7.8,5.41,14.09,4.33,5.43-.94,8.52-5.9,9.55-9.85,2.23-8.84-.15-19.68-5.23-23.79-5.36-3.91-15.39-3.82-19.61,4.83Z"/>
            <g>
              <path class="cls-2" d="M230.45,345.67c-1.17-4.16-4.32-7.43-8.44-8.76-7.86-2.55-15.82-1.48-20.77,2.79-5.16,4.56-5.41,12.65-2.19,16.84,2.99,3.87,7.72,5.9,14.48,6.2.31.01.63.02.94.02,5.41,0,10.44-1.98,13.31-5.27v-.02c2.83-3.28,3.82-7.69,2.67-11.81Z"/>
              <path class="cls-3" d="M219.91,343.41c-2.1-.68-4.24-1.01-6.25-1.01-3.19,0-6.05.84-7.91,2.45-2.45,2.17-2.29,6.18-1.26,7.52,1.68,2.18,4.74,3.34,9.35,3.54,4.27.17,7.46-1.38,8.79-2.9,1.34-1.56,1.79-3.55,1.24-5.49-.54-1.94-2.02-3.48-3.96-4.11Z"/>
            </g>
          </g>
        </g>
        <g>
          <g>
            <path class="cls-2" d="M174.31,403.75c-1.48-4.63-4.48-8.3-7.74-11.99-11.57-11.1-31.76-15.56-47.81-10.64-11.58,3.03-24.94,13.2-26.89,28.3-1.79,11.76,2.42,22.06,11.65,27.76,9.31,4.78,19.42,4.67,29.7-.17.87-.33,1.3-.24,3.57.72,1.42.61,3.17,1.34,5.28,1.7,3.57,1.03,6.76,1.46,9.57,1.46,7.46,0,12.38-3.02,15.44-6.04,7.97-7.84,10.94-20.61,7.23-31.1Z"/>
            <path class="cls-5" d="M163.98,407.34c-.03-.07-.05-.13-.07-.2-.83-2.65-3.05-5.31-5.25-7.82-8.41-8.05-24.41-11.47-36.92-7.67-8.41,2.21-17.79,9.67-19.04,19.29-.55,3.62-1.01,12.25,6.19,16.72,5.93,3.02,12.4,2.87,20-.7,1.9-.75,3.63-1.02,5.19-1.02,2.92,0,5.24.98,6.98,1.72,1.12.47,2.08.88,2.97,1.01.27.04.53.09.78.17,6.51,1.94,11.44,1.34,14.59-1.78,4.91-4.82,6.87-13.3,4.58-19.71Z"/>
          </g>
          <g>
            <path class="cls-2" d="M338.19,411.71c-1.98-15.21-15.33-25.39-26.69-28.34-16.27-4.97-36.47-.53-48.34,10.91-2.82,3.2-5.95,7-7.44,11.65-3.71,10.49-.74,23.27,7.22,31.1,3.07,3.03,8,6.05,15.45,6.05,2.81,0,5.99-.43,9.57-1.46,2.11-.36,3.85-1.1,5.28-1.7,2.29-.98,2.71-1.06,3.23-.88,10.61,5,20.73,5.1,30.44.1,8.83-5.48,13.04-15.78,11.27-27.43Z"/>
            <path class="cls-5" d="M327.35,413.24c-1.27-9.74-10.64-17.21-18.84-19.34-3.53-1.08-7.32-1.6-11.13-1.6-9.92,0-20.02,3.48-26.32,9.53-1.88,2.17-4.1,4.83-4.94,7.48-.02.07-.04.13-.07.2-2.29,6.41-.33,14.89,4.56,19.7,3.17,3.11,8.06,3.72,14.6,1.78.25-.07.51-.13.78-.17.89-.13,1.85-.53,2.97-1.01,2.67-1.14,6.69-2.83,11.82-.85,7.93,3.73,14.41,3.88,20.73.64,6.81-4.24,6.35-12.88,5.82-16.38Z"/>
          </g>
        </g>
        <g>
          <g class="cls-8">
            <rect class="cls-6" x="203.16" y="155.44" width="184.74" height="105.06" transform="translate(115.58 -105.41) rotate(25)"/>
            <g>
              <g>
                <path class="cls-4" d="M253.13,148.18c6.02,2.81,12.11,5.28,18.25,7.44-20.34-38.32-27.98-82.95-20.37-126.88-3.98,10.15-7.41,20.39-10.3,30.7-3.25,29.96.46,59.95,10.33,87.74.7.34,1.38.69,2.09,1.02Z"/>
                <path class="cls-4" d="M234.37,86.47c-3.03,16.11-4.76,32.28-5.29,48.4,3.77,2.43,7.64,4.76,11.61,6.96-4.65-17.95-6.84-36.58-6.32-55.36Z"/>
                <path class="cls-4" d="M286.04,160.14c8.83,2.35,17.72,4.08,26.62,5.18-40.4-45.09-58.49-107.05-47.58-167.56-2.09,4.03-4.12,8.11-6.06,12.26-.8,1.72-1.56,3.44-2.33,5.16-9.41,50.85,1.7,102.8,29.35,144.95Z"/>
              </g>
              <g>
                <path class="cls-4" d="M236.66,183.49c-1.98-.92-3.92-1.88-5.85-2.86.89,8.04,2.09,16.03,3.58,23.97,77.49,32.98,165.08,12.82,220.72-45.2,6.04-8.84,11.68-18.05,16.9-27.62-56.34,66.75-152.38,90.4-235.34,51.71Z"/>
                <path class="cls-4" d="M237.5,219.28c1.85,7.83,4,15.58,6.43,23.24,52.44,14.96,107.48,7.23,152.87-18.75,15.03-12.61,29-26.67,41.67-42.13-53.6,47.6-130.75,63.85-200.97,37.63Z"/>
                <path class="cls-4" d="M363.09,248.5c-35.87,13.59-75.64,16.82-114.42,7.92,4.27,11.62,9.21,23,14.8,34.07,35.26-8.28,68.98-22.47,99.62-41.99Z"/>
                <path class="cls-4" d="M250.49,153.84c-7.53-3.51-14.73-7.44-21.6-11.74-.08,7.93.13,15.85.64,23.73,4.04,2.24,8.17,4.36,12.42,6.34,83.68,39.02,180.66,14.64,236.8-53.43.83-1.7,1.66-3.39,2.46-5.1,1.94-4.15,3.75-8.33,5.5-12.52-56.22,67.53-152.82,91.62-236.21,52.74Z"/>
              </g>
            </g>
          </g>
          <path class="cls-2" d="M390.94,218.09c.07-12.48-5.34-22.53-15.6-29.03-.69-.44-1.39-.87-2.1-1.27-.77-.43-1.55-.85-2.34-1.22-11.64-5.67-23.69-4.48-34.15-2.53-5.83,1.33-9.45,2.5-11.74,3.46-1.46-1.46-3.03-2.84-4.74-4.07-.97-.67-6.37-4.22-14.15-5.76-.48-2.22-.98-3.96-1.26-4.88-.01-.05-.23-.79-.25-.84-1.29-3.88-4.26-11.63-9.68-19.89-6.8-10.34-15.02-17.72-24.49-21.96-15.15-6.65-29.01-3.93-42.64,8.55-6.19,6.4-11.53,14.18-15.87,23.1-.54,1.12-4.52,10.56-4.96,11.86-1.56,4.27-6.56,19.27-5.14,33.03.89,10.47,5.87,20.97,13,27.42.12.11.54.44.67.53,7.94,6.03,16.67,9.07,25.99,9.07,1.13,0,2.27-.05,3.42-.13,12.05-.93,21.23-4.61,21.51-4.72,1.18-.45,2.22-.93,3.33-1.4,3.32,4.59,7.6,8.48,12.65,11.05,6.29,3.17,11.23,4.29,15.81,4.29.67,0,1.31-.14,1.97-.18.25.54.51,1.09.92,1.73,9.83,18.52,24.19,24.87,33.25,24.47.58.03,1.17.05,1.76.05,15.78,0,33.72-11.18,44.46-28.18l.53-.88c3.53-5.77,8.87-14.5,9.85-31.67ZM262.41,228.61c-.08.03-8.08,3.2-18.37,4-11.87.91-19.45-4.84-21.88-6.66-5-4.53-8.79-12.66-9.45-20.34-1.18-11.51,3.16-24.52,4.61-28.48.39-1.06,3.95-9.57,4.44-10.59,3.84-7.89,8.52-14.72,13.66-20.06,10.24-9.37,19.41-11.29,30.57-6.38,7.49,3.36,14.15,9.4,19.77,17.96,4.92,7.49,7.54,14.61,8.32,16.9l.28.99c.1.33.23.76.37,1.26-3.12.38-6.39,1.21-9.76,2.67-.86.37-1.62.86-2.44,1.29-1.82-1.99-4.05-3.77-6.3-5.03-6.73-3.79-14.11-3.84-20.25-.13-6.59,4-10.46,11.71-9.86,19.44.23,6.03,2.69,11.16,7.12,14.82,2.87,2.37,6.27,3.78,9.4,4.6,0,.53-.07,1.05-.06,1.58.03,3.82.78,7.6,2.04,11.21-.76.31-1.43.63-2.24.94ZM264.12,203.92c-1.43-.51-2.96-1.24-4.22-2.39-1.79-1.63-2.7-3.75-2.82-6.7-.29-3.87,1.51-7.59,4.61-9.47,2.17-1.32,4.47-1.53,7.04-.66,2.02.68,3.67,1.86,4.9,2.98-4.48,4.46-7.75,9.99-9.5,16.23ZM306.89,240.31c-7.63,2.01-11.53,2.43-19.54-1.62-8.18-4.17-13.72-13.13-13.78-22.47-.43-11.82,5.62-21.89,15.78-26.29,3.44-1.49,6.75-2.04,9.77-2.05,8.05,0,14.03,3.93,14.85,4.49,9.03,6.49,13.34,17.88,10.69,28.51-2.49,11.49-10.8,17.57-17.75,19.43ZM371.63,244.25l-.6,1.01c-8.69,13.74-23.71,23.26-36.56,22.57-6.52.09-15.93-5.16-23.02-17.53,4.14-1.36,8.46-3.71,12.35-7.14,1.96,1.41,4.3,2.61,7,3.2,1.02.22,2.2.38,3.49.38,3.21,0,7.18-.98,11.47-4.38,4.81-4.81,6.43-10.35,4.84-17.49-2.82-8.54-9.53-11.12-14.31-12.03-.27-5.63-1.81-11.14-4.48-16.14,2.05-.65,4.64-1.36,7.15-1.93,8.49-1.57,18.35-2.62,27.19,1.67.59.28,1.14.58,1.7.89.53.3,1.04.61,1.59.96,7.15,4.53,10.61,10.99,10.57,19.46-.82,14.14-4.94,20.88-8.38,26.5ZM335.17,223.82c2.53.61,4.13,1.69,4.89,3.94.65,2.96.13,4.69-1.56,6.43-1.71,1.35-3.44,1.83-5.18,1.51-.94-.17-1.76-.56-2.49-1,1.88-3.16,3.39-6.77,4.33-10.89Z"/>
        </g>
      </g>
    </g>
    <g>
      <path class="cls-5" d="M141.62,3.23c-.06-1.52-1.23-2.77-2.75-2.93-.11-.01-.22-.02-.33-.02-1.39,0-2.62.93-2.98,2.3-1.09,4.18-2.47,8.24-4.1,12.18l-.06-.07-3.72-12.16c-.4-1.3-1.59-2.18-2.95-2.18h-4.38c-.77,0-1.49.29-2.05.79-.56-.5-1.28-.78-2.05-.78h-3.58c-1.2,0-2.29.7-2.8,1.79l-.78,1.69-.78-1.69c-.5-1.09-1.6-1.79-2.8-1.79h-3.59c-.16,0-.31.02-.46.04-.15-.02-.31-.04-.46-.04h-4.78c-.16,0-.31.02-.46.04-.15-.02-.31-.04-.46-.04h-4.78c-.42,0-.82.08-1.19.24-.37-.16-.78-.24-1.19-.24h-4.78c-.24,0-.48.03-.72.08-.22-.05-.45-.08-.69-.08h-5.57c-.99,0-1.94.21-2.8.58-.52-.37-1.14-.58-1.79-.58h-4.78c-.42,0-.82.08-1.19.24-.37-.16-.78-.24-1.19-.24h-4.78s-.03,0-.04,0c-.01,0-.02,0-.03,0h-5.57c-.27,0-.54.04-.8.1-.26-.07-.52-.1-.8-.1h-4.78c-.68,0-1.33.23-1.85.63-1.09-.62-2.34-.97-3.67-.97h-1.59c-1.24,0-2.42.31-3.45.85-.48-.32-1.06-.5-1.68-.5h-10.35c-1.7,0-3.08,1.38-3.08,3.08v3.18c0,.99.48,1.92,1.28,2.5.53.38,1.16.58,1.8.58.17,0,.33-.01.5-.04v5.22l-.64,1.91c-.1.29-.14.59-.15.88-2.19-4.84-3.99-9.88-5.36-15.09-.36-1.37-1.59-2.3-2.98-2.3-.11,0-.22,0-.33.02-1.52.16-2.68,1.41-2.75,2.93-.1,2.35-.15,4.71-.15,7.02,0,25.43,5.69,49.79,16.92,72.41,10.7,21.56,26.39,40.85,45.36,55.79.56.44,1.23.66,1.91.66s1.35-.22,1.91-.66c18.97-14.94,34.66-34.23,45.36-55.79,11.23-22.62,16.92-46.98,16.92-72.41,0-2.31-.05-4.67-.15-7.02ZM28.04,20.84h4.78c.99,0,1.92-.48,2.5-1.28.1-.14.19-.3.26-.45,1.34,1.28,3.15,2.08,5.15,2.08h1.33c-.26.25-.48.54-.64.88-.51,1.07-.37,2.34.37,3.26l.99,1.24,3.91,12.79c.4,1.3,1.59,2.18,2.95,2.18h3.34c1.35,0,2.55-.89,2.95-2.18l.32-1.04c1.36,2.15,3.76,3.58,6.48,3.58h1.67c1.41,0,2.73-.39,3.86-1.05.54.44,1.22.69,1.94.69h5.01c.52,0,1.02-.13,1.46-.37.44.24.94.37,1.46.37h4.59c.52,0,1.01-.13,1.44-.37.44.24.94.37,1.45.37h5.01c.7,0,1.37-.24,1.91-.67.54.43,1.21.67,1.91.67h5.01c.26,0,.51-.03.75-.09.23.06.47.09.72.09h5.43c4.23,0,7.68-3.44,7.68-7.68,0-1.86-.66-3.57-1.77-4.9.59-.58.93-1.37.93-2.21v-3.34c0-1.07-.54-2.01-1.37-2.56h4.41s.07,0,.1,0c0,0,.01,0,.02,0h5.18c.57,0,1.12-.16,1.59-.44.47.28,1.02.44,1.58.44h3.97c-10.53,21.18-28.68,37.97-51.12,46.68-22.67-8.8-40.96-25.85-51.44-47.33.54.42,1.2.66,1.89.66Z"/>
      <g>
        <g>
          <g>
            <path class="cls-7" d="M42.93,73.91c3.31,0,6.58-.17,9.81-.49-17.26-13.03-30.12-31.58-35.93-53.04.34,5.42.95,10.77,1.81,16.04,4.84,14.22,12.84,26.99,23.15,37.46.39,0,.77.02,1.16.02Z"/>
            <path class="cls-7" d="M21.45,49.98c2.02,7.92,4.65,15.59,7.81,22.98,2.21.31,4.45.54,6.71.7-5.88-7.13-10.8-15.08-14.52-23.68Z"/>
            <path class="cls-7" d="M60.32,72.38c4.48-.8,8.86-1.89,13.12-3.27C45.68,57.25,24.45,33.06,16.63,3.43c-.09,2.26-.15,4.53-.15,6.82,0,.94.02,1.88.04,2.82,6.46,24.96,22.43,46.09,43.8,59.31Z"/>
          </g>
          <g>
            <path class="cls-6" d="M42.93,93.33c-1.09,0-2.17-.02-3.25-.06,2.1,3.45,4.32,6.8,6.67,10.07,41.96-1.43,77.28-28.99,90.2-66.92.87-5.26,1.48-10.61,1.81-16.04-11.39,42.03-49.8,72.95-95.44,72.95Z"/>
            <path class="cls-6" d="M50.85,109.32c2.49,3.15,5.09,6.2,7.8,9.15,26.85-4.29,50.08-19.38,65.12-40.68,4.13-8.86,7.49-18.16,9.95-27.81-14.19,32.8-45.62,56.39-82.87,59.35Z"/>
            <path class="cls-6" d="M113.75,96.06c-13.35,13.7-30.63,23.53-50.02,27.69,4.38,4.35,9.01,8.45,13.86,12.28,14.19-11.17,26.43-24.68,36.16-39.96Z"/>
            <path class="cls-6" d="M42.93,77.02c-4.14,0-8.22-.26-12.23-.75,1.63,3.6,3.4,7.13,5.29,10.59,2.3.16,4.61.25,6.95.25,46.03,0,84.71-31.45,95.73-74.03.02-.94.04-1.88.04-2.82,0-2.28-.06-4.56-.15-6.82-11.17,42.36-49.74,73.59-95.61,73.59Z"/>
          </g>
        </g>
        <g>
          <g>
            <polygon class="cls-6" points="115.47 5.82 116.27 3.43 112.68 3.43 109.1 11.18 105.52 3.43 101.94 3.43 102.73 5.82 102.73 15.37 101.94 17.76 106.71 17.76 105.92 15.37 105.92 10.99 108.3 16.16 109.9 16.16 112.29 10.99 112.29 15.37 111.49 17.76 116.27 17.76 115.47 15.37 115.47 5.82"/>
            <path class="cls-6" d="M129.92,17.75l-1.29-1.61-3.89-12.72h-4.38l.62,1.87-3.32,10.85-1.29,1.61h5.18s-.4-1.61-.4-1.61l.19-.78h3.59l.19.78-.4,1.61h5.17ZM121.96,12.98l1.19-4.78,1.2,4.78h-2.39Z"/>
            <polygon class="cls-6" points="25.25 3.43 25.25 6.61 27.64 5.82 28.83 5.82 28.83 15.37 28.04 17.76 32.81 17.76 32.02 15.37 32.02 15.37 32.02 5.82 33.21 5.82 35.6 6.61 35.6 3.43 25.25 3.43"/>
            <polygon class="cls-6" points="100.22 5.82 101.01 3.43 96.24 3.43 97.03 5.82 97.03 15.37 96.24 17.76 101.01 17.76 100.22 15.37 100.22 5.82"/>
            <polygon class="cls-6" points="54.98 8.94 58.04 4.74 59.79 3.43 54.22 3.43 54.46 4.74 51.83 8.35 51.83 5.82 52.62 3.43 47.85 3.43 48.64 5.82 48.64 15.37 47.85 17.76 52.62 17.76 51.83 15.37 51.83 13.28 52.78 11.97 54.72 16.24 54.22 17.76 59.79 17.76 58.3 16.24 54.98 8.94"/>
            <path class="cls-6" d="M71.8,3.43h-4.78l.8,2.39v8.02c0,1.04-.84,1.88-1.88,1.88h-.23c-1.04,0-1.88-.84-1.88-1.88V5.82s.8-2.39.8-2.39h-4.78l.8,2.39v7.9c0,2.42,1.96,4.38,4.38,4.38h1.59c2.42,0,4.38-1.96,4.38-4.38v-7.91s.8-2.38.8-2.38Z"/>
            <polygon class="cls-6" points="94.51 5.82 95.31 3.43 90.54 3.43 91.33 5.81 91.33 9 87.35 9 87.35 5.82 88.15 3.43 83.37 3.43 84.17 5.82 84.17 15.37 83.37 17.76 88.15 17.76 87.35 15.37 87.35 11.39 91.33 11.39 91.33 15.37 90.54 17.76 95.31 17.76 94.51 15.37 94.51 5.82"/>
            <path class="cls-6" d="M42.32,3.08h-1.59c-2.42,0-4.38,1.96-4.38,4.38v6.27c0,2.42,1.96,4.38,4.38,4.38h1.59c2.42,0,4.38-1.96,4.38-4.38v-6.27c0-2.42-1.96-4.38-4.38-4.38ZM43.52,13.84c0,1.04-.84,1.88-1.88,1.88h-.23c-1.04,0-1.88-.84-1.88-1.88v-6.49c0-1.04.84-1.88,1.88-1.88h.23c1.04,0,1.88.84,1.88,1.88v6.49Z"/>
            <path class="cls-6" d="M78.38,9h-1.19c-.88,0-1.59-.71-1.59-1.59s.71-1.59,1.59-1.59h2.39l2.39.8v-.8h0s0,0,0,0v-2.39h-5.57c-2.2,0-3.98,1.78-3.98,3.98s1.78,3.98,3.98,3.98h1.19c1.1,0,1.99.89,1.99,1.99s-.89,1.99-1.99,1.99h-1.99l-2.39-.8v3.18h5.17c2.42,0,4.38-1.96,4.38-4.38s-1.96-4.38-4.38-4.38Z"/>
          </g>
          <g>
            <polygon class="cls-6" points="58.4 23.4 53.81 23.4 52.97 23.4 53.39 25.09 51.3 33.43 49.22 25.09 49.63 23.4 44.19 23.4 45.55 25.09 49.63 38.44 52.97 38.44 57.06 25.08 58.4 23.4"/>
            <polygon class="cls-6" points="82.7 23.4 82.7 26.74 85.21 25.91 86.46 25.91 86.46 35.94 85.63 38.44 90.64 38.44 89.8 35.94 89.8 35.94 89.8 25.91 91.06 25.91 93.57 26.74 93.57 23.4 82.7 23.4"/>
            <polygon class="cls-6" points="98.64 25.91 99.47 23.4 94.46 23.4 95.3 25.91 95.3 35.94 94.46 38.44 99.47 38.44 98.64 35.94 98.64 25.91"/>
            <path class="cls-6" d="M81.2,36.91l-2.13-4.68c1.66-.7,2.82-2.33,2.82-4.24,0-2.54-2.06-4.6-4.6-4.6h-7.1l.84,2.51v10.03l-.84,2.51h5.01l-.84-2.51v-3.34s1.1,0,1.1,0l2.66,5.85h4.59l-1.53-1.53ZM78.55,28.11c0,1.09-.88,1.97-1.97,1.97h-2.21v-4.18h2.21c1.09,0,1.97.88,1.97,1.97v.24Z"/>
            <path class="cls-6" d="M64.39,23.03h-1.67c-2.54,0-4.6,2.06-4.6,4.6v6.58c0,2.54,2.06,4.6,4.6,4.6h1.67c2.54,0,4.6-2.06,4.6-4.6v-6.58c0-2.54-2.06-4.6-4.6-4.6ZM65.64,34.33c0,1.09-.88,1.97-1.97,1.97h-.24c-1.09,0-1.97-.88-1.97-1.97v-6.82c0-1.09.88-1.97,1.97-1.97h.24c1.09,0,1.97.88,1.97,1.97v6.82Z"/>
            <path class="cls-6" d="M106.38,29.25h-1.25c-.92,0-1.67-.75-1.67-1.67s.75-1.67,1.67-1.67h2.51l2.51.84v-.84h0s0,0,0,0v-2.51h-5.85c-2.31,0-4.18,1.87-4.18,4.18s1.87,4.18,4.18,4.18h1.25c1.15,0,2.09.94,2.09,2.09s-.94,2.09-2.09,2.09h-2.09l-2.51-.84v3.34h5.43c2.54,0,4.6-2.06,4.6-4.6s-2.06-4.6-4.6-4.6Z"/>
          </g>
        </g>
      </g>
    </g>
  </g>
</svg>