<?xml version="1.0" encoding="UTF-8"?>
<svg id="_レイヤー_2" data-name="レイヤー 2" xmlns="http://www.w3.org/2000/svg" xmlns:xlink="http://www.w3.org/1999/xlink" viewBox="0 0 426.45 442.19">
  <defs>
    <style>
      .cls-1 {
        fill: none;
      }

      .cls-2 {
        fill: #221815;
      }

      .cls-3 {
        fill: #ffe100;
      }

      .cls-4 {
        fill: #006d30;
      }

      .cls-5 {
        fill: #fff;
      }

      .cls-6 {
        fill: #baac73;
      }

      .cls-7 {
        clip-path: url(#clippath);
      }
    </style>
    <clipPath id="clippath">
      <path class="cls-1" d="M390.94,217.21c.07-12.49-5.34-22.53-15.6-29.03-.69-.44-1.39-.87-2.1-1.27-.77-.43-1.55-.85-2.34-1.22-11.64-5.67-23.69-4.48-34.15-2.53-5.83,1.33-9.45,2.5-11.74,3.46-1.46-1.46-3.03-2.84-4.74-4.07-.97-.67-6.37-4.22-14.15-5.76-.48-2.23-.98-3.97-1.26-4.88-.01-.05-.23-.79-.25-.84-1.29-3.88-4.26-11.63-9.68-19.89-6.8-10.34-15.02-17.72-24.49-21.96-15.15-6.65-29.01-3.93-42.64,8.55-6.19,6.4-11.53,14.18-15.87,23.1-.54,1.12-4.52,10.56-4.96,11.86-1.56,4.27-6.56,19.27-5.14,33.03.89,10.47,5.87,20.98,13,27.42.12.11.54.44.67.53,7.94,6.03,16.67,9.07,25.99,9.07,1.13,0,2.27-.05,3.42-.13,12.05-.93,21.23-4.61,21.51-4.72,1.18-.45,2.22-.93,3.33-1.4,3.32,4.59,7.6,8.48,12.65,11.05,6.29,3.17,11.23,4.29,15.81,4.29.67,0,1.31-.14,1.97-.18.25.54.51,1.09.92,1.73,9.83,18.52,24.19,24.87,33.25,24.48.58.03,1.17.05,1.76.05,15.78,0,33.72-11.18,44.46-28.18l.53-.88c3.53-5.77,8.87-14.5,9.85-31.66Z"/>
    </clipPath>
  </defs>
  <g id="_レイヤー_1-2" data-name="レイヤー 1">
    <g>
      <path class="cls-4" d="M426.45,224.68c0,117.76-84.41,196.43-213.22,196.43S0,342.44,0,224.68,95.46,11.45,213.22,11.45s213.22,95.46,213.22,213.23Z"/>
      <g>
        <g>
          <path class="cls-2" d="M419.51,293.23c-1.3-.72-2.84-1.24-3.8-1.44-6.81-1.4-13.64-2.18-20.31-2.33-3.7-.09-7.16,0-10.49.16-1.79-20.11-8.09-39.31-19.27-58.27,1.62-9.72,2.12-22.36,2.53-32.66l.21-5.17c.84-18.75-5.88-43.26-14.38-52.46-2.12-2.29-5.31-4.04-8.13-4.45-21.54-3.21-49.87,5.34-81.73,24.67l-4-.59c-26.18-3.9-58.77-8.75-103.06,1.53-1.4.32-2.95.78-4.54,1.26-2.37.71-6.76,1.98-7.92,1.68-8.49-4.64-30.28-15.71-49.14-18.5-17.53-2.61-29.09.83-34.52,10.31-15.37,28.86-7.65,69.07-4.44,79.47-16,31.01-15.69,63.87-15.6,67.47-.01.84.03,1.72.04,2.58-.84.06-1.6.09-2.48.16-8.93.71-17.8,1.58-28.07,4.44-3.34.92-6.41,3.14-5.81,5.59.47,1.92,2.84,2.34,4.83,2.34,1.54,0,2.85-.25,2.89-.26,10.63-2.17,16.02-2.75,23.47-3.55l3.14-.34c.81-.09,1.61-.13,2.42-.2.81,9.68,2.85,19.99,6.48,30.18-4.44,1.67-9.56,3.89-15.71,7.07-.04.02-3.98,2.08-4.74,4.62-.23.78-.15,1.56.23,2.24.62,1.11,1.92,1.46,3.31,1.46,2.3,0,4.82-.95,4.86-.96,1.84-.81,3.57-1.58,5.21-2.31,3.72-1.66,6.96-3.05,10-4.23,3.93,8.9,9.09,17.53,15.73,25.34-6.84,3.96-15.09,9.33-24.44,16.6-1.94,1.52-3.19,3.45-3.41,5.32-.12,1.04.11,1.99.65,2.67.41.51,1.18.73,2.1.73,1.62,0,3.71-.68,5.14-1.7,10.26-7.27,19.16-12.89,26.15-17.04,7.51,7.31,16.5,13.67,27.22,18.49,35.27,15.84,67.77,19.4,108.95,20l4.04-.06,4.36.06c47.38-.7,84.81-7.46,111.26-20.11,15.35-7.34,27.56-17.24,36.7-29.54,7.64,2.61,16.9,6.62,25.83,12.66,1.14.79,3.45,2.17,5.5,2.17.92,0,1.79-.27,2.47-1.01.29-.3.61-.85.53-1.73-.17-1.86-2.23-4.46-3.56-5.43-9.12-6.66-18.29-10.95-26.01-13.74,5.25-8.67,9.17-18.37,11.72-29.12,5.64.9,12.22,2.35,19.44,4.77.04,0,2.17.71,4.26.71,1.57,0,3.11-.39,3.7-1.78.27-.63.26-1.33-.03-2.02-1.04-2.48-5.39-4.32-5.43-4.33-7.12-2.82-14.12-4.47-20.31-5.49,1.35-8.14,2-16.8,1.93-26,.02-1.57-.07-3.12-.1-4.67,2.94-.16,5.97-.26,9.16-.22,4.96.05,10.48.42,15.35.74,1.52.1,2.99.19,4.4.28,3.19.18,7.1-.41,7.57-2.73.17-.81-.11-2.03-2.36-3.29Z"/>
          <path class="cls-5" d="M354.53,231.37c1.76-9.13,2.29-22.42,2.71-33.11l.22-5.23c.76-16.97-5.67-38.25-11.49-44.55-.51-.56-1.4-.99-1.72-1.06-18.78-2.76-45.27,5.51-74.57,23.31-2.08,1.26-3.22,1.95-5.23,1.65l-5.91-.87c-25.25-3.76-56.69-8.45-98.98,1.36-1.2.27-2.52.68-3.88,1.08-5.38,1.6-11.46,3.43-16.3.79-7.98-4.35-28.38-14.75-45.5-17.28-12.59-1.85-20.45-.25-23.34,4.78-10.47,19.65-8.42,46.45-5.73,61.45.72-.85,1.42-1.62,2.07-2.27,2.63-2.63,5.32-3.6,7.16-2.33,1.91,1.32,1.15,4.66-.08,7.33-1.22,2.65-3.69,7.76-5.63,11.18,0,0,0,.01,0,.02-16.85,29.6-16.54,62.53-16.45,66.2,0,.74.03,1.51.04,2.26,9.31.02,14.99,1,17.89,1.74l.21.05c.06.01,7.62,1.41,7.18,5.04-.39,3.23-4.98,2.99-7.2,2.87l-.82-.06c-2.44-.37-8.96-1.24-16.86-1.4.79,8.79,2.71,18.09,6.01,27.25,4.52-1.04,7.71-1.28,9.83-1.4l.29-.02c2.79-.15,9.39-.25,9.73,3.07.3,2.87-4.87,4.24-7.11,4.7-1.04.21-2.16.36-3.41.53-1.75.24-3.74.52-6.09,1.02,3.77,8.24,8.76,16.15,15.14,23.24,6.63-3.22,10.45-4.39,10.53-4.42.06-.03,6.57-1.68,7.84,1.28,1.09,2.56-1.67,3.92-4.33,5.24-.85.42-1.74.86-2.55,1.35,0,0-.09.05-.26.13-1.03.51-2.75,1.4-5.02,2.62,6.17,5.56,13.32,10.43,21.71,14.2,33.54,15.07,64.84,18.45,104.46,19.04l4.04-.06,4.36.06c44.98-.67,81.88-7.25,106.54-19.04,12.36-5.91,22.38-13.54,30.17-22.9-3.71-.86-5.98-1.18-6.04-1.19-1.42-.14-5.85-1.17-7.34-3.19-.44-.61-.61-1.28-.47-1.94.75-3.62,7.32-2.9,10.09-2.42.35.03,3.75.38,9.03,1.65,5.2-7.94,9.03-16.98,11.53-27.1-2.33-.14-4.2-.17-5.48-.17-2.44.01-5.28-.05-5.28-.05-.74-.07-6.59-.76-6.82-3.68-.03-.39.05-1,.6-1.64,1.31-1.53,4.62-2.39,6.03-2.5l.31-.03c.84-.08,3.07-.3,5.31-.32h.62c1.62,0,3.81.05,6.42.22,1.29-7.68,1.93-15.9,1.86-24.75.01-1.24-.06-2.46-.09-3.69-6.85.85-12.47,1.97-16.3,2.74-1.96.39-3.38.68-4.24.78-1.38.2-2.56.3-3.55.3-2.31,0-3.58-.56-4-1.72-.29-.84-.23-1.74.18-2.59.73-1.52,2.53-2.81,5.19-3.72,2.09-.71,10.2-3.2,22.24-4.68-1.72-19.09-7.86-37.28-18.78-55.31-.7-1.16-.95-2.54-.69-3.87Z"/>
        </g>
        <g>
          <path class="cls-2" d="M115.31,313.05c-3.5,7.1-3.52,18.45,1.21,24.48,2.92,3.45,7.8,5.41,14.09,4.33,5.43-.94,8.52-5.9,9.55-9.85,2.23-8.84-.14-19.68-5.23-23.79-5.36-3.91-15.39-3.82-19.61,4.83Z"/>
          <path class="cls-2" d="M285.41,314.08c-3.5,7.1-3.52,18.45,1.21,24.48,2.92,3.45,7.8,5.41,14.09,4.33,5.43-.94,8.52-5.9,9.55-9.85,2.23-8.84-.15-19.68-5.23-23.79-5.36-3.91-15.39-3.82-19.61,4.83Z"/>
          <g>
            <path class="cls-2" d="M230.45,344.8c-1.17-4.16-4.32-7.43-8.44-8.76-7.86-2.55-15.82-1.48-20.77,2.79-5.16,4.56-5.41,12.65-2.19,16.84,2.99,3.88,7.72,5.9,14.48,6.2.31.01.63.02.94.02,5.41,0,10.44-1.98,13.31-5.27v-.02c2.83-3.28,3.82-7.69,2.67-11.81Z"/>
            <path class="cls-3" d="M219.9,342.54c-2.1-.68-4.24-1.01-6.25-1.01-3.19,0-6.05.84-7.91,2.45-2.45,2.17-2.29,6.18-1.26,7.52,1.68,2.18,4.74,3.34,9.35,3.54,4.27.17,7.46-1.38,8.79-2.9,1.34-1.56,1.79-3.55,1.24-5.49-.54-1.94-2.02-3.48-3.96-4.11Z"/>
          </g>
        </g>
      </g>
      <g>
        <g>
          <path class="cls-2" d="M174.31,402.88c-1.48-4.63-4.48-8.3-7.74-11.99-11.57-11.1-31.76-15.56-47.81-10.64-11.58,3.03-24.94,13.2-26.89,28.3-1.79,11.76,2.42,22.06,11.65,27.76,9.31,4.78,19.42,4.67,29.7-.17.87-.33,1.3-.24,3.57.72,1.42.61,3.17,1.34,5.28,1.7,3.57,1.03,6.76,1.46,9.57,1.46,7.46,0,12.38-3.02,15.44-6.04,7.97-7.84,10.94-20.61,7.23-31.1Z"/>
          <path class="cls-5" d="M163.97,406.46c-.03-.07-.05-.13-.07-.2-.84-2.65-3.05-5.31-5.25-7.82-8.41-8.05-24.41-11.47-36.92-7.67-8.41,2.21-17.79,9.67-19.04,19.29-.55,3.62-1.01,12.25,6.19,16.72,5.93,3.02,12.4,2.87,20-.7,1.9-.75,3.63-1.02,5.19-1.02,2.92,0,5.24.98,6.98,1.72,1.12.47,2.08.88,2.97,1.01.27.04.53.09.78.17,6.51,1.94,11.44,1.34,14.59-1.78,4.91-4.82,6.87-13.3,4.58-19.71Z"/>
        </g>
        <g>
          <path class="cls-2" d="M338.19,410.83c-1.98-15.21-15.33-25.39-26.69-28.34-16.27-4.97-36.47-.53-48.34,10.91-2.82,3.2-5.95,7-7.44,11.65-3.71,10.49-.74,23.26,7.22,31.1,3.07,3.03,8,6.05,15.46,6.05,2.81,0,5.99-.43,9.57-1.46,2.11-.36,3.86-1.1,5.28-1.7,2.29-.98,2.71-1.06,3.23-.88,10.61,5,20.73,5.1,30.44.1,8.83-5.48,13.04-15.78,11.27-27.43Z"/>
          <path class="cls-5" d="M327.35,412.36c-1.27-9.74-10.64-17.21-18.84-19.34-3.53-1.08-7.32-1.6-11.13-1.6-9.92,0-20.02,3.48-26.32,9.54-1.88,2.17-4.1,4.83-4.94,7.48-.02.07-.04.13-.07.2-2.29,6.41-.33,14.89,4.56,19.7,3.17,3.11,8.06,3.72,14.6,1.78.25-.07.51-.13.78-.17.89-.13,1.85-.53,2.97-1.01,2.67-1.14,6.69-2.83,11.82-.85,7.93,3.73,14.41,3.88,20.73.64,6.81-4.24,6.35-12.88,5.82-16.38Z"/>
        </g>
      </g>
      <g>
        <g class="cls-7">
          <rect class="cls-6" x="244.65" y="119.07" width="102.39" height="174.72" transform="translate(-16.27 387.33) rotate(-65)"/>
          <path class="cls-4" d="M247.95,342.18l-15.59-7.27,56.87-278.1,11.37,5.3-53.74,262.63,166.22-210.18,11.37,5.3-176.48,222.32ZM402.89,84.69l-118.53,159.61,46.08-193.39-58.55-27.3-67.21,325.59,49.28,22.98L461.02,111.79l-58.13-27.11Z"/>
        </g>
        <path class="cls-2" d="M390.94,217.21c.07-12.49-5.34-22.53-15.6-29.03-.69-.44-1.39-.87-2.1-1.27-.77-.43-1.55-.85-2.34-1.22-11.64-5.67-23.69-4.48-34.15-2.53-5.83,1.33-9.45,2.5-11.74,3.46-1.46-1.46-3.03-2.84-4.74-4.07-.97-.67-6.37-4.22-14.15-5.76-.48-2.23-.98-3.97-1.26-4.88-.01-.05-.23-.79-.25-.84-1.29-3.88-4.26-11.63-9.68-19.89-6.8-10.34-15.02-17.72-24.49-21.96-15.15-6.65-29.01-3.93-42.64,8.55-6.19,6.4-11.53,14.18-15.87,23.1-.54,1.12-4.52,10.56-4.96,11.86-1.56,4.27-6.56,19.27-5.14,33.03.89,10.47,5.87,20.98,13,27.42.12.11.54.44.67.53,7.94,6.03,16.67,9.07,25.99,9.07,1.13,0,2.27-.05,3.42-.13,12.05-.93,21.23-4.61,21.51-4.72,1.18-.45,2.22-.93,3.33-1.4,3.32,4.59,7.6,8.48,12.65,11.05,6.29,3.17,11.23,4.29,15.81,4.29.67,0,1.31-.14,1.97-.18.25.54.51,1.09.92,1.73,9.83,18.52,24.19,24.87,33.25,24.48.58.03,1.17.05,1.76.05,15.78,0,33.72-11.18,44.46-28.18l.53-.88c3.53-5.77,8.87-14.5,9.85-31.66ZM262.41,227.73c-.08.03-8.08,3.2-18.37,4-11.87.91-19.44-4.85-21.88-6.66-5-4.53-8.79-12.66-9.45-20.34-1.18-11.51,3.16-24.52,4.61-28.48.39-1.06,3.95-9.57,4.44-10.59,3.84-7.9,8.52-14.72,13.66-20.06,10.24-9.37,19.41-11.29,30.57-6.38,7.49,3.35,14.15,9.4,19.77,17.96,4.92,7.49,7.54,14.61,8.32,16.91l.28.99c.1.33.23.76.37,1.26-3.12.38-6.39,1.21-9.76,2.67-.86.37-1.62.86-2.44,1.29-1.82-1.99-4.05-3.77-6.3-5.03-6.73-3.79-14.11-3.85-20.25-.13-6.59,4-10.46,11.71-9.86,19.44.23,6.03,2.69,11.16,7.12,14.82,2.87,2.37,6.27,3.78,9.4,4.6,0,.53-.07,1.05-.06,1.58.03,3.82.78,7.6,2.04,11.21-.76.31-1.43.63-2.24.94ZM264.12,203.04c-1.43-.51-2.96-1.24-4.22-2.39-1.79-1.63-2.7-3.75-2.82-6.7-.29-3.87,1.51-7.58,4.61-9.47,2.17-1.32,4.47-1.53,7.04-.66,2.02.68,3.67,1.86,4.9,2.98-4.48,4.46-7.75,9.99-9.5,16.23ZM306.89,239.43c-7.63,2.01-11.53,2.43-19.54-1.62-8.18-4.17-13.72-13.13-13.78-22.46-.43-11.82,5.62-21.89,15.78-26.29,3.44-1.5,6.75-2.05,9.77-2.05,8.05,0,14.03,3.93,14.85,4.49,9.03,6.49,13.34,17.88,10.69,28.51-2.49,11.49-10.8,17.57-17.75,19.43ZM371.63,243.37l-.6,1.01c-8.69,13.74-23.71,23.26-36.56,22.57-6.52.09-15.93-5.16-23.02-17.53,4.14-1.36,8.46-3.71,12.35-7.14,1.96,1.41,4.3,2.61,7,3.2,1.02.22,2.2.38,3.49.38,3.21,0,7.18-.98,11.47-4.38,4.81-4.81,6.44-10.35,4.84-17.49-2.81-8.54-9.53-11.12-14.31-12.03-.27-5.63-1.81-11.14-4.48-16.14,2.05-.65,4.64-1.36,7.15-1.93,8.49-1.57,18.35-2.62,27.19,1.67.59.28,1.14.58,1.7.89.53.3,1.04.61,1.59.96,7.15,4.53,10.61,10.99,10.57,19.46-.82,14.14-4.94,20.88-8.38,26.5ZM335.17,222.94c2.53.61,4.13,1.69,4.89,3.93.65,2.96.13,4.69-1.56,6.43-1.71,1.35-3.44,1.83-5.18,1.51-.94-.17-1.76-.57-2.49-1,1.88-3.16,3.39-6.77,4.33-10.89Z"/>
      </g>
    </g>
    <g>
      <g>
        <g>
          <path class="cls-6" d="M63,8.33c-1.91-.74-3.25-2.67-3.25-5.35V.31h-3.2v2.72c0,4.1,2.51,7.35,5.8,8.26-.91,1.58-2.62,2.58-4.82,2.58h-.98v3.05h1.03c5.08,0,8.62-3.51,8.62-8.3V.31h-3.2v8.02Z"/>
          <polygon class="cls-6" points="52.26 .31 48.8 7.47 48.8 .31 45.6 .31 45.6 16.92 48.8 16.92 48.8 9.81 52.04 9.81 52.04 16.92 55.24 16.92 55.24 7.02 52.21 7.02 55.72 .31 52.26 .31"/>
          <polygon class="cls-6" points="24.45 3.41 27.68 3.41 27.68 16.92 30.87 16.92 30.87 3.41 34.07 3.41 34.07 .31 24.45 .31 24.45 3.41"/>
          <path class="cls-6" d="M41.04,12.36c0,1.07-.69,1.74-1.62,1.74s-1.62-.67-1.62-1.74v-7.49c0-1.07.69-1.74,1.62-1.74s1.62.67,1.62,1.74v7.49ZM39.42,0c-2.79,0-4.82,2.03-4.82,4.82v7.59c0,2.79,2.03,4.82,4.82,4.82s4.82-2.03,4.82-4.82v-7.59c0-2.79-2.03-4.82-4.82-4.82"/>
          <path class="cls-6" d="M73.97,12.36c0,1.07-.69,1.74-1.62,1.74s-1.62-.67-1.62-1.74v-7.49c0-1.07.69-1.74,1.62-1.74s1.62.67,1.62,1.74v7.49ZM72.35,0c-2.79,0-4.82,2.03-4.82,4.82v7.59c0,2.79,2.03,4.82,4.82,4.82s4.82-2.03,4.82-4.82v-7.59c0-2.79-2.03-4.82-4.82-4.82"/>
        </g>
        <g>
          <path class="cls-4" d="M128.48,8.59c0,3.89-3.1,7.06-7.16,7.06v-.67c2.94,0,5.42-1.79,6.25-4.53-3.48-.45-6.16-3.51-6.16-7.42v-1.55h.62v1.55c0,3.6,2.46,6.42,5.66,6.85.12-.43.17-.86.17-1.29V1.48h.62v7.11ZM126.57.31v8.02c-1.91-.74-3.25-2.67-3.25-5.35V.31h-3.2v2.72c0,4.11,2.51,7.35,5.8,8.26-.91,1.58-2.63,2.58-4.82,2.58h-.98v3.05h1.03c5.08,0,8.62-3.51,8.62-8.31V.31h-3.2Z"/>
          <path class="cls-4" d="M106.05,1.74v.6c-3.01.55-5.27,3.2-5.27,6.99v6.32h-.62v-6.32c0-4.15,2.53-7.04,5.89-7.59M98.86,9.33v7.59h3.2v-7.59c0-3.56,2.31-5.82,5.15-5.82V.31c-4.61,0-8.35,3.68-8.35,9.02"/>
          <path class="cls-4" d="M111.53,13.67V3.51c2.86,0,5.13,2.24,5.13,5.08s-2.27,5.08-5.13,5.08M111.53,2.2h-1.29v12.82h1.29c3.58,0,6.42-2.84,6.42-6.42s-2.84-6.4-6.42-6.4"/>
          <path class="cls-4" d="M96.55,2.15c-3.65,0-6.35,2.77-6.54,6.11h5.25v.6h-5.25c.19,3.44,2.98,6.23,6.54,6.23v.57c-4.06,0-7.18-3.22-7.18-7.06s3.17-7.02,7.18-7.02v.57ZM88.1,8.59c0,4.63,3.72,8.33,8.35,8.33h1.29v-3.1h-1.29c-2.29,0-4.2-1.67-4.89-3.7h4.89v-3.13h-4.89c.69-2.03,2.6-3.58,4.89-3.58h1.29V.31h-1.29c-4.63,0-8.35,3.68-8.35,8.28"/>
          <path class="cls-4" d="M111.53,15.58h-1.91V1.62h1.91c3.94,0,7.06,3.08,7.06,6.97s-3.13,6.99-7.06,6.99M111.53.31h-3.2v16.61h3.2c4.65,0,8.35-3.7,8.35-8.33S116.19.31,111.53.31"/>
          <path class="cls-4" d="M83.73,15.66h-.88l-3.39-14.18h.64l3.2,13.39,3.17-13.39h.64l-3.39,14.18ZM85.35.31l-2.05,10-2.05-10h-3.32l3.94,16.61h2.79L88.65.31h-3.29Z"/>
        </g>
      </g>
      <path class="cls-6" d="M77.34,135.98c-22.27-8.81-52.89-27.37-52.89-60.31V20.72h105.31v54.94c0,32.94-30.62,51.5-52.42,60.31"/>
      <path class="cls-4" d="M70.84,44.34h8.09l-5.16,3.22-2.92-3.22ZM120.06,56.05c2.2,0,3.99-1.79,3.99-3.99h0s-13.66,0-13.66,0c-.06-.61-.12-1.21-.21-1.81l9.58-1.69c2.17-.38,3.62-2.45,3.23-4.62l-13.64,2.4c-.16-.58-.33-1.15-.52-1.72l9.32-3.39c2.07-.75,3.14-3.04,2.38-5.11h0s-13.17,4.79-13.17,4.79c-.23-.54-.48-1.08-.74-1.6l8.68-5.01c1.91-1.1,2.56-3.54,1.46-5.45l-.84.49-21.01,12.13c2.46,3.52,3.92,7.8,3.92,12.42,0,6.09-2.51,11.58-6.55,15.52l-10.91-26.15c-.49-1.27-1.36-1.85-2.63-1.95h-5.07c-.68,0-1.27.19-1.95.68l-7.6,4.97c-.68.49-1.07,1.07-1.07,1.66v1.17h9.74l-10.84,19.62c-4.04-3.94-6.55-9.43-6.55-15.52,0-4.62,1.45-8.9,3.91-12.42l-21.01-12.13-.84-.49c-1.1,1.91-.45,4.35,1.46,5.45l8.68,5.01c-.26.53-.51,1.06-.74,1.6l-13.17-4.79h0c-.75,2.07.31,4.36,2.38,5.11l9.32,3.39c-.19.57-.36,1.14-.51,1.72l-13.64-2.4c-.38,2.17,1.07,4.24,3.23,4.62l9.58,1.69c-.09.6-.16,1.2-.21,1.81h-13.66c0,2.2,1.79,3.99,3.99,3.99h9.55c.02.62.05,1.24.1,1.85l-13.27,2.34h0c.38,2.17,2.45,3.62,4.62,3.23l9.2-1.62c.13.62.27,1.23.43,1.84l-12.47,4.54h0c.75,2.07,3.04,3.14,5.11,2.38l8.61-3.13c.24.6.49,1.19.76,1.77l-11.34,6.55h0c1.1,1.91,3.54,2.56,5.45,1.46l7.79-4.5c.34.55.71,1.09,1.08,1.63l-9.91,8.31h0c1.42,1.69,3.93,1.91,5.62.49l6.77-5.68c.44.49.9.97,1.37,1.43l-8.22,9.79c1.69,1.42,4.2,1.2,5.62-.49l5.6-6.68c.53.41,1.06.81,1.61,1.18l-6.33,10.96h0c1.91,1.1,4.34.45,5.45-1.46l4.3-7.45c.6.31,1.21.61,1.83.88l-7.82,21.49c2.07.75,4.36-.31,5.11-2.38l6.44-17.7c.63.19,1.27.36,1.91.52l-5.44,30.85h0c2.17.38,4.23-1.06,4.62-3.23l4.78-26.91c.67.08,1.35.14,2.03.18v37.91c0,1.47.8,2.76,1.99,3.45,1.19-.69,1.99-1.97,1.99-3.45v-37.91c.68-.04,1.36-.1,2.03-.18l4.78,26.91c.38,2.17,2.45,3.61,4.62,3.23h0s-5.44-30.85-5.44-30.85c.64-.16,1.28-.33,1.91-.52l6.44,17.7c.75,2.07,3.04,3.14,5.11,2.38l-7.82-21.49c.62-.28,1.23-.57,1.83-.88l4.3,7.45c1.1,1.91,3.54,2.56,5.45,1.46h0l-6.33-10.96c.55-.38,1.09-.77,1.61-1.18l5.6,6.68c1.42,1.69,3.93,1.91,5.62.49h0l-8.22-9.79c.47-.46.93-.94,1.37-1.43l6.77,5.68c1.69,1.42,4.2,1.2,5.62-.49h0s-9.91-8.31-9.91-8.31c.37-.53.74-1.07,1.08-1.63l7.79,4.5c1.91,1.1,4.34.45,5.45-1.46h0s-11.34-6.55-11.34-6.55c.27-.58.52-1.17.76-1.77l8.61,3.13c2.07.75,4.36-.31,5.11-2.38h0s-12.47-4.54-12.47-4.54c.16-.61.31-1.22.43-1.84l9.2,1.62c2.17.38,4.24-1.07,4.62-3.23h0s-13.27-2.34-13.27-2.34c.05-.61.08-1.23.1-1.85h9.55Z"/>
    </g>
  </g>
</svg>