<?xml version="1.0" encoding="UTF-8"?>
<svg id="_レイヤー_2" data-name="レイヤー 2" xmlns="http://www.w3.org/2000/svg" xmlns:xlink="http://www.w3.org/1999/xlink" viewBox="0 0 426.45 446.9">
  <defs>
    <style>
      .cls-1 {
        fill: none;
      }

      .cls-2 {
        fill: #221815;
      }

      .cls-3 {
        fill: #ffe100;
      }

      .cls-4 {
        fill: #194375;
      }

      .cls-5 {
        fill: #fdfafa;
      }

      .cls-6 {
        fill: #b8193f;
      }

      .cls-7 {
        fill: #003894;
      }

      .cls-8 {
        fill: #fff;
      }

      .cls-9 {
        fill: #c9c5c0;
      }

      .cls-10 {
        clip-path: url(#clippath);
      }
    </style>
    <clipPath id="clippath">
      <path class="cls-1" d="M390.94,221.92c.07-12.49-5.34-22.53-15.6-29.03-.69-.44-1.39-.87-2.1-1.27-.77-.43-1.55-.85-2.34-1.22-11.64-5.67-23.69-4.48-34.15-2.53-5.83,1.33-9.45,2.5-11.74,3.46-1.46-1.46-3.03-2.84-4.74-4.07-.97-.67-6.37-4.22-14.15-5.76-.48-2.23-.98-3.97-1.26-4.88-.01-.05-.23-.79-.25-.84-1.29-3.88-4.26-11.63-9.68-19.89-6.8-10.34-15.02-17.72-24.49-21.96-15.15-6.65-29.01-3.93-42.64,8.54-6.19,6.41-11.53,14.18-15.87,23.1-.54,1.12-4.52,10.56-4.96,11.86-1.56,4.27-6.56,19.27-5.14,33.03.89,10.47,5.87,20.98,13,27.42.12.11.54.44.67.53,7.94,6.03,16.67,9.07,25.99,9.07,1.13,0,2.27-.05,3.42-.13,12.05-.93,21.23-4.61,21.51-4.72,1.18-.45,2.22-.93,3.33-1.4,3.32,4.59,7.6,8.48,12.65,11.05,6.29,3.17,11.23,4.29,15.81,4.29.67,0,1.31-.14,1.97-.18.25.54.51,1.09.92,1.73,9.83,18.52,24.19,24.87,33.25,24.47.58.03,1.17.05,1.76.05,15.78,0,33.72-11.18,44.46-28.18l.53-.88c3.53-5.77,8.87-14.5,9.85-31.66Z"/>
    </clipPath>
  </defs>
  <g id="_レイヤー_1-2" data-name="レイヤー 1">
    <g>
      <path class="cls-7" d="M426.45,229.38c0,117.76-84.41,196.43-213.22,196.43S0,347.14,0,229.38,95.46,16.16,213.22,16.16s213.22,95.46,213.22,213.23Z"/>
      <g>
        <g>
          <g>
            <path class="cls-2" d="M419.52,297.94c-1.3-.72-2.84-1.24-3.8-1.44-6.81-1.4-13.64-2.18-20.31-2.33-3.7-.09-7.16,0-10.49.16-1.79-20.11-8.09-39.31-19.27-58.27,1.62-9.72,2.12-22.36,2.53-32.66l.21-5.17c.84-18.75-5.88-43.26-14.38-52.47-2.12-2.29-5.31-4.04-8.12-4.45-21.54-3.21-49.87,5.35-81.73,24.67l-4-.6c-26.18-3.9-58.77-8.75-103.06,1.53-1.4.32-2.95.78-4.54,1.26-2.36.71-6.76,1.98-7.92,1.68-8.49-4.64-30.28-15.71-49.14-18.5-17.53-2.61-29.09.83-34.52,10.31-15.37,28.86-7.65,69.07-4.44,79.47-16,31.01-15.7,63.87-15.6,67.47-.01.84.03,1.72.04,2.58-.84.06-1.6.09-2.48.16-8.93.71-17.8,1.58-28.07,4.44-3.34.92-6.41,3.14-5.81,5.59.47,1.92,2.84,2.34,4.83,2.34,1.54,0,2.85-.25,2.89-.26,10.63-2.17,16.02-2.75,23.47-3.55l3.14-.34c.81-.09,1.61-.13,2.42-.2.81,9.68,2.86,19.99,6.48,30.18-4.44,1.67-9.56,3.89-15.71,7.07-.04.02-3.98,2.08-4.74,4.62-.23.78-.15,1.56.23,2.24.62,1.11,1.92,1.46,3.31,1.46,2.3,0,4.82-.95,4.86-.96,1.84-.81,3.57-1.58,5.21-2.31,3.72-1.66,6.96-3.05,10-4.23,3.93,8.9,9.09,17.53,15.73,25.34-6.84,3.95-15.09,9.33-24.43,16.6-1.94,1.52-3.19,3.45-3.41,5.32-.12,1.04.11,1.99.65,2.67.41.51,1.18.73,2.1.73,1.62,0,3.71-.68,5.14-1.7,10.26-7.27,19.16-12.89,26.15-17.04,7.51,7.31,16.5,13.67,27.22,18.49,35.27,15.84,67.77,19.4,108.95,20l4.04-.06,4.36.06c47.38-.7,84.81-7.46,111.26-20.11,15.35-7.34,27.56-17.24,36.7-29.54,7.64,2.61,16.9,6.62,25.83,12.66,1.14.79,3.45,2.17,5.5,2.17.92,0,1.79-.27,2.47-1.01.29-.3.62-.85.53-1.73-.17-1.86-2.23-4.46-3.56-5.43-9.12-6.66-18.29-10.95-26.01-13.74,5.25-8.67,9.17-18.37,11.72-29.12,5.64.9,12.22,2.35,19.44,4.77.04,0,2.17.71,4.26.71,1.57,0,3.11-.39,3.7-1.78.27-.63.26-1.33-.03-2.02-1.04-2.48-5.39-4.32-5.43-4.33-7.12-2.82-14.12-4.48-20.31-5.49,1.35-8.14,2-16.8,1.93-26,.02-1.57-.07-3.12-.1-4.67,2.93-.16,5.97-.26,9.16-.22,4.96.05,10.48.42,15.35.74,1.52.1,2.99.19,4.4.28,3.19.18,7.1-.41,7.57-2.73.17-.81-.11-2.03-2.36-3.29Z"/>
            <path class="cls-8" d="M354.53,236.07c1.76-9.13,2.29-22.42,2.71-33.11l.22-5.23c.76-16.97-5.67-38.25-11.49-44.55-.51-.56-1.4-.99-1.72-1.06-18.78-2.76-45.27,5.51-74.57,23.31-2.08,1.26-3.22,1.95-5.23,1.65l-5.91-.87c-25.25-3.76-56.69-8.45-98.98,1.36-1.2.27-2.52.68-3.88,1.08-5.38,1.6-11.46,3.43-16.3.79-7.98-4.35-28.38-14.75-45.5-17.28-12.59-1.85-20.45-.25-23.34,4.78-10.47,19.65-8.42,46.45-5.73,61.45.72-.85,1.42-1.62,2.07-2.27,2.63-2.63,5.32-3.6,7.16-2.33,1.91,1.32,1.15,4.66-.08,7.33-1.22,2.65-3.69,7.76-5.63,11.18,0,0,0,.01,0,.02-16.85,29.6-16.54,62.53-16.45,66.2,0,.74.03,1.51.04,2.26,9.31.02,14.99,1,17.89,1.74l.21.05c.06.01,7.62,1.41,7.18,5.04-.39,3.23-4.98,2.99-7.2,2.87l-.82-.06c-2.44-.37-8.96-1.24-16.86-1.4.79,8.79,2.71,18.09,6.01,27.25,4.52-1.04,7.71-1.28,9.83-1.4l.29-.02c2.79-.15,9.39-.25,9.73,3.07.3,2.87-4.87,4.24-7.11,4.7-1.04.21-2.16.36-3.41.53-1.75.24-3.74.52-6.09,1.02,3.77,8.24,8.76,16.15,15.14,23.24,6.63-3.22,10.45-4.39,10.53-4.42.06-.03,6.57-1.68,7.84,1.28,1.09,2.56-1.67,3.92-4.33,5.24-.85.42-1.74.86-2.55,1.35,0,0-.09.05-.26.13-1.03.51-2.75,1.4-5.02,2.62,6.17,5.56,13.32,10.43,21.71,14.2,33.54,15.07,64.84,18.45,104.46,19.04l4.04-.06,4.36.06c44.98-.67,81.88-7.25,106.54-19.04,12.36-5.91,22.38-13.54,30.17-22.9-3.71-.86-5.98-1.18-6.04-1.19-1.42-.14-5.85-1.17-7.34-3.19-.44-.61-.61-1.28-.47-1.94.75-3.62,7.32-2.9,10.09-2.43.35.03,3.75.38,9.03,1.65,5.2-7.94,9.03-16.98,11.53-27.1-2.33-.14-4.2-.17-5.48-.17-2.44.01-5.28-.05-5.28-.05-.74-.07-6.59-.76-6.82-3.68-.03-.39.05-1,.6-1.64,1.31-1.53,4.62-2.39,6.03-2.5l.31-.03c.84-.08,3.07-.3,5.31-.32h.61c1.62,0,3.81.05,6.42.22,1.29-7.68,1.93-15.9,1.86-24.75.01-1.24-.07-2.46-.09-3.69-6.85.85-12.47,1.97-16.3,2.74-1.96.39-3.38.68-4.24.78-1.38.2-2.56.3-3.55.3-2.31,0-3.58-.56-4-1.72-.29-.84-.23-1.74.18-2.59.74-1.52,2.53-2.81,5.19-3.71,2.09-.71,10.21-3.2,22.24-4.68-1.72-19.09-7.86-37.28-18.78-55.31-.7-1.16-.95-2.54-.69-3.87Z"/>
          </g>
          <g>
            <path class="cls-2" d="M115.31,317.75c-3.5,7.1-3.52,18.45,1.21,24.48,2.92,3.45,7.8,5.41,14.09,4.33,5.43-.94,8.52-5.9,9.55-9.85,2.23-8.84-.15-19.68-5.23-23.79-5.36-3.91-15.39-3.82-19.61,4.83Z"/>
            <path class="cls-2" d="M285.41,318.79c-3.5,7.1-3.52,18.45,1.21,24.48,2.92,3.45,7.8,5.41,14.09,4.33,5.43-.94,8.52-5.9,9.55-9.85,2.23-8.84-.14-19.68-5.23-23.79-5.36-3.91-15.39-3.82-19.61,4.83Z"/>
            <g>
              <path class="cls-2" d="M230.45,349.5c-1.17-4.16-4.32-7.43-8.44-8.76-7.86-2.55-15.82-1.48-20.77,2.79-5.16,4.56-5.41,12.65-2.18,16.84,2.99,3.87,7.72,5.9,14.48,6.2.31.01.63.02.94.02,5.41,0,10.44-1.98,13.31-5.27v-.02c2.83-3.28,3.82-7.69,2.67-11.81Z"/>
              <path class="cls-3" d="M219.91,347.25c-2.1-.68-4.24-1.01-6.25-1.01-3.19,0-6.05.84-7.91,2.45-2.45,2.17-2.29,6.18-1.26,7.52,1.68,2.18,4.74,3.34,9.35,3.54,4.27.17,7.46-1.38,8.79-2.9,1.34-1.56,1.79-3.55,1.24-5.49-.54-1.94-2.02-3.48-3.96-4.11Z"/>
            </g>
          </g>
        </g>
        <g>
          <g>
            <path class="cls-2" d="M174.31,407.58c-1.48-4.63-4.48-8.3-7.74-11.99-11.57-11.1-31.76-15.56-47.81-10.64-11.58,3.03-24.94,13.2-26.89,28.3-1.79,11.76,2.42,22.06,11.65,27.76,9.31,4.78,19.42,4.67,29.7-.17.87-.33,1.3-.24,3.57.72,1.42.61,3.17,1.34,5.28,1.7,3.57,1.03,6.76,1.46,9.57,1.46,7.46,0,12.38-3.02,15.44-6.04,7.97-7.84,10.94-20.61,7.23-31.1Z"/>
            <path class="cls-8" d="M163.98,411.17c-.03-.07-.05-.13-.07-.2-.83-2.65-3.05-5.31-5.25-7.82-8.41-8.05-24.41-11.47-36.92-7.67-8.41,2.21-17.79,9.67-19.04,19.29-.55,3.62-1.01,12.25,6.19,16.72,5.93,3.02,12.4,2.87,20-.7,1.9-.75,3.63-1.02,5.18-1.02,2.92,0,5.24.98,6.98,1.72,1.12.47,2.08.88,2.97,1.01.27.04.53.09.78.17,6.51,1.94,11.44,1.34,14.59-1.78,4.91-4.82,6.87-13.3,4.58-19.71Z"/>
          </g>
          <g>
            <path class="cls-2" d="M338.19,415.54c-1.98-15.21-15.33-25.39-26.69-28.34-16.27-4.97-36.47-.53-48.34,10.91-2.82,3.2-5.95,7-7.44,11.65-3.71,10.49-.74,23.27,7.22,31.1,3.07,3.03,8,6.05,15.45,6.05,2.81,0,5.99-.43,9.57-1.46,2.11-.36,3.86-1.1,5.28-1.7,2.29-.98,2.71-1.06,3.23-.88,10.61,5,20.73,5.11,30.44.1,8.83-5.48,13.04-15.78,11.27-27.43Z"/>
            <path class="cls-8" d="M327.35,417.07c-1.27-9.74-10.64-17.21-18.84-19.34-3.53-1.08-7.32-1.6-11.13-1.6-9.92,0-20.02,3.48-26.32,9.54-1.88,2.17-4.1,4.83-4.94,7.48-.02.07-.04.13-.07.2-2.29,6.41-.33,14.89,4.56,19.7,3.17,3.11,8.06,3.72,14.6,1.78.25-.07.51-.13.78-.17.89-.13,1.85-.53,2.97-1.01,2.67-1.14,6.69-2.83,11.82-.85,7.93,3.73,14.41,3.87,20.73.64,6.81-4.24,6.35-12.88,5.82-16.38Z"/>
          </g>
        </g>
        <g>
          <g class="cls-10">
            <g>
              <rect class="cls-7" x="242.27" y="118.22" width="103.62" height="181.08" transform="translate(-19.41 387.06) rotate(-65)"/>
              <rect class="cls-6" x="280.86" y="130.38" width="15.11" height="181.08" transform="translate(-33.7 388.94) rotate(-65)"/>
              <rect class="cls-8" x="281.34" y="139.7" width="5.45" height="181.08" transform="translate(-44.65 390.39) rotate(-65)"/>
            </g>
          </g>
          <path class="cls-2" d="M390.94,221.92c.07-12.49-5.34-22.53-15.6-29.03-.69-.44-1.39-.87-2.1-1.27-.77-.43-1.55-.85-2.34-1.22-11.64-5.67-23.69-4.48-34.15-2.53-5.83,1.33-9.45,2.5-11.74,3.46-1.46-1.46-3.03-2.84-4.74-4.07-.97-.67-6.37-4.22-14.15-5.76-.48-2.23-.98-3.97-1.26-4.88-.01-.05-.23-.79-.25-.84-1.29-3.88-4.26-11.63-9.68-19.89-6.8-10.34-15.02-17.72-24.49-21.96-15.15-6.65-29.01-3.93-42.64,8.54-6.19,6.41-11.53,14.18-15.87,23.1-.54,1.12-4.52,10.56-4.96,11.86-1.56,4.27-6.56,19.27-5.14,33.03.89,10.47,5.87,20.98,13,27.42.12.11.54.44.67.53,7.94,6.03,16.67,9.07,25.99,9.07,1.13,0,2.27-.05,3.42-.13,12.05-.93,21.23-4.61,21.51-4.72,1.18-.45,2.22-.93,3.33-1.4,3.32,4.59,7.6,8.48,12.65,11.05,6.29,3.17,11.23,4.29,15.81,4.29.67,0,1.31-.14,1.97-.18.25.54.51,1.09.92,1.73,9.83,18.52,24.19,24.87,33.25,24.47.58.03,1.17.05,1.76.05,15.78,0,33.72-11.18,44.46-28.18l.53-.88c3.53-5.77,8.87-14.5,9.85-31.66ZM262.41,232.44c-.08.03-8.08,3.2-18.37,4-11.87.92-19.45-4.84-21.88-6.66-5-4.53-8.79-12.66-9.45-20.34-1.18-11.51,3.16-24.52,4.61-28.48.39-1.06,3.95-9.57,4.44-10.59,3.84-7.89,8.52-14.72,13.66-20.06,10.24-9.37,19.41-11.29,30.57-6.38,7.49,3.36,14.15,9.4,19.77,17.96,4.92,7.49,7.54,14.61,8.32,16.9l.28.99c.1.33.23.76.37,1.26-3.12.38-6.39,1.21-9.76,2.67-.86.37-1.62.86-2.44,1.29-1.82-1.99-4.05-3.77-6.3-5.03-6.73-3.79-14.11-3.84-20.25-.13-6.59,4-10.46,11.71-9.86,19.44.23,6.03,2.69,11.16,7.12,14.82,2.87,2.37,6.27,3.78,9.4,4.6,0,.53-.07,1.05-.05,1.58.03,3.82.78,7.6,2.04,11.21-.76.31-1.43.63-2.24.94ZM264.12,207.75c-1.43-.51-2.96-1.24-4.22-2.39-1.79-1.63-2.7-3.75-2.82-6.7-.29-3.87,1.51-7.59,4.61-9.47,2.17-1.32,4.47-1.53,7.04-.66,2.02.68,3.67,1.86,4.9,2.98-4.48,4.46-7.75,9.99-9.5,16.23ZM306.89,244.14c-7.63,2.01-11.53,2.43-19.54-1.62-8.18-4.17-13.72-13.13-13.78-22.47-.43-11.82,5.62-21.89,15.78-26.29,3.44-1.49,6.75-2.04,9.77-2.05,8.05,0,14.03,3.93,14.85,4.49,9.03,6.49,13.34,17.88,10.69,28.51-2.49,11.49-10.8,17.57-17.75,19.43ZM371.63,248.08l-.6,1.01c-8.69,13.74-23.71,23.26-36.56,22.57-6.52.09-15.93-5.16-23.02-17.53,4.14-1.36,8.46-3.71,12.35-7.14,1.96,1.41,4.3,2.61,7,3.2,1.02.22,2.2.38,3.49.38,3.21,0,7.18-.98,11.47-4.38,4.8-4.81,6.43-10.35,4.84-17.49-2.82-8.54-9.53-11.12-14.31-12.03-.27-5.63-1.81-11.14-4.48-16.14,2.05-.65,4.64-1.36,7.15-1.94,8.49-1.57,18.35-2.62,27.19,1.67.59.28,1.14.58,1.7.89.53.3,1.04.61,1.59.96,7.15,4.53,10.61,10.99,10.57,19.46-.82,14.14-4.94,20.88-8.38,26.5ZM335.17,227.65c2.53.61,4.13,1.69,4.89,3.94.65,2.96.13,4.69-1.56,6.43-1.71,1.35-3.44,1.83-5.18,1.51-.94-.17-1.76-.57-2.49-1,1.88-3.16,3.39-6.77,4.33-10.89Z"/>
        </g>
      </g>
    </g>
    <g>
      <g>
        <path class="cls-4" d="M143.86,114.78c-.3-.86-1.2-1.71-2.75-1.29-.09.02-8.64,2.25-19.07.15.6-.87,1.12-1.65,1.57-2.39,9.42-15.1,11.36-31.91,5.77-49.97-2.18-7.04-3.66-18.39-3.73-18.89h0s0,0,0,0l-.13-1.01-.16-1.23-.02-.13-.13-.02-1.22-.2-1.01-.17c-1.45-.24-3.59.12-5.76.95-2.1-3.9-8.54-16.35-8.54-21.82,0-3.21-1.72-4.76-2.75-5.41-3.84-2.4-9.85-.34-17.7,3.48-1.1-1.06-3.53-3.97-7.83-11.76h0s0,0,0,0h0s-1.19-2.17-1.19-2.17l-1.45-2.63-.15-.28-.15.28-1.46,2.63-1.2,2.17c-4.3,7.79-6.73,10.7-7.83,11.76-7.85-3.83-13.86-5.88-17.7-3.48-1.03.64-2.75,2.2-2.75,5.41,0,5.47-6.44,17.92-8.54,21.82-2.17-.83-4.31-1.19-5.76-.95h.02s-.19.03-1.02.17l-1.22.2-.13.02-.02.13-.16,1.23-.13,1.01c-.06.48-1.55,11.85-3.73,18.89-2.06,6.66-3.1,13.24-3.1,19.57,0,10.73,2.99,20.96,8.88,30.4.46.73.98,1.52,1.57,2.39-10.43,2.11-18.98-.12-19.07-.15-1.55-.42-2.45.43-2.75,1.28-.66,1.87.9,2.55,2.27,3.15,3.08,1.35,5.62,2.59,7.57,3.71-.34.07-.67.19-1,.39,0,0-1.47.86-1.47.86l-.09.05v.1s0,1.19,0,1.19c0,0,0,.51,0,.51,0,1.22.65,2.25,1.82,2.9.42.23,1.01.48,1.77.73,3.49,1.77,7.84,5,8.65,8.31.6,2.45,2.32,4.22,4.71,4.86,5.29,1.41,13.72-2.99,19.39-7.22,6.38,4.01,11.45,5.89,13.87,6.28.62.15,3.66,1.9,6.86,4.18h0c.2.16.46.36.77.6l1.01.77.11.08.11-.08,1.01-.78.77-.59c3.24-2.32,6.22-4.02,6.86-4.18,2.43-.39,7.49-2.27,13.87-6.28,5.66,4.23,14.1,8.63,19.39,7.22,2.39-.64,4.11-2.41,4.71-4.86.81-3.3,5.17-6.54,8.65-8.31.76-.25,1.36-.49,1.77-.73,1.18-.65,1.82-1.68,1.82-2.89v-1.8l-.09-.05-.6-.36s-.88-.52-.88-.52c-.33-.2-.66-.32-1-.39,1.95-1.12,4.48-2.37,7.57-3.71,1.37-.6,2.93-1.28,2.27-3.14Z"/>
        <path class="cls-8" d="M141.44,117.6c-3.34,1.46-6.05,2.8-8.06,3.99l-.53.31h.61c.47.02.91.16,1.36.42,0,0,.88.52.88.52,0,0,.39.23.52.3v1.6c0,1.08-.58,2-1.64,2.59-.4.22-.98.46-1.73.7h-.01s-.01.01-.01.01c-3.55,1.8-8,5.12-8.84,8.54-.57,2.32-2.2,4-4.46,4.6-5.2,1.39-13.58-3.03-19.18-7.23l-.1-.07-.1.06c-6.4,4.04-11.45,5.91-13.86,6.3h0s-.02,0-.03,0c0,0,0,0,0,0h0c-.7.19-3.66,1.87-6.97,4.24,0,0-.77.6-.77.6,0,0-.73.57-.9.7l-.91-.69c-.32-.24-.59-.45-.79-.62h0c-3.3-2.36-6.26-4.04-6.96-4.22h0c-2.39-.38-7.46-2.25-13.89-6.31l-.1-.06-.1.07c-5.6,4.2-13.98,8.62-19.18,7.23-2.26-.6-3.89-2.28-4.46-4.6-.84-3.42-5.29-6.74-8.84-8.54h-.01s-.01-.01-.01-.01c-.74-.24-1.33-.48-1.73-.7-1.06-.59-1.64-1.51-1.64-2.6,0,0,0-.51,0-.51,0,0,0-.81,0-1.09l1.39-.81c.45-.26.89-.4,1.36-.41h.61s-.53-.33-.53-.33c-2.01-1.19-4.72-2.54-8.06-3.99-1.35-.59-2.63-1.15-2.08-2.71.25-.71,1.01-1.42,2.33-1.06.09.02,8.86,2.32,19.49.1l.26-.05-.15-.22c-.66-.95-1.22-1.8-1.72-2.59-5.86-9.39-8.83-19.55-8.83-30.22,0-6.29,1.04-12.84,3.09-19.46,2.19-7.07,3.68-18.47,3.74-18.95,0,0,.13-1.01.13-1.01l.14-1.1,1.09-.18,1.01-.17h0c1.42-.23,3.56.14,5.72.98l.14.06.07-.14c2.03-3.77,8.65-16.51,8.65-22.12,0-3.04,1.62-4.51,2.58-5.11,3.7-2.31,9.62-.27,17.37,3.51,0,0,.09.05.09.05l.11.05.09-.08c1.08-1,3.55-3.89,7.99-11.93,0,0,1.2-2.17,1.2-2.17l1.3-2.36,1.3,2.36,1.2,2.17h0s0,0,0,0c4.44,8.04,6.91,10.92,7.99,11.93l.09.08.19-.09c7.76-3.78,13.69-5.83,17.39-3.52.97.6,2.58,2.07,2.58,5.11,0,5.61,6.62,18.35,8.65,22.12l.07.14.14-.06c2.16-.85,4.3-1.22,5.72-.98l1.01.17,1.09.18.14,1.1.13,1.01c.06.48,1.55,11.87,3.74,18.95,5.56,17.96,3.63,34.67-5.74,49.68-.49.79-1.06,1.64-1.72,2.59l-.15.22.26.05c10.62,2.22,19.4-.08,19.49-.1,1.32-.36,2.08.35,2.33,1.06.55,1.56-.73,2.12-2.08,2.71Z"/>
      </g>
      <g>
        <g>
          <g>
            <path class="cls-4" d="M127.63,61.83c-2.23-7.2-3.73-18.71-3.79-19.2l-.13-1.01-1.01-.17c-1.61-.26-4.44.55-6.27,1.5-2.04-3.71-9.57-17.82-9.57-24.19,0-2.21-1.02-3.31-1.88-3.85-3.31-2.07-9.62.5-15.95,3.59,0,0-.68.32-1,.47-.6-.3-3.22-2.14-9.22-13.01l-1.2-2.17-1.2,2.17c-6.01,10.87-8.62,12.71-9.22,13.01-.24-.12-1-.47-1-.47-6.33-3.09-12.64-5.66-15.95-3.59-.86.54-1.89,1.64-1.89,3.85,0,6.37-7.53,20.48-9.57,24.19-1.83-.96-4.66-1.77-6.27-1.5l-1.01.17-.13,1.01c-.06.49-1.57,12-3.79,19.2-2.01,6.48-3.02,12.88-3.02,19.02,0,10.38,2.89,20.29,8.6,29.43,11.27,18.06,30.08,27.58,36.02,28.51,1.04.16,4.75,2.46,7.6,4.5,0,0,.82.63.82.63l.8-.61c2.86-2.04,6.58-4.35,7.62-4.51,5.95-.93,24.76-10.45,36.02-28.51,9.12-14.62,11-30.93,5.58-48.45Z"/>
            <g>
              <path class="cls-8" d="M125.76,62.4c-1.98-6.41-3.38-15.96-3.76-18.74l-.04-.33-.33.02c-1.7.13-4.7,1.29-5.22,1.91l-.55.65-.42-.73c-.43-.75-10.54-18.46-10.54-26.43,0-1.62-.75-2.07-.99-2.22-2.56-1.56-9.23,1.37-14.02,3.7-.91.44-1.28.62-1.5.68-1.08.3-3.87-.93-10.48-12.59l-.3-.54-.31.54c-6.61,11.66-9.4,12.89-10.48,12.59-.21-.06-.59-.24-1.5-.68-4.79-2.34-11.46-5.26-14.02-3.7-.24.15-.99.6-.99,2.22,0,7.97-10.11,25.68-10.54,26.43l-.42.73-.55-.65c-.52-.62-3.51-1.78-5.22-1.91l-.33-.02-.04.33c-.38,2.77-1.78,12.32-3.76,18.74-1.95,6.29-2.93,12.49-2.93,18.44,0,10.21,2.89,19.93,8.6,28.89,10.82,16.99,28.97,26.3,34.36,27.14,1.24.19,4.21,1.87,7.92,4.47l.2.14.2-.14c3.71-2.6,6.67-4.27,7.92-4.47,5.4-.84,23.55-10.16,34.36-27.14,5.71-8.96,8.6-18.68,8.6-28.89,0-5.95-.99-12.15-2.93-18.44Z"/>
              <path class="cls-7" d="M125.09,62.61c-1.93-6.22-3.3-15.36-3.74-18.51-1.74.23-4.12,1.29-4.41,1.63l-.87,1.04-.32.39-.25-.44-.67-1.17c-.43-.76-10.63-18.62-10.63-26.77,0-1.22-.49-1.52-.66-1.62-1.68-1.02-6.17.23-13.35,3.74-.99.48-1.35.65-1.61.73-2.25.63-5.84-3.42-10.97-12.38-5.13,8.96-8.72,13.02-10.97,12.38-.27-.08-.62-.25-1.62-.73-7.18-3.5-11.67-4.76-13.35-3.73-.16.1-.66.4-.66,1.62,0,8.15-10.2,26.02-10.63,26.77l-.67,1.17-.25.44-.32-.39-.87-1.04c-.28-.34-2.67-1.39-4.41-1.63-.44,3.15-1.81,12.29-3.74,18.51-1.93,6.22-2.9,12.36-2.9,18.23,0,10.08,2.86,19.67,8.49,28.52,10.7,16.8,28.57,26,33.88,26.83,1.82.28,5.72,2.85,8.01,4.45,2.3-1.6,6.19-4.16,8.01-4.45,5.31-.83,23.18-10.03,33.88-26.83,5.63-8.84,8.49-18.44,8.49-28.52,0-5.88-.98-12.01-2.9-18.23Z"/>
            </g>
            <g>
              <path class="cls-9" d="M77.61,13.2l-1.04,2.16c-2.7,4.81-6.7,9.03-9.11,9.6-1.11.27-2.19.02-3.2-.73-4.05-3.02-7.41-3.45-9.05-3.44h-1.8s-.48,1.72-.48,1.72c-.77,2.73-3.74,12.41-9.76,22.45-1.67,2.79-7.11,13.39-7.11,32.87,0,7.02,1.03,13.49,3.05,19.23,4.59,13.02,14.15,22.4,28.4,27.86,3.91,1.55,7.9,3.98,9.41,5.3h1.37c1.51-1.32,5.5-3.75,9.41-5.3,14.25-5.46,23.81-14.84,28.4-27.86,2.02-5.74,3.05-12.2,3.05-19.23,0-19.48-5.44-30.09-7.11-32.87-6.01-10.04-8.99-19.72-9.76-22.45l-.48-1.71h-1.8c-1.64-.02-5,.41-9.05,3.43-1.01.75-2.08,1-3.2.73-2.41-.57-6.41-4.79-9.11-9.6l-1.04-2.16h0Z"/>
              <path class="cls-8" d="M77.61,15.95c-2.52,4.49-6.72,9.43-9.87,10.18-1.45.35-2.9.02-4.18-.94-3.77-2.81-6.84-3.21-8.33-3.2,0,0-.45,0-.9,0-.12.43-.24.85-.24.85-.78,2.76-3.79,12.57-9.88,22.74-1.63,2.72-6.94,13.08-6.94,32.26,0,6.89,1,13.22,2.98,18.83,4.47,12.68,13.79,21.81,27.71,27.15,3.73,1.48,7.55,3.73,9.4,5.22h.53c1.85-1.49,5.66-3.74,9.38-5.22,13.93-5.34,23.25-14.47,27.72-27.15,1.98-5.61,2.98-11.94,2.98-18.83,0-19.18-5.32-29.54-6.94-32.26-6.09-10.16-9.1-19.97-9.88-22.74,0,0-.12-.43-.24-.85-.45,0-.9,0-.9,0-1.49,0-4.56.39-8.33,3.2-1.28.96-2.73,1.28-4.18.93-3.15-.75-7.35-5.69-9.87-10.18h0s0,0,0,0Z"/>
              <path class="cls-6" d="M77.61,127.68c-2.25-1.97-6.45-3.84-9.22-4.95-13.59-5.21-22.68-14.11-27.03-26.45-2.12-6-2.92-12.35-2.92-18.45,0-18.03,4.75-28.27,6.78-31.67,6.1-10.18,9.12-19.88,10-23.02,1.34,0,4.11.36,7.6,2.97,1.58,1.18,3.37,1.57,5.18,1.14,3.98-.95,7.39-5.17,9.59-9.09h0c2.2,3.92,5.61,8.14,9.59,9.09,1.81.43,3.61.04,5.18-1.14,3.5-2.6,6.26-2.97,7.6-2.97.88,3.13,3.9,12.84,10,23.02,2.04,3.4,6.78,13.63,6.78,31.67,0,6.1-.8,12.45-2.92,18.45-4.35,12.34-13.44,21.24-27.03,26.45-2.77,1.1-6.96,2.97-9.22,4.95"/>
              <g>
                <g>
                  <path class="cls-8" d="M101.31,43.21s-4.44-1.56-6.9-7.11l-1.01-.7-.76.76v63.28l-3.73,2.5V33.45s-4.58-.91-7.72-5.55l-1.02-1.87-.7.89v96.38l1.44-.91c1.95-1.23,4.92-2.73,8.03-2.89,1.43-.09,8.14-3.6,14.81-10.96,5.05-5.57,10.17-17.36,10.17-29.12l-.04-1.54c0-24.03-8.23-30.92-8.23-30.92l-.46.81v43.68l-3.9,2.5v-50.73Z"/>
                  <path class="cls-7" d="M112.71,77.9c0-16.67-4.04-24.9-6.31-28.21v42.4l-6.29,4.02v-52.14c-1.38-.69-4.25-2.5-6.29-6.35v62.44l-6.11,4.1V34.34c-1.53-.51-4.59-1.89-7.05-5.15v91.95c2.06-1.25,5.05-2.67,8.22-2.84,1.15-.11,7.58-3.5,13.99-10.57,4.9-5.4,9.86-16.86,9.86-28.32l-.04-1.51ZM102.45,107.34c-6.56,7.23-12.83,10.3-13.58,10.38-2.87.15-5.59,1.29-7.59,2.4V30.82c2.11,2.26,4.39,3.39,5.86,3.94v70.53l7.3-4.9v-60.67c1.76,2.51,3.78,3.91,5.09,4.62v52.87l7.48-4.78v-40.61c2.27,4.12,5.12,12.08,5.12,26.1l.04,1.5c0,11.31-4.88,22.6-9.71,27.92Z"/>
                </g>
                <g>
                  <path class="cls-9" d="M53.91,43.21s4.44-1.56,6.9-7.11l1.01-.7.76.76v63.28l3.73,2.5V33.45s4.58-.91,7.72-5.55l1.02-1.87.7.89v96.38l-1.44-.91c-1.95-1.23-4.92-2.73-8.03-2.89-1.43-.09-8.14-3.6-14.81-10.96-5.05-5.57-10.17-17.36-10.17-29.12l.04-1.54c0-24.03,8.23-30.92,8.23-30.92l.46.81v43.68l3.9,2.5v-50.73Z"/>
                  <path class="cls-6" d="M67.49,34.34v69.83l-6.11-4.1v-62.44c-2.03,3.85-4.91,5.66-6.29,6.35v52.14l-6.29-4.02v-42.41c-2.27,3.31-6.31,11.53-6.31,28.18l-.04,1.57c0,11.43,4.96,22.89,9.86,28.29,6.41,7.07,12.84,10.46,14.01,10.57,3.15.16,6.14,1.58,8.2,2.84V29.2c-2.46,3.26-5.52,4.63-7.05,5.15Z"/>
                </g>
              </g>
            </g>
          </g>
          <g>
            <path class="cls-9" d="M98.2,69.35c-.11-1-.39-1.61-.89-1.92-.72-.44-1.59-.12-2.69.28-1.01.37-2.26.83-3.71.81-1.98-.03-3.56-.84-4.71-1.44-.93-.48-1.54-.79-2.1-.57-.18.07-.43.24-.56.63-.03.1-.05.21-.05.32,0,.32.13.66.28,1.03.12.32.28.71.28.98,0,.08-.01.15-.04.19-.04.06-.24.26-1.09.28-.03,0-1.7-.28-1.7-.28-4.6-.94-13.85-1.63-18.35.82-.04-.5-.07-.97-.1-1.38l-.02-.37c-.15-2.23-.26-3.85-.67-4.95-.36-.97-1.06-1.7-1.76-2.36,6.2-3.16,12.87-9.86,13.66-12.31v-.04s.16-.85.16-.85v-.06c0-1.05-.52-1.71-.82-2.01-.47-.45-1.49-1.13-3.1-.56-2.34.83-6.65.2-6.69.19l-4.48-.7.1.25s.33.81.38.94c-.25-.02-.64-.05-.64-.05-13.48-.97-17.47,4.33-18.56,6.66-1.17,2.49-.86,5.19.77,6.89,1.94,2.02,3.82,1.63,4.76,1.22,2.44-1.06,3.27-4.32,3.27-5.64v-.18c-.03-.41-.09-.81-.2-1.24.33-.3,1.08-.6,2.09-.82-2.21,6.75-4.41,13.12-5.41,15.67-.38-.07-.85-.21-1.58-.45-1.13-.37-2.33-.91-2.38-.93l-.82-.37.04.9s.02.71-.51,2.56c-1.06,3.75-2.87,7.23-2.95,7.37l-.72,1.36,1.42-.59c.09-.04,9.08-3.71,17.45-.75.96,6.19,3.21,10.11,6.68,11.63.63.28,1.28.46,1.92.56.27.39.39.83.39,1.35,0,2.14-2.33,4.95-3.56,6.13l-1.28,1.23,1.75-.29c10.95-1.85,17.85-.75,20.8-.28,1.6.26,2.09.33,2.38-.14.11-.18.19-.48-.1-.9-2.22-3.18-2.48-5.67-2.61-6.86-.07-.69-.12-1.11-.53-1.3-.17-.08-.44-.12-.79.12-.61.43-2.02.66-2.68.75.11-.4,1.4-5.05,1.4-5.05.96-3.46,1.66-6,1.94-7.03,2.98.43,7.32.78,11.1-.93,2.78-1.25,6.12-5.13,5.85-7.53ZM64.93,79.83s-.01-.24-.01-.24c0-.73.34-1.53.96-2.26.5-.59,2.57-2.37,8.42-.95-.04.11-.45,1.32-.96,2.79-1.37-.9-3.25-1.13-4.54-.06-.48.4-1.01.91-1.51,1.46-.82.3-1.42.35-1.79.12-.18-.11-.34-.26-.5-.45-.03-.15-.06-.29-.07-.41ZM60.62,51.06s.2-.59.35-1.02c.09.33.18.78.18,1.14v.15c-.07.87-.58,1.75-1.52,2.62.26-.75.99-2.9.99-2.9ZM69.04,89.53c.3-.11.59-.23.87-.35-.09.26-.15.44-.16.48-.19-.02-.44-.07-.7-.13Z"/>
            <path class="cls-4" d="M97.65,69.41c-.39-3.51-2.79-.28-6.75-.34-3.96-.06-6.39-3.06-6.85-1.75-.26.74,1.98,3.12-1.19,3.17-.08-.02-1.75-.29-1.75-.29-4.16-.85-13.42-2.21-18.73,1.4-.08-.9-.13-1.74-.18-2.46-.16-2.36-.25-4.08-.66-5.16-.42-1.12-1.38-1.93-2.21-2.69,6.45-3.01,13.38-10.11,14.1-12.34l.13-.76h0c0-.87-.41-1.39-.66-1.63-.38-.36-1.2-.91-2.53-.44-2.5.89-6.92.22-6.96.22l-3.52-.55.19.47.19.47s.04.1.07.17c-.54-.04-1.52-.11-1.52-.11-13.13-.95-16.98,4.12-18.02,6.34-1.07,2.28-.81,4.74.67,6.28,1.71,1.78,3.33,1.45,4.15,1.09,2.07-.9,2.93-3.79,2.93-5.14v-.17c-.03-.5-.12-.92-.23-1.31.04-.13.09-.24.17-.31.53-.51,1.73-.92,3.31-1.16-2.38,7.3-4.88,14.55-5.87,16.99-.5-.04-1.1-.2-2.1-.53-1.2-.39-2.43-.96-2.43-.96,0,0,.05.71-.53,2.74-1.1,3.9-2.99,7.48-2.99,7.48,0,0,9.37-3.93,18.15-.65.9,6.18,3.06,10.07,6.41,11.54.66.29,1.33.47,2,.56,2.48,3.05-3.09,8.39-3.09,8.39,16.58-2.8,23.8,1.08,22.72-.47-3.63-5.2-2.21-8.57-3.17-7.9-1.06.74-3.73.93-3.73.93.07-.36,3.56-12.82,3.66-13.32,2.92.45,7.47.9,11.28-.81,2.66-1.2,5.77-4.84,5.53-6.97ZM55.53,69.43s-.4.2-1.28.31c.03-.1.92-3.02,1.21-4.07.12.36.14.66.14.66,0,0-.06,2.38-.07,3.1ZM60.96,48.39c.14.35.28.7.28.7.12.3.46,1.32.46,2.11v.17c-.13,1.75-1.68,3.16-3.18,4.14.39-1.14,2.07-6.04,2.44-7.12ZM66.91,89.52c1.44-.23,2.81-.78,3.96-1.46-.42,1.23-.71,2.07-.73,2.15-.57.08-1.93-.31-3.23-.69ZM73.61,80.08c-1.19-1.13-3.18-1.61-4.46-.55-.53.44-1.07.97-1.56,1.51-1.55.61-2.17.24-2.38.12-.27-.16-.51-.4-.73-.69-.05-.21-.09-.42-.11-.58-.1-.98.3-2.01,1.07-2.92.97-1.15,3.69-2.56,9.55-.99-.07.22-.65,1.93-1.4,4.1Z"/>
            <path class="cls-7" d="M96.9,69.49c-.09-.83-.28-.95-.28-.96-.18-.11-1.01.19-1.56.4-1.05.39-2.49.91-4.18.89-2.28-.03-4.09-.96-5.29-1.58-.22-.11-.46-.24-.67-.34.02.04.03.08.04.11.16.42.36.94.36,1.46,0,.31-.07.62-.27.91-.38.56-1.09.84-2.19.86h-.07s-1.83-.3-1.83-.3h-.01c-4.1-.84-14.16-2.32-19,1.92-.07.06-.13.12-.19.17-.13-1.27-.23-2.57-.32-3.85l-.02-.37c-.14-2.12-.24-3.66-.59-4.58-.32-.86-1.07-1.54-1.79-2.2l-1.05-.96,1.02-.47c6.43-3,13.03-9.99,13.69-11.86.02-.1.08-.5.1-.61,0-.52-.23-.86-.43-1.04-.31-.3-.86-.59-1.76-.27-2.7.96-7.29.26-7.33.25,0,0-1.17-.18-2.2-.34.02.05.03.08.06.14.12.3.35.86.35.86h0c.05.12.43,1.07.43,1.07.14.36.52,1.48.52,2.39v.03s0,.19,0,.19h0c-.12,1.71-1.3,3.29-3.52,4.73l-1.82,1.18s3.25-9.48,3.31-9.67c-.02,0-.12,0-.12,0l-1.52-.11c-12.67-.91-16.31,3.83-17.29,5.91-.94,1.99-.73,4.13.53,5.44,1.32,1.38,2.53,1.26,3.31.93,1.73-.75,2.48-3.31,2.48-4.45,0,0,0-.1,0-.13-.02-.39-.09-.76-.2-1.14l-.07-.22.07-.22c.06-.17.15-.41.36-.61.81-.78,2.46-1.17,3.71-1.37l1.21-.19-.38,1.16c-2.45,7.51-4.92,14.67-5.89,17.04l-.21.51-.55-.05c-.54-.05-1.16-.2-2.27-.57-.56-.18-1.12-.4-1.57-.58-.08.45-.21,1.06-.44,1.86-.66,2.34-1.58,4.53-2.24,5.96,3.18-.99,10.17-2.57,16.94-.04l.42.15.06.44c.86,5.91,2.87,9.6,5.97,10.96,3.57,1.57,7.58-.41,9.6-2.25-.78,2.27-1.45,4.24-1.5,4.37l-.14.45-.47.07c-.71.09-1.94-.24-3.75-.77-.3-.09-.64-.19-.96-.28.2.46.31.96.31,1.51h0c0,1.98-1.37,4.07-2.51,5.48,9.94-1.42,16.3-.41,19.12.04.14.02.27.04.41.06-1.8-2.92-2.09-5.21-2.22-6.43-1.31.53-3.16.68-3.41.69l-.98.07.19-.96c.03-.17.49-1.84,1.62-5.88.88-3.18,1.98-7.14,2.05-7.44l.15-.69.7.1c2.94.45,7.26.87,10.86-.76,2.47-1.11,5.28-4.54,5.09-6.2ZM56.27,69.9l-.4.2c-.09.04-.56.26-1.52.38l-1.14.14.33-1.09.15-.5c.27-.9.84-2.78,1.06-3.57l.67-2.39.77,2.36c.15.45.18.82.18.9,0,.02-.08,3.56-.08,3.56ZM75.72,76.2c-.09.28-.91,2.68-1.88,5.51-.14-.34-.34-.65-.58-.91-.91-1-2.62-1.52-3.63-.69-.48.4-.99.9-1.48,1.43l-.12.13-.17.06c-1.28.5-2.28.52-3.04.07-.39-.23-.73-.58-1.04-1.03-.07-.3-.13-.59-.16-.81-.01-.13-.02-.25-.02-.38,0-1.04.44-2.13,1.27-3.1.83-.98,3.49-3.06,10.32-1.23l.76.2-.23.75Z"/>
            <path class="cls-8" d="M89.57,70.44c-1.97-.28-2.95-.83-2.95-.83,0,0,1.38,2.73-2.73,2.77-3.86.04-19.68-4.89-22.97,3.87-.82-4.65-.68-10.17-1.27-11.85-1.44-4.05-7.53-3.48-3.7-4.05,6.5-.97,17.53-13.17,14.47-12.08-3.05,1.08-6.72.28-6.72.28,0,0,.69,1.28.59,2.74-.38,5.43-9.2,7.8-9.2,7.8l3.42-10.19c-15.79-1.14-17.61,6.58-15.24,8.87,1.94,1.87,3.35-1.56,3.28-2.72-.06-1.15-.32-1.22-.32-1.22.07-4.1,8.43-3.92,8.43-3.92,0,0-6.28,20.44-7.2,21.37-.71.71-4.32-.45-4.32-.45l-1.74,4.37c6.73-1.95,14.86.09,14.86.09-.04-.4-.14-1-.19-2.35-.07-1.81.02-1.86.02-1.86-2.8.65-4.42.35-4.42.35l2.66-9.46c3.36.81,3.28,4.18,3.28,4.18-1.13,27.67,11.19,21.44,14.11,18.53,2.72-2.71-.51-4.48-1.29-3.83-1.04.86-1.68,1.67-1.68,1.67-2.69,1.39-4.49.91-5.72-.58-.03-.05-.07-.09-.11-.14-.03-.04-.06-.08-.09-.12-.26-.5-1.6-4.15,2.24-7.01,3.26-2.42,10.27-.87,12.2-.44l-6.08,17.5.13.04c-3.57-.24-4.4-.68-4.4-.68.51,2.65-1.61,4.58-1.61,4.58,10.87-1.56,15.86.49,15.55-.1-1.66-3.08-.63-4.43-1.24-4.08-.7.4-4.57.36-4.57.36l4.77-17.05s12.46,3.69,15.84-4.59c.47-1.15-2.23.77-6.11.22Z"/>
            <g>
              <path class="cls-4" d="M42.99,95.22c.1-.13.21-.26.34-.38,0,0,.64-.62.64-.62.4-.37.79-.75,1.17-1.15.42-.43.63-.95.63-1.53,0-.46-.19-.86-.56-1.18-.37-.32-.88-.48-1.5-.48-.52,0-.97.16-1.34.48-.45.39-.68.96-.68,1.71v.11h1.18v-.11c0-.52.14-.91.41-1.14.14-.12.29-.18.47-.18.21,0,.37.06.51.18.19.17.29.37.29.62,0,.43-.22.85-.65,1.25-.43.42-.98.94-1.65,1.56-.42.44-.66.77-.71,1.02h0v.72h4.36v-.87h-2.91Z"/>
              <path class="cls-4" d="M50.59,90.34c-.4-.35-.9-.52-1.5-.52s-1.1.17-1.5.52c-.56.48-.84,1.25-.84,2.3v.7c0,1.02.28,1.78.84,2.26.4.34.9.52,1.5.52s1.1-.18,1.5-.52c.56-.48.84-1.24.84-2.26v-.7c0-1.04-.28-1.82-.84-2.3ZM49.09,95.25c-.21,0-.4-.08-.59-.25-.35-.3-.53-.85-.53-1.63v-.8c0-.8.16-1.35.49-1.63.19-.16.4-.24.63-.24s.44.08.63.24c.32.28.49.83.49,1.63v.8c0,.8-.16,1.35-.49,1.63-.19.16-.4.25-.63.25Z"/>
              <path class="cls-4" d="M56.22,90.34c-.4-.35-.9-.52-1.5-.52s-1.1.17-1.5.52c-.56.48-.84,1.25-.84,2.3v.7c0,1.02.28,1.78.84,2.26.4.34.9.52,1.5.52s1.1-.18,1.5-.52c.56-.48.84-1.24.84-2.26v-.7c0-1.04-.28-1.81-.84-2.3ZM54.72,95.25c-.21,0-.4-.08-.59-.25-.35-.3-.53-.85-.53-1.63v-.8c0-.8.16-1.35.49-1.63.19-.16.4-.24.63-.24s.44.08.63.24c.32.28.49.83.49,1.63v.8c0,.8-.16,1.35-.49,1.63-.19.16-.4.25-.63.25Z"/>
              <path class="cls-4" d="M61.93,93.23c-.17-.14-.35-.25-.53-.32.12-.05.24-.11.33-.2.34-.3.52-.66.52-1.08,0-.54-.19-.97-.56-1.29-.37-.32-.86-.48-1.46-.48s-1.07.15-1.42.45c-.4.34-.6.79-.6,1.32,0,.4.16.74.48,1.01.13.12.26.2.38.26-.19.07-.37.17-.54.32-.34.3-.52.7-.52,1.18s.2.91.6,1.26c.37.32.92.48,1.62.48s1.25-.16,1.62-.48c.4-.34.6-.77.6-1.26s-.17-.89-.52-1.18ZM59.64,90.91c.16-.14.36-.21.59-.21s.43.07.59.21c.19.16.29.41.29.73s-.1.56-.29.73c-.13.12-.35.18-.63.18-.21,0-.39-.07-.55-.21-.19-.17-.29-.39-.29-.69,0-.32.1-.56.29-.73ZM60.94,95.07c-.19.16-.42.24-.71.24s-.52-.08-.71-.24c-.22-.19-.33-.44-.33-.76s.1-.56.29-.73c.19-.16.44-.25.75-.25s.55.07.71.21c.22.19.33.44.33.76s-.11.57-.33.76Z"/>
            </g>
          </g>
        </g>
        <g>
          <g>
            <path class="cls-4" d="M142.53,115.24c-.1-.29-.37-.59-1.06-.4-.15.04-14.66,3.86-29.18-2.93-13.69-6.4-34.47-6.72-34.67-6.72-.22,0-21,.32-34.69,6.72-14.53,6.79-29.04,2.97-29.18,2.93-.7-.19-.96.11-1.06.4-.23.64.11.78,1.51,1.4,2.76,1.2,11.16,4.87,12.66,7.87,2.81,5.6,23.73-4.35,26.1-5.51,5.2-2.53,11.83-5.22,24.65-5.22s19.45,2.7,24.65,5.22c2.38,1.15,23.29,11.11,26.1,5.51,1.5-3,9.9-6.67,12.66-7.87,1.4-.61,1.74-.76,1.51-1.4Z"/>
            <path class="cls-9" d="M127.11,123.89c-1.55,3.09-15.39-1.83-24.25-6.13-5.34-2.6-12.14-5.36-25.26-5.36s-19.92,2.77-25.26,5.36c-8.86,4.3-22.7,9.23-24.25,6.13-1.19-2.38-5.33-4.78-9.65-6.84,5.69.61,15.38.67,25.07-3.86,13.42-6.28,33.89-6.59,34.1-6.59.19,0,20.67.32,34.08,6.59,9.69,4.53,19.38,4.48,25.07,3.86-4.32,2.06-8.46,4.47-9.65,6.84Z"/>
          </g>
          <g>
            <path class="cls-4" d="M47.25,117.59c-10.06,9.58-21.05,6.84-23.15,6.2l.13.05c-1.83-.91-2.49-1.1-3.32-.6,0,0-.44.26-.44.26l-.43.25v.5s0,.51,0,.51c0,.71.37,1.27,1.1,1.67.47.26,1.19.51,1.71.68l-.13-.05c3.99,1.99,8.58,5.48,9.52,9.29.48,1.97,1.8,3.33,3.71,3.84,6.03,1.61,17.4-5.68,21.81-10.04,5.37-5.31,10.56-8.6,19.84-8.6s14.48,3.29,19.84,8.6c4.41,4.36,15.78,11.65,21.81,10.04,1.91-.51,3.23-1.87,3.71-3.84.94-3.81,5.53-7.3,9.52-9.29l-.13.05c.52-.17,1.24-.42,1.71-.68.73-.4,1.1-.97,1.1-1.67v-1l-.43-.25-.45-.27c-.83-.49-1.49-.3-3.32.6l.13-.05c-2.1.65-13.08,3.38-23.15-6.2-11.99-11.41-29.57-11.95-30.31-11.96-.78.02-18.39.53-30.4,11.96Z"/>
            <path class="cls-8" d="M48.23,118.57h0c-10.65,10.13-22.3,7.22-24.59,6.51-1.71-.85-1.86-.77-2.01-.67l-.19.12v.23c0,.26.21.37.39.48.31.17.86.39,1.52.59,2.1,1.05,8.94,4.84,10.26,10.2.36,1.48,1.26,2.43,2.65,2.82,5.18,1.46,16.22-5.43,20.5-9.66,4.41-4.36,10.01-9.01,20.84-9.01s16.44,4.65,20.84,9.01c4.29,4.24,15.32,11.12,20.5,9.66,1.4-.39,2.29-1.34,2.65-2.82,1.32-5.36,8.16-9.15,10.26-10.2.66-.21,1.21-.42,1.52-.59.18-.1.39-.22.39-.48v-.22l-.19-.12c-.16-.1-.3-.18-2.01.67-2.29.71-13.94,3.62-24.59-6.51-11.58-11.03-29.19-11.57-29.37-11.58-.2,0-17.8.55-29.39,11.58Z"/>
            <path class="cls-7" d="M48.64,119h0c-9.33,8.88-19.43,7.95-23.6,7.06,2.9,1.65,7.99,5.14,9.14,9.82.31,1.27,1.04,2.05,2.24,2.39,4.89,1.38,15.83-5.47,19.92-9.51,4.49-4.44,10.21-9.18,21.26-9.18s16.77,4.74,21.26,9.18c4.09,4.04,15.03,10.89,19.92,9.51,1.19-.34,1.92-1.12,2.24-2.39,1.15-4.69,6.25-8.18,9.14-9.83-4.16.9-14.27,1.82-23.6-7.05-11.39-10.84-28.8-11.41-28.97-11.41-.15,0-17.54.54-28.96,11.41Z"/>
            <g>
              <path class="cls-5" d="M46.15,132.45l-.07-.12-.11.07c-.1.06-.2.13-.51-.07,0,0-2.73-1.68-3.18-1.95l.15-2.46c.02-.26.03-.48.31-.66,0,0,.13-.08.13-.08l.11-.07-.06-.11-.16-.27-.07-.12-.11.07-1.5.93-.11.07.06.11.16.27.07.12.11-.07.27-.17c.05-.03.1-.05.13-.04,0,0,.02,0,.05.04.03.06.05.11.04.2,0,0-.12,2.09-.18,3.01l-1.25-2.13c-.14-.24-.11-.26.17-.44l.11-.07s-.06-.11-.06-.11l-.16-.27-.07-.12-.11.07-1.43.89-.11.07.06.11.16.27.07.12.11-.07c.13-.08.24-.15.29-.13.03,0,.08.04.16.18,0,0,2.77,4.74,2.77,4.74.15.25.12.27-.17.45l-.11.07.06.11.15.26.07.12.11-.07,1.43-.89.11-.07-.06-.11-.15-.26-.07-.12-.11.07c-.12.08-.23.14-.28.13-.03,0-.08-.05-.16-.19,0,0-.89-1.52-1.03-1.76l.03-.53,2.29,1.41s.09.06.13.12c.07.13,0,.2-.05.23,0,0-.17.1-.17.1l-.11.07.06.11.15.26.07.12.11-.07,1.54-.96.11-.07-.06-.11-.15-.26Z"/>
              <path class="cls-5" d="M50.98,128.82l-.08-.1-.1.09c-.19.16-.24.21-.44.04,0,0-5.01-4.16-5.01-4.16l-.1-.09-.08.11-.4.52-.05.06.03.07,2.83,5.95c.09.19.02.25-.14.4l-.1.08.08.1.19.24.08.1.1-.09,1.12-.96.1-.08-.08-.1-.19-.24-.08-.1-.1.09-.21.19s-.1.06-.17.05c-.05,0-.1-.03-.13-.08-.05-.06-.05-.07-.13-.23,0,0-.47-1-.62-1.3l1.07-.92,1.04.86s.08.07.08.07c.08.06.14.11.19.18.05.06.1.15.03.21,0,0-.14.12-.14.12l-.1.08.08.1.19.24.08.1.1-.09,1.27-1.09.1-.08-.08-.1-.19-.24ZM45.84,126.38l2.05,1.7-.88.75-1.17-2.46Z"/>
              <path class="cls-5" d="M54.46,125.65l-.08-.1-.1.09-.23.2c-.09.08-.17.11-.23.1-.08,0-.18-.07-.28-.2,0,0-3.33-4.11-3.33-4.11-.15-.19-.11-.37,0-.46,0,0,.15-.13.15-.13.17-.14.66-.11,1.56.4l.12.07.06-.12.14-.27.05-.1-.1-.06-1.4-.91-.08-.05-.07.06-2.75,2.36-.07.06.03.09.62,1.58.04.11.12-.04.28-.09.12-.04-.04-.12v-.04c-.18-.54-.27-.84-.23-1.21.03-.33.09-.38.13-.41,0,0,.15-.13.15-.13.05-.05.12-.07.19-.06.09,0,.17.06.24.14,0,0,3.33,4.11,3.33,4.11.22.27.16.4,0,.55,0,0-.23.2-.23.2l-.1.08.08.1.19.24.08.1.1-.09,1.7-1.46.1-.08-.08-.1-.19-.24Z"/>
              <path class="cls-5" d="M59.64,121.71l-.07-.11-.11.07c-.21.14-.26.17-.45-.02,0,0-4.48-4.77-4.48-4.77l-.09-.1-.1.1-.46.47-.06.06.03.08,2.11,6.27c.07.2,0,.25-.19.37l-.11.07.07.11.16.26.07.11.11-.07,1.22-.81.11-.07-.07-.11-.16-.26-.07-.11-.11.07-.24.16s-.11.05-.18.03c-.05-.01-.09-.04-.13-.1-.04-.06-.05-.07-.1-.25,0,0-.35-1.05-.46-1.37l1.16-.77.93.99s.07.07.07.07c.07.07.12.13.17.21.06.1.06.17,0,.21,0,0-.16.1-.16.1l-.11.07.07.11.16.26.07.11.11-.07,1.39-.92.11-.07-.07-.11-.16-.26ZM54.84,118.63l1.83,1.95-.96.64-.87-2.59Z"/>
              <path class="cls-5" d="M64.36,117.59l-.02-.12-.12.02-.23.03-.12.02v.12c.03.49.02.79-.1,1.06-.26.63-.5.92-.98,1.16,0,0-.37.18-.37.18-.11.05-.2.07-.28.04-.09-.03-.17-.13-.25-.29l-2.26-4.86c-.12-.26-.09-.27.21-.42l.11-.06-.05-.12-.13-.29-.06-.12-.12.06-1.51.74-.11.06.05.12.13.29.06.12.12-.06c.13-.06.25-.12.3-.1.03.01.08.05.14.19l2.32,5.01c.12.27.1.28-.21.43l-.11.06.05.12.13.28.06.12.12-.06,3.46-1.7.09-.04-.02-.1-.31-1.88Z"/>
              <path class="cls-5" d="M69.55,115.82h-.12s-.02.11-.02.11c-.07.5-.13.78-.29,1.03-.36.57-.66.82-1.17.96,0,0-.4.11-.4.11-.12.03-.21.03-.28-.01-.08-.05-.15-.16-.19-.33,0,0-1.36-5.2-1.36-5.2-.07-.27-.05-.28.28-.37l.12-.03-.03-.12-.08-.31-.03-.13-.13.04-1.62.45-.12.03.03.12.08.31.03.13.13-.04c.14-.04.26-.07.31-.05.03.02.07.07.11.22l1.4,5.36c.07.28.05.29-.28.38l-.12.03.03.12.08.3.03.13.13-.04,3.71-1.03.09-.03v-.1s.02-1.9.02-1.9v-.12s-.12,0-.12,0h-.24Z"/>
              <path class="cls-5" d="M75.44,115.12l-.13-.03-.03.13c-.14.59-.24.84-.4,1.03-.4.49-.72.69-1.2.74l-.65.08c-.09.01-.16,0-.2-.04-.05-.04-.08-.11-.09-.22,0,0-.23-2.11-.29-2.66l1.11-.13c.13-.02.22.03.27.08.09.07.15.18.16.29,0,0,.08.7.08.7v.13s.14-.01.14-.01l.3-.03h.13s-.01-.14-.01-.14l-.3-2.73v-.13s-.14.02-.14.02l-.3.04-.13.02v.13s.09.68.09.68c.03.26-.16.4-.35.42,0,0-.79.09-1.11.13l-.25-2.29c-.02-.21.04-.29.23-.31,0,0,.88-.1.88-.1.84-.1,1.25.55,1.48,1.04l.06.14.13-.08.24-.16.08-.06-.03-.1-.5-1.43-.03-.1h-.1s-3.83.46-3.83.46l-.13.02v.13s.05.31.05.31v.13s.14-.02.14-.02c.15-.02.27-.03.32,0,.02.02.06.08.07.23,0,0,.6,5.51.6,5.51.03.29,0,.29-.33.33l-.13.02v.13s.05.3.05.3v.13s.14-.02.14-.02l3.99-.46h.1s0-.12,0-.12l.18-1.9v-.11s-.1-.03-.1-.03l-.28-.06Z"/>
              <path class="cls-5" d="M81.16,116.66s-.72-2.19-.9-2.74c.43-.14,1.3-.52,1.33-1.73.03-1.35-1.06-1.98-2.16-2l-2.06-.05h-.13s0,.13,0,.13v.32s-.01.13-.01.13h.13c.13,0,.24,0,.28.05.02.02.05.09.05.25l-.12,5.55c0,.17-.03.23-.06.25-.04.04-.15.04-.27.03h-.13s0,.13,0,.13v.31s-.01.13-.01.13h.13s1.64.04,1.64.04h.13s0-.13,0-.13v-.31s.01-.13.01-.13h-.13c-.29-.01-.34-.01-.33-.3,0,0,.04-2.03.06-2.57l.72.02,1.04,3.36.03.09h.09s1.1.03,1.1.03h.13s0-.13,0-.13v-.31s0-.13,0-.13h-.13c-.21,0-.33-.01-.41-.28ZM78.65,111.02c0-.26.06-.28.23-.28,0,0,.52.01.52.01.77.02,1.15.47,1.14,1.34-.01.47-.15.85-.39,1.08-.2.19-.47.29-.78.28,0,0-.52-.01-.77-.02l.05-2.41Z"/>
              <path class="cls-5" d="M89.1,111.79l-.09-.03-.06.08-.96,1.39-.07.1.09.08.22.2.1.09.09-.1h0c.36-.45.56-.69.89-.87.28-.15.35-.12.4-.11,0,0,.19.06.19.06.16.05.22.23.16.42,0,0-1.59,5.1-1.59,5.1-.05.16-.11.26-.19.3-.06.03-.14.03-.25,0,0,0-.28-.09-.28-.09l-.13-.04-.04.13-.09.29-.04.12.12.04,2.11.7.13.04.04-.13.09-.29.04-.12-.12-.04-.28-.09c-.2-.07-.3-.17-.2-.5,0,0,1.59-5.1,1.59-5.1.03-.11.09-.19.17-.23.06-.03.13-.04.2-.01,0,0,.19.06.19.06.21.07.45.52.51,1.57v.13s.14-.01.14-.01l.29-.02h.12s0-.13,0-.13v-1.7s0-.09,0-.09l-.09-.03-3.41-1.13Z"/>
              <path class="cls-5" d="M96.86,114.71c-.43-.22-.87-.25-1.32-.09-1.22.42-2.06,2.08-2.22,2.4-.4.83-1.54,3.62.28,4.54.42.21.87.24,1.33.09.83-.28,1.61-1.16,2.26-2.53,1-2.11.87-3.8-.33-4.4ZM94.21,117.62c.66-1.38,1.36-2.28,1.92-2.48.18-.06.35-.05.5.03.65.33.51,1.59-.38,3.48-.65,1.38-1.35,2.28-1.92,2.47-.18.06-.35.05-.51-.03-.65-.33-.51-1.59.38-3.47Z"/>
              <path class="cls-5" d="M99.41,124.27c-.24-.17-.26-.35-.06-.64,0,0,.94-1.42,1.05-1.58l2.72-2.18c.18-.15.36-.14.58.01l.11.08.07-.11.17-.26.07-.11-.1-.07-1.12-.78-.11-.08-.07.11-.17.26-.07.11.1.07c.22.15.23.22.18.3-.05.07-.1.13-.17.19,0,0-1.37,1.1-1.98,1.58l.55-2.63c.03-.15.04-.19.08-.24.02-.03.04-.04.05-.04.08-.01.22.09.29.14l.11.08.07-.11.17-.26.07-.11-.1-.07-1.49-1.04-.11-.08-.07.11-.17.26-.07.11.1.07c.16.11.29.2.18.78,0,0-.66,3.16-.72,3.45l-.99,1.5c-.11.16-.21.25-.31.27-.08.01-.17-.01-.27-.09,0,0-.37-.26-.37-.26l-.11-.08-.07.11-.17.25-.07.11.1.07,2.12,1.49.11.08.07-.11.17-.25.07-.11-.1-.07-.32-.22Z"/>
              <path class="cls-5" d="M104.31,128.19s3.34-5.67,3.34-5.67l.07-.11-.11-.07-.56-.34-.07-.04-.07.05-5.34,3.69c-.16.11-.23.06-.39-.09l-.1-.09-.09.1-.2.23-.08.09.09.09,1.07,1.01.1.09.09-.1.2-.23.08-.09-.09-.09-.21-.19c-.05-.05-.13-.2-.02-.33.05-.06.06-.07.21-.17,0,0,.88-.61,1.16-.81l1.02.97-.7,1.18s-.04.07-.04.07c-.06.1-.1.17-.16.24-.04.05-.09.08-.13.08,0,0-.03,0-.06-.03,0,0-.14-.13-.14-.13l-.1-.09-.09.1-.2.23-.08.09.09.09,1.22,1.15.1.09.09-.1.2-.23.08-.09-.09-.09c-.18-.17-.23-.22-.1-.46ZM104.71,125.59l-.84-.8,2.21-1.53-1.37,2.32Z"/>
              <path class="cls-5" d="M109.44,132.35s3.2-4.45,3.2-4.45c.09-.13.15-.16.18-.16.05,0,.12.05.21.11l.11.08.08-.11.18-.26.07-.1-.1-.08-1.06-.81-.09-.07-.08.08-2.96,2.78h0s1.78-3.69,1.78-3.69l.05-.1-.08-.06-1.09-.84-.11-.08-.08.11-.18.25-.07.1.1.08c.21.16.25.19.09.42,0,0-3.2,4.46-3.2,4.46-.09.13-.15.16-.18.16-.05,0-.13-.05-.23-.12l-.11-.08-.08.11-.18.25-.07.1.1.08,1.03.78.11.08.08-.11.18-.25.07-.1-.1-.08-.15-.11c-.14-.11-.16-.17-.01-.38,0,0,1.53-2.13,2.54-3.53l-2.26,4.69-.05.1.09.06.14.1.09.07.08-.08,3.85-3.63-2.62,3.64c-.07.09-.13.15-.18.16-.07.01-.18-.07-.3-.17l-.11-.08-.08.11-.18.25-.07.1.1.08,1.3,1,.11.08.08-.11.18-.25.07-.1-.1-.08c-.18-.14-.23-.18-.06-.41Z"/>
              <path class="cls-5" d="M116.41,128.91l.03-.13-.13-.03-.63-.15-.08-.02-.05.07-3.97,5.22c-.12.16-.2.13-.4.04l-.12-.06s-.05.12-.05.12l-.12.28-.05.12.12.05,1.32.62.12.06.05-.12.12-.28.05-.12-.12-.05-.25-.12s-.19-.13-.12-.3c.03-.07.04-.08.15-.22,0,0,.66-.87.86-1.14l1.26.59-.31,1.34s-.02.09-.02.09c-.02.1-.04.19-.08.27-.03.06-.07.11-.1.12,0,0-.03,0-.06,0,0,0-.17-.08-.17-.08l-.12-.06-.05.12-.12.28-.05.12.11.05,1.5.7.12.06.05-.12.12-.28.05-.12-.12-.05c-.22-.1-.29-.13-.23-.4,0,0,1.47-6.46,1.47-6.46ZM115.14,130.13l-.6,2.64-1.04-.49,1.64-2.15Z"/>
            </g>
          </g>
        </g>
      </g>
    </g>
  </g>
</svg>