<?xml version="1.0" encoding="UTF-8"?>
<svg id="_レイヤー_2" data-name="レイヤー 2" xmlns="http://www.w3.org/2000/svg" xmlns:xlink="http://www.w3.org/1999/xlink" viewBox="0 0 426.45 446.13">
  <defs>
    <style>
      .cls-1 {
        fill: none;
      }

      .cls-2 {
        fill: #221815;
      }

      .cls-3 {
        fill: #ffe100;
      }

      .cls-4 {
        fill: #fabd00;
      }

      .cls-5 {
        fill: #ed6f1f;
      }

      .cls-6 {
        fill: #b07120;
      }

      .cls-7 {
        fill: #fff;
      }

      .cls-8 {
        fill: #eb5e00;
      }

      .cls-9 {
        fill: #cfc7b8;
      }

      .cls-10 {
        clip-path: url(#clippath);
      }
    </style>
    <clipPath id="clippath">
      <path class="cls-1" d="M390.94,221.15c.07-12.48-5.34-22.53-15.6-29.03-.69-.44-1.39-.87-2.1-1.27-.77-.43-1.55-.85-2.34-1.22-11.64-5.67-23.69-4.48-34.15-2.53-5.83,1.33-9.45,2.5-11.74,3.46-1.46-1.46-3.03-2.84-4.74-4.07-.97-.67-6.37-4.22-14.15-5.76-.48-2.22-.98-3.96-1.26-4.88-.01-.05-.23-.79-.25-.84-1.29-3.88-4.26-11.63-9.68-19.89-6.8-10.34-15.02-17.72-24.49-21.96-15.15-6.65-29.01-3.93-42.64,8.55-6.19,6.4-11.53,14.18-15.87,23.1-.54,1.12-4.52,10.56-4.96,11.86-1.56,4.27-6.56,19.27-5.14,33.03.89,10.47,5.87,20.97,13,27.42.12.11.54.44.67.53,7.94,6.03,16.67,9.07,25.99,9.07,1.13,0,2.27-.05,3.42-.13,12.05-.93,21.23-4.61,21.51-4.72,1.18-.45,2.22-.93,3.33-1.4,3.32,4.59,7.6,8.48,12.65,11.05,6.29,3.17,11.23,4.29,15.81,4.29.67,0,1.31-.14,1.97-.18.25.54.51,1.09.92,1.73,9.83,18.52,24.19,24.87,33.25,24.47.58.03,1.17.05,1.76.05,15.78,0,33.72-11.18,44.46-28.18l.53-.88c3.53-5.77,8.87-14.5,9.85-31.67Z"/>
    </clipPath>
  </defs>
  <g id="_レイヤー_1-2" data-name="レイヤー 1">
    <g>
      <path class="cls-8" d="M426.45,228.62c0,117.76-84.41,196.43-213.22,196.43S0,346.38,0,228.62,95.46,15.39,213.22,15.39s213.22,95.46,213.22,213.22Z"/>
      <g>
        <g>
          <g>
            <path class="cls-2" d="M419.51,297.17c-1.3-.72-2.84-1.24-3.8-1.44-6.81-1.4-13.64-2.18-20.31-2.33-3.7-.09-7.16,0-10.49.16-1.79-20.11-8.09-39.31-19.27-58.27,1.62-9.72,2.12-22.36,2.53-32.66l.21-5.17c.84-18.75-5.88-43.26-14.38-52.46-2.12-2.29-5.31-4.04-8.13-4.45-21.54-3.21-49.87,5.34-81.73,24.67l-4-.59c-26.18-3.9-58.77-8.75-103.06,1.53-1.4.32-2.95.78-4.54,1.26-2.37.71-6.76,1.98-7.92,1.68-8.49-4.64-30.28-15.71-49.14-18.5-17.53-2.61-29.09.83-34.52,10.31-15.37,28.86-7.65,69.07-4.44,79.47-16,31.01-15.69,63.87-15.6,67.47-.01.84.03,1.72.04,2.58-.84.06-1.6.09-2.48.16-8.93.71-17.8,1.58-28.07,4.44-3.34.92-6.41,3.14-5.81,5.59.47,1.92,2.84,2.34,4.83,2.34,1.54,0,2.85-.25,2.89-.26,10.63-2.17,16.02-2.75,23.47-3.55l3.14-.34c.81-.09,1.61-.13,2.42-.2.81,9.68,2.85,19.99,6.48,30.18-4.44,1.67-9.56,3.89-15.71,7.07-.04.02-3.98,2.08-4.74,4.62-.23.78-.15,1.56.23,2.24.62,1.11,1.92,1.46,3.31,1.46,2.3,0,4.82-.95,4.86-.96,1.84-.81,3.57-1.58,5.21-2.31,3.72-1.66,6.96-3.05,10-4.23,3.93,8.9,9.09,17.53,15.73,25.34-6.84,3.96-15.09,9.33-24.43,16.6-1.94,1.52-3.19,3.45-3.41,5.32-.12,1.04.11,1.99.65,2.67.41.51,1.18.73,2.1.73,1.62,0,3.71-.68,5.14-1.7,10.26-7.27,19.16-12.89,26.15-17.04,7.51,7.31,16.5,13.67,27.22,18.49,35.27,15.84,67.77,19.4,108.95,20l4.04-.06,4.36.06c47.38-.7,84.81-7.46,111.26-20.11,15.35-7.34,27.56-17.24,36.7-29.54,7.64,2.61,16.9,6.62,25.83,12.66,1.14.79,3.45,2.17,5.5,2.17.92,0,1.79-.27,2.47-1.01.29-.3.61-.85.53-1.73-.17-1.86-2.23-4.46-3.56-5.43-9.12-6.66-18.29-10.95-26.01-13.74,5.25-8.67,9.17-18.37,11.72-29.12,5.64.9,12.22,2.35,19.44,4.77.04,0,2.17.71,4.26.71,1.57,0,3.11-.39,3.7-1.78.27-.63.26-1.33-.03-2.02-1.04-2.48-5.39-4.32-5.43-4.33-7.12-2.82-14.12-4.47-20.31-5.49,1.35-8.14,2.01-16.8,1.93-26,.02-1.57-.07-3.12-.1-4.67,2.94-.16,5.97-.26,9.16-.22,4.96.05,10.48.42,15.35.74,1.52.1,2.99.19,4.4.28,3.19.18,7.1-.41,7.57-2.73.17-.81-.11-2.03-2.36-3.29Z"/>
            <path class="cls-7" d="M354.53,235.3c1.76-9.13,2.29-22.42,2.71-33.11l.22-5.23c.76-16.97-5.67-38.25-11.49-44.55-.51-.56-1.4-.99-1.72-1.06-18.78-2.76-45.27,5.51-74.57,23.31-2.08,1.26-3.22,1.95-5.23,1.65l-5.91-.87c-25.25-3.76-56.69-8.45-98.98,1.36-1.2.27-2.52.68-3.88,1.08-5.38,1.6-11.46,3.43-16.3.79-7.98-4.35-28.38-14.75-45.5-17.28-12.59-1.85-20.45-.25-23.34,4.78-10.47,19.65-8.42,46.45-5.73,61.45.72-.85,1.42-1.62,2.07-2.27,2.63-2.63,5.32-3.6,7.16-2.33,1.91,1.32,1.15,4.66-.08,7.33-1.22,2.65-3.69,7.76-5.63,11.18,0,0,0,.01,0,.02-16.85,29.6-16.54,62.53-16.45,66.2,0,.74.03,1.51.04,2.26,9.31.02,14.99,1,17.89,1.74l.21.05c.06.01,7.62,1.41,7.18,5.04-.39,3.23-4.98,2.99-7.2,2.87l-.82-.06c-2.44-.37-8.96-1.24-16.85-1.4.79,8.79,2.71,18.09,6.01,27.25,4.52-1.04,7.71-1.28,9.83-1.4l.29-.02c2.79-.15,9.39-.25,9.73,3.07.3,2.87-4.87,4.24-7.11,4.7-1.04.21-2.16.36-3.41.53-1.75.24-3.74.52-6.09,1.02,3.77,8.24,8.76,16.15,15.14,23.24,6.63-3.22,10.45-4.39,10.53-4.42.06-.03,6.57-1.68,7.84,1.28,1.09,2.56-1.67,3.92-4.33,5.24-.85.42-1.74.86-2.55,1.35,0,0-.09.05-.26.13-1.03.51-2.75,1.4-5.02,2.62,6.17,5.56,13.32,10.43,21.71,14.2,33.54,15.07,64.84,18.45,104.45,19.04l4.04-.06,4.36.06c44.98-.67,81.88-7.25,106.54-19.04,12.36-5.91,22.38-13.54,30.17-22.9-3.71-.86-5.98-1.18-6.04-1.19-1.42-.14-5.85-1.17-7.34-3.19-.44-.61-.61-1.28-.47-1.94.75-3.62,7.32-2.9,10.09-2.43.35.03,3.75.38,9.03,1.65,5.2-7.94,9.03-16.98,11.53-27.1-2.33-.14-4.2-.17-5.48-.17-2.44.01-5.28-.05-5.28-.05-.74-.07-6.59-.76-6.82-3.68-.03-.39.05-1,.6-1.64,1.31-1.53,4.62-2.39,6.03-2.5l.31-.03c.84-.08,3.07-.3,5.31-.32h.61c1.62,0,3.81.05,6.42.22,1.29-7.68,1.93-15.9,1.86-24.75.01-1.24-.06-2.46-.09-3.69-6.85.85-12.47,1.97-16.3,2.74-1.96.39-3.38.68-4.24.78-1.38.2-2.56.3-3.55.3-2.31,0-3.58-.56-4-1.72-.29-.84-.23-1.74.18-2.59.74-1.52,2.53-2.81,5.19-3.71,2.09-.71,10.2-3.2,22.24-4.68-1.72-19.08-7.86-37.28-18.78-55.31-.7-1.16-.95-2.54-.69-3.87Z"/>
          </g>
          <g>
            <path class="cls-2" d="M115.31,316.98c-3.5,7.1-3.52,18.45,1.21,24.48,2.92,3.45,7.8,5.41,14.09,4.33,5.43-.94,8.52-5.9,9.55-9.85,2.23-8.84-.14-19.68-5.23-23.79-5.36-3.91-15.39-3.82-19.61,4.83Z"/>
            <path class="cls-2" d="M285.41,318.02c-3.5,7.1-3.52,18.45,1.21,24.48,2.92,3.45,7.8,5.41,14.09,4.33,5.43-.94,8.52-5.9,9.55-9.85,2.23-8.84-.14-19.68-5.23-23.79-5.36-3.91-15.39-3.82-19.61,4.83Z"/>
            <g>
              <path class="cls-2" d="M230.45,348.73c-1.17-4.16-4.32-7.43-8.44-8.76-7.86-2.55-15.82-1.48-20.77,2.79-5.16,4.56-5.41,12.65-2.19,16.84,2.99,3.87,7.72,5.9,14.48,6.2.31.01.63.02.94.02,5.41,0,10.44-1.98,13.31-5.27v-.02c2.83-3.28,3.82-7.69,2.67-11.81Z"/>
              <path class="cls-3" d="M219.91,346.48c-2.1-.68-4.24-1.01-6.25-1.01-3.19,0-6.05.84-7.91,2.45-2.45,2.17-2.29,6.18-1.26,7.52,1.68,2.18,4.74,3.34,9.35,3.54,4.27.17,7.46-1.38,8.79-2.9,1.34-1.56,1.79-3.55,1.24-5.49-.54-1.94-2.02-3.48-3.96-4.11Z"/>
            </g>
          </g>
        </g>
        <g>
          <g>
            <path class="cls-2" d="M174.31,406.81c-1.48-4.63-4.48-8.3-7.74-11.99-11.57-11.1-31.77-15.56-47.81-10.64-11.58,3.03-24.94,13.2-26.89,28.3-1.79,11.76,2.42,22.06,11.65,27.76,9.31,4.78,19.42,4.67,29.7-.17.87-.33,1.3-.24,3.57.72,1.42.61,3.17,1.34,5.28,1.7,3.57,1.03,6.76,1.46,9.57,1.46,7.46,0,12.38-3.02,15.44-6.04,7.97-7.84,10.94-20.61,7.23-31.1Z"/>
            <path class="cls-7" d="M163.98,410.4c-.03-.07-.05-.13-.07-.2-.84-2.65-3.05-5.31-5.25-7.82-8.41-8.05-24.41-11.47-36.92-7.67-8.41,2.21-17.79,9.67-19.04,19.29-.55,3.62-1.01,12.25,6.19,16.72,5.93,3.02,12.4,2.87,20-.7,1.9-.75,3.63-1.02,5.19-1.02,2.92,0,5.24.98,6.98,1.72,1.12.47,2.08.88,2.97,1.01.27.04.53.09.78.17,6.51,1.94,11.44,1.34,14.59-1.78,4.91-4.82,6.87-13.3,4.58-19.71Z"/>
          </g>
          <g>
            <path class="cls-2" d="M338.19,414.77c-1.98-15.21-15.33-25.39-26.69-28.34-16.27-4.97-36.47-.53-48.34,10.91-2.82,3.2-5.95,7-7.44,11.65-3.71,10.49-.74,23.27,7.22,31.1,3.07,3.03,8,6.05,15.45,6.05,2.81,0,5.99-.43,9.57-1.46,2.11-.36,3.86-1.1,5.28-1.7,2.29-.98,2.71-1.06,3.23-.88,10.61,5,20.73,5.1,30.44.1,8.83-5.48,13.04-15.78,11.27-27.43Z"/>
            <path class="cls-7" d="M327.35,416.3c-1.27-9.74-10.64-17.21-18.84-19.34-3.53-1.08-7.32-1.6-11.13-1.6-9.92,0-20.02,3.48-26.32,9.53-1.88,2.17-4.1,4.83-4.94,7.48-.02.07-.04.13-.07.2-2.29,6.41-.33,14.89,4.56,19.7,3.17,3.11,8.06,3.72,14.6,1.78.25-.07.51-.13.78-.17.89-.13,1.85-.53,2.97-1.01,2.67-1.14,6.69-2.83,11.82-.85,7.93,3.73,14.41,3.88,20.73.64,6.81-4.24,6.35-12.88,5.82-16.38Z"/>
          </g>
        </g>
        <g>
          <g class="cls-10">
            <rect class="cls-4" x="203.16" y="158.5" width="184.74" height="105.06" transform="translate(116.87 -105.12) rotate(25)"/>
            <path class="cls-8" d="M363.5,187.15l-88.57-41.3c-.29,2.62-.78,6.17-1.56,10.01-.19.92-.54,3.62-1.03,7.63-11.96-8.08-12.47-13.2-12.47-13.2,0,0-.45,7.98-2.35,17.33-1.91,9.36-2.82,18.35-2.82,18.35,0,0-.85-.81-4.6-4.19-3.74-3.39-7.66-7.26-7.66-7.26l-4.57,39.65s-.85-.79-5.79-5.15c-4.95-4.35-9.58-10.2-9.58-10.2,0,0-.67,5.83-1.14,19.13-.46,13.3-.35,30.57-.35,30.57l-13.82-10.27-8.2-7.66-.87,13,2.68,13.45,125.82,58.67,11.38-6.89,9.41-9.02-11.14-1.36-16.75-3.98s13.3-11.02,23.19-19.92c9.89-8.91,13.92-13.17,13.92-13.17,0,0-7.46.2-13.97-.78-6.51-.98-7.67-1.12-7.67-1.12l27.44-28.98s-5.49-.51-10.49-1.2c-5-.7-6.18-.83-6.18-.83,0,0,6.3-6.48,12.25-13.95,5.94-7.47,11.77-12.94,11.77-12.94,0,0-4.26,2.9-18.13-1.07,2.76-2.95,4.59-4.96,5.18-5.69,2.43-3.06,4.84-5.72,6.66-7.63Z"/>
          </g>
          <path class="cls-2" d="M390.94,221.15c.07-12.48-5.34-22.53-15.6-29.03-.69-.44-1.39-.87-2.1-1.27-.77-.43-1.55-.85-2.34-1.22-11.64-5.67-23.69-4.48-34.15-2.53-5.83,1.33-9.45,2.5-11.74,3.46-1.46-1.46-3.03-2.84-4.74-4.07-.97-.67-6.37-4.22-14.15-5.76-.48-2.22-.98-3.96-1.26-4.88-.01-.05-.23-.79-.25-.84-1.29-3.88-4.26-11.63-9.68-19.89-6.8-10.34-15.02-17.72-24.49-21.96-15.15-6.65-29.01-3.93-42.64,8.55-6.19,6.4-11.53,14.18-15.87,23.1-.54,1.12-4.52,10.56-4.96,11.86-1.56,4.27-6.56,19.27-5.14,33.03.89,10.47,5.87,20.97,13,27.42.12.11.54.44.67.53,7.94,6.03,16.67,9.07,25.99,9.07,1.13,0,2.27-.05,3.42-.13,12.05-.93,21.23-4.61,21.51-4.72,1.18-.45,2.22-.93,3.33-1.4,3.32,4.59,7.6,8.48,12.65,11.05,6.29,3.17,11.23,4.29,15.81,4.29.67,0,1.31-.14,1.97-.18.25.54.51,1.09.92,1.73,9.83,18.52,24.19,24.87,33.25,24.47.58.03,1.17.05,1.76.05,15.78,0,33.72-11.18,44.46-28.18l.53-.88c3.53-5.77,8.87-14.5,9.85-31.67ZM262.41,231.67c-.08.03-8.08,3.2-18.37,4-11.87.91-19.44-4.84-21.88-6.66-5-4.53-8.79-12.66-9.45-20.34-1.18-11.51,3.16-24.52,4.61-28.48.39-1.06,3.95-9.57,4.44-10.59,3.84-7.89,8.52-14.72,13.66-20.06,10.24-9.37,19.41-11.29,30.57-6.38,7.49,3.36,14.15,9.4,19.77,17.96,4.92,7.49,7.54,14.61,8.32,16.9l.28.99c.1.33.23.76.37,1.26-3.12.38-6.39,1.21-9.76,2.67-.86.37-1.62.86-2.44,1.29-1.82-1.99-4.05-3.77-6.3-5.03-6.73-3.79-14.11-3.84-20.25-.13-6.59,4-10.46,11.71-9.86,19.44.23,6.03,2.69,11.16,7.12,14.82,2.87,2.37,6.27,3.78,9.4,4.6,0,.53-.07,1.05-.06,1.58.03,3.82.78,7.6,2.04,11.21-.76.31-1.43.63-2.24.94ZM264.12,206.98c-1.43-.51-2.96-1.24-4.22-2.39-1.79-1.63-2.7-3.75-2.82-6.7-.29-3.87,1.51-7.59,4.61-9.47,2.17-1.32,4.47-1.53,7.04-.66,2.02.68,3.67,1.86,4.9,2.98-4.48,4.46-7.75,9.99-9.5,16.23ZM306.89,243.37c-7.63,2.01-11.53,2.43-19.54-1.62-8.18-4.17-13.72-13.13-13.78-22.47-.43-11.82,5.62-21.89,15.78-26.29,3.44-1.49,6.75-2.04,9.77-2.05,8.05,0,14.03,3.93,14.85,4.49,9.03,6.49,13.34,17.88,10.69,28.51-2.49,11.49-10.8,17.57-17.75,19.43ZM371.63,247.31l-.6,1.01c-8.69,13.74-23.71,23.26-36.56,22.57-6.52.09-15.93-5.16-23.02-17.53,4.14-1.36,8.46-3.71,12.35-7.14,1.96,1.41,4.3,2.61,7,3.2,1.02.22,2.2.38,3.49.38,3.21,0,7.18-.98,11.47-4.38,4.81-4.81,6.44-10.35,4.85-17.49-2.82-8.54-9.53-11.12-14.31-12.03-.27-5.63-1.81-11.14-4.48-16.14,2.05-.65,4.64-1.36,7.15-1.93,8.49-1.57,18.35-2.62,27.19,1.67.59.28,1.14.58,1.7.89.53.3,1.04.61,1.59.96,7.15,4.53,10.61,10.99,10.57,19.46-.82,14.14-4.94,20.88-8.38,26.5ZM335.17,226.88c2.53.61,4.13,1.69,4.89,3.94.65,2.96.13,4.69-1.56,6.43-1.71,1.35-3.44,1.83-5.18,1.51-.94-.17-1.76-.56-2.49-1,1.88-3.16,3.39-6.77,4.33-10.89Z"/>
        </g>
      </g>
    </g>
    <g>
      <g>
        <path class="cls-8" d="M77.48,145.08s27.03-13.02,42.47-38.49c16.66-27.49,12.9-75.34,12.9-75.34L77.48,0,22.1,31.25s-3.76,47.85,12.9,75.34c15.44,25.47,42.47,38.49,42.47,38.49"/>
        <path class="cls-7" d="M77.48,144.27s26.73-12.88,41.99-38.06c16.48-27.18,12.76-74.5,12.76-74.5L77.48.82,22.72,31.71s-3.72,47.32,12.76,74.5c15.27,25.18,41.99,38.06,41.99,38.06"/>
        <path class="cls-8" d="M77.48,140.08s25.17-12.12,39.55-35.84c15.52-25.6,12.01-70.15,12.01-70.15L77.48,5l-51.56,29.1s-3.5,44.56,12.01,70.15c14.38,23.71,39.55,35.84,39.55,35.84"/>
        <path class="cls-5" d="M127.87,33.44L77.48,5l-51.56,29.1s-3.39,43.17,11.3,68.94c22.3-39.18,75.15-63.21,90.66-69.59"/>
      </g>
      <g>
        <polygon class="cls-4" points="126.54 35.12 77.48 10.85 28.41 35.12 77.48 18.38 126.54 35.12"/>
        <polygon class="cls-7" points="126.54 35.12 77.48 15.45 28.41 35.12 77.48 18.38 126.54 35.12"/>
        <path class="cls-4" d="M113.57,74.04c5.2-1.06,8.48-1.91,8.48-1.91,0,0-2.57,19.69-12.8,33.66-10.24,13.97-31.78,25.62-31.78,25.62,0,0-21.54-11.65-31.78-25.62-10.23-13.98-12.8-33.66-12.8-33.66,0,0,3.07.85,8.17,1.9-7.17-2.83-11.62-5.35-11.62-5.35,0,0,2.77,23.21,13.8,38.27,11.03,15.06,34.23,27.61,34.23,27.61,0,0,23.21-12.55,34.23-27.61,11.02-15.06,13.8-38.27,13.8-38.27,0,0-4.74,2.52-11.93,5.36"/>
        <path class="cls-7" d="M109.25,105.79c-10.24,13.97-31.78,25.62-31.78,25.62,0,0-21.54-11.65-31.78-25.62-8.26-11.28-11.53-26.28-12.48-31.65-.21-.08-.32-.13-.32-.13,0,0,2.57,19.69,12.8,33.66,10.24,13.98,31.78,25.62,31.78,25.62,0,0,21.54-11.65,31.78-25.62,10.23-13.98,12.8-33.66,12.8-33.66,0,0-.12.05-.32.13-.95,5.36-4.21,20.37-12.48,31.66"/>
        <path class="cls-4" d="M97.2,112.37l-4.66.96s2.04-4.31,3.48-7.71c1.44-3.39,1.95-4.92,1.95-4.92,0,0-1.85.92-3.59,1.44-1.75.51-2.06.62-2.06.62l3.49-10.47s-1.44.52-2.77.93c-1.33.41-1.64.51-1.64.51,0,0,.82-2.36,1.44-4.93.61-2.57,1.43-4.62,1.43-4.62,0,0-.73,1.23-4.67,1.85.35-1.06.57-1.78.63-2.03.51-2.13,1.19-3.83,1.19-3.83,0,0-.67,1.13-4.43,1.62-1.77.23-3.47.36-4.89.43-1.67.08-2.94.09-3.5.08l.14-.53v-.52l-.23-.23.2-.2v-.56l-.18-.18.23-.23v-.64l-.27-.27.17-.17v-.51l-.24-.24.33-.33v-.28l-.25-.25.24-.24v-.36h-.26l.3-.3v-.46l-.33-.33.23-.23v-.39h-.3l.3-.3v-.39l-.39-.4.13-.13v-.3l-.25-.25.31-.31v-.49l-.42-.43v-.43l-.34-.34v-.25l.16-.16v-.37l-.23-.23h-.27l-.23.23v.37l.15.16v.25l-.34.34v.43l-.43.43v.49l.31.31-.25.25v.3l.13.13-.39.4v.39l.29.3h-.29v.39l.23.23-.33.33v.46l.3.3h-.26v.36l.24.24-.25.25v.28l.33.33-.24.24v.51l.17.17-.27.27v.64l.23.23-.18.18v.56l.19.2-.23.23v.52l.14.53c-.49,0-1.54,0-2.93-.06-1.52-.06-3.44-.2-5.45-.46-3.77-.49-4.43-1.62-4.43-1.62,0,0,.68,1.71,1.2,3.83.06.26.29.97.63,2.03-3.94-.62-4.67-1.85-4.67-1.85,0,0,.82,2.05,1.44,4.62.62,2.57,1.44,4.93,1.44,4.93,0,0-.31-.1-1.64-.51-1.33-.41-2.77-.93-2.77-.93l3.49,10.47s-.31-.1-2.05-.62c-1.75-.51-3.59-1.44-3.59-1.44,0,0,.51,1.54,1.95,4.92,1.44,3.39,3.48,7.71,3.48,7.71l-4.67-.96-2.95-.96,1.3,3.36,3.69,5.03,8.59,6.16,9.08,5.42,9.02-5.48,9.02-6.22,3.29-4.91,1.3-3.36-2.95.96Z"/>
        <g>
          <path class="cls-6" d="M91.07,106.94c0,7.28-5.9,13.18-13.17,13.18s-13.17-5.9-13.17-13.18,5.9-13.17,13.17-13.17,13.17,5.9,13.17,13.17"/>
          <path class="cls-9" d="M89.81,106.31c0,6.58-5.34,11.92-11.92,11.92s-11.92-5.34-11.92-11.92,5.34-11.92,11.92-11.92,11.92,5.34,11.92,11.92"/>
          <path class="cls-7" d="M87.62,104.12c0,5.37-4.36,9.72-9.72,9.72s-9.72-4.35-9.72-9.72,4.35-9.73,9.72-9.73,9.72,4.36,9.72,9.73"/>
          <g>
            <polygon class="cls-8" points="73.08 102.51 71.72 104.42 70.08 104.24 70.81 106.19 70.22 108.43 71.94 107.74 73.72 109.02 73.54 106.61 75.13 105.15 73.36 104.56 73.08 102.51"/>
            <polygon class="cls-8" points="68.17 107.79 67.62 109.7 66.8 109.38 67.71 111.43 68.31 113.15 68.85 112.88 70.4 114.2 69.58 112.11 70.44 111.02 68.8 110.15 68.17 107.79"/>
            <polygon class="cls-8" points="76.72 109.52 75.81 111.56 73.54 111.74 75.22 113.38 75.13 115.11 76.86 114.43 78.68 115.2 78.45 113.38 80.09 111.88 77.72 111.65 76.72 109.52"/>
            <path class="cls-8" d="M74.08,96.05s-.46,1.46,3.91,1.46,4.05-1.46,4.05-1.46c0,0,5.37,2,3.32,3.18-2.04,1.18-4.5,1.41-7.09,1.41s-6.55-.41-7.78-1.68c-1.23-1.28,3.59-2.91,3.59-2.91"/>
          </g>
        </g>
        <path class="cls-6" d="M77.46,127.53s8.84-4.59,16.72-9.61c7.89-5.01,13.82-10.68,13.82-10.68-5.85,6.96-4.87,6.06-11.67,11.59-7.33,5.96-18.86,12.58-18.86,12.58,0,0-11.54-6.62-18.86-12.58-6.8-5.53-5.82-4.63-11.66-11.59,0,0,5.94,5.67,13.82,10.68,7.88,5.02,16.72,9.61,16.72,9.61h-.03Z"/>
      </g>
      <g>
        <g>
          <path class="cls-7" d="M66.55,29.68c-.02-1.11,1.01-1.63,1.99-1.65,1.05-.03,2.21.37,2.24,1.61.04,1.34-.96,1.62-2.06,1.66-.44.01-1.14.14-1.12.72v.45s3.28-.1,3.28-.1l.03.92-4.27.12c-.01-.46-.03-.92-.04-1.38-.04-1.21,1.05-1.6,2.09-1.64.4,0,1.13-.1,1.11-.71-.02-.57-.54-.83-1.22-.81-.52.01-1.04.3-1.04.77l-.99.03Z"/>
          <path class="cls-7" d="M72.24,30.25c-.03-3.15,4.59-3.18,4.62-.04v.76c.04,3.14-4.58,3.19-4.62.05v-.76ZM73.23,31c.02,1.91,2.67,1.89,2.65-.02v-.76c-.03-1.88-2.68-1.88-2.66.03v.76Z"/>
          <path class="cls-7" d="M78.3,30.2c.03-3.15,4.65-3.1,4.62.04v.76c-.04,3.14-4.66,3.1-4.63-.04v-.76ZM79.27,30.97c-.02,1.91,2.63,1.94,2.65.02v-.76c.02-1.88-2.63-1.93-2.64-.02v.76Z"/>
          <path class="cls-7" d="M85.33,29.67l-.02.79c.24-.35.82-.53,1.23-.52,1.06.03,2.16.51,2.12,1.82-.03,1.17-1.17,1.71-2.23,1.68-1.08-.03-2.18-.64-2.15-1.82l.06-1.97c.03-1.17,1.13-1.69,2.22-1.66,1.14.03,2.15.51,2.12,1.62l-.99-.03c.01-.47-.57-.72-1.13-.73-.59-.03-1.21.28-1.22.85v-.03ZM87.68,31.72c.02-.58-.5-.9-1.16-.92-.66-.02-1.24.27-1.24.85-.01.58.54.87,1.19.89.62.02,1.2-.24,1.22-.82"/>
        </g>
        <g>
          <polygon class="cls-7" points="41.18 58.92 42.58 58.92 43.85 61.4 45.12 58.92 46.5 58.92 44.5 62.81 44.5 65.76 43.19 65.76 43.19 62.81 41.18 58.92"/>
          <path class="cls-7" d="M48.62,58.92h1.32l2.63,6.84h-1.34l-.54-1.4h-2.79s-.55,1.4-.55,1.4h-1.36l2.63-6.84ZM49.29,60.75l-.92,2.34h1.83l-.91-2.34Z"/>
          <polygon class="cls-7" points="54.83 58.92 56.1 58.92 57.69 63.7 59.29 58.92 60.55 58.92 61.71 65.76 60.45 65.76 59.71 61.44 58.26 65.76 57.12 65.76 55.67 61.44 54.92 65.76 53.66 65.76 54.83 58.92"/>
          <path class="cls-7" d="M65,58.92h1.32l2.63,6.84h-1.35l-.54-1.4h-2.79l-.56,1.4h-1.35l2.64-6.84ZM65.66,60.74l-.92,2.34h1.83l-.91-2.34Z"/>
          <path class="cls-7" d="M75.7,60.03l-.92.91c-.58-.61-1.26-.91-2.03-.91-.67,0-1.24.22-1.69.66-.46.45-.68.99-.68,1.63s.23,1.22.71,1.68c.47.46,1.05.69,1.75.69.45,0,.83-.09,1.14-.29.31-.19.56-.49.75-.89h-1.97s0-1.22,0-1.22h3.43s.01.29.01.29c0,.6-.15,1.16-.46,1.7-.31.53-.71.94-1.21,1.22-.49.29-1.06.43-1.73.43-.71,0-1.34-.16-1.9-.47-.56-.3-1-.74-1.32-1.31-.33-.57-.48-1.18-.48-1.85,0-.91.3-1.69.9-2.37.71-.79,1.63-1.2,2.77-1.2.6,0,1.15.12,1.68.34.44.18.87.5,1.28.95"/>
          <path class="cls-7" d="M77.34,58.92h1.31v4.42c0,.37.03.65.1.81.07.16.18.29.33.37.15.1.34.15.56.15s.43-.05.59-.16c.17-.1.28-.24.35-.4.06-.17.09-.48.09-.93v-4.26h1.3v4.07c0,.68-.03,1.16-.11,1.43-.08.27-.23.52-.44.77-.22.25-.47.44-.76.55-.28.12-.61.18-.99.18-.49,0-.93-.11-1.3-.35-.36-.22-.63-.51-.79-.85-.15-.35-.23-.92-.23-1.74v-4.07Z"/>
          <path class="cls-7" d="M90.05,60.11l-.91.87c-.62-.65-1.32-.98-2.09-.98-.66,0-1.21.22-1.64.67-.45.44-.68,1-.68,1.65,0,.45.1.86.3,1.21.2.35.48.63.84.83.36.2.77.3,1.22.3.37,0,.72-.07,1.03-.21.31-.14.66-.4,1.03-.77l.88.92c-.51.5-.99.84-1.43,1.02-.45.19-.96.29-1.54.29-1.06,0-1.93-.33-2.61-1.01-.68-.67-1.02-1.54-1.02-2.59,0-.69.15-1.29.46-1.82.31-.53.75-.95,1.33-1.28.58-.32,1.19-.49,1.86-.49.57,0,1.1.12,1.63.37.52.23.97.57,1.35,1.01"/>
          <polygon class="cls-7" points="91.38 58.92 92.7 58.92 92.7 61.49 94.99 61.49 94.99 58.92 96.3 58.92 96.3 65.76 94.99 65.76 94.99 62.75 92.7 62.75 92.7 65.76 91.38 65.76 91.38 58.92"/>
          <rect class="cls-7" x="97.9" y="58.92" width="1.29" height="6.84"/>
          <polygon class="cls-7" points="102.97 58.92 106.36 58.92 106.36 60.18 104.26 60.18 104.26 61.41 106.36 61.41 106.36 62.66 104.26 62.66 104.27 65.76 102.97 65.76 102.97 58.92"/>
          <path class="cls-7" d="M114.5,60.1l-.92.87c-.62-.65-1.31-.98-2.09-.98-.65,0-1.2.22-1.64.67-.46.44-.67.99-.67,1.65,0,.45.1.86.29,1.21.2.35.48.63.85.83.36.2.75.3,1.2.3.38,0,.72-.07,1.04-.21.31-.14.65-.4,1.03-.77l.88.92c-.51.5-.98.84-1.43,1.02-.45.19-.96.29-1.54.29-1.07,0-1.94-.33-2.62-1.01-.67-.67-1.01-1.54-1.01-2.59,0-.69.16-1.29.47-1.82.3-.53.74-.95,1.32-1.28.58-.32,1.19-.49,1.86-.49.57,0,1.11.13,1.63.37.52.23.97.57,1.36,1.01"/>
        </g>
        <g>
          <path class="cls-7" d="M76.32,49.14c0-3.78,3.18-6.84,7.1-6.84,3.93,0,7.12,3.06,7.12,6.84,0,3.78-3.18,6.84-7.11,6.84-3.92,0-7.11-3.06-7.11-6.84M80.71,49.28c.46.25.92.43,1.36.54-.09.37-.15.78-.15,1.22,0,1.65.74,2.99,1.63,2.99.9,0,1.63-1.34,1.63-2.99,0-.51-.06-.99-.19-1.4.38-.11.78-.27,1.17-.49,1.48-.82,2.32-2.1,1.87-2.85-.45-.75-2.02-.69-3.51.14-.46.26-.85.55-1.17.86-.29-.26-.63-.51-1.02-.72-1.49-.83-3.05-.88-3.5-.14-.45.75.39,2.03,1.87,2.85"/>
          <path class="cls-7" d="M41.11,42.11v13.97h3.53v-4.58l2.52,4.58h3.86l-3.3-5.95c.59-.31,1.07-.69,1.43-1.17.49-.68.75-1.51.75-2.49,0-.91-.23-1.73-.67-2.41-.46-.71-1.07-1.21-1.82-1.52-.71-.29-1.81-.43-3.36-.43h-2.94ZM46.35,46.24c0,.27-.09.45-.23.53-.08.05-.3.19-1.48.19v-1.43c.96,0,1.25.09,1.3.1.13.05.23.12.3.23.05.06.11.17.11.38"/>
          <polygon class="cls-7" points="60.96 52.7 60.96 56.07 52.35 56.07 52.35 42.09 60.96 42.09 60.96 45.33 55.97 45.33 55.97 47.62 60.96 47.62 60.96 50.59 55.98 50.59 55.98 52.7 60.96 52.7"/>
          <path class="cls-7" d="M70.59,42.09s0,4.13,0,6.54l-4.48-6.54h-3.12v13.98h3.61v-6.52l4.46,6.52h3.08v-13.98h-3.55Z"/>
          <polygon class="cls-7" points="96.21 56.07 92.73 56.07 92.73 42.09 100.21 42.09 100.21 45.31 96.2 45.31 96.21 47.17 100.21 47.17 100.21 50.5 96.21 50.51 96.21 56.07"/>
          <path class="cls-7" d="M106.29,42.07l-5.61,14h3.82l1.04-3.22h4.28s1.02,3.22,1.02,3.22h3.82l-5.58-14h-2.8ZM106.39,50.35l1.31-3.41,1.3,3.41h-2.62Z"/>
        </g>
      </g>
    </g>
  </g>
</svg>