<?xml version="1.0" encoding="UTF-8"?>
<svg id="_レイヤー_2" data-name="レイヤー 2" xmlns="http://www.w3.org/2000/svg" xmlns:xlink="http://www.w3.org/1999/xlink" viewBox="0 0 439.13 437.82">
  <defs>
    <style>
      .cls-1 {
        fill: none;
      }

      .cls-2 {
        fill: #221815;
      }

      .cls-3 {
        fill: #ffe100;
      }

      .cls-4 {
        fill: #e60039;
      }

      .cls-5 {
        fill: #fff;
      }

      .cls-6 {
        fill: #004098;
      }

      .cls-7 {
        fill: #bf9c46;
      }

      .cls-8 {
        clip-path: url(#clippath);
      }
    </style>
    <clipPath id="clippath">
      <path class="cls-1" d="M403.63,212.84c.07-12.49-5.34-22.53-15.6-29.03-.69-.44-1.39-.87-2.1-1.27-.77-.43-1.55-.84-2.34-1.22-11.64-5.67-23.69-4.48-34.15-2.53-5.83,1.33-9.45,2.5-11.74,3.46-1.46-1.46-3.03-2.84-4.74-4.07-.97-.67-6.37-4.22-14.15-5.76-.48-2.23-.98-3.97-1.26-4.88-.01-.05-.23-.79-.25-.84-1.29-3.88-4.26-11.63-9.68-19.89-6.8-10.34-15.02-17.72-24.49-21.96-15.15-6.65-29.01-3.93-42.64,8.55-6.19,6.4-11.53,14.18-15.87,23.1-.54,1.12-4.52,10.56-4.96,11.86-1.56,4.27-6.56,19.27-5.14,33.02.89,10.47,5.87,20.98,13,27.42.12.11.54.44.67.53,7.94,6.03,16.67,9.07,25.99,9.07,1.13,0,2.27-.05,3.42-.13,12.05-.93,21.23-4.61,21.51-4.72,1.18-.45,2.22-.93,3.33-1.4,3.32,4.59,7.6,8.48,12.65,11.05,6.29,3.17,11.23,4.29,15.81,4.29.67,0,1.31-.14,1.97-.18.25.54.51,1.09.92,1.73,9.83,18.52,24.19,24.87,33.25,24.47.58.03,1.17.05,1.76.05,15.78,0,33.72-11.18,44.46-28.18l.53-.88c3.53-5.77,8.87-14.5,9.85-31.66Z"/>
    </clipPath>
  </defs>
  <g id="_レイヤー_1-2" data-name="レイヤー 1">
    <g>
      <path class="cls-6" d="M439.13,220.31c0,117.76-84.41,196.43-213.22,196.43S12.68,338.07,12.68,220.31,108.15,7.09,225.91,7.09s213.22,95.46,213.22,213.22Z"/>
      <g>
        <g>
          <path class="cls-2" d="M432.2,288.87c-1.3-.72-2.84-1.24-3.8-1.44-6.81-1.4-13.64-2.18-20.31-2.33-3.7-.08-7.16,0-10.49.16-1.79-20.11-8.09-39.31-19.27-58.28,1.62-9.72,2.12-22.36,2.53-32.66l.21-5.17c.84-18.75-5.88-43.26-14.38-52.46-2.12-2.29-5.31-4.04-8.12-4.45-21.54-3.21-49.87,5.35-81.73,24.67l-4-.59c-26.18-3.9-58.77-8.75-103.06,1.53-1.4.32-2.95.78-4.54,1.26-2.37.71-6.76,1.98-7.92,1.68-8.49-4.64-30.28-15.71-49.14-18.49-17.53-2.61-29.09.83-34.52,10.31-15.37,28.86-7.65,69.07-4.44,79.47-16,31.01-15.7,63.87-15.6,67.47-.01.84.03,1.72.04,2.58-.84.06-1.6.09-2.48.16-8.93.71-17.8,1.58-28.07,4.44-3.34.92-6.41,3.14-5.81,5.59.47,1.92,2.84,2.35,4.83,2.35,1.54,0,2.85-.25,2.89-.26,10.63-2.16,16.02-2.75,23.47-3.55l3.14-.34c.81-.09,1.61-.13,2.42-.2.81,9.68,2.85,19.99,6.48,30.18-4.44,1.67-9.56,3.89-15.71,7.07-.04.02-3.98,2.08-4.74,4.62-.23.78-.15,1.56.23,2.24.62,1.11,1.92,1.46,3.31,1.46,2.3,0,4.82-.95,4.86-.96,1.84-.81,3.57-1.58,5.21-2.31,3.72-1.66,6.96-3.05,10-4.23,3.93,8.9,9.09,17.53,15.73,25.34-6.84,3.96-15.09,9.33-24.43,16.6-1.94,1.52-3.19,3.46-3.41,5.32-.12,1.04.11,1.99.65,2.67.41.51,1.18.73,2.1.73,1.62,0,3.71-.68,5.14-1.7,10.26-7.27,19.16-12.89,26.15-17.04,7.51,7.31,16.5,13.67,27.22,18.49,35.27,15.84,67.77,19.4,108.95,20l4.04-.06,4.36.06c47.38-.69,84.81-7.46,111.26-20.11,15.35-7.34,27.56-17.24,36.7-29.54,7.64,2.61,16.9,6.62,25.83,12.67,1.14.79,3.45,2.16,5.5,2.16.92,0,1.79-.27,2.47-1.01.29-.3.61-.85.53-1.73-.17-1.86-2.23-4.46-3.56-5.43-9.12-6.66-18.28-10.95-26.01-13.74,5.25-8.67,9.17-18.37,11.72-29.12,5.64.9,12.22,2.35,19.44,4.77.04,0,2.17.71,4.26.71,1.57,0,3.11-.39,3.7-1.78.27-.63.26-1.33-.03-2.02-1.04-2.48-5.39-4.32-5.43-4.33-7.12-2.82-14.12-4.47-20.3-5.49,1.35-8.14,2-16.8,1.93-26,.02-1.57-.07-3.12-.1-4.67,2.94-.16,5.97-.26,9.16-.22,4.96.05,10.48.42,15.35.74,1.52.1,2.99.19,4.4.28,3.19.18,7.1-.41,7.57-2.73.17-.81-.11-2.03-2.36-3.29Z"/>
          <path class="cls-5" d="M367.21,227c1.76-9.13,2.29-22.42,2.71-33.11l.22-5.22c.76-16.97-5.67-38.25-11.49-44.55-.51-.56-1.4-.99-1.72-1.06-18.78-2.76-45.27,5.51-74.57,23.31-2.08,1.26-3.22,1.95-5.23,1.65l-5.91-.87c-25.25-3.76-56.69-8.45-98.98,1.36-1.2.27-2.52.67-3.88,1.08-5.38,1.6-11.46,3.43-16.3.79-7.98-4.35-28.38-14.75-45.5-17.28-12.59-1.85-20.45-.25-23.34,4.78-10.47,19.65-8.42,46.45-5.73,61.45.72-.85,1.42-1.62,2.07-2.27,2.63-2.63,5.32-3.6,7.16-2.33,1.91,1.32,1.15,4.66-.08,7.33-1.22,2.65-3.69,7.76-5.63,11.18,0,0,0,.01,0,.02-16.85,29.6-16.54,62.53-16.45,66.2,0,.74.03,1.51.04,2.26,9.31.02,14.99,1,17.89,1.74l.21.05c.06.01,7.62,1.41,7.18,5.04-.39,3.23-4.98,2.99-7.2,2.87l-.82-.06c-2.44-.37-8.96-1.24-16.86-1.4.79,8.79,2.71,18.09,6.01,27.25,4.52-1.04,7.71-1.28,9.83-1.4l.29-.02c2.79-.15,9.39-.25,9.73,3.07.3,2.87-4.87,4.24-7.11,4.7-1.04.21-2.16.36-3.41.53-1.75.24-3.74.52-6.09,1.02,3.77,8.24,8.76,16.15,15.14,23.24,6.63-3.22,10.45-4.4,10.53-4.42.06-.03,6.57-1.68,7.84,1.28,1.09,2.56-1.67,3.92-4.33,5.24-.85.42-1.74.86-2.55,1.35,0,0-.09.05-.26.13-1.03.51-2.75,1.4-5.02,2.62,6.17,5.56,13.32,10.43,21.71,14.2,33.54,15.07,64.84,18.45,104.45,19.04l4.04-.06,4.36.06c44.98-.67,81.88-7.25,106.54-19.04,12.36-5.91,22.38-13.54,30.16-22.9-3.71-.86-5.97-1.18-6.04-1.19-1.42-.14-5.85-1.17-7.34-3.19-.44-.61-.61-1.28-.47-1.94.75-3.62,7.32-2.9,10.09-2.43.35.03,3.75.38,9.03,1.65,5.2-7.94,9.03-16.98,11.53-27.11-2.33-.14-4.2-.17-5.48-.17-2.44.01-5.28-.05-5.28-.05-.74-.07-6.59-.76-6.82-3.68-.03-.39.05-1,.6-1.64,1.31-1.53,4.62-2.39,6.03-2.5l.31-.03c.84-.08,3.07-.3,5.31-.32h.61c1.62,0,3.81.05,6.42.22,1.29-7.68,1.93-15.9,1.86-24.74.01-1.24-.07-2.46-.09-3.69-6.85.85-12.47,1.97-16.3,2.74-1.96.39-3.38.68-4.24.78-1.38.2-2.56.3-3.55.3-2.31,0-3.58-.56-4-1.72-.29-.84-.23-1.74.18-2.59.74-1.52,2.53-2.81,5.19-3.72,2.09-.71,10.2-3.2,22.24-4.67-1.72-19.09-7.86-37.28-18.78-55.31-.7-1.16-.95-2.54-.69-3.87Z"/>
        </g>
        <g>
          <path class="cls-2" d="M127.99,308.68c-3.5,7.1-3.52,18.45,1.21,24.48,2.92,3.45,7.8,5.41,14.09,4.33,5.43-.94,8.52-5.9,9.55-9.85,2.23-8.84-.15-19.68-5.23-23.79-5.36-3.91-15.39-3.82-19.61,4.83Z"/>
          <path class="cls-2" d="M298.09,309.72c-3.5,7.1-3.52,18.45,1.21,24.48,2.92,3.45,7.8,5.41,14.09,4.33,5.43-.94,8.52-5.9,9.55-9.85,2.23-8.84-.14-19.68-5.23-23.79-5.36-3.91-15.39-3.82-19.61,4.83Z"/>
          <g>
            <path class="cls-2" d="M243.13,340.43c-1.17-4.16-4.32-7.43-8.44-8.76-7.86-2.55-15.82-1.48-20.77,2.79-5.16,4.56-5.41,12.65-2.18,16.84,2.99,3.88,7.72,5.9,14.48,6.2.31.01.63.02.94.02,5.41,0,10.44-1.98,13.31-5.27v-.02c2.83-3.28,3.82-7.69,2.67-11.81Z"/>
            <path class="cls-3" d="M232.59,338.17c-2.1-.68-4.24-1.01-6.25-1.01-3.19,0-6.05.84-7.91,2.45-2.45,2.17-2.29,6.18-1.26,7.52,1.68,2.18,4.74,3.34,9.35,3.54,4.27.17,7.46-1.38,8.79-2.9,1.34-1.56,1.79-3.55,1.24-5.49-.54-1.94-2.02-3.48-3.96-4.11Z"/>
          </g>
        </g>
      </g>
      <g>
        <g>
          <path class="cls-2" d="M187,398.51c-1.48-4.63-4.48-8.3-7.74-11.99-11.57-11.1-31.76-15.56-47.81-10.64-11.58,3.03-24.94,13.2-26.89,28.3-1.79,11.76,2.42,22.06,11.65,27.76,9.31,4.78,19.42,4.67,29.7-.17.87-.33,1.3-.24,3.57.72,1.42.61,3.17,1.34,5.28,1.7,3.57,1.03,6.76,1.46,9.57,1.46,7.46,0,12.38-3.02,15.44-6.04,7.97-7.84,10.94-20.61,7.23-31.1Z"/>
          <path class="cls-5" d="M176.66,402.1c-.03-.07-.05-.13-.07-.2-.84-2.65-3.05-5.31-5.25-7.82-8.41-8.05-24.41-11.47-36.92-7.67-8.41,2.21-17.79,9.67-19.04,19.29-.55,3.62-1.01,12.25,6.19,16.72,5.93,3.02,12.4,2.87,20-.7,1.9-.75,3.63-1.02,5.18-1.02,2.92,0,5.24.98,6.98,1.72,1.12.47,2.08.88,2.97,1.01.27.04.53.09.78.17,6.51,1.94,11.44,1.34,14.59-1.78,4.91-4.82,6.87-13.3,4.58-19.71Z"/>
        </g>
        <g>
          <path class="cls-2" d="M350.87,406.47c-1.98-15.21-15.33-25.39-26.69-28.34-16.27-4.97-36.47-.53-48.34,10.91-2.82,3.2-5.95,7-7.44,11.65-3.71,10.49-.74,23.27,7.22,31.1,3.07,3.03,8,6.05,15.45,6.05,2.81,0,5.99-.43,9.57-1.46,2.11-.36,3.86-1.1,5.28-1.7,2.29-.98,2.71-1.06,3.23-.88,10.61,5,20.73,5.1,30.44.1,8.83-5.48,13.04-15.78,11.27-27.43Z"/>
          <path class="cls-5" d="M340.03,408c-1.27-9.74-10.64-17.21-18.84-19.34-3.53-1.08-7.32-1.6-11.13-1.6-9.92,0-20.02,3.48-26.32,9.53-1.88,2.17-4.1,4.83-4.94,7.48-.02.07-.04.13-.07.2-2.29,6.41-.33,14.89,4.56,19.7,3.17,3.11,8.06,3.72,14.6,1.78.25-.07.51-.13.78-.17.89-.13,1.85-.53,2.97-1.01,2.67-1.14,6.69-2.83,11.82-.85,7.93,3.73,14.41,3.87,20.73.63,6.81-4.24,6.35-12.88,5.82-16.38Z"/>
        </g>
      </g>
      <g>
        <g class="cls-8">
          <g>
            <rect class="cls-5" x="169.16" y="176.01" width="290.26" height="53.01" transform="translate(-16.46 28.17) rotate(-5)"/>
            <rect class="cls-4" x="164.78" y="123.2" width="290.26" height="58.34" transform="translate(-12.1 27.59) rotate(-5)"/>
            <rect class="cls-6" x="173.55" y="223.5" width="290.26" height="58.34" transform="translate(-20.81 28.73) rotate(-5)"/>
          </g>
        </g>
        <path class="cls-2" d="M403.63,212.84c.07-12.49-5.34-22.53-15.6-29.03-.69-.44-1.39-.87-2.1-1.27-.77-.43-1.55-.84-2.34-1.22-11.64-5.67-23.69-4.48-34.15-2.53-5.83,1.33-9.45,2.5-11.74,3.46-1.46-1.46-3.03-2.84-4.74-4.07-.97-.67-6.37-4.22-14.15-5.76-.48-2.23-.98-3.97-1.26-4.88-.01-.05-.23-.79-.25-.84-1.29-3.88-4.26-11.63-9.68-19.89-6.8-10.34-15.02-17.72-24.49-21.96-15.15-6.65-29.01-3.93-42.64,8.55-6.19,6.4-11.53,14.18-15.87,23.1-.54,1.12-4.52,10.56-4.96,11.86-1.56,4.27-6.56,19.27-5.14,33.02.89,10.47,5.87,20.98,13,27.42.12.11.54.44.67.53,7.94,6.03,16.67,9.07,25.99,9.07,1.13,0,2.27-.05,3.42-.13,12.05-.93,21.23-4.61,21.51-4.72,1.18-.45,2.22-.93,3.33-1.4,3.32,4.59,7.6,8.48,12.65,11.05,6.29,3.17,11.23,4.29,15.81,4.29.67,0,1.31-.14,1.97-.18.25.54.51,1.09.92,1.73,9.83,18.52,24.19,24.87,33.25,24.47.58.03,1.17.05,1.76.05,15.78,0,33.72-11.18,44.46-28.18l.53-.88c3.53-5.77,8.87-14.5,9.85-31.66ZM275.1,223.36c-.08.03-8.08,3.2-18.37,4-11.87.92-19.45-4.85-21.88-6.66-5-4.53-8.79-12.66-9.45-20.34-1.18-11.51,3.16-24.52,4.61-28.48.39-1.06,3.95-9.57,4.44-10.59,3.84-7.89,8.52-14.72,13.66-20.06,10.24-9.37,19.41-11.29,30.57-6.38,7.49,3.36,14.15,9.4,19.77,17.96,4.92,7.49,7.54,14.61,8.32,16.91l.28.99c.1.33.23.76.37,1.26-3.12.38-6.39,1.21-9.76,2.67-.86.37-1.62.86-2.44,1.29-1.82-1.99-4.05-3.77-6.3-5.03-6.73-3.79-14.11-3.84-20.25-.13-6.59,4-10.46,11.71-9.86,19.44.23,6.03,2.69,11.16,7.12,14.82,2.87,2.37,6.27,3.78,9.4,4.6,0,.53-.07,1.05-.05,1.58.03,3.82.78,7.6,2.04,11.21-.76.31-1.43.63-2.24.94ZM276.8,198.68c-1.43-.51-2.96-1.24-4.22-2.39-1.79-1.63-2.71-3.75-2.82-6.7-.29-3.87,1.51-7.58,4.61-9.47,2.17-1.32,4.47-1.53,7.04-.66,2.02.68,3.67,1.86,4.9,2.98-4.48,4.46-7.75,9.99-9.5,16.23ZM319.57,235.06c-7.63,2.01-11.53,2.43-19.54-1.62-8.18-4.17-13.72-13.13-13.78-22.46-.43-11.82,5.62-21.89,15.78-26.29,3.44-1.49,6.75-2.04,9.77-2.05,8.05,0,14.03,3.93,14.85,4.49,9.03,6.49,13.34,17.88,10.69,28.51-2.49,11.49-10.8,17.57-17.75,19.43ZM384.31,239l-.6,1.01c-8.69,13.74-23.71,23.26-36.56,22.57-6.52.09-15.93-5.16-23.02-17.53,4.14-1.36,8.46-3.71,12.35-7.14,1.96,1.41,4.3,2.61,7,3.2,1.02.22,2.2.38,3.49.38,3.21,0,7.18-.98,11.47-4.38,4.8-4.81,6.43-10.35,4.84-17.49-2.82-8.54-9.53-11.12-14.31-12.03-.27-5.63-1.81-11.14-4.48-16.14,2.05-.65,4.64-1.36,7.15-1.93,8.49-1.57,18.35-2.62,27.19,1.67.59.28,1.14.57,1.7.89.53.3,1.04.61,1.59.96,7.15,4.53,10.61,10.99,10.57,19.46-.82,14.14-4.94,20.88-8.38,26.5ZM347.85,218.58c2.53.61,4.13,1.69,4.89,3.93.65,2.96.13,4.69-1.56,6.43-1.71,1.35-3.44,1.83-5.18,1.51-.94-.17-1.76-.57-2.49-1,1.88-3.16,3.39-6.77,4.33-10.89Z"/>
      </g>
    </g>
    <g>
      <path class="cls-5" d="M180.59,93.62l-2.32-.97-3.24-1.36-.25-.11h0l-9.04-3.8.82-9.78.29-3.48.22-2.58-2.25,1.27c-7.2,4.07-19.97,10.54-22.69,11.34l-1.45.43.56,1.4,2.28,5.67c-5.42,1.97-10.91,3.68-16.41,5.09.83-.54,1.61-1.06,2.3-1.53,1.43-.96,2.66-1.8,3.4-2.09l2.23-.89-1.91-1.46c-.43-.33-.93-.59-1.48-.81,2.4-.42,4.81-1.81,6.95-4.1.97-1.04,1.94-2.13,2.8-3.1,1.02-1.14,2.27-2.56,2.65-2.84l3.43-1.53-3.72-1c-.53-.14-1.05-.24-1.57-.3,3-1.57,5.43-4.74,6.65-8.08,1.42-3.87,1.98-5.03,2.21-5.31l2.61-2.41-3.59.07c-.54,0-1.14.12-1.77.29,2.8-2.3,4.33-5.96,4.6-9.26.42-5.1.71-6.05.75-6.14l.93-2.63-2.65.87c-.49.16-.95.38-1.39.62,1.74-2.46,1.94-5.82,1.8-9.04-.08-1.82-.4-3.39-.65-4.65-.23-1.14-.43-2.13-.37-2.87l.2-2.52-2.22,1.2c-.47.26-.92.62-1.33,1.05.88-3.36,0-7.34-1.42-10.02-1.55-2.91-2.44-5.23-2.52-5.74v-3.19l-2.32,2.25c-1.19,1.15-1.98,2.99-2.41,4.75-.06-1.93-.46-4.24-1.38-6.34-1.33-3.02-3.22-4.79-4.74-6.21-.61-.57-1.13-1.06-1.5-1.52l-1.79-2.28s-.62,2.85-.62,2.85l-.12.56c-.48,2.14-1.47,6.59.8,10.9,1.2,2.27,3.65,4.05,5.42,5.23-1.56-.52-3.31-.78-5.25-.77l-3.18.02,2.19,2.3c.94.99,1.56,2.37,2.17,3.71.67,1.5,1.37,3.05,2.55,4.17.54.51,1.09.94,1.65,1.32l-2.1-.46,1.27,2.55c.53,1.07.65,2.27.78,3.65.17,1.73.36,3.68,1.45,5.72.37.7.78,1.28,1.2,1.79l-1.46-.8.11,2.42c.05,1.16-.08,2.35-.22,3.62-.22,2.01-.45,4.09.05,6.24.34,1.47.92,2.63,1.57,3.62-.37-.43-.76-.85-1.19-1.24l-1.81-1.64-.45,2.4c-.19,1-.54,2-.91,3.06-.63,1.79-1.34,3.83-1.47,6.42-.02.31-.02.6-.02.88l-.58-1.24-1.31,2.35c-.48.86-1.27,1.72-2.11,2.64-1.21,1.33-2.59,2.84-3.46,4.79-.41.92-.63,1.85-.74,2.75l-.25-1.43-1.8,1.4c-.43.34-.96.64-1.57,1-1.65.96-3.71,2.14-5.68,4.93-.32.46-.61.92-.88,1.39l.35-2.65-2.65,2.11c-1.07.85-2.34,1.25-3.81,1.71-1.67.52-3.56,1.12-5.32,2.53-2.48,1.98-3.45,4.08-4.24,5.76-.34.74-.64,1.37-.99,1.83l-.28.36-.86-.02-1.14-1.65.81-1.24,1.37-2.11h-4.8c6.7-2.53,13.62-6.08,22.67-16.5,7.31-8.41,11.53-19.94,11.89-32.48,0-.04,0-37.31,0-37.31v-1.37H53.71v38.64c.36,12.57,4.58,24.11,11.89,32.52,9.05,10.42,15.97,13.97,22.67,16.5h-1.39l-.4.62-2.84,4.38-.27-.35c-.35-.46-.65-1.1-.99-1.83-.78-1.68-1.76-3.78-4.24-5.76-1.76-1.41-3.65-2-5.32-2.53-1.47-.46-2.74-.86-3.81-1.71l-2.65-2.11.35,2.65c-.27-.47-.56-.94-.88-1.39-1.97-2.78-4.03-3.97-5.68-4.93-.61-.35-1.14-.66-1.57-1l-1.8-1.4-.25,1.43c-.11-.9-.34-1.83-.74-2.75-.87-1.95-2.24-3.46-3.46-4.79-.84-.92-1.63-1.79-2.11-2.64l-1.31-2.35-.58,1.24c0-.28,0-.57-.02-.88-.13-2.6-.84-4.63-1.47-6.42-.37-1.06-.72-2.06-.91-3.06l-.45-2.4-1.81,1.64c-.44.4-.83.82-1.19,1.24.65-1,1.24-2.15,1.57-3.62.5-2.15.27-4.23.05-6.24-.14-1.26-.27-2.46-.22-3.62l.11-2.42-1.46.8c.42-.51.83-1.09,1.2-1.79,1.09-2.04,1.28-4,1.45-5.72.13-1.38.25-2.58.78-3.65l1.27-2.55-2.1.46c.56-.38,1.11-.81,1.65-1.32,1.19-1.12,1.88-2.67,2.55-4.17.6-1.34,1.22-2.73,2.17-3.71l2.19-2.3-3.18-.02c-1.94,0-3.69.25-5.25.77,1.77-1.18,4.21-2.96,5.42-5.23,2.27-4.31,1.28-8.76.8-10.9l-.12-.56L50.73.02s-1.8,2.26-1.8,2.26c-.36.46-.89.95-1.49,1.52-1.52,1.42-3.41,3.18-4.74,6.21-.92,2.1-1.32,4.41-1.38,6.34-.43-1.76-1.22-3.6-2.41-4.75l-2.32-2.25v3.19c-.07.51-.97,2.83-2.52,5.74-1.43,2.68-2.3,6.66-1.42,10.02-.42-.43-.86-.79-1.33-1.05l-2.22-1.2.2,2.52c.06.74-.14,1.72-.37,2.87-.25,1.26-.57,2.83-.65,4.65-.14,3.21.05,6.57,1.8,9.04-.44-.24-.9-.46-1.39-.62l-2.65-.87.93,2.63c.03.09.33,1.03.75,6.14.27,3.3,1.8,6.96,4.6,9.26-.63-.17-1.23-.28-1.77-.29l-3.59-.07,2.61,2.41c.23.28.79,1.44,2.21,5.31,1.22,3.33,3.65,6.51,6.65,8.08-.52.07-1.05.16-1.57.3l-3.72,1,3.43,1.53c.37.29,1.63,1.7,2.65,2.84.86.97,1.83,2.06,2.8,3.1,2.14,2.3,4.54,3.68,6.95,4.1-.55.21-1.05.48-1.48.81l-1.91,1.46,2.23.89c.74.3,1.97,1.13,3.4,2.09.69.47,1.47.99,2.3,1.53-5.51-1.41-11-3.12-16.42-5.09l2.28-5.67.56-1.4-1.45-.43c-2.72-.8-15.49-7.27-22.69-11.34l-2.25-1.27.22,2.58.29,3.48s.6,7.12.82,9.78l-9.04,3.8h0l-.25.11-3.24,1.36-2.32.97,2.07,1.42c1.36.93,9.02,5.21,13.14,7.35l-1.57,3.25-1.26,2.59-.61,1.25,1.26.58c26.49,12.24,51.76,18.18,77.26,18.18s50.77-5.95,77.26-18.18l1.26-.58-.61-1.25-1.25-2.59s-.79-1.63-1.57-3.25c4.12-2.15,11.78-6.42,13.14-7.35l2.07-1.42Z"/>
      <g>
        <g>
          <g>
            <g>
              <polygon class="cls-7" points="88.77 104.11 94.61 95.12 87.62 95.12 81.77 104.11 88.77 104.11"/>
              <polygon class="cls-7" points="89.89 103.7 97.86 103.7 93.76 97.78 89.89 103.7"/>
            </g>
            <g>
              <path class="cls-7" d="M50.49,20.14c-7.43-.04-11.47,4.2-12.82,11.76,3.06-.93,5.68-1.59,8.15-3.93,1.99-1.88,2.47-5.53,4.67-7.84Z"/>
              <path class="cls-7" d="M36.67,31.84c.45-4.56,3.26-8.01,3.64-12.09.17-1.88-.69-5.56-2.36-7.18,0,.65-1.1,3.38-2.68,6.34-1.88,3.51-2.95,10.1,1.4,12.93Z"/>
              <path class="cls-7" d="M42.99,19.41c1.37-.97,5.04-3.02,6.47-5.73,2.25-4.25.94-8.64.55-10.55-1.39,1.76-4.3,3.43-6.05,7.43-1.61,3.68-1.41,7.72-.96,8.85Z"/>
              <path class="cls-7" d="M44.72,31.79c-5.61,1.22-9.48,6.4-8.76,15.37,2.21-2.24,4.75-2.67,6.55-6.04,1.8-3.37.83-6.55,2.21-9.34Z"/>
              <path class="cls-7" d="M34.86,46.84c-.92-4.17.57-8.35-.29-12.11-.42-1.72-2.05-5.28-3.91-6.28.15,1.87-.86,4.26-1.02,7.69-.22,4.8.36,9.2,5.22,10.71Z"/>
              <path class="cls-7" d="M42.5,45.12c-6.51,3.54-6.65,11.56-4.15,16.81,1.41-2.36,3.57-3.86,4.34-7.2.74-3.21-.34-6.45-.2-9.61Z"/>
              <path class="cls-7" d="M37.35,62.45c-1.73-3.08-1.79-9.05-3.71-12-1.22-1.87-3.08-3.91-5.39-4.67.24.67.53,2.94.82,6.48.36,4.42,3.1,9.38,8.28,10.18Z"/>
              <path class="cls-7" d="M44.57,58.43c-4.64,4.21-5.02,10.63.32,17.23.7-2.44,2.28-3.04,2.03-7.92-.2-3.91-1.82-6.44-2.36-9.3Z"/>
              <path class="cls-7" d="M43.96,76.53c-2.3-2.29-3.87-8.27-6.61-10.8-1.05-.97-4.69-2.99-6.83-3.03.48.44,1.31,2.48,2.53,5.82,1.68,4.58,6.12,9.22,10.91,8.01Z"/>
              <path class="cls-7" d="M49.01,70.32c-2.6,5.6-1.03,12.01,5.99,16.71-.38-2.27,1.04-5.96-.48-9.39-1.36-3.07-4.22-5.01-5.51-7.32Z"/>
              <path class="cls-7" d="M54.06,87.8c-3.12-1.47-5.87-6.54-9.52-8.32-2.26-1.1-4.64-1.52-7.34-.79.59.26,3.21,3.44,5.8,6.22,3.02,3.24,7.19,4.98,11.07,2.89Z"/>
              <path class="cls-7" d="M57.72,80.87c-1.06,6.06,1.97,11.97,9.72,13.99-.03-1.91-.36-5.01-2.74-8.36-2.53-3.57-5.23-4.27-6.98-5.63Z"/>
              <path class="cls-7" d="M67.21,96.13c-3.31-.51-8.29-5.1-11.75-5.5-2.09-.24-5.55-.03-7.16,1.22,1.35.54,3.49,2.19,6.46,4.09,3.27,2.09,8.6,3.26,12.45.19Z"/>
              <path class="cls-7" d="M68.15,87.64c.93,7.06,5.95,11.22,14.12,11.59-1.34-1.74-1.65-4.68-5-7.36-3.01-2.41-6.49-2.14-9.12-4.23Z"/>
              <path class="cls-7" d="M82.38,100.16c-5.04.1-8.87-2.38-12.56-2.03-1.88.18-5.05,1.17-6.68,2.99.64-.09,3.38.84,6.66,2.09,4.72,1.8,10.61,1.31,12.58-3.06Z"/>
            </g>
            <g>
              <path class="cls-7" d="M130.1,20.14c7.43-.04,11.47,4.2,12.82,11.76-3.06-.93-5.68-1.59-8.15-3.93-1.99-1.88-2.47-5.53-4.67-7.84Z"/>
              <path class="cls-7" d="M143.92,31.84c-.45-4.56-3.26-8.01-3.64-12.09-.18-1.88.69-5.56,2.36-7.18,0,.65,1.1,3.38,2.68,6.34,1.88,3.51,2.95,10.1-1.4,12.93Z"/>
              <path class="cls-7" d="M137.6,19.41c-1.37-.97-5.04-3.02-6.47-5.73-2.25-4.25-.94-8.64-.55-10.55,1.39,1.76,4.3,3.43,6.05,7.43,1.61,3.68,1.41,7.72.96,8.85Z"/>
              <path class="cls-7" d="M135.88,31.79c5.61,1.22,9.48,6.4,8.76,15.37-2.21-2.24-4.75-2.67-6.55-6.04-1.8-3.37-.83-6.55-2.21-9.34Z"/>
              <path class="cls-7" d="M145.74,46.84c.92-4.17-.57-8.35.29-12.11.42-1.72,2.05-5.28,3.91-6.28-.15,1.87.86,4.26,1.02,7.69.22,4.8-.36,9.2-5.22,10.71Z"/>
              <path class="cls-7" d="M138.09,45.12c6.51,3.54,6.65,11.56,4.15,16.81-1.41-2.36-3.57-3.86-4.34-7.2-.74-3.21.34-6.45.2-9.61Z"/>
              <path class="cls-7" d="M143.24,62.45c1.73-3.08,1.79-9.05,3.71-12,1.22-1.87,3.08-3.91,5.39-4.67-.24.67-.53,2.94-.82,6.48-.36,4.42-3.1,9.38-8.28,10.18Z"/>
              <path class="cls-7" d="M136.02,58.43c4.64,4.21,5.02,10.63-.32,17.23-.7-2.44-2.28-3.04-2.03-7.92.2-3.91,1.82-6.44,2.36-9.3Z"/>
              <path class="cls-7" d="M136.64,76.53c2.3-2.29,3.87-8.27,6.61-10.8,1.05-.97,4.69-2.99,6.83-3.03-.48.44-1.31,2.48-2.53,5.82-1.68,4.58-6.12,9.22-10.91,8.01Z"/>
              <path class="cls-7" d="M131.58,70.32c2.6,5.6,1.03,12.01-5.99,16.71.38-2.27-1.04-5.96.48-9.39,1.36-3.07,4.22-5.01,5.51-7.32Z"/>
              <path class="cls-7" d="M126.53,87.8c3.12-1.47,5.87-6.54,9.52-8.32,2.26-1.1,4.64-1.52,7.34-.79-.59.26-3.21,3.44-5.8,6.22-3.02,3.24-7.19,4.98-11.07,2.89Z"/>
              <path class="cls-7" d="M122.87,80.87c1.06,6.06-1.97,11.97-9.72,13.99.03-1.91.36-5.01,2.74-8.36,2.53-3.57,5.23-4.27,6.98-5.63Z"/>
              <path class="cls-7" d="M113.38,96.13c3.31-.51,8.29-5.1,11.75-5.5,2.09-.24,5.55-.03,7.16,1.22-1.35.54-3.49,2.19-6.46,4.09-3.27,2.09-8.6,3.26-12.45.19Z"/>
              <path class="cls-7" d="M112.44,87.64c-.93,7.06-5.95,11.22-14.12,11.59,1.34-1.74,1.65-4.68,5-7.36,3.01-2.41,6.49-2.14,9.12-4.23Z"/>
              <path class="cls-7" d="M98.22,100.16c5.04.1,8.87-2.38,12.56-2.03,1.88.18,5.05,1.17,6.68,2.99-.64-.09-3.38.84-6.66,2.09-4.72,1.8-10.61,1.31-12.58-3.06Z"/>
            </g>
          </g>
          <g>
            <g>
              <path class="cls-7" d="M6.09,92.55l-3.24,1.36c1.4.96,10.51,6.04,14.18,7.88l1.29-2.67c-1.28-.48-9.69-5-12.22-6.57Z"/>
              <path class="cls-7" d="M174.5,92.55l3.24,1.36c-1.4.96-10.52,6.04-14.18,7.88l-1.29-2.67c1.28-.48,9.69-5,12.22-6.57Z"/>
              <path class="cls-7" d="M90.3,126.89c25.35,0,50.45-5.94,76.68-18.06l-1.25-2.59c-28.48,13.16-53.5,17.74-75.43,17.74s-46.94-4.58-75.43-17.74l-1.25,2.59c26.23,12.12,51.34,18.06,76.68,18.06h0Z"/>
              <path class="cls-7" d="M165.49,74.01c-7.23,4.08-20.06,10.6-22.98,11.46l2.81,6.98c-18.38,6.85-37.54,10.57-55.03,10.57s-36.64-3.71-55.03-10.57l2.81-6.98c-2.92-.86-15.75-7.38-22.98-11.46l.29,3.48c2.78,1.61,15.44,8.36,16.12,8.6l-7.73,1.72-1.23,2.55c21.41,9.73,45.55,15.58,67.74,15.58h0c22.2,0,46.34-5.85,67.74-15.58l-1.23-2.55-7.73-1.72c.68-.24,13.33-7,16.12-8.6l.29-3.48Z"/>
            </g>
            <g>
              <path class="cls-6" d="M6.09,92.55c2.53,1.57,10.95,6.09,12.22,6.57l5.47-11.32,7.73-1.72c-.68-.24-13.33-7-16.12-8.6l.91,10.77-10.21,4.29Z"/>
              <path class="cls-6" d="M90.3,123.98c21.93,0,46.94-4.58,75.43-17.74l-7.68-15.88c-21.41,9.73-45.55,15.58-67.74,15.58s-46.34-5.85-67.74-15.58l-7.68,15.88c28.48,13.16,53.5,17.74,75.43,17.74h0Z"/>
              <path class="cls-6" d="M174.5,92.55c-2.53,1.57-10.95,6.09-12.22,6.57l-5.47-11.32-7.73-1.72c.68-.24,13.33-7,16.12-8.6l-.91,10.77,10.21,4.29Z"/>
            </g>
          </g>
          <g>
            <g>
              <path d="M125.53,7.46v37.27c-.35,12.14-4.41,23.39-11.55,31.62-9.46,10.88-16.42,14.08-23.67,16.69-7.25-2.61-14.21-5.81-23.67-16.69-7.15-8.22-11.21-19.48-11.55-31.62V7.46h70.45Z"/>
              <path class="cls-7" d="M124.56,8.44v36.3c-.34,11.89-4.36,22.89-11.32,30.98-9.16,10.66-16.43,13.84-22.94,16.29-6.5-2.44-13.77-5.63-22.94-16.29-6.96-8.09-10.98-19.1-11.32-30.98V8.44h68.51Z"/>
              <g>
                <path class="cls-6" d="M69.09,74.24c8.63,10.04,14.68,12.66,21.22,15.34,6.54-2.69,12.58-5.31,21.22-15.34,6.21-7.23,10.42-17.37,10.77-29.57v-10.67l-59.04,31.33c1.69,3.57,3.46,6.14,5.83,8.9Z"/>
                <polygon class="cls-4" points="58.31 10.7 58.31 44.49 122.29 10.7 58.31 10.7"/>
                <path class="cls-5" d="M58.31,44.49v.18c.23,8.12,1.94,14.32,4.94,20.67l59.04-31.33V10.7l-63.98,33.78Z"/>
              </g>
            </g>
            <g>
              <g>
                <g>
                  <path d="M70.81,56.03c3.7,0,6.7-3,6.7-6.7s-3-6.7-6.7-6.7-6.7,3-6.7,6.7,3,6.7,6.7,6.7Z"/>
                  <path class="cls-5" d="M69.6,54.39l-.66.49c1.22.43,2.54.42,3.74,0l-.66-.49,1.11-1.85,2.01-.45.26.78c.78-1.05,1.17-2.32,1.15-3.6l-.59.45-1.39-1.57.13-2.12h.81c-.74-1.08-1.81-1.85-3.02-2.23l.25.79-1.9.85-1.97-.85.25-.79c-1.24.38-2.3,1.18-3.02,2.23h.81s.2,2.06.2,2.06l-1.39,1.67-.66-.48c-.02,1.31.39,2.58,1.16,3.6l.26-.78,2.05.45,1.08,1.85Z"/>
                  <polygon points="70.78 46.75 73.29 48.56 72.39 51.31 69.32 51.31 68.41 48.49 70.78 46.75"/>
                </g>
                <g>
                  <path class="cls-5" d="M115.83,44.93c-1.58-.79-3.3.23-4.32,1.28-1.03-1.06-2.75-2.07-4.32-1.28-.77.38-1.55,1.21-2.12,1.97,1.63.38,2.29-1.82,4.49-.73.43.29.86.54,1.11,1.07l-.22.61h2.14l-.22-.61c.25-.52.68-.78,1.11-1.07,2.2-1.09,2.86,1.11,4.49.73-.57-.76-1.35-1.58-2.12-1.97Z"/>
                  <path class="cls-5" d="M113.89,48.82c-1.58-.79-3.3.23-4.32,1.28-1.03-1.06-2.75-2.07-4.32-1.28-.77.38-1.55,1.21-2.12,1.97,1.63.38,2.29-1.82,4.49-.73.43.29.86.54,1.11,1.07l-.22.61h2.14l-.22-.61c.25-.52.68-.78,1.11-1.07,2.2-1.09,2.86,1.11,4.49.73-.57-.76-1.35-1.58-2.12-1.97Z"/>
                  <path class="cls-5" d="M111.95,52.7c-1.58-.79-3.3.23-4.32,1.28-1.03-1.06-2.75-2.07-4.32-1.28-.77.38-1.55,1.21-2.12,1.97,1.63.38,2.29-1.82,4.49-.73.43.29.86.54,1.11,1.06l-.22.61h2.14l-.22-.61c.25-.52.68-.77,1.11-1.06,2.2-1.09,2.86,1.11,4.49.73-.57-.76-1.35-1.58-2.12-1.97Z"/>
                </g>
              </g>
              <g>
                <path d="M111.61,58.9c-.39-.4-.94-.61-1.51-.59l-7.86.4c-.37.02-.7.13-.99.3-.09-.3-.19-.59-.31-.88-1.01-2.43-3.26-4.55-6.55-6.22v-12.56h9.88c.8.61,1.77.95,2.76.95,2.52,0,4.57-2.04,4.57-4.57s-2.05-4.57-4.57-4.57c-.99,0-1.95.33-2.74.93h-4.64c.51-1.15,1.1-2.73,1.15-4.03.11-2.67-1.09-4.67-3.55-5.93-.94-.48-2-.73-3.02-.72l.78-3.77h-9.39l.78,3.77c-1.02,0-2.09.24-3.02.72-2.46,1.26-3.66,3.25-3.55,5.93.05,1.3.64,2.87,1.15,4.03h-4.64c-.79-.6-1.76-.93-2.74-.93-2.52,0-4.57,2.05-4.57,4.57s2.05,4.57,4.57,4.57c1,0,1.97-.34,2.76-.95h5.29c-1.02,1.64-1.88,3.72-1.88,6.09,0,4.05,2.17,7.24,6.47,9.52v11.44c-3.01-1.11-5.68-2.53-7.43-3.64l.83-.84c.54-.55.7-1.32.43-2.02-.27-.7-.92-1.16-1.68-1.19,0,0-7.86-.4-7.86-.4-.56-.03-1.11.18-1.51.59-.38.39-.56.95-.56,1.29l.54,8.08c.05.77.52,1.4,1.22,1.66.7.26,1.47.08,2-.46.04-.03,1.25-1.28,1.25-1.28,6.77,5.68,13.86,8.37,16.85,9.24,2.99-.88,10.08-3.56,16.85-9.24l1.25,1.27c.54.55,1.31.73,2.01.47.7-.26,1.15-.85,1.21-1.66l.55-7.85c.04-.56-.17-1.12-.56-1.52ZM86.22,47.15c-.65-1.2-.35-2.52,0-3.35v3.35ZM94.46,65.39s-.05.08-.08.12v-6.33c.93.75,2.12,2.66.08,6.21ZM101.53,62.95c.02-.14.04-.28.05-.41l.23.24c-.09.06-.19.12-.28.18Z"/>
                <path class="cls-5" d="M111.19,59.31c-.28-.28-.66-.43-1.06-.41l-7.86.4c-.53.03-1.02.31-1.21.78-.05.12-.08.22-.1.32-.1-.7-.28-1.38-.56-2.04-.99-2.38-3.25-4.45-6.6-6.09v-13.5h10.66c.71.6,1.62.95,2.56.95,2.21,0,3.98-1.81,3.98-3.99s-1.79-3.98-3.98-3.98c-.94,0-1.84.34-2.55.93h-5.76c.54-1.08,1.42-3.09,1.48-4.64.1-2.46-.96-4.22-3.23-5.38-1.04-.53-2.32-.78-3.48-.61l.79-3.82h-7.95l.79,3.82c-1.17-.17-2.44.07-3.48.61-2.27,1.16-3.33,2.92-3.23,5.38.06,1.55.95,3.55,1.48,4.64h-5.76c-.71-.59-1.61-.93-2.55-.93-2.2,0-3.98,1.79-3.98,3.98s1.78,3.99,3.98,3.99c.94,0,1.85-.34,2.56-.95h6.59c-1.21,1.66-2.4,3.98-2.4,6.68,0,3.9,2.18,6.97,6.47,9.16v12.64c-3.65-1.26-7.01-3.06-8.93-4.37l1.33-1.35c.37-.38.49-.92.31-1.4-.19-.48-.63-.79-1.17-.82l-7.86-.4c-.4-.02-.78.13-1.06.41-.28.28-.42.67-.39,1.07,0,0,.53,7.85.53,7.85.04.53.36.98.84,1.15.48.18,1.02.05,1.39-.33,0,0,.92-.93,1.63-1.65,6.98,6,14.59,8.77,16.89,9.43,2.3-.66,9.91-3.42,16.89-9.43l1.63,1.65c.38.38.91.51,1.39.33.48-.18.81-.62.84-1.15l.53-7.85c.03-.4-.12-.79-.39-1.07ZM86.81,48.79c-2.81-2.51-1.27-5.41,0-7.18v7.18ZM93.8,67.24v-9.31c3.75,2.47,2.51,6.34,0,9.31ZM100.67,64.14c.31-1.03.43-2.07.36-3.1.08.14,1.08,1.19,1.71,1.83-.57.39-1.27.82-2.07,1.27Z"/>
                <g>
                  <polygon class="cls-7" points="92.78 19.45 91.95 23.46 88.65 23.46 87.83 19.45 92.78 19.45"/>
                  <path class="cls-7" d="M91.57,32.83c.48-.73,1.17-2.22,1.17-3.62,0-2.51-1.73-4.34-2.44-4.34s-2.44,1.83-2.44,4.34c0,1.4.7,2.89,1.17,3.62h2.54Z"/>
                  <path class="cls-7" d="M91.91,24.28c.95-1.41,3.12-1.25,4.51-.54,1.7.87,2.65,2.12,2.57,4.25-.08,1.87-1.72,4.84-1.72,4.84h-4.2c.51-.99.98-2.33.98-3.62,0-2.05-.99-3.94-2.14-4.93Z"/>
                  <path class="cls-7" d="M88.7,24.28c-.95-1.41-3.12-1.25-4.51-.54-1.7.87-2.65,2.12-2.57,4.25.08,1.87,1.72,4.84,1.72,4.84h4.2c-.51-.99-.98-2.33-.98-3.62,0-2.05.99-3.94,2.14-4.93Z"/>
                  <path class="cls-7" d="M110.19,60.12l-7.86.4c-.1,0-.13.07-.06.15l2.31,2.34c-1.97,1.67-7,4.45-12,5.9h0s0-11.76,0-11.76c-.88-.49-1.92-.96-3.12-1.39-.5-.18-.97-.38-1.43-.58v13.73h0c-5-1.45-10.03-4.23-12-5.9l2.31-2.34c.07-.07.05-.14-.06-.15l-7.86-.4c-.1,0-.18.08-.18.18l.53,7.85c0,.1.07.13.15.05l2.43-2.47c4.61,4.16,10.54,7.77,16.95,9.82,6.41-2.05,12.34-5.66,16.95-9.82l2.43,2.47c.07.07.14.05.15-.05l.53-7.85c0-.1-.07-.19-.18-.18Z"/>
                  <path class="cls-7" d="M92.58,51.71v-14.16h12.37c.51.58,1.25.95,2.08.95,1.53,0,2.77-1.24,2.77-2.77s-1.24-2.77-2.77-2.77c-.82,0-1.56.36-2.07.93h-29.31c-.51-.57-1.24-.93-2.07-.93-1.53,0-2.77,1.24-2.77,2.77s1.24,2.77,2.77,2.77c.83,0,1.57-.37,2.08-.95h12.37v12.15c.79.48,1.81.97,3.11,1.44.5.18.98.37,1.44.57Z"/>
                  <path class="cls-7" d="M99.18,58.87c-1.09-2.62-4.01-4.85-8.49-6.48-5.97-2.17-6.76-4.88-6.76-6.94,0-2.58,2.23-5.24,2.87-5.91v-.76h-2.4c-1.06,1.27-2.75,3.72-2.75,6.68,0,4.06,2.72,7.06,8.25,9.08,3.85,1.4,6.34,3.22,7.17,5.22.89,2.13.18,4.67-.99,6.63.98-.41,1.92-.84,2.79-1.28.88-1.78,1.22-4.01.3-6.23Z"/>
                </g>
              </g>
            </g>
          </g>
        </g>
        <g>
          <path class="cls-5" d="M35.63,107.1c-.75,2.62-3.06,4.26-5.17,3.66-2.11-.6-3.21-3.21-2.46-5.83.75-2.62,3.06-4.26,5.17-3.66,2.11.6,3.21,3.21,2.46,5.83ZM32.35,101.52c-.82-.1-1.35,1.84-1.66,4.38-.31,2.54-.28,4.55.54,4.65.83.1,1.35-1.84,1.66-4.38.31-2.54.28-4.55-.54-4.65Z"/>
          <path class="cls-5" d="M50.6,111.6c-.4,2.7-2.48,4.62-4.65,4.3-2.17-.32-3.6-2.77-3.2-5.46.4-2.7,2.48-4.62,4.65-4.3,2.17.32,3.6,2.77,3.2,5.46ZM46.63,106.49c-.83,0-1.1,2-1.08,4.56.02,2.56.31,4.55,1.14,4.54.83,0,1.1-2,1.08-4.56-.02-2.56-.31-4.55-1.14-4.54Z"/>
          <path class="cls-5" d="M152.02,104.33c1.08,2.5.33,5.23-1.68,6.1-2.01.87-4.52-.45-5.6-2.95-1.08-2.5-.33-5.23,1.68-6.1,2.01-.87,4.52.45,5.6,2.95ZM145.95,102.09c-.7.45.12,2.28,1.49,4.44,1.37,2.16,2.67,3.7,3.37,3.26.7-.45-.12-2.28-1.49-4.44-1.37-2.16-2.67-3.7-3.37-3.25Z"/>
          <path class="cls-5" d="M103.72,108.22l-.02-.14,4.08-.54,3.03,6.35.89-6.87,4.08-.54.02.14c-.79.19-1.12.59-1,1.5.12.91,1.28,9.72,1.28,9.72.1.74.59,1.21,1.26,1.12l.02.12-5.18.68-.02-.12c.84-.25,1.16-.66,1.07-1.4-.1-.74-1.06-8.04-1.06-8.04h-.12s-1.37,10.16-1.37,10.16l-4.45-9.72-.1.04s.88,6.67,1.34,7.92c.46,1.25,1.03,1.46,1.57,1.44l.02.12-4.19.55-.02-.12c1.04-.33,1.36-1.11,1.38-1.86.1-2.72-.77-8.16-.94-8.98-.16-.82-.3-1.69-1.59-1.55Z"/>
          <path class="cls-5" d="M119.71,109.03c1.76-.43,2.9.3,3.16,1.51.27,1.21,1.13,5.1,1.19,5.39.06.29.21.54.53.47.32-.07.45-.36.37-.8l.09-.02c.14.46.13.93-.26,1.57-.39.63-1.42,1.07-2.13.68-.71-.39-.9-.75-.9-.75-.28.99-1.02,1.61-2.22,1.69-1.2.08-1.86-.95-2.05-1.81-.19-.87-.31-1.92.11-2.58.42-.66,1.4-.9,2.65-1.57.33-.18.41-.32.37-.74-.04-.43-.33-1.1-1.84-.77-1.51.33-1.76,1.2-1.79,1.28-.04.08-.11.06-.11-.01-.02-1.51,1.08-3.11,2.84-3.54ZM119.86,113.79c-.28.72.1,2.34.33,2.93s.38.88.85.77c.47-.11.57-.56.42-1.25l-.76-3.37c-.16.04-.57.18-.84.91Z"/>
          <path class="cls-5" d="M127.94,109.77s1.22,4.91,1.3,5.25c.13.51.4,1.07,1.16.89l.03.12-4.36,1.08-.03-.12c.49-.15.85-.59.68-1.29,0,0-1.41-5.67-1.53-6.15-.12-.48-.24-.97-1.21-.87l-.03-.11c1.4-.38,2.04-.72,3.21-1.35.2.82.43,1.57.43,1.57.01.05.11.09.13-.01.01-.1,0-2.19,1.99-2.32,0,0-.34,1.32-.14,2.39,0,0-.71-.18-1.05,0-.34.18-.51.39-.57.92Z"/>
          <path class="cls-5" d="M144.64,110.67c-.16-.5-1.72-5.52-1.72-5.52-.38-1.23-.9-2.08-2.34-1.63-1.13.35-1.81,1.73-1.85,1.78-.01.01-.03.02-.04.01-.21-.67-.34-1.11-.34-1.11-1.13.7-1.78,1.1-3.16,1.56l.03.11c.89-.18,1.1.4,1.24.87.15.48,1.85,5.92,1.85,5.92.21.69-.08,1.21-.67,1.37l.04.12,3.97-1.24-.04-.12c-.62.11-.76-.44-.91-.94-.11-.34-1.14-3.7-1.8-5.85-.01-.38.13-.72.5-.84.51-.16.85.15,1.03.7.15.48,1.76,5.63,1.76,5.63.21.69.02,1.09-.38,1.24l.04.12,4.05-1.26-.04-.12c-.48.15-.92.13-1.21-.8Z"/>
          <path class="cls-5" d="M157.98,99.27l-1.19,1.27c-.58-1.32-1.5-2.25-2.53-1.86-.81.3-.66,1.22-.5,1.66.16.44.66,1,1.26.92.6-.08,2.07-.3,2.97-.04.9.26,1.42.95,1.73,1.81.44,1.19.21,3.35-2.16,4.23-2.47.92-3.86-.81-4.28-1.48l1.39-1.14c.55,1.18,1.54,2.74,2.8,2.27.83-.31,1.07-1.14.73-2.04-.34-.91-1.32-1.07-2.23-.91-.92.16-2.67.55-3.48-1.1-.81-1.65-.57-3.69,1.7-4.53,2.27-.84,3.25.24,3.8.95Z"/>
          <g>
            <path class="cls-5" d="M133.2,103.9c.21.8-.24,1.61-1.02,1.82-.77.21-1.58-.27-1.79-1.07-.21-.8.24-1.61,1.02-1.82.78-.21,1.58.27,1.79,1.07Z"/>
            <path class="cls-5" d="M135.79,113.43c-.14-.51-2.08-7.75-2.08-7.75-1.11.63-1.86.97-3.15,1.36l.04.14c.8-.03.92.41,1.04.86.13.48,1.64,6.12,1.64,6.12.19.7-.17,1.12-.66,1.28l.03.12,4.34-1.17-.03-.12c-.76.19-1.04-.34-1.17-.85Z"/>
          </g>
          <path class="cls-5" d="M91.34,108.73v.12c.86.07,1.17.56,1.2,1.83,0,0,.18,8.64.19,9.11,0,.47-.16,1.33-1.18,1.52v.11s5.38-.11,5.38-.11v-.11c-.89-.04-1.28-.75-1.3-1.5l-.1-4.66c.41-.06.89-.03,1.49.28.44.22.94.57,1.05,1.57h.13s-.09-4.34-.09-4.34h-.13c.01.61-.04.87-.78,1.48-.57.47-1.35.43-1.68.4l-.11-5.26c.91-.21,2.78.55,3.12,2.35h.13s-.06-2.92-.06-2.92l-7.26.15Z"/>
          <path class="cls-5" d="M24.33,102.54s-.98,2.33-1.16,2.76c-.3.72-.98,1.51-1.9,1.11l-.04.1,4.73,1.99.04-.1c-.78-.27-.78-1.1-.49-1.78l1.3-3.08s2.44-2.74,3.64-3.94c1.2-1.2,2.41-1.87,2.74-1.79l.04-.09-3.19-1.34-.04.09c.64.41.56.9.23,1.64s-1.74,2.77-3.01,4.09c-.07.07-.13.08-.13.08,0,0,.05-4.42.12-5.27.07-.84.49-1.45,1.12-1.24l.04-.09-4.42-1.86-.04.09c.64.36.71.9.66,1.95-.04.97-.24,6.68-.24,6.68Z"/>
          <path class="cls-5" d="M64.38,109.82c1.78.31,2.53,1.44,2.29,2.65-.24,1.21-1,5.13-1.06,5.42-.06.29-.02.58.29.64.32.06.56-.15.66-.59l.09.02c-.06.48-.25.91-.86,1.34-.61.43-1.73.42-2.22-.23-.5-.64-.52-1.05-.52-1.05-.65.79-1.58,1.07-2.71.66-1.13-.41-1.33-1.61-1.16-2.48.17-.87.48-1.88,1.13-2.32.65-.44,1.64-.26,3.05-.38.37-.03.5-.13.63-.53.13-.41.13-1.14-1.38-1.44-1.51-.3-2.09.4-2.15.46-.07.06-.13.01-.1-.06.58-1.39,2.23-2.42,4.01-2.11ZM62.64,114.26c-.55.55-.85,2.19-.88,2.82-.03.63,0,.96.47,1.05.48.09.75-.29.88-.97l.66-3.39c-.16-.03-.59-.06-1.14.49Z"/>
          <path class="cls-5" d="M83.67,111.62c1.81.03,2.73,1.02,2.68,2.26-.05,1.24-.19,5.22-.2,5.52-.01.3.07.58.39.59.32.01.53-.24.56-.68h.09c.02.48-.11.94-.64,1.46-.54.52-1.64.68-2.23.12-.59-.56-.68-.96-.68-.96-.52.89-1.39,1.31-2.57,1.08-1.18-.23-1.56-1.39-1.53-2.27.03-.89.18-1.93.75-2.47.58-.53,1.58-.52,2.96-.85.36-.09.47-.2.54-.63.07-.42-.05-1.15-1.59-1.2-1.54-.06-2,.72-2.06.79-.06.07-.12.03-.11-.04.36-1.47,1.82-2.74,3.63-2.71ZM82.64,116.27c-.45.63-.5,2.29-.43,2.92.07.63.14.95.63.96.48.02.7-.4.72-1.1l.13-3.45c-.16,0-.59.03-1.05.66Z"/>
          <path class="cls-5" d="M57.55,116.98c.13-.51,1.4-5.44,1.4-5.44.29-1.11.62-2.28-1.12-2.73-1.15-.3-2.48.49-2.54.51-.03.01-.06-.02-.08-.07.66-2.55,1.25-4.86,1.25-4.86-1.75,0-2.12.03-3.62-.28l-.03.11c.9.38.78.86.65,1.34-.12.48-2.52,9.76-2.52,9.76-.18.7-.7.89-1.2.79l-.03.12,4.04,1.04.03-.12c-.51-.28-.42-.72-.29-1.23.07-.25.81-3.13,1.53-5.94.21-.31.52-.51.88-.41.52.13.72.53.58,1.09-.12.48-1.47,5.71-1.47,5.71-.18.7-.39.97-.89.87l-.03.12,4.04,1.04.03-.12c-.47-.13-.85-.38-.6-1.31Z"/>
          <path class="cls-5" d="M78.14,119.66c.06-.52.67-5.63.67-5.63.15-1.28.04-2.38-1.46-2.55-1.18-.14-2.23.76-2.29.79,0,0-.02,0-.03,0-.13-.65-.52-1.13-1.46-1.24-.97-.11-1.81.54-2.12.8.08-.66.13-1.09.13-1.09-1.32.18-2.08.24-3.52.1v.11c.93.25.87.73.82,1.23-.06.5-.78,6.57-.78,6.57-.08.72-.55.76-1.06.72v.12s3.88.46,3.88.46v-.12c-.34-.17-.38-.42-.32-.95.05-.38.54-4.56.81-6.82.17-.2.38-.32.61-.29.53.06.54.44.48,1.01-.06.5-.72,6.07-.72,6.07-.08.72-.27.94-.66.99v.12s3.57.43,3.57.43v-.12c-.24-.08-.44-.21-.33-1.17.06-.52.67-5.63.67-5.63.04-.31.06-.6.05-.88.16-.27.39-.46.67-.43.53.06.6.49.53,1.07-.06.5-.72,6.07-.72,6.07-.08.72-.27.94-.66,1v.12s4,.48,4,.48v-.12c-.48-.06-.88-.26-.76-1.22Z"/>
          <path class="cls-5" d="M41.67,112.99c-.08-.44-.31-6.3-.31-6.3.79-.84,1.93-1.38,2.71-1.16l.05-.13-2.72-.95-.04.1c.43.15.66.79.12,1.54-.47.64-1.92,1.88-2.35,2.23,1.16-3.31,2.81-8.03,2.81-8.03-1.75-.14-2.17-.32-3.64-.74l-.04.1c.87.45.79,1.01.62,1.48-.16.47-3.33,9.52-3.33,9.52-.24.68-.77.83-1.27.69l-.04.12,4.21,1.47.04-.12c-.71-.26-.64-.86-.47-1.35.05-.14.38-1.1.84-2.39l.1-.04.28,4.18,3.07,1.07.04-.1c-.45-.25-.62-.75-.7-1.18Z"/>
          <path class="cls-5" d="M103.69,114.61c.05.82-.56,1.53-1.36,1.58-.8.05-1.49-.58-1.54-1.41-.05-.82.56-1.53,1.36-1.58.8-.05,1.49.58,1.54,1.41Z"/>
        </g>
      </g>
    </g>
  </g>
</svg>