<?xml version="1.0" encoding="UTF-8"?>
<svg id="_レイヤー_2" data-name="レイヤー 2" xmlns="http://www.w3.org/2000/svg" xmlns:xlink="http://www.w3.org/1999/xlink" viewBox="0 0 426.45 445.06">
  <defs>
    <style>
      .cls-1 {
        fill: none;
      }

      .cls-2 {
        fill: #221815;
      }

      .cls-3 {
        fill: #ffe100;
      }

      .cls-4 {
        fill: #f0831e;
      }

      .cls-5 {
        fill: #fff;
      }

      .cls-6 {
        fill: #003686;
      }

      .cls-7 {
        fill: #00a0e9;
      }

      .cls-8 {
        clip-path: url(#clippath);
      }
    </style>
    <clipPath id="clippath">
      <path class="cls-1" d="M390.94,220.08c.07-12.49-5.34-22.53-15.6-29.03-.69-.44-1.39-.87-2.1-1.27-.77-.43-1.55-.84-2.34-1.22-11.64-5.67-23.69-4.48-34.15-2.53-5.83,1.33-9.45,2.5-11.74,3.46-1.46-1.46-3.03-2.84-4.74-4.07-.97-.67-6.37-4.22-14.15-5.76-.48-2.23-.98-3.97-1.26-4.88-.01-.05-.23-.79-.25-.84-1.29-3.88-4.26-11.63-9.68-19.89-6.8-10.34-15.02-17.72-24.49-21.96-15.15-6.65-29.01-3.93-42.64,8.55-6.19,6.4-11.53,14.18-15.87,23.1-.54,1.12-4.52,10.56-4.96,11.86-1.56,4.27-6.56,19.27-5.14,33.02.89,10.47,5.87,20.98,13,27.42.12.11.54.44.67.53,7.94,6.03,16.67,9.07,25.99,9.07,1.13,0,2.27-.05,3.42-.13,12.05-.93,21.23-4.61,21.51-4.72,1.18-.45,2.22-.93,3.33-1.4,3.32,4.59,7.6,8.48,12.65,11.05,6.29,3.17,11.23,4.29,15.81,4.29.67,0,1.31-.14,1.97-.18.25.54.51,1.09.92,1.73,9.83,18.52,24.19,24.87,33.25,24.47.58.03,1.17.05,1.76.05,15.78,0,33.72-11.18,44.46-28.18l.53-.88c3.53-5.77,8.87-14.5,9.85-31.66Z"/>
    </clipPath>
  </defs>
  <g id="_レイヤー_1-2" data-name="レイヤー 1">
    <g>
      <path class="cls-7" d="M426.45,227.54c0,117.76-84.41,196.43-213.22,196.43S0,345.31,0,227.54,95.46,14.32,213.22,14.32s213.22,95.46,213.22,213.22Z"/>
      <g>
        <g>
          <path class="cls-2" d="M419.51,296.1c-1.3-.72-2.84-1.24-3.8-1.44-6.81-1.4-13.64-2.18-20.31-2.33-3.7-.08-7.16,0-10.49.16-1.79-20.11-8.09-39.31-19.27-58.28,1.62-9.72,2.12-22.36,2.53-32.66l.21-5.17c.84-18.75-5.88-43.26-14.38-52.46-2.12-2.29-5.31-4.04-8.12-4.45-21.54-3.21-49.87,5.35-81.73,24.67l-4-.59c-26.18-3.9-58.77-8.75-103.06,1.53-1.4.32-2.95.78-4.54,1.26-2.37.71-6.76,1.98-7.92,1.68-8.49-4.64-30.28-15.71-49.14-18.49-17.53-2.61-29.09.83-34.52,10.31-15.37,28.86-7.65,69.07-4.44,79.47-16,31.01-15.7,63.87-15.6,67.47-.01.84.03,1.72.04,2.58-.84.06-1.6.09-2.48.16-8.93.71-17.8,1.58-28.07,4.44-3.34.92-6.41,3.14-5.81,5.59.47,1.92,2.84,2.35,4.83,2.35,1.54,0,2.85-.25,2.89-.26,10.63-2.16,16.02-2.75,23.47-3.55l3.14-.34c.81-.09,1.61-.13,2.42-.2.81,9.68,2.85,19.99,6.48,30.18-4.44,1.67-9.56,3.89-15.71,7.07-.04.02-3.98,2.08-4.74,4.62-.23.78-.15,1.56.23,2.24.62,1.11,1.92,1.46,3.31,1.46,2.3,0,4.82-.95,4.86-.96,1.84-.81,3.57-1.58,5.21-2.31,3.72-1.66,6.96-3.05,10-4.23,3.93,8.9,9.09,17.53,15.73,25.34-6.84,3.96-15.09,9.33-24.43,16.6-1.94,1.52-3.19,3.46-3.41,5.32-.12,1.04.11,1.99.65,2.67.41.51,1.18.73,2.1.73,1.62,0,3.71-.68,5.14-1.7,10.26-7.27,19.16-12.89,26.15-17.04,7.51,7.31,16.5,13.67,27.22,18.49,35.27,15.84,67.77,19.4,108.95,20l4.04-.06,4.36.06c47.38-.69,84.81-7.46,111.26-20.11,15.35-7.34,27.56-17.24,36.7-29.54,7.64,2.61,16.9,6.62,25.83,12.67,1.14.79,3.45,2.16,5.5,2.16.92,0,1.79-.27,2.47-1.01.29-.3.61-.85.53-1.73-.17-1.86-2.23-4.46-3.56-5.43-9.12-6.66-18.29-10.95-26.01-13.74,5.25-8.67,9.17-18.37,11.72-29.12,5.64.9,12.22,2.35,19.44,4.77.04,0,2.17.71,4.26.71,1.57,0,3.11-.39,3.7-1.78.27-.63.26-1.33-.03-2.02-1.04-2.48-5.38-4.32-5.43-4.33-7.12-2.82-14.12-4.47-20.3-5.49,1.35-8.14,2-16.8,1.93-26,.02-1.57-.07-3.12-.1-4.67,2.94-.16,5.97-.26,9.16-.22,4.96.05,10.48.42,15.35.74,1.52.1,2.99.19,4.4.28,3.19.18,7.1-.41,7.57-2.73.17-.81-.11-2.03-2.36-3.29Z"/>
          <path class="cls-5" d="M354.53,234.23c1.76-9.13,2.29-22.42,2.71-33.11l.22-5.22c.76-16.97-5.67-38.25-11.49-44.55-.51-.56-1.4-.99-1.72-1.06-18.78-2.76-45.27,5.51-74.57,23.31-2.08,1.26-3.22,1.95-5.23,1.65l-5.91-.87c-25.25-3.76-56.69-8.45-98.98,1.36-1.2.27-2.52.67-3.88,1.08-5.38,1.6-11.46,3.43-16.3.79-7.98-4.35-28.38-14.75-45.5-17.28-12.59-1.85-20.45-.25-23.34,4.78-10.47,19.65-8.42,46.45-5.73,61.45.72-.85,1.42-1.62,2.07-2.27,2.63-2.63,5.32-3.6,7.16-2.33,1.91,1.32,1.15,4.66-.08,7.33-1.22,2.65-3.69,7.76-5.63,11.18,0,0,0,.01,0,.02-16.85,29.6-16.54,62.53-16.45,66.2,0,.74.03,1.51.04,2.26,9.31.02,14.99,1,17.89,1.74l.21.05c.06.01,7.62,1.41,7.18,5.04-.39,3.23-4.98,2.99-7.2,2.87l-.82-.06c-2.44-.37-8.96-1.24-16.86-1.4.79,8.79,2.71,18.09,6.01,27.25,4.52-1.04,7.71-1.28,9.83-1.4l.29-.02c2.79-.15,9.39-.25,9.73,3.07.3,2.87-4.87,4.24-7.11,4.7-1.04.21-2.16.36-3.41.53-1.75.24-3.74.52-6.09,1.02,3.77,8.24,8.76,16.15,15.14,23.24,6.63-3.22,10.45-4.4,10.53-4.42.06-.03,6.57-1.68,7.84,1.28,1.09,2.56-1.67,3.92-4.33,5.24-.85.42-1.74.86-2.55,1.35,0,0-.09.05-.26.13-1.03.51-2.75,1.4-5.02,2.62,6.17,5.56,13.32,10.43,21.71,14.2,33.54,15.07,64.84,18.45,104.45,19.04l4.04-.06,4.36.06c44.98-.67,81.88-7.25,106.54-19.04,12.36-5.91,22.38-13.54,30.16-22.9-3.71-.86-5.98-1.18-6.04-1.19-1.42-.14-5.85-1.17-7.34-3.19-.44-.61-.61-1.28-.47-1.94.75-3.62,7.32-2.9,10.09-2.43.35.03,3.75.38,9.03,1.65,5.2-7.94,9.03-16.98,11.53-27.11-2.33-.14-4.2-.17-5.48-.17-2.44.01-5.28-.05-5.28-.05-.74-.07-6.59-.76-6.82-3.68-.03-.39.05-1,.6-1.64,1.31-1.53,4.62-2.39,6.03-2.5l.31-.03c.84-.08,3.07-.3,5.31-.32h.61c1.62,0,3.81.05,6.42.22,1.29-7.68,1.93-15.9,1.86-24.74.01-1.24-.06-2.46-.09-3.69-6.85.85-12.47,1.97-16.3,2.74-1.96.39-3.38.68-4.24.78-1.38.2-2.56.3-3.55.3-2.31,0-3.58-.56-4-1.72-.29-.84-.23-1.74.18-2.59.74-1.52,2.53-2.81,5.19-3.72,2.09-.71,10.2-3.2,22.24-4.67-1.72-19.09-7.86-37.28-18.78-55.31-.7-1.16-.95-2.54-.69-3.87Z"/>
        </g>
        <g>
          <path class="cls-2" d="M115.31,315.91c-3.5,7.1-3.52,18.45,1.21,24.48,2.92,3.45,7.8,5.41,14.09,4.33,5.43-.94,8.52-5.9,9.55-9.85,2.23-8.84-.14-19.68-5.23-23.79-5.36-3.91-15.39-3.82-19.61,4.83Z"/>
          <path class="cls-2" d="M285.41,316.95c-3.5,7.1-3.52,18.45,1.21,24.48,2.92,3.45,7.8,5.41,14.09,4.33,5.43-.94,8.52-5.9,9.55-9.85,2.23-8.84-.14-19.68-5.23-23.79-5.36-3.91-15.39-3.82-19.61,4.83Z"/>
          <g>
            <path class="cls-2" d="M230.45,347.66c-1.17-4.16-4.32-7.43-8.44-8.76-7.86-2.55-15.82-1.48-20.77,2.79-5.16,4.56-5.41,12.65-2.19,16.84,2.99,3.88,7.72,5.9,14.48,6.2.31.01.63.02.94.02,5.41,0,10.44-1.98,13.31-5.27v-.02c2.83-3.28,3.82-7.69,2.67-11.81Z"/>
            <path class="cls-3" d="M219.9,345.41c-2.1-.68-4.24-1.01-6.25-1.01-3.19,0-6.05.84-7.91,2.45-2.45,2.17-2.29,6.18-1.26,7.52,1.68,2.18,4.74,3.34,9.35,3.54,4.27.17,7.46-1.38,8.79-2.9,1.34-1.56,1.79-3.55,1.24-5.49-.54-1.94-2.02-3.48-3.96-4.11Z"/>
          </g>
        </g>
      </g>
      <g>
        <g>
          <path class="cls-2" d="M174.31,405.74c-1.48-4.63-4.48-8.3-7.74-11.99-11.57-11.1-31.76-15.56-47.81-10.64-11.58,3.03-24.94,13.2-26.89,28.3-1.79,11.76,2.42,22.06,11.65,27.76,9.31,4.78,19.42,4.67,29.7-.17.87-.33,1.3-.24,3.57.72,1.42.61,3.17,1.34,5.28,1.7,3.57,1.03,6.76,1.46,9.57,1.46,7.46,0,12.38-3.02,15.44-6.04,7.97-7.84,10.94-20.61,7.23-31.1Z"/>
          <path class="cls-5" d="M163.97,409.33c-.03-.07-.05-.13-.07-.2-.84-2.65-3.05-5.31-5.25-7.82-8.41-8.05-24.41-11.47-36.92-7.67-8.41,2.21-17.79,9.67-19.04,19.29-.55,3.62-1.01,12.25,6.19,16.72,5.93,3.02,12.4,2.87,20-.7,1.9-.75,3.63-1.02,5.18-1.02,2.92,0,5.24.98,6.98,1.72,1.12.47,2.08.88,2.97,1.01.27.04.53.09.78.17,6.51,1.94,11.44,1.34,14.59-1.78,4.91-4.82,6.87-13.3,4.58-19.71Z"/>
        </g>
        <g>
          <path class="cls-2" d="M338.19,413.7c-1.98-15.21-15.33-25.39-26.69-28.34-16.27-4.97-36.47-.53-48.34,10.91-2.82,3.2-5.95,7-7.44,11.65-3.71,10.49-.74,23.27,7.22,31.1,3.07,3.03,8,6.05,15.45,6.05,2.81,0,5.99-.43,9.57-1.46,2.11-.36,3.86-1.1,5.28-1.7,2.29-.98,2.71-1.06,3.23-.88,10.61,5,20.73,5.1,30.44.1,8.83-5.48,13.04-15.78,11.27-27.43Z"/>
          <path class="cls-5" d="M327.35,415.23c-1.27-9.74-10.64-17.21-18.84-19.34-3.53-1.08-7.32-1.6-11.13-1.6-9.92,0-20.02,3.48-26.32,9.53-1.88,2.17-4.1,4.83-4.94,7.48-.02.07-.04.13-.07.2-2.29,6.41-.33,14.89,4.56,19.7,3.17,3.11,8.06,3.72,14.6,1.78.25-.07.51-.13.78-.17.89-.13,1.85-.53,2.97-1.01,2.67-1.14,6.69-2.83,11.82-.85,7.93,3.73,14.41,3.87,20.73.63,6.81-4.24,6.35-12.88,5.82-16.38Z"/>
        </g>
      </g>
      <g>
        <g class="cls-8">
          <rect class="cls-6" x="238.29" y="123.19" width="112.23" height="181.97" transform="translate(-24.13 390.48) rotate(-65)"/>
          <rect class="cls-7" x="288.61" y="91.13" width="41.48" height="181.97" transform="translate(13.56 385.51) rotate(-65)"/>
          <rect class="cls-5" x="279.23" y="122.47" width="31.02" height="181.97" transform="translate(-23.28 390.36) rotate(-65)"/>
        </g>
        <path class="cls-1" d="M390.94,220.08c.07-12.49-5.34-22.53-15.6-29.03-.69-.44-1.39-.87-2.1-1.27-.77-.43-1.55-.84-2.34-1.22-11.64-5.67-23.69-4.48-34.15-2.53-5.83,1.33-9.45,2.5-11.74,3.46-1.46-1.46-3.03-2.84-4.74-4.07-.97-.67-6.37-4.22-14.15-5.76-.48-2.23-.98-3.97-1.26-4.88-.01-.05-.23-.79-.25-.84-1.29-3.88-4.26-11.63-9.68-19.89-6.8-10.34-15.02-17.72-24.49-21.96-15.15-6.65-29.01-3.93-42.64,8.55-6.19,6.4-11.53,14.18-15.87,23.1-.54,1.12-4.52,10.56-4.96,11.86-1.56,4.27-6.56,19.27-5.14,33.02.89,10.47,5.87,20.98,13,27.42.12.11.54.44.67.53,7.94,6.03,16.67,9.07,25.99,9.07,1.13,0,2.27-.05,3.42-.13,12.05-.93,21.23-4.61,21.51-4.72,1.18-.45,2.22-.93,3.33-1.4,3.32,4.59,7.6,8.48,12.65,11.05,6.29,3.17,11.23,4.29,15.81,4.29.67,0,1.31-.14,1.97-.18.25.54.51,1.09.92,1.73,9.83,18.52,24.19,24.87,33.25,24.47.58.03,1.17.05,1.76.05,15.78,0,33.72-11.18,44.46-28.18l.53-.88c3.53-5.77,8.87-14.5,9.85-31.66Z"/>
        <path class="cls-2" d="M390.94,220.08c.07-12.49-5.34-22.53-15.6-29.03-.69-.44-1.39-.87-2.1-1.27-.77-.43-1.55-.84-2.34-1.22-11.64-5.67-23.69-4.48-34.15-2.53-5.83,1.33-9.45,2.5-11.74,3.46-1.46-1.46-3.03-2.84-4.74-4.07-.97-.67-6.37-4.22-14.15-5.76-.48-2.23-.98-3.97-1.26-4.88-.01-.05-.23-.79-.25-.84-1.29-3.88-4.26-11.63-9.68-19.89-6.8-10.34-15.02-17.72-24.49-21.96-15.15-6.65-29.01-3.93-42.64,8.55-6.19,6.4-11.53,14.18-15.87,23.1-.54,1.12-4.52,10.56-4.96,11.86-1.56,4.27-6.56,19.27-5.14,33.02.89,10.47,5.87,20.98,13,27.42.12.11.54.44.67.53,7.94,6.03,16.67,9.07,25.99,9.07,1.13,0,2.27-.05,3.42-.13,12.05-.93,21.23-4.61,21.51-4.72,1.18-.45,2.22-.93,3.33-1.4,3.32,4.59,7.6,8.48,12.65,11.05,6.29,3.17,11.23,4.29,15.81,4.29.67,0,1.31-.14,1.97-.18.25.54.51,1.09.92,1.73,9.83,18.52,24.19,24.87,33.25,24.47.58.03,1.17.05,1.76.05,15.78,0,33.72-11.18,44.46-28.18l.53-.88c3.53-5.77,8.87-14.5,9.85-31.66ZM262.41,230.6c-.08.03-8.08,3.2-18.37,4-11.87.92-19.45-4.85-21.88-6.66-5-4.53-8.79-12.66-9.45-20.34-1.18-11.51,3.16-24.52,4.61-28.48.39-1.06,3.95-9.57,4.44-10.59,3.84-7.89,8.52-14.72,13.66-20.06,10.24-9.37,19.41-11.29,30.57-6.38,7.49,3.36,14.15,9.4,19.77,17.96,4.92,7.49,7.54,14.61,8.32,16.91l.28.99c.1.33.23.76.37,1.26-3.12.38-6.39,1.21-9.76,2.67-.86.37-1.62.86-2.44,1.29-1.82-1.99-4.05-3.77-6.3-5.03-6.73-3.79-14.11-3.84-20.25-.13-6.59,4-10.46,11.71-9.86,19.44.23,6.03,2.69,11.16,7.12,14.82,2.87,2.37,6.27,3.78,9.4,4.6,0,.53-.07,1.05-.05,1.58.03,3.82.78,7.6,2.04,11.21-.76.31-1.43.63-2.24.94ZM264.12,205.91c-1.43-.51-2.96-1.24-4.22-2.39-1.79-1.63-2.7-3.75-2.82-6.7-.29-3.87,1.51-7.58,4.61-9.47,2.17-1.32,4.47-1.53,7.04-.66,2.02.68,3.67,1.86,4.9,2.98-4.48,4.46-7.75,9.99-9.5,16.23ZM306.89,242.3c-7.63,2.01-11.53,2.43-19.54-1.62-8.18-4.17-13.72-13.13-13.78-22.46-.43-11.82,5.62-21.89,15.78-26.29,3.44-1.49,6.75-2.04,9.77-2.05,8.05,0,14.03,3.93,14.85,4.49,9.03,6.49,13.34,17.88,10.69,28.51-2.49,11.49-10.8,17.57-17.75,19.43ZM371.63,246.24l-.6,1.01c-8.69,13.74-23.71,23.26-36.56,22.57-6.52.09-15.93-5.16-23.02-17.53,4.14-1.36,8.46-3.71,12.35-7.14,1.96,1.41,4.3,2.61,7,3.2,1.02.22,2.2.38,3.49.38,3.21,0,7.18-.98,11.47-4.38,4.81-4.81,6.44-10.35,4.85-17.49-2.82-8.54-9.53-11.12-14.31-12.03-.27-5.63-1.81-11.14-4.48-16.14,2.05-.65,4.64-1.36,7.15-1.93,8.49-1.57,18.35-2.62,27.19,1.67.59.28,1.14.57,1.7.89.53.3,1.04.61,1.59.96,7.15,4.53,10.61,10.99,10.57,19.46-.82,14.14-4.94,20.88-8.38,26.5ZM335.17,225.81c2.53.61,4.13,1.69,4.89,3.93.65,2.96.13,4.69-1.56,6.43-1.71,1.35-3.44,1.83-5.18,1.51-.94-.17-1.76-.57-2.49-1,1.88-3.16,3.39-6.77,4.33-10.89Z"/>
      </g>
    </g>
    <g>
      <path class="cls-5" d="M135.52,41.89V12.97l-2-.1s-.99-.05-.99-.05c-2.14-.1-3.9-1.71-4.19-3.83,0,0-.11-.78-.11-.78l-.22-1.59-1.59-.21-.79-.11S79.21.07,79.21.07c-.95-.09-2.21-.1-3.07-.01q-.06,0-46.46,6.2s-.79.11-.79.11l-1.6.21-.21,1.6-.1.79c-.29,2.19-2.17,3.85-4.38,3.87,0,0-1.03,0-1.03,0h-2.09v29.05c0,.45.16,4.46.16,4.46,0,19.63,4.99,39.76,14.05,56.66,10.23,19.09,25.01,32.99,42.74,40.2,0,0,.39.16.39.16l.79.32.79-.32.39-.16c17.73-7.21,32.5-21.11,42.74-40.2,9.06-16.9,14.05-37.02,14.05-56.66v-1.04s-.05-2.96-.05-3.42Z"/>
      <g>
        <g>
          <g>
            <path class="cls-7" d="M132.43,45.31H21.73v1.04c0,19.29,4.9,39.06,13.8,55.67,10,18.65,24.41,32.22,41.68,39.24l.39.16.39-.16c17.27-7.02,31.68-20.59,41.68-39.24,8.9-16.6,13.8-36.37,13.8-55.67v-1.04h-1.04Z"/>
            <path class="cls-6" d="M117.83,101.03c-9.69,18.08-23.6,31.25-40.23,38.13-16.64-6.88-30.54-20.06-40.23-38.13-8.58-16.01-13.37-35.02-13.54-53.64h107.55c-.17,18.63-4.96,37.63-13.54,53.64Z"/>
          </g>
          <g>
            <path class="cls-5" d="M125.17,53.87l-.46-.7-1.12-.84-.19.11-.16,1.54.08.61c.05.43-.09,2.84-.47,4.16-.49,1.69-1.51,2.87-2.7,4.25-1.46,1.69-3.11,3.61-4.05,6.85-1.09,3.78-1.65,8.5-.44,10.53l.09.15c-.24-.32-.85-1.16-.85-1.16l-.62,1.47c-.13.31-1.15,1.85-1.89,2.57-1.26,1.22-3.2,2.19-4.61,2.91-.95.48-1.56.79-1.95,1.1.32-1.12.82-2.42,1.49-3.75.36-.72.79-1.36,1.29-1.97.32-.33,2.81-2.88,3.82-5.48.92-2.1,1.32-4.4,1.27-7.23,0-.75.07-1.89.14-3.22.3-4.94.7-11.71-1.24-14.6l-1.3-1.02-.33,1.76c.07.27,0,.54-.13.99-.11.38-.23.8-.24,1.31-.2,7.94-2.82,14.4-7.78,19.22-2.34,2.27-4.86,3.99-7.54,5.81-1.06.72-2.15,1.46-3.25,2.25-3.41,2.53-6.07,4.93-8.45,7.67,0,0,0,0,0,0,.53-1.69,2.61-7.36,7.2-9.17l3.28-1.3-3.5-.45c-2.33-.3-3.61-.12-4.75.4.21-.23.43-.45.65-.63,0,0,.02-.02.03-.02l.02-.02s.95-.84,3.08-1.68l4.82-1.89-5.18.14c-4.23.12-8.43,1.47-11.38,3.16-.31-.32-.69-.6-1.15-.84-1.33-.69-2.89-.81-4.16-.33-1.16.44-2.07.5-2.5.17-.43-.33-.45-1.1-.4-1.7.04-.41.79-1.34,1.19-1.7.53-.47.55-.59.73-.95,0,0,.09-.5.07-.54l-.61-.08-.77.06c-5.28,2.16-5.51,4.81-5.32,6.3.08.62.3,1.19.6,1.7l.08,1.17c.1,2.07,1,3.08,1.8,3.59,1.1.7,2.5.73,3.8.19.4-.17.74-.37,1.05-.6-.53,1.54-.68,3.5-.72,4.96-2.36-2.71-5.02-5.11-8.42-7.64-1.09-.79-2.18-1.53-3.24-2.25-2.67-1.82-5.19-3.53-7.54-5.81-4.96-4.82-7.58-11.28-7.78-19.22-.01-.5-.13-.93-.24-1.31-.13-.45-.2-.72-.13-.99l-.4-1.85-1.24,1.11c-1.94,2.89-1.53,9.66-1.24,14.6.08,1.33.15,2.47.15,3.21-.05,2.85.35,5.15,1.26,7.21,1.03,2.63,3.51,5.19,3.84,5.51.51.6.93,1.24,1.29,1.97.67,1.33,1.17,2.63,1.49,3.75-.39-.31-1-.62-1.95-1.1-1.41-.71-3.35-1.69-4.61-2.91-.75-.72-1.76-2.26-1.89-2.57l-.62-1.48-.86,1.17.09-.15c1.2-2.03.64-6.75-.44-10.53-.93-3.24-2.59-5.16-4.05-6.85-1.19-1.37-2.21-2.56-2.7-4.25-.38-1.32-.52-3.73-.47-4.16l.08-.61-.1-2.15-.31.25-1.05,1.09-.46.7c-1.32,2-3.64,7.54-2.38,11.93.9,3.11,3.25,4.85,5.33,6.39,1.78,1.31,3.31,2.44,3.81,4.19l1.09,3.79.58,2.02.03-.04c-.16.36-.29.75-.33,1.11-.24,2.2.91,6.5,2.28,8.52.39.57.81,1.13,1.24,1.67l-.25-.03-.17.82c-.38,1.86-.43,6.64,1.81,9.5.05.06.1.13.16.19.59.99,1.32,1.89,2.16,2.66.09.09,2.27,2.29,4.59,4.2.39.32.81.68,1.24,1.06,1.85,1.61,4.16,3.62,7.77,5.52l.1.05.11.03c2.1.52,3.76.19,4.57-.92.35-.48.62-1.22.41-2.32.89.45,1.62.91,1.98,1.64l1.07,2.15.93,1.88.73-1.97c.58-1.55-.41-4.49-1.43-6.55-.95-1.91-2.18-2.91-3.27-3.79-.29-.24-.57-.46-.83-.7.77.1,1.51-.01,2.18-.12l.39-.06s1.8-.28,1.8-.28l-1.3-1.27c-.64-.62-1.16-1.27-1.55-1.91-1.31-2.16-1.36-4.41-1.41-6.59-.04-1.95-.1-3.97-1.08-5.8,1.19,1.07,2.44,2.43,3.33,3.89,1.45,2.38,1.63,4.33,1.8,6.21.15,1.66.31,3.37,1.38,5.13.43.7,1.12,1.8,1.71,2.66l.02.03.02.03c.25.3.5.65.75,1.02l.03.05h0s.08.13.08.13c.61.92,1.24,2.05,1.88,3.36.13.26.3.8.4,1.83-.21.71-.62,1.36-1.02,1.92l-.93,1.19-.89,1.14c-.59.6-1.17,1.27-1.78,1.98-1.09,1.28-2.21,2.6-3.42,3.4l-2.05,1.37,2.45.29c1.21.14,2.39-.01,3.55-.28-.4.4-.95.59-1.18.69-1.06.45-1.28.98-1.23,1.31.07.44.54.76,1.16.96,1.34.43,2.27.38,3.46.04-.37,1.05-.76,1.86-1.13,2.33l-.35.45.05.98c.12.73-.14,1.52-.14,1.52l1.92-.86c1.33-.66,2.47-1.47,3.42-2.42.21,1.81.56,3.43,1.05,4.92l.86,2.05.86-2.05c.09-.26.31-.6.52-.92.28-.42.57-.86.74-1.35l.02-.07v-.07c.13-.69.21-1.37.27-2.05.84.75,1.82,1.4,2.92,1.95l1.59.92.02-.72c.12-.22-.16-.85-.02-1.14l.05-1.04-.35-.45c-.37-.47-.56-.95-.93-2.02,1.21.36,2.61.41,3.86-.43,0,0,.96-.5.96-.88,0-.33-.65-.76-1.72-1.3l-.05-.02-.05-.02c-.25-.09-.49-.2-.72-.32,1.15.26,2.32.41,3.52.27l2.45-.29-2.05-1.37c-1.21-.81-2.33-2.12-3.42-3.4-.61-.71-1.18-1.38-1.78-1.98l-.89-1.14s-.93-1.19-.9-1.15c-.45-.64-.89-1.33-1.08-2.09.1-.95.26-1.46.39-1.71.64-1.31,1.27-2.44,1.88-3.36,0,0,.03-.05.07-.11l.02-.03.03-.05c.25-.37.51-.71.75-1.02l.02-.03.02-.03c.59-.86,1.28-1.95,1.71-2.66,1.07-1.76,1.23-3.47,1.38-5.13.17-1.88.35-3.83,1.8-6.21.89-1.46,2.14-2.82,3.33-3.89-.98,1.83-1.04,3.85-1.08,5.8-.05,2.18-.1,4.43-1.41,6.59-.39.64-.91,1.29-1.55,1.91,0,0-1.3,1.27-1.29,1.27l1.8.28.39.06c.67.1,1.41.22,2.18.12-.26.23-.54.46-.83.7-1.09.88-2.32,1.87-3.27,3.79-1.02,2.05-2,5-1.43,6.55l.73,1.97.93-1.88,1.07-2.15c.36-.73,1.1-1.18,1.98-1.64-.21,1.1.05,1.84.41,2.32.81,1.1,2.48,1.44,4.57.92l.11-.03.1-.05c3.61-1.9,5.92-3.91,7.77-5.52.44-.38.85-.74,1.24-1.06,2.32-1.92,4.5-4.11,4.56-4.17.87-.8,1.61-1.7,2.19-2.69.05-.06.11-.12.16-.2,2.24-2.86,2.18-7.64,1.81-9.5l-.17-.82-.25.03c.44-.54.86-1.1,1.24-1.67,1.37-2.01,2.52-6.31,2.28-8.52-.04-.36-.17-.75-.33-1.11l.03.04.58-2.02,1.09-3.79c.5-1.74,2.04-2.87,3.81-4.19,2.08-1.53,4.43-3.27,5.33-6.39,1.26-4.39-1.06-9.93-2.38-11.93ZM97.13,98.78c.21,2.07.16,4.72-.81,7.3-.1-1.03-.31-1.97-.53-2.65.66-1.44,1.07-3.19,1.34-4.65ZM110.55,96.57c.18-.16.36-.32.54-.49-.2.34-.41.67-.6.92-.73.93-1.6,1.65-2.73,2.24l2.8-2.67ZM68.81,82.26c-.13.02-.44.06-.95-.52.18.06.35.1.53.13.57.07,1.09.04,1.58-.05-.29.22-.63.37-1.16.44ZM47.44,99.24c-1.14-.59-2-1.3-2.73-2.24-.19-.25-.4-.57-.6-.92.18.17.36.33.54.49l2.8,2.67ZM58.06,98.78c.27,1.46.68,3.21,1.34,4.65-.22.68-.43,1.62-.53,2.65-.97-2.58-1.02-5.23-.81-7.3Z"/>
            <g>
              <path class="cls-6" d="M115.28,81.06l-.22-.3-.14.34c-.16.39-1.23,2.01-2.05,2.8-1.34,1.29-3.33,2.3-4.78,3.03-1.01.51-1.75.88-2.02,1.2-.44.52-1.02,1.51-1.35,2.12-.15-1.48.62-4.23,1.98-6.91.39-.78.85-1.47,1.4-2.12.1-.1,2.68-2.68,3.71-5.3.88-1.99,1.26-4.2,1.21-6.94,0-.77.07-1.92.15-3.26.27-4.57.69-11.47-1.12-14.17l-.37.17c.12.47,0,.88-.13,1.36-.1.35-.2.72-.22,1.13-.21,8.13-2.9,14.76-8,19.7-2.39,2.32-4.93,4.05-7.63,5.88-1.05.72-2.14,1.46-3.22,2.24-3.88,2.88-6.78,5.59-9.38,8.8,0,0-.08.1-.16.21-.01-.53-.03-1.12-.07-1.82.02-.11.05-.21.07-.29.55-1.77,2.73-7.68,7.61-9.61l.75-.3-.8-.1c-3.4-.43-4.32.18-6,1.3-.2.13-.42.28-.66.43.22-.87,1.19-2.39,2.22-3.21.02-.02,1.03-.92,3.31-1.82l-.08-.4c-3.91.11-8.24,1.35-11.36,3.25-.79-1.24-3.23-2.13-5.12-1.41-1.39.53-2.45.56-3.07.09-.52-.39-.73-1.14-.63-2.22.06-.64.9-1.39,1.45-1.88.43-.38.62-.55.6-.75,0-.08-.05-.15-.12-.19l-.12-.07-.11.09-.07.06c-4.89,2.01-5.34,4.52-5.16,5.84.23,1.76,1.7,3.11,2.92,3.28,1.65.22,2.97-.55,4.15-1.23,1.04-.6,2.01-1.16,3.08-1.02,0,0,.63.08,1.12.15-.46.34-.86.68-1.2,1.02-.7-.22-1.84-.28-2.97.25-.79.37-1.26.83-1.66,1.24-.54.54-1,1-2.09,1.15-.8.11-1.54-.54-2.4-2.09l-.18-.32-.18.32-.04.07-.03.05v.06c.09,1.82.92,2.72,1.6,3.15.95.6,2.23.68,3.36.21.91-.38,1.52-1.11,2.07-1.75.53-.63,1.03-1.22,1.7-1.39,0,0,.03,0,.06-.01-.13.18-.31.43-.31.43-.54.75-1.01,1.4-1.42,2.35-.68,1.59-.82,3.98-.85,5.27-.06.55-.06,1.17,0,1.86l-.15-.2c-2.61-3.22-5.5-5.93-9.38-8.8-1.09-.78-2.17-1.52-3.23-2.24-2.7-1.83-5.25-3.57-7.63-5.88-5.1-4.95-7.79-11.58-8-19.7-.01-.42-.11-.78-.22-1.13-.14-.48-.25-.89-.13-1.36l-.37-.17c-1.81,2.7-1.39,9.6-1.12,14.17.08,1.34.15,2.5.15,3.27-.05,2.74.33,4.95,1.21,6.95,1.02,2.61,3.6,5.19,3.71,5.3.54.64.99,1.33,1.39,2.11,1.36,2.69,2.13,5.43,1.98,6.91-.33-.61-.91-1.6-1.35-2.12-.28-.32-1.01-.69-2.02-1.2-1.45-.73-3.45-1.74-4.78-3.03-.82-.79-1.89-2.41-2.05-2.8l-.14-.34-.22.3c-.04.05-.97,1.33-1.07,2.26-.22,2.04.89,6.17,2.16,8.04,1.18,1.74,2.65,3.41,4.12,4.71,0,0,3.99,3.81,4.98,4.75-.19.02-.52,0-1.15-.17-2.2-.78-3.64-1.74-4.8-3.22-.7-.9-1.54-2.65-1.64-3.06l-.04-.14-.14-.02-.17-.02-.19-.02-.04.19c-.36,1.76-.42,6.26,1.67,8.94.06.07.11.14.17.2h0c.56.96,1.26,1.83,2.1,2.6.01.02,2.24,2.25,4.53,4.15.4.33.82.69,1.26,1.08,1.82,1.59,4.09,3.57,7.63,5.43h.02s.02.02.02.02c1.81.45,3.21.21,3.84-.65.4-.54.63-1.55-.3-3.33.32.17.65.34.97.5,1.21.6,2.36,1.16,2.9,2.26l1.07,2.15.21.43.17-.45c.46-1.24-.4-3.98-1.4-5.99-.88-1.78-2.05-2.72-3.08-3.55-.86-.69-1.67-1.34-2.17-2.37-.1-.2-.2-.46-.3-.76,1.43,1.5,2.81,1.29,4.16,1.08l.4-.06.41-.06s-.3-.29-.3-.29c-.68-.66-1.24-1.35-1.66-2.05-1.41-2.32-1.46-4.67-1.52-6.94-.05-2.07-.09-4.03-1.16-5.79l-1.6-2.63c1.67.85,4.61,3.34,6.3,6.12,1.53,2.52,1.72,4.55,1.9,6.51.15,1.65.3,3.21,1.28,4.83.42.7,1.11,1.78,1.69,2.63.27.33.53.69.8,1.08h0s0,.02,0,.02c.03.03.05.06.07.08v.03s.04.06.04.06c.63.94,1.27,2.1,1.92,3.44.23.48.39,1.22.48,2.21-.23.86-.73,1.64-1.19,2.29,0,0-.92,1.17-.92,1.17l-.92,1.17c-.59.59-1.16,1.26-1.77,1.98-1.12,1.31-2.27,2.67-3.56,3.53l-.47.31.56.07c1.89.22,3.8-.35,5.63-.9.31-.09.64-.19.96-.28-.97,1.02-2.13,2.04-3.61,2.59h-.01s-.01,0-.01,0c-.3.15-.8.45-.8.74,0,.11.06.21.17.26l-.03-.02c1.43,1.04,3.09.45,4.47-.12-.52,1.82-1.09,3.16-1.67,3.89l-.08.1.06.12c.03.05-.01.26-.04.38-.05.24-.09.49,0,.68l.1.18.18-.09c1.83-.91,3.57-2.35,4.68-3.84.17,2.43.55,4.54,1.17,6.42l.2.59.2-.59c.12-.35.37-.72.61-1.08.26-.38.52-.78.65-1.18v-.02s0-.02,0-.02c.2-1.2.31-2.4.34-3.56,1.04,1.21,2.62,2.41,4.25,3.22l.18.09.09-.18c.1-.19.05-.42,0-.65-.02-.11-.06-.29-.04-.34l.06-.12-.08-.1c-.58-.74-1.16-2.09-1.68-3.92,1.39.58,3.08,1.21,4.54.15l-.03.02c.11-.06.17-.15.17-.27,0-.29-.5-.59-.8-.74h-.01s-.01,0-.01,0c-1.48-.55-2.64-1.57-3.61-2.58.31.09.62.18.93.27,1.84.55,3.74,1.12,5.63.9l.56-.07-.47-.31c-1.29-.86-2.45-2.22-3.56-3.53-.61-.72-1.18-1.39-1.77-1.98l-.92-1.17-.93-1.18c-.51-.71-1.01-1.51-1.22-2.42.09-.92.24-1.62.47-2.08.65-1.34,1.3-2.49,1.92-3.44l.04-.06v-.03s.04-.05.07-.08h0s0-.02,0-.02c.27-.39.53-.75.79-1.07.59-.86,1.28-1.95,1.7-2.64.99-1.62,1.13-3.18,1.28-4.83.18-1.96.37-3.99,1.9-6.51,1.69-2.78,4.63-5.28,6.3-6.12l-1.6,2.63c-1.07,1.76-1.11,3.72-1.16,5.79-.05,2.27-.1,4.62-1.52,6.94-.42.69-.98,1.38-1.66,2.05l-.3.29s.41.06.41.06l.4.06c1.34.21,2.73.42,4.16-1.08-.1.3-.21.56-.3.76-.51,1.03-1.32,1.68-2.17,2.37-1.03.83-2.2,1.78-3.08,3.55-1,2.01-1.86,4.75-1.4,5.99l.17.45.21-.43,1.07-2.15c.54-1.1,1.69-1.66,2.9-2.26.32-.16.65-.32.97-.5-.93,1.78-.69,2.79-.3,3.33.63.86,2.03,1.1,3.84.65h.02s.02-.02.02-.02c3.54-1.87,5.81-3.84,7.63-5.43.44-.38.86-.75,1.26-1.08,2.29-1.9,4.52-4.13,4.54-4.16.83-.76,1.54-1.63,2.09-2.58l.02-.02c.05-.06.11-.12.16-.19,2.09-2.67,2.03-7.17,1.67-8.94l-.04-.19-.19.02-.17.02-.14.02-.04.14c-.11.41-.94,2.16-1.64,3.06-1.16,1.48-2.59,2.44-4.81,3.23-.62.17-.95.19-1.14.16l4.98-4.75c1.47-1.29,2.93-2.96,4.12-4.7,1.28-1.87,2.39-6.01,2.16-8.04-.1-.93-1.03-2.21-1.07-2.26ZM59.8,109.3c-3.79-5.34-2.36-12.02-1.79-14.05l.31.68c.03.13.06.38.11.69.21,1.5.66,4.59,1.73,6.76-.51,1.41-.93,3.91-.35,5.92ZM95.39,109.3c.57-2.01.15-4.51-.35-5.92,1.07-2.17,1.51-5.26,1.73-6.76.05-.32.08-.56.11-.69l.31-.68c.57,2.03,2.01,8.71-1.79,14.05Z"/>
              <path class="cls-6" d="M124.59,54.26l-.11-.16-.17.09-.19.11-.12.07.02.14c.07.54-.08,3.03-.49,4.44-.53,1.83-1.65,3.14-2.84,4.51-1.41,1.64-3.01,3.49-3.91,6.59-1.01,3.52-1.61,8.14-.51,9.97l.25.41.13-.46,1.09-3.79c.57-1.97,2.27-3.22,4.07-4.55,2.09-1.54,4.24-3.13,5.07-6.02,1.18-4.11-1.08-9.51-2.29-11.35Z"/>
              <path class="cls-6" d="M38.41,70.04c-.89-3.09-2.49-4.95-3.91-6.59-1.19-1.38-2.31-2.68-2.84-4.51-.41-1.41-.56-3.9-.49-4.44l.02-.14-.12-.07-.19-.11-.17-.09-.11.16c-1.21,1.83-3.47,7.24-2.29,11.35.83,2.89,2.99,4.48,5.07,6.02,1.8,1.33,3.5,2.58,4.07,4.55l1.09,3.79.13.46.25-.41c1.09-1.84.5-6.46-.51-9.97Z"/>
            </g>
            <path class="cls-7" d="M126.48,65.49c-.79,2.75-2.89,4.3-4.92,5.8-1.86,1.37-3.61,2.67-4.22,4.77l-.93,3.23c-.59-1.75-.3-5.41.78-9.14.87-3.01,2.37-4.75,3.82-6.43,1.22-1.41,2.37-2.75,2.93-4.67.35-1.21.53-3.27.52-4.24,1.21,2.04,3.11,6.92,2.03,10.67ZM37.86,76.06c-.61-2.11-2.36-3.4-4.22-4.77-2.03-1.5-4.13-3.05-4.92-5.8-1.08-3.75.82-8.64,2.03-10.67-.01.96.17,3.02.52,4.24.55,1.92,1.71,3.26,2.93,4.67,1.45,1.68,2.95,3.42,3.82,6.43,1.07,3.73,1.37,7.39.78,9.14l-.93-3.23ZM75.75,78.63c-1.21-.16-2.25.44-3.35,1.07-1.17.68-2.38,1.37-3.89,1.18-1.05-.14-2.37-1.37-2.57-2.92-.15-1.13.23-3.23,4.11-5.05-.59.53-1.33,1.26-1.4,1.98-.12,1.23.15,2.1.79,2.59.74.56,1.94.55,3.47-.03,1.76-.67,4.15.22,4.72,1.4l.02.03-.26-.03-1.65-.22ZM74.69,80.74c-.8.2-1.34.85-1.92,1.53-.54.64-1.1,1.3-1.91,1.64-1,.42-2.15.35-2.98-.18-.67-.43-1.11-1.12-1.3-2.03.78,1.18,1.53,1.67,2.37,1.56,1.23-.16,1.77-.7,2.33-1.27.4-.4.82-.82,1.55-1.16.96-.45,1.93-.43,2.55-.26-.03,0-.05.01-.05.01l-.64.16ZM113.84,91.13c-1.16,1.71-2.6,3.35-4.05,4.63,0,0-5.21,4.97-5.21,4.97l-.14.14.13.15c.25.29.8.3,1.78.04,2.31-.81,3.81-1.82,5.02-3.37.57-.73,1.24-2.03,1.56-2.77.25,1.89.15,5.8-1.67,8.13-.05.06-.1.12-.15.18l-.03.03h-.01s0,.03,0,.03c-.54.92-1.22,1.77-2.04,2.51-.03.03-2.24,2.25-4.51,4.14-.4.33-.82.7-1.26,1.08-1.8,1.57-4.05,3.53-7.53,5.36-1.6.39-2.86.21-3.38-.5-.52-.71-.3-1.9.64-3.45.03-.02.05-.04.08-.06.03-.02.05-.04.08-.06l-.25-.34c-.56.37-1.16.67-1.75.96-1.28.63-2.49,1.22-3.09,2.44,0,0-.47.94-.78,1.58-.03-1.16.53-3.16,1.48-5.07.84-1.69,1.92-2.57,2.97-3.41.89-.72,1.74-1.4,2.29-2.51.32-.64.57-1.59.64-1.87l-.38-.16c-.08.12-.17.25-.26.37-1.42,1.82-2.69,1.62-4.17,1.39h0c.58-.6,1.06-1.21,1.44-1.83,1.47-2.41,1.52-4.82,1.58-7.15.05-2.02.09-3.92,1.1-5.58l1.94-3.18.29-.47-.53.16c-1.53.48-5.15,3.33-7.11,6.55-1.58,2.6-1.78,4.77-1.96,6.68-.15,1.6-.29,3.12-1.22,4.65-.42.69-1.1,1.76-1.68,2.61-.25.31-.52.67-.79,1.07-.05.05-.08.09-.1.11l-.08.07v.09c-.62.95-1.26,2.1-1.9,3.42-.25.51-.42,1.27-.51,2.26v.03s0,.03,0,.03c.22,1,.78,1.88,1.3,2.61,0,0,.93,1.18.93,1.18l.93,1.18h0s0,.02,0,.02c.58.58,1.15,1.25,1.76,1.97,1,1.17,2.03,2.38,3.17,3.26-1.63.05-3.29-.44-4.9-.92-.54-.16-1.1-.33-1.66-.48l-.68-.18.48.52c1.1,1.2,2.43,2.54,4.26,3.22.21.11.41.24.51.33-1.22.82-2.65.34-4.25-.33-.04-.02-.08-.04-.12-.06-.02-.01-.05-.03-.08-.04l-.41-.2.12.44c.38,1.43,1.01,3.34,1.81,4.41-.03.15,0,.32.04.48,0,.04.02.08.02.12-1.67-.88-3.25-2.16-4.17-3.39l-.38-.5v.63c0,1.31-.11,2.67-.34,4.04-.12.35-.36.72-.6,1.07-.15.22-.29.44-.42.67-.56-1.86-.9-3.95-1.03-6.38l-.03-.64-.35.54c-.98,1.53-2.72,3.04-4.57,4.03,0-.06.02-.11.03-.16.04-.18.07-.36.04-.51.8-1.07,1.42-2.96,1.8-4.38l.12-.43-.4.19s-.05.02-.07.03c-.02.01-.04.02-.05.03-1.61.67-3.03,1.15-4.25.33.1-.09.3-.22.51-.33,1.83-.68,3.16-2.02,4.26-3.23l.48-.52-.68.18c-.56.15-1.13.32-1.68.48-1.61.48-3.27.98-4.9.92,1.14-.88,2.17-2.09,3.17-3.26.61-.71,1.18-1.39,1.76-1.97h0s0-.02,0-.02l.93-1.18.92-1.17c.5-.7,1.04-1.53,1.28-2.47v-.03s0-.03,0-.03c-.09-1.06-.26-1.87-.52-2.4-.65-1.32-1.29-2.47-1.91-3.42v-.09s-.08-.07-.08-.07c-.01-.01-.05-.04-.1-.11-.27-.39-.54-.76-.8-1.08-.57-.83-1.25-1.9-1.67-2.59-.93-1.54-1.07-3.05-1.22-4.65-.18-1.91-.38-4.08-1.96-6.68-1.96-3.22-5.58-6.08-7.11-6.55l-.53-.16.29.47,1.94,3.18c1.01,1.66,1.06,3.57,1.1,5.58.05,2.33.11,4.73,1.58,7.15.38.62.87,1.24,1.44,1.83h0c-1.47.23-2.74.43-4.17-1.38-.09-.11-.18-.25-.26-.37l-.38.16c.07.28.32,1.23.64,1.86.55,1.11,1.39,1.79,2.29,2.51,1.05.85,2.13,1.72,2.97,3.41.95,1.91,1.51,3.91,1.48,5.07l-.78-1.58c-.61-1.22-1.81-1.82-3.09-2.44-.59-.29-1.2-.59-1.75-.96l-.25.34s.05.04.08.06c.02.02.05.04.08.06.94,1.55,1.16,2.74.64,3.45-.52.71-1.78.89-3.38.5-3.48-1.84-5.73-3.79-7.53-5.36-.44-.39-.86-.75-1.26-1.08-2.28-1.88-4.48-4.11-4.51-4.13-.82-.75-1.51-1.6-2.04-2.52v-.02s-.02-.01-.02-.01l-.02-.02c-.05-.06-.11-.12-.15-.19-1.81-2.32-1.92-6.23-1.67-8.13.31.75.99,2.05,1.56,2.77,1.21,1.55,2.7,2.55,5,3.36.99.27,1.54.26,1.8-.03l.13-.15-.14-.14-5.2-4.96c-1.46-1.28-2.9-2.92-4.06-4.63-1.21-1.78-2.31-5.84-2.09-7.77.06-.59.53-1.37.8-1.78.39.68,1.28,1.95,1.98,2.62,1.38,1.34,3.41,2.36,4.89,3.1.9.45,1.67.84,1.9,1.1.62.72,1.56,2.53,1.57,2.54l.22.42.16-.45c.58-1.61-.57-5.16-1.89-7.77-.41-.81-.88-1.53-1.45-2.2-.04-.04-2.64-2.64-3.64-5.18-.86-1.95-1.23-4.11-1.18-6.78,0-.79-.07-1.95-.15-3.3-.25-4.12-.61-10.17.65-13.15.04.22.09.44.15.65.09.33.19.67.2,1.03.21,8.24,2.95,14.96,8.12,19.99,2.41,2.34,4.97,4.08,7.69,5.93,1.05.71,2.14,1.45,3.21,2.23,3.85,2.85,6.72,5.54,9.3,8.73,0,0,.3.4.3.4l.32.41.5.65s-.13-.81-.13-.81c-.15-.97-.19-1.82-.1-2.53h0s0-.02,0-.02c.02-1.26.16-3.59.82-5.12.39-.91.85-1.54,1.37-2.27l.45-.64c.04-.05.09-.11.14-.17l.07-.08.19-.23h0s.1-.1.1-.1c.43-.46,1-.92,1.67-1.36l.26-.17h0s.2-.12.2-.12c2.77-1.74,6.57-2.93,10.17-3.23-1.59.75-2.3,1.39-2.33,1.42-1.13.89-2.52,2.97-2.42,3.95l.03.33.28-.18c.39-.24.73-.47,1.04-.67,1.51-1,2.33-1.55,4.97-1.31-4.55,2.25-6.62,7.83-7.16,9.56-.03.11-.06.22-.09.36v.03s0,.03,0,.03c.05.98.08,1.75.08,2.43v.61s.37-.49.37-.49l.18-.24.34-.44c2.58-3.18,5.44-5.87,9.3-8.72,1.08-.78,2.16-1.51,3.21-2.23,2.71-1.85,5.28-3.59,7.69-5.93,5.18-5.03,7.91-11.75,8.12-19.99,0-.36.11-.7.2-1.03.06-.21.12-.43.15-.65,1.26,2.98.9,9.02.65,13.15-.08,1.35-.15,2.51-.15,3.29.05,2.68-.32,4.84-1.18,6.78-1,2.55-3.6,5.15-3.63,5.17-.58.69-1.06,1.41-1.47,2.22-1.32,2.61-2.47,6.16-1.89,7.77l.16.45.22-.42s.95-1.82,1.57-2.54c.22-.26,1-.65,1.89-1.1,1.48-.74,3.5-1.76,4.89-3.1.69-.67,1.59-1.94,1.98-2.62.27.41.74,1.2.8,1.78.21,1.92-.88,5.99-2.09,7.77ZM58.72,95.82v-.02s-.01-.02-.01-.02l-.55-1.21-.22-.49-.17.51c-.33,1.02-3.09,10.1,2.87,16.39l.32-.27c-.19-.25-.33-.48-.45-.7-1-2.02-.51-5.04.06-6.57l.03-.09-.04-.08c-1.07-2.11-1.51-5.22-1.73-6.71-.05-.35-.09-.6-.12-.74ZM97.25,94.09l-.22.49-.55,1.21v.02s-.01.02-.01.02c-.03.14-.07.39-.12.74-.21,1.49-.66,4.6-1.73,6.71l-.04.08.03.09c.57,1.53,1.06,4.55.06,6.57-.11.23-.26.45-.45.7l.32.27c5.95-6.29,3.2-15.37,2.87-16.39l-.17-.51ZM76.92,82.51c.92.28,1.56.46,2.54-.04.98-.5.36-1.96.36-1.96l-2.9,1.99Z"/>
          </g>
        </g>
        <g>
          <g>
            <path class="cls-7" d="M132.42,14.93c-3.15-.15-5.75-2.53-6.17-5.65l-.11-.78-.79-.11-46.42-6.23c-.75-.07-1.87-.07-2.59,0-.04,0-46.39,6.19-46.39,6.19l-.79.11-.1.79c-.42,3.23-3.2,5.68-6.46,5.7h-1.03v26.95c0,.59.23,1.15.65,1.57.42.42.98.65,1.57.65h107.4c.59,0,1.15-.23,1.57-.65.42-.42.65-.98.65-1.57V14.97l-.99-.05Z"/>
            <path class="cls-6" d="M131.33,41.89c0,.07-.07.14-.14.14H23.79s-.08-.02-.1-.04c-.02-.02-.04-.05-.04-.1v-24.95c3.57-.46,6.53-3.12,7.33-6.64l1.85-.25h35.93c1.16-3.79,4.69-6.55,8.87-6.55s7.7,2.76,8.87,6.55h35.7c.91.12,1.64.22,2.13.29.79,3.4,3.57,5.98,7,6.54v25Z"/>
          </g>
          <g>
            <path class="cls-7" d="M128.86,34.81c-.1-.13-.22-.24-.36-.32,0-.09,0-.18,0-.26,0-.02.09-9.21.09-9.21,0-.36-.14-.71-.4-.95-.26-.25-.61-.38-.97-.36-.83.05-1.78.1-2.65.1-.92,0-1.91-.05-2.68-.1-.59-.04-1.13.33-1.32.89l-.22.66c-.13.4-.06.83.18,1.17,0,0,0,0,0,0-.05.07-.09.14-.14.23,0,0-4.39,6.72-4.39,6.72-.09.14-.29.45-.46.69.48-1.91,1.45-5.72,1.45-5.72.2-.76.32-1.15.37-1.32.01-.04.02-.06.03-.09.46-.09.84-.41.99-.87l.22-.66c.14-.41.06-.86-.21-1.2-.27-.34-.68-.53-1.12-.5-.8.05-1.51.1-2.21.1s-1.42-.05-2.17-.1h-.09c-.47-.04-.92.19-1.18.59l-2.03,3.17-.02-2.48c0-.36-.15-.7-.41-.94-.26-.24-.61-.37-.97-.35h-.12c-.74.06-1.45.1-2.22.1s-1.44-.05-2.19-.1c-.59-.04-1.18.32-1.37.89l-.22.66c-.13.4-.06.83.18,1.17.04.05.09.1.13.14-.04.11-.08.22-.12.34l-.16.41s-2.57,6.77-2.57,6.77c-.03.09-.06.15-.08.19-.05,0-.09,0-.13.01v-.06s.09-9.21.09-9.21c0-.36-.14-.71-.4-.95-.26-.25-.61-.38-.97-.36-.83.05-1.78.1-2.65.1-.92,0-1.91-.05-2.68-.1-.59-.04-1.13.33-1.32.89l-.22.66c-.13.4-.06.83.18,1.17,0,0,0,0,0,0-.05.07-.09.14-.14.23,0,0-4.39,6.72-4.39,6.72-.12.18-.44.68-.62.9-.05,0-.1.01-.14.02.66-1.99,2.14-6.48,2.43-7.35.5-.05.94-.39,1.1-.88l.22-.66c.14-.41.06-.86-.21-1.2-.26-.34-.68-.53-1.11-.5-.82.05-1.69.1-2.53.1-.95,0-1.71-.05-2.52-.1-.24-.02-.48.04-.68.15-.21-.11-.43-.16-.67-.15-.85.05-1.64.1-2.6.1-.83,0-1.67-.05-2.45-.1-.59-.04-1.14.33-1.32.89l-.22.66c-.13.4-.06.83.18,1.17.05.07.11.13.18.19-.13.38-.3.91-.5,1.51-.09-.97-.4-1.85-.94-2.6-.98-1.35-2.59-2.1-4.52-2.1-2.06,0-4.21.9-5.94,2.32l.11-.34c.14-.41.06-.87-.21-1.21-.27-.34-.69-.53-1.13-.49-.58.05-1.24.1-1.86.1-.7,0-1.38-.05-2.09-.1-.26-.02-.52.05-.75.17-.22-.12-.47-.19-.73-.17-.84.07-1.64.1-2.57.1-.83,0-1.67-.05-2.45-.1-.59-.04-1.14.33-1.32.89l-.22.66c-.13.4-.06.83.18,1.17.05.07.11.13.18.19-.13.38-.3.91-.5,1.51-.09-.97-.4-1.85-.94-2.6-.98-1.35-2.59-2.1-4.52-2.1-1.83,0-3.72.71-5.33,1.86.09-.12.17-.25.22-.4l.25-.76c.14-.42.06-.88-.22-1.22-.28-.34-.71-.52-1.15-.48-.5.05-1.16.11-1.79.11-.66,0-1.23-.05-1.86-.11-.41-.04-.8.12-1.07.41-.26-.28-.64-.43-1.02-.41-.89.06-1.77.11-2.75.11-.86,0-1.83-.04-2.97-.11-.59-.04-1.14.33-1.32.89l-.24.74c-.13.4-.06.83.18,1.17.13.18.31.32.51.41.07.91.42,5.51.51,6.65l-.64,1.92s0,0-.02,0c-.56,0-1.06.36-1.23.89l-.24.74c-.14.41-.06.86.21,1.2.26.34.68.53,1.11.5.93-.06,1.8-.11,2.83-.11,1.08,0,1.99.05,2.9.11.59.04,1.13-.33,1.32-.89l.24-.74c.13-.4.06-.83-.18-1.17-.07-.1-.17-.19-.27-.26.16-.49.39-1.17.49-1.49l2.98-4.08c-.21.41-.4.83-.54,1.26-.69,2.09-.49,4.05.57,5.51.99,1.37,2.59,2.12,4.51,2.12,2.26,0,4.55-1,6.32-2.57l-.19.59c-.14.41-.06.86.21,1.2.26.34.68.53,1.11.5.82-.05,1.69-.1,2.53-.1.95,0,1.71.05,2.52.1.33.02.64-.09.89-.28.25.2.56.3.88.28.81-.05,1.58-.1,2.31-.1.59,0,1.18.05,1.84.1.6.05,1.15-.32,1.34-.89l.22-.66c.08-.23.08-.48.02-.71.08.14.17.29.26.42.99,1.37,2.59,2.12,4.51,2.12,2.26,0,4.55-1,6.32-2.57l-.19.59c-.14.41-.06.86.21,1.2.26.34.68.53,1.11.5.82-.05,1.69-.1,2.53-.1.95,0,1.71.05,2.52.1.24.02.48-.04.68-.15.21.11.43.16.67.15.85-.05,1.65-.1,2.6-.1.83,0,1.67.05,2.45.1.26.02.51-.05.72-.17.22.12.47.19.73.17h0c.62-.05,1.2-.1,1.74-.1.7,0,1.22.05,1.76.09h.07c.6.06,1.16-.31,1.35-.88l.22-.66c.13-.4.06-.83-.18-1.17-.02-.02-.04-.04-.06-.06.08-.14.17-.28.25-.41h1.36c-.39.13-.7.43-.84.83l-.22.66c-.14.41-.06.86.2,1.2.26.34.68.53,1.11.51.9-.05,1.71-.1,2.58-.1,1.03,0,1.94.05,2.74.1.19.01.37-.02.54-.09.18.07.37.1.57.08.52-.05,1.1-.1,1.62-.1.57,0,1.17.05,1.7.1.48.04.93-.18,1.19-.57.23.35.63.57,1.07.57h2.11c.41,0,.78-.2,1.03-.52,0,0,0,0,0,0,.26.34.68.53,1.11.51h.1c.87-.06,1.68-.1,2.49-.1s1.58.05,2.4.1c.19.01.39-.02.56-.09.18.07.38.11.58.09.62-.05,1.2-.1,1.74-.1.7,0,1.22.05,1.76.09h.07c.6.06,1.16-.31,1.35-.88l.22-.66c.13-.4.06-.83-.18-1.17-.02-.02-.04-.04-.06-.06.08-.14.17-.28.25-.41h1.36c-.39.13-.7.43-.84.83l-.22.66c-.13.41-.06.86.2,1.2.26.34.68.53,1.11.51.9-.05,1.71-.1,2.58-.1,1.03,0,1.94.05,2.74.1.59.04,1.13-.33,1.31-.89l.22-.66c.13-.4.06-.83-.18-1.17ZM67.09,33.21c-.19-.5-.07-2.05.41-3.47.32-.97.84-1.68,1.26-1.72.18.4.15,1.77-.33,3.22-.29.87-.75,1.9-1.33,1.98ZM42.31,33.21c-.19-.5-.07-2.05.41-3.47.32-.97.84-1.68,1.26-1.72.18.4.15,1.77-.33,3.22-.29.87-.75,1.9-1.33,1.98Z"/>
            <g>
              <path class="cls-5" d="M27.36,23.72c.86.06,1.95.12,3.06.12,1.03,0,1.97-.06,2.84-.12l-.24.74c-.44,0-.66.12-.77.43-.06.19-.09.54-.07,1.38l.11,3.35h.04l2.2-3.2c.57-.83.73-1.14.81-1.38.15-.47-.05-.58-.43-.58l.24-.74c.61.06,1.25.12,1.99.12.66,0,1.35-.06,1.92-.12l-.25.76c-.29-.02-.61.06-1.14.78l-5.21,7.13-.75,2.27c-.24.72.16.85.64.85l-.24.74c-.88-.06-1.84-.12-2.98-.12-1.07,0-1.99.06-2.91.12l.24-.74c.46,0,1-.14,1.24-.85l.73-2.21-.54-7.06c-.06-.83-.15-.93-.74-.93l.24-.74Z"/>
              <path class="cls-5" d="M45.14,24.72c3.29,0,4.98,2.57,3.83,6.03-1.13,3.41-4.76,5.75-7.85,5.75s-4.97-2.54-3.85-5.93c1.12-3.37,4.78-5.86,7.87-5.86ZM42.24,34.53c1.5,0,2.24-1.67,2.64-2.89.5-1.51,1.1-4.94-.86-4.94-1.35,0-2.17,1.53-2.54,2.63-.51,1.53-1.22,5.2.76,5.2Z"/>
              <path class="cls-5" d="M52.55,26.39c.22-.66-.2-.73-.57-.73l.22-.66c.78.05,1.65.1,2.54.1.99,0,1.83-.03,2.68-.1l-.22.66c-.4,0-.83.07-1.05.73l-1.41,4.28h.03c3.37-3.56,3.98-4.14,4.1-4.5.12-.37-.13-.5-.43-.5l.22-.66c.74.05,1.47.1,2.23.1.66,0,1.32-.05,1.97-.1l-.22.66c-.36,0-.71.19-1.18.66l-3.22,3.23c.32,1.63.55,3.29.73,4.99.08.77.26,1.03.9,1.03l-.22.66c-.63-.05-1.29-.1-1.95-.1-.78,0-1.59.05-2.4.1-.06-1.72-.23-3.7-.57-5.46h-.03l-1.35,4.07c-.22.66.17.73.57.73l-.22.66c-.81-.05-1.62-.1-2.61-.1-.89,0-1.8.05-2.61.1l.22-.66c.36,0,.83-.07,1.05-.73l2.79-8.45Z"/>
              <path class="cls-5" d="M69.91,24.72c3.29,0,4.98,2.57,3.83,6.03-1.13,3.41-4.76,5.75-7.85,5.75s-4.97-2.54-3.85-5.93c1.12-3.37,4.78-5.86,7.87-5.86ZM67.02,34.53c1.5,0,2.24-1.67,2.64-2.89.5-1.51,1.1-4.94-.86-4.94-1.35,0-2.17,1.53-2.54,2.63-.51,1.53-1.22,5.2.76,5.2Z"/>
              <path class="cls-5" d="M73.48,35.57c.36,0,.83-.07,1.05-.73l2.79-8.45c.22-.66-.2-.73-.57-.73l.22-.66c.78.05,1.65.1,2.54.1.99,0,1.83-.05,2.68-.1l-.22.66c-.4,0-.83.07-1.05.73l-.97,2.92h2.81l.97-2.92c.22-.66-.17-.73-.57-.73l.22-.66c.81.05,1.62.1,2.61.1.89,0,1.8-.05,2.61-.1l-.22.66c-.36,0-.83.07-1.05.73l-2.79,8.45c-.22.66.2.73.57.73l-.22.66c-.78-.05-1.65-.1-2.54-.1-.99,0-1.83.05-2.68.1l.22-.66c.4,0,.83-.07,1.05-.73l1.14-3.44h-2.81l-1.14,3.44c-.22.66.17.73.57.73l-.22.66c-.81-.05-1.62-.1-2.61-.1-.89,0-1.8.05-2.61.1l.22-.66Z"/>
              <path class="cls-5" d="M86.36,35.57c.55,0,.77-.23,1.58-1.48l4.39-6.73c.34-.52.59-.99.67-1.23.09-.28-.13-.47-.57-.47l.22-.66c.84.05,1.83.1,2.76.1s1.82-.05,2.73-.1l-.09,9.2c0,.9,0,1.37.6,1.37l-.22.66c-.87-.05-1.78-.1-2.82-.1-.92,0-1.78.05-2.66.1l.22-.66c.28,0,.82-.09.94-.45.11-.33.15-.64.18-2.09h-3.6c-.66,1.04-1.06,1.7-1.18,2.07-.14.43.27.47.65.47l-.22.66c-.59-.05-1.15-.1-1.95-.1-.59,0-1.22.05-1.85.1l.22-.66ZM94.37,31.36l.16-4.38h-.03l-2.75,4.38h2.63Z"/>
              <path class="cls-5" d="M99.55,35.57c.33,0,.86,0,1.21-1.03l2.57-6.78c.15-.4.32-.82.45-1.22.22-.68-.1-.89-.47-.89l.22-.66c.78.05,1.53.1,2.33.1.86,0,1.62-.05,2.43-.1l.04,6.81h.03l4.37-6.81c.79.05,1.55.1,2.34.1s1.52-.05,2.3-.1l-.22.66c-.38,0-.72.02-1.03.96-.09.26-.22.71-.4,1.41l-1.71,6.76c-.21.78.14.78.58.78l-.22.66c-.84-.05-1.67-.1-2.52-.1s-1.75.05-2.66.1l.22-.66c.43,0,.95-.02,1.22-.83.18-.56.34-1.22.46-1.7l1.15-4.42h-.03l-5.08,7.61h-2.11l-.26-7.65h-.03l-1.73,4.68c-.16.43-.33.85-.47,1.29-.33,1.01.07,1.03.57,1.03l-.22.66c-.59-.05-1.2-.1-1.82-.1-.56,0-1.16.05-1.74.1l.22-.66Z"/>
              <path class="cls-5" d="M115.52,35.57c.54,0,.77-.23,1.58-1.48l4.39-6.73c.34-.52.59-.99.67-1.23.09-.28-.13-.47-.57-.47l.22-.66c.84.05,1.83.1,2.76.1s1.82-.05,2.73-.1l-.09,9.2c0,.9,0,1.37.6,1.37l-.22.66c-.87-.05-1.78-.1-2.82-.1-.92,0-1.78.05-2.66.1l.22-.66c.28,0,.82-.09.94-.45.11-.33.15-.64.18-2.09h-3.6c-.66,1.04-1.06,1.7-1.18,2.07-.14.43.27.47.65.47l-.22.66c-.59-.05-1.15-.1-1.95-.1-.59,0-1.22.05-1.85.1l.22-.66ZM123.54,31.36l.16-4.38h-.03l-2.75,4.38h2.63Z"/>
            </g>
          </g>
          <g>
            <path class="cls-6" d="M83.34,21.76l-3.06-5.17,2.67-4.89.19-.34h-.05c.12-.29.21-.59.25-.89.13-.97-.12-1.91-.72-2.65-.52-.65-1.26-1.06-2.09-1.19-.1-.02-.2-.03-.31-.04l-1.54-.11-3.19-.23v.02c-1.86.02-3.51,1.46-3.75,3.34-.05.38.1,1.25.25,1.62l.06.15h.03s2.88,4.87,2.88,4.87l-2.88,5.29-.25.46.52-.1,2.74-.52,2.01.63.19.06.1-.18.44-.81.48.81.11.18.2-.07,2.02-.77,2.41.89.66.24-.36-.6ZM72.44,11.01v-.02c-.13-.35-.24-1.05-.21-1.32.21-1.65,1.69-2.92,3.33-2.91.77.08,1.46.44,1.94,1.03,0,0,0,0,.01.01-.55.57-.93,1.31-1.04,2.14-.07.52-.05.96.06,1.29l.06.17h.06s.51.86.51.86l-1.9,3.48-2.81-4.74ZM77.79,8.25c.3.54.41,1.18.32,1.83-.05.34-.15.66-.3.97-.02.04-.05.09-.05.09l-.34.63-.43-.73v-.02c-.08-.25-.09-.59-.03-1,.09-.68.4-1.29.83-1.78ZM77.05,21.49l-1.87-.59-.06-.02h-.06s-2.28.44-2.28.44l5.35-9.82h0s.09-.14.09-.14c.2-.39.33-.8.39-1.23.13-.97-.12-1.91-.72-2.65-.19-.23-.41-.43-.65-.61l2.95.21c.82.06,1.54.43,2.04,1.05.51.63.73,1.43.62,2.27-.05.37-.16.73-.34,1.06l-.08.15-5.38,9.86ZM80.72,20.74l-.09-.03-.09.03-1.91.73-.52-.88,1.9-3.48,2.55,4.31-1.84-.68Z"/>
            <g>
              <path class="cls-7" d="M77.15,12.27l-.51-.86h-.06s-.06-.17-.06-.17c-.11-.33-.13-.76-.06-1.29.11-.82.49-1.56,1.04-2.14,0,0,0,0-.01-.01-.48-.59-1.17-.95-1.94-1.03-1.64-.01-3.11,1.25-3.33,2.91-.03.26.08.97.2,1.32v.02s2.81,4.74,2.81,4.74l1.9-3.48Z"/>
              <polygon class="cls-7" points="78.11 20.59 78.63 21.47 80.54 20.74 80.63 20.7 80.72 20.74 82.56 21.41 80.01 17.1 78.11 20.59"/>
              <path class="cls-7" d="M82.23,8.14c-.5-.62-1.23-.99-2.04-1.05l-2.95-.21c.24.17.46.37.65.61.6.74.85,1.68.72,2.65-.06.42-.19.84-.39,1.23,0,0-.07.15-.09.14h0s-5.35,9.82-5.35,9.82l2.28-.43h.06s.06,0,.06,0l1.87.59,5.38-9.86.08-.15c.17-.34.29-.7.34-1.06.11-.83-.11-1.64-.62-2.27ZM77.43,17.6c-.45,0-.81-.36-.81-.81s.36-.81.81-.81.81.36.81.81-.36.81-.81.81Z"/>
            </g>
            <path class="cls-5" d="M77.43,17.6c.45,0,.81-.36.81-.81s-.36-.81-.81-.81-.81.36-.81.81.36.81.81.81Z"/>
          </g>
        </g>
        <g>
          <path class="cls-6" d="M77.61,72.2c4.63,0,8.98-1.8,12.25-5.07,3.27-3.27,5.07-7.62,5.07-12.25s-1.8-8.97-5.07-12.25c-3.27-3.27-7.62-5.07-12.25-5.07-9.55,0-17.32,7.77-17.32,17.32,0,4.63,1.8,8.98,5.07,12.25,3.27,3.27,7.62,5.07,12.25,5.07Z"/>
          <path class="cls-4" d="M62.26,54.88c0-4.1,1.6-7.96,4.5-10.86,2.9-2.9,6.75-4.5,10.86-4.5s7.96,1.6,10.86,4.5c2.9,2.9,4.5,6.75,4.5,10.86,0,8.47-6.89,15.35-15.35,15.35-4.1,0-7.96-1.6-10.86-4.5-2.9-2.9-4.5-6.75-4.5-10.86Z"/>
          <g>
            <path class="cls-6" d="M73.94,50.46l-.47,1.6h4l-.81,2.7h-3.99l-1.34,4.5h-5.09l2.37-8.35h2.68l.18-.72h-2.6c-.69,0-1.42-.33-1.96-1.03-.35-.45-.52-.93-.68-1.49h12.33v2.78h-4.63Z"/>
            <path class="cls-6" d="M86.7,54.6c1.92-.05,2.88.62,2.88.62v-2.98s-1.31-.51-3.52-.43c-.68.02-1.27.09-1.85.17,0-.02-6.19,0-6.19,0,.15.56.32,1.04.67,1.49.56.7,1.28,1.02,1.96,1.02h.89v.03s.03,0,.03,0l-.26.78h-2.76c-.41.6-.7,1.27-.87,1.91-.16.62-.25,1.21-.25,1.75,0,2.97,2.28,4.47,5.14,4.77,2.23.22,4.05-.4,4.05-.4l2.16-3.14s-1.97,1.09-4.2.53c-1.34-.33-1.97-1.13-1.97-2.25,0-.23.04-.5.11-.76.64-2.36,2.56-3.06,4-3.11Z"/>
          </g>
        </g>
      </g>
    </g>
  </g>
</svg>